<?xml version="1.0" encoding="UTF-8"?>
<svg height="802.1" width="4109.62" xmlns="http://www.w3.org/2000/svg">
 <g id="page" xmlns:svgx="http://www.xml-cml.org/schema/svgx">
  <g begin="text"/>
  <g begin="text">
   <text y="73.23" x="390.39,395.052,398.944,400.498,402.052,405.552,407.491,411.383,412.937,416.829,418.768,422.268,424.207,426.146,431.2,435.092,438.984,442.876,444.815,448.707,452.207,456.099,459.991,463.883,465.437" svgx:width="0.67,0.56,0.22,0.22,0.5,0.28,0.56,0.22,0.56,0.28,0.5,0.28,0.28,0.72,0.56,0.56,0.56,0.28,0.56,0.5,0.56,0.56,0.56,0.22,0.28" style="fill:rgb(0,0,0);font-family:ArialMT-Italic;font-size:7.0px;stroke:none;">Beilstein J. Nanotechnol.</text>
   <text y="73.23" x="467.376" svgx:width="0.28" style="fill:rgb(0,0,0);font-family:ArialMT-Regular;font-size:7.0px;stroke:none;"> </text>
   <text y="73.23" x="469.315,473.207,477.099,480.991,484.883" svgx:width="0.56,0.56,0.56,0.56,0.28" style="fill:rgb(0,0,0);font-family:ArialMT-Bold;font-size:7.0px;stroke:none;">2016,</text>
   <text y="73.23" x="486.822" svgx:width="0.28" style="fill:rgb(0,0,0);font-family:ArialMT-Regular;font-size:7.0px;stroke:none;"> </text>
   <text y="73.23" x="488.761,492.653" svgx:width="0.56,0.28" style="fill:rgb(0,0,0);font-family:ArialMT-Italic;font-size:7.0px;stroke:none;">7,</text>
   <text y="73.23" x="494.592,496.531,500.423,504.315,508.207,512.099,515.991,519.883,523.775,527.667,531.559" svgx:width="0.28,0.56,0.56,0.56,0.56,0.56,0.56,0.56,0.56,0.56,0.28" style="fill:rgb(0,0,0);font-family:ArialMT-Regular;font-size:7.0px;stroke:none;"> 1289–1295.</text>
  </g>
  <g begin="text">
   <text y="792.1" x="517.93,521.822,525.714,529.606" svgx:width="0.56,0.56,0.56,0.56" style="fill:rgb(0,0,0);font-family:ArialMT-Regular;font-size:7.0px;stroke:none;">1292</text>
  </g>
  <path style="fill:none;stroke:rgb(218,218,218);stroke-width:1.0;" d="M59.500 301.050 L535.500 301.050 "/>
  <path style="fill:none;stroke:rgb(218,218,218);stroke-width:0.5;" d="M535.250 300.800 L535.250 736.960 "/>
  <path style="fill:none;stroke:rgb(218,218,218);stroke-width:0.5;" d="M59.750 300.800 L59.750 736.960 "/>
  <path style="fill:none;stroke:rgb(218,218,218);stroke-width:0.5;" d="M535.500 762.750 L59.500 762.750 "/>
  <path style="fill:none;stroke:rgb(218,218,218);stroke-width:0.5;" d="M535.250 736.960 L535.250 763.000 "/>
  <path style="fill:none;stroke:rgb(218,218,218);stroke-width:0.5;" d="M59.750 736.960 L59.750 763.000 "/>
  <rect style="stroke:blue;stroke-width:0.3;" x="99.62" y="273.12" height="407.52" width="395.76" title="4"/>
  <text y="273.12" class="image" id="image.4.1" width="395" height="407" x="99.62">image.4.1.100_495.273_681</text>
  <g begin="text"/>
  <g begin="text">
   <text y="748.03" x="65.47,69.74,71.679,75.949,80.219,82.942,86.834,88.773,92.665,94.996" svgx:width="0.61,0.28,0.61,0.61,0.39,0.56,0.28,0.56,0.33,0.28" style="fill:rgb(0,0,0);font-family:ArialMT-Bold;font-size:7.0px;stroke:none;">Figure 3: </text>
   <text y="748.03" x="96.935,99.266,103.158,105.489,107.428,112.482,115.982,119.482,121.036,122.59,126.09,128.029,131.529,135.421,136.975,138.914,142.806,148.637,154.468,158.36,160.299,162.63,166.13,168.069,171.569,175.461,177.792,181.292,185.184,188.684,190.623,192.562,194.893,198.785,201.116,203.055,206.947,210.839,212.393,215.893,219.785,223.677,227.569,231.069,233.008,236.9,238.839,240.393,243.893,245.832,249.724,251.278,254.778,258.278,262.17,266.062,268.393,272.285,276.177,280.069,283.569,287.461,291.353,293.684,297.576,301.468,303.407,307.299,309.63,313.522,315.461,317.015,318.569,322.461,325.961,327.9,329.839,332.17,335.67,338.001,339.94,342.271,346.163,348.102,351.994,353.933,357.433,361.325,365.217,369.109,372.609,374.163,376.102,379.602,381.541,383.48,387.372,391.264,395.156,397.095,399.426,403.318,405.257,407.196,411.088,413.419,415.358,418.858,422.358,425.858,427.412,428.966,432.858,436.75,438.689,442.581,446.473,448.804,450.743,454.635,456.966,462.797,466.689,470.581,474.081,477.973,479.912,483.804,485.743,487.682,489.621,493.513,497.405,499.344,503.236,507.128,509.067,514.121,518.013,520.344" svgx:width="0.33,0.56,0.33,0.28,0.72,0.5,0.5,0.22,0.22,0.5,0.28,0.5,0.56,0.22,0.28,0.56,0.83,0.83,0.56,0.28,0.33,0.5,0.28,0.5,0.56,0.33,0.5,0.56,0.5,0.28,0.28,0.33,0.56,0.33,0.28,0.56,0.56,0.22,0.5,0.56,0.56,0.56,0.5,0.28,0.56,0.28,0.22,0.5,0.28,0.56,0.22,0.5,0.5,0.56,0.56,0.33,0.56,0.56,0.56,0.5,0.56,0.56,0.33,0.56,0.56,0.28,0.56,0.33,0.56,0.28,0.22,0.22,0.56,0.5,0.28,0.28,0.33,0.5,0.33,0.28,0.33,0.56,0.28,0.56,0.28,0.5,0.56,0.56,0.56,0.5,0.22,0.28,0.5,0.28,0.28,0.56,0.56,0.56,0.28,0.33,0.56,0.28,0.28,0.56,0.33,0.28,0.5,0.5,0.5,0.22,0.22,0.56,0.56,0.28,0.56,0.56,0.33,0.28,0.56,0.33,0.83,0.56,0.56,0.5,0.56,0.28,0.56,0.28,0.28,0.28,0.56,0.56,0.28,0.56,0.56,0.28,0.72,0.56,0.33,0.5" style="fill:rgb(0,0,0);font-family:ArialMT-Regular;font-size:7.0px;stroke:none;">(a) Cyclic voltammetry curves, (b) galvanostatic discharge–charge profiles, (c) rate capacity, and (d, e) cycling performance of the network</text>
   <text y="757.03" x="65.47,69.362,71.301,73.24,76.74,80.632,82.186,86.078,89.97,91.524,95.416,97.747,99.301,100.855,104.355,108.247,110.186,113.686,117.578,119.909,123.801,127.693,131.585,133.524,137.416,141.308,145.2,149.092,151.031,152.585,156.477,160.369,162.7,166.2,168.139,172.031,175.923,179.423,183.315,187.207,189.538,193.43,197.322,199.261,204.315,205.869,207.808,211.7,213.639,219.47,223.362,228.801,230.74,234.632,238.524,242.416,244.355,249.409" svgx:width="0.56,0.28,0.28,0.5,0.56,0.22,0.56,0.56,0.22,0.56,0.33,0.22,0.22,0.5,0.56,0.28,0.5,0.56,0.33,0.56,0.56,0.56,0.28,0.56,0.56,0.56,0.56,0.28,0.22,0.56,0.56,0.33,0.5,0.28,0.56,0.56,0.5,0.56,0.56,0.33,0.56,0.56,0.28,0.72,0.22,0.28,0.56,0.28,0.83,0.56,0.78,0.28,0.56,0.56,0.56,0.28,0.72,0.28" style="fill:rgb(0,0,0);font-family:ArialMT-Regular;font-size:7.0px;stroke:none;">of spindle-like carbon nanofibers anchored with MnO and N.</text>
  </g>
  <g begin="text">
   <text y="112.0" x="59.5,64.007,66.264,70.771,75.277,79.784,84.291,86.548,91.055,95.562,97.836,104.341,106.615,109.115,113.621,115.896,118.395,122.902,126.896,129.17,132.678,136.672,140.666,145.173,149.679,154.186,156.46,160.454,164.961,169.468,171.742,174.242,178.749,181.249,184.252,188.759,191.033,195.027,199.534,203.528,206.028,210.022,212.296,215.3,219.806,222.063,226.57,231.077,233.334,237.841,242.348,245.352,247.608,249.882,256.387,260.894,265.401,267.901,270.401,272.901,277.408,281.914,285.908,288.408" svgx:width="0.5,0.25,0.5,0.5,0.5,0.5,0.25,0.5,0.5,0.25,0.72,0.25,0.28,0.5,0.25,0.28,0.5,0.44,0.25,0.39,0.44,0.44,0.5,0.5,0.5,0.25,0.44,0.5,0.5,0.25,0.28,0.5,0.28,0.33,0.5,0.25,0.44,0.5,0.44,0.28,0.44,0.25,0.33,0.5,0.25,0.5,0.5,0.25,0.5,0.5,0.33,0.25,0.25,0.72,0.5,0.5,0.28,0.28,0.28,0.5,0.5,0.44,0.28,0.33" style="fill:rgb(0,0,0);font-family:TimesNewRomanWGL;font-size:9.0px;stroke:none;">1.33–1.36 V in the second and third cycle [8,15,20]. Additional-</text>
   <text y="125.0" x="59.5,62.194,66.895,69.346,71.596,72.299,74.993,79.694,83.881,86.131,86.835,93.533,97.721,101.909,106.61,108.86,109.563,114.264,118.452,122.64,127.341,129.591,130.294,134.482,138.67,143.371,146.064,150.252,153.45,157.638,162.339,164.589,165.292,169.48,172.174,174.424,175.127,179.828,182.279,186.98,191.681,193.931,194.634,201.333,203.583,204.286,211.48,215.668,220.368,222.618,223.322,228.022,232.21,234.46,235.163,239.351,243.053,247.241,250.439,253.133,257.834,262.022,266.723,268.973,269.676,272.37,277.071,279.321,280.024,282.718,287.418" svgx:width="0.28,0.5,0.25,0.25,0.55,0.28,0.5,0.44,0.25,0.55,0.72,0.44,0.44,0.5,0.25,0.55,0.5,0.44,0.44,0.5,0.25,0.55,0.44,0.44,0.5,0.28,0.44,0.33,0.44,0.5,0.25,0.55,0.44,0.28,0.25,0.55,0.5,0.25,0.5,0.5,0.25,0.55,0.72,0.25,0.55,0.78,0.44,0.5,0.25,0.55,0.5,0.44,0.25,0.55,0.44,0.39,0.44,0.33,0.28,0.5,0.44,0.5,0.25,0.55,0.28,0.5,0.25,0.55,0.28,0.5,0.44" style="fill:rgb(0,0,0);font-family:TimesNewRomanWGL;font-size:9.0px;stroke:none;">ly, the weak peak centered at 2.35 V may be ascribed to the</text>
   <text y="138.0" x="59.5,62.572,66.634,69.706,74.281,78.857,81.425,86.0,90.062,92.63,95.198,99.773,104.348,106.861,111.436,114.509,117.022,125.098" svgx:width="0.33,0.44,0.33,0.5,0.5,0.28,0.5,0.44,0.28,0.28,0.5,0.5,0.25,0.5,0.33,0.25,0.89,0.5" style="fill:rgb(0,0,0);font-family:TimesNewRomanWGL;font-size:9.0px;stroke:none;">re-oxidation of Mn</text>
   <text y="134.85" x="129.673,133.348" svgx:width="0.5,0.56" style="fill:rgb(0,0,0);font-family:TimesNewRomanWGL;font-size:7.2px;stroke:none;">2+</text>
   <text y="138.0" x="137.477,139.99,142.558,147.133,149.646,153.708,156.221,160.796,163.364,167.939,172.514,176.576,179.648,182.161,186.736,191.312,193.88,198.455,202.517,205.085,207.653,212.228,216.803,219.316,222.892,225.461,229.523,232.091,236.153,238.666,241.234,245.809,248.881,253.456,258.031,262.607,267.182,269.695,273.757,276.27,280.845,284.907" svgx:width="0.25,0.28,0.5,0.25,0.44,0.25,0.5,0.28,0.5,0.5,0.44,0.33,0.25,0.5,0.5,0.28,0.5,0.44,0.28,0.28,0.5,0.5,0.25,0.39,0.28,0.44,0.28,0.44,0.25,0.28,0.5,0.33,0.5,0.5,0.5,0.5,0.25,0.44,0.25,0.5,0.44,0.72" style="fill:rgb(0,0,0);font-family:TimesNewRomanWGL;font-size:9.0px;stroke:none;"> to a higher oxidation state through a new</text>
   <text y="151.0" x="59.5,63.586,66.178,70.265,74.351,76.943,80.039,84.639,88.725,93.324,97.41,104.503,107.095,111.181,115.267,117.86,120.457,123.553,127.639,131.726,135.812,138.404,140.996,145.596,150.195,152.792,155.888,160.488,162.837,167.436,169.785,174.385,178.984,182.08,184.429,187.027,193.624,196.72,199.312,203.399,206.495,209.092,211.685,216.284,220.37,222.967,226.064,228.656,231.752,235.352,237.945,240.542,244.628,249.227,253.314,255.906,259.992,262.341,264.939,267.531,272.13,276.216,278.814,284.907" svgx:width="0.44,0.28,0.44,0.44,0.28,0.33,0.5,0.44,0.5,0.44,0.78,0.28,0.44,0.44,0.28,0.25,0.33,0.44,0.44,0.44,0.28,0.28,0.5,0.5,0.25,0.33,0.5,0.25,0.5,0.25,0.5,0.5,0.33,0.25,0.25,0.72,0.33,0.28,0.44,0.33,0.25,0.28,0.5,0.44,0.25,0.33,0.28,0.33,0.39,0.28,0.25,0.44,0.5,0.44,0.28,0.44,0.25,0.25,0.28,0.5,0.44,0.25,0.67,0.72" style="fill:rgb(0,0,0);font-family:TimesNewRomanWGL;font-size:9.0px;stroke:none;">electrochemical reaction [4,7,27]. After the first cycle, the CV</text>
   <text y="164.0" x="59.5,63.636,68.284,71.43,76.078,80.214,83.863,86.633,90.769,93.914,98.05,100.819,107.466,111.602,114.243,116.885,120.03,124.679,129.327,133.463,136.608,139.25,143.385,148.034,152.682,156.818,161.466,163.865,166.635,171.283,175.419,179.554,182.196,186.331,189.477,192.118,196.767,201.416,204.185,208.321,211.091,215.739,220.388,225.036,229.685,232.455,236.59,239.232,243.367,247.503,250.144,253.29,257.938,262.074,266.722,270.858,278.0,280.641,284.777,288.912" svgx:width="0.44,0.5,0.33,0.5,0.44,0.39,0.25,0.44,0.33,0.44,0.25,0.72,0.44,0.28,0.28,0.33,0.5,0.5,0.44,0.33,0.28,0.44,0.5,0.5,0.44,0.5,0.25,0.25,0.5,0.44,0.44,0.28,0.44,0.33,0.28,0.5,0.5,0.25,0.44,0.25,0.5,0.5,0.5,0.5,0.25,0.44,0.28,0.44,0.44,0.28,0.33,0.5,0.44,0.5,0.44,0.78,0.28,0.44,0.44,0.28" style="fill:rgb(0,0,0);font-family:TimesNewRomanWGL;font-size:9.0px;stroke:none;">curves are well-overlapped, declaring a good electrochemical</text>
   <text y="177.0" x="59.5,62.774,67.037,71.814,76.077,79.351,83.128,85.898,90.674,93.444,96.214,98.983,101.753,106.529,108.779,109.747,114.011,118.787,123.564,125.814,126.782,130.559,133.329,136.603,141.379,145.643,148.412,153.189,156.462,160.726,163.495,165.745,166.713,170.491,173.261,177.524,182.301,185.07,187.84,190.609,193.379,198.156,200.406,201.373,206.15,209.424,211.674,212.642,215.411,220.188,224.451,226.701,227.669,231.933,234.702,238.966,243.229,245.999,249.273,254.049,258.826,263.089,265.616,267.866,268.834,274.6,279.377,283.64,287.418" svgx:width="0.33,0.44,0.5,0.44,0.33,0.39,0.28,0.5,0.28,0.28,0.28,0.28,0.5,0.25,0.55,0.44,0.5,0.5,0.25,0.55,0.39,0.28,0.33,0.5,0.44,0.28,0.5,0.33,0.44,0.28,0.25,0.55,0.39,0.28,0.44,0.5,0.28,0.28,0.28,0.28,0.5,0.25,0.55,0.5,0.33,0.25,0.55,0.28,0.5,0.44,0.25,0.55,0.44,0.28,0.44,0.44,0.28,0.33,0.5,0.5,0.44,0.25,0.25,0.55,0.61,0.5,0.44,0.39,0.44" style="fill:rgb(0,0,0);font-family:TimesNewRomanWGL;font-size:9.0px;stroke:none;">reversibility and structural stability of the electrode. These</text>
   <text y="190.0" x="59.5,62.638,66.767,70.409,75.05,77.685,80.319,83.962,86.706,90.835,93.973,98.101,100.846,104.974,109.616,114.257,117.396,120.03,123.168,130.303,134.431,139.072,141.817,146.458,151.1,153.845,156.479,161.12,165.249,167.993,172.635,175.269,179.397,182.032,186.16,190.289,194.93,198.572,201.317,203.951,208.593,211.338,213.972,218.613,222.742,225.486,230.128,234.256,236.89,241.532,245.66,250.301,254.943,258.585,261.22,265.348,267.982,270.617,274.745,277.49,282.131,284.766,288.408" svgx:width="0.33,0.44,0.39,0.5,0.28,0.28,0.39,0.25,0.44,0.33,0.44,0.25,0.44,0.5,0.5,0.33,0.28,0.33,0.78,0.44,0.5,0.25,0.5,0.5,0.25,0.28,0.5,0.44,0.25,0.5,0.28,0.44,0.28,0.44,0.44,0.5,0.39,0.25,0.28,0.5,0.25,0.28,0.5,0.44,0.25,0.5,0.44,0.28,0.5,0.44,0.5,0.5,0.39,0.28,0.44,0.28,0.28,0.44,0.25,0.5,0.28,0.39,0.33" style="fill:rgb(0,0,0);font-family:TimesNewRomanWGL;font-size:9.0px;stroke:none;">results are confirmed by the plateaus in the galvanostatic dis-</text>
   <text y="203.0" x="59.5,63.517,68.047,72.064,75.092,79.622,83.639,88.169,92.186,96.716,100.733,103.761,108.291,112.308,114.663,119.193,122.221,126.751,129.778,132.301,134.824,138.841,142.372,144.728,148.259,152.789,157.319,163.847,168.378,170.733,173.256,177.786,180.142,185.176,187.699,192.229,196.759,199.787,203.804,206.084,210.614,215.144,217.424,219.78,226.308,230.838,233.193,235.717,240.247,242.77,245.293,247.816,251.833,254.356,256.712,261.242,263.765,267.296,271.314,275.844,279.861,282.888,287.418" svgx:width="0.44,0.5,0.44,0.33,0.5,0.44,0.5,0.44,0.5,0.44,0.33,0.5,0.44,0.25,0.5,0.33,0.5,0.33,0.28,0.28,0.44,0.39,0.25,0.39,0.5,0.5,0.72,0.5,0.25,0.28,0.5,0.25,0.56,0.28,0.5,0.5,0.33,0.44,0.25,0.5,0.5,0.25,0.25,0.72,0.5,0.25,0.28,0.5,0.28,0.28,0.28,0.44,0.28,0.25,0.5,0.28,0.39,0.44,0.5,0.44,0.33,0.5,0.44" style="fill:rgb(0,0,0);font-family:TimesNewRomanWGL;font-size:9.0px;stroke:none;">charge–charge profiles shown in Figure 3b. An initial discharge</text>
   <text y="216.0" x="59.5,63.541,67.581,72.135,76.176,80.216,82.763,85.31,89.863,92.301,96.855,99.906,102.343,106.897,111.451,116.004,120.558,122.862,127.415,129.853,136.9,143.452,145.889,150.443,152.881" svgx:width="0.44,0.44,0.5,0.44,0.44,0.28,0.28,0.5,0.25,0.5,0.33,0.25,0.5,0.5,0.5,0.5,0.25,0.5,0.25,0.78,0.72,0.25,0.5,0.25,0.5" style="fill:rgb(0,0,0);font-family:TimesNewRomanWGL;font-size:9.0px;stroke:none;">capacity of 1188.6 mA h g</text>
   <text y="212.85" x="157.435,161.542" svgx:width="0.56,0.5" style="fill:rgb(0,0,0);font-family:TimesNewRomanWGL;font-size:7.2px;stroke:none;">−1</text>
   <text y="216.0" x="165.196,167.633,170.18,173.735,176.173,180.726,185.28,187.827,191.867,194.414,198.968,203.008,207.562,209.866,212.304,218.855,223.409,225.956,229.996,234.55,236.988,239.534,243.089,245.527,252.574,257.127,261.168,265.722,268.159,272.713,275.26,279.813,284.367,288.408" svgx:width="0.25,0.28,0.39,0.25,0.5,0.5,0.28,0.44,0.28,0.5,0.44,0.5,0.25,0.25,0.72,0.5,0.28,0.44,0.5,0.25,0.28,0.39,0.25,0.78,0.5,0.44,0.5,0.25,0.5,0.28,0.5,0.5,0.44,0.33" style="fill:rgb(0,0,0);font-family:TimesNewRomanWGL;font-size:9.0px;stroke:none;"> is obtained, which is much higher</text>
   <text y="229.0" x="59.5,62.132,66.772,70.898,75.537,78.275,82.915,87.554,90.69,94.817,97.555,105.695,110.334,116.972,119.709,122.846,127.485,132.125,136.764,139.502,146.634,153.272,157.911,160.649" svgx:width="0.28,0.5,0.44,0.5,0.25,0.5,0.5,0.33,0.44,0.25,0.89,0.5,0.72,0.25,0.33,0.5,0.5,0.5,0.25,0.78,0.72,0.5,0.25,0.5" style="fill:rgb(0,0,0);font-family:TimesNewRomanWGL;font-size:9.0px;stroke:none;">than pure MnO (755 mAh g</text>
   <text y="225.85" x="165.288,169.481" svgx:width="0.56,0.5" style="fill:rgb(0,0,0);font-family:TimesNewRomanWGL;font-size:7.2px;stroke:none;">−1</text>
   <text y="229.0" x="173.22,176.357,179.095,183.221,187.86,192.5,195.237,197.87,202.509,205.646,209.772,213.898,217.035,220.171,224.81,227.443,232.082,234.82,239.459,242.092,246.731,251.37,255.497,258.633,261.371,264.003,268.643,272.769,277.408,280.146,282.779,287.418" svgx:width="0.33,0.25,0.44,0.5,0.5,0.25,0.28,0.5,0.33,0.44,0.44,0.33,0.33,0.5,0.28,0.5,0.25,0.5,0.28,0.5,0.5,0.44,0.33,0.25,0.28,0.5,0.44,0.5,0.25,0.28,0.5,0.44" style="fill:rgb(0,0,0);font-family:TimesNewRomanWGL;font-size:9.0px;stroke:none;">) and three-fold higher than the</text>
   <text y="242.0" x="59.5,62.189,66.886,71.069,75.765,78.959,83.142,85.831,88.521,92.704,96.887,99.577,101.827,102.514,107.21,111.393,114.083,118.779,122.962,126.66,128.91,129.597,134.293,137.486,139.736,140.423,145.12,149.816,153.009,157.193,159.443,160.13,164.313,168.497,171.69,176.386,181.082,185.779,188.029,188.716,191.909,196.606,201.302,205.998,208.248,208.935,216.125,222.819,227.515,229.765,230.452" svgx:width="0.28,0.5,0.44,0.5,0.33,0.44,0.28,0.28,0.44,0.44,0.28,0.25,0.55,0.5,0.44,0.28,0.5,0.44,0.39,0.25,0.55,0.5,0.33,0.25,0.55,0.5,0.5,0.33,0.44,0.25,0.55,0.44,0.44,0.33,0.5,0.5,0.5,0.25,0.55,0.33,0.5,0.5,0.5,0.25,0.55,0.78,0.72,0.5,0.25,0.55,0.5" style="fill:rgb(0,0,0);font-family:TimesNewRomanWGL;font-size:9.0px;stroke:none;">theoretical values of pure carbon (372 mAh g</text>
   <text y="238.85" x="235.149,239.399" svgx:width="0.56,0.5" style="fill:rgb(0,0,0);font-family:TimesNewRomanWGL;font-size:7.2px;stroke:none;">−1</text>
   <text y="242.0" x="243.195,246.388,248.835,251.085,251.772,257.458,262.154,266.338,268.588,269.275,271.964,276.66,279.35,282.039,284.728,288.912" svgx:width="0.33,0.25,0.25,0.55,0.61,0.5,0.44,0.25,0.55,0.28,0.5,0.28,0.28,0.28,0.44,0.28" style="fill:rgb(0,0,0);font-family:TimesNewRomanWGL;font-size:9.0px;stroke:none;">). The initial</text>
   <text y="255.0" x="59.5,63.557,68.127,72.184,75.251,79.82,83.877,86.372,90.429,94.486,99.056,103.113,107.169,109.732,112.295,116.865,119.36,121.923,125.493,127.988,132.558,137.128,141.698,144.018,148.588,151.082,158.145,164.713,169.283,171.777" svgx:width="0.44,0.5,0.44,0.33,0.5,0.44,0.25,0.44,0.44,0.5,0.44,0.44,0.28,0.28,0.5,0.25,0.28,0.39,0.25,0.5,0.5,0.5,0.25,0.5,0.25,0.78,0.72,0.5,0.25,0.5" style="fill:rgb(0,0,0);font-family:TimesNewRomanWGL;font-size:9.0px;stroke:none;">charge capacity is 900.1 mAh g</text>
   <text y="251.85" x="176.347,180.471" svgx:width="0.56,0.5" style="fill:rgb(0,0,0);font-family:TimesNewRomanWGL;font-size:7.2px;stroke:none;">−1</text>
   <text y="255.0" x="184.141,186.461,188.955,191.518,195.575,199.632,204.202,206.765,211.335,215.904,218.399,220.962,225.532,228.026,232.083,234.578,238.635,243.205,247.775,250.337,254.907,261.97,266.54,269.103,273.16,275.655,279.711,282.778,285.845,288.408" svgx:width="0.25,0.25,0.28,0.44,0.44,0.5,0.28,0.5,0.5,0.25,0.28,0.5,0.25,0.44,0.25,0.44,0.5,0.5,0.28,0.5,0.78,0.5,0.28,0.44,0.25,0.44,0.33,0.33,0.28,0.33" style="fill:rgb(0,0,0);font-family:TimesNewRomanWGL;font-size:9.0px;stroke:none;">, leading to a coulombic effi-</text>
   <text y="268.0" x="59.5,63.68,66.366,70.545,75.238,79.418,84.111,87.035,91.728,94.918,97.843,102.536,107.228,109.671,114.364,122.054,124.497,127.421,133.104,137.797,141.977,144.901,149.081,153.261,157.954,162.134,166.313,168.999,171.685,176.378,179.302,183.995,186.681,189.871,193.061,197.24,200.43,204.61,209.303,213.483,217.662,220.587,225.28,229.46,232.146,238.836,243.016,247.196,251.889,254.813,257.499,262.192,266.372,268.622,269.297,271.982,276.675,279.361,282.047,284.732,288.912" svgx:width="0.44,0.28,0.44,0.5,0.44,0.5,0.25,0.5,0.33,0.25,0.5,0.5,0.25,0.5,0.83,0.25,0.25,0.61,0.5,0.44,0.25,0.44,0.44,0.5,0.44,0.44,0.28,0.28,0.5,0.25,0.5,0.28,0.33,0.33,0.44,0.33,0.44,0.5,0.44,0.44,0.25,0.5,0.44,0.28,0.72,0.44,0.44,0.5,0.25,0.28,0.5,0.44,0.25,0.55,0.28,0.5,0.28,0.28,0.28,0.44,0.28" style="fill:rgb(0,0,0);font-family:TimesNewRomanWGL;font-size:9.0px;stroke:none;">ciency of 75.8%. The capacity difference between the initial</text>
   <text y="281.0" x="59.5,63.752,68.517,72.769,76.031,80.795,85.047,87.297,88.224,92.476,97.241,102.006,104.256,105.183,109.948,112.706,116.472,120.724,125.488,129.74,133.002,137.767,142.019,144.269,145.196,152.454,156.706,159.464,164.229,166.986,171.751,174.001,174.928,179.693,186.456,190.708,194.474,196.724,197.651,200.409,205.174,207.424,208.351,211.109,215.874,220.126,222.376,223.303,227.554,230.312,234.564,238.816,241.574,244.836,249.601,253.853,258.618,262.869,270.127,272.885,277.137,281.389,284.147,286.905" svgx:width="0.44,0.5,0.44,0.33,0.5,0.44,0.25,0.55,0.44,0.5,0.5,0.25,0.55,0.5,0.28,0.39,0.44,0.5,0.44,0.33,0.5,0.44,0.25,0.55,0.78,0.44,0.28,0.5,0.28,0.5,0.25,0.55,0.5,0.72,0.44,0.39,0.25,0.55,0.28,0.5,0.25,0.55,0.28,0.5,0.44,0.25,0.55,0.44,0.28,0.44,0.44,0.28,0.33,0.5,0.44,0.5,0.44,0.78,0.28,0.44,0.44,0.28,0.28,0.5" style="fill:rgb(0,0,0);font-family:TimesNewRomanWGL;font-size:9.0px;stroke:none;">charge and discharge mainly owes to the electrochemically</text>
  </g>
  <g begin="text">
   <text y="112.0" x="303.6,308.123,311.143,313.659,318.182,322.192,326.715,329.046,333.056,335.572,339.582,343.592,346.108,349.128,353.652,356.168,360.691,363.207,367.217,369.548,374.071,378.081,382.604,385.624,389.634,394.157,398.167,400.683,403.199,407.722,412.245,414.518,416.849,423.37,427.893,430.409,434.419,438.942,441.273,444.293,448.303,451.827,456.35,458.866,461.382,464.906,467.237,469.753,474.276,476.607,479.123,483.646,487.656,489.987,493.007,497.53,500.55,507.566,511.576,514.092,516.608,521.131,525.654,527.985,532.508" svgx:width="0.5,0.33,0.28,0.5,0.44,0.5,0.25,0.44,0.28,0.44,0.44,0.28,0.33,0.5,0.28,0.5,0.28,0.44,0.25,0.5,0.44,0.5,0.33,0.44,0.5,0.44,0.28,0.28,0.5,0.5,0.25,0.25,0.72,0.5,0.28,0.44,0.5,0.25,0.33,0.44,0.39,0.5,0.28,0.28,0.39,0.25,0.28,0.5,0.25,0.28,0.5,0.44,0.25,0.33,0.5,0.33,0.78,0.44,0.28,0.28,0.5,0.5,0.25,0.5,0.33" style="fill:rgb(0,0,0);font-family:TimesNewRomanWGL;font-size:9.0px;stroke:none;">driven electrolyte degradation, which results in the formation of</text>
   <text y="125.0" x="303.6,307.29,311.979,314.661,317.343,322.032,324.944,329.12,331.802,335.978,340.155,342.837,346.023,350.712,353.394,358.083,360.765,364.941,367.853,370.535,375.224,377.906,382.082,385.268,388.454,392.63,396.806,400.983,403.894,407.08,412.273,417.953,421.139,424.325,427.236,430.422,433.105,435.787,442.969,446.659,449.571,454.26,458.949,461.861,464.543,469.232,473.408,476.32,480.01,484.699,487.885,491.071,495.247,499.423,503.599,506.511,511.2,514.386,517.298,521.474,524.156,528.332,532.508" svgx:width="0.39,0.5,0.28,0.28,0.5,0.25,0.44,0.28,0.44,0.44,0.28,0.33,0.5,0.28,0.5,0.28,0.44,0.25,0.28,0.5,0.28,0.44,0.33,0.33,0.44,0.44,0.44,0.25,0.33,0.56,0.61,0.33,0.33,0.25,0.33,0.28,0.28,0.78,0.39,0.25,0.5,0.5,0.25,0.28,0.5,0.44,0.25,0.39,0.5,0.33,0.33,0.44,0.44,0.44,0.25,0.5,0.33,0.25,0.44,0.28,0.44,0.44,0.33" style="fill:rgb(0,0,0);font-family:TimesNewRomanWGL;font-size:9.0px;stroke:none;">solid electrolyte interface (SEI) films on the surface of elec-</text>
   <text y="138.0" x="303.6,306.246,309.396,314.049,318.702,322.842,325.627,328.777,333.43,335.833,340.486,345.138,348.288,350.691,353.477,356.626,361.279,364.065,366.711,371.363,375.503,378.289,382.942,387.594,392.247,394.65,397.436,402.088,406.741,409.387,414.04,416.825,420.965,425.618,430.271,433.056,437.709,442.362,445.008,449.661,452.446,456.586,461.239,465.379,468.025,472.165,474.568,477.353,482.006,486.659,489.305,493.958,496.743,501.396,504.546,507.331,509.977,514.63,518.77,521.555,526.208,528.854,532.508" svgx:width="0.28,0.33,0.5,0.5,0.44,0.25,0.33,0.5,0.25,0.5,0.5,0.33,0.25,0.25,0.33,0.5,0.25,0.28,0.5,0.44,0.25,0.5,0.5,0.5,0.25,0.25,0.5,0.5,0.28,0.5,0.25,0.44,0.5,0.5,0.25,0.5,0.5,0.28,0.5,0.25,0.44,0.5,0.44,0.28,0.44,0.25,0.25,0.5,0.5,0.28,0.5,0.25,0.5,0.33,0.25,0.28,0.5,0.44,0.25,0.5,0.28,0.39,0.33" style="fill:rgb(0,0,0);font-family:TimesNewRomanWGL;font-size:9.0px;stroke:none;">trode [8,28]. In the 2nd, 10th and 50th cycle, both of the dis-</text>
   <text y="151.0" x="303.6,307.747,312.408,316.555,319.713,324.373,328.521,331.332,335.48,340.14,344.801,347.612,351.76,356.42,360.568,363.725,368.386,372.533,375.345,379.492,384.153,387.31,391.971,396.118,399.78,402.591,407.252,411.399,415.547,420.207,427.361,431.508,434.32,437.981,442.642,447.302,450.459,453.113,457.26,460.418,463.229,467.89,472.55,476.698,479.509,482.163,486.823,489.635,492.288,496.949,501.096,503.908,508.568,511.726,516.386,519.04,523.7,527.848,531.005" svgx:width="0.44,0.5,0.44,0.33,0.5,0.44,0.25,0.44,0.5,0.5,0.25,0.44,0.5,0.44,0.33,0.5,0.44,0.25,0.44,0.5,0.33,0.5,0.44,0.39,0.25,0.5,0.44,0.44,0.5,0.78,0.44,0.25,0.39,0.5,0.5,0.33,0.28,0.44,0.33,0.25,0.5,0.5,0.44,0.25,0.28,0.5,0.25,0.28,0.5,0.44,0.25,0.5,0.33,0.5,0.28,0.5,0.44,0.33,0.5" style="fill:rgb(0,0,0);font-family:TimesNewRomanWGL;font-size:9.0px;stroke:none;">charge and charge curves become shorter due to the ordinary</text>
   <text y="164.0" x="303.6,307.733,311.867,316.513,320.646,324.78,327.419,330.058,334.705,337.467,340.61,344.743,349.39,352.029,356.675,361.322,363.718,366.48,373.124,377.258,381.904,386.037,389.181,391.82,396.466,400.6,403.239,407.372,411.02,414.667,417.063,419.825,422.465,427.111,431.244,434.007,438.14,442.273,446.92,451.053,455.186,457.826,460.465,465.111,467.873,472.52,476.653,481.299,483.939,488.585,492.232,494.994,497.634,502.28,505.042,507.681,512.328,516.461,519.604,523.738,527.871,531.518" svgx:width="0.44,0.44,0.5,0.44,0.44,0.28,0.28,0.5,0.25,0.33,0.44,0.5,0.28,0.5,0.5,0.25,0.25,0.72,0.44,0.5,0.44,0.33,0.28,0.5,0.44,0.28,0.44,0.39,0.39,0.25,0.25,0.28,0.5,0.44,0.25,0.44,0.44,0.5,0.44,0.44,0.28,0.28,0.5,0.25,0.5,0.44,0.5,0.28,0.5,0.39,0.25,0.28,0.5,0.25,0.28,0.5,0.44,0.33,0.44,0.44,0.39,0.44" style="fill:rgb(0,0,0);font-family:TimesNewRomanWGL;font-size:9.0px;stroke:none;">capacity fading. Nevertheless, the capacity begins to increase</text>
   <text y="177.0" x="303.6,307.692,310.793,313.391,317.483,320.584,323.2,325.798,330.403,334.494,337.111,341.715,346.32,350.925,353.522,358.127,360.743,364.835,369.439,373.531,376.129,380.22,382.575,385.191,393.297,397.388,401.993,406.598,409.214,413.819,416.92,421.012,425.617,428.214,432.819,437.423,441.029,443.645,450.248,454.853,457.954,462.559,466.165,468.781,473.385,477.477,482.082,486.173,488.79,491.891,495.983,500.588,505.192,508.294,510.892,514.983,519.588,522.204,524.802,529.406,532.004" svgx:width="0.44,0.33,0.28,0.44,0.33,0.25,0.28,0.5,0.44,0.25,0.5,0.5,0.5,0.28,0.5,0.25,0.44,0.5,0.44,0.28,0.44,0.25,0.25,0.89,0.44,0.5,0.5,0.25,0.5,0.33,0.44,0.5,0.28,0.5,0.5,0.39,0.25,0.72,0.5,0.33,0.5,0.39,0.25,0.5,0.44,0.5,0.44,0.25,0.33,0.44,0.5,0.5,0.33,0.28,0.44,0.5,0.25,0.28,0.5,0.28,0.39" style="fill:rgb(0,0,0);font-family:TimesNewRomanWGL;font-size:9.0px;stroke:none;">after the 100th cycle. Many previous works have reported this</text>
   <text y="190.0" x="303.6,307.106,309.604,316.603,319.101,321.599,325.591,328.593,330.861,335.367,339.872,343.864,348.369,352.874,359.872,363.865,368.37,372.875,377.38,379.648,384.154,387.156,389.424,391.922,396.427,400.419,402.688,406.68,410.672,415.177,419.169,423.161,425.66,428.158,432.663,434.931,437.933,440.431,443.434,446.94,449.438,451.706,456.211,460.203,464.196,467.198,471.19,475.182,478.688,481.187,485.692,490.197,492.465,496.457,500.962,505.468,507.736,510.234,514.739,518.731,523.236,525.505,528.003,532.508" svgx:width="0.39,0.28,0.78,0.28,0.28,0.44,0.33,0.25,0.5,0.5,0.44,0.5,0.5,0.78,0.44,0.5,0.5,0.5,0.25,0.5,0.33,0.25,0.28,0.5,0.44,0.25,0.44,0.44,0.5,0.44,0.44,0.28,0.28,0.5,0.25,0.33,0.28,0.33,0.39,0.28,0.25,0.5,0.44,0.44,0.33,0.44,0.44,0.39,0.28,0.5,0.5,0.25,0.44,0.5,0.5,0.25,0.28,0.5,0.44,0.5,0.25,0.28,0.5,0.33" style="fill:rgb(0,0,0);font-family:TimesNewRomanWGL;font-size:9.0px;stroke:none;">similar phenomenon of the capacity first decreasing and then in-</text>
   <text y="203.0" x="303.6,307.892,311.194,315.486,319.778,323.585,326.383,331.188,335.993,338.243,339.311,342.613,347.418,349.973,354.778,357.333,362.138,366.944,369.499,374.304,379.109,382.411,384.966,387.216,388.284,393.593,398.398,401.7,403.95,405.018,407.816,412.621,415.419,419.226,421.476,422.543,427.349,430.147,434.952,439.244,444.049,446.299,447.367,451.173,455.978,459.784,462.582,466.874,474.172,476.728,478.978,480.045,482.844,487.649,490.447,494.253,496.503,497.571,501.377,506.182,510.987,515.792,518.59,523.395,525.645,526.713,531.518" svgx:width="0.44,0.33,0.44,0.44,0.39,0.28,0.5,0.5,0.25,0.55,0.33,0.5,0.25,0.5,0.25,0.5,0.5,0.25,0.5,0.5,0.33,0.25,0.25,0.55,0.56,0.5,0.33,0.25,0.55,0.28,0.5,0.28,0.39,0.25,0.55,0.5,0.28,0.5,0.44,0.5,0.25,0.55,0.39,0.5,0.39,0.28,0.44,0.78,0.25,0.25,0.55,0.28,0.5,0.28,0.39,0.25,0.55,0.39,0.5,0.5,0.5,0.28,0.5,0.25,0.55,0.5,0.44" style="fill:rgb(0,0,0);font-family:TimesNewRomanWGL;font-size:9.0px;stroke:none;">creasing [4,8,23,28]. For this given system, this should be</text>
   <text y="216.0" x="303.6,310.678,314.75,317.329,321.914,324.492,329.077,331.626,336.211,340.796,344.869,347.417,349.995,354.58,357.129,359.707,364.292,368.364,370.913,374.985,379.057,381.636,384.214,388.799,392.871,395.45,398.028,402.613,407.198,409.747,414.332,417.414,419.962,422.541,427.126,431.198,433.747,440.825,444.897,447.475,451.548,454.63,457.208,461.28,463.858,466.194,468.742,471.32,475.906,479.978,482.526,485.608,490.194,493.276,500.354,504.426,507.005,509.583,514.168,518.753,521.302,525.887,528.969,531.518" svgx:width="0.78,0.44,0.28,0.5,0.28,0.5,0.25,0.5,0.5,0.44,0.25,0.28,0.5,0.25,0.28,0.5,0.44,0.25,0.44,0.44,0.28,0.28,0.5,0.44,0.28,0.28,0.5,0.5,0.25,0.5,0.33,0.25,0.28,0.5,0.44,0.25,0.78,0.44,0.28,0.44,0.33,0.28,0.44,0.28,0.25,0.25,0.28,0.5,0.44,0.25,0.33,0.5,0.33,0.78,0.44,0.28,0.28,0.5,0.5,0.25,0.5,0.33,0.25,0.44" style="fill:rgb(0,0,0);font-family:TimesNewRomanWGL;font-size:9.0px;stroke:none;">mainly due to the activation of the material, the formation of a</text>
   <text y="229.0" x="303.6,308.164,310.72,315.284,319.848,323.898,326.959,329.432,333.996,338.559,341.116,345.68,349.731,352.287,354.844,359.408,363.971,366.444,370.009,372.566,376.616,379.173,383.224,385.697,390.26,393.321,395.794,403.859,408.422,410.895,414.946,419.51,424.073,426.546,429.103,433.667,437.717,440.19,443.251,447.302,451.865,455.916,458.977,462.542,465.098,469.662,472.219,474.775,477.332,479.889,484.452,486.925,489.482,496.539,501.102,504.163,508.727,513.291,517.341,524.398,528.449,533.012" svgx:width="0.5,0.28,0.5,0.5,0.44,0.33,0.25,0.5,0.5,0.28,0.5,0.44,0.28,0.28,0.5,0.5,0.25,0.39,0.28,0.44,0.28,0.44,0.25,0.5,0.33,0.25,0.89,0.5,0.25,0.44,0.5,0.5,0.25,0.28,0.5,0.44,0.25,0.33,0.44,0.5,0.44,0.33,0.39,0.28,0.5,0.28,0.28,0.28,0.28,0.5,0.25,0.28,0.78,0.5,0.33,0.5,0.5,0.44,0.78,0.44,0.5,0.28" style="fill:rgb(0,0,0);font-family:TimesNewRomanWGL;font-size:9.0px;stroke:none;">higher oxidation state of Mn and the reversibility improvement</text>
   <text y="242.0" x="303.6,306.729,311.361,314.489,317.201,319.826,324.457,328.576,331.287,335.406,340.038,344.67,349.302,353.42,356.549,360.182,362.807,367.439,372.07,374.782,377.911,382.029,386.148,390.267,392.892,395.517,400.148,404.78,407.162,409.873,415.009,417.634,422.266,426.898,430.026,434.145,436.527,441.159,445.278,447.989,451.622,456.253,460.885,467.515,471.148,473.859,476.484,481.116,485.235,487.946,491.075,495.194,497.818,501.937,504.648,508.767,512.886,517.518,521.637,525.755,528.38,531.005" svgx:width="0.33,0.5,0.33,0.25,0.28,0.5,0.44,0.25,0.44,0.5,0.5,0.5,0.44,0.33,0.39,0.28,0.5,0.5,0.25,0.33,0.44,0.44,0.44,0.28,0.28,0.5,0.5,0.25,0.25,0.56,0.28,0.5,0.5,0.33,0.44,0.25,0.5,0.44,0.25,0.39,0.5,0.5,0.72,0.39,0.25,0.28,0.5,0.44,0.25,0.33,0.44,0.28,0.44,0.25,0.44,0.44,0.5,0.44,0.44,0.28,0.28,0.5" style="fill:rgb(0,0,0);font-family:TimesNewRomanWGL;font-size:9.0px;stroke:none;">for the conversion reaction. Figure 3c shows the rate capacity</text>
   <text y="255.0" x="303.6,306.1,310.095,313.603,316.103,320.098,324.605,326.881,331.388,335.895,338.171,340.671,345.178,349.173,351.448,354.957,357.457,361.451,365.959,372.464,374.964,378.473,382.467,384.743,387.243,391.75,395.745,398.749,402.743,406.738,410.246,414.24,416.516,419.016,423.523,425.799,428.299,432.807,436.801,439.077,443.071,447.578,450.583,453.587,457.581,462.089,464.589,466.865,471.372,475.366,479.874,483.382,485.882,488.383,492.89,495.165,498.17,501.174,505.681,512.682,514.957,519.465,521.722,526.229,528.505,531.005" svgx:width="0.28,0.44,0.39,0.28,0.44,0.5,0.25,0.5,0.5,0.25,0.28,0.5,0.44,0.25,0.39,0.28,0.44,0.5,0.72,0.28,0.39,0.44,0.25,0.28,0.5,0.44,0.33,0.44,0.44,0.39,0.44,0.25,0.28,0.5,0.25,0.28,0.5,0.44,0.25,0.44,0.5,0.33,0.33,0.44,0.5,0.28,0.25,0.5,0.44,0.5,0.39,0.28,0.28,0.5,0.25,0.33,0.33,0.5,0.78,0.25,0.5,0.25,0.5,0.25,0.28,0.5" style="fill:rgb(0,0,0);font-family:TimesNewRomanWGL;font-size:9.0px;stroke:none;">tested by the stepwise increase in the current density from 0.2 to</text>
   <text y="268.0" x="303.6,308.348,310.845,315.593,317.843,318.71,325.455,327.705,328.572" svgx:width="0.5,0.25,0.5,0.25,0.55,0.72,0.25,0.55,0.5" style="fill:rgb(0,0,0);font-family:TimesNewRomanWGL;font-size:9.0px;stroke:none;">2.0 A g</text>
   <text y="264.85" x="333.32,337.621" svgx:width="0.56,0.5" style="fill:rgb(0,0,0);font-family:TimesNewRomanWGL;font-size:7.2px;stroke:none;">−1</text>
   <text y="268.0" x="341.469,343.966,346.216,347.083,355.818,360.565,364.8,369.548,371.798,372.664,375.405,378.146,380.396,381.263,384.507,388.742,391.482,396.23,399.475,404.222,407.971,410.221,411.088,413.829,418.576,420.826,421.693,426.441,428.938,433.686,435.936,436.803,443.548,445.798,446.665" svgx:width="0.25,0.25,0.55,0.94,0.5,0.44,0.5,0.25,0.55,0.28,0.28,0.25,0.55,0.33,0.44,0.28,0.5,0.33,0.5,0.39,0.25,0.55,0.28,0.5,0.25,0.55,0.5,0.25,0.5,0.25,0.55,0.72,0.25,0.55,0.5" style="fill:rgb(0,0,0);font-family:TimesNewRomanWGL;font-size:9.0px;stroke:none;">. When it returns to 0.2 A g</text>
   <text y="264.85" x="451.413,455.714" svgx:width="0.56,0.5" style="fill:rgb(0,0,0);font-family:TimesNewRomanWGL;font-size:7.2px;stroke:none;">−1</text>
   <text y="268.0" x="459.562,461.812,462.678,466.913,471.661,475.895,478.636,483.384,485.881,488.131,488.998,491.739,496.486,500.721,502.971,503.838,508.072,512.307,517.055,521.289,525.524,528.265,531.005" svgx:width="0.25,0.55,0.44,0.5,0.44,0.28,0.5,0.25,0.25,0.55,0.28,0.5,0.44,0.25,0.55,0.44,0.44,0.5,0.44,0.44,0.28,0.28,0.5" style="fill:rgb(0,0,0);font-family:TimesNewRomanWGL;font-size:9.0px;stroke:none;"> again, the capacity</text>
   <text y="281.0" x="303.6,306.76,310.911,315.061,319.724,324.387,328.538,331.698,335.362,338.184,340.84,345.503,348.325,352.988,357.651,362.314,364.728,369.391,372.212,379.369,386.03,390.693,393.515" svgx:width="0.33,0.44,0.44,0.5,0.5,0.44,0.33,0.39,0.25,0.28,0.5,0.25,0.5,0.5,0.5,0.25,0.5,0.25,0.78,0.72,0.5,0.25,0.5" style="fill:rgb(0,0,0);font-family:TimesNewRomanWGL;font-size:9.0px;stroke:none;">recovers to 860.7 mAh g</text>
   <text y="277.85" x="398.178,402.395" svgx:width="0.56,0.5" style="fill:rgb(0,0,0);font-family:TimesNewRomanWGL;font-size:7.2px;stroke:none;">−1</text>
   <text y="281.0" x="406.158,408.98,413.13,417.793,422.456,425.278,432.434,436.584,439.241,443.904,446.56,450.71,453.367,458.03,461.694,464.516,467.172,471.835,474.492,478.156,480.977,485.641,489.791,492.447,497.11,501.261,504.082,508.745,513.409,516.065,518.721,521.377,524.199,526.855,531.518" svgx:width="0.25,0.44,0.5,0.5,0.25,0.78,0.44,0.28,0.5,0.28,0.44,0.28,0.5,0.39,0.25,0.28,0.5,0.28,0.39,0.25,0.5,0.44,0.28,0.5,0.44,0.25,0.5,0.5,0.28,0.28,0.28,0.25,0.28,0.5,0.44" style="fill:rgb(0,0,0);font-family:TimesNewRomanWGL;font-size:9.0px;stroke:none;"> and maintains this value until the</text>
  </g>
 </g>
</svg>
