<?xml version="1.0" encoding="UTF-8"?>
<svg height="802.1" width="543.526" xmlns="http://www.w3.org/2000/svg">
 <g id="page" xmlns:svgx="http://www.xml-cml.org/schema/svgx">
  <g begin="text"/>
  <g begin="text">
   <text y="73.23" x="390.39,395.052,398.944,400.498,402.052,405.552,407.491,411.383,412.937,416.829,418.768,422.268,424.207,426.146,431.2,435.092,438.984,442.876,444.815,448.707,452.207,456.099,459.991,463.883,465.437" svgx:width="0.67,0.56,0.22,0.22,0.5,0.28,0.56,0.22,0.56,0.28,0.5,0.28,0.28,0.72,0.56,0.56,0.56,0.28,0.56,0.5,0.56,0.56,0.56,0.22,0.28" style="fill:rgb(0,0,0);font-family:ArialMT-Italic;font-size:7.0px;stroke:none;">Beilstein J. Nanotechnol.</text>
   <text y="73.23" x="467.376" svgx:width="0.28" style="fill:rgb(0,0,0);font-family:ArialMT-Regular;font-size:7.0px;stroke:none;"> </text>
   <text y="73.23" x="469.315,473.207,477.099,480.991,484.883" svgx:width="0.56,0.56,0.56,0.56,0.28" style="fill:rgb(0,0,0);font-family:ArialMT-Bold;font-size:7.0px;stroke:none;">2016,</text>
   <text y="73.23" x="486.822" svgx:width="0.28" style="fill:rgb(0,0,0);font-family:ArialMT-Regular;font-size:7.0px;stroke:none;"> </text>
   <text y="73.23" x="488.761,492.653" svgx:width="0.56,0.28" style="fill:rgb(0,0,0);font-family:ArialMT-Italic;font-size:7.0px;stroke:none;">7,</text>
   <text y="73.23" x="494.592,496.531,500.423,504.315,508.207,512.099,515.991,519.883,523.775,527.667,531.559" svgx:width="0.28,0.56,0.56,0.56,0.56,0.56,0.56,0.56,0.56,0.56,0.28" style="fill:rgb(0,0,0);font-family:ArialMT-Regular;font-size:7.0px;stroke:none;"> 1289–1295.</text>
  </g>
  <g begin="text">
   <text y="792.1" x="517.93,521.822,525.714,529.606" svgx:width="0.56,0.56,0.56,0.56" style="fill:rgb(0,0,0);font-family:ArialMT-Regular;font-size:7.0px;stroke:none;">1295</text>
  </g>
  <g begin="text">
   <text y="110.0" x="59.5,63.392,67.284" svgx:width="0.56,0.56,0.28" style="fill:rgb(0,0,0);font-family:ArialMT-Regular;font-size:7.0px;stroke:none;">28.</text>
  </g>
  <g begin="text">
   <text y="110.0" x="70.27,75.324,76.878,78.817,80.756,85.418,87.357,89.296,91.235,95.127,98.627,100.566,102.505,107.167,109.106,111.045,112.984,116.876,118.43,120.369,122.308,126.578,128.517,130.456,132.395,137.057,140.949,144.841,148.733,150.672,152.611,157.273,159.212,161.151,163.09,167.36,171.252,175.144,179.036,182.928,184.867,186.806,190.698,192.637,194.576,196.515,201.569,205.461,209.353,211.292,213.231,217.893,219.832" svgx:width="0.72,0.22,0.28,0.28,0.67,0.28,0.28,0.28,0.56,0.5,0.28,0.28,0.67,0.28,0.28,0.28,0.56,0.22,0.28,0.28,0.61,0.28,0.28,0.28,0.67,0.56,0.56,0.56,0.28,0.28,0.67,0.28,0.28,0.28,0.61,0.56,0.56,0.56,0.56,0.28,0.28,0.56,0.28,0.28,0.28,0.72,0.56,0.56,0.28,0.28,0.67,0.28,0.28" style="fill:rgb(0,0,0);font-family:ArialMT-Regular;font-size:7.0px;stroke:none;">Ni, S.; Lv, X.; Li, T.; Yang, X.; Zhang, L.; Ren, Y. </text>
   <text y="110.0" x="221.771,226.433,227.987,231.879,235.379,237.318,239.649,243.541,247.041,250.933,252.487,258.318,260.257,262.196,266.858,270.358,272.297" svgx:width="0.67,0.22,0.56,0.5,0.28,0.33,0.56,0.5,0.56,0.22,0.83,0.28,0.28,0.67,0.5,0.28,0.56" style="fill:rgb(0,0,0);font-family:ArialMT-Italic;font-size:7.0px;stroke:none;">Electrochim. Acta</text>
   <text y="121.0" x="70.27,74.162,78.054,81.946,85.838" svgx:width="0.56,0.56,0.56,0.56,0.28" style="fill:rgb(0,0,0);font-family:ArialMT-Bold;font-size:7.0px;stroke:none;">2013,</text>
   <text y="121.0" x="87.777" svgx:width="0.28" style="fill:rgb(0,0,0);font-family:ArialMT-Regular;font-size:7.0px;stroke:none;"> </text>
   <text y="121.0" x="89.716,93.608,97.5" svgx:width="0.56,0.56,0.28" style="fill:rgb(0,0,0);font-family:ArialMT-Italic;font-size:7.0px;stroke:none;">96,</text>
   <text y="121.0" x="99.439,101.378,105.27,109.162,113.054,116.946,120.838,124.73,128.622,130.561,132.5,136.392,140.284,141.838,143.777,147.669,151.561,153.5,157.392,161.284,165.176,169.068,171.007,172.561,174.5,178.392,179.946,183.838,187.338,189.277,193.169,196.669,198.608,202.5,204.439,208.331,212.223,216.115,220.007,221.946,225.838,229.73,231.669,235.561,239.453" svgx:width="0.28,0.56,0.56,0.56,0.56,0.56,0.56,0.56,0.28,0.28,0.56,0.56,0.22,0.28,0.56,0.56,0.28,0.56,0.56,0.56,0.56,0.28,0.22,0.28,0.56,0.22,0.56,0.5,0.28,0.56,0.5,0.28,0.56,0.28,0.56,0.56,0.56,0.56,0.28,0.56,0.56,0.28,0.56,0.56,0.56" style="fill:rgb(0,0,0);font-family:ArialMT-Regular;font-size:7.0px;stroke:none;"> 253–260. doi:10.1016/j.electacta.2013.02.106</text>
  </g>
  <g begin="text">
   <text y="132.0" x="59.5,63.392,67.284" svgx:width="0.56,0.56,0.28" style="fill:rgb(0,0,0);font-family:ArialMT-Regular;font-size:7.0px;stroke:none;">29.</text>
  </g>
  <g begin="text">
   <text y="132.0" x="70.27,75.324,76.878,78.817,80.756,85.418,87.357,89.296,91.235,95.897,99.789,103.681,107.573,109.512,111.451,116.113,118.052,119.991,121.93,125.822,127.376,129.315,131.254,135.524,137.463" svgx:width="0.72,0.22,0.28,0.28,0.67,0.28,0.28,0.28,0.67,0.56,0.56,0.56,0.28,0.28,0.67,0.28,0.28,0.28,0.56,0.22,0.28,0.28,0.61,0.28,0.28" style="fill:rgb(0,0,0);font-family:ArialMT-Regular;font-size:7.0px;stroke:none;">Ni, S.; Yang, X.; Li, T. </text>
   <text y="132.0" x="139.402,142.902,144.841,146.78,152.611,156.503,158.442,162.334,164.665,166.604,168.543,173.597,177.489,181.381,187.212" svgx:width="0.5,0.28,0.28,0.83,0.56,0.28,0.56,0.33,0.28,0.28,0.72,0.56,0.56,0.83,0.28" style="fill:rgb(0,0,0);font-family:ArialMT-Italic;font-size:7.0px;stroke:none;">J. Mater. Chem.</text>
   <text y="132.0" x="189.151" svgx:width="0.28" style="fill:rgb(0,0,0);font-family:ArialMT-Regular;font-size:7.0px;stroke:none;"> </text>
   <text y="132.0" x="191.09,194.982,198.874,202.766,206.658" svgx:width="0.56,0.56,0.56,0.56,0.28" style="fill:rgb(0,0,0);font-family:ArialMT-Bold;font-size:7.0px;stroke:none;">2012,</text>
   <text y="132.0" x="208.597" svgx:width="0.28" style="fill:rgb(0,0,0);font-family:ArialMT-Regular;font-size:7.0px;stroke:none;"> </text>
   <text y="132.0" x="210.536,214.428,218.32" svgx:width="0.56,0.56,0.28" style="fill:rgb(0,0,0);font-family:ArialMT-Italic;font-size:7.0px;stroke:none;">22,</text>
   <text y="132.0" x="220.259,222.198,226.09,229.982,233.874,237.766,241.658,245.55,249.442,253.334,257.226" svgx:width="0.28,0.56,0.56,0.56,0.56,0.56,0.56,0.56,0.56,0.56,0.28" style="fill:rgb(0,0,0);font-family:ArialMT-Regular;font-size:7.0px;stroke:none;"> 2395–2397.</text>
   <text y="143.0" x="70.27,74.162,78.054,79.608,81.547,85.439,89.331,91.27,95.162,99.054,102.946,106.838,108.777,112.277,116.169,117.723,123.554,127.446,131.338,135.23,139.122,143.014" svgx:width="0.56,0.56,0.22,0.28,0.56,0.56,0.28,0.56,0.56,0.56,0.56,0.28,0.5,0.56,0.22,0.83,0.56,0.56,0.56,0.56,0.56,0.56" style="fill:rgb(0,0,0);font-family:ArialMT-Regular;font-size:7.0px;stroke:none;">doi:10.1039/c2jm15394g</text>
  </g>
  <g begin="text">
   <text y="187.63" x="67.37,74.598,77.484,83.984,91.212,98.44,104.94,112.168,115.769,122.997,130.225,137.453,141.054,148.984,156.212,160.541,171.37" svgx:width="0.56,0.22,0.5,0.56,0.56,0.5,0.56,0.28,0.56,0.56,0.56,0.28,0.61,0.56,0.33,0.83,0.5" style="fill:rgb(0,0,0);font-family:ArialMT-Regular;font-size:13.0px;stroke:none;">License and Terms</text>
  </g>
  <path style="fill:none;stroke:rgb(0,0,0);stroke-width:0.84;" d="M70.360 235.630 L225.660 235.630 "/>
  <g begin="text">
   <text y="207.63" x="67.37,72.86,77.36,79.853,83.354,85.604,88.097,91.598,93.848,97.835,102.335,104.585,111.083,115.583,119.57,124.07,126.32,132.818,136.805,140.792,144.779,148.28,151.781,154.031,158.018,161.015,163.508,166.001,169.988,172.481,176.468,178.718,183.218,187.718,192.218,196.205,199.202,201.452,203.945,208.445,212.432,214.682,217.175,221.162,224.159,231.152,234.653,236.903,241.403,244.4,246.65,249.143,253.643" svgx:width="0.61,0.5,0.28,0.39,0.25,0.28,0.39,0.25,0.44,0.5,0.25,0.72,0.5,0.44,0.5,0.25,0.72,0.44,0.44,0.44,0.39,0.39,0.25,0.44,0.33,0.28,0.28,0.44,0.28,0.44,0.25,0.5,0.5,0.5,0.44,0.33,0.25,0.28,0.5,0.44,0.25,0.28,0.44,0.33,0.78,0.39,0.25,0.5,0.33,0.25,0.28,0.5,0.44" style="fill:rgb(0,0,0);font-family:TimesNewRomanWGL;font-size:9.0px;stroke:none;">This is an Open Access article under the terms of the</text>
   <text y="220.63" x="67.37,73.364,76.361,80.348,84.335,86.828,89.321,93.821,97.808,100.058,106.052,110.552,117.545,124.538,129.038,133.538,137.039,139.289,145.787,148.28,150.773,153.77,156.263,160.763,165.263,167.756,170.249,174.749,179.249,181.499,186.989,189.482,193.469,197.456,201.956,205.457" svgx:width="0.67,0.33,0.44,0.44,0.28,0.28,0.5,0.44,0.25,0.67,0.5,0.78,0.78,0.5,0.5,0.39,0.25,0.72,0.28,0.28,0.33,0.28,0.5,0.5,0.28,0.28,0.5,0.5,0.25,0.61,0.28,0.44,0.44,0.5,0.39,0.44" style="fill:rgb(0,0,0);font-family:TimesNewRomanWGL;font-size:9.0px;stroke:none;">Creative Commons Attribution License</text>
   <text y="233.63" x="67.37,70.367,74.867,77.36,79.853,84.353,86.846,89.339,91.832,95.819,98.816,102.803,106.79,109.283,111.776,116.276,120.263,124.25,128.75,135.743,142.736,147.236,151.736,155.237,157.487,161.987,164.984,169.484,171.977,174.47,176.963,180.95,184.937,189.437,192.938,196.925,200.426,202.919,207.419,211.919,214.412,218.912,221.162,225.662,228.659,230.909,233.159,239.657,244.157,246.65,250.637" svgx:width="0.33,0.5,0.28,0.28,0.5,0.28,0.28,0.28,0.44,0.33,0.44,0.44,0.28,0.28,0.5,0.44,0.44,0.5,0.78,0.78,0.5,0.5,0.39,0.25,0.5,0.33,0.5,0.28,0.28,0.28,0.44,0.44,0.5,0.39,0.44,0.39,0.28,0.5,0.5,0.28,0.5,0.25,0.5,0.33,0.25,0.25,0.72,0.5,0.28,0.44,0.5" style="fill:rgb(0,0,0);font-family:TimesNewRomanWGL;font-size:9.0px;stroke:none;">(http://creativecommons.org/licenses/by/4.0), which</text>
   <text y="246.63" x="67.37,71.87,75.857,78.854,85.847,88.34,90.833,94.334,96.584,101.084,105.584,108.581,112.568,116.069,118.562,121.559,124.052,128.039,130.532,134.519,139.019,141.269,145.769,149.27,153.257,155.507,157.757,162.257,164.75,168.251,170.744,173.741,176.234,180.734,185.234,187.727,190.22,194.72,199.22,201.47,203.72,207.707,212.207,216.707,218.957,221.954,225.941,230.441,233.438,237.938,242.438,246.938,250.925,253.418,255.911,260.411,264.911,267.161,269.654" svgx:width="0.5,0.44,0.33,0.78,0.28,0.28,0.39,0.25,0.5,0.5,0.33,0.44,0.39,0.28,0.33,0.28,0.44,0.28,0.44,0.5,0.25,0.5,0.39,0.44,0.25,0.25,0.5,0.28,0.39,0.28,0.33,0.28,0.5,0.5,0.28,0.28,0.5,0.5,0.25,0.25,0.44,0.5,0.5,0.25,0.33,0.44,0.5,0.33,0.5,0.5,0.5,0.44,0.28,0.28,0.5,0.5,0.25,0.28,0.5" style="fill:rgb(0,0,0);font-family:TimesNewRomanWGL;font-size:9.0px;stroke:none;">permits unrestricted use, distribution, and reproduction in</text>
   <text y="259.63" x="67.37,71.357,75.857,80.357,82.607,89.6,93.587,98.087,100.58,105.08,112.073,114.323,116.573,121.073,124.07,128.57,133.07,135.563,140.063,144.05,148.55,150.8,153.293,157.793,161.78,164.03,168.53,171.527,174.02,178.52,181.013,185.513,189.5,191.993,194.243,200.741,205.241,208.238,212.738,214.988,217.481,220.982,223.232,227.732,230.729,235.229,239.729,243.716,246.713,249.206,253.706,255.956,259.943,262.436,264.929,268.916,273.416" svgx:width="0.44,0.5,0.5,0.25,0.78,0.44,0.5,0.28,0.5,0.78,0.25,0.25,0.5,0.33,0.5,0.5,0.28,0.5,0.44,0.5,0.25,0.28,0.5,0.44,0.25,0.5,0.33,0.28,0.5,0.28,0.5,0.44,0.28,0.25,0.72,0.5,0.33,0.5,0.25,0.28,0.39,0.25,0.5,0.33,0.5,0.5,0.44,0.33,0.28,0.5,0.25,0.44,0.28,0.28,0.44,0.5,0.25" style="fill:rgb(0,0,0);font-family:TimesNewRomanWGL;font-size:9.0px;stroke:none;">any medium, provided the original work is properly cited.</text>
  </g>
  <path style="fill:none;stroke:rgb(0,0,0);stroke-width:0.42;" d="M70.360 313.630 L217.210 313.630 "/>
  <g begin="text">
   <text y="285.63" x="67.37,72.86,77.36,81.347,83.597,86.09,88.583,92.57,96.557,101.057,104.558,108.545,110.795,113.288,116.789,119.039,122.54,127.04,131.54,134.033,138.02,142.007,144.5,146.75,149.243,153.743,155.993,158.486,162.986,166.973" svgx:width="0.61,0.5,0.44,0.25,0.28,0.28,0.44,0.44,0.5,0.39,0.44,0.25,0.28,0.39,0.25,0.39,0.5,0.5,0.28,0.44,0.44,0.28,0.25,0.28,0.5,0.25,0.28,0.5,0.44,0.25" style="fill:rgb(0,0,0);font-family:TimesNewRomanWGL;font-size:9.0px;stroke:none;">The license is subject to the </text>
   <text y="285.63" x="169.223,174.713,178.7,181.193,183.686,187.187,189.68,193.667,196.16,200.66,202.91,206.897,211.397,215.897,219.398,223.898,228.398,230.891,233.141,237.641" svgx:width="0.61,0.44,0.28,0.28,0.39,0.28,0.44,0.28,0.5,0.25,0.44,0.5,0.5,0.39,0.5,0.5,0.28,0.25,0.5,0.28" style="fill:rgb(0,0,0);font-family:TimesNewRomanWGL-Italic;font-size:9.0px;stroke:none;">Beilstein Journal of</text>
   <text y="298.63" x="67.37,73.364,77.864,82.364,86.864,89.357,93.344,97.331,101.831,106.331,110.831,113.324,117.824,122.324" svgx:width="0.67,0.5,0.5,0.5,0.28,0.44,0.44,0.5,0.5,0.5,0.28,0.5,0.5,0.44" style="fill:rgb(0,0,0);font-family:TimesNewRomanWGL-Italic;font-size:9.0px;stroke:none;">Nanotechnology</text>
   <text y="298.63" x="126.311,128.561,131.054,135.041,138.038,145.031,148.532,150.782,154.769,159.269,163.769,166.019,170.006,174.506,179.006,183.506,185.999,188.492,190.985,195.485,199.985,203.486" svgx:width="0.25,0.28,0.44,0.33,0.78,0.39,0.25,0.44,0.5,0.5,0.25,0.44,0.5,0.5,0.5,0.28,0.28,0.28,0.5,0.5,0.39,0.28" style="fill:rgb(0,0,0);font-family:TimesNewRomanWGL;font-size:9.0px;stroke:none;"> terms and conditions:</text>
   <text y="311.63" x="67.37,70.367,74.867,77.36,79.853,84.353,86.846,89.339,91.832,98.33,104.828,111.326,113.576,118.076,122.063,124.556,127.049,130.55,133.043,137.03,139.523,144.023,147.02,149.513,154.013,158.513,161.51,166.01,169.997,172.49,175.991,178.241,182.741,185.738,190.238,192.731,197.231,199.724,204.224,208.211,212.711,217.211" svgx:width="0.33,0.5,0.28,0.28,0.5,0.28,0.28,0.28,0.72,0.72,0.72,0.25,0.5,0.44,0.28,0.28,0.39,0.28,0.44,0.28,0.5,0.33,0.28,0.5,0.5,0.33,0.5,0.44,0.28,0.39,0.25,0.5,0.33,0.5,0.28,0.5,0.28,0.5,0.44,0.5,0.5,0.33" style="fill:rgb(0,0,0);font-family:TimesNewRomanWGL;font-size:9.0px;stroke:none;">(http://www.beilstein-journals.org/bjnano)</text>
  </g>
  <path style="fill:none;stroke:rgb(0,0,0);stroke-width:0.42;" d="M67.370 365.630 L160.080 365.630 "/>
  <g begin="text">
   <text y="337.63" x="67.37,72.86,77.36,81.347,83.597,88.097,92.084,95.081,97.574,102.074,104.567,107.06,109.553,114.053,118.04,120.29,124.79,128.777,131.774,135.275,137.768,142.268,146.768,149.018,153.518,156.515,158.765,161.258,165.758,168.251,171.752,174.002,177.989,180.986,183.479,185.972,189.959,192.452,196.439,198.689,201.182,204.683,206.933,209.426,213.926,217.913,220.163,224.15,226.643,230.63,234.617,237.11,240.107,244.607,249.107,251.6,255.587,257.837,262.337,266.837" svgx:width="0.61,0.5,0.44,0.25,0.5,0.44,0.33,0.28,0.5,0.28,0.28,0.28,0.5,0.44,0.25,0.5,0.44,0.33,0.39,0.28,0.5,0.5,0.25,0.5,0.33,0.25,0.28,0.5,0.28,0.39,0.25,0.44,0.33,0.28,0.28,0.44,0.28,0.44,0.25,0.28,0.39,0.25,0.28,0.5,0.44,0.25,0.44,0.28,0.44,0.44,0.28,0.33,0.5,0.5,0.28,0.44,0.25,0.5,0.5,0.44" style="fill:rgb(0,0,0);font-family:TimesNewRomanWGL;font-size:9.0px;stroke:none;">The definitive version of this article is the electronic one</text>
   <text y="350.63" x="67.37,73.868,78.368,80.861,84.848,89.348,91.598,95.585,99.572,104.072,106.322,110.822,114.809,117.059,120.056,124.556,129.056,133.556,138.056,140.306,144.293,146.786" svgx:width="0.72,0.5,0.28,0.44,0.5,0.25,0.44,0.44,0.5,0.25,0.5,0.44,0.25,0.33,0.5,0.5,0.5,0.5,0.25,0.44,0.28,0.28" style="fill:rgb(0,0,0);font-family:TimesNewRomanWGL;font-size:9.0px;stroke:none;">which can be found at:</text>
   <text y="363.63" x="67.37,71.87,76.37,78.863,81.356,85.856,90.356,92.606,97.106,101.606,106.106,110.606,113.099,117.599,120.092,124.592,128.579,133.079,137.579,139.829,144.329,146.579,151.079,155.579" svgx:width="0.5,0.5,0.28,0.28,0.5,0.5,0.25,0.5,0.5,0.5,0.5,0.28,0.5,0.28,0.5,0.44,0.5,0.5,0.25,0.5,0.25,0.5,0.5,0.5" style="fill:rgb(0,0,0);font-family:TimesNewRomanWGL;font-size:9.0px;stroke:none;">doi:10.3762/bjnano.7.120</text>
  </g>
 </g>
</svg>
