<?xml version="1.0" encoding="UTF-8"?>
<svg height="802.1" width="546.405" xmlns="http://www.w3.org/2000/svg">
 <g id="page" xmlns:svgx="http://www.xml-cml.org/schema/svgx">
  <g begin="text"/>
  <g begin="text">
   <text y="792.1" x="517.93,521.822,525.714,529.606" svgx:width="0.56,0.56,0.56,0.56" style="fill:rgb(0,0,0);font-family:ArialMT-Regular;font-size:7.0px;stroke:none;">1289</text>
  </g>
  <path style="fill:rgb(23,43,98);stroke:none;stroke-width:1.0;" d="M59.500 48.190 L59.500 88.220 L427.740 88.220 L427.740 48.190 ZM59.500 48.190 L427.740 48.190 L427.740 88.220 L59.500 88.220 L59.500 48.190 ZM59.500 48.190 L59.500 88.220 L427.740 88.220 L427.740 48.190 ZM59.500 48.190 L59.500 88.220 L427.740 88.220 L427.740 48.190 ZM59.610 48.300 L435.630 48.300 L435.630 88.110 L59.610 88.110 L59.610 48.300 ZM183.240 73.630 L183.240 62.770 L181.480 62.770 L181.480 68.900 L181.500 70.070 L181.480 70.080 L180.820 69.110 L176.490 62.770 L174.750 62.770 L174.750 73.630 L176.530 73.630 L176.530 67.210 L176.520 66.040 L176.550 66.020 L177.200 67.010 L181.840 73.630 L183.240 73.630 ZM170.000 73.630 L172.020 73.630 L172.020 62.770 L170.000 62.770 L170.000 73.630 ZM162.680 71.850 L162.680 68.830 L166.910 68.830 L166.910 67.200 L162.680 67.200 L162.680 64.570 L167.670 64.570 L167.640 62.770 L160.680 62.770 L160.680 73.630 L167.850 73.630 L167.900 71.850 L162.680 71.850 ZM159.130 64.620 L159.090 62.770 L151.030 62.770 L150.990 64.620 L154.050 64.620 L154.050 73.630 L156.070 73.630 L156.070 64.620 L159.130 64.620 ZM150.290 70.440 C150.290 66.750 145.120 67.660 145.120 65.680 C145.120 64.980 145.580 64.380 147.060 64.380 C147.930 64.380 148.780 64.560 149.670 64.880 L149.930 63.150 C149.120 62.790 148.030 62.580 146.960 62.580 C144.340 62.580 143.190 64.010 143.190 65.780 C143.190 69.410 148.370 68.530 148.370 70.570 C148.370 71.520 147.740 72.050 146.390 72.050 C145.290 72.050 144.320 71.760 143.410 71.240 L143.140 73.020 C144.030 73.530 145.160 73.830 146.410 73.830 C148.870 73.830 150.290 72.540 150.290 70.440 M137.280 71.790 L137.280 62.770 L135.270 62.770 L135.270 73.630 L141.980 73.630 L142.020 71.790 L137.280 71.790 ZM130.510 73.630 L132.540 73.630 L132.540 62.770 L130.510 62.770 L130.510 73.630 ZM123.200 71.850 L123.200 68.830 L127.430 68.830 L127.430 67.200 L123.200 67.200 L123.200 64.570 L128.180 64.570 L128.150 62.770 L121.200 62.770 L121.200 73.630 L128.370 73.630 L128.410 71.850 L123.200 71.850 ZM117.070 65.880 C117.070 66.850 116.600 67.300 115.590 67.300 L113.290 67.300 L113.290 64.490 L115.500 64.490 C116.590 64.490 117.070 64.860 117.070 65.880 M117.390 70.340 C117.390 71.560 116.820 71.950 115.710 71.950 L113.280 71.950 L113.280 68.820 L115.660 68.820 C116.880 68.820 117.390 69.280 117.390 70.340 M119.390 70.500 C119.390 69.080 118.720 68.220 117.520 67.890 L117.520 67.870 C118.400 67.510 118.980 66.780 118.980 65.520 C118.980 63.760 117.850 62.770 115.570 62.770 L111.360 62.770 L111.360 73.630 L115.690 73.630 C118.310 73.630 119.390 72.440 119.390 70.500 "/>
  <path style="fill:rgb(23,43,98);stroke:none;stroke-width:1.0;" d="M195.020 70.170 C195.020 72.560 193.740 73.830 191.480 73.830 C190.520 73.830 189.780 73.570 189.260 73.170 L189.360 72.280 C189.870 72.690 190.540 72.930 191.370 72.930 C193.060 72.930 194.050 72.020 194.050 70.150 L194.050 62.770 L195.020 62.770 L195.020 70.170 Z"/>
  <path style="fill:rgb(23,43,98);stroke:none;stroke-width:1.0;" d="M202.120 73.830 C198.990 73.830 197.790 72.220 197.790 68.200 C197.790 64.170 198.980 62.590 202.120 62.590 C205.280 62.590 206.450 64.170 206.450 68.200 C206.450 72.240 205.280 73.830 202.120 73.830 ZM202.120 63.510 C199.730 63.510 198.770 64.540 198.770 68.200 C198.770 71.850 199.730 72.910 202.130 72.910 C204.520 72.910 205.460 71.850 205.460 68.200 C205.460 64.540 204.520 63.510 202.120 63.510 Z"/>
  <path style="fill:rgb(23,43,98);stroke:none;stroke-width:1.0;" d="M216.960 69.710 C216.960 72.620 215.490 73.830 212.970 73.830 C210.430 73.830 208.950 72.620 208.950 69.710 L208.950 62.770 L209.910 62.770 L209.910 69.710 C209.910 71.940 210.920 72.910 212.970 72.910 C214.990 72.910 216.010 71.910 216.010 69.710 L216.010 62.770 L216.960 62.770 L216.960 69.710 Z"/>
  <path style="fill:rgb(23,43,98);stroke:none;stroke-width:1.0;" d="M224.460 68.580 L227.490 73.630 L226.330 73.630 L223.550 68.750 L221.030 68.750 L221.030 73.630 L220.080 73.630 L220.080 62.770 L223.600 62.770 C225.780 62.770 226.780 63.720 226.780 65.710 C226.780 67.480 225.970 68.400 224.460 68.580 ZM223.600 63.620 L221.030 63.620 L221.030 67.970 L223.510 67.970 C225.090 67.970 225.800 67.330 225.800 65.750 C225.800 64.230 225.120 63.620 223.600 63.620 Z"/>
  <path style="fill:rgb(23,43,98);stroke:none;stroke-width:1.0;" d="M236.800 73.630 L231.180 65.230 L230.540 64.250 L230.520 64.260 L230.530 65.430 L230.530 73.630 L229.660 73.630 L229.660 62.770 L230.600 62.770 L236.030 70.960 L236.670 71.950 L236.700 71.940 L236.670 70.780 L236.660 62.770 L237.510 62.770 L237.510 73.630 L236.800 73.630 Z"/>
  <path style="fill:rgb(23,43,98);stroke:none;stroke-width:1.0;" d="M246.910 70.760 L241.680 70.760 L240.650 73.630 L239.620 73.630 L243.750 62.770 L244.880 62.770 L249.010 73.630 L247.940 73.630 L246.910 70.760 ZM243.930 64.590 L242.000 69.910 L246.600 69.910 L244.710 64.590 L244.340 63.480 L244.300 63.480 L243.930 64.590 Z"/>
  <path style="fill:rgb(23,43,98);stroke:none;stroke-width:1.0;" d="M257.460 72.700 L257.420 73.630 L251.120 73.630 L251.120 62.770 L252.080 62.770 L252.080 72.700 L257.460 72.700 Z"/>
  <path style="fill:rgb(23,43,98);stroke:none;stroke-width:1.0;" d="M267.570 73.830 C264.440 73.830 263.240 72.220 263.240 68.200 C263.240 64.170 264.430 62.590 267.570 62.590 C270.730 62.590 271.900 64.170 271.900 68.200 C271.900 72.240 270.730 73.830 267.570 73.830 ZM267.570 63.510 C265.180 63.510 264.230 64.540 264.230 68.200 C264.230 71.850 265.180 72.910 267.590 72.910 C269.980 72.910 270.920 71.850 270.920 68.200 C270.920 64.540 269.980 63.510 267.570 63.510 Z"/>
  <path style="fill:rgb(23,43,98);stroke:none;stroke-width:1.0;" d="M275.610 63.700 L275.610 67.620 L280.210 67.620 L280.210 68.490 L275.610 68.490 L275.610 73.630 L274.650 73.630 L274.650 62.770 L281.050 62.770 L281.080 63.700 L275.610 63.700 Z"/>
  <path style="fill:rgb(23,43,98);stroke:none;stroke-width:1.0;" d="M295.330 73.630 L289.710 65.230 L289.070 64.250 L289.050 64.260 L289.060 65.430 L289.060 73.630 L288.190 73.630 L288.190 62.770 L289.130 62.770 L294.560 70.960 L295.200 71.950 L295.230 71.940 L295.200 70.780 L295.190 62.770 L296.040 62.770 L296.040 73.630 L295.330 73.630 Z"/>
  <path style="fill:rgb(23,43,98);stroke:none;stroke-width:1.0;" d="M305.440 70.760 L300.210 70.760 L299.180 73.630 L298.150 73.630 L302.280 62.770 L303.410 62.770 L307.540 73.630 L306.470 73.630 L305.440 70.760 ZM302.460 64.590 L300.530 69.910 L305.130 69.910 L303.240 64.590 L302.870 63.480 L302.830 63.480 L302.460 64.590 Z"/>
  <path style="fill:rgb(23,43,98);stroke:none;stroke-width:1.0;" d="M316.790 73.630 L311.170 65.230 L310.530 64.250 L310.510 64.260 L310.520 65.430 L310.520 73.630 L309.650 73.630 L309.650 62.770 L310.590 62.770 L316.020 70.960 L316.660 71.950 L316.690 71.940 L316.660 70.780 L316.650 62.770 L317.500 62.770 L317.500 73.630 L316.790 73.630 Z"/>
  <path style="fill:rgb(23,43,98);stroke:none;stroke-width:1.0;" d="M324.600 73.830 C321.470 73.830 320.270 72.220 320.270 68.200 C320.270 64.170 321.450 62.590 324.600 62.590 C327.750 62.590 328.930 64.170 328.930 68.200 C328.930 72.240 327.750 73.830 324.600 73.830 ZM324.600 63.510 C322.210 63.510 321.250 64.540 321.250 68.200 C321.250 71.850 322.210 72.910 324.610 72.910 C327.000 72.910 327.940 71.850 327.940 68.200 C327.940 64.540 327.000 63.510 324.600 63.510 Z"/>
  <path style="fill:rgb(23,43,98);stroke:none;stroke-width:1.0;" d="M334.440 63.700 L334.440 73.630 L333.490 73.630 L333.490 63.700 L330.080 63.700 L330.110 62.770 L337.850 62.770 L337.860 63.700 L334.440 63.700 Z"/>
  <path style="fill:rgb(23,43,98);stroke:none;stroke-width:1.0;" d="M346.590 72.730 L346.550 73.630 L339.890 73.630 L339.890 62.770 L346.290 62.770 L346.330 63.670 L340.830 63.670 L340.830 67.530 L345.590 67.530 L345.590 68.340 L340.830 68.340 L340.830 72.730 L346.590 72.730 Z"/>
  <path style="fill:rgb(23,43,98);stroke:none;stroke-width:1.0;" d="M355.340 64.000 C354.740 63.720 353.880 63.510 352.980 63.510 C350.500 63.510 349.340 64.640 349.340 68.080 C349.340 71.760 350.520 72.920 353.020 72.920 C353.930 72.920 354.720 72.700 355.370 72.360 L355.530 73.180 C354.870 73.530 353.880 73.830 352.910 73.830 C349.750 73.830 348.360 72.080 348.360 68.080 C348.360 64.270 349.780 62.600 352.930 62.600 C353.850 62.600 354.900 62.840 355.470 63.120 L355.340 64.000 Z"/>
  <path style="fill:rgb(23,43,98);stroke:none;stroke-width:1.0;" d="M364.760 73.630 L364.760 68.400 L358.900 68.400 L358.900 73.630 L357.940 73.630 L357.940 62.770 L358.900 62.770 L358.900 67.500 L364.760 67.500 L364.760 62.770 L365.720 62.770 L365.720 73.630 L364.760 73.630 Z"/>
  <path style="fill:rgb(23,43,98);stroke:none;stroke-width:1.0;" d="M376.220 73.630 L370.600 65.230 L369.960 64.250 L369.930 64.260 L369.950 65.430 L369.950 73.630 L369.080 73.630 L369.080 62.770 L370.020 62.770 L375.450 70.960 L376.090 71.950 L376.120 71.940 L376.090 70.780 L376.070 62.770 L376.930 62.770 L376.930 73.630 L376.220 73.630 Z"/>
  <path style="fill:rgb(23,43,98);stroke:none;stroke-width:1.0;" d="M384.020 73.830 C380.900 73.830 379.690 72.220 379.690 68.200 C379.690 64.170 380.880 62.590 384.020 62.590 C387.180 62.590 388.350 64.170 388.350 68.200 C388.350 72.240 387.180 73.830 384.020 73.830 ZM384.020 63.510 C381.630 63.510 380.680 64.540 380.680 68.200 C380.680 71.850 381.630 72.910 384.040 72.910 C386.430 72.910 387.370 71.850 387.370 68.200 C387.370 64.540 386.430 63.510 384.020 63.510 Z"/>
  <path style="fill:rgb(23,43,98);stroke:none;stroke-width:1.0;" d="M397.450 72.700 L397.400 73.630 L391.110 73.630 L391.110 62.770 L392.060 62.770 L392.060 72.700 L397.450 72.700 Z"/>
  <path style="fill:rgb(23,43,98);stroke:none;stroke-width:1.0;" d="M403.170 73.830 C400.040 73.830 398.840 72.220 398.840 68.200 C398.840 64.170 400.030 62.590 403.170 62.590 C406.320 62.590 407.500 64.170 407.500 68.200 C407.500 72.240 406.320 73.830 403.170 73.830 ZM403.170 63.510 C400.780 63.510 399.820 64.540 399.820 68.200 C399.820 71.850 400.780 72.910 403.180 72.910 C405.570 72.910 406.510 71.850 406.510 68.200 C406.510 64.540 405.570 63.510 403.170 63.510 Z"/>
  <path style="fill:rgb(23,43,98);stroke:none;stroke-width:1.0;" d="M417.490 73.200 C416.720 73.570 415.580 73.830 414.390 73.830 C411.120 73.830 409.650 72.210 409.650 68.240 C409.650 64.200 411.150 62.600 414.420 62.600 C415.430 62.600 416.500 62.810 417.230 63.130 L417.100 64.010 C416.360 63.700 415.480 63.480 414.460 63.480 C411.870 63.480 410.640 64.580 410.640 68.230 C410.640 71.690 411.730 72.910 414.380 72.910 C415.260 72.910 416.010 72.760 416.630 72.500 L416.630 67.920 L417.490 67.920 L417.490 73.200 Z"/>
  <path style="fill:rgb(23,43,98);stroke:none;stroke-width:1.0;" d="M420.110 62.770 L422.800 67.850 L423.320 68.890 L423.370 68.890 L423.870 67.850 L426.550 62.770 L427.630 62.770 L423.820 69.820 L423.820 73.630 L422.850 73.630 L422.850 69.820 L418.990 62.770 L420.110 62.770 Z"/>
  <path style="fill:rgb(197,17,83);stroke:none;stroke-width:1.0;" d="M71.240 49.850 C71.240 49.850 64.700 54.300 63.000 59.810 C61.180 65.700 62.280 71.500 65.860 75.900 C69.280 80.110 74.100 82.460 79.810 81.110 C89.690 78.760 90.830 69.940 90.830 69.940 C90.830 69.940 91.100 77.940 83.040 82.610 C75.770 86.820 67.140 83.590 63.240 78.550 C58.640 72.610 58.740 65.050 61.730 59.070 C65.280 51.960 71.240 49.850 71.240 49.850 "/>
  <path style="fill:rgb(9,103,121);stroke:none;stroke-width:1.0;" d="M68.130 84.350 C68.130 84.350 75.200 87.850 80.770 86.590 C86.720 85.240 91.130 81.370 93.110 76.040 C95.000 70.930 94.610 65.540 90.600 61.210 C83.650 53.720 75.530 57.130 75.530 57.130 C75.530 57.130 82.240 52.900 90.260 57.620 C97.500 61.890 99.050 71.060 96.690 77.010 C93.910 84.010 87.390 87.700 80.770 88.070 C72.910 88.520 68.130 84.350 68.130 84.350 "/>
  <path style="fill:rgb(23,43,98);stroke:none;stroke-width:1.0;" d="M99.270 69.830 C99.270 69.830 98.730 61.890 94.870 57.640 C90.740 53.090 85.220 51.170 79.670 52.100 C74.360 53.000 69.940 56.040 68.240 61.720 C65.300 71.550 72.280 76.970 72.280 76.970 C72.280 76.970 65.300 73.200 65.340 63.810 C65.370 55.330 72.440 49.380 78.710 48.480 C86.090 47.420 92.510 51.280 96.140 56.890 C100.450 63.560 99.270 69.830 99.270 69.830 "/>
  <g begin="text">
   <text y="188.14" x="59.5,63.932,78.156,87.916,94.14,103.9,112.796,121.692,131.452,135.884,140.316,144.748,150.076,159.836,164.268,174.028,188.252,193.58,198.012,207.772,217.532,221.964,231.724,240.62,245.948,251.276,260.172,266.396,275.292,279.724,288.62,298.38,308.14,317.9,326.796,331.228,340.124,349.02,358.78,367.676,376.572,381.004,386.332,395.228,399.66,412.092,416.524,421.852,431.612,436.044,444.94,449.372,459.132,468.028,473.356,485.788,495.548,501.772,510.668,515.1,524.86" svgx:width="0.28,0.89,0.61,0.39,0.61,0.56,0.56,0.61,0.28,0.28,0.28,0.33,0.61,0.28,0.61,0.89,0.33,0.28,0.61,0.61,0.28,0.61,0.56,0.33,0.33,0.56,0.39,0.56,0.28,0.56,0.61,0.61,0.61,0.56,0.28,0.56,0.56,0.61,0.56,0.56,0.28,0.33,0.56,0.28,0.78,0.28,0.33,0.61,0.28,0.56,0.28,0.61,0.56,0.33,0.78,0.61,0.39,0.56,0.28,0.61,0.33" style="fill:rgb(0,0,0);font-family:ArialMT-Bold;font-size:16.0px;stroke:none;">Improved lithium-ion battery anode capacity with a network of</text>
   <text y="210.14" x="59.5,68.396,77.292,86.188,90.62,95.052,103.948,108.38,113.708,122.604,132.364,138.588,143.02,151.916,160.812,166.14,175.036,184.796,189.228,198.124,207.884,212.316,222.076,231.836,236.268,245.164,250.492,254.924,259.356,268.252,277.148,281.58,290.476,299.372,305.596,315.356,325.116,334.876,339.308,349.068,357.964,367.724,377.484,382.812,387.244,397.004,405.9,412.124" svgx:width="0.56,0.56,0.56,0.28,0.28,0.56,0.28,0.33,0.56,0.61,0.39,0.28,0.56,0.56,0.33,0.56,0.61,0.28,0.56,0.61,0.28,0.61,0.61,0.28,0.56,0.33,0.28,0.28,0.56,0.56,0.28,0.56,0.56,0.39,0.61,0.61,0.61,0.28,0.61,0.56,0.61,0.61,0.33,0.28,0.61,0.56,0.39,0.56" style="fill:rgb(0,0,0);font-family:ArialMT-Bold;font-size:16.0px;stroke:none;">easily fabricated spindle-like carbon nanofibers</text>
  </g>
  <g begin="text">
   <text y="236.87" x="59.5,69.496,76.168,82.84,89.512,92.836,95.5,102.172,108.844,112.168,118.84,121.504,128.176,131.5,134.824,146.14,152.812,159.484,166.156,172.828,176.152,184.144,186.808,193.48,196.804,200.128,206.8,209.464,212.128,214.792,218.116,227.44,234.112,237.436,240.76,248.08,250.744,257.416,264.088,267.412,274.084,280.756,287.428,290.752,300.076,302.74,309.412,312.736,316.06,324.052,326.716,333.388,340.06,346.06,348.724,352.048,360.712,367.384,374.056,377.38,384.052,390.724,397.396,400.72,409.384,416.056,422.056,428.728,435.4,438.724,447.388" svgx:width="0.83,0.56,0.56,0.56,0.28,0.22,0.56,0.56,0.28,0.56,0.22,0.56,0.28,0.28,0.94,0.56,0.56,0.56,0.56,0.28,0.67,0.22,0.56,0.28,0.28,0.56,0.22,0.22,0.22,0.28,0.78,0.56,0.28,0.28,0.61,0.22,0.56,0.56,0.28,0.56,0.56,0.56,0.28,0.78,0.22,0.56,0.28,0.28,0.67,0.22,0.56,0.56,0.5,0.22,0.28,0.72,0.56,0.56,0.28,0.56,0.56,0.56,0.28,0.72,0.56,0.5,0.56,0.56,0.28,0.72,0.56" style="fill:rgb(0,0,0);font-family:ArialMT-Regular;font-size:12.0px;stroke:none;">Mengting Liu, Wenhe Xie, Lili Gu, Tianfeng Qin, Xiaoyi Hou and Deyan He</text>
   <text y="232.67" x="454.06" svgx:width="0.39" style="fill:rgb(0,0,0);font-family:ArialMT-Regular;font-size:9.6px;stroke:none;">*</text>
  </g>
  <path style="fill:none;stroke:rgb(218,218,218);stroke-width:1.0;" d="M59.500 48.190 L59.500 88.220 L427.740 88.220 L427.740 48.190 ZM59.500 281.250 L297.500 281.250 "/>
  <path style="fill:none;stroke:rgb(218,218,218);stroke-width:0.5;" d="M59.750 281.000 L59.750 305.500 "/>
  <path style="fill:none;stroke:rgb(218,218,218);stroke-width:0.5;" d="M297.500 281.250 L535.500 281.250 "/>
  <path style="fill:none;stroke:rgb(218,218,218);stroke-width:0.5;" d="M535.250 281.000 L535.250 305.500 "/>
  <path style="fill:none;stroke:rgb(218,218,218);stroke-width:0.5;" d="M297.500 453.750 L59.500 453.750 "/>
  <path style="fill:none;stroke:rgb(218,218,218);stroke-width:0.5;" d="M59.750 305.500 L59.750 454.000 "/>
  <path style="fill:none;stroke:rgb(218,218,218);stroke-width:0.5;" d="M535.500 453.750 L297.500 453.750 "/>
  <path style="fill:none;stroke:rgb(218,218,218);stroke-width:0.5;" d="M535.250 305.500 L535.250 454.000 "/>
  <g begin="text">
   <text y="297.0" x="68.0,75.015,81.409,83.962,86.515,89.701,98.004,104.397,110.147,116.541,122.935,126.765,132.515,138.909,142.094,149.753,156.147,162.541,168.935" svgx:width="0.61,0.56,0.22,0.22,0.28,0.72,0.56,0.5,0.56,0.56,0.33,0.5,0.56,0.28,0.67,0.56,0.56,0.56,0.33" style="fill:rgb(0,0,0);font-family:ArialMT-Regular;font-size:11.5px;stroke:none;">Full Research Paper</text>
  </g>
  <g begin="text">
   <text y="297.0" x="476.34,482.556,487.436,491.884,496.764,498.98,504.756,509.204,513.652,518.1,522.548" svgx:width="0.78,0.61,0.56,0.61,0.28,0.72,0.56,0.56,0.56,0.56,0.56" style="fill:rgb(255,255,255);font-family:ArialMT-Bold;font-size:8.0px;stroke:none;">Open Access</text>
  </g>
  <g begin="text">
   <text y="315.5" x="68.0,72.662,76.554,80.446,82.777,86.669,90.169,93.669" svgx:width="0.67,0.56,0.56,0.33,0.56,0.5,0.5,0.28" style="fill:rgb(0,0,0);font-family:ArialMT-Regular;font-size:7.0px;stroke:none;">Address:</text>
   <text y="325.5" x="68.0,72.662,76.162,80.054,83.946,87.838,89.392,91.331,95.223,97.162,99.101,103.763,107.655,111.155,114.655,116.209,119.709,123.601,125.155,127.094,131.756,135.256,136.81,140.702,144.594,148.094,151.986,153.925,157.817,161.709,165.601,167.54,171.81,175.702,179.202,183.094,186.986,190.878,192.432,196.324,200.216,203.716,205.655,207.594,212.256,216.148,219.648,221.587,225.479,229.371,233.263,237.155,239.486,243.378,245.317,249.209,251.54,255.04,256.979,258.918,262.81" svgx:width="0.67,0.5,0.56,0.56,0.56,0.22,0.28,0.56,0.28,0.28,0.67,0.56,0.5,0.5,0.22,0.5,0.56,0.22,0.28,0.67,0.5,0.22,0.56,0.56,0.5,0.56,0.28,0.56,0.56,0.56,0.28,0.61,0.56,0.5,0.56,0.56,0.56,0.22,0.56,0.56,0.5,0.28,0.28,0.67,0.56,0.5,0.28,0.56,0.56,0.56,0.56,0.33,0.56,0.28,0.56,0.33,0.5,0.28,0.28,0.56,0.33" style="fill:rgb(0,0,0);font-family:ArialMT-Regular;font-size:7.0px;stroke:none;">School of Physical Science and Technology, Key Laboratory for</text>
   <text y="335.5" x="68.0,73.831,77.723,81.615,85.507,89.399,91.338,92.892,96.392,102.223,104.162,108.054,111.946,115.838,117.777,123.608,127.5,131.392,135.284,139.176,141.115,142.669,146.169,148.108,153.939,157.831,159.77,163.662,165.993,167.547,171.439,172.993,176.493,178.432,182.324,184.263,186.202,188.141,192.033,195.925,197.864,203.695,205.249,209.141,210.695,214.195,216.134,218.465,221.965,223.904,227.796,229.735,231.674,236.336,240.228,244.12,247.62,251.512,253.451,255.005,258.897,262.789" svgx:width="0.83,0.56,0.56,0.56,0.56,0.28,0.22,0.5,0.83,0.28,0.56,0.56,0.56,0.28,0.83,0.56,0.56,0.56,0.56,0.28,0.22,0.5,0.28,0.83,0.56,0.28,0.56,0.33,0.22,0.56,0.22,0.5,0.28,0.56,0.28,0.28,0.28,0.56,0.56,0.28,0.83,0.22,0.56,0.22,0.5,0.28,0.33,0.5,0.28,0.56,0.28,0.28,0.67,0.56,0.56,0.5,0.56,0.28,0.22,0.56,0.56,0.28" style="fill:rgb(0,0,0);font-family:ArialMT-Regular;font-size:7.0px;stroke:none;">Magnetism and Magnetic Materials of the Ministry of Education,</text>
   <text y="345.5" x="68.0,71.892,75.784,79.676,83.176,87.068,90.96,94.852,96.791,101.845,105.737,107.291,110.791,114.683,117.014,120.514,122.068,124.007,127.507,129.446,131.385,135.277,139.169,143.061,146.561,150.453,154.345,158.237,160.176,164.068,167.96,171.852,175.744,179.636,183.528,185.467,187.406,192.46,196.352,197.906,201.798" svgx:width="0.56,0.56,0.56,0.5,0.56,0.56,0.56,0.28,0.72,0.56,0.22,0.5,0.56,0.33,0.5,0.22,0.28,0.5,0.28,0.28,0.56,0.56,0.56,0.5,0.56,0.56,0.56,0.28,0.56,0.56,0.56,0.56,0.56,0.56,0.28,0.28,0.72,0.56,0.22,0.56,0.56" style="fill:rgb(0,0,0);font-family:ArialMT-Regular;font-size:7.0px;stroke:none;">Lanzhou University, Lanzhou 730000, China</text>
  </g>
  <g begin="text">
   <text y="365.5" x="68.0,72.662,78.493,82.385,83.939,85.493" svgx:width="0.67,0.83,0.56,0.22,0.22,0.28" style="fill:rgb(0,0,0);font-family:ArialMT-Regular;font-size:7.0px;stroke:none;">Email:</text>
   <text y="375.5" x="68.0,73.054,76.946,80.446,84.338,88.23,90.169,95.223" svgx:width="0.72,0.56,0.5,0.56,0.56,0.28,0.72,0.56" style="fill:rgb(0,0,0);font-family:ArialMT-Regular;font-size:7.0px;stroke:none;">Deyan He</text>
   <text y="373.05" x="99.115" svgx:width="0.39" style="fill:rgb(0,0,0);font-family:ArialMT-Regular;font-size:5.6px;stroke:none;">*</text>
   <text y="375.5" x="101.293,103.232,105.563,107.502,111.394,115.286,119.178,122.678,129.783,131.337,134.837,138.729,140.668,144.56,148.452,152.344,154.283,157.783" svgx:width="0.28,0.33,0.28,0.56,0.56,0.56,0.5,1.01,0.22,0.5,0.56,0.28,0.56,0.56,0.56,0.28,0.5,0.56" style="fill:rgb(0,0,0);font-family:ArialMT-Regular;font-size:7.0px;stroke:none;"> - hedy@lzu.edu.cn</text>
  </g>
  <g begin="text">
   <text y="395.5" x="68.0,70.723,72.662,77.716,81.608,83.939,86.27,90.162,93.662,97.554,101.446,105.338,109.23,110.784,114.676,118.568,120.507,124.399,128.291,130.23,134.122,138.014" svgx:width="0.39,0.28,0.72,0.56,0.33,0.33,0.56,0.5,0.56,0.56,0.56,0.56,0.22,0.56,0.56,0.28,0.56,0.56,0.28,0.56,0.56,0.33" style="fill:rgb(0,0,0);font-family:ArialMT-Regular;font-size:7.0px;stroke:none;">* Corresponding author</text>
  </g>
  <g begin="text">
   <text y="415.5" x="68.0,72.662,76.554,80.054,85.108,89.0,91.331,95.223,98.723" svgx:width="0.67,0.56,0.5,0.72,0.56,0.33,0.56,0.5,0.28" style="fill:rgb(0,0,0);font-family:ArialMT-Regular;font-size:7.0px;stroke:none;">Keywords:</text>
   <text y="425.5" x="68.0,71.5,75.392,77.723,81.615,85.507,89.399,91.338,95.23,99.122,103.014,106.906,108.845,110.399,114.291,118.183,120.514,122.453,126.345,130.237,132.176,137.23,141.122,143.453,146.953,148.892,150.831,154.723,156.277,160.169,163.669,165.608,167.939,171.831,175.331,179.223,180.777,184.669,188.561,190.115,194.007,197.899,199.838,201.777,203.331,204.885,206.824,210.716,212.27,216.162,221.993,224.324,225.878,229.77,233.662,235.601,239.493,243.385,245.324,247.263,251.155,253.486,256.986" svgx:width="0.5,0.56,0.33,0.56,0.56,0.56,0.28,0.56,0.56,0.56,0.56,0.28,0.22,0.56,0.56,0.33,0.28,0.56,0.56,0.28,0.72,0.56,0.33,0.5,0.28,0.28,0.56,0.22,0.56,0.5,0.28,0.33,0.56,0.5,0.56,0.22,0.56,0.56,0.22,0.56,0.56,0.28,0.28,0.22,0.22,0.28,0.56,0.22,0.56,0.83,0.33,0.22,0.56,0.56,0.28,0.56,0.56,0.28,0.28,0.56,0.33,0.5,0.28" style="fill:rgb(0,0,0);font-family:ArialMT-Regular;font-size:7.0px;stroke:none;">carbon nanofiber network; electrospinning; lithium-ion battery;</text>
   <text y="435.5" x="68.0,73.831,77.723,81.615,85.507,89.399,93.291,97.183,100.683,104.575,106.514,110.406,113.906,115.46,119.352,123.244,125.183,127.122,131.014,132.568,134.507,136.838,140.73,144.622,148.514,152.406,154.345,160.176,164.068,167.96,169.514,171.453,173.007,176.507,180.399,182.338,183.892,187.784" svgx:width="0.83,0.56,0.56,0.56,0.56,0.56,0.56,0.5,0.56,0.28,0.56,0.5,0.22,0.56,0.56,0.28,0.28,0.56,0.22,0.28,0.33,0.56,0.56,0.56,0.56,0.28,0.83,0.56,0.56,0.22,0.28,0.22,0.5,0.56,0.28,0.22,0.56,0.56" style="fill:rgb(0,0,0);font-family:ArialMT-Regular;font-size:7.0px;stroke:none;">manganese oxide; nitrogen modification</text>
  </g>
  <g begin="text">
   <text y="315.5" x="297.5,302.162,306.054,307.608,309.162,312.662,314.601,318.493,320.047,323.939,325.878,329.378,331.317,333.256,338.31,342.202,346.094,349.986,351.925,355.817,359.317,363.209,367.101,370.993,372.547" svgx:width="0.67,0.56,0.22,0.22,0.5,0.28,0.56,0.22,0.56,0.28,0.5,0.28,0.28,0.72,0.56,0.56,0.56,0.28,0.56,0.5,0.56,0.56,0.56,0.22,0.28" style="fill:rgb(0,0,0);font-family:ArialMT-Italic;font-size:7.0px;stroke:none;">Beilstein J. Nanotechnol.</text>
   <text y="315.5" x="374.486" svgx:width="0.28" style="fill:rgb(0,0,0);font-family:ArialMT-Regular;font-size:7.0px;stroke:none;"> </text>
   <text y="315.5" x="376.425,380.317,384.209,388.101,391.993" svgx:width="0.56,0.56,0.56,0.56,0.28" style="fill:rgb(0,0,0);font-family:ArialMT-Bold;font-size:7.0px;stroke:none;">2016,</text>
   <text y="315.5" x="393.932" svgx:width="0.28" style="fill:rgb(0,0,0);font-family:ArialMT-Regular;font-size:7.0px;stroke:none;"> </text>
   <text y="315.5" x="395.871,399.763" svgx:width="0.56,0.28" style="fill:rgb(0,0,0);font-family:ArialMT-Italic;font-size:7.0px;stroke:none;">7,</text>
   <text y="315.5" x="401.702,403.641,407.533,411.425,415.317,419.209,423.101,426.993,430.885,434.777,438.669" svgx:width="0.28,0.56,0.56,0.56,0.56,0.56,0.56,0.56,0.56,0.56,0.28" style="fill:rgb(0,0,0);font-family:ArialMT-Regular;font-size:7.0px;stroke:none;"> 1289–1295.</text>
  </g>
  <g begin="text">
   <text y="325.5" x="297.5,301.392,305.284,306.838,308.777,312.669,316.561,318.5,322.392,326.284,330.176,334.068,336.007,339.899,341.453,345.345,349.237,353.129,357.021,358.96,362.852,364.791,368.683,372.575" svgx:width="0.56,0.56,0.22,0.28,0.56,0.56,0.28,0.56,0.56,0.56,0.56,0.28,0.56,0.22,0.56,0.56,0.56,0.56,0.28,0.56,0.28,0.56,0.56,0.56" style="fill:rgb(0,0,0);font-family:ArialMT-Regular;font-size:7.0px;stroke:none;">doi:10.3762/bjnano.7.120</text>
  </g>
  <g begin="text">
   <text y="345.5" x="297.5,302.554,306.446,309.946,313.838,315.392,318.892,322.784,326.676,328.615,330.554,334.446,338.338,340.277,343.777,347.669,351.561,355.453,357.392,361.284,365.176,369.068" svgx:width="0.72,0.56,0.5,0.56,0.22,0.5,0.56,0.56,0.28,0.28,0.56,0.56,0.28,0.5,0.56,0.56,0.56,0.28,0.56,0.56,0.56,0.56" style="fill:rgb(0,0,0);font-family:ArialMT-Regular;font-size:7.0px;stroke:none;">Received: 27 June 2016</text>
   <text y="355.5" x="297.5,302.162,305.662,309.162,313.054,316.946,318.885,322.777,326.669,328.608,330.547,334.439,338.331,340.27,344.932,348.824,352.716,356.608,360.108,362.047,363.986,367.878,371.77,375.662" svgx:width="0.67,0.5,0.5,0.56,0.56,0.28,0.56,0.56,0.28,0.28,0.56,0.56,0.28,0.67,0.56,0.56,0.56,0.5,0.28,0.28,0.56,0.56,0.56,0.56" style="fill:rgb(0,0,0);font-family:ArialMT-Regular;font-size:7.0px;stroke:none;">Accepted: 31 August 2016</text>
   <text y="365.5" x="297.5,302.162,306.054,309.946,311.5,313.054,316.554,320.446,324.338,328.23,330.169,332.108,336.0,339.892,341.831,346.493,350.385,354.277,356.216,360.108,365.939,369.831,373.723,376.054,377.993,381.885,385.777,389.669" svgx:width="0.67,0.56,0.56,0.22,0.22,0.5,0.56,0.56,0.56,0.28,0.28,0.56,0.56,0.28,0.67,0.56,0.56,0.28,0.56,0.83,0.56,0.56,0.33,0.28,0.56,0.56,0.56,0.56" style="fill:rgb(0,0,0);font-family:ArialMT-Regular;font-size:7.0px;stroke:none;">Published: 14 September 2016</text>
  </g>
  <g begin="text">
   <text y="385.5" x="297.5,301.77,305.662,307.216,310.716,312.655,316.547,318.878,320.817,322.371,325.871,327.425,331.317,333.256,334.81,338.31,340.249,344.141,348.033,350.364,352.303,354.242,358.134,360.073,362.012,363.951,367.843,371.735,373.674,377.944,381.836,385.728,391.559,395.451,397.39,398.944,402.444,404.383,409.045,412.937,415.268,416.822,420.714,424.214,426.153,428.631,433.293,437.185,440.685,444.185,445.739,449.239,452.739,454.678,456.617,460.117,464.009,467.901,473.732,475.286,478.786,480.725,483.056,486.556,488.495,492.387,496.279,500.171,502.11,506.002,507.556,511.448,513.002,516.894,520.786" svgx:width="0.61,0.56,0.22,0.5,0.28,0.56,0.33,0.28,0.22,0.5,0.22,0.56,0.28,0.22,0.5,0.28,0.56,0.56,0.33,0.28,0.28,0.56,0.28,0.28,0.28,0.56,0.56,0.28,0.61,0.56,0.56,0.83,0.56,0.28,0.22,0.5,0.28,0.67,0.56,0.33,0.22,0.56,0.5,0.28,0.35,0.67,0.56,0.5,0.5,0.22,0.5,0.5,0.28,0.28,0.5,0.56,0.56,0.83,0.22,0.5,0.28,0.33,0.5,0.28,0.56,0.56,0.56,0.28,0.56,0.22,0.56,0.22,0.56,0.56,0.5" style="fill:rgb(0,0,0);font-family:ArialMT-Regular;font-size:7.0px;stroke:none;">This article is part of the Thematic Series "Physics, chemistry and biology</text>
   <text y="395.5" x="297.5,301.392,303.331,305.27,307.209,311.101,314.993,318.493,320.432,321.986,325.878,329.77,333.662,335.216,337.155,341.047,344.939,348.831,352.723,356.223,358.162,360.493,364.385,367.885,369.824,373.716,376.047,379.939,383.439,385.378,387.317,389.256,391.195,393.673" svgx:width="0.56,0.28,0.28,0.28,0.56,0.56,0.5,0.28,0.22,0.56,0.56,0.56,0.22,0.28,0.56,0.56,0.56,0.56,0.5,0.28,0.33,0.56,0.5,0.28,0.56,0.33,0.56,0.5,0.28,0.28,0.28,0.28,0.35,0.28" style="fill:rgb(0,0,0);font-family:ArialMT-Regular;font-size:7.0px;stroke:none;">of functional nanostructures III".</text>
  </g>
  <g begin="text">
   <text y="415.5" x="297.5,302.939,306.831,310.723,314.223,316.162,318.101,322.763,326.655,328.209,330.148,334.04,336.371,338.31,340.249,344.911,346.85,348.789,353.451,355.39,357.329,361.991,363.545,367.437,371.329,373.66,377.552,381.444,384.944" svgx:width="0.78,0.56,0.56,0.5,0.28,0.28,0.67,0.56,0.22,0.28,0.56,0.33,0.28,0.28,0.67,0.28,0.28,0.67,0.28,0.28,0.67,0.22,0.56,0.56,0.33,0.56,0.56,0.5,0.56" style="fill:rgb(0,0,0);font-family:ArialMT-Regular;font-size:7.0px;stroke:none;">Guest Editor: A. S. Sidorenko</text>
  </g>
  <g begin="text">
   <text y="435.5" x="297.5,302.652,304.591,308.483,312.375,316.267,320.159,322.098,325.99,327.544,331.436,333.375,337.267,339.206,341.145,345.037,346.591,348.53,350.469,352.408,353.962,355.516,359.016,362.908,366.8,370.3,374.192,378.084,380.023,384.685,388.577,390.131,391.685,395.185,397.124,401.016,402.57,406.462,408.793,410.732,414.624,418.124,420.063,421.617,423.556,427.448,429.387" svgx:width="0.74,0.28,0.56,0.56,0.56,0.56,0.28,0.56,0.22,0.56,0.28,0.56,0.28,0.28,0.56,0.22,0.28,0.28,0.28,0.22,0.22,0.5,0.56,0.56,0.5,0.56,0.56,0.28,0.67,0.56,0.22,0.22,0.5,0.28,0.56,0.22,0.56,0.33,0.28,0.56,0.5,0.28,0.22,0.28,0.56,0.28,0.28" style="fill:rgb(0,0,0);font-family:ArialMT-Regular;font-size:7.0px;stroke:none;">© 2016 Liu et al.; licensee Beilstein-Institut.</text>
  </g>
  <g begin="text">
   <text y="445.5" x="297.5,301.392,302.946,306.446,310.338,314.23,317.73,321.622,323.561,327.453,331.345,335.237,337.176,339.115,343.007,345.338,351.169,354.669,356.608,358.547,362.047,365.939,369.831,371.77,375.662,379.554,383.446,385.385,389.277,391.216,393.155,397.047,400.939,404.439,408.331,414.162,418.054,421.946,423.885" svgx:width="0.56,0.22,0.5,0.56,0.56,0.5,0.56,0.28,0.56,0.56,0.56,0.28,0.28,0.56,0.33,0.83,0.5,0.28,0.28,0.5,0.56,0.56,0.28,0.56,0.56,0.56,0.28,0.56,0.28,0.28,0.56,0.56,0.5,0.56,0.83,0.56,0.56,0.28,0.28" style="fill:rgb(0,0,0);font-family:ArialMT-Regular;font-size:7.0px;stroke:none;">License and terms: see end of document.</text>
  </g>
  <g begin="text">
   <text y="502.0" x="59.5,68.158,75.386,81.886,85.487,89.816,97.044,103.544" svgx:width="0.67,0.56,0.5,0.28,0.33,0.56,0.5,0.28" style="fill:rgb(0,0,0);font-family:ArialMT-Regular;font-size:13.0px;stroke:none;">Abstract</text>
  </g>
  <g begin="text">
   <text y="515.0" x="59.5,66.037,68.422,72.96,77.499,82.038,86.063,88.595,90.98,95.519,99.544,102.076,108.613,113.151,116.187,120.725,123.111,127.649,130.685,133.07,136.61,141.148,143.68,148.218,152.757,155.289,159.314,162.35,164.882,167.413,171.952,175.977,178.363,182.388,186.414,189.449,193.988,198.527,203.065,205.45,209.989,214.015,218.553,223.092,226.128,228.659,233.198,237.223,240.259,243.799,246.184,252.72,256.746,260.286,262.671,265.706,269.732,274.271,277.306,279.838,283.864,287.889,290.421,294.447,298.985,301.37,305.909,308.44,312.466,314.851,318.877,321.262,324.802,327.333,334.365,338.904,341.435,343.967,347.002,349.534,353.56,358.098,360.483,364.023,368.562,373.1,375.632,380.171,384.196,387.736,390.267,393.807,396.192,398.724,403.262,407.801,412.34,414.871,419.41,421.942,426.48,431.019,433.404,437.43,439.961,443.987,448.012,450.544,453.58,458.118,461.658,466.197,468.728,473.267,477.805,480.337,484.876,489.414,491.8,494.835,499.374,501.905,504.437,508.976,515.512,519.538,524.077,526.462,531.0" svgx:width="0.72,0.25,0.5,0.5,0.5,0.44,0.28,0.25,0.5,0.44,0.28,0.72,0.5,0.33,0.5,0.25,0.5,0.33,0.25,0.39,0.5,0.28,0.5,0.5,0.28,0.44,0.33,0.28,0.28,0.5,0.44,0.25,0.44,0.44,0.33,0.5,0.5,0.5,0.25,0.5,0.44,0.5,0.5,0.33,0.28,0.5,0.44,0.33,0.39,0.25,0.72,0.44,0.39,0.25,0.33,0.44,0.5,0.33,0.28,0.44,0.44,0.28,0.44,0.5,0.25,0.5,0.28,0.44,0.25,0.44,0.25,0.39,0.28,0.78,0.5,0.28,0.28,0.33,0.28,0.44,0.5,0.25,0.39,0.5,0.5,0.28,0.5,0.44,0.39,0.28,0.39,0.25,0.28,0.5,0.5,0.5,0.28,0.5,0.28,0.5,0.5,0.25,0.44,0.28,0.44,0.44,0.28,0.33,0.5,0.39,0.5,0.28,0.5,0.5,0.28,0.5,0.5,0.25,0.33,0.5,0.28,0.28,0.5,0.72,0.44,0.5,0.25,0.5,0.5" style="fill:rgb(0,0,0);font-family:TimesNewRomanWGL;font-size:9.0px;stroke:none;">A novel network of spindle-like carbon nanofibers was fabricated via a simplified synthesis involving electrospinning followed by</text>
   <text y="528.0" x="59.5,64.074,67.146,71.207,75.782,80.356,82.923,87.498,91.559,94.127,96.694,101.269,105.843,108.353,110.921,115.495,118.006,122.067,124.634,127.706,130.216,134.278,138.852,143.427,145.937,150.511,155.086,158.661,161.229,165.29,169.352,172.423,176.997,181.572,186.146,188.714,192.775,196.836,199.404,201.971,206.546,211.12,213.631,216.198,220.772,223.283,229.855,232.927,235.251,237.762,244.334,248.908,251.476,253.986,258.561,263.135,265.702,270.277,272.787,279.36,283.421,286.996,289.507,292.074,296.649,300.71,303.221,307.282,310.857,313.929,318.503,323.078,325.645,329.706,332.274,336.848,340.91,345.484,347.994,352.056,356.117,359.189,363.763,368.337,372.912,375.422,379.997,384.058,386.626,393.198,397.772,400.844,405.418,407.929,411.99,416.564,423.632,428.206,431.278,433.845,437.42,441.482,446.056,448.567,453.141,456.213,458.723,463.297,467.359,471.42,475.995,479.57,482.08,486.655,489.726,492.237,495.812,500.386,502.954,507.528,512.103,514.67,518.732,521.803,524.37,526.938,531.512" svgx:width="0.5,0.33,0.44,0.5,0.5,0.28,0.5,0.44,0.28,0.28,0.5,0.5,0.25,0.28,0.5,0.25,0.44,0.28,0.33,0.25,0.44,0.5,0.5,0.25,0.5,0.5,0.39,0.28,0.44,0.44,0.33,0.5,0.5,0.5,0.28,0.44,0.44,0.28,0.28,0.5,0.5,0.25,0.28,0.5,0.25,0.72,0.33,0.25,0.25,0.72,0.5,0.28,0.25,0.5,0.5,0.28,0.5,0.25,0.72,0.44,0.39,0.25,0.28,0.5,0.44,0.25,0.44,0.39,0.33,0.5,0.5,0.28,0.44,0.28,0.5,0.44,0.5,0.25,0.44,0.44,0.33,0.5,0.5,0.5,0.25,0.5,0.44,0.28,0.72,0.5,0.33,0.5,0.25,0.44,0.5,0.78,0.5,0.33,0.28,0.39,0.44,0.5,0.25,0.5,0.33,0.25,0.5,0.44,0.44,0.5,0.39,0.25,0.5,0.33,0.25,0.39,0.5,0.28,0.5,0.5,0.28,0.44,0.33,0.28,0.28,0.5,0.44" style="fill:rgb(0,0,0);font-family:TimesNewRomanWGL;font-size:9.0px;stroke:none;">preoxidation in air and postcarbonization in Ar. Not only was the as-obtained carbon network comprised of beads of spindle-like</text>
   <text y="541.0" x="59.5,64.037,68.062,72.599,77.136,80.171,82.701,87.238,91.263,94.297,97.835,100.216,104.753,109.291,111.821,114.202,116.732,121.269,125.294,127.674,131.699,136.236,140.773,143.304,147.328,149.709,157.747,162.284,168.82,171.2,175.738,180.275,184.299,187.838,191.862,194.243,198.267,202.804,207.341,209.722,216.257,218.638,222.662,225.193,229.217,236.247,240.272,244.809,247.339,250.878,253.258,259.794,263.818,266.852,270.877,273.257,276.796,281.333,285.357,289.382,293.406,296.944,300.483,303.517,308.054,310.585,313.115,317.652,320.033,324.057,328.595,332.619,337.156,341.694,344.728,348.752,353.29,355.67,358.201,362.738,365.268,369.806,372.186,374.716,379.254,383.278,385.659,389.683,396.713,401.251,404.285,408.822,413.36,417.897,422.434,425.973,428.353,432.378,436.402,439.436,443.974,448.511,453.048,455.429,462.459,466.484,469.014,472.048,474.579,479.116,481.403,483.784,492.308,496.846,500.87,505.407,507.788,512.325,514.856,517.89,521.914,525.939,528.469,530.999" svgx:width="0.5,0.44,0.5,0.5,0.33,0.28,0.5,0.44,0.33,0.39,0.25,0.5,0.5,0.28,0.25,0.28,0.5,0.44,0.25,0.44,0.5,0.5,0.28,0.44,0.25,0.89,0.5,0.72,0.25,0.5,0.5,0.44,0.39,0.44,0.25,0.44,0.5,0.5,0.25,0.72,0.25,0.44,0.28,0.44,0.78,0.44,0.5,0.28,0.39,0.25,0.72,0.44,0.33,0.44,0.25,0.39,0.5,0.44,0.44,0.44,0.39,0.39,0.33,0.5,0.28,0.28,0.5,0.25,0.44,0.5,0.44,0.5,0.5,0.33,0.44,0.5,0.25,0.28,0.5,0.28,0.5,0.25,0.28,0.5,0.44,0.25,0.44,0.78,0.5,0.33,0.5,0.5,0.5,0.5,0.39,0.25,0.44,0.44,0.33,0.5,0.5,0.5,0.25,0.78,0.44,0.28,0.33,0.28,0.5,0.25,0.25,0.94,0.5,0.44,0.5,0.25,0.5,0.28,0.33,0.44,0.44,0.28,0.28,0.5" style="fill:rgb(0,0,0);font-family:TimesNewRomanWGL;font-size:9.0px;stroke:none;">nanofibers but the cubic MnO phase and N elements were successfully anchored into the amorphous carbon matrix. When directly</text>
   <text y="554.0" x="59.5,64.006,67.513,71.507,76.013,78.284,82.278,85.785,88.056,92.05,94.321,98.827,101.327,105.833,110.339,114.332,117.335,120.339,123.342,126.345,130.338,134.331,136.603,140.596,145.102,149.609,154.115,158.108,160.38,163.383,167.889,170.892,173.164,175.663,178.162,180.661,185.168,187.667,192.173,199.172,202.175,204.675,209.181,213.687,215.959,220.465,224.458,226.957,229.456,233.45,236.453,238.952,242.945,246.452,248.709,250.98,253.479,257.986,261.979,264.251,268.757,272.75,275.249,281.753,286.259,289.263,293.769,296.041,299.548,304.054,308.56,315.064,319.058,323.564,325.835,329.829,334.335,338.328,342.321,344.82,347.32,351.313,355.819,358.318,360.59,364.583,367.082,371.075,375.069,377.568,380.571,385.077,389.07,393.576,397.57,404.569,407.068,411.061,415.054,417.554,419.825,424.331,428.325,431.328,434.331,438.837,441.84,448.84,452.833,457.339,461.332,465.325,467.597,474.101,476.6,479.1,483.606,485.877,490.384,492.883,497.389,501.895,504.167,508.16,512.153,516.659,520.653,524.646,527.145,529.644,534.15" svgx:width="0.5,0.39,0.44,0.5,0.25,0.44,0.39,0.25,0.44,0.25,0.5,0.28,0.5,0.5,0.44,0.33,0.33,0.33,0.33,0.44,0.44,0.25,0.44,0.5,0.5,0.5,0.44,0.25,0.33,0.5,0.33,0.25,0.28,0.28,0.28,0.5,0.28,0.5,0.78,0.33,0.28,0.5,0.5,0.25,0.5,0.44,0.28,0.28,0.44,0.33,0.28,0.44,0.39,0.25,0.25,0.28,0.5,0.44,0.25,0.5,0.44,0.28,0.72,0.5,0.33,0.5,0.25,0.39,0.5,0.5,0.72,0.44,0.5,0.25,0.44,0.5,0.44,0.44,0.28,0.28,0.44,0.5,0.28,0.25,0.44,0.28,0.44,0.44,0.28,0.33,0.5,0.44,0.5,0.44,0.78,0.28,0.44,0.44,0.28,0.25,0.5,0.44,0.33,0.33,0.5,0.33,0.78,0.44,0.5,0.44,0.44,0.25,0.72,0.28,0.28,0.5,0.25,0.5,0.28,0.5,0.5,0.25,0.44,0.44,0.5,0.44,0.44,0.28,0.28,0.5,0.25" style="fill:rgb(0,0,0);font-family:TimesNewRomanWGL;font-size:9.0px;stroke:none;">used as a binder-free anode for lithium-ion batteries, the network showed excellent electrochemical performance with high capacity,</text>
   <text y="567.0" x="59.5,64.115,68.729,73.344,77.959,80.61,83.722,87.823,90.431,94.533,97.184,101.286,105.388,110.002,114.104,118.206,120.813,123.421,128.036,130.687,134.789,139.403,144.018,146.669,149.781,153.883,156.49,159.098,163.2,167.815,170.422,174.524,177.175,181.277,185.892,189.993,192.601,195.209,199.823,204.438,207.089,210.705,213.313,217.414,222.029,224.637,227.245,229.852,232.46,237.075,239.439,242.091,248.703,253.318,257.933,262.034,265.146,267.797,271.899,274.551,278.652,283.267,286.379,289.49,293.592,298.207,300.814,303.466,308.08,312.182,316.797,320.412,323.02,325.628,330.242,332.894,337.508,340.62,343.272,347.886,350.251,354.866,357.517,364.13,366.781" svgx:width="0.5,0.5,0.5,0.5,0.25,0.33,0.44,0.28,0.44,0.25,0.44,0.44,0.5,0.44,0.44,0.28,0.28,0.5,0.25,0.44,0.5,0.5,0.25,0.33,0.44,0.28,0.28,0.44,0.5,0.28,0.44,0.25,0.44,0.5,0.44,0.28,0.28,0.5,0.5,0.25,0.39,0.28,0.44,0.5,0.28,0.28,0.28,0.28,0.5,0.25,0.25,0.72,0.5,0.5,0.44,0.33,0.25,0.44,0.25,0.44,0.5,0.33,0.33,0.44,0.5,0.28,0.25,0.5,0.44,0.5,0.39,0.28,0.28,0.5,0.25,0.5,0.33,0.25,0.5,0.25,0.5,0.25,0.72,0.25,0.5" style="fill:rgb(0,0,0);font-family:TimesNewRomanWGL;font-size:9.0px;stroke:none;">good rate capacity and reliable cycling stability. Under a current density of 0.2 A g</text>
   <text y="563.85" x="371.396,375.564" svgx:width="0.56,0.5" style="fill:rgb(0,0,0);font-family:TimesNewRomanWGL;font-size:7.2px;stroke:none;">−1</text>
   <text y="567.0" x="379.279,381.643,384.295,386.902,389.51,392.161,396.776,400.878,403.485,406.093,410.708,414.809,417.921,422.023,426.638,429.289,433.391,436.042,440.657,443.264,447.879,452.494,455.145,458.257,462.358,466.973,471.075,474.186,477.802,480.41,485.025,487.632,491.734,494.385,498.487,502.589,507.203,511.305,515.407,518.014,520.622,525.237,527.888,532.503" svgx:width="0.25,0.25,0.28,0.28,0.25,0.5,0.44,0.28,0.28,0.5,0.44,0.33,0.44,0.5,0.25,0.44,0.25,0.5,0.28,0.5,0.5,0.25,0.33,0.44,0.5,0.44,0.33,0.39,0.28,0.5,0.28,0.44,0.25,0.44,0.44,0.5,0.44,0.44,0.28,0.28,0.5,0.25,0.5,0.33" style="fill:rgb(0,0,0);font-family:TimesNewRomanWGL;font-size:9.0px;stroke:none;">, it delivered a high reversible capacity of</text>
   <text y="580.0" x="59.5,64.115,68.729,73.344,75.709,80.323,82.975,90.082,96.695,101.31,103.961" svgx:width="0.5,0.5,0.5,0.25,0.5,0.25,0.78,0.72,0.5,0.25,0.5" style="fill:rgb(0,0,0);font-family:TimesNewRomanWGL;font-size:9.0px;stroke:none;">875.5 mAh g</text>
   <text y="576.85" x="108.576,112.744" svgx:width="0.56,0.5" style="fill:rgb(0,0,0);font-family:TimesNewRomanWGL;font-size:7.2px;stroke:none;">−1</text>
   <text y="580.0" x="116.459,119.11,123.212,126.324,128.931,133.033,136.145,138.796,143.411,148.025,152.64,155.291,159.393,164.008,168.109,170.717,174.819,178.435,181.086,185.188,189.802,194.417,197.068,201.683,206.298,210.912,215.527,217.892,222.506,225.158,232.266,238.878,243.493,246.144" svgx:width="0.25,0.44,0.33,0.28,0.44,0.33,0.25,0.5,0.5,0.5,0.25,0.44,0.5,0.44,0.28,0.44,0.39,0.25,0.44,0.5,0.5,0.25,0.5,0.5,0.5,0.5,0.25,0.5,0.25,0.78,0.72,0.5,0.25,0.5" style="fill:rgb(0,0,0);font-family:TimesNewRomanWGL;font-size:9.0px;stroke:none;"> after 200 cycles and 1005.5 mAh g</text>
   <text y="576.85" x="250.759,254.927" svgx:width="0.56,0.5" style="fill:rgb(0,0,0);font-family:TimesNewRomanWGL;font-size:7.2px;stroke:none;">−1</text>
   <text y="580.0" x="258.642,261.293,265.395,268.507,271.114,275.216,278.328,280.979,285.594,290.208,294.823,297.474,301.576,306.191,310.293,312.9,317.002,320.618,323.269,329.882,332.489,335.097,339.712,342.363,346.465,349.116,352.732,355.339,359.954,364.569,367.176,370.288,372.896,376.997,381.099,385.714,388.322,390.973,395.075,399.689,404.304,406.912,411.526,418.634,423.249,425.856,429.958,432.609,436.711,439.823,442.934,445.542,449.644,452.251,456.353,460.968,465.07,469.684,472.336,476.95,480.062,482.713,487.328,491.943,494.307,498.922,506.534" svgx:width="0.25,0.44,0.33,0.28,0.44,0.33,0.25,0.5,0.5,0.5,0.25,0.44,0.5,0.44,0.28,0.44,0.39,0.25,0.72,0.28,0.28,0.5,0.25,0.44,0.25,0.39,0.28,0.5,0.5,0.28,0.33,0.28,0.44,0.44,0.5,0.28,0.25,0.44,0.5,0.5,0.28,0.5,0.78,0.5,0.28,0.44,0.25,0.44,0.33,0.33,0.28,0.44,0.28,0.44,0.5,0.44,0.5,0.25,0.5,0.33,0.25,0.5,0.5,0.25,0.5,0.83,0.25" style="fill:rgb(0,0,0);font-family:TimesNewRomanWGL;font-size:9.0px;stroke:none;"> after 250 cycles with a significant coulombic efficiency of 99.5%.</text>
  </g>
  <g begin="text">
   <text y="792.1" x="517.93,521.822,525.714,529.606" svgx:width="0.56,0.56,0.56,0.56" style="fill:rgb(0,0,0);font-family:ArialMT-Regular;font-size:7.0px;stroke:none;">1289</text>
  </g>
  <g begin="text">
   <text y="619.0" x="59.5,63.101,70.329,73.93,78.259,85.487,92.715,99.943,106.443,110.044,112.93,120.158" svgx:width="0.28,0.56,0.28,0.33,0.56,0.56,0.56,0.5,0.28,0.22,0.56,0.56" style="fill:rgb(0,0,0);font-family:ArialMT-Regular;font-size:13.0px;stroke:none;">Introduction</text>
  </g>
  <g begin="text">
   <text y="632.0" x="59.5,65.066,67.636,70.205,74.781,77.35,81.927,88.996,92.069,94.639,99.215,103.791,106.308,110.884,114.948,117.517,120.086,124.149,127.223,129.792,133.855,137.433,139.95,143.023,148.589,151.662,157.733,161.31,164.383,166.9,171.477,175.54,180.116,184.179,186.696,191.273,195.336,199.399,203.975,206.492,209.062,213.638,217.701,222.278,224.847,227.416,230.489,233.059,237.122,241.698,244.215,248.278,251.856,254.373,258.949,263.525,267.589,270.106,274.682,277.755,280.272,282.841,287.418" svgx:width="0.61,0.28,0.28,0.5,0.28,0.5,0.78,0.33,0.28,0.5,0.5,0.25,0.5,0.44,0.28,0.28,0.44,0.33,0.28,0.44,0.39,0.25,0.33,0.61,0.33,0.67,0.39,0.33,0.25,0.5,0.44,0.5,0.44,0.25,0.5,0.44,0.44,0.5,0.25,0.28,0.5,0.44,0.5,0.28,0.28,0.33,0.28,0.44,0.5,0.25,0.44,0.39,0.25,0.5,0.5,0.44,0.25,0.5,0.33,0.25,0.28,0.5,0.44" style="fill:rgb(0,0,0);font-family:TimesNewRomanWGL;font-size:9.0px;stroke:none;">Lithium-ion batteries (LIBs) have been identified as one of the</text>
   <text y="645.0" x="59.5,66.883,71.772,75.663,78.545,80.795,82.159,86.536,91.425,96.315,100.692,105.581,109.958,114.334,119.224,121.474,122.838,125.72,130.61,135.499,139.876,144.766,147.648,150.531,155.42,160.31,164.201,166.451,167.814,170.697,175.587,177.837,179.2,184.09,186.972,191.862,196.752,199.002,200.365,204.742,209.631,214.008,217.395,222.284,227.174,229.424,230.787,235.677,240.054,244.943,248.834,251.716,254.599,259.489,261.739,263.102,266.993,269.876,274.765,278.152,282.528,287.418" svgx:width="0.78,0.5,0.39,0.28,0.25,0.55,0.44,0.5,0.5,0.44,0.5,0.44,0.44,0.5,0.25,0.55,0.28,0.5,0.5,0.44,0.5,0.28,0.28,0.5,0.5,0.39,0.25,0.55,0.28,0.5,0.25,0.55,0.5,0.28,0.5,0.5,0.25,0.55,0.44,0.5,0.44,0.33,0.5,0.5,0.25,0.55,0.5,0.44,0.5,0.39,0.28,0.28,0.5,0.25,0.55,0.39,0.28,0.5,0.33,0.44,0.5,0.44" style="fill:rgb(0,0,0);font-family:TimesNewRomanWGL;font-size:9.0px;stroke:none;">most advanced inventions in high energy density storage</text>
   <text y="658.0" x="59.5,64.382,68.751,73.633,76.508,80.877,85.246,89.129,91.379,92.716,97.085,101.967,106.849,109.099,110.436,114.805,118.184,122.553,124.803,126.14,130.509,135.391,138.266,142.635,147.517,151.4,154.275,159.157,163.526,166.401,171.283,173.533,174.87,179.752,182.627,185.502,188.377,191.252,195.621,199.99,204.872,207.122,208.459,211.335,216.217,218.467,219.804,224.686,229.055,232.434,235.309,240.191,245.073,248.956,251.206,252.543,256.912,259.787,264.156,268.525,271.4,274.779,279.661,284.543,287.418" svgx:width="0.5,0.44,0.5,0.28,0.44,0.44,0.39,0.25,0.55,0.44,0.5,0.5,0.25,0.55,0.44,0.33,0.44,0.25,0.55,0.44,0.5,0.28,0.44,0.5,0.39,0.28,0.5,0.44,0.28,0.5,0.25,0.55,0.5,0.28,0.28,0.28,0.28,0.44,0.44,0.5,0.25,0.55,0.28,0.5,0.25,0.55,0.5,0.44,0.33,0.28,0.5,0.5,0.39,0.25,0.55,0.44,0.28,0.44,0.44,0.28,0.33,0.5,0.5,0.28,0.44" style="fill:rgb(0,0,0);font-family:TimesNewRomanWGL;font-size:9.0px;stroke:none;">devices and are extensively utilized in various electronic</text>
   <text y="671.0" x="59.5,63.101,67.701,71.302,73.896,77.983,85.076,88.677,91.278,94.375,98.975,102.072,104.673,111.766,116.366,120.966,123.559,126.152,130.24,132.84,137.44,142.041,146.641,151.241,155.328,158.929,161.279,163.88,167.967,172.567,179.66,184.261,188.861,191.454,195.541,198.638,202.239,204.84,208.927,213.527,218.127,220.728,225.328,229.415,234.015,236.609,240.696,243.289,247.376,250.977,253.578,256.675,261.275,264.372,268.972,272.07,274.42,277.02,280.117,282.711,285.311,287.904" svgx:width="0.39,0.5,0.39,0.28,0.44,0.78,0.39,0.25,0.33,0.5,0.33,0.25,0.78,0.5,0.5,0.28,0.28,0.44,0.25,0.5,0.5,0.5,0.5,0.44,0.39,0.25,0.25,0.44,0.5,0.78,0.5,0.5,0.28,0.44,0.33,0.39,0.25,0.44,0.5,0.5,0.25,0.5,0.44,0.5,0.28,0.44,0.28,0.44,0.39,0.25,0.33,0.5,0.33,0.5,0.33,0.25,0.25,0.33,0.28,0.25,0.28,0.39" style="fill:rgb(0,0,0);font-family:TimesNewRomanWGL;font-size:9.0px;stroke:none;">systems for mobile phones, computers and vehicles [1-3]. It is</text>
   <text y="684.0" x="59.5,63.722,68.458,75.686,82.914,87.65,92.385,94.635,95.459,100.194,104.93,109.665,116.398,119.127,123.349,128.084,132.82,137.042,139.292,140.116,142.844,147.579,151.802,154.53,156.78,157.604,160.332,165.068,169.29,171.54,172.364,176.586,180.808,185.544,189.766,193.988,196.717,199.445,204.18,206.43,207.254,211.476,216.212,220.947,223.197,224.021,228.243,232.979,237.201,240.433,245.169,249.904,252.154,252.978,257.713,261.935,266.671,270.407,273.135,275.864,280.599,282.849,283.673,288.408" svgx:width="0.44,0.5,0.78,0.78,0.5,0.5,0.25,0.55,0.5,0.5,0.5,0.72,0.28,0.44,0.5,0.5,0.44,0.25,0.55,0.28,0.5,0.44,0.28,0.25,0.55,0.28,0.5,0.44,0.25,0.55,0.44,0.44,0.5,0.44,0.44,0.28,0.28,0.5,0.25,0.55,0.44,0.5,0.5,0.25,0.55,0.44,0.5,0.44,0.33,0.5,0.5,0.25,0.55,0.5,0.44,0.5,0.39,0.28,0.28,0.5,0.25,0.55,0.5,0.33" style="fill:rgb(0,0,0);font-family:TimesNewRomanWGL;font-size:9.0px;stroke:none;">common knowledge that the capacity and energy density of</text>
   <text y="697.0" x="59.5,65.021,68.048,74.073,77.605,79.963,83.98,87.008,91.026,93.383,97.914,100.438,104.969,109.499,112.023,116.554,118.911,123.442,127.46,131.991,136.008,140.539,145.07,149.088,153.618,156.142,158.5,163.03,167.561,169.919,172.442,176.973,180.991,183.349,187.366,189.89,193.908,197.925,200.449,203.477,208.008,212.538,216.556,218.914,225.938,229.955,232.479,236.497,239.525,242.048,246.066,248.59,252.121,254.402,256.76,262.785,267.315,274.339,281.363,285.38,288.408" svgx:width="0.61,0.33,0.67,0.39,0.25,0.44,0.33,0.44,0.25,0.5,0.28,0.5,0.5,0.28,0.5,0.25,0.5,0.44,0.5,0.44,0.5,0.5,0.44,0.5,0.28,0.25,0.5,0.5,0.25,0.28,0.5,0.44,0.25,0.44,0.28,0.44,0.44,0.28,0.33,0.5,0.5,0.44,0.25,0.78,0.44,0.28,0.44,0.33,0.28,0.44,0.28,0.39,0.25,0.25,0.67,0.5,0.78,0.78,0.44,0.33,0.33" style="fill:rgb(0,0,0);font-family:TimesNewRomanWGL;font-size:9.0px;stroke:none;">LIBs are highly dependent on the electrode materials. Commer-</text>
   <text y="710.0" x="59.5,63.696,66.398,70.593,73.295,75.545,76.276,80.985,84.191,88.387,93.095,97.804,100.506,103.208,107.404,109.863,112.113,112.843,119.55,122.252,124.954,129.663,131.913,132.644,135.345,140.054,146.761,149.011,149.742,153.452,158.161,162.356,166.552,169.254,172.46,175.162,179.357,181.607,182.338,186.534,190.73,195.439,199.635,203.83,206.532,209.234,213.943,216.193,216.924,221.12,225.828,230.537,232.787,233.518,238.227,242.936,247.644,250.85,253.1,253.831,257.037,261.233,263.935,268.13,270.38,271.111,275.307,279.503,284.212,288.408" svgx:width="0.44,0.28,0.44,0.28,0.25,0.55,0.5,0.33,0.44,0.5,0.5,0.28,0.28,0.44,0.25,0.25,0.55,0.72,0.28,0.28,0.5,0.25,0.55,0.28,0.5,0.72,0.25,0.55,0.39,0.5,0.44,0.44,0.28,0.33,0.28,0.44,0.25,0.55,0.44,0.44,0.5,0.44,0.44,0.28,0.28,0.5,0.25,0.55,0.44,0.5,0.5,0.25,0.55,0.5,0.5,0.5,0.33,0.25,0.55,0.33,0.44,0.28,0.44,0.25,0.55,0.44,0.44,0.5,0.44,0.33" style="fill:rgb(0,0,0);font-family:TimesNewRomanWGL;font-size:9.0px;stroke:none;">cial graphite, with low specific capacity and poor rate capa-</text>
   <text y="723.0" x="59.5,64.043,66.58,69.116,71.652,74.189,78.732,81.026,83.427,87.971,92.514,94.916,97.452,101.996,106.539,111.082,115.113,118.153,120.555,127.591,131.622,135.652,138.188,141.733,144.135,146.671,151.214,155.245,157.647,162.19,165.23,169.774,173.804,178.347,180.884,183.286,186.326,190.356,194.9,199.443,201.979,205.02,209.05,216.087,220.117,224.66,227.197,230.741,233.143,237.686,240.727,243.128,250.165,254.708,259.251,263.282,266.322,270.866,273.267,275.804,279.834,283.864,288.408" svgx:width="0.5,0.28,0.28,0.28,0.28,0.5,0.25,0.25,0.5,0.5,0.25,0.28,0.5,0.5,0.5,0.44,0.33,0.25,0.78,0.44,0.44,0.28,0.39,0.25,0.28,0.5,0.44,0.25,0.5,0.33,0.5,0.44,0.5,0.28,0.25,0.33,0.44,0.5,0.5,0.28,0.33,0.44,0.78,0.44,0.5,0.28,0.39,0.25,0.5,0.33,0.25,0.78,0.5,0.5,0.44,0.33,0.5,0.25,0.28,0.44,0.44,0.5,0.33" style="fill:rgb(0,0,0);font-family:TimesNewRomanWGL;font-size:9.0px;stroke:none;">bility, no longer meets the urgent requirements of modern tech-</text>
   <text y="736.0" x="59.5,64.08,68.659,71.232,75.812,80.391,82.964,87.031,90.611,93.14,97.207,100.788,103.317,107.383,111.963,114.492,118.558,123.138,127.718,132.298,136.364,138.893,145.966,150.032,152.605,156.672,159.748,162.321,166.388,168.96,171.489,174.566,179.146,182.222,184.751,190.321,193.398,199.471,203.052,205.581,208.658,213.237,215.567,220.147,223.223,225.553,228.082,234.659,238.726,243.306,247.373,251.439,253.769,256.298,260.364,264.944,269.524,272.096,276.676,279.753,282.326,286.905" svgx:width="0.5,0.5,0.28,0.5,0.5,0.28,0.44,0.39,0.25,0.44,0.39,0.25,0.44,0.5,0.25,0.44,0.5,0.5,0.5,0.44,0.25,0.78,0.44,0.28,0.44,0.33,0.28,0.44,0.28,0.25,0.33,0.5,0.33,0.25,0.61,0.33,0.67,0.39,0.25,0.33,0.5,0.25,0.5,0.33,0.25,0.25,0.72,0.44,0.5,0.44,0.44,0.25,0.25,0.44,0.5,0.5,0.28,0.5,0.33,0.28,0.5,0.5" style="fill:rgb(0,0,0);font-family:TimesNewRomanWGL;font-size:9.0px;stroke:none;">nologies as an anode material for LIBs [4,5]. Hence, exploring</text>
   <text y="749.0" x="59.5,64.148,68.283,74.928,77.696,81.83,85.965,90.613,95.261,97.902,102.549,106.684,109.325,113.46,117.109,119.876,126.522,129.162,131.803,136.451,139.218,143.866,146.507,151.155,155.802,159.937,163.082,165.849,169.984,174.632,178.767,181.911,186.559,191.207,193.974,198.622,202.757,207.405,211.053,213.694,216.335,220.983,223.75,227.885,232.533,237.18,239.948,244.595,248.73,251.371,254.012,258.147,261.291,264.059,268.193,272.841,276.976,279.617,282.258,286.905" svgx:width="0.5,0.44,0.72,0.25,0.44,0.44,0.5,0.5,0.28,0.5,0.44,0.28,0.44,0.39,0.25,0.72,0.28,0.28,0.5,0.25,0.5,0.28,0.5,0.5,0.44,0.33,0.25,0.44,0.5,0.44,0.33,0.5,0.5,0.25,0.5,0.44,0.5,0.39,0.28,0.28,0.5,0.25,0.44,0.5,0.5,0.25,0.5,0.44,0.28,0.28,0.44,0.33,0.25,0.44,0.5,0.44,0.28,0.28,0.5,0.5" style="fill:rgb(0,0,0);font-family:TimesNewRomanWGL;font-size:9.0px;stroke:none;">new candidates with higher energy density and better cycling</text>
   <text y="762.0" x="59.5,63.635,68.283,72.93,77.578,80.723,84.858,89.506,93.64,97.775,100.542,105.19,109.325,113.46,118.108,125.248,129.383,133.032,135.799,138.44,145.581,150.229,154.363,157.508,161.643,164.284,166.924,171.572,175.707" svgx:width="0.44,0.5,0.5,0.5,0.33,0.44,0.5,0.44,0.44,0.25,0.5,0.44,0.44,0.5,0.78,0.44,0.39,0.25,0.28,0.78,0.5,0.44,0.33,0.44,0.28,0.28,0.5,0.44,0.25" style="fill:rgb(0,0,0);font-family:TimesNewRomanWGL;font-size:9.0px;stroke:none;">endurance becomes imperative.</text>
  </g>
  <g begin="text">
   <text y="632.0" x="303.6,308.847,312.086,316.316,320.06,324.289,329.032,331.768,334.503,339.246,341.739,343.989,344.838,347.574,350.814,355.043,359.786,363.53,366.265,369.001,371.737,376.479,381.222,383.472,384.321,391.557,395.787,398.522,402.752,405.488,407.738,408.587,413.33,418.073,420.808,425.551,429.781,433.524,435.774,436.624,440.853,444.093,448.323,450.573,451.422,454.158,458.901,463.13,465.38,466.23,469.469,474.212,478.442,483.184,486.928,489.178,490.027,494.77,498.01,500.26,501.109,503.845,508.587,511.323,515.553,520.296,524.039,526.775,531.518" svgx:width="0.56,0.33,0.44,0.39,0.44,0.5,0.28,0.28,0.5,0.25,0.25,0.55,0.28,0.33,0.44,0.5,0.39,0.28,0.28,0.28,0.5,0.5,0.25,0.55,0.78,0.44,0.28,0.44,0.28,0.25,0.55,0.5,0.5,0.28,0.5,0.44,0.39,0.25,0.55,0.44,0.33,0.44,0.25,0.55,0.28,0.5,0.44,0.25,0.55,0.33,0.5,0.44,0.5,0.39,0.25,0.55,0.5,0.33,0.25,0.55,0.28,0.5,0.28,0.44,0.5,0.39,0.28,0.5,0.44" style="fill:rgb(0,0,0);font-family:TimesNewRomanWGL;font-size:9.0px;stroke:none;">Presently, transition metal oxides are the focus of intensive</text>
   <text y="645.0" x="303.6,307.634,310.677,313.721,318.267,321.311,323.85,327.398,329.811,332.854,337.401,340.444,342.857,348.394,351.437,357.478,359.891,363.924,368.471,373.018,377.564,381.598,384.011,391.05,395.084,397.623,401.657,404.7,407.24,411.273,413.813,417.36,419.773,424.32,428.866,432.9,435.313,437.853,442.399,444.812,447.352,451.898,455.932,458.471,461.515,463.928,466.971,471.005,478.044,482.078,485.121,489.668,493.701,498.248,500.788,504.821,507.234,510.782,515.328,519.362,523.395,525.935,528.978,531.518" svgx:width="0.44,0.33,0.33,0.5,0.33,0.28,0.39,0.25,0.33,0.5,0.33,0.25,0.61,0.33,0.67,0.25,0.44,0.5,0.5,0.5,0.44,0.25,0.78,0.44,0.28,0.44,0.33,0.28,0.44,0.28,0.39,0.25,0.5,0.5,0.44,0.25,0.28,0.5,0.25,0.28,0.5,0.44,0.28,0.33,0.25,0.33,0.44,0.78,0.44,0.33,0.5,0.44,0.5,0.28,0.44,0.25,0.39,0.5,0.44,0.44,0.28,0.33,0.28,0.44" style="fill:rgb(0,0,0);font-family:TimesNewRomanWGL;font-size:9.0px;stroke:none;">efforts for LIB anode materials due to their remarkable specific</text>
   <text y="658.0" x="303.6,307.887,312.173,316.973,321.259,325.546,328.338,331.131,335.93,338.48,340.73,341.778,344.571,349.37,356.168,358.418,359.466,363.753,368.552,372.353,375.145,377.395,378.444,382.73,387.53,392.329,394.579,395.627,399.914,404.714,409.513,412.306,415.602,420.402,425.201,432.494,436.78,441.58,444.372,448.659,451.451,453.701,454.75,459.036,463.836,471.128,475.928,480.214,483.007,485.799,490.599,493.392,496.184,498.977,501.769,506.569,508.819,509.867,513.164,517.963,521.26,526.059,530.859,534.155" svgx:width="0.44,0.44,0.5,0.44,0.44,0.28,0.28,0.5,0.25,0.25,0.55,0.28,0.5,0.72,0.25,0.55,0.44,0.5,0.39,0.28,0.25,0.55,0.44,0.5,0.5,0.25,0.55,0.44,0.5,0.5,0.28,0.33,0.5,0.5,0.78,0.44,0.5,0.28,0.44,0.28,0.25,0.55,0.44,0.5,0.78,0.5,0.44,0.28,0.28,0.5,0.28,0.28,0.28,0.28,0.5,0.25,0.55,0.33,0.5,0.33,0.5,0.5,0.33,0.25" style="fill:rgb(0,0,0);font-family:TimesNewRomanWGL;font-size:9.0px;stroke:none;">capacity, low cost and environmental compatibility [6-11].</text>
   <text y="671.0" x="303.6,311.643,315.671,320.213,324.754,328.783,333.324,337.353,340.895,344.924,347.319,351.861,356.403,358.937,363.479,367.507,369.903,372.941,380.984,385.525,392.065,395.103,397.499,400.033,403.576,405.971,410.0,412.395,416.937,420.965,424.004,426.539,429.073,433.102,437.643,440.178,444.206,447.245,449.779,454.321,456.716,461.258,465.8,470.341,474.883,477.278,481.307,485.848,490.39,492.924,496.953,500.981,503.377,507.918,514.458,516.992,521.534,526.076,528.471,531.006" svgx:width="0.89,0.44,0.5,0.5,0.44,0.5,0.44,0.39,0.44,0.25,0.5,0.5,0.28,0.5,0.44,0.25,0.33,0.89,0.5,0.72,0.33,0.25,0.28,0.39,0.25,0.44,0.25,0.5,0.44,0.33,0.28,0.28,0.44,0.5,0.28,0.44,0.33,0.28,0.5,0.25,0.5,0.5,0.5,0.5,0.25,0.44,0.5,0.5,0.28,0.44,0.44,0.25,0.5,0.72,0.28,0.5,0.5,0.25,0.28,0.5" style="fill:rgb(0,0,0);font-family:TimesNewRomanWGL;font-size:9.0px;stroke:none;">Manganese oxide (MnO) is a particularly good choice owing to</text>
   <text y="684.0" x="303.6,306.401,309.202,313.011,315.261,316.34,321.148,323.949,328.757,333.565,335.815,336.894,339.695,344.503,348.798,353.606,356.911,361.207,364.008,366.809,371.104,375.399,378.2,380.45,381.529,385.338,390.146,394.441,398.736,401.537,404.843,407.644,411.939,414.189,415.267,419.562,423.858,428.666,432.961,437.256,440.057,442.858,447.666,449.916,450.995,455.803,459.108,461.358,462.436,467.245,472.053,476.861,479.111,480.189,487.49,494.297,499.105,501.355,502.433" svgx:width="0.28,0.28,0.39,0.25,0.55,0.5,0.28,0.5,0.5,0.25,0.55,0.28,0.5,0.44,0.5,0.33,0.44,0.28,0.28,0.44,0.44,0.28,0.25,0.55,0.39,0.5,0.44,0.44,0.28,0.33,0.28,0.44,0.25,0.55,0.44,0.44,0.5,0.44,0.44,0.28,0.28,0.5,0.25,0.55,0.5,0.33,0.25,0.55,0.5,0.5,0.5,0.25,0.55,0.78,0.72,0.5,0.25,0.55,0.5" style="fill:rgb(0,0,0);font-family:TimesNewRomanWGL;font-size:9.0px;stroke:none;">its high theoretical specific capacity of 755 mAh g</text>
   <text y="680.85" x="507.241,511.603" svgx:width="0.56,0.5" style="fill:rgb(0,0,0);font-family:TimesNewRomanWGL;font-size:7.2px;stroke:none;">−1</text>
   <text y="684.0" x="515.511,518.069,520.319,521.398,524.199,529.007" svgx:width="0.25,0.25,0.55,0.28,0.5,0.72" style="fill:rgb(0,0,0);font-family:TimesNewRomanWGL;font-size:9.0px;stroke:none;">, low</text>
   <text y="697.0" x="303.6,307.841,312.594,317.348,322.102,326.343,329.593,333.348,336.095,340.849,345.602,347.852,348.74,353.494,358.248,360.995,365.235,369.989,372.736,375.482,379.723,382.47,384.72,385.608,389.849,394.602,399.356,401.606,402.494,406.249,413.496,417.736,420.483,423.23,425.48,426.368,431.122,435.875,438.622,441.369,445.61,450.363,454.604,456.854,457.742,462.496,467.249,471.004,473.751,477.992,481.242,485.483,489.238,491.985,495.739,497.989,498.877,502.128,506.882,509.386,514.139,518.893,521.397,526.15,530.904,534.155" svgx:width="0.44,0.5,0.5,0.5,0.44,0.33,0.39,0.28,0.5,0.5,0.25,0.55,0.5,0.5,0.28,0.44,0.5,0.28,0.28,0.44,0.28,0.25,0.55,0.44,0.5,0.5,0.25,0.55,0.39,0.78,0.44,0.28,0.28,0.25,0.55,0.5,0.5,0.28,0.28,0.44,0.5,0.44,0.25,0.55,0.5,0.5,0.39,0.28,0.44,0.33,0.44,0.39,0.28,0.39,0.25,0.55,0.33,0.5,0.25,0.5,0.5,0.25,0.5,0.5,0.33,0.25" style="fill:rgb(0,0,0);font-family:TimesNewRomanWGL;font-size:9.0px;stroke:none;">conversion potential and small voltage hysteresis [8,12,13].</text>
   <text y="710.0" x="303.6,310.196,314.794,321.39,325.475,330.072,334.157,337.252,339.6,342.193,346.278,349.877,352.469,356.554,359.147,361.738,366.335,370.933,373.524,377.609,381.694,384.285,386.878,391.475,395.56,398.655,403.253,407.851,411.45,416.048,418.639,421.23,425.314,427.907,431.506,435.591,442.682,445.273,449.358,453.955,458.553,463.151,467.749,471.834,474.425,479.023,482.118,484.466,487.058,495.157,499.755,506.351,508.944,513.541,517.14,521.738,525.823,528.414,531.005" svgx:width="0.72,0.5,0.72,0.44,0.5,0.44,0.33,0.25,0.25,0.44,0.39,0.25,0.44,0.25,0.28,0.5,0.5,0.28,0.44,0.44,0.28,0.25,0.5,0.44,0.33,0.5,0.5,0.39,0.5,0.28,0.28,0.44,0.25,0.39,0.44,0.78,0.28,0.44,0.5,0.5,0.5,0.5,0.44,0.28,0.5,0.33,0.25,0.25,0.89,0.5,0.72,0.25,0.5,0.39,0.5,0.44,0.28,0.28,0.5" style="fill:rgb(0,0,0);font-family:TimesNewRomanWGL;font-size:9.0px;stroke:none;">However, as a typical perovskite semiconductor, MnO usually</text>
   <text y="723.0" x="303.6,307.171,311.74,314.807,317.874,321.931,324.997,328.568,331.062,333.625,338.194,342.764,346.821,349.887,353.944,358.514,361.077,363.639,368.209,370.703,375.273,379.842,384.412,387.479,389.973,394.029,398.599,403.169,407.739,412.308,416.365,418.928,421.49,426.06,428.623,431.185,435.755,438.249,442.306,446.876,451.445,453.939,457.51,461.567,466.136,470.193,473.26,477.316,479.81,484.38,488.95,491.513,496.082,503.145,507.202,509.696,513.752,518.322,522.379,526.948,531.518" svgx:width="0.39,0.5,0.33,0.33,0.44,0.33,0.39,0.25,0.28,0.5,0.5,0.44,0.33,0.44,0.5,0.28,0.28,0.5,0.25,0.5,0.5,0.5,0.33,0.25,0.44,0.5,0.5,0.5,0.5,0.44,0.28,0.28,0.5,0.28,0.28,0.5,0.25,0.44,0.5,0.5,0.25,0.39,0.44,0.5,0.44,0.33,0.44,0.25,0.5,0.5,0.28,0.5,0.78,0.44,0.25,0.44,0.5,0.44,0.5,0.5,0.44" style="fill:rgb(0,0,0);font-family:TimesNewRomanWGL;font-size:9.0px;stroke:none;">suffers inherently poor conductivity and severe volume change</text>
   <text y="736.0" x="303.6,308.356,313.112,316.366,319.115,323.871,328.627,330.877,331.774,337.52" svgx:width="0.5,0.5,0.33,0.28,0.5,0.5,0.25,0.55,0.61,0.28" style="fill:rgb(0,0,0);font-family:TimesNewRomanWGL;font-size:9.0px;stroke:none;">during Li</text>
   <text y="732.85" x="340.269" svgx:width="0.56" style="fill:rgb(0,0,0);font-family:TimesNewRomanWGL;font-size:7.2px;stroke:none;">+</text>
   <text y="736.0" x="344.579,346.829,347.726,350.475,355.231,358.989,363.232,366.485,369.234,371.983,376.74,381.496,384.245,388.488,393.244,395.994,399.247,403.49,407.733,410.482,413.232,417.988,422.744,425.25,427.5,428.397,435.151,439.907,442.657,446.9,451.656,453.906,454.803,459.046,463.289,468.045,470.295,471.192,474.949,479.193,482.446,485.195,489.951,494.707,498.465,501.214,505.97,508.22,509.117,511.866,516.109,520.352,525.109,527.359,528.255,531.005" svgx:width="0.25,0.55,0.28,0.5,0.39,0.44,0.33,0.28,0.28,0.5,0.5,0.28,0.44,0.5,0.28,0.33,0.44,0.44,0.28,0.28,0.5,0.5,0.25,0.25,0.55,0.72,0.5,0.28,0.44,0.5,0.25,0.55,0.44,0.44,0.5,0.25,0.55,0.39,0.44,0.33,0.28,0.5,0.5,0.39,0.28,0.5,0.25,0.55,0.28,0.44,0.44,0.5,0.25,0.55,0.28,0.5" style="fill:rgb(0,0,0);font-family:TimesNewRomanWGL;font-size:9.0px;stroke:none;"> insertion/extraction, which can seriously lead to</text>
   <text y="749.0" x="303.6,307.622,311.643,316.178,320.199,324.221,326.748,329.276,333.81,336.181,339.213,343.234,347.769,350.296,354.831,359.365,361.736,365.758,370.292,374.827,377.198,380.229,384.764,387.796,390.323,394.858,398.879,401.911,404.282,406.809,409.337,416.364,418.892,421.419,423.79,426.318,428.845,432.381,434.752,438.773,443.308,447.842,450.37,452.897,456.919,460.941,463.468,465.996,470.53,475.065,477.436,480.467,485.002,487.286,491.821,494.105,498.64,501.671,503.956,506.327,511.851,516.386,520.407,524.942,529.477,532.508" svgx:width="0.44,0.44,0.5,0.44,0.44,0.28,0.28,0.5,0.25,0.33,0.44,0.5,0.28,0.5,0.5,0.25,0.44,0.5,0.5,0.25,0.33,0.5,0.33,0.28,0.5,0.44,0.33,0.25,0.28,0.28,0.78,0.28,0.28,0.25,0.28,0.28,0.39,0.25,0.44,0.5,0.5,0.28,0.28,0.44,0.44,0.28,0.28,0.5,0.5,0.25,0.33,0.5,0.25,0.5,0.25,0.5,0.33,0.25,0.25,0.61,0.5,0.44,0.5,0.5,0.33,0.33" style="fill:rgb(0,0,0);font-family:TimesNewRomanWGL;font-size:9.0px;stroke:none;">capacity fading and further limit its application [4,5,8]. Encour-</text>
   <text y="762.0" x="303.6,307.627,312.168,314.701,319.241,323.781,326.314,330.855,333.145,335.536,341.066,343.599,348.14,350.53,354.558,357.091,359.482,363.509,366.042,368.332,370.723,373.761,377.788,382.328,386.868,389.906,392.439,396.466,401.006,403.397,407.424,409.815,414.355,416.889,421.429,425.969,428.36,432.387,436.415,440.955,444.982,449.009,451.543,454.076,458.616,461.007,465.547,468.584,470.975,475.515,480.056,484.596,486.886,491.426,493.817,500.85,507.389,511.929,514.32" svgx:width="0.44,0.5,0.28,0.5,0.5,0.28,0.5,0.25,0.25,0.61,0.28,0.5,0.25,0.44,0.28,0.25,0.44,0.28,0.25,0.25,0.33,0.44,0.5,0.5,0.33,0.28,0.44,0.5,0.25,0.44,0.25,0.5,0.28,0.5,0.5,0.25,0.44,0.44,0.5,0.44,0.44,0.28,0.28,0.5,0.25,0.5,0.33,0.25,0.5,0.5,0.5,0.25,0.5,0.25,0.78,0.72,0.5,0.25,0.5" style="fill:rgb(0,0,0);font-family:TimesNewRomanWGL;font-size:9.0px;stroke:none;">agingly, Liu et al. reported a high capacity of 797.6 mAh g</text>
   <text y="758.85" x="518.86,522.954" svgx:width="0.56,0.5" style="fill:rgb(0,0,0);font-family:TimesNewRomanWGL;font-size:7.2px;stroke:none;">−1</text>
   <text y="762.0" x="526.594,528.985,533.012" svgx:width="0.25,0.44,0.28" style="fill:rgb(0,0,0);font-family:TimesNewRomanWGL;font-size:9.0px;stroke:none;"> at</text>
  </g>
 </g>
</svg>
