<?xml version="1.0" encoding="UTF-8"?>
<svg height="802.1" width="546.405" xmlns="http://www.w3.org/2000/svg">
 <g id="page" xmlns:svgx="http://www.xml-cml.org/schema/svgx">
  <g begin="text"/>
  <g begin="text">
   <text y="73.23" x="390.39,395.052,398.944,400.498,402.052,405.552,407.491,411.383,412.937,416.829,418.768,422.268,424.207,426.146,431.2,435.092,438.984,442.876,444.815,448.707,452.207,456.099,459.991,463.883,465.437" svgx:width="0.67,0.56,0.22,0.22,0.5,0.28,0.56,0.22,0.56,0.28,0.5,0.28,0.28,0.72,0.56,0.56,0.56,0.28,0.56,0.5,0.56,0.56,0.56,0.22,0.28" style="fill:rgb(0,0,0);font-family:ArialMT-Italic;font-size:7.0px;stroke:none;">Beilstein J. Nanotechnol.</text>
   <text y="73.23" x="467.376" svgx:width="0.28" style="fill:rgb(0,0,0);font-family:ArialMT-Regular;font-size:7.0px;stroke:none;"> </text>
   <text y="73.23" x="469.315,473.207,477.099,480.991,484.883" svgx:width="0.56,0.56,0.56,0.56,0.28" style="fill:rgb(0,0,0);font-family:ArialMT-Bold;font-size:7.0px;stroke:none;">2016,</text>
   <text y="73.23" x="486.822" svgx:width="0.28" style="fill:rgb(0,0,0);font-family:ArialMT-Regular;font-size:7.0px;stroke:none;"> </text>
   <text y="73.23" x="488.761,492.653" svgx:width="0.56,0.28" style="fill:rgb(0,0,0);font-family:ArialMT-Italic;font-size:7.0px;stroke:none;">7,</text>
   <text y="73.23" x="494.592,496.531,500.423,504.315,508.207,512.099,515.991,519.883,523.775,527.667,531.559" svgx:width="0.28,0.56,0.56,0.56,0.56,0.56,0.56,0.56,0.56,0.56,0.28" style="fill:rgb(0,0,0);font-family:ArialMT-Regular;font-size:7.0px;stroke:none;"> 1289–1295.</text>
  </g>
  <g begin="text">
   <text y="792.1" x="517.93,521.822,525.714,529.606" svgx:width="0.56,0.56,0.56,0.56" style="fill:rgb(0,0,0);font-family:ArialMT-Regular;font-size:7.0px;stroke:none;">1293</text>
  </g>
  <path style="fill:none;stroke:rgb(218,218,218);stroke-width:1.0;" d="M59.500 470.050 L535.500 470.050 "/>
  <path style="fill:none;stroke:rgb(218,218,218);stroke-width:0.5;" d="M535.250 469.800 L535.250 486.840 "/>
  <path style="fill:none;stroke:rgb(218,218,218);stroke-width:0.5;" d="M59.750 469.800 L59.750 486.840 "/>
  <path style="fill:none;stroke:rgb(218,218,218);stroke-width:0.5;" d="M535.250 486.840 L535.250 492.840 "/>
  <path style="fill:none;stroke:rgb(218,218,218);stroke-width:0.5;" d="M59.750 486.840 L59.750 492.840 "/>
  <path style="fill:none;stroke:rgb(218,218,218);stroke-width:0.5;" d="M59.750 492.840 L59.750 523.050 "/>
  <path style="fill:none;stroke:rgb(218,218,218);stroke-width:0.5;" d="M535.250 492.840 L535.250 523.050 "/>
  <path style="fill:none;stroke:rgb(218,218,218);stroke-width:0.5;" d="M59.750 523.050 L59.750 528.650 "/>
  <path style="fill:none;stroke:rgb(156,156,156);stroke-width:0.5;" d="M529.530 528.400 L65.470 528.400 "/>
  <path style="fill:none;stroke:rgb(218,218,218);stroke-width:0.5;" d="M535.250 523.050 L535.250 528.650 "/>
  <path style="fill:none;stroke:rgb(218,218,218);stroke-width:0.5;" d="M59.750 528.650 L59.750 552.660 "/>
  <path style="fill:none;stroke:rgb(218,218,218);stroke-width:0.5;" d="M535.250 528.650 L535.250 552.660 "/>
  <path style="fill:none;stroke:rgb(218,218,218);stroke-width:0.5;" d="M59.750 552.660 L59.750 564.470 "/>
  <path style="fill:none;stroke:rgb(218,218,218);stroke-width:0.5;" d="M535.250 552.660 L535.250 564.470 "/>
  <path style="fill:none;stroke:rgb(218,218,218);stroke-width:0.5;" d="M59.750 564.470 L59.750 585.470 "/>
  <path style="fill:none;stroke:rgb(218,218,218);stroke-width:0.5;" d="M535.250 564.470 L535.250 585.470 "/>
  <path style="fill:none;stroke:rgb(218,218,218);stroke-width:0.5;" d="M59.750 585.470 L59.750 606.480 "/>
  <path style="fill:none;stroke:rgb(218,218,218);stroke-width:0.5;" d="M535.250 585.470 L535.250 606.480 "/>
  <path style="fill:none;stroke:rgb(218,218,218);stroke-width:0.5;" d="M59.750 606.480 L59.750 627.490 "/>
  <path style="fill:none;stroke:rgb(218,218,218);stroke-width:0.5;" d="M535.250 606.480 L535.250 627.490 "/>
  <path style="fill:none;stroke:rgb(218,218,218);stroke-width:0.5;" d="M59.750 627.490 L59.750 648.500 "/>
  <path style="fill:none;stroke:rgb(218,218,218);stroke-width:0.5;" d="M535.250 627.490 L535.250 648.500 "/>
  <path style="fill:none;stroke:rgb(218,218,218);stroke-width:0.5;" d="M59.750 648.500 L59.750 669.510 "/>
  <path style="fill:none;stroke:rgb(218,218,218);stroke-width:0.5;" d="M535.250 648.500 L535.250 669.510 "/>
  <path style="fill:none;stroke:rgb(218,218,218);stroke-width:0.5;" d="M59.750 669.510 L59.750 690.520 "/>
  <path style="fill:none;stroke:rgb(218,218,218);stroke-width:0.5;" d="M535.250 669.510 L535.250 690.520 "/>
  <path style="fill:none;stroke:rgb(218,218,218);stroke-width:0.5;" d="M59.750 690.520 L59.750 711.530 "/>
  <path style="fill:none;stroke:rgb(218,218,218);stroke-width:0.5;" d="M535.250 690.520 L535.250 711.530 "/>
  <path style="fill:none;stroke:rgb(218,218,218);stroke-width:0.5;" d="M59.750 711.530 L59.750 732.540 "/>
  <path style="fill:none;stroke:rgb(218,218,218);stroke-width:0.5;" d="M535.250 711.530 L535.250 732.540 "/>
  <path style="fill:none;stroke:rgb(218,218,218);stroke-width:0.5;" d="M59.750 732.540 L59.750 744.350 "/>
  <path style="fill:none;stroke:rgb(218,218,218);stroke-width:0.5;" d="M535.250 732.540 L535.250 744.350 "/>
  <path style="fill:none;stroke:rgb(218,218,218);stroke-width:0.5;" d="M59.750 744.350 L59.750 756.160 "/>
  <path style="fill:none;stroke:rgb(218,218,218);stroke-width:0.5;" d="M535.250 744.350 L535.250 756.160 "/>
  <path style="fill:none;stroke:rgb(218,218,218);stroke-width:0.5;" d="M535.250 756.160 L535.250 763.000 "/>
  <path style="fill:none;stroke:rgb(218,218,218);stroke-width:0.5;" d="M59.750 756.160 L59.750 763.000 "/>
  <path style="fill:none;stroke:rgb(218,218,218);stroke-width:0.5;" d="M535.500 762.750 L59.500 762.750 "/>
  <g begin="text">
   <text y="480.87" x="65.47,69.74,73.632,77.902,79.841,83.733,85.672,89.564,91.895" svgx:width="0.61,0.56,0.61,0.28,0.56,0.28,0.56,0.33,0.28" style="fill:rgb(0,0,0);font-family:ArialMT-Bold;font-size:7.0px;stroke:none;">Table 1: </text>
   <text y="480.87" x="93.834,97.726,99.28,101.219,105.111,106.665,110.557,116.388,118.327,121.827,123.766,127.658,129.989,133.881,137.773,141.665,143.604,147.496,151.388,153.719,155.658,159.55,161.881,167.712,171.604,175.496,178.996,182.888,184.827,188.719,190.658,192.597,196.097,199.989,205.82,209.712,211.651,215.151,219.043,224.874,228.766,232.658,234.989,238.881,242.773,244.327,248.219,250.158,255.989,259.881,265.32,269.212,274.266,276.597,280.097,283.989,289.82,293.712,297.604,301.104,302.658,304.597,308.489,310.82,314.712,318.604,322.104,325.996,329.888,331.827,335.719,339.611,343.503,347.395,351.287,354.787,356.726,358.665,362.557,364.888,366.827,368.381,369.935,371.874,375.766,377.32,381.212,387.043,389.374,390.928,394.82,398.712,400.651,404.543,408.435,410.374,412.313,416.205,418.536,420.09,423.982,427.482,429.421,431.752,435.644,437.583,442.245,445.745,448.076" svgx:width="0.56,0.22,0.28,0.56,0.22,0.56,0.83,0.28,0.5,0.28,0.56,0.33,0.56,0.56,0.56,0.28,0.56,0.56,0.33,0.28,0.56,0.33,0.83,0.56,0.56,0.5,0.56,0.28,0.56,0.28,0.28,0.5,0.56,0.83,0.56,0.28,0.5,0.56,0.83,0.56,0.56,0.33,0.56,0.56,0.22,0.56,0.28,0.83,0.56,0.78,0.56,0.72,0.33,0.5,0.56,0.83,0.56,0.56,0.5,0.22,0.28,0.56,0.33,0.56,0.56,0.5,0.56,0.56,0.28,0.56,0.56,0.56,0.56,0.56,0.5,0.28,0.28,0.56,0.33,0.28,0.22,0.22,0.28,0.56,0.22,0.56,0.83,0.33,0.22,0.56,0.56,0.28,0.56,0.56,0.28,0.28,0.56,0.33,0.22,0.56,0.5,0.28,0.33,0.56,0.28,0.67,0.5,0.33,0.28" style="fill:rgb(0,0,0);font-family:ArialMT-Regular;font-size:7.0px;stroke:none;">Lithium storage performance of some comparable MnO–C-composite-based anodes for lithium-ion batteries (LIBs).</text>
  </g>
  <g begin="text">
   <text y="501.65" x="68.47,73.785,78.222,84.869,89.306,91.077" svgx:width="0.67,0.56,0.83,0.56,0.22,0.56" style="fill:rgb(0,0,0);font-family:ArialMT-Regular;font-size:7.98px;stroke:none;">Sample</text>
  </g>
  <g begin="text">
   <text y="501.65" x="220.06,225.375,228.032,232.469,236.906,241.343,244.0,248.437,250.647,252.419,256.856,261.293,263.503,267.493,269.704,272.361,276.798,279.008,283.445,287.882" svgx:width="0.67,0.33,0.56,0.56,0.56,0.33,0.56,0.28,0.22,0.56,0.56,0.28,0.5,0.28,0.33,0.56,0.28,0.56,0.56,0.5" style="fill:rgb(0,0,0);font-family:ArialMT-Regular;font-size:7.98px;stroke:none;">Preparation strategy</text>
  </g>
  <g begin="text">
   <text y="501.65" x="363.92,368.357,370.567,375.882,378.092,382.529,384.301,388.738,392.728,394.938,397.596,402.032,406.469" svgx:width="0.56,0.28,0.67,0.28,0.56,0.22,0.56,0.5,0.28,0.33,0.56,0.56,0.56" style="fill:rgb(0,0,0);font-family:ArialMT-Regular;font-size:7.98px;stroke:none;">LIB electrode</text>
  </g>
  <g begin="text">
   <text y="501.65" x="418.06,423.822,428.258,432.695,437.132,441.122,442.894,445.104" svgx:width="0.72,0.56,0.56,0.56,0.5,0.22,0.28,0.5" style="fill:rgb(0,0,0);font-family:ArialMT-Regular;font-size:7.98px;stroke:none;">Capacity</text>
   <text y="510.85" x="418.06,422.05,424.26,428.697,433.134,434.906,436.677,438.449,440.659" svgx:width="0.5,0.28,0.56,0.56,0.22,0.22,0.22,0.28,0.5" style="fill:rgb(0,0,0);font-family:ArialMT-Regular;font-size:7.98px;stroke:none;">stability</text>
   <text y="520.05" x="418.06,420.717,427.365,432.679,437.116,439.327" svgx:width="0.33,0.83,0.67,0.56,0.28,0.56" style="fill:rgb(0,0,0);font-family:ArialMT-Regular;font-size:7.98px;stroke:none;">(mAh g</text>
   <text y="517.26" x="443.764,447.483" svgx:width="0.58,0.56" style="fill:rgb(0,0,0);font-family:ArialMT-Regular;font-size:6.38px;stroke:none;">−1</text>
   <text y="520.05" x="451.03" svgx:width="0.33" style="fill:rgb(0,0,0);font-family:ArialMT-Regular;font-size:7.98px;stroke:none;">)</text>
  </g>
  <g begin="text">
   <text y="501.65" x="459.83,465.592,469.582,473.572,475.343" svgx:width="0.72,0.5,0.5,0.22,0.56" style="fill:rgb(0,0,0);font-family:ArialMT-Regular;font-size:7.98px;stroke:none;">Cycle</text>
   <text y="510.85" x="459.83,464.267,468.704,475.351,479.788,484.225" svgx:width="0.56,0.56,0.83,0.56,0.56,0.33" style="fill:rgb(0,0,0);font-family:ArialMT-Regular;font-size:7.98px;stroke:none;">number</text>
  </g>
  <g begin="text">
   <text y="501.65" x="493.86,499.622,504.058,506.716,509.373,513.81,518.247" svgx:width="0.72,0.56,0.33,0.33,0.56,0.56,0.28" style="fill:rgb(0,0,0);font-family:ArialMT-Regular;font-size:7.98px;stroke:none;">Current</text>
   <text y="510.85" x="493.86,498.297,502.734,507.171,511.161,512.932,515.143" svgx:width="0.56,0.56,0.56,0.5,0.22,0.28,0.5" style="fill:rgb(0,0,0);font-family:ArialMT-Regular;font-size:7.98px;stroke:none;">density</text>
   <text y="520.05" x="493.86,496.517,503.165,508.479,510.69" svgx:width="0.33,0.83,0.67,0.28,0.56" style="fill:rgb(0,0,0);font-family:ArialMT-Regular;font-size:7.98px;stroke:none;">(mA g</text>
   <text y="517.26" x="515.127,518.846" svgx:width="0.58,0.56" style="fill:rgb(0,0,0);font-family:ArialMT-Regular;font-size:6.38px;stroke:none;">−1</text>
   <text y="520.05" x="522.393" svgx:width="0.33" style="fill:rgb(0,0,0);font-family:ArialMT-Regular;font-size:7.98px;stroke:none;">)</text>
  </g>
  <g begin="text">
   <text y="540.46" x="68.47,74.232,78.668,83.105,87.095,88.867,93.304,95.075,97.286,103.933,108.37,114.57,116.781,122.542,125.2,129.637,134.074,138.51,142.947,147.384,149.595,155.356,157.567,162.004,166.44,170.877,175.314,177.972,182.408,186.845,190.835,193.046,195.256,199.693" svgx:width="0.72,0.56,0.56,0.5,0.22,0.56,0.22,0.28,0.83,0.56,0.78,0.28,0.72,0.33,0.56,0.56,0.56,0.56,0.56,0.28,0.72,0.28,0.56,0.56,0.56,0.56,0.33,0.56,0.56,0.5,0.28,0.28,0.56,0.28" style="fill:rgb(0,0,0);font-family:ArialMT-Regular;font-size:7.98px;stroke:none;">Coaxial MnO/N-doped C nanorods [4]</text>
  </g>
  <g begin="text">
   <text y="540.46" x="220.06,224.497,228.487,232.924,235.581,240.018,242.228,246.665,251.102,253.76,260.407,264.844,266.615,268.826,276.806,279.016,283.453,287.89,289.662,293.652,300.299,304.736,307.393,309.165,313.155,317.592,319.802,321.574,326.01,330.447,332.658" svgx:width="0.56,0.5,0.56,0.33,0.56,0.28,0.56,0.56,0.33,0.83,0.56,0.22,0.28,1.0,0.28,0.56,0.56,0.22,0.5,0.83,0.56,0.33,0.22,0.5,0.56,0.28,0.22,0.56,0.56,0.28,1.0" style="fill:rgb(0,0,0);font-family:ArialMT-Regular;font-size:7.98px;stroke:none;">hydrothermal → polymerization →</text>
   <text y="549.66" x="220.06,224.497,228.934,233.371,235.581,237.792,240.002,242.659,247.096,251.533,253.744,260.391,264.828,269.265,271.475,273.686,275.457,279.894,282.104,287.419,290.076,292.287" svgx:width="0.56,0.56,0.56,0.28,0.28,0.28,0.33,0.56,0.56,0.28,0.83,0.56,0.56,0.28,0.28,0.22,0.56,0.28,0.67,0.33,0.28,0.72" style="fill:rgb(0,0,0);font-family:ArialMT-Regular;font-size:7.98px;stroke:none;">heat treatment in Ar/H</text>
   <text y="551.26" x="298.048" svgx:width="0.56" style="fill:rgb(0,0,0);font-family:ArialMT-Regular;font-size:6.38px;stroke:none;">2</text>
  </g>
  <g begin="text">
   <text y="540.46" x="363.92,367.91,369.682,374.118,376.776,379.433,383.423,385.634,389.624,394.06,398.497,400.708,402.479,406.916" svgx:width="0.5,0.22,0.56,0.33,0.33,0.5,0.28,0.5,0.56,0.56,0.28,0.22,0.56,0.56" style="fill:rgb(0,0,0);font-family:ArialMT-Regular;font-size:7.98px;stroke:none;">slurry coating</text>
  </g>
  <g begin="text">
   <text y="540.46" x="418.06,422.497,426.934" svgx:width="0.56,0.56,0.56" style="fill:rgb(0,0,0);font-family:ArialMT-Regular;font-size:7.98px;stroke:none;">982</text>
  </g>
  <g begin="text">
   <text y="540.46" x="459.83,464.267,468.704" svgx:width="0.56,0.56,0.56" style="fill:rgb(0,0,0);font-family:ArialMT-Regular;font-size:7.98px;stroke:none;">100</text>
  </g>
  <g begin="text">
   <text y="540.46" x="493.86,498.297,502.734" svgx:width="0.56,0.56,0.56" style="fill:rgb(0,0,0);font-family:ArialMT-Regular;font-size:7.98px;stroke:none;">500</text>
  </g>
  <g begin="text">
   <text y="561.47" x="68.47,75.117,79.554,85.755,90.192,95.953,98.164,102.6,106.59,111.027,113.685,115.456,119.893,122.104,126.54,130.977,135.414,139.851,142.062,143.833,148.27,152.707,155.364,159.354,161.565,163.775,168.212" svgx:width="0.83,0.56,0.78,0.56,0.72,0.28,0.56,0.5,0.56,0.33,0.22,0.56,0.28,0.56,0.56,0.56,0.56,0.28,0.22,0.56,0.56,0.33,0.5,0.28,0.28,0.56,0.28" style="fill:rgb(0,0,0);font-family:ArialMT-Regular;font-size:7.98px;stroke:none;">MnO–C hybrid nanofibers [5]</text>
  </g>
  <g begin="text">
   <text y="561.47" x="220.06,224.497,226.268,230.705,234.695,236.906,239.563,244.0,247.99,252.427,254.198,258.635,263.072,264.844,269.281,273.718,275.928,283.908,286.118,290.555,294.992,299.429,301.64,303.85,306.06,308.718,313.155,317.592,319.802,326.449,330.886,335.323,337.534,339.744,341.516,345.952,348.163,353.478" svgx:width="0.56,0.22,0.56,0.5,0.28,0.33,0.56,0.5,0.56,0.22,0.56,0.56,0.22,0.56,0.56,0.28,1.0,0.28,0.56,0.56,0.56,0.28,0.28,0.28,0.33,0.56,0.56,0.28,0.83,0.56,0.56,0.28,0.28,0.22,0.56,0.28,0.67,0.33" style="fill:rgb(0,0,0);font-family:ArialMT-Regular;font-size:7.98px;stroke:none;">electrospinning → heat treatment in Ar</text>
  </g>
  <g begin="text">
   <text y="561.47" x="363.92,366.13,368.788,373.225,377.662,381.652,383.862,388.299,392.736,397.173,398.944,403.381" svgx:width="0.28,0.33,0.56,0.56,0.5,0.28,0.56,0.56,0.56,0.22,0.56,0.56" style="fill:rgb(0,0,0);font-family:ArialMT-Regular;font-size:7.98px;stroke:none;">freestanding</text>
  </g>
  <g begin="text">
   <text y="561.47" x="418.06,422.497,426.934" svgx:width="0.56,0.56,0.56" style="fill:rgb(0,0,0);font-family:ArialMT-Regular;font-size:7.98px;stroke:none;">398</text>
  </g>
  <g begin="text">
   <text y="561.47" x="459.83,464.267,468.704" svgx:width="0.56,0.56,0.56" style="fill:rgb(0,0,0);font-family:ArialMT-Regular;font-size:7.98px;stroke:none;">200</text>
  </g>
  <g begin="text">
   <text y="561.47" x="493.86,498.297,502.734" svgx:width="0.56,0.56,0.56" style="fill:rgb(0,0,0);font-family:ArialMT-Regular;font-size:7.98px;stroke:none;">200</text>
  </g>
  <g begin="text">
   <text y="573.27" x="68.47,75.117,79.554,85.755,90.192,95.953,98.164,102.6,107.037,111.474,115.911,118.122,119.893,124.33,128.767,131.424,133.635,140.282,144.719,151.366,155.803,158.46,162.897,167.334,171.771,175.761,177.972,180.182,184.619,189.056" svgx:width="0.83,0.56,0.78,0.56,0.72,0.28,0.56,0.56,0.56,0.56,0.28,0.22,0.56,0.56,0.33,0.28,0.83,0.56,0.83,0.56,0.33,0.56,0.56,0.56,0.5,0.28,0.28,0.56,0.56,0.28" style="fill:rgb(0,0,0);font-family:ArialMT-Regular;font-size:7.98px;stroke:none;">MnO–C nanofiber membranes [13]</text>
  </g>
  <g begin="text">
   <text y="573.27" x="220.06,224.497,228.487,232.924,235.581,240.018,242.228,246.665,251.102,253.76,260.407,264.844,266.615,268.826,276.806,279.016,283.453,285.225,289.662,293.652,295.862,298.519,302.956,306.946,311.383,313.155,317.592,322.028,323.8,328.237,332.674,334.884" svgx:width="0.56,0.5,0.56,0.33,0.56,0.28,0.56,0.56,0.33,0.83,0.56,0.22,0.28,1.0,0.28,0.56,0.22,0.56,0.5,0.28,0.33,0.56,0.5,0.56,0.22,0.56,0.56,0.22,0.56,0.56,0.28,1.0" style="fill:rgb(0,0,0);font-family:ArialMT-Regular;font-size:7.98px;stroke:none;">hydrothermal → electrospinning →</text>
   <text y="582.47" x="220.06,224.497,228.934,233.371,235.581,237.792,240.002,242.659,247.096,251.533,253.744,260.391,264.828,269.265,271.475,273.686,275.457,279.894,282.104" svgx:width="0.56,0.56,0.56,0.28,0.28,0.28,0.33,0.56,0.56,0.28,0.83,0.56,0.56,0.28,0.28,0.22,0.56,0.28,0.72" style="fill:rgb(0,0,0);font-family:ArialMT-Regular;font-size:7.98px;stroke:none;">heat treatment in N</text>
   <text y="584.07" x="287.866" svgx:width="0.56" style="fill:rgb(0,0,0);font-family:ArialMT-Regular;font-size:6.38px;stroke:none;">2</text>
  </g>
  <g begin="text">
   <text y="573.27" x="363.92,367.91,369.682,374.118,376.776,379.433,383.423,385.634,389.624,394.06,398.497,400.708,402.479,406.916" svgx:width="0.5,0.22,0.56,0.33,0.33,0.5,0.28,0.5,0.56,0.56,0.28,0.22,0.56,0.56" style="fill:rgb(0,0,0);font-family:ArialMT-Regular;font-size:7.98px;stroke:none;">slurry coating</text>
  </g>
  <g begin="text">
   <text y="573.27" x="418.06,422.497,426.934" svgx:width="0.56,0.56,0.56" style="fill:rgb(0,0,0);font-family:ArialMT-Regular;font-size:7.98px;stroke:none;">655</text>
  </g>
  <g begin="text">
   <text y="573.27" x="459.83,464.267,468.704" svgx:width="0.56,0.56,0.56" style="fill:rgb(0,0,0);font-family:ArialMT-Regular;font-size:7.98px;stroke:none;">280</text>
  </g>
  <g begin="text">
   <text y="573.27" x="493.86,498.297,502.734" svgx:width="0.56,0.56,0.56" style="fill:rgb(0,0,0);font-family:ArialMT-Regular;font-size:7.98px;stroke:none;">500</text>
  </g>
  <g begin="text">
   <text y="594.28" x="68.47,75.117,79.554,85.755,87.965,92.402,96.839,101.276,105.713,110.15,114.586,117.244,119.454,121.226,125.216,126.987,131.424,135.414,137.625,139.396,143.833,146.044,151.805,154.016,160.663,162.435,166.425,169.082,173.519,177.509,181.946,186.382,190.819,193.03,197.02,199.23,201.441,205.878,210.315" svgx:width="0.83,0.56,0.78,0.28,0.56,0.56,0.56,0.56,0.56,0.56,0.33,0.28,0.22,0.5,0.22,0.56,0.5,0.28,0.22,0.56,0.28,0.72,0.28,0.83,0.22,0.5,0.33,0.56,0.5,0.56,0.56,0.56,0.28,0.5,0.28,0.28,0.56,0.56,0.28" style="fill:rgb(0,0,0);font-family:ArialMT-Regular;font-size:7.98px;stroke:none;">MnO nanoparticles in C microsheets [14]</text>
  </g>
  <g begin="text">
   <text y="594.28" x="220.06,224.497,228.487,231.144,235.134,236.906,238.677,242.667,244.878,249.315,253.305,255.076,259.513,261.724,265.714,270.15,271.922,276.359,278.569,280.341,284.778,289.215,291.425,299.405,301.616,303.826,306.483,310.92,315.357,319.347,323.784,325.994,330.431,333.089,337.079,338.85,343.287,347.724,349.934" svgx:width="0.56,0.5,0.33,0.5,0.22,0.22,0.5,0.28,0.56,0.5,0.22,0.56,0.28,0.5,0.56,0.22,0.56,0.28,0.22,0.56,0.56,0.28,1.0,0.28,0.28,0.33,0.56,0.56,0.5,0.56,0.28,0.56,0.33,0.5,0.22,0.56,0.56,0.28,1.0" style="fill:rgb(0,0,0);font-family:ArialMT-Regular;font-size:7.98px;stroke:none;">acrylic acid solution → freeze drying →</text>
   <text y="603.48" x="220.06,224.497,228.934,233.371,235.581,237.792,240.002,242.659,247.096,251.533,253.744,260.391,264.828,269.265,271.475,273.686,275.457,279.894,282.104,287.419" svgx:width="0.56,0.56,0.56,0.28,0.28,0.28,0.33,0.56,0.56,0.28,0.83,0.56,0.56,0.28,0.28,0.22,0.56,0.28,0.67,0.33" style="fill:rgb(0,0,0);font-family:ArialMT-Regular;font-size:7.98px;stroke:none;">heat treatment in Ar</text>
  </g>
  <g begin="text">
   <text y="594.28" x="363.92,367.91,369.682,374.118,376.776,379.433,383.423,385.634,389.624,394.06,398.497,400.708,402.479,406.916" svgx:width="0.5,0.22,0.56,0.33,0.33,0.5,0.28,0.5,0.56,0.56,0.28,0.22,0.56,0.56" style="fill:rgb(0,0,0);font-family:ArialMT-Regular;font-size:7.98px;stroke:none;">slurry coating</text>
  </g>
  <g begin="text">
   <text y="594.28" x="418.06,422.497,426.934" svgx:width="0.56,0.56,0.56" style="fill:rgb(0,0,0);font-family:ArialMT-Regular;font-size:7.98px;stroke:none;">798</text>
  </g>
  <g begin="text">
   <text y="594.28" x="459.83,464.267" svgx:width="0.56,0.56" style="fill:rgb(0,0,0);font-family:ArialMT-Regular;font-size:7.98px;stroke:none;">50</text>
  </g>
  <g begin="text">
   <text y="594.28" x="493.86,498.297,502.734" svgx:width="0.56,0.56,0.56" style="fill:rgb(0,0,0);font-family:ArialMT-Regular;font-size:7.98px;stroke:none;">100</text>
  </g>
  <g begin="text">
   <text y="615.29" x="68.47,75.117,79.554,85.755,90.192,95.953,98.164,102.6,107.037,111.474,115.911,120.348,124.785,129.222,133.659,138.096,142.532,146.522,148.733,150.943,155.38,159.817" svgx:width="0.83,0.56,0.78,0.56,0.72,0.28,0.56,0.56,0.56,0.56,0.56,0.56,0.56,0.56,0.56,0.56,0.5,0.28,0.28,0.56,0.56,0.28" style="fill:rgb(0,0,0);font-family:ArialMT-Regular;font-size:7.98px;stroke:none;">MnO–C nanopeapods [16]</text>
  </g>
  <g begin="text">
   <text y="615.29" x="220.06,224.497,228.487,232.924,235.581,240.018,242.228,246.665,251.102,253.76,260.407,264.844,266.615,268.826,276.806,279.016,283.006,287.443,289.215,293.652,295.862,297.634,302.07,306.507,308.718,310.489,317.137,323.784,328.221,330.878,334.868,336.64,341.077,345.514,347.724" svgx:width="0.56,0.5,0.56,0.33,0.56,0.28,0.56,0.56,0.33,0.83,0.56,0.22,0.28,1.0,0.28,0.5,0.56,0.22,0.56,0.28,0.22,0.56,0.56,0.28,0.22,0.83,0.83,0.56,0.33,0.5,0.22,0.56,0.56,0.28,1.0" style="fill:rgb(0,0,0);font-family:ArialMT-Regular;font-size:7.98px;stroke:none;">hydrothermal → solution immersion →</text>
   <text y="624.49" x="220.06,224.497,228.934,233.371,235.581,237.792,240.002,242.659,247.096,251.533,253.744,260.391,264.828,269.265,271.475,273.686,275.457,279.894,282.104,287.419" svgx:width="0.56,0.56,0.56,0.28,0.28,0.28,0.33,0.56,0.56,0.28,0.83,0.56,0.56,0.28,0.28,0.22,0.56,0.28,0.67,0.33" style="fill:rgb(0,0,0);font-family:ArialMT-Regular;font-size:7.98px;stroke:none;">heat treatment in Ar</text>
  </g>
  <g begin="text">
   <text y="615.29" x="363.92,367.91,369.682,374.118,376.776,379.433,383.423,385.634,389.624,394.06,398.497,400.708,402.479,406.916" svgx:width="0.5,0.22,0.56,0.33,0.33,0.5,0.28,0.5,0.56,0.56,0.28,0.22,0.56,0.56" style="fill:rgb(0,0,0);font-family:ArialMT-Regular;font-size:7.98px;stroke:none;">slurry coating</text>
  </g>
  <g begin="text">
   <text y="615.29" x="418.06,422.497,426.934,431.371" svgx:width="0.56,0.56,0.56,0.56" style="fill:rgb(0,0,0);font-family:ArialMT-Regular;font-size:7.98px;stroke:none;">1119</text>
  </g>
  <g begin="text">
   <text y="615.29" x="459.83,464.267,468.704" svgx:width="0.56,0.56,0.56" style="fill:rgb(0,0,0);font-family:ArialMT-Regular;font-size:7.98px;stroke:none;">100</text>
  </g>
  <g begin="text">
   <text y="615.29" x="493.86,498.297,502.734" svgx:width="0.56,0.56,0.56" style="fill:rgb(0,0,0);font-family:ArialMT-Regular;font-size:7.98px;stroke:none;">500</text>
  </g>
  <g begin="text">
   <text y="636.3" x="68.47,75.117,79.554,85.755,90.192,95.953,98.164,102.154,106.59,111.027,115.017,116.789,121.226,122.997,125.208,129.645,134.082,138.518,142.955,148.717,150.488,153.146,157.583,161.573,163.783,165.994,170.43,174.867" svgx:width="0.83,0.56,0.78,0.56,0.72,0.28,0.5,0.56,0.56,0.5,0.22,0.56,0.22,0.28,0.56,0.56,0.56,0.56,0.72,0.22,0.33,0.56,0.5,0.28,0.28,0.56,0.56,0.28" style="fill:rgb(0,0,0);font-family:ArialMT-Regular;font-size:7.98px;stroke:none;">MnO–C coaxial nanowires [18]</text>
  </g>
  <g begin="text">
   <text y="636.3" x="220.06,224.497,228.487,232.924,235.581,240.018,242.228,246.665,251.102,253.76,260.407,264.844,266.615,268.826,276.806,279.016,283.453,287.89,289.662,293.652,300.299,304.736,307.393,309.165,313.155,317.592,319.802,321.574,326.01,330.447,332.658" svgx:width="0.56,0.5,0.56,0.33,0.56,0.28,0.56,0.56,0.33,0.83,0.56,0.22,0.28,1.0,0.28,0.56,0.56,0.22,0.5,0.83,0.56,0.33,0.22,0.5,0.56,0.28,0.22,0.56,0.56,0.28,1.0" style="fill:rgb(0,0,0);font-family:ArialMT-Regular;font-size:7.98px;stroke:none;">hydrothermal → polymerization →</text>
   <text y="645.5" x="220.06,224.497,228.934,233.371,235.581,237.792,240.002,242.659,247.096,251.533,253.744,260.391,264.828,269.265,271.475,273.686,275.457,279.894,282.104" svgx:width="0.56,0.56,0.56,0.28,0.28,0.28,0.33,0.56,0.56,0.28,0.83,0.56,0.56,0.28,0.28,0.22,0.56,0.28,0.72" style="fill:rgb(0,0,0);font-family:ArialMT-Regular;font-size:7.98px;stroke:none;">heat treatment in N</text>
   <text y="647.1" x="287.866" svgx:width="0.56" style="fill:rgb(0,0,0);font-family:ArialMT-Regular;font-size:6.38px;stroke:none;">2</text>
  </g>
  <g begin="text">
   <text y="636.3" x="363.92,366.13,368.788,373.225,377.662,381.652,383.862,388.299,392.736,397.173,398.944,403.381" svgx:width="0.28,0.33,0.56,0.56,0.5,0.28,0.56,0.56,0.56,0.22,0.56,0.56" style="fill:rgb(0,0,0);font-family:ArialMT-Regular;font-size:7.98px;stroke:none;">freestanding</text>
  </g>
  <g begin="text">
   <text y="636.3" x="418.06,422.497,426.934" svgx:width="0.56,0.56,0.56" style="fill:rgb(0,0,0);font-family:ArialMT-Regular;font-size:7.98px;stroke:none;">832</text>
  </g>
  <g begin="text">
   <text y="636.3" x="459.83,464.267,468.704" svgx:width="0.56,0.56,0.56" style="fill:rgb(0,0,0);font-family:ArialMT-Regular;font-size:7.98px;stroke:none;">100</text>
  </g>
  <g begin="text">
   <text y="636.3" x="493.86,498.297,502.734" svgx:width="0.56,0.56,0.56" style="fill:rgb(0,0,0);font-family:ArialMT-Regular;font-size:7.98px;stroke:none;">100</text>
  </g>
  <g begin="text">
   <text y="657.31" x="68.47,75.117,79.554,85.755,90.192,95.953,98.164,102.6,107.037,111.474,115.911,121.673,123.444,126.102,130.538,134.528,136.739,138.949,143.386,147.823" svgx:width="0.83,0.56,0.78,0.56,0.72,0.28,0.56,0.56,0.56,0.56,0.72,0.22,0.33,0.56,0.5,0.28,0.28,0.56,0.56,0.28" style="fill:rgb(0,0,0);font-family:ArialMT-Regular;font-size:7.98px;stroke:none;">MnO–C nanowires [19]</text>
  </g>
  <g begin="text">
   <text y="657.31" x="220.06,224.497,228.487,232.924,235.581,240.018,242.228,246.665,251.102,253.76,260.407,264.844,266.615,268.826,276.806,279.016,283.453,287.89,289.662,293.652,300.299,304.736,307.393,309.165,313.155,317.592,319.802,321.574,326.01,330.447,332.658" svgx:width="0.56,0.5,0.56,0.33,0.56,0.28,0.56,0.56,0.33,0.83,0.56,0.22,0.28,1.0,0.28,0.56,0.56,0.22,0.5,0.83,0.56,0.33,0.22,0.5,0.56,0.28,0.22,0.56,0.56,0.28,1.0" style="fill:rgb(0,0,0);font-family:ArialMT-Regular;font-size:7.98px;stroke:none;">hydrothermal → polymerization →</text>
   <text y="666.51" x="220.06,224.497,228.934,233.371,235.581,237.792,240.002,242.659,247.096,251.533,253.744,260.391,264.828,269.265,271.475,273.686,275.457,279.894,282.104,287.419" svgx:width="0.56,0.56,0.56,0.28,0.28,0.28,0.33,0.56,0.56,0.28,0.83,0.56,0.56,0.28,0.28,0.22,0.56,0.28,0.67,0.33" style="fill:rgb(0,0,0);font-family:ArialMT-Regular;font-size:7.98px;stroke:none;">heat treatment in Ar</text>
  </g>
  <g begin="text">
   <text y="657.31" x="363.92,367.91,369.682,374.118,376.776,379.433,383.423,385.634,389.624,394.06,398.497,400.708,402.479,406.916" svgx:width="0.5,0.22,0.56,0.33,0.33,0.5,0.28,0.5,0.56,0.56,0.28,0.22,0.56,0.56" style="fill:rgb(0,0,0);font-family:ArialMT-Regular;font-size:7.98px;stroke:none;">slurry coating</text>
  </g>
  <g begin="text">
   <text y="657.31" x="418.06,422.497,426.934" svgx:width="0.56,0.56,0.56" style="fill:rgb(0,0,0);font-family:ArialMT-Regular;font-size:7.98px;stroke:none;">970</text>
  </g>
  <g begin="text">
   <text y="657.31" x="459.83,464.267,468.704" svgx:width="0.56,0.56,0.56" style="fill:rgb(0,0,0);font-family:ArialMT-Regular;font-size:7.98px;stroke:none;">100</text>
  </g>
  <g begin="text">
   <text y="657.31" x="493.86,498.297,502.734" svgx:width="0.56,0.56,0.56" style="fill:rgb(0,0,0);font-family:ArialMT-Regular;font-size:7.98px;stroke:none;">100</text>
  </g>
  <g begin="text">
   <text y="678.32" x="68.47,75.117,79.554,85.755,90.192,95.953,98.164,102.154,106.59,109.248,113.685,118.122,122.112,126.548,130.985,132.757,134.528,136.739,141.176,145.613,150.05,154.486,160.248,162.02,164.677,169.114,173.104,175.314,177.525,181.962,186.398" svgx:width="0.83,0.56,0.78,0.56,0.72,0.28,0.5,0.56,0.33,0.56,0.56,0.5,0.56,0.56,0.22,0.22,0.28,0.56,0.56,0.56,0.56,0.72,0.22,0.33,0.56,0.5,0.28,0.28,0.56,0.56,0.28" style="fill:rgb(0,0,0);font-family:ArialMT-Regular;font-size:7.98px;stroke:none;">MnO–C core–shell nanowires [20]</text>
  </g>
  <g begin="text">
   <text y="678.32" x="220.06,224.497,228.487,232.924,235.581,240.018,242.228,246.665,251.102,253.76,260.407,264.844,266.615,268.826,276.806,279.016,283.453,287.89,289.662,293.652,300.299,304.736,307.393,309.165,313.155,317.592,319.802,321.574,326.01,330.447,332.658" svgx:width="0.56,0.5,0.56,0.33,0.56,0.28,0.56,0.56,0.33,0.83,0.56,0.22,0.28,1.0,0.28,0.56,0.56,0.22,0.5,0.83,0.56,0.33,0.22,0.5,0.56,0.28,0.22,0.56,0.56,0.28,1.0" style="fill:rgb(0,0,0);font-family:ArialMT-Regular;font-size:7.98px;stroke:none;">hydrothermal → polymerization →</text>
   <text y="687.52" x="220.06,224.497,228.934,233.371,235.581,237.792,240.002,242.659,247.096,251.533,253.744,260.391,264.828,269.265,271.475,273.686,275.457,279.894,282.104,287.419,290.076,292.287" svgx:width="0.56,0.56,0.56,0.28,0.28,0.28,0.33,0.56,0.56,0.28,0.83,0.56,0.56,0.28,0.28,0.22,0.56,0.28,0.67,0.33,0.28,0.72" style="fill:rgb(0,0,0);font-family:ArialMT-Regular;font-size:7.98px;stroke:none;">heat treatment in Ar/H</text>
   <text y="689.12" x="298.048" svgx:width="0.56" style="fill:rgb(0,0,0);font-family:ArialMT-Regular;font-size:6.38px;stroke:none;">2</text>
  </g>
  <g begin="text">
   <text y="678.32" x="363.92,367.91,369.682,374.118,376.776,379.433,383.423,385.634,389.624,394.06,398.497,400.708,402.479,406.916" svgx:width="0.5,0.22,0.56,0.33,0.33,0.5,0.28,0.5,0.56,0.56,0.28,0.22,0.56,0.56" style="fill:rgb(0,0,0);font-family:ArialMT-Regular;font-size:7.98px;stroke:none;">slurry coating</text>
  </g>
  <g begin="text">
   <text y="678.32" x="418.06,422.497,426.934" svgx:width="0.56,0.56,0.56" style="fill:rgb(0,0,0);font-family:ArialMT-Regular;font-size:7.98px;stroke:none;">903</text>
  </g>
  <g begin="text">
   <text y="678.32" x="459.83,464.267,468.704" svgx:width="0.56,0.56,0.56" style="fill:rgb(0,0,0);font-family:ArialMT-Regular;font-size:7.98px;stroke:none;">100</text>
  </g>
  <g begin="text">
   <text y="678.32" x="493.86,498.297,502.734" svgx:width="0.56,0.56,0.56" style="fill:rgb(0,0,0);font-family:ArialMT-Regular;font-size:7.98px;stroke:none;">100</text>
  </g>
  <g begin="text">
   <text y="699.33" x="68.47,75.117,79.554,85.755,90.192,95.953,98.164,102.154,106.59,111.027,115.017,116.789,121.226,122.997,125.208,129.645,134.082,138.518,142.955,146.945,151.382,155.819,157.591,162.027,166.018,168.228,170.438,174.875,179.312" svgx:width="0.83,0.56,0.78,0.56,0.72,0.28,0.5,0.56,0.56,0.5,0.22,0.56,0.22,0.28,0.56,0.56,0.56,0.56,0.5,0.56,0.56,0.22,0.56,0.5,0.28,0.28,0.56,0.56,0.28" style="fill:rgb(0,0,0);font-family:ArialMT-Regular;font-size:7.98px;stroke:none;">MnO–C coaxial nanocables [21]</text>
  </g>
  <g begin="text">
   <text y="699.33" x="220.06,224.497,228.487,232.924,235.581,240.018,242.228,246.665,251.102,253.76,260.407,264.844,266.615,268.826,276.806,279.016,283.006,287.443,289.215,293.652,295.862,297.634,302.07,306.507,308.718,310.489,317.137,323.784,328.221,330.878,334.868,336.64,341.077,345.514,347.724" svgx:width="0.56,0.5,0.56,0.33,0.56,0.28,0.56,0.56,0.33,0.83,0.56,0.22,0.28,1.0,0.28,0.5,0.56,0.22,0.56,0.28,0.22,0.56,0.56,0.28,0.22,0.83,0.83,0.56,0.33,0.5,0.22,0.56,0.56,0.28,1.0" style="fill:rgb(0,0,0);font-family:ArialMT-Regular;font-size:7.98px;stroke:none;">hydrothermal → solution immersion →</text>
   <text y="708.53" x="220.06,224.497,228.934,233.371,235.581,237.792,240.002,242.659,247.096,251.533,253.744,260.391,264.828,269.265,271.475,273.686,275.457,279.894,282.104" svgx:width="0.56,0.56,0.56,0.28,0.28,0.28,0.33,0.56,0.56,0.28,0.83,0.56,0.56,0.28,0.28,0.22,0.56,0.28,0.72" style="fill:rgb(0,0,0);font-family:ArialMT-Regular;font-size:7.98px;stroke:none;">heat treatment in N</text>
   <text y="710.13" x="287.866" svgx:width="0.56" style="fill:rgb(0,0,0);font-family:ArialMT-Regular;font-size:6.38px;stroke:none;">2</text>
  </g>
  <g begin="text">
   <text y="699.33" x="363.92,367.91,369.682,374.118,376.776,379.433,383.423,385.634,389.624,394.06,398.497,400.708,402.479,406.916" svgx:width="0.5,0.22,0.56,0.33,0.33,0.5,0.28,0.5,0.56,0.56,0.28,0.22,0.56,0.56" style="fill:rgb(0,0,0);font-family:ArialMT-Regular;font-size:7.98px;stroke:none;">slurry coating</text>
  </g>
  <g begin="text">
   <text y="699.33" x="418.06,422.497,426.934" svgx:width="0.56,0.56,0.56" style="fill:rgb(0,0,0);font-family:ArialMT-Regular;font-size:7.98px;stroke:none;">750</text>
  </g>
  <g begin="text">
   <text y="699.33" x="459.83,464.267,468.704" svgx:width="0.56,0.56,0.56" style="fill:rgb(0,0,0);font-family:ArialMT-Regular;font-size:7.98px;stroke:none;">150</text>
  </g>
  <g begin="text">
   <text y="699.33" x="493.86,498.297,502.734" svgx:width="0.56,0.56,0.56" style="fill:rgb(0,0,0);font-family:ArialMT-Regular;font-size:7.98px;stroke:none;">200</text>
  </g>
  <g begin="text">
   <text y="720.34" x="68.47,75.117,79.554,85.755,87.965,92.402,96.839,101.276,105.713,110.15,114.586,117.244,119.454,121.226,125.216,126.987,131.424,135.414,137.625,139.396,143.833,146.044,151.805,154.016,158.452,162.889,167.326,171.763,173.974,175.745,180.182,184.619,187.276,191.266,193.477,195.687,200.124,204.561" svgx:width="0.83,0.56,0.78,0.28,0.56,0.56,0.56,0.56,0.56,0.56,0.33,0.28,0.22,0.5,0.22,0.56,0.5,0.28,0.22,0.56,0.28,0.72,0.28,0.56,0.56,0.56,0.56,0.28,0.22,0.56,0.56,0.33,0.5,0.28,0.28,0.56,0.56,0.28" style="fill:rgb(0,0,0);font-family:ArialMT-Regular;font-size:7.98px;stroke:none;">MnO nanoparticles in C nanofibers [22]</text>
  </g>
  <g begin="text">
   <text y="720.34" x="220.06,224.05,228.487,230.258,234.248,238.685,240.896,245.333,249.77,252.427,259.074,263.511,265.283,267.493,275.473,277.684,282.12,283.892,288.329,292.319,294.529,297.187,301.624,305.614,310.05,311.822,316.259,320.696,322.467,326.904,331.341,333.552,341.532,345.968,350.405,354.842" svgx:width="0.5,0.56,0.22,0.5,0.56,0.28,0.56,0.56,0.33,0.83,0.56,0.22,0.28,1.0,0.28,0.56,0.22,0.56,0.5,0.28,0.33,0.56,0.5,0.56,0.22,0.56,0.56,0.22,0.56,0.56,0.28,1.0,0.56,0.56,0.56,0.28" style="fill:rgb(0,0,0);font-family:ArialMT-Regular;font-size:7.98px;stroke:none;">solvothermal → electrospinning →heat</text>
   <text y="729.54" x="220.06,222.27,224.928,229.365,233.802,236.012,242.659,247.096,251.533,253.744,255.954,257.726,262.162,264.373,269.688,272.345,274.555" svgx:width="0.28,0.33,0.56,0.56,0.28,0.83,0.56,0.56,0.28,0.28,0.22,0.56,0.28,0.67,0.33,0.28,0.72" style="fill:rgb(0,0,0);font-family:ArialMT-Regular;font-size:7.98px;stroke:none;">treatment in Ar/H</text>
   <text y="731.14" x="280.317" svgx:width="0.56" style="fill:rgb(0,0,0);font-family:ArialMT-Regular;font-size:6.38px;stroke:none;">2</text>
  </g>
  <g begin="text">
   <text y="720.34" x="363.92,367.91,369.682,374.118,376.776,379.433,383.423,385.634,389.624,394.06,398.497,400.708,402.479,406.916" svgx:width="0.5,0.22,0.56,0.33,0.33,0.5,0.28,0.5,0.56,0.56,0.28,0.22,0.56,0.56" style="fill:rgb(0,0,0);font-family:ArialMT-Regular;font-size:7.98px;stroke:none;">slurry coating</text>
  </g>
  <g begin="text">
   <text y="720.34" x="418.06,422.497,426.934" svgx:width="0.56,0.56,0.56" style="fill:rgb(0,0,0);font-family:ArialMT-Regular;font-size:7.98px;stroke:none;">575</text>
  </g>
  <g begin="text">
   <text y="720.34" x="459.83,464.267,468.704" svgx:width="0.56,0.56,0.56" style="fill:rgb(0,0,0);font-family:ArialMT-Regular;font-size:7.98px;stroke:none;">200</text>
  </g>
  <g begin="text">
   <text y="720.34" x="493.86,498.297,502.734" svgx:width="0.56,0.56,0.56" style="fill:rgb(0,0,0);font-family:ArialMT-Regular;font-size:7.98px;stroke:none;">200</text>
  </g>
  <g begin="text">
   <text y="741.35" x="68.47,74.232,78.668,83.105,87.542,89.753,91.524,95.961,100.398,103.055,105.266,109.256,113.693,116.35,120.787,125.224,129.661,131.871,136.308,140.745,142.955,148.717,153.154,155.811,159.801,162.012,166.448,170.885,174.875,179.312,183.749,186.406,190.843,195.28,197.491,203.252,205.024,207.234" svgx:width="0.72,0.56,0.56,0.56,0.28,0.22,0.56,0.56,0.33,0.28,0.5,0.56,0.33,0.56,0.56,0.56,0.28,0.56,0.56,0.28,0.72,0.56,0.33,0.5,0.28,0.56,0.56,0.5,0.56,0.56,0.33,0.56,0.56,0.28,0.72,0.22,0.28,0.56" style="fill:rgb(0,0,0);font-family:ArialMT-Regular;font-size:7.98px;stroke:none;">Nanofiber carbon network anchored with</text>
   <text y="750.55" x="68.47,75.117,79.554,85.755,87.965,92.402,96.839,101.276,103.486,109.248,111.458,114.116,116.326,120.763,122.535,126.524,128.735,134.497,138.933,141.591,145.581" svgx:width="0.83,0.56,0.78,0.28,0.56,0.56,0.56,0.28,0.72,0.28,0.33,0.28,0.56,0.22,0.5,0.28,0.72,0.56,0.33,0.5,0.33" style="fill:rgb(0,0,0);font-family:ArialMT-Regular;font-size:7.98px;stroke:none;">MnO and N (this work)</text>
  </g>
  <g begin="text">
   <text y="741.35" x="220.06,224.497,226.268,230.705,234.695,236.906,239.563,244.0,247.99,252.427,254.198,258.635,263.072,264.844,269.281,273.718,275.928,283.908,286.118,290.555,294.992,299.429,301.64,303.85,306.06,308.718,313.155,317.592,319.802,326.449,330.886,335.323,337.534,339.744,341.516,345.952,348.163,352.6,354.371" svgx:width="0.56,0.22,0.56,0.5,0.28,0.33,0.56,0.5,0.56,0.22,0.56,0.56,0.22,0.56,0.56,0.28,1.0,0.28,0.56,0.56,0.56,0.28,0.28,0.28,0.33,0.56,0.56,0.28,0.83,0.56,0.56,0.28,0.28,0.22,0.56,0.28,0.56,0.22,0.33" style="fill:rgb(0,0,0);font-family:ArialMT-Regular;font-size:7.98px;stroke:none;">electrospinning → heat treatment in air</text>
   <text y="750.55" x="220.06,224.497,228.934,233.371,235.581,240.896" svgx:width="0.56,0.56,0.56,0.28,0.67,0.33" style="fill:rgb(0,0,0);font-family:ArialMT-Regular;font-size:7.98px;stroke:none;">and Ar</text>
  </g>
  <g begin="text">
   <text y="741.35" x="363.92,366.13,368.788,373.225,377.662,381.652,383.862,388.299,392.736,397.173,398.944,403.381" svgx:width="0.28,0.33,0.56,0.56,0.5,0.28,0.56,0.56,0.56,0.22,0.56,0.56" style="fill:rgb(0,0,0);font-family:ArialMT-Regular;font-size:7.98px;stroke:none;">freestanding</text>
  </g>
  <g begin="text">
   <text y="741.35" x="418.06,422.497,426.934,431.371" svgx:width="0.56,0.56,0.56,0.56" style="fill:rgb(0,0,0);font-family:ArialMT-Regular;font-size:7.98px;stroke:none;">1005</text>
  </g>
  <g begin="text">
   <text y="741.35" x="459.83,464.267,468.704" svgx:width="0.56,0.56,0.56" style="fill:rgb(0,0,0);font-family:ArialMT-Regular;font-size:7.98px;stroke:none;">250</text>
  </g>
  <g begin="text">
   <text y="741.35" x="493.86,498.297,502.734" svgx:width="0.56,0.56,0.56" style="fill:rgb(0,0,0);font-family:ArialMT-Regular;font-size:7.98px;stroke:none;">200</text>
  </g>
  <g begin="text">
   <text y="753.16" x="418.06,422.497,426.934" svgx:width="0.56,0.56,0.56" style="fill:rgb(0,0,0);font-family:ArialMT-Regular;font-size:7.98px;stroke:none;">591</text>
  </g>
  <g begin="text">
   <text y="753.16" x="459.83,464.267,468.704" svgx:width="0.56,0.56,0.56" style="fill:rgb(0,0,0);font-family:ArialMT-Regular;font-size:7.98px;stroke:none;">200</text>
  </g>
  <g begin="text">
   <text y="753.16" x="493.86,498.297,502.734" svgx:width="0.56,0.56,0.56" style="fill:rgb(0,0,0);font-family:ArialMT-Regular;font-size:7.98px;stroke:none;">500</text>
  </g>
  <g begin="text">
   <text y="112.0" x="59.5,64.214,68.929,71.636,76.351,78.601,79.351,83.552,88.267,92.468,95.175,99.377,101.627,102.377,109.089,111.797,114.504,119.219,123.933,128.647,131.355,133.605,134.355,137.566,141.768,146.482,149.19,153.904,158.618,161.083,163.333,164.083,170.795,175.51,180.224,182.932,185.639,188.346,193.061,197.775,201.977,204.684,207.391,212.106,214.57,216.82,217.57,220.278,224.992,229.194,231.444,232.194,236.395,241.11,245.824,248.531,253.246,260.453,265.168,267.875,272.076,274.326,275.077,279.278,282.489,285.701,288.408" svgx:width="0.5,0.5,0.28,0.5,0.25,0.55,0.44,0.5,0.44,0.28,0.44,0.25,0.55,0.72,0.28,0.28,0.5,0.5,0.5,0.28,0.25,0.55,0.33,0.44,0.5,0.28,0.5,0.5,0.25,0.25,0.55,0.72,0.5,0.5,0.28,0.28,0.28,0.5,0.5,0.44,0.28,0.28,0.5,0.25,0.25,0.55,0.28,0.5,0.44,0.25,0.55,0.44,0.5,0.5,0.28,0.5,0.78,0.5,0.28,0.44,0.25,0.55,0.44,0.33,0.33,0.28,0.33" style="fill:rgb(0,0,0);font-family:TimesNewRomanWGL;font-size:9.0px;stroke:none;">94th cycle without fading. Additionally, the coulombic effi-</text>
   <text y="125.0" x="59.5,63.492,65.99,69.983,74.488,78.48,82.985,85.253,87.751,91.257,93.526,97.518,102.023,106.528,110.034,112.532,117.038,121.03,124.032,128.024,132.529,135.027,139.533,141.801,146.306,148.804,153.309,157.814,160.07,162.338,167.833,172.338,174.606,177.608,182.113,185.116,187.614,192.119,196.111,199.113,201.381,203.88,208.385,212.89,216.882,220.388,222.886,225.385,229.89,233.882,236.38,240.372,242.64,245.139,249.644,253.636,255.904,258.402,262.907,267.412,271.918,274.92,277.418,281.41,284.412" svgx:width="0.44,0.28,0.44,0.5,0.44,0.5,0.25,0.28,0.39,0.25,0.44,0.5,0.5,0.39,0.28,0.5,0.44,0.33,0.44,0.5,0.28,0.5,0.25,0.5,0.28,0.5,0.5,0.25,0.25,0.61,0.5,0.25,0.33,0.5,0.33,0.28,0.5,0.44,0.33,0.25,0.28,0.5,0.5,0.44,0.39,0.28,0.28,0.5,0.44,0.28,0.44,0.25,0.28,0.5,0.44,0.25,0.28,0.5,0.5,0.5,0.33,0.28,0.44,0.33,0.78" style="fill:rgb(0,0,0);font-family:TimesNewRomanWGL;font-size:9.0px;stroke:none;">ciency is considerably high. To further investigate the long-term</text>
   <text y="138.0" x="59.5,63.692,68.398,72.59,75.288,77.987,82.692,87.397,89.647,90.366,95.071,99.263,102.466,105.668,110.373,113.576,120.774,124.966,129.672,133.864,138.056,140.306,141.025,145.73,148.932,151.182,151.901,154.599,159.305,163.497,165.747,166.465,170.658,173.356,177.548,181.741,184.439,187.641,192.347,197.052,201.244,203.7,205.95,206.668,209.366,214.072,218.264,220.514,221.233,224.939,229.131,236.33,240.522,242.772,243.49,247.683,251.875,254.573,257.272,259.522,260.24,266.944,269.642,272.34,277.046,279.296,280.014,282.712,287.418" svgx:width="0.44,0.5,0.44,0.28,0.28,0.5,0.5,0.25,0.55,0.5,0.44,0.33,0.33,0.5,0.33,0.78,0.44,0.5,0.44,0.44,0.25,0.55,0.5,0.33,0.25,0.55,0.28,0.5,0.44,0.25,0.55,0.44,0.28,0.44,0.44,0.28,0.33,0.5,0.5,0.44,0.25,0.25,0.55,0.28,0.5,0.44,0.25,0.55,0.39,0.44,0.78,0.44,0.25,0.55,0.44,0.44,0.28,0.28,0.25,0.55,0.72,0.28,0.28,0.5,0.25,0.55,0.28,0.5,0.44" style="fill:rgb(0,0,0);font-family:TimesNewRomanWGL;font-size:9.0px;stroke:none;">cycling performance of the electrode, the same cell with the</text>
   <text y="151.0" x="59.5,64.17,68.328,72.485,77.156,81.313,85.984,88.83,93.5,97.658,102.328,106.999,110.166,112.829,117.5,121.657,124.825,127.671,131.829,135.986,139.153,143.824,148.494,153.165,156.011,160.682,164.839,167.502,174.171,178.841,182.009,186.679,189.526,193.683,198.354,202.511,207.181,211.852,215.019,219.177,223.847,226.694,233.362,236.025,238.689,243.359,246.206,254.377,259.048,265.716,268.562,272.72,277.39,282.061,284.907" svgx:width="0.5,0.44,0.44,0.5,0.44,0.5,0.25,0.5,0.44,0.5,0.5,0.33,0.28,0.5,0.44,0.33,0.25,0.44,0.44,0.33,0.5,0.5,0.5,0.25,0.5,0.44,0.28,0.72,0.5,0.33,0.5,0.25,0.44,0.5,0.44,0.5,0.5,0.33,0.44,0.5,0.25,0.72,0.28,0.28,0.5,0.25,0.89,0.5,0.72,0.25,0.44,0.5,0.5,0.25,0.72" style="fill:rgb(0,0,0);font-family:TimesNewRomanWGL;font-size:9.0px;stroke:none;">beaded nanofiber carbon network anchored with MnO and N</text>
   <text y="164.0" x="59.5,66.171,70.332,74.006,76.863,79.529,83.689,87.364,90.03,94.19,98.863,101.72,105.88,109.555,112.411,119.083,123.756,126.926,131.6,134.266,138.939,143.613,146.469,150.63,153.296,157.456,161.617,164.283,167.453,172.127,176.8,180.96,183.817,187.977,190.643,193.5,198.173,200.597,205.27,208.127,214.798,217.655" svgx:width="0.72,0.44,0.39,0.25,0.28,0.44,0.39,0.28,0.44,0.5,0.25,0.44,0.39,0.25,0.72,0.5,0.33,0.5,0.28,0.5,0.5,0.25,0.44,0.28,0.44,0.44,0.28,0.33,0.5,0.5,0.44,0.25,0.44,0.28,0.25,0.5,0.25,0.5,0.25,0.72,0.25,0.5" style="fill:rgb(0,0,0);font-family:TimesNewRomanWGL;font-size:9.0px;stroke:none;">was tested as working electrode at 0.2 A g</text>
   <text y="160.85" x="222.328,226.555" svgx:width="0.56,0.5" style="fill:rgb(0,0,0);font-family:TimesNewRomanWGL;font-size:7.2px;stroke:none;">−1</text>
   <text y="164.0" x="230.328,233.185,237.345,242.018,246.692,249.548,252.215,256.888,261.048,263.905,268.065,272.739,276.899,279.565,282.232,286.905" svgx:width="0.25,0.44,0.5,0.5,0.25,0.28,0.5,0.44,0.25,0.44,0.5,0.44,0.28,0.28,0.5,0.5" style="fill:rgb(0,0,0);font-family:TimesNewRomanWGL;font-size:9.0px;stroke:none;"> and the cycling</text>
   <text y="177.0" x="59.5,63.528,68.068,71.106,75.647,79.675,82.067,84.601,88.143,90.535,94.077,98.618,103.158,109.697,114.238,116.63,119.164,123.705,126.097,131.142,133.676,138.216,142.757,145.795,149.823,152.113,156.654,161.195,163.485,165.878,168.916,171.449,173.842,176.88,180.907,185.448,189.476,193.504,196.037,199.579,201.972,204.505,209.046,213.074,215.607,218.0,220.534,225.074,229.102,231.495,235.522,239.55,244.091,248.119,252.146,254.68,257.214,261.754,264.147,267.689,270.222,272.756,277.297,281.838,284.371,286.905" svgx:width="0.44,0.5,0.33,0.5,0.44,0.25,0.28,0.39,0.25,0.39,0.5,0.5,0.72,0.5,0.25,0.28,0.5,0.25,0.56,0.28,0.5,0.5,0.33,0.44,0.25,0.5,0.5,0.25,0.25,0.33,0.28,0.25,0.33,0.44,0.5,0.44,0.44,0.28,0.39,0.25,0.28,0.5,0.44,0.28,0.25,0.28,0.5,0.44,0.25,0.44,0.44,0.5,0.44,0.44,0.28,0.28,0.5,0.25,0.39,0.28,0.28,0.5,0.5,0.28,0.28,0.5" style="fill:rgb(0,0,0);font-family:TimesNewRomanWGL;font-size:9.0px;stroke:none;">curve is shown in Figure 3d. It reveals that the capacity slightly</text>
   <text y="190.0" x="59.5,62.511,66.511,71.025,75.538,79.539,83.539,87.054,89.352,93.352,95.859,98.156,101.167,103.673,106.684,110.198,112.705,114.969,117.266,119.773,124.286,128.287,132.8,135.098,139.611,143.612,147.127,149.633,153.634,157.634,160.141,162.647,167.161,169.458,176.465,180.466,182.972,187.486,189.992,193.993,196.499,201.013,204.528,206.825,210.826,213.332,215.63,219.63,221.928,225.928,230.442,234.956,238.47,240.977,244.977,249.491,251.997,254.295,258.808,262.809,265.316,269.829,273.83,276.093,278.391,282.391,286.905" svgx:width="0.33,0.44,0.5,0.5,0.44,0.44,0.39,0.25,0.44,0.28,0.25,0.33,0.28,0.33,0.39,0.28,0.25,0.25,0.28,0.5,0.44,0.5,0.25,0.5,0.44,0.39,0.28,0.44,0.44,0.28,0.28,0.5,0.25,0.78,0.44,0.28,0.5,0.28,0.44,0.28,0.5,0.39,0.25,0.44,0.28,0.25,0.44,0.25,0.44,0.5,0.5,0.39,0.28,0.44,0.5,0.28,0.25,0.5,0.44,0.28,0.5,0.44,0.25,0.25,0.44,0.5,0.5" style="fill:rgb(0,0,0);font-family:TimesNewRomanWGL;font-size:9.0px;stroke:none;">reduces at first, then basically maintains at a constant value, and</text>
   <text y="203.0" x="59.5,62.669,65.334,70.006,74.165,76.83,79.495,84.167,87.019,89.684,94.356,98.515,101.684,105.843,110.002,113.675,117.834,121.507,124.359,129.032,132.201,136.36,141.032,145.704,149.863,152.528,155.193,159.865,162.717,167.389,172.061,176.733,181.405,184.257,188.416,193.088,197.247,199.912,202.577,207.249,211.921,214.343,217.195,222.857,227.529,231.688,235.361,239.52,242.372,245.542,249.701,253.374,258.046,260.711,263.376,267.049,269.901,274.06,277.229,281.388,284.24,286.905" svgx:width="0.33,0.28,0.5,0.44,0.28,0.28,0.5,0.25,0.28,0.5,0.44,0.33,0.44,0.44,0.39,0.44,0.39,0.25,0.5,0.33,0.44,0.5,0.5,0.44,0.28,0.28,0.5,0.25,0.5,0.5,0.5,0.5,0.25,0.44,0.5,0.44,0.28,0.28,0.5,0.5,0.25,0.25,0.61,0.5,0.44,0.39,0.44,0.25,0.33,0.44,0.39,0.5,0.28,0.28,0.39,0.25,0.44,0.33,0.44,0.25,0.28,0.5" style="fill:rgb(0,0,0);font-family:TimesNewRomanWGL;font-size:9.0px;stroke:none;">finally increases gradually upon cycling. These results are in</text>
   <text y="216.0" x="59.5,64.071,68.641,73.212,77.782,80.28,84.337,88.395,92.452,97.023,100.091,104.661,108.719,113.289,117.347,121.405,123.902,130.47,133.034,135.598,140.168,142.665,145.229,149.8,153.857,156.354,160.925,164.983,167.546,172.117,176.174,180.745,185.316,188.887,191.451,195.508,198.072,200.636,204.693,207.19,211.761,214.325,217.896,221.954,226.524,230.582,233.65,238.22,242.278,246.849,250.906,255.477,259.534,262.602,267.173,271.23,273.727,276.291,280.349,283.92,286.484,290.055" svgx:width="0.5,0.5,0.5,0.5,0.25,0.44,0.44,0.44,0.5,0.33,0.5,0.44,0.5,0.44,0.44,0.25,0.72,0.28,0.28,0.5,0.25,0.28,0.5,0.44,0.25,0.5,0.44,0.28,0.5,0.44,0.5,0.5,0.39,0.28,0.44,0.28,0.28,0.44,0.25,0.5,0.28,0.39,0.44,0.5,0.44,0.33,0.5,0.44,0.5,0.44,0.5,0.44,0.33,0.5,0.44,0.25,0.28,0.44,0.39,0.28,0.39,0.25" style="fill:rgb(0,0,0);font-family:TimesNewRomanWGL;font-size:9.0px;stroke:none;">good accordance with the galvanostatic discharge–charge tests.</text>
   <text y="229.0" x="59.5,68.364,73.242,77.606,82.483,84.733,86.054,88.925,93.802,98.166,100.416,101.737,106.102,110.466,113.336,116.207,118.457,119.777,122.648,126.526,128.776,130.097,132.967,137.332,141.21,144.08,148.445,153.322,155.572,156.893,159.763,164.641,166.891,168.212,171.082,175.959,180.324,182.574,183.894,188.772,193.649,198.527,201.397,206.274,208.524,209.845,214.209,219.087,223.451,226.322,230.686,233.313,235.563,236.884,239.754,244.632,248.996,251.246,252.567,255.941,260.306,265.183,269.547,272.922,276.8,279.671,284.548,287.418" svgx:width="0.94,0.5,0.44,0.5,0.25,0.55,0.28,0.5,0.44,0.25,0.55,0.44,0.44,0.28,0.28,0.25,0.55,0.28,0.39,0.25,0.55,0.28,0.44,0.39,0.28,0.44,0.5,0.25,0.55,0.28,0.5,0.25,0.55,0.28,0.5,0.44,0.25,0.55,0.5,0.5,0.5,0.28,0.5,0.25,0.55,0.44,0.5,0.44,0.28,0.44,0.25,0.25,0.55,0.28,0.5,0.44,0.25,0.55,0.33,0.44,0.5,0.44,0.33,0.39,0.28,0.5,0.28,0.44" style="fill:rgb(0,0,0);font-family:TimesNewRomanWGL;font-size:9.0px;stroke:none;">When the cell is tested to the 200th cycle, the reversible</text>
   <text y="242.0" x="59.5,63.546,67.591,72.15,76.196,80.242,82.794,85.345,89.904,92.36,94.911,98.471,100.927,107.979,112.024,114.576,119.135,121.687,125.732,128.284,132.843,136.888,141.447,143.903,146.455,151.013,153.469,158.028,162.586,167.145,169.454,174.013,176.468,183.52,190.077,194.636,197.091" svgx:width="0.44,0.44,0.5,0.44,0.44,0.28,0.28,0.5,0.25,0.28,0.39,0.25,0.78,0.44,0.28,0.5,0.28,0.44,0.28,0.5,0.44,0.5,0.25,0.28,0.5,0.25,0.5,0.5,0.5,0.25,0.5,0.25,0.78,0.72,0.5,0.25,0.5" style="fill:rgb(0,0,0);font-family:TimesNewRomanWGL;font-size:9.0px;stroke:none;">capacity is maintained to 875.5 mAh g</text>
   <text y="238.85" x="201.65,205.762" svgx:width="0.56,0.5" style="fill:rgb(0,0,0);font-family:TimesNewRomanWGL;font-size:7.2px;stroke:none;">−1</text>
   <text y="242.0" x="209.421,211.73,214.185,220.742,225.301,227.853,231.898,236.457,238.913,241.464,245.024,247.48,254.532,259.09,263.136,267.695,270.15,272.702,276.748,279.804,284.362,288.408" svgx:width="0.25,0.25,0.72,0.5,0.28,0.44,0.5,0.25,0.28,0.39,0.25,0.78,0.5,0.44,0.5,0.25,0.28,0.44,0.33,0.5,0.44,0.33" style="fill:rgb(0,0,0);font-family:TimesNewRomanWGL;font-size:9.0px;stroke:none;">, which is much larger</text>
   <text y="255.0" x="59.5,62.022,66.552,70.568,75.097,77.449,79.972,84.501,89.03,92.56,96.577,98.929,103.458,106.485,108.837,113.366,117.896,122.425,124.777,128.794,133.323,137.852,140.204,144.734,149.263,153.792,156.072,160.601,162.953,169.975,176.503,181.032,183.384" svgx:width="0.28,0.5,0.44,0.5,0.25,0.28,0.5,0.5,0.39,0.44,0.25,0.5,0.33,0.25,0.5,0.5,0.5,0.25,0.44,0.5,0.5,0.25,0.5,0.5,0.5,0.25,0.5,0.25,0.78,0.72,0.5,0.25,0.5" style="fill:rgb(0,0,0);font-family:TimesNewRomanWGL;font-size:9.0px;stroke:none;">than those of 672 and 479.1 mAh g</text>
   <text y="251.85" x="187.914,191.996" svgx:width="0.56,0.5" style="fill:rgb(0,0,0);font-family:TimesNewRomanWGL;font-size:7.2px;stroke:none;">−1</text>
   <text y="255.0" x="195.626,197.978,201.004,205.534,208.56,210.912,213.435,217.964,221.98,224.333,228.349,232.878,237.407,239.93,242.956,247.485,250.007,252.36,255.89,259.906,266.929,271.458,273.98,277.996,281.527,283.879,288.408" svgx:width="0.25,0.33,0.5,0.33,0.25,0.28,0.5,0.44,0.25,0.44,0.5,0.5,0.28,0.33,0.5,0.28,0.25,0.39,0.44,0.78,0.5,0.28,0.44,0.39,0.25,0.5,0.33" style="fill:rgb(0,0,0);font-family:TimesNewRomanWGL;font-size:9.0px;stroke:none;"> for the control samples of</text>
   <text y="268.0" x="59.5,63.871,68.241,71.622,76.506,81.39,86.273,88.523,89.866,94.237,99.121,103.492,108.375,113.259,116.64,121.011,125.894,128.144,129.487,136.369,139.246,142.122,147.006,149.256,150.599,158.984,163.868,170.749,172.999,174.343,178.713,183.597,188.481,190.731,192.074,196.445,200.815,204.196,209.08,213.963,218.847,221.097,222.44,226.811,231.695,236.065,240.949,245.833,249.214,253.584,258.468,260.718,262.061,268.943,271.82,274.696,279.58,281.83,283.173,290.055" svgx:width="0.44,0.44,0.33,0.5,0.5,0.5,0.25,0.55,0.44,0.5,0.44,0.5,0.5,0.33,0.44,0.5,0.25,0.55,0.72,0.28,0.28,0.5,0.25,0.55,0.89,0.5,0.72,0.25,0.55,0.44,0.5,0.5,0.25,0.55,0.44,0.44,0.33,0.5,0.5,0.5,0.25,0.55,0.44,0.5,0.44,0.5,0.5,0.33,0.44,0.5,0.25,0.55,0.72,0.28,0.28,0.5,0.25,0.55,0.72,0.25" style="fill:rgb(0,0,0);font-family:TimesNewRomanWGL;font-size:9.0px;stroke:none;">carbon anchored with MnO and carbon anchored with N,</text>
   <text y="281.0" x="59.5,62.784,67.058,70.845,75.632,79.906,84.18,86.96,89.739,94.526,98.8,101.58,106.366,108.903,111.153,112.157,115.441,118.221,120.471,121.474,124.254,128.042,130.292,131.296,138.081,142.867,146.151,148.931,153.718,155.968,156.971,161.758,166.545,169.325,172.105,176.891,181.678,183.928,184.932,187.712,192.498,196.772,199.552,201.802,202.806,205.586,210.372,214.646,216.896,217.9,221.184,225.457,230.244,234.518,237.802,241.59,244.369,249.156,251.936,256.21,258.46,259.464,263.737,268.011,272.798,277.072,281.346,284.125,286.905" svgx:width="0.33,0.44,0.39,0.5,0.44,0.44,0.28,0.28,0.5,0.44,0.28,0.5,0.25,0.25,0.55,0.33,0.28,0.25,0.55,0.28,0.39,0.25,0.55,0.72,0.5,0.33,0.28,0.5,0.25,0.55,0.5,0.5,0.28,0.28,0.5,0.5,0.25,0.55,0.28,0.5,0.44,0.28,0.25,0.55,0.28,0.5,0.44,0.25,0.55,0.33,0.44,0.5,0.44,0.33,0.39,0.28,0.5,0.28,0.44,0.25,0.55,0.44,0.44,0.5,0.44,0.44,0.28,0.28,0.5" style="fill:rgb(0,0,0);font-family:TimesNewRomanWGL;font-size:9.0px;stroke:none;">respectively. It is worth noting that the reversible capacity</text>
   <text y="294.0" x="59.5,62.241,65.99,68.24,69.108,73.343,77.092,79.342,80.21,84.958,87.699,92.447,97.195,99.445,100.313,104.548,108.297,110.547,111.415,116.163,120.911,125.659,130.407,132.905,137.653,139.903,140.771,148.012,154.758,159.506,161.756,162.624" svgx:width="0.28,0.39,0.25,0.55,0.44,0.39,0.25,0.55,0.5,0.28,0.5,0.5,0.25,0.55,0.44,0.39,0.25,0.55,0.5,0.5,0.5,0.5,0.25,0.5,0.25,0.55,0.78,0.72,0.5,0.25,0.55,0.5" style="fill:rgb(0,0,0);font-family:TimesNewRomanWGL;font-size:9.0px;stroke:none;">is as high as 1005.5 mAh g</text>
   <text y="290.85" x="167.372,171.674" svgx:width="0.56,0.5" style="fill:rgb(0,0,0);font-family:TimesNewRomanWGL;font-size:7.2px;stroke:none;">−1</text>
   <text y="294.0" x="175.522,177.772,178.64,185.386,190.134,194.369,199.117,201.367,202.235,204.976,209.724,213.959,216.209,217.077,221.312,225.547,228.288,231.029,233.279,234.147,236.888,240.637,242.887,243.755,246.496,250.731,254.48,257.221,261.456,266.204,268.454,269.322,272.063,276.811,279.061,279.929,282.67,287.418" svgx:width="0.25,0.55,0.72,0.5,0.44,0.5,0.25,0.55,0.28,0.5,0.44,0.25,0.55,0.44,0.44,0.28,0.28,0.25,0.55,0.28,0.39,0.25,0.55,0.28,0.44,0.39,0.28,0.44,0.5,0.25,0.55,0.28,0.5,0.25,0.55,0.28,0.5,0.44" style="fill:rgb(0,0,0);font-family:TimesNewRomanWGL;font-size:9.0px;stroke:none;"> when the cell is tested to the</text>
   <text y="307.0" x="59.5,64.166,68.831,73.497,76.156,80.821,83.651,87.804,92.47,96.622,99.281,103.434,105.849,108.679,115.343,119.01,121.84,124.498,127.157,130.824,133.482,137.635,142.301,145.13,147.789,152.455,155.285,160.94,165.093,169.759,172.417,176.57,178.986,183.651,186.067,188.897,192.564,197.229,201.382,206.048,208.878,213.03,215.86,220.526,223.185,227.85,232.516,235.346,239.499,243.651,248.317,252.47,256.622,259.281,261.94,266.605,269.435,272.094,275.761,278.591,281.249,288.408" svgx:width="0.5,0.5,0.5,0.28,0.5,0.25,0.44,0.5,0.44,0.28,0.44,0.25,0.25,0.72,0.39,0.25,0.28,0.28,0.39,0.28,0.44,0.5,0.25,0.28,0.5,0.25,0.61,0.44,0.5,0.28,0.44,0.25,0.5,0.25,0.25,0.39,0.5,0.44,0.5,0.25,0.44,0.25,0.5,0.28,0.5,0.5,0.25,0.44,0.44,0.5,0.44,0.44,0.28,0.28,0.5,0.25,0.28,0.39,0.25,0.28,0.78,0.33" style="fill:rgb(0,0,0);font-family:TimesNewRomanWGL;font-size:9.0px;stroke:none;">250th cycle. As listed in Table 1, such a high capacity is im-</text>
   <text y="320.0" x="59.5,64.28,67.558,71.825,75.607,79.388,82.162,86.942,91.21,93.46,94.441,98.709,105.982,110.763,115.543,120.324,122.574,123.555,126.329,131.109,135.377,137.627,138.608,143.389,148.169,155.443,159.71,162.987,167.768,172.548,176.33,178.86,181.11,182.092,185.369,189.637,192.41,196.678,201.458,205.726,210.506,213.28,215.81,218.06,219.042,223.822,227.099,231.367,236.147,238.921,243.701,248.482,252.263,254.513,255.495,262.273,267.054,270.331,275.112,278.893,281.143,282.125,286.905" svgx:width="0.5,0.33,0.44,0.39,0.39,0.28,0.5,0.44,0.25,0.55,0.44,0.78,0.5,0.5,0.5,0.25,0.55,0.28,0.5,0.44,0.25,0.55,0.5,0.5,0.78,0.44,0.33,0.5,0.5,0.39,0.25,0.25,0.55,0.33,0.44,0.28,0.44,0.5,0.44,0.5,0.28,0.25,0.25,0.55,0.5,0.33,0.44,0.5,0.28,0.5,0.5,0.39,0.25,0.55,0.72,0.5,0.33,0.5,0.39,0.25,0.55,0.5,0.5" style="fill:rgb(0,0,0);font-family:TimesNewRomanWGL;font-size:9.0px;stroke:none;">pressive among the numerous, relevant, previous works on</text>
   <text y="333.0" x="59.5,67.647,72.293,78.938,83.584,89.724,92.867,97.0,101.646,108.786,113.432,118.078,121.725,124.364,127.004,131.137,134.28,138.926,143.059,146.706,150.84,155.486,158.247,163.884,167.027,173.167,175.929,180.062,184.708,189.354,194.0,198.133,201.781,204.177,206.939,212.575,217.221,219.983,223.126,227.772,230.915,233.554,238.2,242.334,245.477,248.238,250.878,255.524,259.657,264.303,266.942,269.581,272.725,277.371,280.132,282.772,287.418" svgx:width="0.89,0.5,0.72,0.5,0.67,0.33,0.44,0.5,0.78,0.5,0.5,0.39,0.28,0.28,0.44,0.33,0.5,0.44,0.39,0.44,0.5,0.25,0.61,0.33,0.67,0.25,0.44,0.5,0.5,0.5,0.44,0.39,0.25,0.25,0.61,0.5,0.25,0.33,0.5,0.33,0.28,0.5,0.44,0.33,0.25,0.28,0.5,0.44,0.5,0.28,0.28,0.33,0.5,0.25,0.28,0.5,0.44" style="fill:rgb(0,0,0);font-family:TimesNewRomanWGL;font-size:9.0px;stroke:none;">MnO–C-composite-based LIB anodes. To further identify the</text>
   <text y="346.0" x="59.5,63.607,68.227,72.333,74.946,77.559,82.178,86.798,89.467,94.087,98.194,101.311,104.427,109.047,112.164,119.277,123.383,128.003,132.11,136.217,138.886,143.505,146.622,149.291,151.904,156.524,160.631,163.3,167.919,172.026,174.639,181.257,185.876,188.993,193.613,197.72,202.339,205.009,209.115,213.222,216.339,220.959,225.578,230.198,232.867,236.974,241.594,246.213,250.833,254.94,257.609,261.716,266.336,270.442,275.062,279.682,282.799,286.905" svgx:width="0.44,0.5,0.44,0.28,0.28,0.5,0.5,0.25,0.5,0.44,0.33,0.33,0.5,0.33,0.78,0.44,0.5,0.44,0.44,0.25,0.5,0.33,0.25,0.28,0.5,0.44,0.25,0.5,0.44,0.28,0.72,0.5,0.33,0.5,0.44,0.5,0.25,0.44,0.44,0.33,0.5,0.5,0.5,0.25,0.44,0.5,0.5,0.5,0.44,0.25,0.44,0.5,0.44,0.5,0.5,0.33,0.44,0.5" style="fill:rgb(0,0,0);font-family:TimesNewRomanWGL;font-size:9.0px;stroke:none;">cycling performance of the networked carbon anode anchored</text>
   <text y="359.0" x="59.5,66.097,68.689,71.281,75.88,78.477,86.578,91.177,97.774,100.371,104.457,109.056,113.655,116.252,122.849,125.198,127.795,131.881,134.478,138.564,142.65,145.243,147.835,150.432,157.029,161.115,164.715,167.312,171.398,175.997,180.083,182.675,186.761,191.361,193.958,198.044,200.636,203.233,207.319,209.916,214.515,217.107,221.706,226.305,230.391,233.487,236.084,240.171,244.77,247.866,250.962,255.048,259.647,262.239,264.836,269.435,273.521,278.121,281.721,284.313,286.905" svgx:width="0.72,0.28,0.28,0.5,0.25,0.89,0.5,0.72,0.25,0.44,0.5,0.5,0.25,0.72,0.25,0.25,0.44,0.25,0.44,0.44,0.28,0.28,0.25,0.72,0.44,0.39,0.25,0.44,0.5,0.44,0.28,0.44,0.5,0.25,0.44,0.28,0.25,0.44,0.25,0.5,0.28,0.5,0.5,0.44,0.33,0.25,0.44,0.5,0.33,0.33,0.44,0.5,0.28,0.25,0.5,0.44,0.5,0.39,0.28,0.28,0.5" style="fill:rgb(0,0,0);font-family:TimesNewRomanWGL;font-size:9.0px;stroke:none;">with MnO and N, a cell was cycled at a higher current density</text>
   <text y="372.0" x="59.5,64.005,67.006,69.272,73.777,76.032,80.536,82.803,89.305,91.571" svgx:width="0.5,0.33,0.25,0.5,0.25,0.5,0.25,0.72,0.25,0.5" style="fill:rgb(0,0,0);font-family:TimesNewRomanWGL;font-size:9.0px;stroke:none;">of 0.5 A g</text>
   <text y="368.85" x="96.076,100.134" svgx:width="0.56,0.5" style="fill:rgb(0,0,0);font-family:TimesNewRomanWGL;font-size:7.2px;stroke:none;">−1</text>
   <text y="372.0" x="103.739,105.993,108.26,114.762,118.268,120.534,124.04,128.544,133.049,139.552,144.056,146.322,148.82,153.325,155.591,160.6,163.097,167.602,172.106,175.108,179.1,181.354,185.859,189.851,192.105,194.371,196.869,199.367,201.633,206.137,210.129,212.627,215.124,219.629,223.621,226.622,230.128,232.394,236.386,238.652,241.653,245.645,250.15,254.141,257.143,260.649,263.146,267.651,270.148,274.14,276.406,279.912,284.417,288.408" svgx:width="0.25,0.25,0.72,0.39,0.25,0.39,0.5,0.5,0.72,0.5,0.25,0.28,0.5,0.25,0.56,0.28,0.5,0.5,0.33,0.44,0.25,0.5,0.44,0.25,0.25,0.28,0.28,0.25,0.5,0.44,0.28,0.28,0.5,0.44,0.33,0.39,0.25,0.44,0.25,0.33,0.44,0.5,0.44,0.33,0.39,0.28,0.5,0.28,0.44,0.25,0.39,0.5,0.44,0.33" style="fill:rgb(0,0,0);font-family:TimesNewRomanWGL;font-size:9.0px;stroke:none;">. As shown in Figure 3e, it delivers a reversible spe-</text>
   <text y="385.0" x="59.5,63.535,66.076,69.12,71.661,75.696,78.113,82.148,86.182,90.73,94.765,98.8,101.34,103.881,108.429,110.846,115.394,118.438,120.856,125.403,129.951,134.499,136.916,143.957,150.502,155.05,157.467" svgx:width="0.44,0.28,0.33,0.28,0.44,0.25,0.44,0.44,0.5,0.44,0.44,0.28,0.28,0.5,0.25,0.5,0.33,0.25,0.5,0.5,0.5,0.25,0.78,0.72,0.5,0.25,0.5" style="fill:rgb(0,0,0);font-family:TimesNewRomanWGL;font-size:9.0px;stroke:none;">cific capacity of 591 mAh g</text>
   <text y="381.85" x="162.015,166.116" svgx:width="0.56,0.5" style="fill:rgb(0,0,0);font-family:TimesNewRomanWGL;font-size:7.2px;stroke:none;">−1</text>
   <text y="385.0" x="169.764,172.181,176.216,179.261,181.802,185.836,188.881,191.298,195.846,200.394,204.941,207.359,211.393,215.941,219.976,222.517,226.551,230.1,232.517,239.063,241.604,244.144,248.692,251.109,255.144,257.561,261.596,266.144,270.691,274.24,276.781,281.329,285.363,288.408" svgx:width="0.25,0.44,0.33,0.28,0.44,0.33,0.25,0.5,0.5,0.5,0.25,0.44,0.5,0.44,0.28,0.44,0.39,0.25,0.72,0.28,0.28,0.5,0.25,0.44,0.25,0.44,0.5,0.5,0.39,0.28,0.5,0.44,0.33,0.33" style="fill:rgb(0,0,0);font-family:TimesNewRomanWGL;font-size:9.0px;stroke:none;"> after 200 cycles with a consider-</text>
   <text y="398.0" x="59.5,63.616,68.246,70.868,74.984,77.687,81.803,86.432,91.061,93.684,98.313,105.435,110.064,112.687,116.803,119.505,123.622,126.748,129.874,132.496,136.613,139.235,143.351,147.981,152.097,156.726,159.429,164.058,167.184,169.887,174.516,179.145,183.261,186.388,189.09,193.719,198.349,200.728,205.357,212.983,215.363,218.065,224.188,228.305,231.935,236.051,240.68,243.383,248.012,252.641,255.344,257.966,262.595,266.712,269.414,273.53,278.16,282.789,287.418" svgx:width="0.44,0.5,0.28,0.44,0.25,0.44,0.5,0.5,0.28,0.5,0.78,0.5,0.28,0.44,0.25,0.44,0.33,0.33,0.28,0.44,0.28,0.44,0.5,0.44,0.5,0.25,0.5,0.33,0.25,0.5,0.5,0.44,0.33,0.25,0.5,0.5,0.25,0.5,0.83,0.25,0.25,0.67,0.44,0.39,0.44,0.5,0.25,0.5,0.5,0.25,0.28,0.5,0.44,0.25,0.44,0.5,0.5,0.5,0.44" style="fill:rgb(0,0,0);font-family:TimesNewRomanWGL;font-size:9.0px;stroke:none;">able coulombic efficiency of over 98.9%. Based on the above</text>
   <text y="411.0" x="59.5,63.523,68.06,72.083,74.612,79.149,82.686,85.215,88.753,91.039,93.416,96.954,101.49,105.513,110.05,112.427,116.45,118.828,121.861,125.884,128.414,130.943,134.966,139.503,142.032,146.055,148.433,152.456,154.985,159.009,163.032,165.561,168.595,173.131,177.154,181.691,185.714,192.743,195.273,199.296,203.319,205.849,208.226,212.762,216.786,219.819,222.852,227.389,230.422,237.451,241.475,246.011,250.034,254.058,256.435,260.971,264.005,266.382,268.911,273.448,277.471,279.848,283.872,288.408" svgx:width="0.44,0.5,0.44,0.28,0.5,0.39,0.28,0.39,0.25,0.25,0.39,0.5,0.44,0.5,0.25,0.44,0.25,0.33,0.44,0.28,0.28,0.44,0.5,0.28,0.44,0.25,0.44,0.28,0.44,0.44,0.28,0.33,0.5,0.44,0.5,0.44,0.78,0.28,0.44,0.44,0.28,0.25,0.5,0.44,0.33,0.33,0.5,0.33,0.78,0.44,0.5,0.44,0.44,0.25,0.5,0.33,0.25,0.28,0.5,0.44,0.25,0.44,0.5,0.33" style="fill:rgb(0,0,0);font-family:TimesNewRomanWGL;font-size:9.0px;stroke:none;">analysis, such a reliable electrochemical performance of the en-</text>
   <text y="424.0" x="59.5,64.116,68.218,72.834,76.936,81.039,85.655,88.309,91.422,95.524,100.14,104.243,107.355,110.972,113.58,118.196,120.805,124.907,127.562,131.664,135.767,140.383,144.485,148.588,151.196,153.805,158.421,160.786,163.441,166.049,170.665,174.768,177.422,182.038,186.653,191.269,195.885,198.539,201.652,205.754,208.363,212.466,215.12,219.223,223.325,227.941,232.044,236.146,238.755,241.363,245.979,248.633,252.736,257.352,261.967,264.622,268.238,270.847,275.463,280.078,282.687,285.8,288.408" svgx:width="0.5,0.44,0.5,0.44,0.44,0.5,0.25,0.33,0.44,0.5,0.44,0.33,0.39,0.28,0.5,0.28,0.44,0.25,0.44,0.44,0.5,0.44,0.44,0.28,0.28,0.5,0.25,0.25,0.28,0.5,0.44,0.25,0.5,0.5,0.5,0.5,0.25,0.33,0.44,0.28,0.44,0.25,0.44,0.44,0.5,0.44,0.44,0.28,0.28,0.5,0.25,0.44,0.5,0.5,0.25,0.39,0.28,0.5,0.5,0.28,0.33,0.28,0.33" style="fill:rgb(0,0,0);font-family:TimesNewRomanWGL;font-size:9.0px;stroke:none;">hanced reversible capacity, the good rate capacity and signifi-</text>
   <text y="437.0" x="59.5,63.501,67.501,72.015,74.522,76.82,80.821,85.334,89.335,91.842,95.842,98.141,101.655,104.162,108.163,112.676,115.183,117.69,120.197,122.703,127.217,129.515,136.522,140.522,145.036,147.334,151.848,155.849,158.147,165.153,169.154,171.661,176.175,178.681,183.195,185.493,189.494,192.0,194.507,197.518,200.025,204.538,209.052,211.559,215.559,220.073,222.371,224.878,229.392,231.69,234.196,238.71,242.711,245.009,249.523,252.029,256.543,261.057,263.355,265.862,270.375,274.376,278.89,281.9,285.901,288.408" svgx:width="0.44,0.44,0.5,0.28,0.25,0.44,0.5,0.44,0.28,0.44,0.25,0.39,0.28,0.44,0.5,0.28,0.28,0.28,0.28,0.5,0.25,0.78,0.44,0.5,0.25,0.5,0.44,0.25,0.78,0.44,0.28,0.5,0.28,0.5,0.25,0.44,0.28,0.28,0.33,0.28,0.5,0.5,0.28,0.44,0.5,0.25,0.28,0.5,0.25,0.28,0.5,0.44,0.25,0.5,0.28,0.5,0.5,0.25,0.28,0.5,0.44,0.5,0.33,0.44,0.28,0.33" style="fill:rgb(0,0,0);font-family:TimesNewRomanWGL;font-size:9.0px;stroke:none;">cant cycle stability may be mainly attributed to the high theoret-</text>
   <text y="450.0" x="59.5,62.255,66.504,70.753,73.507,75.757,76.674,80.923,85.172,89.934,94.182,98.431,101.186,103.941,108.703,110.953,111.869,116.631,119.89,122.14,123.057,131.319,136.081,142.841,145.353,147.603,148.519,151.274,156.036,160.285,162.535,163.452,166.206,173.461,178.223,181.482,186.244,191.006,195.255,200.016,202.266,203.183,207.432,212.194,216.955,221.717,226.479,230.728,233.483,236.238,241.0,243.754,246.509,251.271,253.521,254.438,259.2,262.458,264.708,265.625,269.874,274.123,277.382,282.143,286.905" svgx:width="0.28,0.44,0.44,0.28,0.25,0.55,0.44,0.44,0.5,0.44,0.44,0.28,0.28,0.5,0.25,0.55,0.5,0.33,0.25,0.55,0.89,0.5,0.72,0.25,0.25,0.55,0.28,0.5,0.44,0.25,0.55,0.28,0.78,0.5,0.33,0.5,0.5,0.44,0.5,0.25,0.55,0.44,0.5,0.5,0.5,0.5,0.44,0.28,0.28,0.5,0.28,0.28,0.5,0.25,0.55,0.5,0.33,0.25,0.55,0.44,0.44,0.33,0.5,0.5,0.5" style="fill:rgb(0,0,0);font-family:TimesNewRomanWGL;font-size:9.0px;stroke:none;">ical capacity of MnO, the improved conductivity of carbon</text>
  </g>
  <g begin="text">
   <text y="112.0" x="303.6,307.613,312.139,316.151,320.677,325.203,328.226,332.238,336.764,339.104,345.628,348.147,350.666,355.191,357.531,364.055,366.331,368.671,372.684,377.21,381.735,384.076,386.594,391.12,395.133,397.473,400.496,405.022,409.547,414.073,417.6,420.119,422.459,426.985,430.997,435.01,439.536,443.549,448.074,450.415,454.94,458.953,463.479,468.005,471.027,473.546,478.072,482.085,485.107,487.448,491.973,495.986,498.505,505.029,509.554,512.577,517.103,519.443,525.967,528.486,531.005" svgx:width="0.44,0.5,0.44,0.5,0.5,0.33,0.44,0.5,0.25,0.72,0.28,0.28,0.5,0.25,0.72,0.25,0.25,0.44,0.5,0.5,0.25,0.28,0.5,0.44,0.25,0.33,0.5,0.5,0.5,0.39,0.28,0.25,0.5,0.44,0.44,0.5,0.44,0.5,0.25,0.5,0.44,0.5,0.5,0.33,0.28,0.5,0.44,0.33,0.25,0.5,0.44,0.28,0.72,0.5,0.33,0.5,0.25,0.72,0.28,0.28,0.5" style="fill:rgb(0,0,0);font-family:TimesNewRomanWGL;font-size:9.0px;stroke:none;">anchored with N, and the robust beaded nanofiber network with</text>
   <text y="125.0" x="303.6,307.426,310.245,313.567,318.392,322.704,325.523,330.348,333.67,337.982,340.801,343.051,344.189,348.501,353.327,358.152,362.977,366.299,370.612,375.437,379.749,384.061,386.311,387.45,390.268,395.093,399.406,402.224,404.474,405.612,409.924,413.247,416.569,420.881,425.193,428.012,430.83,435.655,439.968,442.786,447.611,449.861,450.999,455.312,458.13,460.948,465.26,470.086,472.904,477.216,480.035,484.347,488.173,490.423,491.561,494.38,499.205,503.517,505.767,506.906,511.731,516.556,519.374,524.2,531.518" svgx:width="0.39,0.28,0.33,0.5,0.44,0.28,0.5,0.33,0.44,0.28,0.25,0.55,0.44,0.5,0.5,0.5,0.33,0.44,0.5,0.44,0.44,0.25,0.55,0.28,0.5,0.44,0.28,0.25,0.55,0.44,0.33,0.33,0.44,0.44,0.28,0.28,0.5,0.44,0.28,0.5,0.25,0.55,0.44,0.28,0.28,0.44,0.5,0.28,0.44,0.28,0.44,0.39,0.25,0.55,0.28,0.5,0.44,0.25,0.55,0.5,0.5,0.28,0.5,0.78,0.44" style="fill:rgb(0,0,0);font-family:TimesNewRomanWGL;font-size:9.0px;stroke:none;">structural endurance that effectively alleviates the volume</text>
   <text y="138.0" x="303.6,307.841,312.596,316.837,321.592,326.346,330.588,332.838,333.728,338.483,341.734,343.984,344.875,347.622,352.377,356.618,358.868,359.759,364.0,366.748,370.989,375.231,377.978,381.23,385.984,390.739,394.98,397.23,398.121,402.875,407.63,410.881,413.629,418.383,423.137,425.387,426.278,429.026,431.773,434.52,439.275,442.022,446.777,454.024,456.274,457.165,459.912,464.667,468.422,472.664,475.915,478.663,481.41,486.165,490.919,495.674,499.915,504.669,507.417,510.668,514.91,519.151,521.899,524.646,529.401,534.155" svgx:width="0.44,0.5,0.44,0.5,0.5,0.44,0.25,0.55,0.5,0.33,0.25,0.55,0.28,0.5,0.44,0.25,0.55,0.44,0.28,0.44,0.44,0.28,0.33,0.5,0.5,0.44,0.25,0.55,0.5,0.5,0.33,0.28,0.5,0.5,0.25,0.55,0.28,0.28,0.28,0.5,0.28,0.5,0.78,0.25,0.55,0.28,0.5,0.39,0.44,0.33,0.28,0.28,0.5,0.5,0.5,0.44,0.5,0.28,0.33,0.44,0.44,0.28,0.28,0.5,0.5,0.25" style="fill:rgb(0,0,0);font-family:TimesNewRomanWGL;font-size:9.0px;stroke:none;">change of the electrode during lithium insertion–extraction.</text>
  </g>
  <g begin="text">
   <text y="164.0" x="303.6,312.986,320.214,327.442,333.942,336.828,344.056,350.556,353.442,360.67" svgx:width="0.72,0.56,0.56,0.5,0.22,0.56,0.5,0.22,0.56,0.56" style="fill:rgb(0,0,0);font-family:ArialMT-Regular;font-size:13.0px;stroke:none;">Conclusion</text>
  </g>
  <g begin="text">
   <text y="177.0" x="303.6,310.172,312.681,317.255,321.828,326.402,330.463,333.03,335.539,340.113,344.174,348.235,352.809,356.87,361.443,363.952,368.526,372.587,377.161,381.735,384.806,387.373,391.947,396.008,399.078,401.587,405.648,409.709,412.78,417.354,421.928,426.502,429.01,433.584,437.645,440.212,446.784,451.358,454.429,459.003,461.512,465.572,470.146,474.207,478.781,483.355,486.426,490.487,495.061,497.57,504.142,506.708,509.275,513.849,516.358,524.433,529.007" svgx:width="0.72,0.25,0.5,0.5,0.5,0.44,0.28,0.25,0.5,0.44,0.44,0.5,0.44,0.5,0.25,0.5,0.44,0.5,0.5,0.33,0.28,0.5,0.44,0.33,0.25,0.44,0.44,0.33,0.5,0.5,0.5,0.25,0.5,0.44,0.28,0.72,0.5,0.33,0.5,0.25,0.44,0.5,0.44,0.5,0.5,0.33,0.44,0.5,0.25,0.72,0.28,0.28,0.5,0.25,0.89,0.5,0.72" style="fill:rgb(0,0,0);font-family:TimesNewRomanWGL;font-size:9.0px;stroke:none;">A novel beaded nanofiber carbon network anchored with MnO</text>
   <text y="190.0" x="303.6,307.743,312.4,317.056,319.854,326.508,329.306,335.961,340.104,343.761,346.559,349.713,353.856,358.512,361.666,364.315,368.459,372.602,375.252,379.395,384.052,386.849,391.506,394.155,398.299,401.096,405.24,408.037,411.695,416.351,421.008,423.657,428.314,432.457,436.115,438.764,442.422,445.219,448.373,453.029,457.686,460.335,464.479,467.276,471.933,475.086,477.884,482.027,484.677,488.82,492.964,495.613,498.767,503.423,507.08,511.737,514.386,519.043,523.699,526.349,531.005" svgx:width="0.44,0.5,0.5,0.25,0.72,0.25,0.72,0.44,0.39,0.25,0.33,0.44,0.5,0.33,0.28,0.44,0.44,0.28,0.44,0.5,0.25,0.5,0.28,0.44,0.25,0.44,0.25,0.39,0.5,0.5,0.28,0.5,0.44,0.39,0.28,0.39,0.25,0.33,0.5,0.5,0.28,0.44,0.25,0.5,0.33,0.25,0.44,0.28,0.44,0.44,0.28,0.33,0.5,0.39,0.5,0.28,0.5,0.5,0.28,0.5,0.5" style="fill:rgb(0,0,0);font-family:TimesNewRomanWGL;font-size:9.0px;stroke:none;">and N was fabricated via a synthesis route of electrospinning</text>
   <text y="203.0" x="303.6,306.803,311.509,314.208,316.907,321.613,328.317,332.51,337.216,339.466,340.187,344.893,349.599,351.849,352.57,357.276,360.479,364.672,369.378,374.084,376.783,381.489,385.682,388.381,391.08,395.786,400.492,402.742,403.463,406.162,410.868,413.118,413.839,418.032,420.731,423.934,426.184,426.905,431.098,435.804,440.51,442.76,443.481,448.187,452.893,456.6,459.299,463.492,467.685,470.888,475.594,480.3,485.006,487.705,491.898,496.091,498.79,501.489,506.195,510.901,513.1510000000001,513.872,516.571,521.277,523.527,524.248,530.952,534.155" svgx:width="0.33,0.5,0.28,0.28,0.5,0.72,0.44,0.5,0.25,0.55,0.5,0.5,0.25,0.55,0.5,0.33,0.44,0.5,0.5,0.28,0.5,0.44,0.28,0.28,0.5,0.5,0.25,0.55,0.28,0.5,0.25,0.55,0.44,0.28,0.33,0.25,0.55,0.44,0.5,0.5,0.25,0.55,0.5,0.5,0.39,0.28,0.44,0.44,0.33,0.5,0.5,0.5,0.28,0.44,0.44,0.28,0.28,0.5,0.5,0.25,0.55,0.28,0.5,0.25,0.55,0.72,0.33,0.25" style="fill:rgb(0,0,0);font-family:TimesNewRomanWGL;font-size:9.0px;stroke:none;">followed by preoxidation in air and postcarbonization in Ar.</text>
   <text y="216.0" x="303.6,309.66,314.226,321.285,325.85,329.903,332.966,337.019,341.585,344.065,350.629,353.188,355.747,360.313,362.793,365.352,369.918,373.971,376.452,381.017,385.07,389.123,393.689,397.742,402.308,404.788,409.354,413.407,417.973,422.539,425.602,428.16,432.726,436.779,439.842,442.322,446.375,450.428,453.491,458.057,462.623,467.189,469.669,474.235,478.288,480.847,487.411,491.976,495.039,499.605,502.086,506.139,510.704,514.757,519.323,523.889,526.952,531.005" svgx:width="0.67,0.5,0.78,0.5,0.44,0.33,0.44,0.5,0.25,0.72,0.28,0.28,0.5,0.25,0.28,0.5,0.44,0.25,0.5,0.44,0.44,0.5,0.44,0.5,0.25,0.5,0.44,0.5,0.5,0.33,0.28,0.5,0.44,0.33,0.25,0.44,0.44,0.33,0.5,0.5,0.5,0.25,0.5,0.44,0.28,0.72,0.5,0.33,0.5,0.25,0.44,0.5,0.44,0.5,0.5,0.33,0.44,0.5" style="fill:rgb(0,0,0);font-family:TimesNewRomanWGL;font-size:9.0px;stroke:none;">Compared with the beaded nanofiber carbon network anchored</text>
   <text y="229.0" x="303.6,310.255,312.905,315.556,320.213,323.013,331.171,335.828,342.484,345.284,349.428,354.085,358.742,361.543,365.687,370.344,374.488,379.145,383.803,386.957,391.101,395.758,398.558,405.214,407.864,410.514,415.171,417.971,424.627,427.034,429.834,432.484,435.134,437.935,442.079,446.736,451.393,454.043,458.701,461.351,464.001,468.145,472.802,475.603,479.747,484.404,487.204,491.348,496.006,500.663,504.807,509.464,513.608,517.753,522.41,525.21,528.364,532.508" svgx:width="0.72,0.28,0.28,0.5,0.25,0.89,0.5,0.72,0.25,0.44,0.5,0.5,0.25,0.44,0.5,0.44,0.5,0.5,0.33,0.44,0.5,0.25,0.72,0.28,0.28,0.5,0.25,0.72,0.25,0.25,0.28,0.28,0.25,0.44,0.5,0.5,0.28,0.5,0.28,0.28,0.44,0.5,0.25,0.44,0.5,0.25,0.44,0.5,0.5,0.44,0.5,0.44,0.44,0.5,0.25,0.33,0.44,0.33" style="fill:rgb(0,0,0);font-family:TimesNewRomanWGL;font-size:9.0px;stroke:none;">with MnO and anchored with N, it exhibited an enhanced re-</text>
   <text y="242.0" x="303.6,308.151,312.189,315.237,318.789,321.333,325.884,328.428,332.466,334.894,338.932,342.97,347.521,351.559,355.597,358.141,360.685,365.236,367.665,374.214,376.758,379.302,383.853,386.281,390.832,395.383,399.934,404.485,406.914,409.962,414.0,416.544,420.582,423.01,427.048,431.086,435.637,439.675,443.713,446.257,448.801,453.352,455.78,459.818,464.369,468.92,471.349,474.901,477.445,481.996,486.547,489.091,492.139,494.683,498.721,502.759,507.31,509.854,512.282,515.33,519.368,523.406,527.957,532.508" svgx:width="0.5,0.44,0.33,0.39,0.28,0.5,0.28,0.44,0.25,0.44,0.44,0.5,0.44,0.44,0.28,0.28,0.5,0.25,0.72,0.28,0.28,0.5,0.25,0.5,0.5,0.5,0.5,0.25,0.33,0.44,0.28,0.44,0.25,0.44,0.44,0.5,0.44,0.44,0.28,0.28,0.5,0.25,0.44,0.5,0.5,0.25,0.39,0.28,0.5,0.5,0.28,0.33,0.28,0.44,0.44,0.5,0.28,0.25,0.33,0.44,0.44,0.5,0.5,0.33" style="fill:rgb(0,0,0);font-family:TimesNewRomanWGL;font-size:9.0px;stroke:none;">versible capacity with good rate capacity and significant recov-</text>
   <text y="255.0" x="303.6,307.622,310.654,314.676,319.212,321.74,324.268,326.796,329.324,333.859,336.232,342.765,347.3,351.323,355.858,358.231,362.766,366.302,370.324,374.859,377.232,381.254,384.79,387.163,391.185,393.558,399.083,402.116,408.145,410.518,414.54,419.075,423.61,428.145,432.167,434.452,436.825,442.351,446.886,449.414,452.95,455.323,457.851,461.387,463.76,470.788,474.81,477.339,481.874,484.402,488.937,491.31,495.332,497.86,500.388,503.42,505.949,510.484,515.019,517.547,521.569,526.104,528.477,531.005" svgx:width="0.44,0.33,0.44,0.5,0.28,0.28,0.28,0.28,0.5,0.25,0.72,0.5,0.44,0.5,0.25,0.5,0.39,0.44,0.5,0.25,0.44,0.39,0.25,0.44,0.25,0.61,0.33,0.67,0.25,0.44,0.5,0.5,0.5,0.44,0.25,0.25,0.61,0.5,0.28,0.39,0.25,0.28,0.39,0.25,0.78,0.44,0.28,0.5,0.28,0.5,0.25,0.44,0.28,0.28,0.33,0.28,0.5,0.5,0.28,0.44,0.5,0.25,0.28,0.5" style="fill:rgb(0,0,0);font-family:TimesNewRomanWGL;font-size:9.0px;stroke:none;">erability when used as a LIB anode. This is mainly attributed to</text>
   <text y="268.0" x="303.6,306.188,310.782,314.864,317.444,322.039,324.626,329.221,333.815,336.396,338.984,343.578,347.66,352.254,355.346,359.427,362.015,364.602,368.684,372.765,375.353,377.934,382.015,386.097,390.691,394.773,398.854,401.442,404.029,408.624,411.205,415.286,419.881,424.475,427.056,431.138,435.732,440.327,444.408,449.003,453.084,457.166,461.76,464.341,467.433,471.514,475.596,479.677,482.265,484.852,489.447,494.041,496.622,501.217,503.804,508.399,512.48,515.068,517.655,521.737,525.332,527.913,532.508" svgx:width="0.28,0.5,0.44,0.25,0.5,0.28,0.5,0.5,0.25,0.28,0.5,0.44,0.5,0.33,0.44,0.28,0.28,0.44,0.44,0.28,0.25,0.44,0.44,0.5,0.44,0.44,0.28,0.28,0.5,0.25,0.44,0.5,0.5,0.25,0.44,0.5,0.5,0.44,0.5,0.44,0.44,0.5,0.25,0.33,0.44,0.44,0.44,0.28,0.28,0.5,0.5,0.25,0.5,0.28,0.5,0.44,0.28,0.28,0.44,0.39,0.25,0.5,0.33" style="fill:rgb(0,0,0);font-family:TimesNewRomanWGL;font-size:9.0px;stroke:none;">the high theoretical capacity and enhanced reaction kinetics of</text>
   <text y="281.0" x="303.6,311.779,316.456,323.132,325.56,328.431,331.102,335.78,339.944,342.816,345.487,352.658,357.335,360.51,365.188,369.865,374.03,378.708,381.579,385.744,390.422,395.099,399.777,404.455,408.619,411.29,413.961,418.638,421.309,423.98,428.657,431.529,436.207,439.382,442.253,446.418,450.583,453.757,458.435,463.113,467.79,470.662,474.827,479.504,483.669,488.347,493.024,496.199,500.364,505.041,507.913,514.589,517.26,519.93,524.608,527.48,534.155" svgx:width="0.89,0.5,0.72,0.25,0.25,0.28,0.5,0.44,0.25,0.28,0.78,0.5,0.33,0.5,0.5,0.44,0.5,0.25,0.44,0.5,0.5,0.5,0.5,0.44,0.28,0.28,0.5,0.28,0.28,0.5,0.25,0.5,0.33,0.25,0.44,0.44,0.33,0.5,0.5,0.5,0.25,0.44,0.5,0.44,0.5,0.5,0.33,0.44,0.5,0.25,0.72,0.28,0.28,0.5,0.25,0.72,0.25" style="fill:rgb(0,0,0);font-family:TimesNewRomanWGL;font-size:9.0px;stroke:none;">MnO, the improved conductivity of carbon anchored with N,</text>
   <text y="294.0" x="303.6,307.702,312.316,316.931,319.582,322.19,326.804,330.906,333.557,336.669,341.283,345.898,350.513,354.128,356.736,359.387,363.003,365.61,368.722,373.337,377.438,380.046,384.66,387.772,391.874,394.481,397.132,401.234,405.849,410.463,415.078,418.19,422.291,426.906,431.007,435.109,437.474,440.125,444.226,447.338,450.45,454.551,458.653,461.261,463.868,468.483,472.584,475.192,479.807,482.458,486.559,489.167,491.775,495.876,500.491,503.099,507.2,509.808,512.415,517.03,521.645,524.296,526.903,531.518" svgx:width="0.44,0.5,0.5,0.25,0.28,0.5,0.44,0.25,0.33,0.5,0.5,0.5,0.39,0.28,0.25,0.39,0.28,0.33,0.5,0.44,0.28,0.5,0.33,0.44,0.28,0.25,0.44,0.5,0.5,0.5,0.33,0.44,0.5,0.44,0.44,0.25,0.25,0.44,0.33,0.33,0.44,0.44,0.28,0.28,0.5,0.44,0.28,0.5,0.25,0.44,0.28,0.28,0.44,0.5,0.28,0.44,0.28,0.28,0.5,0.5,0.25,0.28,0.5,0.44" style="fill:rgb(0,0,0);font-family:TimesNewRomanWGL;font-size:9.0px;stroke:none;">and the robust structural endurance, effectively alleviating the</text>
   <text y="307.0" x="303.6,308.13,311.158,315.688,320.218,322.742,326.759,333.782,336.138,340.669,343.696,346.052,350.583,355.113,357.636,362.167,369.19,373.207,375.563,379.581,384.111,388.128,392.659,397.189,401.206,403.487,405.843,411.363,415.894,419.911,422.267,428.795,433.326,436.353,440.883,443.239,447.77,450.797,455.327,459.858,462.381,466.911,470.929,474.46,476.816,480.834,485.364,489.894,492.418,496.948,500.965,503.993,506.349,510.366,513.393,517.411,521.941,524.464,528.995,531.518" svgx:width="0.5,0.33,0.5,0.5,0.28,0.44,0.78,0.25,0.5,0.33,0.25,0.5,0.5,0.28,0.5,0.78,0.44,0.25,0.44,0.5,0.44,0.5,0.5,0.44,0.25,0.25,0.61,0.5,0.44,0.25,0.72,0.5,0.33,0.5,0.25,0.5,0.33,0.5,0.5,0.28,0.5,0.44,0.39,0.25,0.44,0.5,0.5,0.28,0.5,0.44,0.33,0.25,0.44,0.33,0.44,0.5,0.28,0.5,0.28,0.44" style="fill:rgb(0,0,0);font-family:TimesNewRomanWGL;font-size:9.0px;stroke:none;">problem of volume change. The work provides another credible</text>
   <text y="320.0" x="303.6,310.271,314.943,318.113,322.785,325.64,329.313,333.986,338.658,343.331,348.004,351.173,353.839,356.505,361.177,365.85,368.704,371.37,376.042,380.202,382.867,385.721,388.387,393.06,397.219,400.073,402.739,405.909,410.068,414.741,418.415,421.08,423.746,426.411,431.084,435.757,438.611,445.776,449.936,452.602,456.761,459.427,462.281,466.954,471.626,474.292,478.964,483.124,485.978,490.651,494.81,498.484,502.644,507.316,510.17,514.33,518.49,521.659,526.332,531.004" svgx:width="0.72,0.5,0.33,0.5,0.25,0.39,0.5,0.5,0.5,0.5,0.33,0.28,0.28,0.5,0.5,0.25,0.28,0.5,0.44,0.28,0.25,0.28,0.5,0.44,0.25,0.28,0.33,0.44,0.5,0.39,0.28,0.28,0.28,0.5,0.5,0.25,0.78,0.44,0.28,0.44,0.28,0.25,0.5,0.5,0.28,0.5,0.44,0.25,0.5,0.44,0.39,0.44,0.5,0.25,0.44,0.44,0.33,0.5,0.5,0.5" style="fill:rgb(0,0,0);font-family:TimesNewRomanWGL;font-size:9.0px;stroke:none;">work supporting that the transition metal oxide based carbon</text>
   <text y="333.0" x="303.6,310.766,314.925,317.591,321.75,324.92,327.586,331.745,334.411,338.085,340.939,345.098,349.258,353.931,356.785,361.457,365.617,368.471,372.145,376.817,380.977,385.136,389.296,392.97,396.643,399.813,404.486,407.151,409.817,414.489,417.344,421.503,426.176,430.848,433.514,436.18,440.339,445.012,447.866,451.036,455.708,458.878,461.732,467.395,470.564,476.731,479.585,483.745,486.41,490.57,494.729,497.395,500.565,505.237,509.91,514.07,517.743" svgx:width="0.78,0.44,0.28,0.44,0.33,0.28,0.44,0.28,0.39,0.25,0.44,0.44,0.5,0.25,0.5,0.44,0.25,0.39,0.5,0.44,0.44,0.44,0.39,0.39,0.33,0.5,0.28,0.28,0.5,0.25,0.44,0.5,0.5,0.28,0.28,0.44,0.5,0.25,0.33,0.5,0.33,0.25,0.61,0.33,0.67,0.25,0.44,0.28,0.44,0.44,0.28,0.33,0.5,0.5,0.44,0.39,0.25" style="fill:rgb(0,0,0);font-family:TimesNewRomanWGL;font-size:9.0px;stroke:none;">materials can be successfully applied for LIB electrodes.</text>
  </g>
  <g begin="text">
   <text y="357.0" x="303.6,312.258,318.758,325.986,333.214,337.543,340.429,351.258,358.486,365.714,369.315,376.543" svgx:width="0.67,0.5,0.56,0.56,0.33,0.22,0.83,0.56,0.56,0.28,0.56,0.22" style="fill:rgb(0,0,0);font-family:ArialMT-Regular;font-size:13.0px;stroke:none;">Experimental</text>
  </g>
  <g begin="text">
   <text y="372.0" x="303.6,310.615,317.009,323.403,327.233,329.786,335.536,341.93,345.115,347.668,354.062,360.456,363.642,370.036,373.221,376.407,379.592,385.986,392.38,395.566,401.316,407.71,411.539,417.933,424.327,430.721,433.907,440.301,446.695,449.88,458.183,464.577,468.407" svgx:width="0.61,0.56,0.56,0.33,0.22,0.5,0.56,0.28,0.22,0.56,0.56,0.28,0.56,0.28,0.28,0.28,0.56,0.56,0.28,0.5,0.56,0.33,0.56,0.56,0.56,0.28,0.56,0.56,0.28,0.72,0.56,0.33,0.5" style="fill:rgb(0,0,0);font-family:ArialMT-Regular;font-size:11.5px;stroke:none;">Fabrication of the carbon network</text>
  </g>
  <g begin="text">
   <text y="385.0" x="303.6,310.17,312.736,315.301,317.805,321.864,326.437,330.496,337.562,340.127,344.187,348.246,350.812,354.385,356.889,363.459,367.519,370.588,374.647,377.151,381.724,384.793,387.297,391.356,395.928,399.988,402.553,407.126,409.691,412.257,416.316,420.376,422.941,425.445,430.017,434.077,438.649,441.719,445.778,449.837,452.341,456.4,460.973,465.545,468.049,474.619,478.679,481.748,485.808,488.311,492.884,496.457,500.517,505.089,507.593,514.163,516.729,519.294,523.867,528.439,533.011" svgx:width="0.72,0.28,0.28,0.25,0.44,0.5,0.44,0.78,0.28,0.44,0.44,0.28,0.39,0.25,0.72,0.44,0.33,0.44,0.25,0.5,0.33,0.25,0.44,0.5,0.44,0.28,0.5,0.28,0.28,0.44,0.44,0.28,0.25,0.5,0.44,0.5,0.33,0.44,0.44,0.25,0.44,0.5,0.5,0.25,0.72,0.44,0.33,0.44,0.25,0.5,0.39,0.44,0.5,0.25,0.72,0.28,0.28,0.5,0.5,0.5,0.28" style="fill:rgb(0,0,0);font-family:TimesNewRomanWGL;font-size:9.0px;stroke:none;">All chemicals were of analytical degree and were used without</text>
   <text y="398.0" x="303.6,307.865,312.644,317.422,319.672,320.647,325.426,330.204,333.479,336.251,339.526,342.298,346.563,350.829,353.6,356.372,361.15,365.929,368.457,370.707,371.682,378.458,380.708,381.683,384.454,389.233,394.011,396.783,401.048,405.314,408.085,410.335,411.31,416.088,419.364,424.142,428.407,432.673,437.451,442.23,445.505,449.771,452.021,452.995,455.767,459.546,461.796,462.771,467.036,470.816,473.066,474.04,477.316,482.094,484.866,487.637,492.416,499.192,502.972,505.5,507.75,508.725,514.007,516.779,520.054,523.834,526.605,529.377,534.155" svgx:width="0.44,0.5,0.5,0.25,0.55,0.5,0.5,0.33,0.28,0.33,0.28,0.44,0.44,0.28,0.28,0.5,0.5,0.25,0.25,0.55,0.72,0.25,0.55,0.28,0.5,0.5,0.28,0.44,0.44,0.28,0.25,0.55,0.5,0.33,0.5,0.44,0.44,0.5,0.5,0.33,0.44,0.25,0.55,0.28,0.39,0.25,0.55,0.44,0.39,0.25,0.55,0.33,0.5,0.28,0.28,0.5,0.72,0.39,0.25,0.25,0.55,0.56,0.28,0.33,0.39,0.28,0.28,0.5,0.25" style="fill:rgb(0,0,0);font-family:TimesNewRomanWGL;font-size:9.0px;stroke:none;">any purification. A typical procedure is as follows. Firstly,</text>
   <text y="411.0" x="303.6,308.164,310.478,315.042,319.606,322.079,326.643,329.117,333.681,336.742,339.215,346.272,350.323,354.887,359.451,363.502,368.066,372.117,375.682,379.732,382.206,386.257,390.308,394.359,396.916,400.967,403.523,407.574,410.048,412.605,416.656,419.213,422.274,426.325,430.888,435.452,440.016,443.077,447.128,449.685,453.736,456.21,459.27,467.335,471.899,474.96,481.018,487.58,494.142,500.704" svgx:width="0.5,0.25,0.5,0.5,0.25,0.5,0.25,0.5,0.33,0.25,0.78,0.44,0.5,0.5,0.44,0.5,0.44,0.39,0.44,0.25,0.44,0.44,0.44,0.28,0.44,0.28,0.44,0.25,0.28,0.44,0.28,0.33,0.44,0.5,0.5,0.5,0.33,0.44,0.28,0.44,0.25,0.33,0.89,0.5,0.33,0.67,0.72,0.72,0.72,0.33" style="fill:rgb(0,0,0);font-family:TimesNewRomanWGL;font-size:9.0px;stroke:none;">0.45 g of manganese acetate tetrahydrate (Mn(COOH)</text>
   <text y="412.8" x="503.765" svgx:width="0.5" style="fill:rgb(0,0,0);font-family:TimesNewRomanWGL;font-size:7.2px;stroke:none;">2</text>
   <text y="411.0" x="507.429,509.742,514.306" svgx:width="0.25,0.5,0.72" style="fill:rgb(0,0,0);font-family:TimesNewRomanWGL;font-size:9.0px;stroke:none;">·4H</text>
   <text y="412.8" x="520.868" svgx:width="0.5" style="fill:rgb(0,0,0);font-family:TimesNewRomanWGL;font-size:7.2px;stroke:none;">2</text>
   <text y="411.0" x="524.532,531.094,534.155" svgx:width="0.72,0.33,0.25" style="fill:rgb(0,0,0);font-family:TimesNewRomanWGL;font-size:9.0px;stroke:none;">O),</text>
   <text y="424.0" x="303.6,306.152,310.712,315.271,319.318,321.87,326.429,330.476,333.532,335.99,342.547,345.1,347.652,352.211,354.669,359.229,361.538,366.097,370.657,373.115,377.674,380.132,382.684,385.741,388.293,392.852,397.412,399.964,404.523,408.57,413.129,417.176,421.735,425.781,432.834,435.386,439.945,443.992,446.45,449.506" svgx:width="0.28,0.5,0.5,0.44,0.28,0.5,0.44,0.33,0.25,0.72,0.28,0.28,0.5,0.25,0.5,0.25,0.5,0.5,0.25,0.5,0.25,0.28,0.33,0.28,0.5,0.5,0.28,0.5,0.44,0.5,0.44,0.5,0.44,0.78,0.28,0.5,0.44,0.25,0.33,0.67" style="fill:rgb(0,0,0);font-family:TimesNewRomanWGL;font-size:9.0px;stroke:none;">together with 0.05 g tripolycyanamide (C</text>
   <text y="425.8" x="455.559" svgx:width="0.5" style="fill:rgb(0,0,0);font-family:TimesNewRomanWGL;font-size:7.2px;stroke:none;">3</text>
   <text y="424.0" x="459.219" svgx:width="0.72" style="fill:rgb(0,0,0);font-family:TimesNewRomanWGL;font-size:9.0px;stroke:none;">N</text>
   <text y="425.8" x="465.776" svgx:width="0.5" style="fill:rgb(0,0,0);font-family:TimesNewRomanWGL;font-size:7.2px;stroke:none;">3</text>
   <text y="424.0" x="469.436,472.492,479.049" svgx:width="0.33,0.72,0.72" style="fill:rgb(0,0,0);font-family:TimesNewRomanWGL;font-size:9.0px;stroke:none;">(NH</text>
   <text y="425.8" x="485.607" svgx:width="0.5" style="fill:rgb(0,0,0);font-family:TimesNewRomanWGL;font-size:7.2px;stroke:none;">2</text>
   <text y="424.0" x="489.266" svgx:width="0.33" style="fill:rgb(0,0,0);font-family:TimesNewRomanWGL;font-size:9.0px;stroke:none;">)</text>
   <text y="425.8" x="492.322" svgx:width="0.5" style="fill:rgb(0,0,0);font-family:TimesNewRomanWGL;font-size:7.2px;stroke:none;">3</text>
   <text y="424.0" x="495.982,499.038,501.496,505.542,510.102,514.661,517.119,521.678,523.988,528.547,531.005" svgx:width="0.33,0.25,0.44,0.5,0.5,0.25,0.5,0.25,0.5,0.25,0.5" style="fill:rgb(0,0,0);font-family:TimesNewRomanWGL;font-size:9.0px;stroke:none;">) and 0.4 g</text>
   <text y="437.0" x="303.6,308.726,315.346,321.966,324.643,331.263,335.371,338.49,342.599,345.276,349.898,352.513,356.136,359.759,364.381,366.996,371.618,375.727,380.349,383.025,385.64,390.262,392.939,397.561,400.238,407.353,412.965" svgx:width="0.56,0.72,0.72,0.25,0.72,0.44,0.33,0.44,0.25,0.5,0.28,0.39,0.39,0.5,0.28,0.5,0.44,0.5,0.25,0.28,0.5,0.25,0.5,0.25,0.78,0.61,0.25" style="fill:rgb(0,0,0);font-family:TimesNewRomanWGL;font-size:9.0px;stroke:none;">PAN were dissolved in 5 mL </text>
   <text y="437.0" x="415.641" svgx:width="0.67" style="fill:rgb(0,0,0);font-family:TimesNewRomanWGL-Italic;font-size:9.0px;stroke:none;">N</text>
   <text y="437.0" x="421.757" svgx:width="0.25" style="fill:rgb(0,0,0);font-family:TimesNewRomanWGL;font-size:9.0px;stroke:none;">,</text>
   <text y="437.0" x="424.129" svgx:width="0.67" style="fill:rgb(0,0,0);font-family:TimesNewRomanWGL-Italic;font-size:9.0px;stroke:none;">N</text>
   <text y="437.0" x="430.245,433.364,437.986,440.601,447.716,451.825,454.44,459.062,463.684,466.299,469.418,474.04,477.159,484.273,488.382,495.497,498.112,502.734,506.843,509.52,512.639,519.259,527.382,532.508" svgx:width="0.33,0.5,0.28,0.78,0.44,0.28,0.5,0.5,0.28,0.33,0.5,0.33,0.78,0.44,0.78,0.28,0.5,0.44,0.25,0.33,0.72,0.89,0.56,0.33" style="fill:rgb(0,0,0);font-family:TimesNewRomanWGL;font-size:9.0px;stroke:none;">-dimethylformamide (DMF)</text>
   <text y="450.0" x="303.6,310.224,312.843,315.461,320.087,322.778,326.89,331.516,336.142,338.761,341.38,346.006,350.631,355.257,359.883,363.51,366.2,369.827,372.446,375.065,378.187,381.31,383.929,388.555,393.181,395.871,398.994,403.62,406.743,409.433,413.06,417.173,421.798,425.911,429.034,433.147,435.766,438.456,443.082,447.708,452.334,455.456,459.083,461.774,465.886,468.505,471.196,475.821,480.447,483.138,486.854,492.974,495.665,498.283,502.909,505.6,510.225,514.851,517.47,521.583,524.202,528.828,531.518" svgx:width="0.72,0.28,0.28,0.5,0.25,0.44,0.5,0.5,0.28,0.28,0.5,0.5,0.5,0.5,0.39,0.25,0.39,0.28,0.28,0.33,0.33,0.28,0.5,0.5,0.25,0.33,0.5,0.33,0.25,0.39,0.44,0.5,0.44,0.33,0.44,0.28,0.25,0.5,0.5,0.5,0.33,0.39,0.25,0.44,0.28,0.25,0.5,0.5,0.25,0.4,0.67,0.25,0.28,0.5,0.25,0.5,0.5,0.28,0.44,0.28,0.5,0.25,0.44" style="fill:rgb(0,0,0);font-family:TimesNewRomanWGL;font-size:9.0px;stroke:none;">with continuous stirring for several hours at 60 °C to obtain a</text>
  </g>
 </g>
</svg>
