<?xml version="1.0" encoding="UTF-8"?>
<svg height="802.1" width="4126.55" xmlns="http://www.w3.org/2000/svg">
 <g id="page" xmlns:svgx="http://www.xml-cml.org/schema/svgx">
  <g begin="text"/>
  <g begin="text">
   <text y="73.23" x="390.39,395.052,398.944,400.498,402.052,405.552,407.491,411.383,412.937,416.829,418.768,422.268,424.207,426.146,431.2,435.092,438.984,442.876,444.815,448.707,452.207,456.099,459.991,463.883,465.437" svgx:width="0.67,0.56,0.22,0.22,0.5,0.28,0.56,0.22,0.56,0.28,0.5,0.28,0.28,0.72,0.56,0.56,0.56,0.28,0.56,0.5,0.56,0.56,0.56,0.22,0.28" style="fill:rgb(0,0,0);font-family:ArialMT-Italic;font-size:7.0px;stroke:none;">Beilstein J. Nanotechnol.</text>
   <text y="73.23" x="467.376" svgx:width="0.28" style="fill:rgb(0,0,0);font-family:ArialMT-Regular;font-size:7.0px;stroke:none;"> </text>
   <text y="73.23" x="469.315,473.207,477.099,480.991,484.883" svgx:width="0.56,0.56,0.56,0.56,0.28" style="fill:rgb(0,0,0);font-family:ArialMT-Bold;font-size:7.0px;stroke:none;">2016,</text>
   <text y="73.23" x="486.822" svgx:width="0.28" style="fill:rgb(0,0,0);font-family:ArialMT-Regular;font-size:7.0px;stroke:none;"> </text>
   <text y="73.23" x="488.761,492.653" svgx:width="0.56,0.28" style="fill:rgb(0,0,0);font-family:ArialMT-Italic;font-size:7.0px;stroke:none;">7,</text>
   <text y="73.23" x="494.592,496.531,500.423,504.315,508.207,512.099,515.991,519.883,523.775,527.667,531.559" svgx:width="0.28,0.56,0.56,0.56,0.56,0.56,0.56,0.56,0.56,0.56,0.28" style="fill:rgb(0,0,0);font-family:ArialMT-Regular;font-size:7.0px;stroke:none;"> 1289–1295.</text>
  </g>
  <g begin="text">
   <text y="792.1" x="517.93,521.822,525.714,529.606" svgx:width="0.56,0.56,0.56,0.56" style="fill:rgb(0,0,0);font-family:ArialMT-Regular;font-size:7.0px;stroke:none;">1291</text>
  </g>
  <path style="fill:none;stroke:rgb(218,218,218);stroke-width:1.0;" d="M59.500 105.050 L535.500 105.050 "/>
  <path style="fill:none;stroke:rgb(218,218,218);stroke-width:0.5;" d="M535.250 104.800 L535.250 410.960 "/>
  <path style="fill:none;stroke:rgb(218,218,218);stroke-width:0.5;" d="M59.750 104.800 L59.750 410.960 "/>
  <path style="fill:none;stroke:rgb(218,218,218);stroke-width:0.5;" d="M535.500 436.750 L59.500 436.750 "/>
  <path style="fill:none;stroke:rgb(218,218,218);stroke-width:0.5;" d="M535.250 410.960 L535.250 437.000 "/>
  <path style="fill:none;stroke:rgb(218,218,218);stroke-width:0.5;" d="M59.750 410.960 L59.750 437.000 "/>
  <rect style="stroke:blue;stroke-width:0.3;" x="116.55" y="70.71" height="290.35" width="361.89" title="3"/>
  <text y="70.71" class="image" id="image.3.1" width="361" height="290" x="116.55">image.3.1.117_478.71_361</text>
  <g begin="text"/>
  <g begin="text">
   <text y="422.03" x="65.47,69.74,71.679,75.949,80.219,82.942,86.834,88.773,92.665,94.996" svgx:width="0.61,0.28,0.61,0.61,0.39,0.56,0.28,0.56,0.33,0.28" style="fill:rgb(0,0,0);font-family:ArialMT-Bold;font-size:7.0px;stroke:none;">Figure 2: </text>
   <text y="422.03" x="96.935,99.266,103.158,105.489,107.428,112.09,117.144,122.198,124.137,128.029,131.921,133.86,135.799,139.691,142.022,145.914,147.853,151.745,155.637,159.529,161.468,166.522,170.414,176.245,180.137,184.029,185.968,189.468,193.36,197.252,200.752,202.691,205.022,208.914,214.745,216.684,219.015,220.569,224.461,227.961,231.853,233.792,236.123,238.062,240.001,242.332,246.224,248.555,250.494,252.433,256.325,257.879,259.433,261.372,264.872,268.372,272.264,276.156,278.095,282.757,287.419,292.081,294.02,297.52,301.412,305.304,308.804,310.743,313.074,316.966,322.797,324.736,326.675,329.006,332.506,336.398,340.29,342.621,344.56,348.452,350.006,353.898,357.79,360.121,362.452,366.344,369.844,373.736,375.29,379.182,381.121,382.675,386.567,390.459,392.398,397.06,401.722,406.384,408.323,411.823,415.715,419.607,423.107,425.046,427.377,431.269,433.208,437.1,439.039,440.978,446.032,447.971,451.863,455.363,457.302,459.241,464.295,466.234,470.126,473.626,475.565,477.504,481.396,485.288,489.18,491.119,496.95,500.842,502.781,506.673,510.565,512.504,516.396" svgx:width="0.33,0.56,0.33,0.28,0.67,0.72,0.72,0.28,0.56,0.56,0.28,0.28,0.56,0.33,0.56,0.28,0.56,0.56,0.56,0.28,0.72,0.56,0.83,0.56,0.56,0.28,0.5,0.56,0.56,0.5,0.28,0.33,0.56,0.83,0.28,0.33,0.22,0.56,0.5,0.56,0.28,0.33,0.28,0.28,0.33,0.56,0.33,0.28,0.28,0.56,0.22,0.22,0.28,0.5,0.5,0.56,0.56,0.28,0.67,0.67,0.67,0.28,0.5,0.56,0.56,0.5,0.28,0.33,0.56,0.83,0.28,0.28,0.33,0.5,0.56,0.56,0.33,0.28,0.56,0.22,0.56,0.56,0.33,0.33,0.56,0.5,0.56,0.22,0.56,0.28,0.22,0.56,0.56,0.28,0.67,0.67,0.67,0.28,0.5,0.56,0.56,0.5,0.28,0.33,0.56,0.28,0.56,0.28,0.28,0.72,0.28,0.56,0.5,0.28,0.28,0.72,0.28,0.56,0.5,0.28,0.28,0.56,0.56,0.56,0.28,0.83,0.56,0.28,0.56,0.56,0.28,0.56,0.28" style="fill:rgb(0,0,0);font-family:ArialMT-Regular;font-size:7.0px;stroke:none;">(a) XRD pattern and Raman spectrum (inset), (b) full scan XPS spectrum, (c–e) high-resolution XPS spectra of C 1s, N 1s, and Mn 2p of</text>
   <text y="431.03" x="65.47,67.409,71.301,75.193,77.132,80.632,84.524,86.078,89.97,93.862,95.416,99.308,101.639,103.193,104.747,108.247,112.139,114.078,117.578,121.47,123.801,127.693,131.585,135.477,137.416,141.308,145.2,149.092,152.984,154.923,156.477,160.369,164.261,166.592,170.092,172.031,175.923,179.815,183.315,187.207,191.099,193.43,197.322,201.214,203.153,208.207,209.761,211.7,215.592,217.531,223.362,227.254,232.693,234.632,238.524,242.416,246.308,248.247,253.301" svgx:width="0.28,0.56,0.56,0.28,0.5,0.56,0.22,0.56,0.56,0.22,0.56,0.33,0.22,0.22,0.5,0.56,0.28,0.5,0.56,0.33,0.56,0.56,0.56,0.28,0.56,0.56,0.56,0.56,0.28,0.22,0.56,0.56,0.33,0.5,0.28,0.56,0.56,0.5,0.56,0.56,0.33,0.56,0.56,0.28,0.72,0.22,0.28,0.56,0.28,0.83,0.56,0.78,0.28,0.56,0.56,0.56,0.28,0.72,0.28" style="fill:rgb(0,0,0);font-family:ArialMT-Regular;font-size:7.0px;stroke:none;">the spindle-like carbon nanofibers anchored with MnO and N.</text>
  </g>
  <g begin="text">
   <text y="463.0" x="59.5,64.168,66.83,70.985,75.654,79.809,83.478,86.318,90.986,94.152,96.991,101.147,105.815,110.483,113.145,117.3,120.14,128.309,132.977,139.644,142.483,145.649,149.318,155.481,160.653,167.319,172.492,175.331,180.0,184.668,187.833,192.502,197.17,201.839,206.507,209.673,212.512,215.677,220.346,223.511,225.93,228.769,234.427,239.096,243.251,246.091,250.759,253.925,258.593,262.748,267.417,270.256,274.925,279.08,283.235,287.904" svgx:width="0.5,0.28,0.44,0.5,0.44,0.39,0.25,0.5,0.33,0.25,0.44,0.5,0.5,0.28,0.44,0.25,0.89,0.5,0.72,0.25,0.33,0.39,0.67,0.56,0.72,0.56,0.25,0.5,0.5,0.33,0.5,0.5,0.5,0.5,0.33,0.25,0.33,0.5,0.33,0.25,0.25,0.61,0.5,0.44,0.25,0.5,0.33,0.5,0.44,0.5,0.25,0.5,0.44,0.44,0.5,0.39" style="fill:rgb(0,0,0);font-family:TimesNewRomanWGL;font-size:9.0px;stroke:none;">planes of cubic MnO (JCPDS 07-0230) [5]. The broad peaks</text>
   <text y="476.0" x="59.5,66.206,68.906,71.607,76.315,78.565,79.291,85.997,90.191,94.386,99.094,101.344,102.07,104.771,109.479,112.179,116.374,121.082,124.79,127.491,130.191,134.899,137.149,137.876,140.576,145.284,149.992,152.692,156.887,161.082,163.782,167.977,170.227,170.954,173.654,178.362,182.556,185.257,187.507,188.234,192.428,194.678,195.405,198.106,202.813,209.519,211.769,212.496,216.69,221.398,226.106,228.806,233.001,237.708,240.409,242.659,243.386,248.093,251.298,253.548,254.275,258.982,263.177,267.885,272.592,276.787,279.992,284.699,288.408" svgx:width="0.72,0.28,0.28,0.5,0.25,0.55,0.72,0.44,0.44,0.5,0.25,0.55,0.28,0.5,0.28,0.44,0.5,0.39,0.28,0.28,0.5,0.25,0.55,0.28,0.5,0.5,0.28,0.44,0.44,0.28,0.44,0.25,0.55,0.28,0.5,0.44,0.28,0.25,0.55,0.44,0.25,0.55,0.28,0.5,0.72,0.25,0.55,0.44,0.5,0.5,0.28,0.44,0.5,0.28,0.25,0.55,0.5,0.33,0.25,0.55,0.5,0.44,0.5,0.5,0.44,0.33,0.5,0.39,0.33" style="fill:rgb(0,0,0);font-family:TimesNewRomanWGL;font-size:9.0px;stroke:none;">with weak intensity indicate that a low content of nanocrys-</text>
   <text y="489.0" x="59.5,62.068,66.129,68.697,71.265,73.832,78.407,82.469,84.98,93.056,97.63,104.203,106.714,109.282,112.858,115.369,118.441,123.015,127.59,132.165,136.739,139.251,141.818,146.393,148.905,151.472,156.047,160.109,162.62,166.196,170.257,177.325,181.9,184.467,188.529,190.854,193.365,199.938,204.512,207.024,211.598,216.173,220.748,223.315,227.89,232.465,236.04,238.552,242.613,246.675,249.747,254.321,258.896,263.471,265.982,269.558,272.125,276.7,281.275,285.336,287.904" svgx:width="0.28,0.44,0.28,0.28,0.28,0.5,0.44,0.25,0.89,0.5,0.72,0.25,0.28,0.39,0.25,0.33,0.5,0.5,0.5,0.5,0.25,0.28,0.5,0.25,0.28,0.5,0.44,0.25,0.39,0.44,0.78,0.5,0.28,0.44,0.25,0.25,0.72,0.5,0.25,0.5,0.5,0.5,0.28,0.5,0.5,0.39,0.25,0.44,0.44,0.33,0.5,0.5,0.5,0.25,0.39,0.28,0.5,0.5,0.44,0.28,0.39" style="fill:rgb(0,0,0);font-family:TimesNewRomanWGL;font-size:9.0px;stroke:none;">talline MnO is found in the sample. No obvious carbon signals</text>
   <text y="502.0" x="59.5,63.539,68.091,72.643,75.188,79.74,82.171,86.723,90.762,93.194,97.746,102.298,105.85,109.889,112.938,117.49,121.529,126.081,128.513,131.058,135.61,138.041,140.586,145.138,149.177,151.609,158.159,164.204,170.754,173.186,177.738,181.777,184.322,186.867,190.906,193.954,198.506,200.808,203.24,210.285,214.324,218.363,222.915,225.46,230.011,234.563,236.995,239.54,244.092,248.131,250.676,253.107,255.652,260.204,264.243,266.675,270.714,274.753,277.801,282.353,286.905" svgx:width="0.44,0.5,0.5,0.28,0.5,0.25,0.5,0.44,0.25,0.5,0.5,0.39,0.44,0.33,0.5,0.44,0.5,0.25,0.28,0.5,0.25,0.28,0.5,0.44,0.25,0.72,0.67,0.72,0.25,0.5,0.44,0.28,0.28,0.44,0.33,0.5,0.25,0.25,0.78,0.44,0.44,0.5,0.28,0.5,0.5,0.25,0.28,0.5,0.44,0.28,0.25,0.28,0.5,0.44,0.25,0.44,0.44,0.33,0.5,0.5,0.5" style="fill:rgb(0,0,0);font-family:TimesNewRomanWGL;font-size:9.0px;stroke:none;">could be observed in the XRD pattern, meaning that the carbon</text>
   <text y="515.0" x="59.5,64.088,68.163,72.751,77.339,80.424,83.005,87.594,91.669,94.754,98.343,100.901,105.489,109.564,112.649,115.23,119.818,123.894,128.482,131.04,134.125,137.21,141.798,148.879,151.438,154.019,158.607,162.682,165.24,169.315,173.39,176.475,181.063,185.651,190.239,192.821,196.896,200.971,203.552,206.133,210.721,215.309,217.867,222.455,225.54,228.099,230.68,235.268,239.343,241.901,246.489,251.077,253.658,258.247,262.322,266.397,269.482,274.07,276.651,281.239,285.827,288.408" svgx:width="0.5,0.44,0.5,0.5,0.33,0.28,0.5,0.44,0.33,0.39,0.25,0.5,0.44,0.33,0.28,0.5,0.44,0.5,0.25,0.33,0.33,0.5,0.78,0.25,0.28,0.5,0.44,0.25,0.44,0.44,0.33,0.5,0.5,0.5,0.28,0.44,0.44,0.28,0.28,0.5,0.5,0.25,0.5,0.33,0.25,0.28,0.5,0.44,0.25,0.5,0.5,0.28,0.5,0.44,0.44,0.33,0.5,0.28,0.5,0.5,0.28,0.33" style="fill:rgb(0,0,0);font-family:TimesNewRomanWGL;font-size:9.0px;stroke:none;">nanofibers derived from the carbonization of the polyacryloni-</text>
   <text y="528.0" x="59.5,62.094,65.192,67.786,70.38,74.468,77.072,80.17,85.276,91.875,98.474,101.572,104.176,108.777,111.875,115.963,120.051,124.652,127.75,131.352,135.954,139.052,141.655,146.257,150.345,153.947,156.551,160.639,165.24,167.844,171.932,179.026,183.627,186.725,191.326,195.927,200.528,205.13,208.732,211.336,214.938,217.532,220.63,225.231,229.319,231.913,236.514,239.612,243.7,246.052,248.655,254.246,258.848,262.936,265.54,271.635,275.723,282.817,286.905" svgx:width="0.28,0.33,0.28,0.28,0.44,0.25,0.33,0.56,0.72,0.72,0.33,0.25,0.5,0.33,0.44,0.44,0.5,0.33,0.39,0.5,0.33,0.25,0.5,0.44,0.39,0.25,0.44,0.5,0.25,0.44,0.78,0.5,0.33,0.5,0.5,0.5,0.5,0.39,0.25,0.39,0.28,0.33,0.5,0.44,0.28,0.5,0.33,0.44,0.25,0.25,0.61,0.5,0.44,0.25,0.67,0.44,0.78,0.44,0.5" style="fill:rgb(0,0,0);font-family:TimesNewRomanWGL;font-size:9.0px;stroke:none;">trile (PAN) precursor has an amorphous structure. The Raman</text>
   <text y="541.0" x="59.5,63.09,67.679,71.755,75.831,78.413,81.499,86.088,93.17,95.732,100.321,103.407,105.968,108.55,113.139,117.215,119.777,123.367,127.443,134.525,139.114,141.696,145.772,148.333,150.915,154.505,157.067,160.657,165.246,169.835,176.422,181.011,183.572,186.154,190.743,193.305,195.887,200.476,204.552,207.113,209.696,214.285,217.875,221.951,224.533,227.094,231.683,234.769,237.331,242.424,245.006,249.595,254.184,257.27,261.346,263.685,268.274,272.35,274.689,277.25,282.829,287.418" svgx:width="0.39,0.5,0.44,0.44,0.28,0.33,0.5,0.78,0.25,0.5,0.33,0.25,0.28,0.5,0.44,0.25,0.39,0.44,0.78,0.5,0.28,0.44,0.25,0.28,0.39,0.25,0.39,0.5,0.5,0.72,0.5,0.25,0.28,0.5,0.25,0.28,0.5,0.44,0.25,0.28,0.5,0.39,0.44,0.28,0.25,0.5,0.33,0.25,0.56,0.28,0.5,0.5,0.33,0.44,0.25,0.5,0.44,0.25,0.25,0.61,0.5,0.44" style="fill:rgb(0,0,0);font-family:TimesNewRomanWGL;font-size:9.0px;stroke:none;">spectrum of the sample is shown in the inset of Figure 2a. The</text>
   <text y="554.0" x="59.5,66.129,70.248,74.366,78.998,81.708,85.34,87.965,92.596,97.228,101.346,103.971,106.681,110.799,113.424,116.134,120.252,124.884,129.515,134.147,136.771,139.481,144.113,148.744,153.376,156.086,160.204" svgx:width="0.72,0.44,0.44,0.5,0.25,0.39,0.28,0.5,0.5,0.44,0.28,0.25,0.44,0.28,0.25,0.44,0.5,0.5,0.5,0.28,0.25,0.5,0.5,0.5,0.25,0.44,0.78" style="fill:rgb(0,0,0);font-family:TimesNewRomanWGL;font-size:9.0px;stroke:none;">weak signal at about 648 cm</text>
   <text y="550.85" x="167.329,171.514" svgx:width="0.56,0.5" style="fill:rgb(0,0,0);font-family:TimesNewRomanWGL;font-size:7.2px;stroke:none;">−1</text>
   <text y="554.0" x="175.245,177.955,182.074,186.192,190.824,193.534,198.165,202.284,204.994,209.112,211.737,214.361,217.49,220.114,224.745,229.377,232.001,236.12,240.751,243.461,246.086,250.717,253.427,256.052,260.683,264.802,267.512,275.644,280.276,284.907" svgx:width="0.25,0.44,0.44,0.5,0.25,0.5,0.44,0.25,0.44,0.28,0.28,0.33,0.28,0.5,0.5,0.28,0.44,0.5,0.25,0.28,0.5,0.25,0.28,0.5,0.44,0.25,0.89,0.5,0.5,0.72" style="fill:rgb(0,0,0);font-family:TimesNewRomanWGL;font-size:9.0px;stroke:none;"> can be attributed to the Mn–O</text>
   <text y="567.0" x="59.5,64.475,67.442,72.417,75.888,80.35,83.317,86.285,91.26,96.234,98.484,100.149,103.62,108.595,111.32,116.294,119.766,122.49,124.74,126.405,132.369,137.344,141.806,144.056,145.72,150.695,153.662,158.637,163.098,166.57,168.82,170.485,173.452,180.425,185.399,187.649,189.314,194.289,198.75,203.212,208.186,212.162,214.412,216.076,220.538,223.506,225.756,227.42,231.882,236.856,241.831,246.805,249.773,252.023,253.688,258.662,263.637,268.611,273.586,275.836,277.501,281.962,286.937" svgx:width="0.5,0.28,0.5,0.33,0.44,0.28,0.28,0.5,0.5,0.25,0.55,0.33,0.5,0.25,0.5,0.33,0.25,0.25,0.55,0.61,0.5,0.44,0.25,0.55,0.5,0.28,0.5,0.44,0.33,0.25,0.55,0.28,0.72,0.5,0.25,0.55,0.5,0.44,0.44,0.5,0.39,0.25,0.55,0.44,0.28,0.25,0.55,0.44,0.5,0.5,0.5,0.28,0.25,0.55,0.5,0.5,0.5,0.5,0.25,0.55,0.44,0.5,0.5" style="fill:rgb(0,0,0);font-family:TimesNewRomanWGL;font-size:9.0px;stroke:none;">vibration [4,8]. The other two peaks at about 1366 and</text>
   <text y="580.0" x="59.5,64.058,68.616,73.174,77.732,80.185,84.23" svgx:width="0.5,0.5,0.5,0.5,0.25,0.44,0.78" style="fill:rgb(0,0,0);font-family:TimesNewRomanWGL;font-size:9.0px;stroke:none;">1592 cm</text>
   <text y="576.85" x="91.281,95.393" svgx:width="0.56,0.5" style="fill:rgb(0,0,0);font-family:TimesNewRomanWGL;font-size:7.2px;stroke:none;">−1</text>
   <text y="580.0" x="99.051,101.504,105.549,110.107,113.162,116.217,120.262,123.821,128.379,132.937,137.495,142.053,144.506,147.057,151.615,154.068,156.619,161.177,165.222,167.675,174.231,177.286,181.844,185.889,190.447,195.005,197.458,201.503,206.061,210.619,213.072,219.628,222.683,227.241,231.286,235.844,240.402,242.855,247.413,250.468,252.921,257.479,260.03,263.589,268.147,271.202,275.76,279.805,282.86,286.905" svgx:width="0.25,0.44,0.5,0.33,0.33,0.44,0.39,0.5,0.5,0.5,0.5,0.25,0.28,0.5,0.25,0.28,0.5,0.44,0.25,0.72,0.33,0.5,0.44,0.5,0.5,0.25,0.44,0.5,0.5,0.25,0.72,0.33,0.5,0.44,0.5,0.5,0.25,0.5,0.33,0.25,0.5,0.28,0.39,0.5,0.33,0.5,0.44,0.33,0.44,0.5" style="fill:rgb(0,0,0);font-family:TimesNewRomanWGL;font-size:9.0px;stroke:none;"> correspond to the D-band and G-band of disordered</text>
   <text y="593.0" x="59.5,63.568,67.636,70.714,75.295,79.876,84.457,86.99,91.058,95.639,100.22,102.754,107.334,110.412,114.48,119.061,123.642,126.216,128.79,131.364,135.432,137.966,142.034,146.102,149.18,153.76,158.341,162.922,165.253,167.787,170.865,174.933,178.515,183.096,187.164,191.232,193.806,196.38,200.96,205.028,207.602,212.183,214.514,217.048,222.619,227.2,231.268,233.801,238.382,240.956,245.537,250.118,254.186,257.264,259.797,262.371,266.952,269.526,273.594,278.175,281.757,284.331,286.905" svgx:width="0.44,0.44,0.33,0.5,0.5,0.5,0.25,0.44,0.5,0.5,0.25,0.5,0.33,0.44,0.5,0.5,0.28,0.28,0.28,0.44,0.25,0.44,0.44,0.33,0.5,0.5,0.5,0.25,0.25,0.33,0.44,0.39,0.5,0.44,0.44,0.28,0.28,0.5,0.44,0.28,0.5,0.25,0.25,0.61,0.5,0.44,0.25,0.5,0.28,0.5,0.5,0.44,0.33,0.25,0.28,0.5,0.28,0.44,0.5,0.39,0.28,0.28,0.5" style="fill:rgb(0,0,0);font-family:TimesNewRomanWGL;font-size:9.0px;stroke:none;">carbon and graphitic carbon, respectively. The higher intensity</text>
   <text y="606.0" x="59.5,64.316,67.629,69.879,70.985,73.794,78.61,82.913,85.163,86.269,93.084,96.397,101.213,105.516,110.332,115.148,117.398,118.504,125.813,130.116,134.419,139.235,143.052,145.302,146.408,149.217,154.033,158.336,161.145,163.395,164.502,167.311,172.127,176.43,178.68,179.786,184.089,191.398,196.214,199.527,204.343,209.159,213.975,218.791,222.608,224.858,225.964,230.267,234.57,237.883,242.699,247.515,252.331,254.581,255.688,260.504,264.807,268.624,270.874,271.98,279.289,284.105,287.418" svgx:width="0.5,0.33,0.25,0.55,0.28,0.5,0.44,0.25,0.55,0.72,0.33,0.5,0.44,0.5,0.5,0.25,0.55,0.78,0.44,0.44,0.5,0.39,0.25,0.55,0.28,0.5,0.44,0.28,0.25,0.55,0.28,0.5,0.44,0.25,0.55,0.44,0.78,0.5,0.33,0.5,0.5,0.5,0.5,0.39,0.25,0.55,0.44,0.44,0.33,0.5,0.5,0.5,0.25,0.55,0.5,0.44,0.39,0.25,0.55,0.78,0.5,0.33,0.44" style="fill:rgb(0,0,0);font-family:TimesNewRomanWGL;font-size:9.0px;stroke:none;">of the D-band means that the amorphous carbon has more</text>
   <text y="619.0" x="59.5,64.121,68.229,71.348,75.456,79.564,82.178,85.801,88.475,92.583,97.204,101.825,104.5,108.608,112.716,117.337,120.012,124.633,127.751,130.869,134.978,138.096,140.77,147.884,152.505,155.624,159.732,162.406,165.02,167.635,170.249,174.87,177.484,182.106,189.22,191.894,195.516,198.13,202.752,205.87,209.978,214.599,218.708,221.382,225.004,227.618,230.232,234.341,237.963,240.637,243.755,248.377,250.748,255.369,259.99,263.108,265.48,268.154,271.272,273.886,276.561,280.669,283.283,286.905" svgx:width="0.5,0.44,0.33,0.44,0.44,0.28,0.39,0.25,0.44,0.5,0.5,0.25,0.44,0.44,0.5,0.25,0.5,0.33,0.33,0.44,0.33,0.25,0.78,0.5,0.33,0.44,0.25,0.28,0.28,0.28,0.5,0.28,0.5,0.78,0.25,0.39,0.28,0.5,0.33,0.44,0.5,0.44,0.25,0.39,0.28,0.28,0.44,0.39,0.25,0.33,0.5,0.25,0.5,0.5,0.33,0.25,0.25,0.33,0.28,0.25,0.44,0.28,0.39,0.5" style="fill:rgb(0,0,0);font-family:TimesNewRomanWGL;font-size:9.0px;stroke:none;">defects and can offer more lithium storage sites [8,26]. It also</text>
   <text y="632.0" x="59.5,62.878,67.245,72.126,76.494,80.861,83.735,87.617,89.867,91.199,94.073,98.954,103.321,106.195,108.445,109.778,112.651,117.532,121.9,124.15,125.482,132.856,137.224,140.097,144.978,148.356,150.606,151.938,156.306,161.187,168.56,173.441,178.322,183.202,187.57,192.451,195.325,197.575,198.907,203.788,207.165,209.415,210.748,213.622,218.502,222.87,225.12,226.452,231.333,236.214,239.088,243.455,246.329,251.21,255.577,260.458,262.708,264.04,268.921,273.289,277.657,282.537,286.905" svgx:width="0.33,0.44,0.5,0.44,0.44,0.28,0.39,0.25,0.55,0.28,0.5,0.44,0.28,0.25,0.55,0.28,0.5,0.44,0.25,0.55,0.78,0.44,0.28,0.5,0.33,0.25,0.55,0.44,0.5,0.78,0.5,0.5,0.5,0.44,0.5,0.28,0.25,0.55,0.5,0.33,0.25,0.55,0.28,0.5,0.44,0.25,0.55,0.5,0.5,0.28,0.44,0.28,0.5,0.44,0.5,0.25,0.55,0.5,0.44,0.44,0.5,0.44,0.5" style="fill:rgb(0,0,0);font-family:TimesNewRomanWGL;font-size:9.0px;stroke:none;">reveals that the major component of the obtained beaded</text>
   <text y="645.0" x="59.5,64.041,68.07,72.611,77.152,80.191,82.725,87.266,91.295,94.333,96.728,101.269,105.297,107.832,114.371,118.912,121.951,126.492,128.887,131.421,134.963,137.358,141.386,148.421,152.962,156.0,160.542,165.083,169.624,174.166,177.708,180.102,184.131,188.159,191.197,195.739,200.28,204.822,207.216,213.755,216.29,218.824,223.365,225.76,229.788,232.183,235.725,242.76,246.788,249.322,251.857,254.251,258.28,265.314,269.855,274.397,278.938,281.472,283.867,288.408" svgx:width="0.5,0.44,0.5,0.5,0.33,0.28,0.5,0.44,0.33,0.25,0.5,0.44,0.28,0.72,0.5,0.33,0.5,0.25,0.28,0.39,0.25,0.44,0.78,0.5,0.33,0.5,0.5,0.5,0.5,0.39,0.25,0.44,0.44,0.33,0.5,0.5,0.5,0.25,0.72,0.28,0.28,0.5,0.25,0.44,0.25,0.39,0.78,0.44,0.28,0.28,0.25,0.44,0.78,0.5,0.5,0.5,0.28,0.25,0.5,0.33" style="fill:rgb(0,0,0);font-family:TimesNewRomanWGL;font-size:9.0px;stroke:none;">nanofiber network is amorphous carbon with a small amount of</text>
   <text y="658.0" x="59.5,67.582,72.163,78.742,81.073,83.607,90.186,94.767,97.341,101.409,105.99,108.524,111.098,114.68,117.214,119.788,124.369,126.903,130.971,135.039,139.107,143.688,146.767,151.348,155.416,159.997,164.065,168.133,170.667,177.246,179.82,182.394,186.975,189.509,192.083,196.664,200.732,203.266,209.845,215.92,222.499,225.033,228.111,232.179,235.761,240.342,242.916,245.49,249.073,251.404,253.937,262.019,266.601,269.679,273.747,278.328,282.909,286.977,290.055" svgx:width="0.89,0.5,0.72,0.25,0.25,0.72,0.5,0.28,0.44,0.5,0.25,0.28,0.39,0.25,0.28,0.5,0.25,0.44,0.44,0.44,0.5,0.33,0.5,0.44,0.5,0.44,0.44,0.25,0.72,0.28,0.28,0.5,0.25,0.28,0.5,0.44,0.25,0.72,0.67,0.72,0.25,0.33,0.44,0.39,0.5,0.28,0.28,0.39,0.25,0.25,0.89,0.5,0.33,0.44,0.5,0.5,0.44,0.33,0.25" style="fill:rgb(0,0,0);font-family:TimesNewRomanWGL;font-size:9.0px;stroke:none;">MnO, which is in accordance with the XRD results. Moreover,</text>
   <text y="671.0" x="59.5,63.516,68.045,70.397,76.924,81.957,86.99,89.341,91.863,96.392,100.921,104.937,108.467,110.989,113.511,118.04,122.056,124.578,127.1,131.629,136.159,138.51,145.037,149.053,152.583,154.935,159.464,163.48,166.506,169.532,174.061,177.087,184.109,188.125,192.654,195.005,197.527,202.056,204.408,208.424,210.946,214.962,217.988,220.51,223.536,228.065,230.417,232.939,237.468,241.484,243.835,247.851,250.373,254.389,261.411,265.427,269.957,272.479,276.009,278.36,282.376,286.905" svgx:width="0.44,0.5,0.25,0.72,0.56,0.56,0.25,0.28,0.5,0.5,0.44,0.39,0.28,0.28,0.5,0.44,0.28,0.28,0.5,0.5,0.25,0.72,0.44,0.39,0.25,0.5,0.44,0.33,0.33,0.5,0.33,0.78,0.44,0.5,0.25,0.28,0.5,0.25,0.44,0.28,0.44,0.33,0.28,0.33,0.5,0.25,0.28,0.5,0.44,0.25,0.44,0.28,0.44,0.78,0.44,0.5,0.28,0.39,0.25,0.44,0.5,0.5" style="fill:rgb(0,0,0);font-family:TimesNewRomanWGL;font-size:9.0px;stroke:none;">an XPS investigation was performed to clarify the elements and</text>
   <text y="684.0" x="59.5,62.034,66.575,70.603,73.137,76.174,78.568,82.596,87.136,91.164,98.198,100.732,104.76,108.788,111.322,113.715,117.257,119.791,123.819,126.353,130.38,133.922,136.316,140.856,145.397,147.79,150.324,154.865,158.893,161.286,164.828,169.369,172.407,175.445,179.473,183.501,187.529,189.922,194.463,197.501,199.894,202.428,206.968,210.996,213.389,216.931,220.959,227.993,232.534,235.068,239.096,242.638,244.929,247.322,253.861,256.395,258.928,261.322,263.856,268.396,272.424,274.817,281.356,286.401" svgx:width="0.28,0.5,0.44,0.28,0.33,0.25,0.44,0.5,0.44,0.78,0.28,0.44,0.44,0.28,0.25,0.39,0.28,0.44,0.28,0.44,0.39,0.25,0.5,0.5,0.25,0.28,0.5,0.44,0.25,0.39,0.5,0.33,0.33,0.44,0.44,0.44,0.25,0.5,0.33,0.25,0.28,0.5,0.44,0.25,0.39,0.44,0.78,0.5,0.28,0.44,0.39,0.25,0.25,0.72,0.28,0.28,0.25,0.28,0.5,0.44,0.25,0.72,0.56,0.56" style="fill:rgb(0,0,0);font-family:TimesNewRomanWGL;font-size:9.0px;stroke:none;">their chemical states on the surface of the samples. All the XPS</text>
   <text y="697.0" x="59.5,63.39,68.28,72.656,77.033,79.915,83.301,87.678,89.928,91.291,98.178,102.554,105.941,110.317,112.567,113.93,118.306,122.683,125.565,128.448,133.337,136.723,141.1,143.982,148.359,153.248,155.498,156.861,161.75,166.64,168.89,170.252,173.135,178.024,182.401,184.651,186.013,190.903,193.785,198.675,203.564,206.446,211.336,216.225,218.475,219.838,224.214,229.104,233.48,236.867,241.756,246.645,248.895,250.258,255.148,258.534,260.784,262.147,268.53,270.78,272.143,277.032,280.923,283.173,284.536,288.912" svgx:width="0.39,0.5,0.44,0.44,0.28,0.33,0.44,0.25,0.55,0.72,0.44,0.33,0.44,0.25,0.55,0.44,0.44,0.28,0.28,0.5,0.33,0.44,0.28,0.44,0.5,0.25,0.55,0.5,0.5,0.25,0.55,0.28,0.5,0.44,0.25,0.55,0.5,0.28,0.5,0.5,0.28,0.5,0.5,0.25,0.55,0.44,0.5,0.44,0.33,0.5,0.5,0.25,0.55,0.5,0.33,0.25,0.55,0.67,0.25,0.55,0.5,0.39,0.25,0.55,0.44,0.28" style="fill:rgb(0,0,0);font-family:TimesNewRomanWGL;font-size:9.0px;stroke:none;">spectra were calibrated by the binding energy of C 1s at</text>
   <text y="710.0" x="59.5,64.137,68.775,73.412,75.8,80.437,83.168,87.292,93.928,96.315,99.046,105.681,110.319,114.443,117.577,120.208,122.939,126.073,129.207,133.845,140.975,143.706,146.336,150.974,155.098,157.829,162.466,166.591,170.715,175.353,178.991,181.722,186.359,189.494,192.224,200.363,205.0,207.388,210.118,216.754,219.485,223.609,228.247,232.884,235.615,241.746,244.134,246.864,250.989,254.627,257.358,260.996,265.634,270.271,276.907,281.544,284.275,286.905" svgx:width="0.5,0.5,0.5,0.25,0.5,0.25,0.44,0.72,0.25,0.25,0.72,0.5,0.44,0.33,0.28,0.25,0.33,0.33,0.5,0.78,0.25,0.28,0.5,0.44,0.25,0.5,0.44,0.44,0.5,0.39,0.25,0.5,0.33,0.25,0.89,0.5,0.25,0.25,0.72,0.25,0.44,0.5,0.5,0.25,0.67,0.25,0.25,0.44,0.39,0.25,0.39,0.5,0.5,0.72,0.5,0.25,0.28,0.5" style="fill:rgb(0,0,0);font-family:TimesNewRomanWGL;font-size:9.0px;stroke:none;">284.6 eV. Apart from the peaks of Mn, O and C, as shown in</text>
   <text y="723.0" x="59.5,64.68,67.35,72.026,76.702,79.876,84.039,86.465,91.142,95.818,98.244,101.112,105.275,107.944,112.108,119.277,123.44,128.117,130.786,134.949,137.619,140.486,147.16,150.027,154.191,158.354,163.03,165.898,170.574,174.737,177.604,182.281,186.957,190.634,194.798,197.971,202.648,206.811,211.487,214.354,217.024,221.7,224.567,227.237,231.913,236.076,238.943,242.117,246.793,249.463,252.132,254.999,258.676,262.84,267.003,271.679,274.547,281.221,286.401" svgx:width="0.56,0.28,0.5,0.5,0.33,0.44,0.25,0.5,0.5,0.25,0.25,0.44,0.28,0.44,0.78,0.44,0.5,0.28,0.44,0.28,0.25,0.72,0.25,0.44,0.44,0.5,0.25,0.5,0.44,0.25,0.5,0.5,0.39,0.44,0.33,0.5,0.44,0.5,0.25,0.28,0.5,0.25,0.28,0.5,0.44,0.25,0.33,0.5,0.28,0.28,0.25,0.39,0.44,0.44,0.5,0.25,0.72,0.56,0.56" style="fill:rgb(0,0,0);font-family:TimesNewRomanWGL;font-size:9.0px;stroke:none;">Figure 2b, elemental N can be observed in the full scan XPS</text>
   <text y="736.0" x="59.5,63.076,67.652,71.714,75.777,78.345,81.417,85.993,93.061,95.386,97.9,103.466,108.041,112.103,114.617,119.193,121.761,126.336,130.912,133.984,137.057,141.119,144.695,149.271,151.839,156.414,158.983,161.551,166.127,170.702,173.216,179.789,184.868,189.948,192.462,196.038,200.613,204.676,208.738,211.307,214.379,218.954,226.023,228.537,233.112,236.184,238.698,244.768,247.281,251.857,255.433,257.947,261.523,266.099,270.674,277.247,281.823,284.337,286.905" svgx:width="0.39,0.5,0.44,0.44,0.28,0.33,0.5,0.78,0.25,0.25,0.61,0.5,0.44,0.25,0.5,0.28,0.5,0.5,0.33,0.33,0.44,0.39,0.5,0.28,0.5,0.28,0.28,0.5,0.5,0.25,0.72,0.56,0.56,0.25,0.39,0.5,0.44,0.44,0.28,0.33,0.5,0.78,0.25,0.5,0.33,0.25,0.67,0.25,0.5,0.39,0.25,0.39,0.5,0.5,0.72,0.5,0.25,0.28,0.5" style="fill:rgb(0,0,0);font-family:TimesNewRomanWGL;font-size:9.0px;stroke:none;">spectrum. The high-resolution XPS spectrum of C 1s shown in</text>
   <text y="749.0" x="59.5,64.741,67.471,72.208,76.945,80.179,84.403,86.89,91.627,95.851,98.101,98.93,103.154,106.388,110.612,112.862,113.691,116.925,119.655,122.385,125.115,129.339,134.076,136.326,137.156,139.886,144.623,147.353,152.09,154.34,155.169,158.403,163.14,167.877,171.111,173.361,174.19,178.927,183.151,187.375,192.112,195.85,198.1,198.929,203.153,207.377,212.114,214.844,219.068,222.302,226.526,231.263,233.513,234.343,238.566,241.296,243.546,244.376,248.6,253.337,258.074,262.811,265.541,267.791,268.62,273.357,278.094,282.831,285.318,290.055" svgx:width="0.56,0.28,0.5,0.5,0.33,0.44,0.25,0.5,0.44,0.25,0.55,0.44,0.33,0.44,0.25,0.55,0.33,0.28,0.28,0.28,0.44,0.5,0.25,0.55,0.28,0.5,0.28,0.5,0.25,0.55,0.33,0.5,0.5,0.33,0.25,0.55,0.5,0.44,0.44,0.5,0.39,0.25,0.55,0.44,0.44,0.5,0.28,0.44,0.33,0.44,0.5,0.25,0.55,0.44,0.28,0.25,0.55,0.44,0.5,0.5,0.5,0.28,0.25,0.55,0.5,0.5,0.5,0.25,0.5,0.25" style="fill:rgb(0,0,0);font-family:TimesNewRomanWGL;font-size:9.0px;stroke:none;">Figure 2c are fitted into four peaks centered at about 289.1,</text>
   <text y="762.0" x="59.5,64.252,69.004,73.756,76.258,81.01,83.512,85.762,86.644,91.396,96.148,100.9,103.402,108.154,110.404,111.287,115.526,120.278,125.03,127.28,128.162,132.914,137.666,142.418,144.92,149.672,151.922,152.804,157.043,163.793,166.295,168.545,169.427,173.666,178.418,181.667,184.916,189.155,192.908,197.66,202.412,207.164,211.916,214.661,219.413,224.166,226.416,227.298,230.043,234.795,237.045,237.927,244.173,248.925,255.675,258.177,260.427,261.309,267.555,272.307,279.057,283.809,290.055" svgx:width="0.5,0.5,0.5,0.25,0.5,0.25,0.25,0.55,0.5,0.5,0.5,0.25,0.5,0.25,0.55,0.44,0.5,0.5,0.25,0.55,0.5,0.5,0.5,0.25,0.5,0.25,0.55,0.44,0.72,0.25,0.25,0.55,0.44,0.5,0.33,0.33,0.44,0.39,0.5,0.5,0.5,0.5,0.28,0.5,0.5,0.25,0.55,0.28,0.5,0.25,0.55,0.67,0.5,0.72,0.25,0.25,0.55,0.67,0.5,0.72,0.5,0.67,0.25" style="fill:rgb(0,0,0);font-family:TimesNewRomanWGL;font-size:9.0px;stroke:none;">286.8, 285.7 and 284.6 eV, corresponding to C–O, C–O–C,</text>
  </g>
  <g begin="text">
   <text y="463.0" x="303.6,310.215,314.833,320.944,323.605,327.71,332.327,336.944,339.605,345.717,350.334,356.446,359.107,363.724,368.341,372.959,377.576,381.195,383.562,386.223,389.337,393.442,397.06,401.678,405.782,409.886,412.497,415.107,419.725,423.829,426.439,431.057,433.718,436.832,441.45,443.817,448.434,451.549,453.916,456.577,459.691,464.309,466.97,472.091,474.702,479.319,483.936,487.051,491.155,493.523,498.14,502.757,505.125,507.786,510.396,515.014,519.118,521.779,524.389,531.005" svgx:width="0.72,0.5,0.67,0.25,0.44,0.5,0.5,0.25,0.67,0.5,0.67,0.25,0.5,0.5,0.5,0.5,0.39,0.25,0.25,0.33,0.44,0.39,0.5,0.44,0.44,0.28,0.28,0.5,0.44,0.28,0.5,0.25,0.33,0.5,0.25,0.5,0.33,0.25,0.25,0.33,0.5,0.25,0.56,0.28,0.5,0.5,0.33,0.44,0.25,0.5,0.5,0.25,0.25,0.28,0.5,0.44,0.25,0.28,0.72,0.5" style="fill:rgb(0,0,0);font-family:TimesNewRomanWGL;font-size:9.0px;stroke:none;">N–C and C–C bonds, respectively [4,8]. In Figure 2d, the two</text>
   <text y="476.0" x="303.6,308.195,312.79,316.872,319.965,322.553,326.635,331.23,335.825,339.907,344.503,347.086,351.681,355.763,359.845,364.44,368.036,370.619,374.702,377.29,379.873,384.468,389.063,393.658,396.003,400.599,403.182,407.264,411.859,416.454,419.037,423.632,428.227,432.823,435.168,439.763,442.346,446.428,453.021,455.604,458.192,462.788,465.371,467.959,472.554,476.636,479.219,483.814,486.402,490.998,495.593,498.685,501.777,505.859,509.455,514.05,516.639,521.234,523.822,526.41,531.005" svgx:width="0.5,0.5,0.44,0.33,0.28,0.44,0.5,0.5,0.44,0.5,0.25,0.5,0.44,0.44,0.5,0.39,0.25,0.44,0.28,0.25,0.5,0.5,0.5,0.25,0.5,0.25,0.44,0.5,0.5,0.25,0.5,0.5,0.5,0.25,0.5,0.25,0.44,0.72,0.25,0.28,0.5,0.25,0.28,0.5,0.44,0.25,0.5,0.28,0.5,0.5,0.33,0.33,0.44,0.39,0.5,0.28,0.5,0.28,0.28,0.5,0.5" style="fill:rgb(0,0,0);font-family:TimesNewRomanWGL;font-size:9.0px;stroke:none;">overlapped peaks at 400.5 and 398.9 eV in the high-resolution</text>
   <text y="489.0" x="303.6,310.415,315.735,321.056,323.306,324.414,328.232,333.048,337.352,341.656,344.465,347.779,352.595,359.905,362.155,363.263,368.08,371.393,373.643,374.752,381.566,383.816,384.924,389.741,393.559,395.809,396.917,401.22,404.534,408.838,411.088,412.196,416.5,420.317,424.135,426.944,431.761,436.578,440.881,445.698,447.948,449.056,451.866,456.682,458.932,460.041,462.85,467.667,471.97,474.22,475.329,481.639,487.023,493.837,496.087,497.196,500.509,505.326,510.142,513.456,516.266,521.082,523.892,528.708,531.518" svgx:width="0.72,0.56,0.56,0.25,0.55,0.39,0.5,0.44,0.44,0.28,0.33,0.5,0.78,0.25,0.55,0.5,0.33,0.25,0.55,0.72,0.25,0.55,0.5,0.39,0.25,0.55,0.44,0.33,0.44,0.25,0.55,0.44,0.39,0.39,0.28,0.5,0.5,0.44,0.5,0.25,0.55,0.28,0.5,0.25,0.55,0.28,0.5,0.44,0.25,0.55,0.67,0.56,0.72,0.25,0.55,0.33,0.5,0.5,0.33,0.28,0.5,0.28,0.5,0.28,0.44" style="fill:rgb(0,0,0);font-family:TimesNewRomanWGL;font-size:9.0px;stroke:none;">XPS spectrum of N 1s are assigned to the C=N (pyridinic</text>
   <text y="502.0" x="303.6,308.436,311.265,314.094,317.427,322.263,327.099,331.422,336.258,339.59,341.84,343.016,347.339,352.175,357.011,359.261,360.437,366.767,371.603,378.437,380.687,381.863,385.195,390.031,394.867,398.2,401.533,406.369,409.198,412.027,416.35,418.6,419.776,424.612,427.441,430.27,433.603,438.439,443.275,447.597,452.433,455.766,458.016,459.192,464.028,468.864,473.7,478.536,482.373,484.959,487.209,488.385,491.718,496.04,499.877,504.713,509.036,513.359,516.188,519.017,523.853,528.176,531.005" svgx:width="0.5,0.28,0.28,0.33,0.5,0.5,0.44,0.5,0.33,0.25,0.55,0.44,0.5,0.5,0.25,0.55,0.67,0.5,0.72,0.25,0.55,0.33,0.5,0.5,0.33,0.33,0.5,0.28,0.28,0.44,0.25,0.55,0.5,0.28,0.28,0.33,0.5,0.5,0.44,0.5,0.33,0.25,0.55,0.5,0.5,0.5,0.5,0.39,0.25,0.25,0.55,0.33,0.44,0.39,0.5,0.44,0.44,0.28,0.28,0.5,0.44,0.28,0.5" style="fill:rgb(0,0,0);font-family:TimesNewRomanWGL;font-size:9.0px;stroke:none;">nitrogen) and C–N (pyrrolic nitrogen) bonds, respectively</text>
   <text y="515.0" x="303.6,306.702,311.307,313.662,318.267,320.622,325.227,329.831,332.933,335.288,337.906,344.508,348.114,350.732,354.338,358.943,363.547,370.15,374.755,377.373,379.97,384.575,387.193,392.302,394.899,399.504,404.109,407.211,411.303,413.658,418.263,422.355,424.71,427.327,429.925,434.53,438.622,441.239,449.345,453.95,456.567,461.172,465.777,468.394,472.0,476.605,480.697,484.789,487.387,490.489,495.094,502.192,504.809,508.901,513.506,518.111,520.709,524.801,527.398,532.003" svgx:width="0.33,0.5,0.25,0.5,0.25,0.5,0.5,0.33,0.25,0.25,0.72,0.39,0.25,0.39,0.5,0.5,0.72,0.5,0.25,0.28,0.5,0.25,0.56,0.28,0.5,0.5,0.33,0.44,0.25,0.5,0.44,0.25,0.25,0.28,0.5,0.44,0.25,0.89,0.5,0.25,0.5,0.5,0.25,0.39,0.5,0.44,0.44,0.28,0.33,0.5,0.78,0.25,0.44,0.5,0.5,0.28,0.44,0.28,0.5,0.39" style="fill:rgb(0,0,0);font-family:TimesNewRomanWGL;font-size:9.0px;stroke:none;">[4,8,11]. As shown in Figure 2e, the Mn 2p spectrum contains</text>
   <text y="528.0" x="303.6,306.135,312.674,317.216,319.611,324.153,328.181,332.21,336.752,340.294,342.69,346.718,349.253,351.648,356.19,360.732,365.273,367.565,372.106,374.502,378.53,385.07,387.465,391.494,396.036,400.577,402.973,407.514,412.056,416.597,418.889,423.43,425.826,429.855,436.394,438.686,441.081,447.621,452.162,454.697,458.726,463.267,465.663,469.691,473.72,478.261,480.657,485.198,489.227,491.623,494.661,498.69,502.232,506.774,510.803,514.831,517.366,519.9,524.442,528.47,531.005" svgx:width="0.28,0.72,0.5,0.25,0.5,0.44,0.44,0.5,0.39,0.25,0.44,0.28,0.25,0.5,0.5,0.5,0.25,0.5,0.25,0.44,0.72,0.25,0.44,0.5,0.5,0.25,0.5,0.5,0.5,0.25,0.5,0.25,0.44,0.72,0.25,0.25,0.72,0.5,0.28,0.44,0.5,0.25,0.44,0.44,0.5,0.25,0.5,0.44,0.25,0.33,0.44,0.39,0.5,0.44,0.44,0.28,0.28,0.5,0.44,0.28,0.5" style="fill:rgb(0,0,0);font-family:TimesNewRomanWGL;font-size:9.0px;stroke:none;">two peaks at 653.2 eV and 641.5 eV, which can be respectively</text>
   <text y="541.0" x="303.6,307.669,310.245,312.82,315.899,318.475,323.057,327.639,330.215,334.284,338.866,341.405,343.98,348.562,351.1,359.184,363.766,366.304,370.887" svgx:width="0.44,0.28,0.28,0.33,0.28,0.5,0.5,0.28,0.44,0.5,0.25,0.28,0.5,0.25,0.89,0.5,0.25,0.5,0.5" style="fill:rgb(0,0,0);font-family:TimesNewRomanWGL;font-size:9.0px;stroke:none;">attributed to Mn 2p</text>
   <text y="542.8" x="375.469,379.151,381.228" svgx:width="0.5,0.28,0.5" style="fill:rgb(0,0,0);font-family:TimesNewRomanWGL;font-size:7.2px;stroke:none;">1/2</text>
   <text y="541.0" x="384.91,387.449,391.518,396.1,400.683,403.221,411.304,415.886,418.425,423.007" svgx:width="0.25,0.44,0.5,0.5,0.25,0.89,0.5,0.25,0.5,0.5" style="fill:rgb(0,0,0);font-family:TimesNewRomanWGL;font-size:9.0px;stroke:none;"> and Mn 2p</text>
   <text y="542.8" x="427.589,431.272,433.348" svgx:width="0.5,0.28,0.5" style="fill:rgb(0,0,0);font-family:TimesNewRomanWGL;font-size:7.2px;stroke:none;">3/2</text>
   <text y="541.0" x="437.031,439.569,443.638,448.221,452.803,455.882,458.458,463.04,467.622,470.702,474.771,477.346,479.922,484.504,489.086,492.67,495.208,499.79,502.87,505.408,513.491" svgx:width="0.25,0.44,0.5,0.5,0.33,0.28,0.5,0.5,0.33,0.44,0.28,0.28,0.5,0.5,0.39,0.25,0.5,0.33,0.25,0.89,0.5" style="fill:rgb(0,0,0);font-family:TimesNewRomanWGL;font-size:9.0px;stroke:none;"> configurations of Mn</text>
   <text y="537.85" x="518.073,521.756" svgx:width="0.5,0.56" style="fill:rgb(0,0,0);font-family:TimesNewRomanWGL;font-size:7.2px;stroke:none;">2+</text>
   <text y="541.0" x="525.892,528.43,531.005" svgx:width="0.25,0.28,0.5" style="fill:rgb(0,0,0);font-family:TimesNewRomanWGL;font-size:9.0px;stroke:none;"> in</text>
   <text y="554.0" x="303.6,311.826,316.55,323.273,325.523,326.308,329.53,334.254,336.729,341.453,343.928,348.652,353.377,356.599,359.073,361.323,362.109,368.327,372.539,376.264,380.476,385.2,387.45,388.236,392.961,397.685,399.935,400.721,403.439,408.163,412.375,414.625,415.41,418.632,423.356,426.074,428.792,431.042,431.827,438.55,443.778,449.007,451.257,452.043,455.768,460.493,464.704,468.916,471.633,474.855,479.579,486.797,489.271,491.521,492.307,495.025,499.749,503.961,506.211,506.997,510.218,514.43,517.147,521.359,524.076,526.794,531.518" svgx:width="0.89,0.5,0.72,0.25,0.55,0.33,0.5,0.25,0.5,0.25,0.5,0.5,0.33,0.25,0.25,0.55,0.67,0.44,0.39,0.44,0.5,0.25,0.55,0.5,0.5,0.25,0.55,0.28,0.5,0.44,0.25,0.55,0.33,0.5,0.28,0.28,0.25,0.55,0.72,0.56,0.56,0.25,0.55,0.39,0.5,0.44,0.44,0.28,0.33,0.5,0.78,0.25,0.25,0.55,0.28,0.5,0.44,0.25,0.55,0.33,0.44,0.28,0.44,0.28,0.28,0.5,0.44" style="fill:rgb(0,0,0);font-family:TimesNewRomanWGL;font-size:9.0px;stroke:none;">MnO [4,8,20]. Based on the full XPS spectrum, the relative</text>
   <text y="567.0" x="303.6,307.605,312.123,316.641,319.152,323.157,327.675,330.186,332.499,337.017,340.032,342.345,350.364,354.882,361.398,363.666,365.979,372.495,374.809,378.814,383.332,387.85,390.163,396.175,398.488,402.493,405.508,409.513,411.826,415.831,419.35,421.861,424.372,431.383,435.388,437.899,441.904,446.422,448.735,451.246,455.764,458.077,462.595,466.6,468.913,473.431,477.949,480.217,484.735,492.25,494.518,496.831,501.349,505.867,508.135,512.653,520.168,522.482,526.487,531.005" svgx:width="0.44,0.5,0.5,0.28,0.44,0.5,0.28,0.25,0.5,0.33,0.25,0.89,0.5,0.72,0.25,0.25,0.72,0.25,0.44,0.5,0.5,0.25,0.67,0.25,0.44,0.33,0.44,0.25,0.44,0.39,0.28,0.28,0.78,0.44,0.28,0.44,0.5,0.25,0.28,0.5,0.25,0.5,0.44,0.25,0.5,0.5,0.25,0.5,0.83,0.25,0.25,0.5,0.5,0.25,0.5,0.83,0.25,0.44,0.5,0.5" style="fill:rgb(0,0,0);font-family:TimesNewRomanWGL;font-size:9.0px;stroke:none;">content of MnO, N and C are estimated to be 11.7%, 11.7% and</text>
   <text y="580.0" x="303.6,308.118,312.636,314.904,319.422,326.937,329.205,331.518,334.533,338.538,342.057,346.575,350.58,354.585,357.096,359.607,364.125,368.13,370.641,375.159" svgx:width="0.5,0.5,0.25,0.5,0.83,0.25,0.25,0.33,0.44,0.39,0.5,0.44,0.44,0.28,0.28,0.5,0.44,0.28,0.5,0.25" style="fill:rgb(0,0,0);font-family:TimesNewRomanWGL;font-size:9.0px;stroke:none;">76.6%, respectively.</text>
  </g>
  <g begin="text">
   <text y="606.0" x="303.6,309.188,313.786,317.871,320.465,324.55,327.141,331.226,335.311,337.903,340.998,345.596,349.681,354.279,358.364,365.455,368.047,372.132,376.217,378.808,381.402,386.0,390.085,393.18,396.275,400.873,403.968,411.06,415.145,419.743,423.828,427.913,430.507,435.105,438.2,440.793,443.385,447.983,452.068,454.661,459.259,463.345,467.43,472.028,476.113,480.711,483.305,487.903,491.988,496.586,501.184,504.279,506.871,511.469,515.554,518.649,521.242,525.328,529.413,532.508" svgx:width="0.61,0.5,0.44,0.25,0.44,0.28,0.44,0.44,0.28,0.33,0.5,0.44,0.5,0.44,0.78,0.28,0.44,0.44,0.28,0.25,0.5,0.44,0.33,0.33,0.5,0.33,0.78,0.44,0.5,0.44,0.44,0.25,0.5,0.33,0.25,0.28,0.5,0.44,0.25,0.5,0.44,0.44,0.5,0.44,0.5,0.25,0.5,0.44,0.5,0.5,0.33,0.28,0.5,0.44,0.33,0.25,0.44,0.44,0.33,0.33" style="fill:rgb(0,0,0);font-family:TimesNewRomanWGL;font-size:9.0px;stroke:none;">The electrochemical performance of the beaded nanofiber car-</text>
   <text y="619.0" x="303.6,308.225,312.85,317.474,320.161,324.786,328.898,331.516,338.138,342.763,345.885,350.51,353.197,357.308,361.933,366.045,370.67,375.294,378.416,382.528,387.153,389.84,396.462,399.08,401.698,406.323,409.01,417.135,421.76,428.383,431.07,435.182,439.806,444.431,447.118,453.741,456.428,463.05,467.162,470.788,473.475,476.092,480.717,485.342,489.454,493.08,495.697,498.315,502.94,507.052,509.67,513.781,518.406,521.093,525.205,528.831,531.518" svgx:width="0.5,0.5,0.5,0.25,0.5,0.44,0.28,0.72,0.5,0.33,0.5,0.25,0.44,0.5,0.44,0.5,0.5,0.33,0.44,0.5,0.25,0.72,0.28,0.28,0.5,0.25,0.89,0.5,0.72,0.25,0.44,0.5,0.5,0.25,0.72,0.25,0.72,0.44,0.39,0.25,0.28,0.5,0.5,0.44,0.39,0.28,0.28,0.5,0.44,0.28,0.44,0.5,0.25,0.44,0.39,0.25,0.44" style="fill:rgb(0,0,0);font-family:TimesNewRomanWGL;font-size:9.0px;stroke:none;">bon network anchored with MnO and N was investigated as a</text>
   <text y="632.0" x="303.6,310.127,314.655,317.681,322.209,324.731,329.259,333.788,336.138,340.154,342.675,346.691,350.706,353.228,356.253,360.782,365.311,369.326,371.676,376.205,379.23,381.58,387.603,393.625,398.154,402.682,407.211,411.74,414.765,417.287,421.815,426.344,430.359,432.709,436.725,441.254,443.775,448.304,450.654,454.669,458.685,461.206,463.728,466.078,472.604,475.126,477.648,482.176,484.526,487.048,489.569,492.091,496.619,499.141,503.67,510.691,513.041,516.067,520.595,523.117,525.638,527.988,532.004" svgx:width="0.72,0.5,0.33,0.5,0.28,0.5,0.5,0.25,0.44,0.28,0.44,0.44,0.28,0.33,0.5,0.5,0.44,0.25,0.5,0.33,0.25,0.67,0.67,0.5,0.5,0.5,0.5,0.33,0.28,0.5,0.5,0.44,0.25,0.44,0.5,0.28,0.5,0.25,0.44,0.44,0.28,0.28,0.25,0.72,0.28,0.28,0.5,0.25,0.28,0.28,0.28,0.5,0.28,0.5,0.78,0.25,0.33,0.5,0.28,0.28,0.25,0.44,0.39" style="fill:rgb(0,0,0);font-family:TimesNewRomanWGL;font-size:9.0px;stroke:none;">working electrode of CR2032-type coin cell with lithium foil as</text>
   <text y="645.0" x="303.6,306.439,311.285,315.617,317.867,319.078,323.411,328.257,333.102,337.948,340.787,345.12,348.463,350.713,351.923,356.256,361.102,365.947,368.197,369.408,372.751,377.084,380.426,384.759,388.102,392.435,397.281,401.613,405.946,408.196,409.407,413.74,416.578,420.911,425.244,428.083,431.426,436.271,441.117,445.45,449.297,451.893,454.143,455.353,460.703,463.542,468.388,473.233,476.576,480.909,483.505,488.351,492.684,494.934,496.144,499.991,504.837,509.682,516.526,520.373,522.623,523.833,526.672,531.518" svgx:width="0.28,0.5,0.44,0.25,0.55,0.44,0.5,0.5,0.5,0.28,0.44,0.33,0.25,0.55,0.44,0.5,0.5,0.25,0.55,0.33,0.44,0.33,0.44,0.33,0.44,0.5,0.44,0.44,0.25,0.55,0.44,0.28,0.44,0.44,0.28,0.33,0.5,0.5,0.44,0.39,0.25,0.25,0.55,0.56,0.28,0.5,0.5,0.33,0.44,0.25,0.5,0.44,0.25,0.55,0.39,0.5,0.5,0.72,0.39,0.25,0.55,0.28,0.5,0.44" style="fill:rgb(0,0,0);font-family:TimesNewRomanWGL;font-size:9.0px;stroke:none;">the counter and reference electrodes. Figure 3a shows the</text>
   <text y="658.0" x="303.6,306.384,311.176,315.967,318.751,323.029,327.308,330.092,332.342,333.361,337.64,342.431,346.709,349.493,352.278,356.556,358.806,359.825,364.617,369.408,372.192,374.976,379.255,386.539,393.823,398.101,400.886,404.174,408.965,411.215,412.235,415.523,421.808,428.597,431.886,434.136,435.155,439.433,444.225,447.513,452.304,456.582,460.375,462.625,463.644,468.435,471.724,473.974,474.993,477.777,482.568,486.847,489.097,490.116,492.9,497.692,500.476,503.26,506.044,510.323,513.107,515.357,516.376,519.161,523.952,527.24,531.518" svgx:width="0.28,0.5,0.5,0.28,0.44,0.44,0.28,0.25,0.55,0.44,0.5,0.44,0.28,0.28,0.44,0.25,0.55,0.5,0.5,0.28,0.28,0.44,0.78,0.78,0.44,0.28,0.33,0.5,0.25,0.55,0.33,0.67,0.72,0.33,0.25,0.55,0.44,0.5,0.33,0.5,0.44,0.39,0.25,0.55,0.5,0.33,0.25,0.55,0.28,0.5,0.44,0.25,0.55,0.28,0.5,0.28,0.28,0.28,0.44,0.28,0.25,0.55,0.28,0.5,0.33,0.44,0.44" style="fill:rgb(0,0,0);font-family:TimesNewRomanWGL;font-size:9.0px;stroke:none;">typical cyclic voltammetry (CV) curves of the initial three</text>
   <text y="671.0" x="303.6,307.632,312.177,316.209,318.748,322.78,326.326,328.621,331.029,334.071,338.616,341.024,343.562,348.107,352.14,354.547,357.59,360.128,363.17,366.716,369.254,371.662,376.207,378.745,382.292,386.324,390.869,394.901,397.943,402.488,406.52,411.065,415.098,419.643,423.675,426.717,431.262,435.294,437.702,441.734,446.28,450.312,452.85,456.882,459.177,461.585,464.123,468.668,472.7,475.108,478.15,482.183,489.221,493.253,496.295,500.84,504.872,509.417,511.956,515.988,518.396,522.941,526.973,531.005" svgx:width="0.44,0.5,0.44,0.28,0.44,0.39,0.25,0.25,0.33,0.5,0.25,0.28,0.5,0.44,0.25,0.33,0.28,0.33,0.39,0.28,0.25,0.5,0.28,0.39,0.44,0.5,0.44,0.33,0.5,0.44,0.5,0.44,0.5,0.44,0.33,0.5,0.44,0.25,0.44,0.5,0.44,0.28,0.44,0.25,0.25,0.28,0.5,0.44,0.25,0.33,0.44,0.78,0.44,0.33,0.5,0.44,0.5,0.28,0.44,0.25,0.5,0.44,0.44,0.5" style="fill:rgb(0,0,0);font-family:TimesNewRomanWGL;font-size:9.0px;stroke:none;">cycles. In the first discharge–charge cycle, the remarkable peak</text>
   <text y="684.0" x="303.6,307.604,310.114,312.425,316.429,320.946,325.463,329.981,332.491,334.801,339.318,341.585,346.103,350.62,352.93,359.445,361.756,364.266,368.783,373.3,375.81,379.815,383.819,386.329,390.333,393.851,396.162,398.672,403.189,407.193,409.704,412.014,420.032" svgx:width="0.44,0.28,0.25,0.44,0.5,0.5,0.5,0.28,0.25,0.5,0.25,0.5,0.5,0.25,0.72,0.25,0.28,0.5,0.5,0.28,0.44,0.44,0.28,0.44,0.39,0.25,0.28,0.5,0.44,0.28,0.25,0.89,0.5" style="fill:rgb(0,0,0);font-family:TimesNewRomanWGL;font-size:9.0px;stroke:none;">at about 0.34 V indicates that Mn</text>
   <text y="680.85" x="424.549,428.166" svgx:width="0.5,0.56" style="fill:rgb(0,0,0);font-family:TimesNewRomanWGL;font-size:7.2px;stroke:none;">2+</text>
   <text y="684.0" x="432.237,434.548,437.058,440.576,442.886,445.9,449.905,454.422,458.939,462.943,466.947,471.465,473.775,476.285,480.802,483.113,491.131,495.648,499.256,501.566,504.581,509.098,511.365,515.882,520.4,523.414,525.681,527.991,531.005" svgx:width="0.25,0.28,0.39,0.25,0.33,0.44,0.5,0.5,0.44,0.44,0.5,0.25,0.28,0.5,0.25,0.89,0.5,0.4,0.25,0.33,0.5,0.25,0.5,0.5,0.33,0.25,0.25,0.33,0.5" style="fill:rgb(0,0,0);font-family:TimesNewRomanWGL;font-size:9.0px;stroke:none;"> is reduced to Mn° [4,20]. In</text>
   <text y="697.0" x="303.6,306.222,310.851,314.966,317.667,321.297,325.413,329.529,334.158,338.786,343.415,346.116,350.232,354.861,359.489,362.19,364.812,369.441,372.063,375.189,379.817,382.518,386.634,391.263,395.379,398.0,402.116,404.495,407.196,409.818,414.446,418.562,421.263,425.892,430.008,434.124,438.752,441.453,445.083,447.705,450.327,454.955,459.584,462.206,464.828,469.457,472.158,475.787,480.416,483.038,486.164,488.786,492.415,495.116,497.738,502.367,505.068,509.183,511.884,516.513,519.135,523.764,528.393,532.508" svgx:width="0.28,0.5,0.44,0.25,0.39,0.44,0.44,0.5,0.5,0.5,0.25,0.44,0.5,0.5,0.25,0.28,0.5,0.28,0.33,0.5,0.25,0.44,0.5,0.44,0.28,0.44,0.25,0.25,0.28,0.5,0.44,0.25,0.5,0.44,0.44,0.5,0.25,0.39,0.28,0.28,0.5,0.5,0.28,0.28,0.5,0.25,0.39,0.5,0.28,0.33,0.28,0.39,0.25,0.28,0.5,0.25,0.44,0.25,0.5,0.28,0.5,0.5,0.44,0.33" style="fill:rgb(0,0,0);font-family:TimesNewRomanWGL;font-size:9.0px;stroke:none;">the second and third cycle, the peak slightly shifts to a higher</text>
   <text y="710.0" x="303.6,308.163,312.725,315.281,317.836,321.886,326.449,330.498,332.967,337.53,340.589,343.059,347.621,349.934,354.496,359.059,363.621,368.184,370.497,375.059,379.622,382.091,388.652,390.964,393.433,399.994,404.556,407.112,411.162,415.724,418.193,420.749,424.313,426.782,431.344,434.404,438.966,443.529,447.579,452.141,454.697,459.259,461.728,466.291,470.854,474.903,477.372,479.928,484.49,486.96,489.515,494.078,498.127,500.596,503.152,510.208,514.77,517.83,522.392,526.955,531.005" svgx:width="0.5,0.5,0.28,0.28,0.44,0.5,0.44,0.25,0.5,0.33,0.25,0.5,0.25,0.5,0.5,0.5,0.5,0.25,0.5,0.5,0.25,0.72,0.25,0.25,0.72,0.5,0.28,0.44,0.5,0.25,0.28,0.39,0.25,0.5,0.33,0.5,0.5,0.44,0.5,0.28,0.5,0.25,0.5,0.5,0.44,0.25,0.28,0.5,0.25,0.28,0.5,0.44,0.25,0.28,0.78,0.5,0.33,0.5,0.5,0.44,0.5" style="fill:rgb(0,0,0);font-family:TimesNewRomanWGL;font-size:9.0px;stroke:none;">voltage of 0.37–0.39 V, which is probably due to the improved</text>
   <text y="723.0" x="303.6,308.139,310.67,315.209,319.235,321.766,324.298,328.323,331.863,334.248,338.274,342.813,347.351,349.736,354.275,356.807,359.338,361.87,364.401,368.427,372.453,374.984,377.516,382.055,386.593,388.978,393.004,396.04,399.075,401.607,405.633,408.164,412.19,416.728,420.754,425.293,427.678,432.217,435.252,437.637,445.677,450.216,456.752,459.137,463.676,466.712,469.097,471.629,476.167,480.193,482.578,489.61,492.141,496.167,499.203,503.741,507.281,509.812,512.848,517.387,521.412,523.944,528.483,531.518" svgx:width="0.5,0.28,0.5,0.44,0.28,0.28,0.44,0.39,0.25,0.44,0.5,0.5,0.25,0.5,0.28,0.28,0.28,0.28,0.44,0.44,0.28,0.28,0.5,0.5,0.25,0.44,0.33,0.33,0.28,0.44,0.28,0.44,0.5,0.44,0.5,0.25,0.5,0.33,0.25,0.89,0.5,0.72,0.25,0.5,0.33,0.25,0.28,0.5,0.44,0.25,0.78,0.28,0.44,0.33,0.5,0.39,0.28,0.33,0.5,0.44,0.28,0.5,0.33,0.44" style="fill:rgb(0,0,0);font-family:TimesNewRomanWGL;font-size:9.0px;stroke:none;">kinetics and utilization efficiency of MnO or the microstructure</text>
   <text y="736.0" x="303.6,307.722,312.357,316.479,321.113,325.748,329.87,332.592,336.714,339.846,342.474,346.596,349.728,352.45,355.077,359.712,363.834,366.556,369.688,372.316,375.448,379.084,381.712,384.434,387.061,389.689,392.317,396.952,399.58,403.702,406.33,408.957,413.592,418.227,420.949,425.584,428.716,433.351,437.473,441.595,445.23,448.866,451.588,454.72,459.355,461.74,466.375,468.76,473.394,478.029,481.161,483.546,486.268,489.4,494.035,496.757,499.385,504.02,508.141,510.863,514.985,519.62,524.255,528.89,531.518" svgx:width="0.44,0.5,0.44,0.5,0.5,0.44,0.25,0.44,0.33,0.28,0.44,0.33,0.25,0.28,0.5,0.44,0.25,0.33,0.28,0.33,0.39,0.28,0.25,0.28,0.28,0.28,0.5,0.28,0.44,0.28,0.28,0.5,0.5,0.25,0.5,0.33,0.5,0.44,0.44,0.39,0.39,0.25,0.33,0.5,0.25,0.5,0.25,0.5,0.5,0.33,0.25,0.25,0.33,0.5,0.25,0.28,0.5,0.44,0.25,0.44,0.5,0.5,0.5,0.28,0.44" style="fill:rgb(0,0,0);font-family:TimesNewRomanWGL;font-size:9.0px;stroke:none;">change after the first lithiation process [5,7,27]. In the anodic</text>
   <text y="749.0" x="303.6,307.145,311.176,315.207,319.751,322.045,324.45,326.987,331.531,335.562,337.966,342.51,345.551,350.095,354.126,358.67,361.075,365.619,369.65,373.681,378.225,380.629,384.66,388.691,393.235,395.772,399.803,402.845,406.876,411.42,413.824,417.855,420.392,422.796,427.34,429.634,434.178,438.723,441.127,447.669,450.073,453.114,457.145,459.682,463.713,466.25,470.282,473.827,476.231,478.768,483.312,485.716,488.253,492.797,496.828,499.233,503.777,507.808,511.839,516.383,523.42,527.964,532.508" svgx:width="0.39,0.44,0.44,0.5,0.25,0.25,0.28,0.5,0.44,0.25,0.5,0.33,0.5,0.44,0.5,0.25,0.5,0.44,0.44,0.5,0.25,0.44,0.44,0.5,0.28,0.44,0.33,0.44,0.5,0.25,0.44,0.28,0.25,0.5,0.25,0.5,0.5,0.25,0.72,0.25,0.33,0.44,0.28,0.44,0.28,0.44,0.39,0.25,0.28,0.5,0.25,0.28,0.5,0.44,0.25,0.5,0.44,0.44,0.5,0.78,0.5,0.5,0.33" style="fill:rgb(0,0,0);font-family:TimesNewRomanWGL;font-size:9.0px;stroke:none;">scan, the broad peak centered at 1.31 V relates to the decompo-</text>
   <text y="762.0" x="303.6,307.506,310.404,313.302,316.2,321.105,326.01,328.26,329.675,334.58,337.982,340.232,341.647,347.542" svgx:width="0.39,0.28,0.28,0.28,0.5,0.5,0.25,0.55,0.5,0.33,0.25,0.55,0.61,0.28" style="fill:rgb(0,0,0);font-family:TimesNewRomanWGL;font-size:9.0px;stroke:none;">sition of Li</text>
   <text y="763.8" x="350.44" svgx:width="0.5" style="fill:rgb(0,0,0);font-family:TimesNewRomanWGL;font-size:7.2px;stroke:none;">2</text>
   <text y="762.0" x="354.445,361.348,363.598,365.013,369.405,374.31,379.215,381.465,382.88,386.281,390.673,395.578,399.97,404.875,409.267,412.669,417.061,419.959,422.857,427.762,432.667,434.917,436.332,441.237,444.639,446.889,448.304,456.71,461.615,468.518,471.173,473.423,474.838,481.741,486.646,489.544,493.936,498.841,501.091,502.506,506.412,511.317,514.215,517.617,520.515,524.421,526.671,528.086,530.984" svgx:width="0.72,0.25,0.55,0.44,0.5,0.5,0.25,0.55,0.33,0.44,0.5,0.44,0.5,0.44,0.33,0.44,0.28,0.28,0.5,0.5,0.25,0.55,0.5,0.33,0.25,0.55,0.89,0.5,0.72,0.25,0.25,0.55,0.72,0.5,0.28,0.44,0.5,0.25,0.55,0.39,0.5,0.28,0.33,0.28,0.39,0.25,0.55,0.28,0.5" style="fill:rgb(0,0,0);font-family:TimesNewRomanWGL;font-size:9.0px;stroke:none;">O and regeneration of MnO, which shifts to</text>
  </g>
 </g>
</svg>
