<?xml version="1.0" encoding="UTF-8"?>
<svg height="802.1" width="4130.53" xmlns="http://www.w3.org/2000/svg">
 <g id="page" xmlns:svgx="http://www.xml-cml.org/schema/svgx">
  <g begin="text"/>
  <g begin="text">
   <text y="73.23" x="390.39,395.052,398.944,400.498,402.052,405.552,407.491,411.383,412.937,416.829,418.768,422.268,424.207,426.146,431.2,435.092,438.984,442.876,444.815,448.707,452.207,456.099,459.991,463.883,465.437" svgx:width="0.67,0.56,0.22,0.22,0.5,0.28,0.56,0.22,0.56,0.28,0.5,0.28,0.28,0.72,0.56,0.56,0.56,0.28,0.56,0.5,0.56,0.56,0.56,0.22,0.28" style="fill:rgb(0,0,0);font-family:ArialMT-Italic;font-size:7.0px;stroke:none;">Beilstein J. Nanotechnol.</text>
   <text y="73.23" x="467.376" svgx:width="0.28" style="fill:rgb(0,0,0);font-family:ArialMT-Regular;font-size:7.0px;stroke:none;"> </text>
   <text y="73.23" x="469.315,473.207,477.099,480.991,484.883" svgx:width="0.56,0.56,0.56,0.56,0.28" style="fill:rgb(0,0,0);font-family:ArialMT-Bold;font-size:7.0px;stroke:none;">2016,</text>
   <text y="73.23" x="486.822" svgx:width="0.28" style="fill:rgb(0,0,0);font-family:ArialMT-Regular;font-size:7.0px;stroke:none;"> </text>
   <text y="73.23" x="488.761,492.653" svgx:width="0.56,0.28" style="fill:rgb(0,0,0);font-family:ArialMT-Italic;font-size:7.0px;stroke:none;">7,</text>
   <text y="73.23" x="494.592,496.531,500.423,504.315,508.207,512.099,515.991,519.883,523.775,527.667,531.559" svgx:width="0.28,0.56,0.56,0.56,0.56,0.56,0.56,0.56,0.56,0.56,0.28" style="fill:rgb(0,0,0);font-family:ArialMT-Regular;font-size:7.0px;stroke:none;"> 1289–1295.</text>
  </g>
  <g begin="text">
   <text y="792.1" x="517.93,521.822,525.714,529.606" svgx:width="0.56,0.56,0.56,0.56" style="fill:rgb(0,0,0);font-family:ArialMT-Regular;font-size:7.0px;stroke:none;">1290</text>
  </g>
  <path style="fill:none;stroke:rgb(218,218,218);stroke-width:1.0;" d="M59.500 548.050 L535.500 548.050 "/>
  <path style="fill:none;stroke:rgb(218,218,218);stroke-width:0.5;" d="M535.250 547.800 L535.250 745.960 "/>
  <path style="fill:none;stroke:rgb(218,218,218);stroke-width:0.5;" d="M59.750 547.800 L59.750 745.960 "/>
  <path style="fill:none;stroke:rgb(218,218,218);stroke-width:0.5;" d="M535.500 762.750 L59.500 762.750 "/>
  <path style="fill:none;stroke:rgb(218,218,218);stroke-width:0.5;" d="M535.250 745.960 L535.250 763.000 "/>
  <path style="fill:none;stroke:rgb(218,218,218);stroke-width:0.5;" d="M59.750 745.960 L59.750 763.000 "/>
  <rect style="stroke:blue;stroke-width:0.3;" x="120.53" y="513.29" height="183.18" width="353.95" title="2"/>
  <text y="513.29" class="image" id="image.2.1" width="353" height="183" x="120.53">image.2.1.121_474.513_696</text>
  <g begin="text"/>
  <g begin="text">
   <text y="757.03" x="65.47,69.74,71.679,75.949,80.219,82.942,86.834,88.773,92.665,94.996" svgx:width="0.61,0.28,0.61,0.61,0.39,0.56,0.28,0.56,0.33,0.28" style="fill:rgb(0,0,0);font-family:ArialMT-Bold;font-size:7.0px;stroke:none;">Figure 1: </text>
   <text y="757.03" x="96.935,99.266,103.158,105.489,107.428,112.09,116.752,122.583,124.522,128.414,132.306,136.198,138.137,140.468,144.36,146.691,148.63,152.9,157.562,163.393,165.332,166.886,172.717,176.609,180.501,184.393,187.893,189.832,193.724,195.663,197.602,199.541,203.433,207.325,209.264,213.156,217.048,218.987,224.041,227.933,230.264,233.764,235.703,239.595,241.534,243.473,246.973,250.865,252.419,256.311,260.203,261.757,265.649,267.98,269.534,271.088,274.588,278.48,280.419,283.919,287.811,290.142,294.034,297.926,301.818,303.757,307.649,311.541,315.433,319.325,321.264,322.818,326.71,330.602,332.933,336.433,338.372,342.264,346.156,349.656,353.548,357.44,359.771,363.663,367.555,369.494,374.548,376.102,378.041,381.933,383.872,389.703,393.595,399.034,400.973,404.865,408.757,412.649,414.588,419.642" svgx:width="0.33,0.56,0.33,0.28,0.67,0.67,0.83,0.28,0.56,0.56,0.56,0.28,0.33,0.56,0.33,0.28,0.61,0.67,0.83,0.28,0.22,0.83,0.56,0.56,0.56,0.5,0.28,0.56,0.28,0.28,0.28,0.56,0.56,0.28,0.56,0.56,0.28,0.72,0.56,0.33,0.5,0.28,0.56,0.28,0.28,0.5,0.56,0.22,0.56,0.56,0.22,0.56,0.33,0.22,0.22,0.5,0.56,0.28,0.5,0.56,0.33,0.56,0.56,0.56,0.28,0.56,0.56,0.56,0.56,0.28,0.22,0.56,0.56,0.33,0.5,0.28,0.56,0.56,0.5,0.56,0.56,0.33,0.56,0.56,0.28,0.72,0.22,0.28,0.56,0.28,0.83,0.56,0.78,0.28,0.56,0.56,0.56,0.28,0.72,0.28" style="fill:rgb(0,0,0);font-family:ArialMT-Regular;font-size:7.0px;stroke:none;">(a) SEM and (b) TEM images of the network of spindle-like carbon nanofibers anchored with MnO and N.</text>
  </g>
  <g begin="text">
   <text y="112.0" x="59.5,64.531,67.312,72.344,74.594,76.455,83.484,85.734,87.595" svgx:width="0.5,0.25,0.5,0.25,0.55,0.72,0.25,0.55,0.5" style="fill:rgb(0,0,0);font-family:TimesNewRomanWGL;font-size:9.0px;stroke:none;">0.1 A g</text>
   <text y="108.85" x="92.627,97.212" svgx:width="0.56,0.5" style="fill:rgb(0,0,0);font-family:TimesNewRomanWGL;font-size:7.2px;stroke:none;">−1</text>
   <text y="112.0" x="101.343,103.593,105.454,110.485,115.516,117.766,119.628,124.146,131.67,136.701,141.22,146.251,151.282,154.306,159.338,164.369,166.619,168.48,177.012,182.044,189.073,191.323,193.184,198.215,202.734,207.765,212.796,217.827,222.345,225.874,228.898,231.922,236.44,239.465,243.983,248.015,250.265,252.126,255.151,260.182,262.432,264.293,268.811,273.33,276.858,281.889,286.92" svgx:width="0.25,0.55,0.5,0.5,0.25,0.55,0.44,0.78,0.5,0.44,0.5,0.5,0.28,0.5,0.5,0.25,0.55,0.89,0.5,0.72,0.25,0.55,0.5,0.44,0.5,0.5,0.5,0.44,0.33,0.28,0.28,0.44,0.28,0.44,0.39,0.25,0.55,0.28,0.5,0.25,0.55,0.44,0.44,0.33,0.5,0.5,0.5" style="fill:rgb(0,0,0);font-family:TimesNewRomanWGL;font-size:9.0px;stroke:none;"> by embedding MnO nanoparticles in carbon</text>
   <text y="125.0" x="59.5,66.536,69.072,73.102,76.142,80.685,84.229,88.772,92.802,96.832,99.368,102.912,105.313,108.353,112.896,117.439,120.479,122.772,125.172,130.705,135.248,139.278,143.821,146.222,150.252,152.788,155.188,159.218,161.754,164.047,166.448,170.991,174.031,178.061,182.604,186.634,189.674,193.704,198.247,200.648,204.678,207.078,211.108,215.651,222.687,227.23,231.773,235.317,237.853,240.389,244.419,246.82,251.363,254.403,256.803,264.847,269.39,275.931,278.332,282.362,286.905" svgx:width="0.78,0.28,0.44,0.33,0.5,0.39,0.5,0.44,0.44,0.28,0.39,0.25,0.33,0.5,0.5,0.33,0.25,0.25,0.61,0.5,0.44,0.5,0.25,0.44,0.28,0.25,0.44,0.28,0.25,0.25,0.5,0.33,0.44,0.5,0.44,0.33,0.44,0.5,0.25,0.44,0.25,0.44,0.5,0.78,0.5,0.5,0.39,0.28,0.28,0.44,0.25,0.5,0.33,0.25,0.89,0.5,0.72,0.25,0.44,0.5,0.5" style="fill:rgb(0,0,0);font-family:TimesNewRomanWGL;font-size:9.0px;stroke:none;">microsheets [14]. Zhao et al. prepared a composite of MnO and</text>
   <text y="138.0" x="59.5,62.565,66.62,71.188,75.756,79.812,83.867,88.435,90.923,95.491,98.556,102.611,107.179,111.748,115.803,120.371,124.426,126.914,133.48,136.041,138.602,143.171,145.659,149.714,152.202,156.257,160.313,164.881,168.936,172.991,175.552,178.113,182.681,185.17,189.738,192.803,195.291,199.859,204.427,208.995,211.484,218.545,225.111,229.679,232.167" svgx:width="0.33,0.44,0.5,0.5,0.44,0.44,0.5,0.25,0.5,0.33,0.44,0.5,0.5,0.44,0.5,0.44,0.25,0.72,0.28,0.28,0.5,0.25,0.44,0.25,0.44,0.44,0.5,0.44,0.44,0.28,0.28,0.5,0.25,0.5,0.33,0.25,0.5,0.5,0.5,0.25,0.78,0.72,0.5,0.25,0.5" style="fill:rgb(0,0,0);font-family:TimesNewRomanWGL;font-size:9.0px;stroke:none;">reduced graphene with a capacity of 900 mAh g</text>
   <text y="134.85" x="236.735,240.857" svgx:width="0.56,0.5" style="fill:rgb(0,0,0);font-family:TimesNewRomanWGL;font-size:7.2px;stroke:none;">−1</text>
   <text y="138.0" x="244.525,247.014,251.069,253.63,256.118,260.686,263.004,267.573,270.061,276.627,279.115" svgx:width="0.25,0.44,0.28,0.25,0.5,0.25,0.5,0.25,0.72,0.25,0.5" style="fill:rgb(0,0,0);font-family:TimesNewRomanWGL;font-size:9.0px;stroke:none;"> at 0.1 A g</text>
   <text y="134.85" x="283.683,287.805" svgx:width="0.56,0.5" style="fill:rgb(0,0,0);font-family:TimesNewRomanWGL;font-size:7.2px;stroke:none;">−1</text>
   <text y="151.0" x="59.5,62.57,67.143,70.212,72.535,75.04,81.107,85.679,88.245,90.75,94.81,97.375,99.88,103.94,106.506,108.829,111.333,115.906,120.479,123.045,127.104,129.67,134.243,138.303,142.876,145.38,149.44,151.945,156.005,160.064,164.637,168.697,172.757,175.322,177.888,182.461,184.966,189.539,192.608,195.113,199.686,204.259,208.831,211.336,218.402,224.973,229.545,232.05" svgx:width="0.33,0.5,0.33,0.25,0.25,0.67,0.5,0.28,0.25,0.44,0.28,0.25,0.44,0.28,0.25,0.25,0.5,0.5,0.28,0.44,0.28,0.5,0.44,0.5,0.25,0.44,0.25,0.44,0.44,0.5,0.44,0.44,0.28,0.28,0.5,0.25,0.5,0.33,0.25,0.5,0.5,0.5,0.25,0.78,0.72,0.5,0.25,0.5" style="fill:rgb(0,0,0);font-family:TimesNewRomanWGL;font-size:9.0px;stroke:none;">[7]. Cui et al. obtained a capacity of 841 mAh g</text>
   <text y="147.85" x="236.623,240.749" svgx:width="0.56,0.5" style="fill:rgb(0,0,0);font-family:TimesNewRomanWGL;font-size:7.2px;stroke:none;">−1</text>
   <text y="151.0" x="244.422,246.927,250.987,253.552,256.057,260.63,262.953,267.526,270.03,276.601,279.106" svgx:width="0.25,0.44,0.28,0.25,0.5,0.25,0.5,0.25,0.72,0.25,0.5" style="fill:rgb(0,0,0);font-family:TimesNewRomanWGL;font-size:9.0px;stroke:none;"> at 0.1 A g</text>
   <text y="147.85" x="283.679,287.805" svgx:width="0.56,0.5" style="fill:rgb(0,0,0);font-family:TimesNewRomanWGL;font-size:7.2px;stroke:none;">−1</text>
   <text y="164.0" x="59.5,64.233,68.967,71.217,72.034,76.254,80.987,88.214,92.947,95.673,100.407,105.14,107.39,108.207,112.94,117.674,124.9,129.634,134.367,139.1,142.331,145.057,147.784,152.517,156.737,158.987,159.804,168.038,172.772,179.503,181.753,182.57,187.303,191.524,196.257,200.991,205.211,208.441,213.175,216.909,219.635,223.856,226.582,229.309,232.035,234.761,238.982,242.716,244.966,245.783,252.514,255.241,257.967,262.7,264.95,265.767,269.988,274.208,277.438,282.172,286.905" svgx:width="0.5,0.5,0.25,0.55,0.44,0.5,0.78,0.5,0.28,0.5,0.5,0.25,0.55,0.5,0.5,0.78,0.5,0.5,0.5,0.33,0.28,0.28,0.5,0.44,0.25,0.55,0.89,0.5,0.72,0.25,0.55,0.5,0.44,0.5,0.5,0.44,0.33,0.5,0.39,0.28,0.44,0.28,0.28,0.28,0.28,0.44,0.39,0.25,0.55,0.72,0.28,0.28,0.5,0.25,0.55,0.44,0.44,0.33,0.5,0.5,0.5" style="fill:rgb(0,0,0);font-family:TimesNewRomanWGL;font-size:9.0px;stroke:none;">by combing pompon-like MnO nanocrystallites with carbon</text>
   <text y="177.0" x="59.5,64.178,68.343,73.02,77.698,80.369,85.047,89.724,93.889,96.761,100.44,104.605,108.77,111.944,115.119,119.797,122.468,127.146,130.824,133.697,136.871,141.549,146.227,149.402,151.829,154.702,163.366,167.531,172.209,176.887,179.759,183.924,186.594,189.467,193.631,196.302,198.73,201.602,205.767,210.445,215.122,217.995,223.662,228.34,232.505,237.183,240.055,244.22,246.89,249.763,253.927,256.598,259.026,261.898,266.063,268.734,272.898,275.569,282.74,286.905" svgx:width="0.5,0.44,0.5,0.5,0.28,0.5,0.5,0.44,0.25,0.39,0.44,0.44,0.33,0.33,0.5,0.28,0.5,0.39,0.25,0.33,0.5,0.5,0.33,0.25,0.25,0.94,0.44,0.5,0.5,0.25,0.44,0.28,0.25,0.44,0.28,0.25,0.25,0.44,0.5,0.5,0.25,0.61,0.5,0.44,0.5,0.25,0.44,0.28,0.25,0.44,0.28,0.25,0.25,0.44,0.28,0.44,0.28,0.78,0.44,0.5" style="fill:rgb(0,0,0);font-family:TimesNewRomanWGL;font-size:9.0px;stroke:none;">nanotube scaffolds [12]. Wang et al. and Zhao et al. claimed</text>
   <text y="190.0" x="59.5,62.143,66.793,70.93,73.572,76.347,78.99,83.64,87.777,90.551,94.688,97.331,101.468,105.604,108.247,111.394,116.044,119.695,124.345,128.995,133.645,136.419,144.57,149.22,155.868,160.517,166.661,169.436,173.573,178.223,185.365,190.015,194.665,198.316,200.959,203.602,207.739,210.513,215.163,219.3,223.95,228.599,231.746,234.389,239.039,243.176,246.323,249.974,252.748,257.398,260.545,264.682,267.829,272.478,275.625,282.768,286.905" svgx:width="0.28,0.5,0.44,0.28,0.25,0.28,0.5,0.44,0.25,0.44,0.28,0.44,0.44,0.28,0.33,0.5,0.39,0.5,0.5,0.5,0.25,0.89,0.5,0.72,0.5,0.67,0.25,0.44,0.5,0.78,0.5,0.5,0.39,0.28,0.28,0.44,0.25,0.5,0.44,0.5,0.5,0.33,0.28,0.5,0.44,0.33,0.39,0.25,0.5,0.33,0.44,0.33,0.5,0.33,0.78,0.44,0.5" style="fill:rgb(0,0,0);font-family:TimesNewRomanWGL;font-size:9.0px;stroke:none;">that the electrospun MnO–C composite nanofibers preformed</text>
   <text y="203.0" x="59.5,64.012,66.517,71.028,75.54,77.832,80.84,84.839,89.351,93.35,96.359,99.871,102.376,106.888,109.393,113.392,115.683,119.682,123.68,128.192,132.191,136.19,138.695,141.199,143.704,147.703,151.216,153.507,158.019,161.028,163.319,167.831,172.343,176.854,179.146,183.145,187.656,192.168,194.459,198.971,203.483,207.995,212.507,214.798,221.803,228.313,232.824,235.116" svgx:width="0.5,0.28,0.5,0.5,0.25,0.33,0.44,0.5,0.44,0.33,0.39,0.28,0.5,0.28,0.44,0.25,0.44,0.44,0.5,0.44,0.44,0.28,0.28,0.28,0.44,0.39,0.25,0.5,0.33,0.25,0.5,0.5,0.5,0.25,0.44,0.5,0.5,0.25,0.5,0.5,0.5,0.5,0.25,0.78,0.72,0.5,0.25,0.5" style="fill:rgb(0,0,0);font-family:TimesNewRomanWGL;font-size:9.0px;stroke:none;">high reversible capacities of 663 and 1082 mAh g</text>
   <text y="199.85" x="239.627,243.693" svgx:width="0.56,0.5" style="fill:rgb(0,0,0);font-family:TimesNewRomanWGL;font-size:7.2px;stroke:none;">−1</text>
   <text y="203.0" x="247.305,249.566,251.858,254.867,258.865,262.378,266.89,270.889,274.888,277.392,279.897,284.409,288.408" svgx:width="0.25,0.25,0.33,0.44,0.39,0.5,0.44,0.44,0.28,0.28,0.5,0.44,0.33" style="fill:rgb(0,0,0);font-family:TimesNewRomanWGL;font-size:9.0px;stroke:none;">, respective-</text>
   <text y="216.0" x="59.5,62.301,67.108,69.666,71.916,72.992,77.286,80.087,82.337,83.413,87.708,89.958,91.034,95.329,100.136,103.441,106.745,111.04,115.847,118.648,120.898,121.974,126.782,131.076,135.884,139.692,142.493,145.293,150.101,152.351,153.427,158.234,161.539,163.789,164.865,169.673,172.23,177.038,179.288,180.364,187.17,189.42,190.496" svgx:width="0.28,0.5,0.25,0.25,0.55,0.44,0.28,0.25,0.55,0.44,0.25,0.55,0.44,0.5,0.33,0.33,0.44,0.5,0.28,0.25,0.55,0.5,0.44,0.5,0.39,0.28,0.28,0.5,0.25,0.55,0.5,0.33,0.25,0.55,0.5,0.25,0.5,0.25,0.55,0.72,0.25,0.55,0.5" style="fill:rgb(0,0,0);font-family:TimesNewRomanWGL;font-size:9.0px;stroke:none;">ly, at a current density of 0.1 A g</text>
   <text y="212.85" x="195.304,199.665" svgx:width="0.56,0.5" style="fill:rgb(0,0,0);font-family:TimesNewRomanWGL;font-size:7.2px;stroke:none;">−1</text>
   <text y="216.0" x="203.572,205.822,206.898,210.203,215.011,217.568,222.376,227.183,230.488,233.045,235.295,236.371,243.177,247.985,250.235,251.311,254.111,258.919,263.213,265.463,266.54,273.345,278.153,282.96,285.761,290.055" svgx:width="0.25,0.55,0.33,0.5,0.25,0.5,0.5,0.33,0.25,0.25,0.55,0.72,0.5,0.25,0.55,0.28,0.5,0.44,0.25,0.55,0.72,0.5,0.5,0.28,0.44,0.25" style="fill:rgb(0,0,0);font-family:TimesNewRomanWGL;font-size:9.0px;stroke:none;"> [5,13]. On the whole,</text>
   <text y="229.0" x="59.5,64.11,68.721,73.331,76.439,79.042,83.652,86.256,90.353,92.956,97.567,102.177,104.814,112.925,117.535,124.144,126.78,130.877,135.488,140.098,142.734,146.832,150.929,154.037,158.647,163.257,167.868,170.504,177.607,181.705,184.308,188.406,191.513,194.116,198.214,200.817,204.428,207.065,211.162,215.26,219.87,222.506,226.604,229.711,232.818,236.916,241.013,243.617,246.22,250.83,254.928,257.531,262.142,264.778,267.885,271.983,275.594,280.204,282.808,287.418" svgx:width="0.5,0.5,0.5,0.33,0.28,0.5,0.28,0.44,0.28,0.5,0.5,0.25,0.89,0.5,0.72,0.25,0.44,0.5,0.5,0.25,0.44,0.44,0.33,0.5,0.5,0.5,0.25,0.78,0.44,0.28,0.44,0.33,0.28,0.44,0.28,0.39,0.25,0.44,0.44,0.5,0.25,0.44,0.33,0.33,0.44,0.44,0.28,0.28,0.5,0.44,0.28,0.5,0.25,0.33,0.44,0.39,0.5,0.28,0.5,0.44" style="fill:rgb(0,0,0);font-family:TimesNewRomanWGL;font-size:9.0px;stroke:none;">hybridizing MnO and carbon materials can effectively resolve</text>
   <text y="242.0" x="59.5,64.077,67.151,71.727,76.304,78.874,82.938,90.007,93.585,96.104,99.682,104.258,108.322,112.899,115.418,119.481,123.059,125.578,128.148,132.724,136.788,139.307,143.884,146.453,151.03,155.607,158.126,162.189,166.766,171.343,175.92,180.496,184.56,187.13,189.7,194.276,196.846,199.416,203.993,206.511,211.088,214.162,216.681,219.25,223.827,227.891,230.41,234.473,238.537,241.611,246.188,250.765,255.341,257.86,264.93,268.993,271.563,275.627,278.701,281.271,285.334,287.904" svgx:width="0.5,0.33,0.5,0.5,0.28,0.44,0.78,0.39,0.25,0.39,0.5,0.44,0.5,0.25,0.44,0.39,0.25,0.28,0.5,0.44,0.25,0.5,0.28,0.5,0.5,0.25,0.44,0.5,0.5,0.5,0.5,0.44,0.28,0.28,0.5,0.28,0.28,0.5,0.25,0.5,0.33,0.25,0.28,0.5,0.44,0.25,0.44,0.44,0.33,0.5,0.5,0.5,0.25,0.78,0.44,0.28,0.44,0.33,0.28,0.44,0.28,0.39" style="fill:rgb(0,0,0);font-family:TimesNewRomanWGL;font-size:9.0px;stroke:none;">problems such as the high conductivity of the carbon materials</text>
   <text y="255.0" x="59.5,63.546,68.104,72.663,75.118,79.163,81.715,84.266,88.825,95.381,98.941,101.396,105.441,107.896,112.455,117.013,120.069,123.124,127.17,130.226,132.777,137.336,141.894,144.349,147.405,151.963,155.019,157.474,160.025,164.584,168.629,171.084,175.643,180.201,182.753,187.311,194.363,198.409,200.864,204.909,209.468,214.026,218.072,222.63,226.19,228.741,233.3,237.858,240.313,244.872,247.927,250.382,254.428,258.987,263.545,266.097,269.152,273.198,277.243,279.795,282.346,286.905" svgx:width="0.44,0.5,0.5,0.25,0.44,0.28,0.28,0.5,0.72,0.39,0.25,0.44,0.25,0.5,0.5,0.33,0.33,0.44,0.33,0.28,0.5,0.5,0.25,0.33,0.5,0.33,0.25,0.28,0.5,0.44,0.25,0.5,0.5,0.28,0.5,0.78,0.44,0.25,0.44,0.5,0.5,0.44,0.5,0.39,0.28,0.5,0.5,0.25,0.5,0.33,0.25,0.44,0.5,0.5,0.28,0.33,0.44,0.44,0.28,0.28,0.5,0.5" style="fill:rgb(0,0,0);font-family:TimesNewRomanWGL;font-size:9.0px;stroke:none;">and allows a buffering for the volume expansion or contraction</text>
   <text y="268.0" x="59.5,62.204,66.915,69.165,69.904,73.616,78.327,85.531,89.729,91.979,92.717,97.428,101.626,106.337,109.546,113.744,117.942,120.403,122.653,123.391,131.603,136.314,139.522,143.72,148.431,153.142,157.34,160.548,163.009,165.259,165.998,173.202,177.4,182.111,186.822,189.072,189.811,193.523,196.227,200.938,205.649,208.353,212.551,216.263,218.513,219.252,223.963,228.161,232.872,237.07,239.32,240.058,243.77,248.481,253.192,259.901,264.613,266.863,267.601,270.305,275.016,279.214,281.918,284.168,284.907" svgx:width="0.28,0.5,0.25,0.55,0.39,0.5,0.78,0.44,0.25,0.55,0.5,0.44,0.5,0.33,0.44,0.44,0.25,0.25,0.55,0.89,0.5,0.33,0.44,0.5,0.5,0.44,0.33,0.25,0.25,0.55,0.78,0.44,0.5,0.5,0.25,0.55,0.39,0.28,0.5,0.5,0.28,0.44,0.39,0.25,0.55,0.5,0.44,0.5,0.44,0.25,0.55,0.39,0.5,0.5,0.72,0.5,0.25,0.55,0.28,0.5,0.44,0.28,0.25,0.55,0.72" style="fill:rgb(0,0,0);font-family:TimesNewRomanWGL;font-size:9.0px;stroke:none;">to some degree. Moreover, many studies have shown that N</text>
   <text y="281.0" x="59.5,66.544,71.095,75.646,78.19,81.238,83.782,87.82,91.858,94.402,96.946,101.497,106.048,108.476,112.514,116.552,121.103,123.532,126.076,133.12,137.671,140.718,145.269,149.82,153.858,156.287,158.831,163.382,167.42,169.848,173.886,178.437,182.988,187.539,192.09,196.128,198.672,201.216,205.767,208.311,210.855,215.406,217.834,221.872,226.423,230.974,233.403,238.944" svgx:width="0.78,0.5,0.5,0.28,0.33,0.28,0.44,0.44,0.28,0.28,0.5,0.5,0.25,0.44,0.44,0.5,0.25,0.28,0.78,0.5,0.33,0.5,0.5,0.44,0.25,0.28,0.5,0.44,0.25,0.44,0.5,0.5,0.5,0.5,0.44,0.28,0.28,0.5,0.28,0.28,0.5,0.25,0.44,0.5,0.5,0.25,0.61,0.28" style="fill:rgb(0,0,0);font-family:TimesNewRomanWGL;font-size:9.0px;stroke:none;">modification can improve the conductivity and Li</text>
   <text y="277.85" x="241.488" svgx:width="0.56" style="fill:rgb(0,0,0);font-family:TimesNewRomanWGL;font-size:7.2px;stroke:none;">+</text>
   <text y="281.0" x="245.592,248.021,251.573,254.117,258.668,261.716,265.754,270.305,274.343,276.771,281.322,285.36,288.408" svgx:width="0.25,0.39,0.28,0.5,0.33,0.44,0.5,0.44,0.25,0.5,0.44,0.33,0.33" style="fill:rgb(0,0,0);font-family:TimesNewRomanWGL;font-size:9.0px;stroke:none;"> storage per-</text>
   <text y="294.0" x="59.5,62.596,67.195,70.291,77.383,81.469,86.067,90.153,94.239,96.835,101.434,104.53,107.126,111.212,115.298,118.394,122.993,127.592,132.191,134.787,141.879,145.965,148.557,152.643,155.739,158.331,162.416,165.008,168.608,171.204,174.3,178.899,181.248,185.847,188.196,192.795,197.394,200.49,202.839,205.435,211.528,215.614,219.214,223.299,227.898,230.495,235.093,239.692,242.289,244.88,249.479,253.565,257.165,261.251,263.847,268.446,271.038,275.637,280.236,284.322,288.408" svgx:width="0.33,0.5,0.33,0.78,0.44,0.5,0.44,0.44,0.25,0.5,0.33,0.25,0.44,0.44,0.33,0.5,0.5,0.5,0.25,0.78,0.44,0.28,0.44,0.33,0.28,0.44,0.28,0.39,0.25,0.33,0.5,0.25,0.5,0.25,0.5,0.5,0.33,0.25,0.25,0.67,0.44,0.39,0.44,0.5,0.25,0.5,0.5,0.25,0.28,0.5,0.44,0.39,0.44,0.25,0.5,0.28,0.5,0.5,0.44,0.44,0.33" style="fill:rgb(0,0,0);font-family:TimesNewRomanWGL;font-size:9.0px;stroke:none;">formance of carbon materials [4,8,15]. Based on these pioneer</text>
   <text y="307.0" x="59.5,66.064,70.63,73.694,78.26,81.827,84.143,86.625,89.184,93.75,97.804,100.285,104.339,106.898,110.951,115.004,117.563,120.627,125.193,129.246,133.812,137.865,144.925,147.484,151.537,155.59,158.149,160.631,165.197,168.261,172.827,177.393,181.446,184.509,187.069,189.628,193.681,197.248,199.73,204.296,207.359,209.841,213.894,216.376,219.943,224.51,228.077,230.636,234.689,241.748,244.23,248.283,252.85,257.416,260.983,263.542,267.109,269.669,272.228,276.794,281.36,283.842,288.408" svgx:width="0.72,0.5,0.33,0.5,0.39,0.25,0.25,0.28,0.5,0.44,0.25,0.44,0.28,0.44,0.44,0.28,0.33,0.5,0.44,0.5,0.44,0.78,0.28,0.44,0.44,0.28,0.25,0.5,0.33,0.5,0.5,0.44,0.33,0.28,0.28,0.44,0.39,0.25,0.5,0.33,0.25,0.44,0.25,0.39,0.5,0.39,0.28,0.44,0.78,0.25,0.44,0.5,0.5,0.39,0.28,0.39,0.28,0.28,0.5,0.5,0.25,0.5,0.33" style="fill:rgb(0,0,0);font-family:TimesNewRomanWGL;font-size:9.0px;stroke:none;">works, the electrochemical properties of a system consisting of</text>
   <text y="320.0" x="59.5,63.576,67.651,70.737,75.325,79.914,84.502,87.062,94.144,98.219,100.801,104.876,107.962,110.543,114.619,117.2,120.79,123.128,125.688,133.778,138.366,144.953,147.513,152.101,156.177,160.765,165.354,168.943,171.525,174.61,179.199,183.274,185.856,190.444,193.53,197.605,201.195,203.755,207.83,212.419,217.007,219.567,223.643,226.203,232.789,235.349,239.425,242.006,246.082,253.163,257.239,261.827,264.409,266.969,270.558,275.147,279.735,284.324,286.905" svgx:width="0.44,0.44,0.33,0.5,0.5,0.5,0.25,0.78,0.44,0.28,0.44,0.33,0.28,0.44,0.28,0.39,0.25,0.25,0.89,0.5,0.72,0.25,0.5,0.44,0.5,0.5,0.39,0.28,0.33,0.5,0.44,0.28,0.5,0.33,0.44,0.39,0.25,0.44,0.5,0.5,0.25,0.44,0.25,0.72,0.25,0.44,0.28,0.44,0.78,0.44,0.5,0.28,0.25,0.39,0.5,0.5,0.5,0.28,0.5" style="fill:rgb(0,0,0);font-family:TimesNewRomanWGL;font-size:9.0px;stroke:none;">carbon materials, MnO nanostructures and a N element should</text>
   <text y="333.0" x="59.5,64.233,68.454,70.704,71.521,74.751,79.485,82.715,85.442,90.175,94.395,97.626,99.876,100.693,104.427,107.154,111.887,116.62,119.347,123.567,128.301,130.551,131.368,134.598,139.332,142.562,144.812,145.629,148.355,153.089,157.309,159.559,160.376,165.11,169.33,174.063,178.284,181.01,185.744,190.477,197.703,201.924,206.657,209.384,211.634,212.451,217.184,220.415,222.665,223.482,228.215,230.941,235.675,240.408,243.639,248.372,252.592,255.823,259.053,263.787,267.017,274.244,278.464,283.197,287.418" svgx:width="0.5,0.44,0.25,0.55,0.33,0.5,0.33,0.28,0.5,0.44,0.33,0.25,0.55,0.39,0.28,0.5,0.5,0.28,0.44,0.5,0.25,0.55,0.33,0.5,0.33,0.25,0.55,0.28,0.5,0.44,0.25,0.55,0.5,0.44,0.5,0.44,0.28,0.5,0.5,0.78,0.44,0.5,0.28,0.25,0.55,0.5,0.33,0.25,0.55,0.5,0.28,0.5,0.5,0.33,0.5,0.44,0.33,0.33,0.5,0.33,0.78,0.44,0.5,0.44,0.44" style="fill:rgb(0,0,0);font-family:TimesNewRomanWGL;font-size:9.0px;stroke:none;">be further studied for the development of high-performance</text>
   <text y="346.0" x="59.5,65.223,68.454,74.681,78.416" svgx:width="0.61,0.33,0.67,0.39,0.25" style="fill:rgb(0,0,0);font-family:TimesNewRomanWGL;font-size:9.0px;stroke:none;">LIBs.</text>
  </g>
  <g begin="text">
   <text y="372.0" x="59.5,66.259,70.507,73.765,76.519,81.28,86.041,89.803,92.053,92.966,101.228,105.989,112.748,117.509,123.764,126.014,126.927,131.175,135.936,143.19,147.951,152.712,156.474,159.228,161.982,166.23,169.992,172.242,173.155,179.914,182.668,185.422,190.183,192.433,193.346,197.594,202.355,207.116,209.87,213.128,217.889,220.643,223.397,227.645,232.406,234.656,235.569,240.33,244.578,249.339,254.1,257.862,260.616,263.874,268.635,272.883,275.637,280.398,283.656,287.904" svgx:width="0.72,0.44,0.33,0.28,0.5,0.5,0.39,0.25,0.55,0.89,0.5,0.72,0.5,0.67,0.25,0.55,0.44,0.5,0.78,0.5,0.5,0.39,0.28,0.28,0.44,0.39,0.25,0.55,0.72,0.28,0.28,0.5,0.25,0.55,0.44,0.5,0.5,0.28,0.33,0.5,0.28,0.28,0.44,0.5,0.25,0.55,0.5,0.44,0.5,0.5,0.39,0.28,0.33,0.5,0.44,0.28,0.5,0.33,0.44,0.39" style="fill:rgb(0,0,0);font-family:TimesNewRomanWGL;font-size:9.0px;stroke:none;">Various MnO–C composites with controlled nanostructures</text>
   <text y="385.0" x="59.5,64.019,68.024,72.543,76.549,78.864,83.383,87.388,91.394,95.913,98.228,101.748,106.266,110.785,113.297,117.815,121.821,125.341,127.852,131.858,135.864,140.382,142.698,145.713,150.232,153.248,155.563,161.072,164.088,170.1,172.416,176.421,178.933,182.939,186.944,189.456,192.472,196.99,201.509,205.515,209.034,211.35,213.861,218.38,220.695,225.214,229.22,231.731,235.737,238.052,241.068,245.587,247.855,252.374,254.643,259.161,263.68,265.949,270.467,274.986,278.002,282.52,287.039,290.055" svgx:width="0.5,0.44,0.5,0.44,0.25,0.5,0.44,0.44,0.5,0.25,0.39,0.5,0.5,0.28,0.5,0.44,0.39,0.28,0.44,0.44,0.5,0.25,0.33,0.5,0.33,0.25,0.61,0.33,0.67,0.25,0.44,0.28,0.44,0.44,0.28,0.33,0.5,0.5,0.44,0.39,0.25,0.28,0.5,0.25,0.5,0.44,0.28,0.44,0.25,0.33,0.5,0.25,0.5,0.25,0.5,0.5,0.25,0.5,0.5,0.33,0.5,0.5,0.33,0.25" style="fill:rgb(0,0,0);font-family:TimesNewRomanWGL;font-size:9.0px;stroke:none;">have been synthesized for LIB electrodes to date [4,8,14,16-21].</text>
   <text y="398.0" x="59.5,66.047,70.597,77.144,81.18,85.73,89.766,92.812,95.111,97.534,104.576,109.126,112.676,115.218,117.641,122.19,125.236,127.659,130.201,134.751,138.787,141.209,144.76,149.309,153.858,156.401,160.95,164.986,168.536,171.079,174.629,177.052,180.602,183.144,186.19,190.227,192.769,196.805,201.355,203.897,207.933,211.484,213.906,220.453,224.49,227.536,231.572,233.995,236.537,243.085,247.634,250.68,254.23,256.773,260.809,265.358,267.781,270.827,275.376,279.926,282.468,286.504,290.055" svgx:width="0.72,0.5,0.72,0.44,0.5,0.44,0.33,0.25,0.25,0.78,0.5,0.39,0.28,0.25,0.5,0.33,0.25,0.28,0.5,0.44,0.25,0.39,0.5,0.5,0.28,0.5,0.44,0.39,0.28,0.39,0.25,0.39,0.28,0.33,0.44,0.28,0.44,0.5,0.28,0.44,0.39,0.25,0.72,0.44,0.33,0.44,0.25,0.28,0.72,0.5,0.33,0.39,0.28,0.44,0.5,0.25,0.33,0.5,0.5,0.28,0.44,0.39,0.25" style="fill:rgb(0,0,0);font-family:TimesNewRomanWGL;font-size:9.0px;stroke:none;">However, most of the synthesis strategies were two-step routes,</text>
   <text y="411.0" x="59.5,63.574,68.16,75.24,79.826,82.406,86.993,91.579,94.133,98.719,103.306,107.892,110.976,115.563,118.142,122.729,126.802,129.886,136.966,141.039,143.619,146.172,149.256,153.329,157.403,161.477,164.056,166.636,171.222,175.809,178.362,182.436,187.023,191.609,194.162,198.749,201.329,205.915,209.989,213.072,215.626,220.212,224.799,228.386,230.966,234.05,236.629,239.713,243.787,247.86,250.44,257.519,261.593,266.18,268.759,272.347,274.683,277.237,283.821,288.408" svgx:width="0.44,0.5,0.78,0.5,0.28,0.5,0.5,0.25,0.5,0.5,0.5,0.33,0.5,0.28,0.5,0.44,0.33,0.78,0.44,0.28,0.25,0.33,0.44,0.44,0.44,0.28,0.28,0.5,0.5,0.25,0.44,0.5,0.5,0.25,0.5,0.28,0.5,0.44,0.33,0.25,0.5,0.5,0.39,0.28,0.33,0.28,0.33,0.44,0.44,0.28,0.78,0.44,0.5,0.28,0.39,0.25,0.25,0.72,0.5,0.33" style="fill:rgb(0,0,0);font-family:TimesNewRomanWGL;font-size:9.0px;stroke:none;">combing hydrothermal reaction and other post-treatments. Ad-</text>
   <text y="424.0" x="59.5,64.051,66.594,69.138,71.681,76.232,80.782,84.82,87.363,89.907,94.457,96.758,99.185,101.728,106.279,110.316,112.743,117.293,121.331,125.881,130.432,133.984,136.527,139.575,144.125,148.163,150.706,155.257,158.304,162.342,165.893,168.32,171.872,176.422,180.973,183.516,188.067,192.104,195.656,198.199,202.237,206.274,210.825,213.252,217.802,222.353,224.779,229.33,233.88,238.431,241.478,246.029,248.573,253.123,257.161,260.208,267.252,271.289,273.833,276.259,280.81,283.857,288.408" svgx:width="0.5,0.28,0.28,0.28,0.5,0.5,0.44,0.28,0.28,0.5,0.25,0.25,0.28,0.5,0.44,0.25,0.5,0.44,0.5,0.5,0.39,0.28,0.33,0.5,0.44,0.28,0.5,0.33,0.44,0.39,0.25,0.39,0.5,0.5,0.28,0.5,0.44,0.39,0.28,0.44,0.44,0.5,0.25,0.5,0.5,0.25,0.5,0.5,0.5,0.33,0.5,0.28,0.5,0.44,0.33,0.78,0.44,0.28,0.25,0.5,0.33,0.5,0.33" style="fill:rgb(0,0,0);font-family:TimesNewRomanWGL;font-size:9.0px;stroke:none;">ditionally, the nanostructures synthesized by hydrothermal pro-</text>
   <text y="437.0" x="59.5,63.556,67.612,71.182,74.752,78.808,82.378,84.87,88.926,91.992,96.048,98.539,103.108,105.67,110.239,114.808,117.37,121.939,124.431,128.001,132.057,136.626,140.196,142.758,145.32,147.882,152.451,156.507,158.998,161.56,166.129,168.621,171.183,175.752,179.808,182.299,185.365,189.421,193.477,197.533,200.095,202.657,207.227,211.796,214.287,218.856,222.912,225.978,230.034,237.096,241.152,243.714,247.77,250.836,254.406,256.898,260.954,265.523,270.092,272.583,277.152,279.714,282.78,285.846,288.408" svgx:width="0.44,0.44,0.39,0.39,0.44,0.39,0.25,0.44,0.33,0.44,0.25,0.5,0.28,0.5,0.5,0.28,0.5,0.25,0.39,0.44,0.5,0.39,0.28,0.28,0.28,0.5,0.44,0.25,0.28,0.5,0.25,0.28,0.5,0.44,0.25,0.33,0.44,0.44,0.44,0.28,0.28,0.5,0.5,0.25,0.5,0.44,0.33,0.44,0.78,0.44,0.28,0.44,0.33,0.39,0.25,0.44,0.5,0.5,0.25,0.5,0.28,0.33,0.33,0.28,0.33" style="fill:rgb(0,0,0);font-family:TimesNewRomanWGL;font-size:9.0px;stroke:none;">cesses are highly sensitive to the reaction parameters and diffi-</text>
   <text y="450.0" x="59.5,63.492,67.997,70.495,72.993,75.26,77.758,82.263,84.53,87.532,91.524,96.029,100.021,104.013,106.511,108.766,111.033,117.536,120.034,122.301,124.799,129.304,133.296,135.563,139.069,143.061,150.059,154.051,156.318,158.816,161.314,168.312,172.304,174.559,176.826,179.324,183.829,187.821,190.088,193.09,197.595,202.1,204.598,208.59,210.857,215.362,218.364,220.631,224.623,227.121,231.113,235.105,237.603,240.604,245.109,248.615,253.12,255.618,260.123,264.628,267.126,271.631,276.136,278.403,281.405,285.91,288.408" svgx:width="0.44,0.5,0.28,0.28,0.25,0.28,0.5,0.25,0.33,0.44,0.5,0.44,0.44,0.28,0.25,0.25,0.72,0.28,0.25,0.28,0.5,0.44,0.25,0.39,0.44,0.78,0.44,0.25,0.28,0.28,0.78,0.44,0.25,0.25,0.28,0.5,0.44,0.25,0.33,0.5,0.5,0.28,0.44,0.25,0.5,0.33,0.25,0.44,0.28,0.44,0.44,0.28,0.33,0.5,0.39,0.5,0.28,0.5,0.5,0.28,0.5,0.5,0.25,0.33,0.5,0.28,0.33" style="fill:rgb(0,0,0);font-family:TimesNewRomanWGL;font-size:9.0px;stroke:none;">cult to repeat. At the same time, the route of electrospinning fol-</text>
   <text y="463.0" x="59.5,62.321,67.15,73.976,78.292,83.12,85.37,86.519,91.348,96.176,98.426,99.575,104.404,108.719,113.034,115.856,118.106,119.255,122.077,125.402,129.717,134.033,136.854,144.175,148.491,153.319,156.141,158.391,159.54,164.368,168.684,172.513,174.763,175.912,179.238,183.553,187.869,192.184,195.005,199.834,204.149,208.977,211.227,212.377,216.206,219.028,223.856,228.684,231.506,234.831,237.652,241.968,246.283,251.112,253.933,256.183,257.332,261.648,264.469,267.29,271.606,276.434,279.256,282.077,286.905" svgx:width="0.28,0.5,0.72,0.44,0.5,0.25,0.55,0.5,0.5,0.25,0.55,0.5,0.44,0.44,0.28,0.25,0.55,0.28,0.33,0.44,0.44,0.28,0.78,0.44,0.5,0.28,0.25,0.55,0.5,0.44,0.39,0.25,0.55,0.33,0.44,0.44,0.44,0.28,0.5,0.44,0.5,0.25,0.55,0.39,0.28,0.5,0.5,0.28,0.33,0.28,0.44,0.44,0.5,0.28,0.25,0.55,0.44,0.28,0.28,0.44,0.5,0.28,0.28,0.5,0.5" style="fill:rgb(0,0,0);font-family:TimesNewRomanWGL;font-size:9.0px;stroke:none;">lowed by heat treatment has received significant attention</text>
   <text y="476.0" x="59.5,64.246,68.479,72.712,76.946,81.692,85.439,89.672,91.922,92.783,97.53,100.773,103.023,103.884,106.623,109.363,113.11,115.36,116.221,119.968,122.707,129.947,134.693,137.432,140.171,144.404,147.143,149.882,154.629,157.125,159.375,160.236,164.982,167.721,172.468,177.214,179.464,180.325,184.558,187.801,191.045,193.784,198.017,200.756,204.989,209.735,213.968,218.715,220.965,221.826,226.059,230.805,235.551,237.801,238.663,243.409,247.642,250.885,254.632,258.866,261.605,264.344,267.083,269.822,272.561,277.307,279.557,280.419,283.662,288.408" svgx:width="0.5,0.44,0.44,0.44,0.5,0.39,0.44,0.25,0.55,0.5,0.33,0.25,0.55,0.28,0.28,0.39,0.25,0.55,0.39,0.28,0.78,0.5,0.28,0.28,0.44,0.28,0.28,0.5,0.25,0.25,0.55,0.5,0.28,0.5,0.5,0.25,0.55,0.44,0.33,0.33,0.28,0.44,0.28,0.44,0.5,0.44,0.5,0.25,0.55,0.44,0.5,0.5,0.25,0.55,0.5,0.44,0.33,0.39,0.44,0.28,0.28,0.28,0.28,0.28,0.5,0.25,0.55,0.33,0.5,0.33" style="fill:rgb(0,0,0);font-family:TimesNewRomanWGL;font-size:9.0px;stroke:none;">because of its simplicity, high efficiency and versatility for</text>
   <text y="489.0" x="59.5,64.077,67.152,71.216,75.794,79.858,82.933,86.997,89.568,92.138,96.716,101.293,103.814,108.392,111.466,113.987,118.565,121.135,125.713,129.777,132.852,136.43,140.494,143.016,147.593,152.17,156.235,159.309,163.887,166.457,173.528,177.592,182.17,185.748,188.319,192.896,197.474,201.538,204.108,206.63,210.208,212.778,215.853,220.43,224.495,227.065,231.643,234.717,238.782,242.36,244.881,247.956,252.533,254.861,259.438,264.016,266.343,270.92,275.498,277.825,282.403,286.98,290.055" svgx:width="0.5,0.33,0.44,0.5,0.44,0.33,0.44,0.28,0.28,0.5,0.5,0.25,0.5,0.33,0.25,0.5,0.28,0.5,0.44,0.33,0.39,0.44,0.25,0.5,0.5,0.44,0.33,0.5,0.28,0.78,0.44,0.5,0.39,0.28,0.5,0.5,0.44,0.28,0.25,0.39,0.28,0.33,0.5,0.44,0.28,0.5,0.33,0.44,0.39,0.25,0.33,0.5,0.25,0.5,0.5,0.25,0.5,0.5,0.25,0.5,0.5,0.33,0.25" style="fill:rgb(0,0,0);font-family:TimesNewRomanWGL;font-size:9.0px;stroke:none;">preparation of diverse one-dimensional structures [5,13,22,23].</text>
  </g>
  <g begin="text">
   <text y="515.0" x="59.5,62.85,67.703,69.953,71.189,74.036,78.889,81.735,85.589,87.839,89.075,95.926,100.779,104.13,108.983,111.586,113.836,115.072,119.412,121.662,122.898,127.751,132.091,134.938,141.789,146.642,149.992,154.845,157.095,158.331,163.184,166.535,168.785,170.021,173.875,178.728,181.574,186.427,191.281,194.127,198.467,201.817,204.663,207.509,212.362,216.703,218.953,220.189,224.529,228.869,232.219,237.072,241.926,246.779,249.029,250.265,255.118,259.458,264.311,269.164,272.515,275.361,280.214,284.554,287.904" svgx:width="0.33,0.5,0.25,0.55,0.28,0.5,0.28,0.39,0.25,0.55,0.72,0.5,0.33,0.5,0.25,0.25,0.55,0.44,0.25,0.55,0.5,0.44,0.28,0.72,0.5,0.33,0.5,0.25,0.55,0.5,0.33,0.25,0.55,0.39,0.5,0.28,0.5,0.5,0.28,0.44,0.33,0.28,0.28,0.5,0.44,0.25,0.55,0.44,0.44,0.33,0.5,0.5,0.5,0.25,0.55,0.5,0.44,0.5,0.5,0.33,0.28,0.5,0.44,0.33,0.39" style="fill:rgb(0,0,0);font-family:TimesNewRomanWGL;font-size:9.0px;stroke:none;">In this work, a network of spindle-like carbon nanofibers</text>
   <text y="528.0" x="59.5,63.544,68.102,72.146,76.703,81.26,84.315,88.359,92.916,95.367,101.922,104.472,107.023,111.58,114.03,122.089,126.646,133.201,135.652,139.696,144.253,148.811,151.261,157.817,160.267,163.321,167.879,170.933,173.383,178.931,181.985,188.036,190.487,194.531,199.088,203.646,208.203,212.247,215.806,218.256,224.811,228.856,232.414,234.865,237.919,241.963,246.52,249.575,252.125,256.169,260.214,262.764,266.808,271.365,273.816,278.373,280.923,284.968,287.418" svgx:width="0.44,0.5,0.44,0.5,0.5,0.33,0.44,0.5,0.25,0.72,0.28,0.28,0.5,0.25,0.89,0.5,0.72,0.25,0.44,0.5,0.5,0.25,0.72,0.25,0.33,0.5,0.33,0.25,0.61,0.33,0.67,0.25,0.44,0.5,0.5,0.5,0.44,0.39,0.25,0.72,0.44,0.39,0.25,0.33,0.44,0.5,0.33,0.28,0.44,0.44,0.28,0.44,0.5,0.25,0.5,0.28,0.44,0.25,0.44" style="fill:rgb(0,0,0);font-family:TimesNewRomanWGL;font-size:9.0px;stroke:none;">anchored with MnO and N for LIB anodes was fabricated via a</text>
  </g>
  <g begin="text">
   <text y="112.0" x="303.6,307.251,309.894,317.037,321.687,324.33,326.973,330.12,332.763,336.9,341.55,344.325,347.976,352.626,357.276,359.919,364.569,368.706,372.357,375.0,378.651,381.426,384.573,389.223,393.873,396.516,400.653,403.428,406.071,410.721,415.371,420.021,422.664,427.314,429.957,434.607,439.257,442.032,446.169,448.812,452.949,457.086,459.729,462.876,467.526,471.177,475.827,478.47,483.12,487.77,490.413,495.063,499.713,502.487,505.634,510.284,512.927,515.57,520.22,526.868,531.005" svgx:width="0.39,0.28,0.78,0.5,0.28,0.28,0.33,0.28,0.44,0.5,0.25,0.39,0.5,0.5,0.28,0.5,0.44,0.39,0.28,0.39,0.25,0.33,0.5,0.5,0.28,0.44,0.25,0.28,0.5,0.5,0.5,0.28,0.5,0.28,0.5,0.5,0.25,0.44,0.28,0.44,0.44,0.28,0.33,0.5,0.39,0.5,0.28,0.5,0.5,0.28,0.5,0.5,0.25,0.33,0.5,0.28,0.28,0.5,0.72,0.44,0.5" style="fill:rgb(0,0,0);font-family:TimesNewRomanWGL;font-size:9.0px;stroke:none;">simplified synthesis route involving electrospinning followed</text>
   <text y="125.0" x="303.6,308.186,312.771,315.321,319.906,322.989,327.062,331.647,336.233,338.811,343.397,347.47,350.048,352.627,357.212,361.798,364.348,366.926,371.512,374.062,378.134,380.713,383.795,386.345,390.418,395.003,399.589,402.138,406.724,411.31,414.896,417.475,421.547,425.62,428.703,433.288,437.874,442.459,445.038,449.111,453.183,455.762,458.341,462.926,467.512,470.061,472.64,477.226,479.775,486.359,489.441,491.777,494.327,499.902,504.488,508.56,511.11,518.189,520.767,524.84,527.922,532.508" svgx:width="0.5,0.5,0.25,0.5,0.33,0.44,0.5,0.5,0.28,0.5,0.44,0.28,0.28,0.5,0.5,0.25,0.28,0.5,0.25,0.44,0.28,0.33,0.25,0.44,0.5,0.5,0.25,0.5,0.5,0.39,0.28,0.44,0.44,0.33,0.5,0.5,0.5,0.28,0.44,0.44,0.28,0.28,0.5,0.5,0.25,0.28,0.5,0.25,0.72,0.33,0.25,0.25,0.61,0.5,0.44,0.25,0.78,0.28,0.44,0.33,0.5,0.33" style="fill:rgb(0,0,0);font-family:TimesNewRomanWGL;font-size:9.0px;stroke:none;">by preoxidation in air and postcarbonization in Ar. The micro-</text>
   <text y="138.0" x="303.6,307.303,309.998,313.197,317.899,322.088,324.783,329.485,332.684,336.873,339.325,341.575,342.282,346.471,351.173,355.362,362.557,365.252,369.441,373.63,376.325,378.575,379.282,383.471,388.173,395.368,400.07,404.772,408.475,411.17,413.865,416.56,421.262,425.964,428.214,428.921,433.11,437.812,442.514,444.764,445.471,449.66,452.355,456.544,460.733,463.427,466.626,471.328,475.517,480.219,484.408,491.603,494.298,498.487,502.676,505.371,507.621,508.328,511.023,513.718,516.413,521.115,523.81,528.512" svgx:width="0.39,0.28,0.33,0.5,0.44,0.28,0.5,0.33,0.44,0.25,0.25,0.55,0.44,0.5,0.44,0.78,0.28,0.44,0.44,0.28,0.25,0.55,0.44,0.5,0.78,0.5,0.5,0.39,0.28,0.28,0.28,0.5,0.5,0.25,0.55,0.44,0.5,0.5,0.25,0.55,0.44,0.28,0.44,0.44,0.28,0.33,0.5,0.44,0.5,0.44,0.78,0.28,0.44,0.44,0.28,0.25,0.55,0.28,0.28,0.28,0.5,0.28,0.5,0.78" style="fill:rgb(0,0,0);font-family:TimesNewRomanWGL;font-size:9.0px;stroke:none;">structure, chemical composition and electrochemical lithium</text>
   <text y="151.0" x="303.6,307.257,309.905,314.561,317.713,321.856,326.512,330.654,333.449,338.105,342.247,345.4,348.552,353.208,356.361,363.509,367.652,372.307,376.45,380.593,383.387,390.041,394.184,397.336,401.479,404.273,406.922,411.578,416.233,420.376,424.033,426.681,429.33,433.985,438.128,440.777,444.919,449.575,452.369,455.018,459.674,462.468,467.124,471.267,473.915,478.058,480.706,483.355,485.761,488.555,495.209,498.865,501.66,505.803,508.597,513.253,515.902,520.557,525.213,529.356,532.508" svgx:width="0.39,0.28,0.5,0.33,0.44,0.5,0.44,0.25,0.5,0.44,0.33,0.33,0.5,0.33,0.78,0.44,0.5,0.44,0.44,0.25,0.72,0.44,0.33,0.44,0.25,0.28,0.5,0.5,0.44,0.39,0.28,0.28,0.5,0.44,0.28,0.44,0.5,0.25,0.28,0.5,0.25,0.5,0.44,0.28,0.44,0.28,0.28,0.25,0.25,0.72,0.39,0.25,0.44,0.25,0.5,0.28,0.5,0.5,0.44,0.33,0.33" style="fill:rgb(0,0,0);font-family:TimesNewRomanWGL;font-size:9.0px;stroke:none;">storage performance were investigated in detail. As a binder-</text>
   <text y="164.0" x="303.6,306.714,309.829,313.933,318.037,320.698,326.305,329.419,335.531,338.191,342.296,346.913,351.53,356.147,360.252,362.619,365.28,367.89,372.507,376.612,379.272,383.889,387.994,390.604,397.219,401.837,404.951,409.568,412.229,414.839,421.949,426.567,429.681,433.785,437.404,441.022,443.632,448.249,452.354,454.964,459.581,462.242,466.859,470.963,473.574,476.184,480.801,484.906,488.02,492.124,496.742,499.402,503.506,506.167,510.784,513.395,518.012,522.629,525.29,528.404,532.508" svgx:width="0.33,0.33,0.44,0.44,0.25,0.61,0.33,0.67,0.25,0.44,0.5,0.5,0.5,0.44,0.25,0.25,0.28,0.5,0.44,0.25,0.5,0.44,0.28,0.72,0.5,0.33,0.5,0.25,0.28,0.78,0.5,0.33,0.44,0.39,0.39,0.28,0.5,0.44,0.28,0.5,0.25,0.5,0.44,0.28,0.28,0.5,0.44,0.33,0.44,0.5,0.25,0.44,0.25,0.5,0.28,0.5,0.5,0.25,0.33,0.44,0.33" style="fill:rgb(0,0,0);font-family:TimesNewRomanWGL;font-size:9.0px;stroke:none;">free LIB anode, the network impressively delivered a high re-</text>
   <text y="177.0" x="303.6,308.492,312.871,316.259,320.152,323.037,327.928,330.813,335.192,337.442,338.813,343.192,347.571,352.462,356.841,361.22,364.105,366.989,371.881,374.131,375.502,380.394,383.783,386.033,387.404,392.295,397.187,402.079,404.721,409.612,411.862,413.234,420.618,427.508,432.4,434.65,436.021" svgx:width="0.5,0.44,0.33,0.39,0.28,0.5,0.28,0.44,0.25,0.55,0.44,0.44,0.5,0.44,0.44,0.28,0.28,0.5,0.25,0.55,0.5,0.33,0.25,0.55,0.5,0.5,0.5,0.25,0.5,0.25,0.55,0.78,0.72,0.5,0.25,0.55,0.5" style="fill:rgb(0,0,0);font-family:TimesNewRomanWGL;font-size:9.0px;stroke:none;">versible capacity of 875.5 mAh g</text>
   <text y="173.85" x="440.913,445.358" svgx:width="0.56,0.5" style="fill:rgb(0,0,0);font-family:TimesNewRomanWGL;font-size:7.2px;stroke:none;">−1</text>
   <text y="177.0" x="449.35,451.6,452.971,457.35,460.738,463.623,468.002,471.391,473.641,475.012,479.903,484.795,489.687,491.937,493.308,497.687,502.578,506.957,509.842,514.221,518.113,520.363,521.735,526.113,531.005" svgx:width="0.25,0.55,0.44,0.33,0.28,0.44,0.33,0.25,0.55,0.5,0.5,0.5,0.25,0.55,0.44,0.5,0.44,0.28,0.44,0.39,0.25,0.55,0.44,0.5,0.5" style="fill:rgb(0,0,0);font-family:TimesNewRomanWGL;font-size:9.0px;stroke:none;"> after 200 cycles and</text>
   <text y="190.0" x="303.6,308.109,312.617,317.126,321.635,323.893,328.402,330.682,337.684,344.191,348.699,350.98" svgx:width="0.5,0.5,0.5,0.5,0.25,0.5,0.25,0.78,0.72,0.5,0.25,0.5" style="fill:rgb(0,0,0);font-family:TimesNewRomanWGL;font-size:9.0px;stroke:none;">1005.5 mAh g</text>
   <text y="186.85" x="355.488,359.551" svgx:width="0.56,0.5" style="fill:rgb(0,0,0);font-family:TimesNewRomanWGL;font-size:7.2px;stroke:none;">−1</text>
   <text y="190.0" x="363.159,365.44,369.435,372.441,374.943,378.938,381.944,384.224,388.733,393.242,397.75,400.031,404.026,408.535,412.531,415.032,419.028,422.538,424.818,431.325,433.826,436.328,440.837,443.117,447.113,449.393,453.389,457.897,462.406,464.908,469.416,476.418,480.927,483.428,487.424,489.704,493.7,496.706,499.711,502.213,506.209,508.71,512.706,517.215,521.211,525.719,528.0,532.508" svgx:width="0.25,0.44,0.33,0.28,0.44,0.33,0.25,0.5,0.5,0.5,0.25,0.44,0.5,0.44,0.28,0.44,0.39,0.25,0.72,0.28,0.28,0.5,0.25,0.44,0.25,0.44,0.5,0.5,0.28,0.5,0.78,0.5,0.28,0.44,0.25,0.44,0.33,0.33,0.28,0.44,0.28,0.44,0.5,0.44,0.5,0.25,0.5,0.33" style="fill:rgb(0,0,0);font-family:TimesNewRomanWGL;font-size:9.0px;stroke:none;"> after 250 cycles with a coulombic efficiency of</text>
   <text y="203.0" x="303.6,310.602,315.11,318.116,322.112,324.392,326.894,331.402,335.398,339.907,342.187,346.696,351.204,353.463,357.972,365.477,367.758,371.753,374.255,376.535,380.531,382.811,386.807,391.316,394.321,397.327,401.323,405.831,408.333,410.613,415.122,419.118,423.626,427.136,429.638,432.139,436.648,438.928,443.437,446.443,448.723,453.232,455.49,459.999,462.279,468.786,471.066" svgx:width="0.78,0.5,0.33,0.44,0.25,0.28,0.5,0.44,0.5,0.25,0.5,0.5,0.25,0.5,0.83,0.25,0.44,0.28,0.25,0.44,0.25,0.44,0.5,0.33,0.33,0.44,0.5,0.28,0.25,0.5,0.44,0.5,0.39,0.28,0.28,0.5,0.25,0.5,0.33,0.25,0.5,0.25,0.5,0.25,0.72,0.25,0.5" style="fill:rgb(0,0,0);font-family:TimesNewRomanWGL;font-size:9.0px;stroke:none;">more than 99.5% at a current density of 0.2 A g</text>
   <text y="199.85" x="475.575,479.637" svgx:width="0.56,0.5" style="fill:rgb(0,0,0);font-family:TimesNewRomanWGL;font-size:7.2px;stroke:none;">−1</text>
   <text y="203.0" x="483.246" svgx:width="0.25" style="fill:rgb(0,0,0);font-family:TimesNewRomanWGL;font-size:9.0px;stroke:none;">.</text>
  </g>
  <g begin="text">
   <text y="229.0" x="303.6,312.986,320.214,326.714,333.942,336.828,340.429,346.929,350.53,357.758,364.986,372.214,375.815,385.201,388.087,394.587,401.087,408.315,414.815,421.315,424.201,431.429" svgx:width="0.72,0.56,0.5,0.56,0.22,0.28,0.5,0.28,0.56,0.56,0.56,0.28,0.72,0.22,0.5,0.5,0.56,0.5,0.5,0.22,0.56,0.56" style="fill:rgb(0,0,0);font-family:ArialMT-Regular;font-size:13.0px;stroke:none;">Results and Discussion</text>
  </g>
  <g begin="text">
   <text y="242.0" x="303.6,308.916,311.721,316.533,321.345,324.654,328.953,331.515,336.327,340.626,342.876,343.968,347.781,352.594,357.406,364.216,368.029,370.279,371.371,375.67,377.92,379.012,381.817,386.629,391.441,394.246,398.545,402.844,405.649,407.899,408.991,414.307,420.109,428.422,430.672,431.764,434.569,441.874,446.173,450.986,455.285,457.535,458.627,463.439,466.748,468.998,470.09,472.895,477.707,482.006,484.256,485.348,489.647,493.46,496.769,500.078,504.377,509.189,512.498,515.303,519.602,523.901,526.706,531.005" svgx:width="0.56,0.28,0.5,0.5,0.33,0.44,0.25,0.5,0.44,0.25,0.55,0.39,0.5,0.5,0.72,0.39,0.25,0.55,0.44,0.25,0.55,0.28,0.5,0.5,0.28,0.44,0.44,0.28,0.25,0.55,0.56,0.61,0.89,0.25,0.55,0.28,0.78,0.44,0.5,0.44,0.25,0.55,0.5,0.33,0.25,0.55,0.28,0.5,0.44,0.25,0.55,0.44,0.39,0.33,0.33,0.44,0.5,0.33,0.28,0.44,0.44,0.28,0.44,0.5" style="fill:rgb(0,0,0);font-family:TimesNewRomanWGL;font-size:9.0px;stroke:none;">Figure 1a shows a typical SEM image of the as-fabricated</text>
   <text y="255.0" x="303.6,308.214,312.314,318.926,323.54,326.65,331.264,333.628,336.276,342.887,347.501,350.108,354.208,358.822,361.47,365.571,370.184,374.798,378.413,381.019,384.634,387.241,390.855,393.503,398.117,401.228,403.876,407.976,412.59,415.238,419.339,423.952,428.566,433.18,437.793,441.894,446.508,450.608,454.709,457.357,461.97,465.081,467.729,472.343,476.443,480.544,485.158,489.258,493.872,496.52,501.134,505.234,509.848,514.462,517.572,520.179,524.793,528.893,532.004" svgx:width="0.5,0.44,0.72,0.5,0.33,0.5,0.25,0.25,0.72,0.5,0.28,0.44,0.5,0.25,0.44,0.5,0.5,0.39,0.28,0.39,0.28,0.39,0.25,0.5,0.33,0.25,0.44,0.5,0.25,0.44,0.5,0.5,0.5,0.5,0.44,0.5,0.44,0.44,0.25,0.5,0.33,0.25,0.5,0.44,0.44,0.5,0.44,0.5,0.25,0.5,0.44,0.5,0.5,0.33,0.28,0.5,0.44,0.33,0.39" style="fill:rgb(0,0,0);font-family:TimesNewRomanWGL;font-size:9.0px;stroke:none;">nework, which consists of an abundance of beaded nanofibers</text>
   <text y="268.0" x="303.6,310.141,312.677,315.212,319.755,322.155,326.185,328.584,332.128,339.164,343.707,348.249,350.785,355.328,357.728,361.272,365.814,368.854,371.894,375.924,379.953,383.983,386.276,388.676,391.716,395.745,400.288,404.831,409.374,416.409,418.809,423.352,426.392,428.928,432.957,437.5,440.036,444.066,446.601,449.137,453.68,458.223,460.622,464.652,469.195,473.738,476.138,479.681,483.711,488.254,492.284,495.323,499.353,501.889,504.289,511.325,513.86,517.89,520.93,525.473,532.508" svgx:width="0.72,0.28,0.28,0.5,0.25,0.44,0.25,0.39,0.78,0.5,0.5,0.28,0.5,0.25,0.39,0.5,0.33,0.33,0.44,0.44,0.44,0.25,0.25,0.33,0.44,0.5,0.5,0.5,0.78,0.25,0.5,0.33,0.28,0.44,0.5,0.28,0.44,0.28,0.28,0.5,0.5,0.25,0.44,0.5,0.5,0.25,0.39,0.44,0.5,0.44,0.33,0.44,0.28,0.25,0.78,0.28,0.44,0.33,0.5,0.78,0.33" style="fill:rgb(0,0,0);font-family:TimesNewRomanWGL;font-size:9.0px;stroke:none;">with a smooth surface, random orientation and several microm-</text>
   <text y="281.0" x="303.6,307.812,310.53,314.742,317.963,321.689,323.939,324.726,327.444,332.169,334.419,335.206,337.924,342.136,346.861,351.585,354.303,359.028,361.503,363.753,364.54,370.255,374.98,379.192,381.442,382.229,386.953,391.678,394.396,399.121,403.846,408.058,410.308,411.095,418.313,423.037,426.259,430.984,435.709,440.434,443.152,447.877,452.601,457.326,459.576,460.363,465.088,468.31,470.56,471.347,474.065,478.79,483.001,485.251,486.038,490.763,494.975,499.7,504.425,507.647,510.365,515.089,519.301,522.523,526.249,528.499,529.286,532.004" svgx:width="0.44,0.28,0.44,0.33,0.39,0.25,0.55,0.28,0.5,0.25,0.55,0.28,0.44,0.5,0.5,0.28,0.5,0.25,0.25,0.55,0.61,0.5,0.44,0.25,0.55,0.5,0.5,0.28,0.5,0.5,0.44,0.25,0.55,0.78,0.5,0.33,0.5,0.5,0.5,0.28,0.5,0.5,0.5,0.25,0.55,0.5,0.33,0.25,0.55,0.28,0.5,0.44,0.25,0.55,0.5,0.44,0.5,0.5,0.33,0.28,0.5,0.44,0.33,0.39,0.25,0.55,0.28,0.39" style="fill:rgb(0,0,0);font-family:TimesNewRomanWGL;font-size:9.0px;stroke:none;">eters in length. The unique morphology of the nanofibers is</text>
   <text y="294.0" x="303.6,307.799,312.512,316.711,319.921,324.12,328.32,331.025,335.225,338.434,341.14,345.339,349.539,354.251,356.501,357.245,361.958,366.67,368.92,369.664,373.863,378.576,383.288,388.001,392.2,396.4,399.105,403.305,408.017,410.267,411.011,414.725,419.437,422.143,426.855,431.568,434.273,438.473,441.682,444.388,447.093,451.806,456.005,458.255,458.999,463.711,467.911,472.11,476.823,480.536,482.786,483.53,490.241,492.946,495.652,500.364,502.614,503.358,508.07,510.776,513.481,516.691,520.89,524.1,526.805,531.518" svgx:width="0.44,0.5,0.44,0.33,0.44,0.44,0.28,0.44,0.33,0.28,0.44,0.44,0.5,0.25,0.55,0.5,0.5,0.25,0.55,0.44,0.5,0.5,0.5,0.44,0.44,0.28,0.44,0.5,0.25,0.55,0.39,0.5,0.28,0.5,0.5,0.28,0.44,0.33,0.28,0.28,0.5,0.44,0.25,0.55,0.5,0.44,0.44,0.5,0.39,0.25,0.55,0.72,0.28,0.28,0.5,0.25,0.55,0.5,0.28,0.28,0.33,0.44,0.33,0.28,0.5,0.44" style="fill:rgb(0,0,0);font-family:TimesNewRomanWGL;font-size:9.0px;stroke:none;">characterized by connected spindle-like beads with ultrafine</text>
   <text y="307.0" x="303.6,306.813,309.523,314.239,318.443,321.656,325.373,327.623,328.381,332.584,337.3,342.017,346.733,350.936,355.14,357.849,362.053,366.769,369.019,369.776,374.493,379.209,383.412,386.626,391.342,396.058,399.272,403.988,408.705,412.908,415.158,415.915,420.119,422.828,427.544,432.261,436.977,439.227,439.984,442.694,447.41,451.613,453.863,454.621,457.33,462.047,466.763,471.479,473.729,474.487,478.69,483.406,486.116,489.833,492.299,494.549,495.307,501.013,505.729,509.933,512.183,512.94,517.143,520.357,525.073,528.791,532.508" svgx:width="0.33,0.28,0.5,0.44,0.33,0.39,0.25,0.55,0.44,0.5,0.5,0.5,0.44,0.44,0.28,0.44,0.5,0.25,0.55,0.5,0.5,0.44,0.33,0.5,0.5,0.33,0.5,0.5,0.44,0.25,0.55,0.44,0.28,0.5,0.5,0.5,0.25,0.55,0.28,0.5,0.44,0.25,0.55,0.28,0.5,0.5,0.5,0.25,0.55,0.44,0.5,0.28,0.39,0.25,0.25,0.55,0.61,0.5,0.44,0.25,0.55,0.44,0.33,0.5,0.39,0.39,0.33" style="fill:rgb(0,0,0);font-family:TimesNewRomanWGL;font-size:9.0px;stroke:none;">fibers connected one-by-one along the long axis. The cross-</text>
   <text y="320.0" x="303.6,307.27,311.426,315.582,318.244,320.906,325.575,330.244,334.4,337.061,339.903,344.572,347.234,351.39,358.551,362.707,365.369,369.525,372.691,375.533,380.201,383.367,386.209,388.871,393.54,397.696,400.537,405.206,409.362,413.518,418.187,421.857,424.698,428.854,433.523,438.192,441.033,444.199,446.861,451.53,455.686,458.852,462.522,465.363,469.519,472.685,476.841,479.682,482.344,487.013,489.854,492.516,497.185,501.341,504.182,507.348,511.504,516.173,520.842,524.998,527.839,532.508" svgx:width="0.39,0.44,0.44,0.28,0.28,0.5,0.5,0.44,0.28,0.25,0.5,0.28,0.44,0.78,0.44,0.28,0.44,0.33,0.25,0.5,0.33,0.25,0.28,0.5,0.44,0.25,0.5,0.44,0.44,0.5,0.39,0.25,0.44,0.5,0.5,0.25,0.33,0.28,0.5,0.44,0.33,0.39,0.25,0.44,0.33,0.44,0.25,0.28,0.5,0.25,0.28,0.5,0.44,0.25,0.33,0.44,0.5,0.5,0.44,0.25,0.5,0.33" style="fill:rgb(0,0,0);font-family:TimesNewRomanWGL;font-size:9.0px;stroke:none;">sectional diameter of the beads and fibers are in the range of</text>
   <text y="333.0" x="303.6,308.349,313.099,317.848,322.597,327.346,332.096,336.845,339.095,339.967,344.717,351.959,354.209,355.081,359.317,364.067,368.816,371.066,371.938,376.688,381.437,386.186,390.935,395.685,400.434,402.684,403.556,408.306,415.548,418.047,420.297,421.17,424.416,428.652,432.402,437.152,441.388,445.624,448.366,451.109,455.858,460.094,462.836,467.586,470.085,472.335,473.207,478.947,483.696,487.932,490.182,491.055,495.804,500.553,504.303,508.54,511.786,516.535,520.771,523.514,526.256,531.005" svgx:width="0.5,0.5,0.5,0.5,0.5,0.5,0.5,0.25,0.55,0.5,0.78,0.25,0.55,0.44,0.5,0.5,0.25,0.55,0.5,0.5,0.5,0.5,0.5,0.5,0.25,0.55,0.5,0.78,0.25,0.25,0.55,0.33,0.44,0.39,0.5,0.44,0.44,0.28,0.28,0.5,0.44,0.28,0.5,0.25,0.25,0.55,0.61,0.5,0.44,0.25,0.55,0.5,0.5,0.39,0.44,0.33,0.5,0.44,0.28,0.28,0.5,0.5" style="fill:rgb(0,0,0);font-family:TimesNewRomanWGL;font-size:9.0px;stroke:none;">350–400 nm and 80–100 nm, respectively. The observation</text>
   <text y="346.0" x="303.6,308.253,312.392,315.542,318.187,322.84,326.979,331.632,334.415,337.565,340.714,345.367,352.513,355.296,357.942,362.594,366.734,369.518,375.16,380.803,388.956,391.74,394.386,401.531,405.671,410.323,414.463,417.246,420.9,425.553,430.205,436.856,441.508,444.292,446.937,451.59,454.374,459.53,462.176,466.828,471.481,474.63,478.77,481.172,485.825,490.477,493.261,497.914,502.053,505.203,507.848,510.998,513.643,517.783,521.436,524.22,526.866,531.518" svgx:width="0.5,0.44,0.33,0.28,0.5,0.44,0.5,0.25,0.33,0.33,0.5,0.78,0.25,0.28,0.5,0.44,0.25,0.61,0.61,0.89,0.25,0.28,0.78,0.44,0.5,0.44,0.25,0.39,0.5,0.5,0.72,0.5,0.25,0.28,0.5,0.25,0.56,0.28,0.5,0.5,0.33,0.44,0.25,0.5,0.5,0.25,0.5,0.44,0.33,0.28,0.33,0.28,0.44,0.39,0.25,0.28,0.5,0.44" style="fill:rgb(0,0,0);font-family:TimesNewRomanWGL;font-size:9.0px;stroke:none;">derived from the TEM image shown in Figure 1b verifies the</text>
   <text y="359.0" x="303.6,308.701,314.288,322.386,324.976,327.566,334.656,338.74,343.337,347.421,350.011,353.105,357.189,360.787,365.384,367.974,370.564,374.162,376.509,379.099,384.686,388.77,391.864,394.454,397.044,401.128,404.222,406.812,409.906,413.99,418.587,423.184,426.278,428.868,432.466,435.056,439.653,443.737,448.334,452.418,455.008,457.598,462.195,466.792,469.382,473.466,477.55,480.14,484.224,488.821,491.411,494.001,498.598,502.682,505.272,507.862,510.452,515.049,519.133,521.723,524.817,529.414,532.508" svgx:width="0.56,0.61,0.89,0.25,0.28,0.78,0.44,0.5,0.44,0.25,0.33,0.44,0.39,0.5,0.28,0.28,0.39,0.25,0.25,0.61,0.44,0.33,0.28,0.28,0.44,0.33,0.25,0.33,0.44,0.5,0.5,0.33,0.28,0.39,0.25,0.5,0.44,0.5,0.44,0.25,0.28,0.5,0.5,0.28,0.44,0.44,0.28,0.44,0.5,0.25,0.28,0.5,0.44,0.28,0.25,0.28,0.5,0.44,0.25,0.33,0.5,0.33,0.33" style="fill:rgb(0,0,0);font-family:TimesNewRomanWGL;font-size:9.0px;stroke:none;">SEM image results. Earlier reports have indicated that the for-</text>
   <text y="372.0" x="303.6,310.694,314.781,317.375,319.969,324.569,329.17,331.773,336.373,339.471,342.073,344.667,349.268,353.355,355.958,359.559,364.16,366.754,371.354,375.955,378.549,382.637,385.734,388.328,390.922,395.522,399.61,402.212,406.813,410.901,414.988,419.589,423.191,425.793,430.394,434.995,437.597,440.191,444.791,448.879,451.481,455.569,458.163,462.25,466.338,468.932,472.03,476.63,480.232,484.833,489.433,494.034,496.636,501.237,505.325,509.925,514.526,517.624,520.217,524.818,528.906,532.004" svgx:width="0.78,0.44,0.28,0.28,0.5,0.5,0.25,0.5,0.33,0.25,0.28,0.5,0.44,0.25,0.39,0.5,0.28,0.5,0.5,0.28,0.44,0.33,0.28,0.28,0.5,0.44,0.25,0.5,0.44,0.44,0.5,0.39,0.25,0.5,0.5,0.25,0.28,0.5,0.44,0.25,0.44,0.28,0.44,0.44,0.28,0.33,0.5,0.39,0.5,0.5,0.5,0.25,0.5,0.44,0.5,0.5,0.33,0.28,0.5,0.44,0.33,0.39" style="fill:rgb(0,0,0);font-family:TimesNewRomanWGL;font-size:9.0px;stroke:none;">mation of the spindle-like beads on the electrospun nanofibers</text>
   <text y="385.0" x="303.6,308.119,312.124,316.643,320.648,325.167,329.685,333.205,335.52,342.531,346.537,349.048,353.567,356.078,360.597,362.912,367.43,371.949,374.264,376.775,381.294,385.299,387.614,392.133,394.644,398.164,402.169,406.688,410.207,412.719,415.23,419.749,422.064,426.069,430.588,435.106,437.421,440.941,445.459,448.475,451.49,455.496,459.501,463.507,465.822,468.333,472.339,476.857,480.377,482.888,487.407,491.925,494.24,498.759,501.774,504.089,506.601,511.119,515.125,517.44,520.959,525.478,527.989,532.508" svgx:width="0.5,0.44,0.5,0.44,0.5,0.5,0.39,0.25,0.78,0.44,0.28,0.5,0.28,0.5,0.25,0.5,0.5,0.25,0.28,0.5,0.44,0.25,0.5,0.28,0.39,0.44,0.5,0.39,0.28,0.28,0.5,0.25,0.44,0.5,0.5,0.25,0.39,0.5,0.33,0.33,0.44,0.44,0.44,0.25,0.28,0.44,0.5,0.39,0.28,0.5,0.5,0.25,0.5,0.33,0.25,0.28,0.5,0.44,0.25,0.39,0.5,0.28,0.5,0.33" style="fill:rgb(0,0,0);font-family:TimesNewRomanWGL;font-size:9.0px;stroke:none;">depends mainly on the viscosity and surface tension of the spin-</text>
   <text y="398.0" x="303.6,308.234,310.861,315.494,320.128,322.847,326.482,331.115,333.742,338.376,341.003,343.63,348.263,352.897,355.281,357.999,361.634,366.268,368.895,373.529,378.163,380.789,385.423,390.057,392.775,397.409,402.043,404.67,407.297,411.418,416.051,420.172,422.891,427.011,431.645,436.279,438.997,442.128,446.249,450.37,454.491,459.125,461.751,466.385,471.019,473.737,478.371,480.998,484.633,487.26,491.381,496.014,500.135,504.256,506.974,510.105,514.739,519.373,521.757,526.391,531.024,534.155" svgx:width="0.5,0.28,0.5,0.5,0.25,0.39,0.5,0.28,0.5,0.28,0.28,0.5,0.5,0.25,0.25,0.39,0.5,0.28,0.5,0.5,0.28,0.5,0.5,0.25,0.5,0.5,0.28,0.28,0.44,0.5,0.44,0.25,0.44,0.5,0.5,0.25,0.33,0.44,0.44,0.44,0.5,0.28,0.5,0.5,0.25,0.5,0.28,0.39,0.28,0.44,0.5,0.44,0.44,0.25,0.33,0.5,0.5,0.25,0.5,0.5,0.33,0.25" style="fill:rgb(0,0,0);font-family:TimesNewRomanWGL;font-size:9.0px;stroke:none;">ning solution, spinning voltage and receving distance [24,25].</text>
   <text y="411.0" x="303.6,310.185,312.766,316.84,323.425,327.5,332.087,334.642,338.717,342.305,344.861,348.935,351.49,358.076,362.663,367.25,369.831,373.905,376.242,378.798,381.378,385.965,390.04,393.628,397.702,400.258,404.845,408.919,412.994,417.581,421.655,426.243,428.798,433.385,437.46,442.047,446.634,449.719,452.299,456.886,460.961,464.045,467.633,470.189,474.263,477.347,481.422,483.977,488.052,490.632,495.219,498.807,502.882,505.462,510.049,512.605,516.679,521.266,523.847,527.921,532.508" svgx:width="0.72,0.28,0.44,0.72,0.44,0.5,0.25,0.44,0.39,0.25,0.44,0.25,0.72,0.5,0.5,0.28,0.44,0.25,0.25,0.28,0.5,0.44,0.39,0.44,0.25,0.5,0.44,0.44,0.5,0.44,0.5,0.25,0.5,0.44,0.5,0.5,0.33,0.28,0.5,0.44,0.33,0.39,0.25,0.44,0.33,0.44,0.25,0.44,0.28,0.5,0.39,0.44,0.28,0.5,0.25,0.44,0.5,0.28,0.44,0.5,0.33" style="fill:rgb(0,0,0);font-family:TimesNewRomanWGL;font-size:9.0px;stroke:none;">Viewed as a whole, these beaded nanofibers are closely entan-</text>
   <text y="424.0" x="303.6,308.216,310.825,314.928,319.544,322.199,328.813,331.422,334.031,338.647,341.302,345.405,349.508,353.611,358.227,360.882,365.498,368.107,372.723,376.826,379.939,382.594,386.697,391.313,395.929,398.584,403.2,407.303,411.919,416.022,418.631,423.247,427.863,430.518,434.621,437.277,440.39,445.005,449.621,454.237,457.854,460.463,463.118,470.227,474.843,477.452,480.061,482.67,485.279,489.382,493.998,498.1,501.213,503.869,508.485,512.588,515.197,521.81,526.426,529.539,534.155" svgx:width="0.5,0.28,0.44,0.5,0.25,0.72,0.28,0.28,0.5,0.25,0.44,0.44,0.44,0.5,0.25,0.5,0.28,0.5,0.44,0.33,0.25,0.44,0.5,0.5,0.25,0.5,0.44,0.5,0.44,0.28,0.5,0.5,0.25,0.44,0.25,0.33,0.5,0.5,0.5,0.39,0.28,0.25,0.78,0.5,0.28,0.28,0.28,0.28,0.44,0.5,0.44,0.33,0.25,0.5,0.44,0.28,0.72,0.5,0.33,0.5,0.25" style="fill:rgb(0,0,0);font-family:TimesNewRomanWGL;font-size:9.0px;stroke:none;">gled with each other and develop a robust multilayer network,</text>
   <text y="437.0" x="303.6,310.149,314.7,317.244,321.283,325.834,328.263,332.301,336.339,340.89,343.319,347.87,351.908,354.337,358.888,361.432,364.48,368.519,372.557,375.101,377.645,382.196,384.625,389.176,392.728,396.766,401.317,403.746,407.785,411.337,413.766,417.804,420.233,424.784,427.328,431.879,436.43,440.468,443.516,446.565,449.613,452.661,456.699,460.737,463.166,468.707,471.755,477.8,480.229,484.267,486.812,490.85,493.394,496.442,500.993,505.544,509.582,511.883,514.312,520.862,525.413,529.964,532.508" svgx:width="0.72,0.5,0.28,0.44,0.5,0.25,0.44,0.44,0.5,0.25,0.5,0.44,0.25,0.5,0.28,0.33,0.44,0.44,0.28,0.28,0.5,0.25,0.5,0.39,0.44,0.5,0.25,0.44,0.39,0.25,0.44,0.25,0.5,0.28,0.5,0.5,0.44,0.33,0.33,0.33,0.33,0.44,0.44,0.25,0.61,0.33,0.67,0.25,0.44,0.28,0.44,0.28,0.33,0.5,0.5,0.44,0.25,0.25,0.72,0.5,0.5,0.28,0.33" style="fill:rgb(0,0,0);font-family:TimesNewRomanWGL;font-size:9.0px;stroke:none;">which can be directly used as a binder-free LIB eletrode. Addi-</text>
   <text y="450.0" x="303.6,306.311,309.021,313.739,318.457,322.662,325.372,328.083,332.801,335.268,337.518,338.28,340.991,343.702,346.413,351.13,353.841,358.559,365.77,368.02,368.781,371.492,376.21,380.928,384.646,386.896,387.658,391.863,396.068,400.785,403.035,403.797,406.508,411.226,414.945,419.149,422.364,425.075,427.325,428.087,432.292,437.009,441.214,445.932,450.649,454.854,457.565,461.77,464.48,469.198,471.448,472.21,474.921,479.638,482.349,487.067,489.317,490.079,492.79,497.507,501.712,503.962,504.724,509.442,513.646,516.357,523.073,527.79,531.005" svgx:width="0.28,0.28,0.5,0.5,0.44,0.28,0.28,0.5,0.25,0.25,0.55,0.28,0.28,0.28,0.5,0.28,0.5,0.78,0.25,0.55,0.28,0.5,0.5,0.39,0.25,0.55,0.44,0.44,0.5,0.25,0.55,0.28,0.5,0.39,0.44,0.33,0.28,0.25,0.55,0.44,0.5,0.44,0.5,0.5,0.44,0.28,0.44,0.28,0.5,0.25,0.55,0.28,0.5,0.28,0.5,0.25,0.55,0.28,0.5,0.44,0.25,0.55,0.5,0.44,0.28,0.72,0.5,0.33,0.5" style="fill:rgb(0,0,0);font-family:TimesNewRomanWGL;font-size:9.0px;stroke:none;">tionally, lithium ions can insert adequately into the network</text>
   <text y="463.0" x="303.6,306.201,310.809,313.914,318.522,323.13,327.738,332.346,334.974,339.069,342.174,346.269,350.878,354.973,358.582,362.191,366.286,369.895,372.523,377.131,381.226,383.827,390.433,394.528,398.623,403.231,405.859,408.46,413.068,417.163,420.772,424.867,427.495,430.096,434.704,437.306,441.401,444.506,447.107,451.202,455.297,459.392,464.0,466.628,471.236,475.331,479.939,484.547,487.652,490.253,494.861,498.956,502.061,505.67,508.028,510.656,517.262,521.357,525.966,530.061,534.156" svgx:width="0.28,0.5,0.33,0.5,0.5,0.5,0.5,0.25,0.44,0.33,0.44,0.5,0.44,0.39,0.39,0.44,0.39,0.25,0.5,0.44,0.28,0.72,0.44,0.44,0.5,0.25,0.28,0.5,0.44,0.39,0.44,0.25,0.28,0.5,0.28,0.44,0.33,0.28,0.44,0.44,0.44,0.5,0.25,0.5,0.44,0.5,0.5,0.33,0.28,0.5,0.44,0.33,0.39,0.25,0.25,0.72,0.44,0.5,0.44,0.44,0.25" style="fill:rgb(0,0,0);font-family:TimesNewRomanWGL;font-size:9.0px;stroke:none;">through crevasses between these interlaced nanofibers. Hence,</text>
   <text y="476.0" x="303.6,306.201,310.809,314.904,317.532,322.14,326.748,331.356,335.451,338.052,340.681,345.289,349.384,351.985,358.591,363.199,366.304,370.912,373.54,380.641,384.736,389.344,393.439,397.048,399.676,403.771,406.399,411.007,415.615,420.223,424.831,427.46,433.058,436.163,442.265,444.893,448.988,451.589,455.684,459.779,462.38,465.485,470.093,474.701,478.796" svgx:width="0.28,0.5,0.44,0.25,0.5,0.5,0.5,0.44,0.28,0.25,0.5,0.44,0.28,0.72,0.5,0.33,0.5,0.25,0.78,0.44,0.5,0.44,0.39,0.25,0.44,0.25,0.5,0.5,0.5,0.5,0.25,0.61,0.33,0.67,0.25,0.44,0.28,0.44,0.44,0.28,0.33,0.5,0.5,0.44,0.25" style="fill:rgb(0,0,0);font-family:TimesNewRomanWGL;font-size:9.0px;stroke:none;">the novel network makes a good LIB electrode.</text>
  </g>
  <g begin="text">
   <text y="502.0" x="303.6,308.681,311.251,315.827,320.404,323.478,327.542,329.868,334.445,338.509,341.028,345.604,348.174,351.752,356.329,358.899,362.962,367.539,371.117,373.636,376.205,380.782,384.846,387.365,393.939,400.01,406.585,409.104,413.68,417.744,420.314,422.884,426.947,430.021,434.598,437.117,441.693,444.767,447.286,449.856,454.432,458.496,461.015,464.593,468.656,475.726,480.303,482.873,486.936,489.263,491.782,497.349,501.925,505.989,508.508,513.085,515.654,519.232,521.802,524.372,528.949,533.012" svgx:width="0.56,0.28,0.5,0.5,0.33,0.44,0.25,0.5,0.44,0.25,0.5,0.28,0.39,0.5,0.28,0.44,0.5,0.39,0.25,0.28,0.5,0.44,0.25,0.72,0.67,0.72,0.25,0.5,0.44,0.28,0.28,0.44,0.33,0.5,0.25,0.5,0.33,0.25,0.28,0.5,0.44,0.25,0.39,0.44,0.78,0.5,0.28,0.44,0.25,0.25,0.61,0.5,0.44,0.25,0.5,0.28,0.39,0.28,0.28,0.5,0.44,0.28" style="fill:rgb(0,0,0);font-family:TimesNewRomanWGL;font-size:9.0px;stroke:none;">Figure 2a displays the XRD pattern of the sample. The distinct</text>
   <text y="515.0" x="303.6,308.181,310.754,313.832,316.91,319.988,324.055,328.123,330.697,333.271,337.851,342.432,344.964,349.545,353.613,357.681,362.261,365.843,368.376,372.443,375.017,377.55,382.13,386.711,389.042,393.622,397.294,399.625,402.157,406.738,411.319,413.65,418.23,421.902,424.233,426.765,431.346,435.927,438.257,442.838,446.51,448.84,451.373,455.954,460.534,462.865,467.446,471.118,473.65,477.718,482.299,486.879,489.412,493.992,498.573,500.904,505.485,509.156,511.689,515.757,519.824,524.405,526.938,531.518" svgx:width="0.5,0.28,0.33,0.33,0.33,0.44,0.44,0.28,0.28,0.5,0.5,0.25,0.5,0.44,0.44,0.5,0.39,0.25,0.44,0.28,0.25,0.5,0.5,0.25,0.5,0.4,0.25,0.25,0.5,0.5,0.25,0.5,0.4,0.25,0.25,0.5,0.5,0.25,0.5,0.4,0.25,0.25,0.5,0.5,0.25,0.5,0.4,0.25,0.44,0.5,0.5,0.25,0.5,0.5,0.25,0.5,0.4,0.25,0.44,0.44,0.5,0.25,0.5,0.44" style="fill:rgb(0,0,0);font-family:TimesNewRomanWGL;font-size:9.0px;stroke:none;">diffraction peaks at 35.2°, 40.8°, 59.0°, 69.9° and 73.4° can be</text>
   <text y="528.0" x="303.6,306.621,310.632,314.157,318.681,322.692,326.703,329.22,331.737,336.261,340.273,342.79,347.314,349.648,353.659,357.184,360.709,363.226,367.75,372.274,376.285,380.809,383.143,385.66,390.185,392.519,395.036,399.56,403.571,405.905,408.926,413.45,417.974,422.498,425.519,427.793,430.128,433.149,437.673,442.197,446.721,449.742,452.016,454.35,457.371,461.895,466.419,470.943,473.964,476.238,478.573,481.594,486.118,490.642,495.166,498.187,500.521,504.532,509.056,513.58,515.914,518.935,523.46,527.984,532.508" svgx:width="0.33,0.44,0.39,0.5,0.44,0.44,0.28,0.28,0.5,0.44,0.28,0.5,0.25,0.44,0.39,0.39,0.28,0.5,0.5,0.44,0.5,0.25,0.28,0.5,0.25,0.28,0.5,0.44,0.25,0.33,0.5,0.5,0.5,0.33,0.25,0.25,0.33,0.5,0.5,0.5,0.33,0.25,0.25,0.33,0.5,0.5,0.5,0.33,0.25,0.25,0.33,0.5,0.5,0.5,0.33,0.25,0.44,0.5,0.5,0.25,0.33,0.5,0.5,0.5,0.33" style="fill:rgb(0,0,0);font-family:TimesNewRomanWGL;font-size:9.0px;stroke:none;">respectively assigned to the (111), (200), (220), (311) and (222)</text>
  </g>
 </g>
</svg>
