<?xml version="1.0" encoding="UTF-8"?>
<svg height="774.244" width="4165.638" xmlns="http://www.w3.org/2000/svg">
 <g id="page" xmlns:svgx="http://www.xml-cml.org/schema/svgx">
  <g begin="text">
   <text y="22.46" x="40.638,48.208,55.778,63.055,66.145,71.865,77.215,81.135,86.765,90.565,95.995,99.085,103.915,109.695,118.435,121.635,126.125,130.955,133.725,139.15,144.87,148.79,151.56,155.19,157.96,162.79,166.59,172.02,177.78,183.56,187.36,191.28,195.77" svgx:width="0.71,0.71,0.71,0.26,0.53,0.49,0.35,0.52,0.34,0.5,0.26,0.44,0.53,0.83,0.28,0.4,0.44,0.23,0.5,0.53,0.35,0.23,0.32,0.23,0.44,0.34,0.5,0.53,0.53,0.34,0.35,0.4,0.28" style="fill:rgb(255,255,255);font-family:Corbel;font-size:10.0px;stroke:none;">www.nature.com/scientificreports/</text>
  </g>
  <g begin="text">
   <text y="764.23" x="550.36" svgx:width="0.43" style="fill:rgb(131,144,151);font-family:Corbel;font-size:10.0px;stroke:none;">7</text>
  </g>
  <g begin="text">
   <text y="764.244" x="40.794,45.642,50.786,53.186,58.026,64.026,68.898,71.298,75.762,78.162" svgx:width="0.55,0.59,0.25,0.55,0.7,0.56,0.25,0.5,0.25,0.59" style="fill:rgb(131,144,151);font-family:Corbel;font-size:8.0px;stroke:none;">Scientific</text>
   <text y="764.244" x="83.162" svgx:width="0.2" style="fill:rgb(0,0,0);font-family:Corbel;font-size:8.0px;stroke:none;"> </text>
   <text y="764.244" x="84.762,90.218,95.194,100.434,106.738,112.194,117.186" svgx:width="0.63,0.57,0.6,0.73,0.63,0.57,0.58" style="fill:rgb(131,144,151);font-family:Corbel-Bold;font-size:8.0px;stroke:none;">RepoRts</text>
   <text y="764.244" x="122.082,123.522,125.338,126.778,130.88" svgx:width="0.2,0.23,0.2,0.51,0.26" style="fill:rgb(0,0,0);font-family:Corbel;font-size:8.0px;stroke:none;"> | 7:</text>
   <text y="764.244" x="132.994,134.45,138.386,142.322,146.258,150.194" svgx:width="0.18,0.49,0.49,0.49,0.49,0.18" style="fill:rgb(0,0,0);font-family:MyriadPro-It;font-size:8.0px;stroke:none;"> 1440 </text>
   <text y="764.244" x="151.65,153.091,154.907,156.35,161.718,167.558,169.526,171.638,175.742,179.846,181.958,186.062,190.166,194.27,198.374,200.574,203.806,207.91,212.014,216.118,220.222,224.326,226.99,231.094,235.198,239.302,241.966,246.07,250.174,254.278,258.382,262.486,265.15" svgx:width="0.2,0.23,0.2,0.67,0.73,0.25,0.26,0.51,0.51,0.26,0.51,0.51,0.51,0.51,0.28,0.4,0.51,0.51,0.51,0.51,0.51,0.33,0.51,0.51,0.51,0.33,0.51,0.51,0.51,0.51,0.51,0.33,0.48" style="fill:rgb(0,0,0);font-family:Corbel;font-size:8.0px;stroke:none;"> | DOI:10.1038/s41598-017-01638-y</text>
  </g>
  <path style="fill:none;stroke:rgb(0,0,0);stroke-width:1.0;" d="M40.640 752.550 L554.640 752.550 "/>
  <g begin="text">
   <text y="573.177" x="155.638,163.486,167.356,170.695,175.168,179.947,183.214,187.426,189.325,192.547,196.372,199.675,202.059,205.317,208.116,211.986,216.873,220.68,224.505,226.404,230.211,234.693,238.086,241.308,245.133,248.39,253.187,257.669,262.556,267.308,269.72,274.571,278.783,280.682,283.373,287.963,289.862,292.661,297.431,301.256,303.155,305.432,307.736,310.535,315.341,317.645,322.424,329.795,331.694,336.446,338.858,343.96,348.712,352.015,354.427,358.909,363.832,365.731,370.339,373.561,378.232,382.039,385.864,389.122" svgx:width="0.97,0.44,0.37,0.51,0.53,0.37,0.47,0.23,0.37,0.43,0.37,0.27,0.37,0.31,0.44,0.55,0.42,0.43,0.23,0.42,0.51,0.37,0.37,0.43,0.37,0.52,0.51,0.55,0.53,0.27,0.55,0.47,0.23,0.31,0.51,0.23,0.31,0.53,0.43,0.23,0.25,0.27,0.31,0.53,0.27,0.53,0.82,0.23,0.53,0.27,0.56,0.53,0.37,0.27,0.51,0.55,0.23,0.52,0.37,0.51,0.42,0.43,0.37,0.37" style="fill:rgb(0,0,0);font-family:MinionPro-Regular;font-size:9.0px;stroke:none;">Warburg resistance corresponding to the lithium diffusion process</text>
   <text y="570.117" x="392.449,395.257" svgx:width="0.48,0.48" style="fill:rgb(0,0,255);font-family:MinionPro-Regular;font-size:5.85px;stroke:none;">14</text>
   <text y="573.177" x="398.065,400.117,402.016,408.208,413.392,417.217,420.556,422.455,426.775,431.095,435.415,437.314,441.265,445.324,449.077,451.354,455.179,458.482,460.534,462.433,466.304,471.19,475.682,478.481,483.25,487.075,490.414,492.313,496.183,500.692,505.471,507.82,511.987,515.982,518.259,522.084,526.836,529.581,531.48,535.287,537.699,540.921,544.791,549.57,551.873,554.618" svgx:width="0.23,0.23,0.69,0.58,0.43,0.37,0.23,0.48,0.48,0.48,0.23,0.42,0.46,0.42,0.25,0.43,0.37,0.23,0.23,0.44,0.55,0.51,0.31,0.53,0.43,0.37,0.23,0.43,0.51,0.53,0.27,0.46,0.44,0.25,0.43,0.55,0.31,0.23,0.42,0.27,0.37,0.42,0.53,0.27,0.31,0.23" style="fill:rgb(0,0,0);font-family:MinionPro-Regular;font-size:9.0px;stroke:none;">. After 300 cycles, another equivalent circuit </text>
   <text y="583.176" x="155.641,158.755,163.516,165.928,170.167,172.219" svgx:width="0.35,0.53,0.27,0.47,0.23,0.23" style="fill:rgb(0,0,0);font-family:MinionPro-Regular;font-size:9.0px;stroke:none;">(Fig. </text>
   <text y="583.176" x="174.019,178.339" svgx:width="0.48,0.67" style="fill:rgb(0,0,255);font-family:MinionPro-Regular;font-size:9.0px;stroke:none;">7C</text>
   <text y="583.176" x="184.324,187.438,189.238,195.403,199.327,202.63,204.43,208.21,212.827,217.48,219.757,222.169,226.039,230.791,232.591,235.282,239.872,241.672,246.379,249.124,250.924,253.723,258.493,262.318,264.118,269.23,275.215,279.976,281.776,284.188,291.388,296.185,300.054,304.833,308.703,313.59,317.397,321.222,323.022,326.28,331.076,334.946,338.816,341.606,344.945,348.896,350.948,352.748" svgx:width="0.35,0.23,0.69,0.44,0.37,0.23,0.44,0.52,0.52,0.25,0.27,0.43,0.53,0.23,0.31,0.51,0.23,0.54,0.31,0.23,0.31,0.53,0.43,0.23,0.57,0.67,0.53,0.23,0.27,0.82,0.52,0.43,0.53,0.44,0.55,0.42,0.43,0.23,0.37,0.52,0.43,0.42,0.31,0.37,0.44,0.23,0.23,0.62" style="fill:rgb(0,0,0);font-family:MinionPro-Regular;font-size:9.0px;stroke:none;">) was applied to fit the ECF impedance spectra. R</text>
   <text y="584.977" x="358.304" svgx:width="0.48" style="fill:rgb(0,0,0);font-family:MinionPro-Regular;font-size:5.85px;stroke:none;">3</text>
   <text y="583.177" x="361.112,362.912,365.297,368.6,370.4,373.198,377.968,381.793,383.593,386.815,390.64,393.943,396.328,399.586,402.385,406.255,411.142,414.949,418.774,420.574,425.056,427.72,429.52,432.895,437.422,439.699,442.111,446.863,448.663,452.452,454.729,458.599,462.469,465.259,468.481,473.008,475.222,479.353,482.044,485.869,487.669,490.081,494.833,497.524,501.349,504.742,507.406,511.357,515.164,518.989,520.789,523.903,528.061,533.173,536.242,539.356,541.156,545.026,549.913,554.665" svgx:width="0.23,0.27,0.37,0.23,0.31,0.53,0.43,0.23,0.37,0.43,0.37,0.27,0.37,0.31,0.44,0.55,0.42,0.43,0.23,0.51,0.3,0.23,0.37,0.51,0.25,0.27,0.53,0.23,0.43,0.25,0.43,0.42,0.31,0.37,0.51,0.25,0.46,0.31,0.43,0.23,0.27,0.55,0.31,0.43,0.37,0.3,0.44,0.42,0.43,0.23,0.35,0.47,0.57,0.34,0.35,0.23,0.44,0.55,0.53,0.23" style="fill:rgb(0,0,0);font-family:MinionPro-Regular;font-size:9.0px;stroke:none;"> is the resistance of solid electrolyte interface (SEI) and </text>
   <text y="593.176" x="155.642" svgx:width="0.75" style="fill:rgb(0,0,0);font-family:MinionPro-Regular;font-size:9.0px;stroke:none;">Q</text>
   <text y="594.977" x="162.435" svgx:width="0.48" style="fill:rgb(0,0,0);font-family:MinionPro-Regular;font-size:5.85px;stroke:none;">3</text>
   <text y="593.177" x="165.303,167.463,170.778,174.693,179.393,182.708,186.623,190.089,194.004,198.849,201.684,205.077,207.237,211.134,215.708,220.652,224.002,226.893,230.856,235.701,238.536,240.696,245.441,250.312,254.329,257.796,261.711,263.871,267.752,270.119,274.034,281.461,285.376,290.221,293.056,295.216,299.79,302.544,304.704,308.955,314.157" svgx:width="0.23,0.37,0.43,0.52,0.37,0.43,0.37,0.43,0.55,0.31,0.37,0.23,0.42,0.51,0.55,0.37,0.31,0.44,0.55,0.31,0.23,0.52,0.53,0.44,0.37,0.43,0.23,0.43,0.25,0.43,0.82,0.43,0.55,0.31,0.23,0.51,0.3,0.23,0.47,0.57,0.34" style="fill:rgb(0,0,0);font-family:MinionPro-Regular;font-size:9.0px;stroke:none;"> represents constant phase element of SEI</text>
   <text y="590.117" x="317.363,320.23" svgx:width="0.48,0.48" style="fill:rgb(0,0,255);font-family:MinionPro-Regular;font-size:5.85px;stroke:none;">14</text>
   <text y="593.177" x="323.099,325.241,327.401,337.097,341.012,343.172,349.681,353.832,358.434,363.303,365.781,369.132,371.967,374.127,378.871,381.238,385.822,388.657,390.817,395.391,398.145,400.305,403.197,408.059,411.974,414.134,419.336,425.411,430.262,432.422,436.303,438.67,442.633,446.595,449.477,452.791,457.555,462.397,466.312,468.472,472.434,477.711,481.626,485.055,487.215,491.625,496.035,500.445,502.605,506.648,510.8,514.645,517.012,520.927,524.32,526.48,531.352,535.368,538.761,540.921,543.786,549.971,554.561" svgx:width="0.23,0.23,1.07,0.43,0.23,0.74,0.46,0.51,0.53,0.27,0.37,0.31,0.23,0.52,0.25,0.51,0.31,0.23,0.51,0.3,0.23,0.31,0.53,0.43,0.23,0.57,0.67,0.53,0.23,0.43,0.25,0.43,0.42,0.31,0.37,0.51,0.53,0.43,0.23,0.44,0.58,0.43,0.37,0.23,0.48,0.48,0.48,0.23,0.42,0.46,0.42,0.25,0.43,0.37,0.23,0.53,0.44,0.37,0.23,0.31,0.69,0.51,0.23" style="fill:rgb(0,0,0);font-family:MinionPro-Regular;font-size:9.0px;stroke:none;">. The Nyquist plot of the ECF electrode after 300 cycles has two </text>
   <text y="603.176" x="155.636,158.921,166.249,170.23,172.536,174.795,176.514,179.873,183.68,191.033,193.427,197.216,199.61,202.817,206.555,208.814,212.621,215.906,217.94,219.659,229.246,233.053,234.772,239.569,242.839,246.082,248.809,250.528,253.887,257.694,265.047,267.441,271.23,273.624,276.83,280.568,282.827,286.634,288.353,290.723,294.008,295.727,299.491,302.131,304.905,308.283,310.643,315.1,319.756,322.431,326.285,331.019,332.738,335.414,339.986,341.705,344.489,349.243,353.05,354.769,358.558,363.024,370.29,374.739,377.133,382.012,385.777,388.551,390.945,395.412,400.317,402.036,406.501,409.147,410.866,415.009,420.103,423.154,424.873,428.728,433.599,438.333,440.052,443.789,448.553,452.407,455.658,459.782,463.589,466.775,469.549,472.87,476.724,481.56,484.845,487.411,491.218,494.539,496.258,499.464,503.271,506.556,508.925,512.168,514.951,518.805,523.677,527.466,531.221,533.255,534.974,541.186,545.974,548.416,550.675,554.5" svgx:width="0.37,0.82,0.44,0.25,0.25,0.23,0.37,0.43,0.82,0.27,0.42,0.27,0.37,0.42,0.25,0.43,0.37,0.23,0.23,1.07,0.43,0.23,0.54,0.37,0.37,0.31,0.23,0.37,0.43,0.82,0.27,0.42,0.27,0.37,0.42,0.25,0.43,0.23,0.27,0.37,0.23,0.44,0.31,0.31,0.37,0.27,0.51,0.53,0.31,0.43,0.53,0.23,0.31,0.51,0.23,0.31,0.53,0.43,0.23,0.42,0.51,0.82,0.51,0.27,0.55,0.44,0.31,0.27,0.51,0.55,0.23,0.51,0.3,0.23,0.47,0.57,0.34,0.23,0.44,0.55,0.53,0.23,0.42,0.53,0.44,0.37,0.47,0.43,0.36,0.31,0.37,0.44,0.55,0.37,0.3,0.43,0.37,0.23,0.37,0.43,0.37,0.27,0.37,0.31,0.44,0.55,0.42,0.43,0.23,0.23,0.69,0.53,0.27,0.25,0.43,0.23" style="fill:rgb(0,0,0);font-family:MinionPro-Regular;font-size:9.0px;stroke:none;">small semicircles. The first semicircle is attributed to the combination of SEI and charge-transfer resistance, while </text>
   <text y="613.175" x="155.636,158.415,163.166,166.973,168.692,172.047,175.896,179.685,184.147,189.015,193.749,195.468,198.822,202.629,209.982,212.376,216.165,218.559,221.761,225.494,227.753,231.56,233.279,235.644,238.929,240.648,247.972,251.822,254.216,259.164,261.358,265.471,267.19,271.004,274.764,279.496,282.85,286.701,291.435,293.154,297.562,301.675,303.394,306.172,310.922,314.729,316.448,320.901,325.706,328.007,332.453,334.172,337.374,341.181,344.466,346.831,350.069,352.848,356.698,361.565,365.354,369.161,370.88,377.088,381.876,384.27,388.004,392.792,394.511,396.876,400.161,401.88,405.687,410.635,414.485,418.335,421.006,424.855,429.589,431.308,435.716,439.829,441.548,446.181,450.653,453.431,458.219,459.938,462.717,467.466,471.273,472.992,476.762,479.021,482.87,486.72,489.49,492.692,497.154,502.059,504.453,508.242,509.961,513.75,518.212,523.079,527.703,532.464,536.314,539.083,541.412,545.586,547.87,550.622,554.753" svgx:width="0.31,0.53,0.43,0.23,0.37,0.43,0.42,0.51,0.55,0.53,0.23,0.37,0.43,0.82,0.27,0.42,0.27,0.37,0.42,0.25,0.43,0.23,0.27,0.37,0.23,0.82,0.44,0.27,0.55,0.25,0.46,0.23,0.42,0.44,0.53,0.37,0.43,0.53,0.23,0.51,0.46,0.23,0.31,0.53,0.43,0.23,0.51,0.53,0.25,0.5,0.23,0.37,0.43,0.37,0.27,0.37,0.31,0.44,0.55,0.42,0.43,0.23,0.69,0.53,0.27,0.42,0.53,0.23,0.27,0.37,0.23,0.43,0.56,0.43,0.42,0.31,0.43,0.53,0.23,0.51,0.46,0.23,0.51,0.51,0.31,0.53,0.23,0.31,0.53,0.43,0.23,0.43,0.25,0.43,0.42,0.31,0.37,0.51,0.55,0.27,0.42,0.23,0.42,0.51,0.55,0.53,0.53,0.42,0.31,0.27,0.46,0.27,0.31,0.46,0.23" style="fill:rgb(0,0,0);font-family:MinionPro-Regular;font-size:9.0px;stroke:none;">the second semicircle is mainly caused by the bulk resistance which is effected by both the electronic conductivity </text>
   <text y="623.174" x="155.636,160.118,162.782,164.618,168.569,172.439,175.228,177.577,181.672,185.497,187.333,194.677,198.457,201.148,204.973,208.366,210.805,214.8,217.05,220.353,222.189,226.059,230.946,235.698,237.534,240.333,245.103,248.928,250.764,254.553,256.83,260.7,264.57,267.36,270.582,275.109,277.323,281.454,284.145,287.97,289.806,293.028,296.853,300.156,302.54,305.798,308.597,312.467,317.354,321.161" svgx:width="0.51,0.3,0.23,0.44,0.42,0.31,0.27,0.46,0.43,0.23,0.82,0.44,0.31,0.43,0.37,0.27,0.44,0.25,0.37,0.23,0.44,0.55,0.53,0.23,0.31,0.53,0.43,0.23,0.43,0.25,0.43,0.42,0.31,0.37,0.51,0.25,0.46,0.31,0.43,0.23,0.37,0.43,0.37,0.27,0.37,0.31,0.44,0.55,0.42,0.43" style="fill:rgb(0,0,0);font-family:MinionPro-Regular;font-size:9.0px;stroke:none;">of active materials and the electrolyte resistance</text>
   <text y="620.117" x="325.004,327.812" svgx:width="0.48,0.48" style="fill:rgb(0,0,255);font-family:MinionPro-Regular;font-size:5.85px;stroke:none;">28</text>
   <text y="620.117" x="330.62,331.954" svgx:width="0.23,0.23" style="fill:rgb(0,0,0);font-family:MinionPro-Regular;font-size:5.85px;stroke:none;">, </text>
   <text y="620.117" x="333.147,335.955" svgx:width="0.48,0.48" style="fill:rgb(0,0,255);font-family:MinionPro-Regular;font-size:5.85px;stroke:none;">29</text>
   <text y="623.177" x="338.765" svgx:width="0.23" style="fill:rgb(0,0,0);font-family:MinionPro-Regular;font-size:9.0px;stroke:none;">.</text>
   <text y="633.176" x="167.639,177.204,180.993,182.694,185.878,189.667,192.934,195.281,198.502,201.262,205.094,209.943,213.714,217.503,219.204,223.648,226.276,227.977,230.738,235.47,239.259,240.96,246.036,251.985,256.71,258.411,262.182,265.933,268.217,270.458,272.159,276.775,280.564,283.109,287.553,290.736,294.525,296.226,300.138,304.16,307.875,310.116,312.492,317.305,321.481,323.182,327.014,331.863,336.579,338.28,342.113,347.259,351.048,354.351,356.052,360.336,364.62,368.904,370.605,374.518,378.539,382.255,384.496,388.285,391.552,393.253,399.308,403.097,406.281,410.07,411.771,415.56,419.772,422.524,425.827,429.742,433.573,436.227,440.059,444.775,446.476,450.866,454.961,456.662,461.33,463.948,466.7,469.076,473.889,478.065,479.766,482.527,487.259,491.048,492.749,499.129,503.15,507.621,512.364,514.71,517.93,520.639,522.34,526.956,529.197,533.65,536.359,539.626,541.327,545.159,550.008,554.759" svgx:width="1.07,0.43,0.23,0.37,0.43,0.37,0.27,0.37,0.31,0.44,0.55,0.42,0.43,0.23,0.51,0.3,0.23,0.31,0.53,0.43,0.23,0.57,0.67,0.53,0.23,0.42,0.43,0.25,0.25,0.23,0.51,0.43,0.3,0.51,0.37,0.43,0.23,0.42,0.46,0.42,0.25,0.27,0.55,0.47,0.23,0.44,0.55,0.53,0.23,0.44,0.58,0.43,0.37,0.23,0.48,0.48,0.48,0.23,0.42,0.46,0.42,0.25,0.43,0.37,0.23,0.69,0.43,0.37,0.43,0.23,0.43,0.47,0.31,0.37,0.44,0.42,0.31,0.43,0.53,0.23,0.51,0.46,0.23,0.54,0.31,0.31,0.27,0.55,0.47,0.23,0.31,0.53,0.43,0.23,0.74,0.46,0.51,0.53,0.27,0.37,0.31,0.23,0.52,0.25,0.51,0.31,0.37,0.23,0.44,0.55,0.53,0.23" style="fill:rgb(0,0,0);font-family:MinionPro-Regular;font-size:9.0px;stroke:none;">The resistance of the ECF cell before cycling and after 300 cycles were extracted by fitting the Nyquist plots and </text>
   <text y="643.175" x="155.642,158.936,163.733,168.206,174.425,179.375,181.346,183.785,188.735,190.706,195.458,199.365,203.901,206.205,210.057" svgx:width="0.37,0.53,0.51,0.69,0.55,0.23,0.27,0.55,0.23,0.62,0.44,0.51,0.25,0.43,0.23" style="fill:rgb(0,0,0);font-family:MinionPro-Regular;font-size:9.0px;stroke:none;">shown in Table </text>
   <text y="643.175" x="212.018" svgx:width="0.48" style="fill:rgb(0,0,255);font-family:MinionPro-Regular;font-size:9.0px;stroke:none;">2</text>
   <text y="643.175" x="216.365,218.444,220.415,230.045,233.897,235.868,240.062,244.085,246.281,251.087,254.939,258.269,260.24,264.749,267.44,269.411" svgx:width="0.23,0.23,1.07,0.43,0.23,0.46,0.44,0.25,0.53,0.43,0.37,0.23,0.51,0.3,0.23,0.62" style="fill:rgb(0,0,0);font-family:MinionPro-Regular;font-size:9.0px;stroke:none;">. The values of R</text>
   <text y="644.977" x="275.013" svgx:width="0.48" style="fill:rgb(0,0,0);font-family:MinionPro-Regular;font-size:5.85px;stroke:none;">1</text>
   <text y="643.177" x="277.839,279.81,283.707,288.621,293.4,295.371" svgx:width="0.23,0.44,0.55,0.53,0.23,0.62" style="fill:rgb(0,0,0);font-family:MinionPro-Regular;font-size:9.0px;stroke:none;"> and R</text>
   <text y="644.977" x="300.981" svgx:width="0.48" style="fill:rgb(0,0,0);font-family:MinionPro-Regular;font-size:5.85px;stroke:none;">2</text>
   <text y="643.177" x="303.807,305.778,310.287,312.978,314.949,317.775,322.572,326.424,328.395,333.534,339.546,344.334,346.305,350.139,353.956,356.304,358.608,360.579,364.476,369.687,373.539,376.905,378.876,383.223,387.57,391.917,393.888,397.866,401.952,405.732,408.036,411.888,415.218,417.189,421.086,424.335,428.187,430.158,434.505,436.584,440.931,445.278,447.249,451.146,456.06,460.839,462.81,467.157,471.504,473.583,477.93,482.277" svgx:width="0.23,0.51,0.3,0.23,0.31,0.53,0.43,0.23,0.57,0.67,0.53,0.23,0.42,0.43,0.25,0.25,0.23,0.44,0.58,0.43,0.37,0.23,0.48,0.48,0.48,0.23,0.42,0.46,0.42,0.25,0.43,0.37,0.23,0.44,0.37,0.43,0.23,0.48,0.23,0.48,0.48,0.23,0.44,0.55,0.53,0.23,0.48,0.48,0.23,0.48,0.48,0.23" style="fill:rgb(0,0,0);font-family:MinionPro-Regular;font-size:9.0px;stroke:none;"> of the ECF cell after 300 cycles are 3.25 and 22.20 </text>
   <text y="643.177" x="483.402" svgx:width="0.74" style="fill:rgb(0,0,0);font-family:STIXGeneral-Regular;font-size:9.0px;stroke:none;">Ω</text>
   <text y="643.177" x="490.125,492.096,495.93,500.439,507.666,512.454,516.351,519.6,523.497,528.276,530.247,532.965,537.582,539.553,543.9,545.979,550.326,554.646" svgx:width="0.23,0.42,0.51,0.82,0.52,0.44,0.37,0.43,0.53,0.23,0.31,0.51,0.23,0.48,0.23,0.48,0.48,0.23" style="fill:rgb(0,0,0);font-family:MinionPro-Regular;font-size:9.0px;stroke:none;"> compared to 7.15 </text>
   <text y="653.176" x="155.64,159.567,164.512,169.318,171.361,175.735,180.109,182.215,186.589,190.963" svgx:width="0.44,0.55,0.53,0.23,0.48,0.48,0.23,0.48,0.48,0.23" style="fill:rgb(0,0,0);font-family:MinionPro-Regular;font-size:9.0px;stroke:none;">and 52.68 </text>
   <text y="653.176" x="192.162" svgx:width="0.74" style="fill:rgb(0,0,0);font-family:STIXGeneral-Regular;font-size:9.0px;stroke:none;">Ω</text>
   <text y="653.176" x="198.921,200.964,203.775,207.055,211.593,219.018,221.061,223.918,228.746,232.625,234.668,239.834,245.873,250.688,252.731,256.592,260.438,262.817,265.148,267.191,271.902,275.781,278.421,282.961,286.24,290.119,292.162,296.17,300.287,304.097,306.428,308.894,313.803,318.099,320.205,322.248,328.521,330.564,333.921,341.322,345.376,347.755,350.086,353.965,357.358,359.401,365.044,369.418,371.461,373.927,378.872,383.678,386.144,390.036,393.873,396.621,400.5,403.857,405.9,408.756,413.583,417.462,419.505,423.352,425.683,429.61,433.537,436.385,439.664,444.392,449.198,453.077,456.11,459.956,462.287,466.214,470.141,472.989,476.268,480.852,483.124,487.309,490.057,493.936,495.979,499.259,503.138,506.495,508.936,512.252,515.109,519.036,523.98,527.841,531.72,533.763,538.303,541.021,543.064,545.92,550.748,554.573" svgx:width="0.23,0.3,0.37,0.51,0.82,0.23,0.31,0.53,0.43,0.23,0.57,0.67,0.53,0.23,0.42,0.43,0.25,0.25,0.23,0.51,0.43,0.3,0.51,0.37,0.43,0.23,0.42,0.46,0.42,0.25,0.27,0.55,0.47,0.23,0.23,0.69,0.23,0.37,0.82,0.44,0.25,0.25,0.43,0.37,0.23,0.62,0.48,0.23,0.27,0.55,0.53,0.27,0.42,0.44,0.31,0.43,0.37,0.23,0.31,0.53,0.43,0.23,0.43,0.25,0.43,0.42,0.31,0.37,0.51,0.53,0.43,0.33,0.43,0.25,0.43,0.42,0.31,0.37,0.51,0.25,0.46,0.31,0.43,0.23,0.37,0.43,0.37,0.27,0.37,0.31,0.44,0.55,0.42,0.43,0.23,0.51,0.3,0.23,0.31,0.53,0.43,0.23" style="fill:rgb(0,0,0);font-family:MinionPro-Regular;font-size:9.0px;stroke:none;"> from the ECF cell before cycling. A smaller R1 indicates the electrode/electrolyte resistance of the </text>
   <text y="663.175" x="155.64,160.725,166.683,171.417,173.127,176.907,180.669,182.964,185.214,186.924,191.65,195.493,199.273,202.467,206.32,210.217,213.565,217.408,222.133,223.843,230.009,232.286,235.058,239.837,241.547,244.319,249.062,252.86,254.57,256.955,261.815,265.595,268.791,272.643,276.541,279.889,283.687,285.397,289.852,292.489,294.199,296.971,301.714,305.512,307.222,311.146,315.179,318.905,321.155,324.953,326.663,331.388,336.14,343.395,348.021,351.819,354.565,356.59,358.3,364.501,369.28,371.665,375.391,380.17,381.88,386.605,390.403,397.711,402.167,406.991,410.223,412.986,416.298,420.051,422.716,426.559,431.284,432.994,436.918,438.628,444.694,448.456,450.751,453.001,456.178,459.409,464.135,467.366,470.138,473.982,476.367,481.228,485.071,489.796,491.506,495.269,497.519,501.362,505.205,507.968,511.164,515.619,520.515,522.9,526.68,528.39,532.17,536.626,541.351,544.123,548.047,551.89,554.635" svgx:width="0.57,0.67,0.53,0.23,0.42,0.43,0.25,0.25,0.23,0.53,0.43,0.42,0.37,0.43,0.44,0.37,0.43,0.53,0.23,0.69,0.27,0.31,0.53,0.23,0.31,0.53,0.43,0.23,0.27,0.55,0.42,0.37,0.43,0.44,0.37,0.43,0.23,0.51,0.3,0.23,0.31,0.53,0.43,0.23,0.42,0.46,0.42,0.25,0.43,0.23,0.55,0.53,0.82,0.51,0.43,0.37,0.23,0.23,0.69,0.53,0.27,0.42,0.53,0.23,0.53,0.43,0.82,0.51,0.55,0.37,0.31,0.37,0.44,0.31,0.43,0.53,0.23,0.44,0.23,0.69,0.43,0.25,0.25,0.36,0.37,0.53,0.37,0.31,0.44,0.27,0.55,0.43,0.53,0.23,0.43,0.25,0.43,0.42,0.31,0.37,0.51,0.55,0.27,0.42,0.23,0.42,0.51,0.55,0.31,0.44,0.42,0.31,0.23" style="fill:rgb(0,0,0);font-family:MinionPro-Regular;font-size:9.0px;stroke:none;">ECF cell decreased with the increase of the cycle number, which demonstrated a well-sustained electronic contact </text>
   <text y="673.174" x="155.64,160.13,162.803,164.756,167.563,172.342,176.176,178.124,183.245,189.239,194.009,195.958,202.159,204.471,207.278,212.093,214.046,216.853,221.631,225.465,227.418,231.215,233.501,237.379,241.258,244.056,247.287,251.822,254.044,258.184,260.884,264.663,266.724,268.677,275.409,280.341,282.294,285.101,289.879,293.713,295.666,300.165,302.972,307.751,311.585,314.933,316.882,321.67,325.548,330.443,335.15,337.211,339.16,343.12,345.068,348.38,350.801,355.066,359.998,362.419,367.243,371.085,374.963,379.724,382.478,384.431,389.192,393.07,396.887,400.117,404.004,407.937,411.32,415.154,417.102,421.593,424.266,426.219" svgx:width="0.51,0.3,0.23,0.31,0.53,0.43,0.23,0.57,0.67,0.53,0.23,0.69,0.27,0.31,0.53,0.23,0.31,0.53,0.43,0.23,0.43,0.25,0.43,0.42,0.31,0.37,0.51,0.25,0.46,0.31,0.43,0.23,0.23,0.75,0.55,0.23,0.31,0.53,0.43,0.23,0.51,0.31,0.53,0.43,0.37,0.23,0.53,0.44,0.55,0.53,0.23,0.23,0.44,0.23,0.37,0.27,0.47,0.55,0.27,0.54,0.42,0.44,0.55,0.31,0.23,0.53,0.43,0.42,0.37,0.43,0.44,0.37,0.43,0.23,0.51,0.3,0.23,0.62" style="fill:rgb(0,0,0);font-family:MinionPro-Regular;font-size:9.0px;stroke:none;">of the ECF with the electrolyte. On the other hand, a significant decrease of R</text>
   <text y="674.977" x="431.769" svgx:width="0.48" style="fill:rgb(0,0,0);font-family:MinionPro-Regular;font-size:5.85px;stroke:none;">2</text>
   <text y="673.177" x="434.582,436.535,441.025,443.698,445.651,448.458,453.237,457.071,459.024,464.145,470.139,474.909,476.857,480.673,484.47,486.8,489.086,491.035,493.797,497.028,501.518,508.898,510.851,513.658,518.436,522.27,524.223,526.644,531.576,533.888,536.687,539.135,543.139,545.425,547.373,550.072,554.662" svgx:width="0.23,0.51,0.3,0.23,0.31,0.53,0.43,0.23,0.57,0.67,0.53,0.23,0.42,0.43,0.25,0.25,0.23,0.3,0.37,0.51,0.82,0.23,0.31,0.53,0.43,0.23,0.27,0.55,0.27,0.31,0.27,0.44,0.25,0.23,0.31,0.51,0.23" style="fill:rgb(0,0,0);font-family:MinionPro-Regular;font-size:9.0px;stroke:none;"> of the ECF cell from the initial to </text>
   <text y="683.176" x="155.636,159.956,164.276" svgx:width="0.48,0.48,0.48" style="fill:rgb(0,0,0);font-family:MinionPro-Regular;font-size:9.0px;stroke:none;">300</text>
   <text y="680.117" x="168.598,170.417" svgx:width="0.31,0.53" style="fill:rgb(0,0,0);font-family:MinionPro-Regular;font-size:5.85px;stroke:none;">th</text>
   <text y="683.177" x="173.541,175.377,179.328,183.387,187.14,189.417,193.188,195.24,197.076,199.488,204.375,209.127,211.539,215.373,219.153,221.943,224.355,229.206,233.418,235.254,238.053,242.823,246.648,248.484,251.067,255.549,258.942,266.286,270.066,272.856,275.268,279.75,284.673,286.509,290.991,293.655,295.491,299.649,304.761,307.83,309.666,313.473,317.964,322.788,325.065,329.817,331.653,335.478,340.446,345.225,349.095,353.982,357.789,361.614,363.45,366.249,371.019,374.844,376.68,380.055,384.582,386.859,389.271,394.023,397.227,400.485,403.284,407.064,409.755,413.58,415.416,417.693,419.996,422.795,427.601,429.905,434.684,442.055,443.891,446.303,450.785,455.708,457.544,462.296,464.708,469.811,474.563,477.866,480.278,484.76,489.683,491.519,494.858,498.638,501.329" svgx:width="0.23,0.42,0.46,0.42,0.25,0.43,0.23,0.23,0.27,0.55,0.53,0.27,0.42,0.44,0.31,0.27,0.55,0.47,0.23,0.31,0.53,0.43,0.23,0.3,0.51,0.37,0.82,0.44,0.31,0.27,0.51,0.55,0.23,0.51,0.3,0.23,0.47,0.57,0.34,0.23,0.42,0.51,0.53,0.25,0.53,0.23,0.43,0.55,0.53,0.44,0.55,0.42,0.43,0.23,0.31,0.53,0.43,0.23,0.37,0.51,0.25,0.27,0.53,0.36,0.37,0.31,0.44,0.31,0.43,0.23,0.25,0.27,0.31,0.53,0.27,0.53,0.82,0.23,0.27,0.51,0.55,0.23,0.53,0.27,0.56,0.53,0.37,0.27,0.51,0.55,0.23,0.37,0.44,0.31,0.43" style="fill:rgb(0,0,0);font-family:MinionPro-Regular;font-size:9.0px;stroke:none;"> cycle, indicating the formation of SEI could enhance the solid-state lithium ion diffusion rate</text>
   <text y="680.117" x="505.187,507.995" svgx:width="0.48,0.48" style="fill:rgb(0,0,255);font-family:MinionPro-Regular;font-size:5.85px;stroke:none;">15</text>
   <text y="683.177" x="510.803" svgx:width="0.23" style="fill:rgb(0,0,0);font-family:MinionPro-Regular;font-size:9.0px;stroke:none;">.</text>
   <text y="693.176" x="167.642,172.495,177.157,180.488,183.305,186.581,190.606,194.74,198.567,200.916,203.4,208.325,212.609,214.706,218.938,224.122,232.213,234.31,238.137,242.991,246.935,250.346,254.369,258.312,261.077,264.974,268.441,270.925,274.777,278.631,281.495,283.979,288.535,293.53,295.627,301.864,305.863,309.238,311.335,316.081,318.944,321.475,323.824,326.308,330.16,334.105,338.929,341.026,343.792,348.454,350.551,353.035,357.824,361.993,365.89,369.222,372.087,374.571,378.855,382.709,385.474,389.371,391.468,394.342,399.186,403.083,405.18,409.077,414.118,418.063,422.007,424.824,428.199,430.296,434.852,437.588,439.685,442.557,447.402,451.299,453.396,455.745,460.301,465.226,469.51,472.786,475.551,479.448,482.914,490.357,492.454,496.282,501.135,505.08,508.42,512.634,516.531,519.807,524.631,527.09,530.539,534.366,539.219,543.164,546.505,550.719,554.544" svgx:width="0.56,0.51,0.37,0.31,0.36,0.42,0.46,0.42,0.25,0.27,0.55,0.47,0.23,0.47,0.57,0.89,0.23,0.42,0.53,0.44,0.37,0.44,0.42,0.31,0.43,0.37,0.27,0.42,0.44,0.31,0.27,0.51,0.55,0.23,0.69,0.44,0.37,0.23,0.53,0.31,0.27,0.25,0.27,0.42,0.43,0.53,0.23,0.31,0.51,0.23,0.27,0.55,0.46,0.43,0.37,0.31,0.27,0.47,0.44,0.31,0.43,0.23,0.31,0.53,0.43,0.23,0.43,0.56,0.43,0.42,0.31,0.37,0.23,0.51,0.3,0.23,0.31,0.53,0.43,0.23,0.25,0.51,0.55,0.47,0.36,0.31,0.43,0.37,0.82,0.23,0.42,0.53,0.44,0.37,0.47,0.43,0.36,0.53,0.27,0.37,0.42,0.53,0.44,0.37,0.47,0.43,0.23" style="fill:rgb(0,0,0);font-family:MinionPro-Regular;font-size:9.0px;stroke:none;">Post-cycling SEM characterization was utilized to investigate the effects of the long-term charge-discharge </text>
   <text y="703.175" x="155.645,159.696,163.855,167.708,170.084,172.595,177.547,181.858,184.045,188.628,193.65,195.837,198.736,203.607,207.531,209.718,217.154,221.735,225.264,230.017,234.888,239.515,241.891,246.58,251.109,255.339,257.526,261.497,266.483,271.335,273.522,280.992,283.503,287.409,290.731,295.42,298.778,301.668,305.198,310.076,314.046,316.801,321.679,325.001,328.925,331.112,335.695,338.458,340.645,343.545,348.415,352.339,354.526,359.737,365.821,370.681,372.868,376.757,379.133,383.103,387.073,389.964,393.285,398.056,402.907,406.779,408.93,411.117,417.293,420.695,422.882,426.25,431.12,435.666,441.957,446.979,449.167,451.677,456.699,458.887,463.746,466.257,470.568,473.97" svgx:width="0.42,0.46,0.42,0.25,0.27,0.55,0.47,0.23,0.51,0.55,0.23,0.31,0.53,0.43,0.23,0.82,0.51,0.37,0.52,0.53,0.51,0.25,0.51,0.47,0.46,0.23,0.44,0.55,0.53,0.23,0.82,0.27,0.42,0.37,0.51,0.37,0.31,0.37,0.53,0.42,0.31,0.53,0.37,0.43,0.23,0.51,0.3,0.23,0.31,0.53,0.43,0.23,0.57,0.67,0.53,0.23,0.43,0.25,0.43,0.42,0.31,0.37,0.51,0.53,0.43,0.23,0.23,0.69,0.37,0.23,0.37,0.53,0.51,0.69,0.55,0.23,0.27,0.55,0.23,0.53,0.27,0.47,0.37,0.23" style="fill:rgb(0,0,0);font-family:MinionPro-Regular;font-size:9.0px;stroke:none;">cycling on the morphology and microstructure of the ECF electrode. As shown in Figs </text>
   <text y="703.175" x="476.216,480.635,483.848,490.166" svgx:width="0.48,0.35,0.69,0.35" style="fill:rgb(0,0,255);font-family:MinionPro-Regular;font-size:9.0px;stroke:none;">8(A)</text>
   <text y="703.175" x="493.379,495.566,499.535,504.522,509.375" svgx:width="0.23,0.44,0.55,0.53,0.23" style="fill:rgb(0,0,0);font-family:MinionPro-Regular;font-size:9.0px;stroke:none;"> and </text>
   <text y="703.175" x="511.562,515.927" svgx:width="0.47,0.48" style="fill:rgb(0,0,255);font-family:MinionPro-Regular;font-size:9.0px;stroke:none;">S2</text>
   <text y="703.175" x="520.346,522.497,524.684,527.583,532.453,536.377,538.564,543.775,549.859,554.62" svgx:width="0.23,0.23,0.31,0.53,0.43,0.23,0.57,0.67,0.53,0.23" style="fill:rgb(0,0,0);font-family:MinionPro-Regular;font-size:9.0px;stroke:none;">, the ECF </text>
   <text y="713.174" x="155.645,159.403,161.653,165.493,169.332,172.092,175.283,179.923,184.648,188.446,190.152,196.313,198.587,201.355,206.134,207.844,211.768,213.474,216.242,221.021,223.406,227.128,231.598,236.454,240.252,243.48,246.756,248.466,252.917,255.554,257.259,261.552,265.845,267.87,272.163,273.203,280.547,287.891,289.596,292.683,297.876,302.169,304.194,308.487,309.554,316.822,321.007,324.094,325.8,329.64,334.794,338.592,341.899,343.609,347.902,352.195,356.488,358.198,361.92,366.669,370.508,373.745,377.854,381.652,384.829,389.554,391.908,395.253,398.975,403.724,407.563,410.799,414.909,418.707,420.417,424.337,428.366,432.088,434.338,438.136,441.412,443.118,446.867,449.585,451.295,455.588,457.613,461.906,462.923,469.115,472.067,476.252,477.957,481.186,483.945,486.371,488.662,490.912,492.622,495.007,499.944,504.684,508.482,511.844,514.118,516.836,520.112,521.817,524.586,529.325,533.123,534.833,537.218,541.939,544.6,548.398,551.438" svgx:width="0.43,0.25,0.43,0.42,0.31,0.37,0.51,0.53,0.43,0.23,0.69,0.27,0.31,0.53,0.23,0.44,0.23,0.31,0.53,0.27,0.42,0.5,0.55,0.43,0.37,0.37,0.23,0.51,0.3,0.23,0.48,0.48,0.23,0.48,0.23,0.82,0.82,0.23,0.35,0.58,0.48,0.23,0.48,0.23,0.82,0.47,0.35,0.23,0.44,0.58,0.43,0.37,0.23,0.48,0.48,0.48,0.23,0.42,0.53,0.44,0.37,0.47,0.43,0.36,0.53,0.27,0.37,0.42,0.53,0.44,0.37,0.47,0.43,0.23,0.42,0.46,0.42,0.25,0.43,0.37,0.23,0.44,0.31,0.23,0.48,0.23,0.48,0.23,0.69,0.33,0.47,0.23,0.37,0.31,0.27,0.25,0.25,0.23,0.27,0.55,0.53,0.43,0.37,0.27,0.31,0.37,0.23,0.31,0.53,0.43,0.23,0.27,0.55,0.31,0.43,0.37,0.36" style="fill:rgb(0,0,0);font-family:MinionPro-Regular;font-size:9.0px;stroke:none;">electrode with a thickness of 13.7 mm (~9.0 mg) after 100 charge-discharge cycles at 0.1 A/g still inherits the inter-</text>
   <text y="723.173" x="155.645,159.443,163.913,168.827,173.703,177.563,181.421,184.101,187.96,192.703,194.431,198.255,202.114,205.444,210.085,214.556,219.47,221.198,226.074,229.89,232.652,238.734,243.205,246.496,250.951,252.679,256.539,259.75,263.491,268.288,270.581,273.261,277.12,280.979,283.623,288.393,291.604,295.42,297.148,301.007,305.884,310.627,312.355,319.687,323.629,327.427,330.638,335.117,339.904,344.375,347.586,351.402,354.696,356.424,360.337,363.631,365.359,371.441,375.219,377.53,379.798,381.526,385.439,388.733,390.461,393.249,398.008,401.824,403.552,408.024,411.405,413.808,418.053,420.456,425.341,429.327,431.595,433.323,436.578,441.346,445.115,449.901,453.717,455.445,459.916,462.571,464.299,467.087,471.845,475.661,477.389,482.492,488.468,493.22,494.948,499.717,504.359,508.175,511.448,514.742,516.785,518.513,520.916,525.792,530.535,532.938,536.761,540.53,543.309,545.712,550.552,554.764" svgx:width="0.42,0.51,0.55,0.55,0.43,0.42,0.31,0.43,0.53,0.23,0.42,0.44,0.37,0.51,0.51,0.55,0.23,0.55,0.43,0.31,0.69,0.51,0.37,0.5,0.23,0.44,0.37,0.42,0.53,0.27,0.31,0.43,0.42,0.31,0.53,0.37,0.43,0.23,0.44,0.55,0.53,0.23,0.82,0.44,0.42,0.37,0.51,0.52,0.51,0.37,0.43,0.37,0.23,0.44,0.37,0.23,0.69,0.43,0.25,0.25,0.23,0.44,0.37,0.23,0.31,0.53,0.43,0.23,0.51,0.37,0.27,0.47,0.27,0.55,0.44,0.25,0.23,0.37,0.53,0.44,0.52,0.43,0.23,0.51,0.3,0.23,0.31,0.53,0.43,0.23,0.57,0.67,0.53,0.23,0.54,0.51,0.43,0.37,0.37,0.23,0.23,0.27,0.55,0.53,0.27,0.42,0.44,0.31,0.27,0.55,0.47,0.23" style="fill:rgb(0,0,0);font-family:MinionPro-Regular;font-size:9.0px;stroke:none;">connected carbon network architecture and macropores as well as the original shape of the ECF fibers, indicating </text>
   <text y="733.172" x="155.645,159.56,161.261,165.318,169.107,172.669,176.764,178.465,183.235,185.611,189.849,194.619,196.32,203.617,208.061,211.452,216.068,220.8,225.29,227.531,232.085,236.304,238.68,242.476,246.433,248.674,250.375,254.208,259.057,263.773,265.474,268.694,271.446,274.837,279.58,283.413,286.03,290.773,294.076,298.033,300.274,301.975,305.195,307.956,311.798,316.224,318.643,320.884,323.15,325.884,329.979,331.68,336.125,338.753,340.454,343.215,347.947,351.736,353.437,358.513,364.462,369.187,370.888,374.639,376.88,380.712,384.545,387.297,390.481,395.114,399.83,403.563,405.579,407.28,412.005,414.381,418.557,423.3,426.485,430.274,433.541" svgx:width="0.44,0.23,0.46,0.43,0.37,0.46,0.23,0.53,0.27,0.47,0.53,0.23,0.82,0.51,0.37,0.52,0.53,0.51,0.25,0.51,0.47,0.27,0.42,0.44,0.25,0.23,0.44,0.55,0.53,0.23,0.37,0.31,0.37,0.53,0.42,0.31,0.53,0.37,0.44,0.25,0.23,0.37,0.31,0.44,0.51,0.27,0.25,0.27,0.31,0.46,0.23,0.51,0.3,0.23,0.31,0.53,0.43,0.23,0.57,0.67,0.53,0.23,0.43,0.25,0.43,0.42,0.31,0.37,0.51,0.53,0.43,0.23,0.23,0.53,0.27,0.47,0.53,0.37,0.43,0.37,0.23" style="fill:rgb(0,0,0);font-family:MinionPro-Regular;font-size:9.0px;stroke:none;">a very high morphological and structural stability of the ECF electrode. Figures </text>
   <text y="733.172" x="435.158,439.442,442.52,447.776" svgx:width="0.48,0.35,0.59,0.35" style="fill:rgb(0,0,255);font-family:MinionPro-Regular;font-size:9.0px;stroke:none;">8(B)</text>
   <text y="733.172" x="450.854,452.555,456.389,461.238,465.952" svgx:width="0.23,0.44,0.55,0.53,0.23" style="fill:rgb(0,0,0);font-family:MinionPro-Regular;font-size:9.0px;stroke:none;"> and </text>
   <text y="733.172" x="467.653,471.883" svgx:width="0.47,0.48" style="fill:rgb(0,0,255);font-family:MinionPro-Regular;font-size:9.0px;stroke:none;">S3</text>
   <text y="733.172" x="476.167,477.868,481.098,485.83,490.238,496.367,499.634,501.335,504.096,508.828,512.617,514.318,518.438,523.514,531.497,533.198,535.574,542.881,546.749,550.851,554.676" svgx:width="0.23,0.37,0.53,0.51,0.69,0.37,0.23,0.31,0.53,0.43,0.23,0.47,0.57,0.89,0.23,0.27,0.82,0.44,0.47,0.43,0.23" style="fill:rgb(0,0,0);font-family:MinionPro-Regular;font-size:9.0px;stroke:none;"> shows the SEM image </text>
  </g>
  <rect style="stroke:blue;stroke-width:0.3;" x="155.638" y="64.138" height="166.32" width="396.0" title="7"/>
  <text y="64.138" class="image" id="image.7.1" width="396" height="166" x="155.638">image.7.1.156_552.64_230</text>
  <path style="fill:none;stroke:rgb(131,144,151);stroke-width:0.3;" d="M159.130 261.360 L552.640 261.360 "/>
  <path style="fill:none;stroke:rgb(131,144,151);stroke-width:1.0;" d="M156.140 261.360 L156.140 261.360 M554.140 261.360 L554.140 261.360 "/>
  <g begin="text">
   <text y="231.363" x="155.638,160.552,163.207,167.662,172.657,176.221,180.154,181.909,186.409" svgx:width="0.55,0.29,0.49,0.56,0.4,0.44,0.22,0.5,0.25" style="fill:rgb(0,0,0);font-family:MinionPro-Bold;font-size:9.0px;stroke:none;">Figure 7.</text>
   <text y="231.363" x="188.695,190.765,193.195" svgx:width="0.23,0.55,0.35" style="fill:rgb(0,0,0);font-family:MinionPro-Regular;font-size:9.0px;stroke:none;"> (</text>
   <text y="231.363" x="196.309" svgx:width="0.71" style="fill:rgb(0,0,0);font-family:MinionPro-Bold;font-size:9.0px;stroke:none;">A</text>
   <text y="231.363" x="202.663,205.777,207.613,214.03,218.089,222.598,227.377,229.762,233.02,235.765,237.601,242.254,244.531,249.022,251.767,255.07,256.906,261.388,264.052,265.888,268.687,273.457,277.282,279.118,284.23,290.215,294.976,296.812,301.591,306.478,311.23,315.055,318.394,320.23,324.982,327.394,332.362,336.187,339.409,343.234,347.986,350.731,352.567,356.518,360.577,364.33,366.607,369.019,373.87,378.082,379.918,383.725,388.207,393.094,397.846,400.15,402.939,405.351,409.833,414.684,417.987,420.039,421.875,425.799,429.102,432.306,436.23,439.488,442.863,446.688,453.969,458.478,460.755,464.624,469.376,471.212,475.163,479.222,482.975,485.252,489.077,490.913,494.783,499.67,504.422,506.258,510.128,515.311,519.136,522.475,524.311,528.631,532.951,537.271" svgx:width="0.35,0.23,0.74,0.46,0.51,0.53,0.27,0.37,0.31,0.23,0.52,0.25,0.51,0.31,0.37,0.23,0.51,0.3,0.23,0.31,0.53,0.43,0.23,0.57,0.67,0.53,0.23,0.53,0.55,0.53,0.43,0.37,0.23,0.53,0.27,0.56,0.43,0.37,0.43,0.55,0.31,0.23,0.42,0.46,0.42,0.25,0.27,0.55,0.47,0.23,0.42,0.51,0.55,0.53,0.27,0.31,0.27,0.51,0.55,0.37,0.23,0.23,0.44,0.37,0.36,0.44,0.37,0.37,0.43,0.82,0.51,0.25,0.43,0.53,0.23,0.42,0.46,0.42,0.25,0.43,0.23,0.44,0.55,0.53,0.23,0.44,0.58,0.43,0.37,0.23,0.48,0.48,0.48,0.23" style="fill:rgb(0,0,0);font-family:MinionPro-Regular;font-size:9.0px;stroke:none;">) Nyquist plots of the ECF under different cycling conditions: as-assembled cycle and after 300 </text>
   <text y="241.362" x="155.638,159.589,163.648,167.401,169.678,173.503,176.806,178.858,180.694,185.851,190.36,195.139,197.488,201.655,205.651,207.928,211.753,216.504,219.249,221.085,224.892,227.304,230.526,234.396,239.175,241.479,244.224,247.527,249.363,251.946,256.428,259.767,261.603,266.31,268.965,271.755,274.167,279.018,283.23,285.066,291.482,295.542,300.051,304.83,307.214,310.472,313.217,315.053,319.706,321.983,326.474,329.219,332.522,334.358" svgx:width="0.42,0.46,0.42,0.25,0.43,0.37,0.23,0.23,0.57,0.51,0.53,0.27,0.46,0.44,0.25,0.43,0.55,0.31,0.23,0.42,0.27,0.37,0.42,0.53,0.27,0.31,0.37,0.23,0.3,0.51,0.37,0.23,0.54,0.31,0.31,0.27,0.55,0.47,0.23,0.74,0.46,0.51,0.53,0.27,0.37,0.31,0.23,0.52,0.25,0.51,0.31,0.37,0.23,0.35" style="fill:rgb(0,0,0);font-family:MinionPro-Regular;font-size:9.0px;stroke:none;">cycles. Equivalent circuits for fitting Nyquist plots (</text>
   <text y="241.362" x="337.472" svgx:width="0.64" style="fill:rgb(0,0,0);font-family:MinionPro-Bold;font-size:9.0px;stroke:none;">B</text>
   <text y="241.362" x="343.205,346.319,348.155,352.807,356.632,359.215,363.697,366.919,370.744,372.58,376.45,381.337,386.089,387.925" svgx:width="0.35,0.23,0.51,0.43,0.3,0.51,0.37,0.43,0.23,0.44,0.55,0.53,0.23,0.35" style="fill:rgb(0,0,0);font-family:MinionPro-Regular;font-size:9.0px;stroke:none;">) before and (</text>
   <text y="241.362" x="391.039" svgx:width="0.68" style="fill:rgb(0,0,0);font-family:MinionPro-Bold;font-size:9.0px;stroke:none;">C</text>
   <text y="241.362" x="397.123,400.237,402.073,405.943,411.126,414.952,418.29,420.126,424.078,428.137,431.89,434.167,436.579,441.43,445.669,447.721,449.557" svgx:width="0.35,0.23,0.44,0.58,0.43,0.37,0.23,0.42,0.46,0.42,0.25,0.27,0.55,0.47,0.23,0.23,0.62" style="fill:rgb(0,0,0);font-family:MinionPro-Regular;font-size:9.0px;stroke:none;">) after cycling. R</text>
   <text y="243.163" x="455.179" svgx:width="0.48" style="fill:rgb(0,0,0);font-family:MinionPro-Regular;font-size:5.85px;stroke:none;">1</text>
   <text y="241.363" x="457.987,460.039,461.875,464.674,469.444,473.269,475.105,477.517,482.269,484.96,488.785,492.178,497.074,501.07,503.347,505.183,508.558,512.383,515.775,518.187,522.012,525.315" svgx:width="0.23,0.23,0.31,0.53,0.43,0.23,0.27,0.55,0.31,0.43,0.37,0.55,0.44,0.25,0.23,0.37,0.43,0.37,0.27,0.43,0.37,0.23" style="fill:rgb(0,0,0);font-family:MinionPro-Regular;font-size:9.0px;stroke:none;">: the internal series </text>
   <text y="251.362" x="155.641,158.863,162.688,165.991,168.376,171.634,174.433,178.303,183.19,186.997,190.822,192.658,197.14,199.804,201.64,204.439,209.209,213.034,214.87,218.677,222.465,224.787,227.064,229.116,230.952" svgx:width="0.37,0.43,0.37,0.27,0.37,0.31,0.44,0.55,0.42,0.43,0.23,0.51,0.3,0.23,0.31,0.53,0.43,0.23,0.42,0.43,0.25,0.25,0.23,0.23,0.62" style="fill:rgb(0,0,0);font-family:MinionPro-Regular;font-size:9.0px;stroke:none;">resistance of the cell; R</text>
   <text y="253.163" x="236.548" svgx:width="0.48" style="fill:rgb(0,0,0);font-family:MinionPro-Regular;font-size:5.85px;stroke:none;">2</text>
   <text y="251.363" x="239.356,241.408,243.244,246.043,250.813,254.638,256.474,260.227,265.006,268.876,272.143,276.283,280.108,283.312,286.102,289.441,293.311,298.162,301.465,304.048,307.873,311.212,313.048,316.27,320.095,323.398,325.783,329.041,331.84,335.71,340.597,344.404,348.229,350.281,352.117,355.987,360.874,365.626,367.462" svgx:width="0.23,0.23,0.31,0.53,0.43,0.23,0.42,0.53,0.44,0.37,0.47,0.43,0.36,0.31,0.37,0.44,0.55,0.37,0.3,0.43,0.37,0.23,0.37,0.43,0.37,0.27,0.37,0.31,0.44,0.55,0.42,0.43,0.23,0.23,0.44,0.55,0.53,0.23,0.62" style="fill:rgb(0,0,0);font-family:MinionPro-Regular;font-size:9.0px;stroke:none;">: the charge-transfer resistance; and R</text>
   <text y="253.163" x="373.063" svgx:width="0.48" style="fill:rgb(0,0,0);font-family:MinionPro-Regular;font-size:5.85px;stroke:none;">3</text>
   <text y="251.363" x="375.871,377.923,379.759,382.557,387.327,391.152,392.988,397.146,402.258,405.327,407.163,412.023,414.301,421.672,423.508,426.729,430.555,433.858,436.242,439.5,442.299,446.169,451.056,454.863,458.634" svgx:width="0.23,0.23,0.31,0.53,0.43,0.23,0.47,0.57,0.34,0.23,0.54,0.25,0.82,0.23,0.37,0.43,0.37,0.27,0.37,0.31,0.44,0.55,0.42,0.43,0.23" style="fill:rgb(0,0,0);font-family:MinionPro-Regular;font-size:9.0px;stroke:none;">: the SEI film resistance.</text>
  </g>
  <path style="fill:none;stroke:rgb(131,144,151);stroke-width:1.0;" d="M159.130 550.300 L552.640 550.300 "/>
  <path style="fill:none;stroke:rgb(131,144,151);stroke-width:1.0;" d="M156.140 550.300 L156.140 550.300 M554.140 550.300 L554.140 550.300 "/>
  <path style="fill:none;stroke:rgb(0,0,0);stroke-width:1.0;" d="M155.640 478.800 L228.450 478.800 "/>
  <path style="fill:none;stroke:rgb(0,0,0);stroke-width:0.25;" d="M155.760 490.300 L155.760 478.930 "/>
  <path style="fill:none;stroke:rgb(0,0,0);stroke-width:0.25;" d="M155.640 490.430 L228.450 490.430 "/>
  <path style="fill:none;stroke:rgb(0,0,0);stroke-width:0.25;" d="M228.450 478.800 L269.220 478.800 "/>
  <path style="fill:none;stroke:rgb(0,0,0);stroke-width:0.25;" d="M228.450 490.300 L228.450 478.930 "/>
  <path style="fill:none;stroke:rgb(0,0,0);stroke-width:0.25;" d="M228.450 490.430 L269.220 490.430 "/>
  <path style="fill:none;stroke:rgb(0,0,0);stroke-width:0.25;" d="M269.220 478.800 L314.990 478.800 "/>
  <path style="fill:none;stroke:rgb(0,0,0);stroke-width:0.25;" d="M269.220 490.300 L269.220 478.930 "/>
  <path style="fill:none;stroke:rgb(0,0,0);stroke-width:0.25;" d="M269.220 490.430 L314.990 490.430 "/>
  <path style="fill:none;stroke:rgb(0,0,0);stroke-width:0.25;" d="M314.990 478.800 L355.890 478.800 "/>
  <path style="fill:none;stroke:rgb(0,0,0);stroke-width:0.25;" d="M314.990 490.300 L314.990 478.930 "/>
  <path style="fill:none;stroke:rgb(0,0,0);stroke-width:0.25;" d="M355.760 490.300 L355.760 478.930 "/>
  <path style="fill:none;stroke:rgb(0,0,0);stroke-width:0.25;" d="M314.990 490.430 L355.890 490.430 "/>
  <path style="fill:none;stroke:rgb(0,0,0);stroke-width:0.25;" d="M155.760 501.930 L155.760 490.550 "/>
  <path style="fill:none;stroke:rgb(0,0,0);stroke-width:0.25;" d="M228.450 501.930 L228.450 490.550 "/>
  <path style="fill:none;stroke:rgb(0,0,0);stroke-width:0.25;" d="M269.220 501.930 L269.220 490.550 "/>
  <path style="fill:none;stroke:rgb(0,0,0);stroke-width:0.25;" d="M314.990 501.930 L314.990 490.550 "/>
  <path style="fill:none;stroke:rgb(0,0,0);stroke-width:0.25;" d="M355.760 501.930 L355.760 490.550 "/>
  <path style="fill:none;stroke:rgb(0,0,0);stroke-width:0.25;" d="M155.640 502.050 L228.450 502.050 "/>
  <path style="fill:none;stroke:rgb(0,0,0);stroke-width:0.25;" d="M155.760 513.550 L155.760 502.180 "/>
  <path style="fill:none;stroke:rgb(0,0,0);stroke-width:0.25;" d="M155.640 513.680 L228.450 513.680 "/>
  <path style="fill:none;stroke:rgb(0,0,0);stroke-width:0.25;" d="M228.450 502.050 L269.220 502.050 "/>
  <path style="fill:none;stroke:rgb(0,0,0);stroke-width:0.25;" d="M228.450 513.550 L228.450 502.180 "/>
  <path style="fill:none;stroke:rgb(0,0,0);stroke-width:0.25;" d="M228.450 513.680 L269.220 513.680 "/>
  <path style="fill:none;stroke:rgb(0,0,0);stroke-width:0.25;" d="M269.220 502.050 L314.990 502.050 "/>
  <path style="fill:none;stroke:rgb(0,0,0);stroke-width:0.25;" d="M269.220 513.550 L269.220 502.180 "/>
  <path style="fill:none;stroke:rgb(0,0,0);stroke-width:0.25;" d="M269.220 513.680 L314.990 513.680 "/>
  <path style="fill:none;stroke:rgb(0,0,0);stroke-width:0.25;" d="M314.990 502.050 L355.890 502.050 "/>
  <path style="fill:none;stroke:rgb(0,0,0);stroke-width:0.25;" d="M314.990 513.550 L314.990 502.180 "/>
  <path style="fill:none;stroke:rgb(0,0,0);stroke-width:0.25;" d="M355.760 513.550 L355.760 502.180 "/>
  <path style="fill:none;stroke:rgb(0,0,0);stroke-width:0.25;" d="M314.990 513.680 L355.890 513.680 "/>
  <g begin="text">
   <text y="486.427" x="158.763,162.83,167.562,171.44,172.805,176.032,179.994,183.745,187.616,190.69600000000003,231.458" svgx:width="0.58,0.68,0.55,0.22,0.47,0.57,0.52,0.55,0.44,0.55,0.66" style="fill:rgb(0,0,0);font-family:MinionPro-Bold;font-size:7.0px;stroke:none;">ECF anode R</text>
   <text y="487.827" x="236.068" svgx:width="0.5" style="fill:rgb(0,0,0);font-family:MinionPro-Bold;font-size:4.55px;stroke:none;">1</text>
   <text y="486.427" x="238.343,239.708" svgx:width="0.22,0.35" style="fill:rgb(0,0,0);font-family:MinionPro-Bold;font-size:7.0px;stroke:none;"> (</text>
   <text y="486.427" x="242.172" svgx:width="0.76" style="fill:rgb(0,0,0);font-family:STIXGeneral-Bold;font-size:7.0px;stroke:none;">Ω</text>
   <text y="486.427" x="247.478,249.928,272.223" svgx:width="0.35,0.55,0.66" style="fill:rgb(0,0,0);font-family:MinionPro-Bold;font-size:7.0px;stroke:none;">) R</text>
   <text y="487.827" x="276.837" svgx:width="0.5" style="fill:rgb(0,0,0);font-family:MinionPro-Bold;font-size:4.55px;stroke:none;">2</text>
   <text y="486.427" x="279.112,280.477" svgx:width="0.22,0.35" style="fill:rgb(0,0,0);font-family:MinionPro-Bold;font-size:7.0px;stroke:none;"> (</text>
   <text y="486.427" x="282.941" svgx:width="0.76" style="fill:rgb(0,0,0);font-family:STIXGeneral-Bold;font-size:7.0px;stroke:none;">Ω</text>
   <text y="486.427" x="288.247,290.697,317.99" svgx:width="0.35,0.55,0.66" style="fill:rgb(0,0,0);font-family:MinionPro-Bold;font-size:7.0px;stroke:none;">) R</text>
   <text y="487.827" x="322.606" svgx:width="0.5" style="fill:rgb(0,0,0);font-family:MinionPro-Bold;font-size:4.55px;stroke:none;">3</text>
   <text y="486.427" x="324.881,326.246" svgx:width="0.22,0.35" style="fill:rgb(0,0,0);font-family:MinionPro-Bold;font-size:7.0px;stroke:none;"> (</text>
   <text y="486.427" x="328.71" svgx:width="0.76" style="fill:rgb(0,0,0);font-family:STIXGeneral-Bold;font-size:7.0px;stroke:none;">Ω</text>
   <text y="486.427" x="334.016" svgx:width="0.35" style="fill:rgb(0,0,0);font-family:MinionPro-Bold;font-size:7.0px;stroke:none;">)</text>
   <text y="498.054" x="158.764,163.489,166.058,168.55,171.602,174.136,176.761,179.736,185.399,188.906,190.677,193.687,197.39700000000002,231.459,234.819,236.415,239.775,243.13500000000002,272.227,275.587,278.947,280.543,283.903,287.26300000000003,317.993,322.928" svgx:width="0.69,0.37,0.36,0.44,0.37,0.37,0.43,0.82,0.51,0.25,0.43,0.53,0.55,0.48,0.23,0.48,0.48,0.55,0.48,0.48,0.23,0.48,0.48,0.55,0.74,0.69" style="fill:rgb(0,0,0);font-family:MinionPro-Regular;font-size:7.0px;stroke:none;">As-assembled 7.15 52.68 NA</text>
   <text y="509.681" x="158.764,162.124,165.484,168.844,170.272,173.345,176.502,179.421,181.192,184.167,186.757,231.459,234.819,236.415,239.775,243.13500000000002,272.227,275.587,278.947,280.543,283.903,287.26300000000003,317.993,321.353,322.949,326.309" svgx:width="0.48,0.48,0.48,0.23,0.42,0.46,0.42,0.25,0.43,0.37,0.55,0.48,0.23,0.48,0.48,0.55,0.48,0.48,0.23,0.48,0.48,0.55,0.48,0.23,0.48,0.48" style="fill:rgb(0,0,0);font-family:MinionPro-Regular;font-size:7.0px;stroke:none;">300 cycles 3.25 22.20 8.94</text>
   <text y="529.802" x="155.638,160.597,164.728,169.507,172.063,175.996,177.751,182.251" svgx:width="0.64,0.47,0.53,0.28,0.44,0.22,0.5,0.25" style="fill:rgb(0,0,0);font-family:MinionPro-Bold;font-size:9.0px;stroke:none;">Table 2.</text>
   <text y="529.802" x="184.537,186.607,189.037,195.157,199.639,206.839,211.6,215.47,218.863,221.248,224.622,229.104,234.027,235.863,240.345,243.009,244.845,249.552,252.207,254.898,258.768,263.52,265.356,267.768,274.968,279.765,283.635,288.414,292.284,297.171,300.978,304.803,306.639,311.4,315.27,318.609,322.479,329.814,333.639,336.33,340.155,343.44,346.743,348.579,353.061,355.725,357.561,360.36,365.13,368.955,370.791,375.903,381.888,386.649,388.485,392.274,394.551,398.421,402.291,405.081,408.303,412.973,417.725,421.55,423.386,426.5,429.299,434.105,436.517,440.27,444.769,449.657,453.482,456.739,460.042,462.094,463.93,468.25,472.57,474.622,478.942,480.088,487.459,494.83,497.944,499.78,504.432,508.257,510.84,515.322,518.544,522.369,524.205,528.156,532.215,535.968,538.245,540.657,545.508,549.72" svgx:width="0.23,0.55,0.67,0.51,0.82,0.52,0.44,0.37,0.27,0.37,0.51,0.55,0.23,0.51,0.3,0.23,0.54,0.31,0.31,0.43,0.53,0.23,0.27,0.82,0.52,0.43,0.53,0.44,0.55,0.42,0.43,0.23,0.52,0.44,0.37,0.44,0.82,0.43,0.31,0.43,0.37,0.37,0.23,0.51,0.3,0.23,0.31,0.53,0.43,0.23,0.57,0.67,0.53,0.23,0.43,0.25,0.43,0.42,0.31,0.37,0.51,0.53,0.43,0.23,0.35,0.31,0.53,0.27,0.42,0.5,0.55,0.43,0.37,0.37,0.23,0.23,0.48,0.48,0.23,0.48,0.23,0.82,0.82,0.35,0.23,0.51,0.43,0.3,0.51,0.37,0.43,0.23,0.42,0.46,0.42,0.25,0.27,0.55,0.47,0.23" style="fill:rgb(0,0,0);font-family:MinionPro-Regular;font-size:9.0px;stroke:none;"> Comparison of fitted impedance parameters of the ECF electrode (thickness: 13.7 mm) before cycling </text>
   <text y="539.801" x="155.629,159.499,164.386,169.138,170.974,174.844,180.028,183.853,187.192,189.028,193.348,197.668,201.988,203.824,207.775,211.834,215.587,217.864,221.689,224.992" svgx:width="0.44,0.55,0.53,0.23,0.44,0.58,0.43,0.37,0.23,0.48,0.48,0.48,0.23,0.42,0.46,0.42,0.25,0.43,0.37,0.23" style="fill:rgb(0,0,0);font-family:MinionPro-Regular;font-size:9.0px;stroke:none;">and after 300 cycles.</text>
  </g>
  <rect style="stroke:blue;stroke-width:0.3;" x="155.638" y="300.724" height="139.56" width="396.0" title="7"/>
  <text y="300.724" class="image" id="image.7.2" width="396" height="139" x="155.638">image.7.2.156_552.301_440</text>
  <path style="fill:none;stroke:rgb(131,144,151);stroke-width:0.25;" d="M159.130 451.190 L552.640 451.190 "/>
  <path style="fill:none;stroke:rgb(131,144,151);stroke-width:1.0;" d="M156.140 451.190 L156.140 451.190 M554.140 451.190 L554.140 451.190 "/>
  <g begin="text">
   <text y="441.189" x="155.638,160.552,163.207,167.662,172.657,176.221,180.154,181.909,186.409" svgx:width="0.55,0.29,0.49,0.56,0.4,0.44,0.22,0.5,0.25" style="fill:rgb(0,0,0);font-family:MinionPro-Bold;font-size:9.0px;stroke:none;">Figure 8.</text>
   <text y="441.189" x="188.695,190.765,193.195,197.353,202.465,210.484,212.32,214.732,222.076,225.982,230.122,233.947,237.25,239.086,243.568,246.232,248.068,250.867,255.637,259.462,261.298,266.41,272.395,277.156,278.992,282.781,285.058,288.928,292.798,295.588,298.81,303.48,308.233,312.058,313.894,317.764,322.948,326.773,330.112,331.948" svgx:width="0.23,0.55,0.47,0.57,0.89,0.23,0.27,0.82,0.44,0.47,0.43,0.37,0.23,0.51,0.3,0.23,0.31,0.53,0.43,0.23,0.57,0.67,0.53,0.23,0.43,0.25,0.43,0.42,0.31,0.37,0.51,0.53,0.43,0.23,0.44,0.58,0.43,0.37,0.23,0.35" style="fill:rgb(0,0,0);font-family:MinionPro-Regular;font-size:9.0px;stroke:none;"> SEM images of the ECF electrode after (</text>
   <text y="441.189" x="335.062" svgx:width="0.71" style="fill:rgb(0,0,0);font-family:MinionPro-Bold;font-size:9.0px;stroke:none;">A</text>
   <text y="441.189" x="341.416,344.53,346.366,350.686,355.006,359.326,361.162,365.032,369.919,374.671,376.507" svgx:width="0.35,0.23,0.48,0.48,0.48,0.23,0.44,0.55,0.53,0.23,0.35" style="fill:rgb(0,0,0);font-family:MinionPro-Regular;font-size:9.0px;stroke:none;">) 100 and (</text>
   <text y="441.189" x="379.621" svgx:width="0.64" style="fill:rgb(0,0,0);font-family:MinionPro-Bold;font-size:9.0px;stroke:none;">B</text>
   <text y="441.189" x="385.354,388.468,390.304,394.624,398.944,403.264,405.1,409.051,413.11,416.863,419.14,422.965,426.268,428.104,431.883,434.628,436.464,440.784,442.836,447.156,448.318,454.537,457.516,461.755,463.807,465.643,468.865,472.69,475.948,480.745,484.615,488.485,491.275,493.624,497.719,501.508,503.722,507.196" svgx:width="0.35,0.23,0.48,0.48,0.48,0.23,0.42,0.46,0.42,0.25,0.43,0.37,0.23,0.44,0.31,0.23,0.48,0.23,0.48,0.23,0.69,0.33,0.47,0.23,0.23,0.37,0.43,0.37,0.52,0.43,0.42,0.31,0.27,0.46,0.43,0.25,0.46,0.23" style="fill:rgb(0,0,0);font-family:MinionPro-Regular;font-size:9.0px;stroke:none;">) 300 cycles at 0.1 A/g, respectively.</text>
  </g>
 </g>
</svg>
