<?xml version="1.0" encoding="UTF-8"?>
<svg height="774.244" width="4165.638" xmlns="http://www.w3.org/2000/svg">
 <g id="page" xmlns:svgx="http://www.xml-cml.org/schema/svgx">
  <g begin="text">
   <text y="22.46" x="40.638,48.208,55.778,63.055,66.145,71.865,77.215,81.135,86.765,90.565,95.995,99.085,103.915,109.695,118.435,121.635,126.125,130.955,133.725,139.15,144.87,148.79,151.56,155.19,157.96,162.79,166.59,172.02,177.78,183.56,187.36,191.28,195.77" svgx:width="0.71,0.71,0.71,0.26,0.53,0.49,0.35,0.52,0.34,0.5,0.26,0.44,0.53,0.83,0.28,0.4,0.44,0.23,0.5,0.53,0.35,0.23,0.32,0.23,0.44,0.34,0.5,0.53,0.53,0.34,0.35,0.4,0.28" style="fill:rgb(255,255,255);font-family:Corbel;font-size:10.0px;stroke:none;">www.nature.com/scientificreports/</text>
  </g>
  <g begin="text">
   <text y="764.23" x="549.472" svgx:width="0.52" style="fill:rgb(131,144,151);font-family:Corbel;font-size:10.0px;stroke:none;">4</text>
  </g>
  <g begin="text">
   <text y="764.244" x="40.794,45.642,50.786,53.186,58.026,64.026,68.898,71.298,75.762,78.162" svgx:width="0.55,0.59,0.25,0.55,0.7,0.56,0.25,0.5,0.25,0.59" style="fill:rgb(131,144,151);font-family:Corbel;font-size:8.0px;stroke:none;">Scientific</text>
   <text y="764.244" x="83.162" svgx:width="0.2" style="fill:rgb(0,0,0);font-family:Corbel;font-size:8.0px;stroke:none;"> </text>
   <text y="764.244" x="84.762,90.218,95.194,100.434,106.738,112.194,117.186" svgx:width="0.63,0.57,0.6,0.73,0.63,0.57,0.58" style="fill:rgb(131,144,151);font-family:Corbel-Bold;font-size:8.0px;stroke:none;">RepoRts</text>
   <text y="764.244" x="122.082,123.522,125.338,126.778,130.88" svgx:width="0.2,0.23,0.2,0.51,0.26" style="fill:rgb(0,0,0);font-family:Corbel;font-size:8.0px;stroke:none;"> | 7:</text>
   <text y="764.244" x="132.994,134.45,138.386,142.322,146.258,150.194" svgx:width="0.18,0.49,0.49,0.49,0.49,0.18" style="fill:rgb(0,0,0);font-family:MyriadPro-It;font-size:8.0px;stroke:none;"> 1440 </text>
   <text y="764.244" x="151.65,153.091,154.907,156.349,161.717,167.557,169.525,171.637,175.741,179.845,181.957,186.061,190.165,194.269,198.373,200.573,203.805,207.909,212.013,216.117,220.221,224.325,226.989,231.093,235.197,239.301,241.965,246.069,250.173,254.277,258.381,262.485,265.149" svgx:width="0.2,0.23,0.2,0.67,0.73,0.25,0.26,0.51,0.51,0.26,0.51,0.51,0.51,0.51,0.28,0.4,0.51,0.51,0.51,0.51,0.51,0.33,0.51,0.51,0.51,0.33,0.51,0.51,0.51,0.51,0.51,0.33,0.48" style="fill:rgb(0,0,0);font-family:Corbel;font-size:8.0px;stroke:none;"> | DOI:10.1038/s41598-017-01638-y</text>
  </g>
  <path style="fill:none;stroke:rgb(0,0,0);stroke-width:1.0;" d="M40.640 752.550 L554.640 752.550 "/>
  <g begin="text">
   <text y="245.5" x="155.638,160.12,165.043,166.978,169.282,173.062,175.717,178.507,180.919,184.726,188.551,190.486,194.411,197.714,199.649,203.6,205.535,210.143,213.365,218.036,222.68,227.459,231.329,234.074,236.009,240.49,243.154,245.089,247.672,252.307,256.177,263.548,265.96,270.811,275.023,276.958,281.566,284.788,289.459,293.266,297.091,300.349,303.652,305.704,307.639,314.308,318.754,324.847,328.744,332.839,336.664,339.436,341.488,343.423,346.222,350.992,354.817,356.752,363.367,366.571,371.187,375.057,379.944,384.696,386.631,389.043,393.966,395.901,399.735,403.605,406.944,411.597,416.079,421.002,422.937,425.52,430.154,434.025,441.396,443.331,446.553,450.45,454.545,458.424,462.42,464.67,467.973,469.908,474.516,477.738,482.229,487.026,490.851,494.28,497.069,499.481,503.306,506.609,508.544,512.297,514.574,519.164,522.539,526.364,529.703,531.638,534.329,538.919,540.854,544.157,546.569,551.492" svgx:width="0.51,0.55,0.23,0.25,0.44,0.31,0.31,0.27,0.42,0.43,0.23,0.44,0.37,0.23,0.44,0.23,0.52,0.37,0.51,0.53,0.53,0.42,0.31,0.23,0.51,0.3,0.23,0.3,0.51,0.44,0.82,0.27,0.55,0.47,0.23,0.52,0.37,0.51,0.42,0.43,0.37,0.37,0.23,0.23,0.77,0.51,0.69,0.43,0.46,0.43,0.37,0.23,0.23,0.31,0.53,0.43,0.23,0.74,0.36,0.51,0.44,0.55,0.53,0.23,0.27,0.55,0.23,0.42,0.44,0.37,0.51,0.51,0.55,0.23,0.3,0.51,0.44,0.82,0.23,0.37,0.43,0.46,0.43,0.44,0.25,0.37,0.23,0.52,0.37,0.51,0.52,0.43,0.37,0.31,0.27,0.43,0.37,0.23,0.42,0.25,0.51,0.37,0.43,0.37,0.23,0.31,0.51,0.23,0.37,0.27,0.55,0.36" style="fill:rgb(0,0,0);font-family:MinionPro-Regular;font-size:9.0px;stroke:none;">on lattice as a product of foaming process. However, the D-band in carbon foam reveals properties closer to sin-</text>
   <text y="255.499" x="155.638,159.926,162.212,166.046,167.999,170.315,174.118,178.189,182.023,185.258,189.14,193.901,195.854,200.124,203.472,207.266,211.931,216.714,220.548,225.447,229.281,231.234" svgx:width="0.47,0.25,0.43,0.23,0.25,0.44,0.46,0.43,0.37,0.43,0.53,0.23,0.47,0.37,0.44,0.52,0.53,0.43,0.55,0.43,0.23,0.67" style="fill:rgb(0,0,0);font-family:MinionPro-Regular;font-size:9.0px;stroke:none;">gle layered graphene C</text>
   <text y="255.499" x="237.228" svgx:width="0.78" style="fill:rgb(0,0,0);font-family:EuclidSymbol;font-size:9.0px;stroke:none;">=</text>
   <text y="255.499" x="244.279,250.273,252.226,256.892,261.386,266.286,271.047,273.0,276.348,280.14,282.952,287.735,291.569,294.917,296.87,299.681,304.473,308.356,313.288,315.241,318.053,322.835,326.669,328.622,332.892,336.24,340.033,344.698,349.513,351.83,354.534,358.368,360.321,363.592,366.395,369.836,374.624,378.507,381.174,385.962,389.197" svgx:width="0.67,0.23,0.51,0.51,0.55,0.53,0.23,0.37,0.44,0.31,0.53,0.43,0.37,0.23,0.31,0.53,0.44,0.55,0.23,0.31,0.53,0.43,0.23,0.47,0.37,0.44,0.52,0.53,0.27,0.31,0.43,0.23,0.37,0.31,0.37,0.53,0.42,0.31,0.53,0.37,0.43" style="fill:rgb(0,0,0);font-family:MinionPro-Regular;font-size:9.0px;stroke:none;">C bond rather than the graphite structure</text>
   <text y="252.44" x="393.079,395.893" svgx:width="0.48,0.48" style="fill:rgb(0,0,255);font-family:MinionPro-Regular;font-size:5.85px;stroke:none;">22</text>
   <text y="255.5" x="398.712,400.773,402.726,408.49,412.372,419.729,423.611,428.543,430.496,433.767,438.577,442.459,446.342,449.143,452.378,456.977,460.365,464.181,468.684,473.269,477.409,479.362,482.596,486.43,489.701,494.538,496.719,499.473,502.785,504.738,509.499,513.333,520.681,525.175,530.039,533.31,536.112,539.46,543.253,545.957,549.839,554.591" svgx:width="0.23,0.23,0.62,0.44,0.82,0.44,0.55,0.23,0.37,0.52,0.43,0.42,0.31,0.37,0.51,0.37,0.42,0.51,0.52,0.46,0.23,0.37,0.43,0.37,0.53,0.25,0.31,0.37,0.23,0.53,0.43,0.82,0.51,0.55,0.37,0.31,0.37,0.44,0.31,0.43,0.53,0.23" style="fill:rgb(0,0,0);font-family:MinionPro-Regular;font-size:9.0px;stroke:none;">. Raman spectroscopy results demonstrated </text>
   <text y="265.499" x="155.64,158.862,163.353,168.132,172.407,177.258,179.472,183.603,185.439,188.742,191.154,198.525,200.982,203.286,207.156,210.495,212.331,216.948,220.819,225.705,230.457,232.293,235.551,238.341,241.77,246.549,250.419,253.074,257.853,261.075,264.9,268.203,270.039,274.521,277.185,279.021,284.133,290.118,294.879,296.715,300.585,305.472,310.224,312.06,316.317,319.656,323.436,328.089,332.895,335.199,337.89,341.661" svgx:width="0.37,0.51,0.53,0.47,0.53,0.25,0.46,0.23,0.37,0.27,0.82,0.27,0.25,0.44,0.37,0.23,0.51,0.44,0.55,0.53,0.23,0.37,0.31,0.37,0.53,0.42,0.31,0.53,0.37,0.43,0.37,0.23,0.51,0.3,0.23,0.57,0.67,0.53,0.23,0.44,0.55,0.53,0.23,0.47,0.37,0.44,0.52,0.53,0.27,0.31,0.43,0.23" style="fill:rgb(0,0,0);font-family:MinionPro-Regular;font-size:9.0px;stroke:none;">roughly similar band structures of ECF and graphite.</text>
   <text y="275.498" x="167.637,174.063,177.465,181.308,186.024,190.893,193.26,196.113,198.588,202.458,204.519,208.389,212.052,216.246,219.567,222.429,226.488,228.873,231.213,233.688,238.638,242.526,244.587,247.908,250.761,254.253,259.095,263.028,265.746,270.588,273.873,277.761,281.127,283.188,287.733,291.189,293.664,297.552,302.367,305.121,309.054,313.869,315.93,318.405,323.391,325.452,330.015,334.965,339.474,345.729,350.715,352.776,355.143,358.986,361.704,364.557,367.032,370.902,374.79,376.851,381.666,384.141,387.426,391.359,395.292,398.145,400.62,405.165,410.079,413.445,415.506,419.439,422.724,426.612,428.673,431.958,435.846,440.706,445.251,448.743,451.497,455.43,460.245,462.306,466.797,470.991,473.052,480.459,484.392,489.172,493.366,495.427,499.982,502.844,507.677,511.565,514.913,518.279,520.34,523.661,528.503,532.319,537.188,539.249,543.236,546.602,548.663,554.648" svgx:width="0.71,0.37,0.44,0.52,0.53,0.27,0.31,0.27,0.42,0.23,0.42,0.37,0.46,0.37,0.31,0.44,0.25,0.25,0.27,0.55,0.43,0.23,0.37,0.31,0.37,0.53,0.42,0.31,0.53,0.37,0.43,0.37,0.23,0.51,0.37,0.27,0.43,0.55,0.31,0.43,0.53,0.23,0.27,0.55,0.23,0.5,0.55,0.51,0.69,0.55,0.23,0.25,0.44,0.31,0.31,0.27,0.42,0.43,0.23,0.53,0.27,0.37,0.43,0.42,0.31,0.27,0.51,0.55,0.37,0.23,0.44,0.37,0.43,0.23,0.37,0.43,0.52,0.51,0.37,0.31,0.43,0.53,0.23,0.51,0.46,0.23,0.82,0.44,0.55,0.46,0.23,0.51,0.31,0.53,0.43,0.37,0.37,0.23,0.37,0.53,0.42,0.53,0.23,0.44,0.37,0.23,0.67,0.23" style="fill:rgb(0,0,0);font-family:MinionPro-Regular;font-size:9.0px;stroke:none;">Graphitic crystalline structures oriented in known lattice directions are reported by many others such as C </text>
   <text y="285.497" x="155.64,158.79,163.146,167.502,171.858,175.008,177.096,179.067,185.088,187.059,190.209,194.565,198.921,203.277,206.427,208.515,210.486,216.507,218.478,221.628,225.984,230.34,234.696,237.846,239.817,243.721,248.641,253.429,255.4,261.421,263.392,266.542,270.898,275.254,279.61,282.76,284.731,288.689,291.981,295.389,300.093,303.936,306.409,310.223,312.947,316.85,321.638,323.609,326.335,330.961,332.932,338.854,344.479,351.13,353.101,357.931,361.843,365.874,370.374,373.713,375.684,380.199,382.899,384.87" svgx:width="0.35,0.48,0.48,0.48,0.35,0.23,0.23,0.67,0.23,0.35,0.48,0.48,0.48,0.35,0.23,0.23,0.67,0.23,0.35,0.48,0.48,0.48,0.35,0.23,0.44,0.55,0.53,0.23,0.67,0.23,0.35,0.48,0.48,0.48,0.35,0.23,0.44,0.37,0.37,0.51,0.42,0.27,0.44,0.31,0.43,0.53,0.23,0.31,0.51,0.23,0.65,0.62,0.74,0.23,0.52,0.43,0.44,0.5,0.37,0.23,0.51,0.3,0.23,0.48" style="fill:rgb(0,0,0);font-family:MinionPro-Regular;font-size:9.0px;stroke:none;">(002), C (100), C (110) and C (004) associated to XRD peaks of 2</text>
   <text y="285.497" x="389.226,395.76" svgx:width="0.72,0.25" style="fill:rgb(0,0,0);font-family:TimesNewRomanPSMT;font-size:9.0px;stroke:none;">Ɵ </text>
   <text y="285.497" x="397.893" svgx:width="0.78" style="fill:rgb(0,0,0);font-family:EuclidSymbol;font-size:9.0px;stroke:none;">=</text>
   <text y="285.497" x="404.931,406.092,410.448,414.804,416.892,421.248,424.371,426.459,428.43,432.786,437.142,439.23,443.586,446.709,448.797,450.768,455.124,459.48,462.603,464.574,468.477,473.398,478.186,480.157,484.513,488.869,491.992,494.08,496.051,499.307,503.168,506.46,511.29,515.193,519.097,521.92,524.303,528.432,532.254,534.502" svgx:width="0.23,0.48,0.48,0.23,0.48,0.34,0.23,0.23,0.48,0.48,0.23,0.48,0.34,0.23,0.23,0.48,0.48,0.34,0.23,0.44,0.55,0.53,0.23,0.48,0.48,0.34,0.23,0.23,0.37,0.43,0.37,0.52,0.43,0.42,0.31,0.27,0.46,0.43,0.25,0.46" style="fill:rgb(0,0,0);font-family:MinionPro-Regular;font-size:9.0px;stroke:none;"> 26.5°, 44.3°, 77° and 53°, respectively</text>
   <text y="282.44" x="538.627,541.459" svgx:width="0.48,0.48" style="fill:rgb(0,0,255);font-family:MinionPro-Regular;font-size:5.85px;stroke:none;">21</text>
   <text y="282.44" x="544.29,545.647" svgx:width="0.23,0.23" style="fill:rgb(0,0,0);font-family:MinionPro-Regular;font-size:5.85px;stroke:none;">, </text>
   <text y="282.44" x="546.929,549.76" svgx:width="0.48,0.48" style="fill:rgb(0,0,255);font-family:MinionPro-Regular;font-size:5.85px;stroke:none;">22</text>
   <text y="285.5" x="552.586,554.638,554.638" svgx:width="0.23,0.23,0.23" style="fill:rgb(0,0,0);font-family:MinionPro-Regular;font-size:9.0px;stroke:none;">. </text>
   <text y="295.499" x="155.641,160.794,163.509,168.151,172.197,174.669,178.401,180.714,183.459,186.516,191.543,195.629,198.374,205.967,210.818,214.333,217.339,220.084,222.757,227.767,230.716,234.802,239.911,243.544,247.63,250.375,255.429,259.566,263.82,268.545,271.29,273.963,279.108,284.121,286.794,290.885,294.924,297.873,301.959,305.523,308.268,311.325,316.362,320.399,323.405,326.15,329.208,334.235,338.321,341.066,346.133,348.806,353.338,358.367,362.453,365.969,368.975,371.72,375.788,379.646,384.038,387.554,390.611,394.865,397.445,399.983,402.656,407.801,411.887,414.632,419.372,422.853,427.866,431.952,435.552,438.297,443.226,447.294,451.422,456.462,460.005,463.569,466.314,470.353,473.359,476.104,482.35,485.095,488.47,493.051,497.632,502.213,505.588,508.333,513.244,515.805,519.934,525.079,529.165,531.91,538.396,543.424,547.51,550.989,554.814,554.638" svgx:width="0.54,0.27,0.5,0.43,0.25,0.46,0.23,0.23,0.31,0.53,0.43,0.23,0.82,0.51,0.37,0.31,0.23,0.27,0.55,0.31,0.43,0.55,0.37,0.43,0.23,0.52,0.43,0.44,0.5,0.23,0.27,0.55,0.53,0.27,0.42,0.44,0.31,0.43,0.37,0.23,0.31,0.53,0.44,0.31,0.23,0.31,0.53,0.43,0.23,0.53,0.27,0.47,0.53,0.43,0.37,0.31,0.23,0.42,0.37,0.46,0.37,0.31,0.44,0.25,0.25,0.27,0.55,0.43,0.23,0.51,0.37,0.53,0.43,0.37,0.23,0.51,0.42,0.42,0.53,0.37,0.37,0.23,0.44,0.31,0.23,0.67,0.23,0.35,0.48,0.48,0.48,0.35,0.23,0.52,0.25,0.44,0.55,0.43,0.23,0.69,0.53,0.43,0.37,0.43,0.23,0.23" style="fill:rgb(0,0,0);font-family:MinionPro-Regular;font-size:9.0px;stroke:none;">Likely, the most intense peak indicates that the highest crystalline order occurs at C (002) plane where </text>
   <text y="305.498" x="155.641" svgx:width="0.48" style="fill:rgb(0,0,0);font-family:MinionPro-Regular;font-size:9.0px;stroke:none;">2</text>
   <text y="305.498" x="159.979" svgx:width="0.72" style="fill:rgb(0,0,0);font-family:TimesNewRomanPSMT;font-size:9.0px;stroke:none;">Ɵ</text>
   <text y="305.498" x="166.504" svgx:width="0.23" style="fill:rgb(0,0,0);font-family:MinionPro-Regular;font-size:9.0px;stroke:none;"> </text>
   <text y="305.498" x="168.466" svgx:width="0.78" style="fill:rgb(0,0,0);font-family:EuclidSymbol;font-size:9.0px;stroke:none;">=</text>
   <text y="305.498" x="175.486,176.629,180.967,185.305,187.375,191.713,194.818,196.888,198.85,201.795,206.736,208.698,211.517,216.341,218.746,222.067,224.029,227.307,229.982,234.779,239.487,242.981,245.051,247.013,249.832,254.622,258.465,260.427,265.064,269.861,273.273,275.597,278.389,282.538,284.5,288.39,293.306,297.321,299.555,303.704,307.025,309.43,312.751,314.713,319.215,321.897,323.859,328.989,334.992,339.771,341.733,345.623,350.529,355.299,357.261,359.585,362.348,365.669,367.631,371.456,375.075,379.224,382.502,385.321,389.337,391.678,393.973,396.403,401.344,403.668,406.46,410.609,412.571,415.813,419.656,423.051,426.894,434.193,438.723,441.046,444.937,449.844,453.669,457.512,459.474,462.184,466.792,468.754,471.573,476.363,480.206,482.168,486.445,489.802,493.602,498.274,503.098,505.422,508.133,511.976,513.938,520.051,523.894,527.136,530.979,532.941,535.371,540.106,544.221,548.064,551.385" svgx:width="0.23,0.48,0.48,0.23,0.48,0.34,0.23,0.23,0.34,0.55,0.23,0.31,0.53,0.27,0.37,0.23,0.37,0.31,0.53,0.53,0.46,0.23,0.23,0.31,0.53,0.43,0.23,0.52,0.53,0.37,0.27,0.31,0.46,0.23,0.44,0.55,0.44,0.25,0.46,0.37,0.27,0.37,0.23,0.51,0.3,0.23,0.57,0.67,0.53,0.23,0.44,0.55,0.53,0.23,0.27,0.31,0.37,0.23,0.42,0.37,0.46,0.37,0.31,0.44,0.25,0.25,0.27,0.55,0.27,0.31,0.46,0.23,0.37,0.43,0.37,0.43,0.82,0.51,0.25,0.44,0.55,0.42,0.43,0.23,0.31,0.51,0.23,0.31,0.53,0.43,0.23,0.47,0.37,0.44,0.52,0.53,0.27,0.31,0.43,0.23,0.69,0.43,0.37,0.43,0.23,0.27,0.55,0.46,0.43,0.37,0.36" style="fill:rgb(0,0,0);font-family:MinionPro-Regular;font-size:9.0px;stroke:none;"> 26.5°. In this study, the purity analysis of ECF and its crystallinity resemblance to the graphite were inves-</text>
   <text y="315.497" x="155.641,158.506,160.99,165.274,169.13,171.896,175.842" svgx:width="0.31,0.27,0.47,0.44,0.31,0.43,0.53" style="fill:rgb(0,0,0);font-family:MinionPro-Regular;font-size:9.0px;stroke:none;">tigated</text>
   <text y="312.44" x="180.674,183.529" svgx:width="0.48,0.48" style="fill:rgb(0,0,255);font-family:MinionPro-Regular;font-size:5.85px;stroke:none;">23</text>
   <text y="315.5" x="186.389,188.513,190.619,196.77,200.145,202.251,205.594,210.439,214.961,221.229,226.224,228.33,230.814,235.809,237.915,242.747,245.231,249.545,251.669" svgx:width="0.23,0.23,0.69,0.37,0.23,0.37,0.53,0.51,0.69,0.55,0.23,0.27,0.55,0.23,0.53,0.27,0.47,0.23,0.23" style="fill:rgb(0,0,0);font-family:MinionPro-Regular;font-size:9.0px;stroke:none;">. As shown in Fig. </text>
   <text y="315.5" x="253.79,258.182,261.368,266.732" svgx:width="0.48,0.35,0.59,0.35" style="fill:rgb(0,0,255);font-family:MinionPro-Regular;font-size:9.0px;stroke:none;">3(B)</text>
   <text y="315.5" x="269.918,272.042,274.148,277.022,281.868,285.765,287.871,293.829,299.49,306.177,308.283,312.111,316.966,320.912,324.323,328.346,332.291,335.058,338.955,342.422,344.884,348.218,351.083,353.567,357.446,359.552,364.425,368.379,372.451,376.987,380.362,382.468,387.026,389.762,391.868,397.052,403.109,407.942,410.048,416.217,420.114,423.412,427.309,429.415,433.294,437.191,442.018,444.884,448.182,452.127,456.951,459.057,462.913,465.73,467.836" svgx:width="0.23,0.23,0.31,0.53,0.43,0.23,0.65,0.62,0.74,0.23,0.42,0.53,0.44,0.37,0.44,0.42,0.31,0.43,0.37,0.27,0.37,0.31,0.27,0.42,0.23,0.52,0.43,0.44,0.5,0.37,0.23,0.51,0.3,0.23,0.57,0.67,0.53,0.23,0.69,0.43,0.37,0.43,0.23,0.42,0.43,0.55,0.31,0.37,0.43,0.53,0.23,0.44,0.31,0.23,0.48" style="fill:rgb(0,0,0);font-family:MinionPro-Regular;font-size:9.0px;stroke:none;">, the XRD characteristic peaks of ECF were centred at 2</text>
   <text y="315.5" x="472.228" svgx:width="0.72" style="fill:rgb(0,0,0);font-family:TimesNewRomanPSMT;font-size:9.0px;stroke:none;">Ɵ</text>
   <text y="315.5" x="478.88" svgx:width="0.23" style="fill:rgb(0,0,0);font-family:MinionPro-Regular;font-size:9.0px;stroke:none;"> </text>
   <text y="315.5" x="480.077" svgx:width="0.78" style="fill:rgb(0,0,0);font-family:EuclidSymbol;font-size:9.0px;stroke:none;">=</text>
   <text y="315.5" x="487.16,488.357,492.749,497.141,500.3,502.406,506.351,511.314,516.138,518.244,522.636,527.028,530.187,532.293,536.172,540.729,544.198,547.496,551.393" svgx:width="0.23,0.48,0.48,0.34,0.23,0.44,0.55,0.53,0.23,0.48,0.48,0.34,0.23,0.42,0.51,0.37,0.37,0.43,0.36" style="fill:rgb(0,0,0);font-family:MinionPro-Regular;font-size:9.0px;stroke:none;"> 25° and 43° corre-</text>
   <text y="325.499" x="155.627,158.933,163.778,168.308,173.242,178.039,180.496,185.396,189.653,191.66,194.399,199.034,201.041,207.071,209.078,212.237,216.602,220.967,225.332,228.491,230.498,234.416,239.351,244.148,246.155,252.185,254.192,257.351,261.716,266.081,270.446,273.605,275.612,279.464,283.112,287.288,290.593,293.44,297.484,299.854,302.176,304.633,309.569,313.439,315.446,320.146,322.499,326.417,331.351,335.221,337.228,341.758,345.199,347.656,351.526,356.326,359.173,363.001,365.839,368.296,372.825,377.725,381.073,383.17,385.177,388.447,392.317,395.622,400.467,404.385,408.303,411.141,413.538,417.681,421.518,423.78" svgx:width="0.37,0.52,0.51,0.55,0.53,0.27,0.55,0.47,0.23,0.31,0.51,0.23,0.67,0.23,0.35,0.48,0.48,0.48,0.35,0.23,0.44,0.55,0.53,0.23,0.67,0.23,0.35,0.48,0.48,0.48,0.35,0.23,0.42,0.37,0.46,0.37,0.31,0.44,0.25,0.25,0.27,0.55,0.43,0.23,0.52,0.25,0.44,0.55,0.43,0.23,0.51,0.37,0.27,0.43,0.55,0.31,0.44,0.31,0.27,0.51,0.55,0.37,0.23,0.23,0.37,0.43,0.37,0.52,0.43,0.42,0.31,0.27,0.46,0.43,0.25,0.46" style="fill:rgb(0,0,0);font-family:MinionPro-Regular;font-size:9.0px;stroke:none;">sponding to C (002) and C (100) crystalline plane orientations, respectively</text>
   <text y="322.44" x="428.062,430.899" svgx:width="0.48,0.48" style="fill:rgb(0,0,255);font-family:MinionPro-Regular;font-size:5.85px;stroke:none;">21</text>
   <text y="322.44" x="433.737,435.1" svgx:width="0.23,0.23" style="fill:rgb(0,0,0);font-family:MinionPro-Regular;font-size:5.85px;stroke:none;">, </text>
   <text y="322.44" x="436.41,439.247" svgx:width="0.48,0.48" style="fill:rgb(0,0,255);font-family:MinionPro-Regular;font-size:5.85px;stroke:none;">24</text>
   <text y="325.5" x="442.089,444.185,446.192,455.844,459.714,461.721,464.178,468.979,471.717,475.587,479.065,483.766,486.117,490.036,494.98,498.898,502.282,504.289,507.595,512.404,516.4,520.252,522.709,527.608,531.865,533.872,538.402,541.111,543.118,545.965,550.782,554.607" svgx:width="0.23,0.23,1.07,0.43,0.23,0.27,0.55,0.31,0.43,0.37,0.52,0.25,0.44,0.55,0.44,0.37,0.23,0.37,0.52,0.44,0.42,0.27,0.55,0.47,0.23,0.51,0.3,0.23,0.31,0.53,0.43,0.23" style="fill:rgb(0,0,0);font-family:MinionPro-Regular;font-size:9.0px;stroke:none;">. The interplanar spacing of the </text>
   <text y="335.499" x="155.637,157.931,161.7,164.345,167.125,169.528,173.326,177.142,180.436,182.164,188.247,192.063,195.275,199.091,200.819,204.643,208.628,210.896,214.757,219.57,221.864,225.634,228.315,232.174,236.917,238.645,243.387,246.681,249.084,253.925,258.128,259.856,265.066,268.396,272.292,276.547,280.578,281.72,285.014,286.742,289.035,292.814,298.97,300.698,304.559,309.436,314.179,315.907,318.48,322.961,327.731,332.608,337.351,339.079,341.76,346.341,348.069,352.712,356.528,358.256,362.567,364.61,368.921,373.232,374.301,380.51,383.589,385.316,387.889,392.361,395.691,397.419" svgx:width="0.25,0.44,0.31,0.31,0.27,0.42,0.43,0.37,0.23,0.69,0.43,0.37,0.43,0.23,0.42,0.44,0.25,0.42,0.53,0.25,0.44,0.31,0.43,0.53,0.23,0.53,0.37,0.27,0.55,0.47,0.23,0.59,0.37,0.44,0.47,0.47,0.22,0.37,0.23,0.25,0.44,0.69,0.23,0.44,0.55,0.53,0.23,0.3,0.51,0.53,0.55,0.53,0.23,0.31,0.51,0.23,0.51,0.43,0.23,0.48,0.23,0.48,0.48,0.23,0.69,0.34,0.23,0.3,0.51,0.37,0.23,0.48" style="fill:rgb(0,0,0);font-family:MinionPro-Regular;font-size:9.0px;stroke:none;">lattices were calculated using Bragg’s law and found to be 3.55 A° for 2</text>
   <text y="335.499" x="401.73" svgx:width="0.72" style="fill:rgb(0,0,0);font-family:TimesNewRomanPSMT;font-size:9.0px;stroke:none;">Ɵ</text>
   <text y="335.499" x="408.212" svgx:width="0.23" style="fill:rgb(0,0,0);font-family:MinionPro-Regular;font-size:9.0px;stroke:none;"> </text>
   <text y="335.499" x="409.328" svgx:width="0.78" style="fill:rgb(0,0,0);font-family:EuclidSymbol;font-size:9.0px;stroke:none;">=</text>
   <text y="335.499" x="416.322,417.438,421.749,426.06,429.138,430.866,434.726,439.603,444.346,446.074,450.385,452.428,456.739,457.839,464.048,467.126,468.854,471.427,475.899,479.229,480.957" svgx:width="0.23,0.48,0.48,0.34,0.23,0.44,0.55,0.53,0.23,0.48,0.23,0.48,0.23,0.69,0.34,0.23,0.3,0.51,0.37,0.23,0.48" style="fill:rgb(0,0,0);font-family:MinionPro-Regular;font-size:9.0px;stroke:none;"> 25° and 2.1 A° for 2</text>
   <text y="335.499" x="485.268" svgx:width="0.72" style="fill:rgb(0,0,0);font-family:TimesNewRomanPSMT;font-size:9.0px;stroke:none;">Ɵ</text>
   <text y="335.499" x="491.75" svgx:width="0.23" style="fill:rgb(0,0,0);font-family:MinionPro-Regular;font-size:9.0px;stroke:none;"> </text>
   <text y="335.499" x="492.866" svgx:width="0.78" style="fill:rgb(0,0,0);font-family:EuclidSymbol;font-size:9.0px;stroke:none;">=</text>
   <text y="335.499" x="499.859,500.975,505.286,509.598,512.675,514.719,516.445,522.555,527.027,534.216,538.967,542.827,546.039,549.899,554.651" svgx:width="0.23,0.48,0.48,0.34,0.23,0.23,0.67,0.51,0.82,0.52,0.44,0.37,0.43,0.53,0.23" style="fill:rgb(0,0,0);font-family:MinionPro-Regular;font-size:9.0px;stroke:none;"> 43°. Compared </text>
   <text y="345.498" x="155.646,158.363,162.98,164.946,168.78,173.288,178.03,182.151,186.003,190.781,193.598,196.037,200.544,205.466,209.488,211.792,213.758,219.77,221.737,224.878,229.225,233.572,237.919,241.06,243.031,247.81,251.041,254.325,259.111,263.089,266.923,269.362,274.239,278.478,280.444,284.952,287.643,289.61,293.892,297.258,301.064,305.743,310.576,312.906,315.623,319.475,321.442,325.248,328.02,329.986,334.333,336.412,340.759,345.106,346.229,352.475,355.59,357.669,359.635,362.46,367.256,371.108,374.355,378.207,380.174,386.366,390.316,393.646,395.617,399.595,401.566,405.913,407.992,412.339,416.686,417.815,424.061,427.176,429.142,431.958,435.324,439.22,444.096,447.426,449.757,452.572,455.011,459.519,464.469,466.435,468.874,473.824,475.791,478.23,483.008,485.725,489.577,493.031,497.71,500.04,503.936,508.858,512.754,516.12,518.086,521.371,526.157,530.135,533.969,536.408,541.285,545.524,547.49,551.999,554.663" svgx:width="0.31,0.51,0.23,0.42,0.51,0.55,0.46,0.43,0.55,0.31,0.27,0.51,0.55,0.44,0.25,0.23,0.67,0.23,0.35,0.48,0.48,0.48,0.35,0.23,0.53,0.36,0.37,0.52,0.44,0.42,0.27,0.55,0.47,0.23,0.51,0.3,0.23,0.47,0.37,0.44,0.52,0.53,0.27,0.31,0.43,0.23,0.44,0.31,0.23,0.48,0.23,0.48,0.48,0.23,0.69,0.34,0.23,0.23,0.31,0.53,0.43,0.37,0.43,0.23,0.69,0.44,0.37,0.23,0.44,0.23,0.48,0.23,0.48,0.48,0.23,0.69,0.34,0.23,0.31,0.37,0.44,0.55,0.37,0.27,0.31,0.27,0.51,0.55,0.23,0.27,0.55,0.23,0.27,0.55,0.31,0.43,0.37,0.52,0.25,0.44,0.55,0.44,0.37,0.23,0.37,0.52,0.44,0.42,0.27,0.55,0.47,0.23,0.51,0.3,0.23" style="fill:rgb(0,0,0);font-family:MinionPro-Regular;font-size:9.0px;stroke:none;">to conventional C (002) d-spacing of graphite at 3.36 A°, there was a 0.19 A° transition in interplanar spacing of </text>
   <text y="355.497" x="155.646,158.445,163.251,165.636,168.939,170.766,173.069,176.849,179.504,182.294,184.706,188.513,192.338,194.165,200.393,205.199,207.656,209.933,213.758,215.585,219.392,223.874,231.073,235.834,239.704,242.926,246.796,251.548,253.375,256.066,260.656,262.483,268.468,270.295,273.409,277.729,282.049,286.369,289.483,291.31,296.062,299.266,302.524,307.285,311.236,315.043,317.455,322.305,326.517,328.344,332.826,335.49,337.317,341.574,344.913,348.693,353.346,358.152,360.456,363.146,366.971,368.798,372.578,375.323,377.15,381.47,383.522,387.842,392.162,393.264,399.483,402.57,404.622,406.449,409.247,414.017,417.842,421.064,424.889,426.716,432.882,436.805,440.108,441.935,445.886,447.713,452.033,454.085,458.405,462.725,463.842,470.061,473.148,474.975,477.765,481.104,484.974,489.825,493.128,495.432,498.222,500.634,505.116,510.039,512.091,513.918,523.521,527.346,529.173,533.97,537.849,541.845,546.309,548.136,551.916,554.661" svgx:width="0.31,0.53,0.27,0.37,0.23,0.25,0.44,0.31,0.31,0.27,0.42,0.43,0.23,0.69,0.53,0.27,0.25,0.43,0.23,0.42,0.51,0.82,0.52,0.44,0.37,0.43,0.53,0.23,0.31,0.51,0.23,0.67,0.23,0.35,0.48,0.48,0.48,0.35,0.23,0.53,0.36,0.37,0.52,0.44,0.42,0.27,0.55,0.47,0.23,0.51,0.3,0.23,0.47,0.37,0.44,0.52,0.53,0.27,0.31,0.43,0.23,0.44,0.31,0.23,0.48,0.23,0.48,0.48,0.23,0.69,0.34,0.23,0.23,0.31,0.53,0.43,0.37,0.43,0.23,0.69,0.44,0.37,0.23,0.44,0.23,0.48,0.23,0.48,0.48,0.23,0.69,0.34,0.23,0.31,0.37,0.44,0.55,0.37,0.27,0.31,0.27,0.51,0.55,0.23,0.23,1.07,0.43,0.23,0.52,0.43,0.44,0.5,0.23,0.44,0.31,0.23" style="fill:rgb(0,0,0);font-family:MinionPro-Regular;font-size:9.0px;stroke:none;">this lattice while compared to C (100) d-spacing of graphite at 2.04 A°, there was a 0.06 A° transition. The peak at </text>
   <text y="365.496" x="155.646" svgx:width="0.48" style="fill:rgb(0,0,0);font-family:MinionPro-Regular;font-size:9.0px;stroke:none;">2</text>
   <text y="365.496" x="159.966" svgx:width="0.72" style="fill:rgb(0,0,0);font-family:TimesNewRomanPSMT;font-size:9.0px;stroke:none;">Ɵ</text>
   <text y="365.496" x="166.464" svgx:width="0.23" style="fill:rgb(0,0,0);font-family:MinionPro-Regular;font-size:9.0px;stroke:none;"> </text>
   <text y="365.496" x="167.589" svgx:width="0.78" style="fill:rgb(0,0,0);font-family:EuclidSymbol;font-size:9.0px;stroke:none;">=</text>
   <text y="365.496" x="174.591,175.716,180.036,184.356,187.443,189.369,191.754,195.057,196.983,200.25,205.029,208.899,212.328,217.125,220.95,224.289,226.215,229.014,233.793,237.663,242.586,244.512,247.311,252.09,255.87,258.615,260.541,264.321,267.066,268.992" svgx:width="0.23,0.48,0.48,0.34,0.23,0.27,0.37,0.23,0.37,0.53,0.44,0.37,0.52,0.43,0.37,0.23,0.31,0.53,0.44,0.55,0.23,0.31,0.53,0.44,0.31,0.23,0.44,0.31,0.23,0.48" style="fill:rgb(0,0,0);font-family:MinionPro-Regular;font-size:9.0px;stroke:none;"> 25° is sharper than that at 2</text>
   <text y="365.496" x="273.312" svgx:width="0.72" style="fill:rgb(0,0,0);font-family:TimesNewRomanPSMT;font-size:9.0px;stroke:none;">Ɵ</text>
   <text y="365.496" x="279.81" svgx:width="0.23" style="fill:rgb(0,0,0);font-family:MinionPro-Regular;font-size:9.0px;stroke:none;"> </text>
   <text y="365.496" x="280.953" svgx:width="0.78" style="fill:rgb(0,0,0);font-family:EuclidSymbol;font-size:9.0px;stroke:none;">=</text>
   <text y="365.496" x="287.955,289.08,293.4,297.72,300.807,302.733,305.316,309.843,312.165,314.442,318.888,325.08,327.492,332.343,336.555,338.481,341.28,346.05,349.875,351.801,355.158,359.028,366.363,370.188,372.114,375.984,378.567,383.049,386.271,390.096,397.431,401.256,406.008,408.798,411.21,415.692,420.579,424.449,429.201,431.127,435.735,438.957,443.448,448.245,452.07,455.499,458.271,462.402,464.328,468.81,471.474,473.4,477.657,480.996,484.776,489.429,494.235,496.539,499.23,503.001,505.053,506.979,516.618,519.003,522.306,524.232,526.617,529.92,531.846,535.626,538.281,541.071,544.463,546.839,551.411" svgx:width="0.23,0.48,0.48,0.34,0.23,0.3,0.51,0.25,0.25,0.51,0.69,0.27,0.55,0.47,0.23,0.31,0.53,0.43,0.23,0.37,0.44,0.82,0.43,0.23,0.44,0.3,0.51,0.37,0.43,0.82,0.43,0.55,0.31,0.27,0.51,0.55,0.43,0.53,0.23,0.52,0.37,0.51,0.52,0.43,0.37,0.31,0.46,0.23,0.51,0.3,0.23,0.47,0.37,0.44,0.52,0.53,0.27,0.31,0.43,0.23,0.23,1.07,0.27,0.37,0.23,0.27,0.37,0.23,0.44,0.31,0.31,0.37,0.27,0.51,0.36" style="fill:rgb(0,0,0);font-family:MinionPro-Regular;font-size:9.0px;stroke:none;"> 43° following the same aforementioned property of graphite. This is attrib-</text>
   <text y="375.495" x="155.646,160.317,163.008,166.878,171.63,173.425,176.117,180.707,182.502,185.301,190.071,193.896,195.696,200.304,203.526,207.351,210.726,214.551,219.438,223.245,227.07,228.866,233.348,236.012,237.812,240.611,245.381,249.206,251.001,254.304,256.716,261.567,265.842,268.119,271.944,273.744,276.048,279.837,283.896,287.721,290.943,294.813,299.565,301.365,305.622,308.961,312.741,317.394,322.2,324.504,327.293,329.705,333.512,335.312,338.57,341.36,344.789,349.568,353.437,356.092,360.871,364.093,367.918,369.718,372.13,377.053,378.853,382.686,386.556,389.895,394.548,399.03,403.953,405.753,408.336,412.971,416.841,424.212,426.012,429.936,433.239,435.034,439.786,442.171,445.546,449.416,454.168,457.426,460.801,464.671,469.423,471.219,473.631,478.554,480.354,486.105,489.975,497.319,501.189,506.112,507.912,511.17,515.967,519.836,523.706,526.496,529.718,534.308,537.683,541.49,545.981,550.553,554.684" svgx:width="0.53,0.31,0.43,0.53,0.23,0.31,0.51,0.23,0.31,0.53,0.43,0.23,0.52,0.37,0.43,0.37,0.43,0.55,0.42,0.43,0.23,0.51,0.3,0.23,0.31,0.53,0.43,0.23,0.37,0.27,0.55,0.47,0.25,0.43,0.23,0.25,0.44,0.46,0.43,0.37,0.43,0.53,0.23,0.47,0.37,0.44,0.52,0.53,0.27,0.31,0.27,0.42,0.23,0.37,0.31,0.37,0.53,0.42,0.31,0.53,0.37,0.43,0.23,0.27,0.55,0.23,0.42,0.44,0.37,0.51,0.51,0.55,0.23,0.3,0.51,0.44,0.82,0.23,0.44,0.37,0.23,0.53,0.27,0.37,0.42,0.53,0.37,0.37,0.43,0.53,0.23,0.27,0.55,0.23,0.62,0.44,0.82,0.44,0.55,0.23,0.37,0.52,0.43,0.42,0.31,0.37,0.51,0.37,0.42,0.51,0.52,0.46,0.23" style="fill:rgb(0,0,0);font-family:MinionPro-Regular;font-size:9.0px;stroke:none;">uted to the presence of the single layered graphitic structure in carbon foam as discussed in Raman spectroscopy </text>
   <text y="385.494" x="155.646,159.588,164.556,168.624,170.91,175.113,178.488,180.945,184.32,186.444,188.532,198.207,202.104,204.192,208.728,212.022,216.729,220.752,225.576,229.473,232.884,234.972,239.841,243.792,247.86,252.396,254.484,260.748,263.232,267.948,270.819,275.697,277.785,280.269,285.264,287.352,292.536,298.593,303.426,305.514,307.971,311.346,313.434,317.376,322.416,326.358,330.3,333.063,337.005,341.829,343.917,348.417,352.62,354.708,357.579,362.421,366.318,368.406,371.781,374.265,379.188,383.535,385.884,389.781,391.869,394.245,398.107,402.238,406.135,409.429,413.371,418.195,420.283,424.612,428.023,431.875,436.6,441.478,443.854,446.716,449.2,453.079,455.167,458.497,461.359,464.86,469.711,473.653,476.38,481.231,484.525,488.422,490.51,494.407,498.727,501.184,504.514,507.376,509.86,514.783,519.067,521.155,528.562,533.224,536.554,539.425,541.711,545.914,548.002,551.854,554.599" svgx:width="0.44,0.55,0.44,0.25,0.46,0.37,0.27,0.37,0.23,0.23,1.07,0.43,0.23,0.51,0.37,0.51,0.44,0.53,0.43,0.37,0.23,0.52,0.43,0.44,0.5,0.23,0.69,0.27,0.53,0.31,0.53,0.23,0.27,0.55,0.23,0.57,0.67,0.53,0.23,0.27,0.37,0.23,0.44,0.56,0.43,0.42,0.31,0.43,0.53,0.23,0.51,0.46,0.23,0.31,0.53,0.43,0.23,0.37,0.27,0.55,0.47,0.25,0.43,0.23,0.25,0.44,0.46,0.43,0.37,0.43,0.53,0.23,0.47,0.37,0.44,0.52,0.53,0.27,0.31,0.27,0.42,0.23,0.37,0.31,0.37,0.53,0.42,0.31,0.53,0.37,0.43,0.23,0.43,0.47,0.27,0.37,0.31,0.27,0.55,0.47,0.23,0.82,0.51,0.37,0.31,0.25,0.46,0.23,0.44,0.31,0.23" style="fill:rgb(0,0,0);font-family:MinionPro-Regular;font-size:9.0px;stroke:none;">analysis. The broader peak width in ECF is affected by the single layered graphitic structure existing mostly at </text>
   <text y="395.493" x="155.646,158.49,163.305,167.175,169.173,173.088,177.885,182.07,185.939,189.288,191.385,193.383,199.655,204.506,206.963,210.761,215.612,217.61,219.932,224.423,230.561,234.431,237.76,241.108,243.106,245.95,250.765,254.635,256.633,260.485,264.129,268.305,271.608,274.452,278.493,280.86,283.182,285.639,290.607,292.956,295.773,299.949,301.947,305.862,310.794,315.591,317.589,320.856,324.689,327.038,330.863,333.698,336.092,340.232,344.102,346.1,349.933,352.255,356.17,360.085,362.92,366.187,370.713,375.681,378.138,381.99,383.988,388.641,391.908,396.444,401.286,405.156,408.63,411.465,413.922,417.792,421.14,423.138,426.962,429.752,431.75,435.053,439.877,443.675,448.526,450.524,453.791,457.661,461.963,464.42,468.947,473.843,477.191,479.288,481.286,487.999,492.491,498.629,502.57,506.71,510.58,513.397,515.494,517.492,520.336,525.151,529.021,531.019,535.87,538.327,542.647,547.462,551.332,554.671" svgx:width="0.31,0.53,0.43,0.23,0.43,0.53,0.47,0.43,0.37,0.23,0.23,0.69,0.53,0.27,0.42,0.53,0.23,0.25,0.51,0.69,0.43,0.37,0.37,0.23,0.31,0.53,0.43,0.23,0.42,0.37,0.46,0.37,0.31,0.44,0.25,0.25,0.27,0.55,0.27,0.31,0.46,0.23,0.44,0.55,0.53,0.23,0.37,0.43,0.25,0.44,0.31,0.27,0.46,0.43,0.23,0.43,0.25,0.43,0.42,0.31,0.37,0.51,0.55,0.27,0.42,0.23,0.52,0.37,0.51,0.52,0.43,0.37,0.31,0.27,0.43,0.37,0.23,0.44,0.31,0.23,0.37,0.53,0.42,0.53,0.23,0.37,0.43,0.47,0.27,0.51,0.55,0.37,0.23,0.23,0.77,0.51,0.69,0.43,0.46,0.43,0.37,0.23,0.23,0.31,0.53,0.43,0.23,0.53,0.27,0.47,0.53,0.43,0.37,0.23" style="fill:rgb(0,0,0);font-family:MinionPro-Regular;font-size:9.0px;stroke:none;">the edges, which lowers the crystallinity and relative electronic properties at such regions. However, the higher </text>
   <text y="405.492" x="155.646,159.382,164.136,167.943,175.296,177.69,181.507,185.487,187.746,189.465,192.671,196.533,200.466,204.319,207.092,209.425,213.603,215.891,218.646,222.759,224.478,228.943,231.589,233.308,236.091,240.845,244.652,246.371,250.224,254.958,259.082,262.889,266.174,267.893,270.287,275.192,276.911,282.005,287.972,292.715,294.434,298.251,302.104,307.009,308.728,312.535,317.37,321.564,325.454,329.578,333.385,335.104,342.422,346.887,350.093,353.9,355.619,358.013,362.749,365.423,369.23,372.607,375.253,379.186,382.975,385.398,389.377,391.636,393.355,396.56,400.423,404.356,408.21,410.984,413.378,417.844,422.678,425.963,427.682,433.858,436.146,438.928,443.716,445.435,448.218,452.971,456.778,458.497,462.269,464.528,468.382,472.235,475.009,478.215,482.725,484.922,489.035,491.71,495.517,497.236,503.448,508.236,510.63,514.367,519.155,520.874,523.52,527.453,531.242,533.683,535.942,538.229,541.012,544.776,547.45,551.257,554.56" svgx:width="0.42,0.53,0.43,0.82,0.27,0.42,0.44,0.25,0.23,0.37,0.43,0.44,0.42,0.31,0.27,0.46,0.27,0.31,0.46,0.23,0.51,0.3,0.23,0.31,0.53,0.43,0.23,0.43,0.53,0.47,0.43,0.37,0.23,0.27,0.55,0.23,0.57,0.67,0.53,0.23,0.42,0.44,0.55,0.23,0.43,0.55,0.47,0.44,0.47,0.43,0.23,0.82,0.51,0.37,0.43,0.23,0.27,0.55,0.31,0.43,0.37,0.3,0.44,0.42,0.27,0.44,0.25,0.23,0.37,0.43,0.44,0.42,0.31,0.27,0.51,0.55,0.37,0.23,0.69,0.27,0.31,0.53,0.23,0.31,0.53,0.43,0.23,0.43,0.25,0.43,0.42,0.31,0.37,0.51,0.25,0.46,0.31,0.43,0.23,0.69,0.53,0.27,0.42,0.53,0.23,0.3,0.44,0.42,0.27,0.25,0.27,0.31,0.44,0.31,0.43,0.37,0.23" style="fill:rgb(0,0,0);font-family:MinionPro-Regular;font-size:9.0px;stroke:none;">chemical reactivity of the edges in ECF can engage more interfacial reactions with the electrolyte which facilitates </text>
   <text y="415.491" x="155.646,158.445,163.215,167.04,168.876,171.288,175.77,180.693,183.105,186.912,188.748,193.356,196.578,201.069,205.866,209.691,213.12,215.91,218.322,222.147,225.45,227.286,231.768,234.432,236.268,240.885,244.665,247.32,250.01,253.835,257.435,261.566,263.402,265.814,270.566,273.257,277.082,280.475,285.371,289.367,291.644,293.48,296.702,300.581,304.532,308.402,311.192,313.604,318.086,322.937,326.24" svgx:width="0.31,0.53,0.43,0.23,0.27,0.51,0.55,0.27,0.42,0.23,0.52,0.37,0.51,0.52,0.43,0.37,0.31,0.27,0.43,0.37,0.23,0.51,0.3,0.23,0.51,0.44,0.31,0.31,0.43,0.37,0.46,0.23,0.27,0.55,0.31,0.43,0.37,0.55,0.44,0.25,0.23,0.37,0.43,0.44,0.42,0.31,0.27,0.51,0.55,0.37,0.23" style="fill:rgb(0,0,0);font-family:MinionPro-Regular;font-size:9.0px;stroke:none;">the ionic properties of battery internal reactions.</text>
   <text y="436.662" x="155.638,161.328,163.858,168.998,173.418,177.218,180.728,186.278,190.698,196.308,201.448,209.978,212.478,216.898,222.058,224.588,226.558,232.068,235.578,241.128,246.638,251.778,255.288,259.088,261.588,266.728,270.978,273.888" svgx:width="0.57,0.25,0.51,0.44,0.38,0.35,0.55,0.44,0.56,0.51,0.85,0.25,0.44,0.51,0.25,0.21,0.55,0.35,0.55,0.55,0.51,0.35,0.38,0.25,0.51,0.42,0.29,0.21" style="fill:rgb(0,0,0);font-family:Corbel-Bold;font-size:10.0px;stroke:none;">Electrochemical properties. </text>
   <text y="436.662" x="283.901,293.514,297.348,299.301,303.101,305.387,309.267,313.148,315.948,319.181,323.861,327.625,332.406,336.24,343.62,346.041,349.886,353.892,356.178,358.131,362.938,366.772,370.176,372.768,377.261,380.664,388.019,391.9,396.797,400.613,404.448,406.401,410.893,413.566,415.519,417.94,422.703,425.404,429.238,432.47,436.286,440.779,445.711,450.609,454.489,458.369,461.071,464.951,469.712,471.665,476.472,480.965,484.198,488.699,493.461,496.773,498.726,503.847,509.841,514.611,516.564,521.192,525.126,528.512,532.392,537.153,539.106,542.922,546.72,549.053,551.313,554.616" svgx:width="1.07,0.43,0.23,0.43,0.25,0.43,0.42,0.31,0.37,0.51,0.42,0.53,0.43,0.82,0.27,0.42,0.44,0.25,0.23,0.52,0.43,0.37,0.3,0.51,0.37,0.82,0.44,0.55,0.42,0.43,0.23,0.51,0.3,0.23,0.27,0.55,0.31,0.43,0.37,0.42,0.51,0.55,0.55,0.43,0.42,0.31,0.43,0.53,0.23,0.52,0.51,0.37,0.51,0.53,0.37,0.23,0.57,0.67,0.53,0.23,0.51,0.44,0.37,0.43,0.53,0.23,0.42,0.43,0.25,0.25,0.37,0.23" style="fill:rgb(0,0,0);font-family:MinionPro-Regular;font-size:9.0px;stroke:none;">The electrochemical performance of interconnected porous ECF based cells </text>
   <text y="446.661" x="155.642,161.807,165.731,169.034,170.888,173.3,178.016,182.111,185.936,189.194,191.983,194.395,198.607,202.387,205.078,208.948,213.7,215.554,219.982,224.113,225.967,230.179,234.175,236.389,240.556,244.426,249.313,253.903,257.161,259.96,263.74,266.53,268.942,272.749,274.603,278.356,283.135,287.005,290.272,294.412,298.237,301.441,306.193,308.578,311.952,315.705,320.484,324.355,327.621,331.761,335.586,337.44,340.131,343.956,347.214,349.959,353.262,355.314,357.168,361.929,364.341,368.553,373.332,376.554,380.379" svgx:width="0.69,0.44,0.37,0.23,0.27,0.55,0.46,0.43,0.37,0.31,0.27,0.47,0.44,0.31,0.43,0.53,0.23,0.51,0.46,0.23,0.47,0.44,0.25,0.46,0.44,0.55,0.51,0.37,0.31,0.44,0.31,0.27,0.42,0.23,0.42,0.53,0.44,0.37,0.47,0.43,0.36,0.53,0.27,0.37,0.42,0.53,0.44,0.37,0.47,0.43,0.23,0.31,0.43,0.37,0.31,0.37,0.23,0.23,0.53,0.27,0.47,0.53,0.37,0.43,0.23" style="fill:rgb(0,0,0);font-family:MinionPro-Regular;font-size:9.0px;stroke:none;">was investigated by galvanostatic charge-discharge tests. Figure </text>
   <text y="446.661" x="382.234,386.555,389.669,395.888" svgx:width="0.48,0.35,0.69,0.35" style="fill:rgb(0,0,255);font-family:MinionPro-Regular;font-size:9.0px;stroke:none;">4(A)</text>
   <text y="446.661" x="399.002,400.856,404.123,408.893,413.339,419.504,422.807,424.661,427.46,432.229,436.055,437.909,442.661,445.046,448.421,452.174,456.953,460.823,464.09,468.23,472.055,475.259,479.012,483.791,487.661,490.928,495.068,498.893,500.747,504.842,509.369,511.538,514.337,518.243,522.383,526.208,528.062,532.67,535.892,540.374,545.234,547.511,551.336,554.639" svgx:width="0.23,0.37,0.53,0.51,0.69,0.37,0.23,0.31,0.53,0.43,0.23,0.53,0.27,0.37,0.42,0.53,0.44,0.37,0.47,0.43,0.36,0.42,0.53,0.44,0.37,0.47,0.43,0.23,0.46,0.51,0.25,0.31,0.44,0.47,0.43,0.23,0.52,0.37,0.51,0.54,0.25,0.43,0.37,0.23" style="fill:rgb(0,0,0);font-family:MinionPro-Regular;font-size:9.0px;stroke:none;"> shows the discharge-charge voltage profiles </text>
   <text y="456.66" x="155.641,160.159,162.859,164.834,167.668,172.473,176.334,178.31,182.134,184.447,188.351,192.256,195.081,198.338,203.044,207.832,211.693,213.673,221.051,225.038,229.826,233.687,235.662,240.179,242.879,244.859,247.693,252.498,256.359,258.334,263.482,269.503,274.3,276.276,280.091,282.872,284.852,287.685,292.49,296.351,298.327" svgx:width="0.51,0.3,0.23,0.31,0.53,0.43,0.23,0.43,0.25,0.43,0.42,0.31,0.37,0.51,0.53,0.43,0.23,0.82,0.44,0.53,0.43,0.23,0.51,0.3,0.23,0.31,0.53,0.43,0.23,0.57,0.67,0.53,0.23,0.44,0.31,0.23,0.31,0.53,0.43,0.23,0.48" style="fill:rgb(0,0,0);font-family:MinionPro-Regular;font-size:9.0px;stroke:none;">of the electrode made of the ECF at the 1</text>
   <text y="453.602" x="302.653,304.795" svgx:width="0.37,0.31" style="fill:rgb(0,0,0);font-family:MinionPro-Regular;font-size:5.85px;stroke:none;">st</text>
   <text y="456.662" x="306.601,308.689,310.664" svgx:width="0.23,0.23,0.48" style="fill:rgb(0,0,0);font-family:MinionPro-Regular;font-size:9.0px;stroke:none;">, 2</text>
   <text y="453.602" x="315.019,318.219" svgx:width="0.55,0.53" style="fill:rgb(0,0,0);font-family:MinionPro-Regular;font-size:5.85px;stroke:none;">nd</text>
   <text y="456.662" x="321.294,323.382,325.358,329.714" svgx:width="0.23,0.23,0.48,0.48" style="fill:rgb(0,0,0);font-family:MinionPro-Regular;font-size:9.0px;stroke:none;">, 20</text>
   <text y="453.602" x="334.067,335.91" svgx:width="0.31,0.53" style="fill:rgb(0,0,0);font-family:MinionPro-Regular;font-size:5.85px;stroke:none;">th</text>
   <text y="456.662" x="339.056,341.144,343.119,347.475,351.831" svgx:width="0.23,0.23,0.48,0.48,0.48" style="fill:rgb(0,0,0);font-family:MinionPro-Regular;font-size:9.0px;stroke:none;">, 100</text>
   <text y="453.602" x="356.183,358.026" svgx:width="0.31,0.53" style="fill:rgb(0,0,0);font-family:MinionPro-Regular;font-size:5.85px;stroke:none;">th</text>
   <text y="456.662" x="361.172,363.26,365.236,369.141,374.063,378.851,380.831,385.187,389.543" svgx:width="0.23,0.23,0.44,0.55,0.53,0.23,0.48,0.48,0.48" style="fill:rgb(0,0,0);font-family:MinionPro-Regular;font-size:9.0px;stroke:none;">, and 300</text>
   <text y="453.602" x="393.89,395.732" svgx:width="0.31,0.53" style="fill:rgb(0,0,0);font-family:MinionPro-Regular;font-size:5.85px;stroke:none;">th</text>
   <text y="456.662" x="398.878,400.854,404.84,408.934,412.722,415.035,418.896,422.235,424.215,430.442,432.78,435.615,440.457,442.437,446.424,448.399,452.304,457.119,460.547,463.804,467.665,472.452,475.233,477.214,480.589,484.404,487.13,490.991,492.971,497.488,500.188,502.163,506.519,508.607,512.963,514.087,520.342,523.357,527.605,529.581,532.731,537.087,539.175,543.531,545.511,551.532,554.646" svgx:width="0.23,0.42,0.46,0.42,0.25,0.43,0.37,0.23,0.69,0.27,0.31,0.53,0.23,0.44,0.23,0.42,0.53,0.37,0.37,0.43,0.55,0.31,0.23,0.37,0.44,0.31,0.43,0.23,0.51,0.3,0.23,0.48,0.23,0.48,0.23,0.69,0.33,0.47,0.23,0.35,0.48,0.23,0.48,0.23,0.67,0.35,0.23" style="fill:rgb(0,0,0);font-family:MinionPro-Regular;font-size:9.0px;stroke:none;"> cycles with a current rate of 0.1 A/g (0.5 C) </text>
   <text y="466.661" x="155.635,158.11,163.096,165.166,168.03,172.866,176.754,178.824,183.687,188.242,190.999,194.887,199.705,202.56,205.063,209.125,211.465,213.535,219.792,222.267,227.219,232.034,236.545,242.773,244.843,249.391,252.118,254.188,258.571,260.686,265.069,269.452" svgx:width="0.27,0.55,0.23,0.31,0.53,0.43,0.23,0.52,0.51,0.31,0.43,0.55,0.31,0.27,0.44,0.25,0.23,0.69,0.27,0.55,0.53,0.51,0.69,0.23,0.51,0.3,0.23,0.48,0.23,0.48,0.48,0.48" style="fill:rgb(0,0,0);font-family:MinionPro-Regular;font-size:9.0px;stroke:none;">in the potential window of 0.005</text>
   <text y="466.661" x="273.835" svgx:width="0.78" style="fill:rgb(0,0,0);font-family:EuclidSymbol;font-size:9.0px;stroke:none;">−</text>
   <text y="466.661" x="280.924,285.307,287.422,291.805,293.002,299.392,301.462,304.639,308.869,312.235,314.35,316.42,321.381,323.856,326.898,331.859" svgx:width="0.48,0.23,0.48,0.23,0.7,0.23,0.35,0.46,0.37,0.23,0.23,0.54,0.27,0.33,0.54,0.27" style="fill:rgb(0,0,0);font-family:MinionPro-Regular;font-size:9.0px;stroke:none;">3.0 V (vs. Li/Li</text>
   <text y="463.602" x="334.349" svgx:width="0.78" style="fill:rgb(0,0,0);font-family:EuclidSymbol;font-size:5.85px;stroke:none;">+</text>
   <text y="466.662" x="338.948,342.125,344.24,346.31,355.977,359.865,361.935,364.41,369.396,371.765,374.621,377.125,381.186,383.526,385.596,389.414,394.258,398.194,401.526,405.731,409.619,411.689,415.624,420.466,424.131,428.291,432.179,434.249,438.921,442.209,446.097,449.537,453.425,458.242,461.05,464.416,466.486,470.5,472.57,475.902,480.737,485.284,488.778,491.586,493.656,498.518,503.074,505.83,509.718,514.536,517.391,519.895,523.956,526.296,528.366,533.084,535.454,539.299,542.055,545.999,549.844,554.623" svgx:width="0.35,0.23,0.23,1.07,0.43,0.23,0.27,0.55,0.27,0.31,0.27,0.44,0.25,0.23,0.42,0.53,0.44,0.37,0.47,0.43,0.23,0.42,0.53,0.37,0.46,0.43,0.23,0.52,0.37,0.43,0.37,0.43,0.55,0.31,0.37,0.23,0.44,0.23,0.37,0.53,0.51,0.37,0.31,0.23,0.52,0.51,0.31,0.43,0.55,0.31,0.27,0.44,0.25,0.23,0.52,0.25,0.44,0.31,0.43,0.44,0.53,0.23" style="fill:rgb(0,0,0);font-family:MinionPro-Regular;font-size:9.0px;stroke:none;">). The initial charge curve presents a short potential plateau </text>
   <text y="476.661" x="155.636,159.445,162.217,164.188,168.088,171.34,175.86,180.666,185.583,190.362,192.333,196.68,198.759,203.106,207.453,212.16,216.507,218.586,222.933,224.108,230.462,232.433,236.331,241.248,246.027,247.998,251.976,253.947,256.251,260.763,265.644,269.883,271.854,276.68,281.201,283.921,287.773,292.554,295.373,297.842,301.867,304.171,306.142,310.824,313.157,316.967,319.687,323.595,327.405,332.211,334.182,337.47,340.299,344.197,347.656,350.475,352.914,357.795,362.034,364.005,366.788,370.04,374.551,381.949,383.92,389.167,393.514,395.593,399.94,401.129,406.189,408.268,410.239,419.872,423.724,425.695,428.307,432.819,436.241,443.614,447.424,450.243,452.682,457.193,462.143,464.114,468.625,471.316,473.287,476.116,480.915,484.767,486.738,489.538,495.661,500.278,502.249,506.932,509.265,513.074,515.794,519.703,523.513,528.294,531.624,533.595,536.01,539.34,541.311,545.984,550.79,554.615" svgx:width="0.44,0.31,0.23,0.44,0.37,0.51,0.53,0.55,0.53,0.23,0.48,0.23,0.48,0.48,0.52,0.48,0.23,0.48,0.23,0.7,0.23,0.44,0.55,0.53,0.23,0.44,0.23,0.25,0.51,0.55,0.47,0.23,0.52,0.51,0.31,0.43,0.55,0.31,0.27,0.44,0.25,0.23,0.52,0.25,0.44,0.31,0.43,0.44,0.53,0.23,0.37,0.31,0.44,0.37,0.31,0.27,0.55,0.47,0.23,0.3,0.37,0.51,0.82,0.23,0.58,0.48,0.23,0.48,0.23,0.7,0.23,0.23,1.07,0.43,0.23,0.3,0.51,0.37,0.82,0.44,0.31,0.27,0.51,0.55,0.23,0.51,0.3,0.23,0.31,0.53,0.43,0.23,0.31,0.69,0.51,0.23,0.52,0.25,0.44,0.31,0.43,0.44,0.53,0.37,0.23,0.27,0.37,0.23,0.53,0.53,0.43,0.23" style="fill:rgb(0,0,0);font-family:MinionPro-Regular;font-size:9.0px;stroke:none;">at around 2.25–2.0 V and a long potential plateau starting from ~0.5 V. The formation of the two plateaus is due </text>
   <text y="486.66" x="155.636,158.464,163.189,165.511,168.448,173.356,177.316,179.638,182.185,185.715,189.076,193.111,197.343,201.303,204.726,208.164,210.679,215.325,217.737,221.697,224.019,227.946,230.358,234.366,238.374,241.302,244.662,249.327,251.679,255.945,258.774,262.734,265.056,269.943,273.951,277.893,282.513,289.851,294.786,299.511,302.949,305.39,308.318,310.865,315.485,320.543,322.865,326.873,331.898,336.785,339.107,342.044,346.951,350.911,353.233,355.955,360.575,364.106,371.588,375.506,378.434,380.981,385.601,390.659,392.981,397.601,400.4,402.722,407.018,412.265,415.469,417.791,422.789,425.201,432.638,436.076,438.398,443.018,448.076,450.398,453.335,458.244,462.204,464.526,467.921,472.835,476.367,479.166,483.252,487.194,491.154,493.476,498.096,500.895,503.217,508.464,514.584,518.493,520.68,523.002,532.743,536.703,539.025,542.421,547.355,551.315" svgx:width="0.31,0.51,0.23,0.31,0.53,0.43,0.23,0.27,0.37,0.37,0.43,0.46,0.43,0.37,0.37,0.27,0.51,0.25,0.43,0.23,0.43,0.25,0.43,0.42,0.31,0.37,0.51,0.25,0.46,0.31,0.43,0.23,0.53,0.43,0.42,0.51,0.82,0.52,0.51,0.37,0.27,0.31,0.27,0.51,0.55,0.23,0.44,0.55,0.53,0.23,0.31,0.53,0.43,0.23,0.3,0.51,0.37,0.82,0.44,0.31,0.27,0.51,0.55,0.23,0.51,0.3,0.23,0.47,0.57,0.34,0.23,0.54,0.25,0.82,0.37,0.23,0.51,0.55,0.23,0.31,0.53,0.43,0.23,0.37,0.53,0.37,0.3,0.44,0.42,0.43,0.23,0.51,0.3,0.23,0.57,0.67,0.53,0.23,0.23,1.07,0.43,0.23,0.37,0.52,0.43,0.36" style="fill:rgb(0,0,0);font-family:MinionPro-Regular;font-size:9.0px;stroke:none;">to the irreversible electrolyte decomposition and the formation of SEI films on the surface of ECF. The spe-</text>
   <text y="496.659" x="155.636,159.488,161.945,166.805,170.657,172.64,176.516,180.337,185.139,189.135,192.987,195.333,198.146,202.322,204.306,210.516,214.481,217.829,219.814,223.689,227.727,230.049,233.959,238.824,241.17,244.991,247.724,251.635,256.432,258.416,263.074,267.04,270.457,274.367,279.164,281.149,285.672,290.64,292.624,295.464,300.276,304.146,306.13,312.265,316.135,318.592,322.907,327.584,330.37,332.354,336.878,339.587,341.57,346.727,352.757,356.57,358.667,360.651,370.296,374.166,376.149,381.306,387.336,392.142,394.126,398.001,401.913,406.881,408.865,412.687,415.383,418.224,422.135,424.592,429.56,431.544,435.54,437.524,442.375,444.832,449.148,453.999,455.983,458.44,463.408,465.753,468.585,471.065,475.103,477.425,479.408,484.205,486.632,490.048,493.842,498.663,502.575,505.883,510.064,513.934,515.919,519.794,523.615,528.417,532.413,536.265,538.609,541.423,545.599,547.582,552.106,554.77" svgx:width="0.42,0.27,0.54,0.42,0.23,0.42,0.44,0.52,0.44,0.42,0.27,0.31,0.46,0.23,0.69,0.44,0.37,0.23,0.42,0.44,0.25,0.42,0.53,0.25,0.44,0.31,0.43,0.53,0.23,0.51,0.44,0.37,0.43,0.53,0.23,0.51,0.55,0.23,0.31,0.53,0.43,0.23,0.69,0.43,0.27,0.47,0.53,0.31,0.23,0.51,0.3,0.23,0.57,0.67,0.53,0.23,0.23,1.07,0.43,0.23,0.57,0.67,0.53,0.23,0.42,0.44,0.55,0.23,0.44,0.31,0.31,0.44,0.27,0.55,0.23,0.44,0.23,0.53,0.27,0.47,0.53,0.23,0.27,0.55,0.27,0.31,0.27,0.44,0.25,0.23,0.53,0.27,0.37,0.42,0.53,0.44,0.37,0.47,0.43,0.23,0.42,0.44,0.52,0.44,0.42,0.27,0.31,0.46,0.23,0.51,0.3,0.23" style="fill:rgb(0,0,0);font-family:MinionPro-Regular;font-size:9.0px;stroke:none;">cific capacity was calculated based on the weight of ECF. The ECF can attain a high initial discharge capacity of </text>
   <text y="506.658" x="155.636,159.956,164.276,168.596,169.712,177.083,183.327,188.133,191.112,195.324,197.061,200.93,205.815,210.567,212.304,216.055,220.833,224.702,227.968,232.106,235.931,237.668,241.5,245.278,250.038,253.989,257.796,260.099,262.87,267.001,268.738,273.218,275.882,277.619,281.939,286.259,290.579,291.671,299.042,305.287,310.093,313.072,317.309,319.361,321.098,324.319,328.144,331.4,336.196,340.065,343.933,346.721,349.069,353.162,356.949,359.163,362.635,364.687,366.424,373.091,376.916,380.173,384.779,387.081,389.772,393.597,395.334,398.131,402.9,406.725,408.462,413.214,415.597,418.971,422.722,427.5,431.369,434.634,438.772,442.597,444.334,448.166,451.945,456.705,460.656,464.463,466.766,469.536,473.667,475.404,477.681,482.271,485.527,488.83,490.567,494.436,499.618,503.443,506.782,508.519,511.317,516.086,519.911,521.648,524.06,527.451,530.672,534.567,538.66,542.485,545.768,549.071,551.483" svgx:width="0.48,0.48,0.48,0.23,0.82,0.69,0.53,0.33,0.47,0.23,0.44,0.55,0.53,0.23,0.42,0.53,0.44,0.37,0.47,0.43,0.23,0.42,0.44,0.52,0.44,0.42,0.27,0.31,0.46,0.23,0.51,0.3,0.23,0.48,0.48,0.48,0.23,0.82,0.69,0.53,0.33,0.47,0.23,0.23,0.37,0.43,0.37,0.52,0.43,0.42,0.31,0.27,0.46,0.43,0.25,0.46,0.23,0.23,0.74,0.43,0.37,0.52,0.27,0.31,0.43,0.23,0.31,0.53,0.43,0.23,0.53,0.27,0.37,0.42,0.53,0.44,0.37,0.47,0.43,0.23,0.42,0.44,0.52,0.44,0.42,0.27,0.31,0.46,0.23,0.25,0.51,0.37,0.37,0.23,0.44,0.58,0.43,0.37,0.23,0.31,0.53,0.43,0.23,0.27,0.37,0.37,0.43,0.46,0.43,0.37,0.37,0.27,0.36" style="fill:rgb(0,0,0);font-family:MinionPro-Regular;font-size:9.0px;stroke:none;">725 mAh/g and charge capacity of 199 mAh/g, respectively. Despite the discharge capacity loss after the irreversi-</text>
   <text y="516.657" x="155.627,160.134,162.411,166.236,167.973,170.385,175.308,177.609,180.396,182.833,186.827,189.104,190.841,194.789,198.845,202.597,204.874,208.699,212.002,214.054,215.791,218.587,223.355,227.18,228.917,232.136,236.031,240.124,243.949,247.231,250.534,252.908,257.415,259.692,263.517,265.254,269.085,272.863,277.622,281.573,285.38,287.682,290.451,294.582,296.319,300.799,303.463,305.2,310.312,316.297,321.058,322.795,327.547,331.415,335.222,338.442,342.318,346.24,349.613,353.48,358.232,359.969,362.72,365.94,370.42,377.791,379.528,384.748,389.068,393.388,397.708,398.735,406.106,412.35,417.156,420.135,424.347,426.084,429.862,432.607,434.344,437.14,441.908,445.733,447.47" svgx:width="0.51,0.25,0.43,0.23,0.27,0.55,0.27,0.31,0.27,0.44,0.25,0.23,0.42,0.46,0.42,0.25,0.43,0.37,0.23,0.23,0.31,0.53,0.43,0.23,0.37,0.43,0.46,0.43,0.37,0.37,0.27,0.51,0.25,0.43,0.23,0.42,0.44,0.52,0.44,0.42,0.27,0.31,0.46,0.23,0.51,0.3,0.23,0.57,0.67,0.53,0.23,0.53,0.43,0.42,0.37,0.43,0.44,0.37,0.43,0.53,0.23,0.3,0.37,0.51,0.82,0.23,0.58,0.48,0.48,0.48,0.23,0.82,0.69,0.53,0.33,0.47,0.23,0.44,0.31,0.23,0.31,0.53,0.43,0.23,0.48" style="fill:rgb(0,0,0);font-family:MinionPro-Regular;font-size:9.0px;stroke:none;">ble initial cycles, the reversible capacity of ECF decreased from ~206 mAh/g at the 2</text>
   <text y="513.602" x="451.771,454.948" svgx:width="0.55,0.53" style="fill:rgb(0,0,0);font-family:MinionPro-Regular;font-size:5.85px;stroke:none;">nd</text>
   <text y="516.662" x="458.033,459.77,463.719,467.775,471.526,473.803,477.628,479.365,482.054,486.644,488.381,493.601,497.921,502.241,506.561,507.659,515.03,521.275,526.081,529.06,533.272,535.009,538.787,541.532,543.269,546.065,550.832,554.657" svgx:width="0.23,0.42,0.46,0.42,0.25,0.43,0.23,0.31,0.51,0.23,0.58,0.48,0.48,0.48,0.23,0.82,0.69,0.53,0.33,0.47,0.23,0.44,0.31,0.23,0.31,0.53,0.43,0.23" style="fill:rgb(0,0,0);font-family:MinionPro-Regular;font-size:9.0px;stroke:none;"> cycle to ~201 mAh/g at the </text>
   <text y="526.661" x="155.642" svgx:width="0.48" style="fill:rgb(0,0,0);font-family:MinionPro-Regular;font-size:9.0px;stroke:none;">5</text>
   <text y="523.602" x="159.997,161.84" svgx:width="0.31,0.53" style="fill:rgb(0,0,0);font-family:MinionPro-Regular;font-size:5.85px;stroke:none;">th</text>
   <text y="526.662" x="164.992,166.972,170.962,175.061,178.854,181.167,184.977,187.065,189.045,193.558,198.268,201.049,203.029,205.868,210.678,214.539,219.498,221.478,223.926,228.852,232.695,235.957,239.876,243.838,247.253,251.162,255.95,257.93,260.661,265.287,267.267,272.523,276.879,281.235,285.591,286.798,294.205,300.49,305.332,308.347,312.595,314.575,318.394,321.175,323.155,325.994,330.803,334.664,336.644,341.0" svgx:width="0.23,0.42,0.46,0.42,0.25,0.43,0.23,0.23,0.51,0.53,0.31,0.23,0.31,0.53,0.43,0.55,0.23,0.27,0.55,0.42,0.37,0.43,0.44,0.37,0.43,0.53,0.23,0.31,0.51,0.23,0.58,0.48,0.48,0.48,0.23,0.82,0.69,0.53,0.33,0.47,0.23,0.44,0.31,0.23,0.31,0.53,0.43,0.23,0.48,0.48" style="fill:rgb(0,0,0);font-family:MinionPro-Regular;font-size:9.0px;stroke:none;"> cycle, but then increased to ~215 mAh/g at the 20</text>
   <text y="523.602" x="345.385,347.228" svgx:width="0.31,0.53" style="fill:rgb(0,0,0);font-family:MinionPro-Regular;font-size:5.85px;stroke:none;">th</text>
   <text y="526.662" x="350.38,352.36,356.35,360.449,364.241,366.554,370.365,372.453,374.433,384.076,387.937,389.917,393.79,397.61,402.409,406.396,410.239,412.583,415.394,419.561,421.541,424.802,428.721,432.708,436.501,441.309,445.219,450.007,451.987,459.37,463.357,467.641,470.089,477.329,482.144,489.551,491.531,496.053,498.753,500.733,505.989,510.345,514.701,519.057,520.282,527.689,533.973,538.815,541.83,546.078,548.058,551.878,554.623" svgx:width="0.23,0.42,0.46,0.42,0.25,0.43,0.23,0.23,1.07,0.43,0.23,0.42,0.44,0.52,0.44,0.42,0.27,0.31,0.46,0.23,0.37,0.43,0.44,0.42,0.53,0.43,0.53,0.23,0.82,0.44,0.47,0.27,0.82,0.53,0.82,0.23,0.51,0.3,0.23,0.58,0.48,0.48,0.48,0.23,0.82,0.69,0.53,0.33,0.47,0.23,0.44,0.31,0.23" style="fill:rgb(0,0,0);font-family:MinionPro-Regular;font-size:9.0px;stroke:none;"> cycle. The capacity reached maximum of ~225 mAh/g at </text>
   <text y="536.661" x="155.638,158.437,163.207,167.032,168.868,173.188" svgx:width="0.31,0.53,0.43,0.23,0.48,0.48" style="fill:rgb(0,0,0);font-family:MinionPro-Regular;font-size:9.0px;stroke:none;">the 56</text>
   <text y="533.602" x="177.51,179.33" svgx:width="0.31,0.53" style="fill:rgb(0,0,0);font-family:MinionPro-Regular;font-size:5.85px;stroke:none;">th</text>
   <text y="536.662" x="182.454,184.29,188.241,192.3,196.053,198.33,202.155,203.991,207.861,212.748,217.5,219.336,226.68,230.55,232.962,237.714,240.513,244.383,246.795,251.682,255.552,260.304,262.14,265.92,268.665,270.501,274.821,279.141,283.461,284.595,291.966,298.212,303.018,305.997,310.209,312.045,316.716,321.432,323.268,325.959,330.549,332.385,336.705,341.025,345.345,347.181,351.131,355.19,358.943,361.22,365.045,368.348,370.184,373.298,378.059,380.471,384.709,386.761" svgx:width="0.23,0.42,0.46,0.42,0.25,0.43,0.23,0.44,0.55,0.53,0.23,0.82,0.44,0.27,0.55,0.31,0.44,0.27,0.55,0.43,0.53,0.23,0.44,0.31,0.23,0.48,0.48,0.48,0.23,0.82,0.69,0.53,0.33,0.47,0.23,0.53,0.52,0.23,0.31,0.51,0.23,0.48,0.48,0.48,0.23,0.42,0.46,0.42,0.25,0.43,0.37,0.23,0.35,0.53,0.27,0.47,0.23,0.23" style="fill:rgb(0,0,0);font-family:MinionPro-Regular;font-size:9.0px;stroke:none;"> cycle and maintained at 213 mAh/g up to 300 cycles (Fig. </text>
   <text y="536.662" x="388.617,392.937" svgx:width="0.48,0.67" style="fill:rgb(0,0,255);font-family:MinionPro-Regular;font-size:9.0px;stroke:none;">4C</text>
   <text y="536.662" x="398.922,402.036" svgx:width="0.35,0.23" style="fill:rgb(0,0,0);font-family:MinionPro-Regular;font-size:9.0px;stroke:none;">).</text>
   <text y="546.661" x="167.64,172.248,177.054,180.511,183.337,188.134,191.986,195.406,202.768,207.277,210.526,214.324,216.403,218.374,221.201,225.998,229.85,231.821,235.187,238.994,241.713,245.565,247.536,251.397,255.204,259.992,263.898,268.39,270.874,273.178,275.509,278.308,282.466,284.437,288.946,291.637,293.608,296.434,301.231,305.083,307.054,312.193,318.205,322.993,324.964,331.156,335.107,338.437,340.408,347.771,351.677,355.628,358.913,363.719,366.968,370.865,375.644,377.615,381.422,384.194,386.165,390.359,394.257,397.677,400.116,404.635,409.414,412.744,414.715,418.612,423.418,426.838,430.088,433.94,438.719,441.491,443.462,448.241,452.093,456.971,460.301,462.632,465.45,467.889,471.741,475.07,477.042,481.551,484.242,486.213,490.56,492.639,496.986,498.957,502.098,506.444,508.523,512.87,514.841,520.854,523.995,526.073,528.044,532.391,534.47,538.817,540.788,543.929,548.276,550.355,554.675" svgx:width="0.53,0.53,0.37,0.31,0.53,0.43,0.37,0.82,0.51,0.37,0.43,0.23,0.23,0.31,0.53,0.43,0.23,0.37,0.44,0.31,0.43,0.23,0.42,0.44,0.52,0.44,0.51,0.27,0.25,0.27,0.31,0.46,0.23,0.51,0.3,0.23,0.31,0.53,0.43,0.23,0.57,0.67,0.53,0.23,0.69,0.44,0.37,0.23,0.82,0.43,0.44,0.37,0.53,0.37,0.43,0.53,0.23,0.44,0.31,0.23,0.46,0.44,0.37,0.27,0.51,0.53,0.37,0.23,0.42,0.53,0.37,0.37,0.43,0.55,0.31,0.23,0.53,0.43,0.55,0.37,0.27,0.31,0.27,0.43,0.37,0.23,0.51,0.3,0.23,0.48,0.23,0.48,0.23,0.35,0.48,0.23,0.48,0.23,0.67,0.35,0.23,0.23,0.48,0.23,0.48,0.23,0.35,0.48,0.23,0.48,0.23" style="fill:rgb(0,0,0);font-family:MinionPro-Regular;font-size:9.0px;stroke:none;">Furthermore, the rate capability of the ECF was measured at various current densities of 0.1 (0.5 C), 0.2 (1.1 </text>
   <text y="556.66" x="155.643,161.628,164.742,166.794,168.531,172.851,174.903,179.223,180.96,184.074,188.394,190.446,194.766,196.503,202.488,205.602,207.339,211.206,216.09,220.842,222.579,226.899,227.967,234.186,237.165,241.377,243.114,246.228,250.548,254.868,256.605,262.59,265.704,267.441,271.362,274.665,276.402,279.666,284.434,288.877,295.066,299.989,301.726,304.138,309.061,310.798,315.559,317.971,322.207,324.259" svgx:width="0.67,0.35,0.23,0.23,0.48,0.23,0.48,0.23,0.35,0.48,0.23,0.48,0.23,0.67,0.35,0.23,0.44,0.55,0.53,0.23,0.48,0.23,0.69,0.33,0.47,0.23,0.35,0.48,0.48,0.23,0.67,0.35,0.23,0.44,0.37,0.23,0.37,0.53,0.51,0.69,0.55,0.23,0.27,0.55,0.23,0.53,0.27,0.47,0.23,0.23" style="fill:rgb(0,0,0);font-family:MinionPro-Regular;font-size:9.0px;stroke:none;">C), 0.5 (3.8 C) and 1 A/g (10 C) as shown in Fig. </text>
   <text y="556.66" x="325.932,330.252,333.366,338.658" svgx:width="0.48,0.35,0.59,0.35" style="fill:rgb(0,0,255);font-family:MinionPro-Regular;font-size:9.0px;stroke:none;">4(B)</text>
   <text y="556.66" x="341.772,343.824,345.561,355.16,358.985,360.722,363.941,367.836,371.928,375.753,379.034,382.337,384.711,389.217,391.494,395.319,397.056,400.886,404.664,409.422,413.373,417.18,419.48,422.268,424.68,428.505,431.808,433.545,438.024,440.688,442.425,445.22,449.988,453.813,455.55,460.662,466.647,471.408,473.145,476.922,479.667,481.404,485.571,489.438,492.829,495.241,499.729,504.478,507.781,509.518,513.385,518.164,521.554,524.773,528.598,533.347,536.092,537.829,541.168,544.946,547.634,551.459,554.762" svgx:width="0.23,0.23,1.07,0.43,0.23,0.37,0.43,0.46,0.43,0.37,0.37,0.27,0.51,0.25,0.43,0.23,0.42,0.44,0.52,0.44,0.42,0.27,0.31,0.27,0.43,0.37,0.23,0.51,0.3,0.23,0.31,0.53,0.43,0.23,0.57,0.67,0.53,0.23,0.44,0.31,0.23,0.46,0.44,0.37,0.27,0.51,0.53,0.37,0.23,0.42,0.53,0.37,0.37,0.43,0.55,0.31,0.23,0.37,0.44,0.31,0.43,0.37,0.23" style="fill:rgb(0,0,0);font-family:MinionPro-Regular;font-size:9.0px;stroke:none;">. The reversible capacities of the ECF at various current rates </text>
   <text y="566.659" x="155.643,160.125,162.789,164.571,168.891,170.943,175.263,177.315,179.097,183.417,185.469,189.789,191.571,195.441,200.328,205.08,206.862,211.182,215.502,217.284,223.269,225.051,228.921,232.143,235.968,237.75,242.07,246.39,250.71,252.762,254.544,258.864,263.184,267.504,269.286,273.156,278.043,282.795,284.577,288.897,293.217,297.537,299.319,306.69,312.935,317.741,320.72,324.959,327.011,328.793,332.015,335.84,339.098,343.894,347.764,351.634,354.424,356.773,360.868,364.657,366.871,370.345,372.397,374.179,380.641,385.132,387.823,391.648,393.43,396.229,401.008,404.788,407.533,409.315,415.542,420.313,424.138,429.061,430.843,433.642,438.412,442.237,444.019,447.889,452.668,456.061,459.283,463.108,467.86,470.605,472.387,477.139,480.964,485.815,489.118,491.422,494.194,498.325,500.107,506.272,510.196,513.499,515.281,518.503,522.4,526.495,530.32,533.605,536.98,540.849,545.601,547.383,550.074,554.664" svgx:width="0.51,0.3,0.23,0.48,0.23,0.48,0.23,0.23,0.48,0.23,0.48,0.23,0.44,0.55,0.53,0.23,0.48,0.48,0.23,0.67,0.23,0.44,0.37,0.43,0.23,0.48,0.48,0.48,0.23,0.23,0.48,0.48,0.48,0.23,0.44,0.55,0.53,0.23,0.48,0.48,0.48,0.23,0.82,0.69,0.53,0.33,0.47,0.23,0.23,0.37,0.43,0.37,0.52,0.43,0.42,0.31,0.27,0.46,0.43,0.25,0.46,0.23,0.23,0.74,0.51,0.31,0.43,0.23,0.31,0.53,0.44,0.31,0.23,0.69,0.53,0.43,0.55,0.23,0.31,0.53,0.43,0.23,0.42,0.53,0.37,0.37,0.43,0.55,0.31,0.23,0.53,0.43,0.55,0.37,0.27,0.31,0.46,0.23,0.69,0.44,0.37,0.23,0.37,0.43,0.46,0.43,0.37,0.37,0.43,0.53,0.23,0.31,0.51,0.23" style="fill:rgb(0,0,0);font-family:MinionPro-Regular;font-size:9.0px;stroke:none;">of 1.1, 3.8 and 10 C are 184, 142 and 108 mAh/g, respectively. Note that when the current density was reversed to </text>
   <text y="576.658" x="155.643,159.99,162.069,166.416,168.387,174.633,177.639,181.878,183.849,186.99,191.337,193.416,197.763,199.734,205.746,208.887,210.858,214.145,216.974,220.874,224.332,227.151,229.59,234.47,238.709,240.68,243.464,246.715,251.227,258.625,260.596,264.943" svgx:width="0.48,0.23,0.48,0.23,0.69,0.33,0.47,0.23,0.35,0.48,0.23,0.48,0.23,0.67,0.35,0.23,0.37,0.31,0.44,0.37,0.31,0.27,0.55,0.47,0.23,0.3,0.37,0.51,0.82,0.23,0.48,0.48" style="fill:rgb(0,0,0);font-family:MinionPro-Regular;font-size:9.0px;stroke:none;">0.1 A/g (0.5 C) starting from 50</text>
   <text y="573.602" x="269.324,271.161" svgx:width="0.31,0.53" style="fill:rgb(0,0,0);font-family:MinionPro-Regular;font-size:5.85px;stroke:none;">th</text>
   <text y="576.662" x="274.306,276.277,280.257,284.346,288.128,290.432,294.232,296.311,298.282,302.26,304.231,309.064,311.503,315.807,320.64,322.611,325.862,329.789,333.913,337.765,341.08,344.41,346.815,351.354,353.658,357.51,359.481,363.343,367.153,371.944,375.922,379.756,382.09,384.89,389.048,391.019,395.531,398.222,400.193,405.44,409.787,414.134,418.481,419.674,427.072,433.346,438.179,441.185,445.424,447.395,451.258,455.158,460.108,462.079,466.762,470.614,472.585,479.957,483.857,486.296,491.078,493.906,497.805,500.244,505.16,509.06,513.788,515.867,517.838,527.47,531.322,533.293,535.732,540.682,543.016,545.835,548.304,552.328,554.605" svgx:width="0.23,0.42,0.46,0.42,0.25,0.43,0.23,0.23,0.44,0.23,0.53,0.27,0.47,0.53,0.23,0.37,0.43,0.46,0.43,0.37,0.37,0.27,0.51,0.25,0.43,0.23,0.42,0.44,0.52,0.44,0.42,0.27,0.31,0.46,0.23,0.51,0.3,0.23,0.58,0.48,0.48,0.48,0.23,0.82,0.69,0.53,0.33,0.47,0.23,0.42,0.44,0.55,0.23,0.51,0.43,0.23,0.82,0.44,0.27,0.55,0.31,0.44,0.27,0.55,0.43,0.53,0.23,0.23,1.07,0.43,0.23,0.27,0.55,0.27,0.31,0.27,0.44,0.25,0.23" style="fill:rgb(0,0,0);font-family:MinionPro-Regular;font-size:9.0px;stroke:none;"> cycle, a high reversible capacity of ~220 mAh/g can be maintained. The initial </text>
   <text y="586.661" x="155.632,159.439,163.931,168.756,171.033,175.516,182.799,187.264,189.676,193.483,195.427,199.252,206.434,210.241,212.653,216.478,221.367,225.319,229.45,231.394,235.876,238.54,240.484,243.284,248.055,251.88,253.824,258.936,264.921,269.682,271.626,274.013,277.316,279.26,283.58,287.9,289.952,294.272,301.076,303.02,307.665,312.444,316.269,318.213,320.905,325.495,327.439,330.239,335.011,338.836,340.78,343.192,346.585,349.809,353.707,357.804,361.629,364.915,368.218,370.595,375.106,377.383,381.208,383.152,386.986,390.767,395.53,399.481,403.288,405.593,408.367,412.498,414.442,416.719,421.309,424.569,427.872,429.816,435.036,439.356,443.676,447.996,449.149,456.52,462.767,467.573,470.552,474.792,476.844,478.788,483.262,487.935,490.68,492.624,495.424,500.196,504.021,508.944,510.888,514.191,516.603,520.86,525.783,528.195,533.01,536.846,540.717,545.471,548.271,550.487,554.618" svgx:width="0.42,0.51,0.53,0.25,0.51,0.82,0.51,0.27,0.42,0.23,0.43,0.8,0.42,0.27,0.43,0.55,0.42,0.46,0.23,0.51,0.3,0.23,0.31,0.53,0.43,0.23,0.57,0.67,0.53,0.23,0.27,0.37,0.23,0.48,0.48,0.23,0.48,0.76,0.23,0.53,0.53,0.43,0.23,0.31,0.51,0.23,0.31,0.53,0.43,0.23,0.27,0.37,0.37,0.43,0.46,0.43,0.37,0.37,0.27,0.51,0.25,0.43,0.23,0.42,0.44,0.52,0.44,0.42,0.27,0.31,0.46,0.23,0.25,0.51,0.37,0.37,0.23,0.58,0.48,0.48,0.48,0.23,0.82,0.69,0.53,0.33,0.47,0.23,0.23,0.51,0.53,0.31,0.23,0.31,0.53,0.43,0.55,0.23,0.37,0.27,0.47,0.55,0.27,0.54,0.42,0.44,0.55,0.31,0.25,0.46,0.23" style="fill:rgb(0,0,0);font-family:MinionPro-Regular;font-size:9.0px;stroke:none;">coulombic efficiency of the ECF is 27.4% due to the irreversible capacity loss ~500 mAh/g, but then significantly </text>
   <text y="596.66" x="155.632,158.044,162.932,166.739,169.962,173.842,177.768,181.144,185.015,189.767,191.711,194.404,198.994,200.938,205.258,209.578,211.63,215.95,222.754,224.698,227.11,232.033,233.977,238.297,242.617,244.561,248.512,252.572,256.327,258.604,262.429,265.732,267.784,269.728,279.332,283.157,285.101" svgx:width="0.27,0.55,0.42,0.37,0.43,0.44,0.37,0.43,0.53,0.23,0.31,0.51,0.23,0.48,0.48,0.23,0.48,0.76,0.23,0.27,0.55,0.23,0.48,0.48,0.23,0.42,0.46,0.42,0.25,0.43,0.37,0.23,0.23,1.07,0.43,0.23,0.48" style="fill:rgb(0,0,0);font-family:MinionPro-Regular;font-size:9.0px;stroke:none;">increased to 99.1% in 20 cycles. The 2</text>
   <text y="593.602" x="289.435,292.611" svgx:width="0.55,0.53" style="fill:rgb(0,0,0);font-family:MinionPro-Regular;font-size:5.85px;stroke:none;">nd</text>
   <text y="596.662" x="295.702,297.646,301.598,305.658,309.412,311.689,315.514,317.458,321.212,325.993,329.864,333.132,337.274,341.099,343.043,346.914,351.802,356.554,358.498,363.25,365.635,369.011,372.766,377.546,381.418,384.686,388.827,392.652,394.596,398.431,402.212,406.974,410.925,414.732,417.038,419.829,422.241,426.066,429.369,431.313,435.797,438.461,440.405,444.725,449.045,453.365,455.309,459.181,464.069,468.821,470.765,475.085,479.405,483.725,484.855,492.226,498.473,503.279,506.258,510.47,512.414,515.637,519.462,522.72,527.518,531.389,535.26,538.051,540.402,544.498,548.289,550.503,554.634" svgx:width="0.23,0.42,0.46,0.42,0.25,0.43,0.23,0.42,0.53,0.44,0.37,0.47,0.43,0.23,0.44,0.55,0.53,0.23,0.53,0.27,0.37,0.42,0.53,0.44,0.37,0.47,0.43,0.23,0.42,0.44,0.52,0.44,0.42,0.27,0.31,0.27,0.43,0.37,0.23,0.51,0.3,0.23,0.48,0.48,0.48,0.23,0.44,0.55,0.53,0.23,0.48,0.48,0.48,0.23,0.82,0.69,0.53,0.33,0.47,0.23,0.37,0.43,0.37,0.52,0.43,0.42,0.31,0.27,0.46,0.43,0.25,0.46,0.23" style="fill:rgb(0,0,0);font-family:MinionPro-Regular;font-size:9.0px;stroke:none;"> cycle charge and discharge capacities of 206 and 248 mAh/g respectively </text>
   <text y="606.661" x="155.635,158.931,163.731,168.207,174.33,178.229,183.008,184.979,188.957,190.928,194.258,196.697,200.984,205.934,208.373,213.215,217.079,220.978,225.76,228.532,230.503,234.355,239.353,244.161,248.061,252.978,256.812,260.712,265.491,267.462,271.296,275.816,280.67,282.974,287.486,294.796,299.29,301.729,305.563,307.534,311.386,318.595,322.429,324.868,328.72,333.637,337.617,341.775,343.746,348.258,350.949,352.92,357.267,361.614,363.693,368.04,374.871,376.95,379.029,381.0,390.633,394.485,396.456,400.29,404.811,409.664,411.968,416.48,423.791,428.284,430.723,434.557,436.528,440.38,447.589,451.423,453.862,457.714,462.631,466.612,470.77,472.741,477.253,479.944,481.915,484.743,489.543,493.395,495.366,500.505,506.517,511.305,513.276,520.65,524.549,526.988,531.77,534.599,538.499,540.938,545.854,549.754,554.506" svgx:width="0.37,0.53,0.51,0.69,0.43,0.53,0.23,0.44,0.23,0.37,0.27,0.47,0.55,0.27,0.54,0.42,0.44,0.55,0.31,0.23,0.43,0.55,0.53,0.44,0.55,0.42,0.43,0.53,0.23,0.42,0.51,0.53,0.25,0.51,0.82,0.51,0.27,0.42,0.23,0.43,0.8,0.42,0.27,0.43,0.55,0.42,0.46,0.23,0.51,0.3,0.23,0.48,0.48,0.23,0.48,0.76,0.23,0.23,0.23,1.07,0.43,0.23,0.42,0.51,0.53,0.25,0.51,0.82,0.51,0.27,0.42,0.23,0.43,0.8,0.42,0.27,0.43,0.55,0.42,0.46,0.23,0.51,0.3,0.23,0.31,0.53,0.43,0.23,0.57,0.67,0.53,0.23,0.82,0.44,0.27,0.55,0.31,0.44,0.27,0.55,0.43,0.53,0.23" style="fill:rgb(0,0,0);font-family:MinionPro-Regular;font-size:9.0px;stroke:none;">showed a significant enhanced coulombic efficiency of 83.1%,. The coulombic efficiency of the ECF maintained </text>
   <text y="616.66" x="155.635,160.855,165.175,169.495,173.815,180.619,182.455,185.209,188.431,192.913,200.284,202.12,206.44" svgx:width="0.58,0.48,0.48,0.48,0.76,0.23,0.3,0.37,0.51,0.82,0.23,0.48,0.48" style="fill:rgb(0,0,0);font-family:MinionPro-Regular;font-size:9.0px;stroke:none;">~100% from 60</text>
   <text y="613.602" x="210.768,212.587" svgx:width="0.31,0.53" style="fill:rgb(0,0,0);font-family:MinionPro-Regular;font-size:5.85px;stroke:none;">th</text>
   <text y="616.662" x="215.711,217.547,220.238,224.828,226.664,230.984,235.304" svgx:width="0.23,0.31,0.51,0.23,0.48,0.48,0.48" style="fill:rgb(0,0,0);font-family:MinionPro-Regular;font-size:9.0px;stroke:none;"> to 300</text>
   <text y="613.602" x="239.629,241.448" svgx:width="0.31,0.53" style="fill:rgb(0,0,0);font-family:MinionPro-Regular;font-size:5.85px;stroke:none;">th</text>
   <text y="616.662" x="244.572,246.408,250.359,254.418,258.171,260.448,264.273,267.576,269.412,273.336,276.639,278.475,281.742,286.512,290.958,297.15,302.073,303.909,306.321,311.244,313.08,317.841,320.253,324.492,326.544" svgx:width="0.23,0.42,0.46,0.42,0.25,0.43,0.37,0.23,0.44,0.37,0.23,0.37,0.53,0.51,0.69,0.55,0.23,0.27,0.55,0.23,0.53,0.27,0.47,0.23,0.23" style="fill:rgb(0,0,0);font-family:MinionPro-Regular;font-size:9.0px;stroke:none;"> cycles as shown in Fig. </text>
   <text y="616.662" x="328.398,332.718,335.832,341.817" svgx:width="0.48,0.35,0.67,0.35" style="fill:rgb(0,0,255);font-family:MinionPro-Regular;font-size:9.0px;stroke:none;">4(C)</text>
   <text y="616.662" x="344.931" svgx:width="0.23" style="fill:rgb(0,0,0);font-family:MinionPro-Regular;font-size:9.0px;stroke:none;">.</text>
   <text y="626.661" x="167.64,177.321,181.227,183.333,188.166,192.072,196.946,200.847,205.812,210.645,214.551,219.515,223.403,227.305,229.411,233.97,236.715,238.821,242.769,247.733,252.481,257.314,261.22,263.326,266.203,271.09,273.578,277.409,281.986,286.951,290.857,294.192,297.571,299.677,304.237,309.241,311.347,314.223,319.071,322.977,325.083,328.913,333.769,337.717,341.061,345.279,349.18,352.465,357.298,359.761,363.213,367.043,371.899,375.847,379.191,383.408,387.314,389.42,393.331,397.188,402.026,406.058,409.942,412.323,415.191,417.684,421.585,424.969,427.102,429.208,432.624,436.481,439.25,443.156,445.262,449.172,453.029,457.868,461.824,466.366,468.899,471.257,473.639,476.488,480.696,482.802,486.749,491.713,496.546,498.652,502.681,506.817,510.648,513.029,516.985,521.526,524.06,526.418,528.8,531.648,535.86,537.966,542.823,546.689,550.861,554.686" svgx:width="1.07,0.43,0.23,0.53,0.43,0.52,0.43,0.55,0.53,0.43,0.55,0.42,0.43,0.23,0.51,0.3,0.23,0.44,0.55,0.51,0.53,0.43,0.23,0.31,0.53,0.27,0.42,0.5,0.55,0.43,0.37,0.37,0.23,0.51,0.55,0.23,0.31,0.53,0.43,0.23,0.42,0.53,0.44,0.37,0.47,0.43,0.36,0.53,0.27,0.37,0.42,0.53,0.44,0.37,0.47,0.43,0.23,0.42,0.44,0.52,0.44,0.42,0.27,0.31,0.27,0.43,0.37,0.23,0.23,0.37,0.44,0.31,0.43,0.23,0.42,0.44,0.52,0.44,0.51,0.27,0.25,0.27,0.31,0.46,0.23,0.44,0.55,0.53,0.23,0.42,0.46,0.42,0.25,0.44,0.51,0.27,0.25,0.27,0.31,0.46,0.23,0.53,0.44,0.46,0.43,0.23" style="fill:rgb(0,0,0);font-family:MinionPro-Regular;font-size:9.0px;stroke:none;">The dependence of anode thickness on the charge-discharge capacities, rate capability and cyclability have </text>
   <text y="636.66" x="155.643,160.387,164.347,168.262,173.275,175.43,179.327,183.9,191.191,196.042,200.003,203.432,207.303,210.183,212.623,216.809,220.689,222.994,227.215,229.375,231.877,236.684,240.869,244.784,248.133,251.014,253.516,257.818,261.689,264.471,268.431,273.273,275.433,280.302,285.28,290.122,294.037,297.466,299.621,302.511,307.372,311.287,313.447,316.895,320.856,328.281,332.196,334.356,338.253,342.826,347.804,352.646,355.041,357.921,360.423,364.996,370.009,372.151,374.311,377.327,382.34,384.495,387.385,392.281,394.757,398.15,400.31,404.225,408.563,413.451,417.366,420.849,423.351,430.777,434.692,439.535,442.37,444.512,446.667,449.557,454.418,458.333,460.489,465.691,471.766,476.617,478.772,485.055,487.45,490.339,495.235,497.395,500.285,505.145,509.06,511.22,516.062,519.977,524.919,528.312,530.707,533.569,537.79,539.95,544.522,547.276,549.436,554.656" svgx:width="0.51,0.43,0.43,0.55,0.23,0.42,0.51,0.82,0.52,0.44,0.37,0.44,0.31,0.27,0.46,0.43,0.25,0.46,0.23,0.27,0.55,0.46,0.43,0.37,0.31,0.27,0.47,0.44,0.31,0.43,0.53,0.23,0.53,0.55,0.53,0.43,0.37,0.23,0.31,0.53,0.43,0.23,0.37,0.44,0.82,0.43,0.23,0.42,0.51,0.55,0.53,0.27,0.31,0.27,0.51,0.55,0.23,0.23,0.34,0.55,0.23,0.31,0.53,0.27,0.37,0.23,0.43,0.47,0.52,0.43,0.37,0.27,0.82,0.43,0.55,0.31,0.23,0.23,0.31,0.53,0.43,0.23,0.57,0.67,0.53,0.23,0.69,0.27,0.31,0.53,0.23,0.31,0.53,0.43,0.23,0.53,0.43,0.55,0.37,0.27,0.31,0.46,0.23,0.51,0.3,0.23,0.58,0.23" style="fill:rgb(0,0,0);font-family:MinionPro-Regular;font-size:9.0px;stroke:none;">been comparatively investigated under the same condition. In this experiment, the ECF with the density of ~ </text>
   <text y="646.659" x="155.643,160.008,161.178,168.521,172.778,175.802,179.654" svgx:width="0.48,0.23,0.82,0.47,0.33,0.42,0.82" style="fill:rgb(0,0,0);font-family:MinionPro-Regular;font-size:9.0px;stroke:none;">5 mg/cm</text>
   <text y="643.602" x="187.062" svgx:width="0.48" style="fill:rgb(0,0,0);font-family:MinionPro-Regular;font-size:5.85px;stroke:none;">3</text>
   <text y="646.662" x="189.899,191.897,198.107,202.076,205.424,207.422,211.337,216.052,218.842,220.84,223.297,228.093,230.829,235.464,237.462,240.279,246.416,251.051,253.049,255.893,260.744,263.201,268.169,270.167,275.071,277.393,284.736,288.084,290.082,296.319,298.667,301.511,306.362,308.36,311.203,316.054,318.511,322.309,326.853,331.784,335.654,338.956,342.376,346.246,349.594,351.591,356.118,358.828,360.826,365.19,367.287,371.652,372.779,380.195,387.611,389.609,392.768,398.033,402.398,404.495,408.86,410.021,417.365,421.621,424.78,426.778,430.693,435.625,440.422,442.42,446.785,448.882,453.247,454.409,461.825,469.241,471.239,474.398,479.663,484.028,486.125,490.49,491.651,498.995,503.251,506.41,508.507,510.505,513.772,517.642,520.945,525.787,529.701,533.615,536.45,538.843,542.983,546.816,549.075,552.593,554.645" svgx:width="0.23,0.69,0.44,0.37,0.23,0.42,0.53,0.31,0.23,0.27,0.55,0.31,0.51,0.23,0.31,0.69,0.51,0.23,0.31,0.53,0.27,0.55,0.23,0.54,0.25,0.82,0.37,0.23,0.69,0.27,0.31,0.53,0.23,0.31,0.53,0.27,0.42,0.5,0.55,0.43,0.37,0.37,0.43,0.37,0.23,0.51,0.3,0.23,0.48,0.23,0.48,0.23,0.82,0.82,0.23,0.35,0.58,0.48,0.23,0.48,0.23,0.82,0.47,0.35,0.23,0.44,0.55,0.53,0.23,0.48,0.23,0.48,0.23,0.82,0.82,0.23,0.35,0.58,0.48,0.23,0.48,0.23,0.82,0.47,0.35,0.23,0.23,0.37,0.43,0.37,0.52,0.43,0.42,0.31,0.27,0.46,0.43,0.25,0.46,0.23,0.23" style="fill:rgb(0,0,0);font-family:MinionPro-Regular;font-size:9.0px;stroke:none;"> was cut into two thin films with thicknesses of 2.8 mm (~1.8 mg) and 4.9 mm (~3.2 mg), respectively. </text>
   <text y="656.661" x="155.636,165.371,169.326,172.832,176.792,179.087,184.334,190.449,195.345,197.64,201.56,203.972,207.972,211.973,214.894,218.247,223.049,227.932,231.892,235.325,237.62,243.845,247.8,251.153,255.109,257.404,260.333,265.235,269.19,274.248,276.543,280.599,283.987,287.494,291.449,298.861,303.501,305.913,309.914,314.796,317.091,319.634,324.517,327.339,332.064,334.359,339.385,341.932,345.267,347.814,352.426,357.484,359.779,363.721,367.641,370.093,372.474,375.908,378.203,383.112,388.131,393.013,396.973,400.443,402.738,405.668,410.569,414.529,416.824,420.834,425.618,430.195,434.421,438.381,440.676,444.163,448.164,455.63,459.59,461.885,465.845,470.224,475.151,479.111,482.635,485.177,492.643,496.599,501.482,504.412,508.539,510.947,513.242,517.184,521.797,526.815,531.702,534.136,537.057,539.604,544.216,549.199,552.637,554.688" svgx:width="1.07,0.43,0.37,0.43,0.23,0.57,0.67,0.53,0.23,0.43,0.25,0.43,0.42,0.31,0.37,0.51,0.53,0.43,0.37,0.23,0.69,0.43,0.37,0.43,0.23,0.31,0.53,0.43,0.55,0.23,0.44,0.37,0.37,0.43,0.82,0.51,0.25,0.43,0.53,0.23,0.27,0.55,0.31,0.51,0.23,0.54,0.27,0.36,0.27,0.51,0.55,0.23,0.42,0.43,0.25,0.25,0.37,0.23,0.53,0.55,0.53,0.43,0.37,0.23,0.31,0.53,0.43,0.23,0.44,0.51,0.51,0.46,0.43,0.23,0.37,0.44,0.82,0.43,0.23,0.43,0.47,0.52,0.43,0.37,0.27,0.82,0.43,0.55,0.31,0.44,0.25,0.23,0.42,0.51,0.55,0.53,0.27,0.31,0.27,0.51,0.55,0.37,0.23,0.23" style="fill:rgb(0,0,0);font-family:MinionPro-Regular;font-size:9.0px;stroke:none;">These ECF electrodes were then assembled into Li-ion cells under the above same experimental conditions. </text>
   <text y="666.66" x="155.636,160.496,163.007,167.318,172.196,175.517,179.441" svgx:width="0.53,0.27,0.47,0.53,0.37,0.43,0.23" style="fill:rgb(0,0,0);font-family:MinionPro-Regular;font-size:9.0px;stroke:none;">Figure </text>
   <text y="666.66" x="181.628,186.047,189.26,195.578,198.791,200.978,204.948,209.934,214.785,216.972,220.185,225.576" svgx:width="0.48,0.35,0.69,0.35,0.23,0.44,0.55,0.53,0.23,0.35,0.59,0.35" style="fill:rgb(0,0,255);font-family:MinionPro-Regular;font-size:9.0px;stroke:none;">5(A) and (B)</text>
   <text y="666.66" x="228.789,230.976,234.343,239.212,243.757,250.021,252.208,255.106,259.976,263.9,266.087,270.398,274.493,276.807,281.073,285.042,290.029,294.718,298.075,300.973,304.852,307.741,310.252,314.158,316.345,320.198,325.076,329.045,332.411,336.651,340.575,343.878,348.729,351.213,354.687,358.54,363.418,367.387,370.753,374.992,378.916,381.103,385.072,389.95,393.649,397.843,401.767,405.169,407.356,411.937,414.7,416.887,422.098,428.182,433.042,435.229,439.118,441.494,445.463,449.432,452.321,455.642,460.412,465.263,469.187,472.589,474.776,478.656,481.5,483.687" svgx:width="0.23,0.37,0.53,0.51,0.69,0.23,0.31,0.53,0.43,0.23,0.47,0.44,0.25,0.46,0.44,0.55,0.51,0.37,0.31,0.44,0.31,0.27,0.42,0.23,0.42,0.53,0.44,0.37,0.47,0.43,0.36,0.53,0.27,0.37,0.42,0.53,0.44,0.37,0.47,0.43,0.23,0.42,0.53,0.37,0.46,0.43,0.37,0.23,0.51,0.3,0.23,0.57,0.67,0.53,0.23,0.43,0.25,0.43,0.42,0.31,0.37,0.51,0.53,0.43,0.37,0.23,0.44,0.31,0.23,0.48" style="fill:rgb(0,0,0);font-family:MinionPro-Regular;font-size:9.0px;stroke:none;"> show the galvanostatic charge-discharge curves of ECF electrodes at 1</text>
   <text y="663.602" x="488.098,490.28" svgx:width="0.37,0.31" style="fill:rgb(0,0,0);font-family:MinionPro-Regular;font-size:5.85px;stroke:none;">st</text>
   <text y="666.662" x="492.128,494.315,498.284,503.27,508.121,510.308,514.727,519.146" svgx:width="0.23,0.44,0.55,0.53,0.23,0.48,0.48,0.48" style="fill:rgb(0,0,0);font-family:MinionPro-Regular;font-size:9.0px;stroke:none;"> and 100</text>
   <text y="663.602" x="523.565,525.448" svgx:width="0.31,0.53" style="fill:rgb(0,0,0);font-family:MinionPro-Regular;font-size:5.85px;stroke:none;">th</text>
   <text y="666.662" x="528.637,530.824,534.874,539.032,542.884,545.26,549.184,552.586,554.638" svgx:width="0.23,0.42,0.46,0.42,0.25,0.43,0.37,0.23,0.23" style="fill:rgb(0,0,0);font-family:MinionPro-Regular;font-size:9.0px;stroke:none;"> cycles, </text>
   <text y="676.661" x="155.641,159.004,162.973,166.372,171.311,175.322,179.333,182.265,184.756,188.992,192.923,195.279,198.894,201.09,203.421,207.775,210.331,217.846,220.444,222.891,226.902,230.346,232.702,236.318,238.514,240.845,243.785,248.697,252.666,254.997,259.935,264.568,267.4,271.369,276.262,279.194,281.775,285.912,288.333,290.664,295.287,298.095,300.426,303.367,308.279,312.248,314.579,318.53,322.46,324.924,327.316,330.763,333.094,337.744,342.667,345.223,349.118,353.805,356.16,360.435,362.766,367.662,371.673,375.624,378.988,383.009,387.074,390.59,394.601,399.497,401.828,404.724,408.087,412.711,420.226,422.557,425.498,430.409,434.378,436.709,441.341,446.279,450.248,455.315,457.646,461.597,464.153,467.518,471.529,476.452,478.897,481.786,484.117,489.056,493.688,496.52,500.489,505.382,508.314,510.894,515.032,517.453,519.784,522.617,527.351,529.682,535.046,539.51,541.706,546.169,547.42,552.592,554.644" svgx:width="0.37,0.43,0.37,0.52,0.43,0.42,0.31,0.27,0.46,0.43,0.25,0.46,0.23,0.23,0.47,0.27,0.82,0.27,0.25,0.44,0.37,0.25,0.46,0.23,0.23,0.31,0.53,0.43,0.23,0.52,0.51,0.31,0.43,0.55,0.31,0.27,0.44,0.25,0.23,0.51,0.3,0.23,0.31,0.53,0.43,0.23,0.42,0.43,0.25,0.25,0.37,0.23,0.51,0.53,0.27,0.42,0.5,0.25,0.46,0.23,0.53,0.43,0.42,0.37,0.43,0.44,0.37,0.43,0.53,0.23,0.3,0.37,0.51,0.82,0.23,0.31,0.53,0.43,0.23,0.51,0.52,0.43,0.55,0.23,0.42,0.27,0.37,0.42,0.53,0.27,0.31,0.23,0.52,0.51,0.31,0.43,0.55,0.31,0.27,0.44,0.25,0.23,0.31,0.51,0.23,0.58,0.48,0.23,0.48,0.23,0.7,0.23,0.23" style="fill:rgb(0,0,0);font-family:MinionPro-Regular;font-size:9.0px;stroke:none;">respectively. Similarly, the potential of the cells quickly decreased from the open circuit potential to ~1.0 V. </text>
   <text y="686.66" x="155.641,162.346,164.848,169.907,173.822,177.134,181.049,185.891,188.726,190.877,197.159,199.554,202.443,207.339,209.49,212.379,217.24,221.155,223.306,228.004,231.316,235.303,239.587,242.089,246.671,251.513,254.906,257.057,262.259,268.334,273.185,275.336,279.215,281.582,285.542,289.503,292.383,295.695,300.456,305.298,309.213,311.364,314.568,317.457,322.353,324.855,328.698,333.288,338.266,342.181,345.529,348.922,351.064,353.215,357.625,362.035,364.177,368.587,369.832,377.293,384.754,387.958,390.1,392.251,395.14,400.0,403.915,406.066,408.928,415.111,419.791,421.942,424.832,429.728,432.23,437.243,442.22,446.135,449.564,451.715,456.917,462.992,467.843,469.994,473.873,476.24,480.201,484.161,487.041,490.353,495.114,499.956,503.871,507.264,509.415,513.987,519.046,521.35,525.571,527.722,532.42,535.732,539.647,543.112,547.027,551.869,554.614" svgx:width="0.74,0.27,0.56,0.43,0.37,0.43,0.55,0.31,0.23,0.69,0.27,0.31,0.53,0.23,0.31,0.53,0.43,0.23,0.52,0.37,0.43,0.46,0.27,0.51,0.53,0.37,0.23,0.57,0.67,0.53,0.23,0.43,0.25,0.43,0.42,0.31,0.37,0.51,0.53,0.43,0.23,0.35,0.31,0.53,0.27,0.42,0.5,0.55,0.43,0.37,0.37,0.23,0.23,0.48,0.48,0.23,0.48,0.23,0.82,0.82,0.35,0.23,0.23,0.31,0.53,0.43,0.23,0.31,0.69,0.51,0.23,0.31,0.53,0.27,0.55,0.55,0.43,0.37,0.23,0.57,0.67,0.53,0.23,0.43,0.25,0.43,0.42,0.31,0.37,0.51,0.53,0.43,0.37,0.23,0.51,0.55,0.25,0.46,0.23,0.52,0.37,0.43,0.37,0.43,0.55,0.31,0.23" style="fill:rgb(0,0,0);font-family:MinionPro-Regular;font-size:9.0px;stroke:none;">Different with the previous ECF electrode (thickness: 13.7 mm), the two thinner ECF electrodes only present </text>
   <text y="696.659" x="155.641,160.232,165.227,169.16,171.374,176.28,180.879,183.678,187.611,192.471,195.37,197.917,202.021,204.406,206.62,211.382,213.794,217.683,220.482,224.469,228.358,233.245,235.459,238.826,241.733,245.712,249.249,252.147,254.667,259.627,263.947,266.161,269.024,272.354,276.944,284.423,286.637,291.965,296.393,298.553,302.981,304.231,309.37,311.53,313.744,323.455,327.388,329.602,333.463,338.351,342.329,345.705,349.953,353.886,356.1,360.078,365.073,369.933,372.147,377.007,379.501,382.984,386.845,391.733,395.711,399.087,403.335,407.268,409.482,413.424,417.312,422.182,426.241,430.156,432.569,435.467,437.987,441.92,445.331,447.545,451.524,456.519,461.379,463.593,467.508,472.107,477.04,479.425,484.015,491.494,494.014,497.929,500.143,504.076,511.366,515.281,517.801,521.734,526.73,530.789,535.028,537.242,541.131,543.984,546.198" svgx:width="0.51,0.55,0.43,0.23,0.52,0.51,0.31,0.43,0.55,0.31,0.27,0.44,0.25,0.23,0.52,0.25,0.44,0.31,0.43,0.44,0.53,0.23,0.37,0.31,0.44,0.37,0.31,0.27,0.55,0.47,0.23,0.3,0.37,0.51,0.82,0.23,0.58,0.48,0.23,0.48,0.23,0.7,0.23,0.23,1.07,0.43,0.23,0.42,0.53,0.44,0.37,0.47,0.43,0.23,0.44,0.55,0.53,0.23,0.53,0.27,0.37,0.42,0.53,0.44,0.37,0.47,0.43,0.23,0.42,0.44,0.52,0.44,0.42,0.27,0.31,0.27,0.43,0.37,0.23,0.44,0.55,0.53,0.23,0.42,0.51,0.53,0.25,0.51,0.82,0.27,0.42,0.23,0.43,0.8,0.42,0.27,0.43,0.55,0.42,0.46,0.23,0.44,0.31,0.23,0.48" style="fill:rgb(0,0,0);font-family:MinionPro-Regular;font-size:9.0px;stroke:none;">one potential plateau starting from ~1.0 V. The charge and discharge capacities and coulomic efficiency at 1</text>
   <text y="693.602" x="550.665,552.853" svgx:width="0.37,0.31" style="fill:rgb(0,0,0);font-family:MinionPro-Regular;font-size:5.85px;stroke:none;">st</text>
   <text y="696.662" x="554.638" svgx:width="0.23" style="fill:rgb(0,0,0);font-family:MinionPro-Regular;font-size:9.0px;stroke:none;"> </text>
   <text y="706.661" x="155.641,159.52,164.416,169.177,171.13,175.459,179.788" svgx:width="0.44,0.55,0.53,0.23,0.48,0.48,0.48" style="fill:rgb(0,0,0);font-family:MinionPro-Regular;font-size:9.0px;stroke:none;">and 100</text>
   <text y="703.602" x="184.111,185.937" svgx:width="0.31,0.53" style="fill:rgb(0,0,0);font-family:MinionPro-Regular;font-size:5.85px;stroke:none;">th</text>
   <text y="706.662" x="189.066,191.019,194.979,199.047,202.809,205.095,208.929,212.241,214.194,220.297,224.131,227.362,231.196,233.149,236.983,241.24,244.039,247.387,251.347,255.226,257.926,261.805,266.566,268.519,271.282,274.513,279.004,286.384,288.337,293.107,295.528,299.775,301.836" svgx:width="0.23,0.42,0.46,0.42,0.25,0.43,0.37,0.23,0.69,0.43,0.37,0.43,0.23,0.43,0.47,0.31,0.37,0.44,0.42,0.31,0.43,0.53,0.23,0.3,0.37,0.51,0.82,0.23,0.53,0.27,0.47,0.23,0.23" style="fill:rgb(0,0,0);font-family:MinionPro-Regular;font-size:9.0px;stroke:none;"> cycles were extracted from Fig. </text>
   <text y="706.662" x="303.771,308.1,311.223,317.451,320.574,322.527,326.406,331.302,336.063,338.016,341.139,346.44" svgx:width="0.48,0.35,0.69,0.35,0.23,0.44,0.55,0.53,0.23,0.35,0.59,0.35" style="fill:rgb(0,0,255);font-family:MinionPro-Regular;font-size:9.0px;stroke:none;">5(A) and (B)</text>
   <text y="706.662" x="349.563,351.516,355.395,360.291,365.052,367.005,370.281,375.06,379.515,385.716,390.648,392.601,395.022,399.954,401.907,406.641,410.529,415.047,417.333,421.167" svgx:width="0.23,0.44,0.55,0.53,0.23,0.37,0.53,0.51,0.69,0.55,0.23,0.27,0.55,0.23,0.62,0.44,0.51,0.25,0.43,0.23" style="fill:rgb(0,0,0);font-family:MinionPro-Regular;font-size:9.0px;stroke:none;"> and shown in Table </text>
   <text y="706.662" x="423.102" svgx:width="0.48" style="fill:rgb(0,0,255);font-family:MinionPro-Regular;font-size:9.0px;stroke:none;">1</text>
   <text y="706.662" x="427.431,429.492,431.445,437.484,439.77,443.658,447.537,450.849,453.072,456.555,458.616,460.569,465.231,469.731,472.539,477.354,479.307,483.069,487.857,491.736,495.012,499.161,502.995,504.948,508.827,513.723,518.484,520.437,525.198,527.592,530.976,534.738,539.526,543.405,546.681,550.83,554.655" svgx:width="0.23,0.23,0.67,0.25,0.43,0.44,0.37,0.25,0.46,0.23,0.23,0.51,0.51,0.31,0.53,0.23,0.42,0.53,0.44,0.37,0.47,0.43,0.23,0.44,0.55,0.53,0.23,0.53,0.27,0.37,0.42,0.53,0.44,0.37,0.47,0.43,0.23" style="fill:rgb(0,0,0);font-family:MinionPro-Regular;font-size:9.0px;stroke:none;">. Clearly, both charge and discharge </text>
   <text y="716.661" x="155.64,159.457,163.221,167.965,171.898,175.687,177.974,180.748,183.142,186.949,190.234,191.953,196.419,199.065,200.784,203.566,208.319,212.126,213.845,217.634,221.406,223.711,225.945,229.23,230.949,234.803,238.008,241.815,243.534,246.775,249.548,252.754,257.219,262.054,266.312,268.509,272.622,274.341,279.075,282.882,287.662,291.469,296.34,301.074,304.881,309.617,312.344,314.063,318.529,323.434,325.153,328.925,331.184,335.037,338.889,341.662,344.868,349.522,354.256,358.063,359.782,362.564,367.352,369.746,373.483,377.966,382.837,386.644,389.884,393.169,395.203,396.922,406.509,410.316,412.035" svgx:width="0.42,0.44,0.52,0.44,0.42,0.27,0.31,0.27,0.43,0.37,0.23,0.51,0.3,0.23,0.31,0.53,0.43,0.23,0.42,0.43,0.25,0.25,0.37,0.23,0.44,0.37,0.43,0.23,0.37,0.31,0.37,0.51,0.55,0.47,0.25,0.46,0.23,0.53,0.43,0.52,0.43,0.55,0.53,0.43,0.55,0.31,0.23,0.51,0.55,0.23,0.43,0.25,0.43,0.42,0.31,0.37,0.51,0.53,0.43,0.23,0.31,0.53,0.27,0.42,0.5,0.55,0.43,0.37,0.37,0.23,0.23,1.07,0.43,0.23,0.48" style="fill:rgb(0,0,0);font-family:MinionPro-Regular;font-size:9.0px;stroke:none;">capacities of the cells are strongly dependent on electrode thickness. The 1</text>
   <text y="713.602" x="416.377,418.483" svgx:width="0.37,0.31" style="fill:rgb(0,0,0);font-family:MinionPro-Regular;font-size:5.85px;stroke:none;">st</text>
   <text y="716.662" x="420.258,421.977,426.711,429.079,432.437,436.174,440.936,444.79,448.04,452.163,455.97,457.689,461.542,466.412,471.146,472.865,476.601,481.364,485.217,488.468,492.591,496.398,498.117,501.935,505.697,510.442,514.375,518.164,520.452,523.225,525.619,529.426,532.711,534.43,538.896,541.542,543.261,546.043,550.796,554.621" svgx:width="0.23,0.53,0.27,0.37,0.42,0.53,0.44,0.37,0.47,0.43,0.23,0.44,0.55,0.53,0.23,0.42,0.53,0.44,0.37,0.47,0.43,0.23,0.42,0.44,0.52,0.44,0.42,0.27,0.31,0.27,0.43,0.37,0.23,0.51,0.3,0.23,0.31,0.53,0.43,0.23" style="fill:rgb(0,0,0);font-family:MinionPro-Regular;font-size:9.0px;stroke:none;"> discharge and charge capacities of the </text>
   <text y="726.661" x="155.64,159.96,162.012,166.332,169.536,176.907,184.278,186.177,191.289,197.274,202.035,203.934,207.722,209.999,213.869,217.739,220.529,223.751,228.421,233.173,236.998,238.897,242.767,245.989,249.814,251.713,256.033,260.353,264.673,266.572,270.442,275.329,280.081,281.98,286.3,290.62,294.94,296.076,303.447,309.693,314.499,317.478,321.716,323.768,325.667,328.889,332.714,335.972,340.769,344.638,348.508,351.298,353.647,357.742,361.531,363.745,367.219,369.271,371.17,377.397,382.203,384.615,388.368,393.174,395.073,398.943,402.165,405.99,407.889,412.695,415.107,419.381,424.151,427.976,431.315,433.214,436.013,440.791,444.662,449.585,451.484,454.283,459.062,462.842,465.587,467.486,471.968,474.632,476.531,480.338,484.82,489.536,493.631,497.456,502.208,504.998,507.41,511.892,516.788,520.784,523.061,524.96,529.216,532.555,536.335,540.988,545.794,548.098,550.789,554.614" svgx:width="0.48,0.23,0.48,0.36,0.82,0.82,0.23,0.57,0.67,0.53,0.23,0.43,0.25,0.43,0.42,0.31,0.37,0.51,0.53,0.43,0.23,0.44,0.37,0.43,0.23,0.48,0.48,0.48,0.23,0.44,0.55,0.53,0.23,0.48,0.48,0.48,0.23,0.82,0.69,0.53,0.33,0.47,0.23,0.23,0.37,0.43,0.37,0.52,0.43,0.42,0.31,0.27,0.46,0.43,0.25,0.46,0.23,0.23,0.69,0.53,0.27,0.42,0.53,0.23,0.44,0.37,0.43,0.23,0.53,0.27,0.47,0.53,0.43,0.37,0.23,0.31,0.53,0.44,0.55,0.23,0.31,0.53,0.44,0.31,0.23,0.51,0.3,0.23,0.42,0.51,0.55,0.46,0.43,0.55,0.31,0.27,0.51,0.55,0.44,0.25,0.23,0.47,0.37,0.44,0.52,0.53,0.27,0.31,0.43,0.23" style="fill:rgb(0,0,0);font-family:MinionPro-Regular;font-size:9.0px;stroke:none;">2.8-mm ECF electrode are 921 and 410 mAh/g, respectively, which are higher than that of conventional graphite </text>
   <text y="736.66" x="155.64,159.511,164.4,169.073,173.825,177.65,180.953,182.897,187.381,190.045,191.989,196.309,200.629,204.949,206.085,213.456,219.703,224.509,227.488" svgx:width="0.44,0.55,0.51,0.53,0.43,0.37,0.23,0.51,0.3,0.23,0.48,0.48,0.48,0.23,0.82,0.69,0.53,0.33,0.47" style="fill:rgb(0,0,0);font-family:MinionPro-Regular;font-size:9.0px;stroke:none;">anodes of 372 mAh/g</text>
   <text y="733.602" x="231.706,234.514" svgx:width="0.48,0.48" style="fill:rgb(0,0,255);font-family:MinionPro-Regular;font-size:5.85px;stroke:none;">25</text>
   <text y="736.662" x="237.325,239.269,243.142,248.03,252.782,254.726,257.527,262.299,266.124,268.068,271.292,275.117,279.916,284.399,287.83,290.523,294.395,299.147,301.091,305.258,309.256,311.426,316.205,320.03,321.974,326.458,329.122,331.066,335.386,339.706,344.026,345.163,352.534,358.782,363.588,366.567,370.779,372.723,377.207,379.871,381.815,386.072,389.411,393.193,397.848,402.654,404.96,407.752,410.164,413.944,417.815,422.567,424.511,429.165,433.649,436.873,441.358,446.281,449.485,454.237,458.73,463.528,467.4,472.152,474.096,477.932,481.804,485.143,489.797,494.281,499.204,501.148,503.733,508.37,512.242,519.542" svgx:width="0.23,0.44,0.55,0.53,0.23,0.31,0.53,0.43,0.23,0.37,0.43,0.52,0.51,0.37,0.31,0.43,0.53,0.23,0.46,0.44,0.25,0.53,0.43,0.23,0.51,0.3,0.23,0.48,0.48,0.48,0.23,0.82,0.69,0.53,0.33,0.47,0.23,0.51,0.3,0.23,0.47,0.37,0.44,0.52,0.53,0.27,0.31,0.27,0.42,0.43,0.53,0.23,0.51,0.51,0.37,0.51,0.55,0.36,0.53,0.51,0.52,0.43,0.53,0.23,0.42,0.44,0.37,0.51,0.51,0.55,0.23,0.3,0.51,0.44,0.82,0.37" style="fill:rgb(0,0,0);font-family:MinionPro-Regular;font-size:9.0px;stroke:none;"> and the reported value of 310 mAh/g of graphitized boron-doped carbon foams</text>
   <text y="733.602" x="522.869,525.677" svgx:width="0.48,0.48" style="fill:rgb(0,0,255);font-family:MinionPro-Regular;font-size:5.85px;stroke:none;">16</text>
   <text y="736.662" x="528.487,530.539,532.483,541.117,545.888,549.713,554.635" svgx:width="0.23,0.23,0.97,0.53,0.43,0.55,0.23" style="fill:rgb(0,0,0);font-family:MinionPro-Regular;font-size:9.0px;stroke:none;">. When </text>
  </g>
  <rect style="stroke:blue;stroke-width:0.3;" x="155.638" y="64.138" height="146.64" width="396.0" title="4"/>
  <text y="64.138" class="image" id="image.4.1" width="396" height="146" x="155.638">image.4.1.156_552.64_211</text>
  <path style="fill:none;stroke:rgb(131,144,151);stroke-width:0.3;" d="M159.130 221.680 L552.640 221.680 "/>
  <path style="fill:none;stroke:rgb(131,144,151);stroke-width:1.0;" d="M156.140 221.680 L156.140 221.680 M554.140 221.680 L554.140 221.680 "/>
  <g begin="text">
   <text y="211.683" x="155.638,160.552,163.207,167.662,172.657,176.221,180.154,181.909,186.409" svgx:width="0.55,0.29,0.49,0.56,0.4,0.44,0.22,0.5,0.25" style="fill:rgb(0,0,0);font-family:MinionPro-Bold;font-size:9.0px;stroke:none;">Figure 3.</text>
   <text y="211.683" x="188.695,190.765,193.195,198.946,202.816,210.16,214.03,218.953,220.789,224.047,228.843,232.713,236.583,239.373,242.595,247.185,250.56,254.367,258.857,263.43,267.561,269.397" svgx:width="0.23,0.55,0.62,0.44,0.82,0.44,0.55,0.23,0.37,0.52,0.43,0.42,0.31,0.37,0.51,0.37,0.42,0.51,0.52,0.46,0.23,0.35" style="fill:rgb(0,0,0);font-family:MinionPro-Regular;font-size:9.0px;stroke:none;"> Raman spectroscopy (</text>
   <text y="211.683" x="272.511" svgx:width="0.71" style="fill:rgb(0,0,0);font-family:MinionPro-Bold;font-size:9.0px;stroke:none;">A</text>
   <text y="211.683" x="278.865,281.979,283.815,287.685,292.572,297.324,299.16,305.046,310.635,317.25,319.086,322.839,327.618,331.488,334.827,338.778,342.648,345.339,349.164,352.557,354.942,358.2,360.99,363.402,367.209,369.045" svgx:width="0.35,0.23,0.44,0.55,0.53,0.23,0.65,0.62,0.74,0.23,0.42,0.53,0.44,0.37,0.44,0.42,0.31,0.43,0.37,0.27,0.37,0.31,0.27,0.42,0.23,0.35" style="fill:rgb(0,0,0);font-family:MinionPro-Regular;font-size:9.0px;stroke:none;">) and XRD characteristic (</text>
   <text y="211.683" x="372.159" svgx:width="0.64" style="fill:rgb(0,0,0);font-family:MinionPro-Bold;font-size:9.0px;stroke:none;">B</text>
   <text y="211.683" x="377.892,381.006,382.842,387.324,389.988,391.824,395.613,397.916,401.84,405.099,407.888,410.3,414.107,415.943,419.777,423.647,426.986,431.639,436.12,441.043,442.879,445.462,450.097,453.967,461.338" svgx:width="0.35,0.23,0.51,0.3,0.23,0.43,0.25,0.44,0.37,0.31,0.27,0.42,0.23,0.42,0.44,0.37,0.51,0.51,0.55,0.23,0.3,0.51,0.44,0.82,0.23" style="fill:rgb(0,0,0);font-family:MinionPro-Regular;font-size:9.0px;stroke:none;">) of elastic carbon foam.</text>
  </g>
 </g>
</svg>
