<?xml version="1.0" encoding="UTF-8"?>
<svg height="774.244" width="567.057" xmlns="http://www.w3.org/2000/svg">
 <g id="page" xmlns:svgx="http://www.xml-cml.org/schema/svgx">
  <g begin="text">
   <text y="22.46" x="40.638,48.208,55.778,63.055,66.145,71.865,77.215,81.135,86.765,90.565,95.995,99.085,103.915,109.695,118.435,121.635,126.125,130.955,133.725,139.15,144.87,148.79,151.56,155.19,157.96,162.79,166.59,172.02,177.78,183.56,187.36,191.28,195.77" svgx:width="0.71,0.71,0.71,0.26,0.53,0.49,0.35,0.52,0.34,0.5,0.26,0.44,0.53,0.83,0.28,0.4,0.44,0.23,0.5,0.53,0.35,0.23,0.32,0.23,0.44,0.34,0.5,0.53,0.53,0.34,0.35,0.4,0.28" style="fill:rgb(255,255,255);font-family:Corbel;font-size:10.0px;stroke:none;">www.nature.com/scientificreports/</text>
  </g>
  <g begin="text">
   <text y="764.23" x="549.393" svgx:width="0.52" style="fill:rgb(131,144,151);font-family:Corbel;font-size:10.0px;stroke:none;">9</text>
  </g>
  <g begin="text">
   <text y="764.244" x="40.794,45.642,50.786,53.186,58.026,64.026,68.898,71.298,75.762,78.162" svgx:width="0.55,0.59,0.25,0.55,0.7,0.56,0.25,0.5,0.25,0.59" style="fill:rgb(131,144,151);font-family:Corbel;font-size:8.0px;stroke:none;">Scientific</text>
   <text y="764.244" x="83.162" svgx:width="0.2" style="fill:rgb(0,0,0);font-family:Corbel;font-size:8.0px;stroke:none;"> </text>
   <text y="764.244" x="84.762,90.218,95.194,100.434,106.738,112.194,117.186" svgx:width="0.63,0.57,0.6,0.73,0.63,0.57,0.58" style="fill:rgb(131,144,151);font-family:Corbel-Bold;font-size:8.0px;stroke:none;">RepoRts</text>
   <text y="764.244" x="122.082,123.522,125.338,126.778,130.88" svgx:width="0.2,0.23,0.2,0.51,0.26" style="fill:rgb(0,0,0);font-family:Corbel;font-size:8.0px;stroke:none;"> | 7:</text>
   <text y="764.244" x="132.994,134.45,138.386,142.322,146.258,150.194" svgx:width="0.18,0.49,0.49,0.49,0.49,0.18" style="fill:rgb(0,0,0);font-family:MyriadPro-It;font-size:8.0px;stroke:none;"> 1440 </text>
   <text y="764.244" x="151.65,153.091,154.907,156.35,161.718,167.558,169.526,171.638,175.742,179.846,181.958,186.062,190.166,194.27,198.374,200.574,203.806,207.91,212.014,216.118,220.222,224.326,226.99,231.094,235.198,239.302,241.966,246.07,250.174,254.278,258.382,262.486,265.15" svgx:width="0.2,0.23,0.2,0.67,0.73,0.25,0.26,0.51,0.51,0.26,0.51,0.51,0.51,0.51,0.28,0.4,0.51,0.51,0.51,0.51,0.51,0.33,0.51,0.51,0.51,0.33,0.51,0.51,0.51,0.51,0.51,0.33,0.48" style="fill:rgb(0,0,0);font-family:Corbel;font-size:8.0px;stroke:none;"> | DOI:10.1038/s41598-017-01638-y</text>
  </g>
  <path style="fill:none;stroke:rgb(0,0,0);stroke-width:1.0;" d="M40.640 752.550 L554.640 752.550 "/>
  <g begin="text">
   <text y="56.5" x="155.638,162.865,167.716,173.392,179.497,185.591,193.83,196.602,202.245,208.383,214.433,220.076,229.448,235.091,241.196,245.365" svgx:width="0.66,0.44,0.52,0.56,0.55,0.75,0.25,0.51,0.56,0.55,0.51,0.85,0.51,0.56,0.38,0.42" style="fill:rgb(0,0,0);font-family:Corbel-Bold;font-size:11.0px;stroke:none;">Acknowledgements</text>
   <text y="66.5" x="155.638,163.546,167.416,169.405,173.401,177.197,181.738,186.667,191.155,197.425,199.747,203.658,208.455,212.637,216.507,218.496,221.337,226.148,230.018,232.007,236.867,241.805,245.717,250.646,254.499,256.98,261.017,263.339,265.328,268.629,273.341,278.0,282.839,287.363,290.834,293.624,295.613,298.41,301.673,306.197,313.613,315.602,318.443,323.255,327.125,329.114,335.501,341.735,346.046,352.31,354.299,359.456,364.568,368.879,375.04,379.675,385.309,387.298,390.457,397.189,403.921,409.852,414.217,418.582,424.846,431.578,435.943,440.308,446.572,449.731,451.828,453.817,463.462,467.332,469.321,472.621,475.317,480.141,484.873,489.049,491.038,494.859,497.649,499.638,502.353,504.834,508.746,513.639,517.896,522.189,524.646,526.635,533.139,537.663,541.097,548.484,552.521,554.798" svgx:width="0.97,0.43,0.23,0.44,0.42,0.5,0.55,0.51,0.69,0.25,0.43,0.53,0.47,0.43,0.23,0.31,0.53,0.43,0.23,0.54,0.55,0.44,0.55,0.42,0.27,0.44,0.25,0.23,0.37,0.53,0.52,0.52,0.51,0.37,0.31,0.23,0.3,0.37,0.51,0.82,0.23,0.31,0.53,0.43,0.23,0.74,0.69,0.47,0.69,0.23,0.57,0.56,0.47,0.67,0.51,0.62,0.23,0.35,0.74,0.74,0.65,0.48,0.48,0.69,0.74,0.48,0.48,0.69,0.35,0.23,0.23,1.07,0.43,0.23,0.37,0.31,0.53,0.53,0.46,0.23,0.44,0.31,0.23,0.33,0.27,0.44,0.55,0.47,0.47,0.27,0.23,0.74,0.51,0.37,0.82,0.44,0.25,0.23" style="fill:rgb(0,0,0);font-family:MinionPro-Regular;font-size:9.0px;stroke:none;">We acknowledge the financial support from the NASA EPSCoR (NNX14AN22A). The study at Jiangxi Normal </text>
   <text y="76.499" x="155.638,161.875,166.798,169.147,173.242,177.067,180.352,183.655,185.959,188.73,192.861,194.706,200.871,204.795,208.098,209.943,213.939,216.189,219.564,224.154,225.999,229.257,234.053,238.535,243.386,246.761,251.243,254.465,258.335,263.087,264.932,269.36,273.491,275.336,278.135,282.905,286.73,288.575,295.028,298.808,301.598,304.01,308.491,313.388,317.383,319.66,321.505,327.958,331.738,334.394,339.173,342.512,346.507,348.784,350.629,355.021,358.828,361.24,365.065,369.952,373.759,377.584,379.429,384.019,388.51,393.289,398.176,402.955,406.735,409.524,411.936,416.418,421.341,423.186,427.668,430.332,432.177,438.207,443.013,445.425,450.321,454.272,456.117,459.231,463.551,467.871,472.191,476.511,480.831,485.151,489.471,493.791,496.905,498.75,502.621,507.508,512.26,514.105,516.904,521.674,525.499,527.344,533.797,537.577,540.232,545.011,548.35,552.346,554.623" svgx:width="0.74,0.55,0.27,0.46,0.43,0.37,0.37,0.27,0.31,0.46,0.23,0.69,0.44,0.37,0.23,0.44,0.25,0.37,0.51,0.23,0.37,0.52,0.51,0.55,0.37,0.51,0.37,0.43,0.53,0.23,0.51,0.46,0.23,0.31,0.53,0.43,0.23,0.74,0.44,0.31,0.27,0.51,0.55,0.44,0.25,0.23,0.74,0.44,0.31,0.53,0.37,0.44,0.25,0.23,0.47,0.42,0.27,0.43,0.55,0.42,0.43,0.23,0.53,0.51,0.53,0.55,0.53,0.44,0.31,0.27,0.51,0.55,0.23,0.51,0.3,0.23,0.67,0.53,0.27,0.55,0.44,0.23,0.35,0.48,0.48,0.48,0.48,0.48,0.48,0.48,0.48,0.35,0.23,0.44,0.55,0.53,0.23,0.31,0.53,0.43,0.23,0.74,0.44,0.31,0.53,0.37,0.44,0.25,0.23" style="fill:rgb(0,0,0);font-family:MinionPro-Regular;font-size:9.0px;stroke:none;">University was also sponsored by the National Natural Science Foundation of China (21464008) and the Natural </text>
   <text y="86.498" x="155.638,160.124,164.021,166.523,170.438,175.419,179.316,183.231,185.4,190.085,194.669,199.538,204.519,209.391,213.266,216.149,218.651,223.226,228.239,230.408,234.984,237.738,239.907,242.673,245.206,249.17,254.114,258.416,262.754,265.256,267.425,272.505,275.82,280.361,284.648,287.151,292.131,296.028,299.943,302.112,305.316,309.726,314.136,318.546,322.956,327.366,333.427,339.502,344.884,349.294,353.704,358.114,362.524,366.934,370.138,372.28,374.449,382.408,386.323,388.492,392.582,394.926,398.394,403.074,405.243,409.284,413.131,417.724,422.706,427.245,433.567,435.934,439.898,444.74,448.973,452.888,455.057,457.95,462.813,466.728,468.897,472.249,477.014,481.725,486.616,491.191,494.714,497.549,499.718,502.565,505.881,510.457,517.918,520.087,522.979,527.843,531.758,533.927,540.789,545.68,549.595,554.518" svgx:width="0.47,0.42,0.27,0.43,0.55,0.42,0.43,0.23,0.53,0.51,0.53,0.55,0.53,0.44,0.31,0.27,0.51,0.55,0.23,0.51,0.3,0.23,0.33,0.27,0.44,0.55,0.47,0.47,0.27,0.23,0.56,0.37,0.51,0.46,0.27,0.55,0.42,0.43,0.23,0.35,0.48,0.48,0.48,0.48,0.48,0.69,0.67,0.59,0.48,0.48,0.48,0.48,0.48,0.35,0.23,0.23,0.97,0.43,0.23,0.44,0.25,0.37,0.51,0.23,0.44,0.42,0.5,0.55,0.51,0.69,0.25,0.43,0.53,0.47,0.43,0.23,0.31,0.53,0.43,0.23,0.37,0.53,0.52,0.52,0.51,0.37,0.31,0.23,0.3,0.37,0.51,0.82,0.23,0.31,0.53,0.43,0.23,0.75,0.52,0.43,0.55,0.23" style="fill:rgb(0,0,0);font-family:MinionPro-Regular;font-size:9.0px;stroke:none;">Science Foundation of Jiangxi Province (20143ACB21015). We also acknowledge the support from the Open </text>
   <text y="96.497" x="155.638,160.624,163.846,168.337,170.686,174.556,178.426,181.171,182.944,187.93,191.152,195.742,199.999,203.338,207.208,214.579,216.352,220.834,223.498,225.271,231.112,235.009,239.14,240.913,245.889,249.768,254.421,258.903,262.242,266.022,268.713,273.195,276.795,280.926,282.699,287.181,289.845,291.618,296.774,300.581,305.171,308.375,311.066,314.891,319.139,321.929,324.385,326.662,330.487,333.79,335.842,337.615,345.571,347.983,352.906,355.291,358.549,361.339,364.938,369.069,370.842,375.324,377.988,379.761,384.918,389.563,394.341,398.176,401.956,404.746,407.158,411.639,416.562,418.614,420.387,423.059,425.498,429.368,434.219,438.476,443.372,447.242,452.165,453.938,460.175,465.098,467.447,471.542,475.367,478.652,481.955,484.259,487.031,491.162,492.935,496.049,502.51,506.839,508.891,510.664,516.721,521.563,526.639,532.192,536.512,540.832,545.152,549.472,552.586" svgx:width="0.56,0.37,0.51,0.26,0.43,0.42,0.31,0.23,0.56,0.37,0.51,0.47,0.37,0.44,0.82,0.23,0.51,0.3,0.23,0.67,0.43,0.46,0.23,0.54,0.44,0.51,0.51,0.37,0.44,0.31,0.51,0.37,0.46,0.23,0.51,0.3,0.23,0.57,0.42,0.51,0.36,0.31,0.43,0.47,0.31,0.27,0.25,0.43,0.37,0.23,0.23,0.89,0.27,0.55,0.27,0.37,0.31,0.37,0.46,0.23,0.51,0.3,0.23,0.57,0.53,0.53,0.42,0.44,0.31,0.27,0.51,0.55,0.23,0.23,0.33,0.27,0.44,0.55,0.47,0.55,0.44,0.55,0.23,0.74,0.55,0.27,0.46,0.43,0.37,0.37,0.27,0.31,0.46,0.23,0.35,0.74,0.51,0.23,0.23,0.67,0.54,0.57,0.62,0.48,0.48,0.48,0.48,0.35,0.23" style="fill:rgb(0,0,0);font-family:MinionPro-Regular;font-size:9.0px;stroke:none;">Project Program of Key Laboratory of Eco-textiles, Ministry of Education, Jiangnan University (No. KLET1602).</text>
   <text y="114.5" x="155.638,162.865,168.86,173.029,179.189,185.283,189.133,190.739,197.163,203.257,209.362,213.531,217.381,220.12,226.247,232.242,236.411,239.15,245.244,251.349" svgx:width="0.66,0.55,0.38,0.56,0.55,0.35,0.21,0.58,0.55,0.56,0.38,0.35,0.25,0.56,0.55,0.38,0.25,0.55,0.56,0.42" style="fill:rgb(0,0,0);font-family:Corbel-Bold;font-size:11.0px;stroke:none;">Author Contributions</text>
   <text y="124.5" x="155.638,161.2,163.387,165.7,171.262,173.449,175.757,180.644,184.604,188.042,190.589,194.981,200.002,204.007,208.894,211.207,215.211,220.233,225.12,227.433,232.364,236.324,239.851,242.568,247.185,250.712,258.182,262.186,267.073,269.386,273.346,277.729,282.66,286.62,290.147,292.694,300.164,304.124,309.011,311.891,315.329,317.516,319.829,323.771,328.388,333.409,338.187,343.101,347.105,349.93,353.935,358.822,361.135,366.022,370.054,374.382,376.929,380.871,384.831,387.144,389.943,393.957,398.555,402.082,404.629,408.597,412.511,415.436,417.983,422.6,427.658,429.971,433.975,438.997,443.884,446.197,453.666,457.679,461.738,465.13,470.044,473.4,477.36,484.829,488.789,493.675,496.555,499.993,502.18,504.489,508.494,513.524,517.655,520.003,524.269,527.778,531.782,536.669,538.982,543.895,547.809,550.743,554.694" svgx:width="0.6,0.23,0.23,0.6,0.23,0.23,0.53,0.43,0.37,0.27,0.47,0.55,0.43,0.53,0.23,0.44,0.55,0.53,0.23,0.52,0.43,0.37,0.3,0.51,0.37,0.82,0.43,0.53,0.23,0.43,0.47,0.52,0.43,0.37,0.27,0.82,0.43,0.55,0.31,0.37,0.23,0.23,0.42,0.51,0.55,0.53,0.53,0.42,0.31,0.43,0.53,0.23,0.53,0.43,0.46,0.27,0.42,0.43,0.23,0.3,0.44,0.51,0.37,0.27,0.42,0.44,0.31,0.27,0.51,0.55,0.23,0.44,0.55,0.53,0.23,0.82,0.43,0.44,0.37,0.53,0.37,0.43,0.82,0.43,0.55,0.31,0.37,0.23,0.23,0.44,0.55,0.44,0.25,0.46,0.37,0.43,0.53,0.23,0.53,0.44,0.31,0.44,0.23" style="fill:rgb(0,0,0);font-family:MinionPro-Regular;font-size:9.0px;stroke:none;">Z. Z. designed and performed experiments, conducted device fabrication and measurements, analysed data </text>
   <text y="134.499" x="155.638,159.576,164.531,169.35,171.429,177.689,180.979,185.538,188.296,192.193,194.272,198.822,201.553,203.632,206.5,211.337,215.23,217.309,222.138,225.986,230.85,234.743,237.582,239.702,241.781,248.742,250.862,256.356,258.48,260.559,264.434,268.983,273.803,276.661,280.121,282.565,287.106,291.845,294.603,298.541,303.36,305.439,307.919,312.909,314.988,322.401,326.248,329.007,332.899,336.361,338.866,342.931,345.275,347.354,350.086,354.033,358.565,362.025,364.505,368.406,372.255,375.112,377.592,382.141,387.132,389.211,393.148,398.103,402.927,405.006,408.862,411.207,415.144,419.083,421.94,425.23,429.968,433.789,438.626,442.523,449.962,452.441,456.343,460.406,462.751,464.83,472.232,476.179,480.17,483.496,488.347,491.636,495.529,502.931,506.824,511.644,514.457,517.827,519.906,524.456,527.187,529.266,533.168,537.106,540.513,545.233,549.783,554.706" svgx:width="0.44,0.55,0.53,0.23,0.69,0.37,0.51,0.31,0.43,0.23,0.51,0.3,0.23,0.31,0.53,0.43,0.23,0.52,0.44,0.52,0.43,0.37,0.23,0.23,0.77,0.23,0.6,0.23,0.23,0.42,0.51,0.55,0.31,0.37,0.27,0.51,0.53,0.31,0.43,0.53,0.23,0.27,0.55,0.23,0.82,0.44,0.31,0.43,0.37,0.27,0.44,0.25,0.23,0.3,0.44,0.51,0.37,0.27,0.42,0.44,0.31,0.27,0.51,0.55,0.23,0.44,0.55,0.53,0.23,0.43,0.25,0.43,0.42,0.31,0.37,0.51,0.42,0.53,0.43,0.82,0.27,0.42,0.44,0.25,0.23,0.82,0.43,0.44,0.37,0.53,0.37,0.43,0.82,0.43,0.55,0.31,0.37,0.23,0.51,0.3,0.23,0.42,0.44,0.37,0.51,0.51,0.55,0.23" style="fill:rgb(0,0,0);font-family:MinionPro-Regular;font-size:9.0px;stroke:none;">and wrote of the paper. H.Z. contributed in material fabrication and electrochemical measurements of carbon </text>
   <text y="144.498" x="155.638,158.318,163.049,167.016,174.486,176.664,181.512,184.914,187.425,192.373,196.684,198.862,203.713,206.224,211.289,215.213,218.531,222.455,227.304,230.148,232.326,235.222,240.127,242.638,246.488,251.084,256.068,259.992,263.347,266.819,270.743,274.145,276.296,278.474,283.233,285.384,290.91,293.061,295.239,299.145,303.724,308.572,311.46,314.949,317.421,321.991,326.759,329.547,333.513,338.364,340.542,343.329,348.018,350.196,355.55,360.723,366.375,368.553,372.477,376.824,381.717,385.641,389.131,391.642,399.074,402.998,407.847,410.742,414.835,417.211,419.389,426.822,430.797,434.817,438.172,443.05,446.369,450.293,457.726,461.65,466.498,469.342,472.744,474.922,478.889,483.872,488.724,490.902,493.302,496.146,499.548,501.726,505.693,510.685,514.778,517.089,521.319,524.721,527.202,530.604,532.755,534.933,541.926,544.077,546.255,552.696,554.748" svgx:width="0.3,0.51,0.44,0.82,0.23,0.53,0.37,0.27,0.55,0.47,0.23,0.53,0.27,0.56,0.43,0.37,0.43,0.55,0.31,0.23,0.31,0.53,0.27,0.42,0.5,0.55,0.43,0.37,0.37,0.43,0.37,0.23,0.23,0.63,0.23,0.6,0.23,0.23,0.42,0.51,0.55,0.31,0.37,0.27,0.51,0.53,0.31,0.43,0.53,0.23,0.31,0.51,0.23,0.59,0.57,0.62,0.23,0.43,0.47,0.52,0.43,0.37,0.27,0.82,0.43,0.55,0.31,0.44,0.25,0.23,0.82,0.43,0.44,0.37,0.53,0.37,0.43,0.82,0.43,0.55,0.31,0.37,0.23,0.44,0.55,0.53,0.23,0.27,0.31,0.37,0.23,0.44,0.55,0.44,0.25,0.46,0.37,0.27,0.37,0.23,0.23,0.77,0.23,0.23,0.75,0.23,0.23" style="fill:rgb(0,0,0);font-family:MinionPro-Regular;font-size:9.0px;stroke:none;">foam using different thicknesses. Y.Z. contributed to BET experimental measurements and its analysis. H. Q. </text>
   <text y="154.497" x="155.638,160.408,164.197,166.366,171.163,175.032,179.784,181.575,183.987,188.91,190.701,198.045,201.915,206.667,211.419,214.794,218.601,221.993,224.297,228.914,231.659,233.45,237.257,241.738,245.131,248.353,252.223,256.093,258.883,261.295,265.777,270.7,272.491,276.361,281.248,286.0,287.791,292.543,296.44,300.634,303.046,306.853,310.678,312.469,317.266,321.091,324.483,327.066,331.548,334.941,342.285,346.155,351.042,354.849,358.674,360.465,364.335,369.232,373.227,375.441,379.572,382.875,385.26,388.563,390.615,392.406,398.625,400.677,407.112,409.164,410.955,415.725,419.513,421.682,426.479,430.349,435.102,436.892,439.304,444.227,446.018,448.817,453.587,457.412,459.203,464.099,466.511,469.715,472.127,476.609,481.532,483.323,487.94,491.72,494.375,497.066,500.891,504.284,506.696,510.521,513.824,515.615,518.279,522.158,526.622,530.015,532.427,536.26,540.04,542.83,545.242,549.724,554.647" svgx:width="0.53,0.43,0.25,0.52,0.43,0.53,0.23,0.27,0.55,0.23,0.82,0.44,0.55,0.53,0.37,0.42,0.37,0.27,0.52,0.31,0.23,0.42,0.51,0.37,0.37,0.43,0.42,0.31,0.27,0.51,0.55,0.23,0.44,0.55,0.53,0.23,0.53,0.43,0.46,0.27,0.42,0.43,0.23,0.52,0.43,0.37,0.3,0.51,0.37,0.82,0.44,0.55,0.42,0.43,0.23,0.44,0.55,0.44,0.25,0.46,0.37,0.27,0.37,0.23,0.23,0.69,0.23,0.71,0.23,0.23,0.53,0.43,0.25,0.52,0.43,0.53,0.23,0.27,0.55,0.23,0.31,0.53,0.43,0.23,0.54,0.27,0.36,0.27,0.51,0.55,0.23,0.51,0.44,0.31,0.31,0.43,0.37,0.27,0.43,0.37,0.23,0.3,0.44,0.51,0.37,0.27,0.42,0.44,0.31,0.27,0.51,0.55,0.23" style="fill:rgb(0,0,0);font-family:MinionPro-Regular;font-size:9.0px;stroke:none;">helped in manuscript correction and device performance analysis. A.G. helped in the Li-ion batteries fabrication </text>
   <text y="164.496" x="155.638,159.618,164.614,169.474,171.697,179.151,183.129,187.991,192.852,196.336,200.251,203.753,206.167,210.893,213.746,215.969,219.884,224.475,227.977,231.308,235.287,239.266,242.166,244.686,249.278,254.309,256.469,258.692,264.516,266.676,273.471,275.631,277.854,282.733,286.632,288.91,293.816,297.796,302.656,304.879,307.399,312.43,314.653,320.513,324.492,331.945,335.924,340.955,343.178,347.157,352.154,357.014,359.237,365.231,370.928,377.651,379.874,383.854,388.859,392.964,395.287,399.526,402.937,405.431,408.842,411.002,413.225,420.227,422.387,427.607,429.767,431.99,435.905,440.496,445.358,448.257,451.759,454.245,458.826,463.607,466.407,470.386,475.246,477.469,479.989,485.02,487.243,490.152,495.031,498.964,501.187,505.167,510.172,514.277,516.6,520.839,524.25,526.745,530.156,532.379,536.97,539.742,541.965,547.185,550.362,554.627" svgx:width="0.44,0.55,0.53,0.23,0.82,0.44,0.55,0.53,0.37,0.42,0.37,0.27,0.52,0.31,0.23,0.42,0.51,0.37,0.37,0.43,0.42,0.31,0.27,0.51,0.55,0.23,0.23,0.62,0.23,0.74,0.23,0.23,0.53,0.43,0.25,0.52,0.43,0.53,0.23,0.27,0.55,0.23,0.62,0.44,0.82,0.44,0.55,0.23,0.44,0.55,0.53,0.23,0.65,0.62,0.74,0.23,0.44,0.55,0.44,0.25,0.46,0.37,0.27,0.37,0.23,0.23,0.77,0.23,0.57,0.23,0.23,0.42,0.51,0.55,0.31,0.37,0.27,0.51,0.53,0.31,0.43,0.53,0.23,0.27,0.55,0.23,0.31,0.53,0.43,0.23,0.44,0.55,0.44,0.25,0.46,0.37,0.27,0.37,0.23,0.51,0.3,0.23,0.57,0.34,0.47,0.23" style="fill:rgb(0,0,0);font-family:MinionPro-Regular;font-size:9.0px;stroke:none;">and manuscript correction. R.N. helped in Raman and XRD analysis. H.E. contributed in the analysis of EIS </text>
   <text y="174.495" x="155.638,160.491,164.345,167.218,171.241,173.365,175.462,181.753,183.877,188.791,190.915,195.253,197.377,199.474,203.371,207.691,212.418,214.796,218.741,221.225,226.186,230.13,234.954,237.051,239.924,244.768,248.665,250.762,254.058,258.659,261.008,264.905,267.002,271.559,274.295,276.392,280.256,282.605,286.548,290.492,293.357,296.653,301.398,306.222,310.119,312.216,315.089,319.967,322.451,326.278,330.852,335.813,339.71,343.043,346.418,348.515,350.999,355.994,358.091,363.062,365.546,368.822,371.306,375.862,380.857,382.954,387.644,391.499,394.228,396.993,400.89,404.357,406.841,410.738,414.113,416.237,418.333,425.299,427.423,432.337,434.461,436.558,441.402,445.265,447.509,452.38,456.323,461.147,463.244,465.728,470.723,472.82,480.239,484.183,489.01,493.835,497.284,501.163,504.63,507.008,511.699,514.516,516.613,520.492,525.048,528.516,531.812,535.756,539.699,542.564,545.048,549.605,554.528" svgx:width="0.53,0.44,0.31,0.44,0.23,0.23,0.69,0.23,0.54,0.23,0.47,0.23,0.23,0.43,0.47,0.52,0.25,0.44,0.27,0.55,0.43,0.53,0.23,0.31,0.53,0.43,0.23,0.37,0.51,0.25,0.43,0.23,0.51,0.3,0.23,0.43,0.25,0.43,0.42,0.31,0.37,0.51,0.53,0.43,0.23,0.31,0.53,0.27,0.42,0.5,0.55,0.43,0.37,0.37,0.23,0.27,0.55,0.23,0.54,0.27,0.36,0.27,0.51,0.55,0.23,0.51,0.44,0.31,0.31,0.43,0.37,0.27,0.43,0.37,0.23,0.23,0.77,0.23,0.54,0.23,0.23,0.53,0.43,0.25,0.52,0.43,0.53,0.23,0.27,0.55,0.23,0.82,0.44,0.55,0.53,0.37,0.42,0.37,0.27,0.52,0.31,0.23,0.42,0.51,0.37,0.37,0.43,0.42,0.31,0.27,0.51,0.55,0.23" style="fill:rgb(0,0,0);font-family:MinionPro-Regular;font-size:9.0px;stroke:none;">data. A.L.S. explained the role of electrode thickness in Li-ion batteries. H.L. helped in manuscript correction </text>
   <text y="184.494" x="155.638,159.583,164.544,169.368,171.465,175.329,177.678,181.623,185.568,188.432,191.729,196.475,200.302,205.147,209.044,216.487,218.971,222.88,226.95,229.299,231.396,235.341,240.312,244.382,246.671,250.874,254.249,256.71,260.085,262.209,264.306,268.644,270.768,276.825,278.949,281.046,284.925,289.482,294.309,297.174,300.641,303.092,307.64,312.386,315.151,319.096,323.92,326.017,328.501,333.496,335.593,343.012,346.866,349.632,353.529,356.997,359.51,363.581,365.93,368.027,370.763,374.717,379.256,382.724,385.208,389.117,392.972,395.836,398.32,402.877,407.872,409.969,413.914,418.875,423.699,425.796,429.624,434.478,438.422,441.833,445.856,449.801,452.567,456.464,459.932,462.416,466.268,470.122,472.987,475.471,480.029,485.024,487.121,491.065,496.027,500.851,502.948,506.398,510.954,518.364,522.261,524.358,528.597,532.668,534.911,539.792,543.746,548.331,550.68,554.504" svgx:width="0.44,0.55,0.53,0.23,0.43,0.25,0.43,0.42,0.31,0.37,0.51,0.42,0.53,0.43,0.82,0.27,0.42,0.44,0.25,0.23,0.44,0.55,0.44,0.25,0.46,0.37,0.27,0.37,0.23,0.23,0.47,0.23,0.67,0.23,0.23,0.42,0.51,0.55,0.31,0.37,0.27,0.51,0.53,0.31,0.43,0.53,0.23,0.27,0.55,0.23,0.82,0.44,0.31,0.43,0.37,0.27,0.44,0.25,0.23,0.3,0.44,0.51,0.37,0.27,0.42,0.44,0.31,0.27,0.51,0.55,0.23,0.44,0.55,0.53,0.23,0.42,0.53,0.44,0.37,0.44,0.42,0.31,0.43,0.37,0.27,0.42,0.44,0.31,0.27,0.51,0.55,0.23,0.44,0.55,0.53,0.23,0.37,0.51,0.82,0.43,0.23,0.46,0.44,0.25,0.53,0.44,0.51,0.25,0.43,0.23" style="fill:rgb(0,0,0);font-family:MinionPro-Regular;font-size:9.0px;stroke:none;">and electrochemical analysis. S.C. contributed in material fabrication and characterization and some valuable </text>
   <text y="194.493" x="155.638,158.87,163.622,167.862,171.977,175.775,179.007,181.77,184.155,188.611,193.437,196.713,198.423,200.98,205.437,208.749,210.459,213.232,217.977,221.775,223.485,227.248,229.498,233.342,237.186,239.95,243.146,247.791,251.518,256.262,260.06,267.404,269.789,273.597,277.566,279.816,281.526,288.836,292.689,296.587,299.819,304.571,307.768,311.566,318.875,322.673,327.399,330.117,333.393,335.418,337.128,343.446,345.471,351.79,353.815,355.525,360.269,364.032,366.175,370.946,374.79,379.515,381.225,388.543,392.387,397.113,401.839,405.188,408.968,412.335,414.613,419.204,421.922,423.632,427.412,431.869,435.236,438.432,442.276,446.119,448.883,451.268,455.724,460.62,462.645,464.355,468.938,472.134,476.554,480.722,483.107,487.832,490.217,495.042,499.227,500.937,503.701,506.086,513.395,517.158,519.346,523.45,525.16,529.3,533.27,535.413,540.193,544.047,548.53,550.78,554.605" svgx:width="0.37,0.53,0.47,0.47,0.43,0.37,0.31,0.27,0.51,0.55,0.37,0.23,0.3,0.51,0.37,0.23,0.31,0.53,0.43,0.23,0.43,0.25,0.43,0.42,0.31,0.37,0.51,0.42,0.53,0.43,0.82,0.27,0.42,0.44,0.25,0.23,0.82,0.43,0.44,0.37,0.53,0.37,0.43,0.82,0.43,0.55,0.31,0.37,0.23,0.23,0.75,0.23,0.75,0.23,0.23,0.53,0.43,0.25,0.52,0.43,0.53,0.23,0.82,0.44,0.55,0.53,0.37,0.42,0.37,0.27,0.52,0.31,0.23,0.42,0.51,0.37,0.37,0.43,0.42,0.31,0.27,0.51,0.55,0.23,0.23,0.52,0.37,0.51,0.46,0.27,0.53,0.27,0.55,0.47,0.23,0.31,0.27,0.82,0.43,0.25,0.46,0.23,0.46,0.44,0.25,0.53,0.44,0.51,0.25,0.43,0.23" style="fill:rgb(0,0,0);font-family:MinionPro-Regular;font-size:9.0px;stroke:none;">suggestions for the electrochemical measurements. Q.Q. helped manuscript correction, providing timely valuable </text>
   <text y="204.492" x="155.638,158.896,163.675,167.941,172.081,175.906,179.163,181.953,184.365,188.847,193.77,195.606,199.476,204.363,209.115,210.951,215.766,220.662,224.532,229.419,233.226,235.665,239.661,241.938,243.774,247.032,251.703,256.32,261.117,265.599,269.028,271.773,273.609,276.192,280.674,284.013,285.849,288.648,293.418,297.243,299.079,303.525,307.62,311.445,314.784,318.78,321.101,323.378,325.214,329.822,333.044,337.535,339.884,343.754,347.624,350.369" svgx:width="0.37,0.53,0.47,0.47,0.43,0.37,0.31,0.27,0.51,0.55,0.23,0.44,0.55,0.53,0.23,0.54,0.55,0.44,0.55,0.42,0.27,0.44,0.25,0.23,0.37,0.53,0.52,0.52,0.51,0.37,0.31,0.23,0.3,0.51,0.37,0.23,0.31,0.53,0.43,0.23,0.51,0.46,0.43,0.37,0.44,0.25,0.25,0.23,0.52,0.37,0.51,0.26,0.43,0.42,0.31,0.23" style="fill:rgb(0,0,0);font-family:MinionPro-Regular;font-size:9.0px;stroke:none;">suggestion and financial support for the overall project.</text>
   <text y="222.5" x="155.638,162.865,169.003,175.141,177.88,182.049,184.788,190.882,196.987,202.652,205.424,207.447,210.483,216.588,220.196,226.29,230.14,239.512,245.177,249.346,252.085,258.179" svgx:width="0.66,0.56,0.56,0.25,0.38,0.25,0.55,0.56,0.51,0.25,0.21,0.28,0.56,0.33,0.55,0.35,0.85,0.51,0.38,0.25,0.55,0.56" style="fill:rgb(0,0,0);font-family:Corbel-Bold;font-size:11.0px;stroke:none;">Additional Information</text>
   <text y="232.5" x="155.638,160.093,165.043,169.894,174.79,177.346,181.234,188.821,192.709,197.731,200.782,204.931,208.864,213.049,214.804,217.459,222.553,225.406,230.041,233.677,241.264,245.322,248.328,251.037,255.672" svgx:width="0.5,0.56,0.55,0.55,0.28,0.44,0.84,0.44,0.57,0.34,0.47,0.4,0.47,0.22,0.29,0.57,0.33,0.52,0.4,0.84,0.47,0.34,0.29,0.52,0.57" style="fill:rgb(0,0,0);font-family:MinionPro-Bold;font-size:9.0px;stroke:none;">Supplementary information</text>
   <text y="232.5" x="260.766,262.602,266.553,270.36,274.167,278.649,285.849,290.609,294.479,299.402,301.814,305.639,308.942,310.778,313.577,318.383,320.768,324.071,325.907,330.667,334.447,339.244,343.069,346.408,348.244,352.024,354.769,356.605,361.357,365.838,368.25" svgx:width="0.23,0.44,0.42,0.42,0.51,0.82,0.52,0.44,0.55,0.27,0.43,0.37,0.23,0.31,0.53,0.27,0.37,0.23,0.52,0.44,0.52,0.43,0.37,0.23,0.44,0.31,0.23,0.53,0.51,0.27,0.23" style="fill:rgb(0,0,0);font-family:MinionPro-Regular;font-size:9.0px;stroke:none;"> accompanies this paper at doi:</text>
   <text y="232.5" x="370.302,374.622,378.942,380.994,385.314,389.634,393.954,398.274,401.253,404.556,408.876,413.196,417.516,421.836,426.156,429.361,433.681,438.001,442.321,445.525,449.845,454.165,458.485,462.805,467.125,470.329" svgx:width="0.48,0.48,0.23,0.48,0.48,0.48,0.48,0.33,0.37,0.48,0.48,0.48,0.48,0.48,0.36,0.48,0.48,0.48,0.36,0.48,0.48,0.48,0.48,0.48,0.36,0.46" style="fill:rgb(0,0,255);font-family:MinionPro-Regular;font-size:9.0px;stroke:none;">10.1038/s41598-017-01638-y</text>
   <text y="246.999" x="155.638,161.902,166.537,174.052,179.073,183.033,186.039,188.694,193.716,198.144,199.899,203.166,208.188,211.131,215.019,218.583,222.516,225.926,228.977,232.426" svgx:width="0.68,0.52,0.84,0.55,0.44,0.34,0.29,0.57,0.49,0.22,0.38,0.57,0.34,0.44,0.4,0.44,0.38,0.34,0.38,0.25" style="fill:rgb(0,0,0);font-family:MinionPro-Bold;font-size:9.0px;stroke:none;">Competing Interests:</text>
   <text y="246.999" x="234.712,236.548,246.151,249.976,251.812,255.592,260.263,263.061,267.831,272.313,275.598,278.901,280.737,285.489,289.359,293.112,295.416,299.286,302.508,306.333,308.169,310.967,315.746,319.526,322.271,324.107,326.906,331.676,335.573,339.704,341.54,346.319,350.108,354.203,358.028,359.864,364.751,369.341,371.177,374.984,379.466,386.666,391.463,395.288,398.078,400.49,405.341,409.553,411.389,413.801,418.553,421.244,425.069,428.291,432.116,435.374,438.119,441.422" svgx:width="0.23,1.07,0.43,0.23,0.44,0.53,0.31,0.53,0.51,0.37,0.37,0.23,0.53,0.43,0.42,0.25,0.44,0.37,0.43,0.23,0.31,0.53,0.44,0.31,0.23,0.31,0.53,0.43,0.46,0.23,0.53,0.44,0.46,0.43,0.23,0.55,0.51,0.23,0.42,0.51,0.82,0.52,0.43,0.31,0.27,0.55,0.47,0.23,0.27,0.55,0.31,0.43,0.37,0.43,0.37,0.31,0.37,0.23" style="fill:rgb(0,0,0);font-family:MinionPro-Regular;font-size:9.0px;stroke:none;"> The authors declare that they have no competing interests.</text>
   <text y="261.498" x="155.638,161.029,165.997,170.776,173.278,175.933,179.353,184.303,188.191,191.827,193.618,197.065,198.82,203.914,208.567,211.51,215.443" svgx:width="0.6,0.56,0.53,0.28,0.29,0.38,0.55,0.44,0.4,0.2,0.38,0.22,0.57,0.52,0.34,0.44,0.25" style="fill:rgb(0,0,0);font-family:MinionPro-Bold;font-size:9.0px;stroke:none;">Publisher's note:</text>
   <text y="261.498" x="217.729,219.565,223.705,228.312,231.705,234.117,238.968,243.108,246.933,250.272,252.108,258.561,262.341,264.996,269.775,272.997,276.822,278.658,281.88,285.705,293.049,296.919,299.331,304.182,307.485,309.321,314.208,318.033,322.704,325.494,328.833,332.828,335.105,336.941,343.133,345.437,348.236,353.042,354.878,358.1,361.925,366.137,370.007,373.229,377.981,379.817,382.509,387.099,388.935,391.149,395.928,399.321,401.706,405.081,409.833,412.245,416.114,418.904,421.316,425.798,430.694,434.69,436.967,438.803,442.556,444.86,448.73,451.142,458.441,461.744,463.58,465.992,470.915,472.751,477.368,482.111,486.62,488.897,491.282,494.549,499.319,503.189,507.941,509.777,517.12,520.9,525.616,528.919,530.755,534.625,539.512,544.264" svgx:width="0.23,0.47,0.52,0.37,0.27,0.55,0.47,0.43,0.37,0.23,0.74,0.44,0.31,0.53,0.37,0.43,0.23,0.37,0.43,0.82,0.44,0.27,0.55,0.37,0.23,0.55,0.43,0.53,0.31,0.37,0.44,0.25,0.23,0.69,0.27,0.31,0.53,0.23,0.37,0.43,0.47,0.44,0.37,0.53,0.23,0.31,0.51,0.23,0.26,0.53,0.37,0.27,0.37,0.53,0.27,0.42,0.31,0.27,0.51,0.55,0.44,0.25,0.23,0.42,0.25,0.44,0.27,0.82,0.37,0.23,0.27,0.55,0.23,0.52,0.53,0.51,0.25,0.27,0.37,0.53,0.43,0.53,0.23,0.82,0.44,0.52,0.37,0.23,0.44,0.55,0.53,0.23" style="fill:rgb(0,0,0);font-family:MinionPro-Regular;font-size:9.0px;stroke:none;"> Springer Nature remains neutral with regard to jurisdictional claims in published maps and </text>
   <text y="271.497" x="155.638,158.05,162.901,166.159,168.949,171.253,173.908,178.579,181.369,183.781,188.262,193.158,197.154,199.431,201.267,205.137,212.364,214.641,217.08,220.86,223.649,226.061,230.543,235.394,238.697" svgx:width="0.27,0.55,0.37,0.31,0.27,0.31,0.53,0.31,0.27,0.51,0.55,0.44,0.25,0.23,0.44,0.8,0.25,0.27,0.44,0.31,0.27,0.51,0.55,0.37,0.23" style="fill:rgb(0,0,0);font-family:MinionPro-Regular;font-size:9.0px;stroke:none;">institutional affiliations.</text>
  </g>
  <path style="fill:rgb(195,196,198);stroke:none;stroke-width:0.3;" d="M156.730 280.060 L196.180 280.130 C196.730 280.130 197.220 280.050 197.220 281.230 L197.170 294.230 L155.730 294.230 L155.730 281.190 C155.730 280.600 155.790 280.060 156.730 280.060 "/>
  <path style="fill:rgb(0,0,0);stroke:none;stroke-width:0.3;" d="M156.420 280.240 L196.620 280.240 C196.850 280.240 197.040 280.430 197.040 280.670 L197.040 290.160 L168.220 290.160 C167.170 292.070 165.140 293.360 162.810 293.360 C160.480 293.360 158.450 292.070 157.400 290.160 L155.990 290.160 L155.990 280.670 C155.990 280.430 156.180 280.240 156.420 280.240 M196.620 279.890 L156.420 279.890 C155.990 279.890 155.640 280.240 155.640 280.670 L155.640 294.330 C155.640 294.430 155.720 294.500 155.810 294.500 L197.220 294.500 C197.320 294.500 197.400 294.430 197.400 294.330 L197.400 280.670 C197.400 280.240 197.050 279.890 196.620 279.890 "/>
  <path style="fill:rgb(255,255,255);stroke:none;stroke-width:0.3;" d="M181.290 293.190 C181.340 293.190 181.390 293.190 181.430 293.180 C181.480 293.170 181.520 293.150 181.550 293.130 C181.590 293.110 181.610 293.080 181.630 293.040 C181.650 293.000 181.660 292.950 181.660 292.890 C181.660 292.770 181.630 292.690 181.560 292.640 C181.500 292.590 181.410 292.560 181.300 292.560 L180.740 292.560 L180.740 293.190 ZM181.260 292.220 C181.350 292.220 181.420 292.190 181.480 292.150 C181.540 292.110 181.570 292.040 181.570 291.940 C181.570 291.890 181.560 291.840 181.540 291.810 C181.520 291.780 181.490 291.750 181.460 291.730 C181.430 291.710 181.390 291.700 181.350 291.690 C181.310 291.680 181.270 291.680 181.220 291.680 L180.740 291.680 L180.740 292.220 ZM181.320 291.280 C181.430 291.280 181.530 291.290 181.620 291.310 C181.720 291.330 181.790 291.360 181.860 291.410 C181.920 291.450 181.970 291.510 182.010 291.580 C182.040 291.660 182.060 291.750 182.060 291.860 C182.060 291.970 182.030 292.070 181.980 292.150 C181.930 292.220 181.850 292.290 181.750 292.340 C181.890 292.380 182.000 292.450 182.070 292.550 C182.140 292.650 182.170 292.780 182.170 292.920 C182.170 293.040 182.150 293.140 182.100 293.220 C182.060 293.310 182.000 293.380 181.920 293.430 C181.840 293.480 181.760 293.520 181.660 293.550 C181.560 293.580 181.460 293.590 181.360 293.590 L180.240 293.590 L180.240 291.280 Z"/>
  <path style="fill:rgb(255,255,255);stroke:none;stroke-width:0.3;" d="M182.260 291.280 L182.830 291.280 L183.370 292.190 L183.910 291.280 L184.470 291.280 L183.620 292.700 L183.620 293.590 L183.110 293.590 L183.110 292.690 Z"/>
  <path style="fill:rgb(255,255,255);stroke:none;stroke-width:0.3;" d="M167.560 286.710 C167.560 289.330 165.440 291.460 162.820 291.460 C160.200 291.460 158.070 289.340 158.070 286.720 L158.070 286.710 C158.070 284.090 160.190 281.970 162.810 281.960 C165.430 281.960 167.560 284.090 167.560 286.710 Z"/>
  <path style="fill:rgb(0,0,0);stroke:none;stroke-width:0.3;" d="M165.160 286.180 C165.020 285.890 164.830 285.740 164.560 285.740 C164.070 285.740 163.830 286.060 163.830 286.710 C163.830 287.350 164.070 287.670 164.560 287.670 C164.880 287.670 165.100 287.520 165.230 287.200 L165.910 287.560 C165.590 288.120 165.120 288.400 164.480 288.400 C164.000 288.400 163.600 288.250 163.310 287.950 C163.020 287.650 162.870 287.240 162.870 286.710 C162.870 286.190 163.020 285.780 163.320 285.480 C163.620 285.170 164.000 285.020 164.460 285.020 C165.130 285.020 165.610 285.290 165.890 285.810 ZM162.030 286.180 C161.900 285.890 161.690 285.740 161.420 285.740 C160.940 285.740 160.700 286.060 160.700 286.710 C160.700 287.350 160.940 287.670 161.420 287.670 C161.740 287.670 161.960 287.520 162.100 287.200 L162.760 287.560 C162.450 288.120 161.970 288.400 161.340 288.400 C160.850 288.400 160.460 288.250 160.160 287.950 C159.870 287.650 159.720 287.240 159.720 286.710 C159.720 286.190 159.870 285.780 160.180 285.480 C160.480 285.170 160.860 285.020 161.310 285.020 C161.980 285.020 162.460 285.290 162.750 285.810 ZM159.690 283.550 C158.800 284.450 158.360 285.510 158.360 286.710 C158.360 287.920 158.800 288.960 159.680 289.840 C160.560 290.720 161.610 291.160 162.820 291.160 C164.040 291.160 165.100 290.720 165.990 289.830 C166.850 289.000 167.270 287.960 167.270 286.710 C167.270 285.470 166.840 284.410 165.970 283.550 C165.110 282.680 164.060 282.250 162.820 282.250 C161.590 282.250 160.540 282.680 159.690 283.550 M166.670 282.850 C167.720 283.900 168.250 285.190 168.250 286.710 C168.250 288.240 167.730 289.510 166.700 290.540 C165.600 291.610 164.300 292.150 162.810 292.150 C161.330 292.150 160.050 291.620 158.980 290.550 C157.910 289.480 157.380 288.200 157.380 286.710 C157.380 285.220 157.910 283.940 158.980 282.850 C160.030 281.790 161.300 281.270 162.810 281.270 C164.330 281.270 165.620 281.790 166.670 282.850 "/>
  <path style="fill:rgb(255,255,255);stroke:none;stroke-width:0.3;" d="M182.180 281.450 C184.240 281.450 185.920 283.120 185.920 285.180 C185.920 287.250 184.240 288.920 182.180 288.920 C180.120 288.920 178.440 287.250 178.440 285.180 C178.440 283.120 180.120 281.450 182.180 281.450 "/>
  <path style="fill:rgb(0,0,0);stroke:none;stroke-width:0.3;" d="M183.260 284.100 C183.260 283.960 183.140 283.840 183.000 283.840 L181.350 283.840 C181.210 283.840 181.090 283.960 181.090 284.100 L181.090 285.750 L181.550 285.750 L181.550 287.710 L182.800 287.710 L182.800 285.750 L183.260 285.750 Z"/>
  <path style="fill:rgb(0,0,0);stroke:none;stroke-width:0.3;" d="M182.170 282.500 C182.490 282.500 182.740 282.750 182.740 283.060 C182.740 283.370 182.490 283.620 182.170 283.620 C181.860 283.620 181.610 283.370 181.610 283.060 C181.610 282.750 181.860 282.500 182.170 282.500 "/>
  <path style="fill:rgb(0,0,0);stroke:none;stroke-width:0.3;" d="M182.180 281.790 C183.090 281.790 183.870 282.120 184.510 282.760 C185.160 283.400 185.480 284.180 185.480 285.100 C185.480 286.030 185.170 286.800 184.530 287.410 C183.870 288.070 183.080 288.400 182.180 288.400 C181.280 288.400 180.500 288.070 179.850 287.420 C179.190 286.770 178.870 286.000 178.870 285.100 C178.870 284.210 179.200 283.430 179.860 282.760 C180.490 282.120 181.260 281.790 182.180 281.790 M182.170 281.070 C181.050 281.070 180.100 281.460 179.330 282.240 C178.540 283.040 178.140 284.000 178.140 285.100 C178.140 286.200 178.540 287.150 179.330 287.950 C180.130 288.740 181.070 289.140 182.170 289.140 C183.280 289.140 184.240 288.740 185.060 287.940 C185.830 287.180 186.210 286.230 186.210 285.100 C186.210 283.970 185.820 283.020 185.040 282.240 C184.260 281.460 183.300 281.070 182.170 281.070 "/>
  <g begin="text">
   <text y="286.0" x="200.396,207.443,212.519,216.605,221.852,224.156,230.663,234.614,238.565,242.651,246.251" svgx:width="0.77,0.55,0.44,0.57,0.22,0.71,0.42,0.42,0.44,0.38,0.38" style="fill:rgb(0,0,0);font-family:MinionPro-Bold;font-size:9.0px;stroke:none;">Open Access</text>
   <text y="286.0" x="249.851,252.263,257.978,262.946,265.52,268.985,271.397,275.51,279.011,281.918,284.492,288.461,290.9,294.887,297.299,299.873,303.338,305.75,308.189,310.763,314.732,318.719,323.804,327.269,331.256,336.17,338.582,343.523,348.608,353.522,357.509,361.01,363.422,367.535,369.947,376.094,379.595,383.582,387.695,390.602,393.176,397.505,401.492,403.904,410.051,414.803,422.336,429.869,434.621,439.706,443.171,445.583,451.964,454.871,457.778,461.279,463.853,468.587,473.528,476.435,479.009,483.761,488.846,491.258,495.74,497.954,502.436,504.848,508.079,513.164,516.071,520.058,523.559,528.644,532.757,535.664,538.238,542.99,548.075,552.188,554.465" svgx:width="0.23,0.62,0.53,0.27,0.37,0.23,0.44,0.37,0.31,0.27,0.42,0.25,0.43,0.23,0.27,0.37,0.23,0.25,0.27,0.42,0.43,0.55,0.37,0.43,0.53,0.23,0.53,0.55,0.53,0.43,0.37,0.23,0.44,0.23,0.67,0.37,0.43,0.44,0.31,0.27,0.46,0.43,0.23,0.67,0.51,0.82,0.82,0.51,0.55,0.37,0.23,0.69,0.31,0.31,0.37,0.27,0.51,0.53,0.31,0.27,0.51,0.55,0.23,0.48,0.23,0.48,0.23,0.34,0.55,0.31,0.43,0.37,0.55,0.44,0.31,0.27,0.51,0.55,0.44,0.25,0.23" style="fill:rgb(0,0,0);font-family:MinionPro-Regular;font-size:9.0px;stroke:none;"> This article is licensed under a Creative Commons Attribution 4.0 International </text>
   <text y="295.999" x="200.234,205.13,207.596,211.457,215.336,220.313,223.67,227.549,229.655,231.68,237.899,242.759,245.225,249.086,253.946,255.971,260.741,264.62,268.013,275.438,277.904,280.703,284.06,286.085,290.918,294.275,298.154,300.26,302.285,305.642,310.502,314.507,317.9,320.366,325.343,329.609,331.715,333.74,337.745,342.551,346.556,351.326,354.125,358.13,360.929,363.395,368.039,373.016,375.122,377.147,381.953,384.419,387.776,390.575,393.968,396.434,401.06,405.893,408.692,411.158,415.802,420.779,422.804,426.809,431.786,436.592,438.617,442.01,445.889,450.659,454.052,458.696,463.502,468.335,472.196,474.995,477.461,482.105,487.082,489.107,491.573,496.55,498.575,502.58,507.557,511.742,513.767,521.192,525.071,529.877,532.343,537.176,544.601,546.626,551.27,554.609" svgx:width="0.54,0.27,0.42,0.43,0.55,0.37,0.43,0.23,0.23,0.69,0.53,0.27,0.42,0.53,0.23,0.52,0.43,0.37,0.82,0.27,0.31,0.37,0.23,0.53,0.37,0.43,0.23,0.23,0.37,0.53,0.44,0.37,0.27,0.55,0.47,0.23,0.23,0.44,0.53,0.44,0.52,0.31,0.44,0.31,0.27,0.51,0.55,0.23,0.23,0.53,0.27,0.37,0.31,0.37,0.27,0.51,0.53,0.31,0.27,0.51,0.55,0.23,0.44,0.55,0.53,0.23,0.37,0.43,0.52,0.37,0.51,0.53,0.53,0.42,0.31,0.27,0.51,0.55,0.23,0.27,0.55,0.23,0.44,0.55,0.46,0.23,0.82,0.43,0.53,0.27,0.53,0.82,0.23,0.51,0.37,0.23" style="fill:rgb(0,0,0);font-family:MinionPro-Regular;font-size:9.0px;stroke:none;">License, which permits use, sharing, adaptation, distribution and reproduction in any medium or </text>
   <text y="305.998" x="155.639,158.303,162.893,166.232,173.603,177.554,180.299,182.351,184.268,188.219,191.522,193.439,195.716,200.306,205.229,209.441,211.358,215.309,218.612,220.529,224.66,229.25,234.029,235.946,240.158,242.57,246.737,250.562,252.479,256.43,261.146,265.862,269.201,273.791,278.507,281.846,284.258,288.209,290.954,294.779,296.696,300.503,303.842,307.667,312.419,314.831,317.576,319.493,322.238,326.828,328.745,331.49,336.296,340.121,342.038,346.628,349.967,352.379,356.591,359.003,363.926,367.877,370.154,372.071,376.022,380.801,383.546,388.352,392.942,396.281,399.395,402.698,405.812,407.729,411.68,416.603,421.355,423.272,426.017,430.823,434.648,436.565,439.868,444.458,449.237,452.576,456.383,460.208,462.26,464.177,468.893,472.232,476.822,480.989,483.401,488.153,491.978,493.895,497.846,499.763,502.04,504.452,509.375,513.839,515.756,518.501,523.091,525.008,527.753,532.559,536.384,538.301,544.286,547.625,551.45" svgx:width="0.3,0.51,0.37,0.82,0.44,0.31,0.23,0.23,0.44,0.37,0.23,0.25,0.51,0.55,0.47,0.23,0.44,0.37,0.23,0.46,0.51,0.53,0.23,0.47,0.27,0.46,0.43,0.23,0.44,0.52,0.52,0.37,0.51,0.52,0.37,0.27,0.44,0.31,0.43,0.23,0.42,0.37,0.43,0.53,0.27,0.31,0.23,0.31,0.51,0.23,0.31,0.53,0.43,0.23,0.51,0.37,0.27,0.47,0.27,0.55,0.44,0.25,0.23,0.44,0.53,0.31,0.53,0.51,0.37,0.35,0.37,0.35,0.23,0.44,0.55,0.53,0.23,0.31,0.53,0.43,0.23,0.37,0.51,0.53,0.37,0.42,0.43,0.23,0.23,0.52,0.37,0.51,0.46,0.27,0.53,0.43,0.23,0.44,0.23,0.25,0.27,0.55,0.5,0.23,0.31,0.51,0.23,0.31,0.53,0.43,0.23,0.67,0.37,0.43,0.36" style="fill:rgb(0,0,0);font-family:MinionPro-Regular;font-size:9.0px;stroke:none;">format, as long as you give appropriate credit to the original author(s) and the source, provide a link to the Cre-</text>
   <text y="315.997" x="155.639,159.707,162.569,165.098,169.382,173.324,175.583,181.685,186.392,193.88,201.368,206.075,211.115,214.535,216.794,219.188,221.717,225.641,229.583,234.623,238.043,241.985,244.154,246.413,250.481,255.521,260.39,262.649,265.178,270.218,275.087,277.616,281.54,285.608,288.47,292.412,294.671,297.2,299.981,302.24,306.164,311.087,315.155,320.195,324.524,328.466,331.886,334.145,340.427,344.369,347.825,351.767,354.026,361.514,365.582,370.451,374.393,376.562,378.821,388.577,392.519,394.778,397.307,404.795,408.863,413.192,417.134,420.554,422.813,427.52,430.976,433.235,437.942,440.804,445.727,449.669,453.125,455.384,458.246,463.169,465.698,469.154,474.023,476.282,481.115,485.183,488.639,491.501,495.749,498.008,505.496,509.564,512.426,516.368,519.824,522.353,526.421,528.815,531.074,533.603,538.643,540.902,543.764,548.687,551.216,554.519" svgx:width="0.44,0.31,0.27,0.46,0.43,0.23,0.67,0.51,0.82,0.82,0.51,0.55,0.37,0.23,0.25,0.27,0.42,0.43,0.55,0.37,0.43,0.23,0.23,0.44,0.55,0.53,0.23,0.27,0.55,0.53,0.27,0.42,0.44,0.31,0.43,0.23,0.27,0.3,0.23,0.42,0.53,0.44,0.55,0.47,0.43,0.37,0.23,0.69,0.43,0.37,0.43,0.23,0.82,0.44,0.53,0.43,0.23,0.23,1.07,0.43,0.23,0.27,0.82,0.44,0.47,0.43,0.37,0.23,0.51,0.37,0.23,0.51,0.31,0.53,0.43,0.37,0.23,0.31,0.53,0.27,0.37,0.53,0.23,0.52,0.44,0.37,0.31,0.46,0.23,0.82,0.44,0.31,0.43,0.37,0.27,0.44,0.25,0.23,0.27,0.55,0.23,0.31,0.53,0.27,0.37,0.23" style="fill:rgb(0,0,0);font-family:MinionPro-Regular;font-size:9.0px;stroke:none;">ative Commons license, and indicate if changes were made. The images or other third party material in this </text>
   <text y="325.996" x="155.639,159.626,163.001,165.782,168.23,172.073,174.386,178.247,180.227,184.214,187.589,191.45,193.43,195.878,200.837,204.68,206.993,211.808,216.596,220.457,225.245,227.225,229.673,234.632,236.612,239.393,244.235,248.096,250.076,254.063,257.438,260.219,262.667,266.51,268.823,272.684,274.727,278.066,280.046,286.067,289.442,293.303,297.29,300.071,302.519,306.722,310.583,312.563,318.584,323.21,330.617,338.024,342.65,347.609,350.948,352.928,355.241,357.689,361.532,365.393,370.352,373.691,377.552,379.64,381.62,386.435,391.394,393.707,397.568,400.907,404.246,406.226,408.674,413.633,418.421,420.869,424.712,428.699,431.48,435.341,440.129,442.109,446.735,449.516,454.358,458.219,461.594,467.795,470.243,473.582,477.443,479.423,481.871,486.83,488.81,492.797,494.777,498.62,501.995,505.856,510.644,513.092,515.873,517.853,520.166,522.614,527.573,531.434,533.414,536.195,540.821,542.801,545.582,550.424,554.249" svgx:width="0.44,0.37,0.31,0.27,0.42,0.25,0.43,0.23,0.44,0.37,0.43,0.23,0.27,0.55,0.42,0.25,0.53,0.53,0.43,0.53,0.23,0.27,0.55,0.23,0.31,0.53,0.43,0.23,0.44,0.37,0.31,0.27,0.42,0.25,0.43,0.22,0.37,0.23,0.67,0.37,0.43,0.44,0.31,0.27,0.46,0.43,0.23,0.67,0.51,0.82,0.82,0.51,0.55,0.37,0.23,0.25,0.27,0.42,0.43,0.55,0.37,0.43,0.23,0.23,0.53,0.55,0.25,0.43,0.37,0.37,0.23,0.27,0.55,0.53,0.27,0.42,0.44,0.31,0.43,0.53,0.23,0.51,0.31,0.53,0.43,0.37,0.69,0.27,0.37,0.43,0.23,0.27,0.55,0.23,0.44,0.23,0.42,0.37,0.43,0.53,0.27,0.31,0.23,0.25,0.27,0.55,0.43,0.23,0.31,0.51,0.23,0.31,0.53,0.43,0.23" style="fill:rgb(0,0,0);font-family:MinionPro-Regular;font-size:9.0px;stroke:none;">article are included in the article’s Creative Commons license, unless indicated otherwise in a credit line to the </text>
   <text y="335.995" x="155.639,163.01,166.961,169.706,173.531,176.87,179.282,183.233,185.51,187.562,189.506,192.575,195.239,197.183,204.554,208.505,211.25,215.075,218.414,220.826,224.777,227.054,228.998,231.41,234.713,236.657,241.58,246.17,248.915,250.859,253.271,258.194,262.001,264.278,269.057,273.809,277.634,282.386,284.33,286.742,291.665,293.609,296.354,301.16,304.985,306.929,310.88,314.219,316.964,319.376,323.183,325.46,329.285,331.292,334.595,336.539,342.524,345.863,349.688,353.639,356.384,358.796,362.963,366.788,368.732,374.717,379.307,386.678,394.049,398.639,403.562,406.865,408.809,411.086,413.498,417.305,421.13,426.053,429.356,433.181,435.125,439.076,443.999,448.751,450.695,454.826,459.416,464.195,467.534,469.478,471.89,476.813,479.558,483.383,488.306,493.058,496.883,501.635,503.579,508.358,511.661,515.486,517.43,519.842,523.145,525.089,530.012,534.602,537.347,539.291,544.007,547.832,551.171" svgx:width="0.82,0.44,0.31,0.43,0.37,0.27,0.44,0.25,0.23,0.23,0.34,0.3,0.23,0.82,0.44,0.31,0.43,0.37,0.27,0.44,0.25,0.23,0.27,0.37,0.23,0.55,0.51,0.31,0.23,0.27,0.55,0.42,0.25,0.53,0.53,0.43,0.53,0.23,0.27,0.55,0.23,0.31,0.53,0.43,0.23,0.44,0.37,0.31,0.27,0.42,0.25,0.43,0.22,0.37,0.23,0.67,0.37,0.43,0.44,0.31,0.27,0.46,0.43,0.23,0.67,0.51,0.82,0.82,0.51,0.55,0.37,0.23,0.25,0.27,0.42,0.43,0.55,0.37,0.43,0.23,0.44,0.55,0.53,0.23,0.46,0.51,0.53,0.37,0.23,0.27,0.55,0.31,0.43,0.55,0.53,0.43,0.53,0.23,0.53,0.37,0.43,0.23,0.27,0.37,0.23,0.55,0.51,0.31,0.23,0.52,0.43,0.37,0.36" style="fill:rgb(0,0,0);font-family:MinionPro-Regular;font-size:9.0px;stroke:none;">material. If material is not included in the article’s Creative Commons license and your intended use is not per-</text>
   <text y="345.994" x="155.639,163.01,165.422,168.167,170.912,174.737,179.489,181.226,185.798,189.929,191.666,194.969,197.714,201.665,204.41,209.189,211.934,216.524,219.863,223.994,225.731,229.07,232.895,237.107,241.886,244.163,248.114,250.859,253.271,257.861,262.784,264.521,269.111,272.45,274.187,278.012,282.26,286.067,289.892,293.717,298.469,301.772,303.509,306.254,311.06,314.885,316.622,321.338,325.163,328.502,335.873,338.285,341.03,343.775,347.6,352.352,354.089,358.868,362.171,365.996,368.048,369.785,373.916,378.506,383.285,385.022,391.187,393.599,395.876,398.153,399.89,404.813,408.638,412.464,417.216,418.953,421.698,426.288,428.025,432.615,437.186,439.931,443.882,446.294,451.217,452.954,457.67,461.495,464.834,472.205,474.617,477.92,481.223,483.635,488.225,493.148,494.885,499.637,502.049,505.388,509.213,513.02,515.765,518.042,522.173,523.91,526.574,529.913,534.503,541.874,543.611,546.356,551.162,554.987" svgx:width="0.82,0.27,0.31,0.31,0.43,0.53,0.23,0.51,0.46,0.23,0.37,0.31,0.44,0.31,0.53,0.31,0.51,0.37,0.46,0.23,0.37,0.43,0.47,0.53,0.25,0.44,0.31,0.27,0.51,0.55,0.23,0.51,0.37,0.23,0.43,0.47,0.42,0.43,0.43,0.53,0.37,0.23,0.31,0.53,0.43,0.23,0.52,0.43,0.37,0.82,0.27,0.31,0.31,0.43,0.53,0.23,0.53,0.37,0.43,0.23,0.23,0.46,0.51,0.53,0.23,0.69,0.27,0.25,0.25,0.23,0.55,0.43,0.43,0.53,0.23,0.31,0.51,0.23,0.51,0.51,0.31,0.44,0.27,0.55,0.23,0.52,0.43,0.37,0.82,0.27,0.37,0.37,0.27,0.51,0.55,0.23,0.53,0.27,0.37,0.43,0.42,0.31,0.25,0.46,0.23,0.3,0.37,0.51,0.82,0.23,0.31,0.53,0.43,0.23" style="fill:rgb(0,0,0);font-family:MinionPro-Regular;font-size:9.0px;stroke:none;">mitted by statutory regulation or exceeds the permitted use, you will need to obtain permission directly from the </text>
   <text y="355.993" x="155.639,159.446,164.036,168.752,172.883,176.222,178.634,182.846,187.652,190.397,192.233,197.039,201.629,203.906,208.658,212.483,215.822,217.874,219.71,225.263,229.853,231.689,235.856,238.268,242.093,248.258,250.094,254.045,255.881,259.688,264.278,268.994,273.125,274.961,279.551,282.215,284.051,286.796,291.602,294.014,297.317,299.153,301.43,303.842,307.649,311.474,316.397,319.7,323.525,325.577,327.413,331.58,333.992,337.295,339.707,342.452" svgx:width="0.42,0.51,0.52,0.46,0.37,0.27,0.47,0.53,0.31,0.23,0.53,0.51,0.25,0.53,0.43,0.37,0.23,0.23,0.62,0.51,0.23,0.46,0.27,0.43,0.69,0.23,0.44,0.23,0.42,0.51,0.52,0.46,0.23,0.51,0.3,0.23,0.31,0.53,0.27,0.37,0.23,0.25,0.27,0.42,0.43,0.55,0.37,0.43,0.23,0.23,0.46,0.27,0.37,0.27,0.31,0.23" style="fill:rgb(0,0,0);font-family:MinionPro-Regular;font-size:9.0px;stroke:none;">copyright holder. To view a copy of this license, visit </text>
   <text y="355.993" x="344.288,349.094,351.839,354.584,359.3,361.352,364.331,367.31,371.117,374.456,378.281,382.232,384.977,387.389,391.556,395.381,399.188,403.778,411.149,418.52,423.11,428.033,431.336,433.388,437.978,441.317,445.529,448.508,450.785,453.197,457.004,460.829,465.752,469.055,472.88,476.183,479.162,483.734,487.865,490.844,495.164,497.216,501.536" svgx:width="0.53,0.31,0.31,0.52,0.23,0.33,0.33,0.42,0.37,0.43,0.44,0.31,0.27,0.46,0.43,0.42,0.51,0.82,0.82,0.51,0.55,0.37,0.23,0.51,0.37,0.47,0.33,0.25,0.27,0.42,0.43,0.55,0.37,0.43,0.37,0.33,0.51,0.46,0.33,0.48,0.23,0.48,0.33" style="fill:rgb(0,0,255);font-family:MinionPro-Regular;font-size:9.0px;stroke:none;">http://creativecommons.org/licenses/by/4.0/</text>
   <text y="355.993" x="504.515" svgx:width="0.23" style="fill:rgb(0,0,0);font-family:MinionPro-Regular;font-size:9.0px;stroke:none;">.</text>
   <text y="365.992" x="155.639" svgx:width="0.23" style="fill:rgb(0,0,0);font-family:MinionPro-Regular;font-size:9.0px;stroke:none;"> </text>
   <text y="375.991" x="155.639,161.957,163.793,173.432,177.257,179.093,185.312,190.091,192.836,197.642,202.232,205.571,208.685,211.988,215.102,216.938,221.258,225.578,229.898" svgx:width="0.7,0.23,1.07,0.43,0.23,0.69,0.53,0.31,0.53,0.51,0.37,0.35,0.37,0.35,0.23,0.48,0.48,0.48,0.48" style="fill:rgb(0,0,0);font-family:MinionPro-Regular;font-size:9.0px;stroke:none;">© The Author(s) 2017</text>
  </g>
 </g>
</svg>
