<?xml version="1.0" encoding="UTF-8"?>
<svg height="774.244" width="4165.638" xmlns="http://www.w3.org/2000/svg">
 <g id="page" xmlns:svgx="http://www.xml-cml.org/schema/svgx">
  <g begin="text">
   <text y="22.46" x="40.638,48.208,55.778,63.055,66.145,71.865,77.215,81.135,86.765,90.565,95.995,99.085,103.915,109.695,118.435,121.635,126.125,130.955,133.725,139.15,144.87,148.79,151.56,155.19,157.96,162.79,166.59,172.02,177.78,183.56,187.36,191.28,195.77" svgx:width="0.71,0.71,0.71,0.26,0.53,0.49,0.35,0.52,0.34,0.5,0.26,0.44,0.53,0.83,0.28,0.4,0.44,0.23,0.5,0.53,0.35,0.23,0.32,0.23,0.44,0.34,0.5,0.53,0.53,0.34,0.35,0.4,0.28" style="fill:rgb(255,255,255);font-family:Corbel;font-size:10.0px;stroke:none;">www.nature.com/scientificreports/</text>
  </g>
  <g begin="text">
   <text y="764.23" x="550.106" svgx:width="0.45" style="fill:rgb(131,144,151);font-family:Corbel;font-size:10.0px;stroke:none;">3</text>
  </g>
  <g begin="text">
   <text y="764.244" x="40.794,45.642,50.786,53.186,58.026,64.026,68.898,71.298,75.762,78.162" svgx:width="0.55,0.59,0.25,0.55,0.7,0.56,0.25,0.5,0.25,0.59" style="fill:rgb(131,144,151);font-family:Corbel;font-size:8.0px;stroke:none;">Scientific</text>
   <text y="764.244" x="83.162" svgx:width="0.2" style="fill:rgb(0,0,0);font-family:Corbel;font-size:8.0px;stroke:none;"> </text>
   <text y="764.244" x="84.762,90.218,95.194,100.434,106.738,112.194,117.186" svgx:width="0.63,0.57,0.6,0.73,0.63,0.57,0.58" style="fill:rgb(131,144,151);font-family:Corbel-Bold;font-size:8.0px;stroke:none;">RepoRts</text>
   <text y="764.244" x="122.082,123.522,125.338,126.778,130.88" svgx:width="0.2,0.23,0.2,0.51,0.26" style="fill:rgb(0,0,0);font-family:Corbel;font-size:8.0px;stroke:none;"> | 7:</text>
   <text y="764.244" x="132.994,134.45,138.386,142.322,146.258,150.194" svgx:width="0.18,0.49,0.49,0.49,0.49,0.18" style="fill:rgb(0,0,0);font-family:MyriadPro-It;font-size:8.0px;stroke:none;"> 1440 </text>
   <text y="764.244" x="151.65,153.091,154.907,156.35,161.718,167.558,169.526,171.638,175.742,179.846,181.958,186.062,190.166,194.27,198.374,200.574,203.806,207.91,212.014,216.118,220.222,224.326,226.99,231.094,235.198,239.302,241.966,246.07,250.174,254.278,258.382,262.486,265.15" svgx:width="0.2,0.23,0.2,0.67,0.73,0.25,0.26,0.51,0.51,0.26,0.51,0.51,0.51,0.51,0.28,0.4,0.51,0.51,0.51,0.51,0.51,0.33,0.51,0.51,0.51,0.33,0.51,0.51,0.51,0.51,0.51,0.33,0.48" style="fill:rgb(0,0,0);font-family:Corbel;font-size:8.0px;stroke:none;"> | DOI:10.1038/s41598-017-01638-y</text>
  </g>
  <path style="fill:none;stroke:rgb(0,0,0);stroke-width:1.0;" d="M40.640 752.550 L554.640 752.550 "/>
  <g begin="text">
   <text y="592.01" x="155.638,160.435,164.917,168.139,171.964,173.836,177.139,179.551,183.331,187.156,189.028,193.78,196.165,199.423,202.213,205.606,207.982,212.455,217.126,219.915,222.327,226.809,231.732,233.604,238.257,240.534,245.025,247.77,249.642,252.027,255.33,257.202,260.468,265.239,269.685,275.876,280.799,282.671,285.083,290.006,291.878,296.639,299.051,303.289,305.341" svgx:width="0.52,0.51,0.37,0.43,0.23,0.37,0.27,0.42,0.43,0.23,0.53,0.27,0.37,0.31,0.37,0.27,0.51,0.53,0.31,0.27,0.51,0.55,0.23,0.52,0.25,0.51,0.31,0.23,0.27,0.37,0.23,0.37,0.53,0.51,0.69,0.55,0.23,0.27,0.55,0.23,0.53,0.27,0.47,0.23,0.23" style="fill:rgb(0,0,0);font-family:MinionPro-Regular;font-size:9.0px;stroke:none;">pore size distribution plot is shown in Fig. </text>
   <text y="592.01" x="307.207,311.527,314.641,319.933" svgx:width="0.48,0.35,0.59,0.35" style="fill:rgb(0,0,255);font-family:MinionPro-Regular;font-size:9.0px;stroke:none;">2(B)</text>
   <text y="592.01" x="323.047,325.099,326.971,336.574,340.399,342.271,346.141,351.037,355.033,357.247,361.378,364.681,367.066,370.369,372.241,376.723,379.387,381.259,384.058,388.828,392.653,394.525" svgx:width="0.23,0.23,1.07,0.43,0.23,0.44,0.55,0.44,0.25,0.46,0.37,0.27,0.37,0.23,0.51,0.3,0.23,0.31,0.53,0.43,0.23,0.74" style="fill:rgb(0,0,0);font-family:MinionPro-Regular;font-size:9.0px;stroke:none;">. The analysis of the N</text>
   <text y="593.81" x="401.205" svgx:width="0.48" style="fill:rgb(0,0,0);font-family:MinionPro-Regular;font-size:5.85px;stroke:none;">2</text>
   <text y="592.01" x="404.013,405.885,409.836,414.561,417.936,422.418,425.847,430.464,433.253,435.665,440.147,445.07,446.942,451.721,455.501,458.3,462.251,464.123,466.84,471.619,475.048,477.847,482.617,486.442,489.781,491.653,496.405,500.23,507.564,512.047,516.898,520.156,522.945,526.284,530.064,532.755,536.625,541.377,543.249,546.048,550.818,554.643" svgx:width="0.23,0.44,0.53,0.37,0.51,0.37,0.52,0.31,0.27,0.51,0.55,0.23,0.53,0.44,0.31,0.44,0.23,0.3,0.53,0.37,0.31,0.53,0.43,0.37,0.23,0.53,0.43,0.82,0.51,0.55,0.37,0.31,0.37,0.44,0.31,0.43,0.53,0.23,0.31,0.53,0.43,0.23" style="fill:rgb(0,0,0);font-family:MinionPro-Regular;font-size:9.0px;stroke:none;"> adsorption data further demonstrated the </text>
   <text y="602.009" x="155.64,160.281,163.536,167.397,170.805,174.666,179.586,183.429,187.29,189.261,193.776,196.476,198.447,205.815,209.676,213.085,217.609,222.439,226.955,230.21,234.071,237.41,239.381,242.756,246.659,251.544,255.834,258.282,263.166,267.414,269.385,272.173,275.428,279.942,287.349,289.32,294.576,298.932,300.903,303.628,308.254,310.225,314.581,315.714,320.673,328.08,330.051,334.008,337.347,339.318,345.444,349.267,351.621,353.934,355.905,359.862,363.201,365.172,372.579,375.027,378.87,382.126,386.65,391.479,395.995,399.25,403.111,406.45,408.421,410.734,414.595,417.886,421.225,423.196,426.028,430.841,434.744,439.703,441.674,446.93,451.286,452.415,457.374,464.781,466.752,472.977,475.314,478.146,482.988,484.959,488.946,490.917,493.64,498.165,500.997,505.026,507.339,509.31,514.14,518.656,521.911,525.772,527.743,531.871,536.432,538.634,543.449,550.817,554.642" svgx:width="0.52,0.37,0.43,0.37,0.43,0.55,0.42,0.43,0.23,0.51,0.3,0.23,0.82,0.43,0.37,0.51,0.52,0.51,0.37,0.43,0.37,0.23,0.37,0.44,0.55,0.47,0.27,0.55,0.47,0.23,0.3,0.37,0.51,0.82,0.23,0.58,0.48,0.23,0.31,0.51,0.23,0.48,0.23,0.55,0.82,0.23,0.44,0.37,0.23,0.69,0.43,0.25,0.25,0.23,0.44,0.37,0.23,0.82,0.27,0.42,0.37,0.51,0.52,0.51,0.37,0.43,0.37,0.23,0.25,0.43,0.37,0.37,0.23,0.31,0.53,0.44,0.55,0.23,0.58,0.48,0.23,0.55,0.82,0.23,0.69,0.27,0.31,0.53,0.23,0.44,0.23,0.31,0.51,0.31,0.44,0.25,0.23,0.52,0.51,0.37,0.43,0.23,0.46,0.51,0.25,0.53,0.82,0.43,0.23" style="fill:rgb(0,0,0);font-family:MinionPro-Regular;font-size:9.0px;stroke:none;">presence of mesopores ranging from ~2 to 5 nm as well as micropores less than ~2 nm with a total pore volume </text>
   <text y="612.008" x="155.64,160.115,162.77,164.5,168.811,170.854,175.165,179.476,180.592,184.39" svgx:width="0.51,0.3,0.23,0.48,0.23,0.48,0.48,0.23,0.42,0.82" style="fill:rgb(0,0,0);font-family:MinionPro-Regular;font-size:9.0px;stroke:none;">of 0.55 cm</text>
   <text y="608.95" x="191.767" svgx:width="0.48" style="fill:rgb(0,0,0);font-family:MinionPro-Regular;font-size:5.85px;stroke:none;">3</text>
   <text y="612.01" x="194.571,197.541,201.774,203.817,205.545,211.613,214.907,216.635,220.463,224.452,226.72,230.584,235.4,237.698,241.471,244.156,248.018,252.71,254.753,256.481,259.273,264.037,267.853,269.581,276.943,279.346,283.144,286.358,290.843,295.633,300.109,303.323,307.139,308.867,312.73,317.611,322.354,324.082,331.411,335.227,338.595,343.079,347.87,352.345,355.56,359.376,361.104" svgx:width="0.33,0.47,0.23,0.23,0.69,0.37,0.23,0.42,0.44,0.25,0.42,0.53,0.25,0.44,0.31,0.43,0.53,0.23,0.23,0.31,0.53,0.43,0.23,0.82,0.27,0.42,0.37,0.51,0.52,0.51,0.37,0.43,0.23,0.44,0.55,0.53,0.23,0.82,0.43,0.37,0.51,0.52,0.51,0.37,0.43,0.23,0.35" style="fill:rgb(0,0,0);font-family:MinionPro-Regular;font-size:9.0px;stroke:none;">/g. As calculated, the micropore and mesopore (</text>
   <text y="612.01" x="364.209" svgx:width="0.78" style="fill:rgb(0,0,0);font-family:EuclidSymbol;font-size:9.0px;stroke:none;">&gt;</text>
   <text y="612.01" x="371.241,375.552,376.677,381.591,388.953,392.058,393.786,397.875,402.395,404.557,409.327,416.656,420.472,423.766,425.494,429.357,432.572,436.388,438.116,442.427,444.47,448.781,453.092,454.82,458.684,463.565,468.308,470.036,474.347,476.39,480.701,485.012,486.171,489.969" svgx:width="0.48,0.23,0.55,0.82,0.35,0.23,0.46,0.51,0.25,0.53,0.82,0.43,0.37,0.23,0.44,0.37,0.43,0.23,0.48,0.23,0.48,0.48,0.23,0.44,0.55,0.53,0.23,0.48,0.23,0.48,0.48,0.23,0.42,0.82" style="fill:rgb(0,0,0);font-family:MinionPro-Regular;font-size:9.0px;stroke:none;">2 nm) volumes are 0.25 and 0.30 cm</text>
   <text y="608.95" x="497.332" svgx:width="0.48" style="fill:rgb(0,0,0);font-family:MinionPro-Regular;font-size:5.85px;stroke:none;">3</text>
   <text y="612.01" x="500.136,503.106,507.339,509.382,511.11,514.325,518.141,521.393,526.183,530.047,533.909,536.692,539.035,543.123,546.905,549.112,552.58,554.632" svgx:width="0.33,0.47,0.23,0.23,0.37,0.43,0.37,0.52,0.43,0.42,0.31,0.27,0.46,0.43,0.25,0.46,0.23,0.23" style="fill:rgb(0,0,0);font-family:MinionPro-Regular;font-size:9.0px;stroke:none;">/g, respectively. </text>
   <text y="622.009" x="155.634,165.237,169.062,170.898,175.65,178.035,181.293,184.083,187.475,189.851,194.324,198.995,201.785,204.197,208.679,213.602,215.438,219.92,222.584,224.42,229.216,233.698,236.92,240.745,242.581,245.884,248.296,252.076,255.901,259.204,261.04,264.847,269.328,272.721,275.943,279.768,283.026,287.823,292.305,297.192,301.917,305.22,307.056,309.747,314.337,316.173,318.971,323.741,327.566,329.402,333.947,338.519,341.894,345.719,349.319,353.486,357.266,360.056,362.468,366.949,371.872,373.708,376.462,379.684,384.166,391.537,393.373,398.926,404.038,412.057,413.893,416.305,423.649,427.555,431.695,435.52,438.823,440.659,443.773,448.534,450.946,455.184,457.236" svgx:width="1.07,0.43,0.23,0.53,0.27,0.37,0.31,0.37,0.27,0.51,0.53,0.31,0.27,0.51,0.55,0.23,0.51,0.3,0.23,0.52,0.51,0.37,0.43,0.23,0.37,0.27,0.42,0.43,0.37,0.23,0.42,0.51,0.37,0.37,0.43,0.37,0.52,0.51,0.55,0.53,0.37,0.23,0.31,0.51,0.23,0.31,0.53,0.43,0.23,0.51,0.51,0.37,0.43,0.37,0.46,0.44,0.31,0.27,0.51,0.55,0.23,0.3,0.37,0.51,0.82,0.23,0.62,0.57,0.89,0.23,0.27,0.82,0.44,0.47,0.43,0.37,0.23,0.35,0.53,0.27,0.47,0.23,0.23" style="fill:rgb(0,0,0);font-family:MinionPro-Regular;font-size:9.0px;stroke:none;">The distribution of pore sizes corresponds to the observation from TEM images (Fig. </text>
   <text y="622.009" x="459.105,463.425" svgx:width="0.48,0.74" style="fill:rgb(0,0,255);font-family:MinionPro-Regular;font-size:9.0px;stroke:none;">1D</text>
   <text y="622.009" x="470.04,473.154" svgx:width="0.35,0.23" style="fill:rgb(0,0,0);font-family:MinionPro-Regular;font-size:9.0px;stroke:none;">).</text>
   <text y="632.008" x="167.631,173.382,177.252,184.596,188.466,193.389,195.198,198.456,203.252,207.122,210.992,213.782,217.004,221.594,224.969,228.776,233.266,237.838,241.969,243.778,247.648,252.535,257.287,259.096,264.982,268.186,271.525,275.314,279.445,281.254,286.006,288.418,293.556,296.895,300.846,304.716,307.506,309.918,314.4,319.323,321.132,324.246,330.132,335.721,342.336,345.45,347.259,351.129,354.351,358.176,359.985,362.756,368.849,373.439,375.248,377.939,381.809,385.562,390.368,395.291,397.703,402.212,406.991,410.816,414.119,415.928,418.727,423.506,427.286,430.031,431.84,435.673,439.543,444.466,446.275,450.928,454.753,456.562,461.314,464.689,468.559,473.311,475.12,477.811,482.401,484.21,487.963,492.742,496.612,499.951,503.902,507.771,510.462,514.287,517.68,520.092,523.872,527.697,529.506,533.339,537.21,540.549,545.202,549.684,554.607" svgx:width="0.62,0.44,0.82,0.44,0.55,0.23,0.37,0.52,0.43,0.42,0.31,0.37,0.51,0.37,0.42,0.51,0.52,0.46,0.23,0.44,0.55,0.53,0.23,0.65,0.36,0.37,0.44,0.46,0.23,0.53,0.27,0.56,0.37,0.44,0.42,0.31,0.27,0.51,0.55,0.23,0.35,0.65,0.62,0.74,0.35,0.23,0.44,0.37,0.43,0.23,0.31,0.69,0.51,0.23,0.31,0.43,0.42,0.53,0.55,0.27,0.51,0.53,0.43,0.37,0.23,0.31,0.53,0.44,0.31,0.23,0.42,0.44,0.55,0.23,0.51,0.43,0.23,0.53,0.37,0.43,0.53,0.23,0.31,0.51,0.23,0.42,0.53,0.44,0.37,0.44,0.42,0.31,0.43,0.37,0.27,0.42,0.43,0.23,0.42,0.44,0.37,0.51,0.51,0.55,0.23" style="fill:rgb(0,0,0);font-family:MinionPro-Regular;font-size:9.0px;stroke:none;">Raman spectroscopy and X-ray diffraction (XRD) are two techniques that can be used to characterize carbon </text>
   <text y="642.007" x="155.634,159.691,162.074,164.414,168.967,171.818,175.101,179.653,184.511,188.399,191.765,193.88,195.932,202.24,204.47,207.33,212.161,216.713,221.555,225.892,230.761,232.813,236.869,239.252,241.592,243.644,246.504,251.335,255.223,257.275,261.171,265.102,268.504,273.218,277.761,282.747,284.799,292.204,296.046,298.798,302.686,306.14,308.64,312.698,315.009,318.375,320.427,324.359,327.642,331.53,333.582,336.226,340.769,344.224,351.62,355.551,360.366,362.418,367.15,372.008,376.552,381.538,383.59,389.638,392.905,398.953,401.005,405.718,410.262,415.21,419.996,423.362,425.477,427.529,430.39,435.221,439.109,441.161,445.704,449.158,451.633,455.521,460.334,463.195,467.036,469.887,472.362,476.904,481.89,483.942,488.486,491.213,493.265,499.313,502.58,508.628,510.68,515.394,519.937,524.885,529.672,533.038,535.09,539.148,541.378,544.13,548.018,551.364,554.667" svgx:width="0.44,0.25,0.25,0.51,0.31,0.37,0.51,0.52,0.43,0.37,0.23,0.23,0.69,0.25,0.31,0.53,0.51,0.53,0.47,0.53,0.23,0.44,0.25,0.25,0.23,0.31,0.53,0.43,0.23,0.42,0.44,0.37,0.51,0.51,0.55,0.23,0.82,0.44,0.31,0.43,0.37,0.27,0.44,0.25,0.37,0.23,0.44,0.37,0.43,0.23,0.3,0.51,0.37,0.82,0.43,0.53,0.23,0.53,0.52,0.51,0.55,0.23,0.67,0.36,0.67,0.23,0.51,0.51,0.55,0.53,0.37,0.23,0.23,0.31,0.53,0.43,0.23,0.51,0.37,0.27,0.43,0.55,0.31,0.44,0.31,0.27,0.51,0.55,0.23,0.51,0.3,0.23,0.67,0.36,0.67,0.23,0.51,0.51,0.55,0.53,0.37,0.23,0.44,0.25,0.31,0.43,0.37,0.37,0.23" style="fill:rgb(0,0,0);font-family:MinionPro-Regular;font-size:9.0px;stroke:none;">allotropes. Although all the carbon materials are formed upon C-C bonds, the orientation of C-C bonds alters </text>
   <text y="652.006" x="155.634,158.446,161.728,166.268,173.702,175.745,180.287,185.232,189.12,191.163,194.481,197.329,200.817,205.659,209.587,212.302,217.139,220.42,224.304,226.347,229.097,233.746,235.789,238.646,243.476,247.359,249.402,253.953,256.81,261.639,265.523,268.354,270.469,272.512,276.783,279.258,284.203,288.073,291.957,294.0,298.315,301.713,305.552,310.264,315.133,317.495,320.246,324.129,326.172,328.616,331.982,334.025,340.177,344.025,346.405,348.745,350.788,355.348,360.293,364.799,371.049,376.035,378.078,383.033,385.508,387.551,390.026,394.566,399.552,401.595,406.271,410.11,412.824,415.574,419.457,423.117,427.306,429.349,433.197,435.532,439.462,443.39,446.239,449.52,454.25,459.065,462.948,464.991,472.394,476.233,478.983,482.871,486.322,488.82,492.875,495.157,497.272,499.315,502.173,507.001,510.889,512.932,518.742,522.671,530.074,534.003,538.985,541.028,544.956,549.903,554.655" svgx:width="0.3,0.37,0.51,0.82,0.23,0.51,0.55,0.43,0.23,0.37,0.31,0.37,0.53,0.42,0.31,0.53,0.37,0.43,0.23,0.31,0.51,0.23,0.31,0.53,0.43,0.23,0.51,0.31,0.53,0.43,0.37,0.23,0.23,0.47,0.27,0.55,0.42,0.43,0.23,0.47,0.37,0.44,0.52,0.53,0.27,0.31,0.43,0.23,0.27,0.37,0.23,0.69,0.43,0.25,0.25,0.23,0.5,0.55,0.51,0.69,0.55,0.23,0.54,0.27,0.23,0.27,0.51,0.55,0.23,0.51,0.44,0.31,0.31,0.43,0.37,0.46,0.23,0.43,0.25,0.43,0.42,0.31,0.37,0.51,0.53,0.43,0.23,0.82,0.44,0.31,0.43,0.37,0.27,0.44,0.25,0.23,0.23,0.31,0.53,0.43,0.23,0.62,0.44,0.82,0.44,0.55,0.23,0.44,0.55,0.53,0.23" style="fill:rgb(0,0,0);font-family:MinionPro-Regular;font-size:9.0px;stroke:none;">from one structure to the other. Since graphite is well known Li ion battery electrode material, the Raman and </text>
   <text y="662.005" x="155.634,161.569,167.208,173.872,175.888,179.69,184.519,188.438,191.826,195.826,199.746,202.486,206.361,209.803,212.264,216.093,219.923,222.762,225.224,229.755,234.656,238.008,240.02,244.551,247.265,249.276,252.125,256.944,260.819,262.83,266.713,270.632,274.021,278.723,283.255,288.227,290.239,292.871,297.556,301.475,308.896,310.907,317.05,320.924,324.196,328.07,330.082,334.001,338.947,342.992,345.256,349.436,352.86,356.78,361.581,363.593,368.394,371.747,374.208,379.109,383.37,385.382,389.688,393.076,396.905,401.608,406.463,408.817,411.557,415.432,417.443,421.417,424.769,426.781,429.629,434.449,438.323,440.335,443.606,447.481,450.113,453.988,457.259,461.133,466.069,469.926,473.746,475.848,477.859,483.66,487.579,494.973,498.892,503.865,505.876,509.679,514.507,518.427,521.815,525.816,529.734,532.475,536.35,539.792,542.227,545.534,548.373,550.834,554.641" svgx:width="0.65,0.62,0.74,0.23,0.42,0.53,0.44,0.37,0.44,0.42,0.31,0.43,0.37,0.27,0.42,0.44,0.31,0.27,0.51,0.55,0.37,0.23,0.51,0.3,0.23,0.31,0.53,0.43,0.23,0.42,0.44,0.37,0.51,0.51,0.55,0.23,0.3,0.51,0.44,0.82,0.23,0.69,0.43,0.37,0.43,0.23,0.44,0.55,0.44,0.25,0.46,0.37,0.43,0.53,0.23,0.53,0.37,0.27,0.55,0.47,0.23,0.47,0.37,0.44,0.52,0.53,0.27,0.31,0.43,0.23,0.44,0.37,0.23,0.31,0.53,0.43,0.23,0.37,0.43,0.3,0.43,0.37,0.43,0.55,0.42,0.43,0.23,0.23,0.62,0.44,0.82,0.44,0.55,0.23,0.42,0.53,0.44,0.37,0.44,0.42,0.31,0.43,0.37,0.27,0.37,0.31,0.27,0.42,0.23" style="fill:rgb(0,0,0);font-family:MinionPro-Regular;font-size:9.0px;stroke:none;">XRD characterizations of the carbon foam were analysed using graphite as the reference. Raman characteristic </text>
   <text y="672.004" x="155.634,160.441,164.33,168.335,172.808,176.12,178.073,182.566,185.239,187.192,190.46" svgx:width="0.52,0.43,0.44,0.5,0.37,0.23,0.51,0.3,0.23,0.37,0.52" style="fill:rgb(0,0,0);font-family:MinionPro-Regular;font-size:9.0px;stroke:none;">peaks of sp</text>
   <text y="668.95" x="195.187" svgx:width="0.48" style="fill:rgb(0,0,0);font-family:MinionPro-Regular;font-size:5.85px;stroke:none;">2</text>
   <text y="672.01" x="198.001,199.954,204.563,208.812,213.286,216.689,219.11,223.871,226.292,230.081,233.961,238.722,240.675" svgx:width="0.23,0.53,0.46,0.51,0.37,0.27,0.53,0.27,0.42,0.43,0.53,0.23,0.67" style="fill:rgb(0,0,0);font-family:MinionPro-Regular;font-size:9.0px;stroke:none;"> hybridized C</text>
   <text y="672.01" x="246.669" svgx:width="0.78" style="fill:rgb(0,0,0);font-family:EuclidSymbol;font-size:9.0px;stroke:none;">=</text>
   <text y="672.01" x="253.684,259.678,261.632,266.294,270.786,275.683,280.418,283.73,285.683,288.104,293.036,294.989,299.255,302.603,306.393,311.056,315.871,318.185,320.886,324.72,326.673,331.183,336.08,340.535,346.737,351.669,353.622,357.556,360.868,362.821,369.445,373.774,375.835,377.788,384.412,388.741,390.694,394.574,399.471,404.232,406.185,412.629,414.582,419.209,423.089,427.986,432.694,434.755,436.708,441.605,446.096,449.499,456.853,460.859,463.19,465.414,469.554,471.507,476.188,480.004,483.884,488.672,492.02,493.973,497.763,500.517,502.47,506.799,511.128,515.457,519.786,521.847,526.176,530.505,534.834,539.163,541.116,544.996,549.892,554.644" svgx:width="0.67,0.23,0.51,0.51,0.55,0.53,0.37,0.23,0.27,0.55,0.23,0.47,0.37,0.44,0.52,0.53,0.27,0.31,0.43,0.23,0.5,0.55,0.51,0.69,0.55,0.23,0.44,0.37,0.23,0.74,0.48,0.23,0.23,0.74,0.48,0.23,0.44,0.55,0.53,0.23,0.71,0.23,0.51,0.44,0.55,0.53,0.23,0.23,0.55,0.51,0.37,0.82,0.44,0.25,0.25,0.46,0.23,0.51,0.42,0.42,0.53,0.37,0.23,0.44,0.31,0.23,0.48,0.48,0.48,0.48,0.23,0.48,0.48,0.48,0.48,0.23,0.44,0.55,0.53,0.23" style="fill:rgb(0,0,0);font-family:MinionPro-Regular;font-size:9.0px;stroke:none;">C bonds in graphite known as D1, D2 and G band, normally occur at 1350,1362 and </text>
   <text y="682.009" x="155.638,159.976,164.314,168.652,172.99,174.133,177.958" svgx:width="0.48,0.48,0.48,0.48,0.23,0.42,0.82" style="fill:rgb(0,0,0);font-family:MinionPro-Regular;font-size:9.0px;stroke:none;">1580 cm</text>
   <text y="678.95" x="185.351" svgx:width="0.78" style="fill:rgb(0,0,0);font-family:EuclidSymbol;font-size:5.85px;stroke:none;">−</text>
   <text y="678.95" x="189.914" svgx:width="0.48" style="fill:rgb(0,0,0);font-family:MinionPro-Regular;font-size:5.85px;stroke:none;">1</text>
   <text y="682.01" x="192.736,194.806,196.768,200.008,203.851,207.128,211.943,215.832,219.72,222.528,224.896,229.009,232.817,235.05,238.542,240.612,242.574,249.207,252.429,257.065,260.954,265.86,270.603,273.924,275.886,279.711,284.211,287.623,290.864,294.707,297.984,302.8,307.3,312.205,316.975,318.937,321.646,326.254,328.216,331.034,335.823,339.666,341.628,344.905,349.702,353.113,357.946,361.771,364.229,368.243,370.538,372.5,377.27,381.113,383.714,387.603,391.491,394.254,397.575,399.537,404.037,407.394,409.356,413.245,418.015,422.174,426.017,427.979,432.65,434.973,438.862,443.767,447.61,450.931,452.893,459.139,463.963,466.438,468.733,472.576,474.538,480.991,484.214,488.849,492.738,497.643,502.413,504.375,507.616,511.459,516.085,519.326,523.169,526.563,530.406,535.176,537.939,541.26,543.222,546.039,550.828,554.653" svgx:width="0.23,0.23,0.37,0.43,0.37,0.52,0.43,0.42,0.31,0.27,0.46,0.43,0.25,0.46,0.23,0.23,0.74,0.36,0.51,0.44,0.55,0.53,0.37,0.23,0.42,0.51,0.37,0.37,0.43,0.37,0.52,0.51,0.55,0.53,0.23,0.31,0.51,0.23,0.31,0.53,0.43,0.23,0.37,0.53,0.37,0.54,0.42,0.27,0.44,0.25,0.23,0.53,0.43,0.3,0.43,0.42,0.31,0.37,0.23,0.51,0.37,0.23,0.43,0.53,0.47,0.43,0.23,0.52,0.25,0.44,0.55,0.43,0.37,0.23,0.69,0.53,0.27,0.25,0.43,0.23,0.71,0.36,0.51,0.44,0.55,0.53,0.23,0.37,0.43,0.52,0.37,0.43,0.37,0.43,0.55,0.31,0.37,0.23,0.31,0.53,0.43,0.23" style="fill:rgb(0,0,0);font-family:MinionPro-Regular;font-size:9.0px;stroke:none;">, respectively. D-bands correspond to the surficial defects or edge planes while G-band represents the </text>
   <text y="692.009" x="155.638,158.05,162.802,165.493,169.318,172.711,175.123,179.605,182.944,184.684,189.166,191.83,193.572,196.371,201.141,204.966,206.706,211.503,215.328,218.721,221.304,225.174,229.044,231.789,233.53,237.337,240.937,245.068,248.326,251.125,255.121,257.442,259.719,262.131,267.018,270.843,272.585,275.843,278.633,282.061,286.84,290.71,293.365,298.144,301.366,305.191,306.932,309.344,314.267,316.008,322.236,327.042,329.454,333.207,338.013,339.754,346.189,349.393,354.01,357.88,362.767,367.492,370.795,372.536,377.423,381.905,385.298,392.642,396.638,398.96,401.174,405.305,407.047,411.826,415.615,419.71,423.535,425.275,430.081,432.493,436.768,441.538,445.363,448.702,450.444,452.856,457.608,460.299,464.124,468.975,472.278,474.582,477.354,481.485,483.226,487.708,490.372,492.113,497.864,501.734,509.078,512.948,517.871,519.612,522.987,526.821,530.601,533.256,535.946,539.771,543.164,545.576,550.427,554.639" svgx:width="0.27,0.55,0.31,0.43,0.37,0.27,0.51,0.37,0.23,0.51,0.3,0.23,0.31,0.53,0.43,0.23,0.52,0.43,0.37,0.3,0.43,0.42,0.31,0.23,0.42,0.37,0.46,0.37,0.31,0.44,0.25,0.25,0.27,0.55,0.43,0.23,0.37,0.31,0.37,0.53,0.42,0.31,0.53,0.37,0.43,0.23,0.27,0.55,0.23,0.69,0.53,0.27,0.42,0.53,0.23,0.71,0.36,0.51,0.44,0.55,0.53,0.37,0.23,0.55,0.51,0.37,0.82,0.44,0.25,0.25,0.46,0.23,0.53,0.44,0.46,0.43,0.23,0.53,0.27,0.47,0.53,0.43,0.37,0.23,0.27,0.55,0.31,0.43,0.55,0.37,0.27,0.31,0.46,0.23,0.51,0.3,0.23,0.62,0.44,0.82,0.44,0.55,0.23,0.37,0.42,0.44,0.31,0.31,0.43,0.37,0.27,0.55,0.47,0.23" style="fill:rgb(0,0,0);font-family:MinionPro-Regular;font-size:9.0px;stroke:none;">interior of the perfect crystalline structure in which G-bands normally have higher intensity of Raman scattering </text>
   <text y="702.008" x="155.638,158.501,163.344,167.278,172.264,174.325,177.188,182.031,185.875,188.683,190.744,195.29,198.017,200.078,206.756,210.023,214.704,218.639,223.59,228.379" svgx:width="0.31,0.53,0.44,0.55,0.23,0.31,0.53,0.44,0.31,0.23,0.51,0.3,0.23,0.74,0.36,0.51,0.44,0.55,0.53,0.37" style="fill:rgb(0,0,0);font-family:MinionPro-Regular;font-size:9.0px;stroke:none;">than that of D-bands</text>
   <text y="698.95" x="231.757,234.606" svgx:width="0.48,0.48" style="fill:rgb(0,0,255);font-family:MinionPro-Regular;font-size:5.85px;stroke:none;">21</text>
   <text y="702.01" x="237.456,239.571,241.632,247.772,251.138,253.199,256.53,261.364,265.874,272.13,277.116,279.177,281.652,286.638,288.699,293.523,295.998,300.301,302.416" svgx:width="0.23,0.23,0.69,0.37,0.23,0.37,0.53,0.51,0.69,0.55,0.23,0.27,0.55,0.23,0.53,0.27,0.47,0.23,0.23" style="fill:rgb(0,0,0);font-family:MinionPro-Regular;font-size:9.0px;stroke:none;">. As shown in Fig. </text>
   <text y="702.01" x="304.497,308.88,312.057,318.339" svgx:width="0.48,0.35,0.69,0.35" style="fill:rgb(0,0,255);font-family:MinionPro-Regular;font-size:9.0px;stroke:none;">3(A)</text>
   <text y="702.01" x="321.516,323.631,325.692,328.555,333.389,337.277,339.338,345.153,349.088,356.496,360.43,365.416,367.477,372.338,376.28,380.34,384.867,388.233,390.294,394.84,397.567,399.628,404.803,410.851,415.675,417.736,421.58,424.388,426.449,431.732,436.115,440.498,444.881,449.264,451.325,455.259,460.21,465.025,467.086,472.369,476.752,481.135,485.518,489.901,491.13,495.0" svgx:width="0.23,0.23,0.31,0.53,0.43,0.23,0.62,0.44,0.82,0.44,0.55,0.23,0.52,0.43,0.44,0.5,0.37,0.23,0.51,0.3,0.23,0.57,0.67,0.53,0.23,0.44,0.31,0.23,0.58,0.48,0.48,0.48,0.48,0.23,0.44,0.55,0.53,0.23,0.58,0.48,0.48,0.48,0.48,0.23,0.42,0.82" style="fill:rgb(0,0,0);font-family:MinionPro-Regular;font-size:9.0px;stroke:none;">, the Raman peaks of ECF at ~1320 and ~1600 cm</text>
   <text y="698.95" x="502.438" svgx:width="0.78" style="fill:rgb(0,0,0);font-family:EuclidSymbol;font-size:5.85px;stroke:none;">−</text>
   <text y="698.95" x="507.036" svgx:width="0.48" style="fill:rgb(0,0,0);font-family:MinionPro-Regular;font-size:5.85px;stroke:none;">1</text>
   <text y="702.01" x="509.885,511.946,514.421,519.372,524.187,526.662,530.56,534.404,537.158,541.046,543.107,545.97,550.804,554.629" svgx:width="0.23,0.27,0.55,0.53,0.27,0.42,0.44,0.31,0.43,0.23,0.31,0.53,0.43,0.23" style="fill:rgb(0,0,0);font-family:MinionPro-Regular;font-size:9.0px;stroke:none;"> indicate the </text>
   <text y="712.009" x="155.636,158.943,163.789,166.242,171.466,175.376,180.168,182.148,188.803,190.783,194.692,199.62,204.412,206.392,212.868,214.848,219.504,223.415,228.342,233.107,236.451,238.543,240.523,243.785,247.65,250.949,255.785,259.696,263.605,266.436,268.825,272.96,276.789,279.044,282.557,284.65,286.63,296.273,300.138,302.118,306.964,309.416,313.731,318.541,322.407,325.785,327.765,331.064,335.883,339.316,342.021,346.012,349.859,353.724,355.704,359.615,362.876,366.796,370.787,372.767,377.289,379.993,381.973,385.848,389.758,393.137,397.831,402.352,407.316,409.296,411.919,416.594,420.504,427.916,429.896,433.742,438.265,445.505,450.306,454.216,457.479,461.389,466.181,468.161,470.893,475.522,477.502,481.799,485.178,488.998,493.691,498.538,500.882,503.613,507.479,509.459,513.278,515.974,518.804,522.237,524.653,529.167,533.878,536.609,540.519,545.311,547.291,550.022,554.612" svgx:width="0.37,0.53,0.27,0.58,0.43,0.53,0.23,0.74,0.23,0.44,0.55,0.53,0.23,0.71,0.23,0.51,0.44,0.55,0.53,0.37,0.23,0.23,0.37,0.43,0.37,0.52,0.43,0.42,0.31,0.27,0.46,0.43,0.25,0.46,0.23,0.23,1.07,0.43,0.23,0.53,0.27,0.47,0.53,0.43,0.37,0.23,0.37,0.53,0.37,0.3,0.44,0.42,0.43,0.23,0.44,0.37,0.43,0.44,0.23,0.51,0.3,0.23,0.42,0.44,0.37,0.51,0.51,0.55,0.23,0.3,0.51,0.44,0.82,0.23,0.42,0.51,0.82,0.52,0.44,0.37,0.43,0.53,0.23,0.31,0.51,0.23,0.47,0.37,0.44,0.52,0.53,0.27,0.31,0.43,0.23,0.44,0.31,0.31,0.37,0.27,0.51,0.53,0.31,0.43,0.53,0.23,0.31,0.51,0.23" style="fill:rgb(0,0,0);font-family:MinionPro-Regular;font-size:9.0px;stroke:none;">shifted D and G bands, respectively. The higher surface area of carbon foam compared to graphite attributed to </text>
   <text y="722.008" x="155.636,158.527,163.389,167.303,169.464,174.162,177.476,181.391,184.858,188.773,193.752,197.649,201.564,203.724,208.298,211.052,213.212,220.638,225.212,228.526,232.441,234.601,239.472,243.434,248.376,252.742,255.109,257.611,262.554,266.856,269.016,273.761,278.335,283.313,288.13,291.523,293.683,297.645,302.624,307.466,309.626,317.053,321.626,324.94,328.855,331.015,333.517,338.361,341.243,344.728,347.23,352.172,355.565,358.068,361.993,366.08,368.494,370.8,375.021,377.181,379.548,382.05,386.417,391.143,393.978,396.138,399.604,403.53,407.402,410.149,412.932,416.847,420.331,422.833,427.776,432.078,434.238,438.983,442.864,447.735,451.615,455.901,458.403,462.986,467.855,471.284,473.444,478.018,480.772,482.932,485.822,490.684,494.599,496.759,500.721,505.563,509.795,513.71,517.103,519.245,521.405,531.1,535.015,537.175,542.064,546.034,550.121,554.585" svgx:width="0.31,0.53,0.43,0.23,0.52,0.37,0.43,0.37,0.43,0.55,0.42,0.43,0.23,0.51,0.3,0.23,0.82,0.51,0.37,0.43,0.23,0.53,0.44,0.55,0.47,0.25,0.27,0.55,0.47,0.23,0.51,0.51,0.55,0.53,0.37,0.23,0.44,0.55,0.53,0.23,0.82,0.51,0.37,0.43,0.23,0.27,0.55,0.31,0.37,0.27,0.55,0.37,0.27,0.42,0.44,0.25,0.25,0.46,0.23,0.25,0.27,0.47,0.53,0.31,0.23,0.37,0.42,0.44,0.31,0.31,0.43,0.37,0.27,0.55,0.47,0.23,0.51,0.43,0.53,0.44,0.46,0.27,0.51,0.53,0.37,0.23,0.51,0.3,0.23,0.31,0.53,0.43,0.23,0.43,0.53,0.47,0.43,0.37,0.23,0.23,1.07,0.43,0.23,0.52,0.43,0.44,0.5,0.23" style="fill:rgb(0,0,0);font-family:MinionPro-Regular;font-size:9.0px;stroke:none;">the presence of more dangling bonds and more intrinsically light scattering behaviour of the edges. The peak </text>
   <text y="732.007" x="155.636,158.903,163.709,166.121,171.359,173.258,176.011,179.233,183.715,191.086,192.985,197.305,201.625,205.945,210.265,214.945,219.265,223.585,227.905,232.225,233.351,237.158" svgx:width="0.37,0.53,0.27,0.58,0.23,0.3,0.37,0.51,0.82,0.23,0.48,0.48,0.48,0.48,0.52,0.48,0.48,0.48,0.48,0.23,0.42,0.82" style="fill:rgb(0,0,0);font-family:MinionPro-Regular;font-size:9.0px;stroke:none;">shift from 1350–1360 cm</text>
   <text y="728.95" x="244.533" svgx:width="0.78" style="fill:rgb(0,0,0);font-family:EuclidSymbol;font-size:5.85px;stroke:none;">−</text>
   <text y="728.95" x="249.084" svgx:width="0.48" style="fill:rgb(0,0,0);font-family:MinionPro-Regular;font-size:5.85px;stroke:none;">1</text>
   <text y="732.01" x="251.892,253.791,256.203,261.126,263.025,267.281,270.62,274.4,279.053,283.859,286.163,288.854,292.679,294.578,297.269,301.859,303.758,308.078,312.398,316.718,321.038,322.173,325.98" svgx:width="0.23,0.27,0.55,0.23,0.47,0.37,0.44,0.52,0.53,0.27,0.31,0.43,0.23,0.31,0.51,0.23,0.48,0.48,0.48,0.48,0.23,0.42,0.82" style="fill:rgb(0,0,0);font-family:MinionPro-Regular;font-size:9.0px;stroke:none;"> in graphite to 1320 cm</text>
   <text y="728.95" x="333.347" svgx:width="0.78" style="fill:rgb(0,0,0);font-family:EuclidSymbol;font-size:5.85px;stroke:none;">−</text>
   <text y="728.95" x="337.899" svgx:width="0.48" style="fill:rgb(0,0,0);font-family:MinionPro-Regular;font-size:5.85px;stroke:none;">1</text>
   <text y="732.01" x="340.707,342.606,345.018,349.941,351.84,355.673,359.543,362.882,367.535,372.017,376.94,378.839,381.422,386.057,389.927,397.298,399.197,401.653,403.975,406.144,410.896,414.154,416.944,420.283,424.063,426.754,430.579,433.882,435.781,438.58,443.35,447.175,449.074,456.409,460.279,464.032,468.811,472.681,477.604,480.016,483.849,487.845,490.122,492.021,496.503,499.842,501.741,504.54,509.31,513.135,516.527,523.871,527.867,530.144,532.043,535.868,540.836,544.705,548.575,551.32,554.623" svgx:width="0.23,0.27,0.55,0.23,0.42,0.44,0.37,0.51,0.51,0.55,0.23,0.3,0.51,0.44,0.82,0.23,0.27,0.25,0.25,0.53,0.37,0.31,0.37,0.44,0.31,0.43,0.37,0.23,0.31,0.53,0.43,0.23,0.82,0.43,0.42,0.53,0.44,0.55,0.27,0.42,0.44,0.25,0.23,0.51,0.37,0.23,0.31,0.53,0.43,0.37,0.82,0.44,0.25,0.23,0.43,0.56,0.43,0.42,0.31,0.37,0.23" style="fill:rgb(0,0,0);font-family:MinionPro-Regular;font-size:9.0px;stroke:none;"> in carbon foam illustrates the mechanical or thermal effects </text>
  </g>
  <rect style="stroke:blue;stroke-width:0.3;" x="155.638" y="64.138" height="269.4" width="396.0" title="3"/>
  <text y="64.138" class="image" id="image.3.1" width="396" height="269" x="155.638">image.3.1.156_552.64_334</text>
  <path style="fill:none;stroke:rgb(131,144,151);stroke-width:0.3;" d="M159.130 354.440 L552.640 354.440 "/>
  <path style="fill:none;stroke:rgb(131,144,151);stroke-width:1.0;" d="M156.140 354.440 L156.140 354.440 M554.140 354.440 L554.140 354.440 "/>
  <g begin="text">
   <text y="334.443" x="155.638,160.552,163.207,167.662,172.657,176.221,180.154,181.909,186.409" svgx:width="0.55,0.29,0.49,0.56,0.4,0.44,0.22,0.5,0.25" style="fill:rgb(0,0,0);font-family:MinionPro-Bold;font-size:9.0px;stroke:none;">Figure 1.</text>
   <text y="334.443" x="188.695,190.765,193.195,197.866,202.357,207.073,208.909,213.103,215.515,219.411,225.576,227.412,231.57,236.682,244.701,246.537,248.949,256.293,260.199,264.339,268.164,271.467,273.303,277.785,280.449,282.285,287.397,293.382,298.143,299.979,303.759,306.504,308.34" svgx:width="0.23,0.55,0.62,0.51,0.52,0.23,0.46,0.27,0.43,0.69,0.23,0.47,0.57,0.89,0.23,0.27,0.82,0.44,0.47,0.43,0.37,0.23,0.51,0.3,0.23,0.57,0.67,0.53,0.23,0.44,0.31,0.23,0.35" style="fill:rgb(0,0,0);font-family:MinionPro-Regular;font-size:9.0px;stroke:none;"> Top view SEM images of ECF at (</text>
   <text y="334.443" x="311.454" svgx:width="0.71" style="fill:rgb(0,0,0);font-family:MinionPro-Bold;font-size:9.0px;stroke:none;">A</text>
   <text y="334.443" x="317.808,320.922,322.758,325.035,329.481,335.646,337.482,341.352,346.239,350.991,352.827" svgx:width="0.35,0.23,0.25,0.51,0.69,0.23,0.44,0.55,0.53,0.23,0.35" style="fill:rgb(0,0,0);font-family:MinionPro-Regular;font-size:9.0px;stroke:none;">) low and (</text>
   <text y="334.443" x="355.941" svgx:width="0.64" style="fill:rgb(0,0,0);font-family:MinionPro-Bold;font-size:9.0px;stroke:none;">B</text>
   <text y="334.443" x="361.674" svgx:width="0.23" style="fill:rgb(0,0,0);font-family:MinionPro-Regular;font-size:9.0px;stroke:none;">,</text>
   <text y="334.443" x="363.726" svgx:width="0.68" style="fill:rgb(0,0,0);font-family:MinionPro-Bold;font-size:9.0px;stroke:none;">C</text>
   <text y="334.443" x="369.81,372.924,374.76,379.566,381.978,386.253,391.059,392.895,400.239,404.145,408.402,413.325,415.737,420.552,424.386,428.166,430.956,433.368,437.85,442.773,444.825,446.661,449.883,453.708,456.966,461.762,465.632,469.502,472.292,474.641,478.736,482.525,484.739,489.149,491.201,493.037" svgx:width="0.35,0.23,0.53,0.27,0.47,0.53,0.23,0.82,0.44,0.47,0.55,0.27,0.54,0.42,0.44,0.31,0.27,0.51,0.55,0.23,0.23,0.37,0.43,0.37,0.52,0.43,0.42,0.31,0.27,0.46,0.43,0.25,0.46,0.23,0.23,0.35" style="fill:rgb(0,0,0);font-family:MinionPro-Regular;font-size:9.0px;stroke:none;">) high magnification, respectively; (</text>
   <text y="334.443" x="496.151" svgx:width="0.76" style="fill:rgb(0,0,0);font-family:MinionPro-Bold;font-size:9.0px;stroke:none;">D</text>
   <text y="334.443" x="503.0,506.114,507.95,512.756,515.168,519.443,524.249" svgx:width="0.35,0.23,0.53,0.27,0.47,0.53,0.36" style="fill:rgb(0,0,0);font-family:MinionPro-Regular;font-size:9.0px;stroke:none;">) high-</text>
   <text y="344.442" x="155.638,158.86,162.685,166.06,170.587,172.756,177.427,180.217,182.629,187.111,192.034,193.87,199.423,204.535,212.554,214.39,216.802,224.146,228.052,232.192,236.017,237.853,242.335,244.999,246.835,249.634,254.404,258.229,260.065,262.864,267.67,270.082,275.005,276.841,280.711,285.463,289.603,293.428,295.264,299.746,302.41,304.246,309.358,315.343,319.114" svgx:width="0.37,0.43,0.37,0.51,0.25,0.53,0.31,0.27,0.51,0.55,0.23,0.62,0.57,0.89,0.23,0.27,0.82,0.44,0.47,0.43,0.23,0.51,0.3,0.23,0.31,0.53,0.43,0.23,0.31,0.53,0.27,0.55,0.23,0.43,0.53,0.47,0.43,0.23,0.51,0.3,0.23,0.57,0.67,0.53,0.23" style="fill:rgb(0,0,0);font-family:MinionPro-Regular;font-size:9.0px;stroke:none;">resolution TEM image of the thin edge of ECF.</text>
  </g>
  <rect style="stroke:blue;stroke-width:0.3;" x="155.638" y="389.648" height="154.8" width="396.0" title="3"/>
  <text y="389.648" class="image" id="image.3.2" width="396" height="154" x="155.638">image.3.2.156_552.390_544</text>
  <path style="fill:none;stroke:rgb(131,144,151);stroke-width:1.0;" d="M159.130 565.350 L552.640 565.350 "/>
  <path style="fill:none;stroke:rgb(131,144,151);stroke-width:1.0;" d="M156.140 565.350 L156.140 565.350 M554.140 565.350 L554.140 565.350 "/>
  <g begin="text">
   <text y="545.353" x="155.638,160.552,163.207,167.662,172.657,176.221,180.154,181.909,186.409" svgx:width="0.55,0.29,0.49,0.56,0.4,0.44,0.22,0.5,0.25" style="fill:rgb(0,0,0);font-family:MinionPro-Bold;font-size:9.0px;stroke:none;">Figure 2.</text>
   <text y="545.353" x="188.695,190.765,193.195" svgx:width="0.23,0.55,0.35" style="fill:rgb(0,0,0);font-family:MinionPro-Regular;font-size:9.0px;stroke:none;"> (</text>
   <text y="545.353" x="196.309" svgx:width="0.71" style="fill:rgb(0,0,0);font-family:MinionPro-Bold;font-size:9.0px;stroke:none;">A</text>
   <text y="545.353" x="202.663,205.777,207.613" svgx:width="0.35,0.23,0.74" style="fill:rgb(0,0,0);font-family:MinionPro-Regular;font-size:9.0px;stroke:none;">) N</text>
   <text y="547.153" x="214.305" svgx:width="0.48" style="fill:rgb(0,0,0);font-family:MinionPro-Regular;font-size:5.85px;stroke:none;">2</text>
   <text y="545.353" x="217.113,218.949,222.828,227.4,230.775,235.257,238.685,243.302,246.092,248.504,252.986,257.909,259.745,263.615,268.502,273.254,275.09,279.842,283.667,287.042,291.524,294.952,299.57,302.359,304.771,309.253,314.176,316.012,318.397,321.772,326.263,329.062,333.832,337.657,341.05,348.348,351.651,353.487,355.764,358.176,363.063,366.942,370.812,374.151,375.987,380.64,382.917,387.408,390.153,391.989,395.86,400.747,405.499,407.335" svgx:width="0.23,0.44,0.51,0.37,0.51,0.37,0.52,0.31,0.27,0.51,0.55,0.23,0.44,0.55,0.53,0.23,0.53,0.43,0.37,0.51,0.37,0.52,0.31,0.27,0.51,0.55,0.23,0.27,0.37,0.51,0.31,0.53,0.43,0.37,0.82,0.37,0.23,0.25,0.27,0.55,0.43,0.44,0.37,0.23,0.52,0.25,0.51,0.31,0.23,0.44,0.55,0.53,0.23,0.35" style="fill:rgb(0,0,0);font-family:MinionPro-Regular;font-size:9.0px;stroke:none;"> absorption and desorption isotherms linear plot and (</text>
   <text y="545.353" x="410.449" svgx:width="0.64" style="fill:rgb(0,0,0);font-family:MinionPro-Bold;font-size:9.0px;stroke:none;">B</text>
   <text y="545.353" x="416.182,419.296,421.132,425.929,430.411,433.633,437.458,439.294,442.597,445.009,448.789,452.614,454.45,459.202,461.587,464.845,467.635,471.028,473.404,477.877,482.548,485.338,487.75,492.232,497.155,498.991,503.473,506.137,507.973,510.772,515.542,519.367,521.203,526.315,532.3,537.061" svgx:width="0.35,0.23,0.52,0.51,0.37,0.43,0.23,0.37,0.27,0.42,0.43,0.23,0.53,0.27,0.37,0.31,0.37,0.27,0.51,0.53,0.31,0.27,0.51,0.55,0.23,0.51,0.3,0.23,0.31,0.53,0.43,0.23,0.57,0.67,0.53,0.23" style="fill:rgb(0,0,0);font-family:MinionPro-Regular;font-size:9.0px;stroke:none;">) pore size distribution of the ECF </text>
   <text y="555.352" x="155.634,162.978,166.758,169.449,173.274,176.667,179.106,183.102,185.352,188.655" svgx:width="0.82,0.44,0.31,0.43,0.37,0.27,0.44,0.25,0.37,0.23" style="fill:rgb(0,0,0);font-family:MinionPro-Regular;font-size:9.0px;stroke:none;">materials.</text>
  </g>
 </g>
</svg>
