<?xml version="1.0" encoding="UTF-8"?>
<svg height="774.244" width="4165.638" xmlns="http://www.w3.org/2000/svg">
 <g id="page" xmlns:svgx="http://www.xml-cml.org/schema/svgx">
  <g begin="text">
   <text y="22.46" x="40.638,48.208,55.778,63.055,66.145,71.865,77.215,81.135,86.765,90.565,95.995,99.085,103.915,109.695,118.435,121.635,126.125,130.955,133.725,139.15,144.87,148.79,151.56,155.19,157.96,162.79,166.59,172.02,177.78,183.56,187.36,191.28,195.77" svgx:width="0.71,0.71,0.71,0.26,0.53,0.49,0.35,0.52,0.34,0.5,0.26,0.44,0.53,0.83,0.28,0.4,0.44,0.23,0.5,0.53,0.35,0.23,0.32,0.23,0.44,0.34,0.5,0.53,0.53,0.34,0.35,0.4,0.28" style="fill:rgb(255,255,255);font-family:Corbel;font-size:10.0px;stroke:none;">www.nature.com/scientificreports/</text>
  </g>
  <g begin="text">
   <text y="764.23" x="549.393" svgx:width="0.52" style="fill:rgb(131,144,151);font-family:Corbel;font-size:10.0px;stroke:none;">6</text>
  </g>
  <g begin="text">
   <text y="764.244" x="40.794,45.642,50.786,53.186,58.026,64.026,68.898,71.298,75.762,78.162" svgx:width="0.55,0.59,0.25,0.55,0.7,0.56,0.25,0.5,0.25,0.59" style="fill:rgb(131,144,151);font-family:Corbel;font-size:8.0px;stroke:none;">Scientific</text>
   <text y="764.244" x="83.162" svgx:width="0.2" style="fill:rgb(0,0,0);font-family:Corbel;font-size:8.0px;stroke:none;"> </text>
   <text y="764.244" x="84.762,90.218,95.194,100.434,106.738,112.194,117.186" svgx:width="0.63,0.57,0.6,0.73,0.63,0.57,0.58" style="fill:rgb(131,144,151);font-family:Corbel-Bold;font-size:8.0px;stroke:none;">RepoRts</text>
   <text y="764.244" x="122.082,123.522,125.338,126.778,130.88" svgx:width="0.2,0.23,0.2,0.51,0.26" style="fill:rgb(0,0,0);font-family:Corbel;font-size:8.0px;stroke:none;"> | 7:</text>
   <text y="764.244" x="132.994,134.45,138.386,142.322,146.258,150.194" svgx:width="0.18,0.49,0.49,0.49,0.49,0.18" style="fill:rgb(0,0,0);font-family:MyriadPro-It;font-size:8.0px;stroke:none;"> 1440 </text>
   <text y="764.244" x="151.65,153.091,154.907,156.349,161.717,167.557,169.525,171.637,175.741,179.845,181.957,186.061,190.165,194.269,198.373,200.573,203.805,207.909,212.013,216.117,220.221,224.325,226.989,231.093,235.197,239.301,241.965,246.069,250.173,254.277,258.381,262.485,265.149" svgx:width="0.2,0.23,0.2,0.67,0.73,0.25,0.26,0.51,0.51,0.26,0.51,0.51,0.51,0.51,0.28,0.4,0.51,0.51,0.51,0.51,0.51,0.33,0.51,0.51,0.51,0.33,0.51,0.51,0.51,0.51,0.51,0.33,0.48" style="fill:rgb(0,0,0);font-family:Corbel;font-size:8.0px;stroke:none;"> | DOI:10.1038/s41598-017-01638-y</text>
  </g>
  <path style="fill:none;stroke:rgb(0,0,0);stroke-width:1.0;" d="M40.640 752.550 L554.640 752.550 "/>
  <g begin="text">
   <text y="413.5" x="155.638,158.474,163.281,167.142,169.122,174.27,180.291,185.088,187.068,190.894,193.207,197.114,201.021,203.848,207.107,211.815,216.603,220.464,222.444,225.28,230.122,232.57,236.36,240.897,245.822,249.683,252.978,256.317,258.297,260.745,265.669,269.512,272.771,276.687,280.649,284.061,287.968,292.756,294.736,297.464,302.09,304.07,308.426,310.514,314.87,316.036,323.443,330.85,332.938,334.918,337.754,342.562,346.423,348.403,353.191,355.613,359.025,362.815,367.631,371.539,374.843,379.02,382.881,384.861,388.768,393.692,398.48,400.46,404.25,409.065,412.973,416.277,420.454,424.315,426.295,430.166,433.983,438.781,442.768,446.611,448.952,451.779,454.227,458.088,461.427,463.407,466.746,469.194,473.487,478.446,480.894,485.745,489.616,493.523,498.313,501.149,503.4,507.567,509.547,514.335,518.241,522.084,525.343,529.259,533.22,536.632,540.539,545.327,547.307,550.035,554.625" svgx:width="0.31,0.53,0.43,0.23,0.57,0.67,0.53,0.23,0.43,0.25,0.43,0.42,0.31,0.37,0.51,0.53,0.43,0.23,0.31,0.53,0.27,0.42,0.5,0.55,0.43,0.37,0.37,0.23,0.27,0.55,0.42,0.37,0.43,0.44,0.37,0.43,0.53,0.23,0.31,0.51,0.23,0.48,0.23,0.48,0.23,0.82,0.82,0.23,0.23,0.31,0.53,0.43,0.23,0.53,0.27,0.37,0.42,0.53,0.44,0.37,0.47,0.43,0.23,0.44,0.55,0.53,0.23,0.42,0.53,0.44,0.37,0.47,0.43,0.23,0.42,0.44,0.52,0.44,0.42,0.27,0.31,0.27,0.43,0.37,0.23,0.37,0.27,0.47,0.55,0.27,0.54,0.42,0.44,0.55,0.31,0.25,0.46,0.23,0.53,0.43,0.42,0.37,0.43,0.44,0.37,0.43,0.53,0.23,0.31,0.51,0.23" style="fill:rgb(0,0,0);font-family:MinionPro-Regular;font-size:9.0px;stroke:none;">the ECF electrode thickness increased to 4.9 mm, the discharge and charge capacities significantly decreased to </text>
   <text y="423.499" x="155.638,160.039,164.44,168.841,170.947,174.894,179.859,184.692,186.798,191.199,195.6,200.001,201.187,208.639,214.962,219.849,222.905,227.221,229.354,231.46,234.76,238.666,242.001,246.875,250.822,254.769,257.637,260.063,264.236,268.101,270.393,273.945,276.073,278.179,287.899,290.362,293.746,295.852,300.685,304.591,312.003,316.562,321.49,324.825,327.693,331.113,334.97,337.739,341.686,346.519,348.625,351.501,356.358,360.215,363.041,365.147,368.024,372.871,376.777,378.883,381.759,386.646,389.139,394.143,399.108,403.014,406.434,408.54,413.728,419.794,424.636,426.742,430.609,432.967,436.913,440.861,443.728,447.027,451.776,456.609,460.515,462.621,466.532,470.48,475.484,477.59,482.423,486.289,488.647,491.073,495.246,499.147,502.567,504.673,509.56,512.053,516.406,521.253,525.155,528.575,530.681,534.511,539.368,543.315,546.659,550.877,554.702" svgx:width="0.48,0.48,0.48,0.23,0.44,0.55,0.53,0.23,0.48,0.48,0.48,0.23,0.82,0.69,0.53,0.33,0.47,0.23,0.23,0.37,0.43,0.37,0.52,0.43,0.42,0.31,0.27,0.46,0.43,0.25,0.46,0.23,0.23,1.07,0.27,0.37,0.23,0.53,0.43,0.82,0.51,0.55,0.37,0.31,0.37,0.44,0.31,0.43,0.53,0.23,0.31,0.53,0.44,0.31,0.23,0.31,0.53,0.43,0.23,0.31,0.53,0.27,0.55,0.55,0.43,0.37,0.23,0.57,0.67,0.53,0.23,0.43,0.25,0.43,0.42,0.31,0.37,0.51,0.53,0.43,0.23,0.42,0.44,0.55,0.23,0.53,0.43,0.25,0.27,0.46,0.43,0.37,0.23,0.53,0.27,0.47,0.53,0.43,0.37,0.23,0.42,0.53,0.44,0.37,0.47,0.43,0.23" style="fill:rgb(0,0,0);font-family:MinionPro-Regular;font-size:9.0px;stroke:none;">602 and 279 mAh/g, respectively. This demonstrated that the thinner ECF electrode can deliver higher charge </text>
   <text y="433.498" x="155.638,159.558,164.495,169.301,171.317,176.118,178.554,181.979,185.782,190.611,194.532,197.848,202.038,205.913,207.929,211.812,215.643,220.454,224.455,228.316,230.669,233.51,235.971,239.85,243.203,245.219,248.068,252.897,256.817,261.794,263.81,266.658,271.488,275.318,278.113,280.129,284.66,287.378,289.394,292.243,297.063,300.938,302.954,305.803,310.659,313.125,316.927,321.36,325.239,328.628,330.644,334.482,336.813,340.734,344.653,347.493,350.765,355.487,360.288,364.167,366.183,372.462,377.322,379.783,383.586,388.442,390.458,396.7,399.207,401.578,403.909,405.925,410.232,412.631,416.777,420.651,422.667,426.668,428.684,431.015,435.51,441.654,445.533,448.921,450.937,453.399,456.842,460.114,464.061,468.206,472.081,475.416,478.769,481.195,485.755,488.081,491.96,493.976,497.861,501.691,506.501,510.506,514.363,516.717,519.539,523.724,525.74,528.066,532.71,536.019,539.371,541.387,546.082,550.91,554.735" svgx:width="0.44,0.55,0.53,0.23,0.53,0.27,0.37,0.42,0.53,0.44,0.37,0.47,0.43,0.23,0.42,0.44,0.52,0.44,0.42,0.27,0.31,0.27,0.43,0.37,0.23,0.31,0.53,0.44,0.55,0.23,0.31,0.53,0.44,0.31,0.23,0.51,0.3,0.23,0.31,0.53,0.43,0.23,0.31,0.53,0.27,0.42,0.5,0.43,0.37,0.23,0.43,0.25,0.43,0.42,0.31,0.37,0.51,0.53,0.43,0.23,0.69,0.53,0.27,0.42,0.53,0.23,0.69,0.27,0.25,0.25,0.23,0.47,0.27,0.46,0.43,0.23,0.44,0.23,0.25,0.51,0.69,0.43,0.37,0.23,0.27,0.37,0.37,0.43,0.46,0.43,0.37,0.37,0.27,0.51,0.25,0.43,0.23,0.42,0.44,0.52,0.44,0.42,0.27,0.31,0.46,0.23,0.25,0.51,0.37,0.37,0.23,0.53,0.53,0.43,0.23" style="fill:rgb(0,0,0);font-family:MinionPro-Regular;font-size:9.0px;stroke:none;">and discharge capacities than that of the thicker electrode which will give a lower irreversible capacity loss due </text>
   <text y="443.497" x="155.638,158.348,162.956,164.918,167.213,171.056,174.332,177.653,179.615,183.458,187.724,192.54,197.148,200.542,204.431,209.201,211.163,215.673,220.362,223.072,226.915,230.272,232.234,235.511,240.308,243.72,246.402,250.371,254.196,258.039,260.001,263.89,267.13,271.028,274.997,276.959,280.758,283.521,285.483,288.301,293.09,296.933,298.895,302.702,304.997,308.885,312.774,315.583,318.824,323.513,328.283,332.126,335.123,338.93,341.225,345.114,349.003,351.811,355.052,359.598,361.831,365.98,368.69,372.533,374.495,376.925,381.695,384.405,388.248,391.66,394.342,398.311,402.136" svgx:width="0.31,0.51,0.23,0.25,0.43,0.37,0.37,0.23,0.43,0.47,0.52,0.51,0.37,0.43,0.53,0.23,0.51,0.53,0.31,0.43,0.37,0.23,0.37,0.53,0.37,0.3,0.44,0.42,0.43,0.23,0.44,0.37,0.43,0.44,0.23,0.44,0.31,0.23,0.31,0.53,0.43,0.23,0.43,0.25,0.43,0.42,0.31,0.37,0.51,0.53,0.43,0.33,0.43,0.25,0.43,0.42,0.31,0.37,0.51,0.25,0.46,0.31,0.43,0.23,0.27,0.55,0.31,0.43,0.37,0.3,0.44,0.42,0.43" style="fill:rgb(0,0,0);font-family:MinionPro-Regular;font-size:9.0px;stroke:none;">to less exposed outer surface area at the electrode/electrolyte interface</text>
   <text y="440.44" x="405.979,408.798" svgx:width="0.48,0.48" style="fill:rgb(0,0,255);font-family:MinionPro-Regular;font-size:5.85px;stroke:none;">26</text>
   <text y="443.5" x="411.619,413.689,415.651,418.595,423.536,425.498,429.467,434.237,439.007,441.33,444.138,446.568,451.069,456.01,458.08,460.042,462.86,467.649,471.492,473.454,479.592,484.102,488.944,491.239,495.74,503.129,505.559,509.384,511.346,515.189,522.389,526.214,528.644,532.487,537.394,541.363,545.512,547.474,551.975,554.639" svgx:width="0.23,0.23,0.34,0.55,0.23,0.44,0.53,0.53,0.27,0.31,0.27,0.51,0.55,0.23,0.23,0.31,0.53,0.43,0.23,0.67,0.51,0.53,0.25,0.51,0.82,0.27,0.42,0.23,0.43,0.8,0.42,0.27,0.43,0.55,0.42,0.46,0.23,0.51,0.3,0.23" style="fill:rgb(0,0,0);font-family:MinionPro-Regular;font-size:9.0px;stroke:none;">. In addition, the Coulomic efficiency of </text>
   <text y="453.499" x="155.641,158.426,163.182,166.994,168.713,173.513,176.785,180.028,182.76,184.479,188.415,192.461,196.2,198.463,202.274,203.993,210.144,214.055,217.344,219.063,222.928,227.567,232.044,236.701,239.432,241.151,245.456,249.763,256.553,258.272,260.841,265.31,268.634,270.353,274.993,279.469,282.255,287.047,288.766,293.072,295.11,299.416,302.606,304.325,308.181,313.055,317.793,319.512,323.818,325.856,330.163,333.352,340.71,348.066,349.785,353.561,355.824,359.68,363.536,366.311,369.52,374.176,378.915,382.726,386.015,388.053,389.772,395.986,400.779,403.176,406.916,411.708,413.427,415.798,419.087,420.806,427.992,432.757,436.496,441.289,443.008,447.8,450.198,454.459,459.215,463.026,466.351,468.07,470.855,475.62,479.476,484.386,486.105,488.89,493.655,497.422,500.152,501.871,506.34,508.989,510.708,513.493,518.248,522.06,523.779,528.085,532.391,534.429,538.798,539.905,547.262,554.633" svgx:width="0.31,0.53,0.43,0.23,0.54,0.37,0.37,0.31,0.23,0.42,0.46,0.42,0.25,0.43,0.23,0.69,0.44,0.37,0.23,0.44,0.51,0.51,0.53,0.31,0.23,0.48,0.48,0.76,0.23,0.3,0.51,0.37,0.23,0.51,0.51,0.31,0.53,0.23,0.48,0.23,0.48,0.36,0.23,0.44,0.55,0.53,0.23,0.48,0.23,0.48,0.36,0.82,0.82,0.23,0.43,0.25,0.43,0.42,0.31,0.37,0.51,0.53,0.43,0.37,0.23,0.23,0.69,0.53,0.27,0.42,0.53,0.23,0.27,0.37,0.23,0.82,0.53,0.42,0.53,0.23,0.53,0.27,0.47,0.53,0.43,0.37,0.23,0.31,0.53,0.44,0.55,0.23,0.31,0.53,0.44,0.31,0.23,0.51,0.3,0.23,0.31,0.53,0.43,0.23,0.48,0.48,0.23,0.48,0.23,0.82,0.82,0.23" style="fill:rgb(0,0,0);font-family:MinionPro-Regular;font-size:9.0px;stroke:none;">the first cycle was about 45% for both 2.8- and 4.9-mm electrodes, which is much higher than that of the 13.7 mm </text>
   <text y="463.498" x="155.632,159.47,161.797,165.717,169.637,172.476,175.748,180.468,185.274,189.149,191.165,195.697,198.411,200.427,204.796,209.166,211.267,215.641,222.495,224.596,226.612,229.587,234.564,236.58,239.428,244.248,248.127,250.143,255.309,261.343,266.154,268.17,273.115,277.035,281.972,286.612,289.919,292.76,296.238,301.067,304.986,307.691,312.524,315.795,319.616,321.717,323.733,326.582,331.402,335.277,337.293,340.141,345.001,347.463,352.435,357.372,361.247,364.635,366.651,370.49,372.816,376.736,380.655,383.496,386.767,391.488,396.289,400.164,402.18,406.837,410.11,414.605,418.849,421.315,426.116,429.991,433.343,435.359,439.36,441.376,448.625,453.454,457.256,462.116,464.132,467.441,470.28,473.552,478.083,482.985,487.174,491.049,494.437,496.453,498.915,503.717,506.458,510.332,513.721,517.721,521.641,524.481,526.943,531.474,536.451,538.467,544.708,547.063,549.911,554.717" svgx:width="0.43,0.25,0.43,0.42,0.31,0.37,0.51,0.53,0.43,0.23,0.51,0.3,0.23,0.48,0.48,0.23,0.48,0.76,0.23,0.23,0.34,0.55,0.23,0.31,0.53,0.43,0.23,0.57,0.67,0.53,0.23,0.55,0.44,0.55,0.51,0.37,0.31,0.37,0.53,0.42,0.31,0.53,0.37,0.43,0.23,0.23,0.31,0.53,0.43,0.23,0.31,0.53,0.27,0.55,0.55,0.43,0.37,0.23,0.43,0.25,0.43,0.42,0.31,0.37,0.51,0.53,0.43,0.23,0.52,0.37,0.51,0.46,0.27,0.53,0.43,0.37,0.23,0.44,0.23,0.82,0.53,0.42,0.53,0.23,0.37,0.31,0.37,0.51,0.55,0.47,0.43,0.37,0.23,0.27,0.55,0.31,0.43,0.37,0.44,0.42,0.31,0.27,0.51,0.55,0.23,0.69,0.27,0.31,0.53,0.23" style="fill:rgb(0,0,0);font-family:MinionPro-Regular;font-size:9.0px;stroke:none;">electrode of 27.4%. In the ECF nanostructure, the thinner electrode provides a much stronger interaction with </text>
   <text y="473.497" x="155.632,158.451,163.242,167.085,169.047,172.325,177.122,180.535,183.778,188.288,193.085,197.992,202.762,205.192,210.064,214.294,216.256,221.172,223.602,225.564,227.994,232.496,237.367,240.688,242.65,245.469,250.269,254.159,259.1,261.062,263.881,268.681,272.481,275.244,277.206,281.708,284.39,286.352,289.171,293.961,297.804,299.766,302.586,307.41,309.84,313.613,318.095,320.057,323.866,326.161,330.051,333.941,336.752,339.993,344.685,349.455,353.298,356.619,358.581,363.245,368.042,371.885,373.847,376.558,381.166,383.128,385.947,390.736,394.579,397.009,400.366,402.328,404.653,408.543,411.83,415.99,419.833,423.19,425.152,428.995,433.261,438.078,442.686,446.081,449.972,454.742,456.704,459.981,464.778,468.191,470.873,474.842,478.667,482.51,484.472,488.362,491.605,495.503,499.472,501.434,507.647,509.971,512.79,517.614,519.576,522.817,526.66,529.938,534.755,538.646,542.536,545.299,547.261,549.972,554.561" svgx:width="0.31,0.53,0.43,0.23,0.37,0.53,0.37,0.37,0.51,0.53,0.55,0.53,0.27,0.55,0.47,0.23,0.54,0.27,0.23,0.27,0.51,0.55,0.37,0.23,0.31,0.53,0.44,0.55,0.23,0.31,0.53,0.44,0.31,0.23,0.51,0.3,0.23,0.31,0.53,0.43,0.23,0.31,0.53,0.27,0.42,0.5,0.23,0.43,0.25,0.43,0.42,0.31,0.37,0.51,0.53,0.43,0.37,0.23,0.53,0.53,0.43,0.23,0.31,0.51,0.23,0.31,0.53,0.43,0.27,0.37,0.23,0.25,0.44,0.37,0.47,0.43,0.37,0.23,0.43,0.47,0.52,0.51,0.37,0.43,0.53,0.23,0.37,0.53,0.37,0.3,0.44,0.42,0.43,0.23,0.44,0.37,0.43,0.44,0.23,0.69,0.27,0.31,0.53,0.23,0.37,0.43,0.37,0.52,0.43,0.42,0.31,0.23,0.31,0.51,0.23" style="fill:rgb(0,0,0);font-family:MinionPro-Regular;font-size:9.0px;stroke:none;">the surrounding Li ions than that of the thick electrodes due to their larger exposed surface area with respect to </text>
   <text y="483.496" x="155.632,158.449,163.236,167.079,169.041,171.75,176.258,179.075,183.088,185.383,187.345,194.707,198.648,201.924,205.245,207.315,209.277,213.687,218.187,225.54,229.383,231.34,234.58,238.423,243.237,247.737,251.183,253.892,257.779,262.549,264.511,267.328,272.115,275.958,277.92,280.736,285.56,287.99,292.931,297.836,301.679,305.036,306.998,310.886,315.791,320.48,325.25,329.093,331.055,335.231,337.661,341.468,343.763,348.506,351.827,353.789,357.064,361.753,366.567,370.41,373.821,376.251,380.751,384.108,386.07,390.885,394.728,398.139,400.739,405.239,408.65,416.011,419.899,424.804,428.629,432.472,434.434,439.095,443.892,447.735,449.697,452.405,457.013,458.975,461.657,465.599,468.875,471.584,475.427,478.784,480.746,485.263,487.693,492.597,496.44,499.248,501.678,505.503,508.824,510.786,514.674,519.579,524.349,526.311,528.606,532.449,535.725,539.046,541.008,545.778,548.181,551.502" svgx:width="0.31,0.53,0.43,0.23,0.31,0.51,0.31,0.44,0.25,0.23,0.82,0.44,0.37,0.37,0.23,0.23,0.47,0.51,0.82,0.43,0.23,0.37,0.43,0.52,0.51,0.37,0.31,0.43,0.53,0.23,0.31,0.53,0.43,0.23,0.31,0.53,0.27,0.55,0.55,0.43,0.37,0.23,0.44,0.55,0.51,0.53,0.43,0.23,0.46,0.27,0.43,0.25,0.53,0.37,0.23,0.37,0.53,0.52,0.43,0.37,0.27,0.51,0.37,0.23,0.52,0.43,0.37,0.3,0.51,0.37,0.82,0.44,0.55,0.42,0.43,0.23,0.53,0.53,0.43,0.23,0.31,0.51,0.23,0.3,0.44,0.37,0.31,0.43,0.37,0.23,0.5,0.27,0.55,0.43,0.31,0.27,0.42,0.37,0.23,0.44,0.55,0.53,0.23,0.25,0.43,0.37,0.37,0.23,0.53,0.27,0.37,0.36" style="fill:rgb(0,0,0);font-family:MinionPro-Regular;font-size:9.0px;stroke:none;">the total mass. Some reported the thinner anode yields superior performance due to faster kinetics and less dis-</text>
   <text y="493.495" x="155.632,159.056,163.724,168.336,171.122,173.529,178.008,182.926,184.659,189.136,191.796,193.528,196.323,201.089,204.91,206.642,210.427,212.699,216.565,220.43,223.217,226.434,231.101,235.853,239.673,241.406,248.736,253.214,256.638,261.287,266.053,270.575,272.852,277.438,281.861" svgx:width="0.37,0.53,0.52,0.31,0.27,0.51,0.55,0.23,0.51,0.3,0.23,0.31,0.53,0.43,0.23,0.43,0.25,0.43,0.42,0.31,0.37,0.51,0.53,0.43,0.23,0.82,0.51,0.37,0.52,0.53,0.51,0.25,0.51,0.47,0.46" style="fill:rgb(0,0,0);font-family:MinionPro-Regular;font-size:9.0px;stroke:none;">ruption of the electrode morphology</text>
   <text y="490.44" x="285.987,288.792" svgx:width="0.48,0.48" style="fill:rgb(0,0,255);font-family:MinionPro-Regular;font-size:5.85px;stroke:none;">26</text>
   <text y="493.5" x="291.598,293.645,295.378,297.65,302.093,308.181,312.002,315.341,317.072,320.857,323.134,326.999,330.865,333.65,336.869,341.346,346.265,348.677,352.479,354.212,357.429,361.25,364.548,366.93,370.183,372.978,376.844,381.727,385.534,389.354,391.086,395.564,398.224,399.956,402.751,407.516,411.341,413.073,416.858,419.131,422.996,426.862,429.647,432.866,437.532,442.28,446.047,448.095,449.827,453.693,458.575,463.327,465.06,467.719,471.639,474.893,477.58,481.4,484.735,486.467,489.253,492.587,496.454,501.3,504.554,509.347,513.824,517.249,519.994,521.726,526.204,528.864,530.596,535.487,537.895,539.627,542.035,546.513,551.36,554.663" svgx:width="0.23,0.23,0.25,0.51,0.69,0.43,0.37,0.23,0.43,0.25,0.43,0.42,0.31,0.37,0.51,0.55,0.27,0.42,0.23,0.37,0.43,0.37,0.27,0.37,0.31,0.44,0.55,0.42,0.43,0.23,0.51,0.3,0.23,0.31,0.53,0.43,0.23,0.43,0.25,0.43,0.42,0.31,0.37,0.51,0.53,0.43,0.23,0.23,0.44,0.55,0.53,0.23,0.3,0.44,0.37,0.31,0.43,0.37,0.23,0.31,0.37,0.44,0.55,0.37,0.52,0.51,0.37,0.31,0.23,0.51,0.3,0.23,0.54,0.27,0.23,0.27,0.51,0.55,0.37,0.23" style="fill:rgb(0,0,0);font-family:MinionPro-Regular;font-size:9.0px;stroke:none;">, lower electronic resistance of the electrode, and faster transport of Li ions </text>
   <text y="503.499" x="155.635,158.047,162.97,164.806,167.604,172.375,176.2,178.036,181.825,184.102,187.972,191.842,194.632,197.854,202.381,204.595,208.726,211.416,215.241,217.077,219.768,224.358,226.194,228.993,233.763,237.588,239.424,243.212,245.489,249.359,253.229,256.019,259.241,263.912,268.664,272.489,274.325,277.583,282.362,285.755,288.419,292.37,296.177,300.002,301.838,305.708,310.595,315.347,317.183,321.935,324.347,329.45,334.202,337.505,339.917,344.399,349.322,351.158,355.64,358.304,360.14,365.036,367.448,369.284,371.696,376.178,381.029,384.332,386.168,392.36,394.664,397.463,402.269,404.681,409.604,411.44,414.239,419.009,422.834,424.67,429.143,433.967,436.289,440.753,442.589,446.377,448.654,452.524,456.394,459.184,462.406,467.076,471.828" svgx:width="0.27,0.55,0.23,0.31,0.53,0.43,0.23,0.43,0.25,0.43,0.42,0.31,0.37,0.51,0.25,0.46,0.31,0.43,0.23,0.31,0.51,0.23,0.31,0.53,0.43,0.23,0.43,0.25,0.43,0.42,0.31,0.37,0.51,0.53,0.43,0.23,0.37,0.53,0.37,0.3,0.44,0.42,0.43,0.23,0.44,0.55,0.53,0.23,0.53,0.27,0.56,0.53,0.37,0.27,0.51,0.55,0.23,0.51,0.3,0.23,0.54,0.27,0.23,0.27,0.51,0.55,0.37,0.23,0.69,0.27,0.31,0.53,0.27,0.55,0.23,0.31,0.53,0.43,0.23,0.51,0.53,0.25,0.5,0.23,0.43,0.25,0.43,0.42,0.31,0.37,0.51,0.53,0.43" style="fill:rgb(0,0,0);font-family:MinionPro-Regular;font-size:9.0px;stroke:none;">in the electrolyte to the electrode surface and diffusion of Li ions within the bulk electrode</text>
   <text y="500.44" x="475.694,478.502" svgx:width="0.48,0.48" style="fill:rgb(0,0,255);font-family:MinionPro-Regular;font-size:5.85px;stroke:none;">27</text>
   <text y="503.5" x="481.309" svgx:width="0.23" style="fill:rgb(0,0,0);font-family:MinionPro-Regular;font-size:9.0px;stroke:none;">.</text>
   <text y="513.499" x="167.641,177.369,181.32,183.597,187.062,190.968,193.784,197.735,200.012,203.971,207.876,212.762,216.766,221.355,223.936,226.339,228.768,231.684,234.222,238.173,241.602,243.879,248.486,251.276,253.553,256.477,261.372,265.323,267.6,272.046,274.224,278.67,282.0,284.277,288.272,293.283,298.161,300.438,304.884,307.062,311.508,314.838,322.335,329.832,332.109,337.347,343.458,348.345,350.622,354.536,356.939,360.933,364.929,367.844,371.191,375.986,380.864,384.815,388.244,390.521,396.738,400.689,404.036,407.987,410.264,414.384,416.76,420.26,424.976,427.253,429.791,434.631,438.851,442.802,446.185,449.1,451.638,455.976,459.881,462.697,466.692,471.57,473.847,477.752,480.623,482.9,486.895,491.8,495.317,498.664,502.615,507.492,510.363,512.64,517.518,521.469,526.445,529.874,532.303,535.219,537.757,541.708,545.137,547.414,552.021,554.685" svgx:width="1.07,0.43,0.23,0.37,0.44,0.31,0.43,0.23,0.42,0.44,0.52,0.44,0.51,0.27,0.25,0.27,0.31,0.27,0.43,0.37,0.23,0.51,0.3,0.23,0.31,0.53,0.43,0.23,0.48,0.23,0.48,0.36,0.23,0.44,0.55,0.53,0.23,0.48,0.23,0.48,0.36,0.82,0.82,0.23,0.57,0.67,0.53,0.23,0.43,0.25,0.43,0.42,0.31,0.37,0.51,0.53,0.43,0.37,0.23,0.69,0.43,0.37,0.43,0.23,0.44,0.25,0.37,0.51,0.23,0.27,0.55,0.46,0.43,0.37,0.31,0.27,0.47,0.44,0.31,0.43,0.53,0.23,0.44,0.31,0.23,0.42,0.53,0.37,0.37,0.43,0.55,0.31,0.23,0.53,0.43,0.55,0.37,0.27,0.31,0.27,0.43,0.37,0.23,0.51,0.3,0.23" style="fill:rgb(0,0,0);font-family:MinionPro-Regular;font-size:9.0px;stroke:none;">The rate capabilities of the 2.8- and 4.9-mm ECF electrodes were also investigated at current densities of </text>
   <text y="523.498" x="155.644,160.072,162.232,166.66,171.088,173.248,175.471,179.899,182.059,186.487,190.915,193.075,195.294,199.722,201.882,206.31,208.47,210.688,215.116,217.276,221.704,223.927,227.905,232.901,237.761,239.98,244.408,246.626,252.953,256.04,260.36,262.579,267.341,271.274,274.155,280.357,284.335,288.268,293.299,295.522,299.95,302.11,306.538,310.966,315.394,320.182,324.61,326.77,331.198,332.44,338.875,341.094,344.316,348.591,352.002,354.162,356.385,361.389,363.909,366.996,372.0" svgx:width="0.48,0.23,0.48,0.48,0.23,0.23,0.48,0.23,0.48,0.48,0.23,0.23,0.48,0.23,0.48,0.23,0.23,0.48,0.23,0.48,0.23,0.44,0.55,0.53,0.23,0.48,0.23,0.69,0.33,0.47,0.23,0.51,0.43,0.31,0.69,0.43,0.43,0.55,0.23,0.48,0.23,0.48,0.48,0.48,0.52,0.48,0.23,0.48,0.23,0.7,0.23,0.35,0.46,0.37,0.23,0.23,0.54,0.27,0.33,0.54,0.27" style="fill:rgb(0,0,0);font-family:MinionPro-Regular;font-size:9.0px;stroke:none;">0.04, 0.12, 0.2, 0.3 and 1 A/g between 0.005–3.0 V (vs. Li/Li</text>
   <text y="523.498" x="374.52" svgx:width="0.78" style="fill:rgb(0,0,0);font-family:EuclidSymbol;font-size:9.0px;stroke:none;">+</text>
   <text y="523.498" x="381.643,384.865,387.025,389.248,393.28,396.691,398.91,403.627,406.958,410.891,414.375,418.308,423.169,425.968,429.946,434.806,437.025,439.545,444.576,446.799,451.668,454.188,458.535,460.695" svgx:width="0.35,0.23,0.23,0.44,0.37,0.23,0.52,0.37,0.43,0.37,0.43,0.55,0.31,0.43,0.53,0.23,0.27,0.55,0.23,0.53,0.27,0.47,0.23,0.23" style="fill:rgb(0,0,0);font-family:MinionPro-Regular;font-size:9.0px;stroke:none;">), as presented in Fig. </text>
   <text y="523.498" x="462.913,467.341,470.563,476.89,480.112,482.331,486.31,491.305,496.165,498.383,501.605,507.005" svgx:width="0.48,0.35,0.69,0.35,0.23,0.44,0.55,0.53,0.23,0.35,0.59,0.35" style="fill:rgb(0,0,255);font-family:MinionPro-Regular;font-size:9.0px;stroke:none;">6(A) and (B)</text>
   <text y="523.498" x="510.227,512.388,514.607,524.318,528.252,530.47,534.332,539.22,543.199,546.574,550.822,554.647" svgx:width="0.23,0.23,1.07,0.43,0.23,0.42,0.53,0.44,0.37,0.47,0.43,0.23" style="fill:rgb(0,0,0);font-family:MinionPro-Regular;font-size:9.0px;stroke:none;">. The charge </text>
   <text y="533.497" x="155.653,159.557,164.476,169.264,171.235,176.023,178.441,181.849,185.635,190.447,194.35,197.65,201.822,205.683,207.654,211.521,215.334,220.128,224.115,227.958,230.295,233.117,235.565,239.426,242.765,244.736,249.251,251.951,253.922,256.753,261.556,265.417,267.388,271.744,273.832,278.188,281.428,283.399,287.303,292.223,297.011,298.982,303.338,305.426,309.782,313.022,320.429,327.836,329.807,334.955,340.976,345.773,347.744,351.565,353.878,357.781,361.684,364.506,367.762,372.465,377.253,381.114,384.453,386.424,391.212,395.115,398.958,402.213,406.124,410.082,413.489,417.392,422.18,424.151,428.109,431.448,433.419,436.251,441.053,444.914,446.885,450.788,455.603,459.029,462.284,466.145,470.931,473.712,475.683,480.471,484.332,489.216,492.555,494.892,497.697,501.864,503.835,506.283,511.203,515.046,518.3,522.212,526.169,529.577,533.48,538.211,540.299,542.27,546.893,551.408,554.747" svgx:width="0.44,0.55,0.53,0.23,0.53,0.27,0.37,0.42,0.53,0.44,0.37,0.47,0.43,0.23,0.42,0.44,0.52,0.44,0.42,0.27,0.31,0.27,0.43,0.37,0.23,0.51,0.3,0.23,0.31,0.53,0.43,0.23,0.48,0.23,0.48,0.36,0.23,0.44,0.55,0.53,0.23,0.48,0.23,0.48,0.36,0.82,0.82,0.23,0.57,0.67,0.53,0.23,0.43,0.25,0.43,0.42,0.31,0.37,0.51,0.53,0.43,0.37,0.23,0.53,0.43,0.42,0.37,0.43,0.44,0.37,0.43,0.53,0.23,0.44,0.37,0.23,0.31,0.53,0.43,0.23,0.42,0.53,0.37,0.37,0.43,0.55,0.31,0.23,0.53,0.43,0.55,0.37,0.27,0.31,0.46,0.23,0.27,0.55,0.42,0.37,0.43,0.44,0.37,0.43,0.53,0.23,0.23,0.53,0.51,0.37,0.23" style="fill:rgb(0,0,0);font-family:MinionPro-Regular;font-size:9.0px;stroke:none;">and discharge capacities of the 2.8- and 4.9-mm ECF electrodes decreased as the current density increased. For </text>
   <text y="543.496" x="155.653,159.591,163.956,167.939,175.252,180.018,182.408,186.292,188.457,190.689,193.6,198.483,202.425,204.657,209.094,211.259,215.696,219.012,226.5,233.984,236.216,240.117,242.511,246.494,250.477,253.38,256.715,261.499,266.368,270.305,272.537,276.475,280.84,285.763,288.251,292.829,295.245,298.05,302.032,306.901,309.133,312.045,316.929,320.866,323.098,328.017,330.546,334.933,339.817,343.754,347.126,349.983,352.215,355.587,360.496,364.479,368.403,370.927,375.859,379.779,382.011,385.957,389.85,394.724,398.792,402.711,405.129,408.013,412.261,414.493,418.386,421.248,423.48,427.589,430.024,432.418,434.65,438.633,443.525,447.031,450.366,454.308,459.173,462.03,464.262,469.127,473.069,478.032,481.452,483.869,486.772,489.301,493.239,496.654,498.823,501.055,507.396,512.319,514.843,518.71,523.628,525.86,529.844,533.178,537.12,539.352,543.789,548.222,552.659,554.711" svgx:width="0.43,0.47,0.44,0.82,0.52,0.25,0.43,0.23,0.23,0.31,0.53,0.43,0.23,0.48,0.23,0.48,0.36,0.82,0.82,0.23,0.43,0.25,0.43,0.42,0.31,0.37,0.51,0.53,0.43,0.23,0.43,0.47,0.53,0.27,0.51,0.27,0.31,0.43,0.53,0.23,0.31,0.53,0.43,0.23,0.53,0.27,0.47,0.53,0.43,0.37,0.31,0.23,0.37,0.52,0.43,0.42,0.27,0.54,0.42,0.23,0.42,0.44,0.52,0.44,0.42,0.27,0.31,0.46,0.23,0.44,0.31,0.23,0.44,0.25,0.25,0.23,0.42,0.53,0.37,0.37,0.43,0.55,0.31,0.23,0.53,0.43,0.55,0.37,0.27,0.31,0.27,0.43,0.37,0.23,0.23,0.69,0.53,0.27,0.42,0.53,0.23,0.44,0.37,0.43,0.23,0.48,0.48,0.48,0.23,0.23" style="fill:rgb(0,0,0);font-family:MinionPro-Regular;font-size:9.0px;stroke:none;">example, the 2.8-mm electrode exhibited the highest specific capacity at all current densities, which are 455, </text>
   <text y="553.495" x="155.653,160.0,164.347,168.694,170.773,172.735,177.082,181.429,185.776,187.855,189.817,194.164,198.511,202.858,204.82,208.715,213.627,218.406,220.368,224.715,229.062,233.409,234.538,241.936,248.208,253.041,256.047,260.286,262.248,266.052,268.824,270.786,274.681,279.487,282.904,286.151,290.003,294.779,297.551,299.513,304.292,308.144,313.019,316.349,318.678,321.493,323.932,327.784,331.114,333.076,337.583,340.274,342.236,346.583,348.662,353.009,357.356,359.435,361.397,365.744,367.823,372.17,376.517,378.596,380.558,384.905,386.984,391.331,393.41,395.372,399.719,401.798,406.145,408.107,412.001,416.913,421.692,423.654,428.001,429.963,436.209,439.215,443.48,445.559,447.521,450.767,454.619,457.902,462.723,466.618,470.512,473.326,475.701,479.82,483.633,485.872,489.371,491.45,493.412,496.361,501.311,503.273,507.251,512.03,516.809,519.138,521.952,524.391,528.899,533.849,535.928,537.89,542.567,547.083,549.906,554.712" svgx:width="0.48,0.48,0.48,0.23,0.23,0.48,0.48,0.48,0.23,0.23,0.48,0.48,0.48,0.23,0.44,0.55,0.53,0.23,0.48,0.48,0.48,0.23,0.82,0.69,0.53,0.33,0.47,0.23,0.44,0.31,0.23,0.42,0.53,0.37,0.37,0.43,0.55,0.31,0.23,0.53,0.43,0.55,0.37,0.27,0.31,0.27,0.43,0.37,0.23,0.51,0.3,0.23,0.48,0.23,0.48,0.48,0.23,0.23,0.48,0.23,0.48,0.48,0.23,0.23,0.48,0.23,0.48,0.23,0.23,0.48,0.23,0.48,0.23,0.44,0.55,0.53,0.23,0.48,0.23,0.69,0.33,0.47,0.23,0.23,0.37,0.43,0.37,0.52,0.43,0.42,0.31,0.27,0.46,0.43,0.25,0.46,0.23,0.23,0.34,0.55,0.23,0.44,0.53,0.53,0.27,0.31,0.27,0.51,0.55,0.23,0.23,0.51,0.51,0.31,0.53,0.23" style="fill:rgb(0,0,0);font-family:MinionPro-Regular;font-size:9.0px;stroke:none;">352, 307, 234 and 115 mAh/g at current densities of 0.04, 0.12, 0.2, 0.3 and 1 A/g, respectively. In addition, both </text>
   <text y="563.494" x="155.653,160.018,162.115,166.48,169.729,171.718,175.631,180.561,185.358,187.347,191.712,193.809,198.174,201.423,208.839,216.255,218.244,223.401,229.431,234.237,236.226,240.058,242.38,246.293,250.206,253.039,256.304,261.017,265.814,269.684,273.032,275.021,279.818,283.688,291.066,295.592,300.485,303.786,306.618,310.002,313.826,316.559,320.472,325.269,327.258,331.171,336.139,338.128,341.998,346.217,350.069,353.9,356.265,358.587,362.457,367.252,370.042,372.031,375.883,380.418,385.284,387.606,392.13,399.454,403.962,406.419,410.271,412.26,416.13,423.357,427.209,429.666,433.536,438.466,442.459,446.635,448.624,453.148,455.857,457.846,463.111,467.476,471.841,476.206,483.055,485.044,488.868,491.658,493.647,498.498,500.955,505.272,510.123,512.112,516.024,520.848,524.283,527.549,531.419,536.214,539.004,540.993,544.377,548.2,550.933,554.758" svgx:width="0.48,0.23,0.48,0.36,0.23,0.44,0.55,0.53,0.23,0.48,0.23,0.48,0.36,0.82,0.82,0.23,0.57,0.67,0.53,0.23,0.43,0.25,0.43,0.42,0.31,0.37,0.51,0.53,0.43,0.37,0.23,0.53,0.43,0.82,0.51,0.55,0.37,0.31,0.37,0.44,0.31,0.43,0.53,0.23,0.44,0.55,0.23,0.43,0.47,0.42,0.43,0.25,0.25,0.43,0.55,0.31,0.23,0.42,0.51,0.53,0.25,0.51,0.82,0.51,0.27,0.42,0.23,0.43,0.8,0.42,0.27,0.43,0.55,0.42,0.46,0.23,0.51,0.3,0.23,0.58,0.48,0.48,0.48,0.76,0.23,0.44,0.31,0.23,0.53,0.27,0.47,0.53,0.23,0.42,0.53,0.37,0.37,0.43,0.55,0.31,0.23,0.37,0.44,0.31,0.43,0.23" style="fill:rgb(0,0,0);font-family:MinionPro-Regular;font-size:9.0px;stroke:none;">2.8- and 4.9-mm ECF electrodes demonstrated an excellent coulombic efficiency of ~100% at high current rate </text>
   <text y="573.493" x="155.653,159.533,164.44,168.438,171.832,176.1,180.051,183.381,188.259,190.771,194.273,198.154,203.061,207.058,210.453,214.719,218.618,220.796,223.082,225.62,230.634,235.512,238.05,242.012,245.919,248.837,251.375,256.353,260.691,262.977,267.054,269.34,274.272,276.81,281.213,286.145,288.431,292.392,296.3,301.188,305.195,309.786,312.37,314.773,317.205,320.105,324.362,326.648,331.257,334.047,336.333,339.718,344.598,347.982,350.909,354.906,357.444,362.493,365.031,370.01,374.348,376.634,381.566,384.104,388.506,393.438,395.724,399.721,404.626,408.146,411.496,415.447,420.326,423.197,425.483,430.361,434.312,439.291,442.72,445.152,448.051,451.653,453.831,456.117,458.962,461.833,464.119,471.446,476.326,479.711,482.582,484.868,489.648,493.599,495.885,500.9,505.519,508.435,510.973,514.906,518.903,523.781,526.067,528.993,533.9,537.807,540.678,542.964,545.89,550.788,554.612" svgx:width="0.42,0.53,0.44,0.37,0.47,0.43,0.36,0.53,0.27,0.37,0.42,0.53,0.44,0.37,0.47,0.43,0.23,0.23,0.27,0.55,0.53,0.27,0.42,0.44,0.31,0.27,0.55,0.47,0.23,0.44,0.23,0.53,0.27,0.47,0.53,0.23,0.42,0.44,0.52,0.44,0.51,0.27,0.25,0.27,0.31,0.46,0.23,0.51,0.3,0.23,0.37,0.53,0.37,0.31,0.44,0.27,0.55,0.27,0.55,0.47,0.23,0.53,0.27,0.47,0.53,0.23,0.42,0.53,0.37,0.37,0.43,0.55,0.31,0.23,0.53,0.43,0.55,0.37,0.27,0.31,0.46,0.23,0.23,0.34,0.31,0.23,0.82,0.53,0.37,0.31,0.23,0.51,0.43,0.23,0.55,0.51,0.31,0.27,0.42,0.43,0.53,0.23,0.31,0.53,0.44,0.31,0.23,0.31,0.53,0.43,0.23" style="fill:rgb(0,0,0);font-family:MinionPro-Regular;font-size:9.0px;stroke:none;">charge-discharge, indicating a high capability of sustaining high current density. It must be noticed that the </text>
   <text y="583.492" x="155.653,158.985,162.992,167.198,171.131,174.525,177.936,180.422,185.042,187.427,191.36,193.583,197.527,201.417,206.287,210.346,214.261,216.675,219.575,222.095,226.028,229.439,231.662,234.356,238.947,242.394,244.617,247.526,252.406,256.339,258.562,262.99,265.15,269.578,272.89,275.113,279.093,284.091,288.951,291.174,295.602,297.762,302.19,305.502,312.981,320.46,322.683,327.903,333.996,338.865,341.088,344.986,347.371,351.351,355.331,358.231,361.563,366.343,371.203,375.136,378.547,380.77,384.685,389.277,394.139,397.04,399.56,404.422,409.309,413.91,418.772,422.149,424.473,428.712,430.935,433.455,438.451,442.366,445.698,449.688,453.722,457.207,461.186,466.046,468.269,471.133,474.466,479.058,486.537,488.76,493.188,497.616,502.044,504.267,507.068,511.766,513.989,518.417,522.845,527.273,528.595,536.074,542.43,547.344,550.431,554.643" svgx:width="0.37,0.43,0.46,0.43,0.37,0.37,0.27,0.51,0.25,0.43,0.23,0.42,0.44,0.52,0.44,0.42,0.27,0.31,0.27,0.43,0.37,0.23,0.3,0.51,0.37,0.23,0.31,0.53,0.43,0.23,0.48,0.23,0.48,0.36,0.23,0.44,0.55,0.53,0.23,0.48,0.23,0.48,0.36,0.82,0.82,0.23,0.57,0.67,0.53,0.23,0.43,0.25,0.43,0.42,0.31,0.37,0.51,0.53,0.43,0.37,0.23,0.42,0.51,0.55,0.31,0.27,0.55,0.53,0.51,0.53,0.37,0.25,0.46,0.23,0.27,0.55,0.42,0.37,0.43,0.44,0.37,0.43,0.53,0.23,0.3,0.37,0.51,0.82,0.23,0.48,0.48,0.48,0.23,0.31,0.51,0.23,0.48,0.48,0.48,0.23,0.82,0.69,0.53,0.33,0.47,0.23" style="fill:rgb(0,0,0);font-family:MinionPro-Regular;font-size:9.0px;stroke:none;">reversible capacities for the 2.8- and 4.9-mm ECF electrodes continuously increased from 426 to 455 mAh/g </text>
   <text y="593.491" x="155.653,159.523,164.41,169.162,171.07,175.39,179.71,184.03,185.938,188.629,193.219,195.127,199.447,203.767,208.087,209.221,216.592,222.838,227.644,230.623,234.835,236.743,240.001,242.8,246.67,250.099,252.889,255.301,260.152,264.364,266.272,269.026,272.248,276.73,284.101,286.009,290.329" svgx:width="0.44,0.55,0.53,0.23,0.48,0.48,0.48,0.23,0.31,0.51,0.23,0.48,0.48,0.48,0.23,0.82,0.69,0.53,0.33,0.47,0.23,0.37,0.31,0.44,0.37,0.31,0.27,0.55,0.47,0.23,0.3,0.37,0.51,0.82,0.23,0.48,0.48" style="fill:rgb(0,0,0);font-family:MinionPro-Regular;font-size:9.0px;stroke:none;">and 279 to 300 mAh/g starting from 51</text>
   <text y="590.44" x="294.643,296.761" svgx:width="0.37,0.31" style="fill:rgb(0,0,0);font-family:MinionPro-Regular;font-size:5.85px;stroke:none;">st</text>
   <text y="593.5" x="298.545,300.453,303.144,307.734,309.642,313.962" svgx:width="0.23,0.31,0.51,0.23,0.48,0.48" style="fill:rgb(0,0,0);font-family:MinionPro-Regular;font-size:9.0px;stroke:none;"> to 60</text>
   <text y="590.44" x="318.288,320.107" svgx:width="0.31,0.53" style="fill:rgb(0,0,0);font-family:MinionPro-Regular;font-size:5.85px;stroke:none;">th</text>
   <text y="593.5" x="323.231,325.139,329.089,333.148,336.901,339.178,343.003,346.306,348.358,350.266,353.488,357.313,360.571,365.368,369.238,373.108,375.898,378.247,382.342,386.131,388.345,391.819,393.871,395.779,405.382,409.207,411.115,414.337,418.162,425.506,429.376,432.679,437.143,441.022,445.531,447.808,451.633,453.541,455.953,460.84,464.647,467.869,471.748,475.672,479.046,482.871,484.779,489.261,491.925,493.833,497.667,501.447,506.208,510.159,513.966,516.27,519.042,523.173,525.081,527.466,530.769,532.677,536.484,540.967,544.359,547.581,551.406" svgx:width="0.23,0.42,0.46,0.42,0.25,0.43,0.37,0.23,0.23,0.37,0.43,0.37,0.52,0.43,0.42,0.31,0.27,0.46,0.43,0.25,0.46,0.23,0.23,1.07,0.43,0.23,0.37,0.43,0.82,0.44,0.37,0.5,0.44,0.51,0.25,0.43,0.23,0.27,0.55,0.42,0.37,0.43,0.44,0.37,0.43,0.23,0.51,0.3,0.23,0.42,0.44,0.52,0.44,0.42,0.27,0.31,0.46,0.23,0.27,0.37,0.23,0.42,0.51,0.37,0.37,0.43,0.36" style="fill:rgb(0,0,0);font-family:MinionPro-Regular;font-size:9.0px;stroke:none;"> cycles, respectively. The remarkable increase of capacity is corre-</text>
   <text y="603.499" x="155.642,158.894,163.685,168.16,173.041,177.784,181.648,186.391,188.119,190.803,195.384,197.112,199.905,204.669,208.485,210.213,214.086,218.649,222.017,226.493,229.823,234.281,236.684,241.528,245.731,247.459,252.106,255.889,260.661,264.444,268.632,271.035,275.52,280.29,283.62,285.348,289.823,292.478,294.206,299.096,301.499,303.227,305.63,310.106,314.95,318.244,319.972,324.448,329.362,331.09,333.883,338.646,342.462,344.19,349.293,355.269,360.021,361.749,366.639,370.503,375.384,379.965,383.216,386.0,389.422,394.192,398.055,400.704,405.474,408.69,412.506,414.234,417.486,422.256,425.642,428.297,432.239,436.037,439.801,441.844,443.572,445.975,450.889,452.617,456.751,461.415,466.08,470.823,472.551,476.451,480.702,483.917,487.781,491.597,498.925,502.741,507.486,510.222,511.95,518.136,520.434,523.226,528.023,529.751,533.119,537.009,541.099,544.915,548.245,552.235,554.512" svgx:width="0.37,0.52,0.51,0.55,0.53,0.43,0.53,0.23,0.31,0.51,0.23,0.31,0.53,0.43,0.23,0.44,0.51,0.37,0.51,0.37,0.51,0.27,0.55,0.47,0.23,0.51,0.43,0.53,0.44,0.46,0.27,0.51,0.53,0.37,0.23,0.51,0.3,0.23,0.54,0.27,0.23,0.27,0.51,0.55,0.37,0.23,0.51,0.55,0.23,0.31,0.53,0.43,0.23,0.57,0.67,0.53,0.23,0.55,0.44,0.55,0.51,0.37,0.31,0.37,0.53,0.42,0.31,0.53,0.37,0.43,0.23,0.37,0.53,0.37,0.3,0.44,0.42,0.43,0.23,0.23,0.27,0.55,0.23,0.47,0.51,0.51,0.53,0.23,0.44,0.47,0.37,0.43,0.43,0.82,0.43,0.55,0.31,0.23,0.69,0.27,0.31,0.53,0.23,0.37,0.43,0.46,0.43,0.37,0.44,0.25,0.23" style="fill:rgb(0,0,0);font-family:MinionPro-Regular;font-size:9.0px;stroke:none;">sponded to the absorbing behaviour of Li ions on the ECF nanostructure surface, in good agreement with several </text>
   <text y="613.498" x="155.642,159.521,163.391,166.694,168.971,171.383,175.208,178.547,180.383,186.476,190.958,194.261,198.725" svgx:width="0.43,0.44,0.37,0.25,0.27,0.43,0.37,0.23,0.69,0.51,0.37,0.5,0.37" style="fill:rgb(0,0,0);font-family:MinionPro-Regular;font-size:9.0px;stroke:none;">earlier works</text>
   <text y="610.44" x="202.026" svgx:width="0.48" style="fill:rgb(0,0,255);font-family:MinionPro-Regular;font-size:5.85px;stroke:none;">9</text>
   <text y="610.44" x="204.834,206.168" svgx:width="0.23,0.23" style="fill:rgb(0,0,0);font-family:MinionPro-Regular;font-size:5.85px;stroke:none;">, </text>
   <text y="610.44" x="207.361,210.169" svgx:width="0.48,0.48" style="fill:rgb(0,0,255);font-family:MinionPro-Regular;font-size:5.85px;stroke:none;">28</text>
   <text y="613.5" x="212.979" svgx:width="0.23" style="fill:rgb(0,0,0);font-family:MinionPro-Regular;font-size:9.0px;stroke:none;">.</text>
   <text y="623.499" x="167.637,177.199,180.983,182.675,187.439,189.811,194.044,198.774,202.558,205.775,208.479,210.171,213.963,217.703,222.422,226.333,230.098,232.362,235.11,237.481,241.266,244.527,246.219,250.661,253.283,254.975,259.255,263.533,267.813,269.505,273.333,278.18,282.891,284.583,288.862,293.141,297.444,298.524,305.853,312.059,316.823,319.762,323.932,325.624,328.167,332.607,335.906,337.598,340.356,345.084,348.869,350.561,354.839,356.851,361.129,364.293,365.985,369.813,374.66,379.371,381.063,385.342,387.353,391.632,394.795,402.125,409.455,411.147,416.217,422.162,426.882,428.574,432.322,434.558,438.386,442.216,444.964,448.146,452.775,457.486,461.271,464.532,466.224,470.018,473.846,478.729,480.421,483.637,486.387,488.802,491.083,493.32,495.012,499.623,503.407,505.099,512.402,516.231,518.602,523.313,526.071,529.9,532.271,537.117,540.947,545.657,547.349,550.0,554.59" svgx:width="1.07,0.43,0.23,0.53,0.27,0.47,0.53,0.43,0.37,0.31,0.23,0.42,0.44,0.52,0.44,0.42,0.27,0.31,0.27,0.43,0.37,0.23,0.51,0.3,0.23,0.48,0.48,0.48,0.23,0.44,0.55,0.53,0.23,0.48,0.48,0.48,0.23,0.82,0.69,0.53,0.33,0.47,0.23,0.3,0.51,0.37,0.23,0.31,0.53,0.43,0.23,0.48,0.23,0.48,0.36,0.23,0.44,0.55,0.53,0.23,0.48,0.23,0.48,0.36,0.82,0.82,0.23,0.57,0.67,0.53,0.23,0.43,0.25,0.43,0.42,0.31,0.37,0.51,0.53,0.43,0.37,0.23,0.42,0.44,0.55,0.23,0.37,0.31,0.27,0.25,0.25,0.23,0.51,0.43,0.23,0.82,0.44,0.27,0.55,0.31,0.44,0.27,0.55,0.43,0.53,0.23,0.31,0.51,0.23" style="fill:rgb(0,0,0);font-family:MinionPro-Regular;font-size:9.0px;stroke:none;">The highest capacities of 455 and 300 mAh/g for the 2.8- and 4.9-mm ECF electrodes can still be maintained to </text>
   <text y="633.498" x="155.631,159.919,164.208,168.496,170.197,174.116,178.144,181.866,184.111,187.905,191.175,192.876,196.769,200.04,201.741,204.978,209.716,214.131,220.291,225.183,226.884,229.264,234.156,235.857,240.586,242.967,247.174,249.195" svgx:width="0.48,0.48,0.48,0.23,0.42,0.46,0.42,0.25,0.43,0.37,0.23,0.44,0.37,0.23,0.37,0.53,0.51,0.69,0.55,0.23,0.27,0.55,0.23,0.53,0.27,0.47,0.23,0.23" style="fill:rgb(0,0,0);font-family:MinionPro-Regular;font-size:9.0px;stroke:none;">190 cycles as shown in Fig. </text>
   <text y="633.498" x="250.923,255.211,258.294,264.247,267.33,269.031,272.869,277.725,282.445,284.146,287.229,293.812" svgx:width="0.48,0.35,0.67,0.35,0.23,0.44,0.55,0.53,0.23,0.35,0.74,0.35" style="fill:rgb(0,0,255);font-family:MinionPro-Regular;font-size:9.0px;stroke:none;">6(C) and (D)</text>
   <text y="633.498" x="296.904,298.924,300.625,306.786,311.938,315.732,319.039,320.74,323.508,328.246,332.04,333.741,338.524,341.778,345.004,347.718,349.419,353.338,357.366,361.087,363.333,367.072,369.093,370.794,373.561,378.3,382.092,383.793,389.882,394.377,396.515,401.262,408.512,412.944,415.325,419.1,420.801,424.595,431.745,435.521,437.9,441.694,446.55,450.469,454.573,456.274,460.724,463.357,465.058,467.825,472.564,476.357,478.058,482.347,484.367,488.656,491.828,493.529,497.368,502.223,506.944,508.645,512.933,514.958,519.246,522.419,529.757,537.097,538.798,543.878,549.832,554.593" svgx:width="0.23,0.23,0.69,0.58,0.43,0.37,0.23,0.31,0.53,0.43,0.23,0.54,0.37,0.37,0.31,0.23,0.42,0.46,0.42,0.25,0.43,0.23,0.23,0.31,0.53,0.43,0.23,0.67,0.51,0.25,0.53,0.82,0.51,0.27,0.42,0.23,0.43,0.8,0.42,0.27,0.43,0.55,0.42,0.46,0.23,0.51,0.3,0.23,0.31,0.53,0.43,0.23,0.48,0.23,0.48,0.36,0.23,0.44,0.55,0.53,0.23,0.48,0.23,0.48,0.36,0.82,0.82,0.23,0.57,0.67,0.53,0.23" style="fill:rgb(0,0,0);font-family:MinionPro-Regular;font-size:9.0px;stroke:none;">. After the first cycle, the Columbic efficiency of the 2.8- and 4.9-mm ECF </text>
   <text y="643.497" x="155.64,159.462,161.775,165.678,169.581,172.406,175.661,180.366,185.154,189.015,192.354,194.325,196.573,201.388,208.623,213.453,217.356,222.144,224.115,226.839,231.465,233.436,238.692,243.048,247.404,251.76,258.6,260.688,262.659,265.107,270.029,274.817,277.265,281.132,284.945,287.769,290.217,295.102,299.35,301.321,305.182,309.391,313.234,317.056,319.413,321.725,325.586,330.373,333.154,335.125,339.109,343.202,346.988,349.301,353.162,355.133,358.425,361.258,365.17,369.668,372.159,374.472,376.81,379.615,383.782,385.753,388.903,391.736,396.578,398.996,402.335,404.306,406.619,411.098,417.299,419.27,421.718,426.677,429.015,431.839,434.312,438.341,440.654,442.625,445.073,448.5,451.756,455.687,459.815,463.676,466.994,470.333,472.744,477.241,479.732,482.045,484.382,487.189,491.356,493.327,495.746,499.085,501.056,505.733,510.548,514.409,516.38,519.104,523.73,525.701,529.893,535.041,538.146,540.117,545.01,547.323,554.693" svgx:width="0.43,0.25,0.43,0.42,0.31,0.37,0.51,0.53,0.43,0.37,0.23,0.26,0.53,0.82,0.52,0.43,0.53,0.23,0.31,0.51,0.23,0.58,0.48,0.48,0.48,0.76,0.23,0.23,0.27,0.55,0.53,0.27,0.42,0.44,0.31,0.27,0.55,0.47,0.23,0.43,0.47,0.42,0.43,0.25,0.25,0.43,0.55,0.31,0.23,0.42,0.46,0.42,0.25,0.43,0.23,0.37,0.31,0.44,0.51,0.27,0.25,0.27,0.31,0.46,0.23,0.35,0.31,0.53,0.27,0.37,0.23,0.25,0.51,0.69,0.23,0.27,0.55,0.27,0.31,0.27,0.44,0.25,0.23,0.27,0.37,0.37,0.43,0.46,0.43,0.37,0.37,0.27,0.51,0.27,0.25,0.27,0.31,0.46,0.23,0.27,0.37,0.23,0.53,0.53,0.43,0.23,0.31,0.51,0.23,0.47,0.57,0.34,0.23,0.54,0.25,0.82,0.23" style="fill:rgb(0,0,0);font-family:MinionPro-Regular;font-size:9.0px;stroke:none;">electrodes jumped to ~100%, indicating excellent cycle stability (this low initial irreversibility is due to SEI film </text>
   <text y="653.496" x="155.64,158.239,162.736,166.144,173.505,177.301,180.106,182.536,187.034,191.975,195.107,197.177,199.13,208.749,212.592,215.831,219.674,222.273,226.77,230.008,233.795,235.865,237.818,240.137,242.9,244.853,248.702,252.588,257.529,259.482,264.151,267.994,269.947,273.772,278.27,283.172,286.941,289.126,293.923,298.693,302.579,307.349,309.302,312.116,316.911,320.708,323.471,325.424,328.238,333.024,336.867,338.82,343.452,347.249,349.92,352.626,356.469,360.084,364.233,366.186,370.955,374.276,376.706,381.572,385.802,387.755,390.569,395.393,397.823,402.764,407.667,411.51,414.867,416.82,421.95,427.953,432.732,434.685,438.49,440.785,444.67,448.555,451.362,454.599,459.286,464.056,467.899,471.22,473.173,477.016,481.282,486.106,488.498,492.978,495.298,498.004,501.89,506.66,508.613,515.829,520.626,524.395,529.219,531.172,535.996,538.426,542.716,547.502,551.345,554.684" svgx:width="0.3,0.51,0.37,0.82,0.44,0.31,0.27,0.51,0.55,0.35,0.23,0.23,1.07,0.43,0.37,0.43,0.3,0.51,0.37,0.43,0.23,0.23,0.27,0.31,0.23,0.42,0.44,0.55,0.23,0.51,0.43,0.23,0.42,0.51,0.55,0.42,0.25,0.53,0.53,0.43,0.53,0.23,0.31,0.53,0.44,0.31,0.23,0.31,0.53,0.43,0.23,0.51,0.44,0.31,0.31,0.43,0.37,0.46,0.23,0.53,0.37,0.27,0.55,0.47,0.23,0.31,0.53,0.27,0.55,0.55,0.43,0.37,0.23,0.57,0.67,0.53,0.23,0.43,0.25,0.43,0.42,0.31,0.37,0.51,0.53,0.43,0.37,0.23,0.43,0.47,0.53,0.27,0.51,0.27,0.31,0.43,0.53,0.23,0.82,0.53,0.42,0.53,0.23,0.53,0.27,0.47,0.53,0.43,0.37,0.23" style="fill:rgb(0,0,0);font-family:MinionPro-Regular;font-size:9.0px;stroke:none;">formation). Therefore, it can be concluded that the battery using thinner ECF electrodes exhibited much higher </text>
   <text y="663.495" x="155.64,158.898,163.695,167.565,171.372,173.784,178.599,182.406,184.242,188.076,191.856,196.616,200.567,204.374,206.678,209.45,213.581,215.417,221.609,223.913,226.712,231.518,233.354,236.576,240.401,243.659,248.456,252.326,256.196,258.941,260.777,263.469,268.059,269.895,272.693,277.463,281.288,283.124,285.923,290.729,293.141,296.894,301.277,305.102,308.441,310.277,314.066,316.343,320.214,324.083,326.873,330.095,334.766,339.518,343.343,346.646" svgx:width="0.37,0.52,0.43,0.42,0.27,0.54,0.42,0.23,0.42,0.44,0.52,0.44,0.42,0.27,0.31,0.46,0.23,0.69,0.27,0.31,0.53,0.23,0.37,0.43,0.37,0.52,0.43,0.42,0.31,0.23,0.31,0.51,0.23,0.31,0.53,0.43,0.23,0.31,0.53,0.27,0.42,0.5,0.43,0.37,0.23,0.43,0.25,0.43,0.42,0.31,0.37,0.51,0.53,0.43,0.37,0.23" style="fill:rgb(0,0,0);font-family:MinionPro-Regular;font-size:9.0px;stroke:none;">specific capacity with respect to the thicker electrodes.</text>
   <text y="673.494" x="167.637,170.55,175.464,177.192,181.663,184.873,189.616,193.432,196.762,198.49,201.17,205.751,207.479,212.249,217.125,221.868,225.684,228.957,232.204,234.992,238.85,243.726,248.469,250.197,252.984,257.743,261.559,263.287,267.103,272.06,275.918,279.777,282.513,284.241,288.711,291.366,293.094,296.836,301.603,305.462,308.718,312.846,316.662,319.857,324.6,326.973,330.337,334.079,338.846,342.705,345.961,350.089,353.905,355.633,359.572,363.62,367.362,369.63,373.446,376.74,378.468,382.938,387.852,389.58,392.368,397.127,400.943,402.671,406.448,408.716,412.575,416.434,419.212,422.422,427.081,430.824,435.582,439.398,446.76,449.163,452.985,456.97,459.238,460.966,465.751,469.567,472.948,475.52,479.991,483.372,490.705,494.563,499.439,503.237,507.053,508.781,513.251,515.906,517.634,522.467,525.527,530.81,534.104,536.147,537.875,541.652,543.92,547.779,551.577" svgx:width="0.34,0.55,0.23,0.51,0.37,0.53,0.43,0.37,0.23,0.31,0.51,0.23,0.53,0.55,0.53,0.43,0.37,0.37,0.31,0.44,0.55,0.53,0.23,0.31,0.53,0.43,0.23,0.43,0.56,0.43,0.42,0.31,0.23,0.51,0.3,0.23,0.42,0.53,0.44,0.37,0.47,0.43,0.36,0.53,0.27,0.37,0.42,0.53,0.44,0.37,0.47,0.43,0.23,0.42,0.46,0.42,0.25,0.43,0.37,0.23,0.51,0.55,0.23,0.31,0.53,0.43,0.23,0.43,0.25,0.43,0.42,0.31,0.37,0.51,0.42,0.53,0.43,0.82,0.27,0.42,0.44,0.25,0.23,0.52,0.43,0.37,0.3,0.51,0.37,0.82,0.44,0.55,0.42,0.43,0.23,0.51,0.3,0.23,0.54,0.34,0.59,0.37,0.23,0.23,0.43,0.25,0.43,0.42,0.36" style="fill:rgb(0,0,0);font-family:MinionPro-Regular;font-size:9.0px;stroke:none;">In order to understand the effect of charge-discharge cycles on the electrochemical performance of LIBs, elec-</text>
   <text y="683.493" x="155.64,158.482,161.756,166.479,170.284,175.107,178.986,186.411,188.877,192.762,196.81,199.141,201.166,203.632,210.884,215.733,219.656,224.487,228.409,233.348,237.209,241.088,243.113,246.423,251.273,255.194,259.116,261.958,265.233,269.877,273.304,277.165,281.708,286.332,290.517,292.542,298.761,302.737,306.094,308.119,312.923,316.351,320.273,325.079,327.104,329.847,334.491,336.516,340.395,344.697,348.619,356.044,358.51,363.449,367.328,369.349,373.883,378.823,382.702,384.727,389.262,391.98,394.001,396.852,401.674,405.553,407.578,412.744,418.783,423.598,425.623,429.464,431.795,435.718,439.64,442.481,445.756,450.479,455.285,459.164,462.521,464.546,467.714,470.124,472.23,476.053,478.159,480.184,484.558,488.932,491.038,495.412,496.479,503.904,511.329,514.497,516.522,521.218,526.051,529.496,531.962,536.865,541.131,543.156,546.006,550.829,554.654" svgx:width="0.31,0.37,0.51,0.42,0.53,0.43,0.82,0.27,0.42,0.44,0.25,0.23,0.27,0.82,0.52,0.43,0.53,0.44,0.55,0.42,0.43,0.23,0.37,0.52,0.43,0.42,0.31,0.37,0.51,0.37,0.42,0.51,0.52,0.46,0.23,0.69,0.44,0.37,0.23,0.53,0.37,0.43,0.53,0.23,0.31,0.51,0.23,0.43,0.47,0.44,0.82,0.27,0.55,0.43,0.23,0.51,0.55,0.43,0.23,0.51,0.3,0.23,0.31,0.53,0.43,0.23,0.57,0.67,0.53,0.23,0.43,0.25,0.43,0.42,0.31,0.37,0.51,0.53,0.43,0.37,0.23,0.35,0.27,0.23,0.43,0.23,0.23,0.48,0.48,0.23,0.48,0.23,0.82,0.82,0.35,0.23,0.53,0.53,0.37,0.27,0.55,0.47,0.23,0.31,0.53,0.43,0.23" style="fill:rgb(0,0,0);font-family:MinionPro-Regular;font-size:9.0px;stroke:none;">trochemical impedance spectroscopy was used to examine one of the ECF electrodes (i.e. 13.7 mm) during the </text>
   <text y="693.492" x="155.64,159.559,162.858,166.057,169.977,173.229,176.6,180.42,187.697,192.201,194.473,198.338,203.086,204.814,208.679,213.562,218.309,220.037,223.903,229.081,232.902,236.236,237.964,242.28,246.595,250.911,252.639,256.585,260.64,264.388,266.661,270.48,273.779,275.827,277.555,282.31,284.718,288.925,293.7,296.917,300.737" svgx:width="0.44,0.37,0.36,0.44,0.37,0.37,0.43,0.82,0.51,0.25,0.43,0.53,0.23,0.44,0.55,0.53,0.23,0.44,0.58,0.43,0.37,0.23,0.48,0.48,0.48,0.23,0.42,0.46,0.42,0.25,0.43,0.37,0.23,0.23,0.53,0.27,0.47,0.53,0.37,0.43,0.23" style="fill:rgb(0,0,0);font-family:MinionPro-Regular;font-size:9.0px;stroke:none;">as-assembled and after 300 cycles. Figure </text>
   <text y="693.492" x="302.493,306.808,309.918,316.131" svgx:width="0.48,0.35,0.69,0.35" style="fill:rgb(0,0,255);font-family:MinionPro-Regular;font-size:9.0px;stroke:none;">7(A)</text>
   <text y="693.492" x="319.242,320.97,325.573,328.791,332.611,335.982,339.801,344.549,347.289,350.588,352.316,355.11,359.876,363.696,365.424,371.837,375.891,380.396,385.17,387.551,390.803,393.544,395.272,399.92,402.192,406.678,409.419,412.717,414.445,418.923,421.583,423.311,426.104,430.87,434.69,436.418,441.526,447.506,452.263,453.991,457.775,460.048,463.913,467.778,470.563,473.781,478.447,483.194,487.014,488.742,494.929,497.229,500.023,504.825,506.553,510.499,512.227,515.021,519.822,522.23,525.978,530.474,535.356,539.176,542.429,545.728,547.456,551.933,554.597" svgx:width="0.23,0.52,0.37,0.43,0.37,0.43,0.55,0.31,0.37,0.23,0.31,0.53,0.43,0.23,0.74,0.46,0.51,0.53,0.27,0.37,0.31,0.23,0.52,0.25,0.51,0.31,0.37,0.23,0.51,0.3,0.23,0.31,0.53,0.43,0.23,0.57,0.67,0.53,0.23,0.43,0.25,0.43,0.42,0.31,0.37,0.51,0.53,0.43,0.23,0.69,0.27,0.31,0.53,0.23,0.44,0.23,0.31,0.53,0.27,0.42,0.5,0.55,0.43,0.37,0.37,0.23,0.51,0.3,0.23" style="fill:rgb(0,0,0);font-family:MinionPro-Regular;font-size:9.0px;stroke:none;"> presents the Nyquist plots of the ECF electrode with a thickness of </text>
   <text y="703.491" x="155.649,159.964,164.284,166.336,170.643,171.768,179.134,186.505,188.238,192.85,196.77,200.142,203.962,205.695,209.497,213.283,215.6,217.877,219.61,224.384,229.268,234.02,237.84,241.179,242.912,247.659,250.071,255.035,258.86,262.077,265.902,270.651,273.391,275.124,279.07,283.126,286.875,289.147,291.559,296.406,300.618,302.35,306.153,310.631,315.515,320.262,322.563,325.348,327.76,332.238,337.085,340.384,342.436,344.168,348.089,351.387,354.591,358.511,361.765,365.135,368.96,376.238,380.742,383.019,386.885,391.637,393.369,397.235,402.118,406.866,408.598,412.465,417.645,421.466,424.805,426.537,430.853,435.173,439.488,441.221,445.168,449.224,452.972,455.245,459.07,462.368,464.42,466.153,469.371,473.192,476.446,481.238,485.105,488.97,491.756,494.101,498.193,501.977,504.188,507.657,509.709,511.442,521.041,524.862,526.594,533.007,537.062,541.567,546.342,548.723,551.978,554.723" svgx:width="0.48,0.48,0.23,0.48,0.23,0.82,0.82,0.23,0.51,0.44,0.37,0.43,0.23,0.42,0.43,0.25,0.25,0.23,0.53,0.55,0.53,0.43,0.37,0.23,0.53,0.27,0.56,0.43,0.37,0.43,0.55,0.31,0.23,0.42,0.46,0.42,0.25,0.27,0.55,0.47,0.23,0.42,0.51,0.55,0.53,0.27,0.31,0.27,0.51,0.55,0.37,0.23,0.23,0.44,0.37,0.36,0.44,0.37,0.37,0.43,0.82,0.51,0.25,0.43,0.53,0.23,0.44,0.55,0.53,0.23,0.44,0.58,0.43,0.37,0.23,0.48,0.48,0.48,0.23,0.42,0.46,0.42,0.25,0.43,0.37,0.23,0.23,0.37,0.43,0.37,0.52,0.43,0.42,0.31,0.27,0.46,0.43,0.25,0.46,0.23,0.23,1.07,0.43,0.23,0.74,0.46,0.51,0.53,0.27,0.37,0.31,0.23" style="fill:rgb(0,0,0);font-family:MinionPro-Regular;font-size:9.0px;stroke:none;">13.7 mm base cell under different cycling conditions: as-assembled and after 300 cycles, respectively. The Nyquist </text>
   <text y="713.49" x="155.649,160.304,162.581,167.076,169.821,173.124,175.068,179.868,184.458,187.719,191.097,194.922,198.183,201.486,203.43,207.381,209.325,212.702,216.527,223.898,226.31,230.117,232.529,235.754,239.51,241.787,245.612,247.556,249.968,254.891,256.835,259.636,264.409,268.234,270.178,274.984,277.396,281.674,286.48,289.684,297.021,300.894,305.646,307.953,312.732,320.103,322.047,324.804,328.029,331.902,336.414,341.193,345.018,349.907,353.861,357.992,359.936,363.161,366.986,371.245,373.657,378.142,383.065,385.117,387.061,393.257,398.18,400.124,403.996,408.509,413.288,415.64,419.807,423.805,426.082,429.907,434.662,437.407,439.351,443.158,445.57,448.796,452.667,457.446,459.753,462.498,464.442,471.781,476.454,481.206,484.998,487.275,489.219,492.333,497.094,499.506,503.748,505.8" svgx:width="0.52,0.25,0.51,0.31,0.37,0.23,0.52,0.51,0.37,0.37,0.43,0.37,0.37,0.23,0.44,0.23,0.37,0.43,0.82,0.27,0.42,0.27,0.37,0.42,0.25,0.43,0.23,0.27,0.55,0.23,0.31,0.53,0.43,0.23,0.53,0.27,0.47,0.53,0.36,0.82,0.43,0.53,0.27,0.53,0.82,0.23,0.3,0.37,0.43,0.51,0.53,0.43,0.55,0.42,0.46,0.23,0.37,0.43,0.47,0.27,0.51,0.55,0.23,0.23,0.69,0.55,0.23,0.43,0.51,0.53,0.27,0.46,0.44,0.25,0.43,0.55,0.31,0.23,0.42,0.27,0.37,0.42,0.53,0.27,0.31,0.23,0.82,0.51,0.53,0.43,0.25,0.23,0.35,0.53,0.27,0.47,0.23,0.23" style="fill:rgb(0,0,0);font-family:MinionPro-Regular;font-size:9.0px;stroke:none;">plots possess a semicircle in the high-medium frequency region. An equivalent circuit model (Fig. </text>
   <text y="713.49" x="507.873,512.193" svgx:width="0.48,0.59" style="fill:rgb(0,0,255);font-family:MinionPro-Regular;font-size:9.0px;stroke:none;">7B</text>
   <text y="713.49" x="517.485,520.599,522.543,528.708,532.634,535.937,537.881,542.636,546.014,549.886,554.638" svgx:width="0.35,0.23,0.69,0.44,0.37,0.23,0.53,0.37,0.43,0.53,0.23" style="fill:rgb(0,0,0);font-family:MinionPro-Regular;font-size:9.0px;stroke:none;">) was used </text>
   <text y="723.489" x="155.649,158.232,162.714,166.053,167.943,172.65,175.305,178.094,180.506,185.357,189.569,191.459,194.258,199.028,202.853,204.743,209.396,211.673,216.164,218.909,222.212,224.102,226.856,230.078,234.56,241.931,243.821,246.62,251.39,255.215,257.105,262.217,268.202,272.963,274.853,278.66,282.449,284.771,287.048,288.938,293.59,297.415,299.998,304.48,307.702,311.527,313.417,317.368,321.427,325.18,327.457,329.869,334.719,338.958,341.01,342.9,349.128,353.898,357.723,360.945,364.77,366.66" svgx:width="0.3,0.51,0.37,0.23,0.54,0.31,0.31,0.27,0.55,0.47,0.23,0.31,0.53,0.43,0.23,0.52,0.25,0.51,0.31,0.37,0.23,0.3,0.37,0.51,0.82,0.23,0.31,0.53,0.43,0.23,0.57,0.67,0.53,0.23,0.42,0.43,0.25,0.25,0.23,0.51,0.43,0.3,0.51,0.37,0.43,0.23,0.42,0.46,0.42,0.25,0.27,0.55,0.47,0.23,0.23,0.69,0.53,0.43,0.37,0.43,0.23,0.62" style="fill:rgb(0,0,0);font-family:MinionPro-Regular;font-size:9.0px;stroke:none;">for fitting the plots from the ECF cell before cycling, where R</text>
   <text y="725.3" x="372.215" svgx:width="0.48" style="fill:rgb(0,0,0);font-family:MinionPro-Regular;font-size:5.85px;stroke:none;">1</text>
   <text y="723.5" x="375.023,376.913,379.298,382.601,384.491,387.29,392.06,395.885,397.775,400.187,404.939,407.63,411.455,414.848,419.744,423.74,426.017,427.907,431.282,435.107,438.499,440.911,444.736,448.039,449.929,453.151,456.976,460.279,462.664,465.922,468.721,472.591,477.478,481.285,485.11,487.0,491.482,494.146,496.036,498.835,503.605,507.43,509.32,513.127,516.916,519.238,521.461,523.513,525.403" svgx:width="0.23,0.27,0.37,0.23,0.31,0.53,0.43,0.23,0.27,0.55,0.31,0.43,0.37,0.55,0.44,0.25,0.23,0.37,0.43,0.37,0.27,0.43,0.37,0.23,0.37,0.43,0.37,0.27,0.37,0.31,0.44,0.55,0.42,0.43,0.23,0.51,0.3,0.23,0.31,0.53,0.43,0.23,0.42,0.43,0.25,0.25,0.23,0.23,0.62" style="fill:rgb(0,0,0);font-family:MinionPro-Regular;font-size:9.0px;stroke:none;"> is the internal series resistance of the cell, R</text>
   <text y="725.3" x="530.972" svgx:width="0.48" style="fill:rgb(0,0,0);font-family:MinionPro-Regular;font-size:5.85px;stroke:none;">2</text>
   <text y="723.5" x="533.78,535.67,538.055,541.358,543.248,546.047,550.817,554.642" svgx:width="0.23,0.27,0.37,0.23,0.31,0.53,0.43,0.23" style="fill:rgb(0,0,0);font-family:MinionPro-Regular;font-size:9.0px;stroke:none;"> is the </text>
   <text y="733.499" x="155.636,159.429,164.247,168.158,171.464,175.644,179.505,182.745,185.575,188.95,192.86,197.751,201.09,203.712,207.573,210.948,212.928,216.19,220.051,223.39,225.815,229.113,231.952,235.861,240.789,244.632,248.442,250.53,252.51" svgx:width="0.42,0.53,0.44,0.37,0.47,0.43,0.36,0.31,0.37,0.44,0.55,0.37,0.3,0.43,0.37,0.23,0.37,0.43,0.37,0.27,0.37,0.31,0.44,0.55,0.42,0.43,0.23,0.23,0.75" style="fill:rgb(0,0,0);font-family:MinionPro-Regular;font-size:9.0px;stroke:none;">charge-transfer resistance, Q</text>
   <text y="735.3" x="259.294" svgx:width="0.48" style="fill:rgb(0,0,0);font-family:MinionPro-Regular;font-size:5.85px;stroke:none;">2</text>
   <text y="733.5" x="262.128,264.108,266.532,269.871,271.851,274.69,279.499,283.36,285.34,289.183,293.705,298.596,301.893,304.733,308.642,313.434,316.215,318.195,322.888,327.706,331.671,335.085,338.946,340.926,344.755,347.068,350.929,358.303,362.164,366.956,369.737,371.717,376.239,378.939,380.919,383.757,388.567,392.428,394.408,398.236,400.549,404.459,408.369,411.198,414.46,419.171,423.959,427.82,430.835,434.664,436.977,440.887,444.796,447.626,450.887,455.455,457.708,461.875,464.606,468.467,470.447,472.895,477.687,480.418,484.279,487.712,490.412,494.399,498.242,502.052,504.14,506.12,510.03,514.957,519.745,521.725" svgx:width="0.23,0.27,0.37,0.23,0.31,0.53,0.43,0.23,0.42,0.51,0.55,0.37,0.31,0.44,0.55,0.31,0.23,0.52,0.53,0.44,0.37,0.43,0.23,0.43,0.25,0.43,0.82,0.43,0.55,0.31,0.23,0.51,0.3,0.23,0.31,0.53,0.43,0.23,0.43,0.25,0.43,0.42,0.31,0.37,0.51,0.53,0.43,0.33,0.43,0.25,0.43,0.42,0.31,0.37,0.51,0.25,0.46,0.31,0.43,0.23,0.27,0.55,0.31,0.43,0.37,0.3,0.44,0.42,0.43,0.23,0.23,0.44,0.55,0.53,0.23,0.97" style="fill:rgb(0,0,0);font-family:MinionPro-Regular;font-size:9.0px;stroke:none;"> is the constant phase element of the electrode/electrolyte interface, and W</text>
   <text y="735.3" x="530.602" svgx:width="0.48" style="fill:rgb(0,0,0);font-family:MinionPro-Regular;font-size:5.85px;stroke:none;">2</text>
   <text y="733.5" x="533.436,535.416,537.84,541.183,543.163,546.002,550.807,554.633" svgx:width="0.23,0.27,0.37,0.23,0.31,0.53,0.43,0.23" style="fill:rgb(0,0,0);font-family:MinionPro-Regular;font-size:9.0px;stroke:none;"> is the </text>
  </g>
  <rect style="stroke:blue;stroke-width:0.3;" x="155.638" y="64.138" height="286.56" width="396.0" title="6"/>
  <text y="64.138" class="image" id="image.6.1" width="396" height="286" x="155.638">image.6.1.156_552.64_351</text>
  <path style="fill:none;stroke:rgb(131,144,151);stroke-width:0.3;" d="M159.130 381.600 L552.640 381.600 "/>
  <path style="fill:none;stroke:rgb(131,144,151);stroke-width:1.0;" d="M156.140 381.600 L156.140 381.600 M554.140 381.600 L554.140 381.600 "/>
  <g begin="text">
   <text y="351.603" x="155.638,160.552,163.207,167.662,172.657,176.221,180.154,181.909,186.409" svgx:width="0.55,0.29,0.49,0.56,0.4,0.44,0.22,0.5,0.25" style="fill:rgb(0,0,0);font-family:MinionPro-Bold;font-size:9.0px;stroke:none;">Figure 6.</text>
   <text y="351.603" x="188.695,190.765,193.195,198.946,202.726,205.417,209.242,211.078,214.912,218.692,223.453,227.332,231.796,234.253,236.53,238.834,241.605,245.736,247.572,252.054,254.718,256.554,259.353,264.123,267.948,269.784,274.896,280.881,285.642,287.478,293.67,295.974,298.773,303.579,305.415,309.366,311.202,314.001,318.807,321.219,324.971,329.471,334.358,338.183,341.441,344.744,346.58,351.062,353.726,355.562,359.882,361.934,366.254,367.399,374.77,382.141,383.977" svgx:width="0.23,0.55,0.62,0.44,0.31,0.43,0.23,0.42,0.44,0.52,0.44,0.51,0.27,0.25,0.27,0.31,0.46,0.23,0.51,0.3,0.23,0.31,0.53,0.43,0.23,0.57,0.67,0.53,0.23,0.69,0.27,0.31,0.53,0.23,0.44,0.23,0.31,0.53,0.27,0.42,0.5,0.55,0.43,0.37,0.37,0.23,0.51,0.3,0.23,0.48,0.23,0.48,0.23,0.82,0.82,0.23,0.35" style="fill:rgb(0,0,0);font-family:MinionPro-Regular;font-size:9.0px;stroke:none;"> Rate capability of the ECF with a thickness of 2.8 mm (</text>
   <text y="351.603" x="387.091" svgx:width="0.71" style="fill:rgb(0,0,0);font-family:MinionPro-Bold;font-size:9.0px;stroke:none;">A</text>
   <text y="351.603" x="393.445,396.559,398.395,402.265,407.152,411.904,413.74,418.06,420.112,424.432,425.566,432.937,440.308,442.144" svgx:width="0.35,0.23,0.44,0.55,0.53,0.23,0.48,0.23,0.48,0.23,0.82,0.82,0.23,0.35" style="fill:rgb(0,0,0);font-family:MinionPro-Regular;font-size:9.0px;stroke:none;">) and 4.9 mm (</text>
   <text y="351.603" x="445.258" svgx:width="0.64" style="fill:rgb(0,0,0);font-family:MinionPro-Bold;font-size:9.0px;stroke:none;">B</text>
   <text y="351.603" x="450.991,454.105,455.941,460.108,463.978,467.578,471.736,474.148,478.999,483.211,485.047,488.916,493.695,497.088,500.31,504.135,508.887,511.632,513.468,518.22,522.045,526.896,530.199,532.502,535.292,537.704,541.529,544.832" svgx:width="0.35,0.23,0.46,0.44,0.37,0.46,0.27,0.55,0.47,0.23,0.42,0.53,0.37,0.37,0.43,0.55,0.31,0.23,0.53,0.43,0.55,0.37,0.27,0.31,0.27,0.43,0.37,0.23" style="fill:rgb(0,0,0);font-family:MinionPro-Regular;font-size:9.0px;stroke:none;">) varying current densities </text>
   <text y="361.602" x="155.638,158.392,161.614,166.096,173.467,175.303,179.623,181.675,185.995,190.315,192.151,194.842,199.432,201.268,205.588,206.722,212.941,215.92,220.132,222.184,224.02,228.16,232.903,237.475,240.849,244.719,249.228,254.007,257.832,262.584,265.329,267.165,271.115,275.174,278.927,281.204,283.616,288.467,292.679,294.515,297.206,301.031,304.289,307.034,310.337,312.173,316.655,319.319,321.155,323.954,328.724,332.549,334.385,339.497,345.482,350.243,352.079,355.868,358.145,362.015,365.885,368.675,371.897,376.567,381.319,385.144,388.447,390.283,396.475,398.779,401.578,406.384,408.22,411.018,415.824,418.236,421.99,426.49,431.376,435.202,438.46,441.763,443.599,448.081,450.745,452.581,456.901,458.953,463.273,464.428,471.799,479.17,481.006" svgx:width="0.3,0.37,0.51,0.82,0.23,0.48,0.23,0.48,0.48,0.23,0.31,0.51,0.23,0.48,0.23,0.69,0.33,0.47,0.23,0.23,0.47,0.53,0.51,0.37,0.43,0.51,0.53,0.43,0.55,0.31,0.23,0.42,0.46,0.42,0.25,0.27,0.55,0.47,0.23,0.31,0.43,0.37,0.31,0.37,0.23,0.51,0.3,0.23,0.31,0.53,0.43,0.23,0.57,0.67,0.53,0.23,0.43,0.25,0.43,0.42,0.31,0.37,0.51,0.53,0.43,0.37,0.23,0.69,0.27,0.31,0.53,0.23,0.31,0.53,0.27,0.42,0.5,0.55,0.43,0.37,0.37,0.23,0.51,0.3,0.23,0.48,0.23,0.48,0.23,0.82,0.82,0.23,0.35" style="fill:rgb(0,0,0);font-family:MinionPro-Regular;font-size:9.0px;stroke:none;">from 0.04 to 1 A/g; Subsequent cycling tests of the ECF electrodes with thickness of 2.8 mm (</text>
   <text y="361.602" x="484.12" svgx:width="0.68" style="fill:rgb(0,0,0);font-family:MinionPro-Bold;font-size:9.0px;stroke:none;">C</text>
   <text y="361.602" x="490.204,493.318,495.154,499.024,503.911,508.663,510.499,514.819,516.871,521.191,522.325,529.696,537.067,538.903" svgx:width="0.35,0.23,0.44,0.55,0.53,0.23,0.48,0.23,0.48,0.23,0.82,0.82,0.23,0.35" style="fill:rgb(0,0,0);font-family:MinionPro-Regular;font-size:9.0px;stroke:none;">) and 4.9 mm (</text>
   <text y="361.602" x="542.017" svgx:width="0.76" style="fill:rgb(0,0,0);font-family:MinionPro-Bold;font-size:9.0px;stroke:none;">D</text>
   <text y="361.602" x="548.866,551.98" svgx:width="0.35,0.23" style="fill:rgb(0,0,0);font-family:MinionPro-Regular;font-size:9.0px;stroke:none;">) </text>
   <text y="371.601" x="155.647,159.427,162.172,164.008,168.328,170.38,174.7,179.02,180.145,186.364,189.343,193.555,195.391,198.144,201.366,205.848,213.219,215.055,219.375" svgx:width="0.44,0.31,0.23,0.48,0.23,0.48,0.48,0.23,0.69,0.33,0.47,0.23,0.3,0.37,0.51,0.82,0.23,0.48,0.48" style="fill:rgb(0,0,0);font-family:MinionPro-Regular;font-size:9.0px;stroke:none;">at 0.04 A/g from 60</text>
   <text y="368.543" x="223.694,225.513" svgx:width="0.31,0.53" style="fill:rgb(0,0,0);font-family:MinionPro-Regular;font-size:5.85px;stroke:none;">th</text>
   <text y="371.603" x="228.637,230.473,233.164,237.754,239.59,243.91,248.23" svgx:width="0.23,0.31,0.51,0.23,0.48,0.48,0.48" style="fill:rgb(0,0,0);font-family:MinionPro-Regular;font-size:9.0px;stroke:none;"> to 190</text>
   <text y="368.543" x="252.555,254.375" svgx:width="0.31,0.53" style="fill:rgb(0,0,0);font-family:MinionPro-Regular;font-size:5.85px;stroke:none;">th</text>
   <text y="371.603" x="257.498,259.334,263.285,267.344,271.097,273.373,277.144" svgx:width="0.23,0.42,0.46,0.42,0.25,0.43,0.23" style="fill:rgb(0,0,0);font-family:MinionPro-Regular;font-size:9.0px;stroke:none;"> cycle.</text>
  </g>
 </g>
</svg>
