<?xml version="1.0" encoding="UTF-8"?>
<svg height="774.23" width="4165.638" xmlns="http://www.w3.org/2000/svg">
 <g id="page" xmlns:svgx="http://www.xml-cml.org/schema/svgx">
  <g begin="text">
   <text y="22.46" x="40.638,48.208,55.778,63.055,66.145,71.865,77.215,81.135,86.765,90.565,95.995,99.085,103.915,109.695,118.435,121.635,126.125,130.955,133.725,139.15,144.87,148.79,151.56,155.19,157.96,162.79,166.59,172.02,177.78,183.56,187.36,191.28,195.77" svgx:width="0.71,0.71,0.71,0.26,0.53,0.49,0.35,0.52,0.34,0.5,0.26,0.44,0.53,0.83,0.28,0.4,0.44,0.23,0.5,0.53,0.35,0.23,0.32,0.23,0.44,0.34,0.5,0.53,0.53,0.34,0.35,0.4,0.28" style="fill:rgb(255,255,255);font-family:Corbel;font-size:10.0px;stroke:none;">www.nature.com/scientificreports/</text>
  </g>
  <g begin="text">
   <text y="764.23" x="549.472" svgx:width="0.52" style="fill:rgb(131,144,151);font-family:Corbel;font-size:10.0px;stroke:none;">4</text>
  </g>
  <g begin="text">
   <text y="764.193" x="40.794,45.642,50.786,53.186,58.026,64.026,68.898,71.298,75.762,78.162" svgx:width="0.55,0.59,0.25,0.55,0.7,0.56,0.25,0.5,0.25,0.59" style="fill:rgb(131,144,151);font-family:Corbel;font-size:8.0px;stroke:none;">Scientific</text>
   <text y="764.193" x="83.162" svgx:width="0.2" style="fill:rgb(0,0,0);font-family:Corbel;font-size:8.0px;stroke:none;"> </text>
   <text y="764.193" x="84.762,90.218,95.194,100.434,106.738,112.194,117.186" svgx:width="0.63,0.57,0.6,0.73,0.63,0.57,0.58" style="fill:rgb(131,144,151);font-family:Corbel-Bold;font-size:8.0px;stroke:none;">RepoRts</text>
   <text y="764.193" x="122.082,123.524,125.34,126.781,130.885,132.997,137.101,141.205,145.309,149.413,153.517,154.945,156.761,158.203,163.571,169.411,171.379,173.491,174.93,179.034,183.138,185.25,189.354,193.458,197.562,201.666,203.866,207.098,209.778,213.762,218.01,222.114,226.218,230.322,234.426" svgx:width="0.2,0.23,0.2,0.51,0.26,0.51,0.51,0.51,0.51,0.51,0.2,0.23,0.2,0.67,0.73,0.25,0.26,0.2,0.51,0.51,0.26,0.51,0.51,0.51,0.51,0.28,0.4,0.34,0.5,0.53,0.51,0.51,0.51,0.51,0.51" style="fill:rgb(0,0,0);font-family:Corbel;font-size:8.0px;stroke:none;"> | 7:40927 | DOI: 10.1038/srep40927</text>
  </g>
  <path style="fill:none;stroke:rgb(0,0,0);stroke-width:1.0;" d="M40.640 752.550 L554.640 752.550 "/>
  <g begin="text">
   <text y="697.0" x="167.638,172.309,176.899,178.672,183.424,187.249,189.94,193.765,197.158,204.529,206.941,211.828,215.653,217.426,220.225,224.995,228.82,230.593,234.346,239.116,242.941,250.312,252.724,256.558,260.553,262.83,264.603,268.41,272.892,280.092,284.889,289.479,292.782,295.086,297.876,300.288,304.769,309.621,312.924,314.697,318.568,323.455,328.207,329.98,333.238,338.017,341.409,344.073,348.024,351.831,355.656,357.429,362.082,366.564,371.451,376.203,377.976,381.234,384.033,387.813,390.504,394.329,397.632,399.405,403.887,406.551,408.324,411.123,415.893,419.718,421.491,426.036,430.509,433.308,437.178,439.59,444.477,448.347,453.099,454.872,462.216,465.996,468.686,472.511,475.904,478.343,482.339,484.589,487.892,489.944,491.717,497.603,502.67,506.936,508.709,511.4,515.225,518.482,521.227,523.0,529.165,533.089,536.392,538.165,541.972,546.455,551.378" svgx:width="0.62,0.51,0.23,0.53,0.43,0.31,0.43,0.37,0.82,0.27,0.55,0.43,0.23,0.31,0.53,0.43,0.23,0.42,0.53,0.43,0.82,0.27,0.42,0.44,0.25,0.23,0.42,0.51,0.82,0.52,0.51,0.37,0.27,0.31,0.27,0.51,0.55,0.37,0.23,0.44,0.55,0.53,0.23,0.37,0.53,0.37,0.3,0.44,0.42,0.43,0.23,0.51,0.51,0.55,0.53,0.23,0.37,0.31,0.44,0.31,0.43,0.37,0.23,0.51,0.3,0.23,0.31,0.53,0.43,0.23,0.51,0.51,0.31,0.44,0.27,0.55,0.43,0.53,0.23,0.82,0.44,0.31,0.43,0.37,0.27,0.44,0.25,0.37,0.23,0.23,0.65,0.56,0.47,0.23,0.31,0.43,0.37,0.31,0.23,0.69,0.44,0.37,0.23,0.42,0.51,0.55,0.36" style="fill:rgb(0,0,0);font-family:MinionPro-Regular;font-size:9.0px;stroke:none;">To determine the chemical compositions and surface bond states of the obtained materials, XPS test was con-</text>
   <text y="706.999" x="155.641,160.327,165.151,169.064,171.797,175.708,180.505,182.494,187.018,191.986,193.975,196.815,201.627,205.497,207.486,210.751,214.621,219.27,222.534,226.404,229.821,233.691,238.485,241.325,245.148,247.98,250.37,254.508,258.378,260.367,265.818,268.275" svgx:width="0.53,0.53,0.42,0.31,0.43,0.53,0.23,0.51,0.55,0.23,0.31,0.53,0.43,0.23,0.37,0.43,0.52,0.37,0.43,0.37,0.43,0.55,0.31,0.44,0.31,0.27,0.46,0.43,0.23,0.62,0.27,0.75" style="fill:rgb(0,0,0);font-family:MinionPro-Regular;font-size:9.0px;stroke:none;">ducted on the representative TiO</text>
   <text y="708.8" x="275.0" svgx:width="0.48" style="fill:rgb(0,0,0);font-family:MinionPro-Regular;font-size:5.85px;stroke:none;">2</text>
   <text y="707.0" x="277.836,284.655,289.29" svgx:width="0.75,0.53,0.43" style="fill:rgb(0,0,0);font-family:MinionPro-Regular;font-size:9.0px;stroke:none;">@Fe</text>
   <text y="708.8" x="293.154" svgx:width="0.48" style="fill:rgb(0,0,0);font-family:MinionPro-Regular;font-size:5.85px;stroke:none;">2</text>
   <text y="707.0" x="295.989" svgx:width="0.75" style="fill:rgb(0,0,0);font-family:MinionPro-Regular;font-size:9.0px;stroke:none;">O</text>
   <text y="708.8" x="302.754" svgx:width="0.48" style="fill:rgb(0,0,0);font-family:MinionPro-Regular;font-size:5.85px;stroke:none;">3</text>
   <text y="707.0" x="305.59,308.839,313.204,317.569,321.934,323.923,327.322,331.234,338.476,343.171,345.493,349.306,351.403,353.392,358.051,361.315,365.839,373.255,375.244,379.24,381.229,387.463,389.92,394.717,398.587,400.576,403.876,408.7,412.342,416.48,420.418,424.594,426.583,429.999,433.876,437.788,442.756,444.745,447.202,452.17,454.159,458.965,461.422,465.703,467.8,469.786,474.151,478.147,480.244,482.233,487.072,490.993,495.031,499.54,502.888,504.877,509.4,512.109,514.098,520.128,522.117,526.482,527.539,530.887,532.984,534.973,541.741,543.73,548.095,549.247,552.595,554.647" svgx:width="0.36,0.48,0.48,0.48,0.23,0.37,0.44,0.82,0.52,0.25,0.43,0.23,0.23,0.53,0.37,0.51,0.82,0.23,0.44,0.23,0.69,0.27,0.53,0.43,0.23,0.37,0.53,0.37,0.46,0.43,0.46,0.23,0.37,0.42,0.44,0.55,0.23,0.27,0.55,0.23,0.53,0.27,0.47,0.23,0.23,0.48,0.44,0.23,0.23,0.52,0.43,0.44,0.5,0.37,0.23,0.51,0.3,0.23,0.67,0.23,0.48,0.23,0.37,0.23,0.23,0.75,0.23,0.48,0.23,0.37,0.23,0.23" style="fill:rgb(0,0,0);font-family:MinionPro-Regular;font-size:9.0px;stroke:none;">-600 sample. From a wide survey scan in Fig. 4a, peaks of C 1 s, O 1 s, </text>
   <text y="716.999" x="155.641,161.074,163.513,165.475,169.822,174.565,176.527,180.421,185.333,190.113,192.075,196.689,200.541,202.503,206.85,211.593,213.555,219.672,223.524,226.77,230.622,232.584,237.363,241.215,243.931,247.825,251.719,254.435,258.329,263.052,265.131,267.093,273.346,278.179,280.618,284.396,289.229,291.191,293.6,296.93,298.892,302.87,306.704,310.538,315.045,318.291,323.095,326.989,331.901,335.735,339.587,341.549,347.766,350.095,352.918,357.751,359.713,362.536,367.331,371.183,373.145,378.284,384.926,389.219,391.181,398.54,402.443,406.392,409.675,414.481,417.727,421.579,428.938,432.79,437.567,440.339,442.301,445.442,450.23,452.669,456.908,461.714,464.961,468.813,470.775,475.068,479.415,482.556,484.635,486.597,496.224,500.076,502.038,508.05,512.397,515.727,517.689,522.51,526.414,530.434,534.925,536.887,541.393,544.811,547.25,551.489" svgx:width="0.62,0.27,0.23,0.48,0.52,0.23,0.44,0.55,0.53,0.23,0.53,0.43,0.23,0.48,0.52,0.23,0.69,0.43,0.37,0.43,0.23,0.53,0.43,0.31,0.43,0.42,0.31,0.43,0.53,0.23,0.23,0.69,0.53,0.27,0.42,0.53,0.23,0.27,0.37,0.23,0.44,0.42,0.42,0.51,0.37,0.53,0.44,0.55,0.42,0.43,0.23,0.69,0.27,0.31,0.53,0.23,0.31,0.53,0.43,0.23,0.57,0.74,0.47,0.23,0.82,0.43,0.44,0.37,0.53,0.37,0.43,0.82,0.43,0.55,0.31,0.23,0.35,0.53,0.27,0.47,0.53,0.37,0.43,0.23,0.47,0.48,0.35,0.23,0.23,1.07,0.43,0.23,0.67,0.48,0.37,0.23,0.52,0.43,0.44,0.5,0.23,0.51,0.37,0.27,0.47,0.36" style="fill:rgb(0,0,0);font-family:MinionPro-Regular;font-size:9.0px;stroke:none;">Ti 2p and Fe 2p were detected, which is accordance with the EDS measurement (Figure S3). The C1s peak orig-</text>
   <text y="726.998" x="155.641,158.062,162.968,166.759,169.462,173.296,176.608,178.561,181.326,184.559,189.052,196.432,198.385,202.345,207.045,211.151,214.985,219.748,222.548,224.863,227.665,230.086,234.589,239.351,242.663,244.616,248.461,252.342,255.69,260.354,264.847" svgx:width="0.27,0.55,0.44,0.31,0.43,0.37,0.23,0.3,0.37,0.51,0.82,0.23,0.44,0.53,0.46,0.43,0.55,0.31,0.27,0.31,0.27,0.51,0.53,0.37,0.23,0.42,0.44,0.37,0.51,0.51,0.55" style="fill:rgb(0,0,0);font-family:MinionPro-Regular;font-size:9.0px;stroke:none;">inates from adventitious carbon</text>
   <text y="723.94" x="269.792,272.606" svgx:width="0.48,0.48" style="fill:rgb(0,0,0);font-family:MinionPro-Regular;font-size:5.85px;stroke:none;">25</text>
   <text y="727.0" x="275.422,277.483,279.436,286.197,288.618,292.904,297.719,299.672,302.904,306.738,310.124,314.662,316.842,321.525,324.325,326.746,331.239,336.171,338.124,341.393,346.201,350.082,353.962,356.763,360.203,364.991,372.371,374.324,378.818,381.491,383.444,388.045,391.879,393.832,398.161,402.887,404.84,407.235,410.547,412.5,416.316,420.809,428.02,432.639,436.043,438.438,441.825,445.705,450.466,452.419,456.912,459.585,461.538,464.321,470.424,475.023,476.976,481.737,484.133,487.403,490.204,492.625,497.522,501.403,504.157,506.11,510.917,514.807,518.815,523.288,526.6,528.553,532.434,535.667,540.169,544.957,549.855,554.607" svgx:width="0.23,0.23,0.77,0.27,0.47,0.53,0.23,0.37,0.43,0.37,0.51,0.25,0.53,0.31,0.27,0.51,0.55,0.23,0.37,0.52,0.43,0.42,0.31,0.37,0.53,0.82,0.23,0.51,0.3,0.23,0.53,0.43,0.23,0.48,0.52,0.23,0.27,0.37,0.23,0.42,0.51,0.82,0.52,0.37,0.27,0.37,0.43,0.53,0.23,0.51,0.3,0.23,0.31,0.69,0.51,0.23,0.53,0.27,0.37,0.31,0.27,0.55,0.42,0.31,0.23,0.52,0.43,0.44,0.5,0.37,0.23,0.44,0.37,0.51,0.53,0.55,0.53,0.23" style="fill:rgb(0,0,0);font-family:MinionPro-Regular;font-size:9.0px;stroke:none;">. High resolution spectrum of Fe 2p is comprised of two distinct peaks around </text>
  </g>
  <rect style="stroke:blue;stroke-width:0.3;" x="155.638" y="64.138" height="575.04" width="396.0" title="4"/>
  <text y="64.138" class="image" id="image.4.1" width="396" height="575" x="155.638">image.4.1.156_552.64_639</text>
  <path style="fill:none;stroke:rgb(131,144,151);stroke-width:0.3;" d="M159.130 670.080 L552.640 670.080 "/>
  <path style="fill:none;stroke:rgb(131,144,151);stroke-width:1.0;" d="M156.140 670.080 L156.140 670.080 M554.140 670.080 L554.140 670.080 "/>
  <g begin="text">
   <text y="640.083" x="155.638,160.552,163.207,167.662,172.657,176.221,180.154,181.909,186.409" svgx:width="0.55,0.29,0.49,0.56,0.4,0.44,0.22,0.5,0.25" style="fill:rgb(0,0,0);font-family:MinionPro-Bold;font-size:9.0px;stroke:none;">Figure 3.</text>
   <text y="640.083" x="188.695,190.765,193.195" svgx:width="0.23,0.55,0.35" style="fill:rgb(0,0,0);font-family:MinionPro-Regular;font-size:9.0px;stroke:none;"> (</text>
   <text y="640.083" x="196.309" svgx:width="0.47" style="fill:rgb(0,0,0);font-family:MinionPro-Bold;font-size:9.0px;stroke:none;">a</text>
   <text y="640.083" x="200.503,203.617,205.453,209.845,213.598,218.368,222.193,229.537,233.317,236.107,238.519,242.326,244.162,248.914,251.353,255.259,259.516,262.855,266.725,274.096,275.932,280.413,283.077,284.913,288.783,293.706,295.542,297.954,302.841,307.593,309.942,314.136,316.548,321.192,325.998,329.994,332.271,334.107,339.516,341.928" svgx:width="0.35,0.23,0.47,0.42,0.53,0.43,0.82,0.44,0.31,0.27,0.42,0.23,0.53,0.27,0.44,0.47,0.37,0.44,0.82,0.23,0.51,0.3,0.23,0.44,0.55,0.23,0.27,0.55,0.53,0.27,0.46,0.27,0.53,0.53,0.44,0.25,0.23,0.62,0.27,0.75" style="fill:rgb(0,0,0);font-family:MinionPro-Regular;font-size:9.0px;stroke:none;">) Schematic diagram of an individual TiO</text>
   <text y="641.883" x="348.668" svgx:width="0.48" style="fill:rgb(0,0,0);font-family:MinionPro-Regular;font-size:5.85px;stroke:none;">2</text>
   <text y="640.083" x="351.476,358.253,362.843" svgx:width="0.75,0.53,0.43" style="fill:rgb(0,0,0);font-family:MinionPro-Regular;font-size:9.0px;stroke:none;">@Fe</text>
   <text y="641.883" x="366.667" svgx:width="0.48" style="fill:rgb(0,0,0);font-family:MinionPro-Regular;font-size:5.85px;stroke:none;">2</text>
   <text y="640.083" x="369.475" svgx:width="0.75" style="fill:rgb(0,0,0);font-family:MinionPro-Regular;font-size:9.0px;stroke:none;">O</text>
   <text y="641.883" x="376.198" svgx:width="0.48" style="fill:rgb(0,0,0);font-family:MinionPro-Regular;font-size:5.85px;stroke:none;">3</text>
   <text y="640.083" x="379.006,382.21,386.53,390.85,395.17,397.006,401.903,405.773,410.66,415.151,417.806,422.549,427.202,430.972,433.024,434.86" svgx:width="0.36,0.48,0.48,0.48,0.23,0.55,0.44,0.55,0.51,0.31,0.53,0.51,0.43,0.23,0.23,0.35" style="fill:rgb(0,0,0);font-family:MinionPro-Regular;font-size:9.0px;stroke:none;">-600 nanotube. (</text>
   <text y="640.083" x="437.974" svgx:width="0.53" style="fill:rgb(0,0,0);font-family:MinionPro-Bold;font-size:9.0px;stroke:none;">b</text>
   <text y="640.083" x="442.78,445.894,447.73,453.283,458.395,466.414,468.25,470.662,478.005,481.911,486.051,489.876,491.712,495.582,500.469,505.221,507.057" svgx:width="0.35,0.23,0.62,0.57,0.89,0.23,0.27,0.82,0.44,0.47,0.43,0.23,0.44,0.55,0.53,0.23,0.35" style="fill:rgb(0,0,0);font-family:MinionPro-Regular;font-size:9.0px;stroke:none;">) TEM image and (</text>
   <text y="640.083" x="510.171" svgx:width="0.42" style="fill:rgb(0,0,0);font-family:MinionPro-Bold;font-size:9.0px;stroke:none;">c</text>
   <text y="640.083" x="513.969,517.083,518.919,523.725,526.137,530.412,535.218" svgx:width="0.35,0.23,0.53,0.27,0.47,0.53,0.23" style="fill:rgb(0,0,0);font-family:MinionPro-Regular;font-size:9.0px;stroke:none;">) high </text>
   <text y="650.082" x="155.635,158.857,162.682,166.057,170.584,172.753,177.424,180.214,182.626,187.108,192.031,193.867,196.279,203.623,207.529,211.669,215.494,217.33,220.129,224.125,228.508,232.333,237.256,239.092,241.846,245.068,249.55,256.921,258.757,261.556,266.326,270.151,271.987,274.74,278.133,280.545,285.396,289.536,293.361,295.197,299.679,302.343,304.179,308.13,309.966,312.738,316.869,321.477,323.889,327.723,331.719,333.996,335.832,340.728,344.599,349.486,353.977,356.632,361.375,366.027,369.798,371.85,373.686,377.556,382.443,387.195,389.031" svgx:width="0.37,0.43,0.37,0.51,0.25,0.53,0.31,0.27,0.51,0.55,0.23,0.27,0.82,0.44,0.47,0.43,0.23,0.31,0.44,0.5,0.43,0.55,0.23,0.3,0.37,0.51,0.82,0.23,0.31,0.53,0.43,0.23,0.3,0.37,0.27,0.55,0.47,0.43,0.23,0.51,0.3,0.23,0.44,0.23,0.31,0.46,0.52,0.27,0.42,0.44,0.25,0.23,0.55,0.44,0.55,0.51,0.31,0.53,0.51,0.43,0.23,0.23,0.44,0.55,0.53,0.23,0.35" style="fill:rgb(0,0,0);font-family:MinionPro-Regular;font-size:9.0px;stroke:none;">resolution image taken from the fringe of a typical nanotube, and (</text>
   <text y="650.082" x="392.145" svgx:width="0.55" style="fill:rgb(0,0,0);font-family:MinionPro-Bold;font-size:9.0px;stroke:none;">d</text>
   <text y="650.082" x="397.068,400.182,402.018,405.825,410.307,413.699,416.921,420.746,424.004,428.801,433.283,438.17,442.922,445.334,450.185,454.397,456.233,460.499,466.718,471.83,478.445,480.281,485.042,488.822,491.477,494.168,497.993,501.386,506.237,509.54,511.592,513.428" svgx:width="0.35,0.23,0.42,0.51,0.37,0.37,0.43,0.37,0.52,0.51,0.55,0.53,0.27,0.55,0.47,0.23,0.47,0.69,0.57,0.74,0.23,0.52,0.44,0.31,0.31,0.43,0.37,0.55,0.37,0.23,0.23,0.23" style="fill:rgb(0,0,0);font-family:MinionPro-Regular;font-size:9.0px;stroke:none;">) corresponding SAED patterns. </text>
   <text y="660.081" x="155.635" svgx:width="0.35" style="fill:rgb(0,0,0);font-family:MinionPro-Regular;font-size:9.0px;stroke:none;">(</text>
   <text y="660.081" x="158.749" svgx:width="0.44" style="fill:rgb(0,0,0);font-family:MinionPro-Bold;font-size:9.0px;stroke:none;">e</text>
   <text y="660.081" x="162.682,165.796,167.632,174.301,178.171,181.474,185.938,189.142,194.002,196.279,200.149,204.901,206.737,212.29,217.402,225.421,227.257,229.669,237.013,240.919,245.059,248.884,250.72,255.202,257.866,259.702,263.653,265.489,268.792,271.204,276.055,280.33,282.607,286.432,288.268,293.677,296.089" svgx:width="0.35,0.23,0.74,0.44,0.37,0.5,0.36,0.54,0.25,0.43,0.53,0.23,0.62,0.57,0.89,0.23,0.27,0.82,0.44,0.47,0.43,0.23,0.51,0.3,0.23,0.44,0.23,0.37,0.27,0.55,0.47,0.25,0.43,0.23,0.62,0.27,0.75" style="fill:rgb(0,0,0);font-family:MinionPro-Regular;font-size:9.0px;stroke:none;">) Dark-filed TEM image of a single TiO</text>
   <text y="661.883" x="302.831" svgx:width="0.48" style="fill:rgb(0,0,0);font-family:MinionPro-Regular;font-size:5.85px;stroke:none;">2</text>
   <text y="660.083" x="305.639,312.416,317.006" svgx:width="0.75,0.53,0.43" style="fill:rgb(0,0,0);font-family:MinionPro-Regular;font-size:9.0px;stroke:none;">@Fe</text>
   <text y="661.883" x="320.831" svgx:width="0.48" style="fill:rgb(0,0,0);font-family:MinionPro-Regular;font-size:5.85px;stroke:none;">2</text>
   <text y="660.083" x="323.639" svgx:width="0.75" style="fill:rgb(0,0,0);font-family:MinionPro-Regular;font-size:9.0px;stroke:none;">O</text>
   <text y="661.883" x="330.362" svgx:width="0.48" style="fill:rgb(0,0,0);font-family:MinionPro-Regular;font-size:5.85px;stroke:none;">3</text>
   <text y="660.083" x="333.17,335.006,339.902,343.772,348.659,353.15,355.805,360.548,365.201,369.026,370.862,374.732,379.619,384.371,386.207,389.006,393.776,397.601,399.437,403.226,405.503,409.328,416.663,420.488,425.24,427.985,429.821,437.165,440.945,445.562,450.17,452.582,457.433,461.645,463.481" svgx:width="0.23,0.55,0.44,0.55,0.51,0.31,0.53,0.51,0.43,0.23,0.44,0.55,0.53,0.23,0.31,0.53,0.43,0.23,0.43,0.25,0.43,0.82,0.43,0.55,0.31,0.23,0.82,0.44,0.52,0.52,0.27,0.55,0.47,0.23,0.35" style="fill:rgb(0,0,0);font-family:MinionPro-Regular;font-size:9.0px;stroke:none;"> nanotube and the element mapping (</text>
   <text y="660.083" x="466.595" svgx:width="0.33" style="fill:rgb(0,0,0);font-family:MinionPro-Bold;font-size:9.0px;stroke:none;">f</text>
   <text y="660.083" x="469.574" svgx:width="0.52" style="fill:rgb(0,0,0);font-family:MinionPro-Regular;font-size:9.0px;stroke:none;">–</text>
   <text y="660.083" x="474.254" svgx:width="0.29" style="fill:rgb(0,0,0);font-family:MinionPro-Bold;font-size:9.0px;stroke:none;">i</text>
   <text y="660.083" x="476.909,480.023" svgx:width="0.35,0.23" style="fill:rgb(0,0,0);font-family:MinionPro-Regular;font-size:9.0px;stroke:none;">).</text>
  </g>
 </g>
</svg>
