<?xml version="1.0" encoding="UTF-8"?>
<svg height="774.23" width="4165.638" xmlns="http://www.w3.org/2000/svg">
 <g id="page" xmlns:svgx="http://www.xml-cml.org/schema/svgx">
  <g begin="text">
   <text y="22.46" x="40.638,48.208,55.778,63.055,66.145,71.865,77.215,81.135,86.765,90.565,95.995,99.085,103.915,109.695,118.435,121.635,126.125,130.955,133.725,139.15,144.87,148.79,151.56,155.19,157.96,162.79,166.59,172.02,177.78,183.56,187.36,191.28,195.77" svgx:width="0.71,0.71,0.71,0.26,0.53,0.49,0.35,0.52,0.34,0.5,0.26,0.44,0.53,0.83,0.28,0.4,0.44,0.23,0.5,0.53,0.35,0.23,0.32,0.23,0.44,0.34,0.5,0.53,0.53,0.34,0.35,0.4,0.28" style="fill:rgb(255,255,255);font-family:Corbel;font-size:10.0px;stroke:none;">www.nature.com/scientificreports/</text>
  </g>
  <g begin="text">
   <text y="764.23" x="550.106" svgx:width="0.45" style="fill:rgb(131,144,151);font-family:Corbel;font-size:10.0px;stroke:none;">3</text>
  </g>
  <g begin="text">
   <text y="764.193" x="40.794,45.642,50.786,53.186,58.026,64.026,68.898,71.298,75.762,78.162" svgx:width="0.55,0.59,0.25,0.55,0.7,0.56,0.25,0.5,0.25,0.59" style="fill:rgb(131,144,151);font-family:Corbel;font-size:8.0px;stroke:none;">Scientific</text>
   <text y="764.193" x="83.162" svgx:width="0.2" style="fill:rgb(0,0,0);font-family:Corbel;font-size:8.0px;stroke:none;"> </text>
   <text y="764.193" x="84.762,90.218,95.194,100.434,106.738,112.194,117.186" svgx:width="0.63,0.57,0.6,0.73,0.63,0.57,0.58" style="fill:rgb(131,144,151);font-family:Corbel-Bold;font-size:8.0px;stroke:none;">RepoRts</text>
   <text y="764.193" x="122.082,123.524,125.34,126.781,130.885,132.997,137.102,141.206,145.31,149.414,153.518,154.946,156.762,158.203,163.571,169.411,171.379,173.491,174.93,179.034,183.138,185.25,189.354,193.458,197.562,201.666,203.866,207.098,209.778,213.762,218.01,222.114,226.218,230.322,234.426" svgx:width="0.2,0.23,0.2,0.51,0.26,0.51,0.51,0.51,0.51,0.51,0.2,0.23,0.2,0.67,0.73,0.25,0.26,0.2,0.51,0.51,0.26,0.51,0.51,0.51,0.51,0.28,0.4,0.34,0.5,0.53,0.51,0.51,0.51,0.51,0.51" style="fill:rgb(0,0,0);font-family:Corbel;font-size:8.0px;stroke:none;"> | 7:40927 | DOI: 10.1038/srep40927</text>
  </g>
  <path style="fill:none;stroke:rgb(0,0,0);stroke-width:1.0;" d="M40.640 752.550 L554.640 752.550 "/>
  <g begin="text">
   <text y="392.5" x="155.638,159.472,162.175,165.939,170.754,173.175,178.038,182.259,184.212,188.705,191.378,193.331,199.462" svgx:width="0.43,0.31,0.42,0.53,0.27,0.55,0.47,0.23,0.51,0.3,0.23,0.67,0.51" style="fill:rgb(0,0,0);font-family:MinionPro-Regular;font-size:9.0px;stroke:none;">etching of Co</text>
   <text y="394.3" x="204.073" svgx:width="0.48" style="fill:rgb(0,0,0);font-family:MinionPro-Regular;font-size:5.85px;stroke:none;">2</text>
   <text y="392.5" x="206.888,210.011,216.664,223.567" svgx:width="0.35,0.75,0.77,0.35" style="fill:rgb(0,0,0);font-family:MinionPro-Regular;font-size:9.0px;stroke:none;">(OH)</text>
   <text y="394.3" x="226.698" svgx:width="0.48" style="fill:rgb(0,0,0);font-family:MinionPro-Regular;font-size:5.85px;stroke:none;">2</text>
   <text y="392.5" x="229.513,235.57" svgx:width="0.67,0.75" style="fill:rgb(0,0,0);font-family:MinionPro-Regular;font-size:9.0px;stroke:none;">CO</text>
   <text y="394.3" x="242.307" svgx:width="0.48" style="fill:rgb(0,0,0);font-family:MinionPro-Regular;font-size:5.85px;stroke:none;">3</text>
   <text y="392.5" x="245.122,247.075,249.778,253.612,260.823,265.487,267.802,271.594,274.297,278.131,281.443,283.504,285.457,290.227,292.648,297.555,301.562,303.896,306.121,309.606,311.667,313.62,317.501,322.433,324.386,328.888,333.571,336.372,343.718,348.317,351.587,354.341,356.294,358.61,362.409,366.48,370.314,373.662,375.615,380.109,382.782,384.735,389.337" svgx:width="0.23,0.31,0.43,0.82,0.52,0.25,0.44,0.31,0.43,0.37,0.23,0.23,0.53,0.27,0.55,0.44,0.25,0.25,0.46,0.23,0.23,0.44,0.55,0.23,0.51,0.53,0.31,0.82,0.51,0.37,0.31,0.23,0.25,0.44,0.46,0.43,0.37,0.23,0.51,0.3,0.23,0.53,0.43" style="fill:rgb(0,0,0);font-family:MinionPro-Regular;font-size:9.0px;stroke:none;"> templates. Finally, an outmost layer of Fe</text>
   <text y="394.3" x="393.197" svgx:width="0.48" style="fill:rgb(0,0,0);font-family:MinionPro-Regular;font-size:5.85px;stroke:none;">2</text>
   <text y="392.5" x="396.012" svgx:width="0.75" style="fill:rgb(0,0,0);font-family:MinionPro-Regular;font-size:9.0px;stroke:none;">O</text>
   <text y="394.3" x="402.746" svgx:width="0.48" style="fill:rgb(0,0,0);font-family:MinionPro-Regular;font-size:5.85px;stroke:none;">3</text>
   <text y="392.5" x="405.562,407.515,413.689,417.624,420.936,422.889,427.677,432.609,435.03,437.624,442.117,445.522,452.949,455.174,459.314,461.267,465.535,468.768,473.226,479.429,484.361,486.314,488.735,493.498,496.3,498.721,506.076,509.867,512.57,516.37,518.596,522.736,524.689,529.182,533.946,536.648,541.247,543.2,546.01,550.791,554.616" svgx:width="0.23,0.69,0.44,0.37,0.23,0.53,0.55,0.27,0.3,0.51,0.37,0.82,0.25,0.46,0.23,0.47,0.37,0.51,0.69,0.55,0.23,0.27,0.55,0.31,0.27,0.82,0.44,0.31,0.43,0.25,0.46,0.23,0.51,0.55,0.31,0.51,0.23,0.31,0.53,0.43,0.23" style="fill:rgb(0,0,0);font-family:MinionPro-Regular;font-size:9.0px;stroke:none;"> was uniformly grown intimately onto the </text>
   <text y="402.499" x="155.641,160.447,164.994,169.792,174.357,176.688,180.567,183.825,187.182,189.648,194.454,198.333,200.367,204.905,207.623,209.657,215.122,217.588" svgx:width="0.53,0.51,0.53,0.51,0.25,0.43,0.36,0.37,0.27,0.53,0.43,0.23,0.51,0.3,0.23,0.62,0.27,0.75" style="fill:rgb(0,0,0);font-family:MinionPro-Regular;font-size:9.0px;stroke:none;">double-side of TiO</text>
   <text y="404.3" x="224.379" svgx:width="0.48" style="fill:rgb(0,0,0);font-family:MinionPro-Regular;font-size:5.85px;stroke:none;">2</text>
   <text y="402.5" x="227.223,229.257,234.209,238.135,243.078,247.625,250.335,255.134,259.842,263.721,265.755,269.681,272.959,276.767,281.627,283.987,286.733,290.659,294.585,297.296,302.129,305.407,309.286,312.643,314.677,320.925,323.285,326.139,330.999,333.033,335.888,340.748,343.214,347.021,351.577,356.52,360.399,363.713,367.07,369.104,372.272,379.672,383.651,386.965,390.322,393.49,395.524,399.385,403.923,408.73,411.576,414.853,419.436,421.814,424.174,428.109,432.674,435.005,438.884,440.918,444.275,448.488,453.296,456.15,460.976,464.855,468.212,470.653,474.01,476.044,480.706,483.984,487.91,491.771,494.212,497.643,501.487,503.756,507.941,509.975,513.253,517.132,521.398,526.278,528.637,532.473,535.22,539.145,543.951,545.985,550.468,554.6" svgx:width="0.23,0.55,0.44,0.55,0.51,0.31,0.53,0.51,0.43,0.23,0.44,0.37,0.42,0.53,0.27,0.31,0.43,0.42,0.31,0.53,0.37,0.43,0.37,0.23,0.69,0.27,0.31,0.53,0.23,0.31,0.53,0.27,0.42,0.5,0.55,0.43,0.37,0.37,0.23,0.35,0.82,0.44,0.37,0.37,0.35,0.23,0.42,0.51,0.55,0.31,0.37,0.51,0.25,0.25,0.44,0.51,0.25,0.43,0.23,0.37,0.46,0.55,0.31,0.53,0.43,0.37,0.27,0.37,0.23,0.52,0.37,0.43,0.42,0.27,0.37,0.43,0.25,0.46,0.23,0.37,0.43,0.47,0.53,0.25,0.44,0.31,0.43,0.53,0.23,0.51,0.46,0.23" style="fill:rgb(0,0,0);font-family:MinionPro-Regular;font-size:9.0px;stroke:none;"> nanotube architectures with thickness (mass) controllable synthesis precisely regulated by </text>
   <text y="412.499" x="155.637,161.856,166.698,173.313,175.149,179.099,183.158,186.911,189.188,193.013,196.316" svgx:width="0.69,0.54,0.74,0.23,0.42,0.46,0.42,0.25,0.43,0.37,0.23" style="fill:rgb(0,0,0);font-family:MinionPro-Regular;font-size:9.0px;stroke:none;">ALD cycles.</text>
   <text y="422.498" x="167.634,177.241,181.066,183.01,187.459,191.557,195.382,198.721,202.72,205.045,207.322,209.266,213.073,216.676,220.807,224.068,226.87,230.869,233.146,235.09,238.351,241.144,244.576,249.355,253.229,255.886,260.665,263.89,267.715,269.659,273.532,278.422,283.174,285.118,289.775,294.558,298.484,301.863,305.688,307.632,312.252,317.031,320.426,322.734,325.509,329.64,331.584,336.068,338.732,340.676,343.478,348.284,351.509,355.382,359.207,361.151,364.512,368.385,375.588,380.244,382.521,386.346,389.649,391.593,397.689,401.514,404.738,408.563,410.507,414.263,419.046,422.918,426.257,430.208,434.082,436.776,440.601,443.996,446.408,450.188,454.061,458.813,460.757,465.188,469.319,471.263,477.149,482.738,488.996,491.048,492.992,497.206,501.98,506.428,512.624,517.547,519.491,521.903,526.826,528.77,533.531,535.943,540.185,542.237,544.182,548.502,552.453,554.505" svgx:width="1.07,0.43,0.23,0.51,0.46,0.43,0.37,0.44,0.25,0.25,0.23,0.42,0.37,0.46,0.37,0.31,0.44,0.25,0.23,0.37,0.31,0.37,0.53,0.42,0.31,0.53,0.37,0.43,0.23,0.44,0.55,0.53,0.23,0.52,0.53,0.44,0.37,0.43,0.23,0.52,0.53,0.37,0.27,0.31,0.46,0.23,0.51,0.3,0.23,0.31,0.53,0.37,0.43,0.43,0.23,0.37,0.44,0.82,0.52,0.25,0.43,0.37,0.23,0.69,0.43,0.37,0.43,0.23,0.42,0.53,0.44,0.37,0.44,0.42,0.31,0.43,0.37,0.27,0.42,0.43,0.53,0.23,0.51,0.46,0.23,0.65,0.62,0.74,0.23,0.23,0.47,0.53,0.51,0.69,0.55,0.23,0.27,0.55,0.23,0.53,0.27,0.47,0.23,0.23,0.48,0.44,0.23,0.23" style="fill:rgb(0,0,0);font-family:MinionPro-Regular;font-size:9.0px;stroke:none;">The overall crystal structure and phase purity of three samples were characterized by XRD. Shown in Fig. 2a, </text>
   <text y="432.497" x="155.637,157.941,160.686,162.441,164.826,168.129,169.884,173.637,175.914,179.792,183.662,187.001,188.756,191.555,196.334,200.114,202.859,204.614,209.096,213.983,217.808,219.563,222.938,226.763,229.508,231.263,235.745,238.409,240.164,244.916,247.328,252.467,255.806,259.757,263.627,266.417,268.829,273.311,278.234,279.989,284.785,288.664,292.66,297.124,300.427,302.182,304.459,309.129,312.963,316.743,319.434,323.304,328.056,329.811,333.591,336.336,338.091,342.411,346.731,348.783,353.103,356.19,358.242,359.992,364.312,368.632,370.684,375.004,378.091,380.143,381.898,386.218,390.538,392.59,396.91,399.997,402.049,403.804,408.124,412.444,414.496,418.816,421.903,423.658,427.528,432.415,437.167,438.922,443.242,447.563,449.615,453.935,457.022,458.777,462.584,467.066,470.458,473.68,477.505,480.763,485.56,490.042,494.929,499.681,501.436,504.128,508.717,510.473,513.586,517.906,522.227,526.547,529.661,531.713,533.468,536.582,540.902,545.222,549.542,552.656,554.708" svgx:width="0.27,0.31,0.23,0.27,0.37,0.23,0.42,0.25,0.43,0.44,0.37,0.23,0.31,0.53,0.44,0.31,0.23,0.51,0.55,0.43,0.23,0.37,0.43,0.31,0.23,0.51,0.3,0.23,0.53,0.27,0.56,0.37,0.44,0.42,0.31,0.27,0.51,0.55,0.23,0.52,0.43,0.44,0.5,0.37,0.23,0.25,0.51,0.42,0.44,0.31,0.43,0.53,0.23,0.44,0.31,0.23,0.48,0.48,0.23,0.48,0.34,0.23,0.23,0.48,0.48,0.23,0.48,0.34,0.23,0.23,0.48,0.48,0.23,0.48,0.34,0.23,0.23,0.48,0.48,0.23,0.48,0.34,0.23,0.44,0.55,0.53,0.23,0.48,0.48,0.23,0.48,0.34,0.23,0.42,0.51,0.37,0.37,0.43,0.37,0.52,0.51,0.55,0.53,0.23,0.31,0.51,0.23,0.35,0.48,0.48,0.48,0.35,0.23,0.23,0.35,0.48,0.48,0.48,0.35,0.23,0.23" style="fill:rgb(0,0,0);font-family:MinionPro-Regular;font-size:9.0px;stroke:none;">it is clear that one set of diffraction peaks located at 25.2°, 38.5°, 48.0°, 55.0° and 82.6° correspond to (101), (112), </text>
   <text y="442.496" x="155.637,158.792,163.151,167.512,171.872,175.026,177.118,179.098,182.252,186.613,190.972,195.333,198.486,200.466,204.377,209.304,214.096,216.076,219.23,223.591,227.951,232.311,235.465,237.445,242.138,244.482,248.392,253.32,257.184,260.528,262.508,267.03,269.734,271.714,275.624,280.561,284.381,287.22,291.184,294.599,298.465,300.445,305.894,308.347" svgx:width="0.35,0.48,0.48,0.48,0.35,0.23,0.23,0.35,0.48,0.48,0.48,0.35,0.23,0.44,0.55,0.53,0.23,0.35,0.48,0.48,0.48,0.35,0.23,0.52,0.25,0.44,0.55,0.43,0.37,0.23,0.51,0.3,0.23,0.44,0.55,0.44,0.31,0.44,0.37,0.43,0.23,0.62,0.27,0.75" style="fill:rgb(0,0,0);font-family:MinionPro-Regular;font-size:9.0px;stroke:none;">(200), (211) and (224) planes of anatase TiO</text>
   <text y="444.3" x="315.118" svgx:width="0.48" style="fill:rgb(0,0,0);font-family:MinionPro-Regular;font-size:5.85px;stroke:none;">2</text>
   <text y="442.5" x="317.952,319.932,323.24,326.195,332.221,337.283,343.938,348.244,350.224,355.151,359.52,361.613,363.593,367.953,372.314,375.557,379.918,384.278,388.638,392.999,396.152,398.245,400.225,406.249,411.042,415.834,418.178,421.008,423.461,427.982,432.919,436.955,439.317,441.571,445.085,447.178,449.158,451.969,458.103,462.732,464.712,469.505,471.957,477.136,480.516,484.506,488.417,491.246,493.699,498.22,503.184,505.164,510.0,513.92,517.956,522.46,525.803,527.783,531.603,534.389,536.369,540.728,545.089,547.18,551.541,554.628" svgx:width="0.23,0.35,0.33,0.67,0.56,0.74,0.47,0.23,0.55,0.51,0.23,0.23,0.48,0.48,0.36,0.48,0.48,0.48,0.48,0.35,0.23,0.23,0.69,0.53,0.53,0.27,0.31,0.27,0.51,0.55,0.44,0.25,0.25,0.46,0.23,0.23,0.31,0.69,0.51,0.23,0.53,0.27,0.56,0.37,0.44,0.42,0.31,0.27,0.51,0.55,0.23,0.52,0.43,0.44,0.5,0.37,0.23,0.44,0.31,0.23,0.48,0.48,0.23,0.48,0.34,0.23" style="fill:rgb(0,0,0);font-family:MinionPro-Regular;font-size:9.0px;stroke:none;"> (JCPDS no. 21-1272). Additionally, two diffraction peaks at 35.6° </text>
   <text y="452.499" x="155.637,159.476,164.333,169.058,170.768,175.061,179.354,181.379,185.672,188.732,190.437,196.599,198.872,201.641,206.42,208.13,214.192,218.04,222.006,226.358,230.156,233.468,235.174,237.559,242.28,244.94,248.738,253.559,256.835,259.108,261.85,265.954,267.664,271.503,274.694,278.492,280.198,282.583,287.439,292.164,295.962,300.108,303.947,308.672,310.382,313.043,317.606,319.311,322.398,326.691,330.984,335.277,338.364,340.074,343.913,348.77,353.495,355.205,358.292,362.585,366.878,371.171,374.258,375.963,380.586,382.859,386.699,391.556,395.349,398.625,400.335,404.787,407.424,409.129,413.869,417.667,421.888,425.764,429.872,434.324,439.19,443.156,445.406" svgx:width="0.44,0.55,0.53,0.23,0.48,0.48,0.23,0.48,0.34,0.23,0.69,0.27,0.31,0.53,0.23,0.69,0.43,0.44,0.5,0.43,0.37,0.23,0.27,0.55,0.31,0.43,0.55,0.37,0.27,0.31,0.46,0.23,0.44,0.37,0.43,0.23,0.27,0.55,0.53,0.43,0.47,0.43,0.53,0.23,0.31,0.51,0.23,0.35,0.48,0.48,0.48,0.35,0.23,0.44,0.55,0.53,0.23,0.35,0.48,0.48,0.48,0.35,0.23,0.52,0.25,0.44,0.55,0.43,0.37,0.23,0.51,0.3,0.23,0.53,0.43,0.47,0.44,0.47,0.51,0.55,0.44,0.25,0.23" style="fill:rgb(0,0,0);font-family:MinionPro-Regular;font-size:9.0px;stroke:none;">and 77.7° with weaker intensity are indexed to (110) and (306) planes of hexagonal </text>
   <text y="452.499" x="446.958" svgx:width="0.64" style="fill:rgb(0,0,0);font-family:EuclidSymbol;font-size:9.0px;stroke:none;">α</text>
   <text y="452.499" x="452.646,452.619,455.792,460.355" svgx:width="0.23,0.36,0.53,0.43" style="fill:rgb(0,0,0);font-family:MinionPro-Regular;font-size:9.0px;stroke:none;"> -Fe</text>
   <text y="454.3" x="464.143" svgx:width="0.48" style="fill:rgb(0,0,0);font-family:MinionPro-Regular;font-size:5.85px;stroke:none;">2</text>
   <text y="452.5" x="466.931" svgx:width="0.75" style="fill:rgb(0,0,0);font-family:MinionPro-Regular;font-size:9.0px;stroke:none;">O</text>
   <text y="454.3" x="473.624" svgx:width="0.48" style="fill:rgb(0,0,0);font-family:MinionPro-Regular;font-size:5.85px;stroke:none;">3</text>
   <text y="452.5" x="476.412,478.117,481.354,484.239,490.197,495.189,501.777,506.016,507.721,512.578,516.876,518.901,520.611,524.904,529.197,532.374,536.667,540.96,545.253,549.546,552.633,554.685" svgx:width="0.23,0.35,0.33,0.67,0.56,0.74,0.47,0.23,0.55,0.51,0.23,0.23,0.48,0.48,0.36,0.48,0.48,0.48,0.48,0.35,0.23,0.23" style="fill:rgb(0,0,0);font-family:MinionPro-Regular;font-size:9.0px;stroke:none;"> (JCPDS no. 33-0664). </text>
   <text y="462.499" x="155.634,161.681,165.551,169.421,173.964,177.248,182.063,184.538,189.451,193.787,196.063,199.598,201.713,203.765,208.416" svgx:width="0.69,0.42,0.42,0.51,0.37,0.53,0.27,0.55,0.47,0.25,0.46,0.23,0.23,0.53,0.43" style="fill:rgb(0,0,0);font-family:MinionPro-Regular;font-size:9.0px;stroke:none;">Accordingly, Fe</text>
   <text y="464.3" x="212.302" svgx:width="0.48" style="fill:rgb(0,0,0);font-family:MinionPro-Regular;font-size:5.85px;stroke:none;">2</text>
   <text y="462.5" x="215.15" svgx:width="0.75" style="fill:rgb(0,0,0);font-family:MinionPro-Regular;font-size:9.0px;stroke:none;">O</text>
   <text y="464.3" x="221.934" svgx:width="0.48" style="fill:rgb(0,0,0);font-family:MinionPro-Regular;font-size:5.85px;stroke:none;">3</text>
   <text y="462.5" x="224.783,226.835,231.505,234.788,239.341,244.199,248.742,252.233,255.085,257.56,262.103,267.016,270.382,272.434,276.366,279.649,283.537,285.589,289.484,293.542,295.882,299.813,304.698,307.063,310.905,313.658,317.589,322.404,324.456,328.442,331.808,333.86,338.243,342.626,344.741,349.124,350.306,356.534,359.342,366.209,368.324,370.376,374.759,379.142,381.257,385.64,386.819,393.047,395.855,402.722,404.774,408.706,413.654,418.469,420.521,424.904,429.287,431.402,435.785,436.967,443.195,446.003,452.87,454.922,457.567,462.11,465.512,467.564,473.034,475.509" svgx:width="0.23,0.52,0.37,0.51,0.52,0.51,0.37,0.31,0.27,0.51,0.55,0.37,0.23,0.44,0.37,0.43,0.23,0.42,0.44,0.25,0.42,0.53,0.25,0.44,0.31,0.43,0.53,0.23,0.44,0.37,0.23,0.48,0.48,0.23,0.48,0.23,0.69,0.31,0.76,0.23,0.23,0.48,0.48,0.23,0.48,0.23,0.69,0.31,0.76,0.23,0.44,0.55,0.53,0.23,0.48,0.48,0.23,0.48,0.23,0.69,0.31,0.76,0.23,0.3,0.51,0.37,0.23,0.62,0.27,0.75" style="fill:rgb(0,0,0);font-family:MinionPro-Regular;font-size:9.0px;stroke:none;"> proportions are calculated as 25.1 wt%, 33.6 wt% and 44.6 wt% for TiO</text>
   <text y="464.3" x="482.288" svgx:width="0.48" style="fill:rgb(0,0,0);font-family:MinionPro-Regular;font-size:5.85px;stroke:none;">2</text>
   <text y="462.5" x="485.136,491.974,496.628" svgx:width="0.75,0.53,0.43" style="fill:rgb(0,0,0);font-family:MinionPro-Regular;font-size:9.0px;stroke:none;">@Fe</text>
   <text y="464.3" x="500.513" svgx:width="0.48" style="fill:rgb(0,0,0);font-family:MinionPro-Regular;font-size:5.85px;stroke:none;">2</text>
   <text y="462.5" x="503.361" svgx:width="0.75" style="fill:rgb(0,0,0);font-family:MinionPro-Regular;font-size:9.0px;stroke:none;">O</text>
   <text y="464.3" x="510.145" svgx:width="0.48" style="fill:rgb(0,0,0);font-family:MinionPro-Regular;font-size:5.85px;stroke:none;">3</text>
   <text y="462.5" x="512.993,515.045,518.465,522.396,529.657,534.372,536.712,540.6,543.966,546.018,550.508,554.638" svgx:width="0.23,0.37,0.44,0.82,0.52,0.25,0.43,0.37,0.23,0.51,0.46,0.23" style="fill:rgb(0,0,0);font-family:MinionPro-Regular;font-size:9.0px;stroke:none;"> samples by </text>
   <text y="472.499" x="155.639,158.051,162.938,166.745,169.967,173.846,177.77,181.073,183.485,188.336,192.548,194.415,200.634,205.476,212.091,213.959,217.91,221.969,225.722,227.999,231.824,235.126,236.993,239.684,244.274,246.142,250.462,254.782,259.102,261.154,263.021,267.341,271.661,275.981,277.849,281.719,286.606,291.358,293.225,297.545,301.865,306.185,310.505,312.373,316.323,320.383,324.135,326.412,330.237,333.54,335.592,337.459,343.687,348.493,350.905,354.658,359.464,361.331,363.716,367.019,368.887,371.299,376.222,378.089,382.229,386.9,391.571,396.323,398.191,402.142,405.949,409.756,414.238,417.46,422.239,426.109,430.996,434.803,438.628,440.495,446.687,448.991,451.79,456.596,458.464,461.263,466.033,469.858,471.724,475.621,479.716,484.243,486.412,491.083,493.873,496.285,500.767,505.69,507.558,512.04,514.704,516.571,521.323,523.735,528.874,532.213,536.164,540.034,542.824,545.236,549.718,554.641" svgx:width="0.27,0.55,0.42,0.37,0.43,0.44,0.37,0.27,0.55,0.47,0.23,0.69,0.54,0.74,0.23,0.42,0.46,0.42,0.25,0.43,0.37,0.23,0.31,0.51,0.23,0.48,0.48,0.48,0.23,0.23,0.48,0.48,0.48,0.23,0.44,0.55,0.53,0.23,0.48,0.48,0.48,0.48,0.23,0.42,0.46,0.42,0.25,0.43,0.37,0.23,0.23,0.69,0.53,0.27,0.42,0.53,0.23,0.27,0.37,0.23,0.27,0.55,0.23,0.47,0.51,0.51,0.53,0.23,0.44,0.42,0.42,0.51,0.37,0.53,0.44,0.55,0.42,0.43,0.23,0.69,0.27,0.31,0.53,0.23,0.31,0.53,0.43,0.23,0.43,0.46,0.51,0.25,0.53,0.31,0.27,0.51,0.55,0.23,0.51,0.3,0.23,0.53,0.27,0.56,0.37,0.44,0.42,0.31,0.27,0.51,0.55,0.23" style="fill:rgb(0,0,0);font-family:MinionPro-Regular;font-size:9.0px;stroke:none;">increasing ALD cycles to 200, 600 and 1000 cycles, which is in good accordance with the evolution of diffraction </text>
   <text y="482.498" x="155.639,158.051,162.803,165.494,169.319,174.17,177.473,179.777,182.548,186.679,188.56,190.972,195.895,197.776,203.662,209.251,215.866,217.747,221.617,226.505,231.257,233.137,238.889,242.759,250.103,253.973,258.896,260.777,264.035,268.832,272.702,276.571,279.361,282.7,286.651,288.532,291.646,296.407,298.819,303.031,307.81,311.032,314.857,316.738,321.004,325.324,328.438,330.49,332.371,337.528,341.704,345.511,349.336,353.952,356.697,358.578,361.161,365.643,368.982,370.863,375.624,379.404,382.059,384.75,388.575,391.967,396.818,400.121,402.002,406.484,409.148,411.029,416.438,418.85,420.731,423.314,427.796,430.253,432.53,434.411,437.669,442.412,446.984,450.242,453.032,456.371,460.151,462.842,466.613,468.665,470.546,475.434,480.024,481.905,484.317,491.517,496.134,500.913,504.306,506.61,509.382,513.513,515.394,520.191,524.07,528.066,532.53,535.833,537.714,543.807,547.632,550.854,554.679" svgx:width="0.27,0.55,0.31,0.43,0.55,0.37,0.27,0.31,0.46,0.23,0.27,0.55,0.23,0.65,0.62,0.74,0.23,0.44,0.55,0.53,0.23,0.62,0.44,0.82,0.44,0.55,0.23,0.37,0.52,0.43,0.42,0.31,0.37,0.44,0.23,0.35,0.53,0.27,0.47,0.53,0.37,0.43,0.23,0.47,0.48,0.35,0.23,0.23,0.57,0.47,0.42,0.43,0.52,0.31,0.23,0.3,0.51,0.37,0.23,0.52,0.44,0.31,0.31,0.43,0.37,0.55,0.37,0.23,0.51,0.3,0.23,0.62,0.27,0.23,0.3,0.51,0.27,0.25,0.23,0.37,0.53,0.51,0.37,0.31,0.37,0.44,0.31,0.43,0.23,0.23,0.55,0.51,0.23,0.27,0.82,0.52,0.53,0.37,0.27,0.31,0.46,0.23,0.52,0.43,0.44,0.5,0.37,0.23,0.69,0.43,0.37,0.43,0.23" style="fill:rgb(0,0,0);font-family:MinionPro-Regular;font-size:9.0px;stroke:none;">intensity in XRD and Raman spectra (Figure S1). Except for patterns of Ti foil substrate, no impurity peaks were </text>
   <text y="492.497" x="155.639,160.184,164.756,168.131,171.956,175.556,179.651,183.521,188.273,190.014,192.426,197.349,199.091,201.89,206.66,210.485,212.226,218.112,223.701,230.316,232.058,236.819,240.599,243.254,245.945,249.77,253.163,258.013,261.316,263.368,265.109,268.979,276.161,279.554,286.925,289.337,294.188,298.4,300.142,302.941,307.711,311.536,313.277,317.102,321.35,323.735,326.993,329.683,333.508,338.395,342.202,346.027,347.769,352.251,354.915,356.656,361.12,363.532,366.736,371.389,376.168,380.092,383.467,387.292,389.034,393.48,397.728,400.14,404.892,408.717,410.458,414.265,417.865,421.996,425.255,428.054,432.049,434.326,436.068,439.326,442.116,445.545,450.324,454.194,456.849,461.628,464.85,468.675,471.978,473.719,476.302,480.784,484.123,485.865,488.664,493.434,497.259,499.0,502.951,506.821,509.611,511.96,516.055,519.88,521.622,528.966,532.746,535.437,539.262,542.655,545.094,549.089,551.339,554.642" svgx:width="0.51,0.51,0.37,0.43,0.37,0.46,0.43,0.53,0.23,0.27,0.55,0.23,0.31,0.53,0.43,0.23,0.65,0.62,0.74,0.23,0.52,0.44,0.31,0.31,0.43,0.37,0.55,0.37,0.23,0.23,0.44,0.8,0.37,0.82,0.27,0.55,0.47,0.23,0.31,0.53,0.43,0.23,0.43,0.47,0.27,0.37,0.31,0.43,0.55,0.42,0.43,0.23,0.51,0.3,0.23,0.51,0.27,0.36,0.52,0.53,0.44,0.37,0.43,0.23,0.51,0.47,0.27,0.53,0.43,0.23,0.42,0.37,0.46,0.37,0.31,0.44,0.25,0.23,0.37,0.31,0.37,0.53,0.42,0.31,0.53,0.37,0.43,0.37,0.23,0.3,0.51,0.37,0.23,0.31,0.53,0.43,0.23,0.44,0.42,0.31,0.27,0.46,0.43,0.23,0.82,0.44,0.31,0.43,0.37,0.27,0.44,0.25,0.37,0.23" style="fill:rgb(0,0,0);font-family:MinionPro-Regular;font-size:9.0px;stroke:none;">observed in the XRD patterns, affirming the existence of bi-phase oxide crystal structures for the active materials </text>
   <text y="502.496" x="155.639,161.831,164.135,166.934,171.704,176.195,180.866,183.611,185.447,189.317,194.033,198.164,200.0,204.428,208.559,211.763,216.37,219.592,224.263,228.907,233.686,237.557,240.301,243.604" svgx:width="0.69,0.27,0.31,0.53,0.51,0.53,0.31,0.23,0.44,0.55,0.46,0.23,0.51,0.46,0.36,0.52,0.37,0.51,0.53,0.53,0.42,0.31,0.37,0.23" style="fill:rgb(0,0,0);font-family:MinionPro-Regular;font-size:9.0px;stroke:none;">without any by-products.</text>
   <text y="512.495" x="167.636,172.397,174.809,178.597,180.874,185.626,187.363,191.188,198.559,200.942,204.197,207.5,209.912,214.392,219.315,221.052,224.425,228.257,232.124,237.047,241.97,244.382,249.231,253.443,255.18,258.967,261.244,265.111,268.979,271.766,274.987,279.466,284.389,286.126,293.497,295.909,299.716,302.935,307.525,310.898,314.705,319.194,323.763,327.894,329.631,332.745,337.506,342.618,346.773,351.885,359.904,363.018,364.755,370.92,374.842,378.145,379.882,384.551,387.338,389.793,392.07,394.482,398.262,402.131,406.883,408.62,411.309,415.899,417.636,420.048,424.762,428.855,432.68,435.936,438.724,441.136,445.348,449.126,451.815,455.64,457.377,464.71,469.19,472.617,477.268,482.035,486.561,488.838,493.428,497.683,500.095,503.926,507.92,510.197,511.934,515.829,519.922,524.447,526.613,531.282,534.07,536.482,540.962,545.885,547.622,552.102,554.766" svgx:width="0.53,0.27,0.43,0.25,0.53,0.23,0.43,0.82,0.27,0.37,0.37,0.27,0.51,0.55,0.23,0.37,0.42,0.44,0.55,0.55,0.27,0.55,0.47,0.23,0.43,0.25,0.43,0.42,0.31,0.37,0.51,0.55,0.23,0.82,0.27,0.42,0.37,0.51,0.37,0.42,0.51,0.52,0.46,0.23,0.35,0.53,0.57,0.47,0.57,0.89,0.35,0.23,0.69,0.44,0.37,0.23,0.53,0.31,0.27,0.25,0.27,0.42,0.43,0.53,0.23,0.31,0.51,0.23,0.27,0.55,0.46,0.43,0.37,0.31,0.27,0.47,0.44,0.31,0.43,0.23,0.82,0.51,0.37,0.52,0.53,0.51,0.25,0.51,0.47,0.27,0.42,0.44,0.25,0.23,0.43,0.46,0.51,0.25,0.53,0.31,0.27,0.51,0.55,0.23,0.51,0.3,0.23" style="fill:rgb(0,0,0);font-family:MinionPro-Regular;font-size:9.0px;stroke:none;">Field emission scanning electron microscopy (FESEM) was utilized to investigate morphological evolution of </text>
   <text y="522.494" x="155.639,160.256,164.126,167.348,171.173,173.099,178.508,180.92" svgx:width="0.51,0.44,0.37,0.43,0.23,0.62,0.27,0.75" style="fill:rgb(0,0,0);font-family:MinionPro-Regular;font-size:9.0px;stroke:none;">bare TiO</text>
   <text y="524.3" x="187.641" svgx:width="0.48" style="fill:rgb(0,0,0);font-family:MinionPro-Regular;font-size:5.85px;stroke:none;">2</text>
   <text y="522.5" x="190.448,192.374,195.065,199.655,201.581,206.99,209.402" svgx:width="0.23,0.31,0.51,0.23,0.62,0.27,0.75" style="fill:rgb(0,0,0);font-family:MinionPro-Regular;font-size:9.0px;stroke:none;"> to TiO</text>
   <text y="524.3" x="216.123" svgx:width="0.48" style="fill:rgb(0,0,0);font-family:MinionPro-Regular;font-size:5.85px;stroke:none;">2</text>
   <text y="522.5" x="218.931,225.708,230.298" svgx:width="0.75,0.53,0.43" style="fill:rgb(0,0,0);font-family:MinionPro-Regular;font-size:9.0px;stroke:none;">@Fe</text>
   <text y="524.3" x="234.122" svgx:width="0.48" style="fill:rgb(0,0,0);font-family:MinionPro-Regular;font-size:5.85px;stroke:none;">2</text>
   <text y="522.5" x="236.93" svgx:width="0.75" style="fill:rgb(0,0,0);font-family:MinionPro-Regular;font-size:9.0px;stroke:none;">O</text>
   <text y="524.3" x="243.653" svgx:width="0.48" style="fill:rgb(0,0,0);font-family:MinionPro-Regular;font-size:5.85px;stroke:none;">3</text>
   <text y="522.5" x="246.461,248.387,251.743,255.613,262.813,267.466,269.743,273.568,276.871,278.797,281.911,286.672,289.084,293.296,298.075,301.296,305.121,307.047,311.313,315.633,319.584,324.264,329.016,332.13,334.182,336.108,345.711,349.536,351.462,356.079,360.858,364.08,367.905,369.831,375.24,377.652" svgx:width="0.23,0.37,0.44,0.82,0.52,0.25,0.43,0.37,0.23,0.35,0.53,0.27,0.47,0.53,0.37,0.43,0.23,0.47,0.48,0.44,0.52,0.53,0.35,0.23,0.23,1.07,0.43,0.23,0.52,0.53,0.37,0.43,0.23,0.62,0.27,0.75" style="fill:rgb(0,0,0);font-family:MinionPro-Regular;font-size:9.0px;stroke:none;"> samples (Figure S2a–d). The pure TiO</text>
   <text y="524.3" x="384.368" svgx:width="0.48" style="fill:rgb(0,0,0);font-family:MinionPro-Regular;font-size:5.85px;stroke:none;">2</text>
   <text y="522.5" x="387.176,389.102,396.446,400.225,402.917,406.742,410.134,412.573,416.569,418.846,420.772,424.597,428.845,433.651,436.027,440.491,442.795,445.54,448.843,450.769,455.521,459.346,464.197,467.572,471.397,473.323,477.193,482.08,486.832,488.758,493.537,498.46,500.872,503.455,507.937,511.33,518.701,520.627,525.523,529.393,534.28,538.771,541.427,546.169,550.822,554.647" svgx:width="0.23,0.82,0.44,0.31,0.43,0.37,0.27,0.44,0.25,0.23,0.43,0.47,0.53,0.27,0.51,0.27,0.31,0.37,0.23,0.53,0.43,0.55,0.37,0.43,0.23,0.44,0.55,0.53,0.23,0.53,0.55,0.27,0.3,0.51,0.37,0.82,0.23,0.55,0.44,0.55,0.51,0.31,0.53,0.51,0.43,0.23" style="fill:rgb(0,0,0);font-family:MinionPro-Regular;font-size:9.0px;stroke:none;"> material exhibits dense and uniform nanotube </text>
   <text y="532.499" x="155.642,159.507,162.895,166.229,170.014,174.14,177.438,179.166,185.354,187.652,190.447,195.211,199.698,204.364,207.104,208.832,212.732,216.994,221.264,223.536,228.014,235.343,239.164,242.497,246.273,249.057,251.465,255.942,260.86,262.588,267.064,269.724,271.452,273.751,277.616,280.879,285.013,288.834,290.562,295.318,299.183,302.607,305.392,307.799,311.548,313.82,317.64,320.938,322.985,324.713,327.012,330.796,334.95,337.356,342.203,346.41,348.138,352.273,356.939,361.605,366.353,368.081,370.659,375.146,379.919,384.802,389.576,393.351,396.136,398.543,403.02,407.939,409.667,412.245,416.722,420.057,421.785,426.586,428.993,433.263,438.064,439.792,447.131,451.051,454.303,457.602,459.33,461.602,466.232,470.178,474.925,477.333,482.179,486.386,488.114,492.59,495.25,496.978,500.924,504.789,507.573,509.918,514.008,517.828,519.556,526.895,530.67,533.357,537.176,540.565,542.998,546.99,549.235,552.533,554.585" svgx:width="0.44,0.37,0.37,0.44,0.46,0.37,0.23,0.69,0.27,0.31,0.53,0.51,0.53,0.31,0.23,0.44,0.47,0.47,0.25,0.51,0.82,0.43,0.37,0.44,0.31,0.27,0.51,0.55,0.23,0.51,0.3,0.23,0.25,0.44,0.37,0.47,0.43,0.23,0.52,0.44,0.37,0.31,0.27,0.42,0.25,0.43,0.37,0.23,0.23,0.25,0.44,0.46,0.27,0.55,0.47,0.23,0.47,0.51,0.51,0.53,0.23,0.3,0.51,0.53,0.55,0.53,0.44,0.31,0.27,0.51,0.55,0.23,0.3,0.51,0.37,0.23,0.53,0.27,0.47,0.53,0.23,0.82,0.44,0.37,0.37,0.23,0.25,0.51,0.44,0.53,0.27,0.55,0.47,0.23,0.51,0.3,0.23,0.44,0.42,0.31,0.27,0.46,0.43,0.23,0.82,0.44,0.31,0.43,0.37,0.27,0.44,0.25,0.37,0.23,0.23" style="fill:rgb(0,0,0);font-family:MinionPro-Regular;font-size:9.0px;stroke:none;">arrays without agglomeration of large particles, laying good foundation for high mass loading of active materials. </text>
   <text y="542.498" x="155.642,161.815,166.981,170.788,174.109,175.828,179.617,184.233,187.995,190.766,193.16,197.992,202.186,203.905,208.369,211.015,212.734,217.305" svgx:width="0.69,0.58,0.43,0.37,0.23,0.42,0.51,0.44,0.31,0.27,0.55,0.47,0.23,0.51,0.3,0.23,0.53,0.43" style="fill:rgb(0,0,0);font-family:MinionPro-Regular;font-size:9.0px;stroke:none;">After coating of Fe</text>
   <text y="544.3" x="221.1" svgx:width="0.48" style="fill:rgb(0,0,0);font-family:MinionPro-Regular;font-size:5.85px;stroke:none;">2</text>
   <text y="542.5" x="223.896" svgx:width="0.75" style="fill:rgb(0,0,0);font-family:MinionPro-Regular;font-size:9.0px;stroke:none;">O</text>
   <text y="544.3" x="230.6" svgx:width="0.48" style="fill:rgb(0,0,0);font-family:MinionPro-Regular;font-size:5.85px;stroke:none;">3</text>
   <text y="542.5" x="233.396,235.115,239.578,244.311,246.984,251.557,253.275,256.056,260.807,264.614,266.333,269.573,274.334,277.708,280.354,284.287,288.076,291.828,293.862,295.581,298.362,303.113,306.92,310.276,314.083,315.802,319.123,322.974,327.842,332.576,337.039,344.437,346.633,350.746,352.465,356.928,360.302,362.696,366.503,371.236,373.908,377.76,382.494,384.213,389.09,392.941,397.81,402.282,404.919,409.643,414.277,418.084,419.803,423.655,427.03,430.351,434.121,438.234,441.519,443.238,447.701,450.347,452.066,457.456,459.85" svgx:width="0.23,0.51,0.55,0.31,0.51,0.23,0.31,0.53,0.43,0.23,0.37,0.53,0.37,0.3,0.44,0.42,0.43,0.23,0.23,0.31,0.53,0.43,0.37,0.43,0.23,0.37,0.44,0.55,0.53,0.51,0.82,0.25,0.46,0.23,0.51,0.37,0.27,0.43,0.55,0.31,0.43,0.53,0.23,0.55,0.44,0.55,0.51,0.31,0.53,0.51,0.43,0.23,0.44,0.37,0.37,0.44,0.46,0.37,0.23,0.51,0.3,0.23,0.62,0.27,0.75" style="fill:rgb(0,0,0);font-family:MinionPro-Regular;font-size:9.0px;stroke:none;"> onto the surface, these randomly oriented nanotube arrays of TiO</text>
   <text y="544.3" x="466.532" svgx:width="0.48" style="fill:rgb(0,0,0);font-family:MinionPro-Regular;font-size:5.85px;stroke:none;">2</text>
   <text y="542.5" x="469.328,476.086,480.658" svgx:width="0.75,0.53,0.43" style="fill:rgb(0,0,0);font-family:MinionPro-Regular;font-size:9.0px;stroke:none;">@Fe</text>
   <text y="544.3" x="484.464" svgx:width="0.48" style="fill:rgb(0,0,0);font-family:MinionPro-Regular;font-size:5.85px;stroke:none;">2</text>
   <text y="542.5" x="487.26" svgx:width="0.75" style="fill:rgb(0,0,0);font-family:MinionPro-Regular;font-size:9.0px;stroke:none;">O</text>
   <text y="544.3" x="493.965" svgx:width="0.48" style="fill:rgb(0,0,0);font-family:MinionPro-Regular;font-size:5.85px;stroke:none;">3</text>
   <text y="542.5" x="496.76,499.946,504.248,508.55,512.852,514.571,518.504,522.293,525.496,530.068,533.308,536.593,538.312,542.173,546.106,549.841,554.647" svgx:width="0.36,0.48,0.48,0.48,0.23,0.44,0.42,0.37,0.51,0.37,0.37,0.23,0.43,0.44,0.42,0.53,0.23" style="fill:rgb(0,0,0);font-family:MinionPro-Regular;font-size:9.0px;stroke:none;">-600 across each </text>
   <text y="552.499" x="155.642,160.115,162.894,167.645,171.452,174.773,176.492,179.163,183.735,185.454,188.017,192.48,195.854,203.207,204.926,208.859,210.577,215.365,217.759,222.015,226.847,229.041,233.154,234.873,237.267,242.0,244.671,248.478,251.681,255.47,259.934,264.839,269.707,273.557,277.407,280.079,283.929,288.663,290.382,295.25,299.057,301.809,307.883,312.345,315.629,320.075,321.794,324.89,329.633,332.027,336.246,338.28,339.998,344.3,348.854,351.95,353.984,355.703,361.911,366.699,369.093,372.827,377.615,379.334,381.7,384.985,386.704,389.35,393.12,397.196,401.658,404.979,408.839,413.329,415.588,419.395,421.114,423.677,428.14,431.461,433.18,435.96,440.71,444.517,446.236,450.005,452.264,456.115,459.966,462.736,465.938,470.401,475.306,477.025,480.814,485.277,490.145,494.77,499.531,503.382,506.152,508.546,513.009,517.914,519.633,523.566,527.355,530.557,535.129,538.367,541.652,543.371,546.151,550.902,554.727" svgx:width="0.51,0.31,0.53,0.43,0.37,0.23,0.31,0.51,0.23,0.3,0.51,0.37,0.82,0.23,0.44,0.23,0.53,0.27,0.47,0.53,0.25,0.46,0.23,0.27,0.55,0.31,0.43,0.37,0.42,0.51,0.55,0.55,0.43,0.42,0.31,0.43,0.53,0.23,0.55,0.43,0.31,0.69,0.51,0.37,0.5,0.23,0.35,0.53,0.27,0.47,0.23,0.23,0.48,0.51,0.35,0.23,0.23,0.69,0.53,0.27,0.42,0.53,0.23,0.27,0.37,0.23,0.3,0.44,0.46,0.51,0.37,0.44,0.51,0.25,0.43,0.23,0.3,0.51,0.37,0.23,0.31,0.53,0.43,0.23,0.43,0.25,0.43,0.42,0.31,0.37,0.51,0.55,0.23,0.42,0.51,0.55,0.53,0.53,0.42,0.31,0.27,0.51,0.55,0.23,0.44,0.42,0.37,0.51,0.37,0.37,0.23,0.31,0.53,0.43,0.23" style="fill:rgb(0,0,0);font-family:MinionPro-Regular;font-size:9.0px;stroke:none;">other to form a highly interconnected network (Fig. 2b), which is favorable for the electron conduction across the </text>
   <text y="562.498" x="155.642,161.921,166.741,171.319,173.65,177.529,179.545,183.384,185.715,189.635,193.556,196.396,199.669,204.39,209.196" svgx:width="0.69,0.53,0.51,0.25,0.43,0.23,0.43,0.25,0.43,0.42,0.31,0.37,0.51,0.53,0.43" style="fill:rgb(0,0,0);font-family:MinionPro-Regular;font-size:9.0px;stroke:none;">whole electrode</text>
   <text y="559.44" x="213.052,215.895,218.738,220.107,222.95" svgx:width="0.48,0.48,0.23,0.48,0.48" style="fill:rgb(0,0,0);font-family:MinionPro-Regular;font-size:5.85px;stroke:none;">32,33</text>
   <text y="562.5" x="225.782,227.888,229.904,236.191,241.129,245.935,249.814,253.207,255.223,260.083,262.549,266.874,271.694,275.573,278.966,280.982,288.377,292.333,296.641,301.618,304.084,308.953,312.837,316.667,319.508,321.974,326.506,331.483,333.499,335.965,340.942,342.958,347.773,350.239,354.529,356.635,358.65,363.024,366.885,368.991,371.007,375.828,380.405,382.778,385.109,389.605,395.824,397.84,400.306,405.109,407.851,411.73,415.173,417.639,422.172,425.507,428.864,430.88,434.801,438.074,441.953,443.969,448.775,451.21,454.636,458.497,462.376,465.819,470.756,474.677,479.483,481.499,484.132,488.665,492.058,494.074,496.923,501.743,505.622,509.048,512.927,514.943,519.889,523.81,528.748,533.289,535.995,540.788,545.491,549.37,552.727,554.779" svgx:width="0.23,0.23,0.74,0.55,0.53,0.43,0.37,0.23,0.53,0.27,0.47,0.53,0.43,0.37,0.23,0.82,0.44,0.47,0.55,0.27,0.54,0.42,0.44,0.31,0.27,0.51,0.55,0.23,0.27,0.55,0.23,0.53,0.27,0.47,0.23,0.23,0.48,0.42,0.23,0.23,0.53,0.51,0.25,0.25,0.51,0.69,0.23,0.27,0.55,0.31,0.43,0.37,0.27,0.51,0.37,0.37,0.23,0.44,0.37,0.43,0.23,0.53,0.27,0.37,0.42,0.43,0.37,0.55,0.43,0.53,0.23,0.3,0.51,0.37,0.23,0.31,0.53,0.43,0.37,0.43,0.23,0.55,0.44,0.55,0.51,0.31,0.53,0.51,0.43,0.37,0.23,0.23" style="fill:rgb(0,0,0);font-family:MinionPro-Regular;font-size:9.0px;stroke:none;">. Under higher magnification in Fig. 2c, hollow interiors are discerned for these nanotubes. </text>
   <text y="572.499" x="155.636,160.568,164.663,168.488,173.411,175.337,179.207,184.391,188.216,191.555,193.481,197.288,201.923,205.703,208.493,210.905,215.756,219.968,221.894,226.376,229.04,230.966,237.185,242.027,248.642,250.568,254.519,258.578,262.331,264.608,268.433,271.736,273.788,275.714,278.513,283.283,287.108,289.034,291.689,296.432,300.905,305.729,308.033,311.903,315.242,317.168,321.038,324.26,328.013,332.819,335.123,337.814,341.684,345.554,348.209,352.988,356.21,360.035,361.961,365.768,370.259,375.083,377.36,382.112,384.038,387.296,390.086,392.542,394.864,397.141,399.067,403.72,407.545,409.471,416.815,420.685,423.097,427.849,430.648,434.518,436.93,441.817,445.687,450.385,452.437,454.363,460.591,465.397,467.809,471.562,476.368,478.294,480.679,483.982,485.908,489.661,491.938,495.816,499.687,502.989,505.203,509.334,511.26,514.527,519.297,523.743,529.935,534.858,536.784,539.538,542.76,547.241,554.612" svgx:width="0.57,0.46,0.43,0.55,0.23,0.44,0.58,0.43,0.37,0.23,0.42,0.51,0.44,0.31,0.27,0.55,0.47,0.23,0.51,0.3,0.23,0.69,0.54,0.74,0.23,0.42,0.46,0.42,0.25,0.43,0.37,0.23,0.23,0.31,0.53,0.43,0.23,0.31,0.53,0.51,0.53,0.25,0.44,0.37,0.23,0.44,0.37,0.42,0.53,0.27,0.31,0.43,0.42,0.31,0.53,0.37,0.43,0.23,0.42,0.51,0.53,0.25,0.53,0.23,0.37,0.31,0.27,0.25,0.25,0.23,0.51,0.43,0.23,0.82,0.44,0.27,0.55,0.31,0.44,0.27,0.55,0.43,0.53,0.23,0.23,0.69,0.53,0.27,0.42,0.53,0.23,0.27,0.37,0.23,0.42,0.25,0.43,0.44,0.37,0.25,0.46,0.23,0.37,0.53,0.51,0.69,0.55,0.23,0.3,0.37,0.51,0.82,0.23" style="fill:rgb(0,0,0);font-family:MinionPro-Regular;font-size:9.0px;stroke:none;">Even after coating of ALD cycles, the tubular architecture could still be maintained, which is clearly shown from </text>
   <text y="582.498" x="155.636,160.219,165.107,169.022,174.035,177.329,181.244,186.223,191.065,195.027,199.869,202.029,207.018,210.98,215.958,220.541,223.288,228.123,232.868,236.783,240.176,242.318,244.478,254.172,258.087,261.554,265.469,267.629,272.213,277.101,281.016,286.029,288.189,291.539,294.42,297.941,302.81,306.772,309.519,314.388,317.702,321.617,325.01,327.17,333.453,335.849,338.74,343.636,345.796,348.298,353.241,356.634,359.136,363.978,367.893,370.053,374.942,378.857,382.341,385.016,389.59,393.019,396.891,399.773,402.213,406.4,410.315,412.475,416.321,421.192,425.154,430.167,435.145,439.026,441.368,444.761,446.921,450.884,454.196,458.111,460.271,464.168,468.742,473.721,478.457,483.326,487.288,490.169,492.61,496.797,500.712,502.872,505.655,510.335,512.495,515.386,520.248,524.163,526.323,530.204,532.571,536.533,540.495,543.377,546.69,551.37" svgx:width="0.51,0.52,0.43,0.55,0.36,0.43,0.55,0.53,0.43,0.53,0.23,0.55,0.44,0.55,0.51,0.31,0.53,0.51,0.43,0.37,0.23,0.23,1.07,0.43,0.37,0.43,0.23,0.51,0.52,0.43,0.55,0.23,0.37,0.31,0.37,0.53,0.42,0.31,0.53,0.37,0.43,0.37,0.23,0.69,0.27,0.31,0.53,0.23,0.27,0.55,0.37,0.27,0.53,0.43,0.23,0.52,0.43,0.37,0.3,0.51,0.37,0.44,0.31,0.27,0.46,0.43,0.23,0.42,0.53,0.44,0.55,0.55,0.43,0.25,0.37,0.23,0.44,0.37,0.43,0.23,0.42,0.51,0.55,0.53,0.53,0.42,0.31,0.27,0.46,0.43,0.23,0.31,0.51,0.23,0.31,0.53,0.43,0.23,0.43,0.25,0.43,0.42,0.31,0.37,0.51,0.36" style="fill:rgb(0,0,0);font-family:MinionPro-Regular;font-size:9.0px;stroke:none;">open-ended nanotubes. These open structures with inside perforative channels are conductive to the electro-</text>
   <text y="592.497" x="155.636,157.85,161.981,164.672,168.497,170.369,172.781,177.704,182.564,184.733,187.523,190.862,194.642,197.432,199.844,204.326,209.249,211.121,214.991,219.878,224.63,226.502,232.694,235.151,237.472,239.749,241.621,243.925,247.795,251.062,255.202,258.991,261.205,265.336,267.208,271.861,275.686,280.573,284.398,289.105,291.85,293.722,296.134,300.616,305.539,307.411,314.782,317.194,321.45,324.789,328.569,331.359,333.771,338.253,343.176,345.048,349.692,354.471,357.864,360.276,365.126,369.338,371.21,374.999,377.276,381.146,385.015,387.805,391.027,395.698,399.451,404.221,408.046,415.417,417.829,421.663,425.659,427.936,429.808,434.416,437.638,442.308,446.115,449.94,453.198" svgx:width="0.25,0.46,0.31,0.43,0.23,0.27,0.55,0.54,0.25,0.31,0.37,0.44,0.31,0.27,0.51,0.55,0.23,0.44,0.55,0.53,0.23,0.69,0.27,0.25,0.25,0.23,0.25,0.44,0.37,0.47,0.43,0.25,0.46,0.23,0.51,0.43,0.55,0.43,0.54,0.31,0.23,0.27,0.51,0.55,0.23,0.82,0.27,0.47,0.37,0.44,0.31,0.27,0.51,0.55,0.23,0.53,0.53,0.37,0.27,0.55,0.47,0.23,0.43,0.25,0.43,0.42,0.31,0.37,0.51,0.42,0.53,0.43,0.82,0.27,0.42,0.44,0.25,0.23,0.52,0.37,0.51,0.42,0.43,0.37,0.37" style="fill:rgb(0,0,0);font-family:MinionPro-Regular;font-size:9.0px;stroke:none;">lyte infiltration and will largely benefit ion migration during electrochemical process</text>
   <text y="589.44" x="456.517,459.325" svgx:width="0.48,0.48" style="fill:rgb(0,0,0);font-family:MinionPro-Regular;font-size:5.85px;stroke:none;">34</text>
   <text y="592.5" x="462.133,464.185,466.057,475.66,479.485,481.357,485.803,489.898,493.723,497.062,501.058,503.38,505.657,507.529,511.336,514.558,519.148,522.406,525.709,528.913,532.288,536.157,540.027,542.817,545.229,549.711,554.634" svgx:width="0.23,0.23,1.07,0.43,0.23,0.51,0.46,0.43,0.37,0.44,0.25,0.25,0.23,0.42,0.37,0.51,0.37,0.37,0.36,0.37,0.43,0.42,0.31,0.27,0.51,0.55,0.23" style="fill:rgb(0,0,0);font-family:MinionPro-Regular;font-size:9.0px;stroke:none;">. The overall cross-section </text>
   <text y="602.499" x="155.638,158.059,165.412,169.326,173.475,177.309,179.257,183.748,186.421,188.374,193.791,196.212" svgx:width="0.27,0.82,0.44,0.47,0.43,0.23,0.51,0.3,0.23,0.62,0.27,0.75" style="fill:rgb(0,0,0);font-family:MinionPro-Regular;font-size:9.0px;stroke:none;">image of TiO</text>
   <text y="604.3" x="202.938" svgx:width="0.48" style="fill:rgb(0,0,0);font-family:MinionPro-Regular;font-size:5.85px;stroke:none;">2</text>
   <text y="602.5" x="205.752,212.538,217.137" svgx:width="0.75,0.53,0.43" style="fill:rgb(0,0,0);font-family:MinionPro-Regular;font-size:9.0px;stroke:none;">@Fe</text>
   <text y="604.3" x="220.969" svgx:width="0.48" style="fill:rgb(0,0,0);font-family:MinionPro-Regular;font-size:5.85px;stroke:none;">2</text>
   <text y="602.5" x="223.783" svgx:width="0.75" style="fill:rgb(0,0,0);font-family:MinionPro-Regular;font-size:9.0px;stroke:none;">O</text>
   <text y="604.3" x="230.514" svgx:width="0.48" style="fill:rgb(0,0,0);font-family:MinionPro-Regular;font-size:5.85px;stroke:none;">3</text>
   <text y="602.5" x="233.327,236.54,240.869,245.198,249.527,251.48,258.833,262.712,267.644,270.065,272.656,276.49,279.757,282.511,285.823,287.776,291.655,295.056,298.404,302.202,306.342,308.295,310.581,314.415,319.275,323.496,326.303,331.118,333.066,337.557,340.23,342.183,349.563,351.984,355.8,359.031,363.522,368.454,370.407,374.897,378.128,382.889,386.723,390.071,392.019,398.219,400.532,403.339,408.154,410.107,414.913,418.747,422.148,424.74,428.619,432.497,435.251,437.204,440.992,443.656,446.463,450.423,454.185,459.0,466.343,470.177,474.937,477.691,479.644,483.522,488.418,493.179,495.132,498.948,503.439,508.371,513.266,517.145,521.023,523.821,526.242,530.734,535.666,537.619,540.318,544.917,546.865,552.283,554.695" svgx:width="0.36,0.48,0.48,0.48,0.23,0.82,0.44,0.55,0.27,0.3,0.43,0.37,0.31,0.37,0.23,0.44,0.37,0.37,0.44,0.46,0.23,0.25,0.43,0.55,0.47,0.31,0.53,0.23,0.51,0.3,0.23,0.82,0.27,0.42,0.37,0.51,0.55,0.23,0.51,0.37,0.53,0.43,0.37,0.23,0.69,0.27,0.31,0.53,0.23,0.52,0.43,0.37,0.3,0.43,0.42,0.31,0.23,0.44,0.31,0.31,0.44,0.42,0.53,0.82,0.43,0.55,0.31,0.23,0.44,0.55,0.53,0.23,0.42,0.51,0.55,0.55,0.43,0.42,0.31,0.27,0.51,0.55,0.23,0.31,0.51,0.23,0.62,0.27,0.23" style="fill:rgb(0,0,0);font-family:MinionPro-Regular;font-size:9.0px;stroke:none;">-600 manifests array length of micron order with perfect attachment and connection to Ti </text>
   <text y="612.499" x="155.639,158.897,163.641,168.213,171.471,174.26,177.6,181.38,184.07,187.895,189.731,192.845,197.606,200.018,204.257,206.309,208.147,212.467,217.219,220.333" svgx:width="0.37,0.53,0.51,0.37,0.31,0.37,0.44,0.31,0.43,0.23,0.35,0.53,0.27,0.47,0.23,0.23,0.48,0.53,0.35,0.23" style="fill:rgb(0,0,0);font-family:MinionPro-Regular;font-size:9.0px;stroke:none;">substrate (Fig. 2d).</text>
   <text y="622.498" x="167.636,175.436,179.931,183.168,187.011,188.964,193.734,197.572,200.386,204.27,206.741,209.036,212.92,217.685,219.638,222.344,226.187,230.448,233.118,237.915,241.15,244.993,246.946,250.831,255.732,260.498,262.451,265.723,268.527,271.97,276.767,280.65,283.32,288.117,291.352,295.195,297.148,301.033,304.269,308.108,310.061,313.297,317.208,321.318,325.21,329.221,331.511,335.396,340.166,342.119,346.56,350.709,352.662,355.466,358.819,362.703,367.569,370.89,378.274,380.674,383.946,387.263,389.693,394.189,399.126,401.079,404.882,407.177,411.06,414.945,417.748,420.985,425.481,430.418,432.371,439.755,442.185,446.006,449.242,453.85,457.239,461.064,465.569,470.155,474.3,476.253,479.385,484.956,490.081,498.118,501.25,503.203,507.087,511.988,516.758,518.711,522.101,525.867,530.652,534.495,541.852,545.646,548.451,550.876,554.683" svgx:width="0.89,0.51,0.37,0.43,0.23,0.53,0.43,0.31,0.44,0.27,0.25,0.43,0.53,0.23,0.31,0.43,0.47,0.31,0.53,0.37,0.43,0.23,0.44,0.55,0.53,0.23,0.37,0.31,0.37,0.53,0.42,0.31,0.53,0.37,0.43,0.23,0.44,0.37,0.43,0.23,0.37,0.43,0.46,0.43,0.44,0.25,0.43,0.53,0.23,0.51,0.46,0.23,0.31,0.37,0.44,0.55,0.37,0.82,0.27,0.37,0.37,0.27,0.51,0.55,0.23,0.43,0.25,0.43,0.42,0.31,0.37,0.51,0.55,0.23,0.82,0.27,0.42,0.37,0.51,0.37,0.42,0.51,0.52,0.46,0.23,0.35,0.62,0.57,0.89,0.35,0.23,0.44,0.55,0.53,0.23,0.37,0.42,0.53,0.43,0.82,0.44,0.31,0.27,0.42,0.23" style="fill:rgb(0,0,0);font-family:MinionPro-Regular;font-size:9.0px;stroke:none;">More detailed texture and structure are revealed by transmission electron microscopy (TEM) and schematic </text>
   <text y="632.497" x="155.639,158.145,160.516,162.733,167.534,170.841,173.679,177.063,180.893,183.731,186.188,190.719,195.687,197.766,202.297,205.006,207.085,211.616,216.551,220.421,222.5,225.848,228.305,233.205,237.529,239.851,243.721,245.8,251.258,253.715" svgx:width="0.27,0.25,0.25,0.53,0.37,0.31,0.37,0.44,0.31,0.27,0.51,0.55,0.23,0.51,0.3,0.23,0.51,0.55,0.43,0.23,0.37,0.27,0.55,0.47,0.25,0.43,0.23,0.62,0.27,0.75" style="fill:rgb(0,0,0);font-family:MinionPro-Regular;font-size:9.0px;stroke:none;">illustration of one single TiO</text>
   <text y="634.3" x="260.513" svgx:width="0.48" style="fill:rgb(0,0,0);font-family:MinionPro-Regular;font-size:5.85px;stroke:none;">2</text>
   <text y="632.5" x="263.353,270.178,274.813" svgx:width="0.75,0.53,0.43" style="fill:rgb(0,0,0);font-family:MinionPro-Regular;font-size:9.0px;stroke:none;">@Fe</text>
   <text y="634.3" x="278.691" svgx:width="0.48" style="fill:rgb(0,0,0);font-family:MinionPro-Regular;font-size:5.85px;stroke:none;">2</text>
   <text y="632.5" x="281.531" svgx:width="0.75" style="fill:rgb(0,0,0);font-family:MinionPro-Regular;font-size:9.0px;stroke:none;">O</text>
   <text y="634.3" x="288.302" svgx:width="0.48" style="fill:rgb(0,0,0);font-family:MinionPro-Regular;font-size:5.85px;stroke:none;">3</text>
   <text y="632.5" x="291.142,293.221,298.166,302.084,307.02,311.56,314.264,319.055,323.757,327.627,329.706,332.865,337.671,340.128,344.416,346.513,348.589,352.954,356.95,360.109,362.206,364.285,366.742,371.539,375.409,380.21,383.048,385.505,390.365,394.284,399.081,401.16,407.4,409.753,412.601,417.452,419.531,423.332,428.16,432.078,435.462,439.458,443.377,446.117,449.987,453.429,455.863,459.169,462.008,464.465,468.317,470.396,475.215,479.791,482.162,484.484,488.978,495.188,497.267,501.798,504.507,506.586,509.433,514.252,518.122,520.201,525.146,529.065,534.001,538.54,541.244,546.036,550.738,554.562" svgx:width="0.23,0.55,0.44,0.55,0.51,0.31,0.53,0.51,0.43,0.23,0.35,0.53,0.27,0.47,0.23,0.23,0.48,0.44,0.35,0.23,0.23,0.27,0.53,0.43,0.55,0.31,0.27,0.54,0.43,0.53,0.23,0.69,0.27,0.31,0.53,0.23,0.42,0.53,0.44,0.37,0.44,0.42,0.31,0.43,0.37,0.27,0.37,0.31,0.27,0.42,0.23,0.53,0.51,0.25,0.25,0.51,0.69,0.23,0.51,0.3,0.23,0.31,0.53,0.43,0.23,0.55,0.44,0.55,0.51,0.31,0.53,0.51,0.43,0.23" style="fill:rgb(0,0,0);font-family:MinionPro-Regular;font-size:9.0px;stroke:none;"> nanotube (Fig. 3a), identified with characteristic hollow of the nanotube </text>
   <text y="642.499" x="155.638,159.618,164.615,169.475,171.761,178.062,180.476,183.384,188.298,190.584,195.444,197.993,201.973,209.417,213.35,216.15,220.083,223.53,225.816,230.408,233.18,235.466,239.446,242.777,247.379,252.266,257.262,262.122,264.408,268.836,273.264,277.692,278.965,283.996,291.475,293.761,296.983,301.852,304.372,308.721,310.881,313.17,317.598,322.278,325.5,327.66,329.946,334.637,339.524,343.063,345.972,350.851,354.784,358.231,360.517,364.45,369.528,371.94,375.92,379.297,383.547,387.526,392.386,394.672,398.561,401.414,403.7,406.608,411.488,415.421,417.707,421.687,426.547,430.796,434.729,437.015,439.535,444.566,446.852,451.721,454.241,458.589,460.749,463.039,467.467,471.382,473.542,475.828,480.742,483.262,487.646,492.56,495.872,499.204,503.137,506.621,511.258,513.537,518.317,521.217,523.737,528.329,533.36,535.646,541.307,546.527,554.546" svgx:width="0.44,0.55,0.53,0.23,0.69,0.27,0.31,0.53,0.23,0.53,0.27,0.44,0.82,0.43,0.31,0.43,0.37,0.23,0.51,0.3,0.23,0.44,0.37,0.51,0.53,0.55,0.53,0.23,0.48,0.48,0.48,0.23,0.55,0.82,0.23,0.35,0.53,0.27,0.47,0.23,0.23,0.48,0.51,0.35,0.23,0.23,0.53,0.53,0.37,0.31,0.53,0.43,0.37,0.23,0.43,0.55,0.25,0.44,0.37,0.47,0.43,0.53,0.23,0.44,0.31,0.23,0.31,0.53,0.43,0.23,0.43,0.53,0.47,0.43,0.23,0.27,0.55,0.23,0.53,0.27,0.47,0.23,0.23,0.48,0.42,0.23,0.23,0.53,0.27,0.47,0.53,0.36,0.37,0.43,0.37,0.51,0.25,0.53,0.31,0.27,0.51,0.55,0.23,0.62,0.57,0.89,0.23" style="fill:rgb(0,0,0);font-family:MinionPro-Regular;font-size:9.0px;stroke:none;">and with diameter of around 100 nm (Fig. 3b). Further enlarged at the edge in Fig. 3c, high-resolution TEM </text>
   <text y="652.498" x="155.638,158.725,165.592,170.866,176.392,181.477,189.469,192.556,194.419,196.804,204.121,208.0,212.113,215.911,219.187,221.05,223.606,228.25,232.093,236.818,240.094,242.479,247.303,251.488,253.351,257.806,262.702,264.565,267.337,272.08,275.878,277.741,282.484,286.282,288.946,292.744,295.939,300.502,303.679,305.866,310.618,315.479,319.321,322.084,324.469,328.924,333.82,335.683,338.878,342.676,346.906,349.291,353.746,358.642,360.505,365.23,367.588,370.819,375.446,377.722,381.485,385.589,387.452,390.197,396.263,400.826,402.689,407.414,409.772,413.003,415.766,418.151,423.011,426.853,429.571,431.434,434.782,438.58,441.298,444.574,446.437,450.892,453.529,455.392,457.669,461.422,464.05,466.813,469.198,472.978,476.776,478.639,481.366,484.732,487.117,491.941,496.054,499.852,501.715,504.946,509.68,513.604,517.384,519.769,524.594,528.779,530.642,534.539,537.815,539.678,543.971,545.996,550.289,554.609" svgx:width="0.35,0.77,0.62,0.62,0.57,0.89,0.35,0.23,0.27,0.82,0.44,0.47,0.43,0.37,0.23,0.3,0.51,0.42,0.53,0.37,0.27,0.55,0.47,0.23,0.51,0.55,0.23,0.31,0.53,0.43,0.23,0.53,0.43,0.31,0.43,0.37,0.51,0.36,0.26,0.53,0.55,0.42,0.31,0.27,0.51,0.55,0.23,0.37,0.43,0.47,0.27,0.51,0.55,0.23,0.53,0.27,0.37,0.52,0.25,0.44,0.46,0.23,0.31,0.69,0.51,0.23,0.53,0.27,0.37,0.31,0.27,0.55,0.42,0.31,0.23,0.37,0.43,0.31,0.37,0.23,0.51,0.3,0.23,0.25,0.44,0.31,0.31,0.27,0.42,0.43,0.23,0.3,0.37,0.27,0.55,0.47,0.43,0.23,0.37,0.52,0.44,0.42,0.27,0.55,0.47,0.23,0.44,0.37,0.23,0.48,0.23,0.48,0.48,0.23" style="fill:rgb(0,0,0);font-family:MinionPro-Regular;font-size:9.0px;stroke:none;">(HRTEM) images focusing on the hetero-junction region display two distinct sets of lattice fringe spacing as 0.27 </text>
   <text y="662.497" x="155.638,159.592,164.563,169.396,171.597,175.998,178.131,182.532,186.933,188.155,193.159,200.611,202.744,204.944,212.371,216.236,219.011,222.847,227.734,230.227,235.162,239.455,241.655,247.832,251.706,254.111,256.469,258.669,264.946,267.333,270.216,275.103,277.304,280.186,285.04,288.946,291.146,294.341,298.742,303.143,307.544,310.739,312.938,317.675,320.063,324.017,328.988,332.894,335.093,339.659,342.404,344.604,347.486,352.341,356.247,358.447,363.301,367.207,371.536,375.527,379.75,384.316,389.296,393.377,395.735" svgx:width="0.44,0.55,0.53,0.23,0.48,0.23,0.48,0.48,0.23,0.55,0.82,0.23,0.23,0.82,0.44,0.31,0.42,0.53,0.27,0.55,0.47,0.23,0.69,0.43,0.25,0.25,0.23,0.69,0.27,0.31,0.53,0.23,0.31,0.53,0.43,0.23,0.35,0.48,0.48,0.48,0.35,0.23,0.52,0.25,0.44,0.55,0.43,0.23,0.51,0.3,0.23,0.31,0.53,0.43,0.23,0.53,0.43,0.47,0.44,0.47,0.51,0.55,0.44,0.25,0.23" style="fill:rgb(0,0,0);font-family:MinionPro-Regular;font-size:9.0px;stroke:none;">and 0.35 nm, matching well with the (104) plane of the hexagonal </text>
   <text y="662.497" x="397.999" svgx:width="0.64" style="fill:rgb(0,0,0);font-family:EuclidSymbol;font-size:9.0px;stroke:none;">α</text>
   <text y="662.497" x="403.822,403.93,407.218,411.889" svgx:width="0.23,0.36,0.53,0.43" style="fill:rgb(0,0,0);font-family:MinionPro-Regular;font-size:9.0px;stroke:none;"> -Fe</text>
   <text y="664.3" x="415.799" svgx:width="0.48" style="fill:rgb(0,0,0);font-family:MinionPro-Regular;font-size:5.85px;stroke:none;">2</text>
   <text y="662.5" x="418.661" svgx:width="0.75" style="fill:rgb(0,0,0);font-family:MinionPro-Regular;font-size:9.0px;stroke:none;">O</text>
   <text y="664.3" x="425.468" svgx:width="0.48" style="fill:rgb(0,0,0);font-family:MinionPro-Regular;font-size:5.85px;stroke:none;">3</text>
   <text y="662.5" x="428.331,430.531,434.485,439.456,444.289,446.488,449.371,454.225,458.131,460.331,463.526,467.927,472.328,476.729,479.924,482.124,486.861,489.249,493.203,498.173,502.079,504.279,508.846,511.591,513.79,516.674,521.527,525.433,527.634,531.588,536.567,540.432,543.315,547.322,550.781,554.606" svgx:width="0.23,0.44,0.55,0.53,0.23,0.31,0.53,0.43,0.23,0.35,0.48,0.48,0.48,0.35,0.23,0.52,0.25,0.44,0.55,0.43,0.23,0.51,0.3,0.23,0.31,0.53,0.43,0.23,0.44,0.55,0.44,0.31,0.44,0.37,0.43,0.23" style="fill:rgb(0,0,0);font-family:MinionPro-Regular;font-size:9.0px;stroke:none;"> and the (101) plane of the anatase </text>
   <text y="672.499" x="155.64,160.995,163.353" svgx:width="0.62,0.27,0.75" style="fill:rgb(0,0,0);font-family:MinionPro-Regular;font-size:9.0px;stroke:none;">TiO</text>
   <text y="674.3" x="170.021" svgx:width="0.48" style="fill:rgb(0,0,0);font-family:MinionPro-Regular;font-size:5.85px;stroke:none;">2</text>
   <text y="672.5" x="172.795,174.793,176.476,179.644,183.415,186.62,191.364,195.18,198.996,201.732,204.027,208.069,211.804,213.965,217.385,219.383,221.066,227.133,231.561,234.9,238.069,241.84,245.044,249.787,254.216,259.05,263.748,266.106,270.903,275.061,276.744,280.065,283.8,286.023,289.839,293.656,296.293,300.11,304.808,306.491,310.308,313.476,317.301,321.198,322.881,326.617,328.84,332.657,336.473,339.209,342.378,346.806,351.675,354.033,357.786,359.469,364.167,366.525,371.61,374.895,378.792,382.609,385.345,387.703,392.131,397.0,398.683,401.743,405.955,412.12,417.178,423.379,425.377,427.06,431.767,434.125,438.31,440.308,441.991,446.257,450.955,454.015,455.698,460.406,464.132,466.734,469.372,473.143,476.482,481.351,483.034,485.698,490.423,493.798,496.544,501.26,505.031,508.316,509.999,513.752,518.18,523.049,527.81,531.15,538.395,541.644,543.327,546.073,550.789,554.614" svgx:width="0.23,0.23,0.37,0.43,0.37,0.52,0.43,0.42,0.31,0.27,0.46,0.43,0.25,0.46,0.23,0.23,0.67,0.51,0.37,0.37,0.43,0.37,0.52,0.51,0.55,0.53,0.27,0.55,0.47,0.23,0.37,0.43,0.25,0.43,0.42,0.31,0.43,0.53,0.23,0.44,0.37,0.43,0.44,0.23,0.43,0.25,0.43,0.42,0.31,0.37,0.51,0.55,0.27,0.42,0.23,0.53,0.27,0.56,0.37,0.44,0.42,0.31,0.27,0.51,0.55,0.23,0.35,0.47,0.69,0.57,0.74,0.23,0.23,0.53,0.27,0.47,0.23,0.23,0.48,0.53,0.35,0.23,0.52,0.44,0.31,0.31,0.43,0.37,0.55,0.23,0.3,0.53,0.37,0.31,0.53,0.43,0.37,0.23,0.42,0.51,0.55,0.54,0.37,0.82,0.37,0.23,0.31,0.53,0.43,0.23" style="fill:rgb(0,0,0);font-family:MinionPro-Regular;font-size:9.0px;stroke:none;">, respectively. Corresponding selected area electronic diffraction (SAED, Fig. 3d) pattern further confirms the </text>
   <text y="682.499" x="155.641,159.385,163.846,168.55,172.312,175.469,179.231,183.917,186.599,188.273,192.035,196.22,198.539,201.732,204.358,208.12,212.941,216.685,220.447,222.121,226.537,229.138,230.812,236.84,240.563,242.819,245.033,248.174,251.918,255.452,259.52,262.712,265.445,269.376,271.632,273.846,276.195,279.912,283.715,288.404,290.078,295.422,297.771" svgx:width="0.42,0.51,0.53,0.43,0.37,0.43,0.55,0.31,0.23,0.43,0.47,0.27,0.37,0.31,0.43,0.55,0.42,0.43,0.23,0.51,0.3,0.23,0.69,0.43,0.25,0.25,0.36,0.42,0.37,0.46,0.37,0.31,0.44,0.25,0.25,0.27,0.42,0.43,0.53,0.23,0.62,0.27,0.75" style="fill:rgb(0,0,0);font-family:MinionPro-Regular;font-size:9.0px;stroke:none;">coherent existence of well-crystallized TiO</text>
   <text y="684.3" x="304.366" svgx:width="0.48" style="fill:rgb(0,0,0);font-family:MinionPro-Regular;font-size:5.85px;stroke:none;">2</text>
   <text y="682.5" x="307.131,308.805,312.61,317.431,322.117,323.791,328.318" svgx:width="0.23,0.44,0.55,0.53,0.23,0.53,0.43" style="fill:rgb(0,0,0);font-family:MinionPro-Regular;font-size:9.0px;stroke:none;"> and Fe</text>
   <text y="684.3" x="332.069" svgx:width="0.48" style="fill:rgb(0,0,0);font-family:MinionPro-Regular;font-size:5.85px;stroke:none;">2</text>
   <text y="682.5" x="334.835" svgx:width="0.75" style="fill:rgb(0,0,0);font-family:MinionPro-Regular;font-size:9.0px;stroke:none;">O</text>
   <text y="684.3" x="341.492" svgx:width="0.48" style="fill:rgb(0,0,0);font-family:MinionPro-Regular;font-size:5.85px;stroke:none;">3</text>
   <text y="682.5" x="344.258,345.932,349.124,351.848,355.212,359.928,363.732,366.321,371.037,374.194,377.956,381.196,383.185,384.859,388.052,392.768,396.969,401.043,404.805,407.997,410.722,413.071,417.857,422.006,423.68,426.414,431.118,434.88,436.554,439.748,444.464,448.208,451.952,455.714,458.906,462.146,463.82,468.227,472.943,475.334,477.548,482.237,484.586,489.372,493.521,495.195,499.611,502.212,503.886,506.235,510.921,513.646,515.995,523.273,526.988,529.613,533.375,535.049,537.398,542.085,544.71,548.472,551.438" svgx:width="0.23,0.37,0.31,0.37,0.53,0.42,0.31,0.53,0.37,0.43,0.37,0.23,0.23,0.37,0.53,0.47,0.47,0.43,0.37,0.31,0.27,0.55,0.47,0.23,0.31,0.53,0.43,0.23,0.37,0.53,0.42,0.42,0.43,0.37,0.37,0.23,0.51,0.53,0.27,0.25,0.53,0.27,0.55,0.47,0.23,0.51,0.3,0.23,0.27,0.55,0.31,0.27,0.82,0.44,0.31,0.43,0.23,0.27,0.55,0.31,0.43,0.37,0.36" style="fill:rgb(0,0,0);font-family:MinionPro-Regular;font-size:9.0px;stroke:none;"> structures, suggesting the success building of intimate inter-</text>
   <text y="692.499" x="155.645,159.641,163.552,166.384,168.841,173.366,178.334,180.386,184.208,186.998,189.05,191.89,196.703,200.573,202.625,205.082,209.875,212.608,216.478,219.913,222.622,226.618,230.47,234.282,236.379,238.431,248.076,251.945,253.997,258.585,263.055,267.291,269.748,274.281,279.075,282.384,284.64,288.816,290.868,294.167,299.006,303.539,306.236,308.969,312.881,317.678,319.73,324.527,326.984,332.164,335.548,339.544,343.457,346.288,348.745,353.268,358.236,360.288,363.724,366.181,371.074,375.331,378.679,380.731,384.643,387.907,391.777,393.829,396.286,401.254,403.306,409.441,413.271,415.636,417.958,420.01,423.862,428.385,431.82,435.085,438.955,442.255,447.093,451.618,456.546,461.343,465.213,470.142,473.994,477.864,479.916,486.151,488.496,491.337,496.188,498.24,501.399,505.764,510.129,514.494,517.653,519.705,523.617,528.547,533.344,535.396,538.555,542.92,547.285,551.65,554.764" svgx:width="0.44,0.42,0.31,0.27,0.51,0.55,0.23,0.44,0.31,0.23,0.31,0.53,0.43,0.23,0.27,0.55,0.31,0.43,0.37,0.3,0.44,0.42,0.43,0.23,0.23,1.07,0.43,0.23,0.51,0.51,0.46,0.27,0.51,0.53,0.37,0.25,0.46,0.23,0.37,0.52,0.51,0.31,0.31,0.43,0.53,0.23,0.53,0.27,0.56,0.37,0.44,0.42,0.31,0.27,0.51,0.55,0.23,0.37,0.27,0.55,0.47,0.37,0.23,0.44,0.37,0.43,0.23,0.27,0.55,0.23,0.69,0.43,0.25,0.25,0.23,0.42,0.51,0.37,0.37,0.43,0.37,0.52,0.51,0.55,0.53,0.43,0.55,0.42,0.43,0.23,0.69,0.27,0.31,0.53,0.23,0.35,0.48,0.48,0.48,0.35,0.23,0.44,0.55,0.53,0.23,0.35,0.48,0.48,0.48,0.35,0.23" style="fill:rgb(0,0,0);font-family:MinionPro-Regular;font-size:9.0px;stroke:none;">action at the interface. The obviously spotted diffraction rings are in well correspondence with (110) and (211) </text>
   <text y="702.498" x="155.645,160.353,162.711,166.636,171.578,175.457,178.814,180.911,185.448,188.166" svgx:width="0.52,0.25,0.44,0.55,0.43,0.37,0.23,0.51,0.3,0.23" style="fill:rgb(0,0,0);font-family:MinionPro-Regular;font-size:9.0px;stroke:none;">planes of </text>
   <text y="702.498" x="190.263" svgx:width="0.64" style="fill:rgb(0,0,0);font-family:EuclidSymbol-Italic;font-size:9.0px;stroke:none;">α</text>
   <text y="702.498" x="196.091,199.35,203.994" svgx:width="0.36,0.53,0.43" style="fill:rgb(0,0,0);font-family:MinionPro-Regular;font-size:9.0px;stroke:none;">-Fe</text>
   <text y="704.3" x="207.867" svgx:width="0.48" style="fill:rgb(0,0,0);font-family:MinionPro-Regular;font-size:5.85px;stroke:none;">2</text>
   <text y="702.5" x="210.71" svgx:width="0.75" style="fill:rgb(0,0,0);font-family:MinionPro-Regular;font-size:9.0px;stroke:none;">O</text>
   <text y="704.3" x="217.488" svgx:width="0.48" style="fill:rgb(0,0,0);font-family:MinionPro-Regular;font-size:5.85px;stroke:none;">3</text>
   <text y="702.5" x="220.332,222.438,224.535,227.281,231.924,236.119,239.998,242.851,247.676,251.555,254.948,257.045,263.292,265.651,268.505,273.365,275.462,278.316,283.141,287.02,289.117,292.285,296.659,301.033,305.407,308.575,310.672,314.597,319.539,324.345,326.441,329.609,333.983,338.357,342.731,345.899,347.996,352.704,355.063,358.988,363.93,367.809,371.166,373.263,377.8,380.518,382.615,386.54,391.491,395.326,398.18,402.158,405.587,409.466,411.563,417.027,419.493" svgx:width="0.23,0.23,0.31,0.51,0.47,0.43,0.31,0.53,0.43,0.37,0.23,0.69,0.27,0.31,0.53,0.23,0.31,0.53,0.43,0.23,0.35,0.48,0.48,0.48,0.35,0.23,0.44,0.55,0.53,0.23,0.35,0.48,0.48,0.48,0.35,0.23,0.52,0.25,0.44,0.55,0.43,0.37,0.23,0.51,0.3,0.23,0.44,0.55,0.44,0.31,0.44,0.37,0.43,0.23,0.62,0.27,0.75" style="fill:rgb(0,0,0);font-family:MinionPro-Regular;font-size:9.0px;stroke:none;">, together with the (211) and (200) planes of anatase TiO</text>
   <text y="704.3" x="426.299" svgx:width="0.48" style="fill:rgb(0,0,0);font-family:MinionPro-Regular;font-size:5.85px;stroke:none;">2</text>
   <text y="702.5" x="429.142,431.248,433.345,439.628,444.488,446.954,450.762,455.622,457.719,460.159,463.516,465.613,469.474,474.011,478.917,482.274,484.714,488.026,490.772,494.651,499.458,502.257,504.354,510.601,512.96,515.814,520.674,522.771,525.624,530.449,534.328,536.425,542.365,548.008,554.623" svgx:width="0.23,0.23,0.69,0.53,0.27,0.42,0.53,0.23,0.27,0.37,0.23,0.42,0.51,0.55,0.37,0.27,0.37,0.31,0.43,0.55,0.31,0.23,0.69,0.27,0.31,0.53,0.23,0.31,0.53,0.43,0.23,0.65,0.62,0.74,0.23" style="fill:rgb(0,0,0);font-family:MinionPro-Regular;font-size:9.0px;stroke:none;">, which is consistent with the XRD </text>
   <text y="712.499" x="155.641,159.509,164.404,168.398,170.61,174.741,178.044,180.427,183.73,185.782,187.721,195.504,199.984,203.204,207.073,211.517,215.61,219.435,222.205,224.257,226.196,229.983,232.26,236.085,243.418,247.243,251.993,254.738,256.677,264.019,267.797,272.413,277.019,279.431,284.28,288.492,290.431,294.911,297.575,299.514,304.275,306.687,310.924,312.976,314.915,319.235,321.899,326.579,328.991,330.931,335.683,339.508,342.899,345.246,349.339,353.207,357.959,359.899,362.651,365.871,370.352,377.723,379.661,384.438,388.307,391.608,396.072,399.276,404.091,407.878,410.155,414.907,416.846,421.003,426.115,434.134,436.072,439.186,443.947,446.359,450.596,452.648,454.587,458.907,462.732,465.846,467.785,471.592,476.072,480.995,485.81,489.201,496.498,499.801,501.74,504.537,509.314,513.092,515.837,517.777,521.771,524.09,526.367,528.307,531.104,535.872,539.697,541.637,545.424,547.701,551.526" svgx:width="0.44,0.55,0.44,0.25,0.46,0.37,0.27,0.37,0.23,0.23,0.89,0.51,0.37,0.43,0.51,0.46,0.43,0.37,0.23,0.23,0.43,0.25,0.43,0.82,0.43,0.55,0.31,0.23,0.82,0.44,0.52,0.52,0.27,0.55,0.47,0.23,0.51,0.3,0.23,0.53,0.27,0.47,0.23,0.23,0.48,0.3,0.52,0.27,0.23,0.53,0.43,0.37,0.27,0.46,0.43,0.53,0.23,0.3,0.37,0.51,0.82,0.23,0.53,0.44,0.37,0.5,0.36,0.54,0.43,0.25,0.53,0.23,0.47,0.57,0.89,0.23,0.35,0.53,0.27,0.47,0.23,0.23,0.48,0.43,0.35,0.23,0.42,0.51,0.55,0.54,0.37,0.82,0.37,0.23,0.31,0.53,0.44,0.31,0.23,0.44,0.25,0.25,0.23,0.31,0.53,0.43,0.23,0.43,0.25,0.43,0.36" style="fill:rgb(0,0,0);font-family:MinionPro-Regular;font-size:9.0px;stroke:none;">analysis. Moreover, element mapping of Fig. 3f–i derived from dark-field SEM (Fig. 3e) confirms that all the ele-</text>
   <text y="722.498" x="155.641,162.921,166.692,171.39,174.081,177.33,179.013,182.828,185.996,189.767,191.45,196.166,200.593,207.874,212.41,216.495,220.266,225.098,228.913,233.35,238.047,241.259,243.419,247.496,249.179,253.877,256.207,259.411,264.153,267.924,271.154,274.474,278.29,282.988,284.671,290.808,293.057,295.801,300.553,302.911,307.78,309.463,312.207,316.922,320.693,322.376,326.768,330.808,334.579,337.864,341.806,344.073,346.296,347.979,352.82,356.636,361.469,365.905,368.505,373.194,377.792,381.508,383.506,385.189,387.852,390.543,392.226,394.557,397.806,399.489,404.321,408.757,411.394,415.209,419.907,421.59,424.334,429.059,432.785,435.476,437.159,441.857,444.187,447.391,450.126,453.464,455.785,460.204,464.82,467.555,469.913,474.341,479.137,482.386,484.069,488.496,491.106,492.789,497.325,501.096,502.779,506.595,511.427,516.125,517.808,524.477,526.16,529.913,534.341,539.21,543.971,547.309,554.68" svgx:width="0.82,0.43,0.55,0.31,0.37,0.23,0.44,0.37,0.43,0.23,0.53,0.51,0.82,0.51,0.47,0.43,0.55,0.43,0.51,0.53,0.37,0.25,0.46,0.23,0.53,0.27,0.37,0.52,0.43,0.37,0.37,0.43,0.53,0.23,0.69,0.27,0.31,0.53,0.27,0.55,0.23,0.31,0.53,0.43,0.23,0.51,0.46,0.43,0.37,0.44,0.25,0.25,0.23,0.55,0.44,0.55,0.51,0.31,0.53,0.51,0.43,0.23,0.23,0.34,0.31,0.23,0.27,0.37,0.23,0.55,0.51,0.31,0.43,0.53,0.23,0.31,0.53,0.44,0.31,0.23,0.53,0.27,0.37,0.31,0.37,0.27,0.51,0.53,0.31,0.27,0.51,0.55,0.37,0.23,0.51,0.3,0.23,0.53,0.43,0.23,0.44,0.55,0.53,0.23,0.75,0.23,0.42,0.51,0.55,0.54,0.37,0.82,0.23" style="fill:rgb(0,0,0);font-family:MinionPro-Regular;font-size:9.0px;stroke:none;">ments are homogeneously dispersed within the overall nanotube. It is noted that distributions of Fe and O confirm </text>
   <text y="732.497" x="155.641,159.556,161.257,167.411,170.714,174.457,179.036,183.795,187.628,192.344,194.045,198.615,200.991,204.823,207.442,212.185,215.369,219.158,220.859,224.692,227.876,232.33,237.073,241.922,246.638,248.339,251.101,255.834,259.623,261.324,265.075,267.316,271.105,278.402,282.191,286.906,289.615,291.316,295.76,298.388,300.089,305.461,307.782,309.798,311.499,316.069,319.254,323.662,327.818,330.194,334.91,337.286,342.1,346.276,347.977,351.81,356.659,361.113,363.874,368.606,372.395,375.698,377.399,381.258,385.415,387.791,392.507,396.296,401.145,404.916,408.705,410.406,412.951,417.395,420.698,422.399,425.161,429.893,433.682,435.383,439.936" svgx:width="0.44,0.23,0.69,0.37,0.44,0.52,0.52,0.43,0.53,0.23,0.52,0.27,0.42,0.31,0.53,0.37,0.43,0.23,0.44,0.37,0.51,0.53,0.55,0.53,0.23,0.31,0.53,0.43,0.23,0.43,0.25,0.43,0.82,0.43,0.55,0.31,0.23,0.51,0.3,0.23,0.62,0.27,0.23,0.23,0.52,0.37,0.51,0.46,0.27,0.53,0.27,0.55,0.47,0.23,0.44,0.55,0.51,0.31,0.53,0.43,0.37,0.23,0.43,0.46,0.27,0.53,0.43,0.55,0.42,0.43,0.23,0.3,0.51,0.37,0.23,0.31,0.53,0.43,0.23,0.53,0.43" style="fill:rgb(0,0,0);font-family:MinionPro-Regular;font-size:9.0px;stroke:none;">a wrapped picture around the element of Ti, providing another evidence for the Fe</text>
   <text y="734.3" x="443.654" svgx:width="0.48" style="fill:rgb(0,0,0);font-family:MinionPro-Regular;font-size:5.85px;stroke:none;">2</text>
   <text y="732.5" x="446.438" svgx:width="0.75" style="fill:rgb(0,0,0);font-family:MinionPro-Regular;font-size:9.0px;stroke:none;">O</text>
   <text y="734.3" x="453.123" svgx:width="0.48" style="fill:rgb(0,0,0);font-family:MinionPro-Regular;font-size:5.85px;stroke:none;">3</text>
   <text y="732.5" x="455.907,459.075,462.846,467.443,471.185,473.838,477.671,482.387,484.088,487.859,492.304,495.489,499.278,502.446,505.675,510.408,514.159,516.443,518.685,520.385,523.607,526.359,529.75,534.493,538.325,540.943,545.686,548.87,552.605" svgx:width="0.36,0.42,0.51,0.44,0.31,0.43,0.53,0.23,0.42,0.51,0.37,0.43,0.36,0.37,0.53,0.43,0.25,0.25,0.23,0.37,0.31,0.37,0.53,0.42,0.31,0.53,0.37,0.43,0.23" style="fill:rgb(0,0,0);font-family:MinionPro-Regular;font-size:9.0px;stroke:none;">-coated core-shell structure.</text>
  </g>
  <rect style="stroke:blue;stroke-width:0.3;" x="155.638" y="64.138" height="267.24" width="396.0" title="3"/>
  <text y="64.138" class="image" id="image.3.1" width="396" height="267" x="155.638">image.3.1.156_552.64_331</text>
  <path style="fill:none;stroke:rgb(131,144,151);stroke-width:0.3;" d="M159.130 362.280 L552.640 362.280 "/>
  <path style="fill:none;stroke:rgb(131,144,151);stroke-width:1.0;" d="M156.140 362.280 L156.140 362.280 M554.140 362.280 L554.140 362.280 "/>
  <g begin="text">
   <text y="332.283" x="155.638,160.552,163.207,167.662,172.657,176.221,180.154,181.909,186.409" svgx:width="0.55,0.29,0.49,0.56,0.4,0.44,0.22,0.5,0.25" style="fill:rgb(0,0,0);font-family:MinionPro-Bold;font-size:9.0px;stroke:none;">Figure 2.</text>
   <text y="332.283" x="188.695,190.765,193.195" svgx:width="0.23,0.55,0.35" style="fill:rgb(0,0,0);font-family:MinionPro-Regular;font-size:9.0px;stroke:none;"> (</text>
   <text y="332.283" x="196.309" svgx:width="0.47" style="fill:rgb(0,0,0);font-family:MinionPro-Bold;font-size:9.0px;stroke:none;">a</text>
   <text y="332.283" x="200.503,203.617,205.453,211.339,216.928,223.543,225.379,230.139,233.919,236.574,239.265,243.09,246.483,251.334,254.637,256.473,260.955,263.619,265.455,270.864,273.276" svgx:width="0.35,0.23,0.65,0.62,0.74,0.23,0.52,0.44,0.31,0.31,0.43,0.37,0.55,0.37,0.23,0.51,0.3,0.23,0.62,0.27,0.75" style="fill:rgb(0,0,0);font-family:MinionPro-Regular;font-size:9.0px;stroke:none;">) XRD patterns of TiO</text>
   <text y="334.083" x="280.011" svgx:width="0.48" style="fill:rgb(0,0,0);font-family:MinionPro-Regular;font-size:5.85px;stroke:none;">2</text>
   <text y="332.283" x="282.819,289.596,294.186" svgx:width="0.75,0.53,0.43" style="fill:rgb(0,0,0);font-family:MinionPro-Regular;font-size:9.0px;stroke:none;">@Fe</text>
   <text y="334.083" x="298.011" svgx:width="0.48" style="fill:rgb(0,0,0);font-family:MinionPro-Regular;font-size:5.85px;stroke:none;">2</text>
   <text y="332.283" x="300.819" svgx:width="0.75" style="fill:rgb(0,0,0);font-family:MinionPro-Regular;font-size:9.0px;stroke:none;">O</text>
   <text y="334.083" x="307.542" svgx:width="0.48" style="fill:rgb(0,0,0);font-family:MinionPro-Regular;font-size:5.85px;stroke:none;">3</text>
   <text y="332.283" x="310.35,312.186,317.082,320.952,325.839,330.33,332.985,337.728,342.381,346.206,348.042,351.913,355.305,358.644,362.433,366.564,369.867,371.703,377.895,380.199,382.998,387.804,389.64,394.392,396.804,401.772,405.597,408.818,412.643,417.395,420.14,421.976,425.783,430.418,434.198,436.988,439.4,444.251,448.463,450.299,452.576,457.247,461.738,466.454,469.757,471.809,473.645" svgx:width="0.23,0.55,0.44,0.55,0.51,0.31,0.53,0.51,0.43,0.23,0.44,0.37,0.37,0.44,0.46,0.37,0.23,0.69,0.27,0.31,0.53,0.23,0.53,0.27,0.56,0.43,0.37,0.43,0.55,0.31,0.23,0.42,0.51,0.44,0.31,0.27,0.55,0.47,0.23,0.25,0.51,0.51,0.52,0.37,0.23,0.23,0.35" style="fill:rgb(0,0,0);font-family:MinionPro-Regular;font-size:9.0px;stroke:none;"> nanotube arrays with different coating loops. (</text>
   <text y="332.283" x="476.759" svgx:width="0.53" style="fill:rgb(0,0,0);font-family:MinionPro-Bold;font-size:9.0px;stroke:none;">b</text>
   <text y="332.283" x="481.565" svgx:width="0.23" style="fill:rgb(0,0,0);font-family:MinionPro-Regular;font-size:9.0px;stroke:none;">,</text>
   <text y="332.283" x="483.617" svgx:width="0.42" style="fill:rgb(0,0,0);font-family:MinionPro-Bold;font-size:9.0px;stroke:none;">c</text>
   <text y="332.283" x="487.415,490.529,492.365,496.523,501.635,509.654,511.49,513.902,521.246,525.152,529.292,533.117,536.42,538.256,542.738,545.402" svgx:width="0.35,0.23,0.47,0.57,0.89,0.23,0.27,0.82,0.44,0.47,0.43,0.37,0.23,0.51,0.3,0.23" style="fill:rgb(0,0,0);font-family:MinionPro-Regular;font-size:9.0px;stroke:none;">) SEM images of </text>
   <text y="342.282" x="155.64,158.862,162.687,167.295,170.517,174.342,177.717,181.542,186.293,189.092,192.872,195.662,198.011,202.106,205.931,207.767,213.176,215.588" svgx:width="0.37,0.43,0.52,0.37,0.43,0.37,0.43,0.55,0.31,0.44,0.31,0.27,0.46,0.43,0.23,0.62,0.27,0.75" style="fill:rgb(0,0,0);font-family:MinionPro-Regular;font-size:9.0px;stroke:none;">representative TiO</text>
   <text y="344.083" x="222.312" svgx:width="0.48" style="fill:rgb(0,0,0);font-family:MinionPro-Regular;font-size:5.85px;stroke:none;">2</text>
   <text y="342.283" x="225.12,231.897,236.487" svgx:width="0.75,0.53,0.43" style="fill:rgb(0,0,0);font-family:MinionPro-Regular;font-size:9.0px;stroke:none;">@Fe</text>
   <text y="344.083" x="240.311" svgx:width="0.48" style="fill:rgb(0,0,0);font-family:MinionPro-Regular;font-size:5.85px;stroke:none;">2</text>
   <text y="342.283" x="243.119" svgx:width="0.75" style="fill:rgb(0,0,0);font-family:MinionPro-Regular;font-size:9.0px;stroke:none;">O</text>
   <text y="344.083" x="249.842" svgx:width="0.48" style="fill:rgb(0,0,0);font-family:MinionPro-Regular;font-size:5.85px;stroke:none;">3</text>
   <text y="342.283" x="252.65,255.854,260.174,264.494,268.814,270.65,274.007,277.877,285.077,289.73,292.007,295.832,297.668,301.538,306.425,311.177,313.013" svgx:width="0.36,0.48,0.48,0.48,0.23,0.37,0.44,0.82,0.52,0.25,0.43,0.23,0.44,0.55,0.53,0.23,0.35" style="fill:rgb(0,0,0);font-family:MinionPro-Regular;font-size:9.0px;stroke:none;">-600 sample and (</text>
   <text y="342.283" x="316.127" svgx:width="0.55" style="fill:rgb(0,0,0);font-family:MinionPro-Bold;font-size:9.0px;stroke:none;">d</text>
   <text y="342.283" x="321.05,324.164,326.0,328.799,333.569,337.394,339.23,343.037,346.259,350.849,354.107,357.41,360.614,363.989,367.858,371.728,374.518,376.93,381.412,386.335,388.387,390.223,396.892,401.419,403.741,406.018,410.464,416.629,418.465,420.877,425.629,428.32,432.145,435.538,437.95,442.432,445.771,447.607,451.414,455.896,460.747,464.005,466.794,470.223,475.002,478.872,481.662,484.074,488.556,493.479,495.315,499.149,503.019,507.942,509.778,514.431,518.256,520.092,524.844,528.669,531.36,535.23,539.1,541.791,545.661,550.413" svgx:width="0.35,0.23,0.31,0.53,0.43,0.23,0.42,0.37,0.51,0.37,0.37,0.36,0.37,0.43,0.42,0.31,0.27,0.51,0.55,0.23,0.23,0.77,0.51,0.25,0.25,0.51,0.69,0.23,0.27,0.55,0.31,0.43,0.37,0.27,0.51,0.37,0.23,0.42,0.51,0.55,0.37,0.31,0.37,0.53,0.42,0.31,0.27,0.51,0.55,0.23,0.42,0.44,0.55,0.23,0.51,0.43,0.23,0.53,0.43,0.31,0.43,0.42,0.31,0.43,0.53,0.23" style="fill:rgb(0,0,0);font-family:MinionPro-Regular;font-size:9.0px;stroke:none;">) the cross-section. Hollow interior construction can be detected </text>
   <text y="352.282" x="155.639,158.051,162.974,164.81" svgx:width="0.27,0.55,0.23,0.35" style="fill:rgb(0,0,0);font-family:MinionPro-Regular;font-size:9.0px;stroke:none;">in (</text>
   <text y="352.282" x="167.924" svgx:width="0.42" style="fill:rgb(0,0,0);font-family:MinionPro-Bold;font-size:9.0px;stroke:none;">c</text>
   <text y="352.282" x="171.722,174.836" svgx:width="0.35,0.23" style="fill:rgb(0,0,0);font-family:MinionPro-Regular;font-size:9.0px;stroke:none;">).</text>
  </g>
 </g>
</svg>
