<?xml version="1.0" encoding="UTF-8"?>
<svg height="774.23" width="4165.638" xmlns="http://www.w3.org/2000/svg">
 <g id="page" xmlns:svgx="http://www.xml-cml.org/schema/svgx">
  <g begin="text">
   <text y="22.46" x="40.638,48.208,55.778,63.055,66.145,71.865,77.215,81.135,86.765,90.565,95.995,99.085,103.915,109.695,118.435,121.635,126.125,130.955,133.725,139.15,144.87,148.79,151.56,155.19,157.96,162.79,166.59,172.02,177.78,183.56,187.36,191.28,195.77" svgx:width="0.71,0.71,0.71,0.26,0.53,0.49,0.35,0.52,0.34,0.5,0.26,0.44,0.53,0.83,0.28,0.4,0.44,0.23,0.5,0.53,0.35,0.23,0.32,0.23,0.44,0.34,0.5,0.53,0.53,0.34,0.35,0.4,0.28" style="fill:rgb(255,255,255);font-family:Corbel;font-size:10.0px;stroke:none;">www.nature.com/scientificreports/</text>
  </g>
  <g begin="text">
   <text y="764.23" x="549.393" svgx:width="0.52" style="fill:rgb(131,144,151);font-family:Corbel;font-size:10.0px;stroke:none;">6</text>
  </g>
  <g begin="text">
   <text y="764.193" x="40.794,45.642,50.786,53.186,58.026,64.026,68.898,71.298,75.762,78.162" svgx:width="0.55,0.59,0.25,0.55,0.7,0.56,0.25,0.5,0.25,0.59" style="fill:rgb(131,144,151);font-family:Corbel;font-size:8.0px;stroke:none;">Scientific</text>
   <text y="764.193" x="83.162" svgx:width="0.2" style="fill:rgb(0,0,0);font-family:Corbel;font-size:8.0px;stroke:none;"> </text>
   <text y="764.193" x="84.762,90.218,95.194,100.434,106.738,112.194,117.186" svgx:width="0.63,0.57,0.6,0.73,0.63,0.57,0.58" style="fill:rgb(131,144,151);font-family:Corbel-Bold;font-size:8.0px;stroke:none;">RepoRts</text>
   <text y="764.193" x="122.082,123.524,125.34,126.781,130.885,132.997,137.101,141.205,145.309,149.413,153.517,154.945,156.761,158.203,163.571,169.411,171.379,173.491,174.93,179.034,183.138,185.25,189.354,193.458,197.562,201.666,203.866,207.098,209.778,213.762,218.01,222.114,226.218,230.322,234.426" svgx:width="0.2,0.23,0.2,0.51,0.26,0.51,0.51,0.51,0.51,0.51,0.2,0.23,0.2,0.67,0.73,0.25,0.26,0.2,0.51,0.51,0.26,0.51,0.51,0.51,0.51,0.28,0.4,0.34,0.5,0.53,0.51,0.51,0.51,0.51,0.51" style="fill:rgb(0,0,0);font-family:Corbel;font-size:8.0px;stroke:none;"> | 7:40927 | DOI: 10.1038/srep40927</text>
  </g>
  <path style="fill:none;stroke:rgb(0,0,0);stroke-width:1.0;" d="M40.640 752.550 L554.640 752.550 "/>
  <g begin="text">
   <text y="434.5" x="167.638,172.228,176.71,180.049,181.948,185.755,190.237,197.437,202.045,205.267,209.055,213.826,217.651,222.501,225.804,228.153,232.248,236.073,237.972,242.751,247.638,252.39,256.215,259.5,262.758,265.557,269.427,274.314,279.066,281.478,286.329,290.541,292.44,296.922,299.586,301.485,305.274,307.551,311.42,315.29,318.08,321.302,325.973,329.726,334.495,338.32,345.691,348.103,351.937,355.933,358.21,360.109,364.905,368.73,372.123,374.706,379.188,382.581,389.925,393.795,398.682,402.489,406.26,408.312,410.211,413.55,417.33,420.021,423.846,425.745,429.578,433.358,438.12,441.999,446.462,448.919,451.197,453.5,456.272,460.404,462.302,464.993,468.819,472.076,474.821,478.124,480.023,486.116,489.941,493.163,496.988,498.887,502.694,507.176,512.063,516.707,521.486,525.356,528.047,531.917,536.669,538.568,544.76,547.064,549.863,554.669" svgx:width="0.53,0.51,0.37,0.23,0.42,0.51,0.82,0.52,0.37,0.43,0.53,0.43,0.55,0.37,0.27,0.46,0.43,0.23,0.53,0.55,0.53,0.43,0.37,0.37,0.31,0.44,0.55,0.53,0.27,0.55,0.47,0.23,0.51,0.3,0.23,0.43,0.25,0.43,0.42,0.31,0.37,0.51,0.42,0.53,0.43,0.82,0.27,0.42,0.44,0.25,0.23,0.52,0.43,0.37,0.3,0.51,0.37,0.82,0.44,0.55,0.42,0.43,0.23,0.23,0.37,0.44,0.31,0.43,0.23,0.42,0.44,0.52,0.44,0.51,0.27,0.25,0.27,0.31,0.46,0.23,0.31,0.43,0.37,0.31,0.37,0.23,0.69,0.43,0.37,0.43,0.23,0.42,0.51,0.55,0.53,0.53,0.42,0.31,0.43,0.53,0.23,0.69,0.27,0.31,0.53,0.23" style="fill:rgb(0,0,0);font-family:MinionPro-Regular;font-size:9.0px;stroke:none;">For comprehensive understanding of electrochemical performance, rate capability tests were conducted with </text>
   <text y="444.499" x="155.641,160.492,163.003,168.066,171.986,175.303,179.227,184.075,186.914,189.083,193.048,197.926,201.414,204.732,208.656,213.502,216.346,218.515,223.361,227.285,232.232,235.634,238.033,240.918,243.429,247.353,250.755,252.924,255.773,259.09,263.667,271.137,273.306,277.725,279.876,284.295,285.475,291.793,293.008" svgx:width="0.53,0.27,0.56,0.43,0.37,0.43,0.55,0.31,0.23,0.42,0.53,0.37,0.37,0.43,0.55,0.31,0.23,0.53,0.43,0.55,0.37,0.27,0.31,0.27,0.43,0.37,0.23,0.3,0.37,0.51,0.82,0.23,0.48,0.23,0.48,0.23,0.69,0.23,0.47" style="fill:rgb(0,0,0);font-family:MinionPro-Regular;font-size:9.0px;stroke:none;">different current densities from 0.1 A g</text>
   <text y="441.44" x="297.313" svgx:width="0.78" style="fill:rgb(0,0,0);font-family:EuclidSymbol;font-size:5.85px;stroke:none;">−</text>
   <text y="441.44" x="301.935" svgx:width="0.48" style="fill:rgb(0,0,0);font-family:MinionPro-Regular;font-size:5.85px;stroke:none;">1</text>
   <text y="444.5" x="304.803,306.974,309.761,314.45,316.622,321.037,325.456,326.68,332.998,334.222" svgx:width="0.23,0.31,0.51,0.23,0.48,0.48,0.23,0.69,0.23,0.47" style="fill:rgb(0,0,0);font-family:MinionPro-Regular;font-size:9.0px;stroke:none;"> to 10 A g</text>
   <text y="441.44" x="338.511" svgx:width="0.78" style="fill:rgb(0,0,0);font-family:EuclidSymbol;font-size:5.85px;stroke:none;">−</text>
   <text y="441.44" x="343.132" svgx:width="0.48" style="fill:rgb(0,0,0);font-family:MinionPro-Regular;font-size:5.85px;stroke:none;">1</text>
   <text y="444.5" x="346.0,348.169,351.382,356.242,358.753,363.087,365.238,367.41,371.825,376.496,379.709,381.86,384.029,386.842,389.686,391.855,394.336,397.738,399.907,403.831,408.813,412.719,417.305,422.183,425.621,429.622,433.973,436.484,441.431,445.742,447.911,450.805,455.68,459.555,462.399,464.568,470.072,472.579" svgx:width="0.23,0.35,0.53,0.27,0.47,0.23,0.23,0.48,0.51,0.35,0.23,0.23,0.34,0.31,0.23,0.27,0.37,0.23,0.43,0.55,0.42,0.51,0.53,0.37,0.44,0.47,0.27,0.55,0.47,0.23,0.31,0.53,0.44,0.31,0.23,0.62,0.27,0.75" style="fill:rgb(0,0,0);font-family:MinionPro-Regular;font-size:9.0px;stroke:none;"> (Fig. 5b). It is encouraging that TiO</text>
   <text y="446.3" x="479.357" svgx:width="0.48" style="fill:rgb(0,0,0);font-family:MinionPro-Regular;font-size:5.85px;stroke:none;">2</text>
   <text y="444.5" x="482.227,489.099,493.784" svgx:width="0.75,0.53,0.43" style="fill:rgb(0,0,0);font-family:MinionPro-Regular;font-size:9.0px;stroke:none;">@Fe</text>
   <text y="446.3" x="497.704" svgx:width="0.48" style="fill:rgb(0,0,0);font-family:MinionPro-Regular;font-size:5.85px;stroke:none;">2</text>
   <text y="444.5" x="500.574" svgx:width="0.75" style="fill:rgb(0,0,0);font-family:MinionPro-Regular;font-size:9.0px;stroke:none;">O</text>
   <text y="446.3" x="507.393" svgx:width="0.48" style="fill:rgb(0,0,0);font-family:MinionPro-Regular;font-size:5.85px;stroke:none;">3</text>
   <text y="444.5" x="510.263,513.565,517.984,522.399,526.818,528.987,532.438,536.404,543.699,548.448,550.824,554.648" svgx:width="0.36,0.48,0.48,0.48,0.23,0.37,0.44,0.82,0.52,0.25,0.43,0.23" style="fill:rgb(0,0,0);font-family:MinionPro-Regular;font-size:9.0px;stroke:none;">-600 sample </text>
   <text y="454.499" x="155.635,159.555,163.897,168.796,171.267,175.825,178.223,181.062,184.459,186.628,191.213,195.979,198.817,202.17,205.063,209.027,214.009,218.854,221.361,226.305,230.612,232.781,236.213,240.088,242.872,246.792,248.961,253.852,257.771,261.258,263.935,268.512,271.998,279.437,283.4,288.382,292.283,296.202,299.599,301.745,303.914,310.2,312.598,315.492,320.391,322.56,327.461,329.966,334.336,339.236,341.405,345.333,349.207,354.062,358.107,362.008,364.406,367.272,371.497,373.666,378.242,381.0,383.169,388.484,392.898,397.312,401.726,403.895,407.859,412.84,417.687,419.856,425.169,429.584,433.998,438.406,439.621,447.087,453.4,454.615,459.516,461.685" svgx:width="0.43,0.47,0.53,0.27,0.51,0.27,0.31,0.37,0.23,0.51,0.53,0.31,0.37,0.31,0.44,0.55,0.53,0.27,0.55,0.47,0.23,0.37,0.44,0.31,0.43,0.23,0.52,0.43,0.37,0.3,0.51,0.37,0.82,0.44,0.55,0.42,0.43,0.37,0.23,0.23,0.69,0.27,0.31,0.53,0.23,0.53,0.27,0.47,0.53,0.23,0.42,0.44,0.52,0.44,0.42,0.27,0.31,0.46,0.23,0.51,0.3,0.23,0.58,0.48,0.48,0.48,0.23,0.44,0.55,0.53,0.23,0.58,0.48,0.48,0.48,0.23,0.82,0.69,0.23,0.53,0.23,0.47" style="fill:rgb(0,0,0);font-family:MinionPro-Regular;font-size:9.0px;stroke:none;">exhibits outstanding rate performances, with high capacity of ~390 and ~330 mA h g</text>
   <text y="451.44" x="465.998" svgx:width="0.78" style="fill:rgb(0,0,0);font-family:EuclidSymbol;font-size:5.85px;stroke:none;">−</text>
   <text y="451.44" x="470.619" svgx:width="0.48" style="fill:rgb(0,0,0);font-family:MinionPro-Regular;font-size:5.85px;stroke:none;">1</text>
   <text y="454.5" x="473.486,475.655,479.645,483.835,487.754,492.771,494.94,498.814,501.653,503.822,508.587,513.289,516.723,520.597,523.382,527.346,532.192,534.361,538.775,540.944,544.909,549.889,554.641" svgx:width="0.23,0.43,0.46,0.43,0.55,0.23,0.44,0.31,0.23,0.53,0.52,0.37,0.44,0.31,0.43,0.53,0.23,0.48,0.23,0.44,0.55,0.53,0.23" style="fill:rgb(0,0,0);font-family:MinionPro-Regular;font-size:9.0px;stroke:none;"> even at uprated 5 and </text>
   <text y="464.499" x="155.642,160.002,164.363,165.533,171.797,172.967" svgx:width="0.48,0.48,0.23,0.69,0.23,0.47" style="fill:rgb(0,0,0);font-family:MinionPro-Regular;font-size:9.0px;stroke:none;">10 A g</text>
   <text y="461.44" x="177.203" svgx:width="0.78" style="fill:rgb(0,0,0);font-family:EuclidSymbol;font-size:5.85px;stroke:none;">−</text>
   <text y="461.44" x="181.783" svgx:width="0.48" style="fill:rgb(0,0,0);font-family:MinionPro-Regular;font-size:5.85px;stroke:none;">1</text>
   <text y="464.5" x="184.618,186.71,188.69,194.959,199.805,202.258,206.051,210.898,212.878,215.303,218.647,220.627,228.002,232.525,235.788,239.654,241.634,244.473,249.294,253.204,258.168,260.148,262.987,267.834,271.097,275.008,278.873,282.118,284.741,289.309,291.626,296.419,298.399,302.921,305.626,307.606,312.264,316.175,319.437,323.303,325.283,330.732,333.185" svgx:width="0.23,0.23,0.69,0.53,0.27,0.42,0.53,0.23,0.27,0.37,0.23,0.82,0.51,0.37,0.43,0.23,0.31,0.53,0.44,0.55,0.23,0.31,0.53,0.37,0.43,0.43,0.36,0.3,0.51,0.25,0.53,0.23,0.51,0.3,0.23,0.51,0.44,0.37,0.43,0.23,0.62,0.27,0.75" style="fill:rgb(0,0,0);font-family:MinionPro-Regular;font-size:9.0px;stroke:none;">, which is more than three-fold of bare TiO</text>
   <text y="466.3" x="339.961" svgx:width="0.48" style="fill:rgb(0,0,0);font-family:MinionPro-Regular;font-size:5.85px;stroke:none;">2</text>
   <text y="464.5" x="342.795,344.775,348.605,350.927,354.837,358.748,361.577,364.841,369.552,374.345,378.21,381.554,383.646,385.626,390.783,395.711,399.576,402.884,407.352,411.524,413.504,416.803,419.535,424.057,427.437,431.383,435.564,439.429,441.409,446.202,450.139,454.374,456.826,460.674,464.539,467.883,469.863,473.71,478.242,483.106,485.424,490.216,492.196,496.89,500.755,502.735,506.151,510.016,513.657,517.792,521.703,526.495,528.475,532.296,535.081,537.061,539.406,543.316,546.624,550.804,554.629" svgx:width="0.23,0.43,0.25,0.43,0.42,0.31,0.37,0.51,0.53,0.43,0.37,0.23,0.23,0.57,0.55,0.43,0.37,0.47,0.46,0.23,0.37,0.31,0.51,0.37,0.44,0.47,0.43,0.23,0.53,0.43,0.46,0.27,0.42,0.43,0.37,0.23,0.42,0.51,0.53,0.25,0.53,0.23,0.51,0.43,0.23,0.37,0.43,0.37,0.46,0.43,0.53,0.23,0.44,0.31,0.23,0.25,0.44,0.37,0.47,0.43,0.23" style="fill:rgb(0,0,0);font-family:MinionPro-Regular;font-size:9.0px;stroke:none;"> electrodes. Energy storage devices could be served at large </text>
   <text y="474.499" x="155.64,159.597,164.461,167.941,171.249,175.159,179.998,182.833,186.226,188.368,190.839,194.228,196.37,201.266,203.768,208.128,213.066,215.366,219.587,221.729,225.037,228.994,233.589,238.458,240.956,244.264,248.221,253.058,255.2,257.869,262.438,265.867,268.009,271.317,275.282,279.364,281.727,284.198,287.542,290.419,292.916,296.813,298.955,302.852,305.354,308.662,312.618,317.487,324.872,328.216,331.102,335.058,340.031,343.924,347.781,349.923,352.065,358.379,363.275,365.818,368.185,372.096,374.238,377.123,381.979,386.655,390.116,394.031,396.173,399.482,403.392,408.276,412.844,416.359,419.136,423.092,427.934,430.076,435.571,438.073" svgx:width="0.42,0.53,0.37,0.37,0.43,0.55,0.31,0.37,0.23,0.27,0.37,0.23,0.53,0.27,0.47,0.53,0.25,0.46,0.23,0.37,0.43,0.51,0.53,0.27,0.37,0.43,0.53,0.23,0.3,0.51,0.37,0.23,0.37,0.43,0.44,0.25,0.27,0.37,0.31,0.27,0.42,0.23,0.42,0.27,0.37,0.42,0.53,0.82,0.37,0.31,0.44,0.55,0.42,0.43,0.23,0.23,0.69,0.53,0.27,0.25,0.43,0.23,0.31,0.53,0.51,0.37,0.43,0.23,0.37,0.43,0.52,0.51,0.37,0.31,0.43,0.53,0.23,0.62,0.27,0.75" style="fill:rgb(0,0,0);font-family:MinionPro-Regular;font-size:9.0px;stroke:none;">currents is highly required for realistic circumstance, while those reported TiO</text>
   <text y="476.3" x="444.796" svgx:width="0.48" style="fill:rgb(0,0,0);font-family:MinionPro-Regular;font-size:5.85px;stroke:none;">2</text>
   <text y="474.5" x="447.66,450.726,455.406" svgx:width="0.33,0.53,0.43" style="fill:rgb(0,0,0);font-family:MinionPro-Regular;font-size:9.0px;stroke:none;">/Fe</text>
   <text y="476.3" x="459.313" svgx:width="0.48" style="fill:rgb(0,0,0);font-family:MinionPro-Regular;font-size:5.85px;stroke:none;">2</text>
   <text y="474.5" x="462.177" svgx:width="0.75" style="fill:rgb(0,0,0);font-family:MinionPro-Regular;font-size:9.0px;stroke:none;">O</text>
   <text y="476.3" x="468.986" svgx:width="0.48" style="fill:rgb(0,0,0);font-family:MinionPro-Regular;font-size:5.85px;stroke:none;">3</text>
   <text y="474.5" x="471.85,473.992,477.889,482.456,489.743,494.626,499.306,502.695,505.085,507.862,511.777,515.166,517.308,521.264,524.573,528.488,530.63,534.711,537.012,543.267,547.142,551.359,554.662" svgx:width="0.23,0.42,0.51,0.82,0.52,0.51,0.37,0.27,0.31,0.43,0.37,0.23,0.44,0.37,0.43,0.23,0.44,0.25,0.69,0.44,0.46,0.37,0.23" style="fill:rgb(0,0,0);font-family:MinionPro-Regular;font-size:9.0px;stroke:none;"> composites are always </text>
   <text y="484.499" x="155.635,160.126,164.923,168.748,172.087,175.866,178.557,182.427,187.179,189.078,193.857,198.744,203.496,207.321,210.66,212.559,216.428,221.207,224.6,227.822,231.647,236.399,239.144,241.043,245.795,249.62,254.471,257.774,260.078,262.868,265.28,269.105,272.408,274.307,278.789,281.453,283.352,287.672,289.724,294.044,295.18,301.399,302.524" svgx:width="0.51,0.52,0.43,0.37,0.44,0.31,0.43,0.53,0.23,0.53,0.55,0.53,0.43,0.37,0.23,0.42,0.53,0.37,0.37,0.43,0.55,0.31,0.23,0.53,0.43,0.55,0.37,0.27,0.31,0.27,0.43,0.37,0.23,0.51,0.3,0.23,0.48,0.23,0.48,0.23,0.69,0.23,0.47" style="fill:rgb(0,0,0);font-family:MinionPro-Regular;font-size:9.0px;stroke:none;">operated under current densities of 1.6 A g</text>
   <text y="481.44" x="306.738" svgx:width="0.78" style="fill:rgb(0,0,0);font-family:EuclidSymbol;font-size:5.85px;stroke:none;">−</text>
   <text y="481.44" x="311.289,314.097,316.905,319.713,322.755,325.563" svgx:width="0.48,0.48,0.48,0.52,0.48,0.48" style="fill:rgb(0,0,0);font-family:MinionPro-Regular;font-size:5.85px;stroke:none;">123–25</text>
   <text y="484.5" x="328.371,330.423,332.322,336.463,341.242,344.994,349.8,351.699,356.19,360.861,363.606,366.864,369.662,373.533,378.42,383.172,385.584,390.434,394.646,396.545,399.884,403.664,406.355,410.18,412.079,415.913,419.693,424.453,428.332,432.796,435.253,437.53,439.834,442.606,446.737,448.636,453.118,455.782,457.681,460.479,465.249,469.074,470.973,476.382,478.794" svgx:width="0.23,0.23,0.47,0.53,0.42,0.53,0.23,0.51,0.53,0.31,0.37,0.31,0.44,0.55,0.53,0.27,0.55,0.47,0.23,0.37,0.44,0.31,0.43,0.23,0.42,0.44,0.52,0.44,0.51,0.27,0.25,0.27,0.31,0.46,0.23,0.51,0.3,0.23,0.31,0.53,0.43,0.23,0.62,0.27,0.75" style="fill:rgb(0,0,0);font-family:MinionPro-Regular;font-size:9.0px;stroke:none;">. Such outstanding rate capability of the TiO</text>
   <text y="486.3" x="485.533" svgx:width="0.48" style="fill:rgb(0,0,0);font-family:MinionPro-Regular;font-size:5.85px;stroke:none;">2</text>
   <text y="484.5" x="488.341,495.117,499.707" svgx:width="0.75,0.53,0.43" style="fill:rgb(0,0,0);font-family:MinionPro-Regular;font-size:9.0px;stroke:none;">@Fe</text>
   <text y="486.3" x="503.532" svgx:width="0.48" style="fill:rgb(0,0,0);font-family:MinionPro-Regular;font-size:5.85px;stroke:none;">2</text>
   <text y="484.5" x="506.34" svgx:width="0.75" style="fill:rgb(0,0,0);font-family:MinionPro-Regular;font-size:9.0px;stroke:none;">O</text>
   <text y="486.3" x="513.063" svgx:width="0.48" style="fill:rgb(0,0,0);font-family:MinionPro-Regular;font-size:5.85px;stroke:none;">3</text>
   <text y="484.5" x="515.871,517.77,521.577,526.059,529.281,533.106,536.31,538.209,541.476,546.246,550.035,552.357,554.634" svgx:width="0.23,0.42,0.51,0.37,0.43,0.36,0.23,0.37,0.53,0.43,0.25,0.25,0.23" style="fill:rgb(0,0,0);font-family:MinionPro-Regular;font-size:9.0px;stroke:none;"> core- shell </text>
   <text y="494.499" x="155.637,160.512,164.361,169.226,173.697,176.33,181.051,185.684,189.491,191.21,195.058,198.43,201.751,205.519,209.632,212.917,214.636,219.267,223.074,227.941,231.748,236.433,239.16,242.445,244.164,246.896,250.097,254.558,261.911,263.63,266.407,271.157,274.964,276.683,281.444,286.349,288.743,293.23,297.991,301.798,303.513,307.815,314.412,316.131,318.764,323.485,327.938,332.74,335.022,338.872,342.193,343.912,347.148,349.917,353.325,358.086,361.934,364.569,369.33,372.53,376.337,378.051,384.223,386.505,389.283,394.071,395.785,398.431,402.333,405.571,408.298,410.017,414.495,416.889,421.755,425.563,428.331,430.725,434.514,437.799,439.518,443.325,446.562,449.34,453.197,457.685,459.944,462.308,465.554,470.302,474.151,478.885,480.604,483.336,486.537,490.998,498.351,500.07,504.818,509.324,511.625,513.884,518.308,524.455,526.17,528.564,533.294,535.965,539.772,543.143,545.537,549.997,552.748,554.8" svgx:width="0.55,0.44,0.55,0.51,0.31,0.53,0.51,0.43,0.23,0.44,0.37,0.37,0.44,0.46,0.37,0.23,0.51,0.43,0.55,0.43,0.54,0.31,0.37,0.23,0.3,0.37,0.51,0.82,0.23,0.31,0.53,0.43,0.23,0.53,0.55,0.27,0.51,0.53,0.43,0.23,0.48,0.74,0.23,0.31,0.53,0.51,0.53,0.25,0.44,0.37,0.23,0.37,0.31,0.37,0.53,0.42,0.31,0.53,0.37,0.43,0.23,0.69,0.27,0.31,0.53,0.23,0.3,0.44,0.37,0.31,0.23,0.5,0.27,0.55,0.43,0.31,0.27,0.42,0.37,0.23,0.43,0.37,0.31,0.44,0.51,0.25,0.27,0.37,0.53,0.43,0.53,0.23,0.3,0.37,0.51,0.82,0.23,0.53,0.51,0.25,0.25,0.51,0.69,0.23,0.27,0.55,0.31,0.43,0.37,0.27,0.51,0.37,0.23,0.23" style="fill:rgb(0,0,0);font-family:MinionPro-Regular;font-size:9.0px;stroke:none;">nanotube arrays benefits from the unique 1D tubular structure with fast kinetics established from hollow interior. </text>
   <text y="504.498" x="155.637,160.814,164.9,166.592,170.354,174.793,179.502,182.249,185.543,189.424,192.64,195.34,197.347,199.039,202.992,205.117,207.874,212.601,217.049,221.783,226.014,230.775,232.467,237.833,240.2" svgx:width="0.59,0.46,0.23,0.42,0.51,0.55,0.31,0.37,0.44,0.37,0.31,0.23,0.23,0.44,0.25,0.31,0.53,0.51,0.53,0.47,0.53,0.23,0.62,0.27,0.75" style="fill:rgb(0,0,0);font-family:MinionPro-Regular;font-size:9.0px;stroke:none;">By contrast, although TiO</text>
   <text y="506.3" x="246.886" svgx:width="0.48" style="fill:rgb(0,0,0);font-family:MinionPro-Regular;font-size:5.85px;stroke:none;">2</text>
   <text y="504.5" x="249.666,256.4,260.945" svgx:width="0.75,0.53,0.43" style="fill:rgb(0,0,0);font-family:MinionPro-Regular;font-size:9.0px;stroke:none;">@Fe</text>
   <text y="506.3" x="264.729" svgx:width="0.48" style="fill:rgb(0,0,0);font-family:MinionPro-Regular;font-size:5.85px;stroke:none;">2</text>
   <text y="504.5" x="267.509" svgx:width="0.75" style="fill:rgb(0,0,0);font-family:MinionPro-Regular;font-size:9.0px;stroke:none;">O</text>
   <text y="506.3" x="274.189" svgx:width="0.48" style="fill:rgb(0,0,0);font-family:MinionPro-Regular;font-size:5.85px;stroke:none;">3</text>
   <text y="504.5" x="276.969,280.128,284.403,288.678,292.953,297.228,298.92,302.234,306.061,313.218,317.828,320.06,323.84,325.532,330.239,334.019,341.311,345.751,350.558,353.774,356.521,359.815,363.552,366.199,369.979,373.237,374.929,378.666,381.278,384.026,387.32,391.226,395.053,397.799,400.166,404.975,409.142,410.834,414.625,418.362,423.08,426.986,430.748,433.008,435.737,439.823,441.515,445.252,447.952,449.644,453.55,455.242,457.474,461.878,467.998,469.69,472.984,476.721,479.369,483.149,484.841,489.28,491.899,493.586,497.861,499.868,504.143,505.245,511.419,512.499" svgx:width="0.36,0.48,0.48,0.48,0.48,0.23,0.37,0.44,0.82,0.52,0.25,0.43,0.23,0.53,0.43,0.82,0.51,0.55,0.37,0.31,0.37,0.44,0.31,0.43,0.37,0.23,0.44,0.31,0.31,0.37,0.44,0.42,0.31,0.27,0.55,0.47,0.23,0.42,0.44,0.52,0.44,0.42,0.27,0.31,0.46,0.23,0.44,0.31,0.23,0.44,0.23,0.25,0.51,0.69,0.23,0.37,0.44,0.31,0.43,0.23,0.51,0.3,0.23,0.48,0.23,0.48,0.23,0.69,0.23,0.47" style="fill:rgb(0,0,0);font-family:MinionPro-Regular;font-size:9.0px;stroke:none;">-1000 sample demonstrates attracting capacity at a low rate of 0.1 A g</text>
   <text y="501.44" x="516.676" svgx:width="0.78" style="fill:rgb(0,0,0);font-family:EuclidSymbol;font-size:5.85px;stroke:none;">−</text>
   <text y="501.44" x="521.198" svgx:width="0.48" style="fill:rgb(0,0,0);font-family:MinionPro-Regular;font-size:5.85px;stroke:none;">1</text>
   <text y="504.5" x="523.977,525.984,527.676,529.937,532.637,534.329,539.036,542.215,546.663,551.334,554.637" svgx:width="0.23,0.23,0.27,0.31,0.23,0.53,0.37,0.51,0.52,0.37,0.23" style="fill:rgb(0,0,0);font-family:MinionPro-Regular;font-size:9.0px;stroke:none;">, it drops </text>
   <text y="514.499" x="155.634,158.901,163.68,167.55,170.979,175.632,177.846,181.977,183.813,190.004,192.309,195.107,199.913,201.749,205.574,208.949,212.783,216.779,219.082,222.862,225.652,228.064,232.915,237.127,238.963,242.833,247.612,251.004,254.226,258.051,262.803,265.548,268.851,270.687,274.557,279.444,284.196,286.032,288.417,291.72,293.556,300.755,305.534,309.287,314.093,315.929,318.341,323.264,325.847,329.672,333.065,335.477,339.959,343.298,345.134,347.825,352.415,354.251,359.66,362.072" svgx:width="0.37,0.53,0.44,0.37,0.52,0.25,0.46,0.23,0.69,0.27,0.31,0.53,0.23,0.43,0.37,0.42,0.44,0.25,0.44,0.31,0.27,0.55,0.47,0.23,0.42,0.53,0.37,0.37,0.43,0.55,0.31,0.37,0.23,0.44,0.55,0.53,0.23,0.27,0.37,0.23,0.82,0.53,0.42,0.53,0.23,0.27,0.55,0.3,0.43,0.37,0.27,0.51,0.37,0.23,0.31,0.51,0.23,0.62,0.27,0.75" style="fill:rgb(0,0,0);font-family:MinionPro-Regular;font-size:9.0px;stroke:none;">sharply with escalating currents and is much inferior to TiO</text>
   <text y="516.3" x="368.823" svgx:width="0.48" style="fill:rgb(0,0,0);font-family:MinionPro-Regular;font-size:5.85px;stroke:none;">2</text>
   <text y="514.5" x="371.631,378.408,382.998" svgx:width="0.75,0.53,0.43" style="fill:rgb(0,0,0);font-family:MinionPro-Regular;font-size:9.0px;stroke:none;">@Fe</text>
   <text y="516.3" x="386.823" svgx:width="0.48" style="fill:rgb(0,0,0);font-family:MinionPro-Regular;font-size:5.85px;stroke:none;">2</text>
   <text y="514.5" x="389.631" svgx:width="0.75" style="fill:rgb(0,0,0);font-family:MinionPro-Regular;font-size:9.0px;stroke:none;">O</text>
   <text y="516.3" x="396.354" svgx:width="0.48" style="fill:rgb(0,0,0);font-family:MinionPro-Regular;font-size:5.85px;stroke:none;">3</text>
   <text y="514.5" x="399.162,402.366,406.686,411.006,415.326,417.162,421.042,425.694,430.14,434.235,438.06,439.896,442.695,447.465,451.29,453.126,456.996,461.775,465.167,468.389,472.214,476.966,479.711,481.547,486.299,490.124,494.975,498.278,500.582,503.354,507.485,509.321,513.804,516.468,518.304,522.624,524.676,528.996,530.139,536.358,537.483" svgx:width="0.36,0.48,0.48,0.48,0.23,0.44,0.51,0.51,0.46,0.43,0.23,0.31,0.53,0.43,0.23,0.42,0.53,0.37,0.37,0.43,0.55,0.31,0.23,0.53,0.43,0.55,0.37,0.27,0.31,0.46,0.23,0.51,0.3,0.23,0.48,0.23,0.48,0.23,0.69,0.23,0.47" style="fill:rgb(0,0,0);font-family:MinionPro-Regular;font-size:9.0px;stroke:none;">-600 above the current density of 0.3 A g</text>
   <text y="511.44" x="541.691" svgx:width="0.78" style="fill:rgb(0,0,0);font-family:EuclidSymbol;font-size:5.85px;stroke:none;">−</text>
   <text y="511.44" x="546.242" svgx:width="0.48" style="fill:rgb(0,0,0);font-family:MinionPro-Regular;font-size:5.85px;stroke:none;">1</text>
   <text y="514.5" x="549.05" svgx:width="0.23" style="fill:rgb(0,0,0);font-family:MinionPro-Regular;font-size:9.0px;stroke:none;">.</text>
   <text y="536.5" x="155.638,163.217,165.956,170.62,175.471,181.466,186.13,190.794,193.533,199.627" svgx:width="0.69,0.25,0.42,0.44,0.55,0.42,0.42,0.25,0.55,0.56" style="fill:rgb(0,0,0);font-family:Corbel-Bold;font-size:11.0px;stroke:none;">Discussion</text>
   <text y="546.5" x="155.638,162.562,166.704,170.574,173.958,178.002,180.371,182.642,184.739,186.746,191.597,194.054,198.376,203.227,205.234,209.115,212.943,217.752,221.748,225.6,227.951,230.77,234.946,236.953,241.483,244.192,246.199,250.836" svgx:width="0.75,0.46,0.43,0.37,0.44,0.25,0.25,0.23,0.23,0.53,0.27,0.47,0.53,0.23,0.42,0.44,0.52,0.44,0.42,0.27,0.31,0.46,0.23,0.51,0.3,0.23,0.53,0.43" style="fill:rgb(0,0,0);font-family:MinionPro-Regular;font-size:9.0px;stroke:none;">Overall, high capacity of Fe</text>
   <text y="548.3" x="254.727" svgx:width="0.48" style="fill:rgb(0,0,0);font-family:MinionPro-Regular;font-size:5.85px;stroke:none;">2</text>
   <text y="546.5" x="257.565" svgx:width="0.75" style="fill:rgb(0,0,0);font-family:MinionPro-Regular;font-size:9.0px;stroke:none;">O</text>
   <text y="548.3" x="264.336" svgx:width="0.48" style="fill:rgb(0,0,0);font-family:MinionPro-Regular;font-size:5.85px;stroke:none;">3</text>
   <text y="546.5" x="267.175,269.182,273.034,277.564,284.81,289.655,294.185,299.119,302.989,307.788,310.578,312.585,316.421,318.743,322.688,326.9,330.727,333.466,337.336,340.684,342.691,345.538,350.356,354.226,356.233,361.049,365.624,367.946,370.379,373.684,376.521,378.978,382.83,384.837,387.159,389.511,392.358,397.209,399.56,404.384,411.8,413.807,417.112,419.851,424.381,427.765,431.718,435.905,439.724,441.821,443.828,450.103,454.954,457.459,459.781,463.651,465.658,468.01,470.8,474.148,476.155,478.612,483.511,486.816,489.662,493.589,498.1,500.605,502.927,505.278,508.098,512.274,514.281,516.713,520.061,522.068,525.92,530.45,537.697,542.542,546.412,551.38" svgx:width="0.23,0.42,0.51,0.82,0.52,0.51,0.55,0.43,0.55,0.31,0.23,0.43,0.25,0.43,0.46,0.44,0.31,0.43,0.37,0.23,0.31,0.53,0.43,0.23,0.53,0.51,0.25,0.27,0.37,0.31,0.27,0.42,0.23,0.25,0.27,0.31,0.53,0.27,0.53,0.82,0.23,0.37,0.31,0.51,0.37,0.44,0.47,0.43,0.23,0.23,0.69,0.53,0.27,0.25,0.43,0.23,0.27,0.31,0.37,0.23,0.27,0.55,0.37,0.31,0.44,0.51,0.27,0.25,0.27,0.31,0.46,0.23,0.27,0.37,0.23,0.42,0.51,0.82,0.52,0.43,0.55,0.36" style="fill:rgb(0,0,0);font-family:MinionPro-Regular;font-size:9.0px;stroke:none;"> component elevates the holistic lithium storage, while its instability is compen-</text>
   <text y="556.499" x="155.638,159.042,162.869,165.607,169.524,174.321,176.328,180.804,184.98,186.987,189.833,194.65,198.52,200.527,203.796,208.389,212.909,217.708,221.013,223.803,225.81,229.232,233.114,237.03,242.045,246.62,248.942,253.739,255.746,260.276,262.985,264.992,270.448,272.905" svgx:width="0.37,0.44,0.31,0.43,0.53,0.23,0.51,0.46,0.23,0.31,0.53,0.43,0.23,0.37,0.51,0.51,0.53,0.37,0.31,0.23,0.37,0.42,0.44,0.56,0.51,0.25,0.53,0.23,0.51,0.3,0.23,0.62,0.27,0.75" style="fill:rgb(0,0,0);font-family:MinionPro-Regular;font-size:9.0px;stroke:none;">sated by the robust scaffold of TiO</text>
   <text y="558.3" x="279.673" svgx:width="0.48" style="fill:rgb(0,0,0);font-family:MinionPro-Regular;font-size:5.85px;stroke:none;">2</text>
   <text y="556.5" x="282.512,284.519,289.463,293.379,298.314,302.852,305.555,310.344,315.044,318.914,322.262,324.359,326.366,336.016,339.886,343.308,347.178,349.185,353.037,357.565,364.813,369.513,371.835,375.705,383.087,386.957,391.756,394.602,398.519,402.167,406.343,408.35,413.004,416.273,420.812,425.656,429.526,433.002,435.839,438.296,442.166,445.514,447.521,454.912,458.749,462.925,464.932,467.254,471.179,475.175,479.972,481.979,484.718,489.353,491.36,494.197,497.581,501.577,506.374,510.244,513.493,518.022,523.116,525.123,531.398,536.215,540.085,543.354,547.224,549.681,554.604" svgx:width="0.23,0.55,0.44,0.55,0.51,0.31,0.53,0.51,0.43,0.37,0.23,0.23,1.07,0.43,0.37,0.43,0.23,0.42,0.51,0.82,0.52,0.25,0.43,0.82,0.43,0.55,0.31,0.44,0.37,0.46,0.23,0.52,0.37,0.51,0.52,0.43,0.37,0.31,0.27,0.43,0.37,0.23,0.82,0.44,0.46,0.23,0.25,0.43,0.44,0.53,0.23,0.31,0.51,0.23,0.31,0.37,0.44,0.53,0.43,0.36,0.51,0.56,0.23,0.69,0.53,0.43,0.37,0.43,0.27,0.55,0.23" style="fill:rgb(0,0,0);font-family:MinionPro-Regular;font-size:9.0px;stroke:none;"> nanotubes. These complementary properties may lead to trade-off wherein </text>
   <text y="566.499" x="155.639,160.187,164.86,167.706,170.172,177.573,181.625,183.956,185.99,189.851,194.389,199.198,201.946,205.825,210.633,213.432,215.466,219.393,222.672,226.551,228.585,232.446,235.895,238.255,241.102,243.568,247.459,251.511,253.842,255.876,259.992,263.871,266.67,268.704,272.019,274.865,277.378,279.756,282.087,284.121,289.064,292.991,296.917,301.723,303.757,306.505,311.149,313.183,317.893,321.772,323.806,328.47,331.748,335.675,339.536,341.977,345.408,349.254,351.524,355.709,357.743,361.058,363.768,368.601,373.407,375.873,379.799,384.554,386.66,388.694,393.476,397.528,402.084,404.55,409.458,413.724,415.758,419.763,424.509,428.73,432.656,437.465,440.321,444.282,448.479,452.358,454.392,458.93,461.648,463.682,466.537,471.363,475.242,477.276,481.941,485.22,489.146,493.007,495.448,498.879,502.725,504.995,509.18,511.214,515.076,519.614,524.423,527.269,530.547,535.131,537.509,539.87,543.805,548.371,550.702,554.527" svgx:width="0.51,0.52,0.31,0.27,0.82,0.44,0.25,0.23,0.42,0.51,0.55,0.31,0.43,0.55,0.31,0.23,0.44,0.37,0.43,0.23,0.42,0.37,0.27,0.31,0.27,0.42,0.44,0.25,0.23,0.46,0.43,0.31,0.23,0.37,0.31,0.27,0.25,0.25,0.23,0.55,0.43,0.43,0.53,0.23,0.31,0.51,0.23,0.51,0.43,0.23,0.52,0.37,0.43,0.42,0.27,0.37,0.43,0.25,0.46,0.23,0.37,0.31,0.53,0.53,0.27,0.43,0.53,0.23,0.23,0.62,0.44,0.5,0.27,0.55,0.47,0.23,0.44,0.53,0.46,0.44,0.55,0.31,0.44,0.47,0.43,0.23,0.51,0.3,0.23,0.31,0.53,0.43,0.23,0.52,0.37,0.43,0.42,0.27,0.37,0.43,0.25,0.46,0.23,0.42,0.51,0.55,0.31,0.37,0.51,0.25,0.25,0.44,0.51,0.25,0.43,0.23" style="fill:rgb(0,0,0);font-family:MinionPro-Regular;font-size:9.0px;stroke:none;">optimal content are critical yet still need to be precisely studied. Taking advantage of the precisely controllable </text>
   <text y="576.498" x="155.639,161.921,166.826,173.504,175.56,182.958,186.846,189.707,194.539,199.272,204.033,206.148,208.204,210.57,213.378,215.435,217.882,221.248,223.305,225.95,230.504,235.346,240.295,245.11,247.166,251.998,255.886,259.17,263.058,265.533,270.519,272.576,275.438,280.279,284.121,286.929,288.986,292.874,297.112,300.982,304.87,308.19,311.556,313.967,318.125,322.013,324.07,326.41,331.107,335.121,339.936,342.411,347.324,351.599,353.655,358.199,360.926,362.983,367.635" svgx:width="0.69,0.54,0.74,0.23,0.82,0.43,0.31,0.53,0.51,0.53,0.23,0.23,0.27,0.31,0.23,0.27,0.37,0.23,0.3,0.51,0.53,0.55,0.53,0.23,0.53,0.43,0.37,0.43,0.27,0.55,0.23,0.31,0.53,0.44,0.31,0.23,0.43,0.47,0.42,0.43,0.37,0.37,0.27,0.46,0.43,0.23,0.25,0.51,0.44,0.53,0.27,0.55,0.47,0.23,0.51,0.3,0.23,0.53,0.43" style="fill:rgb(0,0,0);font-family:MinionPro-Regular;font-size:9.0px;stroke:none;">ALD method, it is found herein that excessive loading of Fe</text>
   <text y="578.3" x="371.501" svgx:width="0.48" style="fill:rgb(0,0,0);font-family:MinionPro-Regular;font-size:5.85px;stroke:none;">2</text>
   <text y="576.5" x="374.349" svgx:width="0.75" style="fill:rgb(0,0,0);font-family:MinionPro-Regular;font-size:9.0px;stroke:none;">O</text>
   <text y="578.3" x="381.134" svgx:width="0.48" style="fill:rgb(0,0,0);font-family:MinionPro-Regular;font-size:5.85px;stroke:none;">3</text>
   <text y="576.5" x="383.983,386.039,392.293,394.812,397.197,399.536,401.593,403.933,407.874,411.888,416.703,418.76,421.513,426.166,428.222,433.064,438.05,440.777,444.628,448.785,453.33,456.732,460.673,465.245,467.585,471.473,473.529,477.371,480.088,482.95,486.964,490.779,495.648,503.045,506.933,511.747,514.555,516.611,522.865,525.232,528.093,532.962,535.018,540.489,542.964" svgx:width="0.23,0.69,0.27,0.25,0.25,0.23,0.25,0.43,0.44,0.53,0.23,0.31,0.51,0.23,0.53,0.55,0.3,0.44,0.46,0.51,0.37,0.44,0.51,0.25,0.43,0.23,0.44,0.31,0.31,0.44,0.42,0.53,0.82,0.43,0.55,0.31,0.23,0.69,0.27,0.31,0.53,0.23,0.62,0.27,0.75" style="fill:rgb(0,0,0);font-family:MinionPro-Regular;font-size:9.0px;stroke:none;"> will lead to unfavorable attachment with TiO</text>
   <text y="578.3" x="549.737" svgx:width="0.48" style="fill:rgb(0,0,0);font-family:MinionPro-Regular;font-size:5.85px;stroke:none;">2</text>
   <text y="576.5" x="552.586,554.638" svgx:width="0.23,0.23" style="fill:rgb(0,0,0);font-family:MinionPro-Regular;font-size:9.0px;stroke:none;">, </text>
   <text y="586.499" x="155.641,158.532,163.26,168.105,171.498,173.658,176.16,183.452,188.305,192.269,194.771,198.2,200.36,203.252,208.114,212.029,214.189,217.54,220.423,223.944,228.813,232.775,235.524,240.393,243.822,247.911,250.278,252.438,255.788,258.68,262.652,267.208,269.758,272.125,274.522,277.386,281.607,283.767,287.73,292.71,297.552,299.712,303.594,305.961,309.923,313.885,316.768,320.253,322.755,326.682,330.771,333.138,335.298,339.195,343.77,348.749,353.486,358.355,362.318,365.2,367.642,371.929,374.326,377.19,381.411,383.571,388.146,390.9,393.06,396.975,401.82,404.702,407.204,410.519,414.434,416.594,420.491,425.066,432.358,437.247,441.927,445.32,447.717,450.501,454.416,456.576,460.664,463.031,467.606,472.55,476.852,479.012,485.296,487.693,490.585,495.481,497.641,501.685,505.836,509.682,512.049,514.551,519.496,523.826,525.968,528.128,531.02,535.883,540.466,545.336,549.703,554.509" svgx:width="0.31,0.53,0.53,0.37,0.23,0.27,0.82,0.52,0.44,0.27,0.37,0.23,0.31,0.53,0.43,0.23,0.37,0.31,0.37,0.53,0.42,0.31,0.53,0.37,0.44,0.25,0.23,0.37,0.31,0.44,0.51,0.27,0.25,0.27,0.31,0.46,0.23,0.44,0.55,0.53,0.23,0.43,0.25,0.43,0.42,0.31,0.37,0.27,0.42,0.44,0.25,0.23,0.42,0.51,0.55,0.53,0.53,0.42,0.31,0.27,0.46,0.27,0.31,0.46,0.23,0.51,0.3,0.23,0.43,0.55,0.31,0.27,0.37,0.43,0.23,0.42,0.51,0.82,0.52,0.51,0.37,0.27,0.31,0.43,0.23,0.44,0.25,0.51,0.55,0.47,0.23,0.69,0.27,0.31,0.53,0.23,0.42,0.46,0.42,0.25,0.27,0.55,0.47,0.23,0.23,0.31,0.53,0.51,0.53,0.47,0.53,0.23" style="fill:rgb(0,0,0);font-family:MinionPro-Regular;font-size:9.0px;stroke:none;">thus impair the structural stability and electrical conductivity of entire composite along with cycling, though </text>
   <text y="596.498" x="155.641,160.528,163.021,167.38,172.267,174.4,178.319,182.183,187.029,191.061,194.949,197.338,200.194,204.406,206.539,209.009,212.393,214.526,219.155,223.714,226.598,230.552,233.045,238.017,241.971,246.804,248.937,252.802,255.628,257.761,261.793,263.926,268.813,271.306,275.666,280.52,284.426,287.846,289.979,297.408,301.416,304.759,308.143,310.276,312.634,317.354,321.386,326.219,328.712,333.647,337.971,340.104,342.237,350.718,353.107,355.991,360.878,363.011,367.043,369.176,373.868,377.175,381.75,386.632,390.538,393.958,396.091,403.52,407.529,410.872,414.256,416.389,418.747,423.466,427.498,432.331,434.824,439.76,444.053,446.186,450.753,453.497,455.63,460.031,464.432,466.565,470.966,472.342,478.588,481.414,488.299,490.432,492.565,498.058,500.551" svgx:width="0.53,0.27,0.47,0.53,0.23,0.42,0.44,0.52,0.44,0.42,0.27,0.31,0.46,0.23,0.27,0.37,0.23,0.51,0.51,0.31,0.44,0.27,0.55,0.43,0.53,0.23,0.44,0.31,0.23,0.44,0.23,0.53,0.27,0.47,0.53,0.43,0.37,0.23,0.82,0.44,0.37,0.37,0.23,0.25,0.51,0.44,0.53,0.27,0.55,0.47,0.23,0.23,0.97,0.27,0.31,0.53,0.23,0.44,0.23,0.52,0.37,0.51,0.52,0.43,0.37,0.23,0.82,0.44,0.37,0.37,0.23,0.25,0.51,0.44,0.53,0.27,0.55,0.47,0.23,0.51,0.3,0.23,0.48,0.48,0.23,0.48,0.23,0.69,0.31,0.76,0.23,0.23,0.62,0.27,0.75" style="fill:rgb(0,0,0);font-family:MinionPro-Regular;font-size:9.0px;stroke:none;">high capacity is obtained at a higher mass loading. With a proper mass loading of 33.6 wt%, TiO</text>
   <text y="598.3" x="507.377" svgx:width="0.48" style="fill:rgb(0,0,0);font-family:MinionPro-Regular;font-size:5.85px;stroke:none;">2</text>
   <text y="596.5" x="510.24,517.102,521.773" svgx:width="0.75,0.53,0.43" style="fill:rgb(0,0,0);font-family:MinionPro-Regular;font-size:9.0px;stroke:none;">@Fe</text>
   <text y="598.3" x="525.686" svgx:width="0.48" style="fill:rgb(0,0,0);font-family:MinionPro-Regular;font-size:5.85px;stroke:none;">2</text>
   <text y="596.5" x="528.549" svgx:width="0.75" style="fill:rgb(0,0,0);font-family:MinionPro-Regular;font-size:9.0px;stroke:none;">O</text>
   <text y="598.3" x="535.357" svgx:width="0.48" style="fill:rgb(0,0,0);font-family:MinionPro-Regular;font-size:5.85px;stroke:none;">3</text>
   <text y="596.5" x="538.22,541.505,545.906,550.307,554.627" svgx:width="0.36,0.48,0.48,0.48,0.23" style="fill:rgb(0,0,0);font-family:MinionPro-Regular;font-size:9.0px;stroke:none;">-600 </text>
   <text y="606.499" x="155.639,159.626,163.416,168.258,170.706,174.641,178.774,182.635,184.615,187.315,191.142,195.275,199.794,203.169,207.086,211.632,213.945,217.806,219.786,223.629,228.149,232.939,235.775,239.762,243.669,246.45,248.43,254.659,257.001,259.838,264.68,266.66,272.107,274.555" svgx:width="0.44,0.42,0.53,0.27,0.43,0.46,0.43,0.23,0.3,0.44,0.46,0.51,0.37,0.44,0.51,0.25,0.43,0.23,0.42,0.51,0.55,0.31,0.44,0.42,0.31,0.23,0.69,0.27,0.31,0.53,0.23,0.62,0.27,0.75" style="fill:rgb(0,0,0);font-family:MinionPro-Regular;font-size:9.0px;stroke:none;">achieve favorable contact with TiO</text>
   <text y="608.3" x="281.33" svgx:width="0.48" style="fill:rgb(0,0,0);font-family:MinionPro-Regular;font-size:5.85px;stroke:none;">2</text>
   <text y="606.5" x="284.163,286.143,289.438,294.219,298.827,302.123,304.95,308.325,312.143,314.871,318.732,320.712,326.978,331.82,334.315,336.628,340.489,342.469,345.765,348.593,351.087,353.447,355.76,357.74,365.122,369.03,371.478,376.268,379.105,383.012,385.46,390.349,393.688,395.668,399.511,404.031,408.92,412.259,414.707,419.495,423.356,426.731,430.648,435.193,437.506,441.367,443.347,445.66,448.002,450.839,455.681,458.023,462.838,470.245,472.225,475.521,478.249,482.769,486.144,490.088,494.266,498.127,500.107,503.446,505.788,508.516,512.377,515.716,517.804,519.784,524.475,528.336,533.261,537.122,541.973,545.816,548.293,552.327,554.604" svgx:width="0.23,0.37,0.53,0.51,0.37,0.31,0.37,0.44,0.31,0.43,0.23,0.69,0.53,0.27,0.25,0.43,0.23,0.37,0.31,0.27,0.25,0.25,0.23,0.82,0.44,0.27,0.55,0.31,0.44,0.27,0.55,0.37,0.23,0.42,0.51,0.55,0.37,0.27,0.53,0.43,0.37,0.44,0.51,0.25,0.43,0.23,0.25,0.27,0.31,0.53,0.27,0.53,0.82,0.23,0.37,0.31,0.51,0.37,0.44,0.47,0.43,0.23,0.37,0.27,0.31,0.43,0.37,0.23,0.23,0.51,0.43,0.55,0.43,0.54,0.42,0.27,0.44,0.25,0.23" style="fill:rgb(0,0,0);font-family:MinionPro-Regular;font-size:9.0px;stroke:none;"> substrate while still maintains considerable lithium storage sites, beneficial </text>
   <text y="616.499" x="155.634,158.217,162.699,166.038,167.865,170.664,175.434,179.259,181.086,184.344,189.015,193.812,197.637,200.976,205.548,207.375,210.039,213.963,217.221,219.966,223.17,226.427,229.226,233.105,237.614,239.891,243.716,245.543,249.368,254.255,258.08,261.347,265.775,269.906,271.733,274.991,277.682,282.164,285.503,289.409,293.549,297.374,299.201,303.818,307.814,310.118,313.988,318.875,322.682,326.453,328.505,330.332,336.56,341.366,343.778,347.531,352.337,354.164,357.998,361.868,366.791,368.618,373.271,377.096,378.923,382.145,385.97,390.182,394.051,397.273,402.025,405.895,410.647,412.474,416.398,419.701,421.528,425.668,429.493,434.38,438.205,441.544,445.54,447.817,449.644,453.856,458.635,461.047,465.826,469.696,474.583,478.39,482.215,484.042,486.626,491.108,494.447,496.274,503.619,507.398,510.089,513.914,517.307,519.746,523.742,525.992,529.295,531.122,535.874,539.699,543.002,545.414,549.671,554.594" svgx:width="0.3,0.51,0.37,0.23,0.31,0.53,0.43,0.23,0.37,0.53,0.52,0.43,0.37,0.51,0.23,0.3,0.44,0.37,0.31,0.36,0.37,0.31,0.44,0.51,0.25,0.43,0.23,0.43,0.55,0.43,0.37,0.47,0.46,0.23,0.37,0.31,0.51,0.37,0.44,0.47,0.43,0.23,0.51,0.44,0.25,0.44,0.55,0.42,0.43,0.23,0.23,0.69,0.53,0.27,0.42,0.53,0.23,0.42,0.44,0.55,0.23,0.51,0.43,0.23,0.37,0.43,0.47,0.44,0.37,0.53,0.43,0.53,0.23,0.44,0.37,0.23,0.47,0.43,0.55,0.43,0.37,0.44,0.25,0.23,0.47,0.53,0.27,0.53,0.44,0.55,0.42,0.43,0.23,0.3,0.51,0.37,0.23,0.82,0.44,0.31,0.43,0.37,0.27,0.44,0.25,0.37,0.23,0.53,0.43,0.37,0.27,0.47,0.55,0.23" style="fill:rgb(0,0,0);font-family:MinionPro-Regular;font-size:9.0px;stroke:none;">for the superb fast-stable energy storage balance, which can be regarded as general guidance for materials design </text>
   <text y="626.498" x="155.634,160.16,162.869,164.858,170.311,172.768" svgx:width="0.51,0.3,0.23,0.62,0.27,0.75" style="fill:rgb(0,0,0);font-family:MinionPro-Regular;font-size:9.0px;stroke:none;">of TiO</text>
   <text y="628.3" x="179.538" svgx:width="0.48" style="fill:rgb(0,0,0);font-family:MinionPro-Regular;font-size:5.85px;stroke:none;">2</text>
   <text y="626.5" x="182.375,185.624,190.284,194.252,197.67,201.583,206.38,208.369,212.877,215.334,220.273,224.187,227.83,232.006,233.995,238.485,242.778,245.235,250.032,253.902,257.25,259.347,261.336,265.961,270.785,274.257,277.1,281.914,285.784,289.221,296.599,301.125,304.39,308.205,310.302,312.291,316.206,321.433,325.303,328.687,330.676,333.942,337.812,340.511,345.335,348.772,353.74,356.197,361.091,365.348,367.337,370.071,374.706,376.695,379.538,384.352,388.222,390.211,392.668,397.636,399.984,402.817,405.299,409.339,411.661,413.65,417.565,422.389,425.825,429.091,432.961,437.757,440.547,442.536,447.333,451.203,456.097,459.445,461.792,464.608,468.784,470.773,475.299,478.008,479.997,484.362,486.459,490.824,491.984,498.248,499.418" svgx:width="0.36,0.51,0.44,0.37,0.43,0.53,0.23,0.51,0.27,0.55,0.44,0.37,0.46,0.23,0.51,0.47,0.27,0.53,0.43,0.37,0.23,0.23,0.53,0.53,0.37,0.31,0.53,0.43,0.37,0.82,0.51,0.37,0.43,0.23,0.23,0.44,0.58,0.43,0.37,0.23,0.37,0.43,0.31,0.53,0.37,0.55,0.27,0.55,0.47,0.23,0.31,0.51,0.23,0.31,0.53,0.43,0.23,0.27,0.55,0.27,0.31,0.27,0.44,0.25,0.23,0.42,0.53,0.37,0.37,0.43,0.55,0.31,0.23,0.53,0.43,0.55,0.37,0.27,0.31,0.46,0.23,0.51,0.3,0.23,0.48,0.23,0.48,0.23,0.69,0.23,0.47" style="fill:rgb(0,0,0);font-family:MinionPro-Regular;font-size:9.0px;stroke:none;">-based binary oxides. Furthermore, after returning to the initial current density of 0.1 A g</text>
   <text y="623.44" x="503.667" svgx:width="0.78" style="fill:rgb(0,0,0);font-family:EuclidSymbol;font-size:5.85px;stroke:none;">−</text>
   <text y="623.44" x="508.247" svgx:width="0.48" style="fill:rgb(0,0,0);font-family:MinionPro-Regular;font-size:5.85px;stroke:none;">1</text>
   <text y="626.5" x="511.086,513.182,515.172,519.211,521.576,523.898,525.887,529.287,533.201,540.444,545.142,547.464,551.334,554.637" svgx:width="0.23,0.23,0.44,0.25,0.25,0.23,0.37,0.44,0.82,0.52,0.25,0.43,0.37,0.23" style="fill:rgb(0,0,0);font-family:MinionPro-Regular;font-size:9.0px;stroke:none;">, all samples </text>
   <text y="636.499" x="155.64,158.929,162.867,166.741,171.255,175.417,179.31,182.716,184.795,189.479,193.498,197.318,201.849,203.928,206.687,211.344,213.423,216.29,221.127,225.02,227.094,231.644,235.104,237.584,241.908,244.388,249.351,253.415,255.759,257.838,261.739,265.587,270.415,274.433,278.308,280.679,283.519,287.06,289.18,291.259,295.133,299.683,304.673,309.556,313.016,320.455,322.934,327.853,332.132,334.207,337.073,341.92,345.767,348.58,350.659,353.525,358.363,362.255,364.334,367.624,372.236,376.777,381.596,384.922,387.779,392.734,396.626,399.952,403.322,405.397,409.947,412.679,414.753,420.23,422.709" svgx:width="0.37,0.43,0.42,0.51,0.46,0.43,0.37,0.23,0.51,0.44,0.42,0.5,0.23,0.31,0.51,0.23,0.31,0.53,0.43,0.23,0.51,0.37,0.27,0.47,0.27,0.55,0.44,0.25,0.23,0.42,0.44,0.52,0.44,0.42,0.27,0.31,0.46,0.23,0.23,0.42,0.51,0.55,0.54,0.37,0.82,0.27,0.55,0.47,0.23,0.31,0.53,0.44,0.31,0.23,0.31,0.53,0.43,0.23,0.37,0.51,0.51,0.53,0.37,0.31,0.55,0.43,0.37,0.37,0.23,0.51,0.3,0.23,0.62,0.27,0.75" style="fill:rgb(0,0,0);font-family:MinionPro-Regular;font-size:9.0px;stroke:none;">recover back to the original capacity, confirming that the robustness of TiO</text>
   <text y="638.3" x="429.47" svgx:width="0.48" style="fill:rgb(0,0,0);font-family:MinionPro-Regular;font-size:5.85px;stroke:none;">2</text>
   <text y="636.5" x="432.322,434.397,438.335,441.796,445.202,449.059,453.257,456.628,458.702,466.114,469.961,472.819,476.279,478.759,483.074,485.153,487.632,492.627,494.701,499.368,503.674,508.206,511.666,514.146,518.965,521.044,524.901,527.245,531.183,535.119,537.977,541.266,546.005,550.824,554.649" svgx:width="0.23,0.44,0.37,0.37,0.44,0.46,0.37,0.23,0.82,0.44,0.31,0.37,0.27,0.47,0.23,0.27,0.55,0.23,0.53,0.46,0.51,0.37,0.27,0.53,0.23,0.43,0.25,0.43,0.42,0.31,0.37,0.51,0.53,0.43,0.23" style="fill:rgb(0,0,0);font-family:MinionPro-Regular;font-size:9.0px;stroke:none;"> arrays matrix in hybrid electrode </text>
   <text y="646.499" x="155.635,162.979,166.759,169.45,173.275,176.668,179.106,183.102,185.352,188.655,190.491,194.388,198.483,202.308,207.231,209.067,213.846,218.732,223.484,227.309,230.648,232.484,237.29,239.702,243.977,248.783,250.619,253.958,257.738,260.429,264.254,267.557,269.393,273.2,275.612,278.834,282.703,287.482,294.781,298.039,300.838,304.708,309.595,313.402,317.173" svgx:width="0.82,0.44,0.31,0.43,0.37,0.27,0.44,0.25,0.37,0.23,0.43,0.46,0.43,0.55,0.23,0.53,0.55,0.53,0.43,0.37,0.23,0.53,0.27,0.47,0.53,0.23,0.37,0.44,0.31,0.43,0.37,0.23,0.42,0.27,0.37,0.42,0.53,0.82,0.37,0.31,0.44,0.55,0.42,0.43,0.23" style="fill:rgb(0,0,0);font-family:MinionPro-Regular;font-size:9.0px;stroke:none;">materials even under high rates circumstance.</text>
   <text y="656.498" x="167.632,172.433,177.149,179.444,184.181,187.533,192.109,196.333,200.284,202.579,205.508,210.407,214.358,216.653,221.099,227.84,230.135,234.212,239.031,243.324,247.324,252.205,255.133,259.168,263.438,267.389,269.684,273.684,278.7,283.578,285.873,288.72,293.625,297.184,300.112,305.012,308.963,312.428,314.723,319.628,324.644,329.522,333.473,336.887,340.275,343.203,347.203,352.219,357.097,359.392,362.321,367.221,371.172,373.467,378.087,382.834,385.753,388.291,395.764,399.89,402.293,404.588,409.307" svgx:width="0.62,0.51,0.23,0.52,0.37,0.51,0.46,0.43,0.23,0.31,0.53,0.43,0.23,0.48,0.74,0.23,0.44,0.53,0.46,0.44,0.55,0.31,0.44,0.47,0.43,0.23,0.44,0.55,0.53,0.23,0.3,0.53,0.37,0.31,0.53,0.43,0.37,0.23,0.53,0.55,0.53,0.43,0.37,0.37,0.31,0.44,0.55,0.53,0.23,0.31,0.53,0.43,0.23,0.51,0.52,0.31,0.27,0.82,0.44,0.25,0.23,0.53,0.43" style="fill:rgb(0,0,0);font-family:MinionPro-Regular;font-size:9.0px;stroke:none;">To prove the 1D advantage and further understand the optimal Fe</text>
   <text y="658.3" x="413.305" svgx:width="0.48" style="fill:rgb(0,0,0);font-family:MinionPro-Regular;font-size:5.85px;stroke:none;">2</text>
   <text y="656.5" x="416.197" svgx:width="0.75" style="fill:rgb(0,0,0);font-family:MinionPro-Regular;font-size:9.0px;stroke:none;">O</text>
   <text y="658.3" x="423.05" svgx:width="0.48" style="fill:rgb(0,0,0);font-family:MinionPro-Regular;font-size:5.85px;stroke:none;">3</text>
   <text y="656.5" x="425.942,429.272,434.811,437.349" svgx:width="0.36,0.62,0.27,0.75" style="fill:rgb(0,0,0);font-family:MinionPro-Regular;font-size:9.0px;stroke:none;">-TiO</text>
   <text y="658.3" x="444.208" svgx:width="0.48" style="fill:rgb(0,0,0);font-family:MinionPro-Regular;font-size:5.85px;stroke:none;">2</text>
   <text y="656.5" x="447.1,449.395,454.142,458.267,460.701,464.701,469.717,473.65,477.551,479.729,482.024,484.952,489.852,493.803,496.098,500.017,502.42,506.419,510.418,513.338,516.689,521.49,525.371,530.271,534.222,541.719,544.257,548.221,552.346,554.623" svgx:width="0.23,0.51,0.44,0.25,0.44,0.55,0.42,0.43,0.23,0.23,0.31,0.53,0.43,0.23,0.43,0.25,0.43,0.42,0.31,0.37,0.51,0.42,0.53,0.43,0.82,0.27,0.42,0.44,0.25,0.23" style="fill:rgb(0,0,0);font-family:MinionPro-Regular;font-size:9.0px;stroke:none;"> balance, the electrochemical </text>
   <text y="666.499" x="155.635,158.065,165.282,170.095,173.982,178.778,182.665,187.568,191.393,195.236,197.194,200.469,205.282,209.168,213.055,215.861,219.218,223.187,225.145,229.032,232.27,236.113,238.071,241.896,246.395,251.298,255.959,260.756,264.643,267.449,269.815,273.927,277.77,279.726,282.434,287.042,289.004,291.478,293.816,296.002,300.799,308.188,310.618,315.531,319.327,322.035,325.878,327.836,332.353,334.783,339.687,343.53,346.337,348.767,352.592,355.913,357.871,362.641,365.071,370.056,373.899,377.138,380.981,385.884,389.709,393.552,395.51,398.642,403.421,405.85,410.081,414.878,418.116,421.959,423.916,428.2,432.538,435.67,437.74,439.698,449.317,453.16,455.117,460.543,462.973" svgx:width="0.27,0.82,0.52,0.43,0.53,0.44,0.55,0.42,0.43,0.23,0.37,0.52,0.43,0.42,0.31,0.37,0.44,0.23,0.44,0.37,0.43,0.23,0.42,0.51,0.55,0.53,0.53,0.42,0.31,0.27,0.46,0.43,0.23,0.31,0.51,0.23,0.27,0.25,0.25,0.53,0.82,0.27,0.55,0.44,0.31,0.43,0.23,0.5,0.27,0.55,0.43,0.31,0.27,0.42,0.37,0.23,0.53,0.27,0.56,0.43,0.37,0.43,0.55,0.42,0.43,0.23,0.35,0.53,0.27,0.47,0.53,0.37,0.43,0.23,0.47,0.48,0.35,0.23,0.23,1.07,0.43,0.23,0.62,0.27,0.75" style="fill:rgb(0,0,0);font-family:MinionPro-Regular;font-size:9.0px;stroke:none;">impedance spectra are conductive to illuminate kinetics difference (Figure S7). The TiO</text>
   <text y="668.3" x="469.658" svgx:width="0.48" style="fill:rgb(0,0,0);font-family:MinionPro-Regular;font-size:5.85px;stroke:none;">2</text>
   <text y="666.5" x="472.477,479.271,481.228,485.836" svgx:width="0.75,0.23,0.53,0.43" style="fill:rgb(0,0,0);font-family:MinionPro-Regular;font-size:9.0px;stroke:none;">@ Fe</text>
   <text y="668.3" x="489.676" svgx:width="0.48" style="fill:rgb(0,0,0);font-family:MinionPro-Regular;font-size:5.85px;stroke:none;">2</text>
   <text y="666.5" x="492.495" svgx:width="0.75" style="fill:rgb(0,0,0);font-family:MinionPro-Regular;font-size:9.0px;stroke:none;">O</text>
   <text y="668.3" x="499.235" svgx:width="0.48" style="fill:rgb(0,0,0);font-family:MinionPro-Regular;font-size:5.85px;stroke:none;">3</text>
   <text y="666.5" x="502.053,505.275,509.613,513.951,518.289,520.247,527.607,531.494,536.435,538.865,541.465,545.308,548.583,551.346,554.649" svgx:width="0.36,0.48,0.48,0.48,0.23,0.82,0.44,0.55,0.27,0.3,0.43,0.37,0.31,0.37,0.23" style="fill:rgb(0,0,0);font-family:MinionPro-Regular;font-size:9.0px;stroke:none;">-600 manifests </text>
   <text y="676.499" x="155.634,158.393,163.122,166.905,168.597,171.221,175.103,178.321,180.971,184.755,187.971,190.676,192.368,194.739,199.18,204.062,205.754,210.465,212.836,217.898,222.609,225.871,228.242,232.683,237.565,239.257,242.016,246.753,250.583,255.464,257.156,261.607,264.364,269.094,272.877,276.176,277.868,282.426,286.624,291.047,294.399,296.77,301.481,303.173,310.476,314.215,316.865,320.649,324.001,326.399,330.354,332.563,335.825,337.517,339.69,344.428,349.139,353.355,355.726,360.536,364.707,366.399,369.112,372.293,376.734,384.064,385.756,393.563,397.392,400.69,405.123,409.86,413.087,417.257,418.949,421.32,428.479,433.235,437.064,441.802,445.632,450.477,454.244,458.027,459.719,463.846,467.8,469.928,474.667,478.45,481.713,483.405" svgx:width="0.31,0.53,0.43,0.23,0.3,0.44,0.37,0.31,0.43,0.37,0.31,0.23,0.27,0.51,0.55,0.23,0.53,0.27,0.56,0.53,0.37,0.27,0.51,0.55,0.23,0.31,0.53,0.44,0.55,0.23,0.51,0.31,0.53,0.43,0.37,0.23,0.53,0.46,0.51,0.37,0.27,0.53,0.23,0.82,0.44,0.31,0.43,0.37,0.27,0.44,0.25,0.37,0.23,0.26,0.53,0.53,0.47,0.27,0.55,0.47,0.23,0.3,0.37,0.51,0.82,0.23,0.97,0.44,0.37,0.51,0.53,0.37,0.47,0.23,0.27,0.82,0.52,0.43,0.53,0.44,0.55,0.42,0.43,0.23,0.46,0.44,0.25,0.53,0.43,0.37,0.23,0.35" style="fill:rgb(0,0,0);font-family:MinionPro-Regular;font-size:9.0px;stroke:none;">the fastest ion diffusion than other hybrid materials judging from Warburg impedance values (</text>
   <text y="676.499" x="486.528" svgx:width="0.59" style="fill:rgb(0,0,0);font-family:MinionPro-It;font-size:9.0px;stroke:none;">Z</text>
   <text y="678.3" x="491.78" svgx:width="0.67" style="fill:rgb(0,0,0);font-family:MinionPro-It;font-size:5.85px;stroke:none;">w</text>
   <text y="676.5" x="495.672,498.745,500.757,502.448,507.159,510.944,518.237,522.679,527.488,530.706,533.455,536.753,540.492,543.241,545.612,550.422,554.634" svgx:width="0.35,0.23,0.23,0.53,0.43,0.82,0.51,0.55,0.37,0.31,0.37,0.44,0.31,0.27,0.55,0.47,0.23" style="fill:rgb(0,0,0);font-family:MinionPro-Regular;font-size:9.0px;stroke:none;">), demonstrating </text>
   <text y="686.499" x="155.634,158.401,163.139,166.928,168.629,172.418,179.564,183.335,185.711,189.5,194.219,196.928,198.629,201.005,205.455,210.342,212.043,216.759,219.135,224.205,228.925,232.192,234.568,239.018,243.905,245.606,251.766,254.038,256.804,261.574,263.95,268.837,270.538,273.306,278.076,280.428,283.695,285.396,289.855,294.44,297.197,299.573,306.908,309.284,313.028,316.866,321.582,323.283,326.05,330.82,333.196,336.918,341.384,346.239,350.028,353.254,356.521,358.222,362.671,365.299,367.0,370.771,375.373,379.121,381.878,384.254,389.073,393.249,396.417,402.546,406.509,408.799,410.99,413.006,414.707,417.392,420.101,421.802,424.155,427.422,429.123,436.425,440.214,444.934,447.692,450.068,454.517,459.372,463.209,467.925,469.626,472.393,477.139,480.887,483.596,485.297,489.581,496.16,497.861,502.725,506.563,511.418,515.876,518.499,523.21,527.83,531.619,533.32,536.546,539.303,542.7,547.443,551.214" svgx:width="0.31,0.53,0.43,0.23,0.43,0.8,0.42,0.27,0.43,0.55,0.31,0.23,0.27,0.51,0.55,0.23,0.53,0.27,0.56,0.53,0.37,0.27,0.51,0.55,0.23,0.69,0.27,0.31,0.53,0.27,0.55,0.23,0.31,0.53,0.27,0.37,0.23,0.51,0.52,0.31,0.27,0.82,0.27,0.42,0.43,0.53,0.23,0.31,0.53,0.27,0.42,0.5,0.55,0.43,0.37,0.37,0.23,0.51,0.3,0.23,0.42,0.51,0.44,0.31,0.27,0.55,0.47,0.36,0.69,0.44,0.25,0.25,0.23,0.23,0.34,0.31,0.23,0.27,0.37,0.23,0.82,0.43,0.55,0.31,0.27,0.51,0.55,0.43,0.53,0.23,0.31,0.53,0.44,0.31,0.23,0.48,0.74,0.23,0.55,0.44,0.55,0.51,0.31,0.53,0.51,0.43,0.23,0.37,0.31,0.37,0.53,0.42,0.36" style="fill:rgb(0,0,0);font-family:MinionPro-Regular;font-size:9.0px;stroke:none;">the efficient ion diffusion within this optimized thickness of coating-wall. It is mentioned that 1D nanotube struc-</text>
   <text y="696.498" x="155.634,158.314,163.12,166.366,170.218,172.18,174.589,177.919,179.881,184.514,187.76,192.267,196.997,199.821,203.724,208.258,210.562,214.414,216.376,218.984,223.49,226.856,228.818,231.641,236.435,240.287,242.249,244.94,248.889,252.171,254.943,256.905,261.428,263.867,268.779,272.631,275.445,277.884,281.718,285.048,287.01,291.462,295.62,297.582,300.021,307.246,311.878,315.124,319.595,323.813,326.252,331.127,335.366,337.328,340.152,344.946,348.798,350.76,354.573,356.877,360.771,364.666,367.48,370.726,375.278,377.516,381.674,384.389,388.241,390.203,392.642,397.592,402.477,404.67,407.484,410.85,414.654,417.469,419.908,424.413,429.363,431.325,435.273,438.603,440.565,446.683,450.496,452.842,455.146,457.108,461.057,464.387,466.349,469.64,474.434,478.94,482.393,485.109,488.961,493.911,495.873,498.312,502.818,507.768,509.73,513.625,518.536,523.315,525.277,529.089,531.393,535.288,539.182,541.996,545.243,549.749,554.672" svgx:width="0.31,0.53,0.37,0.43,0.23,0.27,0.37,0.23,0.52,0.37,0.51,0.54,0.31,0.44,0.51,0.25,0.43,0.23,0.3,0.51,0.37,0.23,0.31,0.53,0.43,0.23,0.3,0.44,0.37,0.31,0.23,0.5,0.27,0.55,0.43,0.31,0.27,0.42,0.37,0.23,0.51,0.46,0.23,0.27,0.82,0.52,0.37,0.51,0.46,0.27,0.55,0.47,0.23,0.31,0.53,0.43,0.23,0.43,0.25,0.43,0.42,0.31,0.37,0.51,0.25,0.46,0.31,0.43,0.23,0.27,0.55,0.54,0.25,0.31,0.37,0.44,0.31,0.27,0.51,0.55,0.23,0.44,0.37,0.23,0.69,0.43,0.25,0.25,0.23,0.44,0.37,0.23,0.37,0.53,0.51,0.37,0.31,0.43,0.55,0.23,0.27,0.51,0.55,0.23,0.44,0.55,0.53,0.23,0.43,0.25,0.43,0.42,0.31,0.37,0.51,0.55,0.23" style="fill:rgb(0,0,0);font-family:MinionPro-Regular;font-size:9.0px;stroke:none;">ture is profitable for the fast kinetics by improving the electrolyte infiltration as well as shorten ion and electron </text>
   <text y="706.497" x="155.634,158.037,165.399,172.761,175.164,179.411,182.741,186.51,189.289,191.692,196.163,201.077,202.805,207.548,209.923,213.17,215.959,219.818,224.694,228.492,232.252,234.295,236.023,240.008,242.248,245.612,250.193,251.921,256.392,261.349,265.165,268.547,270.951,275.791,279.994,281.722,286.519,288.922,293.186,297.983,299.711,301.979,306.603,310.545,315.288,317.691,322.531,326.734,328.462,332.934,335.589,337.317,341.095,343.363,347.222,351.081,353.86,357.072,361.732,365.474,370.233,374.049,381.411,383.814,387.637,391.623,393.891,397.086,401.028,404.887,407.666,410.005,414.089,417.905,419.633,422.927,425.221,427.902,431.718,435.012,436.74,439.528,444.325,447.536,452.016,456.786,461.05,465.847,467.575,472.318,476.799,481.531,486.029,488.297,492.113,493.841,497.135,499.538,504.281,508.097,511.391,513.119,516.917,521.541,525.31,528.09,530.493,535.333,539.536,541.264,545.123,549.999,554.751" svgx:width="0.27,0.82,0.82,0.27,0.47,0.37,0.44,0.31,0.27,0.51,0.55,0.23,0.53,0.27,0.37,0.31,0.44,0.55,0.42,0.43,0.23,0.23,0.44,0.25,0.37,0.51,0.23,0.51,0.56,0.43,0.37,0.27,0.55,0.47,0.23,0.53,0.27,0.47,0.53,0.23,0.25,0.51,0.44,0.53,0.27,0.55,0.47,0.23,0.51,0.3,0.23,0.43,0.25,0.43,0.42,0.31,0.37,0.51,0.42,0.53,0.43,0.82,0.27,0.42,0.44,0.25,0.36,0.44,0.42,0.31,0.27,0.46,0.43,0.23,0.37,0.27,0.31,0.43,0.37,0.23,0.31,0.53,0.37,0.51,0.53,0.47,0.53,0.23,0.53,0.51,0.53,0.51,0.25,0.43,0.23,0.37,0.27,0.53,0.43,0.37,0.23,0.42,0.51,0.44,0.31,0.27,0.55,0.47,0.23,0.44,0.55,0.53,0.23" style="fill:rgb(0,0,0);font-family:MinionPro-Regular;font-size:9.0px;stroke:none;">immigration distance, also offering high loading of electrochemical-active sites through double sides coating and </text>
   <text y="716.496" x="155.634,163.032,165.367,168.187,170.626,174.865,178.674,181.495,183.934,188.447,193.397,195.368,199.304,203.543,207.444,209.883,214.764,218.052,220.824,222.795,225.625,230.424,234.276,236.247,240.372,244.93,247.128,251.934,259.3,263.152,265.123,268.907,273.715,277.616,282.497,286.667,290.519,292.49,297.003,299.694,301.665,306.284" svgx:width="0.82,0.27,0.31,0.27,0.47,0.44,0.31,0.27,0.51,0.55,0.23,0.44,0.47,0.44,0.27,0.55,0.37,0.31,0.23,0.31,0.53,0.43,0.23,0.46,0.51,0.25,0.53,0.82,0.43,0.23,0.42,0.53,0.44,0.55,0.47,0.43,0.23,0.51,0.3,0.23,0.53,0.43" style="fill:rgb(0,0,0);font-family:MinionPro-Regular;font-size:9.0px;stroke:none;">mitigation against the volume change of Fe</text>
   <text y="718.3" x="310.183" svgx:width="0.48" style="fill:rgb(0,0,0);font-family:MinionPro-Regular;font-size:5.85px;stroke:none;">2</text>
   <text y="716.5" x="313.01" svgx:width="0.75" style="fill:rgb(0,0,0);font-family:MinionPro-Regular;font-size:9.0px;stroke:none;">O</text>
   <text y="718.3" x="319.763" svgx:width="0.48" style="fill:rgb(0,0,0);font-family:MinionPro-Regular;font-size:5.85px;stroke:none;">3</text>
   <text y="716.5" x="322.591,324.67,326.641,332.918,335.197,338.603,342.962,345.041,347.012,351.532,356.18,359.0,361.439,368.669,373.475,380.873,382.844,390.218,394.172,397.46,400.79,402.761,405.065,409.73,413.708,418.487,420.926,425.807,430.046,432.017,435.869,440.786,445.565,450.041,456.233,459.563,461.534,466.973,469.412" svgx:width="0.23,0.23,0.69,0.25,0.37,0.51,0.23,0.23,0.51,0.52,0.31,0.27,0.82,0.53,0.82,0.23,0.82,0.44,0.37,0.37,0.23,0.25,0.51,0.44,0.53,0.27,0.55,0.47,0.23,0.43,0.55,0.53,0.51,0.69,0.37,0.23,0.62,0.27,0.75" style="fill:rgb(0,0,0);font-family:MinionPro-Regular;font-size:9.0px;stroke:none;">. Also, optimum mass loading endows TiO</text>
   <text y="718.3" x="476.217" svgx:width="0.48" style="fill:rgb(0,0,0);font-family:MinionPro-Regular;font-size:5.85px;stroke:none;">2</text>
   <text y="716.5" x="479.044,485.852,490.469" svgx:width="0.75,0.53,0.43" style="fill:rgb(0,0,0);font-family:MinionPro-Regular;font-size:9.0px;stroke:none;">@Fe</text>
   <text y="718.3" x="494.327" svgx:width="0.48" style="fill:rgb(0,0,0);font-family:MinionPro-Regular;font-size:5.85px;stroke:none;">2</text>
   <text y="716.5" x="497.155" svgx:width="0.75" style="fill:rgb(0,0,0);font-family:MinionPro-Regular;font-size:9.0px;stroke:none;">O</text>
   <text y="718.3" x="503.908" svgx:width="0.48" style="fill:rgb(0,0,0);font-family:MinionPro-Regular;font-size:5.85px;stroke:none;">3</text>
   <text y="716.5" x="506.735,509.966,514.313,518.66,523.007,524.978,531.2,533.535,536.363,541.196,543.167,545.997,550.797,554.622" svgx:width="0.36,0.48,0.48,0.48,0.23,0.69,0.27,0.31,0.53,0.23,0.31,0.53,0.43,0.23" style="fill:rgb(0,0,0);font-family:MinionPro-Regular;font-size:9.0px;stroke:none;">-600 with the </text>
   <text y="726.499" x="155.636,160.289,164.114,167.372,170.117,171.953,175.76,180.241,187.441,192.094,194.371,198.196,205.531,209.356,214.108,216.907,220.777,224.377,228.508,230.344,234.169,239.137,243.007,246.877,249.622,251.458,254.041,258.523,261.862,263.698,266.956,271.627,276.424,280.249,283.588,288.16,289.996,293.866,298.753,303.505,305.341,312.676,317.158,320.38,324.205,326.041,329.299,332.098,335.977,340.486,342.763,346.588,348.424,352.213,354.49,358.359,362.229,365.019,368.241,372.912,376.665,381.435,385.26,392.631,395.043,398.876,402.872,405.149,406.985,411.782,415.607,419.0,421.583,426.065,429.458,436.802,440.672,445.559,449.366,453.191,456.494" svgx:width="0.51,0.43,0.37,0.31,0.23,0.42,0.51,0.82,0.52,0.25,0.43,0.82,0.43,0.55,0.31,0.44,0.37,0.46,0.23,0.43,0.56,0.43,0.42,0.31,0.23,0.3,0.51,0.37,0.23,0.37,0.53,0.52,0.43,0.37,0.51,0.23,0.44,0.55,0.53,0.23,0.82,0.51,0.37,0.43,0.23,0.37,0.31,0.44,0.51,0.25,0.43,0.23,0.43,0.25,0.43,0.42,0.31,0.37,0.51,0.42,0.53,0.43,0.82,0.27,0.42,0.44,0.25,0.23,0.52,0.43,0.37,0.3,0.51,0.37,0.82,0.44,0.55,0.42,0.43,0.37,0.23" style="fill:rgb(0,0,0);font-family:MinionPro-Regular;font-size:9.0px;stroke:none;">best complementary effect for superb and more stable electrochemical performances.</text>
  </g>
  <rect style="stroke:blue;stroke-width:0.3;" x="155.638" y="64.138" height="297.24" width="396.0" title="6"/>
  <text y="64.138" class="image" id="image.6.1" width="396" height="297" x="155.638">image.6.1.156_552.64_361</text>
  <path style="fill:none;stroke:rgb(131,144,151);stroke-width:0.3;" d="M159.130 402.280 L552.640 402.280 "/>
  <path style="fill:none;stroke:rgb(131,144,151);stroke-width:1.0;" d="M156.140 402.280 L156.140 402.280 M554.140 402.280 L554.140 402.280 "/>
  <g begin="text">
   <text y="362.283" x="155.638,160.552,163.207,167.662,172.657,176.221,180.154,181.909,186.409" svgx:width="0.55,0.29,0.49,0.56,0.4,0.44,0.22,0.5,0.25" style="fill:rgb(0,0,0);font-family:MinionPro-Bold;font-size:9.0px;stroke:none;">Figure 5.</text>
   <text y="362.283" x="188.695,190.765,193.195" svgx:width="0.23,0.55,0.35" style="fill:rgb(0,0,0);font-family:MinionPro-Regular;font-size:9.0px;stroke:none;"> (</text>
   <text y="362.283" x="196.309" svgx:width="0.47" style="fill:rgb(0,0,0);font-family:MinionPro-Bold;font-size:9.0px;stroke:none;">a</text>
   <text y="362.283" x="200.503,203.617,205.453,211.438,217.765,219.601,223.471,228.25,231.849,235.944,239.769,243.072,244.908,249.39,252.054,253.89,258.498,261.89,264.275,267.534,270.323,272.735,277.622,281.447,283.283,288.692,291.104" svgx:width="0.35,0.23,0.67,0.7,0.23,0.42,0.53,0.37,0.46,0.43,0.37,0.23,0.51,0.3,0.23,0.52,0.37,0.27,0.37,0.31,0.27,0.55,0.43,0.23,0.62,0.27,0.75" style="fill:rgb(0,0,0);font-family:MinionPro-Regular;font-size:9.0px;stroke:none;">) CV curves of pristine TiO</text>
   <text y="364.083" x="297.842" svgx:width="0.48" style="fill:rgb(0,0,0);font-family:MinionPro-Regular;font-size:5.85px;stroke:none;">2</text>
   <text y="362.283" x="300.65,302.486,306.356,311.243,315.995,317.831,323.24,325.652" svgx:width="0.23,0.44,0.55,0.53,0.23,0.62,0.27,0.75" style="fill:rgb(0,0,0);font-family:MinionPro-Regular;font-size:9.0px;stroke:none;"> and TiO</text>
   <text y="364.083" x="332.38" svgx:width="0.48" style="fill:rgb(0,0,0);font-family:MinionPro-Regular;font-size:5.85px;stroke:none;">2</text>
   <text y="362.283" x="335.189,341.965,346.555" svgx:width="0.75,0.53,0.43" style="fill:rgb(0,0,0);font-family:MinionPro-Regular;font-size:9.0px;stroke:none;">@Fe</text>
   <text y="364.083" x="350.38" svgx:width="0.48" style="fill:rgb(0,0,0);font-family:MinionPro-Regular;font-size:5.85px;stroke:none;">2</text>
   <text y="362.283" x="353.188" svgx:width="0.75" style="fill:rgb(0,0,0);font-family:MinionPro-Regular;font-size:9.0px;stroke:none;">O</text>
   <text y="364.083" x="359.911" svgx:width="0.48" style="fill:rgb(0,0,0);font-family:MinionPro-Regular;font-size:5.85px;stroke:none;">3</text>
   <text y="362.283" x="362.719,365.923,370.243,374.563,378.883,380.719,384.076,387.946,395.146,399.799,402.076,405.901,409.204,411.04,414.82,417.565,419.401,423.352,425.188,428.562,432.396,436.266,441.189,443.025,446.364,450.144,452.835,456.66,458.496,462.978,465.642,467.478,471.798,473.85,478.17,479.314,486.685,493.012,495.991,499.294,501.13,504.244,508.564,510.616,514.936,519.256,523.576,528.256,532.576,533.701,540.055,543.169,545.221" svgx:width="0.36,0.48,0.48,0.48,0.23,0.37,0.44,0.82,0.52,0.25,0.43,0.37,0.23,0.44,0.31,0.23,0.44,0.23,0.37,0.42,0.44,0.55,0.23,0.37,0.44,0.31,0.43,0.23,0.51,0.3,0.23,0.48,0.23,0.48,0.23,0.82,0.7,0.33,0.37,0.23,0.35,0.48,0.23,0.48,0.48,0.48,0.52,0.48,0.23,0.7,0.35,0.23,0.23" style="fill:rgb(0,0,0);font-family:MinionPro-Regular;font-size:9.0px;stroke:none;">-600 samples at a scan rate of 0.5 mV/s (0.005–3 V). </text>
   <text y="372.282" x="155.638" svgx:width="0.35" style="fill:rgb(0,0,0);font-family:MinionPro-Regular;font-size:9.0px;stroke:none;">(</text>
   <text y="372.282" x="158.752" svgx:width="0.53" style="fill:rgb(0,0,0);font-family:MinionPro-Bold;font-size:9.0px;stroke:none;">b</text>
   <text y="372.282" x="163.558,166.672,168.508,174.258,178.038,180.729,184.554,186.39,191.187,195.012,198.405,200.988,205.47,208.862,216.206,220.076,224.963,228.77,232.595,234.431,238.211,240.956,242.792,249.992,254.816,256.985,259.775,262.079,266.732,269.009,272.834,274.67,278.54,283.319,286.711,289.933,293.758,298.51,301.255,303.091,307.843,311.668,316.519,319.822,322.126,324.916,327.328,331.153,334.456,336.292,339.046,342.268,346.75,354.121,355.957,360.277,362.329,366.649,367.795,374.014,376.993,381.205,383.041,385.732,390.322,392.158,396.478,400.798,401.932,408.151,411.13,415.342,417.178,419.976,424.746,428.571,433.494,435.33,439.947,443.898,447.651,452.115,453.951,456.641,461.231,463.067,467.387,469.439,473.759,474.895,481.114,484.093,488.332,490.384,492.22" svgx:width="0.35,0.23,0.62,0.44,0.31,0.43,0.23,0.52,0.43,0.37,0.3,0.51,0.37,0.82,0.44,0.55,0.42,0.43,0.23,0.44,0.31,0.23,0.82,0.53,0.25,0.31,0.27,0.52,0.25,0.43,0.23,0.42,0.53,0.37,0.37,0.43,0.55,0.31,0.23,0.53,0.43,0.55,0.37,0.27,0.31,0.27,0.43,0.37,0.23,0.3,0.37,0.51,0.82,0.23,0.48,0.23,0.48,0.23,0.69,0.33,0.47,0.23,0.31,0.51,0.23,0.48,0.48,0.23,0.69,0.33,0.47,0.23,0.31,0.53,0.43,0.55,0.23,0.51,0.44,0.42,0.5,0.23,0.31,0.51,0.23,0.48,0.23,0.48,0.23,0.69,0.33,0.47,0.23,0.23,0.35" style="fill:rgb(0,0,0);font-family:MinionPro-Regular;font-size:9.0px;stroke:none;">) Rate performance at multiple current densities from 0.1 A/g to 10 A/g then back to 0.1 A/g. (</text>
   <text y="372.282" x="495.334" svgx:width="0.42" style="fill:rgb(0,0,0);font-family:MinionPro-Bold;font-size:9.0px;stroke:none;">c</text>
   <text y="372.282" x="499.132,502.246,504.082,510.148,513.928,518.689,522.64,526.447,528.751,531.522,535.653" svgx:width="0.35,0.23,0.67,0.44,0.52,0.44,0.42,0.27,0.31,0.46,0.23" style="fill:rgb(0,0,0);font-family:MinionPro-Regular;font-size:9.0px;stroke:none;">) Capacity </text>
   <text y="382.281" x="155.647,159.814,163.117,165.169,167.005,170.955,175.014,178.767,181.044,184.869,186.705,191.457,196.236,203.517,208.17,211.995,215.334,217.17,221.823,224.1,228.591,231.336,234.639,236.475,240.345,245.232,249.984,251.82,255.627,260.109,263.502,266.724,270.549,273.807,278.603,283.085,287.972,292.724,295.136,299.987,304.199,306.035,309.842,314.333,319.157,321.434,325.916,333.197,337.661,340.073,343.88,345.716,349.541,356.723,360.53,362.942,366.767,371.654,375.605,379.736,381.572,386.054,388.718,390.554,393.353,398.123,401.948,403.784,409.193,411.605" svgx:width="0.46,0.37,0.23,0.23,0.42,0.46,0.42,0.25,0.43,0.23,0.55,0.53,0.82,0.51,0.43,0.37,0.23,0.52,0.25,0.51,0.31,0.37,0.23,0.44,0.55,0.53,0.23,0.42,0.51,0.37,0.37,0.43,0.37,0.52,0.51,0.55,0.53,0.27,0.55,0.47,0.23,0.42,0.51,0.53,0.25,0.51,0.82,0.51,0.27,0.42,0.23,0.43,0.8,0.42,0.27,0.43,0.55,0.42,0.46,0.23,0.51,0.3,0.23,0.31,0.53,0.43,0.23,0.62,0.27,0.75" style="fill:rgb(0,0,0);font-family:MinionPro-Regular;font-size:9.0px;stroke:none;">vs. cycle number plots and corresponding coulombic efficiency of the TiO</text>
   <text y="384.083" x="418.344" svgx:width="0.48" style="fill:rgb(0,0,0);font-family:MinionPro-Regular;font-size:5.85px;stroke:none;">2</text>
   <text y="382.283" x="421.151,427.928,432.518" svgx:width="0.75,0.53,0.43" style="fill:rgb(0,0,0);font-family:MinionPro-Regular;font-size:9.0px;stroke:none;">@Fe</text>
   <text y="384.083" x="436.343" svgx:width="0.48" style="fill:rgb(0,0,0);font-family:MinionPro-Regular;font-size:5.85px;stroke:none;">2</text>
   <text y="382.283" x="439.151" svgx:width="0.75" style="fill:rgb(0,0,0);font-family:MinionPro-Regular;font-size:9.0px;stroke:none;">O</text>
   <text y="384.083" x="445.874" svgx:width="0.48" style="fill:rgb(0,0,0);font-family:MinionPro-Regular;font-size:5.85px;stroke:none;">3</text>
   <text y="382.283" x="448.682,451.886,456.206,460.526,464.846,466.682,470.461,473.206,475.042,478.993,480.829,484.699,489.478,492.871,496.093,499.918,504.669,507.414,509.25,514.002,517.827,522.678,525.981,528.285,531.057,535.188,537.024,541.506,544.17" svgx:width="0.36,0.48,0.48,0.48,0.23,0.44,0.31,0.23,0.44,0.23,0.42,0.53,0.37,0.37,0.43,0.55,0.31,0.23,0.53,0.43,0.55,0.37,0.27,0.31,0.46,0.23,0.51,0.3,0.23" style="fill:rgb(0,0,0);font-family:MinionPro-Regular;font-size:9.0px;stroke:none;">-600 at a current density of </text>
   <text y="392.282" x="155.642,159.962,162.014,166.334,167.459,173.678,174.803" svgx:width="0.48,0.23,0.48,0.23,0.69,0.23,0.47" style="fill:rgb(0,0,0);font-family:MinionPro-Regular;font-size:9.0px;stroke:none;">0.1 A g</text>
   <text y="389.223" x="179.011" svgx:width="0.78" style="fill:rgb(0,0,0);font-family:EuclidSymbol;font-size:5.85px;stroke:none;">−</text>
   <text y="389.223" x="183.562" svgx:width="0.48" style="fill:rgb(0,0,0);font-family:MinionPro-Regular;font-size:5.85px;stroke:none;">1</text>
   <text y="392.283" x="186.37" svgx:width="0.23" style="fill:rgb(0,0,0);font-family:MinionPro-Regular;font-size:9.0px;stroke:none;">.</text>
  </g>
 </g>
</svg>
