<?xml version="1.0" encoding="UTF-8"?>
<svg height="774.23" width="4165.638" xmlns="http://www.w3.org/2000/svg">
 <g id="page" xmlns:svgx="http://www.xml-cml.org/schema/svgx">
  <g begin="text">
   <text y="22.46" x="40.638,48.208,55.778,63.055,66.145,71.865,77.215,81.135,86.765,90.565,95.995,99.085,103.915,109.695,118.435,121.635,126.125,130.955,133.725,139.15,144.87,148.79,151.56,155.19,157.96,162.79,166.59,172.02,177.78,183.56,187.36,191.28,195.77" svgx:width="0.71,0.71,0.71,0.26,0.53,0.49,0.35,0.52,0.34,0.5,0.26,0.44,0.53,0.83,0.28,0.4,0.44,0.23,0.5,0.53,0.35,0.23,0.32,0.23,0.44,0.34,0.5,0.53,0.53,0.34,0.35,0.4,0.28" style="fill:rgb(255,255,255);font-family:Corbel;font-size:10.0px;stroke:none;">www.nature.com/scientificreports/</text>
  </g>
  <g begin="text">
   <text y="764.23" x="549.53" svgx:width="0.51" style="fill:rgb(131,144,151);font-family:Corbel;font-size:10.0px;stroke:none;">2</text>
  </g>
  <g begin="text">
   <text y="764.193" x="40.794,45.642,50.786,53.186,58.026,64.026,68.898,71.298,75.762,78.162" svgx:width="0.55,0.59,0.25,0.55,0.7,0.56,0.25,0.5,0.25,0.59" style="fill:rgb(131,144,151);font-family:Corbel;font-size:8.0px;stroke:none;">Scientific</text>
   <text y="764.193" x="83.162" svgx:width="0.2" style="fill:rgb(0,0,0);font-family:Corbel;font-size:8.0px;stroke:none;"> </text>
   <text y="764.193" x="84.762,90.218,95.194,100.434,106.738,112.194,117.186" svgx:width="0.63,0.57,0.6,0.73,0.63,0.57,0.58" style="fill:rgb(131,144,151);font-family:Corbel-Bold;font-size:8.0px;stroke:none;">RepoRts</text>
   <text y="764.193" x="122.082,123.524,125.34,126.781,130.885,132.997,137.101,141.205,145.309,149.413,153.517,154.945,156.761,158.203,163.571,169.411,171.379,173.491,174.93,179.034,183.138,185.25,189.354,193.458,197.562,201.666,203.866,207.098,209.778,213.762,218.01,222.114,226.218,230.322,234.426" svgx:width="0.2,0.23,0.2,0.51,0.26,0.51,0.51,0.51,0.51,0.51,0.2,0.23,0.2,0.67,0.73,0.25,0.26,0.2,0.51,0.51,0.26,0.51,0.51,0.51,0.51,0.28,0.4,0.34,0.5,0.53,0.51,0.51,0.51,0.51,0.51" style="fill:rgb(0,0,0);font-family:Corbel;font-size:8.0px;stroke:none;"> | 7:40927 | DOI: 10.1038/srep40927</text>
  </g>
  <path style="fill:none;stroke:rgb(0,0,0);stroke-width:1.0;" d="M40.640 752.550 L554.640 752.550 "/>
  <g begin="text">
   <text y="484.3" x="167.638,170.445,173.28,175.431,177.905,181.298,183.449,187.49,191.332,195.921,200.898,205.433,211.75,214.117,218.076,222.918,227.147,231.106,235.948,238.099,240.986,245.855,249.724,252.559,254.71,259.398,263.727,268.28,271.762,274.264,279.106,281.257,286.755,289.257" svgx:width="0.34,0.31,0.23,0.27,0.37,0.23,0.44,0.42,0.5,0.55,0.51,0.69,0.25,0.43,0.53,0.47,0.43,0.53,0.23,0.31,0.53,0.44,0.31,0.23,0.53,0.46,0.51,0.37,0.27,0.53,0.23,0.62,0.27,0.75" style="fill:rgb(0,0,0);font-family:MinionPro-Regular;font-size:9.0px;stroke:none;">It is acknowledged that hybrid TiO</text>
   <text y="486.1" x="296.058" svgx:width="0.48" style="fill:rgb(0,0,0);font-family:MinionPro-Regular;font-size:5.85px;stroke:none;">2</text>
   <text y="484.3" x="298.924,301.075,307.356,309.749,312.637,317.533,319.684,324.58,327.082,331.445,336.341,339.635,343.558,347.427,352.278,356.319,360.216,362.61,365.47,369.691,371.842,379.266,383.181,386.069,390.154,392.521,394.672,399.207,403.545,406.047,410.889,414.804,418.197,420.348,424.919,428.348,430.499,434.422,438.382,441.811,446.553,451.125,456.138,458.289,465.722,469.591,472.47,475.952,478.454,482.792,484.943,487.417,490.81,492.961,496.92,501.933,504.084,507.999,515.271,519.168,521.67,525.585,530.426,533.261,535.412,538.724,543.304,548.065,550.845,554.67" svgx:width="0.23,0.69,0.27,0.31,0.53,0.23,0.53,0.27,0.47,0.53,0.36,0.42,0.44,0.52,0.44,0.42,0.27,0.31,0.46,0.23,0.82,0.43,0.31,0.44,0.25,0.23,0.51,0.47,0.27,0.53,0.43,0.37,0.23,0.51,0.37,0.23,0.42,0.44,0.37,0.51,0.51,0.55,0.23,0.82,0.44,0.31,0.37,0.27,0.47,0.23,0.27,0.37,0.23,0.44,0.55,0.23,0.43,0.8,0.42,0.27,0.43,0.55,0.31,0.23,0.37,0.51,0.53,0.31,0.43,0.23" style="fill:rgb(0,0,0);font-family:MinionPro-Regular;font-size:9.0px;stroke:none;"> with high-capacity metal oxides or carbon matrix is an efficient route </text>
   <text y="494.299" x="155.635,158.382,163.026,165.06,167.526,174.781,179.445,182.724,187.226,191.377,195.256,197.29,200.146,204.972,208.851,210.885,214.73,217.061,220.986,224.912,227.759,231.037,235.764,239.573,244.399,248.278,255.703,258.169,262.059,266.112,268.443,270.477,275.33,279.209,282.658,285.298,289.836,293.284,300.685,304.611,309.555,313.416" svgx:width="0.31,0.51,0.23,0.27,0.82,0.52,0.37,0.51,0.46,0.43,0.23,0.31,0.53,0.43,0.23,0.43,0.25,0.43,0.42,0.31,0.37,0.51,0.42,0.53,0.43,0.82,0.27,0.42,0.44,0.25,0.23,0.52,0.43,0.37,0.3,0.51,0.37,0.82,0.44,0.55,0.42,0.43" style="fill:rgb(0,0,0);font-family:MinionPro-Regular;font-size:9.0px;stroke:none;">to improve the electrochemical performance</text>
   <text y="491.24" x="317.327,320.17,323.013,326.09,328.933" svgx:width="0.48,0.48,0.52,0.48,0.48" style="fill:rgb(0,0,0);font-family:MinionPro-Regular;font-size:5.85px;stroke:none;">20–22</text>
   <text y="494.3" x="331.783,333.889,335.923,341.388,343.901,346.279,348.61,350.644,355.587,360.09,365.654,367.76,369.794,374.015,377.941,381.39,383.856,388.404,393.212,396.569,398.603,403.555,407.481,412.425,417.069,420.383,423.229,426.714,431.547,435.474,438.185,443.018,446.296,450.222,455.028,457.062,462.528,464.994" svgx:width="0.23,0.23,0.62,0.27,0.25,0.25,0.23,0.55,0.51,0.69,0.23,0.23,0.46,0.44,0.37,0.27,0.51,0.53,0.37,0.23,0.55,0.44,0.55,0.51,0.37,0.31,0.37,0.53,0.42,0.31,0.53,0.37,0.43,0.53,0.23,0.62,0.27,0.75" style="fill:rgb(0,0,0);font-family:MinionPro-Regular;font-size:9.0px;stroke:none;">. Till now, various nanostructured TiO</text>
   <text y="496.1" x="471.8" svgx:width="0.48" style="fill:rgb(0,0,0);font-family:MinionPro-Regular;font-size:5.85px;stroke:none;">2</text>
   <text y="494.3" x="474.645,477.68,482.324" svgx:width="0.33,0.53,0.43" style="fill:rgb(0,0,0);font-family:MinionPro-Regular;font-size:9.0px;stroke:none;">/Fe</text>
   <text y="496.1" x="486.207" svgx:width="0.48" style="fill:rgb(0,0,0);font-family:MinionPro-Regular;font-size:5.85px;stroke:none;">2</text>
   <text y="494.3" x="489.052" svgx:width="0.75" style="fill:rgb(0,0,0);font-family:MinionPro-Regular;font-size:9.0px;stroke:none;">O</text>
   <text y="496.1" x="495.831" svgx:width="0.48" style="fill:rgb(0,0,0);font-family:MinionPro-Regular;font-size:5.85px;stroke:none;">3</text>
   <text y="494.3" x="498.675,500.709,504.57,509.108,516.365,521.218,525.862,529.219,531.578,534.325,538.204,541.561,543.595,547.521,550.799,554.624" svgx:width="0.23,0.42,0.51,0.82,0.52,0.51,0.37,0.27,0.31,0.43,0.37,0.23,0.44,0.37,0.43,0.23" style="fill:rgb(0,0,0);font-family:MinionPro-Regular;font-size:9.0px;stroke:none;"> composites are </text>
   <text y="504.299" x="155.64,158.496,162.549,166.988,170.867,175.844,177.878,182.606,187.376,189.41,191.876,196.685,199.432,204.076,206.11,210.037,214.981,219.709,224.515,228.394,230.428,237.828,241.665,244.413,248.292,251.74,254.236,258.289,260.595" svgx:width="0.31,0.44,0.5,0.43,0.55,0.23,0.53,0.52,0.23,0.27,0.55,0.31,0.51,0.23,0.44,0.55,0.51,0.53,0.43,0.23,0.82,0.44,0.31,0.43,0.37,0.27,0.44,0.25,0.37" style="fill:rgb(0,0,0);font-family:MinionPro-Regular;font-size:9.0px;stroke:none;">taken up into anode materials</text>
   <text y="501.24" x="263.985,266.828,269.672,272.749,275.592" svgx:width="0.48,0.48,0.52,0.48,0.48" style="fill:rgb(0,0,0);font-family:MinionPro-Regular;font-size:5.85px;stroke:none;">23–25</text>
   <text y="504.3" x="278.443,280.549,282.583,285.907,290.734,295.236,301.485,303.951,308.859,313.125,315.159,317.625,324.882,329.546,332.825,337.328,341.479,345.358,352.75,356.629,361.438,364.237,366.271,370.809,375.786,377.82,381.711,385.547,390.365,394.37,398.231,400.591,403.42,407.605,409.639,413.62,416.977,419.011,425.16,429.006,431.385,433.716,435.75,439.731,443.088,445.122,449.849,454.619,458.933,462.326,466.331,471.137,473.603,478.511,482.777,484.811,489.349,494.326,496.36,500.368,504.484,508.293,510.624,513.09,517.998,522.264,524.298,527.613,530.469,534.404,538.925,541.439,543.77,546.13,548.959,552.49,554.542" svgx:width="0.23,0.23,0.37,0.53,0.51,0.69,0.27,0.55,0.47,0.23,0.27,0.82,0.52,0.37,0.51,0.46,0.43,0.82,0.43,0.55,0.31,0.23,0.51,0.55,0.23,0.42,0.44,0.52,0.44,0.42,0.27,0.31,0.46,0.23,0.44,0.37,0.23,0.69,0.43,0.25,0.25,0.23,0.44,0.37,0.23,0.53,0.52,0.47,0.37,0.44,0.53,0.27,0.55,0.47,0.23,0.51,0.55,0.23,0.42,0.46,0.42,0.25,0.27,0.55,0.47,0.23,0.37,0.31,0.44,0.51,0.27,0.25,0.27,0.31,0.46,0.23,0.23" style="fill:rgb(0,0,0);font-family:MinionPro-Regular;font-size:9.0px;stroke:none;">, showing improvement on capacity as well as upgrading on cycling stability. </text>
   <text y="514.299" x="155.638,162.307,166.753,172.846,176.743,180.838,184.663,187.435,189.487,191.305,193.717,198.64,200.458,207.793,212.383,215.641,218.386,220.204,224.038,227.962,231.337,235.162,238.465,240.517,242.335,245.134,249.904,253.729,255.547,260.146,264.385,268.849,272.242,274.654,279.406,281.224,284.482,287.272,290.701,295.48,299.35,302.005,306.784,310.006,313.831,317.134,318.952,323.704,326.962,331.768,335.763,338.085,340.299,344.43,346.248,351.0,354.789,357.066,359.415,363.51,367.335,370.674,372.492,377.271,382.121,385.478,389.258,392.048,394.433,397.736,400.553,404.712,407.124,411.975,416.187,418.005,422.802,426.627,430.019,432.602,437.084,440.477,447.821,451.691,456.578,460.385,464.21,466.028,468.827,473.606,477.476,482.399,484.217,488.042,492.29,497.086,500.956,504.826,507.517,511.387,516.084,518.136,519.954,523.779,527.037,531.833,535.703,539.51,541.949,545.945,548.267,550.481,554.612" svgx:width="0.77,0.51,0.69,0.43,0.46,0.43,0.37,0.23,0.23,0.27,0.55,0.23,0.82,0.51,0.37,0.31,0.23,0.42,0.44,0.37,0.43,0.37,0.23,0.23,0.31,0.53,0.43,0.23,0.53,0.46,0.51,0.37,0.27,0.53,0.23,0.37,0.31,0.37,0.53,0.42,0.31,0.53,0.37,0.43,0.37,0.23,0.53,0.37,0.53,0.44,0.25,0.25,0.46,0.23,0.53,0.43,0.25,0.27,0.46,0.43,0.37,0.23,0.53,0.55,0.37,0.44,0.31,0.27,0.37,0.3,0.46,0.27,0.55,0.47,0.23,0.52,0.43,0.37,0.3,0.51,0.37,0.82,0.44,0.55,0.42,0.43,0.23,0.31,0.53,0.44,0.55,0.23,0.43,0.47,0.52,0.43,0.42,0.31,0.43,0.53,0.23,0.23,0.43,0.37,0.52,0.43,0.42,0.27,0.44,0.25,0.25,0.46,0.23" style="fill:rgb(0,0,0);font-family:MinionPro-Regular;font-size:9.0px;stroke:none;">However, in most cases, the hybrid structures usually deliver unsatisfying performance than expected, especially </text>
   <text y="524.298" x="155.638,158.307,162.874,166.298,168.435,173.272,177.183,182.083,185.975,188.472,192.383,197.22,200.05,202.187,205.611,209.476,212.253,216.163,218.3,222.264,226.813,229.356,231.718,234.108,236.964,241.181,243.317,247.273,252.245,257.083,259.219,261.582,266.113,272.364,274.5,278.419,282.285,287.131,291.167,295.059,297.449,300.305,303.865,306.002,308.139,314.452,319.344,321.841,325.679,330.571,332.707,336.663,339.97,343.881,346.017,353.447,357.402,359.899,364.952,367.252,371.468,373.605,377.614,381.074,384.967,388.445,390.907,395.644,399.6,404.436,406.574,409.35,414.025,416.162,418.659,423.595,426.939,431.803,439.07,442.963,445.46,449.37,454.207,457.038,459.174,463.067,467.634,472.471,475.355,479.392,483.347,486.177,488.315,492.179,495.01,497.147,499.644,504.481,507.258,511.167,514.646,517.395,521.431,525.323,529.234,532.622,534.759,536.897,539.285,543.241,546.593,550.819,554.643" svgx:width="0.3,0.51,0.37,0.23,0.53,0.43,0.54,0.42,0.27,0.43,0.55,0.31,0.23,0.37,0.44,0.31,0.43,0.23,0.44,0.51,0.27,0.25,0.27,0.31,0.46,0.23,0.44,0.55,0.53,0.23,0.25,0.51,0.69,0.23,0.42,0.44,0.52,0.44,0.42,0.27,0.31,0.46,0.23,0.23,0.69,0.53,0.27,0.42,0.53,0.23,0.44,0.37,0.43,0.23,0.82,0.44,0.27,0.55,0.25,0.46,0.23,0.44,0.37,0.42,0.37,0.27,0.51,0.43,0.53,0.23,0.31,0.51,0.23,0.27,0.55,0.37,0.53,0.8,0.42,0.27,0.43,0.55,0.31,0.23,0.42,0.51,0.55,0.31,0.44,0.42,0.31,0.23,0.44,0.31,0.23,0.27,0.55,0.31,0.43,0.37,0.3,0.44,0.42,0.43,0.37,0.23,0.23,0.25,0.44,0.37,0.47,0.43,0.23" style="fill:rgb(0,0,0);font-family:MinionPro-Regular;font-size:9.0px;stroke:none;">for deficient rate ability and low capacity, which are mainly ascribed to insufficient contact at interfaces, large </text>
   <text y="534.297" x="155.638,158.92,163.714,167.599,170.836,174.679,176.632,181.129,183.811,185.764,189.613,193.498,196.855,201.523,206.02,210.961,212.914,216.739,221.236,226.102,229.374,232.18,234.498,237.168,241.965,245.808,250.576,253.339,255.292,259.231,262.552,264.505,268.33,272.826,277.729,282.388,287.185,291.069,293.875,296.238,300.348,304.191,306.144,310.029,314.931,319.701,321.654,324.927,327.598,332.395,337.378,341.262,346.032,347.985,351.81,356.308,363.522,368.334,372.831,377.733,381.576,386.344,389.107,391.06,397.267,399.585,402.4,407.224,409.177,411.472,415.968,420.834,425.064,427.017,429.822,433.179,437.064,441.93,445.203,450.015,454.511,457.956,460.719,462.672,467.442,469.841,473.114,475.928,479.813,484.715,488.54,492.327,494.397,496.35,502.44,505.761,507.714,510.987,515.784,523.173,530.532,534.417,537.825,540.255,544.053,547.938,552.651,554.703" svgx:width="0.37,0.53,0.44,0.37,0.43,0.23,0.51,0.3,0.23,0.42,0.44,0.37,0.51,0.51,0.55,0.23,0.42,0.51,0.55,0.37,0.31,0.27,0.31,0.53,0.43,0.55,0.31,0.23,0.44,0.37,0.23,0.42,0.51,0.55,0.53,0.53,0.42,0.31,0.27,0.46,0.43,0.23,0.44,0.55,0.53,0.23,0.37,0.31,0.53,0.56,0.43,0.53,0.23,0.42,0.51,0.82,0.52,0.51,0.55,0.43,0.55,0.31,0.23,0.69,0.27,0.31,0.53,0.23,0.25,0.51,0.55,0.47,0.23,0.31,0.37,0.44,0.55,0.37,0.52,0.51,0.37,0.31,0.23,0.53,0.27,0.37,0.31,0.44,0.55,0.42,0.43,0.23,0.23,0.69,0.37,0.23,0.37,0.53,0.82,0.82,0.44,0.37,0.27,0.42,0.43,0.53,0.23,0.23" style="fill:rgb(0,0,0);font-family:MinionPro-Regular;font-size:9.0px;stroke:none;">share of carbon constituent as conductive and stuffed component with long transport distance. As summarized, </text>
   <text y="544.296" x="155.638,162.983,167.582,170.849,173.603,175.556,177.842,180.156,182.857,186.691,190.039,193.829,196.494,201.282,204.514,208.348,211.66,213.613,218.105,223.037,224.99,230.409,232.83" svgx:width="0.82,0.51,0.37,0.31,0.23,0.25,0.27,0.31,0.43,0.37,0.44,0.31,0.53,0.37,0.43,0.37,0.23,0.51,0.55,0.23,0.62,0.27,0.75" style="fill:rgb(0,0,0);font-family:MinionPro-Regular;font-size:9.0px;stroke:none;">most literatures on TiO</text>
   <text y="546.1" x="239.563" svgx:width="0.48" style="fill:rgb(0,0,0);font-family:MinionPro-Regular;font-size:5.85px;stroke:none;">2</text>
   <text y="544.3" x="242.378,249.164,256.509,260.343,263.152,267.158,269.444,271.397,275.852,280.109,282.53,287.291,291.125,294.437,296.39,300.324,303.636,305.589,309.47,314.366,319.047,323.808,327.642,330.954,332.907,335.5,339.992,343.34,345.293,350.144,353.222,358.523,361.835,363.896,365.849,369.63,371.691,375.94,378.001,379.954,385.373,387.794" svgx:width="0.75,0.82,0.43,0.31,0.44,0.25,0.23,0.51,0.47,0.27,0.53,0.43,0.37,0.23,0.44,0.37,0.23,0.44,0.55,0.51,0.53,0.43,0.37,0.23,0.3,0.51,0.37,0.23,0.54,0.34,0.59,0.37,0.23,0.23,0.43,0.23,0.47,0.23,0.23,0.62,0.27,0.75" style="fill:rgb(0,0,0);font-family:MinionPro-Regular;font-size:9.0px;stroke:none;">@metal oxides as anodes for LIBs, e.g. TiO</text>
   <text y="546.1" x="394.526" svgx:width="0.48" style="fill:rgb(0,0,0);font-family:MinionPro-Regular;font-size:5.85px;stroke:none;">2</text>
   <text y="544.3" x="397.34,404.126,412.092,417.024" svgx:width="0.75,0.89,0.55,0.75" style="fill:rgb(0,0,0);font-family:MinionPro-Regular;font-size:9.0px;stroke:none;">@MnO</text>
   <text y="546.1" x="423.759" svgx:width="0.48" style="fill:rgb(0,0,0);font-family:MinionPro-Regular;font-size:5.85px;stroke:none;">2</text>
   <text y="544.3" x="426.573,428.526,433.432,437.312,442.209,446.665,452.867,455.288,458.519,462.353,464.306,468.186,471.589,474.937,478.736,482.22,484.281,486.234,491.653,494.074" svgx:width="0.23,0.55,0.44,0.55,0.51,0.69,0.27,0.37,0.43,0.23,0.44,0.37,0.37,0.44,0.46,0.23,0.23,0.62,0.27,0.75" style="fill:rgb(0,0,0);font-family:MinionPro-Regular;font-size:9.0px;stroke:none;"> nanowire array, TiO</text>
   <text y="546.1" x="500.803" svgx:width="0.48" style="fill:rgb(0,0,0);font-family:MinionPro-Regular;font-size:5.85px;stroke:none;">2</text>
   <text y="544.3" x="503.618,510.405,515.004" svgx:width="0.75,0.53,0.43" style="fill:rgb(0,0,0);font-family:MinionPro-Regular;font-size:9.0px;stroke:none;">@Fe</text>
   <text y="546.1" x="518.839" svgx:width="0.48" style="fill:rgb(0,0,0);font-family:MinionPro-Regular;font-size:5.85px;stroke:none;">2</text>
   <text y="544.3" x="521.654" svgx:width="0.75" style="fill:rgb(0,0,0);font-family:MinionPro-Regular;font-size:9.0px;stroke:none;">O</text>
   <text y="546.1" x="528.386" svgx:width="0.48" style="fill:rgb(0,0,0);font-family:MinionPro-Regular;font-size:5.85px;stroke:none;">3</text>
   <text y="544.3" x="531.201,533.154,538.06,541.939,546.836,551.433" svgx:width="0.23,0.55,0.44,0.55,0.51,0.36" style="fill:rgb(0,0,0);font-family:MinionPro-Regular;font-size:9.0px;stroke:none;"> nano-</text>
   <text y="554.299" x="155.64,158.976,163.76,168.629,170.87,174.855,178.361,181.817,185.72,189.308,191.477,193.718,197.701,202.703,207.572,209.813,215.335,217.864" svgx:width="0.37,0.51,0.53,0.23,0.44,0.37,0.37,0.44,0.46,0.23,0.23,0.44,0.55,0.53,0.23,0.62,0.27,0.75" style="fill:rgb(0,0,0);font-family:MinionPro-Regular;font-size:9.0px;stroke:none;">rod array, and TiO</text>
   <text y="556.1" x="224.675" svgx:width="0.48" style="fill:rgb(0,0,0);font-family:MinionPro-Regular;font-size:5.85px;stroke:none;">2</text>
   <text y="554.3" x="227.557,234.451,240.684" svgx:width="0.75,0.67,0.51" style="fill:rgb(0,0,0);font-family:MinionPro-Regular;font-size:9.0px;stroke:none;">@Co</text>
   <text y="556.1" x="245.386" svgx:width="0.48" style="fill:rgb(0,0,0);font-family:MinionPro-Regular;font-size:5.85px;stroke:none;">3</text>
   <text y="554.3" x="248.268" svgx:width="0.75" style="fill:rgb(0,0,0);font-family:MinionPro-Regular;font-size:9.0px;stroke:none;">O</text>
   <text y="556.1" x="255.105" svgx:width="0.48" style="fill:rgb(0,0,0);font-family:MinionPro-Regular;font-size:5.85px;stroke:none;">4</text>
   <text y="554.3" x="257.987,260.228,265.238,269.222,274.223,278.882,283.648,287.552,289.835,292.697,294.938,298.922,302.43,305.886,309.789,313.376,315.545,317.786,323.994,327.936,331.272,335.214,337.455,342.455,347.052,350.558,358.016,362.126,364.562,366.89,371.138,373.379,376.185,380.127,383.498,386.303,390.287,395.156,397.397,401.291,404.153,406.394,408.788,413.348,419.63,421.871,425.856,430.752,434.259,437.594,441.536,446.402,449.264,451.505,456.374,460.316,465.28,468.7,471.117,474.022,476.551,480.493,483.913,486.154,491.05,496.051,500.92,504.862,508.318,510.559,514.996,517.165,521.602,522.722,529.058,532.154,536.507,538.676,540.917,544.901,549.903,554.655" svgx:width="0.23,0.55,0.44,0.55,0.51,0.51,0.43,0.25,0.31,0.23,0.44,0.37,0.37,0.44,0.46,0.23,0.23,0.69,0.43,0.37,0.43,0.23,0.55,0.51,0.37,0.82,0.44,0.25,0.25,0.46,0.23,0.31,0.43,0.37,0.31,0.43,0.53,0.23,0.44,0.31,0.23,0.25,0.51,0.69,0.23,0.42,0.53,0.37,0.37,0.43,0.55,0.31,0.23,0.53,0.43,0.55,0.37,0.27,0.31,0.27,0.43,0.37,0.23,0.53,0.55,0.53,0.43,0.37,0.23,0.48,0.23,0.48,0.23,0.69,0.33,0.47,0.23,0.23,0.44,0.55,0.53,0.23" style="fill:rgb(0,0,0);font-family:MinionPro-Regular;font-size:9.0px;stroke:none;"> nanobelt array, were normally tested at low current densities under 2.0 A/g, and </text>
   <text y="564.299" x="155.639,159.531,163.851,168.725,171.169,175.701,178.073,180.832,184.77,189.59,191.669,196.493,200.385,205.061,208.351,212.248,215.573,218.948,221.428,226.347,230.627,232.706,236.607,240.456,245.284,249.307,253.182,255.554,258.412,260.891,264.788,268.159,270.238,274.959,278.815,281.164,285.678,291.915,293.994,298.382,302.773,307.118,308.315,315.753,322.044,323.237,328.11,330.189" svgx:width="0.43,0.47,0.53,0.27,0.51,0.27,0.31,0.43,0.53,0.23,0.53,0.43,0.52,0.37,0.43,0.37,0.37,0.27,0.55,0.47,0.23,0.42,0.44,0.52,0.44,0.42,0.27,0.31,0.27,0.43,0.37,0.23,0.51,0.43,0.25,0.51,0.69,0.23,0.48,0.48,0.48,0.23,0.82,0.69,0.23,0.53,0.23,0.47" style="fill:rgb(0,0,0);font-family:MinionPro-Regular;font-size:9.0px;stroke:none;">exhibited depressing capacities below 300 mA h g</text>
   <text y="561.24" x="334.457" svgx:width="0.78" style="fill:rgb(0,0,0);font-family:EuclidSymbol;font-size:5.85px;stroke:none;">−</text>
   <text y="561.24" x="339.055" svgx:width="0.48" style="fill:rgb(0,0,0);font-family:MinionPro-Regular;font-size:5.85px;stroke:none;">1</text>
   <text y="564.3" x="341.909,343.988,348.539,353.493,357.372,361.265,363.344,366.211,371.049,374.946,377.025,380.962,385.809,389.27,392.56,396.457,401.276,404.093,406.172,410.992,414.889,419.807,423.182,425.554,428.394,432.592,434.671,437.962,441.908,445.931,449.752,454.59,458.483,461.853,463.932,468.446,472.609,476.502,479.908,481.987,486.375,488.494,492.886,494.027,500.318,503.365" svgx:width="0.23,0.51,0.55,0.42,0.43,0.23,0.31,0.53,0.43,0.23,0.42,0.53,0.37,0.37,0.43,0.55,0.31,0.23,0.53,0.43,0.55,0.37,0.27,0.31,0.46,0.23,0.37,0.43,0.44,0.42,0.53,0.43,0.37,0.23,0.51,0.46,0.43,0.37,0.23,0.48,0.23,0.48,0.23,0.69,0.33,0.47" style="fill:rgb(0,0,0);font-family:MinionPro-Regular;font-size:9.0px;stroke:none;"> once the current density reaches over 1.6 A/g</text>
   <text y="561.24" x="507.645,510.497" svgx:width="0.48,0.48" style="fill:rgb(0,0,0);font-family:MinionPro-Regular;font-size:5.85px;stroke:none;">25</text>
   <text y="564.3" x="513.349,515.469,517.548,525.401,529.952,533.241,537.179,541.693,545.856,549.749,552.589,554.641" svgx:width="0.23,0.23,0.89,0.51,0.37,0.43,0.51,0.46,0.43,0.37,0.23,0.23" style="fill:rgb(0,0,0);font-family:MinionPro-Regular;font-size:9.0px;stroke:none;">. Moreover, </text>
   <text y="574.299" x="155.635,160.45,165.371,169.214,173.728,178.513,181.337,184.591,189.151,191.506,193.843,197.755,202.297,204.61,208.471,210.442,213.781,217.972,222.757,225.589,230.392,234.253,237.592,240.01,243.349,245.32,252.696,256.725,261.142,265.003,268.342,270.313,272.649,275.43,277.401,282.213,286.116,289.371,294.159,296.13,298.853,303.479,305.45,309.437,313.223,318.065,320.513,324.443,328.571,332.432,334.403,338.928,343.578,346.4,348.848,356.225,360.254,362.567,364.538,369.188,373.217,375.554,379.457,384.377,388.22,392.081,394.052,396.5,401.459,403.43,406.261,411.065,414.926,416.897,420.236,424.427,429.346,433.207,436.507,440.797,443.214,446.506,449.329,451.777,455.62,457.591,461.452,466.453,470.356,474.259,477.04,479.128,481.099,487.801,491.662,494.917,498.778,501.226,506.185,508.273,510.245,516.371,520.232,522.203,526.843,530.099,533.96,537.368,541.229,546.013,548.794,550.765,554.716" svgx:width="0.53,0.55,0.42,0.51,0.55,0.31,0.37,0.51,0.25,0.25,0.44,0.51,0.25,0.43,0.23,0.37,0.46,0.55,0.31,0.53,0.43,0.37,0.27,0.37,0.23,0.82,0.44,0.5,0.43,0.37,0.23,0.27,0.31,0.23,0.53,0.44,0.37,0.53,0.23,0.31,0.51,0.23,0.44,0.42,0.53,0.27,0.43,0.46,0.43,0.23,0.51,0.52,0.31,0.27,0.82,0.44,0.25,0.23,0.51,0.44,0.25,0.44,0.55,0.42,0.43,0.23,0.27,0.55,0.23,0.31,0.53,0.43,0.23,0.37,0.46,0.55,0.43,0.37,0.47,0.27,0.37,0.31,0.27,0.42,0.23,0.43,0.56,0.43,0.42,0.31,0.23,0.23,0.77,0.43,0.37,0.43,0.27,0.55,0.23,0.23,0.69,0.43,0.23,0.52,0.37,0.43,0.37,0.43,0.55,0.31,0.23,0.44,0.23" style="fill:rgb(0,0,0);font-family:MinionPro-Regular;font-size:9.0px;stroke:none;">uncontrollable synthesis makes it hard to achieve optimal balance in the synergistic effect. Herein, we present a </text>
   <text y="584.298" x="155.635,160.117,162.547,167.452,172.222,176.065,179.206,182.428,186.397,191.167,195.937,198.259,201.067,203.434,207.547,211.39,214.612,217.384,220.624,224.512,228.355,230.317,235.745,238.175" svgx:width="0.51,0.27,0.55,0.53,0.43,0.37,0.36,0.44,0.53,0.53,0.27,0.31,0.27,0.46,0.43,0.36,0.3,0.37,0.43,0.43,0.23,0.62,0.27,0.75" style="fill:rgb(0,0,0);font-family:MinionPro-Regular;font-size:9.0px;stroke:none;">binder-additive-free TiO</text>
   <text y="586.1" x="244.915" svgx:width="0.48" style="fill:rgb(0,0,0);font-family:MinionPro-Regular;font-size:5.85px;stroke:none;">2</text>
   <text y="584.3" x="247.735,250.732,255.34" svgx:width="0.33,0.53,0.43" style="fill:rgb(0,0,0);font-family:MinionPro-Regular;font-size:9.0px;stroke:none;">/Fe</text>
   <text y="586.1" x="259.183" svgx:width="0.48" style="fill:rgb(0,0,0);font-family:MinionPro-Regular;font-size:5.85px;stroke:none;">2</text>
   <text y="584.3" x="262.003" svgx:width="0.75" style="fill:rgb(0,0,0);font-family:MinionPro-Regular;font-size:9.0px;stroke:none;">O</text>
   <text y="586.1" x="268.744" svgx:width="0.48" style="fill:rgb(0,0,0);font-family:MinionPro-Regular;font-size:5.85px;stroke:none;">3</text>
   <text y="584.3" x="271.564,273.526,277.351,281.851,285.091,288.934,292.156,295.441,300.229,304.036,306.376,308.671,310.633,315.548,319.436,324.341,328.85,331.523,336.284,340.775,345.617,347.939,351.827,355.184,357.146,361.034,364.445,367.802,371.609,375.758,379.079,381.041,384.983,388.304,390.266,395.09,397.52,401.812,406.636,408.598,413.413,417.256,420.667,423.268,427.768,431.179,438.541,442.429,447.334,451.159,455.002,456.964,460.771,463.066,466.954,470.842,473.65,476.89,481.579,486.349,490.192,492.154,494.971,499.795,503.035,507.545,512.342,516.635,521.459,523.421,527.39,529.352,534.148,539.089,541.519,546.046,550.843,554.668" svgx:width="0.23,0.42,0.51,0.37,0.43,0.36,0.37,0.53,0.43,0.25,0.25,0.23,0.55,0.44,0.55,0.51,0.31,0.53,0.51,0.53,0.25,0.44,0.37,0.23,0.44,0.37,0.37,0.44,0.46,0.37,0.23,0.44,0.37,0.23,0.53,0.27,0.47,0.53,0.23,0.52,0.43,0.37,0.3,0.51,0.37,0.82,0.44,0.55,0.42,0.43,0.23,0.43,0.25,0.43,0.42,0.31,0.37,0.51,0.53,0.43,0.23,0.31,0.53,0.37,0.51,0.53,0.47,0.53,0.23,0.44,0.23,0.53,0.55,0.27,0.51,0.53,0.43,0.23" style="fill:rgb(0,0,0);font-family:MinionPro-Regular;font-size:9.0px;stroke:none;"> core-shell nanotubular arrays as high performance electrode through a unique </text>
   <text y="594.299" x="155.635,162.997,166.849,169.675,174.472,179.171,183.95,185.921,189.755,194.264,201.573,206.064,208.503,213.453,215.892,220.77,225.009,226.98,231.606,235.693,240.472,243.721,248.24,251.066,255.864,259.716,263.136,270.507,274.531,276.835,278.806,282.703,287.618,292.397,294.368,297.653,300.372,304.224,308.823,315.043,317.455,320.857,324.709,326.68,330.487,333.205,337.715,345.113,347.552,351.386,353.357,355.688,359.504,363.59,367.442,370.808,372.779,377.558,381.41,386.234,390.851,394.181,396.513,399.33,401.769,406.279,411.229,413.2,416.341,422.587,427.456,434.098,437.239,439.318,441.289,446.077,448.516,451.829,455.114,457.886,459.857,464.367,467.058,469.029,473.052,475.401,477.652,479.731,481.702,484.528,489.361,491.774,495.104,497.075,501.422,508.064,510.035,514.959,518.856,523.771,528.289,530.972,535.742,540.242,545.094,547.424,551.322,554.661" svgx:width="0.82,0.43,0.31,0.53,0.51,0.53,0.23,0.42,0.51,0.82,0.51,0.27,0.55,0.27,0.55,0.47,0.23,0.53,0.46,0.53,0.37,0.51,0.31,0.53,0.43,0.37,0.82,0.44,0.25,0.23,0.44,0.55,0.53,0.23,0.37,0.31,0.43,0.52,0.69,0.27,0.37,0.43,0.23,0.44,0.31,0.51,0.82,0.27,0.42,0.23,0.25,0.44,0.46,0.43,0.37,0.23,0.53,0.43,0.52,0.51,0.37,0.27,0.31,0.27,0.51,0.55,0.23,0.35,0.69,0.54,0.74,0.35,0.23,0.23,0.53,0.27,0.37,0.37,0.31,0.23,0.51,0.3,0.23,0.44,0.25,0.25,0.23,0.23,0.31,0.53,0.27,0.37,0.23,0.48,0.74,0.23,0.55,0.44,0.55,0.51,0.31,0.53,0.51,0.53,0.25,0.44,0.37,0.23" style="fill:rgb(0,0,0);font-family:MinionPro-Regular;font-size:9.0px;stroke:none;">method combining hydrothermal and stepwise atomic layer deposition (ALD). First of all, this 3D nanotubular </text>
   <text y="604.298" x="155.635,159.511,162.74,166.5,171.315,173.626,176.324,180.2,184.077,186.739,191.527,194.756,198.59,200.534,202.82,206.705,210.665,215.397,218.709,220.653,223.351,227.95,229.894,233.854,235.798,243.004,247.792,251.552,256.367,258.311,260.621,264.499,267.772,271.919,275.753,279.101,281.045,284.31,289.098,292.498,295.171,299.131,302.947,306.781,308.725,312.601,315.83,319.715,323.675,325.619,331.819,334.129,336.935,341.75,343.694,347.654,352.415,356.291,360.807,365.62,369.406,372.104,375.938,377.882,381.677,383.963,387.84,391.716,394.513,397.742,402.275,404.496,408.636,411.335,415.169,417.113,421.916,425.75,430.644,434.478,437.275,440.623,444.41,447.207,449.628,454.116,459.048,460.992,464.868,469.763,474.524,476.468,481.229,483.65,486.878,490.755,494.632,497.385,499.329,503.659,510.283,512.227,516.994,520.78,523.586,528.192,534.366,538.161,542.301,544.245,546.835,551.323,554.662" svgx:width="0.44,0.37,0.42,0.53,0.27,0.31,0.43,0.42,0.31,0.53,0.37,0.43,0.23,0.25,0.43,0.44,0.53,0.37,0.23,0.31,0.51,0.23,0.44,0.23,0.82,0.53,0.42,0.53,0.23,0.25,0.44,0.37,0.47,0.43,0.37,0.23,0.37,0.53,0.37,0.3,0.44,0.42,0.43,0.23,0.44,0.37,0.43,0.44,0.23,0.69,0.27,0.31,0.53,0.23,0.44,0.53,0.43,0.51,0.53,0.44,0.31,0.43,0.23,0.43,0.25,0.43,0.42,0.31,0.37,0.51,0.25,0.46,0.31,0.43,0.23,0.52,0.43,0.55,0.43,0.31,0.37,0.44,0.31,0.27,0.51,0.55,0.23,0.44,0.55,0.53,0.23,0.53,0.27,0.37,0.43,0.42,0.31,0.23,0.48,0.74,0.23,0.52,0.44,0.31,0.53,0.69,0.44,0.46,0.23,0.3,0.51,0.37,0.23" style="fill:rgb(0,0,0);font-family:MinionPro-Regular;font-size:9.0px;stroke:none;">architecture leads to a much larger surface area with adequate electrolyte penetration and direct 1D pathway for </text>
   <text y="614.297" x="155.635,159.468,161.79,165.704,169.618,172.451,175.717,180.243,185.211,187.2,190.034,193.418,197.332,202.227,205.528,210.369,214.895,218.368,221.158,223.147,229.383,231.731,234.574,239.425,241.414,245.454,247.748,251.166,255.801,257.79,262.721,266.591,269.048,273.367,278.127,282.824,287.35,290.787,293.244,298.139,302.396,304.385,307.686,312.491,316.487,320.339,324.209,326.198,328.933,333.568,335.557,339.553,343.405,347.257,351.783,359.199,366.578,371.294,376.116,379.94,382.675,386.545,388.534,392.672,397.243,399.456,404.28,411.659,415.529,418.363,421.799,424.256,428.108,430.097,433.893,438.716,442.63,447.525,451.709,455.579,457.568,462.095,464.804,466.793,470.626,472.948,476.862,480.775,483.609,486.875,491.59,496.387,500.257,502.246,509.634,513.459,516.193,520.063,523.5,525.982,530.022,532.316" svgx:width="0.43,0.25,0.43,0.42,0.31,0.37,0.51,0.55,0.23,0.31,0.37,0.44,0.55,0.37,0.52,0.51,0.37,0.31,0.23,0.69,0.27,0.31,0.53,0.23,0.44,0.25,0.37,0.51,0.23,0.55,0.43,0.27,0.47,0.53,0.51,0.51,0.37,0.27,0.55,0.47,0.23,0.37,0.52,0.44,0.42,0.43,0.23,0.31,0.51,0.23,0.44,0.42,0.42,0.51,0.82,0.82,0.51,0.53,0.44,0.31,0.43,0.23,0.46,0.51,0.25,0.53,0.82,0.43,0.31,0.37,0.27,0.42,0.23,0.42,0.53,0.44,0.55,0.47,0.43,0.23,0.51,0.3,0.23,0.43,0.25,0.43,0.42,0.31,0.37,0.51,0.53,0.43,0.23,0.82,0.44,0.31,0.43,0.37,0.27,0.44,0.25,0.37" style="fill:rgb(0,0,0);font-family:MinionPro-Regular;font-size:9.0px;stroke:none;">electron transport with also neighboring space to accommodate volumetric change of electrode materials</text>
   <text y="611.24" x="535.679,538.516,539.879,542.716,545.553,546.916,549.754" svgx:width="0.48,0.23,0.48,0.48,0.23,0.48,0.48" style="fill:rgb(0,0,0);font-family:MinionPro-Regular;font-size:5.85px;stroke:none;">3,26,27</text>
   <text y="614.3" x="552.586,554.638" svgx:width="0.23,0.23" style="fill:rgb(0,0,0);font-family:MinionPro-Regular;font-size:9.0px;stroke:none;">. </text>
   <text y="624.299" x="155.641,161.781,166.282,173.502,178.283,182.174,185.416,189.305,194.075,196.037,202.249,204.573,207.392,212.216,214.178,216.988,220.345,224.314,229.084,231.408,234.218,236.648,241.15,246.066,250.081,252.376,254.338,258.228,261.641,264.998,268.807,272.956,274.918,278.196,281.005,284.454,289.251,293.141,295.816,300.613,303.855,307.646,309.716,311.678,314.497,319.321,321.726,325.047,327.009,330.834,335.336,338.578,342.421,345.643,348.93,353.72,357.529,359.871,362.166,364.128,369.043,372.933,377.84,382.351,385.027,389.789,394.462,398.305,400.267,405.037,408.88,412.201,414.631,418.908,423.849,425.811,428.217,431.538,433.5,436.237,441.034,444.483,447.302,452.092,455.935,459.292,461.254,465.369,469.212,472.489,475.201,479.09,483.86,485.822,492.034,494.358,497.176,502.0,503.962,506.736,510.149,512.579,516.422,521.329,526.146,528.38,532.529,534.491,536.921,541.693,544.405,548.248,551.434" svgx:width="0.67,0.51,0.82,0.52,0.44,0.37,0.43,0.53,0.23,0.69,0.27,0.31,0.53,0.23,0.31,0.37,0.44,0.53,0.27,0.31,0.27,0.51,0.55,0.44,0.25,0.23,0.44,0.37,0.37,0.44,0.46,0.23,0.37,0.31,0.37,0.53,0.42,0.31,0.53,0.37,0.43,0.23,0.23,0.31,0.53,0.27,0.37,0.23,0.42,0.51,0.37,0.43,0.36,0.37,0.53,0.43,0.25,0.25,0.23,0.55,0.44,0.55,0.51,0.31,0.53,0.51,0.43,0.23,0.53,0.43,0.37,0.27,0.47,0.55,0.23,0.27,0.37,0.23,0.3,0.53,0.37,0.31,0.53,0.43,0.37,0.23,0.46,0.43,0.37,0.31,0.43,0.53,0.23,0.69,0.27,0.31,0.53,0.23,0.3,0.37,0.27,0.43,0.55,0.53,0.25,0.46,0.23,0.27,0.55,0.31,0.43,0.37,0.36" style="fill:rgb(0,0,0);font-family:MinionPro-Regular;font-size:9.0px;stroke:none;">Compared with traditional array structure, this core-shell nanotube design is further vested with friendly inter-</text>
   <text y="634.298" x="155.641,158.377,162.4,166.279,170.176,172.273,177.0,180.897,183.742,189.909,193.853,197.75,202.745,204.842,208.721,213.277,220.551,225.421,229.978,234.939,238.836,243.662,246.479,249.854,251.951,256.02,258.369,262.925,267.85,272.134,274.231,280.497,282.875,285.747,290.625,292.722,296.601,301.157,305.983,308.847,311.331,316.157,321.008,325.572,330.398,333.739,336.027,340.23,342.327,344.811,349.637,352.5,354.984,362.402,366.256,369.021,372.918,375.015,378.894,383.45,388.275,391.148,395.171,399.115,401.932,404.056,406.153,413.562,418.118,421.413,425.31,427.407,431.304,438.558,442.437,444.921,448.818,453.644,456.461,458.558,461.042,465.598,470.593,472.69,476.634,481.594,486.418,488.515,492.378,494.727,498.671,502.615,505.479,508.774,513.33,518.325,520.422,523.286,526.697,530.641,535.566,538.897,543.768,548.324,551.827,554.572" svgx:width="0.3,0.44,0.42,0.43,0.23,0.51,0.43,0.31,0.69,0.43,0.43,0.55,0.23,0.42,0.51,0.82,0.52,0.51,0.55,0.43,0.55,0.31,0.37,0.23,0.44,0.25,0.51,0.55,0.47,0.23,0.69,0.27,0.31,0.53,0.23,0.42,0.51,0.55,0.31,0.27,0.55,0.53,0.51,0.53,0.37,0.25,0.46,0.23,0.27,0.55,0.31,0.27,0.82,0.44,0.31,0.43,0.23,0.42,0.51,0.55,0.31,0.44,0.42,0.31,0.23,0.23,0.82,0.51,0.37,0.43,0.23,0.43,0.8,0.42,0.27,0.43,0.55,0.31,0.23,0.27,0.51,0.55,0.23,0.44,0.55,0.53,0.23,0.43,0.25,0.43,0.42,0.31,0.37,0.51,0.55,0.23,0.31,0.37,0.44,0.55,0.37,0.52,0.51,0.37,0.31,0.23" style="fill:rgb(0,0,0);font-family:MinionPro-Regular;font-size:9.0px;stroke:none;">face between components along with continuously intimate contact, more efficient ion and electron transport </text>
   <text y="644.297" x="155.641,161.852,164.176,166.994,171.818,174.248,179.189,181.151,185.941,190.488,192.829,195.124,199.589,205.772,207.734,211.624,215.035,218.392,222.2,226.349,229.67,231.632,235.575,238.896,240.858,246.97,250.779,253.121,255.416,257.378,261.322,264.643,266.605,271.375,275.885,280.647,285.176,287.471,291.314,294.536,297.857,300.287,305.057,308.9,310.862,314.751,317.993,321.891,325.86,327.822,330.425,334.927,338.284,340.246,345.07,347.5,351.795,356.619,358.581,360.876,365.53,369.499,374.269,376.699,381.57,385.8,387.762,392.263,394.945,396.907,401.516" svgx:width="0.69,0.27,0.31,0.53,0.27,0.55,0.23,0.53,0.51,0.25,0.25,0.51,0.69,0.23,0.44,0.37,0.37,0.44,0.46,0.37,0.23,0.44,0.37,0.23,0.69,0.43,0.25,0.25,0.23,0.44,0.37,0.23,0.53,0.51,0.53,0.51,0.25,0.43,0.36,0.37,0.27,0.53,0.43,0.23,0.44,0.37,0.43,0.44,0.23,0.3,0.51,0.37,0.23,0.53,0.27,0.47,0.53,0.23,0.25,0.51,0.44,0.53,0.27,0.55,0.47,0.23,0.51,0.3,0.23,0.53,0.43" style="fill:rgb(0,0,0);font-family:MinionPro-Regular;font-size:9.0px;stroke:none;">within hollow arrays as well as double-side area for high loading of Fe</text>
   <text y="646.1" x="405.378" svgx:width="0.48" style="fill:rgb(0,0,0);font-family:MinionPro-Regular;font-size:5.85px;stroke:none;">2</text>
   <text y="644.3" x="408.198" svgx:width="0.75" style="fill:rgb(0,0,0);font-family:MinionPro-Regular;font-size:9.0px;stroke:none;">O</text>
   <text y="646.1" x="414.941" svgx:width="0.48" style="fill:rgb(0,0,0);font-family:MinionPro-Regular;font-size:5.85px;stroke:none;">3</text>
   <text y="641.238" x="417.761,420.58,423.4,424.745,427.565" svgx:width="0.48,0.48,0.23,0.48,0.48" style="fill:rgb(0,0,0);font-family:MinionPro-Regular;font-size:5.85px;stroke:none;">28,29</text>
   <text y="644.3" x="430.39,432.46,434.422,439.31,443.2,446.649,449.458,451.888,455.778,460.62,462.944,466.833,470.156,472.39,475.883,477.953,479.915,486.152,492.706,497.565,499.527,502.21,506.178,510.004,512.48,514.775,517.099,519.917,523.717,526.428,530.271,533.592,535.554,538.236,542.205,546.03,548.506,550.801,554.626" svgx:width="0.23,0.23,0.56,0.44,0.37,0.31,0.27,0.42,0.53,0.25,0.44,0.37,0.25,0.46,0.23,0.23,0.69,0.74,0.54,0.23,0.3,0.44,0.42,0.27,0.25,0.27,0.31,0.44,0.31,0.43,0.37,0.23,0.3,0.44,0.42,0.27,0.25,0.43,0.23" style="fill:rgb(0,0,0);font-family:MinionPro-Regular;font-size:9.0px;stroke:none;">. Particularly, ADL facilitates facile </text>
   <text y="654.299" x="155.638,159.445,163.924,168.772,172.026,174.814,178.239,183.018,186.885,189.671,192.083,196.561,201.484,203.221,207.701,210.365,212.102,216.688" svgx:width="0.42,0.51,0.55,0.37,0.31,0.37,0.53,0.42,0.31,0.27,0.51,0.55,0.23,0.51,0.3,0.23,0.53,0.43" style="fill:rgb(0,0,0);font-family:MinionPro-Regular;font-size:9.0px;stroke:none;">construction of Fe</text>
   <text y="656.1" x="220.488" svgx:width="0.48" style="fill:rgb(0,0,0);font-family:MinionPro-Regular;font-size:5.85px;stroke:none;">2</text>
   <text y="654.3" x="223.294" svgx:width="0.75" style="fill:rgb(0,0,0);font-family:MinionPro-Regular;font-size:9.0px;stroke:none;">O</text>
   <text y="656.1" x="230.014" svgx:width="0.48" style="fill:rgb(0,0,0);font-family:MinionPro-Regular;font-size:5.85px;stroke:none;">3</text>
   <text y="654.3" x="232.82,235.799,241.205,243.617" svgx:width="0.33,0.62,0.27,0.75" style="fill:rgb(0,0,0);font-family:MinionPro-Regular;font-size:9.0px;stroke:none;">/TiO</text>
   <text y="656.1" x="250.331" svgx:width="0.48" style="fill:rgb(0,0,0);font-family:MinionPro-Regular;font-size:5.85px;stroke:none;">2</text>
   <text y="654.3" x="253.137,254.874,257.285,262.035,264.723,268.548,271.938,274.602,278.553,282.36,286.185,287.922,291.79,296.674,301.426,303.163,306.97,311.448,316.198,318.984,322.203,326.727,329.046,331.347,335.223,339.728,342.005,345.83,347.567,349.844,354.476,358.427,363.179,365.591,370.438,374.65,376.387,379.074,383.664,385.401,387.813,392.527,396.618,400.443,403.698,406.485,408.897,413.109,416.885,419.574,423.399,425.136,428.439,432.593,437.477,441.302,444.567,448.82,451.202,454.457,457.244,459.656,463.463,465.2,469.025,473.99,477.857,481.723,484.468" svgx:width="0.23,0.27,0.55,0.31,0.43,0.37,0.3,0.44,0.42,0.43,0.23,0.44,0.55,0.53,0.23,0.42,0.51,0.55,0.31,0.37,0.51,0.25,0.25,0.44,0.51,0.25,0.43,0.23,0.25,0.51,0.44,0.53,0.27,0.55,0.47,0.23,0.31,0.51,0.23,0.27,0.55,0.46,0.43,0.37,0.31,0.27,0.47,0.44,0.31,0.43,0.23,0.37,0.46,0.55,0.43,0.37,0.47,0.27,0.37,0.31,0.27,0.42,0.23,0.43,0.56,0.43,0.42,0.31,0.37" style="fill:rgb(0,0,0);font-family:MinionPro-Regular;font-size:9.0px;stroke:none;"> interface and controllable loading to investigate synergistic effects</text>
   <text y="651.24" x="487.654,490.462,493.27,494.604,497.412" svgx:width="0.48,0.48,0.23,0.48,0.48" style="fill:rgb(0,0,0);font-family:MinionPro-Regular;font-size:5.85px;stroke:none;">30,31</text>
   <text y="654.3" x="500.209,502.261,503.998,512.392,514.693,517.489,522.295,524.027,526.823,531.591,535.416,537.153,541.641,546.254,549.042,551.454" svgx:width="0.23,0.23,0.97,0.27,0.31,0.53,0.23,0.31,0.53,0.43,0.23,0.51,0.52,0.31,0.27,0.36" style="fill:rgb(0,0,0);font-family:MinionPro-Regular;font-size:9.0px;stroke:none;">. With the opti-</text>
   <text y="664.299" x="155.635,163.023,167.062,169.384,171.373,175.243,180.254,184.167,188.08,190.87,192.859,197.385,200.094,202.083,206.716" svgx:width="0.82,0.44,0.25,0.23,0.43,0.56,0.43,0.42,0.31,0.23,0.51,0.3,0.23,0.53,0.43" style="fill:rgb(0,0,0);font-family:MinionPro-Regular;font-size:9.0px;stroke:none;">mal effect of Fe</text>
   <text y="666.1" x="210.583" svgx:width="0.48" style="fill:rgb(0,0,0);font-family:MinionPro-Regular;font-size:5.85px;stroke:none;">2</text>
   <text y="664.3" x="213.419" svgx:width="0.75" style="fill:rgb(0,0,0);font-family:MinionPro-Regular;font-size:9.0px;stroke:none;">O</text>
   <text y="666.1" x="220.186" svgx:width="0.48" style="fill:rgb(0,0,0);font-family:MinionPro-Regular;font-size:5.85px;stroke:none;">3</text>
   <text y="664.3" x="223.022,225.011,228.863,233.541,237.364,240.197,242.654,247.548,251.831,253.928,255.917,260.559,264.841,269.349,272.785,275.242,280.039,282.028,285.86,288.182,292.095,296.008,298.84,302.106,306.82,311.617,315.487,317.476,321.346,325.639,330.49,332.908,337.416,339.763,342.553,345.901,347.89,352.425,357.139,359.929,363.23,366.072,369.985,374.916,379.713,382.17,387.064,391.321,393.31,397.142,399.464,403.377,407.29,410.123,413.388,418.102,421.898,426.711,430.581,437.997,440.454,444.332,448.371,450.693,452.682,457.522,461.392,464.828,467.454,471.98,475.416,482.803,486.716,491.646,495.498,499.368,501.357,507.593,509.94,512.783,517.634,519.623,523.493,526.794,531.634,535.547,539.399,541.881,545.92,548.285,550.542,554.673" svgx:width="0.23,0.42,0.51,0.44,0.31,0.27,0.55,0.47,0.23,0.23,0.53,0.46,0.51,0.37,0.27,0.53,0.23,0.43,0.25,0.43,0.42,0.31,0.37,0.51,0.53,0.43,0.23,0.43,0.47,0.53,0.27,0.51,0.27,0.31,0.37,0.23,0.51,0.53,0.31,0.37,0.31,0.44,0.55,0.53,0.27,0.55,0.47,0.23,0.43,0.25,0.43,0.42,0.31,0.37,0.51,0.42,0.53,0.43,0.82,0.27,0.42,0.44,0.25,0.23,0.52,0.43,0.37,0.3,0.51,0.37,0.82,0.44,0.55,0.42,0.43,0.23,0.69,0.27,0.31,0.53,0.23,0.43,0.37,0.52,0.43,0.42,0.27,0.44,0.25,0.25,0.46,0.23" style="fill:rgb(0,0,0);font-family:MinionPro-Regular;font-size:9.0px;stroke:none;"> coating, hybrid electrode exhibits outstanding electrochemical performance with especially </text>
   <text y="674.299" x="155.639,160.152,164.846,167.612,170.893,173.714,177.607,182.515,187.29,189.724,194.597,198.832,200.794,204.767,208.849,212.623,214.923,218.77,220.732,224.013,226.833,230.735,235.221,237.7,239.999,242.326,245.119,249.273,251.235,254.371,259.614,263.956,268.298,272.648,273.791,281.184,287.426,288.569,293.397,295.359" svgx:width="0.51,0.53,0.31,0.37,0.31,0.44,0.55,0.53,0.27,0.55,0.47,0.23,0.42,0.46,0.42,0.25,0.43,0.23,0.37,0.31,0.44,0.51,0.27,0.25,0.27,0.31,0.46,0.23,0.35,0.58,0.48,0.48,0.48,0.23,0.82,0.69,0.23,0.53,0.23,0.47" style="fill:rgb(0,0,0);font-family:MinionPro-Regular;font-size:9.0px;stroke:none;">outstanding cycle stability (~450 mA h g</text>
   <text y="671.24" x="299.599" svgx:width="0.78" style="fill:rgb(0,0,0);font-family:EuclidSymbol;font-size:5.85px;stroke:none;">−</text>
   <text y="671.24" x="304.168" svgx:width="0.48" style="fill:rgb(0,0,0);font-family:MinionPro-Regular;font-size:5.85px;stroke:none;">1</text>
   <text y="674.3" x="306.989,308.951,312.843,318.05,321.896,325.258,327.22,331.562,335.904,340.246,342.208,346.182,350.263,354.038,356.338,360.185,363.51,366.646,368.608,372.501,377.41,382.185,384.147,387.426,392.12,396.939,400.786,404.147,408.742,410.704,414.065,417.867,420.581,424.427,426.389,430.245,434.047,438.83,442.731,447.218,449.697,451.996,454.322,457.117,461.27,463.232,466.367,471.061,475.799,477.761,480.474,485.086,487.048,491.391,495.746,496.889,503.126,504.269" svgx:width="0.23,0.44,0.58,0.43,0.37,0.23,0.48,0.48,0.48,0.23,0.42,0.46,0.42,0.25,0.43,0.37,0.35,0.23,0.44,0.55,0.53,0.23,0.37,0.53,0.52,0.43,0.37,0.51,0.23,0.37,0.44,0.31,0.43,0.23,0.42,0.44,0.52,0.44,0.51,0.27,0.25,0.27,0.31,0.46,0.23,0.35,0.53,0.52,0.23,0.31,0.51,0.23,0.48,0.48,0.23,0.69,0.23,0.47" style="fill:rgb(0,0,0);font-family:MinionPro-Regular;font-size:9.0px;stroke:none;"> after 600 cycles) and superb rate capability (up to 10 A g</text>
   <text y="671.24" x="508.517" svgx:width="0.78" style="fill:rgb(0,0,0);font-family:EuclidSymbol;font-size:5.85px;stroke:none;">−</text>
   <text y="671.24" x="513.086" svgx:width="0.48" style="fill:rgb(0,0,0);font-family:MinionPro-Regular;font-size:5.85px;stroke:none;">1</text>
   <text y="674.3" x="515.907,517.869,521.645,526.446,530.339,533.627,537.907,540.341,545.214,549.449,552.585,554.636" svgx:width="0.23,0.42,0.53,0.44,0.37,0.47,0.27,0.55,0.47,0.35,0.23,0.23" style="fill:rgb(0,0,0);font-family:MinionPro-Regular;font-size:9.0px;stroke:none;"> charging), </text>
   <text y="684.299" x="155.637,160.389,164.214,171.549,176.031,180.882,184.14,186.93,190.269,194.048,196.838,199.25,204.101,208.313,210.149,214.406,217.628,221.507,225.286,228.031,229.867,234.664,239.155,241.846,245.671,250.423,253.213,255.652,259.647,261.924,263.76,267.684,270.987,272.823,276.648,280.824,284.632,288.421,290.742,293.019,296.844,301.596,304.341,306.177,310.047,314.934,319.605,324.357,328.182,330.018,334.013,336.182,338.873,342.698,346.091,350.987,354.767,357.557,359.906,364.001,367.826,369.662,372.245,376.727,380.066,381.902,386.708,389.12,393.394,398.2,400.036,404.833,408.658,412.051,414.634,419.116,422.509,429.853,433.723,438.61,442.417,446.242,448.078,452.92,455.989,461.281,464.584" svgx:width="0.53,0.43,0.82,0.51,0.55,0.37,0.31,0.37,0.44,0.31,0.27,0.55,0.47,0.23,0.47,0.37,0.43,0.44,0.31,0.23,0.52,0.51,0.31,0.43,0.55,0.31,0.27,0.44,0.25,0.23,0.44,0.37,0.23,0.43,0.47,0.42,0.43,0.25,0.25,0.43,0.55,0.31,0.23,0.44,0.55,0.51,0.53,0.43,0.23,0.44,0.25,0.31,0.43,0.37,0.55,0.44,0.31,0.27,0.46,0.43,0.23,0.3,0.51,0.37,0.23,0.53,0.27,0.47,0.53,0.23,0.52,0.43,0.37,0.3,0.51,0.37,0.82,0.44,0.55,0.42,0.43,0.23,0.54,0.34,0.59,0.37,0.23" style="fill:rgb(0,0,0);font-family:MinionPro-Regular;font-size:9.0px;stroke:none;">demonstrating great potential as excellent anode alternative for high performance LIBs.</text>
   <text y="704.462" x="155.638,162.33,167.973,172.637,178.632,181.404,185.573" svgx:width="0.63,0.51,0.42,0.55,0.25,0.38,0.42" style="fill:rgb(0,0,0);font-family:Corbel-Bold;font-size:11.0px;stroke:none;">Results</text>
   <text y="714.462" x="155.638,165.319,169.225,171.34,174.085,178.042,182.584,186.055,188.548,192.46,196.318,199.186,201.679,206.239,211.243,213.358,218.044,221.344,226.093,229.981,233.887,237.224,240.608,242.723,247.283,250.028,252.143,256.99,261.596,263.996,266.354,270.878,277.124,279.239,284.727,287.22" svgx:width="1.07,0.43,0.23,0.3,0.44,0.51,0.37,0.27,0.42,0.44,0.31,0.27,0.51,0.55,0.23,0.52,0.37,0.51,0.42,0.43,0.37,0.37,0.23,0.51,0.3,0.23,0.53,0.51,0.25,0.25,0.51,0.69,0.23,0.62,0.27,0.75" style="fill:rgb(0,0,0);font-family:MinionPro-Regular;font-size:9.0px;stroke:none;">The fabrication process of hollow TiO</text>
   <text y="716.262" x="293.97" svgx:width="0.48" style="fill:rgb(0,0,0);font-family:MinionPro-Regular;font-size:5.85px;stroke:none;">2</text>
   <text y="714.462" x="296.829,303.684,308.355" svgx:width="0.75,0.53,0.43" style="fill:rgb(0,0,0);font-family:MinionPro-Regular;font-size:9.0px;stroke:none;">@Fe</text>
   <text y="716.262" x="312.255" svgx:width="0.48" style="fill:rgb(0,0,0);font-family:MinionPro-Regular;font-size:5.85px;stroke:none;">2</text>
   <text y="714.462" x="315.114" svgx:width="0.75" style="fill:rgb(0,0,0);font-family:MinionPro-Regular;font-size:9.0px;stroke:none;">O</text>
   <text y="716.262" x="321.915" svgx:width="0.48" style="fill:rgb(0,0,0);font-family:MinionPro-Regular;font-size:5.85px;stroke:none;">3</text>
   <text y="714.462" x="324.774,326.889,330.777,335.337,338.637,342.543,345.603,348.949,353.797,357.663,360.064,362.422,364.537,369.51,373.458,378.424,382.993,385.726,390.547,395.278,399.184,401.299,405.247,408.718,412.138,416.005,420.217,423.601,425.716,430.275,435.279,437.394,442.882,445.375,447.49,450.151,454.711,457.246,459.604,461.719,465.054,469.875,474.528,477.865,480.732,484.152,488.01,490.779,494.685,498.069,500.184,502.647,506.031,508.146,510.68,513.081,515.328,520.157,523.494,526.362,529.782,533.64,536.409,540.357,545.19,547.305,549.798,554.721" svgx:width="0.23,0.42,0.51,0.37,0.43,0.33,0.37,0.53,0.43,0.25,0.25,0.23,0.55,0.44,0.55,0.51,0.31,0.53,0.51,0.43,0.23,0.44,0.37,0.37,0.44,0.46,0.37,0.23,0.51,0.55,0.23,0.62,0.27,0.23,0.3,0.51,0.27,0.25,0.23,0.37,0.53,0.51,0.37,0.31,0.37,0.44,0.31,0.43,0.37,0.23,0.27,0.37,0.23,0.27,0.25,0.25,0.53,0.37,0.31,0.37,0.44,0.31,0.43,0.53,0.23,0.27,0.55,0.23" style="fill:rgb(0,0,0);font-family:MinionPro-Regular;font-size:9.0px;stroke:none;"> core/shell nanotube arrays on Ti foil substrates is illustrated in </text>
   <text y="724.461" x="155.637,160.524,163.062,167.428,169.606,171.891,176.337,178.515,180.801,190.531,194.482,196.768,200.252,204.329,208.262,211.782,214.32,219.261,223.194,225.76,229.883,232.286,234.572,237.391,241.342,248.669,253.449,255.88,259.787,262.605,266.556,268.842,273.452,276.242,278.528,284.775" svgx:width="0.53,0.27,0.47,0.23,0.23,0.48,0.23,0.23,1.07,0.43,0.23,0.37,0.44,0.42,0.37,0.27,0.54,0.42,0.27,0.44,0.25,0.23,0.31,0.43,0.82,0.52,0.25,0.44,0.31,0.43,0.23,0.51,0.3,0.23,0.67,0.51" style="fill:rgb(0,0,0);font-family:MinionPro-Regular;font-size:9.0px;stroke:none;">Fig. 1. The sacrificial template of Co</text>
   <text y="726.262" x="289.502" svgx:width="0.48" style="fill:rgb(0,0,0);font-family:MinionPro-Regular;font-size:5.85px;stroke:none;">2</text>
   <text y="724.462" x="292.393,295.633,302.403,309.423" svgx:width="0.35,0.75,0.77,0.35" style="fill:rgb(0,0,0);font-family:MinionPro-Regular;font-size:9.0px;stroke:none;">(OH)</text>
   <text y="726.262" x="312.666" svgx:width="0.48" style="fill:rgb(0,0,0);font-family:MinionPro-Regular;font-size:5.85px;stroke:none;">2</text>
   <text y="724.462" x="315.557,321.731" svgx:width="0.67,0.75" style="fill:rgb(0,0,0);font-family:MinionPro-Regular;font-size:9.0px;stroke:none;">CO</text>
   <text y="726.262" x="328.582" svgx:width="0.48" style="fill:rgb(0,0,0);font-family:MinionPro-Regular;font-size:5.85px;stroke:none;">3</text>
   <text y="724.462" x="331.473,333.759,338.782,342.78,347.794,352.367,358.686,361.224,364.573,368.524,370.81,374.808,378.328,381.793,385.71,389.967,393.396,395.682,401.902,405.853,409.202,413.153,415.439,420.38,423.792,427.177,430.104,432.445,436.702,438.988,442.417,446.703,451.582,454.507,459.405,463.356,466.785,469.323,473.229,477.226,482.104,484.39,489.0,494.049,496.335,501.871,504.409,506.695,509.406,514.015,516.598,518.976,522.405,524.691,527.617,532.549,535.899,540.517,545.422,549.824,554.629" svgx:width="0.23,0.55,0.44,0.55,0.51,0.69,0.27,0.37,0.43,0.23,0.44,0.37,0.37,0.44,0.46,0.37,0.23,0.69,0.43,0.37,0.43,0.23,0.54,0.37,0.37,0.31,0.25,0.46,0.23,0.37,0.46,0.55,0.31,0.53,0.43,0.37,0.27,0.42,0.43,0.53,0.23,0.51,0.55,0.23,0.62,0.27,0.23,0.3,0.51,0.27,0.25,0.37,0.23,0.31,0.53,0.37,0.51,0.53,0.47,0.53,0.23" style="fill:rgb(0,0,0);font-family:MinionPro-Regular;font-size:9.0px;stroke:none;"> nanowire arrays were firstly synthesized on Ti foils through </text>
   <text y="734.461" x="155.64,159.753,162.147,166.905,171.123,176.037,179.418,184.068,187.027,191.956,195.943,199.495,206.999,211.154,213.593,215.987,219.368,223.406,227.519,231.548,234.497,237.071,241.712,246.797,249.011,251.405,256.974,259.548" svgx:width="0.44,0.23,0.53,0.46,0.53,0.37,0.51,0.31,0.53,0.43,0.37,0.82,0.44,0.25,0.23,0.37,0.43,0.44,0.42,0.31,0.27,0.51,0.55,0.23,0.23,0.62,0.27,0.75" style="fill:rgb(0,0,0);font-family:MinionPro-Regular;font-size:9.0px;stroke:none;">a hydrothermal reaction. TiO</text>
   <text y="736.262" x="266.413" svgx:width="0.48" style="fill:rgb(0,0,0);font-family:MinionPro-Regular;font-size:5.85px;stroke:none;">2</text>
   <text y="734.462" x="269.324,271.718,278.045,282.128,285.593,287.987,292.928,298.013,300.587,303.33,307.971,311.523,319.098,321.472,325.765,328.159,333.073,337.06,342.016,346.768,350.233,352.697,355.547,359.575,364.489,366.883,371.525,376.61,379.004,381.961,386.891,390.878,393.272,396.689,401.63,405.183,408.009,412.122,416.091,420.078,422.472,427.113,429.939,432.333,435.291,440.22,444.207,446.601,451.656,455.685,460.732,465.337,471.688,474.262,477.644,481.631,484.025,488.054,491.606,495.107,499.056,503.349,506.814,509.028,511.422,514.164,518.85,521.331,523.77,528.374,534.627,538.656,543.57,545.964,550.551,554.682" svgx:width="0.23,0.69,0.44,0.37,0.23,0.53,0.55,0.27,0.3,0.51,0.37,0.82,0.25,0.46,0.23,0.53,0.43,0.52,0.51,0.37,0.27,0.31,0.43,0.53,0.23,0.51,0.55,0.23,0.31,0.53,0.43,0.23,0.37,0.53,0.37,0.3,0.44,0.42,0.43,0.23,0.51,0.3,0.23,0.31,0.53,0.43,0.23,0.55,0.44,0.55,0.51,0.69,0.27,0.37,0.43,0.23,0.44,0.37,0.37,0.44,0.46,0.37,0.23,0.23,0.3,0.51,0.25,0.25,0.51,0.69,0.43,0.53,0.23,0.51,0.46,0.23" style="fill:rgb(0,0,0);font-family:MinionPro-Regular;font-size:9.0px;stroke:none;"> was uniformly deposited on the surface of the nanowire arrays, followed by </text>
  </g>
  <rect style="stroke:blue;stroke-width:0.3;" x="155.638" y="64.138" height="370.32" width="396.0" title="2"/>
  <text y="64.138" class="image" id="image.2.1" width="396" height="370" x="155.638">image.2.1.156_552.64_434</text>
  <path style="fill:none;stroke:rgb(131,144,151);stroke-width:0.3;" d="M159.130 455.360 L552.640 455.360 "/>
  <path style="fill:none;stroke:rgb(131,144,151);stroke-width:1.0;" d="M156.140 455.360 L156.140 455.360 M554.140 455.360 L554.140 455.360 "/>
  <g begin="text">
   <text y="435.363" x="155.638,160.552,163.207,167.662,172.657,176.221,180.154,181.909,186.409" svgx:width="0.55,0.29,0.49,0.56,0.4,0.44,0.22,0.5,0.25" style="fill:rgb(0,0,0);font-family:MinionPro-Bold;font-size:9.0px;stroke:none;">Figure 1.</text>
   <text y="435.363" x="188.695" svgx:width="0.23" style="fill:rgb(0,0,0);font-family:MinionPro-Regular;font-size:9.0px;stroke:none;"> </text>
   <text y="435.363" x="193.195,197.848,201.646,206.596,210.484,218.071,222.129,225.135,227.844,231.642,233.397,236.142,238.734,241.191,246.186,249.597,252.603,256.311,260.37,263.376,266.085,270.72,275.814,277.569,282.204,285.183,286.938,289.989,294.939,298.872,300.627,303.479,308.115,311.751,319.338,323.396,326.402,329.111,333.746,338.84,340.595,345.428,348.992,353.816,357.641,361.574,365.021,368.468,370.223,373.076,377.711,381.347,383.102,386.153,391.103,395.036,396.791,402.416,405.071" svgx:width="0.5,0.42,0.55,0.44,0.84,0.47,0.34,0.29,0.42,0.22,0.29,0.28,0.28,0.56,0.38,0.34,0.4,0.47,0.34,0.29,0.52,0.57,0.22,0.52,0.33,0.22,0.34,0.55,0.44,0.22,0.33,0.52,0.4,0.84,0.47,0.34,0.29,0.52,0.57,0.22,0.55,0.4,0.52,0.42,0.44,0.38,0.38,0.22,0.33,0.52,0.4,0.22,0.34,0.55,0.44,0.22,0.64,0.29,0.77" style="fill:rgb(0,0,0);font-family:MinionPro-Bold;font-size:9.0px;stroke:none;">Schematic illustration of the formation process for the TiO</text>
   <text y="437.163" x="411.988" svgx:width="0.5" style="fill:rgb(0,0,0);font-family:MinionPro-Bold;font-size:5.85px;stroke:none;">2</text>
   <text y="435.363" x="414.913,421.807,426.64" svgx:width="0.77,0.55,0.44" style="fill:rgb(0,0,0);font-family:MinionPro-Bold;font-size:9.0px;stroke:none;">@Fe</text>
   <text y="437.163" x="430.573" svgx:width="0.5" style="fill:rgb(0,0,0);font-family:MinionPro-Bold;font-size:5.85px;stroke:none;">2</text>
   <text y="435.363" x="433.498" svgx:width="0.77" style="fill:rgb(0,0,0);font-family:MinionPro-Bold;font-size:9.0px;stroke:none;">O</text>
   <text y="437.163" x="440.392" svgx:width="0.5" style="fill:rgb(0,0,0);font-family:MinionPro-Bold;font-size:5.85px;stroke:none;">3</text>
   <text y="435.363" x="443.317,445.072,448.897,453.532,457.096,461.029,464.107,467.527,472.477,476.374,478.966,481.468,483.223,488.317,492.466,497.56,502.212,505.119,510.087,514.992,518.925,520.68,524.829,528.465,532.173,536.25,540.399,543.846" svgx:width="0.22,0.42,0.52,0.4,0.44,0.34,0.38,0.55,0.44,0.28,0.28,0.22,0.57,0.47,0.57,0.52,0.34,0.56,0.53,0.44,0.22,0.47,0.4,0.4,0.47,0.47,0.38,0.22" style="fill:rgb(0,0,0);font-family:MinionPro-Bold;font-size:9.0px;stroke:none;"> core-shell nanotube arrays </text>
   <text y="445.362" x="155.641,161.896,164.506,167.557,172.507,174.262,179.239,183.892,188.86,193.639,196.195,200.128,203.206,206.616,209.326,214.302,218.235,219.99,223.814,228.62,232.679,235.685,238.34,243.362,247.79,250.076" svgx:width="0.68,0.29,0.34,0.55,0.22,0.55,0.52,0.56,0.53,0.28,0.44,0.34,0.38,0.29,0.55,0.44,0.22,0.42,0.52,0.47,0.34,0.29,0.57,0.49,0.25,0.22" style="fill:rgb(0,0,0);font-family:MinionPro-Bold;font-size:9.0px;stroke:none;">with double-side coating. </text>
  </g>
 </g>
</svg>
