<?xml version="1.0" encoding="UTF-8"?>
<svg height="757.935" width="4494.674" xmlns="http://www.w3.org/2000/svg">
 <g id="page" xmlns:svgx="http://www.xml-cml.org/schema/svgx">
  <g begin="text">
   <text y="191.282" transform="matrix(0.0,-1.0,1.0,0.0,-171.821,210.743)" rotateDegrees="-90" matrix="[0.0,12.0,-12.0,0.0,19.4614,591.718]" x="19.461,27.405000000000015,38.325,51.393000000000015,64.461,74.313,84.849,89.757,97.70100000000001,106.68900000000001,113.91300000000001,118.82100000000001,129.741" svgx:width="0.66,0.9,1.08,1.08,0.81,0.87,0.4,0.66,0.82,0.6,0.4,0.9,0.87" style="fill:rgb(255,255,255);font-family:Futura-ExtraBold;font-size:12.0px;stroke:none;">COMMUNICATION</text>
  </g>
  <rect style="stroke:blue;stroke-width:0.3;" x="484.674" y="35.804" height="29.832" width="58.703" title="6"/>
  <text y="35.804" class="image" id="image.6.1" width="58" height="29" x="484.674">image.6.1.485_543.36_66</text>
  <path style="fill:none;stroke:rgb(35,31,32);stroke-width:1.0;" d="M481.880 39.260 L129.580 39.260 "/>
  <rect style="stroke:blue;stroke-width:0.3;" x="45.954" y="30.704" height="28.872" width="76.272" title="6"/>
  <text y="30.704" class="image" id="image.6.2" width="76" height="28" x="45.954">image.6.2.46_122.31_60</text>
  <g begin="text">
   <text y="747.79" x="32.482,36.982,41.482,45.982,50.482,54.982,59.482,63.982" svgx:width="0.5,0.5,0.5,0.5,0.5,0.5,0.5,0.25" style="fill:rgb(35,31,32);font-family:ScalaSansLF-Bold;font-size:9.0px;stroke:none;">1500154 </text>
   <text y="747.79" x="68.482,71.749,76.249,78.499,83.296,85.834,88.084,92.584" svgx:width="0.36,0.5,0.25,0.53,0.28,0.25,0.5,0.36" style="fill:rgb(35,31,32);font-family:ScalaSansLF-Regular;font-size:9.0px;stroke:none;">(6 of 7)</text>
   <text y="747.785" x="110.769,115.676,117.405,119.078,122.354,125.385,128.997,132.812,134.485,136.214,140.029,143.305,144.978,146.707,150.333,152.692,156.024,158.383,160.854,162.611,165.719,169.331" svgx:width="0.7,0.25,0.24,0.47,0.43,0.52,0.55,0.24,0.25,0.55,0.47,0.24,0.25,0.52,0.34,0.48,0.34,0.43,0.25,0.44,0.52,0.83" style="fill:rgb(35,31,32);font-family:ScalaSansLF-Bold;font-size:7.0px;stroke:none;">wileyonlinelibrary.com</text>
   <text y="746.804" x="204.174" svgx:width="1.01" style="fill:rgb(35,31,32);font-family:ScalaSansLF-Regular;font-size:6.0px;stroke:none;">©</text>
   <text y="747.804" x="210.228,212.153,215.653,219.153,222.646,226.146,228.071,231.844,235.596,238.879,240.804,244.969,248.756,250.919,254.671,258.402,260.761,263.89,265.647,267.572,271.464,275.251,278.94,280.613,282.342,285.471,289.223,292.506,296.279,298.204,301.893,304.728,306.653,312.701,314.801,318.266,322.039,325.889,327.821,331.902,336.137,341.534,343.459,347.12,350.403,352.762,354.435,357.767,361.316,363.241,368.197,374.126,377.815,383.212,385.137,390.044,391.969,396.029,399.76,401.517,403.442,407.439,412.395,415.727,419.892,421.656,423.581,429.209,432.492,434.221,438.036,441.788,445.071,446.8" svgx:width="0.25,0.5,0.5,0.5,0.5,0.25,0.54,0.54,0.47,0.25,0.6,0.54,0.31,0.54,0.53,0.34,0.45,0.25,0.25,0.56,0.54,0.53,0.24,0.25,0.45,0.54,0.47,0.54,0.25,0.53,0.41,0.25,0.86,0.3,0.5,0.54,0.55,0.28,0.58,0.61,0.77,0.25,0.58,0.47,0.34,0.24,0.48,0.51,0.25,0.71,0.85,0.53,0.77,0.25,0.7,0.25,0.61,0.53,0.25,0.25,0.57,0.71,0.48,0.6,0.25,0.25,0.86,0.47,0.25,0.55,0.54,0.47,0.25,0.85" style="fill:rgb(35,31,32);font-family:ScalaSansLF-Regular;font-size:7.0px;stroke:none;"> 2015 The Authors. Published by WILEY-VCH Verlag GmbH &amp; Co. KGaA, Weinheim</text>
   <text y="58.555" x="459.005,464.533,470.061,474.949,476.877,483.821,487.549,489.941,493.605,496.221,498.117,501.845,503.677,507.173,511.757,513.653,517.317,522.845,526.341,528.269,531.741,535.789" svgx:width="0.7,0.7,0.7,0.25,0.88,0.48,0.31,0.47,0.34,0.25,0.48,0.24,0.45,0.58,0.25,0.47,0.7,0.45,0.25,0.44,0.52,0.83" style="fill:rgb(35,31,32);font-family:ScalaSansLF-Bold;font-size:8.0px;stroke:none;">www.MaterialsViews.com</text>
   <text y="50.499" x="47.125,52.653,58.181,63.069,64.997,68.725,72.893,76.525,80.253,84.533,88.005,91.669,95.837,99.333,102.805,104.701,108.365,112.645,116.117,119.781,121.709,125.181,129.229" svgx:width="0.7,0.7,0.7,0.25,0.48,0.53,0.46,0.48,0.55,0.44,0.47,0.53,0.45,0.44,0.25,0.47,0.55,0.44,0.47,0.25,0.44,0.52,0.83" style="fill:rgb(35,31,32);font-family:ScalaSansLF-Bold;font-size:8.0px;stroke:none;">www.advancedscience.com</text>
   <text y="747.935" x="467.986,472.151,475.595,477.996" svgx:width="0.6,0.49,0.41,0.25" style="fill:rgb(35,31,32);font-family:ScalaSansLF-Italic;font-size:7.0px;stroke:none;">Adv.</text>
   <text y="747.935" x="479.753" svgx:width="0.25" style="fill:rgb(35,31,32);font-family:ScalaSansLF-Regular;font-size:7.0px;stroke:none;"> </text>
   <text y="747.935" x="481.678,485.416,488.174,489.798" svgx:width="0.53,0.39,0.23,0.25" style="fill:rgb(35,31,32);font-family:ScalaSansLF-Italic;font-size:7.0px;stroke:none;">Sci.</text>
   <text y="747.935" x="491.555" svgx:width="0.25" style="fill:rgb(35,31,32);font-family:ScalaSansLF-Regular;font-size:7.0px;stroke:none;"> </text>
   <text y="747.935" x="493.48,496.98,500.48,503.98" svgx:width="0.5,0.5,0.5,0.5" style="fill:rgb(35,31,32);font-family:ScalaSansLF-Bold;font-size:7.0px;stroke:none;">2015</text>
   <text y="747.935" x="507.48,509.244" svgx:width="0.25,0.25" style="fill:rgb(35,31,32);font-family:ScalaSansLF-Regular;font-size:7.0px;stroke:none;">, </text>
   <text y="747.935" x="511.169" svgx:width="0.5" style="fill:rgb(35,31,32);font-family:ScalaSansLF-Italic;font-size:7.0px;stroke:none;">2</text>
   <text y="747.935" x="514.669,516.433,518.358,521.851,525.351,528.851,532.351,535.844,539.344" svgx:width="0.25,0.25,0.5,0.5,0.5,0.5,0.5,0.5,0.5" style="fill:rgb(35,31,32);font-family:ScalaSansLF-Regular;font-size:7.0px;stroke:none;">, 1500154</text>
   <text y="468.065" x="47.002,49.098,55.994,62.89,66.762,71.194,73.29,77.218,79.81,83.682,85.714,88.434,90.562,92.562,93.315,99.035,103.515,107.947,111.819,114.635,116.635,117.389,121.061,125.445,129.925,132.517,134.613,139.093,143.541,147.469,149.501,151.501,152.254,155.95,158.542,160.638,163.454,166.27,168.366,172.846,177.022,179.022,179.776,182.152,186.536,189.352,191.352,192.106,196.226,200.346,202.346,203.099,209.995,212.091,216.571,218.707,220.707,221.461,226.421,230.869" svgx:width="0.25,0.85,0.85,0.47,0.54,0.25,0.48,0.31,0.47,0.24,0.41,0.25,0.25,0.55,0.7,0.55,0.54,0.47,0.34,0.25,0.55,0.44,0.53,0.55,0.31,0.25,0.55,0.54,0.48,0.24,0.25,0.55,0.45,0.31,0.25,0.34,0.34,0.25,0.55,0.51,0.25,0.55,0.28,0.53,0.34,0.25,0.55,0.5,0.5,0.25,0.55,0.85,0.25,0.55,0.25,0.25,0.55,0.61,0.54,0.25" style="fill:rgb(35,31,32);font-family:ScalaSansLF-Regular;font-size:8.0px;stroke:none;">immediately. Under continual stirring for 40 min, Cu </text>
   <text y="469.665" x="230.865" svgx:width="0.5" style="fill:rgb(35,31,32);font-family:ScalaSansLF-Regular;font-size:5.6px;stroke:none;">2</text>
   <text y="468.065" x="233.749,233.751,239.975,241.975,242.728,246.424,250.888,255.296,259.168,261.984,265.856,269.552,271.552,272.306,277.77,281.642,284.458,288.21" svgx:width="0.25,0.76,0.25,0.55,0.45,0.54,0.54,0.47,0.34,0.47,0.45,0.25,0.55,0.67,0.47,0.34,0.47,0.25" style="fill:rgb(35,31,32);font-family:ScalaSansLF-Regular;font-size:8.0px;stroke:none;"> O spheres were </text>
   <text y="477.561" x="47.005,50.677,55.061,57.093,59.125,62.997,66.669,69.261,73.133,77.565,79.565,81.463,85.799,89.159,91.159,93.056,96.728,100.6,105.08,107.672,110.488,112.584,114.96,119.408,123.584,127.512,130.104,132.2,136.584,141.064,143.064,144.962,148.89,153.37,157.802,159.802,161.699,167.163,171.091,174.787,179.195,183.067,187.499,189.499,191.397,196.861,198.957,201.549,205.957,207.957,209.855,215.319,219.247,221.839,225.711,228.527,230.527,232.424,236.352,240.832,245.264,247.264,249.162,253.034,255.626,260.034,263.962,268.442,272.826,274.858,276.858,278.755,281.131,285.515,288.211" svgx:width="0.44,0.53,0.24,0.24,0.47,0.44,0.31,0.47,0.54,0.25,0.55,0.53,0.41,0.25,0.55,0.44,0.47,0.55,0.31,0.34,0.25,0.28,0.54,0.51,0.48,0.31,0.25,0.53,0.55,0.25,0.55,0.48,0.55,0.54,0.25,0.55,0.67,0.48,0.45,0.54,0.47,0.54,0.25,0.55,0.67,0.25,0.31,0.54,0.25,0.55,0.67,0.48,0.31,0.47,0.34,0.25,0.55,0.48,0.55,0.54,0.25,0.55,0.47,0.31,0.54,0.48,0.55,0.53,0.24,0.25,0.55,0.28,0.53,0.34,0.25" style="fill:rgb(35,31,32);font-family:ScalaSansLF-Regular;font-size:8.0px;stroke:none;">collected by centrifugation and washed with water and ethanol for </text>
   <text y="487.057" x="47.005,50.701,54.573,58.269,62.141,64.957,68.885,70.917,73.237,75.829,77.925,84.821,88.693,92.389,94.397" svgx:width="0.45,0.47,0.45,0.47,0.34,0.48,0.24,0.25,0.31,0.25,0.85,0.47,0.45,0.25,0.25" style="fill:rgb(35,31,32);font-family:ScalaSansLF-Regular;font-size:8.0px;stroke:none;">several times. </text>
   <text y="496.553" x="57.005,57.005" svgx:width="0.25,0.25" style="fill:rgb(35,31,32);font-family:ScalaSansLF-Regular;font-size:8.0px;stroke:none;"> </text>
   <text y="496.553" x="57.005,61.453,63.941,67.333,71.269,75.221,77.709,81.661,84.197,86.053,89.877,93.989,95.989,99.486,103.31,105.358,107.358,110.855,114.807,117.015,121.855,126.519,132.623,134.831,140.495,146.599,148.599,152.095,156.047,160.159,164.095,166.095,169.592,172.744,174.952,179.792,184.456" svgx:width="0.56,0.31,0.42,0.49,0.49,0.31,0.49,0.32,0.23,0.48,0.51,0.25,0.55,0.48,0.26,0.25,0.55,0.49,0.28,0.61,0.58,0.76,0.28,0.71,0.76,0.25,0.55,0.49,0.51,0.49,0.25,0.55,0.39,0.28,0.61,0.58,0.76" style="fill:rgb(35,31,32);font-family:ScalaSansLF-Italic;font-size:8.0px;stroke:none;">Preparation of a-CVO-GO and c-CVO</text>
   <text y="496.553" x="190.56,190.561,192.569,194.569,198.066,202.378,206.666,210.418,212.418,215.915,219.971,222.667,226.475,230.819,235.107,238.859,243.219,246.971,248.971,252.467,256.731,259.947,261.923,266.235,269.987,271.987,275.484,280.828,284.636,288.212" svgx:width="0.25,0.25,0.25,0.55,0.54,0.54,0.47,0.25,0.55,0.51,0.34,0.48,0.54,0.54,0.47,0.55,0.47,0.25,0.55,0.53,0.4,0.25,0.54,0.47,0.25,0.55,0.67,0.48,0.45,0.25" style="fill:rgb(35,31,32);font-family:ScalaSansLF-Regular;font-size:8.0px;stroke:none;"> : The graphene oxide was </text>
   <text y="506.049" x="47.005,51.349,54.045,57.797,62.141,65.949,68.645,72.397,76.709,78.709,81.592,85.808,89.048,91.048,93.931,97.739,99.739,102.623,109.399,113.663,117.975,119.951,121.935,123.922,127.674,131.986,133.986,136.869,143.037,147.365,154.141,160.917,164.669,167.365,169.381,172.957,174.957,177.84,184.616,188.368,190.84,195.128,199.392,203.704,205.712,207.712,210.595,214.907,219.195,222.947,224.947,227.831,230.087,232.783,236.535,240.111,244.399,246.607,253.383,257.191,261.503,265.255,267.255,270.138,274.978,279.306" svgx:width="0.54,0.34,0.47,0.54,0.48,0.34,0.47,0.54,0.25,0.55,0.53,0.41,0.25,0.55,0.48,0.25,0.55,0.85,0.53,0.54,0.25,0.5,0.25,0.47,0.54,0.25,0.55,0.77,0.54,0.85,0.85,0.47,0.34,0.25,0.45,0.25,0.55,0.85,0.47,0.31,0.54,0.53,0.54,0.25,0.25,0.55,0.54,0.54,0.47,0.25,0.55,0.28,0.34,0.47,0.45,0.54,0.28,0.85,0.48,0.54,0.47,0.25,0.55,0.61,0.54,0.25" style="fill:rgb(35,31,32);font-family:ScalaSansLF-Regular;font-size:8.0px;stroke:none;">prepared by a modiﬁ ed Hummer’s method. The fresh-made Cu </text>
   <text y="507.665" x="279.304" svgx:width="0.5" style="fill:rgb(35,31,32);font-family:ScalaSansLF-Regular;font-size:5.6px;stroke:none;">2</text>
   <text y="506.065" x="282.104,282.104,288.208" svgx:width="0.25,0.76,0.25" style="fill:rgb(35,31,32);font-family:ScalaSansLF-Regular;font-size:8.0px;stroke:none;"> O </text>
   <text y="515.561" x="47.0,50.576,54.92,59.208,62.96,65.656,69.408,72.984,74.984,78.52,83.864,87.616,90.312,94.064,96.064,99.6,103.912,105.888,109.464,113.808,117.56,120.256,123.832,127.584,131.896,133.896,137.432,139.408,143.768,145.768,149.304,153.304,157.304,161.304,163.304,166.84,173.616,177.576,179.576,183.112,187.376,189.632,191.632,195.168,199.48,201.456,205.032,207.504,209.48,211.392,213.304,217.056,221.368,223.368,226.904,232.248,236.056,238.528,242.28,244.336,246.344,248.344,251.88,255.88,259.88,261.88,265.416,272.192,276.152,278.152,281.688,285.952,288.208" svgx:width="0.45,0.54,0.54,0.47,0.34,0.47,0.45,0.25,0.55,0.67,0.47,0.34,0.47,0.25,0.55,0.54,0.25,0.45,0.54,0.47,0.34,0.45,0.47,0.54,0.25,0.55,0.25,0.55,0.25,0.55,0.5,0.5,0.5,0.25,0.55,0.85,0.5,0.25,0.55,0.53,0.28,0.25,0.55,0.54,0.25,0.45,0.31,0.25,0.24,0.24,0.47,0.54,0.25,0.55,0.67,0.48,0.31,0.47,0.34,0.25,0.25,0.55,0.5,0.5,0.25,0.55,0.85,0.5,0.25,0.55,0.53,0.28,0.25" style="fill:rgb(35,31,32);font-family:ScalaSansLF-Regular;font-size:8.0px;stroke:none;">spheres were dispersed in 200 mL of distilled water. 50 mL of </text>
   <text y="525.057" x="47.0,51.0,53.008,57.008,61.008,63.008,65.194" svgx:width="0.5,0.25,0.5,0.5,0.25,0.55,0.25" style="fill:rgb(35,31,32);font-family:ScalaSansLF-Regular;font-size:8.0px;stroke:none;">0.02 </text>
   <text y="525.065" x="65.195" svgx:width="0.88" style="fill:rgb(35,31,32);font-family:ScalaSansLF-Regular;font-size:5.6px;stroke:none;">M</text>
   <text y="525.065" x="70.112,70.112,72.112,74.296,80.368,86.535" svgx:width="0.25,0.25,0.55,0.76,0.77,0.25" style="fill:rgb(35,31,32);font-family:ScalaSansLF-Regular;font-size:8.0px;stroke:none;"> NH </text>
   <text y="526.665" x="86.537" svgx:width="0.5" style="fill:rgb(35,31,32);font-family:ScalaSansLF-Regular;font-size:5.6px;stroke:none;">4</text>
   <text y="525.065" x="89.337,89.337,94.001,100.105" svgx:width="0.25,0.58,0.76,0.25" style="fill:rgb(35,31,32);font-family:ScalaSansLF-Regular;font-size:8.0px;stroke:none;"> VO </text>
   <text y="526.665" x="100.105" svgx:width="0.5" style="fill:rgb(35,31,32);font-family:ScalaSansLF-Regular;font-size:5.6px;stroke:none;">3</text>
   <text y="525.065" x="102.905,102.907,104.907,107.092,110.9,115.06,119.388,123.14,127.404,131.732,135.308,137.308,139.494,143.07,147.334,149.246,153.574,156.046,158.022,162.286,166.646,168.646,170.831,176.175,179.983,183.559,185.559,187.745,191.553,195.865,200.177,203.929,208.241,210.241,212.427,214.899,219.163,221.163,223.348,225.82,230.108,233.86,235.86,238.046,242.886,247.214" svgx:width="0.25,0.25,0.55,0.48,0.52,0.54,0.47,0.53,0.54,0.45,0.25,0.55,0.45,0.53,0.24,0.54,0.31,0.25,0.53,0.55,0.25,0.55,0.67,0.48,0.45,0.25,0.55,0.48,0.54,0.54,0.47,0.54,0.25,0.55,0.31,0.53,0.25,0.55,0.31,0.54,0.47,0.25,0.55,0.61,0.54,0.25" style="fill:rgb(35,31,32);font-family:ScalaSansLF-Regular;font-size:8.0px;stroke:none;"> aqueous solution was added to the Cu </text>
   <text y="526.665" x="247.207" svgx:width="0.5" style="fill:rgb(35,31,32);font-family:ScalaSansLF-Regular;font-size:5.6px;stroke:none;">2</text>
   <text y="525.065" x="250.007,250.007,256.111,258.111,260.295,263.847,268.111,270.023,271.935,276.199,278.175,282.487,286.295,288.207" svgx:width="0.25,0.76,0.25,0.55,0.44,0.53,0.24,0.24,0.53,0.25,0.54,0.48,0.24,0.25" style="fill:rgb(35,31,32);font-family:ScalaSansLF-Regular;font-size:8.0px;stroke:none;"> O colloidal </text>
   <text y="534.561" x="46.999,50.575,54.839,56.751,61.079,63.551,65.527,69.791,74.151,76.151,79.453,83.765,86.461,90.725,95.069,100.413,102.389,105.965,109.717,111.725,113.725,117.028,121.34,125.628,129.38,133.74,135.74,139.042,143.042,145.042,148.345,155.121,159.081,161.081,164.383,168.647,170.903,172.903,176.205,178.677,182.965,186.717,188.717,192.02,196.076,198.772,202.58,206.924,211.212,214.964,219.324,223.076,225.076,228.378,232.642,235.858,237.834,242.146,245.898,247.898,251.201,254.777,259.105,262.681,267.025,270.777,275.137,277.609,279.585,283.849,288.209" svgx:width="0.45,0.53,0.24,0.54,0.31,0.25,0.53,0.55,0.25,0.55,0.54,0.34,0.53,0.54,0.67,0.25,0.45,0.47,0.25,0.25,0.55,0.54,0.54,0.47,0.55,0.25,0.55,0.5,0.25,0.55,0.85,0.5,0.25,0.55,0.53,0.28,0.25,0.55,0.31,0.54,0.47,0.25,0.55,0.51,0.34,0.48,0.54,0.54,0.47,0.55,0.47,0.25,0.55,0.53,0.4,0.25,0.54,0.47,0.25,0.55,0.45,0.54,0.45,0.54,0.47,0.55,0.31,0.25,0.53,0.55,0.25" style="fill:rgb(35,31,32);font-family:ScalaSansLF-Regular;font-size:8.0px;stroke:none;">solution dropwise. Then 4 mL of the graphene oxide suspention </text>
   <text y="544.057" x="46.999,49.903,53.895,55.895,57.989,64.765,68.821,70.821,72.916,79.692,83.652" svgx:width="0.36,0.5,0.25,0.55,0.85,0.51,0.25,0.55,0.85,0.5,0.25" style="fill:rgb(35,31,32);font-family:ScalaSansLF-Regular;font-size:8.0px;stroke:none;">(1 mg mL </text>
   <text y="541.265" x="83.655" svgx:width="0.55" style="fill:rgb(35,31,32);font-family:Symbol;font-size:5.6px;stroke:none;">−</text>
   <text y="541.265" x="86.729" svgx:width="0.5" style="fill:rgb(35,31,32);font-family:ScalaSansLF-Regular;font-size:5.6px;stroke:none;">1</text>
   <text y="544.065" x="89.523,89.522,92.426,96.52,101.864,105.672,109.248,113.343,117.151,121.463,125.775,129.527,133.839,137.933,141.741,146.101,150.413,154.507,158.835,160.747,163.219,165.915,169.723,173.299,177.563,181.923,183.899,187.451,191.003,194.811,196.723,198.635,201.875,205.97,210.282,212.258,215.834,220.178,223.93,226.626,230.202,233.954,238.266,240.274,244.368,249.128,251.384,253.856,257.608,260.304,264.399,267.975,270.447,272.423,275.119,277.815,279.791,284.151,288.207" svgx:width="0.25,0.36,0.25,0.67,0.48,0.45,0.25,0.48,0.54,0.54,0.47,0.54,0.25,0.48,0.55,0.54,0.25,0.54,0.24,0.31,0.34,0.48,0.45,0.53,0.55,0.25,0.44,0.44,0.48,0.24,0.24,0.41,0.25,0.54,0.25,0.45,0.54,0.47,0.34,0.45,0.47,0.54,0.25,0.25,0.6,0.28,0.31,0.47,0.34,0.25,0.45,0.31,0.25,0.34,0.34,0.25,0.55,0.51,0.25" style="fill:rgb(35,31,32);font-family:ScalaSansLF-Regular;font-size:8.0px;stroke:none;"> ) was added and ultrasoniccally dispersed. After stirring </text>
   <text y="553.561" x="47.003,49.259,53.523,56.219,58.783,62.775,66.775,69.338,73.626,75.642,78.205,80.677,84.965,88.717,91.28,94.832,99.096,101.008,105.272,107.968,110.531,114.795,117.051,119.615,122.087,126.375,130.127,132.69,136.242,140.506,142.418,144.33,148.594,150.57,154.882,158.69,160.602,163.165,166.741,171.005,172.917,177.245,179.717,181.693,185.957,190.317,192.88,195.352,199.68,202.376,206.736,210.488,214.8,217.363,219.619,222.315,226.579,233.355,235.919,240.183,242.879,246.687,251.047,255.103,258.855,261.418,263.89,268.154,270.717,274.981,276.893,278.869,282.445,286.197,288.205" svgx:width="0.28,0.53,0.34,0.25,0.5,0.5,0.25,0.54,0.25,0.25,0.31,0.54,0.47,0.25,0.44,0.53,0.24,0.53,0.34,0.25,0.53,0.28,0.25,0.31,0.54,0.47,0.25,0.44,0.53,0.24,0.24,0.53,0.25,0.54,0.48,0.24,0.25,0.45,0.53,0.24,0.54,0.31,0.25,0.53,0.55,0.25,0.31,0.54,0.34,0.55,0.47,0.54,0.25,0.28,0.34,0.53,0.85,0.25,0.53,0.34,0.48,0.55,0.51,0.47,0.25,0.31,0.53,0.25,0.53,0.24,0.25,0.45,0.47,0.25,0.25" style="fill:rgb(35,31,32);font-family:ScalaSansLF-Regular;font-size:8.0px;stroke:none;">for 10 h, the color of the colloidal solution turned from orange to olive. </text>
   <text y="563.057" x="47.003,51.315,55.603,59.355,63.715,65.715,67.654,70.126,74.414,78.166,80.166,82.104,86.448,90.256,92.952,95.424,97.4,100.952,102.864,106.616,110.192,112.192,114.131,119.475,123.227,125.923,129.675,131.675,133.613,137.165,141.429,143.341,145.253,149.005,152.557,155.029,158.781,163.093,165.093,167.031,171.247,174.487,176.487,178.426,181.978,185.73,190.09,192.562,195.258,197.234,199.49,203.818,207.874,211.682,214.154,216.13,220.394,224.754,226.754,228.692,232.5,236.86,241.172,243.172,245.111,250.455,254.263,257.839,262.127,265.879,270.191,272.191,274.129,279.473,281.449,283.921,288.209" svgx:width="0.54,0.54,0.47,0.55,0.25,0.55,0.31,0.54,0.47,0.25,0.55,0.54,0.48,0.34,0.31,0.25,0.44,0.24,0.47,0.45,0.25,0.55,0.67,0.47,0.34,0.47,0.25,0.55,0.44,0.53,0.24,0.24,0.47,0.44,0.31,0.47,0.54,0.25,0.55,0.53,0.41,0.25,0.55,0.44,0.47,0.55,0.31,0.34,0.25,0.28,0.54,0.51,0.48,0.31,0.25,0.53,0.55,0.25,0.55,0.48,0.55,0.54,0.25,0.55,0.67,0.48,0.45,0.54,0.47,0.54,0.25,0.55,0.67,0.25,0.31,0.54,0.25" style="fill:rgb(35,31,32);font-family:ScalaSansLF-Regular;font-size:8.0px;stroke:none;">Then the particles were collected by centrifugation and washed with </text>
   <text y="572.553" x="47.003,51.315,53.291,56.867,59.339,61.315,63.227,65.139,68.891,73.203,75.285,80.629,84.437,86.909,90.661,93.357,95.439,99.247,103.607,107.919,110.0,113.752,116.224,120.512,124.32,128.68,132.944,134.856,136.938,139.194,143.458,146.154,148.235,150.707,154.995,157.691,161.443,165.195,167.277,169.749,171.725,178.501,182.253,185.829,187.837,189.919,194.231,198.519,202.271,204.352,208.696,211.392,215.144,218.696,223.024,225.72,229.296,233.56,236.256,238.338,243.682,247.49,251.066,253.147,257.459,261.211,264.787,266.763,270.315,273.867,277.675,280.147,283.899,288.211" svgx:width="0.54,0.25,0.45,0.31,0.25,0.24,0.24,0.47,0.54,0.25,0.67,0.48,0.31,0.47,0.34,0.25,0.48,0.55,0.54,0.25,0.47,0.31,0.54,0.48,0.55,0.53,0.24,0.25,0.28,0.53,0.34,0.25,0.31,0.54,0.34,0.47,0.47,0.25,0.31,0.25,0.85,0.47,0.45,0.25,0.25,0.54,0.54,0.47,0.25,0.54,0.34,0.47,0.44,0.54,0.34,0.45,0.53,0.34,0.25,0.67,0.48,0.45,0.25,0.54,0.47,0.45,0.25,0.44,0.44,0.48,0.31,0.47,0.54,0.25" style="fill:rgb(35,31,32);font-family:ScalaSansLF-Regular;font-size:8.0px;stroke:none;">distilled water and ethanol for three times. The precursor was desiccated </text>
   <text y="582.049" x="47.003,50.811,53.283,55.383,59.383,63.383" svgx:width="0.48,0.31,0.25,0.5,0.5,0.25" style="fill:rgb(35,31,32);font-family:ScalaSansLF-Regular;font-size:8.0px;stroke:none;">at 70 </text>
   <text y="582.049" x="65.483" svgx:width="0.4" style="fill:rgb(35,31,32);font-family:Symbol;font-size:8.0px;stroke:none;">°</text>
   <text y="582.049" x="68.683,73.523,75.623,77.599,81.959,84.059,87.867,92.227,94.327,98.591,102.167,105.919,110.279,112.287,114.387,118.243,122.507,125.203,127.303,129.775,134.063,137.815,139.915,144.259,146.955,150.707,155.051,158.859,161.555,165.363,167.835,169.811,174.075,178.435,180.535,184.799,187.055,189.155,192.963,195.171,200.011,204.675,210.779,212.987,218.651,224.755,226.771,228.871,231.343,235.631,239.383,241.483,245.827,248.523,252.275,255.827,260.155,262.851,266.427,270.691,273.387,275.487,280.831,284.639,288.215" svgx:width="0.61,0.25,0.25,0.55,0.25,0.48,0.55,0.25,0.53,0.45,0.47,0.55,0.25,0.25,0.52,0.53,0.34,0.25,0.31,0.54,0.47,0.25,0.54,0.34,0.47,0.54,0.48,0.34,0.48,0.31,0.25,0.53,0.55,0.25,0.53,0.28,0.25,0.48,0.28,0.61,0.58,0.76,0.28,0.71,0.76,0.25,0.25,0.31,0.54,0.47,0.25,0.54,0.34,0.47,0.44,0.54,0.34,0.45,0.53,0.34,0.25,0.67,0.48,0.45,0.25" style="fill:rgb(35,31,32);font-family:ScalaSansLF-Regular;font-size:8.0px;stroke:none;">C in an oven. For the preparation of a-CVO-GO, the precursor was </text>
   <text y="591.545" x="47.003,49.475,53.763,57.515,61.875,64.271,66.743,69.439,73.247,77.607,81.183,83.439,87.191,89.887,92.583,96.335,100.647,103.043,105.515,109.779,112.175,114.647,118.935,122.687,125.083,128.659,132.467,136.019,140.347,144.675,151.451,153.847,158.111,161.687,165.439,169.799,172.195,176.003,178.475,180.871,184.871,188.871,192.871" svgx:width="0.31,0.54,0.47,0.55,0.25,0.31,0.34,0.48,0.55,0.45,0.28,0.47,0.34,0.34,0.47,0.54,0.25,0.31,0.53,0.25,0.31,0.54,0.47,0.25,0.45,0.48,0.44,0.54,0.54,0.85,0.25,0.53,0.45,0.47,0.55,0.25,0.48,0.31,0.25,0.5,0.5,0.5,0.25" style="fill:rgb(35,31,32);font-family:ScalaSansLF-Regular;font-size:8.0px;stroke:none;">then transferred to the vacuum oven at 250 </text>
   <text y="591.545" x="195.267" svgx:width="0.4" style="fill:rgb(35,31,32);font-family:Symbol;font-size:8.0px;stroke:none;">°</text>
   <text y="591.545" x="198.467,203.307,205.703,208.175,212.439,214.835,217.531,221.283,228.059,232.323,235.899,239.651,242.047,244.519,248.807,252.559,254.955,258.507,261.203,264.443,268.019,270.491,274.299,276.211,278.123,280.099,284.459,288.211" svgx:width="0.61,0.25,0.31,0.53,0.25,0.34,0.47,0.85,0.53,0.45,0.47,0.25,0.31,0.54,0.47,0.25,0.44,0.34,0.41,0.45,0.31,0.48,0.24,0.24,0.25,0.55,0.47,0.25" style="fill:rgb(35,31,32);font-family:ScalaSansLF-Regular;font-size:8.0px;stroke:none;">C to remove the crystalline </text>
   <text y="601.041" x="47.003,52.347,56.155,58.627,62.379,64.435,66.443,68.799,73.559,77.135,79.49,83.298,85.653,89.205,93.469,97.829,100.301,102.997,107.261,109.173,111.528,115.28,118.496,122.84,126.592,129.288,131.264,138.04,141.792,146.152,148.624,150.64,152.995,155.467,159.755,163.507,165.863,169.415,171.623,176.463,181.127,187.231,189.586,194.93,198.738,202.314,204.669,208.245,211.485,215.845,218.317,222.605,226.357,229.933,231.909,235.589,239.341,243.653,246.008,250.224,253.464,255.819,259.627,263.987,268.347,272.099,275.907,277.819,279.795,284.155,288.211" svgx:width="0.67,0.48,0.31,0.47,0.34,0.25,0.25,0.6,0.45,0.25,0.48,0.25,0.44,0.53,0.55,0.31,0.34,0.53,0.24,0.25,0.47,0.4,0.54,0.47,0.34,0.25,0.85,0.47,0.55,0.31,0.25,0.25,0.31,0.54,0.47,0.25,0.44,0.28,0.61,0.58,0.76,0.25,0.67,0.48,0.45,0.25,0.45,0.41,0.55,0.31,0.54,0.47,0.45,0.25,0.46,0.47,0.54,0.25,0.53,0.41,0.25,0.48,0.55,0.55,0.47,0.48,0.24,0.25,0.55,0.51,0.25" style="fill:rgb(35,31,32);font-family:ScalaSansLF-Regular;font-size:8.0px;stroke:none;">water. As a control experiment, the c-CVO was synthesized by annealing </text>
   <text y="610.537" x="47.003,49.475,53.763,57.515,59.715,64.059,66.755,70.507,74.059,78.387,81.083,84.659,88.923,91.619,93.819,97.627,100.099,102.299,106.299,110.299,114.299" svgx:width="0.31,0.54,0.47,0.25,0.54,0.34,0.47,0.44,0.54,0.34,0.45,0.53,0.34,0.25,0.48,0.31,0.25,0.5,0.5,0.5,0.25" style="fill:rgb(35,31,32);font-family:ScalaSansLF-Regular;font-size:8.0px;stroke:none;">the precursor at 450 </text>
   <text y="610.537" x="116.499" svgx:width="0.4" style="fill:rgb(35,31,32);font-family:Symbol;font-size:8.0px;stroke:none;">°</text>
   <text y="610.537" x="119.699,124.539,126.739,128.715,133.075,135.275,137.747,142.035,145.787,147.987,151.795,153.771,155.827,157.835" svgx:width="0.61,0.25,0.25,0.55,0.25,0.31,0.54,0.47,0.25,0.48,0.25,0.34,0.25,0.25" style="fill:rgb(35,31,32);font-family:ScalaSansLF-Regular;font-size:8.0px;stroke:none;">C in the air. </text>
   <text y="620.033" x="57.003,57.003" svgx:width="0.25,0.25" style="fill:rgb(35,31,32);font-family:ScalaSansLF-Regular;font-size:8.0px;stroke:none;"> </text>
   <text y="620.033" x="57.003,64.027,67.979,70.515,73.907,76.395,78.251,82.203,84.051,85.907,90.747,94.859,98.811,101.299,105.251,108.403,110.939,114.331,116.819,118.675,122.027,125.979,128.515,130.371,134.195,138.307" svgx:width="0.88,0.49,0.32,0.42,0.31,0.23,0.49,0.23,0.25,0.61,0.51,0.49,0.31,0.49,0.39,0.32,0.42,0.31,0.23,0.42,0.49,0.32,0.23,0.48,0.51,0.34" style="fill:rgb(35,31,32);font-family:ScalaSansLF-Italic;font-size:8.0px;stroke:none;">Material Characterizations</text>
   <text y="620.033" x="141.003,141.002,143.01,144.865,149.441,154.113,159.801,161.656,166.0,169.808,172.28,174.752,178.504,181.2,185.56,189.136,190.991,195.255,197.511,199.367,201.839,206.127,209.879,211.734,215.31,219.118,225.894,230.238,232.15,235.902,239.478,241.333,246.677,250.429,253.125,256.877,258.732,262.284,266.548,268.46,270.372,274.124,277.676,280.148,283.9,288.212" svgx:width="0.25,0.25,0.25,0.57,0.58,0.71,0.25,0.54,0.48,0.31,0.31,0.47,0.34,0.55,0.45,0.25,0.53,0.28,0.25,0.31,0.54,0.47,0.25,0.45,0.48,0.85,0.54,0.24,0.47,0.45,0.25,0.67,0.47,0.34,0.47,0.25,0.44,0.53,0.24,0.24,0.47,0.44,0.31,0.47,0.54,0.25" style="fill:rgb(35,31,32);font-family:ScalaSansLF-Regular;font-size:8.0px;stroke:none;"> : XRD patterns of the samples were collected </text>
   <text y="629.529" x="47.003,52.347,54.323,56.795,61.083,63.635,67.443,69.995,75.683,79.683,82.235,86.995,91.307,94.883,98.691,103.051,106.603,110.355,112.907,117.483,119.691,122.387,126.195,129.435,131.987,136.299,138.275,140.531,142.787,145.483,149.291,152.843,155.315,159.579,166.355,170.107,172.579,176.331,179.027,181.579,186.923,188.899,191.371,195.659,198.211,202.019,204.715,208.467,212.275,214.827,219.139,222.891,225.363,229.115,232.667,235.139,239.403,241.459,243.475,246.027,250.355,253.931,255.907,260.267,264.323,266.875,271.715,276.043,278.595" svgx:width="0.67,0.25,0.31,0.54,0.25,0.48,0.25,0.71,0.5,0.25,0.6,0.54,0.45,0.48,0.55,0.44,0.47,0.25,0.57,0.28,0.34,0.48,0.41,0.25,0.54,0.25,0.28,0.28,0.34,0.48,0.44,0.31,0.53,0.85,0.47,0.31,0.47,0.34,0.25,0.67,0.25,0.31,0.54,0.25,0.48,0.34,0.47,0.48,0.25,0.54,0.47,0.31,0.47,0.44,0.31,0.53,0.34,0.25,0.25,0.54,0.45,0.25,0.55,0.51,0.25,0.61,0.54,0.25,0.57" style="fill:rgb(35,31,32);font-family:ScalaSansLF-Regular;font-size:8.0px;stroke:none;">with a D8 Advance X-ray diffractometer with area detector, using Cu K</text>
   <text y="629.565" transform="matrix(1.0,0.0,0.0,1.0,0.0,0.0)" rotateDegrees="0" matrix="[8.0,0.0,1.4106,8.0,283.16,153.435]" x="283.16" svgx:width="0.63" style="fill:rgb(35,31,32);font-family:Symbol;font-size:8.0px;stroke:none;">α</text>
   <text y="629.565" x="288.208" svgx:width="0.25" style="fill:rgb(35,31,32);font-family:ScalaSansLF-Regular;font-size:8.0px;stroke:none;"> </text>
   <text y="639.061" x="47.0,49.696,53.504,57.816,59.792,63.6,66.072,68.048,72.312,76.672,78.672,80.054" svgx:width="0.34,0.48,0.54,0.25,0.48,0.31,0.25,0.53,0.55,0.25,0.55,0.36" style="fill:rgb(35,31,32);font-family:ScalaSansLF-Regular;font-size:8.0px;stroke:none;">radiation (</text>
   <text y="639.065" transform="matrix(1.0,0.0,0.0,1.0,0.0,0.0)" rotateDegrees="0" matrix="[8.0,0.0,1.4106,8.0,82.9588,143.935]" x="82.959" svgx:width="0.55" style="fill:rgb(35,31,32);font-family:Symbol;font-size:8.0px;stroke:none;">λ</text>
   <text y="639.065" x="87.351" svgx:width="0.25" style="fill:rgb(35,31,32);font-family:ScalaSansLF-Regular;font-size:8.0px;stroke:none;"> </text>
   <text y="639.065" x="90.735" svgx:width="0.55" style="fill:rgb(35,31,32);font-family:Symbol;font-size:8.0px;stroke:none;">=</text>
   <text y="639.065" x="95.127,97.127,98.508,102.5,104.508,108.508,112.508,116.5,120.5,122.5,123.882,128.642,131.546,133.554,135.554,136.936,141.248,145.536,149.288,151.288,152.669,159.445,161.421,164.973,167.669,171.933,175.509,177.981,180.677,185.005,188.557,191.029,195.357,198.053,201.805,205.381,207.381,208.763,214.107,217.859,220.555,224.307,226.307,227.688,231.952,236.168,239.744,243.496,246.192,249.768,253.52,257.832,259.832,261.214,265.43,268.67,270.67,272.052,274.036,276.025,279.777,281.689,286.001" svgx:width="0.25,0.55,0.5,0.25,0.5,0.5,0.5,0.5,0.25,0.55,0.6,0.36,0.25,0.25,0.55,0.54,0.54,0.47,0.25,0.55,0.85,0.25,0.44,0.34,0.53,0.45,0.31,0.34,0.54,0.44,0.31,0.54,0.34,0.47,0.45,0.25,0.55,0.67,0.47,0.34,0.47,0.25,0.55,0.53,0.53,0.45,0.47,0.34,0.45,0.47,0.54,0.25,0.55,0.53,0.41,0.25,0.55,0.5,0.25,0.47,0.24,0.54,0.28" style="fill:rgb(35,31,32);font-family:ScalaSansLF-Regular;font-size:8.0px;stroke:none;"> 1.5418 Å). The microstructures were observed by ﬁ eld-</text>
   <text y="648.561" x="47.007,50.759,57.535,59.511,63.087,66.663,68.639,72.903,77.263,79.263,82.365,85.941,89.493,93.301,97.661,102.021,103.997,108.357,112.413,114.413,117.516,121.268,123.18,126.932,130.484,132.956,135.652,139.916,144.276,146.276,149.378,156.154,158.13,161.682,164.378,168.642,172.218,175.77,180.034,184.378,187.618,189.618,192.72,195.624,198.024,202.336,208.44,212.4,214.608,218.608,222.6,226.6,230.6,234.776,237.68,239.696,241.696,244.799,247.271,249.967,253.775,258.135,261.711,268.487,270.463,274.039,277.615,279.591,283.855,288.215" svgx:width="0.47,0.85,0.25,0.45,0.45,0.25,0.53,0.55,0.25,0.55,0.45,0.44,0.48,0.55,0.55,0.25,0.55,0.51,0.25,0.55,0.47,0.24,0.47,0.44,0.31,0.34,0.53,0.55,0.25,0.55,0.85,0.25,0.44,0.34,0.53,0.45,0.44,0.53,0.54,0.41,0.25,0.55,0.36,0.3,0.54,0.76,0.5,0.28,0.5,0.5,0.5,0.5,0.52,0.36,0.25,0.25,0.55,0.31,0.34,0.48,0.55,0.45,0.85,0.25,0.45,0.45,0.25,0.53,0.55,0.25" style="fill:rgb(35,31,32);font-family:ScalaSansLF-Regular;font-size:8.0px;stroke:none;">emission scanning electron microscopy (JEOL-7100F), transmission </text>
   <text y="658.057" x="47.007,50.759,52.671,56.423,59.975,62.447,65.143,69.407,73.767,75.767,82.12,88.896,90.872,94.424,97.12,101.384,104.96,108.512,112.776,117.12,119.72,121.736,123.736,130.088,133.896,138.256,142.568,144.568,150.921,155.209,157.185,161.241,165.529,167.737,170.433,174.185,177.761,182.025,183.937,188.265,190.737,192.713,196.977,201.337,203.337,209.69,212.162,214.858,218.666,223.026,226.602,233.378,235.354,238.93,242.506,244.482,248.746,253.106,255.106,261.459,265.211,267.123,270.875,274.427,276.899,279.595,283.859,288.219" svgx:width="0.47,0.24,0.47,0.44,0.31,0.34,0.53,0.55,0.25,0.55,0.85,0.25,0.44,0.34,0.53,0.45,0.44,0.53,0.54,0.41,0.25,0.25,0.55,0.48,0.55,0.54,0.25,0.55,0.54,0.25,0.51,0.54,0.28,0.34,0.47,0.45,0.53,0.24,0.54,0.31,0.25,0.53,0.55,0.25,0.55,0.31,0.34,0.48,0.55,0.45,0.85,0.25,0.45,0.45,0.25,0.53,0.55,0.25,0.55,0.47,0.24,0.47,0.44,0.31,0.34,0.53,0.55,0.25" style="fill:rgb(35,31,32);font-family:ScalaSansLF-Regular;font-size:8.0px;stroke:none;">electron microscopy, and high-resolution transmission electron </text>
   <text y="667.553" x="47.007,53.783,55.759,59.311,62.007,66.271,69.847,73.399,77.663,82.007,85.247,87.611,90.515,96.683,101.355,105.667,109.979,117.003,119.907,122.271,125.175,127.575,131.887,138.911,141.119,145.119,149.111,153.111,157.111,161.287,164.191,166.199,168.563,173.291,175.987,180.315,184.675,188.483,192.811,196.563,199.259,201.623,205.935,212.711,219.487,223.239,225.711,227.919,231.431,235.183,237.095,239.007,242.759,245.455,247.819,251.395,255.723,258.419,260.675,264.483,268.035,271.787,274.151,277.959,280.655,284.407,288.215" svgx:width="0.85,0.25,0.44,0.34,0.53,0.45,0.44,0.53,0.54,0.41,0.25,0.36,0.77,0.58,0.54,0.54,0.88,0.36,0.25,0.36,0.3,0.54,0.88,0.28,0.5,0.5,0.5,0.5,0.52,0.36,0.25,0.25,0.59,0.34,0.54,0.55,0.48,0.54,0.47,0.34,0.25,0.54,0.85,0.85,0.47,0.31,0.28,0.54,0.47,0.24,0.24,0.47,0.34,0.25,0.45,0.54,0.34,0.28,0.48,0.44,0.47,0.25,0.48,0.34,0.47,0.48,0.25" style="fill:rgb(35,31,32);font-family:ScalaSansLF-Regular;font-size:8.0px;stroke:none;">microscopy (HRTEM) (JEM-2100F). Brunauer Emmet-Teller surface area </text>
   <text y="677.049" x="47.007,52.351,56.159,59.735,62.26,69.036,72.788,76.596,80.172,84.5,87.196,90.948,95.26,97.786,102.002,105.242,107.768,112.096,115.672,117.648,122.008,126.064,128.589,132.101,134.797,136.773,140.349,142.821,146.629,149.325,151.851,154.251,156.651,159.176,163.176,167.176,171.176,175.176,177.702,179.678,184.038,187.614,190.086,192.782,197.11,203.886,207.638,211.998,214.47,216.478,219.004,223.316,227.604,231.356,234.052,240.828,245.092,249.148,251.844,255.652,259.228,261.204,267.98,271.732,274.204,276.9,280.14,282.665,284.641,288.217" svgx:width="0.67,0.48,0.45,0.25,0.85,0.47,0.48,0.45,0.54,0.34,0.47,0.54,0.25,0.53,0.41,0.25,0.54,0.45,0.25,0.55,0.51,0.25,0.54,0.34,0.25,0.45,0.31,0.48,0.34,0.25,0.3,0.3,0.25,0.5,0.5,0.5,0.5,0.25,0.25,0.55,0.45,0.31,0.34,0.54,0.85,0.47,0.55,0.31,0.25,0.25,0.54,0.54,0.47,0.34,0.85,0.53,0.51,0.34,0.48,0.45,0.25,0.85,0.47,0.31,0.34,0.41,0.25,0.25,0.45,0.25" style="fill:rgb(35,31,32);font-family:ScalaSansLF-Regular;font-size:8.0px;stroke:none;">was measured by using Tristar II 3020 instrument. Thermogravimetry is </text>
   <text y="686.545" x="47.007,50.559,54.367,57.063,59.759,61.735,65.487,69.799,71.999,76.263,80.591,83.063,85.263,89.527,93.887,96.087,99.895,102.095,106.367,110.119,114.879,118.879,122.879,126.879,130.431,133.703,137.703,140.975,146.639,148.839,151.743,157.815,162.127,166.439,171.199,175.471,180.311,186.479,189.383,191.391" svgx:width="0.44,0.48,0.34,0.34,0.25,0.47,0.54,0.25,0.53,0.54,0.31,0.25,0.53,0.55,0.25,0.48,0.25,0.53,0.54,0.6,0.5,0.5,0.5,0.44,0.41,0.5,0.41,0.71,0.25,0.36,0.76,0.54,0.54,0.6,0.53,0.61,0.77,0.36,0.25,0.25" style="fill:rgb(35,31,32);font-family:ScalaSansLF-Regular;font-size:8.0px;stroke:none;">carried out on a STA449c/3/G (NETZSCH). </text>
   <text y="696.041" x="57.007,57.007" svgx:width="0.25,0.25" style="fill:rgb(35,31,32);font-family:ScalaSansLF-Regular;font-size:8.0px;stroke:none;"> </text>
   <text y="696.041" x="57.007,61.319,63.167,66.559,69.711,72.247,74.735,78.559,81.711,85.823,89.215,95.783,97.639,100.791,104.743,106.591,108.738,113.578,117.69,121.642,124.13,128.082,131.234,133.77,137.162,139.65,141.506,144.858,148.81,151.346,153.202,157.026,161.138" svgx:width="0.54,0.23,0.42,0.39,0.32,0.31,0.48,0.39,0.51,0.42,0.82,0.23,0.39,0.49,0.23,0.25,0.61,0.51,0.49,0.31,0.49,0.39,0.32,0.42,0.31,0.23,0.42,0.49,0.32,0.23,0.48,0.51,0.34" style="fill:rgb(35,31,32);font-family:ScalaSansLF-Italic;font-size:8.0px;stroke:none;">Electrochemical Characterizations</text>
   <text y="696.041" x="163.834,163.829,165.837,167.984,172.296,176.584,180.336,182.484,186.236,188.148,191.9,195.452,197.924,200.62,204.884,208.436,212.724,216.476,223.252,225.228,228.78,232.588,234.5,236.647,240.991,243.687,247.951,252.295,256.047,258.743,261.215,263.191,266.943,270.519,272.666,278.01,281.762,284.458,288.21" svgx:width="0.25,0.25,0.25,0.54,0.54,0.47,0.25,0.47,0.24,0.47,0.44,0.31,0.34,0.53,0.44,0.54,0.47,0.85,0.25,0.44,0.48,0.24,0.25,0.54,0.34,0.53,0.54,0.47,0.34,0.31,0.25,0.47,0.45,0.25,0.67,0.47,0.34,0.47,0.25" style="fill:rgb(35,31,32);font-family:ScalaSansLF-Regular;font-size:8.0px;stroke:none;"> : The electrochemical properties were </text>
   <text y="705.537" x="47.007,50.559,54.847,58.655,61.351,65.159,68.711,71.183,74.935,77.631,79.607,83.287,87.039,91.351,93.351,93.984,98.2,101.44,103.44,104.074,107.882,111.458,115.034,118.786,125.562,129.778,131.754,136.114,140.17,142.17,142.804,146.804,150.804,154.796,158.796,161.004,163.476,166.716,171.06,174.812,176.812,177.445,180.997,185.261,187.237,191.597,193.597,194.231,197.783,201.535,203.447,205.359,208.935,210.935,211.568,216.912,218.888,221.36,225.648,227.648,228.282,230.194,232.17,234.642,238.93,240.906,245.234,252.01,254.01,254.644,256.9,261.164,263.14,265.052,267.052,267.685,271.493,275.069,277.069,277.703,280.175,284.463,288.215" svgx:width="0.44,0.54,0.48,0.34,0.48,0.44,0.31,0.47,0.34,0.25,0.46,0.47,0.54,0.25,0.55,0.53,0.41,0.25,0.55,0.48,0.45,0.45,0.47,0.85,0.53,0.25,0.55,0.51,0.25,0.55,0.5,0.5,0.5,0.5,0.28,0.31,0.41,0.54,0.47,0.25,0.55,0.44,0.53,0.25,0.55,0.25,0.55,0.44,0.47,0.24,0.24,0.45,0.25,0.55,0.67,0.25,0.31,0.54,0.25,0.55,0.24,0.25,0.31,0.54,0.25,0.54,0.85,0.25,0.55,0.28,0.53,0.25,0.24,0.25,0.55,0.48,0.45,0.25,0.55,0.31,0.54,0.47,0.25" style="fill:rgb(35,31,32);font-family:ScalaSansLF-Regular;font-size:8.0px;stroke:none;">characterized by assembing 2016-type coin cells with lithium foil as the </text>
   <text y="715.033" x="47.007,50.815,55.175,59.439,63.751,67.503,69.928,71.904,76.264,78.688,82.496,84.921,88.977,90.889,95.153,98.729,102.481,106.697,110.961,114.177,116.602,118.586,120.571,122.483,124.395,128.147,132.459,134.884,140.228,142.204,144.676,148.964,151.388,155.732,160.06,162.756,166.508,168.933,172.741,175.437,179.493,183.757,188.117,190.125,192.55,196.862,201.15,204.902,207.327,210.879,214.687,217.159,221.447,225.711,230.023,233.775,236.2,239.952,241.864,245.616,249.168,251.64,254.336,258.6,262.912,266.664,270.24,272.664,278.008,281.76,284.456,288.208" svgx:width="0.48,0.55,0.53,0.54,0.47,0.25,0.25,0.55,0.25,0.48,0.25,0.51,0.24,0.53,0.45,0.47,0.53,0.53,0.4,0.25,0.5,0.25,0.24,0.24,0.47,0.54,0.25,0.67,0.25,0.31,0.54,0.25,0.54,0.54,0.34,0.47,0.25,0.48,0.34,0.51,0.53,0.55,0.25,0.25,0.54,0.54,0.47,0.25,0.44,0.48,0.31,0.54,0.53,0.54,0.47,0.25,0.47,0.24,0.47,0.44,0.31,0.34,0.53,0.54,0.47,0.45,0.25,0.67,0.47,0.34,0.47,0.25" style="fill:rgb(35,31,32);font-family:ScalaSansLF-Regular;font-size:8.0px;stroke:none;">anode in a glovebox ﬁ lled with pure argon. The cathode electrodes were </text>
   <text y="468.033" x="302.415,305.967,310.231,317.007,321.351,325.615,329.191,332.943,337.255,339.221,343.485,345.741,347.708,351.708,355.708,362.508,364.474,368.282,371.834,374.306,376.282,379.858,383.61,385.576,392.352,396.16,398.632,402.384,405.08,407.056,410.865,412.776,414.792,416.759,420.759,424.759,431.559,433.525,437.333,440.885,444.637,447.109,450.349,452.261,456.013,460.373,464.125,466.092,470.308,472.22,476.028,479.58,483.212,485.228,487.194,491.002,495.362,499.674,501.64,505.632,509.632,516.432,518.399,521.975,526.239,530.551,532.527,536.855,543.631" svgx:width="0.44,0.53,0.85,0.54,0.53,0.45,0.47,0.54,0.25,0.53,0.28,0.25,0.5,0.5,0.85,0.25,0.48,0.44,0.31,0.25,0.45,0.47,0.25,0.85,0.48,0.31,0.47,0.34,0.25,0.48,0.24,0.25,0.25,0.5,0.5,0.85,0.25,0.48,0.44,0.47,0.31,0.41,0.24,0.47,0.55,0.47,0.25,0.53,0.24,0.48,0.44,0.45,0.25,0.25,0.48,0.55,0.54,0.25,0.5,0.5,0.85,0.25,0.45,0.53,0.54,0.25,0.54,0.85,0.25" style="fill:rgb(35,31,32);font-family:ScalaSansLF-Regular;font-size:8.0px;stroke:none;">composed of 60% active material, 30% acetylene black, and 10% sodium </text>
   <text y="477.529" x="302.415,306.223,308.135,312.191,314.167,318.527,322.335,324.807,328.559,331.115,335.331,337.307,341.667,345.979,349.731,351.787,353.795,356.351,361.111,363.367,365.839,369.591,372.287,374.843,378.395,382.659,386.467,388.939,390.915,395.275,399.331,401.887,406.151,410.511,412.983,417.247,419.803,423.355,427.619,431.963,436.307,440.059,442.755,445.311,447.567,451.831,453.807,455.719,457.735,460.291,462.763,467.051,470.803,473.359,476.911,480.719,483.191,487.479,491.743,496.055,499.807,502.363,507.707,511.515,515.091,517.647,521.199,525.527,527.999,530.555,532.531,536.891,539.363,543.627" svgx:width="0.48,0.24,0.51,0.25,0.55,0.48,0.31,0.47,0.25,0.53,0.25,0.55,0.54,0.47,0.34,0.25,0.25,0.6,0.28,0.31,0.47,0.34,0.25,0.44,0.53,0.48,0.31,0.25,0.55,0.51,0.25,0.53,0.55,0.31,0.53,0.25,0.44,0.53,0.54,0.54,0.47,0.34,0.25,0.28,0.53,0.25,0.24,0.25,0.25,0.31,0.54,0.47,0.25,0.44,0.48,0.31,0.54,0.53,0.54,0.47,0.25,0.67,0.48,0.45,0.25,0.44,0.54,0.31,0.25,0.25,0.55,0.31,0.53,0.25" style="fill:rgb(35,31,32);font-family:ScalaSansLF-Regular;font-size:8.0px;stroke:none;">alginate binder. After coating onto copper foil, the cathode was cut into </text>
   <text y="487.025" x="302.415,305.111,309.375,313.703,318.063,322.375,324.321,327.897,329.809,331.785,335.337,339.089,341.036,346.38,348.356,350.828,355.116,357.062,359.622,364.022,368.022,370.03,374.03,378.03,379.976,383.528,390.304" svgx:width="0.34,0.53,0.54,0.55,0.54,0.25,0.45,0.24,0.25,0.44,0.47,0.25,0.67,0.25,0.31,0.54,0.25,0.55,0.55,0.5,0.25,0.5,0.5,0.25,0.44,0.85,0.25" style="fill:rgb(35,31,32);font-family:ScalaSansLF-Regular;font-size:8.0px;stroke:none;">round slice with &gt;&gt;0.36 cm </text>
   <text y="484.265" x="390.295" svgx:width="0.5" style="fill:rgb(35,31,32);font-family:ScalaSansLF-Regular;font-size:5.6px;stroke:none;">2</text>
   <text y="487.065" x="393.095,393.097,395.044,397.02,401.38,403.326,407.134,409.83,413.582,417.39,419.337,423.145,427.505,431.817,433.763,436.323,440.723,444.723,446.731,450.723,452.67,459.446,466.222,468.168,470.144,474.504,476.45,478.922,483.21,485.186,488.738,492.37,496.73,500.482,504.058,507.634,509.642,511.589,515.901,520.189,523.941,525.887,532.663,536.471,540.047,543.623" svgx:width="0.25,0.25,0.25,0.55,0.25,0.48,0.34,0.47,0.48,0.25,0.48,0.55,0.54,0.25,0.55,0.55,0.5,0.25,0.5,0.25,0.85,0.85,0.25,0.25,0.55,0.25,0.31,0.54,0.25,0.44,0.45,0.55,0.47,0.45,0.45,0.25,0.25,0.54,0.54,0.47,0.25,0.85,0.48,0.45,0.45,0.25" style="fill:rgb(35,31,32);font-family:ScalaSansLF-Regular;font-size:8.0px;stroke:none;"> in area and &gt;&gt;0.1 mm in thickness. The mass </text>
   <text y="496.561" x="302.407,304.319,308.583,312.391,316.703,318.679,323.039,327.095,329.095,329.752,334.016,336.272,338.272,338.929,342.737,346.289,348.761,350.737,354.313,358.065,360.065,360.721,367.497,371.305,373.777,377.529,380.225,382.201,386.009,387.921,389.921,390.578,392.554,396.13,398.13,398.787,402.787,404.795,408.795,412.795,416.795,418.803,422.803,424.803,425.46,432.236,436.292,438.292,438.949,442.501,449.277" svgx:width="0.24,0.53,0.48,0.54,0.25,0.55,0.51,0.25,0.55,0.53,0.28,0.25,0.55,0.48,0.44,0.31,0.25,0.45,0.47,0.25,0.55,0.85,0.48,0.31,0.47,0.34,0.25,0.48,0.24,0.25,0.55,0.25,0.45,0.25,0.55,0.5,0.25,0.5,0.5,0.5,0.25,0.5,0.25,0.55,0.85,0.51,0.25,0.55,0.44,0.85,0.25" style="fill:rgb(35,31,32);font-family:ScalaSansLF-Regular;font-size:8.0px;stroke:none;">loading of active material is 2.5–2.8 mg cm </text>
   <text y="493.765" x="449.28" svgx:width="0.55" style="fill:rgb(35,31,32);font-family:Symbol;font-size:5.6px;stroke:none;">−</text>
   <text y="493.765" x="452.354" svgx:width="0.5" style="fill:rgb(35,31,32);font-family:ScalaSansLF-Regular;font-size:5.6px;stroke:none;">2</text>
   <text y="496.565" x="455.154,455.156,457.164,459.164,459.821,464.581,466.581,467.239,470.815,475.079,476.991,481.319,483.791,485.767,490.031,494.391,496.391,497.048,499.952,503.944,505.944,506.602" svgx:width="0.25,0.25,0.25,0.55,0.6,0.25,0.55,0.45,0.53,0.24,0.54,0.31,0.25,0.53,0.55,0.25,0.55,0.36,0.5,0.25,0.55,0.25" style="fill:rgb(35,31,32);font-family:ScalaSansLF-Regular;font-size:8.0px;stroke:none;"> . A solution (1 </text>
   <text y="496.565" x="506.599" svgx:width="0.88" style="fill:rgb(35,31,32);font-family:ScalaSansLF-Regular;font-size:5.6px;stroke:none;">M</text>
   <text y="496.565" x="511.516,511.518,514.422,516.422,517.079,521.343,523.599,525.599,526.257,530.217,532.193,536.641,540.817" svgx:width="0.25,0.36,0.25,0.55,0.53,0.28,0.25,0.55,0.5,0.25,0.56,0.52,0.25" style="fill:rgb(35,31,32);font-family:ScalaSansLF-Regular;font-size:8.0px;stroke:none;"> ) of LiPF </text>
   <text y="498.165" x="540.814" svgx:width="0.5" style="fill:rgb(35,31,32);font-family:ScalaSansLF-Regular;font-size:5.6px;stroke:none;">6</text>
   <text y="496.565" x="543.614,543.614" svgx:width="0.25,0.25" style="fill:rgb(35,31,32);font-family:ScalaSansLF-Regular;font-size:8.0px;stroke:none;"> </text>
   <text y="506.061" x="302.406,304.382,308.742,310.86,315.172,320.012,323.284,328.972,335.996,340.836,342.953,345.857,349.849,351.857,355.849,357.967,361.543,365.807,367.719,370.991,374.567,378.831,380.743,383.647,385.764,391.108,394.916,398.492,400.61,404.938,408.514,412.266,416.578,418.696,422.504,426.08,428.197,430.669,434.957,438.709,440.827,444.579,446.491,450.243,453.795,456.267,458.963,463.227,465.139,468.379,470.851,474.603,476.611,478.728,483.04,487.328,491.081,493.198,496.75,500.502,502.414,504.326,507.902,510.02,515.364,519.116,521.812,525.564,527.681,531.489,535.545,539.297,543.609" svgx:width="0.25,0.55,0.25,0.54,0.61,0.41,0.71,0.88,0.61,0.25,0.36,0.5,0.25,0.5,0.25,0.45,0.53,0.24,0.41,0.45,0.53,0.24,0.36,0.25,0.67,0.48,0.45,0.25,0.54,0.45,0.47,0.54,0.25,0.48,0.45,0.25,0.31,0.54,0.47,0.25,0.47,0.24,0.47,0.44,0.31,0.34,0.53,0.24,0.41,0.31,0.47,0.25,0.25,0.54,0.54,0.47,0.25,0.44,0.47,0.24,0.24,0.45,0.25,0.67,0.47,0.34,0.47,0.25,0.48,0.51,0.47,0.54,0.25" style="fill:rgb(35,31,32);font-family:ScalaSansLF-Regular;font-size:8.0px;stroke:none;">in EC/DMC (1:1 vol/vol) was used as the electrolyte. The cells were aged </text>
   <text y="515.557" x="302.406,304.662,308.926,311.622,313.622,314.998,318.99,322.99,324.99,326.366,330.654,332.654,334.03,338.246,341.998,344.254,348.518,351.214,354.966,356.966,358.342,361.894,366.182,369.99,372.686,376.742,380.494,383.766,388.078,390.054,393.63,397.182,401.47,405.278,407.974,412.03,415.782,417.782,419.158,423.502,426.198,430.462,434.014,437.766,441.342,444.918,448.67,452.246,454.246,455.622,458.094,462.358,464.358,465.734,469.486,473.846,477.422,481.75,484.446,488.198,490.198,491.574,493.83,498.158,500.07,501.982,503.982,505.358,509.702,513.454,517.814,521.566,524.038,526.734,530.542,533.014,534.99,539.254,543.614" svgx:width="0.28,0.53,0.34,0.25,0.55,0.5,0.5,0.25,0.55,0.54,0.25,0.55,0.53,0.47,0.28,0.53,0.34,0.47,0.25,0.55,0.44,0.54,0.48,0.34,0.51,0.47,0.41,0.54,0.25,0.45,0.44,0.54,0.48,0.34,0.51,0.47,0.25,0.55,0.54,0.34,0.53,0.44,0.47,0.45,0.45,0.47,0.45,0.25,0.55,0.31,0.53,0.25,0.55,0.47,0.55,0.45,0.54,0.34,0.47,0.25,0.55,0.28,0.54,0.24,0.24,0.25,0.55,0.54,0.47,0.55,0.47,0.31,0.34,0.48,0.31,0.25,0.53,0.55,0.25" style="fill:rgb(35,31,32);font-family:ScalaSansLF-Regular;font-size:8.0px;stroke:none;">for 12 h before charge/discharge processes to ensure full penetration </text>
   <text y="525.053" x="302.406,306.67,308.926,310.926,312.937,315.409,319.697,323.449,325.449,327.46,331.212,333.124,336.876,340.428,342.9,345.596,349.86,351.772,355.012,357.484,361.236,363.236,365.248,367.224,371.584,374.056,378.32,380.32,382.331,384.803,389.091,392.843,394.843,396.854,400.606,402.518,406.27,409.822,412.294,414.99,419.254,423.566,427.318,430.894,432.902,434.902,436.913,442.577,446.385,448.297,451.873,455.681,460.041,464.305,467.881,470.353,474.161,476.633,478.609,482.161,484.161,486.172,489.724,494.012,497.82,500.516,504.572,508.324,511.596,515.908,517.884,521.46,525.012,529.3,533.108,535.804,539.86,543.612" svgx:width="0.53,0.28,0.25,0.55,0.31,0.54,0.47,0.25,0.55,0.47,0.24,0.47,0.44,0.31,0.34,0.53,0.24,0.41,0.31,0.47,0.25,0.55,0.25,0.55,0.31,0.53,0.25,0.55,0.31,0.54,0.47,0.25,0.55,0.47,0.24,0.47,0.44,0.31,0.34,0.53,0.54,0.47,0.45,0.25,0.25,0.55,0.71,0.48,0.24,0.45,0.48,0.55,0.53,0.45,0.31,0.48,0.31,0.25,0.44,0.25,0.55,0.44,0.54,0.48,0.34,0.51,0.47,0.41,0.54,0.25,0.45,0.44,0.54,0.48,0.34,0.51,0.47,0.25" style="fill:rgb(35,31,32);font-family:ScalaSansLF-Regular;font-size:8.0px;stroke:none;">of the electrolyte into the electrodes. Galvanostatic charge/discharge </text>
   <text y="534.549" x="302.406,309.182,312.934,316.742,320.318,324.646,327.342,331.094,337.87,341.622,345.982,348.454,352.03,354.244,359.588,363.34,366.036,369.788,372.003,376.347,380.099,382.795,385.051,389.315,392.011,398.787,402.539,406.851,409.065,413.281,416.521,418.736,422.544,424.758,431.534,435.862,437.774,440.246,442.222,445.774,450.062,453.87,458.23,462.59,466.342,468.254,470.468,474.684,478.492,480.964,483.436,487.188,489.884,493.124,495.339,497.811,501.563,505.139,507.611,509.587,513.947,518.003,520.217,523.793,527.033,530.609,533.081,536.833,543.609" svgx:width="0.85,0.47,0.48,0.45,0.54,0.34,0.47,0.85,0.47,0.55,0.31,0.45,0.25,0.67,0.47,0.34,0.47,0.25,0.54,0.47,0.34,0.28,0.53,0.34,0.85,0.47,0.54,0.25,0.53,0.41,0.25,0.48,0.25,0.85,0.54,0.24,0.31,0.25,0.44,0.54,0.48,0.55,0.55,0.47,0.24,0.25,0.53,0.48,0.31,0.31,0.47,0.34,0.41,0.25,0.31,0.47,0.45,0.31,0.25,0.55,0.51,0.25,0.45,0.41,0.45,0.31,0.47,0.85,0.25" style="fill:rgb(35,31,32);font-family:ScalaSansLF-Regular;font-size:8.0px;stroke:none;">measurements were performed by a multichannel battery testing system </text>
   <text y="544.045" x="302.406,305.31,309.27,314.03,320.102,325.79,327.79,328.8,333.64,337.952,341.952,345.952,349.952,353.944,358.704,361.608,363.616,365.616,366.625,371.241,374.481,378.033,379.945,381.921,385.473,387.473,388.483,392.059,396.323,398.235,400.707,404.515,411.291,418.067,421.819,424.291,426.987,430.227,432.227,433.236,436.14,440.14,442.148,446.148,450.14,454.14,458.14,460.14,461.15,465.814,468.718,470.718,471.728,477.072,480.88,484.456,486.456,487.465,491.809,495.561,498.257,500.513,504.777,507.473,514.249,518.001,522.313,524.313,525.323,529.651,533.227,535.203,539.563,543.619" svgx:width="0.36,0.5,0.6,0.76,0.71,0.25,0.55,0.61,0.54,0.5,0.5,0.5,0.5,0.6,0.36,0.25,0.25,0.55,0.61,0.41,0.44,0.24,0.25,0.44,0.25,0.55,0.45,0.53,0.24,0.31,0.48,0.85,0.85,0.47,0.31,0.34,0.41,0.25,0.55,0.36,0.5,0.25,0.5,0.5,0.5,0.5,0.25,0.55,0.58,0.36,0.25,0.55,0.67,0.48,0.45,0.25,0.55,0.54,0.47,0.34,0.28,0.53,0.34,0.85,0.47,0.54,0.25,0.55,0.54,0.45,0.25,0.55,0.51,0.25" style="fill:rgb(35,31,32);font-family:ScalaSansLF-Regular;font-size:8.0px;stroke:none;">(LAND CT2001A). Cyclic voltammetry (0.01–3 V) was performed using </text>
   <text y="553.541" x="302.406,306.214,310.574,312.574,313.954,317.706,319.618,323.37,326.922,329.394,332.09,336.354,339.906,344.194,347.946,354.722,356.698,360.25,364.058,365.97,367.97,369.35,374.694,378.958,381.654,385.286,388.862,391.334,395.142,397.614,399.59,403.854,408.214,410.214,411.594,414.498,419.338,425.506,427.906,429.906,431.286,435.286,439.286,443.286,446.19,448.206,450.206,451.586,455.338,457.25,461.002,464.554,467.026,469.722,473.986,477.538,481.826,485.578,492.354,494.33,497.882,501.69,503.602,505.602,506.982,508.958,515.734,520.078,523.83,528.142,531.95,536.31,539.862,543.614" svgx:width="0.48,0.55,0.25,0.55,0.47,0.24,0.47,0.44,0.31,0.34,0.53,0.44,0.54,0.47,0.85,0.25,0.44,0.48,0.24,0.25,0.55,0.67,0.53,0.34,0.45,0.45,0.31,0.48,0.31,0.25,0.53,0.55,0.25,0.55,0.36,0.61,0.77,0.3,0.25,0.55,0.5,0.5,0.5,0.36,0.25,0.25,0.55,0.47,0.24,0.47,0.44,0.31,0.34,0.53,0.44,0.54,0.47,0.85,0.25,0.44,0.48,0.24,0.25,0.55,0.25,0.85,0.54,0.47,0.54,0.48,0.55,0.44,0.47,0.25" style="fill:rgb(35,31,32);font-family:ScalaSansLF-Regular;font-size:8.0px;stroke:none;">an electrochemical workstation (CHI 660), electrochemical impedance </text>
   <text y="563.037" x="302.406,305.982,310.326,314.078,317.63,320.102,322.798,327.062,330.638,334.19,338.454,342.798,346.038,348.143,351.047,355.359,357.759,362.031,364.935,367.04,372.384,376.136,378.832,382.584,384.688,387.16,390.912,394.488,396.96,400.712,405.024,407.129,412.473,414.449,416.921,421.209,423.314,427.122,431.482,433.587,438.347,442.675,445.147,449.411,451.323,455.131,459.347,461.452,465.9,470.164,472.636,476.388,480.748,483.22,485.196,489.46,493.036,495.508,499.316,501.788,503.892,509.556,513.364,515.276,518.852,522.66,527.02,531.284,534.86,537.332,541.14,543.612" svgx:width="0.45,0.54,0.47,0.44,0.31,0.34,0.53,0.45,0.44,0.53,0.54,0.41,0.25,0.36,0.54,0.3,0.53,0.36,0.25,0.67,0.47,0.34,0.47,0.25,0.31,0.47,0.45,0.31,0.47,0.54,0.25,0.67,0.25,0.31,0.54,0.25,0.48,0.55,0.25,0.6,0.54,0.31,0.53,0.24,0.48,0.53,0.25,0.56,0.53,0.31,0.47,0.55,0.31,0.25,0.53,0.45,0.31,0.48,0.31,0.25,0.71,0.48,0.24,0.45,0.48,0.55,0.53,0.45,0.31,0.48,0.31,0.25" style="fill:rgb(35,31,32);font-family:ScalaSansLF-Regular;font-size:8.0px;stroke:none;">spectroscopy (EIS) were tested with an Autolab Potentiostat Galvanostat </text>
   <text y="572.533" x="302.406,305.31,309.758,315.422,319.694,323.446,327.646,331.958,335.958,339.958,343.958,350.03,352.934,354.942,356.942,360.726,365.486,367.398,369.31,371.31,375.094,377.566,381.854,385.606,387.606,391.39,398.166,401.918,405.726,409.302,413.63,416.326,420.078,426.854,430.606,434.966,437.438,441.014,443.014,446.798,452.142,455.894,458.59,462.342,464.342,468.126,471.678,475.486,478.182,480.878,482.854,486.606,490.918,492.918,496.702,500.966,505.294,507.766,509.766,513.55,517.358,519.83,521.83,525.614,528.31,532.574,536.838,543.614" svgx:width="0.36,0.56,0.71,0.53,0.54,0.6,0.54,0.5,0.5,0.5,0.76,0.36,0.25,0.25,0.55,0.6,0.24,0.24,0.25,0.55,0.31,0.54,0.47,0.25,0.55,0.85,0.47,0.48,0.45,0.54,0.34,0.47,0.85,0.47,0.55,0.31,0.45,0.25,0.55,0.67,0.47,0.34,0.47,0.25,0.55,0.44,0.48,0.34,0.34,0.25,0.47,0.54,0.25,0.55,0.53,0.54,0.31,0.25,0.55,0.48,0.31,0.25,0.55,0.34,0.53,0.53,0.85,0.25" style="fill:rgb(35,31,32);font-family:ScalaSansLF-Regular;font-size:8.0px;stroke:none;">(PGSTAT302N). All the measurements were carried out at room </text>
   <text y="582.029" x="302.406,304.878,308.63,315.406,319.75,323.502,326.198,330.006,332.478,336.806,339.502,343.254,345.262,347.573,349.973,354.333,356.644,360.908,363.604,367.916,371.668,374.364,376.676,379.148,383.412,385.723,390.067,393.819,396.515,398.771,403.035,405.731,412.507,414.818,417.29,421.578,425.33,427.641,431.913,436.225,443.249,445.56,447.536,454.312,458.12,462.176,465.928,469.504,471.816,475.624,477.88,480.352,484.104,486.8,489.111,492.663,495.903,499.455,501.367,503.343,507.703,511.759,513.775,516.086,518.558,522.846,526.598,528.909,532.461,536.213,538.125,540.037,543.613" svgx:width="0.31,0.47,0.85,0.54,0.47,0.34,0.48,0.31,0.54,0.34,0.47,0.25,0.25,0.3,0.55,0.25,0.53,0.34,0.54,0.47,0.34,0.25,0.31,0.53,0.25,0.54,0.47,0.34,0.28,0.53,0.34,0.85,0.25,0.31,0.54,0.47,0.25,0.53,0.54,0.88,0.25,0.25,0.85,0.48,0.51,0.47,0.45,0.25,0.48,0.28,0.31,0.47,0.34,0.25,0.44,0.41,0.44,0.24,0.25,0.55,0.51,0.25,0.25,0.31,0.54,0.47,0.25,0.44,0.47,0.24,0.24,0.45,0.25" style="fill:rgb(35,31,32);font-family:ScalaSansLF-Regular;font-size:8.0px;stroke:none;">temperature. In order to perform the SEM images after cycling, the cells </text>
   <text y="591.525" x="302.406,307.75,311.502,314.198,317.95,319.95,321.509,325.821,327.797,331.373,335.181,338.757,342.333,346.085,352.861,357.077,358.989,362.741,367.053,369.053,370.612,374.421,378.78,383.092,385.092,386.652,389.124,393.412,397.164,399.164,400.723,404.275,408.083,410.555,414.843,419.107,423.419,427.171,429.171,430.73,436.074,439.882,443.458,445.458,447.017,451.329,453.305,456.881,461.225,464.977,467.673,471.249,475.001,479.313,481.313,482.873,484.849,489.209,491.209,492.768,495.24,499.528,503.28,505.28,506.839,510.647,512.559,516.111,520.375,524.663,528.927,530.839,532.839,534.398,536.654,540.918,543.614" svgx:width="0.67,0.47,0.34,0.47,0.25,0.55,0.54,0.25,0.45,0.48,0.45,0.45,0.47,0.85,0.53,0.24,0.47,0.54,0.25,0.55,0.48,0.55,0.54,0.25,0.55,0.31,0.54,0.47,0.25,0.55,0.44,0.48,0.31,0.54,0.53,0.54,0.47,0.25,0.55,0.67,0.48,0.45,0.25,0.55,0.54,0.25,0.45,0.54,0.47,0.34,0.45,0.47,0.54,0.25,0.55,0.25,0.55,0.25,0.55,0.31,0.54,0.47,0.25,0.55,0.48,0.24,0.44,0.53,0.54,0.53,0.24,0.25,0.55,0.28,0.53,0.34,0.25" style="fill:rgb(35,31,32);font-family:ScalaSansLF-Regular;font-size:8.0px;stroke:none;">were disassembled and the cathode was dispersed in the alcohol for </text>
   <text y="601.021" x="302.406,306.406,310.406,312.606,316.894,319.094,321.566,325.83,328.03,330.726,334.478,341.254,345.518,349.094,352.846,355.046,357.518,361.806,365.558,367.758,371.974,373.95,378.31,382.622,386.374,389.07,391.27,395.078,399.438,403.75,405.95,408.422,412.71,416.462,418.662,422.414,424.326,428.078,431.63,434.102,436.798,441.062,442.974,446.214,448.686,452.438,454.446,454.446" svgx:width="0.5,0.5,0.25,0.54,0.25,0.31,0.53,0.25,0.34,0.47,0.85,0.53,0.45,0.47,0.25,0.31,0.54,0.47,0.25,0.53,0.25,0.55,0.54,0.47,0.34,0.25,0.48,0.55,0.54,0.25,0.31,0.54,0.47,0.25,0.47,0.24,0.47,0.44,0.31,0.34,0.53,0.24,0.41,0.31,0.47,0.25,0.25,0.25" style="fill:rgb(35,31,32);font-family:ScalaSansLF-Regular;font-size:8.0px;stroke:none;">72 h to remove the binder and the electrolyte. </text>
   <text y="633.065" x="302.408,302.408,302.408,308.549,314.816,321.003,327.19,333.124,337.0,340.553,343.394,349.661,355.492,358.654,362.104,368.372,371.684,377.618,381.493,391.061,396.535,400.089,402.929,408.863,415.131" svgx:width="0.25,0.25,0.53,0.55,0.54,0.54,0.52,0.34,0.31,0.25,0.55,0.51,0.25,0.3,0.55,0.29,0.52,0.34,0.83,0.48,0.31,0.25,0.52,0.55,0.25" style="fill:rgb(35,31,32);font-family:ScalaSansLF-Bold;font-size:11.5px;stroke:none;"> Supporting Information </text>
   <text y="648.565" x="302.408,302.407,306.679,311.007,315.351,319.695,323.959,326.655,329.127,331.103,335.463,339.519,343.278,345.678,350.038,352.294,356.558,359.254,366.03,369.838,372.31,374.286,378.55,382.91,386.67,388.646,392.222,395.981,399.789,403.365,407.173,409.149,411.061,414.869,419.085,420.997,424.749,428.508,430.764,433.46,437.724,444.5,448.259,450.731,455.019,458.771,462.53,469.442,471.418,473.33,477.082,480.322,484.082,490.186,494.546,496.458,498.434,502.794,506.546,510.305,514.265,516.241,520.457,523.153,526.961,529.657,532.897,536.656,540.92,543.616" svgx:width="0.25,0.53,0.54,0.54,0.54,0.53,0.34,0.31,0.25,0.55,0.51,0.25,0.3,0.55,0.28,0.53,0.34,0.85,0.48,0.31,0.25,0.53,0.55,0.25,0.25,0.45,0.25,0.48,0.45,0.48,0.25,0.24,0.48,0.53,0.24,0.47,0.25,0.28,0.34,0.53,0.85,0.25,0.31,0.54,0.47,0.25,0.86,0.25,0.24,0.47,0.41,0.25,0.76,0.55,0.24,0.25,0.55,0.47,0.25,0.5,0.25,0.53,0.34,0.48,0.34,0.41,0.25,0.53,0.34,0.25" style="fill:rgb(35,31,32);font-family:ScalaSansLF-Regular;font-size:8.0px;stroke:none;"> Supporting Information is available from the Wiley Online Library or </text>
   <text y="658.061" x="302.408,304.664,307.36,311.624,318.4,320.599,323.071,327.359,331.111,333.31,337.118,341.446,343.918,348.206,352.47,354.526,356.534,356.534" svgx:width="0.28,0.34,0.53,0.85,0.25,0.31,0.54,0.47,0.25,0.48,0.54,0.31,0.54,0.53,0.34,0.25,0.25,0.25" style="fill:rgb(35,31,32);font-family:ScalaSansLF-Regular;font-size:8.0px;stroke:none;">from the author. </text>
   <text y="690.065" x="302.408,302.408,302.408,309.25,314.356,319.727,325.994,331.928,339.99,342.738,348.12,354.227,360.057,365.439,375.007,380.389,386.657,390.21,395.351" svgx:width="0.25,0.25,0.6,0.44,0.47,0.55,0.52,0.7,0.24,0.47,0.53,0.51,0.47,0.83,0.47,0.55,0.31,0.45,0.25" style="fill:rgb(35,31,32);font-family:ScalaSansLF-Bold;font-size:11.5px;stroke:none;"> Acknowledgements </text>
   <text y="705.565" x="302.408,302.404,306.972,308.98,311.12,317.192,319.2,321.34,326.1,330.388,334.196,338.46,340.476,342.616,346.792,348.8,350.94,357.012,359.02,361.16,365.12,367.096,371.424,373.44,375.58,379.388,383.748,388.06,390.2,395.04,397.048,399.188,401.588,403.596,405.736,411.808,413.784,418.112,420.252,423.804,428.068,432.428,434.9,437.596,439.572,443.788,448.116,450.588,454.34,458.652,460.792,464.544,468.704,473.032,476.84,478.752,480.664,483.904,486.044,488.516,492.78,494.92,497.392,501.68,503.656,507.232,509.372,514.716,518.98,521.676,525.308,527.316,529.456,533.768,538.056,540.032,543.608" svgx:width="0.25,0.57,0.25,0.25,0.76,0.25,0.25,0.6,0.54,0.48,0.53,0.25,0.25,0.52,0.25,0.25,0.76,0.25,0.25,0.5,0.25,0.54,0.25,0.25,0.48,0.55,0.54,0.25,0.61,0.25,0.25,0.3,0.25,0.25,0.76,0.25,0.54,0.25,0.44,0.53,0.55,0.31,0.34,0.25,0.53,0.54,0.31,0.47,0.54,0.25,0.47,0.52,0.54,0.48,0.24,0.24,0.41,0.25,0.31,0.53,0.25,0.31,0.54,0.25,0.45,0.25,0.67,0.53,0.34,0.45,0.25,0.25,0.54,0.54,0.25,0.45,0.25" style="fill:rgb(35,31,32);font-family:ScalaSansLF-Regular;font-size:8.0px;stroke:none;"> K. N. Zhao, F. N. Liu, and C. J. Niu contributed equally to this work. This </text>
   <text y="715.061" x="302.408,307.752,312.016,314.712,318.344,320.344,321.298,326.642,330.45,334.026,336.026,336.981,340.557,344.885,349.229,353.573,357.837,360.533,363.005,366.757,371.069,373.069,374.023,378.239,381.479,383.479,384.434,386.906,391.194,394.946,396.946,397.9,403.972,407.78,410.252,412.228,416.492,420.852,424.66,426.572,428.572,429.526,434.254,438.062,441.638,443.614,447.166,449.166,450.121,454.793,458.545,462.121,465.873,469.681,472.377,475.929,480.217,482.217,483.171,487.619,490.315,494.579,498.635,501.331,505.139,511.915,513.915,514.87,519.134,521.39,523.39,524.344,529.184,533.472,535.448,539.808,543.616" svgx:width="0.67,0.53,0.34,0.45,0.25,0.55,0.67,0.48,0.45,0.25,0.55,0.45,0.54,0.54,0.54,0.53,0.34,0.31,0.47,0.54,0.25,0.55,0.53,0.41,0.25,0.55,0.31,0.54,0.47,0.25,0.55,0.76,0.48,0.31,0.25,0.53,0.55,0.48,0.24,0.25,0.55,0.59,0.48,0.45,0.25,0.44,0.25,0.55,0.58,0.47,0.45,0.47,0.48,0.34,0.44,0.54,0.25,0.55,0.56,0.34,0.53,0.51,0.34,0.48,0.85,0.25,0.55,0.53,0.28,0.25,0.55,0.61,0.54,0.25,0.55,0.48,0.25" style="fill:rgb(35,31,32);font-family:ScalaSansLF-Regular;font-size:8.0px;stroke:none;">work was supported by the National Basic Research Program of China </text>
  </g>
  <rect style="stroke:blue;stroke-width:0.3;" x="54.954" y="88.184" height="340.272" width="480.132" title="6"/>
  <text y="88.184" class="image" id="image.6.3" width="480" height="340" x="54.954">image.6.3.55_535.88_428</text>
  <g begin="text">
   <text y="426.105" x="47.002" svgx:width="0.25" style="fill:rgb(35,31,32);font-family:ScalaSansLF-Regular;font-size:8.0px;stroke:none;"> </text>
   <text y="426.105" x="47.002,51.178,53.154,57.21,61.57,64.266,68.01,70.402,74.402,76.41" svgx:width="0.52,0.25,0.51,0.55,0.34,0.47,0.25,0.5,0.25,0.25" style="fill:rgb(35,31,32);font-family:ScalaSansLF-Bold;font-size:8.0px;stroke:none;">Figure 5. </text>
   <text y="426.105" x="76.41,76.41,78.41,80.41,80.41,85.17,88.074,90.466,94.778,99.066,102.818,105.21,108.762,112.57,116.914,120.722,124.274,126.25,128.722,131.962,134.354,137.906,142.17,146.53,149.002,151.698,153.674,157.89,162.218,164.69,166.666,170.93,175.29,177.682,181.49,183.962,186.354,190.666,192.642,194.898,197.154,200.906,203.602,207.354,211.714,214.186,216.578,220.154,223.706,227.514,231.874,234.266,236.962,240.77,243.242,246.994,250.57,252.962,255.866,259.866,261.874,265.866,267.882,270.274,274.274,276.282,280.282,282.298,284.69,288.69,290.698,294.698,296.714,299.106,303.106,305.122,307.514,311.514,313.53,315.922,319.73,324.09,328.402,330.794,334.786,338.786,341.178,347.954,352.618,355.01,358.586" svgx:width="0.25,0.25,0.55,0.25,0.6,0.36,0.25,0.54,0.54,0.47,0.25,0.44,0.48,0.54,0.48,0.44,0.25,0.31,0.41,0.25,0.44,0.53,0.55,0.31,0.34,0.25,0.53,0.54,0.31,0.25,0.53,0.55,0.25,0.48,0.31,0.25,0.54,0.25,0.28,0.28,0.47,0.34,0.47,0.55,0.31,0.25,0.45,0.44,0.48,0.55,0.25,0.34,0.48,0.31,0.47,0.45,0.25,0.36,0.5,0.25,0.5,0.25,0.25,0.5,0.25,0.5,0.25,0.25,0.5,0.25,0.5,0.25,0.25,0.5,0.25,0.25,0.5,0.25,0.25,0.48,0.55,0.54,0.25,0.5,0.5,0.25,0.85,0.58,0.25,0.45,0.25" style="fill:rgb(35,31,32);font-family:ScalaSansLF-Regular;font-size:8.0px;stroke:none;"> A) The capacity contribution at different scan rates (0.1, 0.5, 0.2, 2, 5, and 10 mV s </text>
   <text y="423.305" x="358.587" svgx:width="0.55" style="fill:rgb(35,31,32);font-family:Symbol;font-size:5.6px;stroke:none;">−</text>
   <text y="423.305" x="361.661" svgx:width="0.5" style="fill:rgb(35,31,32);font-family:ScalaSansLF-Regular;font-size:5.6px;stroke:none;">1</text>
   <text y="426.105" x="364.456,364.456,367.36,369.368,371.76,376.488,379.392,381.784,386.624,391.288,393.68,398.024,400.72,404.984,406.968,408.952,410.864,414.616,417.008,419.264,423.528,426.224,428.616,432.424,434.632,439.472,444.136,450.24,452.448,458.112,464.216,466.608,470.416,472.888,475.28,479.088,481.48,485.056,490.4,494.152,497.904,502.248,504.224,508.584,512.64,515.032,517.728,521.536,524.008,527.76,530.152,534.416,536.672,539.064,543.064" svgx:width="0.25,0.36,0.25,0.25,0.59,0.36,0.25,0.61,0.58,0.25,0.54,0.34,0.53,0.5,0.25,0.24,0.47,0.25,0.28,0.53,0.34,0.25,0.48,0.28,0.61,0.58,0.76,0.28,0.71,0.76,0.25,0.48,0.31,0.25,0.48,0.25,0.45,0.67,0.47,0.47,0.54,0.25,0.55,0.51,0.25,0.34,0.48,0.31,0.47,0.25,0.53,0.28,0.25,0.5,0.25" style="fill:rgb(35,31,32);font-family:ScalaSansLF-Regular;font-size:8.0px;stroke:none;"> ). B) CV proﬁ le for a-CVO-GO at a sweeping rate of 2 </text>
   <text y="435.601" x="47.0,53.776,58.44,60.758,64.334" svgx:width="0.85,0.58,0.25,0.45,0.25" style="fill:rgb(35,31,32);font-family:ScalaSansLF-Regular;font-size:8.0px;stroke:none;">mV s </text>
   <text y="432.805" x="64.336" svgx:width="0.55" style="fill:rgb(35,31,32);font-family:Symbol;font-size:5.6px;stroke:none;">−</text>
   <text y="432.805" x="67.41" svgx:width="0.5" style="fill:rgb(35,31,32);font-family:ScalaSansLF-Regular;font-size:5.6px;stroke:none;">1</text>
   <text y="435.605" x="70.204,70.203,72.211,74.529,78.841,83.129,86.881,89.2,92.952,96.528,99.0,100.976,107.752,111.56,114.032,117.784,122.096,124.414,127.966,131.774,136.118,139.926,143.478,145.454,147.926,149.902,153.478,157.23,159.548,163.1,167.428,170.124,172.82,176.572,180.932,183.404,185.723,189.275,193.539,197.899,200.371,203.067,205.043,209.259,213.587,216.059,218.035,222.299,226.659,228.977,230.953,234.529,236.848,240.424,244.712,248.976,254.32,258.68,260.998,262.974,267.334,269.652,272.124,276.412,280.164,282.483,286.059,290.347,294.155,298.467,302.219,306.531,308.849,311.545,315.297,319.353,321.329,325.593,329.953,331.961,334.28,339.12,342.024,344.342,350.414,353.654,357.814,362.142,364.118,367.694,370.166,372.484,376.828,378.74,383.004,385.476,389.052,391.371,395.635,397.891,400.209,404.017,406.225,411.065,415.729,421.833,424.041,429.705,435.809,438.128,441.936,446.296,450.608,452.926,456.478,458.686,463.526,468.19,474.294,476.302,478.62,484.308,487.212,489.531,495.603,498.843,503.003,507.323,509.299,512.875,515.347,517.665,522.009,523.921,528.185,530.657,534.233,536.552,540.816,543.072" svgx:width="0.25,0.25,0.25,0.54,0.54,0.47,0.25,0.47,0.45,0.31,0.25,0.85,0.48,0.31,0.47,0.54,0.25,0.44,0.48,0.54,0.48,0.44,0.25,0.31,0.25,0.45,0.47,0.25,0.44,0.54,0.34,0.34,0.47,0.55,0.31,0.25,0.44,0.53,0.55,0.31,0.34,0.25,0.53,0.54,0.31,0.25,0.53,0.55,0.25,0.25,0.45,0.25,0.45,0.54,0.53,0.67,0.55,0.25,0.25,0.55,0.25,0.31,0.54,0.47,0.25,0.45,0.54,0.48,0.54,0.47,0.54,0.25,0.34,0.47,0.51,0.25,0.53,0.55,0.25,0.25,0.61,0.36,0.25,0.76,0.41,0.52,0.54,0.25,0.45,0.31,0.25,0.54,0.24,0.53,0.31,0.45,0.25,0.53,0.28,0.25,0.48,0.28,0.61,0.58,0.76,0.28,0.71,0.76,0.25,0.48,0.55,0.54,0.25,0.44,0.28,0.61,0.58,0.76,0.25,0.25,0.71,0.36,0.25,0.76,0.41,0.52,0.54,0.25,0.45,0.31,0.25,0.54,0.24,0.53,0.31,0.45,0.25,0.53,0.28,0.25" style="fill:rgb(35,31,32);font-family:ScalaSansLF-Regular;font-size:8.0px;stroke:none;"> . The estimated capacitive current contribution is shown in the shaded region. C) Nyquist plots of a-CVO-GO and c-CVO. D) Nyquist plots of </text>
   <text y="445.101" x="47.004,50.812,53.02,57.86,62.524,68.628,70.836,76.5,82.604,84.804,89.02,92.772,95.028,99.292,101.988,105.74,107.94,111.492,114.732,118.284,120.196,122.172,126.532,130.588,132.788,136.596,140.956,145.268,147.468,151.276,153.532,156.004,159.756,162.452,164.652,168.644,172.644,176.644,180.644,182.844,186.396,189.636,193.188,195.1,198.852,202.428" svgx:width="0.48,0.28,0.61,0.58,0.76,0.28,0.71,0.76,0.25,0.53,0.47,0.28,0.53,0.34,0.47,0.25,0.44,0.41,0.44,0.24,0.25,0.55,0.51,0.25,0.48,0.55,0.54,0.25,0.48,0.28,0.31,0.47,0.34,0.25,0.5,0.5,0.5,0.5,0.25,0.44,0.41,0.44,0.24,0.47,0.45,0.25" style="fill:rgb(35,31,32);font-family:ScalaSansLF-Regular;font-size:8.0px;stroke:none;">a-CVO-GO before cycling and after 1000 cycles.</text>
  </g>
 </g>
</svg>
