<?xml version="1.0" encoding="UTF-8"?>
<svg height="758.304" width="4482.134" xmlns="http://www.w3.org/2000/svg">
 <g id="page" xmlns:svgx="http://www.xml-cml.org/schema/svgx">
  <g begin="text">
   <text y="70.842" transform="matrix(0.0,1.0,-1.0,0.0,645.347,-503.663)" rotateDegrees="90" matrix="[0.0,-12.0,12.0,0.0,574.505,712.1584]" x="574.505,566.561,555.641,542.573,529.505,519.653,509.117,504.209,496.265,487.277,480.053,475.145,464.22499999999997" svgx:width="0.66,0.9,1.08,1.08,0.81,0.87,0.4,0.66,0.82,0.6,0.4,0.9,0.87" style="fill:rgb(255,255,255);font-family:Futura-ExtraBold;font-size:12.0px;stroke:none;">COMMUNICATION</text>
  </g>
  <rect style="stroke:blue;stroke-width:0.3;" x="51.054" y="35.924" height="29.832" width="58.703" title="5"/>
  <text y="35.924" class="image" id="image.5.1" width="58" height="29" x="51.054">image.5.1.51_110.36_66</text>
  <g begin="text">
   <text y="747.79" x="499.259,502.526,507.026,509.276,514.073,516.611,518.861,523.361,526.628" svgx:width="0.36,0.5,0.25,0.53,0.28,0.25,0.5,0.36,0.25" style="fill:rgb(35,31,32);font-family:ScalaSansLF-Regular;font-size:9.0px;stroke:none;">(5 of 7) </text>
   <text y="747.79" x="531.128,535.628,540.128,544.628,549.128,553.628,558.128" svgx:width="0.5,0.5,0.5,0.5,0.5,0.5,0.5" style="fill:rgb(35,31,32);font-family:ScalaSansLF-Bold;font-size:9.0px;stroke:none;">1500154</text>
   <text y="748.285" x="419.452,424.359,426.088,427.761,431.037,434.068,437.68,441.495,443.168,444.897,448.712,451.988,453.661,455.39,459.016,461.375,464.707,467.066,469.537,471.294,474.402,478.014" svgx:width="0.7,0.25,0.24,0.47,0.43,0.52,0.55,0.24,0.25,0.55,0.47,0.24,0.25,0.52,0.34,0.48,0.34,0.43,0.25,0.44,0.52,0.83" style="fill:rgb(35,31,32);font-family:ScalaSansLF-Bold;font-size:7.0px;stroke:none;">wileyonlinelibrary.com</text>
   <text y="747.304" x="150.013" svgx:width="1.01" style="fill:rgb(35,31,32);font-family:ScalaSansLF-Regular;font-size:6.0px;stroke:none;">©</text>
   <text y="748.304" x="156.067,157.992,161.492,164.992,168.485,171.985,173.91,177.683,181.435,184.718,186.643,190.808,194.595,196.758,200.51,204.241,206.6,209.729,211.486,213.411,217.303,221.09,224.779,226.452,228.181,231.31,235.062,238.345,242.118,244.043,247.732,250.567,252.492,258.54,260.64,264.105,267.878,271.728,273.66,277.741,281.976,287.373,289.298,292.959,296.242,298.601,300.274,303.606,307.155,309.08,314.036,319.965,323.654,329.051,330.976,335.883,337.808,341.868,345.599,347.356,349.281,353.278,358.234,361.566,365.731,367.495,369.42,375.048,378.331,380.06,383.875,387.627,390.91,392.639" svgx:width="0.25,0.5,0.5,0.5,0.5,0.25,0.54,0.54,0.47,0.25,0.6,0.54,0.31,0.54,0.53,0.34,0.45,0.25,0.25,0.56,0.54,0.53,0.24,0.25,0.45,0.54,0.47,0.54,0.25,0.53,0.41,0.25,0.86,0.3,0.5,0.54,0.55,0.28,0.58,0.61,0.77,0.25,0.58,0.47,0.34,0.24,0.48,0.51,0.25,0.71,0.85,0.53,0.77,0.25,0.7,0.25,0.61,0.53,0.25,0.25,0.57,0.71,0.48,0.6,0.25,0.25,0.86,0.47,0.25,0.55,0.54,0.47,0.25,0.85" style="fill:rgb(35,31,32);font-family:ScalaSansLF-Regular;font-size:7.0px;stroke:none;"> 2015 The Authors. Published by WILEY-VCH Verlag GmbH &amp; Co. KGaA, Weinheim</text>
  </g>
  <path style="fill:none;stroke:rgb(35,31,32);stroke-width:1.0;" d="M466.460 39.260 L112.310 39.260 "/>
  <rect style="stroke:blue;stroke-width:0.3;" x="472.134" y="30.704" height="28.872" width="76.272" title="5"/>
  <text y="30.704" class="image" id="image.5.2" width="76" height="28" x="472.134">image.5.2.472_548.31_60</text>
  <g begin="text">
   <text y="484.897" x="50.386,53.077,56.47,60.583,65.812,69.601,72.508,76.657,80.05,82.94,86.333,90.482,94.271,96.809,100.598,103.289,107.402,112.631,116.501,120.65,123.541,128.086,130.993,133.884,136.575,141.687,145.836,148.727,152.84,155.315,161.318,167.267,173.954,176.429,183.134,189.821,192.712,195.25,199.039,201.929,206.717,210.866,213.557,217.706,221.099,229.046,231.584,236.813,240.962,245.75,248.641,251.332,255.877,258.768,263.502,267.651,270.542,275.042,279.542" svgx:width="0.3,0.38,0.46,0.58,0.42,0.32,0.46,0.38,0.25,0.38,0.46,0.42,0.28,0.42,0.3,0.46,0.58,0.43,0.46,0.25,0.5,0.32,0.25,0.3,0.57,0.46,0.25,0.46,0.28,0.67,0.66,0.74,0.28,0.75,0.74,0.25,0.28,0.42,0.25,0.53,0.46,0.3,0.46,0.38,0.88,0.28,0.58,0.46,0.53,0.25,0.3,0.5,0.25,0.53,0.46,0.25,0.5,0.5,0.25" style="fill:rgb(35,31,32);font-family:ScalaLF-Regular;font-size:9.0px;stroke:none;">transfer resistance of the a-CVO-GO is determined to be 50 </text>
   <text y="484.897" x="282.433" svgx:width="0.77" style="fill:rgb(35,31,32);font-family:Symbol;font-size:9.0px;stroke:none;">Ω</text>
   <text y="484.897" x="289.345,291.595" svgx:width="0.25,0.25" style="fill:rgb(35,31,32);font-family:ScalaLF-Regular;font-size:9.0px;stroke:none;">, </text>
   <text y="495.895" x="50.386,58.333,63.463,67.333,72.445,74.695,76.339,78.742,83.287,89.641,93.79,97.183,99.433,101.077,103.768,108.88,112.993,118.222,120.472,122.117,124.808,129.92,134.033,136.724,138.974,140.618,145.163,148.07,150.32,151.964,154.655,159.767,163.916,166.166,167.81,171.68,174.155,180.158,186.107,192.794,195.044,196.689,199.47,203.97,208.47,212.97" svgx:width="0.88,0.57,0.43,0.57,0.25,0.55,0.27,0.5,0.71,0.46,0.38,0.25,0.55,0.3,0.57,0.46,0.58,0.25,0.55,0.3,0.57,0.46,0.3,0.25,0.55,0.5,0.32,0.25,0.55,0.3,0.57,0.46,0.25,0.55,0.43,0.28,0.67,0.66,0.74,0.25,0.55,0.31,0.5,0.5,0.5,0.25" style="fill:rgb(35,31,32);font-family:ScalaLF-Regular;font-size:9.0px;stroke:none;">much lower than that of the c-CVO (284 </text>
   <text y="495.895" x="216.864" svgx:width="0.77" style="fill:rgb(35,31,32);font-family:Symbol;font-size:9.0px;stroke:none;">Ω</text>
   <text y="495.895" x="223.776,226.554,228.802,231.052,232.696,240.802,245.345,248.735,252.881,257.423,261.399,265.545,268.215,270.463,272.713,274.357,278.467,281.372,284.06,288.206,291.596" svgx:width="0.31,0.25,0.25,0.55,0.9,0.5,0.38,0.46,0.5,0.44,0.46,0.38,0.25,0.25,0.55,0.46,0.32,0.3,0.46,0.38,0.25" style="fill:rgb(35,31,32);font-family:ScalaLF-Regular;font-size:9.0px;stroke:none;">). Moreover, after </text>
   <text y="506.893" x="50.386,54.886,59.386,63.886,68.386,70.766,74.636,78.623,82.493,84.896,89.045,92.834,95.215,99.328,102.019,104.399,108.899,113.399,115.78,121.828,124.208,128.771" svgx:width="0.5,0.5,0.5,0.5,0.25,0.43,0.44,0.43,0.27,0.46,0.42,0.25,0.46,0.3,0.25,0.5,0.5,0.25,0.67,0.25,0.51,0.25" style="fill:rgb(35,31,32);font-family:ScalaLF-Regular;font-size:9.0px;stroke:none;">1000 cycles at 20 A g </text>
   <text y="503.747" x="128.771" svgx:width="0.55" style="fill:rgb(35,31,32);font-family:Symbol;font-size:6.3px;stroke:none;">−</text>
   <text y="503.747" x="132.23" svgx:width="0.5" style="fill:rgb(35,31,32);font-family:ScalaLF-Regular;font-size:6.3px;stroke:none;">1</text>
   <text y="506.897" x="135.38,135.376,137.626,140.006,142.697,147.809,151.958,154.338,158.208,163.32,167.433,170.826,175.389,179.538,181.919,184.61,188.003,192.116,197.345,201.134,204.041,208.19,211.583,213.964,217.357,221.506,225.295,227.833,231.622,234.313,238.426,243.655,247.525,251.674,254.054,258.599,261.506,263.887,268.0,270.475,276.478,282.427,289.114" svgx:width="0.25,0.25,0.25,0.3,0.57,0.46,0.25,0.43,0.57,0.46,0.38,0.51,0.46,0.25,0.3,0.38,0.46,0.58,0.42,0.32,0.46,0.38,0.25,0.38,0.46,0.42,0.28,0.42,0.3,0.46,0.58,0.43,0.46,0.25,0.5,0.32,0.25,0.46,0.28,0.67,0.66,0.74,0.28" style="fill:rgb(35,31,32);font-family:ScalaLF-Regular;font-size:9.0px;stroke:none;"> , the charge transfer resistance of a-CVO-</text>
   <text y="517.895" x="50.384,57.089,63.776,66.02600000000001,66.95,71.684,75.833,79.703,84.248,92.195,96.344,100.133,102.383,103.308,107.457,111.435,115.584,120.813,123.063,123.987,126.39,130.935,137.289,141.438,144.831,147.081,148.005,150.786,155.286,159.786" svgx:width="0.75,0.74,0.25,0.55,0.53,0.46,0.43,0.5,0.88,0.46,0.42,0.25,0.55,0.46,0.44,0.46,0.58,0.25,0.55,0.27,0.5,0.71,0.46,0.38,0.25,0.55,0.31,0.5,0.5,0.25" style="fill:rgb(35,31,32);font-family:ScalaLF-Regular;font-size:9.0px;stroke:none;">GO becomes even lower (32 </text>
   <text y="517.895" x="162.961" svgx:width="0.77" style="fill:rgb(35,31,32);font-family:Symbol;font-size:9.0px;stroke:none;">Ω</text>
   <text y="517.895" x="169.873,172.123,175.297,180.166,182.704,187.267,192.397,195.79,199.939,203.113,203.11,207.61,207.608,214.268,217.049,219.299,222.473,227.873,232.985,235.523,239.312,242.486,245.024,248.813,251.988,256.776,261.906,266.055,269.229,271.92,276.465,279.639,282.33,287.442,291.591" svgx:width="0.25,0.25,0.57,0.28,0.51,0.57,0.38,0.46,0.25,0.25,0.5,0.25,0.74,0.31,0.25,0.25,0.6,0.57,0.28,0.42,0.25,0.28,0.42,0.25,0.53,0.57,0.46,0.25,0.3,0.5,0.25,0.3,0.57,0.46,0.25" style="fill:rgb(35,31,32);font-family:ScalaLF-Regular;font-size:9.0px;stroke:none;">, Figure 5 D). This is due to the </text>
   <text y="528.893" x="50.384,54.254,58.799,63.641,68.483,72.632,76.025,78.436,82.585,86.518,89.209,92.602,96.715,100.585,103.276,105.814,110.359,115.588,117.999,122.787,127.917,131.31,133.848,139.077,143.64,146.051,148.742,153.854,158.003,160.414,163.033,165.661,169.054,172.843,175.534,177.945,182.733,185.271,189.06,192.93,198.042,202.155,205.548,210.111,214.26,216.671,221.513,224.906,229.451,233.321,237.47,241.259,245.048,247.298" svgx:width="0.43,0.5,0.54,0.54,0.46,0.38,0.25,0.46,0.44,0.3,0.38,0.46,0.43,0.3,0.28,0.5,0.58,0.25,0.53,0.57,0.38,0.28,0.58,0.51,0.25,0.3,0.57,0.46,0.25,0.58,0.25,0.38,0.42,0.3,0.25,0.53,0.28,0.42,0.43,0.57,0.46,0.38,0.51,0.46,0.25,0.54,0.38,0.5,0.43,0.46,0.42,0.42,0.25,0.25" style="fill:rgb(35,31,32);font-family:ScalaLF-Regular;font-size:9.0px;stroke:none;">copper extraction during the ﬁ rst discharge process, </text>
   <text y="525.747" x="247.296,248.871,248.871,252.021,255.171,258.321,261.471,264.621,264.621" svgx:width="0.25,0.25,0.5,0.5,0.5,0.5,0.5,0.25,0.25" style="fill:rgb(35,31,32);font-family:ScalaLF-Regular;font-size:6.3px;stroke:none;">[ 49–51 ]</text>
   <text y="528.897" x="266.196,266.196,268.608,274.962,280.074,282.612,286.482,291.594" svgx:width="0.25,0.25,0.71,0.57,0.28,0.43,0.57,0.25" style="fill:rgb(35,31,32);font-family:ScalaLF-Regular;font-size:9.0px;stroke:none;"> which </text>
   <text y="539.895" x="50.385,52.923,56.712,59.073,63.861,68.01,75.957,80.502,85.731,89.52,92.211,95.604,99.717,102.408,106.557,111.345,113.705,118.439,122.426,124.787,127.478,132.59,136.739,139.1,143.249,147.182,149.543,153.332,155.87,158.561,163.691,166.051,171.991,177.877,184.537,186.898,191.74,195.853,198.544,201.235,205.384,208.777,214.006,216.367,220.912,223.819,226.179,228.87,233.982,238.131,240.492,244.641,247.044,251.193,255.063,257.754,261.147,265.692,270.48,274.629,276.99,279.681,284.793,288.906,291.597" svgx:width="0.28,0.42,0.25,0.53,0.46,0.88,0.5,0.58,0.42,0.3,0.38,0.46,0.3,0.46,0.53,0.25,0.53,0.44,0.25,0.3,0.57,0.46,0.25,0.46,0.44,0.25,0.42,0.28,0.3,0.57,0.25,0.66,0.65,0.74,0.25,0.54,0.46,0.3,0.3,0.46,0.38,0.58,0.25,0.5,0.32,0.25,0.3,0.57,0.46,0.25,0.46,0.27,0.46,0.43,0.3,0.38,0.5,0.53,0.46,0.25,0.3,0.57,0.46,0.3,0.25" style="fill:rgb(35,31,32);font-family:ScalaLF-Regular;font-size:9.0px;stroke:none;">is demonstrated by the ex situ XRD pattern of the electrode that </text>
   <text y="550.893" x="50.385,54.498,56.983,61.825,65.974,70.087,74.659,77.144,81.257,83.948,86.433,90.933" svgx:width="0.46,0.25,0.54,0.46,0.46,0.51,0.25,0.46,0.3,0.25,0.5,0.5" style="fill:rgb(35,31,32);font-family:ScalaLF-Regular;font-size:9.0px;stroke:none;">a peak at 42</text>
   <text y="550.893" x="95.433" svgx:width="0.4" style="fill:rgb(35,31,32);font-family:Symbol;font-size:9.0px;stroke:none;">°</text>
   <text y="550.893" x="99.033,101.518,104.056,107.845,110.33,114.875,119.609,123.398,127.547,130.94,134.918,139.067,143.855,146.339,149.12,153.989,156.527,161.09,166.22,169.613,173.762,176.247,181.305,185.805,190.305,192.555,195.04,199.819,204.949,209.791,214.633,219.178,222.571,225.262,227.8,233.029,237.592,240.077,243.425,248.654,251.561,256.106,259.499,267.446,271.559,274.25,276.788,281.333,286.562,289.343,291.593" svgx:width="0.25,0.28,0.42,0.25,0.5,0.53,0.42,0.46,0.38,0.44,0.46,0.53,0.25,0.31,0.57,0.28,0.51,0.57,0.38,0.46,0.25,0.56,0.5,0.5,0.25,0.25,0.56,0.57,0.54,0.54,0.5,0.38,0.3,0.28,0.58,0.51,0.25,0.37,0.58,0.32,0.5,0.38,0.88,0.46,0.3,0.28,0.5,0.58,0.31,0.25,0.25" style="fill:rgb(35,31,32);font-family:ScalaLF-Regular;font-size:9.0px;stroke:none;"> is observed (Figure S15, Supporting Information). </text>
   <text y="561.891" x="50.385,53.733,58.962,61.212,62.904,65.595,70.707,73.245,77.034,79.284,80.976,87.33,91.443,94.71,96.96,99.21,100.902,103.593,108.705,112.854,115.104,116.796,119.334,124.563,126.813,128.505,132.294,134.832,137.523,142.653,144.903,146.595,151.158,155.307,160.536,164.685,168.078,172.191,174.882,179.031,183.819,186.069,187.761,191.631,196.176,201.018,205.86,210.009,213.402,215.652,217.344,225.291,229.44,232.131,236.244,238.647,240.897,242.589,246.459,250.572,255.801,258.051,259.743,263.892,269.121,274.233,278.346,283.575,287.445,291.594" svgx:width="0.37,0.58,0.25,0.55,0.3,0.57,0.28,0.42,0.25,0.55,0.71,0.46,0.44,0.25,0.25,0.55,0.3,0.57,0.46,0.25,0.55,0.28,0.58,0.25,0.55,0.42,0.28,0.3,0.57,0.25,0.55,0.51,0.46,0.58,0.46,0.38,0.46,0.3,0.46,0.53,0.25,0.55,0.43,0.5,0.54,0.54,0.46,0.38,0.25,0.55,0.88,0.46,0.3,0.46,0.27,0.25,0.55,0.43,0.46,0.58,0.25,0.55,0.46,0.58,0.57,0.46,0.58,0.43,0.46,0.25" style="fill:rgb(35,31,32);font-family:ScalaLF-Regular;font-size:9.0px;stroke:none;">In this way, the in situ generated copper metal can enhance </text>
   <text y="572.889" x="50.385,53.076,58.188,62.337,64.587,67.219,71.368,73.771,77.92,81.79,84.481,87.874,90.412,94.282,98.395,100.798,103.048,105.679,109.549,114.094,119.323,124.111,129.241,133.111,135.802,138.34,142.318,144.856,147.547,151.534,153.784,156.416,160.961,163.868,166.118,168.749,171.44,176.552,180.701,182.951,185.583,189.732,192.135,196.284,200.154,202.845,206.238,210.783,215.571,219.72,221.97" svgx:width="0.3,0.57,0.46,0.25,0.55,0.46,0.27,0.46,0.43,0.3,0.38,0.28,0.43,0.46,0.27,0.25,0.55,0.43,0.5,0.58,0.53,0.57,0.43,0.3,0.28,0.44,0.28,0.3,0.44,0.25,0.55,0.5,0.32,0.25,0.55,0.3,0.57,0.46,0.25,0.55,0.46,0.27,0.46,0.43,0.3,0.38,0.5,0.53,0.46,0.25,0.25" style="fill:rgb(35,31,32);font-family:ScalaLF-Regular;font-size:9.0px;stroke:none;">the electrical conductivity of the electrode. </text>
   <text y="569.747" x="221.966,223.541,223.541,226.691,229.841,231.416,234.566,237.716,237.716" svgx:width="0.25,0.25,0.5,0.5,0.25,0.5,0.5,0.25,0.25" style="fill:rgb(35,31,32);font-family:ScalaLF-Regular;font-size:6.3px;stroke:none;">[ 52,36 ]</text>
   <text y="572.897" x="239.291,239.291,241.541,244.169,250.037,254.825,259.613,262.151,264.842,267.38,271.925,277.154,281.267,283.67,286.073,289.34,291.59" svgx:width="0.25,0.25,0.55,0.67,0.53,0.53,0.28,0.3,0.28,0.5,0.58,0.46,0.27,0.27,0.44,0.25,0.25" style="fill:rgb(35,31,32);font-family:ScalaLF-Regular;font-size:9.0px;stroke:none;"> Additionally, </text>
   <text y="583.895" x="50.39,53.081,58.193,62.342,64.633,68.422,70.825,75.37,80.212,84.361,86.653,89.191,94.42,96.711,99.402,104.514,108.663,110.955,113.358,117.903,124.257,126.548,129.455,132.848,136.997,141.686,146.816,150.965,156.194,160.064,164.051,166.342,169.735,173.848,179.077,183.64,187.789,190.081,192.619,196.408,198.699,201.237,206.466,210.336,213.729,217.878,221.991,225.78,229.929,234.717,236.967,239.259,241.797,247.026,251.814,254.352,258.222,262.335,265.026,267.564,272.793,277.356,279.647,282.338,287.45,291.599" svgx:width="0.3,0.57,0.46,0.25,0.42,0.27,0.5,0.54,0.46,0.25,0.28,0.58,0.25,0.3,0.57,0.46,0.25,0.27,0.5,0.71,0.25,0.32,0.38,0.46,0.52,0.57,0.46,0.58,0.43,0.44,0.25,0.38,0.46,0.58,0.51,0.46,0.25,0.28,0.42,0.25,0.28,0.58,0.43,0.38,0.46,0.46,0.42,0.46,0.53,0.25,0.25,0.28,0.58,0.53,0.28,0.43,0.46,0.3,0.28,0.58,0.51,0.25,0.3,0.57,0.46,0.25" style="fill:rgb(35,31,32);font-family:ScalaLF-Regular;font-size:9.0px;stroke:none;">the slope in the low frequency range is increased, indicating the </text>
   <text y="594.893" x="50.39,54.538,59.766,64.877,68.989,74.217,78.087,82.235,87.022,89.497,92.034,96.578,101.806,104.281,109.068,111.605,114.511,117.418,122.547,126.335,128.872,133.416,138.644,141.119,145.69,148.227,153.455,157.603,160.294,162.831,166.7,170.488,172.737" svgx:width="0.46,0.58,0.57,0.46,0.58,0.43,0.46,0.53,0.25,0.28,0.5,0.58,0.25,0.53,0.28,0.32,0.32,0.57,0.42,0.28,0.5,0.58,0.25,0.51,0.28,0.58,0.46,0.3,0.28,0.43,0.42,0.25,0.25" style="fill:rgb(35,31,32);font-family:ScalaLF-Regular;font-size:9.0px;stroke:none;">enhanced ion diffusion kinetics. </text>
   <text y="605.891" x="60.389,60.389,66.104,70.217,74.006,78.155,82.943,85.193,87.857,92.402,97.631,99.881,102.545,105.236,110.348,114.497,116.747,119.411,123.524,128.258,132.803,136.781,140.93,143.18,145.844,149.957,155.186,159.299,161.702,165.689,169.478,172.016,175.805,178.055,180.305,182.969,185.66,190.772,194.921,197.171,199.835,203.984,207.917,210.608,214.001,218.114,222.659,226.052,230.84,233.378,238.607,242.72,246.113,250.1,252.35,255.014,260.126,262.664,267.227,272.339,274.589,277.253,280.646,284.759,287.45,291.599" svgx:width="0.25,0.63,0.46,0.42,0.46,0.53,0.25,0.55,0.5,0.58,0.25,0.55,0.3,0.57,0.46,0.25,0.55,0.46,0.53,0.5,0.44,0.46,0.25,0.55,0.46,0.58,0.46,0.27,0.44,0.42,0.28,0.42,0.25,0.25,0.55,0.3,0.57,0.46,0.25,0.55,0.46,0.44,0.3,0.38,0.46,0.5,0.38,0.53,0.28,0.58,0.46,0.38,0.44,0.25,0.55,0.57,0.28,0.51,0.57,0.25,0.55,0.38,0.46,0.3,0.46,0.25" style="fill:rgb(35,31,32);font-family:ScalaLF-Regular;font-size:9.0px;stroke:none;"> Based on the above analysis, the extraordinary high rate </text>
   <text y="616.889" x="50.39,54.26,58.373,63.215,67.328,72.062,74.6,77.003,79.541,82.232,86.219,88.469,90.904,95.017,100.246,105.034,107.284,109.72,113.869,117.802,121.672,125.821,128.224,130.627,134.776,140.005,142.696,144.946,147.381,151.251,155.238,159.108,161.511,164.049,169.278,173.841,176.091,178.527,183.369,187.518,190.911,193.818,198.363,201.756,209.703,213.816,219.045,222.915,227.064,229.314,231.749,234.287,238.076,240.326,242.761,246.874,249.565,252.256,255.649,258.187,262.921,268.051,270.742,274.891,279.679,281.929,284.365,287.056,291.601" svgx:width="0.43,0.46,0.54,0.46,0.53,0.28,0.27,0.28,0.3,0.44,0.25,0.55,0.46,0.58,0.53,0.25,0.55,0.46,0.44,0.43,0.46,0.27,0.27,0.46,0.58,0.3,0.25,0.55,0.43,0.44,0.43,0.27,0.28,0.58,0.51,0.25,0.55,0.54,0.46,0.38,0.32,0.5,0.38,0.88,0.46,0.58,0.43,0.46,0.25,0.55,0.28,0.42,0.25,0.55,0.46,0.3,0.3,0.38,0.28,0.53,0.57,0.3,0.46,0.53,0.25,0.55,0.3,0.5,0.25" style="fill:rgb(35,31,32);font-family:ScalaLF-Regular;font-size:9.0px;stroke:none;">capability and excellent cycling performance is attributed to </text>
   <text y="627.887" x="50.39,53.081,58.193,62.342,64.592,66.111,70.224,74.013,78.855,83.004,86.874,89.565,93.354,95.604,97.123,101.857,106.006,108.409,112.954,118.588,120.838,123.088,124.608,129.477,132.015,135.408,139.197,141.888,144.138,146.388,147.907,150.598,155.71,159.859,162.109,163.628,167.741,175.688,180.233,183.626,188.468,193.58,198.125,203.255,207.044,209.294,210.813,216.042,220.155,222.846,227.976,231.369,235.518,237.768,239.287,243.832,246.739,248.989,250.509,254.622,257.097,263.1,269.049,275.736,278.211,284.916,291.603" svgx:width="0.3,0.57,0.46,0.25,0.55,0.46,0.42,0.54,0.46,0.43,0.3,0.42,0.25,0.55,0.53,0.46,0.27,0.5,0.71,0.25,0.25,0.55,0.57,0.28,0.38,0.42,0.3,0.25,0.25,0.55,0.3,0.57,0.46,0.25,0.55,0.46,0.88,0.5,0.38,0.54,0.57,0.5,0.57,0.42,0.25,0.55,0.58,0.46,0.3,0.57,0.38,0.46,0.25,0.55,0.5,0.32,0.25,0.55,0.46,0.28,0.67,0.66,0.74,0.28,0.75,0.74,0.25" style="fill:rgb(35,31,32);font-family:ScalaLF-Regular;font-size:9.0px;stroke:none;">the aspects below. First, the amorphous nature of a-CVO-GO </text>
   <text y="638.885" x="50.39,55.232,58.625,63.17,67.148,69.686,74.474,78.623,82.412,84.662,85.725,93.672,98.217,101.61,105.759,108.009,109.072,113.185,117.055,119.746,122.284,126.262,130.411,132.661,133.724,137.513,140.051,142.742,146.891,150.68,152.93,153.993,156.9,161.445,164.838,167.088,168.15,170.553,173.091,175.782,180.894,183.432,188.562,196.509,198.759,199.822,203.611,206.302,210.847,214.24,218.353,222.916,227.065,229.315,231.565,232.628,235.031,239.18,243.293,248.081,250.619,255.848,260.411,262.661,263.724,266.415,270.96,273.21,274.273,279.385,281.923,286.486,291.598" svgx:width="0.54,0.38,0.5,0.44,0.28,0.53,0.46,0.42,0.25,0.55,0.88,0.5,0.38,0.46,0.25,0.55,0.46,0.43,0.3,0.28,0.44,0.46,0.25,0.55,0.42,0.28,0.3,0.46,0.42,0.25,0.55,0.32,0.5,0.38,0.25,0.55,0.27,0.28,0.3,0.57,0.28,0.57,0.88,0.25,0.55,0.42,0.3,0.5,0.38,0.46,0.51,0.46,0.25,0.25,0.55,0.27,0.46,0.46,0.53,0.28,0.58,0.51,0.25,0.55,0.3,0.5,0.25,0.55,0.57,0.28,0.51,0.57,0.25" style="fill:rgb(35,31,32);font-family:ScalaLF-Regular;font-size:9.0px;stroke:none;">provides more active sites for lithium storage, leading to high </text>
   <text y="649.883" x="50.39,54.26,58.373,63.215,67.328,71.198,73.736,76.427,78.965,82.943,87.092,89.342,91.546,95.416,100.528,104.641,108.034,112.597,116.746,118.996,121.2,124.989,127.68,132.225,135.618,139.731,144.294,148.443,150.693" svgx:width="0.43,0.46,0.54,0.46,0.43,0.28,0.3,0.28,0.44,0.46,0.25,0.55,0.43,0.57,0.46,0.38,0.51,0.46,0.25,0.55,0.42,0.3,0.5,0.38,0.46,0.51,0.46,0.25,0.25" style="fill:rgb(35,31,32);font-family:ScalaLF-Regular;font-size:9.0px;stroke:none;">capacitive charge storage. </text>
   <text y="646.747" x="150.686,152.261,152.261,155.411,158.561,158.561" svgx:width="0.25,0.25,0.5,0.5,0.25,0.25" style="fill:rgb(35,31,32);font-family:ScalaLF-Regular;font-size:6.3px;stroke:none;">[ 33 ]</text>
   <text y="649.897" x="160.136,160.134,164.587,169.987,175.099,179.248,183.702,188.49,193.035,200.982,203.52,208.749,212.862,218.091,220.782,225.235,229.105,233.218,238.06,242.173,246.043,248.581,251.272,253.81,257.788,261.937,266.39,270.26,275.372,279.485,282.878,287.441,291.59" svgx:width="0.25,0.25,0.6,0.57,0.46,0.25,0.53,0.5,0.88,0.28,0.58,0.46,0.58,0.3,0.25,0.43,0.46,0.54,0.46,0.43,0.28,0.3,0.28,0.44,0.46,0.25,0.43,0.57,0.46,0.38,0.51,0.46,0.25" style="fill:rgb(35,31,32);font-family:ScalaLF-Regular;font-size:9.0px;stroke:none;"> The dominant capacitive charge </text>
   <text y="660.895" x="50.381,54.17,56.861,61.406,64.799,68.912,73.475,77.624,80.531,83.069,88.298,91.205,93.896,99.026,102.419,107.648,110.555,114.704,119.933,124.721,129.266,135.62,139.409,142.316,145.223,149.336,153.125,155.816,158.723,162.593,167.705,171.818,175.211,179.774,182.312,187.541,192.104,195.011,199.124,204.353,209.141,212.048,216.836,219.374,223.163,227.033,232.145,236.258,239.651,244.214,246.752,251.981,256.544,258.794,261.701,266.759,270.908,274.778,279.323,284.552,289.34,291.59" svgx:width="0.42,0.3,0.5,0.38,0.46,0.51,0.46,0.25,0.28,0.58,0.25,0.3,0.57,0.38,0.58,0.25,0.46,0.58,0.53,0.5,0.71,0.42,0.25,0.32,0.46,0.42,0.3,0.25,0.43,0.57,0.46,0.38,0.51,0.28,0.58,0.51,0.25,0.46,0.58,0.53,0.25,0.53,0.28,0.42,0.43,0.57,0.46,0.38,0.51,0.28,0.58,0.51,0.25,0.25,0.56,0.46,0.43,0.5,0.58,0.53,0.25,0.25" style="fill:rgb(35,31,32);font-family:ScalaLF-Regular;font-size:9.0px;stroke:none;">storage in turn endows fast charging and discharging. Second, </text>
   <text y="671.893" x="50.381,53.072,58.184,62.333,64.699,69.541,74.086,77.479,82.024,87.154,90.943,93.309,98.538,102.651,107.88,112.425,116.214,121.326,125.475,129.624,132.315,134.681,139.415,144.545,147.083,149.486,154.274,156.812,162.041,166.604,168.97,173.704,176.107,180.652,184.522,189.094,192.883,195.249,199.794,202.701,205.068,209.181,211.656,217.659,223.608,230.295,232.77,239.475,246.162,248.528,253.37,256.763,261.308,265.286,267.824,272.612,276.761,279.127,284.356,288.901,291.592" svgx:width="0.3,0.57,0.46,0.25,0.54,0.5,0.38,0.5,0.57,0.42,0.25,0.58,0.46,0.58,0.5,0.42,0.57,0.46,0.46,0.3,0.25,0.53,0.57,0.28,0.27,0.53,0.28,0.58,0.51,0.25,0.53,0.27,0.5,0.43,0.51,0.42,0.25,0.5,0.32,0.25,0.46,0.28,0.67,0.66,0.74,0.28,0.75,0.74,0.25,0.54,0.38,0.5,0.44,0.28,0.53,0.46,0.25,0.58,0.5,0.3,0.25" style="fill:rgb(35,31,32);font-family:ScalaLF-Regular;font-size:9.0px;stroke:none;">the porous nanosheet building blocks of a-CVO-GO provide not </text>
   <text y="682.891" x="50.381,54.925,60.153,62.555,66.541,68.791,70.291,74.079,79.19,83.734,87.126,89.816,92.066,93.566,95.968,98.505,101.195,106.306,108.843,113.972,121.918,124.168,125.668,128.205,132.749,137.977,140.227,141.727,146.514,149.051,151.957,154.863,159.992,163.78,166.317,170.861,176.089,178.339,179.839,184.68,188.792,191.482,196.593,202.946,207.058,211.044,214.833,217.083,218.582,223.315,228.444,231.134,233.384,234.884,238.996,241.398,245.186,249.73,251.98,253.48,258.591,261.128,265.69,270.801,273.051,274.55,278.698,281.101,285.249,289.118" svgx:width="0.5,0.58,0.27,0.44,0.25,0.55,0.42,0.57,0.5,0.38,0.3,0.25,0.55,0.27,0.28,0.3,0.57,0.28,0.57,0.88,0.25,0.55,0.28,0.5,0.58,0.25,0.55,0.53,0.28,0.32,0.32,0.57,0.42,0.28,0.5,0.58,0.25,0.55,0.54,0.46,0.3,0.57,0.71,0.46,0.44,0.42,0.25,0.55,0.53,0.57,0.3,0.25,0.55,0.46,0.27,0.42,0.5,0.25,0.55,0.57,0.28,0.51,0.57,0.25,0.55,0.46,0.27,0.46,0.43,0.28" style="fill:rgb(35,31,32);font-family:ScalaLF-Regular;font-size:9.0px;stroke:none;">only short lithium ion diffusion pathways but also high elec-</text>
   <text y="693.889" x="50.381,53.072,56.465,61.01,65.798,69.947,72.422,76.571,78.974,83.123,86.993,89.684,93.077,97.622,100.025,104.012,106.703,110.852,113.221,117.091,121.636,126.865,129.556,133.669,137.539,140.23,142.599,146.712,150.105,154.254,158.367,160.617,162.985,168.385,173.497,176.035,179.428,184.216,186.466,188.835,191.526,196.638,200.787,203.156,205.694,210.923,213.292,217.081,219.619,222.31,227.44,229.809,233.958,237.891,240.582,243.975,248.088,251.958,254.649,258.798,263.586,265.954,269.824,274.369,279.211,284.053,288.202,291.595" svgx:width="0.3,0.38,0.5,0.53,0.46,0.28,0.46,0.27,0.46,0.43,0.3,0.38,0.5,0.27,0.44,0.3,0.46,0.25,0.43,0.5,0.58,0.3,0.46,0.43,0.3,0.25,0.46,0.38,0.46,0.46,0.25,0.25,0.6,0.57,0.28,0.38,0.53,0.25,0.25,0.3,0.57,0.46,0.25,0.28,0.58,0.25,0.42,0.28,0.3,0.57,0.25,0.46,0.44,0.3,0.38,0.46,0.43,0.3,0.46,0.53,0.25,0.43,0.5,0.54,0.54,0.46,0.38,0.25" style="fill:rgb(35,31,32);font-family:ScalaLF-Regular;font-size:9.0px;stroke:none;">trode-electrolyte contact area. Third, the in situ extracted copper </text>
   <text y="704.887" x="50.381,55.169,60.299,63.692,66.23,71.459,76.022,78.728,81.419,86.531,90.68,93.387,95.925,101.154,103.692,106.383,108.921,113.034,115.437,118.143,122.931,125.469,129.258,133.128,138.24,142.353,145.746,150.309,154.458,157.164,162.006,165.399,169.944,173.814,177.963,181.752,185.541,188.248,190.786,194.575,197.281,201.394,206.128,208.531,212.68,215.386,218.077,222.622,225.328,229.477,234.706,239.818,243.931,249.16,253.03,257.179,259.886,262.577,267.689,271.838,274.544,278.693,281.096,285.245,289.115" svgx:width="0.53,0.57,0.38,0.28,0.58,0.51,0.25,0.3,0.57,0.46,0.25,0.28,0.58,0.28,0.3,0.28,0.46,0.27,0.25,0.53,0.28,0.42,0.43,0.57,0.46,0.38,0.51,0.46,0.25,0.54,0.38,0.5,0.43,0.46,0.42,0.42,0.25,0.28,0.42,0.25,0.46,0.53,0.27,0.46,0.25,0.3,0.5,0.25,0.46,0.58,0.57,0.46,0.58,0.43,0.46,0.25,0.3,0.57,0.46,0.25,0.46,0.27,0.46,0.43,0.28" style="fill:rgb(35,31,32);font-family:ScalaLF-Regular;font-size:9.0px;stroke:none;">during the initial discharge process is able to enhance the elec-</text>
   <text y="715.885" x="50.381,53.072,56.465,59.003,62.873,66.986,69.389,71.865,75.735,80.28,85.509,90.297,95.427,99.297,101.988,104.526,108.504,111.042,113.733,117.0,119.25" svgx:width="0.3,0.38,0.28,0.43,0.46,0.27,0.25,0.43,0.5,0.58,0.53,0.57,0.43,0.3,0.28,0.44,0.28,0.3,0.44,0.25,0.25" style="fill:rgb(35,31,32);font-family:ScalaLF-Regular;font-size:9.0px;stroke:none;">trical conductivity. </text>
   <text y="484.882" x="315.791,315.788,321.188,326.3,330.449,332.598,336.711,344.658,349.203,352.596,357.438,362.55,367.095,372.225,376.014,378.162,382.032,386.577,391.419,396.261,400.41,403.803,405.951,409.929,414.042,419.271,423.384,428.172,430.71,435.84,443.787,445.935,450.48,454.414,456.952,461.74,465.888,468.363,472.926,476.319,480.432,485.275,490.387,494.535,499.764,503.913,506.062,510.607,514.54,517.078,521.866,526.015,528.163,532.033,536.578,544.525" svgx:width="0.25,0.6,0.57,0.46,0.25,0.46,0.88,0.5,0.38,0.54,0.57,0.5,0.57,0.42,0.25,0.43,0.5,0.54,0.54,0.46,0.38,0.25,0.44,0.46,0.58,0.46,0.53,0.28,0.57,0.88,0.25,0.5,0.44,0.28,0.53,0.46,0.28,0.51,0.38,0.46,0.54,0.57,0.46,0.58,0.46,0.25,0.5,0.44,0.28,0.53,0.46,0.25,0.43,0.5,0.88,0.28" style="fill:rgb(35,31,32);font-family:ScalaLF-Regular;font-size:9.0px;stroke:none;"> The amorphous copper vanadium oxide-graphene oxide com-</text>
   <text y="495.88" x="305.792,310.634,315.179,318.968,321.506,324.197,328.346,330.596,331.369,333.907,337.696,339.946,340.719,344.508,348.495,353.724,356.415,361.527,365.676,369.465,372.003,376.224,380.373,385.161,387.411,388.184,390.875,395.987,399.38,403.925,409.055,413.618,418.73,420.98,421.753,424.66,428.773,432.643,435.181,437.584,441.733,443.983,444.757,448.546,453.091,455.494,460.624,463.315,465.853,470.398,475.627,477.877,478.65,482.439,486.426,491.655,494.346,499.458,503.607,507.396,509.934,513.723,515.973,516.746,520.859,523.55,525.8,526.573,529.966,534.511,539.056,547.003" svgx:width="0.54,0.5,0.42,0.28,0.3,0.46,0.25,0.55,0.28,0.42,0.25,0.55,0.42,0.44,0.58,0.3,0.57,0.46,0.42,0.28,0.47,0.46,0.53,0.25,0.55,0.3,0.57,0.38,0.5,0.57,0.51,0.57,0.25,0.55,0.32,0.46,0.43,0.28,0.27,0.46,0.25,0.55,0.42,0.5,0.27,0.57,0.3,0.28,0.5,0.58,0.25,0.55,0.42,0.44,0.58,0.3,0.57,0.46,0.42,0.28,0.42,0.25,0.55,0.46,0.3,0.25,0.55,0.38,0.5,0.5,0.88,0.25" style="fill:rgb(35,31,32);font-family:ScalaLF-Regular;font-size:9.0px;stroke:none;">posite is synthesized through facile solution synthesis at room </text>
   <text y="506.878" x="305.792,308.483,312.632,320.579,325.421,329.57,332.963,337.076,339.767,344.897,348.29,352.439,354.689,356.568,360.546,363.084,367.197,369.447,371.326,374.017,378.166,386.113,390.955,393.358,397.471,400.162,404.311,406.786,410.935,416.164,420.727,424.84,429.403,433.552,438.34,440.59,442.47,445.863,450.012,454.8,459.345,463.278,465.528,467.407,470.8,474.949,479.062,482.932,485.623,488.161,492.706,497.935,500.185,502.064,504.971,509.516,511.919,514.322,518.867,525.221,529.37,534.158,536.408,538.287,543.021,547.008" svgx:width="0.3,0.46,0.88,0.54,0.46,0.38,0.46,0.3,0.57,0.38,0.46,0.25,0.55,0.44,0.28,0.46,0.25,0.55,0.3,0.46,0.88,0.54,0.27,0.46,0.3,0.46,0.28,0.46,0.58,0.51,0.46,0.51,0.46,0.53,0.25,0.55,0.38,0.46,0.53,0.5,0.44,0.25,0.55,0.38,0.46,0.46,0.43,0.3,0.28,0.5,0.58,0.25,0.55,0.32,0.5,0.27,0.27,0.5,0.71,0.46,0.53,0.25,0.55,0.53,0.44,0.25" style="fill:rgb(35,31,32);font-family:ScalaLF-Regular;font-size:9.0px;stroke:none;">temperature via template-engaged redox reaction followed by </text>
   <text y="517.876" x="305.792,310.904,315.053,319.166,321.857,324.107,325.225,327.916,331.309,335.458,339.571,342.262,350.209,354.358,359.587,362.278,364.528,365.646,368.184,373.413,375.663,376.78,380.758,384.871,388.741,393.871,399.001,406.948,409.198,411.448,412.566,417.966,423.078,427.227,429.477,430.595,434.708,437.183,443.186,449.135,455.822,458.297,465.002,471.689,473.939,475.057,477.595,481.384,483.634,484.752,488.865,493.599,496.002,500.151,502.401,503.518,506.209,510.754,513.004,514.122,518.91,523.059,525.462,528.0,531.978,536.127,539.52,541.77,542.888,547.001" svgx:width="0.57,0.46,0.46,0.3,0.25,0.55,0.3,0.38,0.46,0.46,0.3,0.88,0.46,0.58,0.3,0.25,0.55,0.28,0.58,0.25,0.55,0.44,0.46,0.43,0.57,0.57,0.88,0.25,0.25,0.55,0.6,0.57,0.46,0.25,0.55,0.46,0.28,0.67,0.66,0.74,0.28,0.75,0.74,0.25,0.55,0.28,0.42,0.25,0.55,0.46,0.53,0.27,0.46,0.25,0.55,0.3,0.5,0.25,0.55,0.53,0.46,0.27,0.28,0.44,0.46,0.38,0.25,0.55,0.46,0.25" style="fill:rgb(35,31,32);font-family:ScalaLF-Regular;font-size:9.0px;stroke:none;">heat treatment in vacuum. The a-CVO-GO is able to deliver a </text>
   <text y="528.874" x="305.792,309.662,313.775,318.617,322.73,326.6,329.138,331.829,335.816,338.066,339.13,343.675,346.582,348.832,349.896,354.396,358.896,363.396,367.896,370.146,371.21,379.156,385.204,387.454,388.518,393.63,395.88,396.944,401.507" svgx:width="0.43,0.46,0.54,0.46,0.43,0.28,0.3,0.44,0.25,0.55,0.5,0.32,0.25,0.55,0.5,0.5,0.5,0.5,0.25,0.55,0.88,0.67,0.25,0.55,0.57,0.25,0.55,0.51,0.25" style="fill:rgb(35,31,32);font-family:ScalaLF-Regular;font-size:9.0px;stroke:none;">capacity of 1145 mA h g </text>
   <text y="525.747" x="401.505" svgx:width="0.55" style="fill:rgb(35,31,32);font-family:Symbol;font-size:6.3px;stroke:none;">−</text>
   <text y="525.747" x="404.964" svgx:width="0.5" style="fill:rgb(35,31,32);font-family:ScalaLF-Regular;font-size:6.3px;stroke:none;">1</text>
   <text y="528.897" x="408.113,408.115,410.365,411.429,415.54,418.445,421.134,425.281,428.673,430.923,431.986,436.485,440.983,445.481,447.731,448.795,452.663,456.648,460.516,462.918,467.065,470.852,473.102,474.166,478.277,480.966,483.216,484.28,488.778,493.276,497.775,500.025,501.089,509.034,515.08,517.33,518.394,522.955" svgx:width="0.25,0.25,0.55,0.46,0.32,0.3,0.46,0.38,0.25,0.55,0.5,0.5,0.5,0.25,0.55,0.43,0.44,0.43,0.27,0.46,0.42,0.25,0.55,0.46,0.3,0.25,0.55,0.5,0.5,0.5,0.25,0.55,0.88,0.67,0.25,0.55,0.51,0.25" style="fill:rgb(35,31,32);font-family:ScalaLF-Regular;font-size:9.0px;stroke:none;"> after 100 cycles at 100 mA g </text>
   <text y="525.747" x="522.946" svgx:width="0.55" style="fill:rgb(35,31,32);font-family:Symbol;font-size:6.3px;stroke:none;">−</text>
   <text y="525.747" x="526.405" svgx:width="0.5" style="fill:rgb(35,31,32);font-family:ScalaLF-Regular;font-size:6.3px;stroke:none;">1</text>
   <text y="528.897" x="529.555,529.555,531.805,532.867,536.98,542.209,546.997" svgx:width="0.25,0.25,0.55,0.46,0.58,0.53,0.25" style="fill:rgb(35,31,32);font-family:ScalaLF-Regular;font-size:9.0px;stroke:none;"> and </text>
   <text y="539.895" x="305.797,310.297,314.797,319.297,321.547,326.047,328.875,336.822,342.87,345.698,350.81,353.637,358.2" svgx:width="0.5,0.5,0.5,0.25,0.5,0.25,0.88,0.67,0.25,0.57,0.25,0.51,0.25" style="fill:rgb(35,31,32);font-family:ScalaLF-Regular;font-size:9.0px;stroke:none;">672.5 mA h g </text>
   <text y="536.747" x="358.195" svgx:width="0.55" style="fill:rgb(35,31,32);font-family:Symbol;font-size:6.3px;stroke:none;">−</text>
   <text y="536.747" x="361.654" svgx:width="0.5" style="fill:rgb(35,31,32);font-family:ScalaLF-Regular;font-size:6.3px;stroke:none;">1</text>
   <text y="539.897" x="364.803,364.805,367.633,371.744,374.649,377.338,381.485,384.877,387.704,392.203,396.701,401.199,405.697,408.525,412.393,416.378,420.247,422.648,426.795,430.582,433.41,437.521,440.21,443.038,447.536,452.035,454.862,460.909,463.736,468.298" svgx:width="0.25,0.25,0.46,0.32,0.3,0.46,0.38,0.25,0.5,0.5,0.5,0.5,0.25,0.43,0.44,0.43,0.27,0.46,0.42,0.25,0.46,0.3,0.25,0.5,0.5,0.25,0.67,0.25,0.51,0.25" style="fill:rgb(35,31,32);font-family:ScalaLF-Regular;font-size:9.0px;stroke:none;"> after 7000 cycles at 20 A g </text>
   <text y="536.747" x="468.288" svgx:width="0.55" style="fill:rgb(35,31,32);font-family:Symbol;font-size:6.3px;stroke:none;">−</text>
   <text y="536.747" x="471.747" svgx:width="0.5" style="fill:rgb(35,31,32);font-family:ScalaLF-Regular;font-size:6.3px;stroke:none;">1</text>
   <text y="539.897" x="474.897,474.899,477.149,479.977,484.756,489.886,493.756,498.868,501.695,506.24,511.37,514.061,517.85,520.541,524.654,529.883,534.671,537.209,542.438,547.001" svgx:width="0.25,0.25,0.25,0.56,0.57,0.43,0.57,0.25,0.5,0.57,0.3,0.42,0.3,0.46,0.58,0.53,0.28,0.58,0.51,0.25" style="fill:rgb(35,31,32);font-family:ScalaLF-Regular;font-size:9.0px;stroke:none;"> . Such outstanding </text>
   <text y="550.895" x="305.796,309.945,312.348,316.497,320.367,323.058,326.451,330.996,334.866,339.978,344.127,352.074,354.612,358.482,362.595,364.998,367.248,368.462,373.304,377.453,380.846,383.753,388.298,391.691,399.638,403.751,408.98,412.85,416.999,419.249,420.463,423.001,426.79,429.04,430.254,434.124,438.669,443.898,446.589,449.982,452.52,457.254,462.384,465.075,469.224,474.012,476.262,477.476,480.167,484.712,486.962,488.177,490.868,495.98,500.129,502.379,503.593,507.706,515.653,520.198,523.591,528.433,533.545,538.09,543.22,547.009" svgx:width="0.46,0.27,0.46,0.43,0.3,0.38,0.5,0.43,0.57,0.46,0.88,0.28,0.43,0.46,0.27,0.25,0.55,0.54,0.46,0.38,0.32,0.5,0.38,0.88,0.46,0.58,0.43,0.46,0.25,0.55,0.28,0.42,0.25,0.55,0.43,0.5,0.58,0.3,0.38,0.28,0.53,0.57,0.3,0.46,0.53,0.25,0.55,0.3,0.5,0.25,0.55,0.3,0.57,0.46,0.25,0.55,0.46,0.88,0.5,0.38,0.54,0.57,0.5,0.57,0.42,0.25" style="fill:rgb(35,31,32);font-family:ScalaLF-Regular;font-size:9.0px;stroke:none;">electrochemical performance is contributed to the amorphous </text>
   <text y="561.893" x="305.796,311.025,315.138,317.829,322.959,326.352,330.501,332.751,333.997,338.542,341.449,343.699,344.944,349.057,351.532,357.535,363.484,370.171,372.646,379.351,386.038,388.288,389.534,393.647,398.876,403.664,405.914,407.16,409.698,414.927,417.177,418.422,422.211,424.749,427.44,432.57,434.82,436.066,440.629,444.778,450.007,454.156,457.549,461.662,464.353,468.502,473.29,475.54,476.785,480.655,485.2,490.042,494.884,499.033,502.426,504.676,505.922,510.71,515.84,519.233,521.771,527.0,531.563,533.813,535.059,537.75,542.862,547.01" svgx:width="0.58,0.46,0.3,0.57,0.38,0.46,0.25,0.55,0.5,0.32,0.25,0.55,0.46,0.28,0.67,0.66,0.74,0.28,0.75,0.74,0.25,0.55,0.46,0.58,0.53,0.25,0.55,0.28,0.58,0.25,0.55,0.42,0.28,0.3,0.57,0.25,0.55,0.51,0.46,0.58,0.46,0.38,0.46,0.3,0.46,0.53,0.25,0.55,0.43,0.5,0.54,0.54,0.46,0.38,0.25,0.55,0.53,0.57,0.38,0.28,0.58,0.51,0.25,0.55,0.3,0.57,0.46,0.25" style="fill:rgb(35,31,32);font-family:ScalaLF-Regular;font-size:9.0px;stroke:none;">nature of a-CVO-GO and in situ generated copper during the </text>
   <text y="572.891" x="305.796,308.334,313.563,316.101,318.792,321.33,325.443,327.846,330.096,330.806,335.594,338.132,341.921,345.791,350.903,355.016,358.409,362.972,367.121,369.371,371.621,372.331,377.731,382.843,386.992,389.242,389.952,392.859,397.404,400.797,408.744,412.893,416.286,418.536,419.246,423.395,428.624,432.737,437.471,439.874,444.023,447.812,450.062,450.773,453.464,458.576,462.725,464.975,465.685,468.592,472.705,476.494,479.185,481.435,482.145,486.015,490.128,494.97,499.083,502.953,505.491,508.182,510.72,514.698,518.847,521.097,521.807,525.677,530.789,534.902,538.295,542.858,547.007" svgx:width="0.28,0.58,0.28,0.3,0.28,0.46,0.27,0.25,0.55,0.53,0.28,0.42,0.43,0.57,0.46,0.38,0.51,0.46,0.25,0.25,0.55,0.6,0.57,0.46,0.25,0.55,0.32,0.5,0.38,0.88,0.46,0.38,0.25,0.55,0.46,0.58,0.46,0.53,0.27,0.46,0.42,0.25,0.55,0.3,0.57,0.46,0.25,0.55,0.32,0.46,0.42,0.3,0.25,0.55,0.43,0.46,0.54,0.46,0.43,0.28,0.3,0.28,0.44,0.46,0.25,0.55,0.43,0.57,0.46,0.38,0.51,0.46,0.25" style="fill:rgb(35,31,32);font-family:ScalaLF-Regular;font-size:9.0px;stroke:none;">initial discharge. The former enables the fast capacitive charge </text>
   <text y="583.889" x="305.796,309.585,312.276,316.821,320.214,324.327,328.89,333.039,335.846,342.2,347.312,349.85,352.253,356.402,359.209,361.9,367.012,371.161,373.968,376.371,380.484,383.175,385.866,390.015,393.408,396.215,400.364,405.593,410.705,414.818,420.047,423.917,428.066,431.855,434.662,437.353,442.465,446.614,449.422,453.292,457.837,463.066,467.854,472.984,476.854,479.545,482.083,486.061,488.599,491.29,494.557,496.807,499.614,506.301,511.431,514.824,517.631,521.42,524.111,527.504,531.617,534.308,538.457,543.02,547.007" svgx:width="0.42,0.3,0.5,0.38,0.46,0.51,0.46,0.25,0.71,0.57,0.28,0.27,0.46,0.25,0.3,0.57,0.46,0.25,0.27,0.46,0.3,0.3,0.46,0.38,0.25,0.46,0.58,0.57,0.46,0.58,0.43,0.46,0.42,0.25,0.3,0.57,0.46,0.25,0.43,0.5,0.58,0.53,0.57,0.43,0.3,0.28,0.44,0.28,0.3,0.44,0.25,0.25,0.74,0.57,0.38,0.25,0.42,0.3,0.38,0.46,0.3,0.46,0.51,0.44,0.25" style="fill:rgb(35,31,32);font-family:ScalaLF-Regular;font-size:9.0px;stroke:none;">storage while the latter enhances the conductivity. Our strategy </text>
   <text y="594.887" x="305.796,310.341,313.248,315.498,319.015,323.803,327.952,331.741,334.279,338.842,344.071,346.609,351.838,356.401,358.651,362.168,366.281,374.228,378.773,382.166,387.008,392.12,396.665,401.795,405.584,407.834,411.352,414.043,418.192,421.585,426.814,430.927,434.32,438.307,440.557,444.074,452.021,456.17,458.861,462.974,465.377,467.627,471.144,475.689,479.622,482.16,486.948,491.097,493.347,496.864,503.218,505.756,508.447,513.559,515.809,519.327,521.865,527.094,529.344,532.861,536.65,539.188,541.879,547.009" svgx:width="0.5,0.32,0.25,0.55,0.53,0.46,0.42,0.28,0.51,0.58,0.28,0.58,0.51,0.25,0.55,0.46,0.88,0.5,0.38,0.54,0.57,0.5,0.57,0.42,0.25,0.55,0.3,0.46,0.38,0.58,0.46,0.38,0.44,0.25,0.55,0.88,0.46,0.3,0.46,0.27,0.25,0.55,0.5,0.44,0.28,0.53,0.46,0.25,0.55,0.71,0.28,0.3,0.57,0.25,0.55,0.28,0.58,0.25,0.55,0.42,0.28,0.3,0.57,0.25" style="fill:rgb(35,31,32);font-family:ScalaLF-Regular;font-size:9.0px;stroke:none;">of designing amorphous ternary metal oxide with in situ </text>
   <text y="605.885" x="305.796,308.703,313.248,316.641,324.588,328.737,333.525,335.775,337.419,345.366,349.515,352.206,356.319,358.722,361.125,363.663,367.533,369.783,371.428,375.298,379.843,385.072,389.86,394.99,398.86,401.551,404.089,409.318,413.881,416.131,417.775,423.004,427.153,429.844,436.198,440.743,444.136,448.708,450.958,452.602,455.14,458.929,461.179,462.823,467.611,471.76,479.707,484.252,489.481,493.27,495.961,499.354,503.467,506.158,510.307,515.095,517.345,518.99,521.681,526.226,528.476,530.12,534.854,539.003,541.253,542.897,547.01" svgx:width="0.32,0.5,0.38,0.88,0.46,0.53,0.25,0.55,0.88,0.46,0.3,0.46,0.27,0.27,0.28,0.43,0.25,0.55,0.43,0.5,0.58,0.53,0.57,0.43,0.3,0.28,0.58,0.51,0.25,0.55,0.58,0.46,0.3,0.71,0.5,0.38,0.51,0.25,0.55,0.28,0.42,0.25,0.55,0.53,0.46,0.88,0.5,0.58,0.42,0.3,0.38,0.46,0.3,0.46,0.53,0.25,0.55,0.3,0.5,0.25,0.55,0.53,0.46,0.25,0.55,0.46,0.25" style="fill:rgb(35,31,32);font-family:ScalaLF-Regular;font-size:9.0px;stroke:none;">formed metallic conducting network is demonstrated to be a </text>
   <text y="616.883" x="305.796,310.638,314.031,318.576,326.523,329.061,332.85,335.388,340.617,345.18,347.66,355.607,359.756,362.447,367.559,372.104,376.892,379.373,382.28,386.825,390.218,392.698,397.486,401.635,405.613,409.762,412.165,416.71,421.552,424.09,429.319,433.882,436.363,441.592,446.137,450.115,454.264,456.667,459.147,464.259,466.797,471.36,476.472,478.947,483.789,487.938,491.331,494.238,498.783,502.176,510.123,514.236,519.465,523.335,527.484,529.964,534.113,536.516,540.665,544.535" svgx:width="0.54,0.38,0.5,0.88,0.28,0.42,0.28,0.58,0.51,0.25,0.88,0.46,0.3,0.57,0.5,0.53,0.25,0.32,0.5,0.38,0.25,0.53,0.46,0.44,0.46,0.27,0.5,0.54,0.28,0.58,0.51,0.25,0.58,0.5,0.44,0.46,0.27,0.25,0.57,0.28,0.51,0.57,0.28,0.54,0.46,0.38,0.32,0.5,0.38,0.88,0.46,0.58,0.43,0.46,0.25,0.46,0.27,0.46,0.43,0.28" style="fill:rgb(35,31,32);font-family:ScalaLF-Regular;font-size:9.0px;stroke:none;">promising method for developing novel high-performance elec-</text>
   <text y="627.881" x="305.796,308.487,311.88,316.425,321.213,325.362,327.837,335.784,339.897,342.588,346.737,350.13,352.668,356.781,359.184,362.973,365.448,368.355,372.9,376.293,378.768,382.917,388.146,392.295,395.688,400.251,404.238,406.713,410.502,413.193,417.738,421.131,425.244,429.807,433.956,436.206,436.206" svgx:width="0.3,0.38,0.5,0.53,0.46,0.25,0.88,0.46,0.3,0.46,0.38,0.28,0.46,0.27,0.42,0.25,0.32,0.5,0.38,0.25,0.46,0.58,0.46,0.38,0.51,0.44,0.25,0.42,0.3,0.5,0.38,0.46,0.51,0.46,0.25,0.25,0.25" style="fill:rgb(35,31,32);font-family:ScalaLF-Regular;font-size:9.0px;stroke:none;">trode materials for energy storage. </text>
   <text y="661.897" x="305.792,305.792,305.792,311.99,317.234,323.421,328.803,332.679,335.519,345.087,350.469,356.737,360.29,365.764,368.513,371.675,377.816,383.198,388.304,391.858,394.698,400.632,406.9" svgx:width="0.25,0.25,0.54,0.46,0.54,0.47,0.34,0.25,0.83,0.47,0.55,0.31,0.48,0.24,0.25,0.53,0.47,0.44,0.31,0.25,0.52,0.55,0.25" style="fill:rgb(35,31,32);font-family:ScalaSansLF-Bold;font-size:11.5px;stroke:none;"> Experimental Section </text>
   <text y="677.397" x="315.792,315.792" svgx:width="0.25,0.25" style="fill:rgb(35,31,32);font-family:ScalaSansLF-Regular;font-size:8.0px;stroke:none;"> </text>
   <text y="677.397" x="315.792,322.936,327.008,329.664,333.176,335.784,337.76,341.832,343.8,346.616,348.616,351.566,355.958,359.318,363.55,366.206,370.438,373.95,376.766,378.742,381.558,383.686,385.686,388.637,393.205,395.813,399.325,403.381,407.453,410.061,414.133,416.789,418.765,422.709,426.941,428.941,431.891,435.835,438.003,440.003,442.954,445.61,449.842,453.354,455.354,458.304,463.264,467.496" svgx:width="0.88,0.49,0.32,0.42,0.31,0.23,0.49,0.23,0.34,0.25,0.55,0.53,0.41,0.51,0.32,0.51,0.42,0.34,0.23,0.34,0.25,0.25,0.55,0.56,0.31,0.42,0.49,0.49,0.31,0.49,0.32,0.23,0.48,0.51,0.25,0.55,0.48,0.26,0.25,0.55,0.32,0.51,0.42,0.25,0.55,0.61,0.51,0.25" style="fill:rgb(35,31,32);font-family:ScalaSansLF-Italic;font-size:8.0px;stroke:none;">Materials Synthesis: Preparation of the Cu </text>
   <text y="678.997" x="467.493" svgx:width="0.5" style="fill:rgb(35,31,32);font-family:ScalaSansLF-Italic;font-size:5.6px;stroke:none;">2</text>
   <text y="677.397" x="470.377,470.377,476.601,478.601,481.553,485.945,490.001,494.233,497.745,500.353" svgx:width="0.25,0.76,0.25,0.55,0.53,0.49,0.51,0.42,0.31,0.42" style="fill:rgb(35,31,32);font-family:ScalaSansLF-Italic;font-size:8.0px;stroke:none;"> O Sphere</text>
   <text y="677.397" x="503.865,503.863,505.991,510.942,515.374,519.782,523.654,528.604,533.564,538.012" svgx:width="0.25,0.25,0.25,0.54,0.54,0.47,0.25,0.61,0.54,0.25" style="fill:rgb(35,31,32);font-family:ScalaSansLF-Regular;font-size:8.0px;stroke:none;"> : The Cu </text>
   <text y="678.997" x="538.01" svgx:width="0.5" style="fill:rgb(35,31,32);font-family:ScalaSansLF-Regular;font-size:5.6px;stroke:none;">2</text>
   <text y="677.397" x="540.895,540.895,546.999" svgx:width="0.25,0.76,0.25" style="fill:rgb(35,31,32);font-family:ScalaSansLF-Regular;font-size:8.0px;stroke:none;"> O </text>
   <text y="686.893" x="305.791,309.487,313.951,318.359,322.231,325.047,328.919,330.927,336.391,340.319,344.015,346.023,350.487,353.303,357.175,361.639,365.567,368.383,372.255,376.687,378.695,381.287,385.695,388.511,392.895,397.343,401.519,405.927,407.935,411.863,413.871,416.687,420.559,425.023,429.407,432.223,434.815,438.687,443.119,445.127,452.023,455.895,458.487,462.895,467.279,471.711,473.839" svgx:width="0.45,0.54,0.54,0.47,0.34,0.47,0.25,0.67,0.48,0.45,0.25,0.54,0.34,0.47,0.54,0.48,0.34,0.47,0.54,0.25,0.31,0.54,0.34,0.53,0.54,0.51,0.54,0.25,0.48,0.25,0.34,0.47,0.54,0.53,0.34,0.31,0.47,0.54,0.25,0.85,0.47,0.31,0.54,0.53,0.54,0.25,0.25" style="fill:rgb(35,31,32);font-family:ScalaSansLF-Regular;font-size:8.0px;stroke:none;">sphere was prepared through a reported method. </text>
   <text y="684.097" x="473.837,475.321,475.321,478.205,481.083,481.083" svgx:width="0.25,0.25,0.5,0.5,0.25,0.25" style="fill:rgb(35,31,32);font-family:ScalaSansLF-Regular;font-size:5.6px;stroke:none;">[ 51 ]</text>
   <text y="686.897" x="482.567,482.567,484.575,488.687,490.815,494.935,496.943,501.119,503.127,507.511,509.887,511.895,516.463,521.247,525.815,528.839,533.527,535.855,539.975,544.095,546.999" svgx:width="0.25,0.25,0.5,0.25,0.5,0.25,0.51,0.25,0.53,0.28,0.25,0.56,0.58,0.56,0.36,0.57,0.28,0.5,0.5,0.36,0.25" style="fill:rgb(35,31,32);font-family:ScalaSansLF-Regular;font-size:8.0px;stroke:none;"> 1.0 g of PVP(K-30) </text>
   <text y="696.393" x="305.791,311.255,315.183,318.879,320.879,321.877,326.309,328.405,332.101,335.797,340.181,342.213,345.909,349.781,354.214,356.214,357.212,359.308,363.788,365.788,366.786,370.906,375.026,377.026,378.025,384.921,389.001,391.001,391.999,396.383,398.759,400.759,401.758,405.878,408.006,412.126,416.238,418.238,419.236" svgx:width="0.67,0.48,0.45,0.25,0.55,0.54,0.25,0.45,0.45,0.53,0.24,0.45,0.47,0.54,0.25,0.55,0.25,0.55,0.25,0.55,0.5,0.5,0.25,0.55,0.85,0.5,0.25,0.55,0.53,0.28,0.25,0.55,0.5,0.25,0.5,0.5,0.25,0.55,0.25" style="fill:rgb(35,31,32);font-family:ScalaSansLF-Regular;font-size:8.0px;stroke:none;">was dissolved in 50 mL of 0.01 </text>
   <text y="696.397" x="419.235" svgx:width="0.88" style="fill:rgb(35,31,32);font-family:ScalaSansLF-Regular;font-size:5.6px;stroke:none;">M</text>
   <text y="696.397" x="424.271,424.271,426.271,427.271,432.231,436.679,439.703,445.895,452.119" svgx:width="0.25,0.25,0.55,0.61,0.54,0.36,0.76,0.76,0.25" style="fill:rgb(35,31,32);font-family:ScalaSansLF-Regular;font-size:8.0px;stroke:none;"> Cu(NO </text>
   <text y="697.997" x="452.117" svgx:width="0.5" style="fill:rgb(35,31,32);font-family:ScalaSansLF-Regular;font-size:5.6px;stroke:none;">3</text>
   <text y="696.397" x="455.001,455.001,458.025" svgx:width="0.25,0.36,0.25" style="fill:rgb(35,31,32);font-family:ScalaSansLF-Regular;font-size:8.0px;stroke:none;"> ) </text>
   <text y="697.997" x="458.025" svgx:width="0.5" style="fill:rgb(35,31,32);font-family:ScalaSansLF-Regular;font-size:5.6px;stroke:none;">2</text>
   <text y="696.397" x="460.909,460.907,463.906,467.834,472.114,476.562,480.434,484.818,489.266,492.962,495.96,499.656,504.04,506.072,510.52,513.112,515.208,519.592,524.072,527.071,531.519,535.999,540.431,544.303,546.999" svgx:width="0.25,0.25,0.48,0.52,0.54,0.47,0.53,0.54,0.45,0.25,0.45,0.53,0.24,0.54,0.31,0.25,0.53,0.55,0.25,0.54,0.55,0.54,0.47,0.34,0.25" style="fill:rgb(35,31,32);font-family:ScalaSansLF-Regular;font-size:8.0px;stroke:none;"> aqueous solution under </text>
   <text y="705.893" x="305.789,308.605,312.533,316.997,319.093,323.525,325.525,326.875,333.771,337.699,341.875,346.355,350.227,352.819,354.915,358.587,360.587,361.938,365.634,368.226,370.322,373.138,375.954,378.05,382.53,386.706,388.834,390.834,392.184,398.376" svgx:width="0.34,0.48,0.54,0.25,0.54,0.25,0.55,0.85,0.48,0.51,0.55,0.47,0.31,0.25,0.44,0.25,0.55,0.45,0.31,0.25,0.34,0.34,0.25,0.55,0.51,0.25,0.25,0.55,0.76,0.25" style="fill:rgb(35,31,32);font-family:ScalaSansLF-Regular;font-size:8.0px;stroke:none;">rapid magnetic stirring. N </text>
   <text y="707.497" x="398.378" svgx:width="0.5" style="fill:rgb(35,31,32);font-family:ScalaSansLF-Regular;font-size:5.6px;stroke:none;">2</text>
   <text y="705.897" x="401.262,401.262,407.55" svgx:width="0.25,0.77,0.25" style="fill:rgb(35,31,32);font-family:ScalaSansLF-Regular;font-size:8.0px;stroke:none;"> H </text>
   <text y="707.497" x="407.55" svgx:width="0.5" style="fill:rgb(35,31,32);font-family:ScalaSansLF-Regular;font-size:5.6px;stroke:none;">4</text>
   <text y="705.897" x="410.434,410.432,413.783,417.479,421.863,423.895,428.343,430.935,433.031,437.415,441.895,445.245,448.269,452.381,456.501,459.852,464.3,468.38,471.404,474.754,480.218,484.146,487.842,491.192,493.784,498.192,502.064,506.544,509.895,511.991,516.471,519.063,521.879,526.263,530.695,535.143,538.815,542.687,546.999" svgx:width="0.25,0.25,0.45,0.53,0.24,0.54,0.31,0.25,0.53,0.55,0.25,0.36,0.5,0.5,0.25,0.54,0.5,0.36,0.25,0.67,0.48,0.45,0.25,0.31,0.54,0.47,0.55,0.25,0.25,0.55,0.31,0.34,0.53,0.54,0.54,0.44,0.47,0.54,0.25" style="fill:rgb(35,31,32);font-family:ScalaSansLF-Regular;font-size:8.0px;stroke:none;"> solution (17 µL) was then introduced </text>
   <text y="715.393" x="305.794,307.89,312.37,314.962,319.346,321.346,323.248,325.84,330.248,334.12,336.12,338.021,341.949,346.285,350.669,354.365,358.237,360.237,362.139,365.835,370.219,372.251,376.699,379.291,381.387,385.771,390.251,392.379,394.379,396.281,400.713,405.121,408.993,410.993,412.894,417.278,420.094,424.022,428.502,432.678,436.55,438.55,440.452,444.124,448.508,450.54,452.572,456.956,459.052,463.484,467.412,469.444,471.444,473.346,477.042,481.426,483.458,487.906,490.498,492.594,496.978,501.458,503.458,505.359,510.823,514.751,518.447,520.447,522.349,524.725,529.109,531.925,538.821,542.693,547.005" svgx:width="0.25,0.55,0.31,0.53,0.25,0.55,0.31,0.54,0.47,0.25,0.55,0.48,0.53,0.53,0.45,0.47,0.25,0.55,0.45,0.53,0.24,0.54,0.31,0.25,0.53,0.55,0.25,0.25,0.55,0.54,0.54,0.47,0.25,0.55,0.53,0.34,0.48,0.55,0.51,0.47,0.25,0.55,0.44,0.53,0.24,0.24,0.53,0.25,0.54,0.48,0.24,0.25,0.55,0.45,0.53,0.24,0.54,0.31,0.25,0.53,0.55,0.25,0.55,0.67,0.48,0.45,0.25,0.55,0.28,0.53,0.34,0.85,0.47,0.54,0.25" style="fill:rgb(35,31,32);font-family:ScalaSansLF-Regular;font-size:8.0px;stroke:none;">into the above solution. The orange colloidal solution was formed </text>
   <text y="58.553" x="51.01,56.538,62.066,66.954,68.882,75.826,79.554,81.946,85.61,88.226,90.122,93.85,95.682,99.178,103.762,105.658,109.322,114.85,118.346,120.274,123.746,127.794" svgx:width="0.7,0.7,0.7,0.25,0.88,0.48,0.31,0.47,0.34,0.25,0.48,0.24,0.45,0.58,0.25,0.47,0.7,0.45,0.25,0.44,0.52,0.83" style="fill:rgb(35,31,32);font-family:ScalaSansLF-Bold;font-size:8.0px;stroke:none;">www.MaterialsViews.com</text>
   <text y="50.473" x="458.242,463.77,469.298,474.186,476.114,479.842,484.01,487.642,491.37,495.65,499.122,502.786,506.954,510.45,513.922,515.818,519.482,523.762,527.234,530.898,532.826,536.298,540.346" svgx:width="0.7,0.7,0.7,0.25,0.48,0.53,0.46,0.48,0.55,0.44,0.47,0.53,0.45,0.44,0.25,0.47,0.55,0.44,0.47,0.25,0.44,0.52,0.83" style="fill:rgb(35,31,32);font-family:ScalaSansLF-Bold;font-size:8.0px;stroke:none;">www.advancedscience.com</text>
   <text y="748.168" x="51.024,55.189,58.633,61.034" svgx:width="0.6,0.49,0.41,0.25" style="fill:rgb(35,31,32);font-family:ScalaSansLF-Italic;font-size:7.0px;stroke:none;">Adv.</text>
   <text y="748.168" x="62.791" svgx:width="0.25" style="fill:rgb(35,31,32);font-family:ScalaSansLF-Regular;font-size:7.0px;stroke:none;"> </text>
   <text y="748.168" x="64.716,68.454,71.212,72.836" svgx:width="0.53,0.39,0.23,0.25" style="fill:rgb(35,31,32);font-family:ScalaSansLF-Italic;font-size:7.0px;stroke:none;">Sci.</text>
   <text y="748.168" x="74.593" svgx:width="0.25" style="fill:rgb(35,31,32);font-family:ScalaSansLF-Regular;font-size:7.0px;stroke:none;"> </text>
   <text y="748.168" x="76.518,80.018,83.518,87.018" svgx:width="0.5,0.5,0.5,0.5" style="fill:rgb(35,31,32);font-family:ScalaSansLF-Bold;font-size:7.0px;stroke:none;">2015</text>
   <text y="748.168" x="90.518,92.282" svgx:width="0.25,0.25" style="fill:rgb(35,31,32);font-family:ScalaSansLF-Regular;font-size:7.0px;stroke:none;">, </text>
   <text y="748.168" x="94.207" svgx:width="0.5" style="fill:rgb(35,31,32);font-family:ScalaSansLF-Italic;font-size:7.0px;stroke:none;">2</text>
   <text y="748.168" x="97.707,99.471,101.396,104.889,108.389,111.889,115.389,118.882,122.382" svgx:width="0.25,0.25,0.5,0.5,0.5,0.5,0.5,0.5,0.5" style="fill:rgb(35,31,32);font-family:ScalaSansLF-Regular;font-size:7.0px;stroke:none;">, 1500154</text>
  </g>
  <rect style="stroke:blue;stroke-width:0.3;" x="58.374" y="88.124" height="356.292" width="480.132" title="5"/>
  <text y="88.124" class="image" id="image.5.3" width="480" height="356" x="58.374">image.5.3.58_539.88_444</text>
  <g begin="text">
   <text y="442.114" x="50.386" svgx:width="0.25" style="fill:rgb(35,31,32);font-family:ScalaSansLF-Regular;font-size:8.0px;stroke:none;"> </text>
   <text y="442.114" x="50.386,54.562,56.538,60.594,64.954,67.65,71.394,73.012,77.012,79.02" svgx:width="0.52,0.25,0.51,0.55,0.34,0.47,0.25,0.5,0.25,0.25" style="fill:rgb(35,31,32);font-family:ScalaSansLF-Bold;font-size:8.0px;stroke:none;">Figure 4. </text>
   <text y="442.114" x="79.018,79.02,81.02,83.022,83.025,87.865,92.529,94.147,97.699,102.027,104.723,108.299,112.051,115.627,117.246,120.15,124.91,127.814,129.432,133.24,135.712,137.33,139.242,143.506,148.85,150.469,154.045,157.597,161.405,165.765,167.383,170.079,173.887,176.359,180.111,183.687,185.306,188.002,191.81,196.17,200.226,202.202,206.562,210.618,212.236,214.492,217.188,221.452,228.228,229.846,233.838,235.457,237.929,242.193,243.811,247.803,251.803,253.422,260.198,264.862,266.48,270.056" svgx:width="0.25,0.25,0.55,0.25,0.61,0.58,0.25,0.44,0.54,0.34,0.45,0.47,0.45,0.25,0.36,0.6,0.36,0.25,0.48,0.31,0.25,0.24,0.53,0.67,0.25,0.45,0.44,0.48,0.55,0.25,0.34,0.48,0.31,0.47,0.45,0.25,0.34,0.48,0.55,0.51,0.25,0.55,0.51,0.25,0.28,0.34,0.53,0.85,0.25,0.5,0.25,0.31,0.53,0.25,0.5,0.5,0.25,0.85,0.58,0.25,0.45,0.25" style="fill:rgb(35,31,32);font-family:ScalaSansLF-Regular;font-size:8.0px;stroke:none;"> CV curves (A) at low scan rates ranging from 1 to 10 mV s </text>
   <text y="439.314" x="270.049" svgx:width="0.55" style="fill:rgb(35,31,32);font-family:Symbol;font-size:5.6px;stroke:none;">−</text>
   <text y="439.314" x="273.123" svgx:width="0.5" style="fill:rgb(35,31,32);font-family:ScalaSansLF-Regular;font-size:5.6px;stroke:none;">1</text>
   <text y="442.114" x="275.918,275.92,277.928,279.547,284.275,287.179,288.797,293.469,297.277,301.637,305.949,307.861,311.613,315.189,319.189,323.461,327.213,330.789,334.341,336.317,339.949,341.568,345.912,347.824,352.088,354.56,356.178,360.442,364.658,367.13,370.938,372.914,377.274,381.026,385.338,386.956,389.212,391.908,396.172,402.948,404.567,407.039,411.327,415.079,416.697,420.273,424.537,426.449,428.921,432.729,439.505,446.281,450.033,452.505,455.201,457.177,460.729,462.348,466.66,470.468,472.94,476.748,478.756,480.374,485.214,489.878,491.497,495.049,499.377,502.073,505.649,509.401,512.977,514.595,519.435,522.339,523.957,527.765,530.237,531.856,536.144,538.12,542.176,546.464" svgx:width="0.25,0.25,0.25,0.59,0.36,0.25,0.58,0.48,0.55,0.54,0.24,0.47,0.45,0.5,0.53,0.47,0.45,0.44,0.25,0.45,0.25,0.54,0.24,0.53,0.31,0.25,0.53,0.53,0.31,0.48,0.25,0.55,0.47,0.54,0.25,0.28,0.34,0.53,0.85,0.25,0.31,0.54,0.47,0.25,0.45,0.53,0.24,0.31,0.48,0.85,0.85,0.47,0.31,0.34,0.25,0.44,0.25,0.54,0.48,0.31,0.48,0.25,0.25,0.61,0.58,0.25,0.44,0.54,0.34,0.45,0.47,0.45,0.25,0.61,0.36,0.25,0.48,0.31,0.25,0.54,0.25,0.51,0.54,0.25" style="fill:rgb(35,31,32);font-family:ScalaSansLF-Regular;font-size:8.0px;stroke:none;"> . B) Randles–Sevcik plot obtained from the voltammetric data. CV curves C) at high </text>
   <text y="451.61" x="50.382,53.958,57.51,61.318,65.678,67.877,70.573,74.381,76.853,80.605,84.181,86.38,89.076,92.884,97.244,101.3,103.276,107.636,111.692,113.892,116.148,118.844,123.108,129.884,132.083,136.083,140.083,142.282,144.754,149.018,151.217,155.209,159.209,163.209,167.209,169.408,176.184,180.848,183.048,186.624" svgx:width="0.45,0.44,0.48,0.55,0.25,0.34,0.48,0.31,0.47,0.45,0.25,0.34,0.48,0.55,0.51,0.25,0.55,0.51,0.25,0.28,0.34,0.53,0.85,0.25,0.5,0.5,0.25,0.31,0.53,0.25,0.5,0.5,0.5,0.5,0.25,0.85,0.58,0.25,0.45,0.25" style="fill:rgb(35,31,32);font-family:ScalaSansLF-Regular;font-size:8.0px;stroke:none;">scan rates ranging from 20 to 1000 mV s </text>
   <text y="448.814" x="186.632" svgx:width="0.55" style="fill:rgb(35,31,32);font-family:Symbol;font-size:5.6px;stroke:none;">−</text>
   <text y="448.814" x="189.706" svgx:width="0.5" style="fill:rgb(35,31,32);font-family:ScalaSansLF-Regular;font-size:5.6px;stroke:none;">1</text>
   <text y="451.614" x="192.501,192.501,194.509,196.709,201.549,205.877,208.573,211.269,215.021,219.381,221.853,224.053,227.629,231.381,234.077,237.653,241.981,245.557,247.757,251.333,255.493,259.821,263.629,266.325,270.077,272.277,274.973,279.237,283.501,285.973,288.173,292.437,294.693,296.893,299.365,303.653,307.405,309.605,313.181,316.733,320.541,324.901,327.101,329.797,333.605,336.077,339.829,342.029,347.717,350.621,352.821,356.629,359.101,361.301,364.877,369.141,371.053,373.525,377.333,381.389,385.141,388.717,390.917,395.181,397.437,399.637,403.637,405.645,409.645,413.637,415.837,419.645,424.005,428.317,430.517,434.517,436.717,440.501" svgx:width="0.25,0.25,0.25,0.61,0.54,0.34,0.34,0.47,0.55,0.31,0.25,0.45,0.47,0.34,0.45,0.54,0.45,0.25,0.45,0.52,0.54,0.48,0.34,0.47,0.25,0.34,0.53,0.53,0.31,0.25,0.53,0.28,0.25,0.31,0.54,0.47,0.25,0.45,0.44,0.48,0.55,0.25,0.34,0.48,0.31,0.47,0.25,0.71,0.36,0.25,0.48,0.31,0.25,0.45,0.53,0.24,0.31,0.48,0.51,0.47,0.45,0.25,0.53,0.28,0.25,0.5,0.25,0.5,0.5,0.25,0.48,0.55,0.54,0.25,0.5,0.25,0.58,0.25" style="fill:rgb(35,31,32);font-family:ScalaSansLF-Regular;font-size:8.0px;stroke:none;"> . Current versus square root of the scan rate D) at voltages of 0.01 and 3 V.</text>
  </g>
 </g>
</svg>
