<?xml version="1.0" encoding="UTF-8"?>
<svg height="757.935" width="4494.674" xmlns="http://www.w3.org/2000/svg">
 <g id="page" xmlns:svgx="http://www.xml-cml.org/schema/svgx">
  <g begin="text">
   <text y="191.282" transform="matrix(0.0,-1.0,1.0,0.0,-171.821,210.743)" rotateDegrees="-90" matrix="[0.0,12.0,-12.0,0.0,19.4614,591.718]" x="19.461,27.405000000000015,38.325,51.393000000000015,64.461,74.313,84.849,89.757,97.70100000000001,106.68900000000001,113.91300000000001,118.82100000000001,129.741" svgx:width="0.66,0.9,1.08,1.08,0.81,0.87,0.4,0.66,0.82,0.6,0.4,0.9,0.87" style="fill:rgb(255,255,255);font-family:Futura-ExtraBold;font-size:12.0px;stroke:none;">COMMUNICATION</text>
  </g>
  <rect style="stroke:blue;stroke-width:0.3;" x="484.674" y="35.804" height="29.832" width="58.703" title="2"/>
  <text y="35.804" class="image" id="image.2.1" width="58" height="29" x="484.674">image.2.1.485_543.36_66</text>
  <path style="fill:none;stroke:rgb(35,31,32);stroke-width:1.0;" d="M481.880 39.260 L129.580 39.260 "/>
  <rect style="stroke:blue;stroke-width:0.3;" x="45.954" y="30.704" height="28.872" width="76.272" title="2"/>
  <text y="30.704" class="image" id="image.2.2" width="76" height="28" x="45.954">image.2.2.46_122.31_60</text>
  <g begin="text">
   <text y="747.79" x="32.482,36.982,41.482,45.982,50.482,54.982,59.482,63.982" svgx:width="0.5,0.5,0.5,0.5,0.5,0.5,0.5,0.25" style="fill:rgb(35,31,32);font-family:ScalaSansLF-Bold;font-size:9.0px;stroke:none;">1500154 </text>
   <text y="747.79" x="68.482,71.749,76.249,78.499,83.296,85.834,88.084,92.584" svgx:width="0.36,0.5,0.25,0.53,0.28,0.25,0.5,0.36" style="fill:rgb(35,31,32);font-family:ScalaSansLF-Regular;font-size:9.0px;stroke:none;">(2 of 7)</text>
   <text y="747.785" x="110.769,115.676,117.405,119.078,122.354,125.385,128.997,132.812,134.485,136.214,140.029,143.305,144.978,146.707,150.333,152.692,156.024,158.383,160.854,162.611,165.719,169.331" svgx:width="0.7,0.25,0.24,0.47,0.43,0.52,0.55,0.24,0.25,0.55,0.47,0.24,0.25,0.52,0.34,0.48,0.34,0.43,0.25,0.44,0.52,0.83" style="fill:rgb(35,31,32);font-family:ScalaSansLF-Bold;font-size:7.0px;stroke:none;">wileyonlinelibrary.com</text>
   <text y="746.804" x="204.174" svgx:width="1.01" style="fill:rgb(35,31,32);font-family:ScalaSansLF-Regular;font-size:6.0px;stroke:none;">©</text>
   <text y="747.804" x="210.228,212.153,215.653,219.153,222.646,226.146,228.071,231.844,235.596,238.879,240.804,244.969,248.756,250.919,254.671,258.402,260.761,263.89,265.647,267.572,271.464,275.251,278.94,280.613,282.342,285.471,289.223,292.506,296.279,298.204,301.893,304.728,306.653,312.701,314.801,318.266,322.039,325.889,327.821,331.902,336.137,341.534,343.459,347.12,350.403,352.762,354.435,357.767,361.316,363.241,368.197,374.126,377.815,383.212,385.137,390.044,391.969,396.029,399.76,401.517,403.442,407.439,412.395,415.727,419.892,421.656,423.581,429.209,432.492,434.221,438.036,441.788,445.071,446.8" svgx:width="0.25,0.5,0.5,0.5,0.5,0.25,0.54,0.54,0.47,0.25,0.6,0.54,0.31,0.54,0.53,0.34,0.45,0.25,0.25,0.56,0.54,0.53,0.24,0.25,0.45,0.54,0.47,0.54,0.25,0.53,0.41,0.25,0.86,0.3,0.5,0.54,0.55,0.28,0.58,0.61,0.77,0.25,0.58,0.47,0.34,0.24,0.48,0.51,0.25,0.71,0.85,0.53,0.77,0.25,0.7,0.25,0.61,0.53,0.25,0.25,0.57,0.71,0.48,0.6,0.25,0.25,0.86,0.47,0.25,0.55,0.54,0.47,0.25,0.85" style="fill:rgb(35,31,32);font-family:ScalaSansLF-Regular;font-size:7.0px;stroke:none;"> 2015 The Authors. Published by WILEY-VCH Verlag GmbH &amp; Co. KGaA, Weinheim</text>
   <text y="275.897" x="47.002,50.872,55.417,60.646,65.434,70.564,74.434,77.125,81.274,86.062,88.312,90.562,91.3,95.09,100.201,104.746,111.1,113.638,118.867,123.43,125.68,126.419,129.11,134.222,138.335,141.026,143.276,144.015,146.706,151.818,155.967,158.217,158.956,164.959,170.089,173.77,179.719,181.969,182.708,186.101,190.214,192.905,195.443,199.988,202.238,202.977,205.515,209.304,211.554,212.293,216.406,221.14,225.685,230.815,233.506,235.756,236.495,240.995,243.245,247.745,249.995,250.734,253.515,258.015,262.128,266.862,269.265,273.414,275.664,276.403,281.461,285.961,288.211" svgx:width="0.43,0.5,0.58,0.53,0.57,0.43,0.3,0.46,0.53,0.25,0.25,0.55,0.42,0.57,0.5,0.71,0.28,0.58,0.51,0.25,0.55,0.3,0.57,0.46,0.3,0.25,0.55,0.3,0.57,0.46,0.25,0.55,0.67,0.57,0.41,0.66,0.25,0.55,0.38,0.46,0.3,0.28,0.5,0.25,0.55,0.28,0.42,0.25,0.55,0.46,0.53,0.5,0.57,0.3,0.25,0.55,0.5,0.25,0.5,0.25,0.55,0.31,0.6,0.46,0.53,0.27,0.46,0.25,0.55,0.56,0.5,0.25,0.25" style="fill:rgb(35,31,32);font-family:ScalaLF-Regular;font-size:9.0px;stroke:none;">conducted, showing that the Cu/V ratio is about 3:2 (Table S1, </text>
   <text y="286.895" x="47.002,51.781,56.911,61.753,66.595,71.14,74.533,77.224,79.762,84.991,89.554,91.804,93.687,97.035,102.264,105.171,109.716,113.109,121.056,125.169,127.86,130.398,134.943,140.172,142.953,145.203,147.453,149.337,155.385,157.635,159.519,164.361,168.474,173.703,178.248,181.641,185.754,193.701,196.239,200.109,202.359,204.242,208.22,210.758,214.907,221.261,223.511,225.395,228.176,233.045,235.583,240.146,245.276,248.669,252.818,255.068,256.952,256.954,261.454,261.457,267.172,269.953,272.203,274.087,278.2,283.429,288.217" svgx:width="0.56,0.57,0.54,0.54,0.5,0.38,0.3,0.28,0.58,0.51,0.25,0.55,0.37,0.58,0.32,0.5,0.38,0.88,0.46,0.3,0.28,0.5,0.58,0.31,0.25,0.25,0.55,0.67,0.25,0.55,0.54,0.46,0.58,0.5,0.38,0.46,0.88,0.28,0.43,0.25,0.55,0.44,0.28,0.46,0.71,0.25,0.55,0.31,0.57,0.28,0.51,0.57,0.38,0.46,0.25,0.55,0.25,0.5,0.25,0.63,0.31,0.25,0.55,0.46,0.58,0.53,0.25" style="fill:rgb(35,31,32);font-family:ScalaLF-Regular;font-size:9.0px;stroke:none;">Supporting Information). A panoramic view (Figure 2 B) and </text>
   <text y="297.893" x="47.002,49.693,54.805,58.954,61.563,69.51,73.623,78.186,83.415,85.953,88.572,91.181,95.33,100.118,102.727,106.705,109.243,113.392,119.746,122.355,125.136,130.005,132.543,137.106,142.236,145.629,149.778,152.387,152.386,156.886,156.885,162.888,165.669,168.278,170.816,176.045,178.655,181.346,186.458,190.607,193.216,197.005,200.875,204.988,210.217,215.446,217.984,223.213,227.776,230.385,234.534,236.937,241.086,244.956,247.647,251.04,255.585,260.814,263.423,271.37,273.908,277.778,281.171,285.716" svgx:width="0.3,0.57,0.46,0.25,0.88,0.46,0.51,0.58,0.28,0.58,0.25,0.46,0.53,0.25,0.44,0.28,0.46,0.71,0.25,0.31,0.57,0.28,0.51,0.57,0.38,0.46,0.25,0.25,0.5,0.25,0.67,0.31,0.25,0.28,0.58,0.25,0.3,0.57,0.46,0.25,0.42,0.43,0.46,0.58,0.58,0.28,0.58,0.51,0.25,0.46,0.27,0.46,0.43,0.3,0.38,0.5,0.58,0.25,0.88,0.28,0.43,0.38,0.5,0.28" style="fill:rgb(35,31,32);font-family:ScalaLF-Regular;font-size:9.0px;stroke:none;">the magniﬁ ed view (Figure 2 C) in the scanning electron micro-</text>
   <text y="308.891" x="47.002,50.791,54.661,59.206,64.048,66.586,70.456,72.706,75.218,77.999,83.057,88.285,96.395,99.175,101.425,103.937,106.475,114.422,118.535,123.098,127.247,131.036,133.286,135.798,139.587,144.699,149.244,155.598,157.848,160.36,163.051,168.163,172.276,174.967,177.217,179.729,182.42,187.532,191.681,193.931,196.443,200.556,203.031,209.034,214.983,221.67,223.92,226.432,228.97,232.759,235.009,237.521,241.391,245.936,253.883,258.725,263.27,267.059,271.208,275.996,278.246,280.758,285.303,288.21" svgx:width="0.42,0.43,0.5,0.54,0.28,0.43,0.25,0.55,0.31,0.56,0.58,0.9,0.31,0.25,0.55,0.28,0.88,0.46,0.51,0.46,0.42,0.25,0.55,0.42,0.57,0.5,0.71,0.25,0.55,0.3,0.57,0.46,0.3,0.25,0.55,0.3,0.57,0.46,0.25,0.55,0.46,0.28,0.67,0.66,0.74,0.25,0.55,0.28,0.42,0.25,0.55,0.43,0.5,0.88,0.54,0.5,0.42,0.46,0.53,0.25,0.55,0.5,0.32,0.25" style="fill:rgb(35,31,32);font-family:ScalaLF-Regular;font-size:9.0px;stroke:none;">scopic (SEM) images show that the a-CVO is composed of </text>
   <text y="319.889" x="47.002,52.132,57.361,59.899,62.806,67.351,70.744,78.691,80.941,83.239,88.468,92.581,97.81,102.355,106.144,111.256,115.405,119.554,122.245,124.72,128.59,133.135,138.364,142.153,144.844,148.237,153.367,157.237,159.928,164.077,168.865,171.115,173.414,178.643,182.756,187.985,192.53,195.142,197.762,202.307,208.661,212.81,216.203,219.992,222.242,224.539,230.893,233.431,236.122,241.234,243.484,245.781,249.894,252.144,254.441,259.229,261.767,265.88,273.827,277.976,280.667,284.816,288.209" svgx:width="0.57,0.58,0.28,0.32,0.5,0.38,0.88,0.25,0.55,0.58,0.46,0.58,0.5,0.42,0.57,0.46,0.46,0.3,0.28,0.43,0.5,0.58,0.42,0.3,0.38,0.57,0.43,0.3,0.46,0.53,0.25,0.55,0.58,0.46,0.58,0.5,0.58,0.25,0.5,0.71,0.46,0.38,0.42,0.25,0.55,0.71,0.28,0.3,0.57,0.25,0.55,0.46,0.25,0.55,0.53,0.28,0.46,0.88,0.46,0.3,0.46,0.38,0.25" style="fill:rgb(35,31,32);font-family:ScalaLF-Regular;font-size:9.0px;stroke:none;">uniform nanosheet-constructed nanoﬂ owers with a diameter </text>
   <text y="330.887" x="47.002,51.547,54.454,56.704,59.424,63.537,66.93,71.475,76.605,81.834,86.622,88.872,91.593,96.093,100.593,105.093,107.343,110.064,115.293,123.24,125.49,127.74,130.46,136.814,141.926,146.471,150.26,154.409,156.659,159.38,167.327,171.872,175.265,180.107,185.219,189.764,192.167,196.712,201.275,205.262,207.512,210.233,212.771,216.56,218.81,221.531,224.068,229.298,234.085,238.234,243.464,246.154,248.692,252.562,256.675,259.078,261.328,264.049,266.74,271.285,273.535,276.256,278.947,284.059,288.208" svgx:width="0.5,0.32,0.25,0.55,0.46,0.38,0.5,0.57,0.58,0.53,0.25,0.55,0.5,0.5,0.5,0.25,0.55,0.58,0.88,0.25,0.25,0.55,0.71,0.57,0.5,0.42,0.46,0.25,0.55,0.88,0.5,0.38,0.54,0.57,0.5,0.27,0.5,0.51,0.44,0.25,0.55,0.28,0.42,0.25,0.55,0.28,0.58,0.53,0.46,0.58,0.3,0.28,0.43,0.46,0.27,0.25,0.55,0.3,0.5,0.25,0.55,0.3,0.57,0.46,0.25" style="fill:rgb(35,31,32);font-family:ScalaLF-Regular;font-size:9.0px;stroke:none;">of around 450 nm, whose morphology is indentical to the </text>
   <text y="341.885" x="47.002,53.005,58.135" svgx:width="0.67,0.57,0.25" style="fill:rgb(35,31,32);font-family:ScalaLF-Regular;font-size:9.0px;stroke:none;">Cu </text>
   <text y="343.697" x="58.134" svgx:width="0.5" style="fill:rgb(35,31,32);font-family:ScalaLF-Regular;font-size:6.3px;stroke:none;">3</text>
   <text y="341.897" x="61.284,61.284,67.233" svgx:width="0.25,0.66,0.25" style="fill:rgb(35,31,32);font-family:ScalaLF-Regular;font-size:9.0px;stroke:none;"> V </text>
   <text y="343.697" x="67.233" svgx:width="0.5" style="fill:rgb(35,31,32);font-family:ScalaLF-Regular;font-size:6.3px;stroke:none;">2</text>
   <text y="341.897" x="70.383,70.383,77.07" svgx:width="0.25,0.74,0.25" style="fill:rgb(35,31,32);font-family:ScalaLF-Regular;font-size:9.0px;stroke:none;"> O </text>
   <text y="343.697" x="77.07" svgx:width="0.5" style="fill:rgb(35,31,32);font-family:ScalaLF-Regular;font-size:6.3px;stroke:none;">7</text>
   <text y="341.897" x="80.22,80.22,83.001,89.688,97.23,100.011" svgx:width="0.25,0.31,0.74,0.84,0.31,0.25" style="fill:rgb(35,31,32);font-family:ScalaLF-Regular;font-size:9.0px;stroke:none;"> (OH) </text>
   <text y="343.697" x="100.011" svgx:width="0.5" style="fill:rgb(35,31,32);font-family:ScalaLF-Regular;font-size:6.3px;stroke:none;">2</text>
   <text y="341.897" x="103.161,103.161,105.411,107.661,109.524,117.066" svgx:width="0.25,0.25,0.25,0.55,0.84,0.25" style="fill:rgb(35,31,32);font-family:ScalaLF-Regular;font-size:9.0px;stroke:none;"> . H </text>
   <text y="343.697" x="117.065" svgx:width="0.5" style="fill:rgb(35,31,32);font-family:ScalaLF-Regular;font-size:6.3px;stroke:none;">2</text>
   <text y="341.897" x="120.215,120.214,126.901,131.013,135.855,139.248,143.397,147.267,152.397,155.79,159.579,164.124,166.797,169.047,173.159,181.268,185.813,189.206,193.355,197.9,201.878,206.027,208.7,210.95,215.062,217.753,222.865,227.014,231.127,236.356,243.016,248.956,253.068,261.015,265.164,269.277,273.066,278.196,281.589,285.738" svgx:width="0.25,0.74,0.25,0.54,0.38,0.46,0.43,0.57,0.38,0.42,0.5,0.38,0.25,0.25,0.9,0.5,0.38,0.46,0.5,0.44,0.46,0.38,0.25,0.25,0.3,0.57,0.46,0.25,0.58,0.74,0.66,0.25,0.88,0.46,0.46,0.42,0.57,0.38,0.46,0.28" style="fill:rgb(35,31,32);font-family:ScalaLF-Regular;font-size:9.0px;stroke:none;"> O precursor. Moreover, the EDX measure-</text>
   <text y="352.895" x="47.0,54.947,59.096,64.325,67.016,70.805,73.055,73.986,78.828,82.221,86.766,90.744,94.893,97.143,98.075,100.766,105.878,109.991,112.682,114.932,115.864,118.555,123.667,127.816,130.066,130.997,135.11,137.585,143.588,149.537,156.224,158.474,159.406,161.944,165.733,167.983,168.914,172.784,177.329,185.276,190.118,194.663,198.452,202.601,207.389,209.639,210.571,215.116,218.023,220.273,221.204,227.207,232.337,234.587,236.837,237.769,243.718,245.968,246.899,251.012,256.241,261.029,263.279,264.211,270.898,273.148,274.079,278.192,283.421,288.209" svgx:width="0.88,0.46,0.58,0.3,0.42,0.25,0.55,0.54,0.38,0.5,0.44,0.46,0.25,0.55,0.3,0.57,0.46,0.3,0.25,0.55,0.3,0.57,0.46,0.25,0.55,0.46,0.28,0.67,0.66,0.74,0.25,0.55,0.28,0.42,0.25,0.55,0.43,0.5,0.88,0.54,0.5,0.42,0.46,0.53,0.25,0.55,0.5,0.32,0.25,0.55,0.67,0.57,0.25,0.25,0.55,0.66,0.25,0.55,0.46,0.58,0.53,0.25,0.55,0.74,0.25,0.55,0.46,0.58,0.53,0.25" style="fill:rgb(35,31,32);font-family:ScalaLF-Regular;font-size:9.0px;stroke:none;">ments prove that the a-CVO is composed of Cu, V and O and </text>
   <text y="363.893" x="47.0,49.691,54.803,58.952,62.741,66.89,69.759,72.45,77.562,80.955,85.104,89.253,92.122,96.271,98.674,102.823,110.77,114.919,120.148,122.839,125.709,130.497,133.035,136.824,139.515,142.908,145.446,150.18,155.31,158.001,162.15,166.938,169.807,174.919,179.464,187.411,191.956,196.519,200.668,205.897,210.046,214.591,219.721,223.51,225.913,229.9,232.769,235.307,240.536,243.405,246.096,251.208,255.357,258.226,262.015,266.164,268.567,272.716,276.586,279.277,283.426,288.214" svgx:width="0.3,0.57,0.46,0.42,0.46,0.25,0.3,0.57,0.38,0.46,0.46,0.25,0.46,0.27,0.46,0.88,0.46,0.58,0.3,0.25,0.53,0.28,0.42,0.3,0.38,0.28,0.53,0.57,0.3,0.46,0.53,0.25,0.57,0.5,0.88,0.5,0.51,0.46,0.58,0.46,0.5,0.57,0.42,0.27,0.44,0.25,0.28,0.58,0.25,0.3,0.57,0.46,0.25,0.42,0.46,0.27,0.46,0.43,0.3,0.46,0.53,0.25" style="fill:rgb(35,31,32);font-family:ScalaLF-Regular;font-size:9.0px;stroke:none;">these three element distributed homogeneously in the selected </text>
   <text y="374.891" x="47.0,51.113,54.506,58.655,62.768,65.018,66.362,69.143,74.012,76.55,81.113,86.243,89.636,93.785,97.574,99.824,101.167,106.225,110.725,112.975,114.319,118.432,123.661,128.449,130.699,132.043,137.101,141.601,143.851,146.101,147.444,152.223,157.353,162.195,167.037,171.582,174.975,177.666,180.204,185.433,189.996,192.246,193.59,196.938,202.167,205.074,209.619,213.012,220.959,225.072,227.763,230.301,234.846,240.075,242.856,245.106,247.356,248.7,254.1,259.212,263.361,265.611,266.955,269.646,274.758,277.296,281.166,285.738" svgx:width="0.46,0.38,0.46,0.46,0.25,0.55,0.31,0.57,0.28,0.51,0.57,0.38,0.46,0.42,0.25,0.55,0.56,0.5,0.25,0.55,0.46,0.58,0.53,0.25,0.55,0.56,0.5,0.25,0.25,0.55,0.56,0.57,0.54,0.54,0.5,0.38,0.3,0.28,0.58,0.51,0.25,0.55,0.37,0.58,0.32,0.5,0.38,0.88,0.46,0.3,0.28,0.5,0.58,0.31,0.25,0.25,0.55,0.6,0.57,0.46,0.25,0.55,0.3,0.57,0.28,0.43,0.51,0.28" style="fill:rgb(35,31,32);font-family:ScalaLF-Regular;font-size:9.0px;stroke:none;">area (Figures S4 and S5, Supporting Information). The thick-</text>
   <text y="385.889" x="47.0,52.229,56.378,60.167,63.956,66.206,67.272,71.817,74.724,76.974,78.039,80.73,85.842,89.991,92.241,93.307,98.536,102.649,107.878,112.423,116.212,121.324,125.473,129.622,132.313,136.102,138.352,139.417,141.955,145.744,147.994,149.06,153.209,156.998,159.689,162.227,170.174,174.287,176.978,181.127,185.915,188.165,189.231,191.922,196.467,198.717,199.782,204.516,208.665,210.915,211.981,216.094,219.487,224.032,229.162,234.391,239.179,241.429,242.494,246.994,251.494,253.744,254.81,260.039,267.986,270.236,272.486,273.552,278.952,284.064,288.213" svgx:width="0.58,0.46,0.42,0.42,0.25,0.55,0.5,0.32,0.25,0.55,0.3,0.57,0.46,0.25,0.55,0.58,0.46,0.58,0.5,0.42,0.57,0.46,0.46,0.3,0.42,0.25,0.55,0.28,0.42,0.25,0.55,0.46,0.42,0.3,0.28,0.88,0.46,0.3,0.46,0.53,0.25,0.55,0.3,0.5,0.25,0.55,0.53,0.46,0.25,0.55,0.46,0.38,0.5,0.57,0.58,0.53,0.25,0.55,0.5,0.5,0.25,0.55,0.58,0.88,0.25,0.25,0.55,0.6,0.57,0.46,0.25" style="fill:rgb(35,31,32);font-family:ScalaLF-Regular;font-size:9.0px;stroke:none;">ness of the nanosheets is estimated to be around 20 nm. The </text>
   <text y="396.887" x="47.0,52.112,54.65,58.799,62.192,66.305,69.698,73.568,78.68,81.218,85.088,89.201,91.604,93.854,96.095,101.324,105.437,110.666,115.211,117.83,120.447,124.992,131.346,135.495,138.888,141.138,143.377,151.324,155.869,159.262,164.104,169.216,173.761,176.164,180.709,185.272,189.259,191.509,193.749,196.287,200.076,202.326,204.565,207.472,212.602,215.995,218.686,223.798,227.947,231.34,233.59,235.829,239.699,244.244,249.473,252.101,254.724,258.117,266.064,270.213,275.001,277.251,279.488,284.222,288.209" svgx:width="0.57,0.28,0.46,0.38,0.46,0.38,0.43,0.57,0.28,0.43,0.46,0.27,0.25,0.55,0.58,0.46,0.58,0.5,0.58,0.25,0.5,0.71,0.46,0.38,0.25,0.55,0.88,0.5,0.38,0.54,0.57,0.5,0.27,0.5,0.51,0.44,0.25,0.55,0.28,0.42,0.25,0.55,0.32,0.57,0.38,0.3,0.57,0.46,0.38,0.25,0.55,0.43,0.5,0.58,0.58,0.25,0.38,0.88,0.46,0.53,0.25,0.55,0.53,0.44,0.25" style="fill:rgb(35,31,32);font-family:ScalaLF-Regular;font-size:9.0px;stroke:none;">hierarchical nanoﬂ ower morphology is further conﬁ rmed by </text>
   <text y="407.885" x="47.009,49.7,53.093,57.206,62.435,66.224,74.171,76.709,80.498,84.287,86.825,91.37,96.599,98.849,100.005,104.154,106.557,110.706,114.576,117.267,120.66,125.205,130.434,132.684,133.839,141.786,144.324,148.194,151.587,156.132,159.921,163.791,168.336,173.178,175.716,179.586,181.836,182.992,185.773,191.173,196.402,204.511,207.292,209.542,210.697,213.235,221.182,225.295,229.858,234.007,237.796,240.046,241.202,243.983,248.852,251.39,255.953,261.083,264.476,268.625,270.875,272.031,272.034,276.534,276.538,283.198,285.979,288.229" svgx:width="0.3,0.38,0.46,0.58,0.42,0.88,0.28,0.42,0.42,0.28,0.5,0.58,0.25,0.55,0.46,0.27,0.46,0.43,0.3,0.38,0.5,0.58,0.25,0.55,0.88,0.28,0.43,0.38,0.5,0.42,0.43,0.5,0.54,0.28,0.43,0.25,0.55,0.31,0.6,0.58,0.9,0.31,0.25,0.55,0.28,0.88,0.46,0.51,0.46,0.42,0.25,0.55,0.31,0.57,0.28,0.51,0.57,0.38,0.46,0.25,0.55,0.25,0.5,0.25,0.74,0.31,0.25,0.25" style="fill:rgb(35,31,32);font-family:ScalaLF-Regular;font-size:9.0px;stroke:none;">transmission electron microscopic (TEM) images (Figure 2 D). </text>
   <text y="418.883" x="47.009,52.409,57.521,61.67,63.92,65.073,73.02,77.133,81.696,86.925,89.463,92.082,94.702,98.851,103.639,105.889,107.042,112.442,117.671,125.78,128.03,129.183,131.721,139.668,143.781,148.344,152.493,154.743,155.896,158.677,163.546,166.084,170.647,175.777,179.17,183.319,185.569,186.721,186.722,191.222,191.223,196.452,199.233,201.483,202.636,206.425,211.537,216.082,222.436,226.225,228.475,229.628,232.319,237.431,241.544,244.235,246.485,247.638,250.329,255.441,259.59,261.84,262.993,267.106,269.581,275.584,281.533,288.22" svgx:width="0.6,0.57,0.46,0.25,0.55,0.88,0.46,0.51,0.58,0.28,0.58,0.25,0.46,0.53,0.25,0.55,0.6,0.58,0.9,0.25,0.55,0.28,0.88,0.46,0.51,0.46,0.25,0.55,0.31,0.57,0.28,0.51,0.57,0.38,0.46,0.25,0.55,0.25,0.5,0.25,0.58,0.31,0.25,0.55,0.42,0.57,0.5,0.71,0.42,0.25,0.55,0.3,0.57,0.46,0.3,0.25,0.55,0.3,0.57,0.46,0.25,0.55,0.46,0.28,0.67,0.66,0.74,0.25" style="fill:rgb(35,31,32);font-family:ScalaLF-Regular;font-size:9.0px;stroke:none;">The magniﬁ ed TEM image (Figure 2 E) shows that the a-CVO </text>
   <text y="429.881" x="47.009,52.237,56.349,61.577,66.121,69.909,75.021,79.169,83.317,86.007,88.891,91.428,95.217,98.101,103.212,105.749,110.311,115.422,117.825,121.811,124.695,129.536,134.08,137.472,142.017,147.146,150.934,153.183,156.067,162.421,167.532,170.069,173.938,179.049,181.933,184.47,188.259,191.143,195.93,198.467,201.373,204.279,208.428,211.82,215.968,221.196,223.886,226.77,229.677,233.069,237.613,245.559,248.443,251.133,256.245,260.357,263.047,265.931,270.475,273.381,276.266,278.956,284.067,288.215" svgx:width="0.58,0.46,0.58,0.5,0.42,0.57,0.46,0.46,0.3,0.25,0.28,0.42,0.25,0.57,0.28,0.51,0.57,0.27,0.44,0.25,0.54,0.5,0.38,0.5,0.57,0.42,0.25,0.25,0.71,0.57,0.28,0.43,0.57,0.25,0.28,0.42,0.25,0.53,0.28,0.32,0.32,0.46,0.38,0.46,0.58,0.3,0.25,0.32,0.38,0.5,0.88,0.25,0.3,0.57,0.46,0.3,0.25,0.5,0.32,0.25,0.3,0.57,0.46,0.25" style="fill:rgb(35,31,32);font-family:ScalaLF-Regular;font-size:9.0px;stroke:none;">nanosheet is highly porous, which is different from that of the </text>
   <text y="440.879" x="47.009,51.851,55.244,59.393,63.263,68.393,71.786,75.575,80.12,83.513,85.763,89.039,91.82,96.689,99.227,103.79,108.92,112.313,116.462,118.712,121.988,127.046,131.546,138.206,140.456,142.706,145.982,150.761,155.891,160.733,165.575,170.12,173.513,176.204,178.742,183.971,188.534,190.784,194.06,197.408,202.637,205.544,210.089,213.482,221.429,225.542,228.233,230.771,235.316,240.545,243.326,245.576,247.826,251.102,256.502,261.614,265.763,268.013,271.289,276.131,280.676,284.069,288.218" svgx:width="0.54,0.38,0.46,0.43,0.57,0.38,0.42,0.5,0.38,0.25,0.55,0.31,0.57,0.28,0.51,0.57,0.38,0.46,0.25,0.55,0.56,0.5,0.74,0.25,0.25,0.55,0.56,0.57,0.54,0.54,0.5,0.38,0.3,0.28,0.58,0.51,0.25,0.55,0.37,0.58,0.32,0.5,0.38,0.88,0.46,0.3,0.28,0.5,0.58,0.31,0.25,0.25,0.55,0.6,0.57,0.46,0.25,0.55,0.54,0.5,0.38,0.46,0.25" style="fill:rgb(35,31,32);font-family:ScalaLF-Regular;font-size:9.0px;stroke:none;">precursor (Figure S2D, Supporting Information). The pore </text>
   <text y="451.877" x="47.009,51.797,54.335,58.448,66.395,70.544,73.235,77.384,80.777,83.027,84.093,86.631,90.42,92.67,93.737,101.684,105.833,109.946,113.735,118.865,122.258,126.407,131.195,133.445,134.511,137.202,141.747,143.997,145.064,149.798,153.947,156.197,157.263,161.376,164.769,169.314,174.444,179.673,184.461,186.711,187.778,192.278,196.778,201.278,205.778,210.278,212.528,213.594,218.823,226.77,229.02,231.27,232.337,237.737,242.849,246.998,249.248,250.314,253.221,257.766,261.159,269.106,273.219,275.91,278.448,282.993,288.223" svgx:width="0.53,0.28,0.46,0.88,0.46,0.3,0.46,0.38,0.25,0.55,0.28,0.42,0.25,0.55,0.88,0.46,0.46,0.42,0.57,0.38,0.46,0.53,0.25,0.55,0.3,0.5,0.25,0.55,0.53,0.46,0.25,0.55,0.46,0.38,0.5,0.57,0.58,0.53,0.25,0.55,0.5,0.5,0.5,0.5,0.5,0.25,0.55,0.58,0.88,0.25,0.25,0.55,0.6,0.57,0.46,0.25,0.55,0.32,0.5,0.38,0.88,0.46,0.3,0.28,0.5,0.58,0.25" style="fill:rgb(35,31,32);font-family:ScalaLF-Regular;font-size:9.0px;stroke:none;">diameter is measured to be around 30–40 nm. The formation </text>
   <text y="462.875" x="47.009,51.554,54.461,56.711,58.344,66.291,70.44,74.229,78.774,83.616,88.161,91.554,95.703,99.492,101.742,103.374,111.321,113.859,118.422,123.534,126.225,128.475,130.108,134.842,138.991,141.241,142.873,146.986,149.677,152.368,155.761,158.299,163.033,168.163,170.854,175.003,179.791,182.041,183.674,186.365,190.91,193.16,194.793,197.484,202.596,206.745,208.995,210.627,215.415,219.564,224.676,228.663,233.451,236.844,240.957,243.648,246.186,250.731,255.96,258.21000000000004,259.843,264.685,268.078,272.623,276.493,280.642,284.431,288.22" svgx:width="0.5,0.32,0.25,0.55,0.88,0.46,0.42,0.5,0.54,0.5,0.38,0.46,0.42,0.25,0.55,0.88,0.28,0.51,0.57,0.3,0.25,0.55,0.53,0.46,0.25,0.55,0.46,0.3,0.3,0.38,0.28,0.53,0.57,0.3,0.46,0.53,0.25,0.55,0.3,0.5,0.25,0.55,0.3,0.57,0.46,0.25,0.55,0.53,0.46,0.57,0.44,0.53,0.38,0.46,0.3,0.28,0.5,0.58,0.25,0.55,0.54,0.38,0.5,0.43,0.46,0.42,0.42,0.25" style="fill:rgb(35,31,32);font-family:ScalaLF-Regular;font-size:9.0px;stroke:none;">of mesopores might be attributed to the dehydration process </text>
   <text y="473.873" x="47.009,51.797,56.927,60.32,62.858,68.087,72.65,74.9,76.244,82.598,87.71,90.248,94.118,99.23,101.48,102.823,105.514,110.626,114.775,117.025,118.369,122.239,125.632,129.619,133.408,136.099,140.212,142.615,145.018,147.556,151.777,155.926,160.714,162.964,164.308,170.662,174.775,177.466,181.615,185.008,187.258,188.602,191.139,194.928,197.178,198.522,201.915,206.064,214.011,218.556,222.534,226.683,231.471,233.721,235.065,239.178,244.407,249.195,251.445,252.789,255.48,260.592,264.741,266.991,268.334,272.123,277.235,281.384,285.533,288.224" svgx:width="0.53,0.57,0.38,0.28,0.58,0.51,0.25,0.55,0.71,0.57,0.28,0.43,0.57,0.25,0.55,0.3,0.57,0.46,0.25,0.55,0.43,0.38,0.44,0.42,0.3,0.46,0.27,0.27,0.28,0.47,0.46,0.53,0.25,0.55,0.71,0.46,0.3,0.46,0.38,0.25,0.55,0.28,0.42,0.25,0.55,0.38,0.46,0.88,0.5,0.44,0.46,0.53,0.25,0.55,0.46,0.58,0.53,0.25,0.55,0.3,0.57,0.46,0.25,0.55,0.42,0.57,0.46,0.46,0.3,0.25" style="fill:rgb(35,31,32);font-family:ScalaLF-Regular;font-size:9.0px;stroke:none;">during which the crystallized water is removed and the sheet </text>
   <text y="275.873" x="302.411,304.949,308.738,310.988,312.846,317.581,320.974,325.519,330.091,334.24,339.469,341.719,343.577,348.365,352.91,359.264,364.493,366.743" svgx:width="0.28,0.42,0.25,0.55,0.53,0.38,0.5,0.51,0.46,0.58,0.25,0.55,0.53,0.5,0.71,0.58,0.25,0.25" style="fill:rgb(35,31,32);font-family:ScalaLF-Regular;font-size:9.0px;stroke:none;">is broken down. </text>
   <text y="272.747" x="366.738,368.313,368.313,371.463,374.613,374.613" svgx:width="0.25,0.25,0.5,0.5,0.25,0.25" style="fill:rgb(35,31,32);font-family:ScalaLF-Regular;font-size:6.3px;stroke:none;">[ 23 ]</text>
   <text y="275.897" x="376.188,376.192,378.442,380.299,386.931,391.475,393.725,395.583,400.127,404.86,408.837,411.374,415.919,421.048,424.836,427.086,428.943,433.73,436.268,439.174,442.08,445.472,449.584,453.453,456.143,458.68,463.224,468.452,470.702,472.56,475.952,478.489,483.717,488.279,492.067,494.317,496.175,500.719,504.111,506.361,508.219,512.007,516.848,521.392,524.082,527.87,530.12,531.978,536.09,539.482,543.63" svgx:width="0.25,0.25,0.55,0.74,0.5,0.25,0.55,0.5,0.53,0.44,0.28,0.5,0.57,0.42,0.25,0.55,0.53,0.28,0.32,0.32,0.38,0.46,0.43,0.3,0.28,0.5,0.58,0.25,0.55,0.38,0.28,0.58,0.51,0.42,0.25,0.55,0.5,0.38,0.25,0.55,0.42,0.54,0.5,0.3,0.42,0.25,0.55,0.46,0.38,0.46,0.25" style="fill:rgb(35,31,32);font-family:ScalaLF-Regular;font-size:9.0px;stroke:none;"> No obvious diffraction rings or spots are </text>
   <text y="286.895" x="302.406,306.95,311.683,315.471,319.619,323.011,326.989,331.137,335.924,338.174,339.627,342.164,347.392,349.642,351.096,353.786,358.897,363.045,365.295,366.749,370.537,374.685,377.087,381.235,385.104,387.794,391.942,396.73,398.98,400.433,404.545,407.937,412.085,416.197,418.447,419.901,424.049,426.451,430.599,434.468,437.158,440.551,445.095,450.323,452.573,454.026,458.813,461.35,464.257,467.163,470.555,474.667,478.536,481.226,483.763,488.307,493.535,495.785,497.239,500.019,505.076,511.123,516.351,523.01,525.79,528.04,529.494,534.335,538.447,541.137" svgx:width="0.5,0.53,0.42,0.46,0.38,0.44,0.46,0.53,0.25,0.55,0.28,0.58,0.25,0.55,0.3,0.57,0.46,0.25,0.55,0.42,0.46,0.27,0.46,0.43,0.3,0.46,0.53,0.25,0.55,0.46,0.38,0.46,0.46,0.25,0.55,0.46,0.27,0.46,0.43,0.3,0.38,0.5,0.58,0.25,0.55,0.53,0.28,0.32,0.32,0.38,0.46,0.43,0.3,0.28,0.5,0.58,0.25,0.55,0.31,0.56,0.67,0.58,0.74,0.31,0.25,0.55,0.54,0.46,0.3,0.28" style="fill:rgb(35,31,32);font-family:ScalaLF-Regular;font-size:9.0px;stroke:none;">observed in the selected area electron diffraction (SAED) pat-</text>
   <text y="297.893" x="302.406,305.097,309.246,312.639,317.868,320.118,322.368,323.481,326.019,331.248,336.036,338.574,342.444,346.557,349.248,351.786,357.015,361.578,363.828,364.942,367.633,372.745,376.894,379.144,380.257,384.37,392.317,396.862,400.255,405.097,410.209,414.754,419.884,423.673,425.923,427.036,432.265,436.378,439.069,444.199,447.592,451.741,453.991,455.105,457.886,462.755,465.293,469.856,474.986,478.379,482.528,484.778,485.891,490.949,495.449,497.699,499.949,501.062,505.841,510.971,515.813,520.655,525.2,528.593,531.284,533.822,539.051,543.614" svgx:width="0.3,0.46,0.38,0.58,0.25,0.25,0.55,0.28,0.58,0.53,0.28,0.43,0.46,0.3,0.28,0.58,0.51,0.25,0.55,0.3,0.57,0.46,0.25,0.55,0.46,0.88,0.5,0.38,0.54,0.57,0.5,0.57,0.42,0.25,0.55,0.58,0.46,0.3,0.57,0.38,0.46,0.25,0.55,0.31,0.57,0.28,0.51,0.57,0.38,0.46,0.25,0.55,0.56,0.5,0.25,0.25,0.55,0.56,0.57,0.54,0.54,0.5,0.38,0.3,0.28,0.58,0.51,0.25" style="fill:rgb(35,31,32);font-family:ScalaLF-Regular;font-size:9.0px;stroke:none;">tern, indicating the amorphous nature (Figure S6, Supporting </text>
   <text y="308.891" x="302.406,305.754,310.983,313.89,318.435,321.828,329.775,333.888,336.579,339.117,343.662,348.891,351.672,353.922,356.172,357.895,362.395,366.94,369.19,370.912,373.45,378.679,382.549,385.942,390.091,394.204,397.993,402.142,404.392,406.115,408.806,413.918,418.067,420.317,422.039,425.909,430.454,435.683,440.471,445.601,449.471,452.162,454.7,458.678,461.216,463.907,467.894,470.144,471.867,475.98,481.209,485.997,488.247,489.97,493.759,496.45,499.843,504.973,508.843,511.534,516.664,520.057,524.17,526.573,528.823,530.545,534.334,537.025,541.138" svgx:width="0.37,0.58,0.32,0.5,0.38,0.88,0.46,0.3,0.28,0.5,0.58,0.31,0.25,0.25,0.55,0.6,0.5,0.25,0.55,0.28,0.58,0.43,0.38,0.46,0.46,0.42,0.46,0.25,0.55,0.3,0.57,0.46,0.25,0.55,0.43,0.5,0.58,0.53,0.57,0.43,0.3,0.28,0.44,0.28,0.3,0.44,0.25,0.55,0.46,0.58,0.53,0.25,0.55,0.42,0.3,0.38,0.57,0.43,0.3,0.57,0.38,0.46,0.27,0.25,0.55,0.42,0.3,0.46,0.28" style="fill:rgb(35,31,32);font-family:ScalaLF-Regular;font-size:9.0px;stroke:none;">Information). To increase the conductivity and structural sta-</text>
   <text y="319.889" x="302.406,307.14,309.678,312.081,314.619,317.31,321.297,323.547,324.326,328.871,331.778,334.028,334.806,338.919,341.394,347.397,353.346,360.033,362.283,364.533,365.312,369.875,373.268,377.381,382.223,387.335,391.484,396.713,400.862,403.112,403.89,408.435,412.368,414.906,419.694,423.843,426.093,426.872,429.653,436.358,443.045,445.826,448.076,448.854,451.392,455.181,457.431,458.21,460.748,465.977,468.668,472.061,476.606,481.394,486.524,490.394,494.543,499.331,501.581,502.359,504.897,510.126,512.376,513.155,515.846,520.958,525.107,527.357,528.135,531.924,535.911,541.14" svgx:width="0.53,0.28,0.27,0.28,0.3,0.44,0.25,0.55,0.5,0.32,0.25,0.55,0.46,0.28,0.67,0.66,0.74,0.25,0.25,0.55,0.51,0.38,0.46,0.54,0.57,0.46,0.58,0.46,0.25,0.55,0.5,0.44,0.28,0.53,0.46,0.25,0.55,0.31,0.75,0.74,0.31,0.25,0.55,0.28,0.42,0.25,0.55,0.28,0.58,0.3,0.38,0.5,0.53,0.57,0.43,0.46,0.53,0.25,0.55,0.28,0.58,0.25,0.55,0.3,0.57,0.46,0.25,0.55,0.42,0.44,0.58,0.28" style="fill:rgb(35,31,32);font-family:ScalaLF-Regular;font-size:9.0px;stroke:none;">bility of a-CVO, graphene oxide (GO) is introduced in the syn-</text>
   <text y="330.887" x="302.406,305.097,310.209,314.358,318.147,320.685,324.474,326.724,328.974,329.661,335.061,340.173,344.322,346.572,347.258,352.388,354.791,357.482,360.875,364.988,367.679,372.791,375.329,380.558,382.808,383.495,387.608,392.837,397.625,399.875,400.562,406.916,410.309,412.847,418.076,422.648,425.051,429.2,433.988,436.238,436.925,441.488,444.881,448.994,453.836,458.948,463.097,468.326,472.475,474.725,475.411,479.956,483.889,486.427,491.215,495.364,497.614,498.301,502.09,507.202,511.351,515.5,518.191,521.98,524.23,524.917,531.271,534.664,538.777,543.619" svgx:width="0.3,0.57,0.46,0.42,0.28,0.42,0.25,0.25,0.55,0.6,0.57,0.46,0.25,0.55,0.57,0.27,0.3,0.38,0.46,0.3,0.57,0.28,0.58,0.25,0.55,0.46,0.58,0.53,0.25,0.55,0.71,0.38,0.28,0.58,0.51,0.27,0.46,0.53,0.25,0.55,0.51,0.38,0.46,0.54,0.57,0.46,0.58,0.46,0.25,0.55,0.5,0.44,0.28,0.53,0.46,0.25,0.55,0.42,0.57,0.46,0.46,0.3,0.42,0.25,0.55,0.71,0.38,0.46,0.54,0.25" style="fill:rgb(35,31,32);font-family:ScalaLF-Regular;font-size:9.0px;stroke:none;">thesis. The ultrathin and wrinkled graphene oxide sheets wrap </text>
   <text y="341.885" x="302.406,306.951,312.18,317.234,319.925,325.037,329.186,334.239,338.028,343.158,346.551,349.458,353.571,357.441,361.59,366.644,371.189,374.096,379.149,383.262,385.737,391.74,397.689,404.376,409.43,414.542,419.087,427.034,431.579,436.142,440.291,445.52,449.669,454.214,459.344,463.133,465.536,469.523,474.576,477.357,482.226,484.764,489.327,494.457,497.85,501.999,507.053,507.048,511.548,511.544,516.683,519.464,521.714,526.767,532.167,537.279,539.817,543.606" svgx:width="0.5,0.58,0.25,0.3,0.57,0.46,0.25,0.42,0.57,0.38,0.32,0.46,0.43,0.46,0.25,0.5,0.32,0.25,0.46,0.28,0.67,0.66,0.74,0.25,0.57,0.5,0.88,0.5,0.51,0.46,0.58,0.46,0.5,0.57,0.42,0.27,0.44,0.25,0.31,0.57,0.28,0.51,0.57,0.38,0.46,0.25,0.25,0.5,0.25,0.57,0.31,0.25,0.25,0.6,0.57,0.28,0.42,0.25" style="fill:rgb(35,31,32);font-family:ScalaLF-Regular;font-size:9.0px;stroke:none;">on the surface of a-CVO homogeneously (Figure 2 F). This </text>
   <text y="352.883" x="302.406,307.536,312.765,315.303,319.992,325.122,329.271,331.521,332.569,336.682,339.158,345.16,351.109,357.797,360.272,366.977,373.664,375.914,376.962,380.832,385.377,393.324,398.166,402.711,406.5,409.038,411.729,415.878,418.128,419.177,422.966,425.657,429.05,434.18,438.05,440.741,445.871,449.264,453.413,455.663,456.711,459.114,463.263,467.376,472.164,475.953,478.203,479.251,481.943,486.488,488.738,489.786,493.899,496.149,497.198,500.987,506.117,509.51,512.417,516.529,520.399,524.548,526.798,527.847,531.96,535.353,539.502,543.615" svgx:width="0.57,0.58,0.28,0.52,0.57,0.46,0.25,0.55,0.46,0.28,0.67,0.66,0.74,0.28,0.75,0.74,0.25,0.55,0.43,0.5,0.88,0.54,0.5,0.42,0.28,0.3,0.46,0.25,0.55,0.42,0.3,0.38,0.57,0.43,0.3,0.57,0.38,0.46,0.25,0.55,0.27,0.46,0.46,0.53,0.42,0.25,0.55,0.3,0.5,0.25,0.55,0.46,0.25,0.55,0.42,0.57,0.38,0.32,0.46,0.43,0.46,0.25,0.55,0.46,0.38,0.46,0.46,0.25" style="fill:rgb(35,31,32);font-family:ScalaLF-Regular;font-size:9.0px;stroke:none;">unique a-CVO-GO composite structure leads to a surface area </text>
   <text y="363.881" x="302.406,306.951,309.858,312.108,313.237,317.737,322.237,324.487,328.987,331.237,332.365,340.312" svgx:width="0.5,0.32,0.25,0.55,0.5,0.5,0.25,0.5,0.25,0.55,0.88,0.25" style="fill:rgb(35,31,32);font-family:ScalaLF-Regular;font-size:9.0px;stroke:none;">of 45.9 m </text>
   <text y="360.747" x="340.314" svgx:width="0.5" style="fill:rgb(35,31,32);font-family:ScalaLF-Regular;font-size:6.3px;stroke:none;">2</text>
   <text y="363.897" x="343.464,343.464,345.714,346.839,351.402" svgx:width="0.25,0.25,0.55,0.51,0.25" style="fill:rgb(35,31,32);font-family:ScalaLF-Regular;font-size:9.0px;stroke:none;"> g </text>
   <text y="360.747" x="351.406" svgx:width="0.55" style="fill:rgb(35,31,32);font-family:Symbol;font-size:6.3px;stroke:none;">−</text>
   <text y="360.747" x="354.865" svgx:width="0.5" style="fill:rgb(35,31,32);font-family:ScalaLF-Regular;font-size:6.3px;stroke:none;">1</text>
   <text y="363.897" x="358.015,358.019,360.269,361.397,364.178,369.047,371.585,376.148,381.278,384.671,388.82,391.07,392.199,397.257,401.757,404.007,406.257,407.385,412.164,417.294,422.136,426.978,431.523,434.917,437.608,440.146,445.375,449.938,452.188,453.316,456.664,461.893,464.8,469.345,472.738,480.685,484.798,487.489,490.027,494.572,499.801,502.582,504.832,507.082,508.211,513.611,518.723,522.872,525.122,526.25,528.941,534.053,538.202,541.145" svgx:width="0.25,0.25,0.55,0.31,0.57,0.28,0.51,0.57,0.38,0.46,0.25,0.55,0.56,0.5,0.25,0.25,0.55,0.56,0.57,0.54,0.54,0.5,0.38,0.3,0.28,0.58,0.51,0.25,0.55,0.37,0.58,0.32,0.5,0.38,0.88,0.46,0.3,0.28,0.5,0.58,0.31,0.25,0.25,0.55,0.6,0.57,0.46,0.25,0.55,0.3,0.57,0.46,0.38,0.28" style="fill:rgb(35,31,32);font-family:ScalaLF-Regular;font-size:9.0px;stroke:none;"> (Figure S9, Supporting Information). The ther-</text>
   <text y="374.895" x="302.404,310.351,314.896,319.459,322.852,326.965,330.943,333.481,341.428,345.577,348.268,351.661,355.648,357.898,358.878,361.659,367.059,373.764,376.545,378.795,379.775,383.645,388.775,392.168,396.146,400.295,402.545,403.525,406.918,411.067,415.045,419.194,423.307,425.71,429.499,431.749,432.729,435.42,440.532,444.645,447.336,449.586,450.566,453.258,458.37,462.518,464.768,465.749,469.619,474.164,479.393,482.084,486.233,491.462,494.153,496.403,497.383,501.928,504.835,507.085,508.065,512.628,516.021,520.134,524.976,530.088,534.237,539.466,543.615" svgx:width="0.88,0.5,0.51,0.38,0.46,0.44,0.28,0.88,0.46,0.3,0.38,0.44,0.25,0.55,0.31,0.6,0.75,0.31,0.25,0.55,0.43,0.57,0.38,0.44,0.46,0.25,0.55,0.38,0.46,0.44,0.46,0.46,0.27,0.42,0.25,0.55,0.3,0.57,0.46,0.3,0.25,0.55,0.3,0.57,0.46,0.25,0.55,0.43,0.5,0.58,0.3,0.46,0.58,0.3,0.25,0.55,0.5,0.32,0.25,0.55,0.51,0.38,0.46,0.54,0.57,0.46,0.58,0.46,0.25" style="fill:rgb(35,31,32);font-family:ScalaLF-Regular;font-size:9.0px;stroke:none;">mogravimetry (TG) curve reveals that the content of graphene </text>
   <text y="385.893" x="302.404,306.949,310.882,313.42,318.208,322.357,324.607,326.789,329.327,334.556,336.806,338.987,341.678,346.79,350.939,353.189,355.371,359.484,361.959,367.962,373.911,380.598,383.073,389.778,396.465,398.715,400.896,403.434,407.223,409.473,411.655,416.155,418.405,422.905,427.405,429.655,431.837,438.191,440.882,448.532,450.782,452.963,455.744,460.613,463.151,467.714,472.844,476.237,480.386,482.636,484.818,489.876,494.376,496.626,498.876,501.058,505.837,510.967,515.809,520.651,525.196,528.589,531.28,533.818,539.047,543.61" svgx:width="0.5,0.44,0.28,0.53,0.46,0.25,0.55,0.28,0.58,0.25,0.55,0.3,0.57,0.46,0.25,0.55,0.46,0.28,0.67,0.66,0.74,0.28,0.75,0.74,0.25,0.55,0.28,0.42,0.25,0.55,0.5,0.25,0.5,0.5,0.25,0.55,0.71,0.3,0.85,0.25,0.55,0.31,0.57,0.28,0.51,0.57,0.38,0.46,0.25,0.55,0.56,0.5,0.25,0.25,0.55,0.56,0.57,0.54,0.54,0.5,0.38,0.3,0.28,0.58,0.51,0.25" style="fill:rgb(35,31,32);font-family:ScalaLF-Regular;font-size:9.0px;stroke:none;">oxide in the a-CVO-GO is 8.06 wt% (Figure S7, Supporting </text>
   <text y="396.891" x="302.404,305.752,310.981,313.888,318.433,321.826,329.773,333.886,336.577,339.115,343.66,348.889,351.67,353.92" svgx:width="0.37,0.58,0.32,0.5,0.38,0.88,0.46,0.3,0.28,0.5,0.58,0.31,0.25,0.25" style="fill:rgb(35,31,32);font-family:ScalaLF-Regular;font-size:9.0px;stroke:none;">Information). </text>
   <text y="407.889" x="312.403,312.401,312.399,317.178,321.723,325.116,330.434,333.125,338.237,342.386,347.703,352.545,357.675,361.068,365.91,370.455,374.244,378.393,383.71,388.255,391.162,396.479,400.349,404.894,412.841,417.683,421.796,425.189,427.727,431.516,436.061,441.29,443.54,448.858,452.728,456.121,460.108,463.897,466.588,470.701,473.104,475.507,478.045,483.274,487.423,492.74,496.61,501.155,505.997,510.839,514.988,518.381,523.698,527.676,531.789,537.018,541.131" svgx:width="0.25,0.25,0.57,0.5,0.38,0.25,0.3,0.57,0.46,0.25,0.54,0.57,0.38,0.54,0.5,0.42,0.46,0.25,0.5,0.32,0.25,0.43,0.5,0.88,0.54,0.46,0.38,0.28,0.42,0.5,0.58,0.25,0.25,0.43,0.38,0.44,0.42,0.3,0.46,0.27,0.27,0.28,0.58,0.46,0.25,0.43,0.5,0.54,0.54,0.46,0.38,0.25,0.44,0.46,0.58,0.46,0.28" style="fill:rgb(35,31,32);font-family:ScalaLF-Regular;font-size:9.0px;stroke:none;"> For the purpose of comparison, crystalline copper vana-</text>
   <text y="418.887" x="302.404,307.192,309.73,314.86,322.807,325.057,326.566,331.111,335.044,337.582,342.37,346.519,348.769,350.279,353.06,357.848,361.997,367.226,371.771,374.462,378.611,383.399,385.649,387.158,391.271,395.06,397.31,398.819,402.689,405.164,411.167,417.116,423.803,426.584,428.834,430.344,432.882,436.671,438.921,440.43,445.272,448.665,452.814,457.656,461.769,465.162,469.311,474.099,476.349,477.858,482.592,486.579,488.829,490.339,494.452,499.681,504.91,509.059,513.172,515.575,518.113,523.342,527.905,530.155,531.664,534.355,539.467,543.616" svgx:width="0.53,0.28,0.57,0.88,0.25,0.55,0.5,0.44,0.28,0.53,0.46,0.25,0.55,0.31,0.53,0.46,0.58,0.5,0.3,0.46,0.53,0.25,0.55,0.46,0.42,0.25,0.55,0.43,0.28,0.67,0.66,0.74,0.31,0.25,0.55,0.28,0.42,0.25,0.55,0.54,0.38,0.46,0.54,0.46,0.38,0.46,0.53,0.25,0.55,0.53,0.44,0.25,0.55,0.46,0.58,0.58,0.46,0.46,0.27,0.28,0.58,0.51,0.25,0.55,0.3,0.57,0.46,0.25" style="fill:rgb(35,31,32);font-family:ScalaLF-Regular;font-size:9.0px;stroke:none;">dium oxide (denoted as c-CVO) is prepared by annealing the </text>
   <text y="429.885" x="302.404,307.246,310.639,314.788,318.658,323.788,327.181,330.97,335.515,338.908,341.158,343.828,346.366,351.595,353.845,356.516,360.629,363.167,366.56,368.81,371.48,375.593,378.284,380.534,383.204,387.704,392.204,396.704" svgx:width="0.54,0.38,0.46,0.43,0.57,0.38,0.42,0.5,0.38,0.25,0.55,0.28,0.58,0.25,0.55,0.46,0.28,0.38,0.25,0.55,0.46,0.3,0.25,0.55,0.5,0.5,0.5,0.25" style="fill:rgb(35,31,32);font-family:ScalaLF-Regular;font-size:9.0px;stroke:none;">precursor in air at 450 </text>
   <text y="429.885" x="401.625" svgx:width="0.4" style="fill:rgb(35,31,32);font-family:Symbol;font-size:9.0px;stroke:none;">°</text>
   <text y="429.885" x="405.225,411.228,413.478,415.728,418.398,423.798,428.91,433.059,435.309,437.979,443.919,449.805,456.465,458.715,461.385,466.227,470.34,473.031,475.722,479.871,483.264,488.493,490.743,493.414,496.195,501.064,503.602,508.165,513.295,516.688,520.837,523.087,525.757,530.815,535.315,541.363,543.613" svgx:width="0.67,0.25,0.25,0.55,0.6,0.57,0.46,0.25,0.55,0.66,0.65,0.74,0.25,0.55,0.54,0.46,0.3,0.3,0.46,0.38,0.58,0.25,0.55,0.31,0.57,0.28,0.51,0.57,0.38,0.46,0.25,0.55,0.56,0.5,0.67,0.25,0.25" style="fill:rgb(35,31,32);font-family:ScalaLF-Regular;font-size:9.0px;stroke:none;">C. The XRD pattern (Figure S8A, </text>
   <text y="440.883" x="302.404,307.183,312.313,317.155,321.997,326.542,329.935,332.626,335.164,340.393,344.956,347.097,350.445,355.674,358.581,363.126,366.519,374.466,378.579,381.27,383.808,388.353,393.582,396.363,398.504,403.049,405.956,408.098,410.789,415.901,420.049,422.191,426.061,428.536,434.539,440.488,447.175,449.316,457.263,461.376,464.067,467.937,473.049,477.198,480.987,483.128,489.482,493.631,496.034,498.437,500.578,506.932,509.47,512.161,517.273,519.414,522.105,527.217,531.33,534.021,536.162,540.707,543.614" svgx:width="0.56,0.57,0.54,0.54,0.5,0.38,0.3,0.28,0.58,0.51,0.25,0.37,0.58,0.32,0.5,0.38,0.88,0.46,0.3,0.28,0.5,0.58,0.31,0.25,0.5,0.32,0.25,0.3,0.57,0.46,0.25,0.43,0.28,0.67,0.66,0.74,0.25,0.88,0.46,0.3,0.43,0.57,0.46,0.42,0.25,0.71,0.46,0.27,0.27,0.25,0.71,0.28,0.3,0.57,0.25,0.3,0.57,0.46,0.3,0.25,0.5,0.32,0.25" style="fill:rgb(35,31,32);font-family:ScalaLF-Regular;font-size:9.0px;stroke:none;">Supporting Information) of the c-CVO matches well with that of </text>
   <text y="451.881" x="302.404,308.407,313.537" svgx:width="0.67,0.57,0.25" style="fill:rgb(35,31,32);font-family:ScalaLF-Regular;font-size:9.0px;stroke:none;">Cu </text>
   <text y="453.697" x="313.541" svgx:width="0.5" style="fill:rgb(35,31,32);font-family:ScalaLF-Regular;font-size:6.3px;stroke:none;">3</text>
   <text y="451.897" x="316.691,316.691,322.64" svgx:width="0.25,0.66,0.25" style="fill:rgb(35,31,32);font-family:ScalaLF-Regular;font-size:9.0px;stroke:none;"> V </text>
   <text y="453.697" x="322.64" svgx:width="0.5" style="fill:rgb(35,31,32);font-family:ScalaLF-Regular;font-size:6.3px;stroke:none;">2</text>
   <text y="451.897" x="325.79,325.79,332.477" svgx:width="0.25,0.74,0.25" style="fill:rgb(35,31,32);font-family:ScalaLF-Regular;font-size:9.0px;stroke:none;"> O </text>
   <text y="453.697" x="332.477" svgx:width="0.5" style="fill:rgb(35,31,32);font-family:ScalaLF-Regular;font-size:6.3px;stroke:none;">8</text>
   <text y="451.897" x="335.627,335.631,338.154,340.935,344.211,350.214,355.614,362.274,367.332,369.856,373.726,377.839,381.232,386.02,388.543,393.772,398.317,400.567,403.091,407.591,412.091,416.591,421.091,425.591,430.091,434.591,439.091,443.591,448.091,452.591,455.372,457.622,460.146,465.546,470.658,474.807,477.33,481.2,483.675,489.678,495.627,502.314,504.838,507.619,513.622,518.752" svgx:width="0.25,0.25,0.31,0.36,0.67,0.6,0.74,0.56,0.25,0.43,0.46,0.38,0.53,0.25,0.58,0.5,0.25,0.25,0.5,0.5,0.5,0.5,0.5,0.5,0.5,0.5,0.5,0.5,0.5,0.31,0.25,0.25,0.6,0.57,0.46,0.25,0.43,0.28,0.67,0.66,0.74,0.25,0.31,0.67,0.57,0.25" style="fill:rgb(35,31,32);font-family:ScalaLF-Regular;font-size:9.0px;stroke:none;"> (JCPDS card no. 00–049–0689). The c-CVO (Cu </text>
   <text y="453.697" x="518.748" svgx:width="0.5" style="fill:rgb(35,31,32);font-family:ScalaLF-Regular;font-size:6.3px;stroke:none;">3</text>
   <text y="451.897" x="521.898,521.898,527.847" svgx:width="0.25,0.66,0.25" style="fill:rgb(35,31,32);font-family:ScalaLF-Regular;font-size:9.0px;stroke:none;"> V </text>
   <text y="453.697" x="527.846" svgx:width="0.5" style="fill:rgb(35,31,32);font-family:ScalaLF-Regular;font-size:6.3px;stroke:none;">2</text>
   <text y="451.897" x="530.996,530.996,537.683" svgx:width="0.25,0.74,0.25" style="fill:rgb(35,31,32);font-family:ScalaLF-Regular;font-size:9.0px;stroke:none;"> O </text>
   <text y="453.697" x="537.683" svgx:width="0.5" style="fill:rgb(35,31,32);font-family:ScalaLF-Regular;font-size:6.3px;stroke:none;">8</text>
   <text y="451.897" x="540.833,540.833,543.614" svgx:width="0.25,0.31,0.25" style="fill:rgb(35,31,32);font-family:ScalaLF-Regular;font-size:9.0px;stroke:none;"> ) </text>
   <text y="462.895" x="302.405,306.194,311.306,315.419,318.812,322.961,326.75,329.0,333.575,336.266,341.378,345.527,347.777,352.351,356.14,360.253,368.2,372.349,374.599,379.174,385.177,390.307,393.988,399.937,402.187,406.762,410.155,414.268,416.959,419.497,424.042,426.292,430.867,437.221,439.759,442.45,447.562,449.812,454.386,458.499,460.974,466.977,472.926,479.613,482.088,488.793,495.48,497.73,502.305,505.086,509.586,513.699,518.433,520.836,524.985,527.235,531.81,536.868,541.368,543.618" svgx:width="0.42,0.57,0.46,0.38,0.46,0.42,0.25,0.55,0.3,0.57,0.46,0.25,0.55,0.42,0.46,0.88,0.46,0.25,0.55,0.67,0.57,0.41,0.66,0.25,0.55,0.38,0.46,0.3,0.28,0.5,0.25,0.55,0.71,0.28,0.3,0.57,0.25,0.55,0.46,0.28,0.67,0.66,0.74,0.28,0.75,0.74,0.25,0.55,0.31,0.6,0.46,0.53,0.27,0.46,0.25,0.55,0.56,0.5,0.25,0.25" style="fill:rgb(35,31,32);font-family:ScalaLF-Regular;font-size:9.0px;stroke:none;">shares the same Cu/V ratio with a-CVO-GO (Table S1, </text>
   <text y="473.893" x="302.405,307.184,312.314,317.156,321.998,326.543,329.936,332.627,335.165,340.394,344.957,347.207,352.929,356.277,361.506,364.413,368.958,372.351,380.298,384.411,387.102,389.64,394.185,399.414,402.195,404.445,406.695,412.418,417.818,422.93,427.078,429.328,435.051,442.998,447.543,450.936,455.778,460.89,465.435,467.838,472.383,476.946,480.933,483.183,488.905,493.45,496.357,498.607,504.329,508.199,510.674,516.677,522.626,529.313,531.563,537.285,539.823,543.612" svgx:width="0.56,0.57,0.54,0.54,0.5,0.38,0.3,0.28,0.58,0.51,0.25,0.55,0.37,0.58,0.32,0.5,0.38,0.88,0.46,0.3,0.28,0.5,0.58,0.31,0.25,0.25,0.55,0.6,0.57,0.46,0.25,0.55,0.88,0.5,0.38,0.54,0.57,0.5,0.27,0.5,0.51,0.44,0.25,0.55,0.5,0.32,0.25,0.55,0.43,0.28,0.67,0.66,0.74,0.25,0.55,0.28,0.42,0.25" style="fill:rgb(35,31,32);font-family:ScalaLF-Regular;font-size:9.0px;stroke:none;">Supporting Information). The morphology of c-CVO is </text>
   <text y="58.555" x="459.005,464.533,470.061,474.949,476.877,483.821,487.549,489.941,493.605,496.221,498.117,501.845,503.677,507.173,511.757,513.653,517.317,522.845,526.341,528.269,531.741,535.789" svgx:width="0.7,0.7,0.7,0.25,0.88,0.48,0.31,0.47,0.34,0.25,0.48,0.24,0.45,0.58,0.25,0.47,0.7,0.45,0.25,0.44,0.52,0.83" style="fill:rgb(35,31,32);font-family:ScalaSansLF-Bold;font-size:8.0px;stroke:none;">www.MaterialsViews.com</text>
   <text y="50.499" x="47.125,52.653,58.181,63.069,64.997,68.725,72.893,76.525,80.253,84.533,88.005,91.669,95.837,99.333,102.805,104.701,108.365,112.645,116.117,119.781,121.709,125.181,129.229" svgx:width="0.7,0.7,0.7,0.25,0.48,0.53,0.46,0.48,0.55,0.44,0.47,0.53,0.45,0.44,0.25,0.47,0.55,0.44,0.47,0.25,0.44,0.52,0.83" style="fill:rgb(35,31,32);font-family:ScalaSansLF-Bold;font-size:8.0px;stroke:none;">www.advancedscience.com</text>
   <text y="747.935" x="467.986,472.151,475.595,477.996" svgx:width="0.6,0.49,0.41,0.25" style="fill:rgb(35,31,32);font-family:ScalaSansLF-Italic;font-size:7.0px;stroke:none;">Adv.</text>
   <text y="747.935" x="479.753" svgx:width="0.25" style="fill:rgb(35,31,32);font-family:ScalaSansLF-Regular;font-size:7.0px;stroke:none;"> </text>
   <text y="747.935" x="481.678,485.416,488.174,489.798" svgx:width="0.53,0.39,0.23,0.25" style="fill:rgb(35,31,32);font-family:ScalaSansLF-Italic;font-size:7.0px;stroke:none;">Sci.</text>
   <text y="747.935" x="491.555" svgx:width="0.25" style="fill:rgb(35,31,32);font-family:ScalaSansLF-Regular;font-size:7.0px;stroke:none;"> </text>
   <text y="747.935" x="493.48,496.98,500.48,503.98" svgx:width="0.5,0.5,0.5,0.5" style="fill:rgb(35,31,32);font-family:ScalaSansLF-Bold;font-size:7.0px;stroke:none;">2015</text>
   <text y="747.935" x="507.48,509.244" svgx:width="0.25,0.25" style="fill:rgb(35,31,32);font-family:ScalaSansLF-Regular;font-size:7.0px;stroke:none;">, </text>
   <text y="747.935" x="511.169" svgx:width="0.5" style="fill:rgb(35,31,32);font-family:ScalaSansLF-Italic;font-size:7.0px;stroke:none;">2</text>
   <text y="747.935" x="514.669,516.433,518.358,521.851,525.351,528.851,532.351,535.844,539.344" svgx:width="0.25,0.25,0.5,0.5,0.5,0.5,0.5,0.5,0.5" style="fill:rgb(35,31,32);font-family:ScalaSansLF-Regular;font-size:7.0px;stroke:none;">, 1500154</text>
  </g>
  <rect style="stroke:blue;stroke-width:0.3;" x="54.954" y="88.184" height="166.572" width="480.132" title="2"/>
  <text y="88.184" class="image" id="image.2.3" width="480" height="166" x="54.954">image.2.3.55_535.88_255</text>
  <g begin="text">
   <text y="252.156" x="47.001" svgx:width="0.25" style="fill:rgb(35,31,32);font-family:ScalaSansLF-Regular;font-size:8.0px;stroke:none;"> </text>
   <text y="252.156" x="47.001,51.177,53.153,57.209,61.569,64.266,68.01,70.21,74.21,76.218" svgx:width="0.52,0.25,0.51,0.55,0.34,0.47,0.25,0.5,0.25,0.25" style="fill:rgb(35,31,32);font-family:ScalaSansLF-Bold;font-size:8.0px;stroke:none;">Figure 1. </text>
   <text y="252.156" x="76.217,76.217,78.217,80.217,80.217,84.49,88.042,92.33,96.082,102.858,106.666,109.138,111.114,114.666,116.866,118.841,120.754,122.666,126.994,130.57,133.042,135.738,139.546,142.018,143.993,148.258,152.618,154.818,159.082,161.338,163.538,166.01,170.298,174.049,176.249,179.826,183.066,187.426,189.898,194.186,197.938,201.514,203.49,207.066,209.266,213.609,216.305,220.569,224.121,227.873,232.185,236.513,239.209,242.961,245.161,249.425,251.681,253.881,257.689,259.897,264.737,269.401,275.505,277.714,283.378,289.482,291.682,295.49,299.85,304.162,306.362,309.914,312.122,316.962,321.626,327.73" svgx:width="0.25,0.25,0.55,0.25,0.53,0.44,0.54,0.47,0.85,0.48,0.31,0.25,0.44,0.25,0.25,0.24,0.24,0.54,0.45,0.31,0.34,0.48,0.31,0.25,0.53,0.55,0.25,0.53,0.28,0.25,0.31,0.54,0.47,0.25,0.45,0.41,0.55,0.31,0.54,0.47,0.45,0.25,0.45,0.25,0.54,0.34,0.53,0.44,0.47,0.54,0.54,0.34,0.47,0.25,0.53,0.28,0.25,0.48,0.28,0.61,0.58,0.76,0.28,0.71,0.76,0.25,0.48,0.55,0.54,0.25,0.44,0.28,0.61,0.58,0.76,0.25" style="fill:rgb(35,31,32);font-family:ScalaSansLF-Regular;font-size:8.0px;stroke:none;"> Schematic illustration of the synthesis procedure of a-CVO-GO and c-CVO.</text>
  </g>
  <rect style="stroke:blue;stroke-width:0.3;" x="115.554" y="507.344" height="211.212" width="360.072" title="2"/>
  <text y="507.344" class="image" id="image.2.4" width="360" height="211" x="115.554">image.2.4.116_476.507_719</text>
  <g begin="text">
   <text y="715.96" x="47.542" svgx:width="0.25" style="fill:rgb(35,31,32);font-family:ScalaSansLF-Regular;font-size:8.0px;stroke:none;"> </text>
   <text y="715.96" x="47.542,51.718,53.694,57.75,62.11,64.806,68.55,70.246,74.246,76.254" svgx:width="0.52,0.25,0.51,0.55,0.34,0.47,0.25,0.5,0.25,0.25" style="fill:rgb(35,31,32);font-family:ScalaSansLF-Bold;font-size:8.0px;stroke:none;">Figure 2. </text>
   <text y="715.96" x="76.254,76.254,80.253,80.252,85.012,87.916,89.611,94.187,98.859,104.547,106.242,110.586,114.394,116.866,119.338,123.09,125.786,130.146,131.842,136.106,138.362,140.057,142.529,146.817,150.569,152.264,156.072,158.28,163.12,167.784,173.888,176.096,181.76,187.864,189.872,191.567,196.295,198.311,203.151,206.055,207.75,212.022,216.334,223.358,225.054,227.03,233.806,237.614,241.67,245.422,247.117,250.925,255.285,259.597,261.292,266.98,268.996,273.308,276.212,277.907,282.219,286.531,293.555,295.25,297.226,304.002,307.81,311.866,315.618,319.194,320.89,325.154,327.41,329.105,332.913,339.689,343.953,346.649,350.993,355.281,359.545,363.873,367.449,369.144,372.696,376.96,381.304,385.648,389.4,392.096,393.791,397.367,401.175,405.535,409.343,413.655,415.631,419.959,426.735,428.43,432.694,435.91,437.886,442.198,445.951,447.958,449.654,453.83,456.734,458.429,462.701,467.013,474.037,475.732,477.708,484.484,488.292,492.348,496.1,497.795,502.059,504.315,506.01,509.819,512.026,516.867,521.531,527.63,529.838,535.502,541.606" svgx:width="0.25,0.25,0.25,0.6,0.36,0.25,0.57,0.58,0.71,0.25,0.54,0.48,0.31,0.31,0.47,0.34,0.55,0.25,0.53,0.28,0.25,0.31,0.54,0.47,0.25,0.48,0.28,0.61,0.58,0.76,0.28,0.71,0.76,0.25,0.25,0.59,0.25,0.61,0.36,0.25,0.53,0.54,0.88,0.25,0.25,0.85,0.48,0.51,0.47,0.25,0.48,0.55,0.54,0.25,0.71,0.25,0.54,0.36,0.25,0.54,0.54,0.88,0.25,0.25,0.85,0.48,0.51,0.47,0.45,0.25,0.53,0.28,0.25,0.48,0.85,0.53,0.34,0.54,0.54,0.53,0.54,0.45,0.25,0.44,0.53,0.54,0.54,0.47,0.34,0.25,0.45,0.48,0.55,0.48,0.54,0.25,0.54,0.85,0.25,0.53,0.4,0.25,0.54,0.47,0.25,0.25,0.52,0.36,0.25,0.53,0.54,0.88,0.25,0.25,0.85,0.48,0.51,0.47,0.25,0.53,0.28,0.25,0.48,0.28,0.61,0.58,0.76,0.28,0.71,0.76,0.25" style="fill:rgb(35,31,32);font-family:ScalaSansLF-Regular;font-size:8.0px;stroke:none;"> A) XRD pattern of the a-CVO-GO. B,C) SEM image and D,E) TEM images of amorphous copper vanadium oxide. F) SEM image of a-CVO-GO.</text>
  </g>
 </g>
</svg>
