<?xml version="1.0" encoding="UTF-8"?>
<svg height="758.304" width="4482.134" xmlns="http://www.w3.org/2000/svg">
 <g id="page" xmlns:svgx="http://www.xml-cml.org/schema/svgx">
  <g begin="text">
   <text y="70.842" transform="matrix(0.0,1.0,-1.0,0.0,645.347,-503.663)" rotateDegrees="90" matrix="[0.0,-12.0,12.0,0.0,574.505,712.1584]" x="574.505,566.561,555.641,542.573,529.505,519.653,509.117,504.209,496.265,487.277,480.053,475.145,464.22499999999997" svgx:width="0.66,0.9,1.08,1.08,0.81,0.87,0.4,0.66,0.82,0.6,0.4,0.9,0.87" style="fill:rgb(255,255,255);font-family:Futura-ExtraBold;font-size:12.0px;stroke:none;">COMMUNICATION</text>
  </g>
  <rect style="stroke:blue;stroke-width:0.3;" x="51.054" y="35.924" height="29.832" width="58.703" title="3"/>
  <text y="35.924" class="image" id="image.3.1" width="58" height="29" x="51.054">image.3.1.51_110.36_66</text>
  <g begin="text">
   <text y="747.79" x="499.259,502.526,507.026,509.276,514.073,516.611,518.861,523.361,526.628" svgx:width="0.36,0.5,0.25,0.53,0.28,0.25,0.5,0.36,0.25" style="fill:rgb(35,31,32);font-family:ScalaSansLF-Regular;font-size:9.0px;stroke:none;">(3 of 7) </text>
   <text y="747.79" x="531.128,535.628,540.128,544.628,549.128,553.628,558.128" svgx:width="0.5,0.5,0.5,0.5,0.5,0.5,0.5" style="fill:rgb(35,31,32);font-family:ScalaSansLF-Bold;font-size:9.0px;stroke:none;">1500154</text>
   <text y="748.285" x="419.452,424.359,426.088,427.761,431.037,434.068,437.68,441.495,443.168,444.897,448.712,451.988,453.661,455.39,459.016,461.375,464.707,467.066,469.537,471.294,474.402,478.014" svgx:width="0.7,0.25,0.24,0.47,0.43,0.52,0.55,0.24,0.25,0.55,0.47,0.24,0.25,0.52,0.34,0.48,0.34,0.43,0.25,0.44,0.52,0.83" style="fill:rgb(35,31,32);font-family:ScalaSansLF-Bold;font-size:7.0px;stroke:none;">wileyonlinelibrary.com</text>
   <text y="747.304" x="150.013" svgx:width="1.01" style="fill:rgb(35,31,32);font-family:ScalaSansLF-Regular;font-size:6.0px;stroke:none;">©</text>
   <text y="748.304" x="156.067,157.992,161.492,164.992,168.485,171.985,173.91,177.683,181.435,184.718,186.643,190.808,194.595,196.758,200.51,204.241,206.6,209.729,211.486,213.411,217.303,221.09,224.779,226.452,228.181,231.31,235.062,238.345,242.118,244.043,247.732,250.567,252.492,258.54,260.64,264.105,267.878,271.728,273.66,277.741,281.976,287.373,289.298,292.959,296.242,298.601,300.274,303.606,307.155,309.08,314.036,319.965,323.654,329.051,330.976,335.883,337.808,341.868,345.599,347.356,349.281,353.278,358.234,361.566,365.731,367.495,369.42,375.048,378.331,380.06,383.875,387.627,390.91,392.639" svgx:width="0.25,0.5,0.5,0.5,0.5,0.25,0.54,0.54,0.47,0.25,0.6,0.54,0.31,0.54,0.53,0.34,0.45,0.25,0.25,0.56,0.54,0.53,0.24,0.25,0.45,0.54,0.47,0.54,0.25,0.53,0.41,0.25,0.86,0.3,0.5,0.54,0.55,0.28,0.58,0.61,0.77,0.25,0.58,0.47,0.34,0.24,0.48,0.51,0.25,0.71,0.85,0.53,0.77,0.25,0.7,0.25,0.61,0.53,0.25,0.25,0.57,0.71,0.48,0.6,0.25,0.25,0.86,0.47,0.25,0.55,0.54,0.47,0.25,0.85" style="fill:rgb(35,31,32);font-family:ScalaSansLF-Regular;font-size:7.0px;stroke:none;"> 2015 The Authors. Published by WILEY-VCH Verlag GmbH &amp; Co. KGaA, Weinheim</text>
  </g>
  <path style="fill:none;stroke:rgb(35,31,32);stroke-width:1.0;" d="M466.460 39.260 L112.310 39.260 "/>
  <rect style="stroke:blue;stroke-width:0.3;" x="472.134" y="30.704" height="28.872" width="76.272" title="3"/>
  <text y="30.704" class="image" id="image.3.2" width="76" height="28" x="472.134">image.3.2.472_548.31_60</text>
  <g begin="text">
   <text y="572.897" x="50.386,54.256,59.368,63.481,66.874,70.987,74.857,77.548,81.697,85.09,87.628,91.849,95.998,100.786,103.036,107.825,112.559,116.546,118.796,123.586,128.644,133.873,141.982,144.232,149.022,151.803,156.672,159.21,163.773,168.903,172.296,176.445,178.695,183.485,188.543,193.043,198.758,201.008,203.258,208.048,212.827,217.957,222.799,227.641,232.186,235.579,238.27,240.808,246.037,250.6,252.85,257.639,260.987,266.216,269.123,273.668,277.061,285.008,289.121" svgx:width="0.43,0.57,0.46,0.38,0.46,0.43,0.3,0.46,0.38,0.28,0.47,0.46,0.53,0.25,0.55,0.53,0.44,0.25,0.55,0.56,0.58,0.9,0.25,0.55,0.31,0.57,0.28,0.51,0.57,0.38,0.46,0.25,0.55,0.56,0.5,0.63,0.25,0.25,0.55,0.56,0.57,0.54,0.54,0.5,0.38,0.3,0.28,0.58,0.51,0.25,0.55,0.37,0.58,0.32,0.5,0.38,0.88,0.46,0.28" style="fill:rgb(35,31,32);font-family:ScalaLF-Regular;font-size:9.0px;stroke:none;">characterized by SEM (Figure S8B, Supporting Informa-</text>
   <text y="583.895" x="50.386,53.077,55.615,60.16,65.389,68.17,70.42,72.67,75.289,81.643,86.755,89.293,93.163,98.275,100.525,103.145,106.934,112.046,116.591,122.945,126.734,128.98399999999998,131.604,136.833,140.946,146.175,150.72,155.562,159.675,163.068,165.759,168.297,172.167,174.57,178.719,181.194,185.064,189.609,194.838,198.627,201.318,204.711,209.841,213.711,216.402,220.551,225.339,227.589,230.209,233.998,238.84,243.952,248.101,251.494,255.643,259.432,261.682,264.302,266.84,272.069,275.858,278.549,282.698,286.811,291.599" svgx:width="0.3,0.28,0.5,0.58,0.31,0.25,0.25,0.55,0.71,0.57,0.28,0.43,0.57,0.25,0.55,0.42,0.57,0.5,0.71,0.42,0.25,0.55,0.58,0.46,0.58,0.5,0.54,0.46,0.38,0.3,0.28,0.43,0.27,0.46,0.28,0.43,0.5,0.58,0.42,0.3,0.38,0.57,0.43,0.3,0.46,0.53,0.25,0.55,0.42,0.54,0.57,0.46,0.38,0.46,0.42,0.25,0.55,0.28,0.58,0.42,0.3,0.46,0.46,0.53,0.25" style="fill:rgb(35,31,32);font-family:ScalaLF-Regular;font-size:9.0px;stroke:none;">tion), which shows nanoparticle-constructed spheres instead </text>
   <text y="594.893" x="50.386,54.931,57.838,60.088,64.362,69.591,73.704,78.933,83.478,87.267,92.379,96.528,100.677,103.368,105.843,109.713,114.258,119.487,123.276,125.967,129.36,134.49,138.36,141.051,145.2,149.988,152.238,156.512,161.741,165.854,171.083,175.628,178.24,180.857,185.402,191.756,195.905,199.298,203.087,205.337,207.587,211.86,218.493,223.038,225.288,229.561,234.124,237.517,241.63,246.472,251.584,255.733,260.962,265.111,267.361,271.634,276.179,280.112,282.65,287.438,291.587" svgx:width="0.5,0.32,0.25,0.55,0.58,0.46,0.58,0.5,0.42,0.57,0.46,0.46,0.3,0.28,0.43,0.5,0.58,0.42,0.3,0.38,0.57,0.43,0.3,0.46,0.53,0.25,0.55,0.58,0.46,0.58,0.5,0.58,0.25,0.5,0.71,0.46,0.38,0.42,0.25,0.25,0.55,0.74,0.5,0.25,0.55,0.51,0.38,0.46,0.54,0.57,0.46,0.58,0.46,0.25,0.55,0.5,0.44,0.28,0.53,0.46,0.25" style="fill:rgb(35,31,32);font-family:ScalaLF-Regular;font-size:9.0px;stroke:none;">of nanosheet-constructed nanoﬂ owers. No graphene oxide </text>
   <text y="605.891" x="50.386,55.615,59.728,64.957,69.502,73.291,78.403,82.552,86.701,89.392,91.642,94.358,96.896,100.685,102.935,105.651,110.196,114.93,118.719,122.868,126.261,130.239,134.388,139.176,141.426,144.142,148.687,153.916,156.166,158.882,161.573,166.685,170.834,173.084,175.801,179.59,184.72,188.113,191.02,195.133,199.003,203.152,205.402,207.652,210.368,216.722,221.834,224.372,228.242,233.354,235.604,238.32,240.858,246.087,250.875,253.413,257.283,261.396,264.087,268.236,272.025,274.275,276.991,279.682,284.794,288.907,291.598" svgx:width="0.58,0.46,0.58,0.5,0.42,0.57,0.46,0.46,0.3,0.25,0.55,0.28,0.42,0.25,0.55,0.5,0.53,0.42,0.46,0.38,0.44,0.46,0.53,0.25,0.55,0.5,0.58,0.25,0.55,0.3,0.57,0.46,0.25,0.55,0.42,0.57,0.38,0.32,0.46,0.43,0.46,0.25,0.25,0.55,0.71,0.57,0.28,0.43,0.57,0.25,0.55,0.28,0.58,0.53,0.28,0.43,0.46,0.3,0.46,0.42,0.25,0.55,0.3,0.57,0.46,0.3,0.25" style="fill:rgb(35,31,32);font-family:ScalaLF-Regular;font-size:9.0px;stroke:none;">nanosheet is observed on the surface, which indicates that </text>
   <text y="616.889" x="50.386,53.077,58.189,62.338,64.588,68.335,72.898,76.291,80.404,85.246,90.358,94.507,99.736,103.885,106.135,109.883,114.428,118.361,120.899,125.687,129.836,132.086,135.833,138.371,142.16,144.41,148.158,151.551,155.7,163.647,168.192,172.17,176.319,181.107,183.357,187.105,191.893,197.023,200.416,202.954,208.183,212.746,214.996,218.743,221.434,226.546,230.695,232.945,236.693,240.563,244.676,247.079,250.949,253.487,258.716,262.829,265.52,268.058,272.603,277.832,280.082,283.829,286.367,291.596" svgx:width="0.3,0.57,0.46,0.25,0.55,0.51,0.38,0.46,0.54,0.57,0.46,0.58,0.46,0.25,0.55,0.5,0.44,0.28,0.53,0.46,0.25,0.55,0.28,0.42,0.25,0.55,0.38,0.46,0.88,0.5,0.44,0.46,0.53,0.25,0.55,0.53,0.57,0.38,0.28,0.58,0.51,0.25,0.55,0.3,0.57,0.46,0.25,0.55,0.43,0.46,0.27,0.43,0.28,0.58,0.46,0.3,0.28,0.5,0.58,0.25,0.55,0.28,0.58,0.25" style="fill:rgb(35,31,32);font-family:ScalaLF-Regular;font-size:9.0px;stroke:none;">the graphene oxide is removed during the calcination in </text>
   <text y="627.887" x="50.386,54.499,57.037,59.71,61.96,64.21000000000001,67.297,70.645,75.874,78.124,81.211,85.324,90.112,94.9,97.438,100.129,102.667,107.212,112.441,114.691,116.941,120.028,124.816,129.946,134.095,136.345,139.432,142.123,146.668,148.918,152.005,154.696,159.808,163.957,166.207,169.294,173.164,177.277,179.68,183.55,186.088,191.317,195.43,198.121,200.659,205.204,210.433,212.683,215.77,218.308,223.537,228.325,233.455,237.325,241.474,246.262,248.512,251.599,255.469,258.862,262.849,266.638,269.329,273.442,275.845,278.248,280.786,285.007,289.12" svgx:width="0.46,0.28,0.38,0.25,0.25,0.55,0.37,0.58,0.25,0.55,0.46,0.53,0.53,0.28,0.3,0.28,0.5,0.58,0.25,0.25,0.55,0.53,0.57,0.46,0.25,0.55,0.3,0.5,0.25,0.55,0.3,0.57,0.46,0.25,0.55,0.43,0.46,0.27,0.43,0.28,0.58,0.46,0.3,0.28,0.5,0.58,0.25,0.55,0.28,0.58,0.53,0.57,0.43,0.46,0.53,0.25,0.55,0.43,0.38,0.44,0.42,0.3,0.46,0.27,0.27,0.28,0.47,0.46,0.28" style="fill:rgb(35,31,32);font-family:ScalaLF-Regular;font-size:9.0px;stroke:none;">air. In addition, due to the calcination induced crystalliza-</text>
   <text y="638.885" x="50.386,53.077,55.615,60.16,65.389,67.639,69.889,72.606,75.297,80.409,84.558,86.808,89.525,93.395,95.87,101.873,107.822,114.509,116.759,119.476,123.265,128.377,132.922,139.276,143.065,145.315,148.032,152.145,154.395,157.112,160.901,163.439,168.002,173.231,175.769,178.388,181.015,184.885,188.998,194.227,196.918,199.321,203.308,205.558,208.275,211.668,215.817,220.605,225.735,229.605,233.754,238.542,240.792,243.509,247.298,252.428,255.821,258.728,262.841,266.711,270.86,273.11,275.828,279.941,283.334,287.483,291.596" svgx:width="0.3,0.28,0.5,0.58,0.25,0.25,0.55,0.3,0.57,0.46,0.25,0.55,0.43,0.28,0.67,0.66,0.74,0.25,0.55,0.42,0.57,0.5,0.71,0.42,0.25,0.55,0.46,0.25,0.55,0.42,0.28,0.51,0.58,0.28,0.58,0.25,0.43,0.46,0.58,0.3,0.27,0.44,0.25,0.55,0.38,0.46,0.53,0.57,0.43,0.46,0.53,0.25,0.55,0.42,0.57,0.38,0.32,0.46,0.43,0.46,0.25,0.55,0.46,0.38,0.46,0.46,0.25" style="fill:rgb(35,31,32);font-family:ScalaLF-Regular;font-size:9.0px;stroke:none;">tion, the c-CVO shows a signiﬁ cantly reduced surface area </text>
   <text y="649.883" x="50.386,53.077,58.189,62.302,67.531,69.781,73.32,76.011,81.123,85.236,87.927,90.177,93.717,98.262,101.169,103.419,106.959,111.072,113.547,119.55,125.499,132.186,134.661,141.366,148.053,150.303,153.842,156.623,161.123,165.623,167.873,172.373,174.623,178.163,182.141,185.93,188.18,191.72,196.22,200.72,202.97,207.47,209.72,213.26,221.207" svgx:width="0.3,0.57,0.46,0.58,0.25,0.55,0.3,0.57,0.46,0.3,0.25,0.55,0.5,0.32,0.25,0.55,0.46,0.28,0.67,0.66,0.74,0.28,0.75,0.74,0.25,0.55,0.31,0.5,0.5,0.25,0.5,0.25,0.55,0.44,0.42,0.25,0.55,0.5,0.5,0.25,0.5,0.25,0.55,0.88,0.25" style="fill:rgb(35,31,32);font-family:ScalaLF-Regular;font-size:9.0px;stroke:none;">than that of a-CVO-GO (15.6 vs 45.9 m </text>
   <text y="646.747" x="221.203" svgx:width="0.5" style="fill:rgb(35,31,32);font-family:ScalaLF-Regular;font-size:6.3px;stroke:none;">2</text>
   <text y="649.897" x="224.353,224.353,226.603,230.14,234.703" svgx:width="0.25,0.25,0.55,0.51,0.25" style="fill:rgb(35,31,32);font-family:ScalaLF-Regular;font-size:9.0px;stroke:none;"> g </text>
   <text y="646.747" x="234.705" svgx:width="0.55" style="fill:rgb(35,31,32);font-family:Symbol;font-size:6.3px;stroke:none;">−</text>
   <text y="646.747" x="238.164" svgx:width="0.5" style="fill:rgb(35,31,32);font-family:ScalaLF-Regular;font-size:6.3px;stroke:none;">1</text>
   <text y="649.897" x="241.314,241.317,243.567,245.817,249.356,254.225,256.763,261.326,266.456,269.849,273.998,276.248,279.788,284.846,289.346,291.596" svgx:width="0.25,0.25,0.25,0.55,0.57,0.28,0.51,0.57,0.38,0.46,0.25,0.55,0.56,0.5,0.25,0.25" style="fill:rgb(35,31,32);font-family:ScalaLF-Regular;font-size:9.0px;stroke:none;"> , Figure S9, </text>
   <text y="660.895" x="50.388,55.167,60.297,65.139,69.981,74.526,77.919,80.61,83.148,88.377,92.94,95.415,98.763,103.992,106.899,111.444,114.837,122.784,126.897,129.588,132.126,136.671,141.9,144.681,146.931" svgx:width="0.56,0.57,0.54,0.54,0.5,0.38,0.3,0.28,0.58,0.51,0.25,0.37,0.58,0.32,0.5,0.38,0.88,0.46,0.3,0.28,0.5,0.58,0.31,0.25,0.25" style="fill:rgb(35,31,32);font-family:ScalaLF-Regular;font-size:9.0px;stroke:none;">Supporting Information). </text>
   <text y="671.893" x="60.387,60.382,65.782,70.894,75.043,80.34,84.489,86.892,91.041,94.911,97.602,100.995,105.54,109.41,114.522,118.671,126.618,129.156,133.026,137.139,139.542,144.838,149.68,153.829,157.222,160.129,164.674,168.067,176.014,180.128,185.357,189.227,193.376,198.672,203.217,206.124,211.42,215.533,218.008,224.012,229.961,236.648,239.123,245.828,252.515,257.811,260.349,264.138,269.435,271.973,277.202,281.18,285.328,289.117" svgx:width="0.25,0.6,0.57,0.46,0.25,0.46,0.27,0.46,0.43,0.3,0.38,0.5,0.43,0.57,0.46,0.88,0.28,0.43,0.46,0.27,0.25,0.54,0.46,0.38,0.32,0.5,0.38,0.88,0.46,0.58,0.43,0.46,0.25,0.5,0.32,0.25,0.46,0.28,0.67,0.66,0.74,0.28,0.75,0.74,0.25,0.28,0.42,0.25,0.28,0.58,0.44,0.46,0.42,0.28" style="fill:rgb(35,31,32);font-family:ScalaLF-Regular;font-size:9.0px;stroke:none;"> The electrochemical performance of a-CVO-GO is inves-</text>
   <text y="682.891" x="50.388,53.079,55.617,60.18,64.293,66.984,71.133,75.921,78.171,79.799,84.533,88.52,90.77,92.398,96.511,100.3,104.089,108.238,116.185,120.919,123.322,125.86,131.089,135.652,137.902,139.53,145.533,151.419,155.919,160.419,164.919,169.419,171.669,173.297,177.167,181.712,184.25,189.479,191.729,193.357,197.227,201.376,203.779,206.182,208.432,210.061,215.191,218.98,221.518,226.747,231.31,233.56,235.188,237.591,240.129,242.82,247.932,250.47,255.6,263.547,265.797,267.425,270.332,274.877,277.415,279.818,282.068,283.696,287.809,291.598" svgx:width="0.3,0.28,0.51,0.46,0.3,0.46,0.53,0.25,0.55,0.53,0.44,0.25,0.55,0.46,0.42,0.42,0.46,0.88,0.53,0.27,0.28,0.58,0.51,0.25,0.55,0.67,0.65,0.5,0.5,0.5,0.5,0.25,0.55,0.43,0.5,0.28,0.58,0.25,0.55,0.43,0.46,0.27,0.27,0.25,0.55,0.57,0.42,0.28,0.58,0.51,0.25,0.55,0.27,0.28,0.3,0.57,0.28,0.57,0.88,0.25,0.55,0.32,0.5,0.28,0.27,0.25,0.55,0.46,0.42,0.25" style="fill:rgb(35,31,32);font-family:ScalaLF-Regular;font-size:9.0px;stroke:none;">tigated by assembling CR2016 coin cell using lithium foil as </text>
   <text y="693.889" x="50.388,53.079,58.191,62.34,64.59,65.801,69.914,75.143,79.688,84.476,88.625,90.875,93.125,94.337" svgx:width="0.3,0.57,0.46,0.25,0.55,0.46,0.58,0.5,0.53,0.46,0.25,0.25,0.55,0.25" style="fill:rgb(35,31,32);font-family:ScalaLF-Regular;font-size:9.0px;stroke:none;">the anode. </text>
   <text y="693.889" x="94.335,99.204,101.742,106.305,111.435,114.828" svgx:width="0.57,0.28,0.51,0.57,0.38,0.46" style="fill:rgb(35,31,32);font-family:ScalaLF-Bold;font-size:9.0px;stroke:none;">Figure</text>
   <text y="693.889" x="118.977,118.977,121.227,122.442,122.442" svgx:width="0.25,0.25,0.55,0.25,0.25" style="fill:rgb(35,31,32);font-family:ScalaLF-Regular;font-size:9.0px;stroke:none;"> </text>
   <text y="693.889" x="122.442" svgx:width="0.5" style="fill:rgb(35,31,32);font-family:ScalaLF-Bold;font-size:9.0px;stroke:none;">3</text>
   <text y="693.889" x="126.942,126.937,126.933,132.981,136.441,141.229,143.767,147.556,152.398,154.801,158.914,162.901,166.69,170.151,172.842,177.954,182.103,185.563,188.101,193.33,195.868,198.559,201.097,205.21,207.613,211.074,213.765,218.877,222.27,226.419,230.568,234.028,240.031,245.98,249.441,253.311,258.441,261.834,265.812,269.961,273.75,277.21,281.323,284.014,287.475,291.588" svgx:width="0.25,0.25,0.67,0.25,0.53,0.28,0.42,0.54,0.27,0.46,0.44,0.42,0.25,0.3,0.57,0.46,0.25,0.28,0.58,0.28,0.3,0.28,0.46,0.27,0.25,0.3,0.57,0.38,0.46,0.46,0.25,0.67,0.66,0.25,0.43,0.57,0.38,0.44,0.46,0.42,0.25,0.46,0.3,0.25,0.46,0.25" style="fill:rgb(35,31,32);font-family:ScalaLF-Regular;font-size:9.0px;stroke:none;"> A displays the initial three CV curves at a </text>
   <text y="704.887" x="50.388,54.177,58.047,62.16,67.389,69.639,70.687,74.08,78.193,80.884,85.033,87.283,88.33,92.875,95.782,98.032,99.08,103.58,105.83,110.33,112.58,113.627,121.574,127.523,129.773,130.821,134.61" svgx:width="0.42,0.43,0.46,0.58,0.25,0.55,0.38,0.46,0.3,0.46,0.25,0.55,0.5,0.32,0.25,0.55,0.5,0.25,0.5,0.25,0.55,0.88,0.66,0.25,0.55,0.42,0.25" style="fill:rgb(35,31,32);font-family:ScalaLF-Regular;font-size:9.0px;stroke:none;">scan rate of 0.1 mV s </text>
   <text y="701.747" x="134.604" svgx:width="0.55" style="fill:rgb(35,31,32);font-family:Symbol;font-size:6.3px;stroke:none;">−</text>
   <text y="701.747" x="138.063" svgx:width="0.5" style="fill:rgb(35,31,32);font-family:ScalaLF-Regular;font-size:6.3px;stroke:none;">1</text>
   <text y="704.897" x="141.212,141.215,143.465,145.715,146.761,153.259,157.408,162.637,166.786,170.179,174.292,176.695,179.098,183.085,185.335,186.382,190.171,195.013,199.162,203.275,207.847,210.385,215.614,220.177,222.427,224.677,225.724,228.415,233.527,237.676,239.926,240.973,246.976,252.925,255.175,256.221,260.091,265.221,268.614,272.592,276.741,280.53,282.78,283.827,286.365,291.594" svgx:width="0.25,0.25,0.25,0.55,0.75,0.46,0.58,0.46,0.38,0.46,0.27,0.27,0.44,0.25,0.55,0.42,0.54,0.46,0.46,0.51,0.28,0.58,0.51,0.25,0.25,0.55,0.3,0.57,0.46,0.25,0.55,0.67,0.66,0.25,0.55,0.43,0.57,0.38,0.44,0.46,0.42,0.25,0.55,0.28,0.58,0.25" style="fill:rgb(35,31,32);font-family:ScalaLF-Regular;font-size:9.0px;stroke:none;"> . Generally speaking, the CV curves in </text>
   <text y="715.895" x="50.384,53.075,58.187,62.336,64.586,65.769,68.307,73.536,76.074,78.765,81.303,85.416,87.819,90.069,91.251,93.942,99.054,102.447,106.596,110.745,112.995,114.178,118.048,122.035,125.905,128.308,132.457,136.246,138.496,139.678,143.791,146.194,154.141,158.686,162.475,165.166,167.416,168.599,173.144,177.122,181.271,184.664,187.067,191.18,196.022,198.272,200.522,201.705,204.243,209.472,214.26,216.798,220.668,224.781,227.472,230.01,235.239,239.802,242.052,243.234,245.925,251.037,255.186,257.43600000000004,258.619,262.768,266.701,270.571,274.72,277.123,279.526,283.675,288.904,291.595" svgx:width="0.3,0.57,0.46,0.25,0.55,0.28,0.58,0.28,0.3,0.28,0.46,0.27,0.25,0.55,0.3,0.57,0.38,0.46,0.46,0.25,0.55,0.43,0.44,0.43,0.27,0.46,0.42,0.25,0.55,0.46,0.27,0.88,0.5,0.42,0.3,0.25,0.55,0.5,0.44,0.46,0.38,0.27,0.46,0.54,0.25,0.25,0.55,0.28,0.58,0.53,0.28,0.43,0.46,0.3,0.28,0.58,0.51,0.25,0.55,0.3,0.57,0.46,0.25,0.55,0.46,0.44,0.43,0.46,0.27,0.27,0.46,0.58,0.3,0.25" style="fill:rgb(35,31,32);font-family:ScalaLF-Regular;font-size:9.0px;stroke:none;">the initial three cycles almost overlap, indicating the excellent </text>
   <text y="572.894" x="305.786,309.179,313.328,317.306,321.455,324.848,328.637,331.175,335.909,338.447,340.85,343.388,346.079,349.346,351.596,353.846,355.092,360.492,365.604,369.753,372.003,373.248,377.118,382.23,386.343,389.736,394.299,398.448,402.948,407.736,410.274,414.063,417.933,423.045,427.158,430.551,435.114,439.263,441.513,442.759,446.629,451.759,455.152,459.13,463.279,467.068,469.318,470.563,474.676,477.367,479.617,480.863,484.976,487.226,488.472,492.342,497.472,500.865,504.258,508.407,513.636,516.327,518.577,519.822,524.61,528.759,533.988,537.777,540.315,543.006,546.993" svgx:width="0.38,0.46,0.44,0.46,0.38,0.42,0.28,0.53,0.28,0.27,0.28,0.3,0.44,0.25,0.25,0.55,0.6,0.57,0.46,0.25,0.55,0.43,0.57,0.46,0.38,0.51,0.46,0.5,0.53,0.28,0.42,0.43,0.57,0.46,0.38,0.51,0.46,0.25,0.55,0.43,0.57,0.38,0.44,0.46,0.42,0.25,0.55,0.46,0.3,0.25,0.55,0.46,0.25,0.55,0.43,0.57,0.38,0.38,0.46,0.58,0.3,0.25,0.55,0.53,0.46,0.58,0.42,0.28,0.3,0.44,0.25" style="fill:rgb(35,31,32);font-family:ScalaLF-Regular;font-size:9.0px;stroke:none;">reversibility. The charge–discharge curves at a current density </text>
   <text y="583.892" x="305.786,310.331,313.238,315.816,320.316,324.816,329.316,331.893,339.84,345.888,348.466,353.029" svgx:width="0.5,0.32,0.25,0.5,0.5,0.5,0.25,0.88,0.67,0.25,0.51,0.25" style="fill:rgb(35,31,32);font-family:ScalaLF-Regular;font-size:9.0px;stroke:none;">of 100 mA g </text>
   <text y="580.747" x="353.035" svgx:width="0.55" style="fill:rgb(35,31,32);font-family:Symbol;font-size:6.3px;stroke:none;">−</text>
   <text y="580.747" x="356.494" svgx:width="0.5" style="fill:rgb(35,31,32);font-family:ScalaLF-Regular;font-size:6.3px;stroke:none;">1</text>
   <text y="583.897" x="359.644,359.648,362.225,366.338,369.731,373.88,376.458,381.3,384.693,388.842,392.631,396.78,402.009,404.7,408.849,413.637,416.214,418.752,423.981,426.559,431.428,433.966,438.529,443.659,447.052,451.201,453.779,453.782,458.282,458.286,464.001,466.251,468.828,474.228,479.34,483.489,486.067,488.605,493.834,496.372,499.063,501.601,505.714,508.117,510.695,515.483,518.021,521.81,525.68,530.792,534.905,538.298,542.861,547.01" svgx:width="0.25,0.25,0.46,0.38,0.46,0.25,0.54,0.38,0.46,0.42,0.46,0.58,0.3,0.46,0.53,0.25,0.28,0.58,0.25,0.57,0.28,0.51,0.57,0.38,0.46,0.25,0.25,0.5,0.25,0.63,0.25,0.25,0.6,0.57,0.46,0.25,0.28,0.58,0.28,0.3,0.28,0.46,0.27,0.25,0.53,0.28,0.42,0.43,0.57,0.46,0.38,0.51,0.46,0.25" style="fill:rgb(35,31,32);font-family:ScalaLF-Regular;font-size:9.0px;stroke:none;"> are presented in Figure 3 B. The initial discharge </text>
   <text y="594.895" x="305.788,309.901,315.13,319.918,322.168,323.377,327.247,332.359,336.472,339.865,344.428,348.577,350.827,352.035,355.905,360.018,364.86,368.973,372.843,375.381,378.072,380.61,384.759,388.548,390.798,392.007,396.12,399.513,403.662,405.912,407.121,411.621,416.121,420.621,422.871,424.08,428.193,433.422,438.21,440.46,441.668,446.168,450.668,455.168,457.418,458.627,466.574,472.622,474.872,476.081,481.193,483.443,484.651,489.214" svgx:width="0.46,0.58,0.53,0.25,0.55,0.43,0.57,0.46,0.38,0.51,0.46,0.25,0.55,0.43,0.46,0.54,0.46,0.43,0.28,0.3,0.28,0.46,0.42,0.25,0.55,0.46,0.38,0.46,0.25,0.55,0.5,0.5,0.5,0.25,0.55,0.46,0.58,0.53,0.25,0.55,0.5,0.5,0.5,0.25,0.55,0.88,0.67,0.25,0.55,0.57,0.25,0.55,0.51,0.25" style="fill:rgb(35,31,32);font-family:ScalaLF-Regular;font-size:9.0px;stroke:none;">and charge capacities are 830 and 912 mA h g </text>
   <text y="591.747" x="489.214" svgx:width="0.55" style="fill:rgb(35,31,32);font-family:Symbol;font-size:6.3px;stroke:none;">−</text>
   <text y="591.747" x="492.673" svgx:width="0.5" style="fill:rgb(35,31,32);font-family:ScalaLF-Regular;font-size:6.3px;stroke:none;">1</text>
   <text y="594.897" x="495.823,495.823,498.073,500.323,501.529,504.922,509.071,512.86,517.702,521.851,525.721,528.412,530.95,534.928,539.077,541.48,544.747,546.997" svgx:width="0.25,0.25,0.25,0.55,0.38,0.46,0.42,0.54,0.46,0.43,0.3,0.28,0.44,0.46,0.27,0.44,0.25,0.25" style="fill:rgb(35,31,32);font-family:ScalaLF-Regular;font-size:9.0px;stroke:none;"> , respectively. </text>
   <text y="605.895" x="305.788,311.186,316.296,320.444,322.694,324.22,326.756,331.983,334.52,337.209,339.745,343.856,346.257,348.507,350.034,353.902,358.445,360.846,365.975,373.92,378.652,381.188,385.056,387.306,388.833,392.98,395.885,398.497,401.121,404.991,407.529,411.678,416.907,420.777,424.764,427.014,428.541,431.934,436.083,440.196,444.066,449.178,453.327,457.116,459.366,460.892,465.392,469.892,474.392,482.042,484.292,486.542,488.069,494.423,499.535,502.073,505.943,511.055,513.3050000000001,514.831,517.369,521.158,523.408,524.934,532.881,538.011,541.881,546.993" svgx:width="0.6,0.57,0.46,0.25,0.55,0.28,0.58,0.28,0.3,0.28,0.46,0.27,0.25,0.55,0.43,0.5,0.27,0.57,0.88,0.53,0.28,0.43,0.25,0.55,0.46,0.32,0.58,0.25,0.43,0.28,0.46,0.58,0.43,0.44,0.25,0.55,0.38,0.46,0.46,0.43,0.57,0.46,0.42,0.25,0.55,0.5,0.5,0.5,0.85,0.25,0.25,0.55,0.71,0.57,0.28,0.43,0.57,0.25,0.55,0.28,0.42,0.25,0.55,0.88,0.57,0.43,0.57,0.25" style="fill:rgb(35,31,32);font-family:ScalaLF-Regular;font-size:9.0px;stroke:none;">The initial columbic efﬁ ciency reaches 109%, which is much </text>
   <text y="616.893" x="305.788,310.9,313.438,318.001,323.113,327.262,330.655,332.905,334.105,336.796,341.908,346.021,351.25,353.5,354.699,357.39,362.502,366.615,369.306,371.556,372.756,377.301,380.208,382.458,383.658,388.203,390.894,396.006,400.155,403.548,405.798,406.998,409.689,413.082,417.195,422.424,426.213,428.751,431.442,433.98,438.525,443.754,446.004,447.203,455.15,459.299,461.99,466.103,468.506,470.756,471.956,476.501,480.434,482.972,487.76,491.909,494.159,495.359,499.472,504.701,509.246,514.034,518.183,521.972,524.222,525.422,530.156,534.268,538.057,542.206,546.995" svgx:width="0.57,0.28,0.51,0.57,0.46,0.38,0.25,0.55,0.3,0.57,0.46,0.58,0.25,0.55,0.3,0.57,0.46,0.3,0.25,0.55,0.5,0.32,0.25,0.55,0.5,0.3,0.57,0.46,0.38,0.25,0.55,0.3,0.38,0.46,0.58,0.42,0.28,0.3,0.28,0.5,0.58,0.25,0.55,0.88,0.46,0.3,0.46,0.27,0.25,0.55,0.5,0.44,0.28,0.53,0.46,0.25,0.55,0.46,0.58,0.5,0.53,0.46,0.42,0.25,0.55,0.53,0.46,0.42,0.46,0.53,0.25" style="fill:rgb(35,31,32);font-family:ScalaLF-Regular;font-size:9.0px;stroke:none;">higher than that of other transition metal oxide anodes based </text>
   <text y="627.891" x="305.788,310.333,315.562,317.812,318.793,322.663,327.208,332.437,336.415,340.564,343.957,347.746,350.284,354.829,360.058,362.308,363.289,366.682,370.831,374.944,378.814,381.505,384.043,388.588,393.817,396.067,397.048,404.995,409.144,413.014,418.126,422.239,427.468,430.006,433.795,441.742,443.992,446.242,447.223,452.074,454.612,462.559,465.097,467.5,471.613,475.006,477.256,478.237,482.35,487.579,492.124,500.071,504.184,506.587,511.132,516.262,520.051,522.454,526.441,528.691,529.672,534.784,537.322,541.885,546.997" svgx:width="0.5,0.58,0.25,0.55,0.43,0.5,0.58,0.44,0.46,0.38,0.42,0.28,0.5,0.58,0.25,0.55,0.38,0.46,0.46,0.43,0.3,0.28,0.5,0.58,0.25,0.55,0.88,0.46,0.43,0.57,0.46,0.58,0.28,0.42,0.88,0.25,0.25,0.55,0.56,0.28,0.88,0.28,0.27,0.46,0.38,0.25,0.55,0.46,0.58,0.5,0.88,0.46,0.27,0.5,0.57,0.42,0.27,0.44,0.25,0.55,0.57,0.28,0.51,0.57,0.25" style="fill:rgb(35,31,32);font-family:ScalaLF-Regular;font-size:9.0px;stroke:none;">on conversion reaction mechanism. Similar anomalously high </text>
   <text y="638.889" x="305.788,309.654,314.196,316.595,321.722,329.665,334.395,336.93,340.796,343.046,345.141,349.287,352.19,354.802,357.427,361.297,363.835,367.984,373.213,377.083,381.07,383.32,385.415,390.527,394.64,398.429,400.679,402.773,407.507,411.656,415.805,421.034,423.284,425.378,429.923,434.657,438.446,442.595,445.988,449.966,454.115,458.903,461.153,463.247,465.785,471.014,473.264,475.359,479.922,483.315,487.428,492.27,497.382,499.92,502.611,506.76,509.01,511.104,515.217,520.446,524.991,529.779,533.928,536.178,538.272,543.006,546.993" svgx:width="0.43,0.5,0.27,0.57,0.88,0.53,0.28,0.43,0.25,0.55,0.46,0.32,0.58,0.25,0.43,0.28,0.46,0.58,0.43,0.44,0.25,0.55,0.57,0.46,0.42,0.25,0.55,0.53,0.46,0.46,0.58,0.25,0.55,0.5,0.53,0.42,0.46,0.38,0.44,0.46,0.53,0.25,0.55,0.28,0.58,0.25,0.55,0.51,0.38,0.46,0.54,0.57,0.28,0.3,0.46,0.25,0.55,0.46,0.58,0.5,0.53,0.46,0.25,0.55,0.53,0.44,0.25" style="fill:rgb(35,31,32);font-family:ScalaLF-Regular;font-size:9.0px;stroke:none;">columbic efﬁ ciency has been observed in graphite anode by </text>
   <text y="649.887" x="305.788,312.448,316.561,321.673,326.902,329.152,331.447,335.596,338.287,340.537,342.832,346.945,349.348,351.598" svgx:width="0.74,0.46,0.57,0.58,0.25,0.55,0.46,0.3,0.25,0.55,0.46,0.27,0.25,0.25" style="fill:rgb(35,31,32);font-family:ScalaLF-Regular;font-size:9.0px;stroke:none;">Dahn et al. </text>
   <text y="646.747" x="351.601,353.176,353.176,356.326,359.476,359.476" svgx:width="0.25,0.25,0.5,0.5,0.25,0.25" style="fill:rgb(35,31,32);font-family:ScalaLF-Regular;font-size:6.3px;stroke:none;">[ 41 ]</text>
   <text y="649.897" x="361.051,361.051,363.301,365.596,370.994,376.104,380.252,382.502,384.797,389.907,392.443,397.004,402.114,404.364,406.659,409.196,414.423,416.959,419.648,422.184,426.296,428.697,430.947,433.242,437.11,441.653,444.054,449.183,457.128,461.86,464.396,468.264,470.514,472.809,476.957,479.862,482.479,485.103,488.973,491.51,495.659,500.888,504.758,508.745,510.995,513.286,515.824,521.053,525.841,528.379,532.249,536.362,539.053,543.202,546.991" svgx:width="0.25,0.25,0.55,0.6,0.57,0.46,0.25,0.55,0.57,0.28,0.51,0.57,0.25,0.55,0.28,0.58,0.28,0.3,0.28,0.46,0.27,0.25,0.55,0.43,0.5,0.27,0.57,0.88,0.53,0.28,0.43,0.25,0.55,0.46,0.32,0.58,0.25,0.43,0.28,0.46,0.58,0.43,0.44,0.25,0.55,0.28,0.58,0.53,0.28,0.43,0.46,0.3,0.46,0.42,0.25" style="fill:rgb(35,31,32);font-family:ScalaLF-Regular;font-size:9.0px;stroke:none;"> The high initial columbic efﬁ ciency indicates </text>
   <text y="660.895" x="305.791,308.482,313.594,317.707,320.398,322.648,325.199,327.89,333.002,337.151,339.401,341.951,346.064,348.539,354.542,360.491,367.178,369.653,376.358,383.045,385.295,387.846,390.384,394.173,396.423,398.973,403.086,405.336,407.887,411.865,416.014,419.407,423.394,425.644,428.195,433.037,436.43,440.975,448.922,451.46,455.249,457.787,463.016,467.579,469.829,472.379,476.492,481.721,486.266,491.054,495.203,497.453,500.004,507.951,512.064,514.755,518.904,522.297,524.835,528.948,531.351,533.601,536.151,539.058,543.603,546.996" svgx:width="0.3,0.57,0.46,0.3,0.25,0.55,0.3,0.57,0.46,0.25,0.55,0.46,0.28,0.67,0.66,0.74,0.28,0.75,0.74,0.25,0.55,0.28,0.42,0.25,0.55,0.46,0.25,0.55,0.44,0.46,0.38,0.44,0.25,0.55,0.54,0.38,0.5,0.88,0.28,0.42,0.28,0.58,0.51,0.25,0.55,0.46,0.58,0.5,0.53,0.46,0.25,0.55,0.88,0.46,0.3,0.46,0.38,0.28,0.46,0.27,0.25,0.55,0.32,0.5,0.38,0.25" style="fill:rgb(35,31,32);font-family:ScalaLF-Regular;font-size:9.0px;stroke:none;">that the a-CVO-GO is a very promising anode material for </text>
   <text y="671.893" x="305.791,308.194,310.732,313.423,318.535,321.073,326.203,334.15,336.4,338.076,340.614,345.159,350.388,352.638,354.314,359.048,363.161,365.852,368.543,372.692,376.085,379.352,381.602,383.852,385.527,391.396,396.184,400.971,403.509,406.201,408.738,413.284,418.513,422.626,425.029,427.432,430.699,432.949,435.199,436.874,439.565,444.677,448.826,451.076,452.752,456.622,461.734,465.847,469.24,473.803,477.952,482.452,487.24,489.778,493.567,497.437,502.549,506.662,510.055,514.618,518.767,521.017,522.693,526.563,531.693,535.086,539.064,543.213,547.002" svgx:width="0.27,0.28,0.3,0.57,0.28,0.57,0.88,0.25,0.55,0.28,0.5,0.58,0.25,0.55,0.53,0.46,0.3,0.3,0.46,0.38,0.44,0.25,0.25,0.55,0.67,0.53,0.53,0.28,0.3,0.28,0.5,0.58,0.46,0.27,0.27,0.44,0.25,0.25,0.55,0.3,0.57,0.46,0.25,0.55,0.43,0.57,0.46,0.38,0.51,0.46,0.5,0.53,0.28,0.42,0.43,0.57,0.46,0.38,0.51,0.46,0.25,0.55,0.43,0.57,0.38,0.44,0.46,0.42,0.25" style="fill:rgb(35,31,32);font-family:ScalaLF-Regular;font-size:9.0px;stroke:none;">lithium ion battery. Additionally, the charge–discharge curves </text>
   <text y="682.891" x="305.791,310.336,313.243,315.493,317.98,322.093,324.568,330.571,336.52,343.207,345.682,352.387,359.074,361.324,363.81,367.599,372.711,377.256,383.61,385.86,388.347,392.136,396.285,400.263,404.412,407.805,411.918,414.321,416.571,419.058,422.847,425.25,429.795,434.637,438.786,442.575,444.825,447.312,453.666,456.204,458.895,464.007,468.552,473.682,476.373,478.623,481.109,485.222,490.451,494.438,496.688,499.175,503.72,508.454,512.432,514.97,519.515,524.645,528.434,530.684,533.171,538.013,540.416,544.529" svgx:width="0.5,0.32,0.25,0.55,0.46,0.28,0.67,0.66,0.74,0.28,0.75,0.74,0.25,0.55,0.42,0.57,0.5,0.71,0.25,0.55,0.42,0.46,0.44,0.46,0.38,0.46,0.27,0.25,0.55,0.42,0.27,0.5,0.54,0.46,0.42,0.25,0.55,0.71,0.28,0.3,0.57,0.5,0.57,0.3,0.25,0.55,0.46,0.58,0.44,0.25,0.55,0.5,0.53,0.44,0.28,0.5,0.57,0.42,0.25,0.55,0.54,0.27,0.46,0.28" style="fill:rgb(35,31,32);font-family:ScalaLF-Regular;font-size:9.0px;stroke:none;">of a-CVO-GO show several slopes without any obvious pla-</text>
   <text y="693.889" x="305.791,308.482,312.631,316.744,321.874,325.663,327.913,330.163,331.454,337.808,342.92,345.458,349.328,354.44,356.69,357.98,365.927,370.04,374.027,376.277,377.568,382.302,386.451,388.701,389.991,394.104,397.893,401.682,406.227,410.097,412.635,416.748,419.439,423.588,428.376,430.626,431.917,438.271,440.809,443.5,448.612,450.862,452.153,454.844,459.956,464.105,466.355,467.645,472.433,474.971,478.76,482.63,487.175,492.404,495.095,497.633,502.862,507.992,512.537,517.667,521.456,523.706,524.997,529.839,534.951,539.064,542.853,547.002" svgx:width="0.3,0.46,0.46,0.57,0.42,0.25,0.25,0.55,0.71,0.57,0.28,0.43,0.57,0.25,0.55,0.88,0.46,0.44,0.25,0.55,0.53,0.46,0.25,0.55,0.46,0.42,0.42,0.5,0.43,0.28,0.46,0.3,0.46,0.53,0.25,0.55,0.71,0.28,0.3,0.57,0.25,0.55,0.3,0.57,0.46,0.25,0.55,0.53,0.28,0.42,0.43,0.5,0.58,0.3,0.28,0.58,0.57,0.5,0.57,0.42,0.25,0.55,0.54,0.57,0.46,0.42,0.46,0.25" style="fill:rgb(35,31,32);font-family:ScalaLF-Regular;font-size:9.0px;stroke:none;">teaus, which may be associated with the discontinuous phase </text>
   <text y="704.887" x="305.791,308.482,311.875,315.988,321.217,325.006,327.544,330.235,332.773,337.318,342.547,346.336,348.586,349.475,354.02,356.927,359.177,360.066,362.757,367.869,372.018,374.268,375.158,380.27,384.815,388.604,391.295,393.545,394.434,402.381,406.494,409.185,413.334,416.727,419.265,423.378,425.781,428.031,428.92,434.05,438.892,443.437,448.666,450.916,451.805,456.584,459.122" svgx:width="0.3,0.38,0.46,0.58,0.42,0.28,0.3,0.28,0.5,0.58,0.42,0.25,0.55,0.5,0.32,0.25,0.55,0.3,0.57,0.46,0.25,0.55,0.57,0.5,0.42,0.3,0.25,0.55,0.88,0.46,0.3,0.46,0.38,0.28,0.46,0.27,0.25,0.55,0.57,0.54,0.5,0.58,0.25,0.55,0.53,0.28,0.25" style="fill:rgb(35,31,32);font-family:ScalaLF-Regular;font-size:9.0px;stroke:none;">transitions of the host material upon Li </text>
   <text y="701.747" x="459.12" svgx:width="0.55" style="fill:rgb(35,31,32);font-family:Symbol;font-size:6.3px;stroke:none;">+</text>
   <text y="704.897" x="462.578,462.578,464.828,465.719,468.257,473.486,477.275,481.424,484.817,487.508,490.046,494.591,499.82,502.07" svgx:width="0.25,0.25,0.55,0.28,0.58,0.42,0.46,0.38,0.3,0.28,0.5,0.58,0.25,0.25" style="fill:rgb(35,31,32);font-family:ScalaLF-Regular;font-size:9.0px;stroke:none;"> insertion. </text>
   <text y="701.747" x="502.068,503.643,503.643,506.793,509.943,509.943" svgx:width="0.25,0.25,0.5,0.5,0.25,0.25" style="fill:rgb(35,31,32);font-family:ScalaLF-Regular;font-size:6.3px;stroke:none;">[ 42 ]</text>
   <text y="704.897" x="511.518,511.516,514.655,520.613,523.304,526.444,530.557,533.696,536.099,540.644,546.998" svgx:width="0.25,0.25,0.67,0.3,0.25,0.46,0.25,0.27,0.5,0.71,0.25" style="fill:rgb(35,31,32);font-family:ScalaLF-Regular;font-size:9.0px;stroke:none;"> At a low </text>
   <text y="715.895" x="305.796,309.666,314.796,318.189,321.582,325.731,330.96,333.651,335.901,336.959,341.747,345.896,351.125,354.914,357.452,360.143,364.13,366.38,367.439,371.984,374.891,377.141,378.199,382.699,387.199,391.699,393.949,395.008,402.955,409.003,411.253,412.311,416.874" svgx:width="0.43,0.57,0.38,0.38,0.46,0.58,0.3,0.25,0.55,0.53,0.46,0.58,0.42,0.28,0.3,0.44,0.25,0.55,0.5,0.32,0.25,0.55,0.5,0.5,0.5,0.25,0.55,0.88,0.67,0.25,0.55,0.51,0.25" style="fill:rgb(35,31,32);font-family:ScalaLF-Regular;font-size:9.0px;stroke:none;">current density of 100 mA g </text>
   <text y="712.747" x="416.868" svgx:width="0.55" style="fill:rgb(35,31,32);font-family:Symbol;font-size:6.3px;stroke:none;">−</text>
   <text y="712.747" x="420.327" svgx:width="0.5" style="fill:rgb(35,31,32);font-family:ScalaLF-Regular;font-size:6.3px;stroke:none;">1</text>
   <text y="715.897" x="423.476,423.472,426.781,429.562,434.431,436.969,441.532,446.662,450.055,454.204,457.512,457.509,462.009,462.005,468.008,470.789,473.039,476.347,479.038,484.15,488.299,491.608,494.146,499.375,501.913,504.604,507.142,511.255,513.658,516.966,520.836,524.949,529.791,533.904,537.774,540.312,543.003,546.99" svgx:width="0.25,0.25,0.31,0.57,0.28,0.51,0.57,0.38,0.46,0.25,0.25,0.5,0.25,0.67,0.31,0.25,0.25,0.3,0.57,0.46,0.25,0.28,0.58,0.28,0.3,0.28,0.46,0.27,0.25,0.43,0.46,0.54,0.46,0.43,0.28,0.3,0.44,0.25" style="fill:rgb(35,31,32);font-family:ScalaLF-Regular;font-size:9.0px;stroke:none;"> (Figure 3 C), the initial capacity </text>
   <text y="58.555" x="51.007,56.535,62.063,66.951,68.879,75.823,79.551,81.943,85.607,88.223,90.119,93.847,95.679,99.175,103.759,105.655,109.319,114.847,118.343,120.271,123.743,127.791" svgx:width="0.7,0.7,0.7,0.25,0.88,0.48,0.31,0.47,0.34,0.25,0.48,0.24,0.45,0.58,0.25,0.47,0.7,0.45,0.25,0.44,0.52,0.83" style="fill:rgb(35,31,32);font-family:ScalaSansLF-Bold;font-size:8.0px;stroke:none;">www.MaterialsViews.com</text>
   <text y="50.475" x="458.239,463.767,469.295,474.183,476.111,479.839,484.007,487.639,491.367,495.647,499.119,502.783,506.951,510.447,513.919,515.815,519.479,523.759,527.231,530.895,532.823,536.295,540.343" svgx:width="0.7,0.7,0.7,0.25,0.48,0.53,0.46,0.48,0.55,0.44,0.47,0.53,0.45,0.44,0.25,0.47,0.55,0.44,0.47,0.25,0.44,0.52,0.83" style="fill:rgb(35,31,32);font-family:ScalaSansLF-Bold;font-size:8.0px;stroke:none;">www.advancedscience.com</text>
   <text y="748.168" x="51.024,55.189,58.633,61.034" svgx:width="0.6,0.49,0.41,0.25" style="fill:rgb(35,31,32);font-family:ScalaSansLF-Italic;font-size:7.0px;stroke:none;">Adv.</text>
   <text y="748.168" x="62.791" svgx:width="0.25" style="fill:rgb(35,31,32);font-family:ScalaSansLF-Regular;font-size:7.0px;stroke:none;"> </text>
   <text y="748.168" x="64.716,68.454,71.212,72.836" svgx:width="0.53,0.39,0.23,0.25" style="fill:rgb(35,31,32);font-family:ScalaSansLF-Italic;font-size:7.0px;stroke:none;">Sci.</text>
   <text y="748.168" x="74.593" svgx:width="0.25" style="fill:rgb(35,31,32);font-family:ScalaSansLF-Regular;font-size:7.0px;stroke:none;"> </text>
   <text y="748.168" x="76.518,80.018,83.518,87.018" svgx:width="0.5,0.5,0.5,0.5" style="fill:rgb(35,31,32);font-family:ScalaSansLF-Bold;font-size:7.0px;stroke:none;">2015</text>
   <text y="748.168" x="90.518,92.282" svgx:width="0.25,0.25" style="fill:rgb(35,31,32);font-family:ScalaSansLF-Regular;font-size:7.0px;stroke:none;">, </text>
   <text y="748.168" x="94.207" svgx:width="0.5" style="fill:rgb(35,31,32);font-family:ScalaSansLF-Italic;font-size:7.0px;stroke:none;">2</text>
   <text y="748.168" x="97.707,99.471,101.396,104.889,108.389,111.889,115.389,118.882,122.382" svgx:width="0.25,0.25,0.5,0.5,0.5,0.5,0.5,0.5,0.5" style="fill:rgb(35,31,32);font-family:ScalaSansLF-Regular;font-size:7.0px;stroke:none;">, 1500154</text>
  </g>
  <rect style="stroke:blue;stroke-width:0.3;" x="88.434" y="88.124" height="444.672" width="420.012" title="3"/>
  <text y="88.124" class="image" id="image.3.3" width="420" height="444" x="88.434">image.3.3.88_508.88_533</text>
  <g begin="text">
   <text y="530.494" x="50.386" svgx:width="0.25" style="fill:rgb(35,31,32);font-family:ScalaSansLF-Regular;font-size:8.0px;stroke:none;"> </text>
   <text y="530.494" x="50.386,54.562,56.538,60.594,64.954,67.65,71.394,73.824,77.824,79.832" svgx:width="0.52,0.25,0.51,0.55,0.34,0.47,0.25,0.5,0.25,0.25" style="fill:rgb(35,31,32);font-family:ScalaSansLF-Bold;font-size:8.0px;stroke:none;">Figure 3. </text>
   <text y="530.494" x="79.834,79.832,83.83,83.829,88.589,91.493,93.923,98.763,103.427,105.858,109.41,113.738,116.434,120.01,123.762,127.338,129.768,134.032,136.288,138.718,142.526,144.734,149.574,154.238,160.342,162.55,168.214,174.318,176.749,180.557,183.029,185.459,187.931,192.219,195.971,198.402,201.978,205.53,209.338,213.698,216.128,218.824,222.632,225.104,228.856,231.286,235.55,237.806,240.237,244.237,246.245,250.237,252.667,259.443,264.107,266.538,270.114" svgx:width="0.25,0.25,0.25,0.6,0.36,0.25,0.61,0.58,0.25,0.44,0.54,0.34,0.45,0.47,0.45,0.25,0.53,0.28,0.25,0.48,0.28,0.61,0.58,0.76,0.28,0.71,0.76,0.25,0.48,0.31,0.25,0.31,0.54,0.47,0.25,0.45,0.44,0.48,0.55,0.25,0.34,0.48,0.31,0.47,0.25,0.53,0.28,0.25,0.5,0.25,0.5,0.25,0.85,0.58,0.25,0.45,0.25" style="fill:rgb(35,31,32);font-family:ScalaSansLF-Regular;font-size:8.0px;stroke:none;"> A) CV curves of a-CVO-GO at the scan rate of 0.1 mV s </text>
   <text y="527.694" x="270.117" svgx:width="0.55" style="fill:rgb(35,31,32);font-family:Symbol;font-size:5.6px;stroke:none;">−</text>
   <text y="527.694" x="273.191" svgx:width="0.5" style="fill:rgb(35,31,32);font-family:ScalaSansLF-Regular;font-size:5.6px;stroke:none;">1</text>
   <text y="530.494" x="275.985,275.983,277.991,280.422,284.734,289.022,292.774,295.204,297.188,299.179,301.875,305.451,307.923,310.353,312.825,317.113,319.809,323.561,327.313,329.743,333.295,336.535,340.087,341.999,345.751,349.327,351.758,355.566,358.262,362.014,364.444,368.02,372.308,376.572,381.916,386.276,388.707,390.963,393.659,397.923,404.699,407.129,409.601,413.889,417.641,420.071,424.335,428.679,432.431,436.791,439.222,442.774,444.75,447.446,450.998,455.326,457.302,459.774,462.204,466.548,470.812,473.284,477.036,481.396,483.868,485.844,489.652,491.564,493.572,496.003,500.73,503.634,506.065,510.249,514.513,516.425,518.897,522.705,526.761,530.513,532.943,537.287,539.983,544.247" svgx:width="0.25,0.25,0.25,0.54,0.54,0.47,0.25,0.5,0.25,0.34,0.45,0.31,0.25,0.31,0.54,0.34,0.47,0.47,0.25,0.44,0.41,0.44,0.24,0.47,0.45,0.25,0.48,0.34,0.47,0.25,0.45,0.54,0.53,0.67,0.55,0.25,0.28,0.34,0.53,0.85,0.25,0.31,0.54,0.47,0.25,0.53,0.54,0.47,0.55,0.25,0.44,0.25,0.34,0.44,0.54,0.25,0.31,0.25,0.54,0.53,0.31,0.47,0.55,0.31,0.25,0.48,0.24,0.25,0.25,0.59,0.36,0.25,0.58,0.53,0.24,0.31,0.48,0.51,0.47,0.25,0.54,0.34,0.53,0.28" style="fill:rgb(35,31,32);font-family:ScalaSansLF-Regular;font-size:8.0px;stroke:none;"> . The ﬁ rst three cycles are shown from the open circuit potential. B) Voltage pro-</text>
   <text y="539.99" x="50.385,52.369,54.353,56.265,60.017,63.593,65.833,70.097,72.353,74.593,78.401,80.609,85.449,90.113,96.217,98.425,104.089,110.193,112.433,114.689,118.953,121.649,123.889,127.465,131.217,133.129,136.881,140.433,142.905,146.657,150.969,153.209,156.761,160.001,163.553,165.465,169.217,172.793,175.033,178.841,181.313,183.553,187.545,191.545,195.545,197.785,204.561,209.321,211.561,215.617" svgx:width="0.5,0.25,0.24,0.47,0.45,0.25,0.53,0.28,0.25,0.48,0.28,0.61,0.58,0.76,0.28,0.71,0.76,0.25,0.28,0.53,0.34,0.25,0.45,0.47,0.24,0.47,0.44,0.31,0.47,0.54,0.25,0.44,0.41,0.44,0.24,0.47,0.45,0.25,0.48,0.31,0.25,0.5,0.5,0.5,0.25,0.85,0.6,0.25,0.51,0.25" style="fill:rgb(35,31,32);font-family:ScalaSansLF-Regular;font-size:8.0px;stroke:none;">ﬁ les of a-CVO-GO for selected cycles at 100 mA g </text>
   <text y="537.194" x="215.622" svgx:width="0.55" style="fill:rgb(35,31,32);font-family:Symbol;font-size:5.6px;stroke:none;">−</text>
   <text y="537.194" x="218.696" svgx:width="0.5" style="fill:rgb(35,31,32);font-family:ScalaSansLF-Regular;font-size:5.6px;stroke:none;">1</text>
   <text y="539.994" x="221.491,221.491,223.499,225.739,230.579,233.483,235.723,240.339,243.579,247.131,249.043,251.019,255.379,259.435,261.675,266.019,269.771,272.467,274.723,278.987,281.683,288.459,292.267,296.627,300.179,303.931,306.171,310.435,312.691,314.931,318.739,320.947,325.787,330.451,336.555,338.795,342.603,345.075,347.315,351.307,355.307,359.307,361.547,368.323,373.083,375.323,379.379" svgx:width="0.25,0.25,0.25,0.61,0.36,0.25,0.61,0.41,0.44,0.24,0.25,0.55,0.51,0.25,0.54,0.47,0.34,0.28,0.53,0.34,0.85,0.48,0.55,0.44,0.47,0.25,0.53,0.28,0.25,0.48,0.28,0.61,0.58,0.76,0.25,0.48,0.31,0.25,0.5,0.5,0.5,0.25,0.85,0.6,0.25,0.51,0.25" style="fill:rgb(35,31,32);font-family:ScalaSansLF-Regular;font-size:8.0px;stroke:none;"> . C) Cycling performance of a-CVO at 100 mA g </text>
   <text y="537.194" x="379.376" svgx:width="0.55" style="fill:rgb(35,31,32);font-family:Symbol;font-size:5.6px;stroke:none;">−</text>
   <text y="537.194" x="382.45" svgx:width="0.5" style="fill:rgb(35,31,32);font-family:ScalaSansLF-Regular;font-size:5.6px;stroke:none;">1</text>
   <text y="539.994" x="385.245,385.245,387.253,389.493,395.181,398.085,400.325,404.997,408.805,411.277,415.029,417.269,421.613,425.365,428.061,430.317,434.581,437.277,444.053,447.861,452.221,455.773,459.525,461.765,466.029,468.285,470.525,474.333,476.541,481.381,486.045,492.149,494.357,500.021,506.125,508.365,512.173,516.533,520.845,523.085,526.637,528.845,533.685,538.349,544.453,546.461" svgx:width="0.25,0.25,0.25,0.71,0.36,0.25,0.58,0.48,0.31,0.47,0.25,0.54,0.47,0.34,0.28,0.53,0.34,0.85,0.48,0.55,0.44,0.47,0.25,0.53,0.28,0.25,0.48,0.28,0.61,0.58,0.76,0.28,0.71,0.76,0.25,0.48,0.55,0.54,0.25,0.44,0.28,0.61,0.58,0.76,0.25,0.25" style="fill:rgb(35,31,32);font-family:ScalaSansLF-Regular;font-size:8.0px;stroke:none;"> . D) Rate performance of a-CVO-GO and c-CVO. </text>
   <text y="549.49" x="50.389,54.701,57.605,59.804,65.972,67.948,72.004,76.292,78.5,81.196,85.004,87.476,91.228,93.427,95.339,99.603,103.963,108.019,110.227,112.139,114.115,116.371,120.123,122.323,125.875,129.115,132.667,134.579,136.555,140.915,144.971,147.17,151.514,155.266,157.962,160.218,164.482,167.178,173.954,177.762,182.122,185.674,189.426,191.625,195.889,198.145,200.344,204.152,206.36,211.2,215.864,221.968,224.167,227.975,232.335,236.647,238.847,242.399,244.607,249.447,254.111,260.215,262.414,266.222,268.694,270.893,274.893,278.893,281.092,285.852,288.051,292.107" svgx:width="0.54,0.36,0.25,0.77,0.25,0.51,0.54,0.28,0.34,0.48,0.31,0.47,0.25,0.24,0.53,0.55,0.51,0.28,0.24,0.25,0.28,0.47,0.25,0.44,0.41,0.44,0.24,0.25,0.55,0.51,0.25,0.54,0.47,0.34,0.28,0.53,0.34,0.85,0.48,0.55,0.44,0.47,0.25,0.53,0.28,0.25,0.48,0.28,0.61,0.58,0.76,0.25,0.48,0.55,0.54,0.25,0.44,0.28,0.61,0.58,0.76,0.25,0.48,0.31,0.25,0.5,0.5,0.25,0.6,0.25,0.51,0.25" style="fill:rgb(35,31,32);font-family:ScalaSansLF-Regular;font-size:8.0px;stroke:none;">E) High-rate long-life cycling performance of a-CVO and c-CVO at 20 A g </text>
   <text y="546.694" x="292.11" svgx:width="0.55" style="fill:rgb(35,31,32);font-family:Symbol;font-size:5.6px;stroke:none;">−</text>
   <text y="546.694" x="295.184" svgx:width="0.5" style="fill:rgb(35,31,32);font-family:ScalaSansLF-Regular;font-size:5.6px;stroke:none;">1</text>
   <text y="549.494" x="297.979,297.979" svgx:width="0.25,0.25" style="fill:rgb(35,31,32);font-family:ScalaSansLF-Regular;font-size:8.0px;stroke:none;"> .</text>
  </g>
 </g>
</svg>
