<?xml version="1.0" encoding="UTF-8"?>
<svg height="20.0" width="519.5723270440251" xmlns="http://www.w3.org/2000/svg">
 <g>
  <rect x="10.0" y="-215.0" width="1.5723270440251573" height="225.0" style="fill:cyan;opacity:0.3;"/>
  <text x="10.0" y="10.0" transform="matrix(6.123233995736766E-17,-1.0,1.0,6.123233995736766E-17,0.0,20.0)" style="font-size:1.0000000000000013px;">National Natura</text>
  <rect x="11.0" y="-199.0" width="1.5723270440251573" height="209.0" style="fill:cyan;opacity:0.3;"/>
  <text x="11.0" y="10.0" transform="matrix(6.123233995736766E-17,-1.0,1.0,6.123233995736766E-17,1.0,21.0)" style="font-size:1.0000000000000013px;">EDS</text>
  <rect x="13.0" y="-192.0" width="1.5723270440251573" height="202.0" style="fill:cyan;opacity:0.3;"/>
  <text x="13.0" y="10.0" transform="matrix(6.123233995736766E-17,-1.0,1.0,6.123233995736766E-17,3.0,23.0)" style="font-size:1.0000000000000013px;">Celgard</text>
  <rect x="14.0" y="-81.0" width="1.5723270440251573" height="91.0" style="fill:cyan;opacity:0.3;"/>
  <text x="14.0" y="10.0" transform="matrix(6.123233995736766E-17,-1.0,1.0,6.123233995736766E-17,4.0,24.0)" style="font-size:1.0000000000000013px;">American Chemic</text>
  <rect x="16.0" y="-69.0" width="1.5723270440251573" height="79.0" style="fill:cyan;opacity:0.3;"/>
  <text x="16.0" y="10.0" transform="matrix(6.123233995736766E-17,-1.0,1.0,6.123233995736766E-17,5.999999999999998,26.0)" style="font-size:1.0000000000000013px;">National Scienc</text>
  <rect x="17.0" y="-62.0" width="1.5723270440251573" height="72.0" style="fill:cyan;opacity:0.3;"/>
  <text x="17.0" y="10.0" transform="matrix(6.123233995736766E-17,-1.0,1.0,6.123233995736766E-17,6.999999999999998,27.0)" style="font-size:1.0000000000000013px;">National Resear</text>
  <rect x="19.0" y="-56.0" width="1.5723270440251573" height="66.0" style="fill:cyan;opacity:0.3;"/>
  <text x="19.0" y="10.0" transform="matrix(6.123233995736766E-17,-1.0,1.0,6.123233995736766E-17,8.999999999999998,29.0)" style="font-size:1.0000000000000013px;">Hitachi</text>
  <rect x="21.0" y="-50.0" width="1.5723270440251573" height="60.0" style="fill:cyan;opacity:0.3;"/>
  <text x="21.0" y="10.0" transform="matrix(6.123233995736766E-17,-1.0,1.0,6.123233995736766E-17,10.999999999999998,31.0)" style="font-size:1.0000000000000013px;">U.S. Department</text>
  <rect x="22.0" y="-47.0" width="1.5723270440251573" height="57.0" style="fill:cyan;opacity:0.3;"/>
  <text x="22.0" y="10.0" transform="matrix(6.123233995736766E-17,-1.0,1.0,6.123233995736766E-17,11.999999999999998,32.0)" style="font-size:1.0000000000000013px;">American Chemic</text>
  <rect x="24.0" y="-47.0" width="1.5723270440251573" height="57.0" style="fill:cyan;opacity:0.3;"/>
  <text x="24.0" y="10.0" transform="matrix(6.123233995736766E-17,-1.0,1.0,6.123233995736766E-17,13.999999999999998,34.0)" style="font-size:1.0000000000000013px;">Royal Society</text>
  <rect x="25.0" y="-43.0" width="1.5723270440251573" height="53.0" style="fill:cyan;opacity:0.3;"/>
  <text x="25.0" y="10.0" transform="matrix(6.123233995736766E-17,-1.0,1.0,6.123233995736766E-17,14.999999999999998,35.0)" style="font-size:1.0000000000000013px;">Chinese Academy</text>
  <rect x="27.0" y="-40.0" width="1.5723270440251573" height="50.0" style="fill:cyan;opacity:0.3;"/>
  <text x="27.0" y="10.0" transform="matrix(6.123233995736766E-17,-1.0,1.0,6.123233995736766E-17,17.0,37.0)" style="font-size:1.0000000000000013px;">Samsung</text>
  <rect x="28.0" y="-37.0" width="1.5723270440251573" height="47.0" style="fill:cyan;opacity:0.3;"/>
  <text x="28.0" y="10.0" transform="matrix(6.123233995736766E-17,-1.0,1.0,6.123233995736766E-17,18.0,38.0)" style="font-size:1.0000000000000013px;">American Chemic</text>
  <rect x="30.0" y="-24.0" width="1.5723270440251573" height="34.0" style="fill:cyan;opacity:0.3;"/>
  <text x="30.0" y="10.0" transform="matrix(6.123233995736766E-17,-1.0,1.0,6.123233995736766E-17,20.0,40.0)" style="font-size:1.0000000000000013px;">Ministry of Edu</text>
  <rect x="32.0" y="-24.0" width="1.5723270440251573" height="34.0" style="fill:cyan;opacity:0.3;"/>
  <text x="32.0" y="10.0" transform="matrix(6.123233995736766E-17,-1.0,1.0,6.123233995736766E-17,22.0,42.0)" style="font-size:1.0000000000000013px;">Research and De</text>
  <rect x="33.0" y="-21.0" width="1.5723270440251573" height="31.0" style="fill:cyan;opacity:0.3;"/>
  <text x="33.0" y="10.0" transform="matrix(6.123233995736766E-17,-1.0,1.0,6.123233995736766E-17,23.0,43.0)" style="font-size:1.0000000000000013px;">Argonne Nationa</text>
  <rect x="35.0" y="-21.0" width="1.5723270440251573" height="31.0" style="fill:cyan;opacity:0.3;"/>
  <text x="35.0" y="10.0" transform="matrix(6.123233995736766E-17,-1.0,1.0,6.123233995736766E-17,25.0,45.0)" style="font-size:1.0000000000000013px;">U.S. Department</text>
  <rect x="36.0" y="-18.0" width="1.5723270440251573" height="28.0" style="fill:cyan;opacity:0.3;"/>
  <text x="36.0" y="10.0" transform="matrix(6.123233995736766E-17,-1.0,1.0,6.123233995736766E-17,26.0,46.0)" style="font-size:1.0000000000000013px;">Office of Scien</text>
  <rect x="38.0" y="-15.0" width="1.5723270440251573" height="25.0" style="fill:cyan;opacity:0.3;"/>
  <text x="38.0" y="10.0" transform="matrix(6.123233995736766E-17,-1.0,1.0,6.123233995736766E-17,28.0,48.0)" style="font-size:1.0000000000000013px;">Tsinghua Univer</text>
  <rect x="39.0" y="-15.0" width="1.5723270440251573" height="25.0" style="fill:cyan;opacity:0.3;"/>
  <text x="39.0" y="10.0" transform="matrix(6.123233995736766E-17,-1.0,1.0,6.123233995736766E-17,29.0,49.0)" style="font-size:1.0000000000000013px;">Ministry of Edu</text>
  <rect x="41.0" y="-15.0" width="1.5723270440251573" height="25.0" style="fill:cyan;opacity:0.3;"/>
  <text x="41.0" y="10.0" transform="matrix(6.123233995736766E-17,-1.0,1.0,6.123233995736766E-17,31.0,51.0)" style="font-size:1.0000000000000013px;">Applied Materia</text>
  <rect x="43.0" y="-12.0" width="1.5723270440251573" height="22.0" style="fill:cyan;opacity:0.3;"/>
  <text x="43.0" y="10.0" transform="matrix(6.123233995736766E-17,-1.0,1.0,6.123233995736766E-17,33.0,53.0)" style="font-size:1.0000000000000013px;">Office of Scien</text>
  <rect x="44.0" y="-12.0" width="1.5723270440251573" height="22.0" style="fill:cyan;opacity:0.3;"/>
  <text x="44.0" y="10.0" transform="matrix(6.123233995736766E-17,-1.0,1.0,6.123233995736766E-17,34.0,54.0)" style="font-size:1.0000000000000013px;">Shanghai Jiao T</text>
  <rect x="46.0" y="-12.0" width="1.5723270440251573" height="22.0" style="fill:cyan;opacity:0.3;"/>
  <text x="46.0" y="10.0" transform="matrix(6.123233995736766E-17,-1.0,1.0,6.123233995736766E-17,36.0,56.0)" style="font-size:1.0000000000000013px;">Wuhan Universit</text>
  <rect x="47.0" y="-9.0" width="1.5723270440251573" height="19.0" style="fill:cyan;opacity:0.3;"/>
  <text x="47.0" y="10.0" transform="matrix(6.123233995736766E-17,-1.0,1.0,6.123233995736766E-17,37.0,57.0)" style="font-size:1.0000000000000013px;">Office of Energ</text>
  <rect x="49.0" y="-9.0" width="1.5723270440251573" height="19.0" style="fill:cyan;opacity:0.3;"/>
  <text x="49.0" y="10.0" transform="matrix(6.123233995736766E-17,-1.0,1.0,6.123233995736766E-17,39.0,59.0)" style="font-size:1.0000000000000013px;">Central South U</text>
  <rect x="50.0" y="-9.0" width="1.5723270440251573" height="19.0" style="fill:cyan;opacity:0.3;"/>
  <text x="50.0" y="10.0" transform="matrix(6.123233995736766E-17,-1.0,1.0,6.123233995736766E-17,40.0,60.0)" style="font-size:1.0000000000000013px;">Philips</text>
  <rect x="52.0" y="-9.0" width="1.5723270440251573" height="19.0" style="fill:cyan;opacity:0.3;"/>
  <text x="52.0" y="10.0" transform="matrix(6.123233995736766E-17,-1.0,1.0,6.123233995736766E-17,42.0,62.0)" style="font-size:1.0000000000000013px;">EMC</text>
  <rect x="54.0" y="-5.0" width="1.5723270440251573" height="15.0" style="fill:cyan;opacity:0.3;"/>
  <text x="54.0" y="10.0" transform="matrix(6.123233995736766E-17,-1.0,1.0,6.123233995736766E-17,44.0,64.0)" style="font-size:1.0000000000000013px;">Argonne Nationa</text>
  <rect x="55.0" y="-5.0" width="1.5723270440251573" height="15.0" style="fill:cyan;opacity:0.3;"/>
  <text x="55.0" y="10.0" transform="matrix(6.123233995736766E-17,-1.0,1.0,6.123233995736766E-17,45.0,65.0)" style="font-size:1.0000000000000013px;">University of C</text>
  <rect x="57.0" y="-5.0" width="1.5723270440251573" height="15.0" style="fill:cyan;opacity:0.3;"/>
  <text x="57.0" y="10.0" transform="matrix(6.123233995736766E-17,-1.0,1.0,6.123233995736766E-17,47.0,67.0)" style="font-size:1.0000000000000013px;">National Natura</text>
  <rect x="58.0" y="-5.0" width="1.5723270440251573" height="15.0" style="fill:cyan;opacity:0.3;"/>
  <text x="58.0" y="10.0" transform="matrix(6.123233995736766E-17,-1.0,1.0,6.123233995736766E-17,48.0,68.0)" style="font-size:1.0000000000000013px;">Paul Scherrer I</text>
  <rect x="60.0" y="-5.0" width="1.5723270440251573" height="15.0" style="fill:cyan;opacity:0.3;"/>
  <text x="60.0" y="10.0" transform="matrix(6.123233995736766E-17,-1.0,1.0,6.123233995736766E-17,50.0,70.0)" style="font-size:1.0000000000000013px;">China Postdocto</text>
  <rect x="61.0" y="-5.0" width="1.5723270440251573" height="15.0" style="fill:cyan;opacity:0.3;"/>
  <text x="61.0" y="10.0" transform="matrix(6.123233995736766E-17,-1.0,1.0,6.123233995736766E-17,51.0,71.0)" style="font-size:1.0000000000000013px;">Tsinghua Univer</text>
  <rect x="63.0" y="-5.0" width="1.5723270440251573" height="15.0" style="fill:cyan;opacity:0.3;"/>
  <text x="63.0" y="10.0" transform="matrix(6.123233995736766E-17,-1.0,1.0,6.123233995736766E-17,53.0,73.0)" style="font-size:1.0000000000000013px;">Argonne Nationa</text>
  <rect x="65.0" y="-5.0" width="1.5723270440251573" height="15.0" style="fill:cyan;opacity:0.3;"/>
  <text x="65.0" y="10.0" transform="matrix(6.123233995736766E-17,-1.0,1.0,6.123233995736766E-17,55.0,75.0)" style="font-size:1.0000000000000013px;">Japan Science a</text>
  <rect x="66.0" y="-2.0" width="1.5723270440251573" height="12.0" style="fill:cyan;opacity:0.3;"/>
  <text x="66.0" y="10.0" transform="matrix(6.123233995736766E-17,-1.0,1.0,6.123233995736766E-17,56.0,76.0)" style="font-size:1.0000000000000013px;">Nanyang Technol</text>
  <rect x="68.0" y="-2.0" width="1.5723270440251573" height="12.0" style="fill:cyan;opacity:0.3;"/>
  <text x="68.0" y="10.0" transform="matrix(6.123233995736766E-17,-1.0,1.0,6.123233995736766E-17,58.0,78.0)" style="font-size:1.0000000000000013px;">University of E</text>
  <rect x="69.0" y="-2.0" width="1.5723270440251573" height="12.0" style="fill:cyan;opacity:0.3;"/>
  <text x="69.0" y="10.0" transform="matrix(6.123233995736766E-17,-1.0,1.0,6.123233995736766E-17,59.0,79.0)" style="font-size:1.0000000000000013px;">University of T</text>
  <rect x="71.0" y="-2.0" width="1.5723270440251573" height="12.0" style="fill:cyan;opacity:0.3;"/>
  <text x="71.0" y="10.0" transform="matrix(6.123233995736766E-17,-1.0,1.0,6.123233995736766E-17,61.0,81.0)" style="font-size:1.0000000000000013px;">Japan Society f</text>
  <rect x="72.0" y="-2.0" width="1.5723270440251573" height="12.0" style="fill:cyan;opacity:0.3;"/>
  <text x="72.0" y="10.0" transform="matrix(6.123233995736766E-17,-1.0,1.0,6.123233995736766E-17,62.0,82.0)" style="font-size:1.0000000000000013px;">Ministry of Sci</text>
  <rect x="74.0" y="-2.0" width="1.5723270440251573" height="12.0" style="fill:cyan;opacity:0.3;"/>
  <text x="74.0" y="10.0" transform="matrix(6.123233995736766E-17,-1.0,1.0,6.123233995736766E-17,63.99999999999999,84.0)" style="font-size:1.0000000000000013px;">Ulsan National </text>
  <rect x="76.0" y="-2.0" width="1.5723270440251573" height="12.0" style="fill:cyan;opacity:0.3;"/>
  <text x="76.0" y="10.0" transform="matrix(6.123233995736766E-17,-1.0,1.0,6.123233995736766E-17,66.0,86.0)" style="font-size:1.0000000000000013px;">Royal Academy o</text>
  <rect x="77.0" y="-2.0" width="1.5723270440251573" height="12.0" style="fill:cyan;opacity:0.3;"/>
  <text x="77.0" y="10.0" transform="matrix(6.123233995736766E-17,-1.0,1.0,6.123233995736766E-17,67.0,87.0)" style="font-size:1.0000000000000013px;">Korea Institute</text>
  <rect x="79.0" y="-2.0" width="1.5723270440251573" height="12.0" style="fill:cyan;opacity:0.3;"/>
  <text x="79.0" y="10.0" transform="matrix(6.123233995736766E-17,-1.0,1.0,6.123233995736766E-17,69.0,89.0)" style="font-size:1.0000000000000013px;">Korea Institute</text>
  <rect x="80.0" y="-2.0" width="1.5723270440251573" height="12.0" style="fill:cyan;opacity:0.3;"/>
  <text x="80.0" y="10.0" transform="matrix(6.123233995736766E-17,-1.0,1.0,6.123233995736766E-17,70.0,90.0)" style="font-size:1.0000000000000013px;">Shanghai Jiao T</text>
  <rect x="82.0" y="-2.0" width="1.5723270440251573" height="12.0" style="fill:cyan;opacity:0.3;"/>
  <text x="82.0" y="10.0" transform="matrix(6.123233995736766E-17,-1.0,1.0,6.123233995736766E-17,72.0,92.0)" style="font-size:1.0000000000000013px;">Program for New</text>
  <rect x="83.0" y="-2.0" width="1.5723270440251573" height="12.0" style="fill:cyan;opacity:0.3;"/>
  <text x="83.0" y="10.0" transform="matrix(6.123233995736766E-17,-1.0,1.0,6.123233995736766E-17,73.0,93.0)" style="font-size:1.0000000000000013px;">Fudan Universit</text>
  <rect x="85.0" y="-2.0" width="1.5723270440251573" height="12.0" style="fill:cyan;opacity:0.3;"/>
  <text x="85.0" y="10.0" transform="matrix(6.123233995736766E-17,-1.0,1.0,6.123233995736766E-17,75.0,95.0)" style="font-size:1.0000000000000013px;">U.S. Geological</text>
  <rect x="87.0" y="-2.0" width="1.5723270440251573" height="12.0" style="fill:cyan;opacity:0.3;"/>
  <text x="87.0" y="10.0" transform="matrix(6.123233995736766E-17,-1.0,1.0,6.123233995736766E-17,77.0,97.0)" style="font-size:1.0000000000000013px;">Stanford Univer</text>
  <rect x="88.0" y="-2.0" width="1.5723270440251573" height="12.0" style="fill:cyan;opacity:0.3;"/>
  <text x="88.0" y="10.0" transform="matrix(6.123233995736766E-17,-1.0,1.0,6.123233995736766E-17,78.0,98.0)" style="font-size:1.0000000000000013px;">Lawrence Berkel</text>
  <rect x="90.0" y="-2.0" width="1.5723270440251573" height="12.0" style="fill:cyan;opacity:0.3;"/>
  <text x="90.0" y="10.0" transform="matrix(6.123233995736766E-17,-1.0,1.0,6.123233995736766E-17,80.0,100.0)" style="font-size:1.0000000000000013px;">Basic Energy Sc</text>
  <rect x="91.0" y="-2.0" width="1.5723270440251573" height="12.0" style="fill:cyan;opacity:0.3;"/>
  <text x="91.0" y="10.0" transform="matrix(6.123233995736766E-17,-1.0,1.0,6.123233995736766E-17,81.0,101.0)" style="font-size:1.0000000000000013px;">Boeing</text>
  <rect x="93.0" y="-2.0" width="1.5723270440251573" height="12.0" style="fill:cyan;opacity:0.3;"/>
  <text x="93.0" y="10.0" transform="matrix(6.123233995736766E-17,-1.0,1.0,6.123233995736766E-17,83.0,103.0)" style="font-size:1.0000000000000013px;">Kyoto Universit</text>
  <rect x="94.0" y="-2.0" width="1.5723270440251573" height="12.0" style="fill:cyan;opacity:0.3;"/>
  <text x="94.0" y="10.0" transform="matrix(6.123233995736766E-17,-1.0,1.0,6.123233995736766E-17,84.0,104.0)" style="font-size:1.0000000000000013px;">Brookhaven Nati</text>
  <rect x="96.0" y="-2.0" width="1.5723270440251573" height="12.0" style="fill:cyan;opacity:0.3;"/>
  <text x="96.0" y="10.0" transform="matrix(6.123233995736766E-17,-1.0,1.0,6.123233995736766E-17,86.0,106.0)" style="font-size:1.0000000000000013px;">Brookhaven Nati</text>
  <rect x="98.0" y="1.0" width="1.5723270440251573" height="9.0" style="fill:cyan;opacity:0.3;"/>
  <text x="98.0" y="10.0" transform="matrix(6.123233995736766E-17,-1.0,1.0,6.123233995736766E-17,88.0,108.0)" style="font-size:1.0000000000000013px;">Australian Rese</text>
  <rect x="99.0" y="1.0" width="1.5723270440251573" height="9.0" style="fill:cyan;opacity:0.3;"/>
  <text x="99.0" y="10.0" transform="matrix(6.123233995736766E-17,-1.0,1.0,6.123233995736766E-17,89.0,109.0)" style="font-size:1.0000000000000013px;">Shandong Provin</text>
  <rect x="101.0" y="1.0" width="1.5723270440251573" height="9.0" style="fill:cyan;opacity:0.3;"/>
  <text x="101.0" y="10.0" transform="matrix(6.123233995736766E-17,-1.0,1.0,6.123233995736766E-17,91.0,111.0)" style="font-size:1.0000000000000013px;">European Parlia</text>
  <rect x="102.0" y="1.0" width="1.5723270440251573" height="9.0" style="fill:cyan;opacity:0.3;"/>
  <text x="102.0" y="10.0" transform="matrix(6.123233995736766E-17,-1.0,1.0,6.123233995736766E-17,92.0,112.0)" style="font-size:1.0000000000000013px;">Chinese Academy</text>
  <rect x="104.0" y="1.0" width="1.5723270440251573" height="9.0" style="fill:cyan;opacity:0.3;"/>
  <text x="104.0" y="10.0" transform="matrix(6.123233995736766E-17,-1.0,1.0,6.123233995736766E-17,94.0,114.0)" style="font-size:1.0000000000000013px;">Small and Mediu</text>
  <rect x="105.0" y="1.0" width="1.5723270440251573" height="9.0" style="fill:cyan;opacity:0.3;"/>
  <text x="105.0" y="10.0" transform="matrix(6.123233995736766E-17,-1.0,1.0,6.123233995736766E-17,95.0,115.0)" style="font-size:1.0000000000000013px;">Central South U</text>
  <rect x="107.0" y="1.0" width="1.5723270440251573" height="9.0" style="fill:cyan;opacity:0.3;"/>
  <text x="107.0" y="10.0" transform="matrix(6.123233995736766E-17,-1.0,1.0,6.123233995736766E-17,97.0,117.0)" style="font-size:1.0000000000000013px;">American Associ</text>
  <rect x="109.0" y="1.0" width="1.5723270440251573" height="9.0" style="fill:cyan;opacity:0.3;"/>
  <text x="109.0" y="10.0" transform="matrix(6.123233995736766E-17,-1.0,1.0,6.123233995736766E-17,99.0,119.0)" style="font-size:1.0000000000000013px;">European Commis</text>
  <rect x="110.0" y="1.0" width="1.5723270440251573" height="9.0" style="fill:cyan;opacity:0.3;"/>
  <text x="110.0" y="10.0" transform="matrix(6.123233995736766E-17,-1.0,1.0,6.123233995736766E-17,100.0,120.0)" style="font-size:1.0000000000000013px;">Harbin Institut</text>
  <rect x="112.0" y="1.0" width="1.5723270440251573" height="9.0" style="fill:cyan;opacity:0.3;"/>
  <text x="112.0" y="10.0" transform="matrix(6.123233995736766E-17,-1.0,1.0,6.123233995736766E-17,102.0,122.0)" style="font-size:1.0000000000000013px;">Basic Energy Sc</text>
  <rect x="113.0" y="1.0" width="1.5723270440251573" height="9.0" style="fill:cyan;opacity:0.3;"/>
  <text x="113.0" y="10.0" transform="matrix(6.123233995736766E-17,-1.0,1.0,6.123233995736766E-17,103.0,123.0)" style="font-size:1.0000000000000013px;">Thermo Scientif</text>
  <rect x="115.0" y="1.0" width="1.5723270440251573" height="9.0" style="fill:cyan;opacity:0.3;"/>
  <text x="115.0" y="10.0" transform="matrix(6.123233995736766E-17,-1.0,1.0,6.123233995736766E-17,105.0,125.0)" style="font-size:1.0000000000000013px;">Beijing Univers</text>
  <rect x="116.0" y="1.0" width="1.5723270440251573" height="9.0" style="fill:cyan;opacity:0.3;"/>
  <text x="116.0" y="10.0" transform="matrix(6.123233995736766E-17,-1.0,1.0,6.123233995736766E-17,106.0,126.0)" style="font-size:1.0000000000000013px;">Tianjin Univers</text>
  <rect x="118.0" y="1.0" width="1.5723270440251573" height="9.0" style="fill:cyan;opacity:0.3;"/>
  <text x="118.0" y="10.0" transform="matrix(6.123233995736766E-17,-1.0,1.0,6.123233995736766E-17,108.0,128.0)" style="font-size:1.0000000000000013px;">Bundesministeri</text>
  <rect x="120.0" y="1.0" width="1.5723270440251573" height="9.0" style="fill:cyan;opacity:0.3;"/>
  <text x="120.0" y="10.0" transform="matrix(6.123233995736766E-17,-1.0,1.0,6.123233995736766E-17,110.0,130.0)" style="font-size:1.0000000000000013px;">Nanjing Univers</text>
  <rect x="121.0" y="1.0" width="1.5723270440251573" height="9.0" style="fill:cyan;opacity:0.3;"/>
  <text x="121.0" y="10.0" transform="matrix(6.123233995736766E-17,-1.0,1.0,6.123233995736766E-17,111.0,131.0)" style="font-size:1.0000000000000013px;">Ministry of Sci</text>
  <rect x="123.0" y="1.0" width="1.5723270440251573" height="9.0" style="fill:cyan;opacity:0.3;"/>
  <text x="123.0" y="10.0" transform="matrix(6.123233995736766E-17,-1.0,1.0,6.123233995736766E-17,113.0,133.0)" style="font-size:1.0000000000000013px;">Tianjin Univers</text>
  <rect x="124.0" y="1.0" width="1.5723270440251573" height="9.0" style="fill:cyan;opacity:0.3;"/>
  <text x="124.0" y="10.0" transform="matrix(6.123233995736766E-17,-1.0,1.0,6.123233995736766E-17,114.0,134.0)" style="font-size:1.0000000000000013px;">Korea Research </text>
  <rect x="126.0" y="1.0" width="1.5723270440251573" height="9.0" style="fill:cyan;opacity:0.3;"/>
  <text x="126.0" y="10.0" transform="matrix(6.123233995736766E-17,-1.0,1.0,6.123233995736766E-17,116.0,136.0)" style="font-size:1.0000000000000013px;">National Academ</text>
  <rect x="127.0" y="1.0" width="1.5723270440251573" height="9.0" style="fill:cyan;opacity:0.3;"/>
  <text x="127.0" y="10.0" transform="matrix(6.123233995736766E-17,-1.0,1.0,6.123233995736766E-17,117.0,137.0)" style="font-size:1.0000000000000013px;">University of T</text>
  <rect x="129.0" y="1.0" width="1.5723270440251573" height="9.0" style="fill:cyan;opacity:0.3;"/>
  <text x="129.0" y="10.0" transform="matrix(6.123233995736766E-17,-1.0,1.0,6.123233995736766E-17,119.0,139.0)" style="font-size:1.0000000000000013px;">Hunan Universit</text>
  <rect x="131.0" y="1.0" width="1.5723270440251573" height="9.0" style="fill:cyan;opacity:0.3;"/>
  <text x="131.0" y="10.0" transform="matrix(6.123233995736766E-17,-1.0,1.0,6.123233995736766E-17,120.99999999999999,141.0)" style="font-size:1.0000000000000013px;">Orange</text>
  <rect x="132.0" y="1.0" width="1.5723270440251573" height="9.0" style="fill:cyan;opacity:0.3;"/>
  <text x="132.0" y="10.0" transform="matrix(6.123233995736766E-17,-1.0,1.0,6.123233995736766E-17,121.99999999999999,142.0)" style="font-size:1.0000000000000013px;">Korea Universit</text>
  <rect x="134.0" y="1.0" width="1.5723270440251573" height="9.0" style="fill:cyan;opacity:0.3;"/>
  <text x="134.0" y="10.0" transform="matrix(6.123233995736766E-17,-1.0,1.0,6.123233995736766E-17,123.99999999999999,144.0)" style="font-size:1.0000000000000013px;">Merck</text>
  <rect x="135.0" y="1.0" width="1.5723270440251573" height="9.0" style="fill:cyan;opacity:0.3;"/>
  <text x="135.0" y="10.0" transform="matrix(6.123233995736766E-17,-1.0,1.0,6.123233995736766E-17,124.99999999999999,145.0)" style="font-size:1.0000000000000013px;">Purdue Universi</text>
  <rect x="137.0" y="1.0" width="1.5723270440251573" height="9.0" style="fill:cyan;opacity:0.3;"/>
  <text x="137.0" y="10.0" transform="matrix(6.123233995736766E-17,-1.0,1.0,6.123233995736766E-17,126.99999999999999,147.0)" style="font-size:1.0000000000000013px;">Institute of Ph</text>
  <rect x="138.0" y="4.0" width="1.5723270440251573" height="6.0" style="fill:cyan;opacity:0.3;"/>
  <text x="138.0" y="10.0" transform="matrix(6.123233995736766E-17,-1.0,1.0,6.123233995736766E-17,127.99999999999999,148.0)" style="font-size:1.0000000000000013px;">Natural Science</text>
  <rect x="140.0" y="4.0" width="1.5723270440251573" height="6.0" style="fill:cyan;opacity:0.3;"/>
  <text x="140.0" y="10.0" transform="matrix(6.123233995736766E-17,-1.0,1.0,6.123233995736766E-17,130.0,150.0)" style="font-size:1.0000000000000013px;">Huazhong Univer</text>
  <rect x="142.0" y="4.0" width="1.5723270440251573" height="6.0" style="fill:cyan;opacity:0.3;"/>
  <text x="142.0" y="10.0" transform="matrix(6.123233995736766E-17,-1.0,1.0,6.123233995736766E-17,132.0,152.0)" style="font-size:1.0000000000000013px;">University of C</text>
  <rect x="143.0" y="4.0" width="1.5723270440251573" height="6.0" style="fill:cyan;opacity:0.3;"/>
  <text x="143.0" y="10.0" transform="matrix(6.123233995736766E-17,-1.0,1.0,6.123233995736766E-17,133.0,153.0)" style="font-size:1.0000000000000013px;">American Instit</text>
  <rect x="145.0" y="4.0" width="1.5723270440251573" height="6.0" style="fill:cyan;opacity:0.3;"/>
  <text x="145.0" y="10.0" transform="matrix(6.123233995736766E-17,-1.0,1.0,6.123233995736766E-17,135.0,155.0)" style="font-size:1.0000000000000013px;">Northeastern Un</text>
  <rect x="146.0" y="4.0" width="1.5723270440251573" height="6.0" style="fill:cyan;opacity:0.3;"/>
  <text x="146.0" y="10.0" transform="matrix(6.123233995736766E-17,-1.0,1.0,6.123233995736766E-17,136.0,156.0)" style="font-size:1.0000000000000013px;">Environmental P</text>
  <rect x="148.0" y="4.0" width="1.5723270440251573" height="6.0" style="fill:cyan;opacity:0.3;"/>
  <text x="148.0" y="10.0" transform="matrix(6.123233995736766E-17,-1.0,1.0,6.123233995736766E-17,138.0,158.0)" style="font-size:1.0000000000000013px;">University of M</text>
  <rect x="149.0" y="4.0" width="1.5723270440251573" height="6.0" style="fill:cyan;opacity:0.3;"/>
  <text x="149.0" y="10.0" transform="matrix(6.123233995736766E-17,-1.0,1.0,6.123233995736766E-17,139.0,159.0)" style="font-size:1.0000000000000013px;">King Abdullah U</text>
  <rect x="151.0" y="4.0" width="1.5723270440251573" height="6.0" style="fill:cyan;opacity:0.3;"/>
  <text x="151.0" y="10.0" transform="matrix(6.123233995736766E-17,-1.0,1.0,6.123233995736766E-17,141.0,161.0)" style="font-size:1.0000000000000013px;">South China Nor</text>
  <rect x="153.0" y="4.0" width="1.5723270440251573" height="6.0" style="fill:cyan;opacity:0.3;"/>
  <text x="153.0" y="10.0" transform="matrix(6.123233995736766E-17,-1.0,1.0,6.123233995736766E-17,143.0,163.0)" style="font-size:1.0000000000000013px;">United Nations</text>
  <rect x="154.0" y="4.0" width="1.5723270440251573" height="6.0" style="fill:cyan;opacity:0.3;"/>
  <text x="154.0" y="10.0" transform="matrix(6.123233995736766E-17,-1.0,1.0,6.123233995736766E-17,144.0,164.0)" style="font-size:1.0000000000000013px;">Kansas State Un</text>
  <rect x="156.0" y="4.0" width="1.5723270440251573" height="6.0" style="fill:cyan;opacity:0.3;"/>
  <text x="156.0" y="10.0" transform="matrix(6.123233995736766E-17,-1.0,1.0,6.123233995736766E-17,146.0,166.0)" style="font-size:1.0000000000000013px;">Technische Univ</text>
  <rect x="157.0" y="4.0" width="1.5723270440251573" height="6.0" style="fill:cyan;opacity:0.3;"/>
  <text x="157.0" y="10.0" transform="matrix(6.123233995736766E-17,-1.0,1.0,6.123233995736766E-17,147.0,167.0)" style="font-size:1.0000000000000013px;">Ritsumeikan Uni</text>
  <rect x="159.0" y="4.0" width="1.5723270440251573" height="6.0" style="fill:cyan;opacity:0.3;"/>
  <text x="159.0" y="10.0" transform="matrix(6.123233995736766E-17,-1.0,1.0,6.123233995736766E-17,149.0,169.0)" style="font-size:1.0000000000000013px;">Nanjing Univers</text>
  <rect x="160.0" y="4.0" width="1.5723270440251573" height="6.0" style="fill:cyan;opacity:0.3;"/>
  <text x="160.0" y="10.0" transform="matrix(6.123233995736766E-17,-1.0,1.0,6.123233995736766E-17,150.0,170.0)" style="font-size:1.0000000000000013px;">Basic Energy Sc</text>
  <rect x="162.0" y="4.0" width="1.5723270440251573" height="6.0" style="fill:cyan;opacity:0.3;"/>
  <text x="162.0" y="10.0" transform="matrix(6.123233995736766E-17,-1.0,1.0,6.123233995736766E-17,152.0,172.0)" style="font-size:1.0000000000000013px;">Zhejiang Univer</text>
  <rect x="164.0" y="4.0" width="1.5723270440251573" height="6.0" style="fill:cyan;opacity:0.3;"/>
  <text x="164.0" y="10.0" transform="matrix(6.123233995736766E-17,-1.0,1.0,6.123233995736766E-17,154.0,174.0)" style="font-size:1.0000000000000013px;">Laboratory Dire</text>
  <rect x="165.0" y="4.0" width="1.5723270440251573" height="6.0" style="fill:cyan;opacity:0.3;"/>
  <text x="165.0" y="10.0" transform="matrix(6.123233995736766E-17,-1.0,1.0,6.123233995736766E-17,155.0,175.0)" style="font-size:1.0000000000000013px;">EMI</text>
  <rect x="167.0" y="4.0" width="1.5723270440251573" height="6.0" style="fill:cyan;opacity:0.3;"/>
  <text x="167.0" y="10.0" transform="matrix(6.123233995736766E-17,-1.0,1.0,6.123233995736766E-17,157.0,177.0)" style="font-size:1.0000000000000013px;">European Commis</text>
  <rect x="168.0" y="4.0" width="1.5723270440251573" height="6.0" style="fill:cyan;opacity:0.3;"/>
  <text x="168.0" y="10.0" transform="matrix(6.123233995736766E-17,-1.0,1.0,6.123233995736766E-17,158.0,178.0)" style="font-size:1.0000000000000013px;">National Tsing </text>
  <rect x="170.0" y="4.0" width="1.5723270440251573" height="6.0" style="fill:cyan;opacity:0.3;"/>
  <text x="170.0" y="10.0" transform="matrix(6.123233995736766E-17,-1.0,1.0,6.123233995736766E-17,160.0,180.0)" style="font-size:1.0000000000000013px;">Donghua Univers</text>
  <rect x="171.0" y="4.0" width="1.5723270440251573" height="6.0" style="fill:cyan;opacity:0.3;"/>
  <text x="171.0" y="10.0" transform="matrix(6.123233995736766E-17,-1.0,1.0,6.123233995736766E-17,161.0,181.0)" style="font-size:1.0000000000000013px;">Jiangsu Univers</text>
  <rect x="173.0" y="4.0" width="1.5723270440251573" height="6.0" style="fill:cyan;opacity:0.3;"/>
  <text x="173.0" y="10.0" transform="matrix(6.123233995736766E-17,-1.0,1.0,6.123233995736766E-17,163.0,183.0)" style="font-size:1.0000000000000013px;">Harbin Institut</text>
  <rect x="175.0" y="4.0" width="1.5723270440251573" height="6.0" style="fill:cyan;opacity:0.3;"/>
  <text x="175.0" y="10.0" transform="matrix(6.123233995736766E-17,-1.0,1.0,6.123233995736766E-17,165.0,185.0)" style="font-size:1.0000000000000013px;">Chongqing Unive</text>
  <rect x="176.0" y="4.0" width="1.5723270440251573" height="6.0" style="fill:cyan;opacity:0.3;"/>
  <text x="176.0" y="10.0" transform="matrix(6.123233995736766E-17,-1.0,1.0,6.123233995736766E-17,166.0,186.0)" style="font-size:1.0000000000000013px;">Engineering Lab</text>
  <rect x="178.0" y="4.0" width="1.5723270440251573" height="6.0" style="fill:cyan;opacity:0.3;"/>
  <text x="178.0" y="10.0" transform="matrix(6.123233995736766E-17,-1.0,1.0,6.123233995736766E-17,168.0,188.0)" style="font-size:1.0000000000000013px;">Jiangnan Univer</text>
  <rect x="179.0" y="4.0" width="1.5723270440251573" height="6.0" style="fill:cyan;opacity:0.3;"/>
  <text x="179.0" y="10.0" transform="matrix(6.123233995736766E-17,-1.0,1.0,6.123233995736766E-17,169.0,189.0)" style="font-size:1.0000000000000013px;">Thermo Scientif</text>
  <rect x="181.0" y="4.0" width="1.5723270440251573" height="6.0" style="fill:cyan;opacity:0.3;"/>
  <text x="181.0" y="10.0" transform="matrix(6.123233995736766E-17,-1.0,1.0,6.123233995736766E-17,171.0,191.0)" style="font-size:1.0000000000000013px;">Beihang Univers</text>
  <rect x="182.0" y="4.0" width="1.5723270440251573" height="6.0" style="fill:cyan;opacity:0.3;"/>
  <text x="182.0" y="10.0" transform="matrix(6.123233995736766E-17,-1.0,1.0,6.123233995736766E-17,172.0,192.0)" style="font-size:1.0000000000000013px;">Science and Eng</text>
  <rect x="184.0" y="4.0" width="1.5723270440251573" height="6.0" style="fill:cyan;opacity:0.3;"/>
  <text x="184.0" y="10.0" transform="matrix(6.123233995736766E-17,-1.0,1.0,6.123233995736766E-17,174.0,194.0)" style="font-size:1.0000000000000013px;">Ministry of Kno</text>
  <rect x="186.0" y="4.0" width="1.5723270440251573" height="6.0" style="fill:cyan;opacity:0.3;"/>
  <text x="186.0" y="10.0" transform="matrix(6.123233995736766E-17,-1.0,1.0,6.123233995736766E-17,176.0,196.0)" style="font-size:1.0000000000000013px;">University of H</text>
  <rect x="187.0" y="4.0" width="1.5723270440251573" height="6.0" style="fill:cyan;opacity:0.3;"/>
  <text x="187.0" y="10.0" transform="matrix(6.123233995736766E-17,-1.0,1.0,6.123233995736766E-17,177.0,197.0)" style="font-size:1.0000000000000013px;">Nanjing Univers</text>
  <rect x="189.0" y="4.0" width="1.5723270440251573" height="6.0" style="fill:cyan;opacity:0.3;"/>
  <text x="189.0" y="10.0" transform="matrix(6.123233995736766E-17,-1.0,1.0,6.123233995736766E-17,179.0,199.0)" style="font-size:1.0000000000000013px;">Georgia Institu</text>
  <rect x="190.0" y="4.0" width="1.5723270440251573" height="6.0" style="fill:cyan;opacity:0.3;"/>
  <text x="190.0" y="10.0" transform="matrix(6.123233995736766E-17,-1.0,1.0,6.123233995736766E-17,180.0,200.0)" style="font-size:1.0000000000000013px;">Tsinghua Univer</text>
  <rect x="192.0" y="4.0" width="1.5723270440251573" height="6.0" style="fill:cyan;opacity:0.3;"/>
  <text x="192.0" y="10.0" transform="matrix(6.123233995736766E-17,-1.0,1.0,6.123233995736766E-17,182.0,202.0)" style="font-size:1.0000000000000013px;">Australian Sync</text>
  <rect x="193.0" y="4.0" width="1.5723270440251573" height="6.0" style="fill:cyan;opacity:0.3;"/>
  <text x="193.0" y="10.0" transform="matrix(6.123233995736766E-17,-1.0,1.0,6.123233995736766E-17,183.0,203.0)" style="font-size:1.0000000000000013px;">Sun Yat-sen Uni</text>
  <rect x="195.0" y="4.0" width="1.5723270440251573" height="6.0" style="fill:cyan;opacity:0.3;"/>
  <text x="195.0" y="10.0" transform="matrix(6.123233995736766E-17,-1.0,1.0,6.123233995736766E-17,185.0,205.0)" style="font-size:1.0000000000000013px;">RWTH Aachen Uni</text>
  <rect x="197.0" y="4.0" width="1.5723270440251573" height="6.0" style="fill:cyan;opacity:0.3;"/>
  <text x="197.0" y="10.0" transform="matrix(6.123233995736766E-17,-1.0,1.0,6.123233995736766E-17,187.0,207.0)" style="font-size:1.0000000000000013px;">Stanford Univer</text>
  <rect x="198.0" y="4.0" width="1.5723270440251573" height="6.0" style="fill:cyan;opacity:0.3;"/>
  <text x="198.0" y="10.0" transform="matrix(6.123233995736766E-17,-1.0,1.0,6.123233995736766E-17,188.0,208.0)" style="font-size:1.0000000000000013px;">Natural Science</text>
  <rect x="200.0" y="4.0" width="1.5723270440251573" height="6.0" style="fill:cyan;opacity:0.3;"/>
  <text x="200.0" y="10.0" transform="matrix(6.123233995736766E-17,-1.0,1.0,6.123233995736766E-17,190.0,210.0)" style="font-size:1.0000000000000013px;">National Instit</text>
  <rect x="201.0" y="4.0" width="1.5723270440251573" height="6.0" style="fill:cyan;opacity:0.3;"/>
  <text x="201.0" y="10.0" transform="matrix(6.123233995736766E-17,-1.0,1.0,6.123233995736766E-17,191.0,211.0)" style="font-size:1.0000000000000013px;">Santen</text>
  <rect x="203.0" y="4.0" width="1.5723270440251573" height="6.0" style="fill:cyan;opacity:0.3;"/>
  <text x="203.0" y="10.0" transform="matrix(6.123233995736766E-17,-1.0,1.0,6.123233995736766E-17,193.0,213.0)" style="font-size:1.0000000000000013px;">University of C</text>
  <rect x="204.0" y="4.0" width="1.5723270440251573" height="6.0" style="fill:cyan;opacity:0.3;"/>
  <text x="204.0" y="10.0" transform="matrix(6.123233995736766E-17,-1.0,1.0,6.123233995736766E-17,194.0,214.0)" style="font-size:1.0000000000000013px;">Thüringer Aufba</text>
  <rect x="206.0" y="4.0" width="1.5723270440251573" height="6.0" style="fill:cyan;opacity:0.3;"/>
  <text x="206.0" y="10.0" transform="matrix(6.123233995736766E-17,-1.0,1.0,6.123233995736766E-17,196.0,216.0)" style="font-size:1.0000000000000013px;">University Coll</text>
  <rect x="208.0" y="4.0" width="1.5723270440251573" height="6.0" style="fill:cyan;opacity:0.3;"/>
  <text x="208.0" y="10.0" transform="matrix(6.123233995736766E-17,-1.0,1.0,6.123233995736766E-17,198.0,218.0)" style="font-size:1.0000000000000013px;">Ministry of Eco</text>
  <rect x="209.0" y="4.0" width="1.5723270440251573" height="6.0" style="fill:cyan;opacity:0.3;"/>
  <text x="209.0" y="10.0" transform="matrix(6.123233995736766E-17,-1.0,1.0,6.123233995736766E-17,199.0,219.0)" style="font-size:1.0000000000000013px;">Natural Science</text>
  <rect x="211.0" y="4.0" width="1.5723270440251573" height="6.0" style="fill:cyan;opacity:0.3;"/>
  <text x="211.0" y="10.0" transform="matrix(6.123233995736766E-17,-1.0,1.0,6.123233995736766E-17,201.0,221.0)" style="font-size:1.0000000000000013px;">Japan Science a</text>
  <rect x="212.0" y="4.0" width="1.5723270440251573" height="6.0" style="fill:cyan;opacity:0.3;"/>
  <text x="212.0" y="10.0" transform="matrix(6.123233995736766E-17,-1.0,1.0,6.123233995736766E-17,202.0,222.0)" style="font-size:1.0000000000000013px;">Natural Science</text>
  <rect x="214.0" y="4.0" width="1.5723270440251573" height="6.0" style="fill:cyan;opacity:0.3;"/>
  <text x="214.0" y="10.0" transform="matrix(6.123233995736766E-17,-1.0,1.0,6.123233995736766E-17,204.0,224.0)" style="font-size:1.0000000000000013px;">Natural Science</text>
  <rect x="215.0" y="4.0" width="1.5723270440251573" height="6.0" style="fill:cyan;opacity:0.3;"/>
  <text x="215.0" y="10.0" transform="matrix(6.123233995736766E-17,-1.0,1.0,6.123233995736766E-17,205.0,225.0)" style="font-size:1.0000000000000013px;">National Renewa</text>
  <rect x="217.0" y="4.0" width="1.5723270440251573" height="6.0" style="fill:cyan;opacity:0.3;"/>
  <text x="217.0" y="10.0" transform="matrix(6.123233995736766E-17,-1.0,1.0,6.123233995736766E-17,207.0,227.0)" style="font-size:1.0000000000000013px;">Jilin Universit</text>
  <rect x="219.0" y="4.0" width="1.5723270440251573" height="6.0" style="fill:cyan;opacity:0.3;"/>
  <text x="219.0" y="10.0" transform="matrix(6.123233995736766E-17,-1.0,1.0,6.123233995736766E-17,209.0,229.0)" style="font-size:1.0000000000000013px;">South Dakota St</text>
  <rect x="220.0" y="4.0" width="1.5723270440251573" height="6.0" style="fill:cyan;opacity:0.3;"/>
  <text x="220.0" y="10.0" transform="matrix(6.123233995736766E-17,-1.0,1.0,6.123233995736766E-17,210.0,230.0)" style="font-size:1.0000000000000013px;">Shandong Univer</text>
  <rect x="222.0" y="4.0" width="1.5723270440251573" height="6.0" style="fill:cyan;opacity:0.3;"/>
  <text x="222.0" y="10.0" transform="matrix(6.123233995736766E-17,-1.0,1.0,6.123233995736766E-17,212.0,232.0)" style="font-size:1.0000000000000013px;">National and Ka</text>
  <rect x="223.0" y="4.0" width="1.5723270440251573" height="6.0" style="fill:cyan;opacity:0.3;"/>
  <text x="223.0" y="10.0" transform="matrix(6.123233995736766E-17,-1.0,1.0,6.123233995736766E-17,213.0,233.0)" style="font-size:1.0000000000000013px;">Lawrence Berkel</text>
  <rect x="225.0" y="4.0" width="1.5723270440251573" height="6.0" style="fill:cyan;opacity:0.3;"/>
  <text x="225.0" y="10.0" transform="matrix(6.123233995736766E-17,-1.0,1.0,6.123233995736766E-17,215.0,235.0)" style="font-size:1.0000000000000013px;">City University</text>
  <rect x="226.0" y="4.0" width="1.5723270440251573" height="6.0" style="fill:cyan;opacity:0.3;"/>
  <text x="226.0" y="10.0" transform="matrix(6.123233995736766E-17,-1.0,1.0,6.123233995736766E-17,216.0,236.0)" style="font-size:1.0000000000000013px;">Korea Basic Sci</text>
  <rect x="228.0" y="4.0" width="1.5723270440251573" height="6.0" style="fill:cyan;opacity:0.3;"/>
  <text x="228.0" y="10.0" transform="matrix(6.123233995736766E-17,-1.0,1.0,6.123233995736766E-17,218.0,238.0)" style="font-size:1.0000000000000013px;">University Coll</text>
  <rect x="230.0" y="4.0" width="1.5723270440251573" height="6.0" style="fill:cyan;opacity:0.3;"/>
  <text x="230.0" y="10.0" transform="matrix(6.123233995736766E-17,-1.0,1.0,6.123233995736766E-17,220.0,240.0)" style="font-size:1.0000000000000013px;">National Scienc</text>
  <rect x="231.0" y="4.0" width="1.5723270440251573" height="6.0" style="fill:cyan;opacity:0.3;"/>
  <text x="231.0" y="10.0" transform="matrix(6.123233995736766E-17,-1.0,1.0,6.123233995736766E-17,221.0,241.0)" style="font-size:1.0000000000000013px;">Korea Universit</text>
  <rect x="233.0" y="7.0" width="1.5723270440251573" height="3.0" style="fill:cyan;opacity:0.3;"/>
  <text x="233.0" y="10.0" transform="matrix(6.123233995736766E-17,-1.0,1.0,6.123233995736766E-17,223.0,243.0)" style="font-size:1.0000000000000013px;">Jiangsu Univers</text>
  <rect x="234.0" y="7.0" width="1.5723270440251573" height="3.0" style="fill:cyan;opacity:0.3;"/>
  <text x="234.0" y="10.0" transform="matrix(6.123233995736766E-17,-1.0,1.0,6.123233995736766E-17,224.0,244.0)" style="font-size:1.0000000000000013px;">Konkuk Universi</text>
  <rect x="236.0" y="7.0" width="1.5723270440251573" height="3.0" style="fill:cyan;opacity:0.3;"/>
  <text x="236.0" y="10.0" transform="matrix(6.123233995736766E-17,-1.0,1.0,6.123233995736766E-17,226.0,246.0)" style="font-size:1.0000000000000013px;">Harvard Univers</text>
  <rect x="237.0" y="7.0" width="1.5723270440251573" height="3.0" style="fill:cyan;opacity:0.3;"/>
  <text x="237.0" y="10.0" transform="matrix(6.123233995736766E-17,-1.0,1.0,6.123233995736766E-17,227.0,247.0)" style="font-size:1.0000000000000013px;">Korea Institute</text>
  <rect x="239.0" y="7.0" width="1.5723270440251573" height="3.0" style="fill:cyan;opacity:0.3;"/>
  <text x="239.0" y="10.0" transform="matrix(6.123233995736766E-17,-1.0,1.0,6.123233995736766E-17,229.0,249.0)" style="font-size:1.0000000000000013px;">Beijing Institu</text>
  <rect x="241.0" y="7.0" width="1.5723270440251573" height="3.0" style="fill:cyan;opacity:0.3;"/>
  <text x="241.0" y="10.0" transform="matrix(6.123233995736766E-17,-1.0,1.0,6.123233995736766E-17,231.0,251.0)" style="font-size:1.0000000000000013px;">Toyohashi Unive</text>
  <rect x="242.0" y="7.0" width="1.5723270440251573" height="3.0" style="fill:cyan;opacity:0.3;"/>
  <text x="242.0" y="10.0" transform="matrix(6.123233995736766E-17,-1.0,1.0,6.123233995736766E-17,232.0,252.0)" style="font-size:1.0000000000000013px;">National and Ka</text>
  <rect x="244.0" y="7.0" width="1.5723270440251573" height="3.0" style="fill:cyan;opacity:0.3;"/>
  <text x="244.0" y="10.0" transform="matrix(6.123233995736766E-17,-1.0,1.0,6.123233995736766E-17,234.0,254.0)" style="font-size:1.0000000000000013px;">Pukyong Nationa</text>
  <rect x="245.0" y="7.0" width="1.5723270440251573" height="3.0" style="fill:cyan;opacity:0.3;"/>
  <text x="245.0" y="10.0" transform="matrix(6.123233995736766E-17,-1.0,1.0,6.123233995736766E-17,235.0,255.0)" style="font-size:1.0000000000000013px;">National Univer</text>
  <rect x="247.0" y="7.0" width="1.5723270440251573" height="3.0" style="fill:cyan;opacity:0.3;"/>
  <text x="247.0" y="10.0" transform="matrix(6.123233995736766E-17,-1.0,1.0,6.123233995736766E-17,236.99999999999997,257.0)" style="font-size:1.0000000000000013px;">SPIE</text>
  <rect x="248.0" y="7.0" width="1.5723270440251573" height="3.0" style="fill:cyan;opacity:0.3;"/>
  <text x="248.0" y="10.0" transform="matrix(6.123233995736766E-17,-1.0,1.0,6.123233995736766E-17,237.99999999999997,258.0)" style="font-size:1.0000000000000013px;">World Health Or</text>
  <rect x="250.0" y="7.0" width="1.5723270440251573" height="3.0" style="fill:cyan;opacity:0.3;"/>
  <text x="250.0" y="10.0" transform="matrix(6.123233995736766E-17,-1.0,1.0,6.123233995736766E-17,239.99999999999997,260.0)" style="font-size:1.0000000000000013px;">McGill Universi</text>
  <rect x="252.0" y="7.0" width="1.5723270440251573" height="3.0" style="fill:cyan;opacity:0.3;"/>
  <text x="252.0" y="10.0" transform="matrix(6.123233995736766E-17,-1.0,1.0,6.123233995736766E-17,241.99999999999997,262.0)" style="font-size:1.0000000000000013px;">High Energy Acc</text>
  <rect x="253.0" y="7.0" width="1.5723270440251573" height="3.0" style="fill:cyan;opacity:0.3;"/>
  <text x="253.0" y="10.0" transform="matrix(6.123233995736766E-17,-1.0,1.0,6.123233995736766E-17,242.99999999999997,263.0)" style="font-size:1.0000000000000013px;">Vehicle Technol</text>
  <rect x="255.0" y="7.0" width="1.5723270440251573" height="3.0" style="fill:cyan;opacity:0.3;"/>
  <text x="255.0" y="10.0" transform="matrix(6.123233995736766E-17,-1.0,1.0,6.123233995736766E-17,244.99999999999997,265.0)" style="font-size:1.0000000000000013px;">Battelle</text>
  <rect x="256.0" y="7.0" width="1.5723270440251573" height="3.0" style="fill:cyan;opacity:0.3;"/>
  <text x="256.0" y="10.0" transform="matrix(6.123233995736766E-17,-1.0,1.0,6.123233995736766E-17,245.99999999999997,266.0)" style="font-size:1.0000000000000013px;">RIKEN</text>
  <rect x="258.0" y="7.0" width="1.5723270440251573" height="3.0" style="fill:cyan;opacity:0.3;"/>
  <text x="258.0" y="10.0" transform="matrix(6.123233995736766E-17,-1.0,1.0,6.123233995736766E-17,247.99999999999997,268.0)" style="font-size:1.0000000000000013px;">University of M</text>
  <rect x="260.0" y="7.0" width="1.5723270440251573" height="3.0" style="fill:cyan;opacity:0.3;"/>
  <text x="260.0" y="10.0" transform="matrix(6.123233995736766E-17,-1.0,1.0,6.123233995736766E-17,249.99999999999997,270.0)" style="font-size:1.0000000000000013px;">National Instit</text>
  <rect x="261.0" y="7.0" width="1.5723270440251573" height="3.0" style="fill:cyan;opacity:0.3;"/>
  <text x="261.0" y="10.0" transform="matrix(6.123233995736766E-17,-1.0,1.0,6.123233995736766E-17,250.99999999999997,271.0)" style="font-size:1.0000000000000013px;">Purdue Universi</text>
  <rect x="263.0" y="7.0" width="1.5723270440251573" height="3.0" style="fill:cyan;opacity:0.3;"/>
  <text x="263.0" y="10.0" transform="matrix(6.123233995736766E-17,-1.0,1.0,6.123233995736766E-17,252.99999999999997,273.0)" style="font-size:1.0000000000000013px;">National Instit</text>
  <rect x="264.0" y="7.0" width="1.5723270440251573" height="3.0" style="fill:cyan;opacity:0.3;"/>
  <text x="264.0" y="10.0" transform="matrix(6.123233995736766E-17,-1.0,1.0,6.123233995736766E-17,253.99999999999997,274.0)" style="font-size:1.0000000000000013px;">Gunma Universit</text>
  <rect x="266.0" y="7.0" width="1.5723270440251573" height="3.0" style="fill:cyan;opacity:0.3;"/>
  <text x="266.0" y="10.0" transform="matrix(6.123233995736766E-17,-1.0,1.0,6.123233995736766E-17,255.99999999999997,276.0)" style="font-size:1.0000000000000013px;">Ministry of Kno</text>
  <rect x="267.0" y="7.0" width="1.5723270440251573" height="3.0" style="fill:cyan;opacity:0.3;"/>
  <text x="267.0" y="10.0" transform="matrix(6.123233995736766E-17,-1.0,1.0,6.123233995736766E-17,257.0,277.0)" style="font-size:1.0000000000000013px;">Toyohashi Unive</text>
  <rect x="269.0" y="7.0" width="1.5723270440251573" height="3.0" style="fill:cyan;opacity:0.3;"/>
  <text x="269.0" y="10.0" transform="matrix(6.123233995736766E-17,-1.0,1.0,6.123233995736766E-17,259.0,279.0)" style="font-size:1.0000000000000013px;">Chonnam Nationa</text>
  <rect x="271.0" y="7.0" width="1.5723270440251573" height="3.0" style="fill:cyan;opacity:0.3;"/>
  <text x="271.0" y="10.0" transform="matrix(6.123233995736766E-17,-1.0,1.0,6.123233995736766E-17,261.0,281.0)" style="font-size:1.0000000000000013px;">GE Healthcare,</text>
  <rect x="272.0" y="7.0" width="1.5723270440251573" height="3.0" style="fill:cyan;opacity:0.3;"/>
  <text x="272.0" y="10.0" transform="matrix(6.123233995736766E-17,-1.0,1.0,6.123233995736766E-17,262.0,282.0)" style="font-size:1.0000000000000013px;">Case Western Re</text>
  <rect x="274.0" y="7.0" width="1.5723270440251573" height="3.0" style="fill:cyan;opacity:0.3;"/>
  <text x="274.0" y="10.0" transform="matrix(6.123233995736766E-17,-1.0,1.0,6.123233995736766E-17,264.0,284.0)" style="font-size:1.0000000000000013px;">Ministry of Sci</text>
  <rect x="275.0" y="7.0" width="1.5723270440251573" height="3.0" style="fill:cyan;opacity:0.3;"/>
  <text x="275.0" y="10.0" transform="matrix(6.123233995736766E-17,-1.0,1.0,6.123233995736766E-17,265.0,285.0)" style="font-size:1.0000000000000013px;">Beijing Municip</text>
  <rect x="277.0" y="7.0" width="1.5723270440251573" height="3.0" style="fill:cyan;opacity:0.3;"/>
  <text x="277.0" y="10.0" transform="matrix(6.123233995736766E-17,-1.0,1.0,6.123233995736766E-17,267.0,287.0)" style="font-size:1.0000000000000013px;">Pennsylvania St</text>
  <rect x="278.0" y="7.0" width="1.5723270440251573" height="3.0" style="fill:cyan;opacity:0.3;"/>
  <text x="278.0" y="10.0" transform="matrix(6.123233995736766E-17,-1.0,1.0,6.123233995736766E-17,268.0,288.0)" style="font-size:1.0000000000000013px;">Vattenfall</text>
  <rect x="280.0" y="7.0" width="1.5723270440251573" height="3.0" style="fill:cyan;opacity:0.3;"/>
  <text x="280.0" y="10.0" transform="matrix(6.123233995736766E-17,-1.0,1.0,6.123233995736766E-17,270.0,290.0)" style="font-size:1.0000000000000013px;">Jiangsu Normal </text>
  <rect x="282.0" y="7.0" width="1.5723270440251573" height="3.0" style="fill:cyan;opacity:0.3;"/>
  <text x="282.0" y="10.0" transform="matrix(6.123233995736766E-17,-1.0,1.0,6.123233995736766E-17,272.0,292.0)" style="font-size:1.0000000000000013px;">University of H</text>
  <rect x="283.0" y="7.0" width="1.5723270440251573" height="3.0" style="fill:cyan;opacity:0.3;"/>
  <text x="283.0" y="10.0" transform="matrix(6.123233995736766E-17,-1.0,1.0,6.123233995736766E-17,273.0,293.0)" style="font-size:1.0000000000000013px;">China Academy o</text>
  <rect x="285.0" y="7.0" width="1.5723270440251573" height="3.0" style="fill:cyan;opacity:0.3;"/>
  <text x="285.0" y="10.0" transform="matrix(6.123233995736766E-17,-1.0,1.0,6.123233995736766E-17,275.0,295.0)" style="font-size:1.0000000000000013px;">Tata Institute </text>
  <rect x="286.0" y="7.0" width="1.5723270440251573" height="3.0" style="fill:cyan;opacity:0.3;"/>
  <text x="286.0" y="10.0" transform="matrix(6.123233995736766E-17,-1.0,1.0,6.123233995736766E-17,276.0,296.0)" style="font-size:1.0000000000000013px;">Southwest Petro</text>
  <rect x="288.0" y="7.0" width="1.5723270440251573" height="3.0" style="fill:cyan;opacity:0.3;"/>
  <text x="288.0" y="10.0" transform="matrix(6.123233995736766E-17,-1.0,1.0,6.123233995736766E-17,278.0,298.0)" style="font-size:1.0000000000000013px;">Northwestern Po</text>
  <rect x="289.0" y="7.0" width="1.5723270440251573" height="3.0" style="fill:cyan;opacity:0.3;"/>
  <text x="289.0" y="10.0" transform="matrix(6.123233995736766E-17,-1.0,1.0,6.123233995736766E-17,279.0,299.0)" style="font-size:1.0000000000000013px;">Sungkyunkwan Un</text>
  <rect x="291.0" y="7.0" width="1.5723270440251573" height="3.0" style="fill:cyan;opacity:0.3;"/>
  <text x="291.0" y="10.0" transform="matrix(6.123233995736766E-17,-1.0,1.0,6.123233995736766E-17,281.0,301.0)" style="font-size:1.0000000000000013px;">Hunan Universit</text>
  <rect x="293.0" y="7.0" width="1.5723270440251573" height="3.0" style="fill:cyan;opacity:0.3;"/>
  <text x="293.0" y="10.0" transform="matrix(6.123233995736766E-17,-1.0,1.0,6.123233995736766E-17,283.0,303.0)" style="font-size:1.0000000000000013px;">Hong Kong Unive</text>
  <rect x="294.0" y="7.0" width="1.5723270440251573" height="3.0" style="fill:cyan;opacity:0.3;"/>
  <text x="294.0" y="10.0" transform="matrix(6.123233995736766E-17,-1.0,1.0,6.123233995736766E-17,284.0,304.0)" style="font-size:1.0000000000000013px;">Osaka Universit</text>
  <rect x="296.0" y="7.0" width="1.5723270440251573" height="3.0" style="fill:cyan;opacity:0.3;"/>
  <text x="296.0" y="10.0" transform="matrix(6.123233995736766E-17,-1.0,1.0,6.123233995736766E-17,286.0,306.0)" style="font-size:1.0000000000000013px;">Osaka Universit</text>
  <rect x="297.0" y="7.0" width="1.5723270440251573" height="3.0" style="fill:cyan;opacity:0.3;"/>
  <text x="297.0" y="10.0" transform="matrix(6.123233995736766E-17,-1.0,1.0,6.123233995736766E-17,287.0,307.0)" style="font-size:1.0000000000000013px;">East China Norm</text>
  <rect x="299.0" y="7.0" width="1.5723270440251573" height="3.0" style="fill:cyan;opacity:0.3;"/>
  <text x="299.0" y="10.0" transform="matrix(6.123233995736766E-17,-1.0,1.0,6.123233995736766E-17,289.0,309.0)" style="font-size:1.0000000000000013px;">Yonsei Universi</text>
  <rect x="300.0" y="7.0" width="1.5723270440251573" height="3.0" style="fill:cyan;opacity:0.3;"/>
  <text x="300.0" y="10.0" transform="matrix(6.123233995736766E-17,-1.0,1.0,6.123233995736766E-17,290.0,310.0)" style="font-size:1.0000000000000013px;">3M</text>
  <rect x="302.0" y="7.0" width="1.5723270440251573" height="3.0" style="fill:cyan;opacity:0.3;"/>
  <text x="302.0" y="10.0" transform="matrix(6.123233995736766E-17,-1.0,1.0,6.123233995736766E-17,292.0,312.0)" style="font-size:1.0000000000000013px;">Army Research O</text>
  <rect x="304.0" y="7.0" width="1.5723270440251573" height="3.0" style="fill:cyan;opacity:0.3;"/>
  <text x="304.0" y="10.0" transform="matrix(6.123233995736766E-17,-1.0,1.0,6.123233995736766E-17,294.0,314.0)" style="font-size:1.0000000000000013px;">Dongguk Univers</text>
  <rect x="305.0" y="7.0" width="1.5723270440251573" height="3.0" style="fill:cyan;opacity:0.3;"/>
  <text x="305.0" y="10.0" transform="matrix(6.123233995736766E-17,-1.0,1.0,6.123233995736766E-17,295.0,315.0)" style="font-size:1.0000000000000013px;">Science and Tec</text>
  <rect x="307.0" y="7.0" width="1.5723270440251573" height="3.0" style="fill:cyan;opacity:0.3;"/>
  <text x="307.0" y="10.0" transform="matrix(6.123233995736766E-17,-1.0,1.0,6.123233995736766E-17,297.0,317.0)" style="font-size:1.0000000000000013px;">Carnegie Mellon</text>
  <rect x="308.0" y="7.0" width="1.5723270440251573" height="3.0" style="fill:cyan;opacity:0.3;"/>
  <text x="308.0" y="10.0" transform="matrix(6.123233995736766E-17,-1.0,1.0,6.123233995736766E-17,298.0,318.0)" style="font-size:1.0000000000000013px;">Armstrong Fligh</text>
  <rect x="310.0" y="7.0" width="1.5723270440251573" height="3.0" style="fill:cyan;opacity:0.3;"/>
  <text x="310.0" y="10.0" transform="matrix(6.123233995736766E-17,-1.0,1.0,6.123233995736766E-17,300.0,320.0)" style="font-size:1.0000000000000013px;">Nanjing Univers</text>
  <rect x="311.0" y="7.0" width="1.5723270440251573" height="3.0" style="fill:cyan;opacity:0.3;"/>
  <text x="311.0" y="10.0" transform="matrix(6.123233995736766E-17,-1.0,1.0,6.123233995736766E-17,301.0,321.0)" style="font-size:1.0000000000000013px;">Delft Universit</text>
  <rect x="313.0" y="7.0" width="1.5723270440251573" height="3.0" style="fill:cyan;opacity:0.3;"/>
  <text x="313.0" y="10.0" transform="matrix(6.123233995736766E-17,-1.0,1.0,6.123233995736766E-17,303.0,323.0)" style="font-size:1.0000000000000013px;">Rice University</text>
  <rect x="315.0" y="7.0" width="1.5723270440251573" height="3.0" style="fill:cyan;opacity:0.3;"/>
  <text x="315.0" y="10.0" transform="matrix(6.123233995736766E-17,-1.0,1.0,6.123233995736766E-17,305.0,325.0)" style="font-size:1.0000000000000013px;">China Universit</text>
  <rect x="316.0" y="7.0" width="1.5723270440251573" height="3.0" style="fill:cyan;opacity:0.3;"/>
  <text x="316.0" y="10.0" transform="matrix(6.123233995736766E-17,-1.0,1.0,6.123233995736766E-17,306.0,326.0)" style="font-size:1.0000000000000013px;">University of B</text>
  <rect x="318.0" y="7.0" width="1.5723270440251573" height="3.0" style="fill:cyan;opacity:0.3;"/>
  <text x="318.0" y="10.0" transform="matrix(6.123233995736766E-17,-1.0,1.0,6.123233995736766E-17,308.0,328.0)" style="font-size:1.0000000000000013px;">Royal Swedish A</text>
  <rect x="319.0" y="7.0" width="1.5723270440251573" height="3.0" style="fill:cyan;opacity:0.3;"/>
  <text x="319.0" y="10.0" transform="matrix(6.123233995736766E-17,-1.0,1.0,6.123233995736766E-17,309.0,329.0)" style="font-size:1.0000000000000013px;">Senior Talent F</text>
  <rect x="321.0" y="7.0" width="1.5723270440251573" height="3.0" style="fill:cyan;opacity:0.3;"/>
  <text x="321.0" y="10.0" transform="matrix(6.123233995736766E-17,-1.0,1.0,6.123233995736766E-17,311.0,331.0)" style="font-size:1.0000000000000013px;">University of W</text>
  <rect x="322.0" y="7.0" width="1.5723270440251573" height="3.0" style="fill:cyan;opacity:0.3;"/>
  <text x="322.0" y="10.0" transform="matrix(6.123233995736766E-17,-1.0,1.0,6.123233995736766E-17,312.0,332.0)" style="font-size:1.0000000000000013px;">Zhejiang Univer</text>
  <rect x="324.0" y="7.0" width="1.5723270440251573" height="3.0" style="fill:cyan;opacity:0.3;"/>
  <text x="324.0" y="10.0" transform="matrix(6.123233995736766E-17,-1.0,1.0,6.123233995736766E-17,314.0,334.0)" style="font-size:1.0000000000000013px;">Kongju National</text>
  <rect x="326.0" y="7.0" width="1.5723270440251573" height="3.0" style="fill:cyan;opacity:0.3;"/>
  <text x="326.0" y="10.0" transform="matrix(6.123233995736766E-17,-1.0,1.0,6.123233995736766E-17,316.0,336.0)" style="font-size:1.0000000000000013px;">Carl Tryggers S</text>
  <rect x="327.0" y="7.0" width="1.5723270440251573" height="3.0" style="fill:cyan;opacity:0.3;"/>
  <text x="327.0" y="10.0" transform="matrix(6.123233995736766E-17,-1.0,1.0,6.123233995736766E-17,317.0,337.0)" style="font-size:1.0000000000000013px;">China Scholarsh</text>
  <rect x="329.0" y="7.0" width="1.5723270440251573" height="3.0" style="fill:cyan;opacity:0.3;"/>
  <text x="329.0" y="10.0" transform="matrix(6.123233995736766E-17,-1.0,1.0,6.123233995736766E-17,319.0,339.0)" style="font-size:1.0000000000000013px;">Seoul National </text>
  <rect x="330.0" y="7.0" width="1.5723270440251573" height="3.0" style="fill:cyan;opacity:0.3;"/>
  <text x="330.0" y="10.0" transform="matrix(6.123233995736766E-17,-1.0,1.0,6.123233995736766E-17,320.0,340.0)" style="font-size:1.0000000000000013px;">Biological and </text>
  <rect x="332.0" y="7.0" width="1.5723270440251573" height="3.0" style="fill:cyan;opacity:0.3;"/>
  <text x="332.0" y="10.0" transform="matrix(6.123233995736766E-17,-1.0,1.0,6.123233995736766E-17,322.0,342.0)" style="font-size:1.0000000000000013px;">City University</text>
  <rect x="333.0" y="7.0" width="1.5723270440251573" height="3.0" style="fill:cyan;opacity:0.3;"/>
  <text x="333.0" y="10.0" transform="matrix(6.123233995736766E-17,-1.0,1.0,6.123233995736766E-17,323.0,343.0)" style="font-size:1.0000000000000013px;">Seoul National </text>
  <rect x="335.0" y="7.0" width="1.5723270440251573" height="3.0" style="fill:cyan;opacity:0.3;"/>
  <text x="335.0" y="10.0" transform="matrix(6.123233995736766E-17,-1.0,1.0,6.123233995736766E-17,325.0,345.0)" style="font-size:1.0000000000000013px;">Huazhong Univer</text>
  <rect x="337.0" y="7.0" width="1.5723270440251573" height="3.0" style="fill:cyan;opacity:0.3;"/>
  <text x="337.0" y="10.0" transform="matrix(6.123233995736766E-17,-1.0,1.0,6.123233995736766E-17,327.0,347.0)" style="font-size:1.0000000000000013px;">European Synchr</text>
  <rect x="338.0" y="7.0" width="1.5723270440251573" height="3.0" style="fill:cyan;opacity:0.3;"/>
  <text x="338.0" y="10.0" transform="matrix(6.123233995736766E-17,-1.0,1.0,6.123233995736766E-17,328.0,348.0)" style="font-size:1.0000000000000013px;">Weizmann Instit</text>
  <rect x="340.0" y="7.0" width="1.5723270440251573" height="3.0" style="fill:cyan;opacity:0.3;"/>
  <text x="340.0" y="10.0" transform="matrix(6.123233995736766E-17,-1.0,1.0,6.123233995736766E-17,330.0,350.0)" style="font-size:1.0000000000000013px;">Northwestern Un</text>
  <rect x="341.0" y="7.0" width="1.5723270440251573" height="3.0" style="fill:cyan;opacity:0.3;"/>
  <text x="341.0" y="10.0" transform="matrix(6.123233995736766E-17,-1.0,1.0,6.123233995736766E-17,331.0,351.0)" style="font-size:1.0000000000000013px;">Chosun Universi</text>
  <rect x="343.0" y="7.0" width="1.5723270440251573" height="3.0" style="fill:cyan;opacity:0.3;"/>
  <text x="343.0" y="10.0" transform="matrix(6.123233995736766E-17,-1.0,1.0,6.123233995736766E-17,333.0,353.0)" style="font-size:1.0000000000000013px;">University of P</text>
  <rect x="344.0" y="7.0" width="1.5723270440251573" height="3.0" style="fill:cyan;opacity:0.3;"/>
  <text x="344.0" y="10.0" transform="matrix(6.123233995736766E-17,-1.0,1.0,6.123233995736766E-17,334.0,354.0)" style="font-size:1.0000000000000013px;">Virginia Common</text>
  <rect x="346.0" y="7.0" width="1.5723270440251573" height="3.0" style="fill:cyan;opacity:0.3;"/>
  <text x="346.0" y="10.0" transform="matrix(6.123233995736766E-17,-1.0,1.0,6.123233995736766E-17,336.0,356.0)" style="font-size:1.0000000000000013px;">University of I</text>
  <rect x="348.0" y="7.0" width="1.5723270440251573" height="3.0" style="fill:cyan;opacity:0.3;"/>
  <text x="348.0" y="10.0" transform="matrix(6.123233995736766E-17,-1.0,1.0,6.123233995736766E-17,338.0,358.0)" style="font-size:1.0000000000000013px;">Imperial Colleg</text>
  <rect x="349.0" y="7.0" width="1.5723270440251573" height="3.0" style="fill:cyan;opacity:0.3;"/>
  <text x="349.0" y="10.0" transform="matrix(6.123233995736766E-17,-1.0,1.0,6.123233995736766E-17,339.0,359.0)" style="font-size:1.0000000000000013px;">Sichuan Univers</text>
  <rect x="351.0" y="7.0" width="1.5723270440251573" height="3.0" style="fill:cyan;opacity:0.3;"/>
  <text x="351.0" y="10.0" transform="matrix(6.123233995736766E-17,-1.0,1.0,6.123233995736766E-17,341.0,361.0)" style="font-size:1.0000000000000013px;">Kyungpook Natio</text>
  <rect x="352.0" y="7.0" width="1.5723270440251573" height="3.0" style="fill:cyan;opacity:0.3;"/>
  <text x="352.0" y="10.0" transform="matrix(6.123233995736766E-17,-1.0,1.0,6.123233995736766E-17,342.0,362.0)" style="font-size:1.0000000000000013px;">BASF</text>
  <rect x="354.0" y="7.0" width="1.5723270440251573" height="3.0" style="fill:cyan;opacity:0.3;"/>
  <text x="354.0" y="10.0" transform="matrix(6.123233995736766E-17,-1.0,1.0,6.123233995736766E-17,344.0,364.0)" style="font-size:1.0000000000000013px;">Mars</text>
  <rect x="355.0" y="7.0" width="1.5723270440251573" height="3.0" style="fill:cyan;opacity:0.3;"/>
  <text x="355.0" y="10.0" transform="matrix(6.123233995736766E-17,-1.0,1.0,6.123233995736766E-17,345.0,365.0)" style="font-size:1.0000000000000013px;">Shell</text>
  <rect x="357.0" y="7.0" width="1.5723270440251573" height="3.0" style="fill:cyan;opacity:0.3;"/>
  <text x="357.0" y="10.0" transform="matrix(6.123233995736766E-17,-1.0,1.0,6.123233995736766E-17,347.0,367.0)" style="font-size:1.0000000000000013px;">Northwest Unive</text>
  <rect x="359.0" y="7.0" width="1.5723270440251573" height="3.0" style="fill:cyan;opacity:0.3;"/>
  <text x="359.0" y="10.0" transform="matrix(6.123233995736766E-17,-1.0,1.0,6.123233995736766E-17,349.0,369.0)" style="font-size:1.0000000000000013px;">Kunsan National</text>
  <rect x="360.0" y="7.0" width="1.5723270440251573" height="3.0" style="fill:cyan;opacity:0.3;"/>
  <text x="360.0" y="10.0" transform="matrix(6.123233995736766E-17,-1.0,1.0,6.123233995736766E-17,350.0,370.0)" style="font-size:1.0000000000000013px;">Natural Science</text>
  <rect x="362.0" y="7.0" width="1.5723270440251573" height="3.0" style="fill:cyan;opacity:0.3;"/>
  <text x="362.0" y="10.0" transform="matrix(6.123233995736766E-17,-1.0,1.0,6.123233995736766E-17,352.0,372.0)" style="font-size:1.0000000000000013px;">Nankai Universi</text>
  <rect x="363.0" y="7.0" width="1.5723270440251573" height="3.0" style="fill:cyan;opacity:0.3;"/>
  <text x="363.0" y="10.0" transform="matrix(6.123233995736766E-17,-1.0,1.0,6.123233995736766E-17,353.0,373.0)" style="font-size:1.0000000000000013px;">Beihang Univers</text>
  <rect x="365.0" y="7.0" width="1.5723270440251573" height="3.0" style="fill:cyan;opacity:0.3;"/>
  <text x="365.0" y="10.0" transform="matrix(6.123233995736766E-17,-1.0,1.0,6.123233995736766E-17,355.0,375.0)" style="font-size:1.0000000000000013px;">Changchun Insti</text>
  <rect x="366.0" y="7.0" width="1.5723270440251573" height="3.0" style="fill:cyan;opacity:0.3;"/>
  <text x="366.0" y="10.0" transform="matrix(6.123233995736766E-17,-1.0,1.0,6.123233995736766E-17,356.0,376.0)" style="font-size:1.0000000000000013px;">Glenn Research </text>
  <rect x="368.0" y="7.0" width="1.5723270440251573" height="3.0" style="fill:cyan;opacity:0.3;"/>
  <text x="368.0" y="10.0" transform="matrix(6.123233995736766E-17,-1.0,1.0,6.123233995736766E-17,358.0,378.0)" style="font-size:1.0000000000000013px;">Fudan Universit</text>
  <rect x="370.0" y="7.0" width="1.5723270440251573" height="3.0" style="fill:cyan;opacity:0.3;"/>
  <text x="370.0" y="10.0" transform="matrix(6.123233995736766E-17,-1.0,1.0,6.123233995736766E-17,360.0,380.0)" style="font-size:1.0000000000000013px;">Texas Instrumen</text>
  <rect x="371.0" y="7.0" width="1.5723270440251573" height="3.0" style="fill:cyan;opacity:0.3;"/>
  <text x="371.0" y="10.0" transform="matrix(6.123233995736766E-17,-1.0,1.0,6.123233995736766E-17,361.0,381.0)" style="font-size:1.0000000000000013px;">University of W</text>
  <rect x="373.0" y="7.0" width="1.5723270440251573" height="3.0" style="fill:cyan;opacity:0.3;"/>
  <text x="373.0" y="10.0" transform="matrix(6.123233995736766E-17,-1.0,1.0,6.123233995736766E-17,363.0,383.0)" style="font-size:1.0000000000000013px;">Beijing Nova Pr</text>
  <rect x="374.0" y="7.0" width="1.5723270440251573" height="3.0" style="fill:cyan;opacity:0.3;"/>
  <text x="374.0" y="10.0" transform="matrix(6.123233995736766E-17,-1.0,1.0,6.123233995736766E-17,364.0,384.0)" style="font-size:1.0000000000000013px;">University of I</text>
  <rect x="376.0" y="7.0" width="1.5723270440251573" height="3.0" style="fill:cyan;opacity:0.3;"/>
  <text x="376.0" y="10.0" transform="matrix(6.123233995736766E-17,-1.0,1.0,6.123233995736766E-17,366.0,386.0)" style="font-size:1.0000000000000013px;">Natural Science</text>
  <rect x="377.0" y="7.0" width="1.5723270440251573" height="3.0" style="fill:cyan;opacity:0.3;"/>
  <text x="377.0" y="10.0" transform="matrix(6.123233995736766E-17,-1.0,1.0,6.123233995736766E-17,367.0,387.0)" style="font-size:1.0000000000000013px;">North Carolina </text>
  <rect x="379.0" y="7.0" width="1.5723270440251573" height="3.0" style="fill:cyan;opacity:0.3;"/>
  <text x="379.0" y="10.0" transform="matrix(6.123233995736766E-17,-1.0,1.0,6.123233995736766E-17,369.0,389.0)" style="font-size:1.0000000000000013px;">Elan</text>
  <rect x="381.0" y="7.0" width="1.5723270440251573" height="3.0" style="fill:cyan;opacity:0.3;"/>
  <text x="381.0" y="10.0" transform="matrix(6.123233995736766E-17,-1.0,1.0,6.123233995736766E-17,371.0,391.0)" style="font-size:1.0000000000000013px;">Australian Sync</text>
  <rect x="382.0" y="7.0" width="1.5723270440251573" height="3.0" style="fill:cyan;opacity:0.3;"/>
  <text x="382.0" y="10.0" transform="matrix(6.123233995736766E-17,-1.0,1.0,6.123233995736766E-17,372.0,392.0)" style="font-size:1.0000000000000013px;">Siemens</text>
  <rect x="384.0" y="7.0" width="1.5723270440251573" height="3.0" style="fill:cyan;opacity:0.3;"/>
  <text x="384.0" y="10.0" transform="matrix(6.123233995736766E-17,-1.0,1.0,6.123233995736766E-17,374.0,394.0)" style="font-size:1.0000000000000013px;">Microsoft</text>
  <rect x="385.0" y="7.0" width="1.5723270440251573" height="3.0" style="fill:cyan;opacity:0.3;"/>
  <text x="385.0" y="10.0" transform="matrix(6.123233995736766E-17,-1.0,1.0,6.123233995736766E-17,375.0,395.0)" style="font-size:1.0000000000000013px;">Welch Foundatio</text>
  <rect x="387.0" y="7.0" width="1.5723270440251573" height="3.0" style="fill:cyan;opacity:0.3;"/>
  <text x="387.0" y="10.0" transform="matrix(6.123233995736766E-17,-1.0,1.0,6.123233995736766E-17,377.0,397.0)" style="font-size:1.0000000000000013px;">South China Uni</text>
  <rect x="388.0" y="7.0" width="1.5723270440251573" height="3.0" style="fill:cyan;opacity:0.3;"/>
  <text x="388.0" y="10.0" transform="matrix(6.123233995736766E-17,-1.0,1.0,6.123233995736766E-17,378.0,398.0)" style="font-size:1.0000000000000013px;">Oak Ridge Natio</text>
  <rect x="390.0" y="7.0" width="1.5723270440251573" height="3.0" style="fill:cyan;opacity:0.3;"/>
  <text x="390.0" y="10.0" transform="matrix(6.123233995736766E-17,-1.0,1.0,6.123233995736766E-17,380.0,400.0)" style="font-size:1.0000000000000013px;">National Highwa</text>
  <rect x="392.0" y="7.0" width="1.5723270440251573" height="3.0" style="fill:cyan;opacity:0.3;"/>
  <text x="392.0" y="10.0" transform="matrix(6.123233995736766E-17,-1.0,1.0,6.123233995736766E-17,382.0,402.0)" style="font-size:1.0000000000000013px;">Technische Univ</text>
  <rect x="393.0" y="7.0" width="1.5723270440251573" height="3.0" style="fill:cyan;opacity:0.3;"/>
  <text x="393.0" y="10.0" transform="matrix(6.123233995736766E-17,-1.0,1.0,6.123233995736766E-17,383.0,403.0)" style="font-size:1.0000000000000013px;">University of S</text>
  <rect x="395.0" y="7.0" width="1.5723270440251573" height="3.0" style="fill:cyan;opacity:0.3;"/>
  <text x="395.0" y="10.0" transform="matrix(6.123233995736766E-17,-1.0,1.0,6.123233995736766E-17,385.0,405.0)" style="font-size:1.0000000000000013px;">University of S</text>
  <rect x="396.0" y="7.0" width="1.5723270440251573" height="3.0" style="fill:cyan;opacity:0.3;"/>
  <text x="396.0" y="10.0" transform="matrix(6.123233995736766E-17,-1.0,1.0,6.123233995736766E-17,386.0,406.0)" style="font-size:1.0000000000000013px;">Hasler Stiftung</text>
  <rect x="398.0" y="7.0" width="1.5723270440251573" height="3.0" style="fill:cyan;opacity:0.3;"/>
  <text x="398.0" y="10.0" transform="matrix(6.123233995736766E-17,-1.0,1.0,6.123233995736766E-17,388.0,408.0)" style="font-size:1.0000000000000013px;">Beijing Municip</text>
  <rect x="399.0" y="7.0" width="1.5723270440251573" height="3.0" style="fill:cyan;opacity:0.3;"/>
  <text x="399.0" y="10.0" transform="matrix(6.123233995736766E-17,-1.0,1.0,6.123233995736766E-17,389.0,409.0)" style="font-size:1.0000000000000013px;">Ministry of Hum</text>
  <rect x="401.0" y="7.0" width="1.5723270440251573" height="3.0" style="fill:cyan;opacity:0.3;"/>
  <text x="401.0" y="10.0" transform="matrix(6.123233995736766E-17,-1.0,1.0,6.123233995736766E-17,391.0,411.0)" style="font-size:1.0000000000000013px;">Ocean Universit</text>
  <rect x="403.0" y="7.0" width="1.5723270440251573" height="3.0" style="fill:cyan;opacity:0.3;"/>
  <text x="403.0" y="10.0" transform="matrix(6.123233995736766E-17,-1.0,1.0,6.123233995736766E-17,393.0,413.0)" style="font-size:1.0000000000000013px;">STMicroelectron</text>
  <rect x="404.0" y="7.0" width="1.5723270440251573" height="3.0" style="fill:cyan;opacity:0.3;"/>
  <text x="404.0" y="10.0" transform="matrix(6.123233995736766E-17,-1.0,1.0,6.123233995736766E-17,394.0,414.0)" style="font-size:1.0000000000000013px;">University of M</text>
  <rect x="406.0" y="7.0" width="1.5723270440251573" height="3.0" style="fill:cyan;opacity:0.3;"/>
  <text x="406.0" y="10.0" transform="matrix(6.123233995736766E-17,-1.0,1.0,6.123233995736766E-17,396.0,416.0)" style="font-size:1.0000000000000013px;">Università degl</text>
  <rect x="407.0" y="7.0" width="1.5723270440251573" height="3.0" style="fill:cyan;opacity:0.3;"/>
  <text x="407.0" y="10.0" transform="matrix(6.123233995736766E-17,-1.0,1.0,6.123233995736766E-17,397.0,417.0)" style="font-size:1.0000000000000013px;">China Academy o</text>
  <rect x="409.0" y="7.0" width="1.5723270440251573" height="3.0" style="fill:cyan;opacity:0.3;"/>
  <text x="409.0" y="10.0" transform="matrix(6.123233995736766E-17,-1.0,1.0,6.123233995736766E-17,399.0,419.0)" style="font-size:1.0000000000000013px;">Forschungszentr</text>
  <rect x="410.0" y="7.0" width="1.5723270440251573" height="3.0" style="fill:cyan;opacity:0.3;"/>
  <text x="410.0" y="10.0" transform="matrix(6.123233995736766E-17,-1.0,1.0,6.123233995736766E-17,400.0,420.0)" style="font-size:1.0000000000000013px;">Michigan State </text>
  <rect x="412.0" y="7.0" width="1.5723270440251573" height="3.0" style="fill:cyan;opacity:0.3;"/>
  <text x="412.0" y="10.0" transform="matrix(6.123233995736766E-17,-1.0,1.0,6.123233995736766E-17,402.0,422.0)" style="font-size:1.0000000000000013px;">Australian Nati</text>
  <rect x="414.0" y="7.0" width="1.5723270440251573" height="3.0" style="fill:cyan;opacity:0.3;"/>
  <text x="414.0" y="10.0" transform="matrix(6.123233995736766E-17,-1.0,1.0,6.123233995736766E-17,404.0,424.0)" style="font-size:1.0000000000000013px;">Louisiana State</text>
  <rect x="415.0" y="7.0" width="1.5723270440251573" height="3.0" style="fill:cyan;opacity:0.3;"/>
  <text x="415.0" y="10.0" transform="matrix(6.123233995736766E-17,-1.0,1.0,6.123233995736766E-17,405.0,425.0)" style="font-size:1.0000000000000013px;">Ministry of Sci</text>
  <rect x="417.0" y="7.0" width="1.5723270440251573" height="3.0" style="fill:cyan;opacity:0.3;"/>
  <text x="417.0" y="10.0" transform="matrix(6.123233995736766E-17,-1.0,1.0,6.123233995736766E-17,407.0,427.0)" style="font-size:1.0000000000000013px;">University of W</text>
  <rect x="418.0" y="7.0" width="1.5723270440251573" height="3.0" style="fill:cyan;opacity:0.3;"/>
  <text x="418.0" y="10.0" transform="matrix(6.123233995736766E-17,-1.0,1.0,6.123233995736766E-17,408.0,428.0)" style="font-size:1.0000000000000013px;">North Carolina </text>
  <rect x="420.0" y="7.0" width="1.5723270440251573" height="3.0" style="fill:cyan;opacity:0.3;"/>
  <text x="420.0" y="10.0" transform="matrix(6.123233995736766E-17,-1.0,1.0,6.123233995736766E-17,410.0,430.0)" style="font-size:1.0000000000000013px;">Changchun Insti</text>
  <rect x="421.0" y="7.0" width="1.5723270440251573" height="3.0" style="fill:cyan;opacity:0.3;"/>
  <text x="421.0" y="10.0" transform="matrix(6.123233995736766E-17,-1.0,1.0,6.123233995736766E-17,411.0,431.0)" style="font-size:1.0000000000000013px;">Zhengzhou Unive</text>
  <rect x="423.0" y="7.0" width="1.5723270440251573" height="3.0" style="fill:cyan;opacity:0.3;"/>
  <text x="423.0" y="10.0" transform="matrix(6.123233995736766E-17,-1.0,1.0,6.123233995736766E-17,413.0,433.0)" style="font-size:1.0000000000000013px;">Dalian Institut</text>
  <rect x="425.0" y="7.0" width="1.5723270440251573" height="3.0" style="fill:cyan;opacity:0.3;"/>
  <text x="425.0" y="10.0" transform="matrix(6.123233995736766E-17,-1.0,1.0,6.123233995736766E-17,415.0,435.0)" style="font-size:1.0000000000000013px;">Fujian Institut</text>
  <rect x="426.0" y="7.0" width="1.5723270440251573" height="3.0" style="fill:cyan;opacity:0.3;"/>
  <text x="426.0" y="10.0" transform="matrix(6.123233995736766E-17,-1.0,1.0,6.123233995736766E-17,416.0,436.0)" style="font-size:1.0000000000000013px;">Oak Ridge Natio</text>
  <rect x="428.0" y="7.0" width="1.5723270440251573" height="3.0" style="fill:cyan;opacity:0.3;"/>
  <text x="428.0" y="10.0" transform="matrix(6.123233995736766E-17,-1.0,1.0,6.123233995736766E-17,418.0,438.0)" style="font-size:1.0000000000000013px;">Chonbuk Nationa</text>
  <rect x="429.0" y="7.0" width="1.5723270440251573" height="3.0" style="fill:cyan;opacity:0.3;"/>
  <text x="429.0" y="10.0" transform="matrix(6.123233995736766E-17,-1.0,1.0,6.123233995736766E-17,419.0,439.0)" style="font-size:1.0000000000000013px;">Tsinghua Nation</text>
  <rect x="431.0" y="7.0" width="1.5723270440251573" height="3.0" style="fill:cyan;opacity:0.3;"/>
  <text x="431.0" y="10.0" transform="matrix(6.123233995736766E-17,-1.0,1.0,6.123233995736766E-17,421.0,441.0)" style="font-size:1.0000000000000013px;">Institute of Ph</text>
  <rect x="432.0" y="7.0" width="1.5723270440251573" height="3.0" style="fill:cyan;opacity:0.3;"/>
  <text x="432.0" y="10.0" transform="matrix(6.123233995736766E-17,-1.0,1.0,6.123233995736766E-17,422.0,442.0)" style="font-size:1.0000000000000013px;">Southwest Jiaot</text>
  <rect x="434.0" y="7.0" width="1.5723270440251573" height="3.0" style="fill:cyan;opacity:0.3;"/>
  <text x="434.0" y="10.0" transform="matrix(6.123233995736766E-17,-1.0,1.0,6.123233995736766E-17,424.0,444.0)" style="font-size:1.0000000000000013px;">City University</text>
  <rect x="436.0" y="7.0" width="1.5723270440251573" height="3.0" style="fill:cyan;opacity:0.3;"/>
  <text x="436.0" y="10.0" transform="matrix(6.123233995736766E-17,-1.0,1.0,6.123233995736766E-17,426.0,446.0)" style="font-size:1.0000000000000013px;">Natural Science</text>
  <rect x="437.0" y="7.0" width="1.5723270440251573" height="3.0" style="fill:cyan;opacity:0.3;"/>
  <text x="437.0" y="10.0" transform="matrix(6.123233995736766E-17,-1.0,1.0,6.123233995736766E-17,427.0,447.0)" style="font-size:1.0000000000000013px;">Johns Hopkins U</text>
  <rect x="439.0" y="7.0" width="1.5723270440251573" height="3.0" style="fill:cyan;opacity:0.3;"/>
  <text x="439.0" y="10.0" transform="matrix(6.123233995736766E-17,-1.0,1.0,6.123233995736766E-17,429.0,449.0)" style="font-size:1.0000000000000013px;">Fonds pour la F</text>
  <rect x="440.0" y="7.0" width="1.5723270440251573" height="3.0" style="fill:cyan;opacity:0.3;"/>
  <text x="440.0" y="10.0" transform="matrix(6.123233995736766E-17,-1.0,1.0,6.123233995736766E-17,430.0,450.0)" style="font-size:1.0000000000000013px;">Bayerische Fors</text>
  <rect x="442.0" y="7.0" width="1.5723270440251573" height="3.0" style="fill:cyan;opacity:0.3;"/>
  <text x="442.0" y="10.0" transform="matrix(6.123233995736766E-17,-1.0,1.0,6.123233995736766E-17,432.0,452.0)" style="font-size:1.0000000000000013px;">Ministry of Edu</text>
  <rect x="443.0" y="7.0" width="1.5723270440251573" height="3.0" style="fill:cyan;opacity:0.3;"/>
  <text x="443.0" y="10.0" transform="matrix(6.123233995736766E-17,-1.0,1.0,6.123233995736766E-17,433.0,453.0)" style="font-size:1.0000000000000013px;">Shandong Provin</text>
  <rect x="445.0" y="7.0" width="1.5723270440251573" height="3.0" style="fill:cyan;opacity:0.3;"/>
  <text x="445.0" y="10.0" transform="matrix(6.123233995736766E-17,-1.0,1.0,6.123233995736766E-17,435.0,455.0)" style="font-size:1.0000000000000013px;">Engineering and</text>
  <rect x="447.0" y="7.0" width="1.5723270440251573" height="3.0" style="fill:cyan;opacity:0.3;"/>
  <text x="447.0" y="10.0" transform="matrix(6.123233995736766E-17,-1.0,1.0,6.123233995736766E-17,437.0,457.0)" style="font-size:1.0000000000000013px;">Brown Universit</text>
  <rect x="448.0" y="7.0" width="1.5723270440251573" height="3.0" style="fill:cyan;opacity:0.3;"/>
  <text x="448.0" y="10.0" transform="matrix(6.123233995736766E-17,-1.0,1.0,6.123233995736766E-17,438.0,458.0)" style="font-size:1.0000000000000013px;">Institute for M</text>
  <rect x="450.0" y="7.0" width="1.5723270440251573" height="3.0" style="fill:cyan;opacity:0.3;"/>
  <text x="450.0" y="10.0" transform="matrix(6.123233995736766E-17,-1.0,1.0,6.123233995736766E-17,440.0,460.0)" style="font-size:1.0000000000000013px;">Massachusetts I</text>
  <rect x="451.0" y="7.0" width="1.5723270440251573" height="3.0" style="fill:cyan;opacity:0.3;"/>
  <text x="451.0" y="10.0" transform="matrix(6.123233995736766E-17,-1.0,1.0,6.123233995736766E-17,441.0,461.0)" style="font-size:1.0000000000000013px;">University of M</text>
  <rect x="453.0" y="7.0" width="1.5723270440251573" height="3.0" style="fill:cyan;opacity:0.3;"/>
  <text x="453.0" y="10.0" transform="matrix(6.123233995736766E-17,-1.0,1.0,6.123233995736766E-17,443.0,463.0)" style="font-size:1.0000000000000013px;">Massachusetts I</text>
  <rect x="454.0" y="7.0" width="1.5723270440251573" height="3.0" style="fill:cyan;opacity:0.3;"/>
  <text x="454.0" y="10.0" transform="matrix(6.123233995736766E-17,-1.0,1.0,6.123233995736766E-17,444.0,464.0)" style="font-size:1.0000000000000013px;">University of M</text>
  <rect x="456.0" y="7.0" width="1.5723270440251573" height="3.0" style="fill:cyan;opacity:0.3;"/>
  <text x="456.0" y="10.0" transform="matrix(6.123233995736766E-17,-1.0,1.0,6.123233995736766E-17,446.0,466.0)" style="font-size:1.0000000000000013px;">Japan Science a</text>
  <rect x="458.0" y="7.0" width="1.5723270440251573" height="3.0" style="fill:cyan;opacity:0.3;"/>
  <text x="458.0" y="10.0" transform="matrix(6.123233995736766E-17,-1.0,1.0,6.123233995736766E-17,448.0,468.0)" style="font-size:1.0000000000000013px;">NIST Center for</text>
  <rect x="459.0" y="7.0" width="1.5723270440251573" height="3.0" style="fill:cyan;opacity:0.3;"/>
  <text x="459.0" y="10.0" transform="matrix(6.123233995736766E-17,-1.0,1.0,6.123233995736766E-17,449.0,469.0)" style="font-size:1.0000000000000013px;">Education Depar</text>
  <rect x="461.0" y="7.0" width="1.5723270440251573" height="3.0" style="fill:cyan;opacity:0.3;"/>
  <text x="461.0" y="10.0" transform="matrix(6.123233995736766E-17,-1.0,1.0,6.123233995736766E-17,451.0,471.0)" style="font-size:1.0000000000000013px;">Alexander von H</text>
  <rect x="462.0" y="7.0" width="1.5723270440251573" height="3.0" style="fill:cyan;opacity:0.3;"/>
  <text x="462.0" y="10.0" transform="matrix(6.123233995736766E-17,-1.0,1.0,6.123233995736766E-17,452.0,472.0)" style="font-size:1.0000000000000013px;">National Instit</text>
  <rect x="464.0" y="7.0" width="1.5723270440251573" height="3.0" style="fill:cyan;opacity:0.3;"/>
  <text x="464.0" y="10.0" transform="matrix(6.123233995736766E-17,-1.0,1.0,6.123233995736766E-17,454.0,474.0)" style="font-size:1.0000000000000013px;">General Electri</text>
  <rect x="465.0" y="7.0" width="1.5723270440251573" height="3.0" style="fill:cyan;opacity:0.3;"/>
  <text x="465.0" y="10.0" transform="matrix(6.123233995736766E-17,-1.0,1.0,6.123233995736766E-17,455.0,475.0)" style="font-size:1.0000000000000013px;">Hydro-Québec</text>
  <rect x="467.0" y="7.0" width="1.5723270440251573" height="3.0" style="fill:cyan;opacity:0.3;"/>
  <text x="467.0" y="10.0" transform="matrix(6.123233995736766E-17,-1.0,1.0,6.123233995736766E-17,457.0,477.0)" style="font-size:1.0000000000000013px;">Beijing Municip</text>
  <rect x="469.0" y="7.0" width="1.5723270440251573" height="3.0" style="fill:cyan;opacity:0.3;"/>
  <text x="469.0" y="10.0" transform="matrix(6.123233995736766E-17,-1.0,1.0,6.123233995736766E-17,459.0,479.0)" style="font-size:1.0000000000000013px;">Federal Aviatio</text>
  <rect x="470.0" y="7.0" width="1.5723270440251573" height="3.0" style="fill:cyan;opacity:0.3;"/>
  <text x="470.0" y="10.0" transform="matrix(6.123233995736766E-17,-1.0,1.0,6.123233995736766E-17,460.0,480.0)" style="font-size:1.0000000000000013px;">University of I</text>
  <rect x="472.0" y="7.0" width="1.5723270440251573" height="3.0" style="fill:cyan;opacity:0.3;"/>
  <text x="472.0" y="10.0" transform="matrix(6.123233995736766E-17,-1.0,1.0,6.123233995736766E-17,462.0,482.0)" style="font-size:1.0000000000000013px;">Qatar Foundatio</text>
  <rect x="473.0" y="7.0" width="1.5723270440251573" height="3.0" style="fill:cyan;opacity:0.3;"/>
  <text x="473.0" y="10.0" transform="matrix(6.123233995736766E-17,-1.0,1.0,6.123233995736766E-17,463.0,483.0)" style="font-size:1.0000000000000013px;">Optical Society</text>
  <rect x="475.0" y="7.0" width="1.5723270440251573" height="3.0" style="fill:cyan;opacity:0.3;"/>
  <text x="475.0" y="10.0" transform="matrix(6.123233995736766E-17,-1.0,1.0,6.123233995736766E-17,465.0,485.0)" style="font-size:1.0000000000000013px;">National Instit</text>
  <rect x="476.0" y="7.0" width="1.5723270440251573" height="3.0" style="fill:cyan;opacity:0.3;"/>
  <text x="476.0" y="10.0" transform="matrix(6.123233995736766E-17,-1.0,1.0,6.123233995736766E-17,466.0,486.0)" style="font-size:1.0000000000000013px;">Northwestern Po</text>
  <rect x="478.0" y="7.0" width="1.5723270440251573" height="3.0" style="fill:cyan;opacity:0.3;"/>
  <text x="478.0" y="10.0" transform="matrix(6.123233995736766E-17,-1.0,1.0,6.123233995736766E-17,468.0,488.0)" style="font-size:1.0000000000000013px;">University of N</text>
  <rect x="480.0" y="7.0" width="1.5723270440251573" height="3.0" style="fill:cyan;opacity:0.3;"/>
  <text x="480.0" y="10.0" transform="matrix(6.123233995736766E-17,-1.0,1.0,6.123233995736766E-17,469.99999999999994,490.0)" style="font-size:1.0000000000000013px;">Biological and </text>
  <rect x="481.0" y="7.0" width="1.5723270440251573" height="3.0" style="fill:cyan;opacity:0.3;"/>
  <text x="481.0" y="10.0" transform="matrix(6.123233995736766E-17,-1.0,1.0,6.123233995736766E-17,470.99999999999994,491.0)" style="font-size:1.0000000000000013px;">Lawrence Berkel</text>
  <rect x="483.0" y="7.0" width="1.5723270440251573" height="3.0" style="fill:cyan;opacity:0.3;"/>
  <text x="483.0" y="10.0" transform="matrix(6.123233995736766E-17,-1.0,1.0,6.123233995736766E-17,472.99999999999994,493.0)" style="font-size:1.0000000000000013px;">Huawei Technolo</text>
  <rect x="484.0" y="7.0" width="1.5723270440251573" height="3.0" style="fill:cyan;opacity:0.3;"/>
  <text x="484.0" y="10.0" transform="matrix(6.123233995736766E-17,-1.0,1.0,6.123233995736766E-17,473.99999999999994,494.0)" style="font-size:1.0000000000000013px;">Ministry of Sci</text>
  <rect x="486.0" y="7.0" width="1.5723270440251573" height="3.0" style="fill:cyan;opacity:0.3;"/>
  <text x="486.0" y="10.0" transform="matrix(6.123233995736766E-17,-1.0,1.0,6.123233995736766E-17,475.99999999999994,496.0)" style="font-size:1.0000000000000013px;">Natural Science</text>
  <rect x="487.0" y="7.0" width="1.5723270440251573" height="3.0" style="fill:cyan;opacity:0.3;"/>
  <text x="487.0" y="10.0" transform="matrix(6.123233995736766E-17,-1.0,1.0,6.123233995736766E-17,476.99999999999994,497.0)" style="font-size:1.0000000000000013px;">Australian Nucl</text>
  <rect x="489.0" y="7.0" width="1.5723270440251573" height="3.0" style="fill:cyan;opacity:0.3;"/>
  <text x="489.0" y="10.0" transform="matrix(6.123233995736766E-17,-1.0,1.0,6.123233995736766E-17,478.99999999999994,499.0)" style="font-size:1.0000000000000013px;">U.S. Army</text>
  <rect x="491.0" y="7.0" width="1.5723270440251573" height="3.0" style="fill:cyan;opacity:0.3;"/>
  <text x="491.0" y="10.0" transform="matrix(6.123233995736766E-17,-1.0,1.0,6.123233995736766E-17,480.99999999999994,501.0)" style="font-size:1.0000000000000013px;">Ames Research C</text>
  <rect x="492.0" y="7.0" width="1.5723270440251573" height="3.0" style="fill:cyan;opacity:0.3;"/>
  <text x="492.0" y="10.0" transform="matrix(6.123233995736766E-17,-1.0,1.0,6.123233995736766E-17,481.99999999999994,502.0)" style="font-size:1.0000000000000013px;">Hanbat National</text>
  <rect x="494.0" y="7.0" width="1.5723270440251573" height="3.0" style="fill:cyan;opacity:0.3;"/>
  <text x="494.0" y="10.0" transform="matrix(6.123233995736766E-17,-1.0,1.0,6.123233995736766E-17,483.99999999999994,504.0)" style="font-size:1.0000000000000013px;">National Instit</text>
  <rect x="495.0" y="7.0" width="1.5723270440251573" height="3.0" style="fill:cyan;opacity:0.3;"/>
  <text x="495.0" y="10.0" transform="matrix(6.123233995736766E-17,-1.0,1.0,6.123233995736766E-17,484.99999999999994,505.0)" style="font-size:1.0000000000000013px;">Excellent Young</text>
  <rect x="497.0" y="7.0" width="1.5723270440251573" height="3.0" style="fill:cyan;opacity:0.3;"/>
  <text x="497.0" y="10.0" transform="matrix(6.123233995736766E-17,-1.0,1.0,6.123233995736766E-17,486.99999999999994,507.0)" style="font-size:1.0000000000000013px;">Natural Science</text>
  <rect x="498.0" y="7.0" width="1.5723270440251573" height="3.0" style="fill:cyan;opacity:0.3;"/>
  <text x="498.0" y="10.0" transform="matrix(6.123233995736766E-17,-1.0,1.0,6.123233995736766E-17,487.99999999999994,508.0)" style="font-size:1.0000000000000013px;">Sandia National</text>
  <rect x="500.0" y="7.0" width="1.5723270440251573" height="3.0" style="fill:cyan;opacity:0.3;"/>
  <text x="500.0" y="10.0" transform="matrix(6.123233995736766E-17,-1.0,1.0,6.123233995736766E-17,489.99999999999994,510.0)" style="font-size:1.0000000000000013px;">Office of Naval</text>
  <rect x="502.0" y="7.0" width="1.5723270440251573" height="3.0" style="fill:cyan;opacity:0.3;"/>
  <text x="502.0" y="10.0" transform="matrix(6.123233995736766E-17,-1.0,1.0,6.123233995736766E-17,491.99999999999994,512.0)" style="font-size:1.0000000000000013px;">Queen's Univers</text>
  <rect x="503.0" y="7.0" width="1.5723270440251573" height="3.0" style="fill:cyan;opacity:0.3;"/>
  <text x="503.0" y="10.0" transform="matrix(6.123233995736766E-17,-1.0,1.0,6.123233995736766E-17,492.99999999999994,513.0)" style="font-size:1.0000000000000013px;">ExxonMobil Rese</text>
  <rect x="505.0" y="7.0" width="1.5723270440251573" height="3.0" style="fill:cyan;opacity:0.3;"/>
  <text x="505.0" y="10.0" transform="matrix(6.123233995736766E-17,-1.0,1.0,6.123233995736766E-17,494.99999999999994,515.0)" style="font-size:1.0000000000000013px;">Bundesanstalt f</text>
  <rect x="506.0" y="7.0" width="1.5723270440251573" height="3.0" style="fill:cyan;opacity:0.3;"/>
  <text x="506.0" y="10.0" transform="matrix(6.123233995736766E-17,-1.0,1.0,6.123233995736766E-17,495.99999999999994,516.0)" style="font-size:1.0000000000000013px;">University of T</text>
  <rect x="508.0" y="7.0" width="1.5723270440251573" height="3.0" style="fill:cyan;opacity:0.3;"/>
  <text x="508.0" y="10.0" transform="matrix(6.123233995736766E-17,-1.0,1.0,6.123233995736766E-17,497.99999999999994,518.0)" style="font-size:1.0000000000000013px;">Seventh Framewo</text>
 </g>
</svg>
