<?xml version="1.0" encoding="UTF-8"?>
<svg height="20.0" width="519.1578947368421" xmlns="http://www.w3.org/2000/svg">
 <g>
  <rect x="10.0" y="-215.0" width="13.157894736842104" height="225.0" style="fill:cyan;opacity:0.3;"/>
  <text x="10.0" y="10.0" transform="matrix(6.123233995736766E-17,-1.0,1.0,6.123233995736766E-17,0.0,20.0)" style="font-size:1.0000000000000013px;">China</text>
  <rect x="23.0" y="-31.0" width="13.157894736842104" height="41.0" style="fill:cyan;opacity:0.3;"/>
  <text x="23.0" y="10.0" transform="matrix(6.123233995736766E-17,-1.0,1.0,6.123233995736766E-17,12.999999999999998,33.0)" style="font-size:1.0000000000000013px;">Germany</text>
  <rect x="36.0" y="-24.0" width="13.157894736842104" height="34.0" style="fill:cyan;opacity:0.3;"/>
  <text x="36.0" y="10.0" transform="matrix(6.123233995736766E-17,-1.0,1.0,6.123233995736766E-17,26.0,46.0)" style="font-size:1.0000000000000013px;">Japan</text>
  <rect x="49.0" y="-17.0" width="13.157894736842104" height="27.0" style="fill:cyan;opacity:0.3;"/>
  <text x="49.0" y="10.0" transform="matrix(6.123233995736766E-17,-1.0,1.0,6.123233995736766E-17,39.0,59.0)" style="font-size:1.0000000000000013px;">United States</text>
  <rect x="62.0" y="-1.0" width="13.157894736842104" height="11.0" style="fill:cyan;opacity:0.3;"/>
  <text x="62.0" y="10.0" transform="matrix(6.123233995736766E-17,-1.0,1.0,6.123233995736766E-17,52.0,72.0)" style="font-size:1.0000000000000013px;">Switzerland</text>
  <rect x="75.0" y="0.0" width="13.157894736842104" height="10.0" style="fill:cyan;opacity:0.3;"/>
  <text x="75.0" y="10.0" transform="matrix(6.123233995736766E-17,-1.0,1.0,6.123233995736766E-17,65.0,85.0)" style="font-size:1.0000000000000013px;">Netherlands</text>
  <rect x="88.0" y="2.0" width="13.157894736842104" height="8.0" style="fill:cyan;opacity:0.3;"/>
  <text x="88.0" y="10.0" transform="matrix(6.123233995736766E-17,-1.0,1.0,6.123233995736766E-17,78.0,98.0)" style="font-size:1.0000000000000013px;">Singapore</text>
  <rect x="102.0" y="2.0" width="13.157894736842104" height="8.0" style="fill:cyan;opacity:0.3;"/>
  <text x="102.0" y="10.0" transform="matrix(6.123233995736766E-17,-1.0,1.0,6.123233995736766E-17,92.0,112.0)" style="font-size:1.0000000000000013px;">Belgium</text>
  <rect x="115.0" y="3.0" width="13.157894736842104" height="7.0" style="fill:cyan;opacity:0.3;"/>
  <text x="115.0" y="10.0" transform="matrix(6.123233995736766E-17,-1.0,1.0,6.123233995736766E-17,105.0,125.0)" style="font-size:1.0000000000000013px;">Canada</text>
  <rect x="128.0" y="5.0" width="13.157894736842104" height="5.0" style="fill:cyan;opacity:0.3;"/>
  <text x="128.0" y="10.0" transform="matrix(6.123233995736766E-17,-1.0,1.0,6.123233995736766E-17,118.0,138.0)" style="font-size:1.0000000000000013px;">Italy</text>
  <rect x="141.0" y="6.0" width="13.157894736842104" height="4.0" style="fill:cyan;opacity:0.3;"/>
  <text x="141.0" y="10.0" transform="matrix(6.123233995736766E-17,-1.0,1.0,6.123233995736766E-17,131.0,151.0)" style="font-size:1.0000000000000013px;">Sweden</text>
  <rect x="154.0" y="6.0" width="13.157894736842104" height="4.0" style="fill:cyan;opacity:0.3;"/>
  <text x="154.0" y="10.0" transform="matrix(6.123233995736766E-17,-1.0,1.0,6.123233995736766E-17,144.0,164.0)" style="font-size:1.0000000000000013px;">France</text>
  <rect x="167.0" y="6.0" width="13.157894736842104" height="4.0" style="fill:cyan;opacity:0.3;"/>
  <text x="167.0" y="10.0" transform="matrix(6.123233995736766E-17,-1.0,1.0,6.123233995736766E-17,157.0,177.0)" style="font-size:1.0000000000000013px;">Australia</text>
  <rect x="181.0" y="7.0" width="13.157894736842104" height="3.0" style="fill:cyan;opacity:0.3;"/>
  <text x="181.0" y="10.0" transform="matrix(6.123233995736766E-17,-1.0,1.0,6.123233995736766E-17,171.0,191.0)" style="font-size:1.0000000000000013px;">Hong Kong</text>
  <rect x="194.0" y="7.0" width="13.157894736842104" height="3.0" style="fill:cyan;opacity:0.3;"/>
  <text x="194.0" y="10.0" transform="matrix(6.123233995736766E-17,-1.0,1.0,6.123233995736766E-17,184.0,204.0)" style="font-size:1.0000000000000013px;">Portugal</text>
  <rect x="207.0" y="7.0" width="13.157894736842104" height="3.0" style="fill:cyan;opacity:0.3;"/>
  <text x="207.0" y="10.0" transform="matrix(6.123233995736766E-17,-1.0,1.0,6.123233995736766E-17,197.0,217.0)" style="font-size:1.0000000000000013px;">India</text>
  <rect x="220.0" y="8.0" width="13.157894736842104" height="2.0" style="fill:cyan;opacity:0.3;"/>
  <text x="220.0" y="10.0" transform="matrix(6.123233995736766E-17,-1.0,1.0,6.123233995736766E-17,210.0,230.0)" style="font-size:1.0000000000000013px;">Kazakhstan</text>
  <rect x="233.0" y="8.0" width="13.157894736842104" height="2.0" style="fill:cyan;opacity:0.3;"/>
  <text x="233.0" y="10.0" transform="matrix(6.123233995736766E-17,-1.0,1.0,6.123233995736766E-17,223.0,243.0)" style="font-size:1.0000000000000013px;">Greece</text>
  <rect x="246.0" y="8.0" width="13.157894736842104" height="2.0" style="fill:cyan;opacity:0.3;"/>
  <text x="246.0" y="10.0" transform="matrix(6.123233995736766E-17,-1.0,1.0,6.123233995736766E-17,236.0,256.0)" style="font-size:1.0000000000000013px;">Saudi Arabia</text>
  <rect x="260.0" y="8.0" width="13.157894736842104" height="2.0" style="fill:cyan;opacity:0.3;"/>
  <text x="260.0" y="10.0" transform="matrix(6.123233995736766E-17,-1.0,1.0,6.123233995736766E-17,249.99999999999997,270.0)" style="font-size:1.0000000000000013px;">Austria</text>
  <rect x="273.0" y="8.0" width="13.157894736842104" height="2.0" style="fill:cyan;opacity:0.3;"/>
  <text x="273.0" y="10.0" transform="matrix(6.123233995736766E-17,-1.0,1.0,6.123233995736766E-17,263.0,283.0)" style="font-size:1.0000000000000013px;">Mali</text>
  <rect x="286.0" y="8.0" width="13.157894736842104" height="2.0" style="fill:cyan;opacity:0.3;"/>
  <text x="286.0" y="10.0" transform="matrix(6.123233995736766E-17,-1.0,1.0,6.123233995736766E-17,276.0,296.0)" style="font-size:1.0000000000000013px;">Ireland</text>
  <rect x="299.0" y="8.0" width="13.157894736842104" height="2.0" style="fill:cyan;opacity:0.3;"/>
  <text x="299.0" y="10.0" transform="matrix(6.123233995736766E-17,-1.0,1.0,6.123233995736766E-17,289.0,309.0)" style="font-size:1.0000000000000013px;">Qatar</text>
  <rect x="312.0" y="8.0" width="13.157894736842104" height="2.0" style="fill:cyan;opacity:0.3;"/>
  <text x="312.0" y="10.0" transform="matrix(6.123233995736766E-17,-1.0,1.0,6.123233995736766E-17,302.0,322.0)" style="font-size:1.0000000000000013px;">Hong Kong,</text>
  <rect x="325.0" y="8.0" width="13.157894736842104" height="2.0" style="fill:cyan;opacity:0.3;"/>
  <text x="325.0" y="10.0" transform="matrix(6.123233995736766E-17,-1.0,1.0,6.123233995736766E-17,315.0,335.0)" style="font-size:1.0000000000000013px;">Denmark</text>
  <rect x="338.0" y="8.0" width="13.157894736842104" height="2.0" style="fill:cyan;opacity:0.3;"/>
  <text x="338.0" y="10.0" transform="matrix(6.123233995736766E-17,-1.0,1.0,6.123233995736766E-17,328.0,348.0)" style="font-size:1.0000000000000013px;">Georgia</text>
  <rect x="352.0" y="9.0" width="13.157894736842104" height="1.0" style="fill:cyan;opacity:0.3;"/>
  <text x="352.0" y="10.0" transform="matrix(6.123233995736766E-17,-1.0,1.0,6.123233995736766E-17,342.0,362.0)" style="font-size:1.0000000000000013px;">Benin</text>
  <rect x="365.0" y="9.0" width="13.157894736842104" height="1.0" style="fill:cyan;opacity:0.3;"/>
  <text x="365.0" y="10.0" transform="matrix(6.123233995736766E-17,-1.0,1.0,6.123233995736766E-17,355.0,375.0)" style="font-size:1.0000000000000013px;">Fiji</text>
  <rect x="378.0" y="9.0" width="13.157894736842104" height="1.0" style="fill:cyan;opacity:0.3;"/>
  <text x="378.0" y="10.0" transform="matrix(6.123233995736766E-17,-1.0,1.0,6.123233995736766E-17,368.0,388.0)" style="font-size:1.0000000000000013px;">Egypt</text>
  <rect x="391.0" y="9.0" width="13.157894736842104" height="1.0" style="fill:cyan;opacity:0.3;"/>
  <text x="391.0" y="10.0" transform="matrix(6.123233995736766E-17,-1.0,1.0,6.123233995736766E-17,381.0,401.0)" style="font-size:1.0000000000000013px;">Poland</text>
  <rect x="404.0" y="9.0" width="13.157894736842104" height="1.0" style="fill:cyan;opacity:0.3;"/>
  <text x="404.0" y="10.0" transform="matrix(6.123233995736766E-17,-1.0,1.0,6.123233995736766E-17,394.0,414.0)" style="font-size:1.0000000000000013px;">Jersey</text>
  <rect x="417.0" y="9.0" width="13.157894736842104" height="1.0" style="fill:cyan;opacity:0.3;"/>
  <text x="417.0" y="10.0" transform="matrix(6.123233995736766E-17,-1.0,1.0,6.123233995736766E-17,407.0,427.0)" style="font-size:1.0000000000000013px;">Jordan</text>
  <rect x="431.0" y="9.0" width="13.157894736842104" height="1.0" style="fill:cyan;opacity:0.3;"/>
  <text x="431.0" y="10.0" transform="matrix(6.123233995736766E-17,-1.0,1.0,6.123233995736766E-17,421.0,441.0)" style="font-size:1.0000000000000013px;">Nepal</text>
  <rect x="444.0" y="9.0" width="13.157894736842104" height="1.0" style="fill:cyan;opacity:0.3;"/>
  <text x="444.0" y="10.0" transform="matrix(6.123233995736766E-17,-1.0,1.0,6.123233995736766E-17,434.0,454.0)" style="font-size:1.0000000000000013px;">United Kingdom.</text>
  <rect x="457.0" y="9.0" width="13.157894736842104" height="1.0" style="fill:cyan;opacity:0.3;"/>
  <text x="457.0" y="10.0" transform="matrix(6.123233995736766E-17,-1.0,1.0,6.123233995736766E-17,447.0,467.0)" style="font-size:1.0000000000000013px;">Czech Republic</text>
  <rect x="470.0" y="9.0" width="13.157894736842104" height="1.0" style="fill:cyan;opacity:0.3;"/>
  <text x="470.0" y="10.0" transform="matrix(6.123233995736766E-17,-1.0,1.0,6.123233995736766E-17,460.0,480.0)" style="font-size:1.0000000000000013px;">Norway</text>
  <rect x="483.0" y="9.0" width="13.157894736842104" height="1.0" style="fill:cyan;opacity:0.3;"/>
  <text x="483.0" y="10.0" transform="matrix(6.123233995736766E-17,-1.0,1.0,6.123233995736766E-17,472.99999999999994,493.0)" style="font-size:1.0000000000000013px;">Mexico</text>
  <rect x="496.0" y="9.0" width="13.157894736842104" height="1.0" style="fill:cyan;opacity:0.3;"/>
  <text x="496.0" y="10.0" transform="matrix(6.123233995736766E-17,-1.0,1.0,6.123233995736766E-17,485.99999999999994,506.0)" style="font-size:1.0000000000000013px;">United Kingdom;</text>
 </g>
</svg>
