<?xml version="1.0" encoding="UTF-8"?>
<svg height="766.0" width="4190.0" xmlns="http://www.w3.org/2000/svg">
 <g id="page" xmlns:svgx="http://www.xml-cml.org/schema/svgx">
  <path style="fill:rgb(59,90,166);stroke:none;stroke-width:1.0;" d="M320.480 501.280 L330.070 501.280 Z"/>
  <path style="fill:rgb(59,90,166);stroke:none;stroke-width:1.0;" d="M297.920 579.230 L307.500 579.230 Z"/>
  <path style="fill:rgb(59,90,166);stroke:none;stroke-width:1.0;" d="M371.570 697.100 L381.150 697.100 Z"/>
  <g begin="text">
   <text y="474.18" x="200.012,203.102,208.402,212.702,214.695,217.766,220.436,224.076,227.695,230.795,232.781,237.19,241.701,245.87,248.38,252.57,254.87,256.762,259.852,265.151,269.391,272.971,277.271,279.268,281.918,285.618,287.716,292.116,294.292,299.262,302.842,307.992,312.362,317.66200000000003,319.746,325.077,329.376,333.807,338.807,340.609,344.82,347.92,350.247,356.047,360.847,363.128,367.928,369.977,376.977,379.161,383.471,388.901,394.201,396.339,400.739,402.914,406.535,411.845,416.155,419.965,425.16499999999996,427.35,432.68,436.979,441.409,446.409,448.213,452.422,455.52200000000005,457.794,463.594,468.393,470.674,475.474,477.523,484.523,486.706,489.377,494.877,496.911,500.0,505.301,509.601,511.651,515.911,520.12,523.211,528.51,533.701,538.97,541.63,545.83,547.708,552.837,556.417,561.517" svgx:width="0.31,0.53,0.43,0.55,0.3,0.27,0.37,0.37,0.31,0.55,0.42,0.46,0.42,0.25,0.43,0.23,0.55,0.31,0.53,0.43,0.37,0.43,0.55,0.27,0.37,0.55,0.44,0.55,0.51,0.37,0.51,0.44,0.53,0.55,0.52,0.43,0.44,0.5,0.55,0.44,0.31,0.55,0.58,0.48,0.23,0.48,0.55,0.7,0.55,0.44,0.55,0.53,0.55,0.44,0.55,0.37,0.53,0.44,0.37,0.52,0.55,0.52,0.43,0.44,0.5,0.55,0.44,0.31,0.55,0.58,0.48,0.23,0.48,0.55,0.7,0.55,0.27,0.55,0.55,0.31,0.53,0.43,0.55,0.42,0.44,0.31,0.53,0.51,0.53,0.27,0.42,0.55,0.52,0.37,0.51,0.36" style="fill:rgb(0,0,0);font-family:MinionPro-Regular;font-size:10.0px;stroke:none;">the first cycle, there is a broad peak at ~1.3 V and a sharp peak at ~0.3 V in the cathodic pro-</text>
   <text y="487.162" x="200.012,204.253,208.482,212.102,215.772,218.072,220.024,226.944,232.264,234.924,239.094,244.394,246.443,250.684,255.673,259.423,263.003,267.233,270.853,276.184,281.173,286.604,291.854,295.554,297.409,300.4,305.5,307.615,310.704,316.005,320.305,322.354,325.935,330.245,335.405,340.695,344.984,348.085,350.745,355.734,361.234,363.004,367.994,370.994,373.151,382.012" svgx:width="0.42,0.43,0.37,0.37,0.23,0.55,0.69,0.53,0.27,0.42,0.53,0.55,0.42,0.51,0.37,0.37,0.43,0.37,0.52,0.51,0.55,0.53,0.37,0.55,0.31,0.51,0.55,0.31,0.53,0.43,0.55,0.37,0.43,0.53,0.53,0.42,0.31,0.27,0.51,0.55,0.55,0.51,0.3,0.55,0.89,0.55" style="fill:rgb(0,0,0);font-family:MinionPro-Regular;font-size:10.0px;stroke:none;">cess, which corresponds to the reduction of Mn</text>
  </g>
  <g begin="text">
   <text y="482.74" x="387.439,391.039" svgx:width="0.48,0.58" style="fill:rgb(0,0,0);font-family:MinionPro-Regular;font-size:6.67px;stroke:none;">3+</text>
  </g>
  <g begin="text">
   <text y="487.162" x="395.32,397.62,399.742,406.552" svgx:width="0.23,0.55,0.67,0.51" style="fill:rgb(0,0,0);font-family:MinionPro-Regular;font-size:10.0px;stroke:none;">, Co</text>
  </g>
  <g begin="text">
   <text y="482.74" x="411.307,414.907" svgx:width="0.48,0.58" style="fill:rgb(0,0,0);font-family:MinionPro-Regular;font-size:6.67px;stroke:none;">3+</text>
  </g>
  <g begin="text">
   <text y="487.162" x="421.398,424.388,429.488,431.602,440.462" svgx:width="0.31,0.51,0.55,0.89,0.55" style="fill:rgb(0,0,0);font-family:MinionPro-Regular;font-size:10.0px;stroke:none;">to Mn</text>
  </g>
  <g begin="text">
   <text y="482.74" x="445.89,449.49" svgx:width="0.48,0.58" style="fill:rgb(0,0,0);font-family:MinionPro-Regular;font-size:6.67px;stroke:none;">2+</text>
  </g>
  <g begin="text">
   <text y="487.162" x="453.827,456.127,458.192,465.002" svgx:width="0.23,0.55,0.67,0.51" style="fill:rgb(0,0,0);font-family:MinionPro-Regular;font-size:10.0px;stroke:none;">, Co</text>
  </g>
  <g begin="text">
   <text y="482.74" x="469.757,473.357" svgx:width="0.48,0.58" style="fill:rgb(0,0,0);font-family:MinionPro-Regular;font-size:6.67px;stroke:none;">2+</text>
  </g>
  <g begin="text">
   <text y="487.162" x="479.849,484.229,487.929,490.11,496.88,501.08,503.66,506.16,508.251,512.631,516.331,518.456,527.316" svgx:width="0.44,0.37,0.55,0.69,0.43,0.25,0.25,0.55,0.44,0.37,0.55,0.89,0.55" style="fill:rgb(0,0,0);font-family:MinionPro-Regular;font-size:10.0px;stroke:none;">as well as Mn</text>
  </g>
  <g begin="text">
   <text y="482.74" x="532.743,536.343" svgx:width="0.48,0.58" style="fill:rgb(0,0,0);font-family:MinionPro-Regular;font-size:6.67px;stroke:none;">2+</text>
  </g>
  <g begin="text">
   <text y="487.162" x="540.68,542.9799999999999,545.045,551.855" svgx:width="0.23,0.55,0.67,0.51" style="fill:rgb(0,0,0);font-family:MinionPro-Regular;font-size:10.0px;stroke:none;">, Co</text>
  </g>
  <g begin="text">
   <text y="482.74" x="556.611,560.211" svgx:width="0.48,0.58" style="fill:rgb(0,0,0);font-family:MinionPro-Regular;font-size:6.67px;stroke:none;">2+</text>
  </g>
  <g begin="text">
   <text y="487.162" x="566.702,569.692" svgx:width="0.31,0.51" style="fill:rgb(0,0,0);font-family:MinionPro-Regular;font-size:10.0px;stroke:none;">to</text>
   <text y="500.201" x="200.015,208.165,212.405,215.515,219.945,222.525,225.045,227.705,231.905,233.69,242.55,248.02,250.32000000000002,252.342,259.152,263.952,266.252,268.33,271.91,276.14,279.76,285.09,289.4,293.69,296.79,299.4,303.95,308.15,310.61,314.46,316.74" svgx:width="0.82,0.43,0.31,0.44,0.25,0.25,0.27,0.42,0.55,0.89,0.55,0.23,0.55,0.67,0.51,0.23,0.55,0.37,0.43,0.37,0.52,0.43,0.42,0.31,0.27,0.46,0.43,0.25,0.46,0.23,0.34" style="fill:rgb(0,0,0);font-family:MinionPro-Regular;font-size:10.0px;stroke:none;">metallic Mn, Co, respectively.[</text>
   <text y="500.201" x="320.19,324.99" svgx:width="0.48,0.48" style="fill:rgb(59,90,166);font-family:MinionPro-Regular;font-size:10.0px;stroke:none;">33</text>
   <text y="500.201" x="329.79,333.19,335.68,342.56,347.99,353.29,355.409,357.969,361.069,363.233,370.073,374.453,378.15299999999996,380.241,384.671,387.171,390.911,396.011,397.985,403.155,407.355,409.875,412.535,416.875,421.425,425.735,432.625,435.715,441.025,445.235,448.33500000000004,450.539,453.629,458.929,463.229,465.28,468.16,473.15,476.9,485.06,489.27,492.37,495.03,500.02,505.52,507.629,512.619,515.619,517.72,522.35,528.03,531.43,533.594,536.144,540.354,544.864,549.104,552.8040000000001,555.081,557.751" svgx:width="0.34,0.55,0.69,0.55,0.53,0.55,0.27,0.31,0.55,0.69,0.44,0.37,0.55,0.44,0.25,0.37,0.51,0.55,0.51,0.43,0.25,0.27,0.43,0.46,0.43,0.53,0.31,0.53,0.44,0.31,0.55,0.31,0.53,0.43,0.55,0.3,0.51,0.37,0.82,0.44,0.31,0.27,0.51,0.55,0.55,0.51,0.3,0.55,0.47,0.57,0.34,0.55,0.25,0.44,0.46,0.43,0.37,0.55,0.27,0.55" style="fill:rgb(0,0,0);font-family:MinionPro-Regular;font-size:10.0px;stroke:none;">] And it was also believedthat the formation of SEI layer in</text>
   <text y="513.183" x="200.015,203.105,208.405,212.705,214.698,217.768,220.438,224.078,227.698,230.798,232.783,238.053,240.703,244.443,248.613,253.923,258.233,261.863,266.473,270.773,272.695,277.825,281.405,286.595,290.835,295.065,298.685,302.385,304.386,311.266,313.996,316.576,319.076,320.997,325.237,330.227,335.507,338.607,342.357,344.987,349.957,355.147,358.137,362.437,364.48,367.47,372.57000000000005,374.742,380.012,382.662,386.402,390.572,395.882,400.192,403.822,408.432,412.732,414.653,418.913,423.123,428.413,432.783,437.013,439.573,442.643,446.493,448.793,451.56,458.48,463.8,466.46,470.63,475.93,477.979,482.349,486.589,490.829,495.819,501.119,506.399,509.449,513.149,515.226,518.106,523.096,526.796,529.002,532.092,537.392,541.692,543.685,546.235,550.545,554.175,558.785,563.025" svgx:width="0.31,0.53,0.43,0.55,0.3,0.27,0.37,0.37,0.31,0.55,0.53,0.27,0.37,0.42,0.53,0.44,0.37,0.47,0.43,0.55,0.52,0.37,0.51,0.42,0.43,0.37,0.37,0.55,0.69,0.27,0.25,0.25,0.55,0.42,0.51,0.55,0.31,0.37,0.27,0.51,0.53,0.31,0.43,0.55,0.31,0.51,0.55,0.53,0.27,0.37,0.42,0.53,0.44,0.37,0.47,0.43,0.55,0.42,0.44,0.52,0.44,0.42,0.27,0.31,0.46,0.23,0.55,0.69,0.53,0.27,0.42,0.53,0.55,0.44,0.42,0.42,0.51,0.53,0.55,0.31,0.37,0.55,0.3,0.51,0.37,0.55,0.31,0.53,0.43,0.55,0.25,0.44,0.37,0.47,0.43,0.37" style="fill:rgb(0,0,0);font-family:MinionPro-Regular;font-size:10.0px;stroke:none;">the first discharge process will contribute to discharge capacity, which accounts for the larger</text>
   <text y="526.166" x="200.015,205.285,207.935,211.675,215.845,221.155,225.465,229.095,233.705,238.00500000000002,239.927,244.187,248.397,253.687,258.057,262.287,264.847,267.917,272.517,274.679,278.989,284.419,289.719,291.914,297.184,299.854,302.924,305.804,310.044,313.624,317.864,323.144,326.244,328.197,334.847,341.847,343.957,347.577,352.887,357.097,362.427,366.72700000000003,368.845,375.725,378.285,381.375,386.675,388.801,391.891,397.191,401.491,403.485,408.915,413.145,417.865,420.96500000000003,422.987,426.057,432.827,437.927,439.995,444.405,448.915,453.085,455.595,459.825,463.495,465.795,467.661,474.631,479.961,484.951,490.451,492.775,496.945,502.255,506.565,510.195,514.805,518.995,521.295,523.446,526.516,533.286,538.386,540.454,545.424,549.004,554.154,558.524" svgx:width="0.53,0.27,0.37,0.42,0.53,0.44,0.37,0.47,0.43,0.55,0.42,0.44,0.52,0.44,0.42,0.27,0.31,0.46,0.55,0.44,0.55,0.53,0.55,0.53,0.27,0.3,0.3,0.43,0.37,0.43,0.55,0.31,0.55,0.67,0.7,0.55,0.37,0.53,0.44,0.52,0.43,0.55,0.69,0.27,0.31,0.53,0.55,0.31,0.53,0.43,0.55,0.55,0.43,0.47,0.31,0.55,0.31,0.69,0.51,0.55,0.42,0.46,0.42,0.25,0.43,0.37,0.23,0.55,0.74,0.52,0.51,0.55,0.55,0.42,0.53,0.44,0.37,0.47,0.43,0.23,0.55,0.31,0.69,0.51,0.55,0.51,0.37,0.51,0.44,0.53" style="fill:rgb(0,0,0);font-family:MinionPro-Regular;font-size:10.0px;stroke:none;">discharge capacity and different CV shape with the next two cycles. Upon charge, two broad</text>
   <text y="539.149" x="200.015,204.955,209.675,212.335,217.635,221.845,224.945,227.605,232.595,238.095,240.153,245.483,249.783,254.213,259.173,262.873,264.645,268.955,272.535,276.83500000000004,279.044,282.664,287.964,292.914,299.794,305.294,307.447,311.657,314.757,317.028,321.828,324.108,328.908,331.032,338.032,340.216,344.526,349.956,355.25600000000003,357.394,362.194,364.474,369.274,371.397,376.987,379.28700000000003,382.792,389.712,395.032,397.692,401.862,407.16200000000003,409.154,413.414,417.724,423.224,425.311,430.481,434.781,436.706,441.086,444.706,448.356,451.026,455.756,461.186,465.496,470.796,472.593,475.583,480.68300000000005,482.798,485.888,491.188,495.488,497.538,502.478,507.198,509.858,515.158,519.368,522.468,525.128,530.118,535.618,537.676,542.666,545.666,547.824,556.684" svgx:width="0.51,0.47,0.27,0.53,0.44,0.31,0.27,0.51,0.55,0.55,0.52,0.43,0.44,0.5,0.37,0.55,0.44,0.37,0.43,0.55,0.37,0.53,0.51,0.69,0.55,0.55,0.44,0.31,0.55,0.48,0.23,0.48,0.55,0.7,0.55,0.44,0.55,0.53,0.55,0.48,0.23,0.48,0.55,0.7,0.23,0.55,0.69,0.53,0.27,0.42,0.53,0.55,0.42,0.44,0.55,0.55,0.51,0.43,0.55,0.44,0.37,0.37,0.27,0.47,0.55,0.43,0.53,0.55,0.31,0.51,0.55,0.31,0.53,0.43,0.55,0.51,0.47,0.27,0.53,0.44,0.31,0.27,0.51,0.55,0.55,0.51,0.3,0.55,0.89,0.55" style="fill:rgb(0,0,0);font-family:MinionPro-Regular;font-size:10.0px;stroke:none;">oxidation peaks are shown at 1.5 V and 2.0 V, which can be assigned to the oxidation of Mn</text>
   <text y="552.188" x="200.015,204.325,209.755,215.055,217.193,224.003,229.10299999999998,230.969,233.959,239.059,241.231,250.091" svgx:width="0.44,0.55,0.53,0.55,0.67,0.51,0.55,0.31,0.51,0.55,0.89,0.55" style="fill:rgb(0,0,0);font-family:MinionPro-Regular;font-size:10.0px;stroke:none;">and Co to Mn</text>
  </g>
  <g begin="text">
   <text y="547.71" x="255.515,259.115" svgx:width="0.48,0.58" style="fill:rgb(0,0,0);font-family:MinionPro-Regular;font-size:6.67px;stroke:none;">2+</text>
  </g>
  <g begin="text">
   <text y="552.189" x="265.606,269.916,275.346,280.646,282.84,285.83,290.93,293.045,299.855" svgx:width="0.44,0.55,0.53,0.55,0.31,0.51,0.55,0.67,0.51" style="fill:rgb(0,0,0);font-family:MinionPro-Regular;font-size:10.0px;stroke:none;">and to Co</text>
  </g>
  <g begin="text">
   <text y="547.71" x="304.611,308.211" svgx:width="0.48,0.58" style="fill:rgb(0,0,0);font-family:MinionPro-Regular;font-size:6.67px;stroke:none;">2+</text>
  </g>
  <g begin="text">
   <text y="552.189" x="312.491,314.791,316.913,320.493,324.723,328.343,333.673,337.983,342.273,345.373,347.983,352.533,356.733,359.193,363.043,365.343,367.766,371.006,376.506,378.764,381.854,387.154,391.454,393.447,396.327,401.367,403.947,406.457,411.407,418.287,420.957,426.347,431.04699999999997,432.962,436.032,442.802,447.90200000000004,449.97,454.38,458.89,463.06,465.57,469.8,473.47,475.77000000000004,477.636,480.726,486.026,490.326,492.376,495.956,500.266,505.426,510.716,515.006,518.106,520.766,525.756,531.256,533.025,538.355,542.655,547.085" svgx:width="0.23,0.55,0.37,0.43,0.37,0.52,0.43,0.42,0.31,0.27,0.46,0.43,0.25,0.46,0.23,0.55,0.34,0.55,0.55,0.31,0.53,0.43,0.55,0.3,0.51,0.25,0.25,0.51,0.69,0.27,0.55,0.47,0.55,0.31,0.69,0.51,0.55,0.42,0.46,0.42,0.25,0.43,0.37,0.23,0.55,0.31,0.53,0.43,0.55,0.37,0.43,0.53,0.53,0.42,0.31,0.27,0.51,0.55,0.55,0.52,0.43,0.44,0.5" style="fill:rgb(0,0,0);font-family:MinionPro-Regular;font-size:10.0px;stroke:none;">, respectively. In the following two cycles, the reduction peak</text>
   <text y="565.171" x="200.013,208.163,213.113,217.663,221.893,225.593,227.736,230.726,235.826,237.997,242.297,247.467,252.457,257.647,260.747,262.772,267.572,269.852,274.652,276.775,282.365,284.665,288.17,295.09,300.41,303.07,307.24,312.54,314.531,317.181,320.881,322.979,328.249,330.919,333.989,336.869,341.109,344.689,348.929,354.209,357.309,359.319,362.389,365.969,370.959,381.202,384.292,389.592,393.892,395.885,398.555,402.305,405.885,410.225,414.775,419.015,422.655,426.305,428.935,433.955,436.465,440.765,442.543,446.743,449.253,453.563,457.853,460.953,464.533,469.723,473.893,479.193,483.433,491.603,494.263,498.523,502.953,505.453,506.889,510.469,514.769,519.139,523.429,526.529,529.189,534.179,539.679,541.472,546.632,551.932,555.682,558.352,563.742" svgx:width="0.82,0.51,0.46,0.43,0.37,0.55,0.31,0.51,0.55,0.44,0.51,0.51,0.53,0.31,0.55,0.48,0.23,0.48,0.55,0.7,0.23,0.55,0.69,0.53,0.27,0.42,0.53,0.55,0.27,0.37,0.55,0.53,0.27,0.3,0.3,0.43,0.37,0.43,0.55,0.31,0.55,0.3,0.37,0.51,0.82,0.31,0.53,0.43,0.55,0.27,0.37,0.37,0.43,0.46,0.43,0.37,0.37,0.27,0.51,0.25,0.43,0.55,0.43,0.25,0.43,0.42,0.31,0.37,0.51,0.42,0.53,0.43,0.82,0.27,0.42,0.44,0.25,0.55,0.37,0.43,0.44,0.42,0.31,0.27,0.51,0.55,0.55,0.53,0.53,0.37,0.27,0.55,0.47" style="fill:rgb(0,0,0);font-family:MinionPro-Regular;font-size:10.0px;stroke:none;">moves to about 0.5 V, which is different fromthe irreversible electrochemical reaction during</text>
   <text y="578.154" x="200.013,203.103,208.403,212.703,214.697,217.767,220.437,224.077,227.697,230.797,232.782,238.052,240.702,244.442,248.612,253.922,258.232,261.862,266.472,270.772,272.693,277.103,281.613,285.783,288.293,292.483,294.763" svgx:width="0.31,0.53,0.43,0.55,0.3,0.27,0.37,0.37,0.31,0.55,0.53,0.27,0.37,0.42,0.53,0.44,0.37,0.47,0.43,0.55,0.42,0.46,0.42,0.25,0.43,0.23,0.34" style="fill:rgb(0,0,0);font-family:MinionPro-Regular;font-size:10.0px;stroke:none;">the first discharge cycle.[</text>
   <text y="578.154" x="298.213,303.013" svgx:width="0.48,0.48" style="fill:rgb(59,90,166);font-family:MinionPro-Regular;font-size:10.0px;stroke:none;">34</text>
   <text y="578.154" x="307.813,311.21299999999997,313.171,320.631,326.131,328.194,331.284,336.584,340.884,342.878,348.008,352.388,356.038,358.688,362.388,364.421,369.411,372.411,374.512,377.602,382.902,387.202,389.252,393.662,398.172,402.342,404.862,407.522,411.722,413.63,418.18,423.22,425.63,428.74,433.05,441.22,449.37,453.61,456.71,460.71,465.31,467.034,471.324,476.624,480.624,485.174,489.404,493.074,495.374,496.855,499.945,505.245,509.545,511.595,515.835,521.115,524.215,526.885,530.465,534.765,536.823,541.023,543.533,547.843,552.133,555.233,558.813,563.913" svgx:width="0.34,0.55,0.75,0.55,0.55,0.31,0.53,0.43,0.55,0.51,0.44,0.37,0.27,0.37,0.55,0.51,0.3,0.55,0.31,0.53,0.43,0.55,0.42,0.46,0.42,0.25,0.27,0.42,0.55,0.46,0.51,0.25,0.31,0.44,0.82,0.82,0.43,0.31,0.37,0.46,0.55,0.42,0.53,0.37,0.46,0.43,0.37,0.23,0.55,0.31,0.53,0.43,0.55,0.43,0.55,0.31,0.27,0.37,0.43,0.55,0.43,0.25,0.43,0.42,0.31,0.37,0.51,0.36" style="fill:rgb(0,0,0);font-family:MinionPro-Regular;font-size:10.0px;stroke:none;">] On the basis of the cyclic voltammetry curves, the entire electro-</text>
   <text y="591.193" x="200.013,204.183,209.483,213.723,221.893,224.553,228.813,233.243,235.743,237.657,242.787,246.367,251.557,255.797,260.027,263.647,267.347,269.348,273.608,277.918,283.418,285.506,290.676,294.976,296.901,302.161,306.391,310.131,314.361,318.111,320.741,325.911,330.221,336.925,341.305,345.005,347.186,350.066,355.106,357.686,360.196,365.146,371.986,375.656" svgx:width="0.42,0.53,0.43,0.82,0.27,0.42,0.44,0.25,0.55,0.52,0.37,0.51,0.42,0.43,0.37,0.37,0.55,0.42,0.44,0.55,0.55,0.51,0.43,0.55,0.53,0.43,0.37,0.42,0.37,0.27,0.51,0.43,0.53,0.44,0.37,0.55,0.3,0.51,0.25,0.25,0.51,0.69,0.37,0.23" style="fill:rgb(0,0,0);font-family:MinionPro-Regular;font-size:10.0px;stroke:none;">chemical process can be describedas follows:</text>
   <text y="618.859" x="277.456" svgx:width="0.38" style="fill:rgb(0,0,0);font-family:TeX_CM_Maths_Symbols;font-size:10.0px;stroke:none;">ð</text>
   <text y="618.859" x="281.306,288.116" svgx:width="0.67,0.51" style="fill:rgb(0,0,0);font-family:MinionPro-Regular;font-size:10.0px;stroke:none;">Co</text>
   <text y="618.859" x="293.216" svgx:width="0.27" style="fill:rgb(0,0,0);font-family:TeX_CM_Maths_Italic;font-size:10.0px;stroke:none;">;</text>
   <text y="618.859" x="297.241,306.101" svgx:width="0.89,0.55" style="fill:rgb(0,0,0);font-family:MinionPro-Regular;font-size:10.0px;stroke:none;">Mn</text>
   <text y="618.859" x="311.571" svgx:width="0.38" style="fill:rgb(0,0,0);font-family:TeX_CM_Maths_Symbols;font-size:10.0px;stroke:none;">Þ</text>
  </g>
  <g begin="text">
   <text y="621.638" x="315.383" svgx:width="0.5" style="fill:rgb(0,0,0);font-family:TeX_CM_Roman;font-size:6.0px;stroke:none;">3</text>
  </g>
  <g begin="text">
   <text y="618.86" x="318.898" svgx:width="0.75" style="fill:rgb(0,0,0);font-family:MinionPro-Regular;font-size:10.0px;stroke:none;">O</text>
  </g>
  <g begin="text">
   <text y="621.354" x="326.268" svgx:width="0.5" style="fill:rgb(0,0,0);font-family:TeX_CM_Roman;font-size:6.0px;stroke:none;">4</text>
  </g>
  <g begin="text">
   <text y="618.86" x="331.994" svgx:width="0.77" style="fill:rgb(0,0,0);font-family:TeX_CM_Maths_Symbols;font-size:10.0px;stroke:none;">þ</text>
   <text y="618.86" x="341.971" svgx:width="0.5" style="fill:rgb(0,0,0);font-family:TeX_CM_Roman;font-size:10.0px;stroke:none;">8</text>
   <text y="618.86" x="346.971,352.401" svgx:width="0.54,0.27" style="fill:rgb(0,0,0);font-family:MinionPro-Regular;font-size:10.0px;stroke:none;">Li</text>
  </g>
  <g begin="text">
   <text y="614.721" x="354.898" svgx:width="0.77" style="fill:rgb(0,0,0);font-family:TeX_CM_Maths_Symbols;font-size:6.0px;stroke:none;">þ</text>
  </g>
  <g begin="text">
   <text y="618.86" x="362.211" svgx:width="0.77" style="fill:rgb(0,0,0);font-family:TeX_CM_Maths_Symbols;font-size:10.0px;stroke:none;">þ</text>
   <text y="618.86" x="372.188" svgx:width="0.5" style="fill:rgb(0,0,0);font-family:TeX_CM_Roman;font-size:10.0px;stroke:none;">8</text>
   <text y="618.86" x="377.188" svgx:width="0.43" style="fill:rgb(0,0,0);font-family:MinionPro-Regular;font-size:10.0px;stroke:none;">e</text>
  </g>
  <g begin="text">
   <text y="614.721" code="0" x="381.316" svgx:width="0.25" style="fill:rgb(0,0,0);font-family:TeX_CM_Maths_Symbols;font-size:6.0px;stroke:none;">?</text>
  </g>
  <g begin="text">
   <text y="618.86" x="389.254" svgx:width="1.0" style="fill:rgb(0,0,0);font-family:TeX_CM_Maths_Symbols;font-size:10.0px;stroke:none;">!</text>
   <text y="618.86" x="402.009" svgx:width="0.5" style="fill:rgb(0,0,0);font-family:TeX_CM_Roman;font-size:10.0px;stroke:none;">3</text>
   <text y="618.86" x="407.009,413.819" svgx:width="0.67,0.51" style="fill:rgb(0,0,0);font-family:MinionPro-Regular;font-size:10.0px;stroke:none;">Co</text>
   <text y="618.86" x="420.831" svgx:width="0.77" style="fill:rgb(0,0,0);font-family:TeX_CM_Maths_Symbols;font-size:10.0px;stroke:none;">þ</text>
   <text y="618.86" x="430.752" svgx:width="0.5" style="fill:rgb(0,0,0);font-family:TeX_CM_Roman;font-size:10.0px;stroke:none;">3</text>
   <text y="618.86" x="435.752,444.612" svgx:width="0.89,0.55" style="fill:rgb(0,0,0);font-family:MinionPro-Regular;font-size:10.0px;stroke:none;">Mn</text>
   <text y="618.86" x="452.296" svgx:width="0.77" style="fill:rgb(0,0,0);font-family:TeX_CM_Maths_Symbols;font-size:10.0px;stroke:none;">þ</text>
   <text y="618.86" x="462.216" svgx:width="0.5" style="fill:rgb(0,0,0);font-family:TeX_CM_Roman;font-size:10.0px;stroke:none;">4</text>
   <text y="618.86" x="467.216,472.647" svgx:width="0.54,0.27" style="fill:rgb(0,0,0);font-family:MinionPro-Regular;font-size:10.0px;stroke:none;">Li</text>
  </g>
  <g begin="text">
   <text y="621.354" x="475.143" svgx:width="0.5" style="fill:rgb(0,0,0);font-family:TeX_CM_Roman;font-size:6.0px;stroke:none;">2</text>
  </g>
  <g begin="text">
   <text y="618.86" x="478.658" svgx:width="0.75" style="fill:rgb(0,0,0);font-family:MinionPro-Regular;font-size:10.0px;stroke:none;">O</text>
   <text y="618.86" x="563.47" svgx:width="0.38" style="fill:rgb(0,0,0);font-family:TeX_CM_Maths_Symbols;font-size:10.0px;stroke:none;">ð</text>
   <text y="618.86" x="567.32" svgx:width="0.48" style="fill:rgb(0,0,0);font-family:MinionPro-Regular;font-size:10.0px;stroke:none;">5</text>
   <text y="618.86" x="572.12" svgx:width="0.38" style="fill:rgb(0,0,0);font-family:TeX_CM_Maths_Symbols;font-size:10.0px;stroke:none;">Þ</text>
   <text y="664.44" x="267.195" svgx:width="0.5" style="fill:rgb(0,0,0);font-family:TeX_CM_Roman;font-size:10.0px;stroke:none;">3</text>
   <text y="664.44" x="272.195,279.005" svgx:width="0.67,0.51" style="fill:rgb(0,0,0);font-family:MinionPro-Regular;font-size:10.0px;stroke:none;">Co</text>
   <text y="664.44" x="286.017" svgx:width="0.77" style="fill:rgb(0,0,0);font-family:TeX_CM_Maths_Symbols;font-size:10.0px;stroke:none;">þ</text>
   <text y="664.44" x="295.938" svgx:width="0.5" style="fill:rgb(0,0,0);font-family:TeX_CM_Roman;font-size:10.0px;stroke:none;">3</text>
   <text y="664.44" x="300.938,309.798" svgx:width="0.89,0.55" style="fill:rgb(0,0,0);font-family:MinionPro-Regular;font-size:10.0px;stroke:none;">Mn</text>
   <text y="664.44" x="317.425" svgx:width="0.77" style="fill:rgb(0,0,0);font-family:TeX_CM_Maths_Symbols;font-size:10.0px;stroke:none;">þ</text>
   <text y="664.44" x="327.403" svgx:width="0.5" style="fill:rgb(0,0,0);font-family:TeX_CM_Roman;font-size:10.0px;stroke:none;">6</text>
   <text y="664.44" x="332.403,337.833" svgx:width="0.54,0.27" style="fill:rgb(0,0,0);font-family:MinionPro-Regular;font-size:10.0px;stroke:none;">Li</text>
  </g>
  <g begin="text">
   <text y="666.935" x="340.328" svgx:width="0.5" style="fill:rgb(0,0,0);font-family:TeX_CM_Roman;font-size:6.0px;stroke:none;">2</text>
  </g>
  <g begin="text">
   <text y="664.441" x="343.786" svgx:width="0.75" style="fill:rgb(0,0,0);font-family:MinionPro-Regular;font-size:10.0px;stroke:none;">O</text>
   <text y="664.441" x="353.99" svgx:width="1.0" style="fill:rgb(0,0,0);font-family:TeX_CM_Maths_Symbols;font-size:10.0px;stroke:none;">$</text>
   <text y="664.441" x="366.803" svgx:width="0.5" style="fill:rgb(0,0,0);font-family:TeX_CM_Roman;font-size:10.0px;stroke:none;">3</text>
   <text y="664.441" x="371.803,378.613,383.713" svgx:width="0.67,0.51,0.75" style="fill:rgb(0,0,0);font-family:MinionPro-Regular;font-size:10.0px;stroke:none;">CoO</text>
   <text y="664.441" x="392.995" svgx:width="0.77" style="fill:rgb(0,0,0);font-family:TeX_CM_Maths_Symbols;font-size:10.0px;stroke:none;">þ</text>
   <text y="664.441" x="402.916" svgx:width="0.5" style="fill:rgb(0,0,0);font-family:TeX_CM_Roman;font-size:10.0px;stroke:none;">3</text>
   <text y="664.441" x="407.916,416.776,422.246" svgx:width="0.89,0.55,0.75" style="fill:rgb(0,0,0);font-family:MinionPro-Regular;font-size:10.0px;stroke:none;">MnO</text>
   <text y="664.441" x="431.829" svgx:width="0.77" style="fill:rgb(0,0,0);font-family:TeX_CM_Maths_Symbols;font-size:10.0px;stroke:none;">þ</text>
   <text y="664.441" x="441.75,446.75" svgx:width="0.5,0.5" style="fill:rgb(0,0,0);font-family:TeX_CM_Roman;font-size:10.0px;stroke:none;">12</text>
   <text y="664.441" x="451.75,457.18" svgx:width="0.54,0.27" style="fill:rgb(0,0,0);font-family:MinionPro-Regular;font-size:10.0px;stroke:none;">Li</text>
  </g>
  <g begin="text">
   <text y="660.302" x="459.723" svgx:width="0.77" style="fill:rgb(0,0,0);font-family:TeX_CM_Maths_Symbols;font-size:6.0px;stroke:none;">þ</text>
  </g>
  <g begin="text">
   <text y="664.441" x="467.036" svgx:width="0.77" style="fill:rgb(0,0,0);font-family:TeX_CM_Maths_Symbols;font-size:10.0px;stroke:none;">þ</text>
   <text y="664.441" x="477.013,482.013" svgx:width="0.5,0.5" style="fill:rgb(0,0,0);font-family:TeX_CM_Roman;font-size:10.0px;stroke:none;">12</text>
   <text y="664.441" x="487.013" svgx:width="0.43" style="fill:rgb(0,0,0);font-family:MinionPro-Regular;font-size:10.0px;stroke:none;">e</text>
  </g>
  <g begin="text">
   <text y="660.359" code="0" x="491.187" svgx:width="0.25" style="fill:rgb(0,0,0);font-family:TeX_CM_Maths_Symbols;font-size:6.0px;stroke:none;">?</text>
  </g>
  <g begin="text">
   <text y="664.441" x="563.471" svgx:width="0.38" style="fill:rgb(0,0,0);font-family:TeX_CM_Maths_Symbols;font-size:10.0px;stroke:none;">ð</text>
   <text y="664.441" x="567.321" svgx:width="0.48" style="fill:rgb(0,0,0);font-family:MinionPro-Regular;font-size:10.0px;stroke:none;">6</text>
   <text y="664.441" x="572.121" svgx:width="0.38" style="fill:rgb(0,0,0);font-family:TeX_CM_Maths_Symbols;font-size:10.0px;stroke:none;">Þ</text>
   <text y="696.018" x="211.978,217.538,221.118,225.458,230.118,232.778,237.768,243.048,246.668,249.128,252.978,255.27800000000002,258.012,265.452,268.152,272.462,277.852,282.55199999999996,284.601,289.271,294.571,298.811,304.311,306.371,310.681,316.111,321.411,323.605,327.845,332.945,336.505,343.275,348.265,351.925,356.785,361.025,364.665,368.335" svgx:width="0.56,0.37,0.43,0.46,0.27,0.51,0.53,0.37,0.25,0.46,0.23,0.55,0.75,0.27,0.44,0.55,0.47,0.55,0.47,0.53,0.43,0.55,0.55,0.44,0.55,0.53,0.55,0.42,0.51,0.36,0.69,0.51,0.37,0.5,0.43,0.37,0.37,0.34" style="fill:rgb(0,0,0);font-family:MinionPro-Regular;font-size:10.0px;stroke:none;">Previously, Qiang Shen and co-workers[</text>
   <text y="696.018" x="371.785,376.585" svgx:width="0.48,0.48" style="fill:rgb(59,90,166);font-family:MinionPro-Regular;font-size:10.0px;stroke:none;">35</text>
   <text y="696.018" x="381.385,384.78499999999997,386.817,389.697,394.687,399.987,405.417,410.717,412.783,415.873,421.183,425.393,428.493,430.698,439.558,445.028,451.748" svgx:width="0.34,0.55,0.3,0.51,0.53,0.55,0.53,0.55,0.31,0.53,0.44,0.31,0.55,0.89,0.55,0.67,0.75" style="fill:rgb(0,0,0);font-family:MinionPro-Regular;font-size:10.0px;stroke:none;">] found that MnCO</text>
  </g>
  <g begin="text">
   <text y="697.663" x="458.986" svgx:width="0.48" style="fill:rgb(0,0,0);font-family:MinionPro-Regular;font-size:6.67px;stroke:none;">3</text>
  </g>
  <g begin="text">
   <text y="696.019" x="464.768,468.388,473.518,476.189,481.618,486.948,489.458,493.708,498.909,506.059,515.338,519.578,524.568,532.568,537.897,542.987,546.638,549.198,552.188,556.417" svgx:width="0.37,0.52,0.27,0.55,0.53,0.25,0.43,0.52,0.71,0.75,0.42,0.51,0.82,0.52,0.51,0.37,0.27,0.31,0.43,0.37" style="fill:rgb(0,0,0);font-family:MinionPro-Regular;font-size:10.0px;stroke:none;">spindle–GOcomposites</text>
   <text y="709.001" x="200.014,204.324,209.754,215.054,217.192,220.322,222.832,227.782,234.552,238.792,242.492,244.461,246.981,249.711,254.571,258.871,260.845,269.706,275.176,281.896" svgx:width="0.44,0.55,0.53,0.55,0.3,0.25,0.51,0.69,0.43,0.37,0.55,0.25,0.27,0.5,0.43,0.55,0.89,0.55,0.67,0.75" style="fill:rgb(0,0,0);font-family:MinionPro-Regular;font-size:10.0px;stroke:none;">and flower like MnCO</text>
  </g>
  <g begin="text">
   <text y="710.646" x="289.077" svgx:width="0.48" style="fill:rgb(0,0,0);font-family:MinionPro-Regular;font-size:6.67px;stroke:none;">3</text>
  </g>
  <g begin="text">
   <text y="709.002" x="294.86,299.1,304.09,309.45,311.96,317.26,319.181,323.551,327.841,330.94100000000003,332.957,337.337,341.037,343.162,345.682,348.242,351.332,356.652,359.212,364.512,374.796,377.456,382.446,387.946,389.99,395.12,399.33,402.28,405.27,409.51,413.51,418.11,420.037,424.347,429.777,434.967,440.227,444.527,446.455,454.615,458.825,461.815,466.055,469.805,472.505,476.935,479.435,483.105,485.40500000000003,487.331,494.211,499.641,504.94100000000003,507.06,510.15,515.45,519.75,521.743,525.323,529.623,533.993,538.283,541.383,544.043,549.033" svgx:width="0.42,0.51,0.53,0.25,0.53,0.55,0.44,0.42,0.31,0.55,0.44,0.37,0.55,0.25,0.27,0.31,0.53,0.27,0.53,0.82,0.27,0.51,0.55,0.55,0.51,0.44,0.31,0.31,0.43,0.37,0.46,0.55,0.44,0.55,0.51,0.53,0.43,0.55,0.82,0.44,0.31,0.43,0.37,0.27,0.44,0.25,0.37,0.23,0.55,0.69,0.55,0.53,0.55,0.31,0.53,0.43,0.55,0.37,0.43,0.44,0.42,0.31,0.27,0.51,0.55" style="fill:rgb(0,0,0);font-family:MinionPro-Regular;font-size:10.0px;stroke:none;">could act as lithiumion battery anode materials. And the reaction</text>
  </g>
  <path style="fill:rgb(155,154,156);stroke:none;stroke-width:1.0;" d="M576.000 427.000 L180.000 427.000 L180.000 426.500 L576.000 426.500 "/>
  <rect style="stroke:blue;stroke-width:0.3;" x="180.0" y="86.009" height="293.896" width="395.943" title="7"/>
  <text y="86.009" class="image" id="image.7.1" width="395" height="293" x="180.0">image.7.1.180_576.86_380</text>
  <g begin="text">
   <text y="385.512" x="180.0,184.912,187.16,192.04,193.833,198.249,200.489,203.13,208.458,210.706,215.122,219.538,222.202,225.282,230.194,234.481,239.393,243.809,250.889,253.137,257.553,261.969,264.209,265.945,270.857,275.273,278.353,281.017,285.929,288.906,295.986,300.402,305.314,309.73,314.146,318.546,320.257,325.169,327.80899999999997,329.612,332.276,338.02,342.932,345.18,351.843,356.654" svgx:width="0.61,0.28,0.61,0.55,0.55,0.28,0.55,0.67,0.28,0.55,0.55,0.33,0.38,0.61,0.55,0.61,0.55,0.88,0.28,0.55,0.55,0.28,0.55,0.61,0.55,0.38,0.33,0.61,0.38,0.88,0.55,0.61,0.55,0.55,0.55,0.55,0.61,0.33,0.55,0.33,0.72,0.61,0.28,0.83,0.61,0.33" style="fill:rgb(0,0,0);font-family:Helvetica-Bold;font-size:8.0px;stroke:none;">Fig 4. Electrochemical performances of (Co,Mn)</text>
  </g>
  <g begin="text">
   <text y="386.816" x="359.32" svgx:width="0.55" style="fill:rgb(0,0,0);font-family:Helvetica-Bold;font-size:5.33px;stroke:none;">3</text>
  </g>
  <g begin="text">
   <text y="385.512" x="362.608" svgx:width="0.78" style="fill:rgb(0,0,0);font-family:Helvetica-Bold;font-size:8.0px;stroke:none;">O</text>
  </g>
  <g begin="text">
   <text y="386.816" x="368.844" svgx:width="0.55" style="fill:rgb(0,0,0);font-family:Helvetica-Bold;font-size:5.33px;stroke:none;">4</text>
  </g>
  <g begin="text">
   <text y="385.512" x="372.189,374.437,377.517,383.765,391.691,396.107,401.019,408.099,413.011,417.923,422.339,424.587,427.251,431.65099999999995,433.36,437.776,442.176,443.905,446.153,448.401,451.065,455.977,458.225,463.137,471.911,474.159,479.071,483.951,485.743,490.655,495.071,497.735,500.399,504.815,507.895,512.295,513.977,518.393,523.305,528.217,533.128,537.544" svgx:width="0.28,0.38,0.78,0.78,0.55,0.61,0.88,0.61,0.61,0.55,0.28,0.33,0.55,0.55,0.55,0.55,0.55,0.28,0.28,0.33,0.61,0.28,0.61,0.88,0.28,0.61,0.61,0.55,0.61,0.55,0.33,0.33,0.55,0.38,0.55,0.55,0.55,0.61,0.61,0.61,0.55,0.28" style="fill:rgb(0,0,0);font-family:Helvetica-Bold;font-size:8.0px;stroke:none;">/rGOcomposite as lithiumion battery anode.</text>
   <text y="385.512" x="541.472,544.136,549.464" svgx:width="0.33,0.67,0.33" style="fill:rgb(0,0,0);font-family:Helvetica;font-size:8.0px;stroke:none;">(A)</text>
   <text y="394.979" x="180.001,185.745,190.161,194.577,197.241,201.657,206.073,208.737,213.053,214.797,218.797,222.797,227.213,231.629,234.293,238.709,243.109,244.801,248.801,253.217,254.961,257.209,261.625,266.041,270.441,272.184,276.6,279.264,283.68,285.928,287.672,289.416,293.831,297.831,299.509,303.925,306.165,307.9,310.564,316.308,320.724,322.972,329.636,334.052" svgx:width="0.72,0.55,0.55,0.33,0.55,0.55,0.33,0.55,0.22,0.5,0.5,0.55,0.55,0.33,0.55,0.55,0.55,0.5,0.55,0.22,0.28,0.55,0.55,0.55,0.55,0.55,0.33,0.55,0.28,0.22,0.22,0.55,0.5,0.55,0.55,0.28,0.55,0.33,0.72,0.55,0.28,0.83,0.55,0.33" style="fill:rgb(0,0,0);font-family:Helvetica;font-size:8.0px;stroke:none;">Charge-discharge voltage profiles of (Co,Mn)</text>
  </g>
  <g begin="text">
   <text y="396.34" x="336.642" svgx:width="0.55" style="fill:rgb(0,0,0);font-family:Helvetica;font-size:5.33px;stroke:none;">3</text>
  </g>
  <g begin="text">
   <text y="394.98" x="339.987" svgx:width="0.78" style="fill:rgb(0,0,0);font-family:Helvetica;font-size:8.0px;stroke:none;">O</text>
  </g>
  <g begin="text">
   <text y="396.34" x="346.167" svgx:width="0.55" style="fill:rgb(0,0,0);font-family:Helvetica;font-size:5.33px;stroke:none;">4</text>
  </g>
  <g begin="text">
   <text y="394.98" x="349.512,351.76,354.424,360.672,368.617,372.617,377.033,383.697,388.113,392.529,396.529,398.273,400.521,404.921,406.601,408.849,413.265,415.905,417.656,419.904,424.32,428.71999999999997,430.468,432.716,434.46,437.124,441.124,443.36400000000003,445.095,447.343,451.759,454.423,458.839,463.239,464.994,468.994,472.994,476.994,478.738,483.154,487.154,488.805,493.221,495.461,497.252,501.652,503.375,507.375,511.791,514.455,517.119,521.535,525.951,528.191,529.907,534.323,538.739,543.155,547.155,548.899,551.147,555.147,556.836,561.252" svgx:width="0.28,0.33,0.78,0.78,0.5,0.55,0.83,0.55,0.55,0.5,0.22,0.28,0.55,0.55,0.28,0.55,0.33,0.55,0.28,0.55,0.55,0.55,0.28,0.22,0.33,0.5,0.28,0.55,0.28,0.55,0.33,0.55,0.55,0.55,0.5,0.5,0.5,0.22,0.55,0.5,0.55,0.55,0.28,0.55,0.55,0.55,0.5,0.55,0.33,0.33,0.55,0.55,0.28,0.55,0.55,0.55,0.55,0.5,0.22,0.28,0.5,0.55,0.55,0.28" style="fill:rgb(0,0,0);font-family:Helvetica;font-size:8.0px;stroke:none;">/rGOcomposite for the first three cycles at a current density of</text>
   <text y="404.504" x="180.001,184.417,188.833,193.233,194.968,201.632,206.99200000000002,208.688" svgx:width="0.55,0.55,0.55,0.55,0.83,0.67,0.55,0.55" style="fill:rgb(0,0,0);font-family:Helvetica;font-size:8.0px;stroke:none;">100 mA g</text>
  </g>
  <g begin="text">
   <text y="400.932" x="213.109" svgx:width="0.58" style="fill:rgb(0,0,0);font-family:ArialMT-Identity-H;font-size:5.33px;stroke:none;">−</text>
   <text y="400.932" x="216.612" svgx:width="0.55" style="fill:rgb(0,0,0);font-family:Helvetica;font-size:5.33px;stroke:none;">1</text>
  </g>
  <g begin="text">
   <text y="404.504" x="219.912,222.15200000000002,223.88,226.544,231.872,234.512,236.296,242.04,247.4,249.108,253.108,257.524,260.188,264.188,268.604,272.604,274.28,276.528,280.944,283.584,285.335,289.751,291.999,297.327,301.327,303.08,304.824,309.224,310.959,313.207,317.623,322.02299999999997,323.772,328.188,332.604,334.852,339.268,343.684,345.932,347.676,352.092,353.852,355.521,358.184,362.6,367.016,368.76,373.176,377.57599999999996,379.275,383.691,385.931,387.722,392.12199999999996,393.845,398.485,400.25,404.666,406.914,411.31399999999996,413.063,418.423,420.15,422.814,426.814,430.814,433.05400000000003,434.776,439.192,440.936,443.184,447.6" svgx:width="0.28,0.55,0.33,0.67,0.33,0.55,0.72,0.67,0.55,0.5,0.55,0.33,0.5,0.55,0.5,0.55,0.28,0.55,0.33,0.55,0.55,0.28,0.67,0.5,0.55,0.22,0.55,0.55,0.28,0.55,0.55,0.55,0.55,0.55,0.28,0.55,0.55,0.28,0.22,0.55,0.22,0.55,0.33,0.55,0.55,0.22,0.55,0.55,0.55,0.55,0.28,0.55,0.55,0.55,0.58,0.55,0.55,0.28,0.55,0.55,0.67,0.55,0.33,0.5,0.5,0.28,0.55,0.55,0.22,0.28,0.55,0.22" style="fill:rgb(0,0,0);font-family:Helvetica;font-size:8.0px;stroke:none;">. (B) CV curves for LIBs in the potential region of 0 ~ 3.0 V (vs. Li/Li</text>
  </g>
  <g begin="text">
   <text y="400.932" x="449.348" svgx:width="0.58" style="fill:rgb(0,0,0);font-family:Helvetica;font-size:5.33px;stroke:none;">+</text>
  </g>
  <g begin="text">
   <text y="404.504" x="452.806,455.44599999999997,457.228,461.644,463.884,465.675,470.075,471.798,475.798,479.798,484.214,488.63,493.046,494.79,499.206,503.606,505.303,507.967,512.383,514.631,519.031,520.781,525.197,527.437,529.171,533.587,535.835,540.235,541.984,548.647,554.0070000000001,555.703" svgx:width="0.33,0.55,0.55,0.28,0.55,0.55,0.55,0.5,0.5,0.55,0.55,0.55,0.22,0.55,0.55,0.55,0.33,0.55,0.28,0.55,0.55,0.55,0.28,0.55,0.55,0.28,0.55,0.55,0.83,0.67,0.55,0.5" style="fill:rgb(0,0,0);font-family:Helvetica;font-size:8.0px;stroke:none;">) at a scanning rate of 0.5 mV s</text>
  </g>
  <g begin="text">
   <text y="400.932" x="559.672" svgx:width="0.58" style="fill:rgb(0,0,0);font-family:ArialMT-Identity-H;font-size:5.33px;stroke:none;">−</text>
   <text y="400.932" x="563.176" svgx:width="0.55" style="fill:rgb(0,0,0);font-family:Helvetica;font-size:5.33px;stroke:none;">1</text>
  </g>
  <g begin="text">
   <text y="404.504" x="566.532" svgx:width="0.28" style="fill:rgb(0,0,0);font-family:Helvetica;font-size:8.0px;stroke:none;">.</text>
   <text y="414.028" x="180.002,182.666,188.41,191.04999999999998,192.815,198.175,199.902,203.902,208.318,214.981,219.397,223.813,226.477,228.221,232.103,236.519,240.919,242.704,247.12,249.36,251.095,253.343,257.758,262.15799999999996,263.907,267.907,272.323,276.739,280.739,282.483,284.731,286.475,290.475,292.141,296.14,300.556,304.972,309.388,313.388,315.132,317.38,321.38,323.095,327.51,331.51,333.242,337.642,339.365,341.613,346.029,350.445,354.445,356.693,358.437,362.853,367.253,368.959,373.375,375.615,377.406,381.406,385.822,388.486,391.15,395.566,399.982,402.22200000000004,403.881,408.297,412.713,417.129,421.129,422.873,425.121,429.121,431.361,433.078,435.742,441.486,444.126,445.891,451.635,455.634,459.634,461.378,463.122,467.538,471.938,473.613,478.029,482.445,485.109,487.357,491.773,494.437,501.101,505.517,509.933,513.933,518.333,519.988,524.404,526.644,528.435,532.435,536.851,539.515,542.179,546.595,551.011" svgx:width="0.33,0.72,0.33,0.55,0.67,0.55,0.5,0.55,0.83,0.55,0.55,0.33,0.22,0.5,0.55,0.55,0.55,0.55,0.28,0.55,0.28,0.55,0.55,0.55,0.5,0.55,0.55,0.5,0.22,0.28,0.22,0.5,0.55,0.5,0.55,0.55,0.55,0.5,0.22,0.28,0.5,0.55,0.55,0.5,0.55,0.55,0.55,0.28,0.55,0.55,0.5,0.28,0.22,0.55,0.55,0.55,0.55,0.28,0.55,0.5,0.55,0.33,0.33,0.55,0.55,0.28,0.55,0.55,0.55,0.55,0.5,0.22,0.28,0.5,0.28,0.55,0.33,0.72,0.33,0.55,0.72,0.5,0.5,0.22,0.22,0.55,0.55,0.55,0.55,0.55,0.33,0.28,0.55,0.33,0.83,0.55,0.55,0.5,0.55,0.55,0.55,0.28,0.55,0.5,0.55,0.33,0.33,0.55,0.55,0.28" style="fill:rgb(0,0,0);font-family:Helvetica;font-size:8.0px;stroke:none;">(C) A comparison of the specific capacity as a function of current density. (D) Cycling performance at current</text>
   <text y="423.496" x="180.002,184.418,188.834,193.25,197.25,198.994,201.242,202.986,207.401,211.401,213.054,217.47,219.71,221.501,225.917,230.333,234.733,236.468,243.132,248.49200000000002,250.187" svgx:width="0.55,0.55,0.55,0.5,0.22,0.28,0.22,0.55,0.5,0.55,0.55,0.28,0.55,0.55,0.55,0.55,0.55,0.83,0.67,0.55,0.55" style="fill:rgb(0,0,0);font-family:Helvetica;font-size:8.0px;stroke:none;">densities of 200 mA g</text>
  </g>
  <g begin="text">
   <text y="419.924" x="254.551" svgx:width="0.58" style="fill:rgb(0,0,0);font-family:ArialMT-Identity-H;font-size:5.33px;stroke:none;">−</text>
   <text y="419.924" x="258.055" svgx:width="0.55" style="fill:rgb(0,0,0);font-family:Helvetica;font-size:5.33px;stroke:none;">1</text>
  </g>
  <g begin="text">
   <text y="423.496" x="263.168,267.584,269.824,271.559,274.223,279.967,284.383,286.631,293.294,297.71" svgx:width="0.55,0.28,0.55,0.33,0.72,0.55,0.28,0.83,0.55,0.33" style="fill:rgb(0,0,0);font-family:Helvetica;font-size:8.0px;stroke:none;">of (Co,Mn)</text>
  </g>
  <g begin="text">
   <text y="424.857" x="300.302" svgx:width="0.55" style="fill:rgb(0,0,0);font-family:Helvetica;font-size:5.33px;stroke:none;">3</text>
  </g>
  <g begin="text">
   <text y="423.496" x="303.591" svgx:width="0.78" style="fill:rgb(0,0,0);font-family:Helvetica;font-size:8.0px;stroke:none;">O</text>
  </g>
  <g begin="text">
   <text y="424.857" x="309.827" svgx:width="0.55" style="fill:rgb(0,0,0);font-family:Helvetica;font-size:5.33px;stroke:none;">4</text>
  </g>
  <g begin="text">
   <text y="423.496" x="313.115,315.363,318.027,324.275,332.276,336.276,340.692,347.356,351.772,356.188,360.188,361.813,364.061,368.477" svgx:width="0.28,0.33,0.78,0.78,0.5,0.55,0.83,0.55,0.55,0.5,0.22,0.28,0.55,0.28" style="fill:rgb(0,0,0);font-family:Helvetica;font-size:8.0px;stroke:none;">/rGOcomposite.</text>
   <text y="438.973" x="180.001,184.001,188.0,189.744,191.744,195.544,199.344,201.144,204.944,208.631,212.431,216.231,218.279,219.822,223.622,227.422,229.886,233.686,237.062,238.606,240.406,244.206,248.006,251.806,255.062,256.862,260.662,264.462,268.262,272.062,275.862,279.662,283.462,285.262,289.062,292.862,296.661" svgx:width="0.5,0.5,0.22,0.25,0.5,0.5,0.25,0.5,0.5,0.5,0.5,0.28,0.22,0.5,0.5,0.33,0.5,0.45,0.22,0.25,0.5,0.5,0.5,0.45,0.25,0.5,0.5,0.5,0.5,0.5,0.5,0.5,0.25,0.5,0.5,0.5,0.5" style="fill:rgb(0,0,0);font-family:Helvetica-Condensed;font-size:8.0px;stroke:none;">doi:10.1371/journal.pone.0164657.g004</text>
  </g>
  <path style="fill:rgb(0,0,0);stroke:none;stroke-width:1.0;" d="M576.000 54.900 L36.000 54.900 L36.000 54.400 L576.000 54.400 "/>
  <rect style="stroke:blue;stroke-width:0.3;" x="36.0" y="35.043" height="23.64" width="107.093" title="7"/>
  <text y="35.043" class="image" id="image.7.2" width="107" height="23" x="36.0">image.7.2.36_143.35_59</text>
  <g begin="text">
   <text y="46.205" x="429.619,434.531,438.947,443.363,446.027,447.771,451.771,456.186,458.434,460.178,464.485,468.885,470.664,475.08,477.32,479.054,481.718,487.462,491.878,494.126,500.79,505.206" svgx:width="0.61,0.55,0.55,0.33,0.22,0.5,0.55,0.28,0.22,0.55,0.55,0.55,0.55,0.28,0.55,0.33,0.72,0.55,0.28,0.83,0.55,0.33" style="fill:rgb(0,0,0);font-family:Helvetica;font-size:8.0px;stroke:none;">Fabrication of (Co,Mn)</text>
  </g>
  <g begin="text">
   <text y="47.509" x="507.798" svgx:width="0.55" style="fill:rgb(0,0,0);font-family:Helvetica;font-size:5.33px;stroke:none;">3</text>
  </g>
  <g begin="text">
   <text y="46.205" x="511.143" svgx:width="0.78" style="fill:rgb(0,0,0);font-family:Helvetica;font-size:8.0px;stroke:none;">O</text>
  </g>
  <g begin="text">
   <text y="47.509" x="517.323" svgx:width="0.55" style="fill:rgb(0,0,0);font-family:Helvetica;font-size:5.33px;stroke:none;">4</text>
  </g>
  <g begin="text">
   <text y="46.205" x="520.668,522.916,525.58,531.828,539.773,543.773,548.189,554.853,559.269,563.685,567.685,569.429,571.677" svgx:width="0.28,0.33,0.78,0.78,0.5,0.55,0.83,0.55,0.55,0.5,0.22,0.28,0.55" style="fill:rgb(0,0,0);font-family:Helvetica;font-size:8.0px;stroke:none;">/rGOcomposite</text>
  </g>
  <path style="fill:rgb(0,0,0);stroke:none;stroke-width:1.0;" d="M36.000 744.000 L576.000 744.000 L576.000 744.500 L36.000 744.500 "/>
  <g begin="text">
   <text y="756.0" x="36.0,41.328,45.744,51.992,57.352,59.017,65.264,71.008,76.368,78.066,80.146,81.921,87.665,93.913,96.161,98.409,102.825,107.241,109.489,113.782,118.198,122.614,127.03,129.278,131.022,135.438,139.854,142.518,146.834,151.25,152.994,155.242,159.658,164.074,168.49,172.906,175.153,179.569,183.985,188.401,192.698,197.114,201.53,205.93,213.901,220.149,224.149,226.397,230.813,235.229,239.645,242.285,244.005,248.421,252.837,255.077,256.817,261.233,265.649,270.065,274.465,557.005,561.405,563.185" svgx:width="0.67,0.55,0.78,0.67,0.55,0.78,0.72,0.67,0.55,0.26,0.55,0.72,0.78,0.28,0.28,0.55,0.55,0.28,0.55,0.55,0.55,0.55,0.28,0.22,0.55,0.55,0.33,0.55,0.55,0.22,0.28,0.55,0.55,0.55,0.55,0.28,0.55,0.55,0.55,0.55,0.55,0.55,0.55,0.55,0.78,0.5,0.28,0.55,0.55,0.55,0.33,0.55,0.55,0.55,0.28,0.55,0.55,0.55,0.55,0.55,0.55,0.55,0.55,0.28" style="fill:rgb(0,0,0);font-family:Helvetica;font-size:8.0px;stroke:none;">PLOS ONE | DOI:10.1371/journal.pone.0164657 October 27, 2016 7 /</text>
  </g>
  <g begin="text">
   <text y="756.0" x="567.209,571.625" svgx:width="0.55,0.55" style="fill:rgb(0,0,0);font-family:Helvetica;font-size:8.0px;stroke:none;">11</text>
  </g>
 </g>
</svg>
