<?xml version="1.0" encoding="UTF-8"?>
<svg height="766.0" width="4190.0" xmlns="http://www.w3.org/2000/svg">
 <g id="page" xmlns:svgx="http://www.xml-cml.org/schema/svgx">
  <path style="fill:rgb(59,90,166);stroke:none;stroke-width:1.0;" d="M324.850 505.190 L331.990 505.190 Z"/>
  <path style="fill:rgb(59,90,166);stroke:none;stroke-width:1.0;" d="M203.410 518.170 L213.050 518.170 Z"/>
  <path style="fill:rgb(59,90,166);stroke:none;stroke-width:1.0;" d="M531.890 557.180 L558.200 557.180 Z"/>
  <path style="fill:rgb(59,90,166);stroke:none;stroke-width:1.0;" d="M435.340 583.200 L460.570 583.200 Z"/>
  <path style="fill:rgb(59,90,166);stroke:none;stroke-width:1.0;" d="M390.560 609.170 L410.000 609.170 Z"/>
  <path style="fill:rgb(59,90,166);stroke:none;stroke-width:1.0;" d="M292.250 622.200 L318.220 622.200 Z"/>
  <path style="fill:rgb(59,90,166);stroke:none;stroke-width:1.0;" d="M447.530 648.170 L473.500 648.170 Z"/>
  <path style="fill:rgb(59,90,166);stroke:none;stroke-width:1.0;" d="M560.410 661.150 L572.770 661.150 Z"/>
  <path style="fill:rgb(59,90,166);stroke:none;stroke-width:1.0;" d="M200.010 674.190 L212.090 674.190 Z"/>
  <g begin="text">
   <text y="465.109" x="200.012,203.003,208.10299999999998,210.216,214.456,219.447,224.876,229.046,231.456,236.746,242.007,246.30700000000002,248.314,251.404,256.715,260.924,264.024,266.229,271.398,276.388,279.478,284.778,286.809,291.798,294.798,296.899,299.99,305.289,309.589,311.639,318.449,323.54900000000004,325.415,329.725,335.155,340.455,342.594,351.453,356.953,359.091,363.292,365.802,370.042,378.191,382.431,387.711,390.762,394.462,396.565,401.875,406.086,410.635,414.935,417.202" svgx:width="0.31,0.51,0.55,0.42,0.51,0.55,0.42,0.25,0.53,0.53,0.43,0.55,0.31,0.53,0.44,0.31,0.55,0.51,0.51,0.31,0.53,0.55,0.51,0.3,0.55,0.31,0.53,0.43,0.55,0.67,0.51,0.55,0.44,0.55,0.53,0.55,0.89,0.55,0.55,0.43,0.25,0.43,0.82,0.43,0.55,0.31,0.37,0.55,0.53,0.44,0.46,0.43,0.55,0.48" style="fill:rgb(0,0,0);font-family:MinionPro-Regular;font-size:10.0px;stroke:none;">to conclude that both of the Co and Mn elements have 2</text>
  </g>
  <g begin="text">
   <text y="460.687" x="421.965" svgx:width="0.58" style="fill:rgb(0,0,0);font-family:MinionPro-Regular;font-size:6.67px;stroke:none;">+</text>
  </g>
  <g begin="text">
   <text y="465.109" x="428.485,432.795,438.225,443.52500000000003,445.719" svgx:width="0.44,0.55,0.53,0.55,0.48" style="fill:rgb(0,0,0);font-family:MinionPro-Regular;font-size:10.0px;stroke:none;">and 3</text>
  </g>
  <g begin="text">
   <text y="460.687" x="450.482" svgx:width="0.58" style="fill:rgb(0,0,0);font-family:MinionPro-Regular;font-size:6.67px;stroke:none;">+</text>
  </g>
  <g begin="text">
   <text y="465.109" x="457.001,461.621,466.051,468.561,472.801,478.232,482.471,486.771,488.578,492.198,495.309,499.518,502.508,506.738,510.438,512.729,515.82,521.13,525.339,528.4390000000001,530.645,534.974,539.705,543.285,547.594,551.894,553.776,560.546,564.745,567.326" svgx:width="0.46,0.44,0.25,0.43,0.55,0.42,0.43,0.55,0.37,0.31,0.44,0.31,0.43,0.37,0.55,0.31,0.53,0.44,0.31,0.55,0.44,0.47,0.37,0.43,0.43,0.55,0.69,0.43,0.25,0.25" style="fill:rgb(0,0,0);font-family:MinionPro-Regular;font-size:10.0px;stroke:none;">valence states that agree well</text>
   <text y="478.091" x="200.015,206.895,209.455,212.545,217.845,219.914,223.004,228.304,232.604,234.654,238.234,242.464,246.084,251.443,253.854,256.904,260.604,262.716,267.707,270.707,272.807,279.348,285.557,294.918,297.908,302.138,305.758,308.818,311.118,313.173,320.052,325.483,330.783,332.902,335.992,341.292,345.592,347.643,351.383,356.423,358.943,361.603,366.883,370.443,374.063,377.173,381.383,384.372,388.672,390.616,394.196,398.506,403.766,408.706,413.406,415.504,419.744,424.734,429.924,435.104,437.614,441.844,445.544,447.648,456.508" svgx:width="0.69,0.27,0.31,0.53,0.55,0.31,0.53,0.43,0.55,0.37,0.43,0.37,0.53,0.25,0.31,0.37,0.55,0.51,0.3,0.55,0.65,0.62,0.74,0.31,0.43,0.37,0.31,0.23,0.55,0.69,0.55,0.53,0.55,0.31,0.53,0.43,0.55,0.37,0.51,0.25,0.27,0.53,0.36,0.37,0.31,0.44,0.31,0.43,0.55,0.37,0.43,0.53,0.51,0.47,0.55,0.42,0.51,0.53,0.52,0.25,0.43,0.37,0.55,0.89,0.55" style="fill:rgb(0,0,0);font-family:MinionPro-Regular;font-size:10.0px;stroke:none;">with the results of XRDtest. And the solid-state redox couples Mn</text>
  </g>
  <g begin="text">
   <text y="473.669" x="461.934,465.534" svgx:width="0.48,0.58" style="fill:rgb(0,0,0);font-family:MinionPro-Regular;font-size:6.67px;stroke:none;">3+</text>
  </g>
  <g begin="text">
   <text y="478.091" x="469.814,473.124,481.984" svgx:width="0.33,0.89,0.55" style="fill:rgb(0,0,0);font-family:MinionPro-Regular;font-size:10.0px;stroke:none;">/Mn</text>
  </g>
  <g begin="text">
   <text y="473.669" x="487.332,490.932" svgx:width="0.48,0.58" style="fill:rgb(0,0,0);font-family:MinionPro-Regular;font-size:6.67px;stroke:none;">2+</text>
  </g>
  <g begin="text">
   <text y="478.091" x="497.424,501.734,507.164,512.4639999999999,514.658,521.468" svgx:width="0.44,0.55,0.53,0.55,0.67,0.51" style="fill:rgb(0,0,0);font-family:MinionPro-Regular;font-size:10.0px;stroke:none;">and Co</text>
  </g>
  <g begin="text">
   <text y="473.669" x="526.224,529.824" svgx:width="0.48,0.58" style="fill:rgb(0,0,0);font-family:MinionPro-Regular;font-size:6.67px;stroke:none;">3+</text>
  </g>
  <g begin="text">
   <text y="478.091" x="534.104,537.414,544.224" svgx:width="0.33,0.67,0.51" style="fill:rgb(0,0,0);font-family:MinionPro-Regular;font-size:10.0px;stroke:none;">/Co</text>
  </g>
  <g begin="text">
   <text y="473.669" x="548.957,552.557" svgx:width="0.48,0.58" style="fill:rgb(0,0,0);font-family:MinionPro-Regular;font-size:6.67px;stroke:none;">2+</text>
  </g>
  <g begin="text">
   <text y="478.091" x="559.049,563.359,566.939" svgx:width="0.44,0.37,0.43" style="fill:rgb(0,0,0);font-family:MinionPro-Regular;font-size:10.0px;stroke:none;">are</text>
   <text y="491.13" x="200.016,205.146,208.726,212.956,216.696,220.936,226.216,229.316,231.48,234.15,239.65,241.741,244.831,250.131,254.431,256.425,260.045,265.175,267.845,273.275,277.475,279.975,282.22,285.84,288.94,292.75,298.04,302.33,305.28,310.58,314.16,318.35,320.65000000000003,322.358,329.278,334.598,337.258,341.428,346.728,348.72,356.88,361.09,365.69,368.052,373.182,376.762,381.712,386.372,389.032,394.292,398.592,400.707,405.10699999999997,407.284,412.714,417.704,420.814,425.114,430.134,432.644,436.944,438.975,443.175,445.685,449.995,454.285,457.385,460.965,466.155,470.325,475.625,479.865,488.035,490.695,494.955,499.385,501.885,503.321,507.691,511.981,515.081,517.691,522.351,524.911,527.981,531.831,534.131,536.713,542.273,545.853,550.193,554.853,557.533" svgx:width="0.52,0.37,0.43,0.37,0.43,0.55,0.31,0.55,0.27,0.55,0.55,0.31,0.53,0.43,0.55,0.37,0.52,0.27,0.55,0.43,0.25,0.55,0.37,0.31,0.37,0.53,0.42,0.31,0.53,0.37,0.43,0.23,0.55,0.69,0.53,0.27,0.42,0.53,0.55,0.82,0.44,0.46,0.55,0.52,0.37,0.51,0.46,0.27,0.53,0.43,0.55,0.44,0.55,0.55,0.51,0.31,0.44,0.51,0.25,0.43,0.55,0.43,0.25,0.43,0.42,0.31,0.37,0.51,0.42,0.53,0.43,0.82,0.27,0.42,0.44,0.25,0.55,0.44,0.42,0.31,0.27,0.46,0.27,0.31,0.46,0.23,0.55,0.56,0.37,0.43,0.46,0.27,0.36" style="fill:rgb(0,0,0);font-family:MinionPro-Regular;font-size:10.0px;stroke:none;">present in the spinel structure, which may provide a notable electrochemical activity. Previ-</text>
   <text y="504.112" x="200.016,205.006,210.286,213.906,216.366,220.216,222.51600000000002,225.357,232.167,237.267,246.127" svgx:width="0.51,0.53,0.37,0.25,0.46,0.23,0.55,0.67,0.51,0.89,0.55" style="fill:rgb(0,0,0);font-family:MinionPro-Regular;font-size:10.0px;stroke:none;">ously, CoMn</text>
  </g>
  <g begin="text">
   <text y="505.758" x="251.206" svgx:width="0.48" style="fill:rgb(0,0,0);font-family:MinionPro-Regular;font-size:6.67px;stroke:none;">2</text>
  </g>
  <g begin="text">
   <text y="504.113" x="254.778" svgx:width="0.75" style="fill:rgb(0,0,0);font-family:MinionPro-Regular;font-size:10.0px;stroke:none;">O</text>
  </g>
  <g begin="text">
   <text y="505.758" x="262.205" svgx:width="0.48" style="fill:rgb(0,0,0);font-family:MinionPro-Regular;font-size:6.67px;stroke:none;">4</text>
  </g>
  <g begin="text">
   <text y="504.113" x="267.987,276.157,278.817,283.047,286.627,291.717,295.337,300.517,305.817,310.057,313.637,317.867,321.537" svgx:width="0.82,0.27,0.42,0.37,0.51,0.37,0.52,0.53,0.43,0.37,0.43,0.37,0.34" style="fill:rgb(0,0,0);font-family:MinionPro-Regular;font-size:10.0px;stroke:none;">microspheres[</text>
  </g>
  <g begin="text">
   <text y="499.635" x="324.85,328.45" svgx:width="0.48,0.48" style="fill:rgb(59,90,166);font-family:MinionPro-Regular;font-size:6.67px;stroke:none;">31</text>
   <text y="499.635" x="332.05" svgx:width="0.34" style="fill:rgb(0,0,0);font-family:MinionPro-Regular;font-size:6.67px;stroke:none;">]</text>
  </g>
  <g begin="text">
   <text y="504.113" x="336.813,341.122,346.552,351.85200000000003,353.99,359.31,361.969,366.21,369.919,374.229,377.81,381.979,387.299,389.96,394.219,398.65,401.15,403.143,408.473,413.462,417.042,422.033,427.313,431.013,433.076,439.885,444.986,453.845,459.315,462.775,469.586,474.685,483.545,489.016" svgx:width="0.44,0.55,0.53,0.55,0.53,0.27,0.43,0.37,0.44,0.37,0.42,0.53,0.27,0.42,0.44,0.25,0.55,0.52,0.51,0.37,0.51,0.53,0.37,0.55,0.67,0.51,0.89,0.55,0.35,0.67,0.51,0.89,0.55,0.35" style="fill:rgb(0,0,0);font-family:MinionPro-Regular;font-size:10.0px;stroke:none;">and hierarchical porous CoMn(CoMn)</text>
  </g>
  <g begin="text">
   <text y="505.758" x="491.641" svgx:width="0.48" style="fill:rgb(0,0,0);font-family:MinionPro-Regular;font-size:6.67px;stroke:none;">2</text>
  </g>
  <g begin="text">
   <text y="504.113" x="495.269" svgx:width="0.75" style="fill:rgb(0,0,0);font-family:MinionPro-Regular;font-size:10.0px;stroke:none;">O</text>
  </g>
  <g begin="text">
   <text y="505.758" x="502.639" svgx:width="0.48" style="fill:rgb(0,0,0);font-family:MinionPro-Regular;font-size:6.67px;stroke:none;">4</text>
  </g>
  <g begin="text">
   <text y="504.113" x="506.268,509.578,513.288,520.438,529.852,535.292,539.602,545.032,550.022,555.202,557.752,561.962,564.952,569.182" svgx:width="0.33,0.37,0.71,0.75,0.55,0.44,0.55,0.51,0.52,0.25,0.44,0.31,0.43,0.37" style="fill:rgb(0,0,0);font-family:MinionPro-Regular;font-size:10.0px;stroke:none;">/rGOnanoplates</text>
   <text y="517.095" x="200.015" svgx:width="0.34" style="fill:rgb(0,0,0);font-family:MinionPro-Regular;font-size:10.0px;stroke:none;">[</text>
   <text y="517.095" x="203.465,208.265" svgx:width="0.48,0.48" style="fill:rgb(59,90,166);font-family:MinionPro-Regular;font-size:10.0px;stroke:none;">32</text>
   <text y="517.095" x="213.065,216.465,218.667,223.977,228.347,233.64700000000002,235.788,240.958,245.268,249.508,255.008,256.765,260.445,265.065,270.495,274.735,277.825,283.125,287.355,291.005,293.685,297.905,302.215,309.092,313.472,317.17199999999997,319.353,323.553,326.063,330.373,334.663,337.763,341.343,346.533,351.793,356.093,357.621,365.781,369.991,372.981,377.221,380.971,383.671,388.101,390.601,394.301,396.285,399.165,404.155,407.85499999999996,410.061,413.681,418.871,424.201,428.441,432.021,436.281,440.491,445.781,450.151,454.381,456.941,459.931,464.921,468.621,470.779,474.989,480.119,485.299,487.819,490.479,494.739,498.949,502.049,504.709,509.699,515.089,518.759,521.059,523.332,530.742,535.692,542.462,546.802,551.352,555.592,558.662" svgx:width="0.34,0.55,0.53,0.44,0.53,0.55,0.51,0.43,0.43,0.55,0.55,0.37,0.46,0.55,0.43,0.31,0.53,0.43,0.37,0.27,0.42,0.43,0.53,0.44,0.37,0.55,0.43,0.25,0.43,0.42,0.31,0.37,0.51,0.53,0.43,0.55,0.82,0.44,0.31,0.43,0.37,0.27,0.44,0.25,0.37,0.55,0.3,0.51,0.37,0.55,0.37,0.53,0.52,0.43,0.37,0.42,0.44,0.52,0.44,0.42,0.27,0.31,0.51,0.37,0.55,0.44,0.52,0.52,0.25,0.27,0.42,0.44,0.31,0.27,0.51,0.55,0.37,0.23,0.55,0.77,0.51,0.69,0.43,0.46,0.43,0.37,0.23" style="fill:rgb(0,0,0);font-family:MinionPro-Regular;font-size:10.0px;stroke:none;">] had been synethesizedas electrode materials for supercapacitor applications. However,</text>
   <text y="530.078" x="200.015,206.895,209.455,212.545,217.845,222.835,228.025,231.125,233.18,237.49,242.73,247.32999999999998,249.735,254.675,259.395,262.055,267.355,271.665,276.945,280.045,282.276,286.646,291.906,297.176,299.736,302.836,305.496,310.486,315.956,318.25600000000003,320.147,323.767,329.057,333.227,338.527,340.726,345.106,348.806,350.931" svgx:width="0.69,0.27,0.31,0.53,0.51,0.53,0.31,0.55,0.44,0.55,0.46,0.55,0.51,0.47,0.27,0.53,0.44,0.55,0.31,0.55,0.44,0.53,0.53,0.27,0.31,0.27,0.51,0.55,0.23,0.55,0.37,0.53,0.42,0.53,0.55,0.44,0.37,0.55,0.77" style="fill:rgb(0,0,0);font-family:MinionPro-Regular;font-size:10.0px;stroke:none;">without any oxidant addition, such as H</text>
  </g>
  <g begin="text">
   <text y="531.78" x="358.526" svgx:width="0.48" style="fill:rgb(0,0,0);font-family:MinionPro-Regular;font-size:6.67px;stroke:none;">2</text>
  </g>
  <g begin="text">
   <text y="530.079" x="362.154" svgx:width="0.75" style="fill:rgb(0,0,0);font-family:MinionPro-Regular;font-size:10.0px;stroke:none;">O</text>
  </g>
  <g begin="text">
   <text y="531.78" x="369.524" svgx:width="0.48" style="fill:rgb(0,0,0);font-family:MinionPro-Regular;font-size:6.67px;stroke:none;">2</text>
  </g>
  <g begin="text">
   <text y="530.079" x="373.153,375.45300000000003,377.518,381.748,385.748,390.328,393.948,397.058,401.488,404.068,406.588,409.258,414.688,418.988,420.377,423.997,427.097,430.907,436.197,440.487,443.437,448.737,452.317,456.617,458.361,462.621,466.931,472.431,474.519,479.509,485.029,487.489,492.089,494.248,499.418,503.718,505.643,510.693,515.663,518.773,523.083,525.753,531.183,535.493,540.793,542.663,546.973,550.003,552.993,557.233" svgx:width="0.23,0.55,0.42,0.37,0.46,0.37,0.31,0.44,0.25,0.25,0.27,0.55,0.43,0.55,0.37,0.31,0.37,0.53,0.42,0.31,0.53,0.37,0.43,0.55,0.42,0.44,0.55,0.55,0.51,0.55,0.25,0.46,0.55,0.51,0.43,0.55,0.51,0.51,0.31,0.44,0.27,0.55,0.43,0.53,0.55,0.44,0.3,0.31,0.43,0.37" style="fill:rgb(0,0,0);font-family:MinionPro-Regular;font-size:10.0px;stroke:none;">, crystalline structure can only be obtained after</text>
   <text y="543.118" x="200.014,204.274,208.704,211.214,215.444,218.114,223.554,227.764,230.864,233.524,238.514,243.904,247.60399999999998,249.564,253.774,256.874,259.145,261.655,265.955,270.335,273.955,277.055,279.044,283.844,288.644,293.444,296.874,303.524" svgx:width="0.42,0.44,0.25,0.42,0.27,0.55,0.44,0.31,0.27,0.51,0.55,0.37,0.55,0.44,0.31,0.55,0.25,0.43,0.44,0.37,0.31,0.55,0.48,0.48,0.48,0.34,0.67,0.23" style="fill:rgb(0,0,0);font-family:MinionPro-Regular;font-size:10.0px;stroke:none;">calcinations at least 300°C.</text>
   <text y="556.1" x="211.977,218.137,223.437,227.73700000000002,229.835,237.985,242.975,246.785,251.965,257.265,262.305,264.815,269.905,274.815,279.415,281.028,286.018,289.018,291.176,294.266,299.566,303.866,305.859,310.239,313.909,317.469,322.599,326.179,330.419,335.709,340.019,343.599,347.909,353.209,355.295,359.535,364.525,372.525,377.855,382.945,386.595,389.155,392.145,396.445,398.494,405.334,409.714,413.414,415.502,419.732,424.452,428.762,436.932,439.602,445.032,449.342,454.642,456.491,461.421,466.021,468.283,472.913,478.593,489.656,493.966,499.396,504.696,506.89,513.06,518.74,527.65" svgx:width="0.62,0.53,0.43,0.55,0.82,0.51,0.37,0.52,0.53,0.51,0.25,0.51,0.47,0.46,0.55,0.51,0.3,0.55,0.31,0.53,0.43,0.55,0.44,0.37,0.36,0.52,0.37,0.43,0.52,0.44,0.37,0.43,0.53,0.55,0.42,0.51,0.82,0.52,0.51,0.37,0.27,0.31,0.43,0.55,0.69,0.44,0.37,0.55,0.43,0.47,0.44,0.82,0.27,0.55,0.43,0.53,0.55,0.51,0.46,0.55,0.47,0.57,0.89,0.44,0.55,0.53,0.55,0.62,0.57,0.89,0.23" style="fill:rgb(0,0,0);font-family:MinionPro-Regular;font-size:10.0px;stroke:none;">The morphology of the as-prepared composite was examined by SEMand TEM.</text>
   <text y="556.1" x="531.892,537.012,539.682,544.3820000000001,546.518,551.318" svgx:width="0.53,0.27,0.47,0.55,0.48,0.69" style="fill:rgb(59,90,166);font-family:MinionPro-Regular;font-size:10.0px;stroke:none;">Fig 3A</text>
   <text y="569.083" x="200.014,203.634,208.934,213.884,220.724,224.42399999999998,226.603,231.00300000000001,233.18,237.81,243.49,254.553,257.223,265.383,269.713,274.323,278.623,280.631,285.621,288.621,290.779,293.869,299.169,303.469,305.463,308.923,315.733,320.533,322.813,331.673,337.143" svgx:width="0.37,0.53,0.51,0.69,0.37,0.55,0.44,0.55,0.47,0.57,0.89,0.27,0.82,0.44,0.47,0.43,0.55,0.51,0.3,0.55,0.31,0.53,0.43,0.55,0.35,0.67,0.51,0.23,0.89,0.55,0.35" style="fill:rgb(0,0,0);font-family:MinionPro-Regular;font-size:10.0px;stroke:none;">shows a SEMimage of the (Co,Mn)</text>
  </g>
  <g begin="text">
   <text y="570.784" x="340.384" svgx:width="0.48" style="fill:rgb(0,0,0);font-family:MinionPro-Regular;font-size:6.67px;stroke:none;">3</text>
  </g>
  <g begin="text">
   <text y="569.083" x="344.013" svgx:width="0.75" style="fill:rgb(0,0,0);font-family:MinionPro-Regular;font-size:10.0px;stroke:none;">O</text>
  </g>
  <g begin="text">
   <text y="570.784" x="351.383" svgx:width="0.48" style="fill:rgb(0,0,0);font-family:MinionPro-Regular;font-size:6.67px;stroke:none;">4</text>
  </g>
  <g begin="text">
   <text y="569.083" x="355.011,358.321,362.031,369.181,378.595,382.835,387.825,395.825,401.155,406.245,409.895,412.455,415.445,419.635,421.935,423.949,427.569,432.869,437.819,444.699,447.369,452.759,457.459,459.495,463.895,466.071,468.621,472.931,476.561,481.171,485.471,487.558,492.838,498.138,506.228,511.398,515.638,519.3380000000001,521.346,526.336,529.336,531.494,534.954,541.764,546.564" svgx:width="0.33,0.37,0.71,0.75,0.42,0.51,0.82,0.52,0.51,0.37,0.27,0.31,0.43,0.23,0.55,0.37,0.53,0.51,0.69,0.27,0.55,0.47,0.55,0.44,0.55,0.25,0.44,0.37,0.47,0.43,0.55,0.55,0.53,0.82,0.51,0.43,0.37,0.55,0.51,0.3,0.55,0.35,0.67,0.51,0.23" style="fill:rgb(0,0,0);font-family:MinionPro-Regular;font-size:10.0px;stroke:none;">/rGOcomposite, showing a large number of (Co,</text>
   <text y="582.122" x="200.014,208.874,214.344" svgx:width="0.89,0.55,0.35" style="fill:rgb(0,0,0);font-family:MinionPro-Regular;font-size:10.0px;stroke:none;">Mn)</text>
  </g>
  <g begin="text">
   <text y="583.767" x="217.701" svgx:width="0.48" style="fill:rgb(0,0,0);font-family:MinionPro-Regular;font-size:6.67px;stroke:none;">3</text>
  </g>
  <g begin="text">
   <text y="582.123" x="221.329" svgx:width="0.75" style="fill:rgb(0,0,0);font-family:MinionPro-Regular;font-size:10.0px;stroke:none;">O</text>
  </g>
  <g begin="text">
   <text y="583.767" x="228.699" svgx:width="0.48" style="fill:rgb(0,0,0);font-family:MinionPro-Regular;font-size:6.67px;stroke:none;">4</text>
  </g>
  <g begin="text">
   <text y="582.123" x="234.538,239.828,244.139,247.949,251.048,253.708,257.879,260.388,264.618,268.318,270.085,274.395,277.974,282.274,284.484,288.794,294.224,298.395,303.694,308.685,312.264,316.574,321.874,323.999,328.988,334.488,336.642,339.732,345.031,349.331,351.324,355.034,362.185,371.677,377.117,381.427,386.857,391.948,395.568,400.868,405.178,409.418,412.468,416.168,418.109,422.419,427.849" svgx:width="0.52,0.44,0.37,0.31,0.27,0.42,0.25,0.43,0.37,0.55,0.44,0.37,0.43,0.55,0.44,0.55,0.42,0.53,0.51,0.37,0.43,0.53,0.55,0.51,0.55,0.55,0.31,0.53,0.43,0.55,0.37,0.71,0.75,0.55,0.44,0.55,0.51,0.37,0.53,0.43,0.43,0.31,0.37,0.55,0.44,0.55,0.53" style="fill:rgb(0,0,0);font-family:MinionPro-Regular;font-size:10.0px;stroke:none;">particles are anchored on the rGOnanosheets and</text>
   <text y="582.123" x="435.344,440.464,443.133,447.83299999999997,449.914,454.714" svgx:width="0.53,0.27,0.47,0.55,0.48,0.59" style="fill:rgb(59,90,166);font-family:MinionPro-Regular;font-size:10.0px;stroke:none;">Fig 3B</text>
   <text y="582.123" x="462.783,466.403,471.703,476.653,483.493,487.193,489.371,492.461,497.771,501.982,505.08200000000005,507.286,510.375,515.676,519.906,523.646,527.9459999999999,529.849,535.289,539.599,545.03,550.02,555.31,559.62,563.43,566.529,569.21" svgx:width="0.37,0.53,0.51,0.69,0.37,0.55,0.31,0.53,0.44,0.31,0.55,0.31,0.53,0.43,0.37,0.43,0.55,0.55,0.44,0.55,0.51,0.52,0.44,0.37,0.31,0.27,0.36" style="fill:rgb(0,0,0);font-family:MinionPro-Regular;font-size:10.0px;stroke:none;">shows that these nanoparti-</text>
   <text y="595.105" x="200.014,204.184,206.694,210.924,214.624,216.681,221.951,224.601,228.221,231.32,235.071,237.701,242.671,247.861,250.851,255.151,257.044,262.345,267.794,270.465,273.345,278.335,282.085,290.324,292.784,297.384,299.281,306.16,308.72,311.81,317.111,322.101,327.29,330.39000000000004,332.447,336.757,341.996,346.596,349.057,354.107,359.036,363.697,366.357,371.346,376.627,380.327,382.336,386.666,391.406,396.146,398.656,403.646,411.796,416.036,419.746,423.956,427.056,429.716,434.706,440.176,442.476,444.13,450.201,454.51,458.771,462.98,468.26,472.0,476.3,477.976,481.065,486.366,490.666,492.659,496.37,503.519,513.011,516.632,521.932,526.242,530.482,533.531,537.231,539.203,544.333,547.914,552.864,557.523,560.184,565.444" svgx:width="0.42,0.25,0.43,0.37,0.55,0.53,0.27,0.37,0.31,0.37,0.27,0.51,0.53,0.31,0.43,0.55,0.53,0.55,0.27,0.3,0.51,0.37,0.82,0.25,0.46,0.55,0.69,0.27,0.31,0.53,0.51,0.53,0.31,0.55,0.44,0.55,0.46,0.55,0.51,0.51,0.46,0.27,0.51,0.53,0.37,0.55,0.44,0.47,0.47,0.25,0.51,0.82,0.43,0.37,0.44,0.31,0.27,0.51,0.55,0.23,0.55,0.59,0.43,0.42,0.44,0.53,0.37,0.43,0.55,0.31,0.53,0.43,0.55,0.37,0.71,0.75,0.37,0.53,0.43,0.43,0.31,0.37,0.55,0.52,0.37,0.51,0.46,0.27,0.53,0.43" style="fill:rgb(0,0,0);font-family:MinionPro-Regular;font-size:10.0px;stroke:none;">cles distribute uniformly without any obvious agglomeration. Because the rGOsheets provide</text>
   <text y="608.088" x="200.014,205.294,210.594,218.743,222.984,226.564,231.553,236.834,240.534,242.646,247.926,253.215,257.385,259.896,264.195,268.406,271.505,274.165,279.156,284.656,286.751,290.401,292.962,295.952,300.182,303.852,306.152,308.239,312.549,317.979,323.279,325.473,329.853,333.553,335.677,339.297,344.598,349.548,356.428,361.928,364.081,369.01,373.61,375.872,378.963,384.263" svgx:width="0.55,0.53,0.82,0.43,0.37,0.51,0.53,0.37,0.55,0.55,0.53,0.42,0.25,0.43,0.44,0.31,0.27,0.51,0.55,0.55,0.37,0.27,0.31,0.43,0.37,0.23,0.55,0.44,0.55,0.53,0.55,0.44,0.37,0.55,0.37,0.53,0.51,0.69,0.55,0.55,0.51,0.46,0.55,0.31,0.53,0.43" style="fill:rgb(0,0,0);font-family:MinionPro-Regular;font-size:10.0px;stroke:none;">numerous nucleation sites, and as shown by the</text>
   <text y="608.088" x="390.556,395.676,398.346,403.046,405.182" svgx:width="0.53,0.27,0.47,0.55,0.48" style="fill:rgb(59,90,166);font-family:MinionPro-Regular;font-size:10.0px;stroke:none;">Fig 1</text>
   <text y="608.088" x="412.156,415.246,420.546,424.776,428.516,432.81600000000003,434.719,439.029,442.609,446.909,449.12,454.39,457.039,460.66,463.76,467.51,470.14,475.109,480.3,483.29,487.6,492.90000000000003,494.701,499.69,505.19,507.286,511.686,513.862,517.602,521.862,526.292,528.802,533.102,534.951,539.942,542.942,545.099,549.409,552.99,557.979,563.279,568.709" svgx:width="0.31,0.53,0.43,0.37,0.43,0.55,0.44,0.37,0.43,0.55,0.53,0.27,0.37,0.31,0.37,0.27,0.51,0.53,0.31,0.43,0.53,0.55,0.51,0.55,0.55,0.44,0.55,0.37,0.42,0.44,0.25,0.43,0.55,0.51,0.3,0.55,0.44,0.37,0.51,0.53,0.55,0.53" style="fill:rgb(0,0,0);font-family:MinionPro-Regular;font-size:10.0px;stroke:none;">these are distributed on a scale of around</text>
   <text y="621.127" x="200.014,204.814,207.094,211.894,216.69400000000002,218.779,224.229,232.419,234.71900000000002,236.749,241.719,246.91,250.01,252.17,256.549,260.24899999999997,262.375,266.115,270.424,274.664,280.164,281.99,284.66" svgx:width="0.48,0.23,0.48,0.48,0.55,0.55,0.82,0.23,0.55,0.51,0.53,0.31,0.55,0.44,0.37,0.55,0.37,0.43,0.43,0.55,0.55,0.27,0.55" style="fill:rgb(0,0,0);font-family:MinionPro-Regular;font-size:10.0px;stroke:none;">0.75 nm, but as seen in</text>
   <text y="621.127" x="292.251,297.371,300.042,304.74199999999996,306.822,311.621" svgx:width="0.53,0.27,0.47,0.55,0.48,0.67" style="fill:rgb(59,90,166);font-family:MinionPro-Regular;font-size:10.0px;stroke:none;">Fig 3C</text>
   <text y="621.127" x="320.427,323.517,328.818,333.118,335.11,340.38,343.03,346.65,349.76,354.07,359.5,363.74,368.04,369.977,375.146,379.386,382.456,389.227,393.536,397.776,404.899,407.99,413.289,417.589,419.582,423.872,429.133,434.102,436.762,440.962,442.94,448.38,452.69,458.12,463.109,468.4,472.71,476.52,479.62,482.279,486.449,488.959,493.189,496.889,498.783,503.773,509.273,511.367,514.458,519.758,524.058,526.107,529.818,536.967,546.46,550.081,555.38,559.69,563.93,567.03,568.967,571.617" svgx:width="0.31,0.53,0.43,0.55,0.53,0.27,0.37,0.31,0.44,0.55,0.42,0.43,0.55,0.51,0.43,0.31,0.69,0.43,0.43,0.55,0.31,0.53,0.43,0.55,0.42,0.53,0.51,0.27,0.42,0.55,0.55,0.44,0.55,0.51,0.52,0.44,0.37,0.31,0.27,0.42,0.25,0.43,0.37,0.55,0.51,0.55,0.55,0.31,0.53,0.43,0.55,0.37,0.71,0.75,0.37,0.53,0.43,0.43,0.31,0.55,0.27,0.37" style="fill:rgb(0,0,0);font-family:MinionPro-Regular;font-size:10.0px;stroke:none;">the distance betweenthe cubic nanoparticles on the rGOsheet is</text>
   <text y="634.11" x="200.013,204.323,207.903,212.893,218.193,223.623,228.923,231.08,235.88,240.68,242.871,248.321,256.511,258.81100000000004,260.843,264.583,269.68300000000005,271.671,274.761,280.061,284.301,287.881,292.181,294.178,302.178,307.458,311.078,314.178,316.402,321.572,325.872,327.797,331.447,334.007,336.997,341.227,344.92699999999996,347.072,350.162,355.472,359.682,362.78200000000004,365.044,369.354,372.934,377.23400000000004,379.444,384.574,388.154,392.394,395.274,399.514,403.264,406.844,411.154,416.454,418.448,421.328,426.318,430.018,432.224,435.684,442.495,447.294,449.574,458.435,463.905" svgx:width="0.44,0.37,0.51,0.53,0.55,0.53,0.55,0.48,0.48,0.55,0.55,0.82,0.23,0.55,0.37,0.51,0.55,0.31,0.53,0.43,0.37,0.43,0.55,0.82,0.53,0.37,0.31,0.55,0.51,0.43,0.55,0.37,0.27,0.31,0.43,0.37,0.55,0.31,0.53,0.44,0.31,0.55,0.44,0.37,0.43,0.55,0.52,0.37,0.43,0.3,0.43,0.37,0.37,0.43,0.53,0.55,0.3,0.51,0.37,0.55,0.35,0.67,0.51,0.23,0.89,0.55,0.35" style="fill:rgb(0,0,0);font-family:MinionPro-Regular;font-size:10.0px;stroke:none;">around 30 nm, so there must be sites that are preferred for (Co,Mn)</text>
  </g>
  <g begin="text">
   <text y="635.754" x="467.15" svgx:width="0.48" style="fill:rgb(0,0,0);font-family:MinionPro-Regular;font-size:6.67px;stroke:none;">3</text>
  </g>
  <g begin="text">
   <text y="634.11" x="470.721" svgx:width="0.75" style="fill:rgb(0,0,0);font-family:MinionPro-Regular;font-size:10.0px;stroke:none;">O</text>
  </g>
  <g begin="text">
   <text y="635.754" x="478.148" svgx:width="0.48" style="fill:rgb(0,0,0);font-family:MinionPro-Regular;font-size:6.67px;stroke:none;">4</text>
  </g>
  <g begin="text">
   <text y="634.11" x="483.931,488.661,492.241,497.191,504.051,507.141,512.481" svgx:width="0.47,0.37,0.51,0.69,0.31,0.53,0.23" style="fill:rgb(0,0,0);font-family:MinionPro-Regular;font-size:10.0px;stroke:none;">growth.</text>
   <text y="647.092" x="211.977,215.217,220.717,222.976,227.346,232.606,237.876,240.436,243.536,246.196,251.186,256.656,258.956,260.846,263.936,269.236,273.536,275.53,280.85,283.52,288.26,293.56,297.8,301.5,303.366,311.526,315.856,320.586,326.036,328.706,331.776,334.436,338.696,342.906,346.006,348.666,353.656,359.156,360.852,364.312,368.052,372.312,376.742,379.252,383.552,385.343,390.473,394.783,398.483,400.593,406.39300000000003,408.53,413.33,418.13,423.58,431.77,435.27,437.33,440.0" svgx:width="0.34,0.55,0.55,0.44,0.53,0.53,0.27,0.31,0.27,0.51,0.55,0.23,0.55,0.31,0.53,0.43,0.55,0.53,0.27,0.47,0.53,0.43,0.37,0.55,0.82,0.44,0.47,0.55,0.27,0.3,0.27,0.42,0.44,0.31,0.27,0.51,0.55,0.55,0.35,0.37,0.42,0.44,0.25,0.43,0.55,0.51,0.44,0.37,0.55,0.58,0.55,0.48,0.48,0.55,0.82,0.35,0.55,0.27,0.55" style="fill:rgb(0,0,0);font-family:MinionPro-Regular;font-size:10.0px;stroke:none;">In addition, the higher magnification (scale bar = 20nm) in</text>
   <text y="647.092" x="447.535,452.655,455.325,460.025,462.162,466.962" svgx:width="0.53,0.27,0.47,0.55,0.48,0.67" style="fill:rgb(59,90,166);font-family:MinionPro-Regular;font-size:10.0px;stroke:none;">Fig 3C</text>
   <text y="647.092" x="475.711,479.331,484.631,489.581,496.421,500.121,502.299,505.389,510.699,514.909,518.009,520.27,523.36,528.66,532.9599999999999,534.954,538.414,545.224,550.024" svgx:width="0.37,0.53,0.51,0.69,0.37,0.55,0.31,0.53,0.44,0.31,0.55,0.31,0.53,0.43,0.55,0.35,0.67,0.51,0.23" style="fill:rgb(0,0,0);font-family:MinionPro-Regular;font-size:10.0px;stroke:none;">shows that the (Co,</text>
   <text y="660.075" x="200.015,208.875,214.345" svgx:width="0.89,0.55,0.35" style="fill:rgb(0,0,0);font-family:MinionPro-Regular;font-size:10.0px;stroke:none;">Mn)</text>
  </g>
  <g begin="text">
   <text y="661.776" x="217.701" svgx:width="0.48" style="fill:rgb(0,0,0);font-family:MinionPro-Regular;font-size:6.67px;stroke:none;">3</text>
  </g>
  <g begin="text">
   <text y="660.076" x="221.329" svgx:width="0.75" style="fill:rgb(0,0,0);font-family:MinionPro-Regular;font-size:10.0px;stroke:none;">O</text>
  </g>
  <g begin="text">
   <text y="661.776" x="228.699" svgx:width="0.48" style="fill:rgb(0,0,0);font-family:MinionPro-Regular;font-size:6.67px;stroke:none;">4</text>
  </g>
  <g begin="text">
   <text y="660.076" x="234.538,239.979,244.288,249.719,254.708,259.999,264.309,268.118,271.219,273.879,278.048,280.559,284.789,288.489,290.323,294.633,298.214,302.514,304.724,310.523,315.323,320.123,322.242,327.691,338.001,344.882,347.441,350.531,355.831,357.901,362.301,364.477,368.768,374.027,378.997,381.658,385.858,387.891,396.042,401.031,404.842,410.022,415.322,420.362,422.872,427.962,432.872,436.722,439.022,441.24,447.4,452.7,457.0,459.098,466.758,472.648,478.818,484.498,495.721,498.391,506.551,510.88,515.491,519.7909999999999,521.799,525.42,530.72,535.67,542.55,548.05,550.146,552.816" svgx:width="0.55,0.44,0.55,0.51,0.52,0.44,0.37,0.31,0.27,0.42,0.25,0.43,0.37,0.55,0.44,0.37,0.43,0.55,0.58,0.48,0.48,0.55,0.55,0.82,0.69,0.27,0.31,0.53,0.55,0.44,0.55,0.42,0.53,0.51,0.27,0.42,0.55,0.82,0.51,0.37,0.52,0.53,0.51,0.25,0.51,0.47,0.46,0.23,0.55,0.62,0.53,0.43,0.55,0.77,0.62,0.62,0.57,0.89,0.27,0.82,0.44,0.47,0.43,0.55,0.37,0.53,0.51,0.69,0.55,0.55,0.27,0.55" style="fill:rgb(0,0,0);font-family:MinionPro-Regular;font-size:10.0px;stroke:none;">nanoparticles are ~20 nmwith a cubic morphology. The HRTEMimage shown in</text>
   <text y="660.076" x="560.407,565.527,568.197" svgx:width="0.53,0.27,0.47" style="fill:rgb(59,90,166);font-family:MinionPro-Regular;font-size:10.0px;stroke:none;">Fig</text>
   <text y="673.115" x="200.014,204.814" svgx:width="0.48,0.74" style="fill:rgb(59,90,166);font-family:MinionPro-Regular;font-size:10.0px;stroke:none;">3D</text>
   <text y="673.115" x="214.3,217.33,222.63,226.44,229.53,234.83,239.07,242.76999999999998,244.46,248.04,252.38,256.93,261.23,265.66,268.16,271.86,273.77,276.86,282.16,286.46000000000004,288.453,291.913,298.723,303.523,305.803,314.663,320.133" svgx:width="0.3,0.53,0.37,0.31,0.53,0.43,0.37,0.55,0.37,0.43,0.46,0.43,0.44,0.25,0.37,0.55,0.31,0.53,0.43,0.55,0.35,0.67,0.51,0.23,0.89,0.55,0.35" style="fill:rgb(0,0,0);font-family:MinionPro-Regular;font-size:10.0px;stroke:none;">further reveals the (Co,Mn)</text>
  </g>
  <g begin="text">
   <text y="674.759" x="323.376" svgx:width="0.48" style="fill:rgb(0,0,0);font-family:MinionPro-Regular;font-size:6.67px;stroke:none;">3</text>
  </g>
  <g begin="text">
   <text y="673.115" x="327.005" svgx:width="0.75" style="fill:rgb(0,0,0);font-family:MinionPro-Regular;font-size:10.0px;stroke:none;">O</text>
  </g>
  <g begin="text">
   <text y="674.759" x="334.375" svgx:width="0.48" style="fill:rgb(0,0,0);font-family:MinionPro-Regular;font-size:6.67px;stroke:none;">4</text>
  </g>
  <g begin="text">
   <text y="673.115" x="340.157,345.597,349.907,355.337,360.527,364.817,370.077,375.247,379.477,383.17699999999996,384.83,389.56,393.14,398.09,404.97,410.47,412.44,417.43,422.93,425.082,428.792,435.942,445.435,449.055,454.355,458.665,462.905,466.005,467.942,473.252,477.462,482.012,486.312,488.634,493.034,495.211,497.761,501.971,504.921,508.021,510.681,514.921,519.221,521.289,524.909,530.199,534.569,538.799,541.469,546.859,551.5590000000001,553.491,558.481" svgx:width="0.55,0.44,0.55,0.51,0.42,0.53,0.51,0.43,0.37,0.55,0.47,0.37,0.51,0.69,0.55,0.55,0.51,0.55,0.55,0.37,0.71,0.75,0.37,0.53,0.43,0.43,0.31,0.55,0.53,0.44,0.46,0.43,0.55,0.44,0.55,0.25,0.44,0.31,0.31,0.27,0.42,0.43,0.55,0.37,0.52,0.44,0.42,0.27,0.55,0.47,0.55,0.51,0.3" style="fill:rgb(0,0,0);font-family:MinionPro-Regular;font-size:10.0px;stroke:none;">nanocubes grown on rGOsheet have a lattice spacing of</text>
   <text y="686.097" x="200.014,204.814,207.094,211.894,216.69400000000002,218.779,224.229,232.419,234.71900000000002,236.75,243.67,248.99,251.65,255.82,261.12,263.112,267.352,272.342,276.092,279.672,283.902,287.522,292.852,297.842,303.272,308.522,312.222,314.136,320.906,325.106,327.686,330.186,332.277,335.267,340.367,342.481,345.571,350.871,355.171,357.221,360.311,365.611,369.921,374.911,378.491,382.731,385.831,388.491,392.751,397.181,399.681,401.441,404.111,409.391,412.381,416.621,420.431,425.611,428.161,432.471,437.901,442.201,444.187,447.807,453.097,457.467,461.697,464.367,469.757,474.457,476.389,481.379,484.379,486.537,490.157,495.287,497.957,503.387,507.587,510.087,512.275,515.735,522.545,527.345,529.625,538.485,543.955" svgx:width="0.48,0.23,0.48,0.48,0.55,0.55,0.82,0.23,0.55,0.69,0.53,0.27,0.42,0.53,0.55,0.42,0.51,0.37,0.37,0.43,0.37,0.52,0.51,0.55,0.53,0.37,0.55,0.69,0.43,0.25,0.25,0.55,0.31,0.51,0.55,0.31,0.53,0.43,0.55,0.31,0.53,0.43,0.51,0.37,0.43,0.31,0.27,0.42,0.44,0.25,0.55,0.27,0.55,0.31,0.43,0.37,0.52,0.25,0.44,0.55,0.43,0.55,0.37,0.52,0.44,0.42,0.27,0.55,0.47,0.55,0.51,0.3,0.55,0.37,0.52,0.27,0.55,0.43,0.25,0.55,0.35,0.67,0.51,0.23,0.89,0.55,0.35" style="fill:rgb(0,0,0);font-family:MinionPro-Regular;font-size:10.0px;stroke:none;">0.49 nm, which corresponds well to the theoretical interplane spacing of spinel (Co,Mn)</text>
  </g>
  <g begin="text">
   <text y="687.742" x="547.2" svgx:width="0.48" style="fill:rgb(0,0,0);font-family:MinionPro-Regular;font-size:6.67px;stroke:none;">3</text>
  </g>
  <g begin="text">
   <text y="686.098" x="550.828" svgx:width="0.75" style="fill:rgb(0,0,0);font-family:MinionPro-Regular;font-size:10.0px;stroke:none;">O</text>
  </g>
  <g begin="text">
   <text y="687.742" x="558.198" svgx:width="0.48" style="fill:rgb(0,0,0);font-family:MinionPro-Regular;font-size:6.67px;stroke:none;">4</text>
  </g>
  <g begin="text">
   <text y="699.08" x="200.012,203.473,208.272,213.072,217.872,221.372,223.482,228.662,231.212,235.522,240.952,245.182,248.853" svgx:width="0.35,0.48,0.48,0.48,0.35,0.55,0.52,0.25,0.44,0.55,0.43,0.37,0.23" style="fill:rgb(0,0,0);font-family:MinionPro-Regular;font-size:10.0px;stroke:none;">(111) planes.</text>
  </g>
  <path style="fill:rgb(155,154,156);stroke:none;stroke-width:1.0;" d="M576.000 414.340 L180.000 414.340 L180.000 413.840 L576.000 413.840 "/>
  <rect style="stroke:blue;stroke-width:0.3;" x="180.0" y="86.009" height="309.771" width="395.943" title="5"/>
  <text y="86.009" class="image" id="image.5.1" width="395" height="309" x="180.0">image.5.1.180_576.86_396</text>
  <g begin="text">
   <text y="401.329" x="180.0,184.912,187.16,192.04,193.833,198.249,200.489,203.13,208.458,214.202,221.669,226.085,230.997,235.877,237.599,242.927,248.255,253.615,255.344,259.76,264.672,269.088,272.168,276.584,281.0,283.664,287.943,291.023,293.271,297.271,301.686,304.35,306.598,311.51,316.422,320.822,322.525,325.189,330.932,335.844,338.092,344.756,349.668" svgx:width="0.61,0.28,0.61,0.55,0.55,0.28,0.55,0.67,0.72,0.72,0.55,0.61,0.61,0.55,0.67,0.67,0.67,0.55,0.55,0.61,0.55,0.38,0.55,0.55,0.33,0.55,0.38,0.28,0.5,0.55,0.33,0.28,0.61,0.61,0.55,0.55,0.33,0.72,0.61,0.28,0.83,0.61,0.33" style="fill:rgb(0,0,0);font-family:Helvetica-Bold;font-size:8.0px;stroke:none;">Fig 2. XRDand XPS characterizations (Co,Mn)</text>
  </g>
  <g begin="text">
   <text y="402.69" x="352.29" svgx:width="0.55" style="fill:rgb(0,0,0);font-family:Helvetica-Bold;font-size:5.33px;stroke:none;">3</text>
  </g>
  <g begin="text">
   <text y="401.329" x="355.578" svgx:width="0.78" style="fill:rgb(0,0,0);font-family:Helvetica-Bold;font-size:8.0px;stroke:none;">O</text>
  </g>
  <g begin="text">
   <text y="402.69" x="361.814" svgx:width="0.55" style="fill:rgb(0,0,0);font-family:Helvetica-Bold;font-size:5.33px;stroke:none;">4</text>
  </g>
  <g begin="text">
   <text y="401.329" x="365.102,367.35,370.43,376.678,382.926" svgx:width="0.28,0.38,0.78,0.78,0.28" style="fill:rgb(0,0,0);font-family:Helvetica-Bold;font-size:8.0px;stroke:none;">/rGO.</text>
   <text y="401.329" x="386.928,389.592,394.92,397.56,399.287,404.615,410.359,417.826,422.242,426.658,428.906,431.154,435.57,438.234,442.65,446.65,448.89,450.594,453.258,458.586,461.226,462.953,468.281,473.609,478.969,480.698,484.698,489.114,491.778,495.778,500.194,504.194,505.87,509.87,514.286,518.702,522.702,524.95,527.614,532.03,538.582,540.822,542.606,545.27,551.014,553.654,555.419,561.163,562.907,567.323,571.739" svgx:width="0.33,0.67,0.33,0.55,0.67,0.72,0.72,0.55,0.55,0.28,0.28,0.55,0.33,0.55,0.5,0.28,0.55,0.33,0.67,0.33,0.55,0.67,0.67,0.67,0.55,0.5,0.55,0.33,0.5,0.55,0.5,0.55,0.5,0.55,0.55,0.5,0.28,0.33,0.55,0.83,0.28,0.55,0.33,0.72,0.33,0.55,0.72,0.22,0.55,0.55,0.33" style="fill:rgb(0,0,0);font-family:Helvetica;font-size:8.0px;stroke:none;">(A) XRDpatterns. (B) XPS survey spectrum. (C) High-</text>
   <text y="410.853" x="180.001,182.665,187.081,191.081,195.497,197.241,201.657,203.905,205.649,210.065,214.465,216.171,221.499,226.827,232.187,233.859,237.859,242.275,246.691,250.691,252.939,255.603,260.003,261.696,266.112,268.35200000000003,270.086,275.83,280.22999999999996,281.991,286.407,290.823,293.063,294.804,297.468,303.212,305.852,307.617,313.361,315.105,319.52,323.936,326.6,329.264,333.68,337.68,342.096,343.73,348.146,350.394,352.138,356.554,360.95399999999995,362.722,368.049,373.377,378.737,380.409,384.409,388.825,393.241,397.241,399.489,402.153,406.553,408.245,412.661,414.901,416.692,423.356,427.756,429.505,433.921,438.337" svgx:width="0.33,0.55,0.5,0.55,0.22,0.55,0.28,0.22,0.55,0.55,0.55,0.67,0.67,0.67,0.55,0.5,0.55,0.55,0.5,0.28,0.33,0.55,0.55,0.55,0.28,0.55,0.72,0.55,0.55,0.55,0.55,0.28,0.55,0.33,0.72,0.33,0.55,0.72,0.22,0.55,0.55,0.33,0.33,0.55,0.5,0.55,0.22,0.55,0.28,0.22,0.55,0.55,0.55,0.67,0.67,0.67,0.55,0.5,0.55,0.55,0.5,0.28,0.33,0.55,0.55,0.55,0.28,0.55,0.83,0.55,0.55,0.55,0.55,0.28" style="fill:rgb(0,0,0);font-family:Helvetica;font-size:8.0px;stroke:none;">resolution XPS spectra of Co 2p. (D) High-resolution XPS spectra of Mn 2p.</text>
   <text y="426.33" x="180.001,184.001,188.001,189.745,191.745,195.545,199.345,201.145,204.945,208.631,212.431,216.231,218.279,219.823,223.623,227.422,229.886,233.686,237.062,238.606,240.406,244.206,248.006,251.806,255.062,256.862,260.662,264.462,268.262,272.062,275.862,279.662,283.462,285.262,289.062,292.862,296.662" svgx:width="0.5,0.5,0.22,0.25,0.5,0.5,0.25,0.5,0.5,0.5,0.5,0.28,0.22,0.5,0.5,0.33,0.5,0.45,0.22,0.25,0.5,0.5,0.5,0.45,0.25,0.5,0.5,0.5,0.5,0.5,0.5,0.5,0.25,0.5,0.5,0.5,0.5" style="fill:rgb(0,0,0);font-family:Helvetica-Condensed;font-size:8.0px;stroke:none;">doi:10.1371/journal.pone.0164657.g002</text>
  </g>
  <path style="fill:rgb(0,0,0);stroke:none;stroke-width:1.0;" d="M576.000 54.900 L36.000 54.900 L36.000 54.400 L576.000 54.400 "/>
  <rect style="stroke:blue;stroke-width:0.3;" x="36.0" y="35.043" height="23.64" width="107.093" title="5"/>
  <text y="35.043" class="image" id="image.5.2" width="107" height="23" x="36.0">image.5.2.36_143.35_59</text>
  <g begin="text">
   <text y="46.205" x="429.619,434.531,438.947,443.363,446.027,447.771,451.771,456.186,458.434,460.178,464.485,468.885,470.664,475.08,477.32,479.054,481.718,487.462,491.878,494.126,500.79,505.206" svgx:width="0.61,0.55,0.55,0.33,0.22,0.5,0.55,0.28,0.22,0.55,0.55,0.55,0.55,0.28,0.55,0.33,0.72,0.55,0.28,0.83,0.55,0.33" style="fill:rgb(0,0,0);font-family:Helvetica;font-size:8.0px;stroke:none;">Fabrication of (Co,Mn)</text>
  </g>
  <g begin="text">
   <text y="47.509" x="507.798" svgx:width="0.55" style="fill:rgb(0,0,0);font-family:Helvetica;font-size:5.33px;stroke:none;">3</text>
  </g>
  <g begin="text">
   <text y="46.205" x="511.143" svgx:width="0.78" style="fill:rgb(0,0,0);font-family:Helvetica;font-size:8.0px;stroke:none;">O</text>
  </g>
  <g begin="text">
   <text y="47.509" x="517.323" svgx:width="0.55" style="fill:rgb(0,0,0);font-family:Helvetica;font-size:5.33px;stroke:none;">4</text>
  </g>
  <g begin="text">
   <text y="46.205" x="520.668,522.916,525.58,531.828,539.773,543.773,548.189,554.853,559.269,563.685,567.685,569.429,571.677" svgx:width="0.28,0.33,0.78,0.78,0.5,0.55,0.83,0.55,0.55,0.5,0.22,0.28,0.55" style="fill:rgb(0,0,0);font-family:Helvetica;font-size:8.0px;stroke:none;">/rGOcomposite</text>
  </g>
  <path style="fill:rgb(0,0,0);stroke:none;stroke-width:1.0;" d="M36.000 744.000 L576.000 744.000 L576.000 744.500 L36.000 744.500 "/>
  <g begin="text">
   <text y="756.0" x="36.0,41.328,45.744,51.992,57.352,59.017,65.264,71.008,76.368,78.066,80.146,81.921,87.665,93.913,96.161,98.409,102.825,107.241,109.489,113.782,118.198,122.614,127.03,129.278,131.022,135.438,139.854,142.518,146.834,151.25,152.994,155.242,159.658,164.074,168.49,172.906,175.153,179.569,183.985,188.401,192.698,197.114,201.53,205.93,213.901,220.149,224.149,226.397,230.813,235.229,239.645,242.285,244.005,248.421,252.837,255.077,256.817,261.233,265.649,270.065,274.465,557.005,561.405,563.185" svgx:width="0.67,0.55,0.78,0.67,0.55,0.78,0.72,0.67,0.55,0.26,0.55,0.72,0.78,0.28,0.28,0.55,0.55,0.28,0.55,0.55,0.55,0.55,0.28,0.22,0.55,0.55,0.33,0.55,0.55,0.22,0.28,0.55,0.55,0.55,0.55,0.28,0.55,0.55,0.55,0.55,0.55,0.55,0.55,0.55,0.78,0.5,0.28,0.55,0.55,0.55,0.33,0.55,0.55,0.55,0.28,0.55,0.55,0.55,0.55,0.55,0.55,0.55,0.55,0.28" style="fill:rgb(0,0,0);font-family:Helvetica;font-size:8.0px;stroke:none;">PLOS ONE | DOI:10.1371/journal.pone.0164657 October 27, 2016 5 /</text>
  </g>
  <g begin="text">
   <text y="756.0" x="567.209,571.625" svgx:width="0.55,0.55" style="fill:rgb(0,0,0);font-family:Helvetica;font-size:8.0px;stroke:none;">11</text>
  </g>
 </g>
</svg>
