<?xml version="1.0" encoding="UTF-8"?>
<svg height="766.0" width="4046.0" xmlns="http://www.w3.org/2000/svg">
 <g id="page" xmlns:svgx="http://www.xml-cml.org/schema/svgx">
  <path style="fill:rgb(59,90,166);stroke:none;stroke-width:1.0;" d="M552.700 109.980 L563.750 109.980 Z"/>
  <path style="fill:rgb(59,90,166);stroke:none;stroke-width:1.0;" d="M221.500 119.510 L303.080 119.510 Z"/>
  <path style="fill:rgb(59,90,166);stroke:none;stroke-width:1.0;" d="M328.760 119.510 L363.970 119.510 Z"/>
  <path style="fill:rgb(59,90,166);stroke:none;stroke-width:1.0;" d="M514.150 164.520 L545.050 164.520 Z"/>
  <path style="fill:rgb(59,90,166);stroke:none;stroke-width:1.0;" d="M221.500 173.990 L255.800 173.990 Z"/>
  <path style="fill:rgb(59,90,166);stroke:none;stroke-width:1.0;" d="M281.480 173.990 L316.740 173.990 Z"/>
  <path style="fill:rgb(59,90,166);stroke:none;stroke-width:1.0;" d="M395.430 295.990 L463.800 295.990 Z"/>
  <path style="fill:rgb(59,90,166);stroke:none;stroke-width:1.0;" d="M489.540 295.990 L524.750 295.990 Z"/>
  <path style="fill:rgb(59,90,166);stroke:none;stroke-width:1.0;" d="M380.750 341.010 L467.600 341.010 Z"/>
  <path style="fill:rgb(59,90,166);stroke:none;stroke-width:1.0;" d="M493.340 341.010 L528.550 341.010 Z"/>
  <path style="fill:rgb(59,90,166);stroke:none;stroke-width:1.0;" d="M343.280 418.000 L411.140 418.000 Z"/>
  <path style="fill:rgb(59,90,166);stroke:none;stroke-width:1.0;" d="M436.820 418.000 L472.030 418.000 Z"/>
  <path style="fill:rgb(59,90,166);stroke:none;stroke-width:1.0;" d="M422.080 440.500 L514.660 440.500 Z"/>
  <path style="fill:rgb(59,90,166);stroke:none;stroke-width:1.0;" d="M540.400 440.500 L575.600 440.500 Z"/>
  <path style="fill:rgb(59,90,166);stroke:none;stroke-width:1.0;" d="M277.510 472.480 L345.880 472.480 Z"/>
  <path style="fill:rgb(59,90,166);stroke:none;stroke-width:1.0;" d="M371.570 472.480 L406.830 472.480 Z"/>
  <path style="fill:rgb(59,90,166);stroke:none;stroke-width:1.0;" d="M549.130 527.020 L560.180 527.020 Z"/>
  <path style="fill:rgb(59,90,166);stroke:none;stroke-width:1.0;" d="M221.500 536.480 L303.080 536.480 Z"/>
  <path style="fill:rgb(59,90,166);stroke:none;stroke-width:1.0;" d="M328.760 536.480 L363.970 536.480 Z"/>
  <path style="fill:rgb(59,90,166);stroke:none;stroke-width:1.0;" d="M486.820 558.990 L557.350 558.990 Z"/>
  <path style="fill:rgb(59,90,166);stroke:none;stroke-width:1.0;" d="M245.420 568.520 L280.690 568.520 Z"/>
  <g begin="text">
   <text y="85.946" x="200.012,208.628,215.252,219.248,225.872,230.492,237.116,244.484,251.108,257.732" svgx:width="0.72,0.55,0.33,0.55,0.38,0.55,0.61,0.55,0.55,0.55" style="fill:rgb(0,0,0);font-family:Helvetica-Bold;font-size:12.0px;stroke:none;">References</text>
  </g>
  <g begin="text">
   <text y="99.439" x="204.831,209.247" svgx:width="0.55,0.28" style="fill:rgb(0,0,0);font-family:Helvetica-Bold;font-size:8.0px;stroke:none;">1.</text>
   <text y="99.439" x="221.498,225.498,227.242,231.658,236.074,240.47400000000002,242.192,246.192,248.43200000000002,250.185,254.601,256.361,258.122,263.45,265.69,267.419,271.835,273.579,277.979,279.722,283.722,285.962,287.716,293.46,297.876,302.292,306.708,311.108,312.831,318.159,320.399,322.128,327.456,331.872,336.288,340.688,342.424,348.168,350.408,352.175,356.591,361.007,365.407,367.142,372.47,380.046,385.79,388.03000000000003,389.706,395.45,399.866,403.866,408.282,412.698,414.938,416.691,422.019,426.435,430.435,434.851,439.267,443.267,447.683,451.683,453.315,455.059,459.459,461.195,467.859,472.275,474.523,478.939,480.699,482.398,488.646,492.646,494.39,498.806,503.222,505.886,510.302,514.718,518.718,523.134,527.534,529.227,534.554,536.298,540.714,544.714,546.962,549.626,553.945,558.361" svgx:width="0.5,0.22,0.55,0.55,0.55,0.55,0.5,0.28,0.55,0.55,0.22,0.55,0.67,0.28,0.55,0.55,0.22,0.55,0.55,0.5,0.28,0.55,0.72,0.55,0.55,0.55,0.55,0.55,0.67,0.28,0.55,0.67,0.55,0.55,0.55,0.55,0.72,0.28,0.55,0.55,0.55,0.55,0.55,0.67,0.95,0.72,0.28,0.55,0.72,0.55,0.5,0.55,0.55,0.28,0.55,0.67,0.55,0.5,0.55,0.55,0.5,0.55,0.5,0.55,0.22,0.55,0.55,0.83,0.55,0.28,0.55,0.22,0.55,0.78,0.5,0.22,0.55,0.55,0.33,0.55,0.55,0.5,0.55,0.55,0.55,0.67,0.22,0.55,0.5,0.28,0.33,0.55,0.55,0.55" style="fill:rgb(0,0,0);font-family:Helvetica;font-size:8.0px;stroke:none;">Jiang J, Li Y, Liu J, Huang X, Yuan C, Lou XWD. Recent Advances in Metal Oxide-based Electrode</text>
   <text y="108.906" x="221.498,226.826,229.49,233.49,237.906,239.65,241.898,246.314,250.314,252.562,256.875,259.539,263.93899999999996,265.719,271.463,275.878,279.878,281.622,286.038,290.438,292.137,294.385,298.801,301.441,303.193,308.52,310.264,314.68,318.68,320.928,323.592,328.008,332.008,336.424,340.723,347.387,349.131,353.131,357.547,359.307,361.019,366.347,370.763,375.179,377.843,382.259,386.259,387.948,393.276,395.524,399.94,402.604,407.02,411.436,415.852,418.092,419.809,425.137,429.553,433.553,435.793,437.497,444.161,448.577,450.825,455.241,457.905,460.145,461.875,466.291,470.707,475.123,479.539,481.779,483.475,487.891,492.307,494.555,498.971,503.387,507.803,512.105,516.521,520.937,525.353,529.769,534.185,536.425,538.127,542.543,546.959,548.703" svgx:width="0.67,0.33,0.5,0.55,0.22,0.28,0.55,0.5,0.28,0.55,0.33,0.55,0.55,0.72,0.55,0.5,0.22,0.55,0.55,0.55,0.28,0.55,0.33,0.55,0.67,0.22,0.55,0.5,0.28,0.33,0.55,0.5,0.55,0.55,0.83,0.22,0.5,0.55,0.22,0.55,0.67,0.55,0.55,0.33,0.55,0.5,0.55,0.67,0.28,0.55,0.33,0.55,0.55,0.55,0.28,0.55,0.67,0.55,0.5,0.28,0.55,0.83,0.55,0.28,0.55,0.33,0.28,0.55,0.55,0.55,0.55,0.55,0.28,0.55,0.55,0.55,0.28,0.55,0.55,0.55,0.55,0.55,0.55,0.55,0.55,0.55,0.28,0.55,0.55,0.55,0.22,0.28" style="fill:rgb(0,0,0);font-family:Helvetica;font-size:8.0px;stroke:none;">Architecture Design for Electrochemical Energy Storage. Adv. Mater. 2012; 24:5166–5180. doi:</text>
   <text y="108.906" x="552.697,557.113,561.529" svgx:width="0.55,0.55,0.28" style="fill:rgb(59,90,166);font-family:Helvetica;font-size:8.0px;stroke:none;">10.</text>
   <text y="118.431" x="221.498,225.914,230.33,234.746,239.162,241.41,245.826,250.242,256.906,261.183,263.431,267.847,272.263,276.679,281.095,285.511,289.927,294.343,298.759" svgx:width="0.55,0.55,0.55,0.55,0.28,0.55,0.55,0.83,0.55,0.28,0.55,0.55,0.55,0.55,0.55,0.55,0.55,0.55,0.55" style="fill:rgb(59,90,166);font-family:Helvetica;font-size:8.0px;stroke:none;">1002/adma.201202146</text>
   <text y="118.431" x="304.837,310.164,316.828,319.076,324.82" svgx:width="0.67,0.83,0.28,0.72,0.28" style="fill:rgb(0,0,0);font-family:Helvetica;font-size:8.0px;stroke:none;">PMID:</text>
   <text y="118.431" x="328.761,333.177,337.593,342.009,346.425,350.841,355.257,359.673" svgx:width="0.55,0.55,0.55,0.55,0.55,0.55,0.55,0.55" style="fill:rgb(59,90,166);font-family:Helvetica;font-size:8.0px;stroke:none;">22912066</text>
   <text y="131.413" x="204.831,209.247" svgx:width="0.55,0.28" style="fill:rgb(0,0,0);font-family:Helvetica-Bold;font-size:8.0px;stroke:none;">2.</text>
   <text y="131.413" x="221.498,226.826,229.49,233.906,237.906,242.306,244.005,249.333,255.581,257.82099999999997,259.596,264.508,267.172,271.588,276.004,280.42,284.836,289.133,291.797,296.213,300.629,303.269,305.007,310.335,315.663,317.903,319.69,325.434,329.85,332.514,336.93,342.674,344.418,348.32,352.32,354.046,358.462,362.462,364.702,366.461,371.373,375.789,378.453,382.869,386.869,390.869,395.285,399.685,401.384,405.384,407.624,409.378,413.794,415.538,418.202" svgx:width="0.67,0.33,0.55,0.5,0.55,0.55,0.67,0.78,0.28,0.55,0.61,0.33,0.55,0.55,0.55,0.55,0.55,0.33,0.55,0.55,0.33,0.55,0.67,0.67,0.28,0.55,0.72,0.55,0.33,0.55,0.72,0.22,0.5,0.5,0.55,0.55,0.5,0.28,0.55,0.61,0.55,0.33,0.55,0.5,0.5,0.55,0.55,0.55,0.5,0.28,0.55,0.55,0.22,0.33,0.78" style="fill:rgb(0,0,0);font-family:Helvetica;font-size:8.0px;stroke:none;">Bruce PG, Freunberger SA, Hardwick LJ, Tarascon J. Li-O</text>
  </g>
  <g begin="text">
   <text y="132.775" x="424.403" svgx:width="0.55" style="fill:rgb(0,0,0);font-family:Helvetica;font-size:5.33px;stroke:none;">2</text>
  </g>
  <g begin="text">
   <text y="131.414" x="429.449,433.865,438.281,442.681,444.415,448.831,450.575,453.239,458.599,460.289,465.617,470.033,472.281,474.529,478.945,481.609,483.353,487.769,491.769,493.454,499.198,500.942,503.19,507.59,509.385,515.129,516.873,521.289,525.689,527.413,532.741,537.157,541.573,544.237,548.653,552.653,554.342,559.67,561.918,566.334,568.998" svgx:width="0.55,0.55,0.55,0.55,0.55,0.22,0.33,0.67,0.55,0.67,0.55,0.28,0.28,0.55,0.33,0.22,0.55,0.5,0.55,0.72,0.22,0.28,0.55,0.55,0.72,0.22,0.55,0.55,0.55,0.67,0.55,0.55,0.33,0.55,0.5,0.55,0.67,0.28,0.55,0.33,0.33" style="fill:rgb(0,0,0);font-family:Helvetica;font-size:8.0px;stroke:none;">and Li-S Batteries with High Energy Stor-</text>
   <text y="140.938" x="221.5,225.916,230.332,234.748,236.988,238.735,244.479,248.895,251.143,253.383,255.119,261.783,266.199,268.447,272.863,275.527,277.767,279.44,283.856,288.272,292.688,297.104,299.344,301.04,305.456,309.872,312.12,316.536,320.952,325.368,329.784,334.2" svgx:width="0.55,0.55,0.55,0.28,0.55,0.72,0.55,0.28,0.28,0.55,0.83,0.55,0.28,0.55,0.33,0.28,0.55,0.55,0.55,0.55,0.55,0.28,0.55,0.55,0.55,0.28,0.55,0.55,0.55,0.55,0.55,0.28" style="fill:rgb(0,0,0);font-family:Helvetica;font-size:8.0px;stroke:none;">age. Nat. mater. 2012; 11:19–29.</text>
   <text y="153.921" x="204.833,209.249" svgx:width="0.55,0.28" style="fill:rgb(0,0,0);font-family:Helvetica-Bold;font-size:8.0px;stroke:none;">3.</text>
   <text y="153.921" x="221.5,226.828,231.244,235.66,240.06,241.797,246.213,248.453,250.187,254.603,256.363,258.124,263.868,266.108,267.819,273.563,277.563,281.979,286.395,290.395,294.81,297.45,299.17,304.498,306.738,308.467,313.379,317.795,322.211,326.627,331.027,332.732,338.06,340.3,342.086,347.83,352.246,356.64599999999996,358.357,364.605,366.845,368.618,374.866,379.282,383.698,388.114,390.778,395.194,396.954,398.608,403.936,406.184,408.848,413.264,415.512,419.928,424.344,428.344,430.015,432.263,436.679,439.31899999999996,441.07,446.814,451.23,455.23,456.974,461.39,465.806,467.55,471.966,476.366,478.091,483.835,488.25,490.914,495.33,499.746,504.963,509.379,513.795,515.539,517.299,519.023,524.767,529.183,533.599,538.015,542.015,544.263,546.927,551.342,555.342,557.59,561.882,564.546,568.962" svgx:width="0.67,0.55,0.55,0.55,0.55,0.55,0.28,0.55,0.55,0.22,0.55,0.72,0.28,0.55,0.72,0.5,0.55,0.55,0.5,0.55,0.33,0.55,0.67,0.28,0.55,0.61,0.55,0.55,0.55,0.55,0.55,0.67,0.28,0.55,0.72,0.55,0.55,0.55,0.78,0.28,0.55,0.78,0.55,0.55,0.55,0.33,0.55,0.22,0.55,0.67,0.28,0.33,0.55,0.28,0.55,0.55,0.5,0.55,0.28,0.55,0.33,0.55,0.72,0.55,0.5,0.22,0.55,0.55,0.22,0.55,0.55,0.55,0.72,0.55,0.33,0.55,0.55,0.67,0.55,0.55,0.22,0.22,0.55,0.72,0.55,0.55,0.55,0.5,0.28,0.33,0.55,0.5,0.28,0.55,0.33,0.55,0.55" style="fill:rgb(0,0,0);font-family:Helvetica;font-size:8.0px;stroke:none;">Shen L, Li H, Uchaker E, Zhang X, Cao G. General Strategy for Designing Core–Shell Nanostructured</text>
   <text y="163.445" x="221.5,228.164,232.58,234.828,239.244,241.908,243.652,248.068,249.812,253.812,255.516,257.764,262.18,264.82,266.571,272.315,274.059,278.475,282.891,285.555,290.883,295.201,300.945,305.361,308.001,309.771,314.187,315.931,318.179,322.595,324.339,328.755,337.097,339.345,343.761,348.161,349.91,355.238,359.654,361.902,364.15,368.566,371.23,372.974,377.389,381.389,383.629,385.342,391.086,395.502,399.918,404.318,406.035,410.451,414.867,417.115,419.363,421.603,423.326,427.742,432.158,436.574,440.99,443.23,444.925,449.341,453.757,456.005,460.421,464.837,469.253,473.669,477.977,482.393,486.809,491.225,495.641,497.88100000000003,499.578,503.993,508.409,510.153" svgx:width="0.83,0.55,0.28,0.55,0.33,0.22,0.55,0.22,0.5,0.55,0.28,0.55,0.33,0.55,0.72,0.22,0.55,0.55,0.33,0.67,0.55,0.72,0.55,0.33,0.55,0.55,0.22,0.28,0.55,0.22,0.55,0.83,0.28,0.55,0.55,0.55,0.67,0.55,0.28,0.28,0.55,0.33,0.22,0.55,0.5,0.28,0.55,0.72,0.55,0.55,0.55,0.55,0.55,0.55,0.28,0.28,0.28,0.55,0.55,0.55,0.55,0.55,0.28,0.55,0.55,0.55,0.28,0.55,0.55,0.55,0.55,0.55,0.55,0.55,0.55,0.55,0.28,0.55,0.55,0.55,0.22,0.28" style="fill:rgb(0,0,0);font-family:Helvetica;font-size:8.0px;stroke:none;">Materials for High-Power LithiumIon Batteries. Nano Lett. 2012; 12:5673–5678. doi:</text>
   <text y="163.445" x="514.147,518.563,522.979,525.227,529.643,534.059,538.475,542.891" svgx:width="0.55,0.55,0.28,0.55,0.55,0.55,0.55,0.28" style="fill:rgb(59,90,166);font-family:Helvetica;font-size:8.0px;stroke:none;">10.1021/</text>
   <text y="172.913" x="221.5,225.916,227.66,232.076,236.492,240.908,245.324,249.74,254.042" svgx:width="0.55,0.22,0.55,0.55,0.55,0.55,0.55,0.55,0.22" style="fill:rgb(59,90,166);font-family:Helvetica;font-size:8.0px;stroke:none;">nl302854j</text>
   <text y="172.913" x="257.557,262.885,269.549,271.797,277.541" svgx:width="0.67,0.83,0.28,0.72,0.28" style="fill:rgb(0,0,0);font-family:Helvetica;font-size:8.0px;stroke:none;">PMID:</text>
   <text y="172.913" x="281.481,285.897,290.313,294.729,299.145,303.561,307.977,312.393" svgx:width="0.55,0.55,0.55,0.55,0.55,0.55,0.55,0.55" style="fill:rgb(59,90,166);font-family:Helvetica;font-size:8.0px;stroke:none;">23092272</text>
   <text y="185.895" x="204.833,209.249" svgx:width="0.55,0.28" style="fill:rgb(0,0,0);font-family:Helvetica-Bold;font-size:8.0px;stroke:none;">4.</text>
   <text y="185.895" x="221.5,226.828,231.244,235.66,240.06,241.797,246.213,248.453,250.187,255.099,259.515,263.931,268.347,272.74699999999996,274.452,279.779,282.019,283.806,289.55,293.55,297.966,302.382,306.382,310.678,313.318,315.1,320.428,322.668,324.454,329.782,334.198,338.614,343.01399999999995,344.694,350.438,352.678,354.445,360.189,364.605,369.005,370.772,377.02,379.26,380.977,385.393" svgx:width="0.67,0.55,0.55,0.55,0.55,0.55,0.28,0.55,0.61,0.55,0.55,0.55,0.55,0.55,0.67,0.28,0.55,0.72,0.5,0.55,0.55,0.5,0.55,0.33,0.55,0.67,0.28,0.55,0.67,0.55,0.55,0.55,0.55,0.72,0.28,0.55,0.72,0.55,0.55,0.55,0.78,0.28,0.55,0.55,0.22" style="fill:rgb(0,0,0);font-family:Helvetica;font-size:8.0px;stroke:none;">Shen L, Zhang X, Uchaker E, Yuan C, Cao G. Li</text>
  </g>
  <g begin="text">
   <text y="187.257" x="387.156" svgx:width="0.55" style="fill:rgb(0,0,0);font-family:Helvetica;font-size:5.33px;stroke:none;">4</text>
  </g>
  <g begin="text">
   <text y="185.896" x="390.444,395.356" svgx:width="0.61,0.22" style="fill:rgb(0,0,0);font-family:Helvetica;font-size:8.0px;stroke:none;">Ti</text>
  </g>
  <g begin="text">
   <text y="187.257" x="397.077" svgx:width="0.55" style="fill:rgb(0,0,0);font-family:Helvetica;font-size:5.33px;stroke:none;">5</text>
  </g>
  <g begin="text">
   <text y="185.896" x="400.365" svgx:width="0.78" style="fill:rgb(0,0,0);font-family:Helvetica;font-size:8.0px;stroke:none;">O</text>
  </g>
  <g begin="text">
   <text y="187.257" x="406.602,409.913" svgx:width="0.55,0.55" style="fill:rgb(0,0,0);font-family:Helvetica;font-size:5.33px;stroke:none;">12</text>
  </g>
  <g begin="text">
   <text y="185.896" x="414.992,420.736,425.152,429.568,433.984,438.4,442.816,445.48,447.728,449.472,453.372,455.116,459.532,463.532,465.278,470.606,477.27,481.686,486.102,490.518,494.934,499.237,503.637,505.417,507.161,511.561,513.296,517.696,519.476,526.14,530.556,534.556,538.972,543.388,547.804,550.468,554.884,559.3" svgx:width="0.72,0.55,0.55,0.55,0.55,0.55,0.33,0.28,0.22,0.5,0.22,0.55,0.5,0.55,0.67,0.83,0.55,0.55,0.55,0.55,0.55,0.55,0.55,0.22,0.55,0.55,0.55,0.55,0.83,0.55,0.5,0.55,0.55,0.55,0.33,0.55,0.55,0.5" style="fill:rgb(0,0,0);font-family:Helvetica;font-size:8.0px;stroke:none;">Nanoparticles Embedded in a Mesoporous</text>
   <text y="195.42" x="221.5,227.244,231.66,234.324,238.74,243.156,247.556,249.28,255.944,260.36,262.608,265.272,267.016,271.016,272.694,277.11,281.11,282.842,287.24199999999996,289.022,294.35,298.766,303.181,307.597,310.261,312.005,316.421,319.061,320.769,326.097,330.513,334.929,339.345,343.745,345.431,352.094,356.51,358.758,363.174,365.838,367.582,371.998,373.758,375.477,377.725,382.141,384.781,386.532,392.276,394.02,398.436,402.83599999999996,404.561,410.305,414.721,416.969,421.36899999999997,423.098,427.514,429.258,431.506,435.922,437.666,442.082,450.424,452.672,457.088,461.488,463.237,468.565,472.981,475.229,477.477,481.893,484.557,486.301,490.717,494.717,496.957,498.67,503.998,508.414,512.414,514.654,516.358,521.686,526.102,530.518,533.182,537.598,541.598,543.287,549.951,554.367,556.615,561.031,563.695" svgx:width="0.72,0.55,0.33,0.55,0.55,0.55,0.55,0.83,0.55,0.28,0.33,0.22,0.5,0.55,0.55,0.5,0.55,0.55,0.55,0.67,0.55,0.55,0.55,0.33,0.22,0.55,0.33,0.55,0.67,0.55,0.55,0.55,0.55,0.55,0.83,0.55,0.28,0.55,0.33,0.22,0.55,0.22,0.55,0.28,0.55,0.33,0.55,0.72,0.22,0.55,0.55,0.55,0.72,0.55,0.28,0.55,0.55,0.55,0.22,0.28,0.55,0.22,0.55,0.83,0.28,0.55,0.55,0.55,0.67,0.55,0.28,0.28,0.55,0.33,0.22,0.55,0.5,0.28,0.55,0.67,0.55,0.5,0.28,0.55,0.67,0.55,0.55,0.33,0.55,0.5,0.55,0.83,0.55,0.28,0.55,0.33,0.28" style="fill:rgb(0,0,0);font-family:Helvetica;font-size:8.0px;stroke:none;">Carbon Matrix as a Superior Anode Material for High Rate LithiumIon Batteries. Adv. Energy Mater.</text>
   <text y="204.945" x="221.5,225.916,230.332,234.748,239.164,241.404,243.101,247.517,249.765,254.18,258.596,263.012,267.428,271.844,276.152,280.568" svgx:width="0.55,0.55,0.55,0.55,0.28,0.55,0.55,0.28,0.55,0.55,0.55,0.55,0.55,0.55,0.55,0.28" style="fill:rgb(0,0,0);font-family:Helvetica;font-size:8.0px;stroke:none;">2012; 2:691–698.</text>
   <text y="217.927" x="204.833,209.249" svgx:width="0.55,0.28" style="fill:rgb(0,0,0);font-family:Helvetica-Bold;font-size:8.0px;stroke:none;">5.</text>
   <text y="217.927" x="221.5,226.828,231.244,235.66,240.06,241.797,246.213,248.453,250.187,255.931,260.347,264.74699999999996,266.515,272.763,275.003,276.719,281.135,282.895,284.599,290.343,292.583,294.35,299.262,303.678,308.094,312.51,316.90999999999997,318.615,323.943,326.183,327.969,334.633,339.049,343.049,347.465,351.881,356.297,358.961,363.232,367.648,371.648,373.38,379.124,380.868,386.612" svgx:width="0.67,0.55,0.55,0.55,0.55,0.55,0.28,0.55,0.72,0.55,0.55,0.55,0.78,0.28,0.55,0.55,0.22,0.55,0.72,0.28,0.55,0.61,0.55,0.55,0.55,0.55,0.55,0.67,0.28,0.55,0.83,0.55,0.5,0.55,0.55,0.55,0.33,0.55,0.55,0.5,0.55,0.72,0.22,0.72,0.55" style="fill:rgb(0,0,0);font-family:Helvetica;font-size:8.0px;stroke:none;">Shen L, Che Q, Li H, Zhang X. Mesoporous NiCo</text>
  </g>
  <g begin="text">
   <text y="219.232" x="391.011" svgx:width="0.55" style="fill:rgb(0,0,0);font-family:Helvetica;font-size:5.33px;stroke:none;">2</text>
  </g>
  <g begin="text">
   <text y="217.928" x="394.356" svgx:width="0.78" style="fill:rgb(0,0,0);font-family:Helvetica;font-size:8.0px;stroke:none;">O</text>
  </g>
  <g begin="text">
   <text y="219.232" x="400.535" svgx:width="0.55" style="fill:rgb(0,0,0);font-family:Helvetica;font-size:5.33px;stroke:none;">4</text>
  </g>
  <g begin="text">
   <text y="217.928" x="405.638,411.382,415.798,420.214,424.629,430.373,432.117,434.781,439.181,440.844,446.172,448.836,451.5,455.915,459.915,463.915,465.618,471.866,474.53,478.946,484.69,489.09,490.846,495.262,499.662,501.391,507.135,511.551,514.215,518.631,523.047,527.447,529.171,534.083,538.498,542.498,544.746,546.49,548.234,552.65,556.65,558.311,562.727" svgx:width="0.72,0.55,0.55,0.55,0.72,0.22,0.33,0.55,0.55,0.67,0.33,0.33,0.55,0.5,0.5,0.55,0.78,0.33,0.55,0.72,0.55,0.55,0.55,0.55,0.55,0.72,0.55,0.33,0.55,0.55,0.55,0.55,0.61,0.55,0.5,0.28,0.22,0.22,0.55,0.5,0.55,0.55,0.5" style="fill:rgb(0,0,0);font-family:Helvetica;font-size:8.0px;stroke:none;">Nanowire Arrays Grown on Carbon Textiles as</text>
   <text y="227.395" x="221.5,226.828,228.572,232.988,237.404,241.82,244.484,247.148,252.06,254.724,259.031,263.431,265.211,270.123,271.867,276.283,280.282,282.026,286.442,288.186,292.58599999999996,294.294,299.621,301.365,305.781,309.781,312.029,314.693,319.109,323.525,327.941,331.941,333.582,335.83,340.246,342.88599999999997,344.694,350.022,354.438,358.853,361.517,365.933,369.933,371.622,376.95,379.198,383.614,386.278,390.694,395.11,399.526,401.766,403.427,408.755,413.171,417.171,419.411,421.114,426.026,430.442,434.858,438.858,441.106,443.346,445.096,451.76,456.175,458.423,462.839,465.503,467.743,469.417,473.833,478.249,482.665,487.081,489.321,491.073,495.489,499.905,502.153,506.569,510.985,515.281,519.697,524.113,528.529,532.945,537.361,541.777" svgx:width="0.67,0.22,0.55,0.55,0.55,0.33,0.33,0.61,0.33,0.55,0.55,0.55,0.61,0.22,0.55,0.5,0.22,0.55,0.22,0.55,0.55,0.67,0.22,0.55,0.5,0.28,0.33,0.55,0.55,0.55,0.5,0.55,0.28,0.55,0.33,0.55,0.67,0.55,0.55,0.33,0.55,0.5,0.55,0.67,0.28,0.55,0.33,0.55,0.55,0.55,0.28,0.55,0.67,0.55,0.5,0.28,0.55,0.61,0.55,0.55,0.5,0.28,0.28,0.55,0.83,0.55,0.28,0.55,0.33,0.28,0.55,0.55,0.55,0.55,0.55,0.28,0.55,0.55,0.55,0.28,0.55,0.55,0.55,0.55,0.55,0.55,0.55,0.55,0.55,0.28" style="fill:rgb(0,0,0);font-family:Helvetica;font-size:8.0px;stroke:none;">Binder-Free Flexible Electrodes for Energy Storage. Adv. Funct. Mater. 2014; 24:2630–2637.</text>
   <text y="240.435" x="204.833,209.249" svgx:width="0.55,0.28" style="fill:rgb(0,0,0);font-family:Helvetica-Bold;font-size:8.0px;stroke:none;">6.</text>
   <text y="240.435" x="221.5,229.076,233.476,235.22,240.964,243.204,244.971,250.715,255.131,256.891,258.577,263.905,266.145,267.931,273.675,278.091,282.091,283.835,288.251,292.667,294.411,298.716,303.116,304.895,309.311,313.727,318.143,322.559,326.559,328.807,331.471,335.887,339.761,342.009,346.425,349.089,353.505,357.905,359.661,364.989,366.74899999999997,368.505,372.921,377.336,381.752,386.168,390.584,394.584,396.227,398.475,402.891,405.531,407.282,411.698,413.442,417.858,422.258,424.005,428.421,432.837,437.253,439.917,444.333,448.333,450.028,451.772,453.516,455.763,460.179,461.923,466.339,474.689,476.433,480.849,485.24899999999997,487.048,491.464,495.88,498.128,500.376,504.792,507.456,509.2,513.616,517.492,519.732,521.517,527.261,531.677,536.093,540.4929999999999,542.21,547.122,551.537,555.953,560.369" svgx:width="0.95,0.55,0.55,0.72,0.28,0.55,0.72,0.55,0.22,0.55,0.67,0.28,0.55,0.72,0.55,0.5,0.22,0.55,0.55,0.22,0.55,0.55,0.55,0.55,0.55,0.55,0.55,0.5,0.28,0.33,0.55,0.5,0.28,0.55,0.33,0.55,0.55,0.55,0.67,0.22,0.55,0.55,0.55,0.55,0.55,0.55,0.5,0.55,0.28,0.55,0.33,0.55,0.55,0.22,0.55,0.55,0.55,0.55,0.55,0.55,0.33,0.55,0.5,0.55,0.22,0.22,0.28,0.55,0.22,0.55,0.83,0.22,0.55,0.55,0.55,0.55,0.55,0.28,0.28,0.55,0.33,0.22,0.55,0.5,0.28,0.55,0.72,0.55,0.55,0.55,0.55,0.61,0.55,0.55,0.55,0.5" style="fill:rgb(0,0,0);font-family:Helvetica;font-size:8.0px;stroke:none;">Wu H, Cui Y, Designing nanostructured Si anodes for high energy lithiumion batteries. Nano Today</text>
   <text y="249.902" x="221.5,225.916,230.332,234.748,239.164,241.404,243.101,247.517,249.764,254.18,258.596,263.012,267.428,271.844,276.152,280.568" svgx:width="0.55,0.55,0.55,0.55,0.28,0.55,0.55,0.28,0.55,0.55,0.55,0.55,0.55,0.55,0.55,0.28" style="fill:rgb(0,0,0);font-family:Helvetica;font-size:8.0px;stroke:none;">2012; 7:414–429.</text>
   <text y="262.941" x="204.833,209.249" svgx:width="0.55,0.28" style="fill:rgb(0,0,0);font-family:Helvetica-Bold;font-size:8.0px;stroke:none;">7.</text>
   <text y="262.941" x="221.5,225.5,229.916,233.916,236.156,237.885,243.213,245.453,247.182,252.51,256.926,259.59,264.006,268.006,269.746,275.49,281.234,283.474,285.166,291.83,295.83,301.574,305.99,310.406,314.822,319.238,323.548,327.948,329.727,333.727,339.055,341.295,343.05,348.378,351.042,355.458,359.458,363.457,367.873,370.513,372.189,377.517,379.757,381.544,387.288,391.704,396.119,400.519,402.236,408.9,411.14,412.894,418.638,420.382,424.797,429.197,430.922,437.17,439.41,441.127,447.375,451.791,456.207,460.623,462.871,466.871,468.631,470.323,475.651,477.891,479.622,485.366,489.781,492.445,496.861,501.277,505.67699999999996,507.4,513.144,517.56,521.976,524.224,528.64,533.04,534.727,539.638,544.054,548.054,550.302,552.046,553.79,558.206,562.206,563.923,566.171,570.587" svgx:width="0.5,0.55,0.5,0.28,0.55,0.67,0.28,0.55,0.67,0.55,0.33,0.55,0.5,0.55,0.72,0.72,0.28,0.55,0.83,0.5,0.72,0.55,0.55,0.55,0.55,0.55,0.55,0.55,0.5,0.67,0.28,0.55,0.67,0.33,0.55,0.5,0.5,0.55,0.33,0.55,0.67,0.28,0.55,0.72,0.55,0.55,0.55,0.55,0.83,0.28,0.55,0.72,0.22,0.55,0.55,0.55,0.78,0.28,0.55,0.78,0.55,0.55,0.55,0.28,0.5,0.22,0.55,0.67,0.28,0.55,0.72,0.55,0.33,0.55,0.55,0.55,0.55,0.72,0.55,0.55,0.28,0.55,0.55,0.55,0.61,0.55,0.5,0.28,0.22,0.22,0.55,0.5,0.55,0.28,0.55,0.33" style="fill:rgb(0,0,0);font-family:Helvetica;font-size:8.0px;stroke:none;">Jost K, Perez CR, McDonough JK, Presser V, Heon M, Dion G, Gogotsi Y. Carbon Coated Textiles for</text>
   <text y="272.409" x="221.5,226.412,228.156,232.572,236.572,238.316,242.732,244.476,248.876,250.584,255.912,260.328,264.744,267.408,271.823,275.823,277.513,282.841,285.089,289.505,292.169,296.585,301.001,305.417,307.657,309.374,314.702,319.118,323.534,326.198,330.614,334.614,336.303,341.631,346.047,350.047,351.791,354.455,358.871,363.175,365.415,367.201,372.529,376.529,378.273,380.51300000000003,382.224,386.64,391.056,395.472,399.888,402.128,403.881,408.297,410.545,414.961,419.377,423.793,428.209,432.509,436.925,441.341,445.757,450.173" svgx:width="0.61,0.22,0.55,0.5,0.22,0.55,0.22,0.55,0.55,0.67,0.55,0.55,0.33,0.55,0.5,0.55,0.67,0.28,0.55,0.33,0.55,0.55,0.55,0.28,0.55,0.67,0.55,0.55,0.33,0.55,0.5,0.55,0.67,0.55,0.5,0.22,0.33,0.55,0.55,0.28,0.55,0.67,0.5,0.22,0.28,0.55,0.55,0.55,0.55,0.55,0.28,0.55,0.55,0.28,0.55,0.55,0.55,0.55,0.55,0.55,0.55,0.55,0.55,0.28" style="fill:rgb(0,0,0);font-family:Helvetica;font-size:8.0px;stroke:none;">Flexible Energy Storage. Energy Environ. Sci. 2011; 4:5060–5067.</text>
   <text y="285.392" x="204.833,209.249" svgx:width="0.55,0.28" style="fill:rgb(0,0,0);font-family:Helvetica-Bold;font-size:8.0px;stroke:none;">8.</text>
   <text y="285.392" x="221.5,227.244,231.66,236.076,240.492,244.492,246.161,252.825,258.153,260.39300000000003,262.149,267.477,271.893,276.309,280.725,285.125,286.867,292.611,297.027,301.42699999999996,303.138,309.386,314.714,316.954,318.672,324.416,328.832,333.247,338.991,343.407,347.823,350.487,352.247,353.934,359.262,364.59,370.334,372.574,374.287,380.951,385.367,387.615,392.031,393.791,395.49,401.738,405.738,407.482,411.898,416.314,420.314,422.022,426.438,430.853,435.253,436.989,443.237,447.236,451.236,455.236,459.652,461.396,463.644,467.644,469.303,473.719,477.719,479.451,484.779,489.195,493.611,498.027,502.42699999999996,504.113,510.776,515.192,517.44,521.856,524.52,526.264,530.68,532.424,536.424,538.128,540.376,544.792,547.432,549.183,553.599,555.359,557.12,559.368,563.784" svgx:width="0.72,0.55,0.55,0.55,0.5,0.55,0.83,0.67,0.28,0.55,0.67,0.55,0.55,0.55,0.55,0.55,0.72,0.55,0.55,0.55,0.78,0.67,0.28,0.55,0.72,0.55,0.55,0.72,0.55,0.55,0.33,0.22,0.55,0.67,0.67,0.72,0.28,0.55,0.83,0.55,0.28,0.55,0.22,0.55,0.78,0.5,0.22,0.55,0.55,0.5,0.55,0.55,0.55,0.55,0.55,0.78,0.5,0.5,0.5,0.55,0.22,0.28,0.5,0.55,0.55,0.5,0.55,0.67,0.55,0.55,0.55,0.55,0.55,0.83,0.55,0.28,0.55,0.33,0.22,0.55,0.22,0.5,0.55,0.28,0.55,0.33,0.55,0.55,0.22,0.55,0.28,0.55,0.55" style="fill:rgb(0,0,0);font-family:Helvetica;font-size:8.0px;stroke:none;">Reddy MV, Subba Rao GV, Chowdari BVR. Metal Oxides and Oxysalts as Anode Materials for Li Ion</text>
   <text y="294.915" x="221.5,226.828,231.244,233.492,235.74,240.156,242.82,244.564,248.98,252.98,255.22,256.876,262.62,267.036,271.452,278.116,280.356,282.105,287.849,292.265,296.265,298.505,300.19,304.605,309.021,313.437,317.853,320.093,321.847,326.263,330.679,335.095,337.343,341.759,346.175,350.476,354.892,359.308,363.724,368.14,372.556,376.972,379.212,380.921,385.336,389.752,391.496" svgx:width="0.67,0.55,0.28,0.28,0.55,0.33,0.22,0.55,0.5,0.28,0.55,0.72,0.55,0.55,0.83,0.28,0.55,0.72,0.55,0.5,0.28,0.55,0.55,0.55,0.55,0.55,0.28,0.55,0.55,0.55,0.55,0.28,0.55,0.55,0.55,0.55,0.55,0.55,0.55,0.55,0.55,0.28,0.55,0.55,0.55,0.22,0.28" style="fill:rgb(0,0,0);font-family:Helvetica;font-size:8.0px;stroke:none;">Batteries. Chem. Rev. 2013; 113:5364–5457. doi:</text>
   <text y="294.915" x="395.433,399.849,404.265,406.513,410.929,415.345,419.761,424.177,426.425,430.425,433.089,437.385,441.801,446.217,450.633,455.049,459.465" svgx:width="0.55,0.55,0.28,0.55,0.55,0.55,0.55,0.28,0.5,0.33,0.55,0.55,0.55,0.55,0.55,0.55,0.55" style="fill:rgb(59,90,166);font-family:Helvetica;font-size:8.0px;stroke:none;">10.1021/cr3001884</text>
   <text y="294.915" x="465.562,470.89,477.554,479.802,485.546" svgx:width="0.67,0.83,0.28,0.72,0.28" style="fill:rgb(0,0,0);font-family:Helvetica;font-size:8.0px;stroke:none;">PMID:</text>
   <text y="294.915" x="489.542,493.958,498.374,502.79,507.206,511.622,516.038,520.327" svgx:width="0.55,0.55,0.55,0.55,0.55,0.55,0.55,0.55" style="fill:rgb(59,90,166);font-family:Helvetica;font-size:8.0px;stroke:none;">23548181</text>
   <text y="307.898" x="204.833,209.249" svgx:width="0.55,0.28" style="fill:rgb(0,0,0);font-family:Helvetica-Bold;font-size:8.0px;stroke:none;">9.</text>
   <text y="307.898" x="221.5,226.828,231.244,235.66,240.076,244.492,246.236,248.484,252.88400000000001,254.553,259.88,266.128,268.368,270.143,275.887,280.303,282.047,283.791,288.206,292.622,296.622,300.927,307.591,311.991,313.74,319.068,323.98,326.22,327.969,333.713,338.129,340.793,345.209,349.625,354.025,355.749,361.077,363.741,368.157,372.573,376.989,379.653,381.901,383.644,387.95,391.95,393.732,398.148,402.564,406.964,408.699,413.611,418.026,422.442,424.186,426.82599999999996,428.542,434.285,438.701,440.445,444.84499999999997,446.569,448.313,452.71299999999997,454.507,459.835,464.251,468.667,473.083,475.747,479.746,484.162,488.466,492.882,496.881,498.625,500.873,505.289,507.953,511.953,514.193,515.904,519.904,522.144,523.898,529.226,533.642,539.386,543.802" svgx:width="0.67,0.55,0.55,0.55,0.55,0.22,0.28,0.55,0.55,0.67,0.78,0.28,0.55,0.72,0.55,0.22,0.22,0.55,0.55,0.5,0.55,0.83,0.55,0.55,0.67,0.61,0.28,0.55,0.72,0.55,0.33,0.55,0.55,0.55,0.55,0.67,0.33,0.55,0.55,0.55,0.33,0.28,0.22,0.55,0.5,0.55,0.55,0.55,0.55,0.55,0.61,0.55,0.55,0.22,0.33,0.55,0.72,0.55,0.22,0.55,0.55,0.22,0.55,0.55,0.67,0.55,0.55,0.55,0.33,0.5,0.55,0.55,0.55,0.5,0.22,0.28,0.55,0.33,0.5,0.28,0.55,0.5,0.28,0.55,0.67,0.55,0.72,0.55,0.33" style="fill:rgb(0,0,0);font-family:Helvetica;font-size:8.0px;stroke:none;">Pandolfo AG, Hollenkamp AF. Carbon Properties and Their Role in Supercapacitors. J. Power</text>
   <text y="317.423" x="221.5,226.828,231.244,235.66,238.324,242.324,246.74,250.74,252.398,256.814,261.23,265.646,270.062,272.302,274.055,278.471,282.887,287.302,289.55,293.966,298.262,302.678,307.094,311.51" svgx:width="0.67,0.55,0.55,0.33,0.5,0.55,0.5,0.55,0.55,0.55,0.55,0.55,0.28,0.55,0.55,0.55,0.55,0.28,0.55,0.55,0.55,0.55,0.55,0.28" style="fill:rgb(0,0,0);font-family:Helvetica;font-size:8.0px;stroke:none;">Sources 2006; 157:11–27.</text>
   <text y="330.405" x="200.468,204.883,209.299" svgx:width="0.55,0.55,0.28" style="fill:rgb(0,0,0);font-family:Helvetica-Bold;font-size:8.0px;stroke:none;">10.</text>
   <text y="330.405" x="221.5,226.412,230.828,235.228,236.977,240.977,243.217,244.971,250.299,254.715,259.131,263.53099999999995,265.268,271.011,273.25100000000003,274.962,280.29,282.034,286.43399999999997,288.228,293.14,295.38,297.129,302.457,306.873,311.27299999999997,313.002,319.25,321.49,323.207,328.119,332.535,336.951,341.367,345.767,347.471,353.215,355.455,357.222,363.47,366.134,370.55,374.966,379.382,383.798,388.214,392.614,394.3,398.715,403.131,407.53099999999995,409.266,415.514,418.178,422.594,427.01,431.425,435.841,440.257,444.673,447.193,451.609,456.025,460.025,464.441,468.84099999999995,470.551,477.215,481.63,483.878,488.294,490.958,492.702,497.118,498.862,502.862,504.566,506.814,511.23,513.87,515.621,520.949,525.365,529.781,532.445,536.861,540.861,542.55,547.878,550.126,554.542,557.206,561.622,566.038" svgx:width="0.61,0.55,0.55,0.55,0.5,0.28,0.55,0.67,0.55,0.55,0.55,0.55,0.72,0.28,0.55,0.67,0.22,0.55,0.55,0.61,0.28,0.55,0.67,0.55,0.55,0.55,0.78,0.28,0.55,0.61,0.55,0.55,0.55,0.55,0.55,0.72,0.28,0.55,0.78,0.33,0.55,0.55,0.55,0.55,0.55,0.55,0.55,0.55,0.55,0.55,0.55,0.78,0.33,0.55,0.55,0.55,0.55,0.55,0.55,0.33,0.55,0.55,0.5,0.55,0.55,0.55,0.83,0.55,0.28,0.55,0.33,0.22,0.55,0.22,0.5,0.55,0.28,0.55,0.33,0.55,0.67,0.55,0.55,0.33,0.55,0.5,0.55,0.67,0.28,0.55,0.33,0.55,0.55,0.55" style="fill:rgb(0,0,0);font-family:Helvetica;font-size:8.0px;stroke:none;">Zhu J, Yang D, Yin Z, Yan Q, Zhang H. Graphene and Graphene-based Materials for Energy Storage</text>
   <text y="339.93" x="221.5,226.828,231.244,235.66,237.404,239.148,243.148,247.564,249.812,251.556,255.972,260.278,264.278,266.51800000000003,268.271,273.599,280.263,284.679,286.423,288.183,289.872,294.288,298.704,303.12,307.536,309.776,311.529,315.944,320.36,322.608,327.024,331.44,335.856,340.158,344.574,348.99,353.406,357.822,362.238,364.478,366.18,370.596,375.012,376.756" svgx:width="0.67,0.55,0.55,0.22,0.22,0.5,0.55,0.28,0.22,0.55,0.55,0.5,0.28,0.55,0.67,0.83,0.55,0.22,0.22,0.55,0.55,0.55,0.55,0.55,0.28,0.55,0.55,0.55,0.28,0.55,0.55,0.55,0.55,0.55,0.55,0.55,0.55,0.55,0.28,0.55,0.55,0.55,0.22,0.28" style="fill:rgb(0,0,0);font-family:Helvetica;font-size:8.0px;stroke:none;">Applications. Small 2014; 10:3480–3498. doi:</text>
   <text y="339.93" x="380.75,385.166,389.582,391.83,396.246,400.662,405.078,409.379,411.627,415.627,422.291,424.035,425.779,428.027,432.443,436.859,441.275,445.691,450.107,454.523,458.815,463.231" svgx:width="0.55,0.55,0.28,0.55,0.55,0.55,0.55,0.28,0.5,0.83,0.22,0.22,0.28,0.55,0.55,0.55,0.55,0.55,0.55,0.55,0.55,0.55" style="fill:rgb(59,90,166);font-family:Helvetica;font-size:8.0px;stroke:none;">10.1002/smll.201303202</text>
   <text y="339.93" x="469.417,474.745,481.409,483.657,489.401" svgx:width="0.67,0.83,0.28,0.72,0.28" style="fill:rgb(0,0,0);font-family:Helvetica;font-size:8.0px;stroke:none;">PMID:</text>
   <text y="339.93" x="493.341,497.757,502.173,506.589,511.004,515.42,519.836,524.125" svgx:width="0.55,0.55,0.55,0.55,0.55,0.55,0.55,0.55" style="fill:rgb(59,90,166);font-family:Helvetica;font-size:8.0px;stroke:none;">24431122</text>
   <text y="352.912" x="200.468,204.884,209.299" svgx:width="0.55,0.55,0.28" style="fill:rgb(0,0,0);font-family:Helvetica-Bold;font-size:8.0px;stroke:none;">11.</text>
   <text y="352.912" x="221.5,227.244,231.66,236.076,237.83599999999998,239.529,244.857,247.097,248.883,253.795,258.211,262.627,267.043,271.443,273.147,278.475,280.71500000000003,282.445,288.693,293.109,297.50899999999996,299.226,304.138,306.378,308.127,312.543,314.287,318.68699999999995,320.486,326.23,328.47,330.18,335.508,339.924,344.34,348.73999999999995,350.476,354.476,356.716,358.47,364.214,365.957,371.701" svgx:width="0.72,0.55,0.55,0.22,0.55,0.67,0.28,0.55,0.61,0.55,0.55,0.55,0.55,0.55,0.67,0.28,0.55,0.78,0.55,0.55,0.55,0.61,0.28,0.55,0.55,0.22,0.55,0.55,0.72,0.28,0.55,0.67,0.55,0.55,0.55,0.55,0.5,0.28,0.55,0.72,0.22,0.72,0.55" style="fill:rgb(0,0,0);font-family:Helvetica;font-size:8.0px;stroke:none;">NuLi Y, Zhang P, Guo Z, Liu H, Yang J. NiCo</text>
  </g>
  <g begin="text">
   <text y="354.274" x="376.101" svgx:width="0.55" style="fill:rgb(0,0,0);font-family:Helvetica;font-size:5.33px;stroke:none;">2</text>
  </g>
  <g begin="text">
   <text y="352.913" x="379.389" svgx:width="0.78" style="fill:rgb(0,0,0);font-family:Helvetica;font-size:8.0px;stroke:none;">O</text>
  </g>
  <g begin="text">
   <text y="354.274" x="385.625" svgx:width="0.55" style="fill:rgb(0,0,0);font-family:Helvetica;font-size:5.33px;stroke:none;">4</text>
  </g>
  <g begin="text">
   <text y="352.913" x="388.913,391.161,396.921,398.664,404.408,408.824,413.24,417.656,421.656,426.072,432.623,437.039,441.455,445.455,447.199,449.447,453.847,455.584,460.0,464.0,465.732,470.132,471.911,477.655,479.399,483.815,488.23,489.974,493.974,495.665,501.409,505.825,509.825,514.241,516.905,520.904,522.648,526.96,528.704,533.1039999999999,534.896,540.224,544.64,549.056,553.472" svgx:width="0.28,0.72,0.55,0.72,0.55,0.55,0.55,0.5,0.55,0.83,0.55,0.55,0.5,0.22,0.28,0.55,0.55,0.55,0.5,0.55,0.55,0.55,0.72,0.22,0.55,0.55,0.22,0.5,0.55,0.72,0.55,0.5,0.55,0.33,0.5,0.22,0.55,0.22,0.55,0.55,0.67,0.55,0.55,0.55,0.55" style="fill:rgb(0,0,0);font-family:Helvetica;font-size:8.0px;stroke:none;">/C Nanocomposite as a Highly Reversible Anode</text>
   <text y="362.437" x="221.5,228.164,232.58,234.828,239.244,241.908,243.652,248.068,249.828,251.491,253.739,258.155,260.79499999999996,262.546,266.962,268.706,270.954,275.37,277.114,281.53,288.194,290.858,293.106,297.522,301.92199999999997,303.648,308.976,313.392,315.64,317.888,322.304,324.968,326.608,331.024,335.024,337.264,339.024,344.352,346.096,350.512,354.512,356.76,359.424,363.84,367.84,372.256,376.555,383.219,385.459,387.213,392.54,396.956,398.7,400.444,404.86,407.524,412.852,415.1,419.516,421.681,426.08099999999996,427.861,432.277,436.693,438.941,441.189,443.42900000000003,445.152,449.568,453.984,458.4,462.816,465.056,466.752,471.167,475.583,477.831,483.159,487.575,491.991,496.407,501.735,506.04,510.456" svgx:width="0.83,0.55,0.28,0.55,0.33,0.22,0.55,0.22,0.55,0.28,0.55,0.33,0.55,0.55,0.22,0.28,0.55,0.22,0.55,0.83,0.33,0.28,0.55,0.55,0.55,0.67,0.55,0.28,0.28,0.55,0.33,0.22,0.55,0.5,0.28,0.55,0.67,0.22,0.55,0.5,0.28,0.33,0.55,0.5,0.55,0.55,0.83,0.28,0.55,0.67,0.55,0.22,0.22,0.55,0.33,0.67,0.28,0.55,0.28,0.55,0.55,0.55,0.55,0.28,0.28,0.28,0.55,0.55,0.55,0.55,0.55,0.28,0.55,0.55,0.55,0.28,0.67,0.55,0.55,0.55,0.67,0.55,0.55,0.28" style="fill:rgb(0,0,0);font-family:Helvetica;font-size:8.0px;stroke:none;">Material for Lithium-Ion Batteries. Electrochem. Solid-State Lett. 2008; 11:A64–A67.</text>
   <text y="375.42" x="200.468,204.884,209.3" svgx:width="0.55,0.55,0.28" style="fill:rgb(0,0,0);font-family:Helvetica-Bold;font-size:8.0px;stroke:none;">12.</text>
   <text y="375.42" x="221.5,225.916,230.332,234.732,236.467,241.795,249.371,251.61100000000002,253.361,259.105,263.521,267.937,272.337,274.055,279.799,282.039,283.806,288.222,292.638,297.03799999999995,298.772,302.772,308.1,310.34000000000003,312.038,316.95,321.366,325.782,330.18199999999996,331.937,335.937,338.177,339.932,345.259,347.923,351.923,356.339,360.755,363.395,365.102,369.518,374.846,377.086,378.822,384.15,388.566,390.31,392.558,395.222,400.55,404.966,409.382,413.687,418.103,420.767,423.015,427.431,431.83099999999996,433.586,438.498,442.914,445.578,452.242,456.658,458.906,460.65,465.066,469.46599999999995,471.117,475.533,477.773,479.564,485.308,489.724,494.14,498.556,500.3,504.7,506.38,510.796,512.54,516.54,520.9399999999999,522.708,528.452" svgx:width="0.55,0.55,0.55,0.55,0.67,0.95,0.28,0.55,0.72,0.55,0.55,0.55,0.55,0.72,0.28,0.55,0.55,0.55,0.55,0.55,0.5,0.67,0.28,0.55,0.61,0.55,0.55,0.55,0.55,0.5,0.28,0.55,0.67,0.33,0.5,0.55,0.55,0.33,0.55,0.55,0.67,0.28,0.55,0.67,0.55,0.22,0.28,0.33,0.67,0.55,0.55,0.55,0.55,0.33,0.28,0.55,0.55,0.55,0.61,0.55,0.33,0.83,0.55,0.28,0.22,0.55,0.55,0.55,0.55,0.28,0.55,0.72,0.55,0.55,0.55,0.22,0.55,0.55,0.55,0.22,0.5,0.55,0.55,0.72,0.55" style="fill:rgb(0,0,0);font-family:Helvetica;font-size:8.0px;stroke:none;">Lou XW, Deng D, Lee JY, Feng J, Archer LA. Self-Supported Formation of Needle Like Co</text>
  </g>
  <g begin="text">
   <text y="376.724" x="532.8" svgx:width="0.55" style="fill:rgb(0,0,0);font-family:Helvetica;font-size:5.33px;stroke:none;">3</text>
  </g>
  <g begin="text">
   <text y="375.421" x="536.145" svgx:width="0.78" style="fill:rgb(0,0,0);font-family:Helvetica;font-size:8.0px;stroke:none;">O</text>
  </g>
  <g begin="text">
   <text y="376.724" x="542.381" svgx:width="0.55" style="fill:rgb(0,0,0);font-family:Helvetica;font-size:5.33px;stroke:none;">4</text>
  </g>
  <g begin="text">
   <text y="375.421" x="547.427,553.171,557.587,562.003,566.418" svgx:width="0.72,0.55,0.55,0.55,0.33" style="fill:rgb(0,0,0);font-family:Helvetica;font-size:8.0px;stroke:none;">Nano-</text>
   <text y="384.944" x="221.501,223.749,228.165,232.581,236.997,240.997,242.704,247.12,251.536,255.936,257.671,262.583,266.999,271.415,273.159,275.799,277.513,282.841,287.257,291.673,293.417,295.161,299.161,303.577,305.825,307.569,311.985,316.385,318.106,322.521,326.521,328.253,332.669,334.413,336.661,341.077,342.821,347.237,353.901,356.565,358.813,363.119,367.519,369.299,374.626,379.042,381.29,383.538,387.954,390.618,394.618,396.285,401.613,403.357,407.772,411.772,414.02,416.684,421.1,425.516,429.932,433.932,436.172,437.84,443.168,447.584,451.584,453.824,455.585,462.249,466.665,468.912,473.328,475.992,478.232,479.906,484.322,488.738,493.154,497.57,499.81,501.506,505.922,510.338,512.586,517.001,521.417,525.833,530.249,534.665,539.081,543.497" svgx:width="0.28,0.55,0.55,0.55,0.5,0.55,0.55,0.55,0.55,0.55,0.61,0.55,0.55,0.22,0.33,0.55,0.67,0.55,0.55,0.22,0.22,0.5,0.55,0.28,0.22,0.55,0.55,0.55,0.55,0.5,0.55,0.55,0.22,0.28,0.55,0.22,0.55,0.83,0.33,0.28,0.55,0.55,0.55,0.67,0.55,0.28,0.28,0.55,0.33,0.5,0.55,0.67,0.22,0.55,0.5,0.28,0.33,0.55,0.55,0.55,0.5,0.28,0.55,0.67,0.55,0.5,0.28,0.55,0.83,0.55,0.28,0.55,0.33,0.28,0.55,0.55,0.55,0.55,0.55,0.28,0.55,0.55,0.55,0.28,0.55,0.55,0.55,0.55,0.55,0.55,0.55,0.28" style="fill:rgb(0,0,0);font-family:Helvetica;font-size:8.0px;stroke:none;">tubes and Their Application as Lithium-Ion Battery Electrodes. Adv. Mater. 2008; 20:258–262.</text>
   <text y="397.927" x="200.468,204.884,209.3" svgx:width="0.55,0.55,0.28" style="fill:rgb(0,0,0);font-family:Helvetica-Bold;font-size:8.0px;stroke:none;">13.</text>
   <text y="397.927" x="221.501,229.077,233.493,237.909,242.309,244.008,249.752,251.99200000000002,253.759,259.503,263.919,265.679,267.422,271.838,274.07800000000003,275.813,281.14,285.556,289.972,294.37199999999996,296.108,301.436,303.676,305.407,310.734,315.15,319.566,323.566,327.982,332.398,336.398,338.061,343.805,348.221,352.221,356.637,358.381,362.797,367.213,371.629,375.932,380.332,382.111,387.855,390.095,391.862,397.606,402.022,406.438,408.182,412.598,416.598,421.014,425.414,427.068,431.068,435.98,438.22,439.994,444.41,446.154,450.57,454.986,459.38599999999997,461.085,466.413,468.653,470.439,476.183,480.599,482.359,484.045,489.373,491.613,493.343,499.087,503.502,505.262,507.006,512.75" svgx:width="0.95,0.55,0.55,0.55,0.55,0.72,0.28,0.55,0.72,0.55,0.22,0.55,0.55,0.28,0.55,0.67,0.55,0.55,0.55,0.55,0.67,0.28,0.55,0.67,0.55,0.55,0.5,0.55,0.55,0.5,0.55,0.72,0.55,0.5,0.55,0.22,0.55,0.55,0.55,0.55,0.55,0.55,0.72,0.28,0.55,0.72,0.55,0.55,0.22,0.55,0.5,0.55,0.55,0.55,0.5,0.61,0.28,0.55,0.55,0.22,0.55,0.55,0.55,0.55,0.67,0.28,0.55,0.72,0.55,0.22,0.55,0.67,0.28,0.55,0.72,0.55,0.22,0.55,0.72,0.28" style="fill:rgb(0,0,0);font-family:Helvetica;font-size:8.0px;stroke:none;">Wang H, Cui L, Yang Y, Sanchez Casalongue H, Robinson JT, Liang Y, Cui Y, Dai H.</text>
   <text y="407.395" x="221.501,228.165" svgx:width="0.83,0.55" style="fill:rgb(0,0,0);font-family:Helvetica;font-size:8.0px;stroke:none;">Mn</text>
  </g>
  <g begin="text">
   <text y="408.756" x="232.554" svgx:width="0.55" style="fill:rgb(0,0,0);font-family:Helvetica;font-size:5.33px;stroke:none;">3</text>
  </g>
  <g begin="text">
   <text y="407.395" x="235.842" svgx:width="0.78" style="fill:rgb(0,0,0);font-family:Helvetica;font-size:8.0px;stroke:none;">O</text>
  </g>
  <g begin="text">
   <text y="408.756" x="242.079" svgx:width="0.55" style="fill:rgb(0,0,0);font-family:Helvetica;font-size:5.33px;stroke:none;">4</text>
  </g>
  <g begin="text">
   <text y="407.395" x="245.424" svgx:width="0.58" style="fill:rgb(0,0,0);font-family:ArialMT-Identity-H;font-size:8.0px;stroke:none;">−</text>
   <text y="407.395" x="251.829,258.077,260.741,265.157,269.573,273.989,278.405,282.821,287.221,288.849,294.593,298.593,303.009,305.673,307.417,311.81699999999995,313.568,317.983,321.983,323.715,328.11499999999995,329.895,335.639,337.383,341.799,346.215,348.879,354.623,358.922,363.338,367.754,371.754,373.498,375.746,379.746,381.486,386.814,391.23,395.646,400.062,404.462,406.147,412.811,417.227,419.475,423.891,426.555,428.299,432.715,434.47499999999997,436.194,438.442,442.858,445.498,447.249,451.665,453.409,455.657,460.073,461.817,466.233,474.575,476.823,481.239,485.63899999999995,487.388,492.716,497.132,499.38,501.628,506.044,508.708,510.451,514.77,518.77,521.01,522.763,526.763,529.003,530.758,536.086,542.749,544.989,546.745,552.489,556.904,561.32,567.984" svgx:width="0.78,0.33,0.55,0.55,0.55,0.55,0.55,0.55,0.55,0.72,0.5,0.55,0.33,0.22,0.55,0.55,0.55,0.5,0.55,0.55,0.55,0.72,0.22,0.55,0.55,0.33,0.72,0.55,0.55,0.55,0.5,0.22,0.28,0.5,0.55,0.67,0.55,0.55,0.55,0.55,0.55,0.83,0.55,0.28,0.55,0.33,0.22,0.55,0.22,0.55,0.28,0.55,0.33,0.55,0.55,0.22,0.28,0.55,0.22,0.55,0.83,0.28,0.55,0.55,0.55,0.67,0.55,0.28,0.28,0.55,0.33,0.22,0.55,0.5,0.28,0.55,0.5,0.28,0.55,0.67,0.83,0.28,0.55,0.72,0.55,0.55,0.83,0.28" style="fill:rgb(0,0,0);font-family:Helvetica;font-size:8.0px;stroke:none;">Graphene Hybrid as a High-Capacity Anode Material for LithiumIon Batteries. J. Am. Chem.</text>
   <text y="416.919" x="221.5,226.828,231.244,235.244,237.484,239.188,243.604,248.02,252.436,256.851,259.091,260.843,265.259,269.675,274.091,276.339,280.755,285.051,289.467,293.883,298.299,302.715,307.131,311.547,315.963,320.379,324.679,326.919,328.705,333.121,337.537,339.281" svgx:width="0.67,0.55,0.5,0.28,0.55,0.55,0.55,0.55,0.55,0.28,0.55,0.55,0.55,0.55,0.28,0.55,0.55,0.55,0.55,0.55,0.55,0.55,0.55,0.55,0.55,0.55,0.28,0.55,0.55,0.55,0.22,0.28" style="fill:rgb(0,0,0);font-family:Helvetica;font-size:8.0px;stroke:none;">Soc. 2010; 132:13978–13980. doi:</text>
   <text y="416.919" x="343.274,347.69,352.106,354.354,358.77,363.186,367.602,371.904,374.152,375.896,380.312,384.728,389.144,393.56,397.976,402.392,406.808" svgx:width="0.55,0.55,0.28,0.55,0.55,0.55,0.55,0.28,0.22,0.55,0.55,0.55,0.55,0.55,0.55,0.55,0.55" style="fill:rgb(59,90,166);font-family:Helvetica;font-size:8.0px;stroke:none;">10.1021/ja105296a</text>
   <text y="416.919" x="412.893,418.221,424.885,427.133,432.877" svgx:width="0.67,0.83,0.28,0.72,0.28" style="fill:rgb(0,0,0);font-family:Helvetica;font-size:8.0px;stroke:none;">PMID:</text>
   <text y="416.919" x="436.817,441.233,445.649,450.065,454.481,458.897,463.313,467.729" svgx:width="0.55,0.55,0.55,0.55,0.55,0.55,0.55,0.55" style="fill:rgb(59,90,166);font-family:Helvetica;font-size:8.0px;stroke:none;">20853844</text>
   <text y="429.902" x="200.467,204.882,209.298" svgx:width="0.55,0.55,0.28" style="fill:rgb(0,0,0);font-family:Helvetica-Bold;font-size:8.0px;stroke:none;">14.</text>
   <text y="429.902" x="221.5,226.412,230.828,235.244,239.644,241.342,245.758,247.99800000000002,249.788,254.7,259.116,263.532,267.93199999999996,269.631,275.375,277.615,279.382,283.798,288.214,292.614,294.349,299.676,307.252,309.492,311.244,316.987,321.403,325.819,330.235,331.979,336.395,339.059,344.295,348.711,353.127,354.871,356.615,361.031,365.431,367.142,372.886,377.302,383.966" svgx:width="0.61,0.55,0.55,0.55,0.55,0.55,0.28,0.55,0.61,0.55,0.55,0.55,0.55,0.72,0.28,0.55,0.55,0.55,0.55,0.55,0.67,0.95,0.28,0.55,0.72,0.55,0.55,0.55,0.22,0.55,0.33,0.67,0.55,0.55,0.22,0.22,0.55,0.55,0.55,0.72,0.55,0.83,0.55" style="fill:rgb(0,0,0);font-family:Helvetica;font-size:8.0px;stroke:none;">Zhou L, Zhao D, Lou XW. Double-Shelled CoMn</text>
  </g>
  <g begin="text">
   <text y="431.263" x="388.346" svgx:width="0.55" style="fill:rgb(0,0,0);font-family:Helvetica;font-size:5.33px;stroke:none;">2</text>
  </g>
  <g begin="text">
   <text y="429.902" x="391.635" svgx:width="0.78" style="fill:rgb(0,0,0);font-family:Helvetica;font-size:8.0px;stroke:none;">O</text>
  </g>
  <g begin="text">
   <text y="431.263" x="397.871" svgx:width="0.55" style="fill:rgb(0,0,0);font-family:Helvetica;font-size:5.33px;stroke:none;">4</text>
  </g>
  <g begin="text">
   <text y="429.902" x="402.917,408.66,413.076,414.82,416.564,420.98,428.428,435.092,436.836,440.836,443.5,447.916,451.916,456.332,460.748,465.164,469.164,470.834,475.25,479.25,480.982,486.726,488.47,492.886,497.302,499.966,505.71,510.126,514.542,518.853,522.853,524.597,526.845,530.845,532.573,537.9,542.316,546.732,551.148,555.564,559.564,561.259,563.506,567.922" svgx:width="0.72,0.55,0.22,0.22,0.55,0.72,0.83,0.22,0.5,0.33,0.55,0.5,0.55,0.55,0.55,0.5,0.55,0.55,0.5,0.55,0.72,0.22,0.55,0.55,0.33,0.72,0.55,0.55,0.55,0.5,0.22,0.28,0.5,0.55,0.67,0.55,0.55,0.55,0.55,0.5,0.55,0.28,0.55,0.33" style="fill:rgb(0,0,0);font-family:Helvetica;font-size:8.0px;stroke:none;">HollowMicrocubes as High-Capacity Anodes for</text>
   <text y="439.426" x="221.5,225.916,227.66,229.908,234.324,236.068,240.484,247.148,249.812,252.06,256.366,260.76599999999996,262.546,267.874,272.29,274.538,276.786,281.202,283.866,285.61,290.026,294.026,296.266,297.979,303.307,307.722,311.722,313.962,315.667,322.331,326.747,328.995,333.411,336.075,338.315,340.044,344.46,348.876,353.292,357.708,359.94800000000004,361.645,366.061,370.477,372.725,377.141,381.557,385.973,390.274,394.69,399.106,403.522,405.762,407.508,411.924,416.34,418.084" svgx:width="0.55,0.22,0.28,0.55,0.22,0.55,0.83,0.33,0.28,0.55,0.55,0.55,0.67,0.55,0.28,0.28,0.55,0.33,0.22,0.55,0.5,0.28,0.55,0.67,0.55,0.5,0.28,0.55,0.83,0.55,0.28,0.55,0.33,0.28,0.55,0.55,0.55,0.55,0.55,0.28,0.55,0.55,0.55,0.28,0.55,0.55,0.55,0.55,0.55,0.55,0.55,0.28,0.55,0.55,0.55,0.22,0.28" style="fill:rgb(0,0,0);font-family:Helvetica;font-size:8.0px;stroke:none;">Lithium-Ion Batteries. Adv. Mater. 2012; 24:745–748. doi:</text>
   <text y="439.426" x="422.078,426.494,430.91,433.158,437.574,441.99,446.286,450.702,452.95,457.366,461.782,468.446,472.862,475.11,479.526,483.942,488.239,492.655,497.071,501.486,505.902,510.318" svgx:width="0.55,0.55,0.28,0.55,0.55,0.55,0.55,0.28,0.55,0.55,0.83,0.55,0.28,0.55,0.55,0.55,0.55,0.55,0.55,0.55,0.55,0.55" style="fill:rgb(59,90,166);font-family:Helvetica;font-size:8.0px;stroke:none;">10.1002/adma.201104407</text>
   <text y="439.426" x="516.415,521.743,528.407,530.655,536.399" svgx:width="0.67,0.83,0.28,0.72,0.28" style="fill:rgb(0,0,0);font-family:Helvetica;font-size:8.0px;stroke:none;">PMID:</text>
   <text y="439.426" x="540.396,544.812,549.227,553.643,558.059,562.475,566.891,571.18" svgx:width="0.55,0.55,0.55,0.55,0.55,0.55,0.55,0.55" style="fill:rgb(59,90,166);font-family:Helvetica;font-size:8.0px;stroke:none;">22213232</text>
   <text y="452.409" x="200.468,204.884,209.3" svgx:width="0.55,0.55,0.28" style="fill:rgb(0,0,0);font-family:Helvetica-Bold;font-size:8.0px;stroke:none;">15.</text>
   <text y="452.409" x="221.5,227.244,231.644,233.406,237.822,240.062,241.796,246.708,251.124,255.54,259.956,264.356,266.061,271.805,274.045,275.812,280.724,285.14,289.556,293.971,298.371,300.076,305.404,307.644,309.374,315.118,319.534,323.95,328.365,332.765,334.489,339.816,342.056,343.843,348.755,353.171,357.587,362.003,366.40299999999996,368.107,373.435,375.675,377.405,383.149,387.565,391.981,396.381,398.098,404.346,406.586,408.359,414.103,418.519,425.183" svgx:width="0.72,0.55,0.55,0.55,0.28,0.55,0.61,0.55,0.55,0.55,0.55,0.55,0.72,0.28,0.55,0.61,0.55,0.55,0.55,0.55,0.55,0.67,0.28,0.55,0.72,0.55,0.55,0.55,0.55,0.55,0.67,0.28,0.55,0.61,0.55,0.55,0.55,0.55,0.55,0.67,0.28,0.55,0.72,0.55,0.55,0.55,0.55,0.78,0.28,0.55,0.72,0.55,0.83,0.55" style="fill:rgb(0,0,0);font-family:Helvetica;font-size:8.0px;stroke:none;">Hu L, Zhong H, Zheng X, Huang Y, Zhang P, Chen Q. CoMn</text>
  </g>
  <g begin="text">
   <text y="453.77" x="429.505" svgx:width="0.55" style="fill:rgb(0,0,0);font-family:Helvetica;font-size:5.33px;stroke:none;">2</text>
  </g>
  <g begin="text">
   <text y="452.409" x="432.85" svgx:width="0.78" style="fill:rgb(0,0,0);font-family:Helvetica;font-size:8.0px;stroke:none;">O</text>
  </g>
  <g begin="text">
   <text y="453.77" x="439.087" svgx:width="0.55" style="fill:rgb(0,0,0);font-family:Helvetica;font-size:5.33px;stroke:none;">4</text>
  </g>
  <g begin="text">
   <text y="452.409" x="444.132,449.46,453.876,455.62,460.036,464.452,466.212,467.886,473.63,475.374,479.79,482.454,486.87,489.534,493.534,497.95,499.694,503.603,508.019,509.779,511.539,518.203,519.947,523.947,526.611,531.027,535.027,539.443,543.741,548.156,550.82,555.236" svgx:width="0.67,0.55,0.22,0.55,0.55,0.22,0.55,0.72,0.22,0.55,0.33,0.55,0.33,0.5,0.55,0.22,0.5,0.55,0.22,0.55,0.83,0.22,0.5,0.33,0.55,0.5,0.55,0.55,0.55,0.33,0.55,0.5" style="fill:rgb(0,0,0);font-family:Helvetica;font-size:8.0px;stroke:none;">Spinel Hierarchical Microspheres</text>
   <text y="461.933" x="221.501,226.829,230.828,234.828,239.244,245.908,250.324,252.068,256.367,260.767,262.546,270.122,271.866,274.114,278.51399999999995,280.234,285.562,289.978,292.642,297.058,301.474,305.474,307.219,312.963,317.379,321.795,326.211,330.211,334.627,338.911,343.327,345.575,349.575,351.327,355.743,359.743,361.475,366.803,369.051,373.467,377.883,379.627,384.027,385.739,391.067,395.483,399.899,404.315,408.731,412.731,414.425,416.673,421.089,423.729,425.48,429.896,431.64,433.888,438.304,440.048,444.464,451.128,453.792,456.04,460.346,464.746,466.526,471.853,476.269,478.517,480.765,485.181,487.845,489.589,494.005,498.005,500.245,501.959,507.287,511.287,513.031,515.271,516.982,522.726,527.142,531.557,533.797,535.521,539.937,544.353,548.768,553.184" svgx:width="0.67,0.5,0.5,0.55,0.83,0.55,0.22,0.55,0.55,0.55,0.95,0.22,0.28,0.55,0.55,0.67,0.55,0.33,0.55,0.55,0.5,0.55,0.72,0.55,0.55,0.55,0.5,0.55,0.55,0.55,0.28,0.5,0.55,0.55,0.5,0.55,0.67,0.28,0.55,0.55,0.22,0.55,0.55,0.67,0.55,0.55,0.55,0.55,0.5,0.55,0.28,0.55,0.33,0.55,0.55,0.22,0.28,0.55,0.22,0.55,0.83,0.33,0.28,0.55,0.55,0.55,0.67,0.55,0.28,0.28,0.55,0.33,0.22,0.55,0.5,0.28,0.55,0.67,0.5,0.22,0.28,0.55,0.72,0.55,0.55,0.28,0.55,0.55,0.55,0.55,0.55,0.28" style="fill:rgb(0,0,0);font-family:Helvetica;font-size:8.0px;stroke:none;">Assembled With Porous Nanosheets as Stable Anodes for Lithium-Ion Batteries. Sci. Rep. 2012;</text>
   <text y="471.401" x="221.501,225.917,228.165,232.58,236.996,241.412,245.828,250.244,254.552,258.968,261.208,262.943,267.359,271.775,273.519" svgx:width="0.55,0.28,0.55,0.55,0.55,0.55,0.55,0.55,0.55,0.28,0.55,0.55,0.55,0.22,0.28" style="fill:rgb(0,0,0);font-family:Helvetica;font-size:8.0px;stroke:none;">2:986–993. doi:</text>
   <text y="471.401" x="277.513,281.929,286.345,288.593,293.008,297.424,301.84,306.256,308.504,312.504,315.043,319.459,323.875,328.291,332.707,337.123,341.539" svgx:width="0.55,0.55,0.28,0.55,0.55,0.55,0.55,0.28,0.5,0.33,0.55,0.55,0.55,0.55,0.55,0.55,0.55" style="fill:rgb(59,90,166);font-family:Helvetica;font-size:8.0px;stroke:none;">10.1038/srep00986</text>
   <text y="471.401" x="347.641,352.969,359.633,361.881,367.625" svgx:width="0.67,0.83,0.28,0.72,0.28" style="fill:rgb(0,0,0);font-family:Helvetica;font-size:8.0px;stroke:none;">PMID:</text>
   <text y="471.401" x="371.566,375.982,380.398,384.814,389.23,393.646,398.062,402.478" svgx:width="0.55,0.55,0.55,0.55,0.55,0.55,0.55,0.55" style="fill:rgb(59,90,166);font-family:Helvetica;font-size:8.0px;stroke:none;">23248749</text>
   <text y="484.44" x="200.467,204.883,209.299" svgx:width="0.55,0.55,0.28" style="fill:rgb(0,0,0);font-family:Helvetica-Bold;font-size:8.0px;stroke:none;">16.</text>
   <text y="484.44" x="221.501,225.917,227.677,229.381,233.38,235.62,237.375,242.703,244.447,248.863,253.279,257.679,259.428,264.756,266.996,268.726,273.142,274.886,279.286,281.028,286.356,288.596,290.382,294.382,298.782,300.53,305.442,307.682,309.431,315.679,317.423,321.839,326.239,327.97,333.298,335.538,337.267,343.011,344.755,349.171,353.57099999999997,355.352,360.68,362.424,366.84,370.84,373.088,375.751,380.07,384.07,388.486,392.902,399.566,401.31,405.31,409.725,411.485,413.178,418.506,422.922,425.586,427.834,432.25,434.914,441.468,445.884,450.3,454.3,458.7,460.459,464.875,467.115,468.85,475.513,479.929,484.345,488.761,493.177,494.921,498.921,503.337,507.627,510.291,514.291,518.691,520.44,526.184,527.928,533.672" svgx:width="0.55,0.22,0.55,0.5,0.28,0.55,0.67,0.22,0.55,0.55,0.55,0.55,0.67,0.28,0.55,0.55,0.22,0.55,0.55,0.67,0.28,0.55,0.5,0.55,0.55,0.61,0.28,0.55,0.78,0.22,0.55,0.55,0.55,0.67,0.28,0.55,0.72,0.22,0.55,0.55,0.55,0.67,0.22,0.55,0.5,0.28,0.33,0.55,0.5,0.55,0.55,0.83,0.22,0.5,0.55,0.22,0.55,0.67,0.55,0.33,0.28,0.55,0.33,0.83,0.55,0.55,0.5,0.55,0.55,0.55,0.28,0.55,0.83,0.55,0.55,0.55,0.55,0.22,0.5,0.55,0.55,0.33,0.5,0.55,0.55,0.72,0.22,0.72,0.55" style="fill:rgb(0,0,0);font-family:Helvetica;font-size:8.0px;stroke:none;">Li J, Xiong S, Liu Y, Ju Z, Qian Y. High Electrochemical Performance of Monodisperse NiCo</text>
  </g>
  <g begin="text">
   <text y="485.745" x="538.072" svgx:width="0.55" style="fill:rgb(0,0,0);font-family:Helvetica;font-size:5.33px;stroke:none;">2</text>
  </g>
  <g begin="text">
   <text y="484.441" x="541.361" svgx:width="0.78" style="fill:rgb(0,0,0);font-family:Helvetica;font-size:8.0px;stroke:none;">O</text>
  </g>
  <g begin="text">
   <text y="485.745" x="547.597" svgx:width="0.55" style="fill:rgb(0,0,0);font-family:Helvetica;font-size:5.33px;stroke:none;">4</text>
  </g>
  <g begin="text">
   <text y="484.441" x="552.643,559.306,563.722,567.722,572.138" svgx:width="0.83,0.55,0.5,0.55,0.33" style="fill:rgb(0,0,0);font-family:Helvetica;font-size:8.0px;stroke:none;">Meso-</text>
   <text y="493.908" x="221.501,225.917,230.333,232.997,237.413,241.829,245.829,247.523,254.187,255.931,259.931,262.595,267.011,271.011,275.427,279.724,284.14,286.804,291.22,295.22,296.959,301.375,305.375,307.107,311.523,315.923,317.652,322.98,327.396,331.812,336.228,340.628,342.37,349.034,353.45,355.698,360.114,362.778,364.522,368.938,370.698,372.36,374.608,379.024,381.664,383.415,387.831,389.575,392.239,394.487,398.903,403.303,405.072,410.4,414.815,417.063,419.311,423.727,426.391,428.032,432.448,436.448,438.688,440.448,445.776,451.52,456.88,458.59,463.918,468.334,472.75,474.494,476.73400000000004,478.432,485.096,489.512,491.76,496.176,498.84,501.08,502.81,505.058,509.474,511.722,516.138,518.802,521.05,523.29,524.977,529.393,533.809,538.225,542.641,544.881,546.577,550.993,553.241,557.657,562.073,566.489" svgx:width="0.55,0.55,0.33,0.55,0.55,0.5,0.55,0.83,0.22,0.5,0.33,0.55,0.5,0.55,0.55,0.55,0.33,0.55,0.5,0.55,0.55,0.5,0.55,0.55,0.55,0.55,0.67,0.55,0.55,0.55,0.55,0.55,0.83,0.55,0.28,0.55,0.33,0.22,0.55,0.22,0.55,0.28,0.55,0.33,0.55,0.55,0.22,0.33,0.28,0.55,0.55,0.55,0.67,0.55,0.28,0.28,0.55,0.33,0.22,0.55,0.5,0.28,0.55,0.67,0.72,0.67,0.55,0.67,0.55,0.55,0.22,0.28,0.55,0.83,0.55,0.28,0.55,0.33,0.28,0.55,0.28,0.55,0.28,0.55,0.33,0.28,0.28,0.55,0.55,0.55,0.55,0.55,0.28,0.55,0.55,0.28,0.55,0.55,0.55,0.55" style="fill:rgb(0,0,0);font-family:Helvetica;font-size:8.0px;stroke:none;">porous Microspheres as an Anode Material for Li-Ion Batteries. ACS Appl. Mater. Interf. 2013; 5:981–</text>
   <text y="503.433" x="221.501,225.917,230.333,234.749" svgx:width="0.55,0.55,0.55,0.28" style="fill:rgb(0,0,0);font-family:Helvetica;font-size:8.0px;stroke:none;">988.</text>
   <text y="516.415" x="200.469,204.884,209.3" svgx:width="0.55,0.55,0.28" style="fill:rgb(0,0,0);font-family:Helvetica-Bold;font-size:8.0px;stroke:none;">17.</text>
   <text y="516.415" x="221.501,226.413,230.829,235.245,239.661,244.061,245.766,252.013,254.25300000000001,255.97,261.298,265.698,267.422,271.838,274.07800000000003,275.812,283.388,287.78799999999995,289.532,295.276,300.604,302.844,304.556,310.3,314.716,318.716,320.964,325.38,328.02,329.728,335.472,340.8,343.04,344.751,349.167,353.583,357.983,359.718,365.046,372.622,378.366,380.606,382.338,387.25,391.666,394.33,400.994,405.299,407.547,409.291,413.707,418.10699999999997,419.869,424.285,426.52500000000003,428.259,433.171,437.587,444.251" svgx:width="0.61,0.55,0.55,0.55,0.55,0.55,0.78,0.28,0.55,0.67,0.55,0.55,0.55,0.28,0.55,0.95,0.55,0.55,0.72,0.67,0.28,0.55,0.72,0.55,0.5,0.28,0.55,0.33,0.55,0.72,0.67,0.28,0.55,0.55,0.55,0.55,0.55,0.67,0.95,0.72,0.28,0.55,0.61,0.55,0.33,0.83,0.55,0.28,0.22,0.55,0.55,0.55,0.55,0.28,0.55,0.61,0.55,0.83,0.55" style="fill:rgb(0,0,0);font-family:Helvetica;font-size:8.0px;stroke:none;">Zhang G, Yu L, Wu HB, Hoster HE, Lou XWD. Formation of ZnMn</text>
  </g>
  <g begin="text">
   <text y="517.776" x="448.611" svgx:width="0.55" style="fill:rgb(0,0,0);font-family:Helvetica;font-size:5.33px;stroke:none;">2</text>
  </g>
  <g begin="text">
   <text y="516.416" x="451.899" svgx:width="0.78" style="fill:rgb(0,0,0);font-family:Helvetica;font-size:8.0px;stroke:none;">O</text>
  </g>
  <g begin="text">
   <text y="517.776" x="458.135" svgx:width="0.55" style="fill:rgb(0,0,0);font-family:Helvetica;font-size:5.33px;stroke:none;">4</text>
  </g>
  <g begin="text">
   <text y="516.416" x="463.181,468.509,472.925,474.669,476.413,479.077,480.821,485.237,487.901,493.229,497.645,499.389,501.149,502.809,508.553,512.968,514.712,516.456,520.872,528.32,534.984,536.728,540.728,543.392,547.808,551.808,556.224,560.522,564.938,567.602,572.018" svgx:width="0.67,0.55,0.22,0.22,0.33,0.22,0.55,0.33,0.67,0.55,0.22,0.22,0.55,0.72,0.55,0.22,0.22,0.55,0.72,0.83,0.22,0.5,0.33,0.55,0.5,0.55,0.55,0.55,0.33,0.55,0.5" style="fill:rgb(0,0,0);font-family:Helvetica;font-size:8.0px;stroke:none;">Ball-in-Ball HollowMicrospheres</text>
   <text y="525.94" x="221.501,225.917,229.917,231.649,236.049,237.828,243.572,245.316,249.732,254.148,256.812,262.14,266.458,269.122,271.37,275.786,278.45,285.114,289.53,293.946,297.946,302.346,304.045,309.373,313.789,318.205,322.621,327.02099999999996,328.707,330.955,335.371,338.01099999999997,339.762,344.178,345.922,348.17,352.586,354.33,358.746,365.41,368.073,370.321,374.737,379.137,380.864,386.192,390.608,392.856,395.104,399.52,402.183,403.824,408.24,412.24,414.48,416.24,421.568,425.984,429.984,432.224,433.928,440.592,445.008,447.256,451.672,454.336,456.576,458.306,462.722,467.138,471.554,475.97,478.21000000000004,479.905,484.321,488.737,490.985,495.401,499.817,504.233,508.649,512.956,517.372,521.788,526.204,530.62,532.86,534.614,539.03,543.446,545.19" svgx:width="0.55,0.5,0.55,0.55,0.55,0.72,0.22,0.55,0.55,0.33,0.67,0.55,0.33,0.28,0.55,0.33,0.83,0.55,0.55,0.5,0.55,0.55,0.67,0.55,0.55,0.55,0.55,0.55,0.28,0.55,0.33,0.55,0.55,0.22,0.28,0.55,0.22,0.55,0.83,0.33,0.28,0.55,0.55,0.55,0.67,0.55,0.28,0.28,0.55,0.33,0.22,0.55,0.5,0.28,0.55,0.67,0.55,0.5,0.28,0.55,0.83,0.55,0.28,0.55,0.33,0.28,0.55,0.55,0.55,0.55,0.55,0.28,0.55,0.55,0.55,0.28,0.55,0.55,0.55,0.55,0.55,0.55,0.55,0.55,0.55,0.28,0.55,0.55,0.55,0.22,0.28" style="fill:rgb(0,0,0);font-family:Helvetica;font-size:8.0px;stroke:none;">as a High-Performance Anode for Lithium-Ion Batteries. Adv. Mater. 2012; 24:4609–4613. doi:</text>
   <text y="525.94" x="549.126,553.542,557.958" svgx:width="0.55,0.55,0.28" style="fill:rgb(59,90,166);font-family:Helvetica;font-size:8.0px;stroke:none;">10.</text>
   <text y="535.408" x="221.501,225.917,230.333,234.749,239.165,241.413,245.829,250.245,256.908,261.185,263.433,267.849,272.265,276.681,281.097,285.513,289.929,294.345,298.761" svgx:width="0.55,0.55,0.55,0.55,0.28,0.55,0.55,0.83,0.55,0.28,0.55,0.55,0.55,0.55,0.55,0.55,0.55,0.55,0.55" style="fill:rgb(59,90,166);font-family:Helvetica;font-size:8.0px;stroke:none;">1002/adma.201201779</text>
   <text y="535.408" x="304.839,310.167,316.831,319.079,324.823" svgx:width="0.67,0.83,0.28,0.72,0.28" style="fill:rgb(0,0,0);font-family:Helvetica;font-size:8.0px;stroke:none;">PMID:</text>
   <text y="535.408" x="328.764,333.18,337.595,342.011,346.427,350.843,355.259,359.675" svgx:width="0.55,0.55,0.55,0.55,0.55,0.55,0.55,0.55" style="fill:rgb(59,90,166);font-family:Helvetica;font-size:8.0px;stroke:none;">22730075</text>
   <text y="548.447" x="200.468,204.884,209.299" svgx:width="0.55,0.55,0.28" style="fill:rgb(0,0,0);font-family:Helvetica-Bold;font-size:8.0px;stroke:none;">18.</text>
   <text y="548.447" x="221.501,228.165,232.581,235.245,239.245,243.661,248.077,252.477,254.156,259.9,265.644,267.884,269.633,274.961,279.377,283.377,287.377,291.793,295.793,297.537,301.93699999999995,303.649,309.393,314.721,316.961,318.672,324.0,328.416,331.08,332.824,334.568,338.96799999999996,340.725,344.725,351.389,353.629,355.352,360.68,362.424,366.84,368.584,370.832,374.832,378.832,380.576,382.336,384.039,389.367,391.607,393.336,398.664,403.08,407.47999999999996,409.21,414.122,416.362,418.11,423.438,425.182,429.598,433.598,438.014,440.678,445.094,449.094,450.766,456.094,458.334,460.12,465.448,467.192,471.608,478.272,482.688,486.992,490.992,492.774,497.19,502.518,504.758,506.494,510.91,515.3100000000001,517.039,524.615,526.855,528.604,533.516,537.932,542.348,544.9879999999999,546.746,550.746,557.409" svgx:width="0.83,0.55,0.33,0.5,0.55,0.55,0.55,0.55,0.72,0.72,0.28,0.55,0.67,0.55,0.5,0.5,0.55,0.5,0.22,0.55,0.55,0.72,0.67,0.28,0.55,0.67,0.55,0.33,0.22,0.22,0.55,0.55,0.5,0.83,0.28,0.55,0.67,0.22,0.55,0.22,0.28,0.5,0.5,0.22,0.22,0.55,0.67,0.28,0.55,0.67,0.55,0.55,0.55,0.61,0.28,0.55,0.67,0.22,0.55,0.5,0.55,0.33,0.55,0.5,0.55,0.67,0.28,0.55,0.67,0.22,0.55,0.83,0.55,0.55,0.5,0.55,0.55,0.67,0.28,0.55,0.55,0.55,0.55,0.95,0.28,0.55,0.61,0.55,0.55,0.33,0.55,0.5,0.83,0.28" style="fill:rgb(0,0,0);font-family:Helvetica;font-size:8.0px;stroke:none;">Marcano DC, Kosynkin DV, Berlin JM, Sinitskii A, Sun Z, Slesarev A, Alemany LB, Lu W, Tour JM.</text>
   <text y="557.914" x="221.501,223.749,230.413,234.829,237.493,241.909,245.909,250.325,254.725,256.424,261.752,265.752,270.167,272.415,276.831,281.142,285.142,286.886,290.886,292.65,297.066,299.306,301.041,307.289,309.953,314.369,318.784,323.2,327.616,332.032,336.43199999999996,338.118,344.366,348.366,350.11,354.526,358.942,361.182,362.892,368.22,373.964,379.324,380.977,385.393,389.809,394.225,398.625,400.366,404.782,409.198,413.614,418.03,420.27,421.966,426.382,428.63,433.045,437.461,441.877,446.293,450.709,455.125,459.541,463.957,468.373,470.613,472.251,476.667,481.083,482.827" svgx:width="0.28,0.83,0.55,0.33,0.55,0.5,0.55,0.55,0.55,0.67,0.5,0.55,0.28,0.55,0.55,0.5,0.22,0.5,0.55,0.55,0.28,0.55,0.78,0.33,0.55,0.55,0.55,0.55,0.55,0.55,0.55,0.78,0.5,0.22,0.55,0.55,0.28,0.55,0.67,0.72,0.67,0.55,0.55,0.55,0.55,0.55,0.55,0.55,0.55,0.55,0.55,0.28,0.55,0.55,0.28,0.55,0.55,0.55,0.55,0.55,0.55,0.55,0.55,0.55,0.28,0.55,0.55,0.55,0.22,0.28" style="fill:rgb(0,0,0);font-family:Helvetica;font-size:8.0px;stroke:none;">Improved Synthesis of Graphene Oxide. ACS nano 2010; 4:4806–4814. doi:</text>
   <text y="557.914" x="486.822,491.238,495.653,497.901,502.317,506.733,511.149,515.452,517.7,522.116,526.531,530.947,535.363,539.779,544.195,548.611,553.027" svgx:width="0.55,0.55,0.28,0.55,0.55,0.55,0.55,0.28,0.55,0.55,0.55,0.55,0.55,0.55,0.55,0.55,0.55" style="fill:rgb(59,90,166);font-family:Helvetica;font-size:8.0px;stroke:none;">10.1021/nn1006368</text>
   <text y="567.439" x="221.501,226.829,233.493,235.741,241.485" svgx:width="0.67,0.83,0.28,0.72,0.28" style="fill:rgb(0,0,0);font-family:Helvetica;font-size:8.0px;stroke:none;">PMID:</text>
   <text y="567.439" x="245.425,249.841,254.257,258.673,263.089,267.505,271.921,276.337" svgx:width="0.55,0.55,0.55,0.55,0.55,0.55,0.55,0.55" style="fill:rgb(59,90,166);font-family:Helvetica;font-size:8.0px;stroke:none;">20731455</text>
   <text y="580.421" x="200.468,204.883,209.299" svgx:width="0.55,0.55,0.28" style="fill:rgb(0,0,0);font-family:Helvetica-Bold;font-size:8.0px;stroke:none;">19.</text>
   <text y="580.421" x="221.501,226.829,231.245,237.909,242.325,246.725,248.429,253.757,259.085,265.749,267.98900000000003,269.689,274.601,279.017,283.433,287.83299999999997,289.589,295.837,298.077,299.794,307.369,311.769,313.513,318.84,321.08,322.867,328.611,333.027,337.443,341.859,346.25899999999996,347.982,353.31,355.55,357.28,363.944" svgx:width="0.67,0.55,0.83,0.55,0.55,0.55,0.67,0.67,0.83,0.28,0.55,0.61,0.55,0.55,0.55,0.55,0.78,0.28,0.55,0.95,0.55,0.55,0.67,0.28,0.55,0.72,0.55,0.55,0.55,0.55,0.55,0.67,0.28,0.55,0.83,0.55" style="fill:rgb(0,0,0);font-family:Helvetica;font-size:8.0px;stroke:none;">Ahmed KAM, Zeng Q, Wu K, Huang K. Mn</text>
  </g>
  <g begin="text">
   <text y="581.726" x="368.334" svgx:width="0.55" style="fill:rgb(0,0,0);font-family:Helvetica;font-size:5.33px;stroke:none;">3</text>
  </g>
  <g begin="text">
   <text y="580.422" x="371.622" svgx:width="0.78" style="fill:rgb(0,0,0);font-family:Helvetica;font-size:8.0px;stroke:none;">O</text>
  </g>
  <g begin="text">
   <text y="581.726" x="377.858" svgx:width="0.55" style="fill:rgb(0,0,0);font-family:Helvetica;font-size:5.33px;stroke:none;">4</text>
  </g>
  <g begin="text">
   <text y="580.422" x="382.961,387.377,391.792,396.208,400.624,405.04,406.784,411.079,413.327,417.743,421.743,423.495,427.911,432.327,436.727,438.462,442.878,447.294,451.71,456.126,460.542,464.958,467.622,469.756,471.5,475.5,477.244,481.66,485.66,487.90000000000003,489.656,494.984,498.984,503.4,505.648,510.064,514.374,518.374,520.118,524.118,526.3580000000001,528.093,532.093,536.509,540.925,543.589,548.005,552.005,554.253,558.669,561.333,563.077,567.077,571.493" svgx:width="0.55,0.55,0.55,0.55,0.55,0.22,0.55,0.28,0.55,0.5,0.55,0.55,0.55,0.55,0.55,0.55,0.55,0.55,0.55,0.55,0.55,0.33,0.28,0.22,0.5,0.22,0.55,0.5,0.28,0.55,0.67,0.5,0.55,0.28,0.55,0.55,0.5,0.22,0.5,0.28,0.55,0.5,0.55,0.55,0.33,0.55,0.5,0.28,0.55,0.33,0.22,0.5,0.55,0.33" style="fill:rgb(0,0,0);font-family:Helvetica;font-size:8.0px;stroke:none;">nanoplates and nanoparticles: Synthesis, characteriza-</text>
   <text y="589.946" x="221.5,223.748,225.492,229.908,234.324,236.56400000000002,238.282,242.698,244.442,248.857,252.857,255.105,257.769,262.185,266.185,270.601,274.905,281.569,283.313,287.313,291.729,293.489,295.201,299.617,304.033,308.433,310.168,314.168,318.584,320.832,325.248,326.992,330.992,333.24,334.984,338.984,340.668,345.084,347.748,352.164,356.58,360.996,363.66,365.908,367.652,372.068,376.068,378.308,380.013,384.013,386.253,388.006,393.334,397.75,399.494,401.238,405.638,407.338,412.666,414.914,419.33,421.578,425.97799999999995,427.747,433.491,437.907,442.323,448.987,451.22700000000003,452.919,457.335,461.751,466.167,470.583,472.82300000000004,474.519,478.935,483.351,487.766,490.014,494.43,498.846,503.262,507.571,511.987,516.403,520.819" svgx:width="0.28,0.22,0.55,0.55,0.28,0.55,0.55,0.22,0.55,0.5,0.28,0.33,0.55,0.5,0.55,0.55,0.83,0.22,0.5,0.55,0.22,0.55,0.55,0.55,0.55,0.55,0.5,0.55,0.28,0.55,0.22,0.5,0.28,0.22,0.5,0.55,0.55,0.33,0.55,0.55,0.55,0.33,0.28,0.22,0.55,0.5,0.28,0.55,0.5,0.28,0.55,0.67,0.55,0.22,0.22,0.55,0.55,0.67,0.28,0.55,0.28,0.55,0.55,0.72,0.55,0.55,0.83,0.28,0.55,0.55,0.55,0.55,0.55,0.28,0.55,0.55,0.55,0.55,0.28,0.55,0.55,0.55,0.55,0.55,0.55,0.55,0.28" style="fill:rgb(0,0,0);font-family:Helvetica;font-size:8.0px;stroke:none;">tion, electrochemical and catalytic properties. J. Solid State Chem. 2010; 183:744–751.</text>
   <text y="602.929" x="200.468,204.884,209.3" svgx:width="0.55,0.55,0.28" style="fill:rgb(0,0,0);font-family:Helvetica-Bold;font-size:8.0px;stroke:none;">20.</text>
   <text y="602.929" x="221.5,227.244,231.66,236.076,240.492,244.908,247.572,251.988,255.988,260.278,266.942,271.358,274.022,278.42199999999997,280.177,286.425,288.665,290.382,295.71,300.126,304.542,308.958,313.358,315.1,319.1,321.34000000000003,323.093,329.341,331.085,335.48499999999996,337.21,341.626,343.866,345.6,350.512,354.928,359.344,363.74399999999997,365.5,370.828,373.068,374.797,380.125,384.541,386.789,391.205,392.949,397.365,401.365,403.109,407.109,408.812,413.724,415.964,417.713,423.041,427.457,431.457,433.705,438.121,442.52099999999996,444.189,449.933,455.677,457.91700000000003,459.665,464.993,469.409,473.825,478.22499999999997,479.961,483.961,489.705,491.945,493.681,499.009,500.753,505.169,509.56899999999996,511.313,516.225,518.465,520.213,524.629,526.389,528.15,533.894,536.134,537.844,542.26,544.004,548.404,550.146,554.146,559.058" svgx:width="0.72,0.55,0.55,0.55,0.55,0.33,0.55,0.5,0.55,0.83,0.55,0.33,0.55,0.55,0.78,0.28,0.55,0.67,0.55,0.55,0.55,0.55,0.55,0.5,0.28,0.55,0.78,0.22,0.55,0.55,0.55,0.28,0.55,0.61,0.55,0.55,0.55,0.55,0.67,0.28,0.55,0.67,0.55,0.28,0.55,0.22,0.55,0.5,0.22,0.5,0.55,0.61,0.28,0.55,0.67,0.55,0.5,0.28,0.55,0.55,0.55,0.72,0.72,0.28,0.55,0.67,0.55,0.55,0.55,0.55,0.5,0.72,0.28,0.55,0.67,0.22,0.55,0.55,0.55,0.61,0.28,0.55,0.55,0.22,0.55,0.72,0.28,0.55,0.55,0.22,0.55,0.55,0.5,0.61,0.28" style="fill:rgb(0,0,0);font-family:Helvetica;font-size:8.0px;stroke:none;">Chandrakumara G, Shang J, Qiu L, Fang X, Antolasic F, Easton CD, Song JC, Alan T, Li D, Liu JZ.</text>
   <text y="612.396" x="221.5,226.412,230.828,235.244,236.988,241.404,245.804,247.465,249.713,254.129,258.529,260.278,266.526,270.526,274.526,278.942,283.358,287.758,289.418,294.33,298.746,303.162,307.162,309.41,311.154,315.569,319.985,324.284,326.044,327.742,333.99,336.654,341.07,345.486,349.902,353.902,355.579,357.323,361.72299999999996,363.458,369.202,373.618,378.034,382.45,386.45,390.866,395.26599999999996,396.907,403.155,405.819,410.235,414.651,419.067,423.482,427.898,432.298,433.927,440.175,444.175,445.919,450.335,454.73499999999996,456.434,461.762,466.178,470.594,475.01,477.674,481.674,483.363,485.611,490.01099999999997,491.697,497.025,501.441,505.857,510.273,514.689,518.689,523.0889999999999,524.748,526.996,531.412,535.812,537.561,542.889,544.633,549.049,553.049,555.297,557.961,562.279,568.943,573.359" svgx:width="0.61,0.55,0.55,0.22,0.55,0.55,0.55,0.28,0.55,0.55,0.55,0.78,0.5,0.5,0.55,0.55,0.55,0.55,0.61,0.55,0.55,0.5,0.28,0.22,0.55,0.55,0.55,0.22,0.55,0.78,0.33,0.55,0.55,0.55,0.5,0.55,0.22,0.55,0.55,0.72,0.55,0.55,0.55,0.5,0.55,0.55,0.55,0.78,0.33,0.55,0.55,0.55,0.55,0.55,0.55,0.55,0.78,0.5,0.22,0.55,0.55,0.55,0.67,0.55,0.55,0.55,0.33,0.5,0.55,0.28,0.55,0.55,0.67,0.55,0.55,0.55,0.55,0.5,0.55,0.55,0.28,0.55,0.55,0.55,0.67,0.22,0.55,0.5,0.28,0.33,0.55,0.83,0.55,0.33" style="fill:rgb(0,0,0);font-family:Helvetica;font-size:8.0px;stroke:none;">Tuning the Oxygen Functional Groups in Reduced Graphene Oxide Papers to Enhance the Electrome-</text>
   <text y="621.921" x="221.5,225.5,229.916,234.332,238.748,240.492,244.492,248.908,250.66799999999998,252.341,257.669,261.669,263.917,268.333,272.749,274.997,276.741,281.157,285.573,287.813,289.475,295.219,300.546,308.014,313.341,317.757,321.757,323.997,325.758,330.174,334.59,339.006,343.422,345.66200000000003,347.358,351.774,354.022,358.438,362.854,367.27,371.686,375.988,380.404,384.82,389.236,393.652,398.068,402.484" svgx:width="0.5,0.55,0.55,0.55,0.22,0.5,0.55,0.22,0.55,0.67,0.5,0.28,0.55,0.55,0.28,0.22,0.55,0.55,0.28,0.55,0.72,0.67,0.72,0.67,0.55,0.5,0.28,0.55,0.55,0.55,0.55,0.55,0.28,0.55,0.55,0.28,0.55,0.55,0.55,0.55,0.55,0.55,0.55,0.55,0.55,0.55,0.55,0.28" style="fill:rgb(0,0,0);font-family:Helvetica;font-size:8.0px;stroke:none;">chanical Actuation. RSCAdv. 2015; 5:68052–68060.</text>
   <text y="634.903" x="200.468,204.884,209.3" svgx:width="0.55,0.55,0.28" style="fill:rgb(0,0,0);font-family:Helvetica-Bold;font-size:8.0px;stroke:none;">21.</text>
   <text y="634.903" x="221.5,228.164,232.58,234.828,237.076,241.492,245.492,247.25199999999998,248.94,254.684,256.924,258.691,264.019,268.435,272.835,274.564,280.812,283.052,284.769,290.097,294.513,298.929,303.345,305.089,306.849,308.524,313.852,316.092,317.878,324.542,326.286,328.03,329.774,334.19,336.83,338.571,343.899,346.139,347.868,354.532,358.532,362.948,367.364,371.364,375.78,380.17999999999995,381.884,387.212,392.54,394.78000000000003,396.51,402.254,406.67,408.414,410.158,414.158,415.899,422.147,424.387,426.103,430.519,432.759,434.55,438.966,440.71,442.95,444.698,450.026,454.026,458.442,460.186,464.602,466.85,468.594,473.01,477.40999999999997,479.055,483.471,485.711,487.502,492.83,494.574,498.99,502.99,505.237,507.901,509.645,513.645,517.945,519.689,521.929,523.728,529.472,533.888,538.304,544.968,546.712,550.712,555.022,556.766,559.006,560.805,565.221,569.637" svgx:width="0.83,0.55,0.28,0.28,0.55,0.5,0.22,0.55,0.72,0.28,0.55,0.67,0.55,0.55,0.55,0.78,0.28,0.55,0.67,0.55,0.55,0.55,0.22,0.22,0.55,0.67,0.28,0.55,0.83,0.22,0.22,0.22,0.55,0.33,0.55,0.67,0.28,0.55,0.83,0.5,0.55,0.55,0.5,0.55,0.55,0.55,0.67,0.67,0.28,0.55,0.72,0.55,0.22,0.22,0.5,0.55,0.78,0.28,0.55,0.55,0.28,0.55,0.55,0.22,0.28,0.55,0.67,0.5,0.55,0.22,0.55,0.28,0.22,0.55,0.55,0.55,0.55,0.28,0.55,0.67,0.22,0.55,0.5,0.28,0.33,0.22,0.5,0.55,0.22,0.28,0.55,0.72,0.55,0.55,0.83,0.22,0.5,0.55,0.22,0.28,0.55,0.55,0.55,0.55" style="fill:rgb(0,0,0);font-family:Helvetica;font-size:8.0px;stroke:none;">Mattevi C, Eda G, Agnoli S, Miller S, Mkhoyan KA, Celik O, et al. Evolution of Electrical, Chemical, and</text>
   <text y="644.428" x="221.5,226.828,229.076,231.74,236.156,240.156,242.404,246.82,249.484,253.9,255.66,257.33,262.658,265.322,269.738,274.154,278.57,281.234,283.482,285.226,289.531,293.531,295.315,299.73,301.97,303.705,308.617,311.281,315.697,320.113,324.113,328.529,332.944,335.608,340.024,344.296,346.536,348.322,352.738,357.154,361.554,363.289,369.033,373.449,377.865,382.281,386.697,390.697,392.944,394.688,399.004,403.404,405.184,410.927,415.343,419.759,426.423,428.167,432.167,436.478,438.222,439.966,443.966,445.719,451.463,455.879,458.543,460.287,464.287,468.703,473.10299999999995,474.803,481.051,483.715,488.13,492.546,496.962,501.378,505.794,510.19399999999996,511.879,516.791,521.207,522.951,527.351,529.114,534.026,535.77,537.514,544.178,548.178,550.418,552.131,557.459,561.875,565.875" svgx:width="0.67,0.28,0.33,0.55,0.5,0.28,0.55,0.33,0.55,0.22,0.55,0.67,0.33,0.55,0.55,0.55,0.33,0.28,0.22,0.55,0.5,0.55,0.55,0.28,0.55,0.61,0.33,0.55,0.55,0.5,0.55,0.55,0.33,0.55,0.55,0.28,0.55,0.55,0.55,0.55,0.55,0.72,0.55,0.55,0.55,0.55,0.5,0.28,0.22,0.55,0.55,0.55,0.72,0.55,0.55,0.83,0.22,0.5,0.55,0.22,0.22,0.5,0.55,0.72,0.55,0.33,0.22,0.5,0.55,0.55,0.55,0.78,0.33,0.55,0.55,0.55,0.55,0.55,0.55,0.55,0.61,0.55,0.22,0.55,0.55,0.61,0.22,0.22,0.83,0.5,0.28,0.55,0.67,0.55,0.5,0.28" style="fill:rgb(0,0,0);font-family:Helvetica;font-size:8.0px;stroke:none;">Structural Properties of Transparent and Conducting Chemically Derived Graphene Thin Films. Adv.</text>
   <text y="653.896" x="221.5,226.412,230.828,235.244,239.244,241.492,243.732,245.425,252.089,256.505,258.753,263.169,265.832,268.072,269.803,274.219,278.635,283.051,287.467,289.707,291.403,295.819,300.234,302.482,306.898,311.314,315.73,320.146" svgx:width="0.61,0.55,0.55,0.5,0.28,0.28,0.55,0.83,0.55,0.28,0.55,0.33,0.28,0.55,0.55,0.55,0.55,0.55,0.28,0.55,0.55,0.55,0.28,0.55,0.55,0.55,0.55,0.28" style="fill:rgb(0,0,0);font-family:Helvetica;font-size:8.0px;stroke:none;">Funct. Mater. 2009; 19:2577.</text>
   <text y="666.935" x="200.468,204.884,209.3" svgx:width="0.55,0.55,0.28" style="fill:rgb(0,0,0);font-family:Helvetica-Bold;font-size:8.0px;stroke:none;">22.</text>
   <text y="666.935" x="221.5,226.412,230.828,235.244,239.644,241.342,246.67,248.91,250.697,256.025,260.441,264.84099999999995,266.571,272.819,275.059,276.776,281.688,286.103,290.519,294.919,296.674,301.09,306.418,310.834,313.074,314.817,319.729,324.145,328.561,332.976,337.376,339.081,344.409,346.649,348.379,352.795,357.211,361.611,363.346,368.674,374.002,376.242,377.972,383.716,387.716,392.132,394.796,399.212,401.46,405.876,410.292,412.955,419.619,424.035,425.795,427.407,433.151,437.567,441.983,445.983,450.399,453.063,457.479,459.727,461.471,465.788,470.188,471.968,474.215,478.631,481.27099999999996,483.023,485.271,489.686,494.08599999999996,495.835,498.499,504.747,507.411,511.827,516.243,520.659,523.299,525.032,530.776,535.192,539.607,544.023,548.023,550.271,552.015,556.326,560.726,562.506,566.922" svgx:width="0.61,0.55,0.55,0.55,0.55,0.67,0.28,0.55,0.67,0.55,0.55,0.55,0.78,0.28,0.55,0.61,0.55,0.55,0.55,0.55,0.55,0.67,0.55,0.28,0.55,0.61,0.55,0.55,0.55,0.55,0.55,0.67,0.28,0.55,0.55,0.55,0.55,0.55,0.67,0.67,0.28,0.55,0.72,0.5,0.55,0.33,0.55,0.28,0.55,0.55,0.33,0.83,0.55,0.22,0.55,0.72,0.55,0.55,0.5,0.55,0.33,0.55,0.28,0.22,0.55,0.55,0.55,0.28,0.55,0.33,0.55,0.28,0.55,0.55,0.55,0.33,0.78,0.33,0.55,0.55,0.55,0.33,0.55,0.72,0.55,0.55,0.55,0.5,0.28,0.22,0.55,0.55,0.55,0.55,0.28" style="fill:rgb(0,0,0);font-family:Helvetica;font-size:8.0px;stroke:none;">Zhou Y, Bao Q, Tang LAL, Zhong Y, Loh KP. Hydrothermal Dehydration for the “Green” Reduction of</text>
   <text y="676.403" x="221.5,226.828,230.828,233.076,237.492,239.236,240.98,245.396,247.644,252.06,256.46,258.124,264.372,267.036,271.452,275.868,280.284,284.699,289.115,293.515,295.201,301.449,305.449,307.193,311.609,316.00899999999996,317.765,320.013,324.41299999999995,326.155,332.403,335.067,339.483,343.899,348.315,352.731,357.147,361.54699999999997,363.232,367.648,372.064,376.464,378.199,383.943,388.359,395.023,399.439,403.855,407.735,409.983,412.647,417.063,419.311,421.055,425.47,429.87,431.602,436.018,438.258,439.993,444.905,449.321,453.737,458.152,462.568,464.312,468.712,470.437,476.685,481.101,483.349,485.093,489.093,493.509,495.269,496.969,501.385,503.129,509.793,511.537,513.785,515.529,519.945,524.345,526.052,531.38,534.044,538.46,542.876,547.292,549.956,552.204,553.948,558.254,562.254" svgx:width="0.67,0.5,0.28,0.55,0.22,0.22,0.55,0.28,0.55,0.55,0.55,0.78,0.33,0.55,0.55,0.55,0.55,0.55,0.55,0.55,0.78,0.5,0.22,0.55,0.55,0.55,0.28,0.55,0.55,0.78,0.33,0.55,0.55,0.55,0.55,0.55,0.55,0.55,0.55,0.55,0.55,0.55,0.72,0.55,0.83,0.55,0.55,0.5,0.28,0.33,0.55,0.28,0.22,0.55,0.55,0.55,0.55,0.28,0.55,0.61,0.55,0.55,0.55,0.55,0.22,0.55,0.55,0.78,0.55,0.28,0.22,0.5,0.55,0.22,0.55,0.55,0.22,0.83,0.22,0.28,0.22,0.55,0.55,0.55,0.67,0.33,0.55,0.55,0.55,0.33,0.28,0.22,0.55,0.5,0.28" style="fill:rgb(0,0,0);font-family:Helvetica;font-size:8.0px;stroke:none;">Exfoliated Graphene Oxide to Graphene and Demonstration of Tunable Optical Limiting Properties.</text>
   <text y="685.926" x="221.5,227.244,231.66,236.076,242.74,244.98000000000002,246.672,253.336,257.752,260.0,264.416,267.08,269.32,271.05,275.466,279.882,284.298,288.714,290.954,292.65,297.066,301.482,303.73,308.146,312.561,316.977,321.393,325.701,330.117,334.533,338.949,343.365" svgx:width="0.72,0.55,0.55,0.83,0.28,0.55,0.83,0.55,0.28,0.55,0.33,0.28,0.55,0.55,0.55,0.55,0.55,0.28,0.55,0.55,0.55,0.28,0.55,0.55,0.55,0.55,0.55,0.55,0.55,0.55,0.55,0.28" style="fill:rgb(0,0,0);font-family:Helvetica;font-size:8.0px;stroke:none;">Chem. Mater. 2009; 21:2950–2956.</text>
  </g>
  <path style="fill:rgb(0,0,0);stroke:none;stroke-width:1.0;" d="M576.000 54.900 L36.000 54.900 L36.000 54.400 L576.000 54.400 "/>
  <rect style="stroke:blue;stroke-width:0.3;" x="36.0" y="35.043" height="23.64" width="107.093" title="10"/>
  <text y="35.043" class="image" id="image.10.1" width="107" height="23" x="36.0">image.10.1.36_143.35_59</text>
  <g begin="text">
   <text y="46.205" x="429.619,434.531,438.947,443.363,446.027,447.771,451.771,456.186,458.434,460.178,464.485,468.885,470.664,475.08,477.32,479.054,481.718,487.462,491.878,494.126,500.79,505.206" svgx:width="0.61,0.55,0.55,0.33,0.22,0.5,0.55,0.28,0.22,0.55,0.55,0.55,0.55,0.28,0.55,0.33,0.72,0.55,0.28,0.83,0.55,0.33" style="fill:rgb(0,0,0);font-family:Helvetica;font-size:8.0px;stroke:none;">Fabrication of (Co,Mn)</text>
  </g>
  <g begin="text">
   <text y="47.509" x="507.798" svgx:width="0.55" style="fill:rgb(0,0,0);font-family:Helvetica;font-size:5.33px;stroke:none;">3</text>
  </g>
  <g begin="text">
   <text y="46.205" x="511.143" svgx:width="0.78" style="fill:rgb(0,0,0);font-family:Helvetica;font-size:8.0px;stroke:none;">O</text>
  </g>
  <g begin="text">
   <text y="47.509" x="517.323" svgx:width="0.55" style="fill:rgb(0,0,0);font-family:Helvetica;font-size:5.33px;stroke:none;">4</text>
  </g>
  <g begin="text">
   <text y="46.205" x="520.668,522.916,525.58,531.828,539.773,543.773,548.189,554.853,559.269,563.685,567.685,569.429,571.677" svgx:width="0.28,0.33,0.78,0.78,0.5,0.55,0.83,0.55,0.55,0.5,0.22,0.28,0.55" style="fill:rgb(0,0,0);font-family:Helvetica;font-size:8.0px;stroke:none;">/rGOcomposite</text>
  </g>
  <path style="fill:rgb(0,0,0);stroke:none;stroke-width:1.0;" d="M36.000 744.000 L576.000 744.000 L576.000 744.500 L36.000 744.500 "/>
  <g begin="text">
   <text y="756.0" x="36.0,41.328,45.744,51.992,57.352,59.017,65.264,71.008,76.368,78.066,80.146,81.921,87.665,93.913,96.161,98.409,102.825,107.241,109.489,113.782,118.198,122.614,127.03,129.278,131.022,135.438,139.854,142.518,146.834,151.25,152.994,155.242,159.658,164.074,168.49,172.906,175.153,179.569,183.985,188.401,192.698,197.114,201.53,205.93,213.901,220.149,224.149,226.397,230.813,235.229,239.645,242.285,244.005,248.421,252.837,255.077,256.817,261.233,265.649,270.065,274.465,552.64,557.056,561.456,563.185" svgx:width="0.67,0.55,0.78,0.67,0.55,0.78,0.72,0.67,0.55,0.26,0.55,0.72,0.78,0.28,0.28,0.55,0.55,0.28,0.55,0.55,0.55,0.55,0.28,0.22,0.55,0.55,0.33,0.55,0.55,0.22,0.28,0.55,0.55,0.55,0.55,0.28,0.55,0.55,0.55,0.55,0.55,0.55,0.55,0.55,0.78,0.5,0.28,0.55,0.55,0.55,0.33,0.55,0.55,0.55,0.28,0.55,0.55,0.55,0.55,0.55,0.55,0.55,0.55,0.55,0.28" style="fill:rgb(0,0,0);font-family:Helvetica;font-size:8.0px;stroke:none;">PLOS ONE | DOI:10.1371/journal.pone.0164657 October 27, 2016 10 /</text>
  </g>
  <g begin="text">
   <text y="756.0" x="567.209,571.625" svgx:width="0.55,0.55" style="fill:rgb(0,0,0);font-family:Helvetica;font-size:8.0px;stroke:none;">11</text>
  </g>
 </g>
</svg>
