<?xml version="1.0" encoding="UTF-8"?>
<svg height="766.0" width="4190.0" xmlns="http://www.w3.org/2000/svg">
 <g id="page" xmlns:svgx="http://www.xml-cml.org/schema/svgx">
  <path style="fill:rgb(59,90,166);stroke:none;stroke-width:1.0;" d="M296.280 557.290 L322.580 557.290 Z"/>
  <path style="fill:rgb(59,90,166);stroke:none;stroke-width:1.0;" d="M432.790 622.320 L442.370 622.320 Z"/>
  <path style="fill:rgb(59,90,166);stroke:none;stroke-width:1.0;" d="M474.800 674.310 L500.030 674.310 Z"/>
  <g begin="text">
   <text y="526.224" x="200.012,206.636,209.252,213.248,216.62,223.244,229.844,232.497,240.489,247.113,250.485,253.857,260.481,264.477,267.093,273.717,279.717,282.329,290.321,296.945,300.941,304.313,310.937,314.933,324.929,331.553,338.177,344.177" svgx:width="0.55,0.22,0.33,0.28,0.55,0.55,0.55,0.67,0.55,0.28,0.28,0.55,0.33,0.22,0.55,0.5,0.55,0.67,0.55,0.33,0.28,0.55,0.33,0.83,0.55,0.55,0.5,0.55" style="fill:rgb(0,0,0);font-family:Helvetica;font-size:12.0px;stroke:none;">Li-Ion Batteries Performance</text>
  </g>
  <g begin="text">
   <text y="543.232" x="200.012,206.822,211.813,214.482,219.952,223.512,226.582,231.182,236.512,240.812,242.361,246.602,250.801,253.382,255.882,257.896,264.736,269.116,272.816,274.902,280.182,283.922,288.232,293.53200000000004,295.313,298.303,303.403,305.573,309.914,314.534,318.964,321.374,326.703,330.914,333.904,338.204,340.213,343.302,348.603,352.903,354.896,357.417,359.977,363.066,368.386,370.946,376.246,386.531,390.151,393.141,398.13,401.841,406.171,410.781,415.081,417.144,422.274,425.854,430.844,436.174,440.414,444.225,447.325,449.984,454.214,457.914,459.72,464.711,467.711,469.868,473.328,480.138,484.938,487.219,496.078,501.549" svgx:width="0.67,0.51,0.27,0.55,0.36,0.31,0.46,0.52,0.43,0.55,0.42,0.43,0.25,0.25,0.55,0.69,0.44,0.37,0.55,0.53,0.37,0.43,0.53,0.55,0.31,0.51,0.55,0.43,0.46,0.44,0.25,0.53,0.44,0.31,0.43,0.55,0.31,0.53,0.43,0.55,0.25,0.27,0.31,0.53,0.27,0.53,0.82,0.37,0.31,0.51,0.37,0.44,0.47,0.43,0.55,0.52,0.37,0.51,0.52,0.43,0.37,0.31,0.27,0.43,0.37,0.55,0.51,0.3,0.55,0.35,0.67,0.51,0.23,0.89,0.55,0.35" style="fill:rgb(0,0,0);font-family:MinionPro-Regular;font-size:10.0px;stroke:none;">Coin-type cell was used to evaluate the lithiumstorage properties of (Co,Mn)</text>
  </g>
  <g begin="text">
   <text y="544.876" x="504.794" svgx:width="0.48" style="fill:rgb(0,0,0);font-family:MinionPro-Regular;font-size:6.67px;stroke:none;">3</text>
  </g>
  <g begin="text">
   <text y="543.232" x="508.365" svgx:width="0.75" style="fill:rgb(0,0,0);font-family:MinionPro-Regular;font-size:10.0px;stroke:none;">O</text>
  </g>
  <g begin="text">
   <text y="544.876" x="515.792" svgx:width="0.48" style="fill:rgb(0,0,0);font-family:MinionPro-Regular;font-size:6.67px;stroke:none;">4</text>
  </g>
  <g begin="text">
   <text y="543.232" x="519.364,522.674,526.384,533.534,542.948,547.188,552.178,560.368" svgx:width="0.33,0.37,0.71,0.75,0.42,0.51,0.82,0.36" style="fill:rgb(0,0,0);font-family:MinionPro-Regular;font-size:10.0px;stroke:none;">/rGOcom-</text>
   <text y="556.214" x="200.015,205.345,210.435,214.085,216.645,219.635,223.935,225.867,230.247,233.947,236.072,238.592,241.152,244.242,249.562,252.122,257.422,267.706,272.016,277.446,282.636,287.896,292.086" svgx:width="0.52,0.51,0.37,0.27,0.31,0.43,0.55,0.44,0.37,0.55,0.25,0.27,0.31,0.53,0.27,0.53,0.82,0.44,0.55,0.51,0.53,0.43,0.23" style="fill:rgb(0,0,0);font-family:MinionPro-Regular;font-size:10.0px;stroke:none;">posite as lithiumanode.</text>
   <text y="556.214" x="296.279,301.399,304.069,308.769,310.906,315.706" svgx:width="0.53,0.27,0.47,0.55,0.48,0.69" style="fill:rgb(59,90,166);font-family:MinionPro-Regular;font-size:10.0px;stroke:none;">Fig 4A</text>
   <text y="556.214" x="324.739,328.359,333.659,338.609,345.449,349.149,351.384,354.474,359.774,364.074,366.068,369.138,371.808,375.448,379.068,382.168,384.096,387.186,392.506,396.086,400.396,404.696,406.66,410.83,416.14,420.45,424.08,428.69,432.94,436.5,441.77,444.42,448.16,452.33,457.64,461.95,465.58,470.19,474.49,476.392,481.522,485.102,490.092,493.162,495.892,498.402,502.632,506.332,508.309,513.299,516.299,518.457,522.837,526.507,530.067,533.747,538.367,543.647,546.737,552.037,556.267,559.917,562.597,566.817,571.127" svgx:width="0.37,0.53,0.51,0.69,0.37,0.55,0.31,0.53,0.43,0.55,0.3,0.27,0.37,0.37,0.31,0.55,0.31,0.53,0.37,0.43,0.43,0.55,0.42,0.53,0.44,0.37,0.47,0.43,0.36,0.53,0.27,0.37,0.42,0.53,0.44,0.37,0.47,0.43,0.55,0.52,0.37,0.51,0.3,0.27,0.25,0.43,0.37,0.55,0.51,0.3,0.55,0.44,0.37,0.36,0.37,0.46,0.55,0.31,0.53,0.43,0.37,0.27,0.42,0.43,0.53" style="fill:rgb(0,0,0);font-family:MinionPro-Regular;font-size:10.0px;stroke:none;">shows the first three charge-discharge profiles of as-synthesized</text>
   <text y="569.253" x="200.015,203.745,208.055,216.055,221.235,223.745,228.04500000000002,230.232,234.442,237.542,239.87,244.27,246.447,250.737,256.037,259.787,263.367,267.607,272.887,275.987,277.911,283.171,287.411,292.801,296.451,299.011,302.081,306.68100000000004,308.808,313.798,316.798,318.9,323.7,328.5,333.3,335.511,343.701,350.601,352.745" svgx:width="0.37,0.44,0.82,0.52,0.25,0.43,0.55,0.44,0.31,0.55,0.44,0.55,0.42,0.53,0.37,0.37,0.43,0.55,0.31,0.55,0.53,0.43,0.55,0.37,0.27,0.31,0.46,0.55,0.51,0.3,0.55,0.48,0.48,0.48,0.55,0.82,0.69,0.55,0.47" style="fill:rgb(0,0,0);font-family:MinionPro-Regular;font-size:10.0px;stroke:none;">sample at a current density of 100 mA g</text>
  </g>
  <g begin="text">
   <text y="564.775" x="357.335,360.005" svgx:width="0.36,0.48" style="fill:rgb(0,0,0);font-family:MinionPro-Regular;font-size:6.67px;stroke:none;">-1</text>
  </g>
  <g begin="text">
   <text y="569.254" x="365.783,368.453,373.953,375.987,379.077,384.377,388.677,390.727,394.437,398.767,403.377,407.677,409.719,414.709,417.709,419.811,424.611,426.891,431.691,436.491,442.291,447.091,449.371,454.171,456.094,463.094,465.278,468.738,473.358,477.028,479.32800000000003,481.379,486.809,489.489,492.799,498.229" svgx:width="0.27,0.55,0.55,0.31,0.53,0.43,0.55,0.37,0.44,0.47,0.43,0.55,0.51,0.3,0.55,0.48,0.23,0.48,0.48,0.58,0.48,0.23,0.48,0.55,0.7,0.55,0.35,0.46,0.37,0.23,0.55,0.54,0.27,0.33,0.54,0.27" style="fill:rgb(0,0,0);font-family:MinionPro-Regular;font-size:10.0px;stroke:none;">in the rage of 0.01~3.0 V (vs. Li/Li</text>
  </g>
  <g begin="text">
   <text y="564.775" x="500.428" svgx:width="0.58" style="fill:rgb(0,0,0);font-family:MinionPro-Regular;font-size:6.67px;stroke:none;">+</text>
  </g>
  <g begin="text">
   <text y="569.254" x="504.737,508.197" svgx:width="0.35,0.23" style="fill:rgb(0,0,0);font-family:MinionPro-Regular;font-size:10.0px;stroke:none;">).</text>
   <text y="582.236" x="211.977,218.137,223.437,227.73700000000002,229.835,232.905,235.575,239.215,242.835,245.935,247.864,253.134,255.784,259.524,263.694,269.004,273.314,276.944,281.554,285.854,287.832,292.092,296.302,301.592,305.962,310.192,312.752,315.822,320.422,322.584,325.234,328.93399999999997,331.032,335.832,340.632,345.432,350.232,352.405,360.595,367.545,372.845,374.912" svgx:width="0.62,0.53,0.43,0.55,0.3,0.27,0.37,0.37,0.31,0.55,0.53,0.27,0.37,0.42,0.53,0.44,0.37,0.47,0.43,0.55,0.42,0.44,0.52,0.44,0.42,0.27,0.31,0.46,0.55,0.27,0.37,0.55,0.48,0.48,0.48,0.48,0.55,0.82,0.69,0.53,0.55,0.47" style="fill:rgb(0,0,0);font-family:MinionPro-Regular;font-size:10.0px;stroke:none;">The first discharge capacity is 1452 mAh g</text>
  </g>
  <g begin="text">
   <text y="577.814" x="379.502,382.172" svgx:width="0.36,0.48" style="fill:rgb(0,0,0);font-family:MinionPro-Regular;font-size:6.67px;stroke:none;">-1</text>
  </g>
  <g begin="text">
   <text y="582.236" x="385.795,388.095,390.16,394.47,399.9,405.2,407.394,410.484,415.784,420.084,422.078,425.148,427.818,431.458,435.078,438.178,440.163,444.333,449.643,453.953,457.583,462.193,466.493,468.622,473.612,479.042,483.342,485.403,488.053,491.753,493.851,498.651,503.451,508.251,513.0509999999999,515.28,523.47,530.42,535.7199999999999,537.787" svgx:width="0.23,0.55,0.44,0.55,0.53,0.55,0.31,0.53,0.43,0.55,0.3,0.27,0.37,0.37,0.31,0.55,0.42,0.53,0.44,0.37,0.47,0.43,0.55,0.51,0.55,0.43,0.55,0.27,0.37,0.55,0.48,0.48,0.48,0.48,0.55,0.82,0.69,0.53,0.55,0.47" style="fill:rgb(0,0,0);font-family:MinionPro-Regular;font-size:10.0px;stroke:none;">, and the first charge one is 1027 mAh g</text>
  </g>
  <g begin="text">
   <text y="577.814" x="542.381,545.051" svgx:width="0.36,0.48" style="fill:rgb(0,0,0);font-family:MinionPro-Regular;font-size:6.67px;stroke:none;">-1</text>
  </g>
  <g begin="text">
   <text y="582.236" x="548.617" svgx:width="0.23" style="fill:rgb(0,0,0);font-family:MinionPro-Regular;font-size:10.0px;stroke:none;">,</text>
   <text y="595.218" x="200.015,203.635,208.935,213.885,220.765,223.435,228.825,233.52499999999998,235.561,239.871,245.371,247.58,250.25,254.0,257.58,261.92,266.47,270.71,274.35,278.0,280.63,285.65,288.16,292.46000000000004,294.181,298.441,302.651,307.941,312.311,316.541,319.101,322.171,326.771,328.934,331.444,336.534,340.154,343.854,345.942,350.932,353.932,356.033,360.833,365.633,370.433,372.644,380.834,387.734,389.822,395.122,397.362" svgx:width="0.37,0.53,0.51,0.69,0.27,0.55,0.47,0.55,0.44,0.55,0.55,0.27,0.37,0.37,0.43,0.46,0.43,0.37,0.37,0.27,0.51,0.25,0.43,0.55,0.42,0.44,0.52,0.44,0.42,0.27,0.31,0.46,0.55,0.25,0.51,0.37,0.37,0.55,0.51,0.3,0.55,0.48,0.48,0.48,0.55,0.82,0.69,0.55,0.53,0.55,0.47" style="fill:rgb(0,0,0);font-family:MinionPro-Regular;font-size:10.0px;stroke:none;">showing an irreversible capacity loss of 400 mA h g</text>
  </g>
  <g begin="text">
   <text y="590.797" x="401.953,404.623" svgx:width="0.36,0.48" style="fill:rgb(0,0,0);font-family:MinionPro-Regular;font-size:6.67px;stroke:none;">-1</text>
  </g>
  <g begin="text">
   <text y="595.219" x="408.189,410.48900000000003,412.611,416.921,422.351,427.651,429.788,434.188,436.365,440.605,445.595,450.955,453.465,458.455,466.545,471.515,474.175,478.375,480.415,484.655,487.725,490.795,493.455,497.685,500.345,504.585,510.015,514.425,520.326,525.316,528.316,530.474,535.274,540.074,542.354,547.154,554.714,557.014,558.934,565.094,570.394" svgx:width="0.23,0.55,0.44,0.55,0.53,0.55,0.44,0.55,0.42,0.51,0.53,0.25,0.51,0.82,0.51,0.27,0.42,0.55,0.43,0.3,0.3,0.27,0.42,0.27,0.43,0.55,0.42,0.46,0.51,0.3,0.55,0.48,0.48,0.23,0.48,0.76,0.23,0.55,0.62,0.53,0.43" style="fill:rgb(0,0,0);font-family:MinionPro-Regular;font-size:10.0px;stroke:none;">, and a coulombic efficiencyof 70.7%. The</text>
   <text y="608.258" x="200.014,202.684,206.434,210.014,214.354,218.904,223.144,226.784,230.434,233.064,238.084,240.594,244.894,246.616,250.876,255.086,260.376,264.746,268.976,271.536,274.606,279.206,281.368,283.878,288.968,292.588,296.288,298.376,302.686,306.436,309.086,312.736,315.406,320.796,325.496,327.459,332.619,337.919,341.669,344.339,349.729,354.429,356.373,359.463,364.763,369.063,371.056,374.126,376.796,380.436,384.056,387.156,389.084,393.494,398.004,402.174,404.684,408.98400000000004,410.91,413.56,417.26,419.357,421.877,424.607,429.467,433.667,436.127,440.72700000000003,442.828,447.988,453.278,457.57800000000003,459.609,462.599,467.699,469.87,472.96,478.26,482.56,484.553,487.223,492.653,496.893,501.883,509.883,515.063,517.573,521.813,524.803,529.103,531.211,536.471,540.781,545.021,550.011,558.011,563.341,568.441" svgx:width="0.27,0.37,0.37,0.43,0.46,0.43,0.37,0.37,0.27,0.51,0.25,0.43,0.55,0.42,0.44,0.52,0.44,0.42,0.27,0.31,0.46,0.55,0.25,0.51,0.37,0.37,0.55,0.44,0.37,0.27,0.37,0.27,0.55,0.47,0.55,0.53,0.53,0.37,0.27,0.55,0.47,0.55,0.31,0.53,0.43,0.55,0.3,0.27,0.37,0.37,0.31,0.55,0.42,0.46,0.42,0.25,0.43,0.55,0.27,0.37,0.55,0.25,0.27,0.5,0.43,0.25,0.46,0.55,0.53,0.53,0.43,0.55,0.31,0.51,0.55,0.31,0.53,0.43,0.55,0.27,0.55,0.42,0.51,0.82,0.52,0.25,0.43,0.31,0.43,0.55,0.53,0.43,0.42,0.51,0.82,0.52,0.51,0.36" style="fill:rgb(0,0,0);font-family:MinionPro-Regular;font-size:10.0px;stroke:none;">irreversible capacity loss arising during the first cycle is likely due to the incomplete decompo-</text>
   <text y="621.24" x="200.014,203.664,206.224,209.324,211.984,216.974,222.474,224.506,229.496,232.496,234.654,240.084" svgx:width="0.37,0.27,0.31,0.27,0.51,0.55,0.55,0.51,0.3,0.55,0.54,0.27" style="fill:rgb(0,0,0);font-family:MinionPro-Regular;font-size:10.0px;stroke:none;">sition of Li</text>
  </g>
  <g begin="text">
   <text y="622.885" x="242.589" svgx:width="0.48" style="fill:rgb(0,0,0);font-family:MinionPro-Regular;font-size:6.67px;stroke:none;">2</text>
  </g>
  <g begin="text">
   <text y="621.241" x="246.161,255.742,260.052,265.482,270.78200000000004,272.976,276.066,281.366,285.666,287.659,292.929,295.599,298.669,301.739,304.399,308.689,314.049,316.459,319.559,321.051,326.321,328.971,332.591,336.331,341.371,343.781,348.971,352.071,354.731,359.721,365.221,367.142,372.132,375.132,377.29,380.38,385.68,389.98,391.974,396.604,402.284,405.68399999999997,407.848,410.398,414.608,419.118,423.358,426.428,428.708" svgx:width="0.75,0.44,0.55,0.53,0.55,0.31,0.53,0.43,0.55,0.53,0.27,0.3,0.3,0.27,0.42,0.53,0.25,0.31,0.55,0.53,0.27,0.37,0.37,0.51,0.25,0.53,0.31,0.27,0.51,0.55,0.55,0.51,0.3,0.55,0.31,0.53,0.43,0.55,0.47,0.57,0.34,0.55,0.25,0.44,0.46,0.43,0.37,0.23,0.34" style="fill:rgb(0,0,0);font-family:MinionPro-Regular;font-size:10.0px;stroke:none;">Oand the difficult dissolution of the SEI layer.[</text>
   <text y="621.241" x="432.158,436.958" svgx:width="0.48,0.48" style="fill:rgb(59,90,166);font-family:MinionPro-Regular;font-size:10.0px;stroke:none;">33</text>
   <text y="621.241" x="441.758,445.15799999999996,447.986,451.226,456.726,458.984,462.074,467.374,471.67400000000004,473.668,478.468,483.898,489.19800000000004,491.299,495.709,500.219,504.389,506.899,511.089,513.389,515.28,518.37,523.67,527.9699999999999,530.02,535.29,537.94,541.68,545.85,551.16,555.47,559.1,563.71" svgx:width="0.34,0.55,0.34,0.55,0.55,0.31,0.53,0.43,0.55,0.48,0.55,0.53,0.55,0.42,0.46,0.42,0.25,0.43,0.23,0.55,0.31,0.53,0.43,0.55,0.53,0.27,0.37,0.42,0.53,0.44,0.37,0.47,0.43" style="fill:rgb(0,0,0);font-family:MinionPro-Regular;font-size:10.0px;stroke:none;">] In the 2nd cycle, the discharge</text>
   <text y="634.223" x="200.014,204.324,209.754,215.054,217.192,221.362,226.672,230.982,234.612,239.222,243.52200000000002,245.708,249.968,254.178,259.468,263.838,268.068,270.628,273.698,278.298,280.403,284.713,288.293,292.593,294.803,299.603,304.403,309.203,314.003,316.176,324.366,331.316,336.616,338.739" svgx:width="0.44,0.55,0.53,0.55,0.42,0.53,0.44,0.37,0.47,0.43,0.55,0.42,0.44,0.52,0.44,0.42,0.27,0.31,0.46,0.55,0.44,0.37,0.43,0.55,0.48,0.48,0.48,0.48,0.55,0.82,0.69,0.53,0.55,0.47" style="fill:rgb(0,0,0);font-family:MinionPro-Regular;font-size:10.0px;stroke:none;">and charge capacity are 1082 mAh g</text>
  </g>
  <g begin="text">
   <text y="629.802" x="343.332,346.002" svgx:width="0.36,0.48" style="fill:rgb(0,0,0);font-family:MinionPro-Regular;font-size:6.67px;stroke:none;">-1</text>
  </g>
  <g begin="text">
   <text y="634.224" x="351.78,356.09,361.52,366.82,369.014,373.814,378.614,383.414,388.214,390.387,398.577,405.527,410.827,412.894" svgx:width="0.44,0.55,0.53,0.55,0.48,0.48,0.48,0.48,0.55,0.82,0.69,0.53,0.55,0.47" style="fill:rgb(0,0,0);font-family:MinionPro-Regular;font-size:10.0px;stroke:none;">and 1026 mAh g</text>
  </g>
  <g begin="text">
   <text y="629.802" x="417.487,420.157" svgx:width="0.36,0.48" style="fill:rgb(0,0,0);font-family:MinionPro-Regular;font-size:6.67px;stroke:none;">-1</text>
  </g>
  <g begin="text">
   <text y="634.224" x="425.934,430.244,435.674,440.974,443.168,445.838,451.338,453.373,456.463,461.763,466.063,468.113,472.913,476.493,481.793,483.987,488.397,492.907,497.077,499.587,503.887,505.757,508.847,514.147,518.447,520.497,525.767,528.417,532.157,536.327,541.637,545.947,549.577,554.187,558.487,560.408,564.718,570.148" svgx:width="0.44,0.55,0.53,0.55,0.27,0.55,0.55,0.31,0.53,0.43,0.55,0.48,0.37,0.53,0.55,0.42,0.46,0.42,0.25,0.43,0.55,0.31,0.53,0.43,0.55,0.53,0.27,0.37,0.42,0.53,0.44,0.37,0.47,0.43,0.55,0.44,0.55,0.53" style="fill:rgb(0,0,0);font-family:MinionPro-Regular;font-size:10.0px;stroke:none;">and in the 3rd cycle the discharge and</text>
   <text y="647.206" x="200.015,204.185,209.495,213.805,217.435,222.045,226.345,228.474,232.734,236.944,242.234,246.604,250.834,253.394,256.464,261.064,263.227,267.537,271.117,275.41700000000003,277.627,282.427,287.227,292.027,296.827,299.0,307.19,314.14,319.44,321.507" svgx:width="0.42,0.53,0.44,0.37,0.47,0.43,0.55,0.42,0.44,0.52,0.44,0.42,0.27,0.31,0.46,0.55,0.44,0.37,0.43,0.55,0.48,0.48,0.48,0.48,0.55,0.82,0.69,0.53,0.55,0.47" style="fill:rgb(0,0,0);font-family:MinionPro-Regular;font-size:10.0px;stroke:none;">charge capacity are 1076 mAh g</text>
  </g>
  <g begin="text">
   <text y="642.784" x="326.098,328.768" svgx:width="0.36,0.48" style="fill:rgb(0,0,0);font-family:MinionPro-Regular;font-size:6.67px;stroke:none;">-1</text>
  </g>
  <g begin="text">
   <text y="647.206" x="334.545,338.855,344.285,349.58500000000004,351.779,356.579,361.379,366.179,370.979,373.152,381.342,388.292,393.592,395.716" svgx:width="0.44,0.55,0.53,0.55,0.48,0.48,0.48,0.48,0.55,0.82,0.69,0.53,0.55,0.47" style="fill:rgb(0,0,0);font-family:MinionPro-Regular;font-size:10.0px;stroke:none;">and 1028 mAh g</text>
  </g>
  <g begin="text">
   <text y="642.784" x="400.309,402.979" svgx:width="0.36,0.48" style="fill:rgb(0,0,0);font-family:MinionPro-Regular;font-size:6.67px;stroke:none;">-1</text>
  </g>
  <g begin="text">
   <text y="647.206" x="406.545,408.845,410.91,414.49,418.72,422.34,427.67,431.98,436.27,439.37,441.98,446.53,450.73,453.19,457.04,459.34000000000003,461.82,464.84,467.94,470.38,473.03,476.72999999999996,478.828,484.258,489.248,492.238,496.548,501.848,503.886,506.976,512.286,516.496,519.596,521.8,524.89,530.19,534.49,536.541,540.711,546.021,550.331,553.961,558.571" svgx:width="0.23,0.55,0.37,0.43,0.37,0.52,0.43,0.42,0.31,0.27,0.46,0.43,0.25,0.46,0.23,0.55,0.34,0.31,0.55,0.27,0.37,0.55,0.55,0.51,0.31,0.43,0.53,0.55,0.31,0.53,0.44,0.31,0.55,0.31,0.53,0.43,0.55,0.42,0.53,0.44,0.37,0.47,0.43" style="fill:rgb(0,0,0);font-family:MinionPro-Regular;font-size:10.0px;stroke:none;">, respectively. It is noted that the charge</text>
   <text y="660.245" x="200.015,204.275,208.485,213.775,218.145,222.375,224.935,228.005,232.605,234.71,239.02,242.6,246.9,249.11,253.54,256.06,264.21,269.3,272.92,276.02000000000004,278.023,281.113,286.413,290.713,292.764,296.494,300.804,308.954,313.254,315.27,318.15,323.14,326.84,329.047,332.137,337.437,341.737,343.73,346.4,351.85,354.41,357.51,360.21,364.64,367.14,369.072,372.162,377.482,381.062,385.372,389.672,391.635,396.045,400.555,404.725,407.235,411.465,415.135,417.435,419.244,425.404,430.704,435.004,437.102,443.752,450.752,452.862,457.152,462.452,466.452,471.002,475.232,478.932,480.528,483.408,488.398,492.098,494.305,499.685,503.095,508.975,512.6750000000001,514.601,518.811,521.9110000000001,524.238,528.638,530.815,534.555,538.815,543.125,548.625,550.6,554.31,558.52,561.51,565.81,568.062,573.052" svgx:width="0.42,0.44,0.52,0.44,0.42,0.27,0.31,0.46,0.55,0.44,0.37,0.43,0.55,0.44,0.25,0.82,0.51,0.37,0.31,0.55,0.31,0.53,0.43,0.55,0.37,0.44,0.82,0.43,0.55,0.3,0.51,0.37,0.55,0.31,0.53,0.43,0.55,0.27,0.55,0.27,0.31,0.27,0.44,0.25,0.55,0.31,0.53,0.37,0.43,0.43,0.55,0.42,0.46,0.42,0.25,0.43,0.37,0.23,0.55,0.62,0.53,0.43,0.55,0.67,0.7,0.55,0.42,0.53,0.37,0.46,0.43,0.37,0.55,0.3,0.51,0.37,0.55,0.54,0.34,0.59,0.37,0.55,0.44,0.31,0.55,0.44,0.55,0.37,0.42,0.44,0.55,0.55,0.37,0.44,0.31,0.43,0.55,0.51,0.3" style="fill:rgb(0,0,0);font-family:MinionPro-Regular;font-size:10.0px;stroke:none;">capacity are almost the same for the initial three cycles. The CV curves for LIBs at a scan rate of</text>
   <text y="673.227" x="200.015,204.815,207.095,211.895,213.961,222.151,229.151,231.309" svgx:width="0.48,0.23,0.48,0.55,0.82,0.7,0.55,0.37" style="fill:rgb(0,0,0);font-family:MinionPro-Regular;font-size:10.0px;stroke:none;">0.5 mV s</text>
  </g>
  <g begin="text">
   <text y="668.806" x="234.935,237.605" svgx:width="0.36,0.48" style="fill:rgb(0,0,0);font-family:MinionPro-Regular;font-size:6.67px;stroke:none;">-1</text>
  </g>
  <g begin="text">
   <text y="673.228" x="243.383,246.053,251.553,253.644,256.734,262.034,266.334,268.327,273.657,278.647,281.637,285.877,291.157,294.257,296.957,301.387,303.887,305.914,309.624,313.934,319.324,323.934,328.23400000000004,330.292,335.282,338.282,340.44,345.24,347.52,352.32,357.12,362.92,367.72,376.723,380.183,384.803,388.473,390.773,392.767,398.197,400.877,404.187,409.617" svgx:width="0.27,0.55,0.55,0.31,0.53,0.43,0.55,0.52,0.51,0.31,0.43,0.55,0.31,0.27,0.44,0.25,0.55,0.37,0.44,0.55,0.47,0.43,0.55,0.51,0.3,0.55,0.48,0.23,0.48,0.48,0.58,0.48,0.7,0.35,0.46,0.37,0.23,0.55,0.54,0.27,0.33,0.54,0.27" style="fill:rgb(0,0,0);font-family:MinionPro-Regular;font-size:10.0px;stroke:none;">in the potential range of 0.01~3V(vs. Li/Li</text>
  </g>
  <g begin="text">
   <text y="668.806" x="411.874" svgx:width="0.58" style="fill:rgb(0,0,0);font-family:MinionPro-Regular;font-size:6.67px;stroke:none;">+</text>
  </g>
  <g begin="text">
   <text y="673.228" x="416.183,419.683,421.795,426.105,429.685,433.985,436.195,439.815,445.115,450.065,456.945,462.445,464.598,467.268" svgx:width="0.35,0.55,0.44,0.37,0.43,0.55,0.37,0.53,0.51,0.69,0.55,0.55,0.27,0.55" style="fill:rgb(0,0,0);font-family:MinionPro-Regular;font-size:10.0px;stroke:none;">) are shown in</text>
   <text y="673.228" x="474.803,479.923,482.593,487.293,489.429,494.229" svgx:width="0.53,0.27,0.47,0.55,0.48,0.59" style="fill:rgb(59,90,166);font-family:MinionPro-Regular;font-size:10.0px;stroke:none;">Fig 4B</text>
   <text y="673.228" x="500.109,502.409,504.453,507.473,510.57300000000004,513.013,515.663,519.363,521.461,525.761,530.141,533.791,536.521,538.981,543.581,545.555,549.295,553.605,557.845" svgx:width="0.23,0.55,0.34,0.31,0.55,0.27,0.37,0.55,0.43,0.44,0.37,0.27,0.25,0.46,0.55,0.37,0.43,0.43,0.55" style="fill:rgb(0,0,0);font-family:MinionPro-Regular;font-size:10.0px;stroke:none;">. It is easily seen</text>
   <text y="686.21" x="200.015,203.105,208.415,212.625,215.725,217.93,221.02,226.32,230.62,232.67,235.74,238.41,242.05,245.67,248.76999999999998,250.698,255.108,259.618,263.788,266.298,270.598,272.525,276.755,281.475,286.795,289.425,294.395,296.955,300.005,303.705,305.803,311.073,313.743,316.813,319.693,323.933,327.573,331.27299999999997,333.129,336.199,339.779,344.769,355.012,358.102,363.402,367.702,369.752,372.632,377.672,380.252,382.762,387.712,394.592,397.262,402.652,407.352,409.267,414.067,416.239,420.649,425.159,429.329,431.839,436.069,439.769,441.694,448.614,453.934,456.594,460.764,466.064,468.113,472.543,475.063,483.213,488.303,491.923,495.023,496.969,501.919,506.469,510.709,514.369,516.919,521.129,526.359,530.0590000000001,532.346,539.226,541.786,544.876,550.1759999999999,552.245,556.545,560.915,565.085" svgx:width="0.31,0.53,0.44,0.31,0.55,0.31,0.53,0.43,0.55,0.3,0.27,0.37,0.37,0.31,0.55,0.42,0.46,0.42,0.25,0.43,0.55,0.43,0.47,0.53,0.27,0.51,0.27,0.31,0.37,0.55,0.53,0.27,0.3,0.3,0.43,0.37,0.37,0.55,0.3,0.37,0.51,0.82,0.31,0.53,0.43,0.55,0.3,0.51,0.25,0.25,0.51,0.69,0.27,0.55,0.47,0.55,0.48,0.55,0.42,0.46,0.42,0.25,0.43,0.37,0.55,0.69,0.53,0.27,0.42,0.53,0.55,0.44,0.25,0.82,0.51,0.37,0.31,0.55,0.51,0.46,0.43,0.37,0.25,0.44,0.52,0.37,0.55,0.69,0.27,0.31,0.53,0.55,0.43,0.44,0.42,0.53" style="fill:rgb(0,0,0);font-family:MinionPro-Regular;font-size:10.0px;stroke:none;">that the first cycle exhibits differs fromthe following 2 cycles which almost overlaps with each</text>
   <text y="699.249" x="200.015,205.005,208.095,213.395,217.635,220.705,223.00500000000002,225.583,230.843,235.083,243.233,248.223,253.613,257.233,260.333,264.043,268.253,271.353,274.023,279.413,284.113,286.017,289.107,294.417,298.627,301.72700000000003,303.989,307.079,312.379,316.67900000000003,318.672,322.872,325.382,329.692,333.982,337.082,340.662,345.852,351.112,355.41200000000003,356.996,361.226,365.946,371.266,373.896,378.866,381.426,384.526,386.59,391.2,396.39,401.58,406.88,408.587,412.207,415.317,419.617,424.587,427.317,429.837,432.397,435.467,440.067,442.204,446.514,451.944,457.244,459.382,463.792,468.302,472.472,475.022,479.322,484.292,487.022,489.542,492.102,495.172,499.77200000000005,501.732,506.042,509.072,512.062,516.302,520.0020000000001,522.084" svgx:width="0.51,0.31,0.53,0.43,0.37,0.23,0.55,0.53,0.43,0.82,0.51,0.55,0.37,0.31,0.37,0.44,0.31,0.27,0.55,0.47,0.55,0.31,0.53,0.44,0.31,0.55,0.31,0.53,0.43,0.55,0.43,0.25,0.43,0.42,0.31,0.37,0.51,0.53,0.43,0.55,0.43,0.47,0.53,0.27,0.51,0.27,0.31,0.55,0.47,0.51,0.51,0.53,0.55,0.37,0.31,0.44,0.51,0.27,0.25,0.27,0.31,0.46,0.55,0.44,0.55,0.53,0.55,0.42,0.46,0.42,0.25,0.44,0.51,0.27,0.25,0.27,0.31,0.46,0.55,0.44,0.3,0.31,0.43,0.37,0.55,0.48" style="fill:rgb(0,0,0);font-family:MinionPro-Regular;font-size:10.0px;stroke:none;">other, demonstrating that the electrode exhibit good stability and cyclability after 1</text>
  </g>
  <g begin="text">
   <text y="694.772" x="526.904,529.619" svgx:width="0.37,0.31" style="fill:rgb(0,0,0);font-family:MinionPro-Regular;font-size:6.67px;stroke:none;">st</text>
  </g>
  <g begin="text">
   <text y="699.25" x="534.104,538.514,543.024,547.194,549.704,553.894,556.194,558.084,561.324" svgx:width="0.42,0.46,0.42,0.25,0.43,0.23,0.55,0.34,0.55" style="fill:rgb(0,0,0);font-family:MinionPro-Regular;font-size:10.0px;stroke:none;">cycle. In</text>
  </g>
  <path style="fill:rgb(155,154,156);stroke:none;stroke-width:1.0;" d="M576.000 478.660 L180.000 478.660 L180.000 478.160 L576.000 478.160 "/>
  <rect style="stroke:blue;stroke-width:0.3;" x="180.0" y="86.009" height="374.06" width="395.943" title="6"/>
  <text y="86.009" class="image" id="image.6.1" width="395" height="374" x="180.0">image.6.1.180_576.86_460</text>
  <g begin="text">
   <text y="465.676" x="180.0,184.912,187.16,192.04,193.833,198.249,200.489,203.13,208.458,213.786,222.122,226.538,231.45,236.32999999999998,238.11,243.022,248.35,256.761,259.009,266.089,270.505,275.417,279.722,284.12199999999996,285.901,290.813,293.453,295.199,297.863,303.607,308.519,310.767,317.431,322.343" svgx:width="0.61,0.28,0.61,0.55,0.55,0.28,0.55,0.67,0.67,0.83,0.55,0.61,0.61,0.55,0.61,0.67,0.83,0.28,0.88,0.55,0.61,0.55,0.55,0.55,0.61,0.33,0.55,0.33,0.72,0.61,0.28,0.83,0.61,0.33" style="fill:rgb(0,0,0);font-family:Helvetica-Bold;font-size:8.0px;stroke:none;">Fig 3. SEMand TEMimages of (Co,Mn)</text>
  </g>
  <g begin="text">
   <text y="466.98" x="324.964" svgx:width="0.55" style="fill:rgb(0,0,0);font-family:Helvetica-Bold;font-size:5.33px;stroke:none;">3</text>
  </g>
  <g begin="text">
   <text y="465.676" x="328.252" svgx:width="0.78" style="fill:rgb(0,0,0);font-family:Helvetica-Bold;font-size:8.0px;stroke:none;">O</text>
  </g>
  <g begin="text">
   <text y="466.98" x="334.488" svgx:width="0.55" style="fill:rgb(0,0,0);font-family:Helvetica-Bold;font-size:5.33px;stroke:none;">4</text>
  </g>
  <g begin="text">
   <text y="465.676" x="337.833,340.081,343.161,349.409,357.335,361.751,366.663,373.743,378.655,383.567,387.983,390.231,392.895,397.311" svgx:width="0.28,0.38,0.78,0.78,0.55,0.61,0.88,0.61,0.61,0.55,0.28,0.33,0.55,0.28" style="fill:rgb(0,0,0);font-family:Helvetica-Bold;font-size:8.0px;stroke:none;">/rGOcomposite.</text>
   <text y="465.676" x="401.215,403.879,409.207,411.847,413.63,418.958,424.286,432.679,434.423,441.087,445.503,449.919,454.335,458.335,460.575,462.273,464.937,470.265,472.905,474.632,479.048,483.464,487.864,489.599,492.263,498.007,500.647,502.412,507.324,512.652,521.063,522.807,529.471,533.887,538.303,542.719,546.719,548.9590000000001,550.6,553.264,559.008" svgx:width="0.33,0.67,0.33,0.55,0.67,0.67,0.83,0.22,0.83,0.55,0.55,0.55,0.5,0.28,0.55,0.33,0.67,0.33,0.55,0.55,0.55,0.55,0.55,0.33,0.72,0.33,0.55,0.61,0.67,0.83,0.22,0.83,0.55,0.55,0.55,0.5,0.28,0.55,0.33,0.72,0.33" style="fill:rgb(0,0,0);font-family:Helvetica;font-size:8.0px;stroke:none;">(A) SEMimages. (B) and (C) TEMimages. (D)</text>
   <text y="475.143" x="180.001,185.745,191.489,196.401,201.729,210.105,211.849,218.513,222.929,227.345,231.761,235.761" svgx:width="0.72,0.72,0.61,0.67,0.83,0.22,0.83,0.55,0.55,0.55,0.5,0.28" style="fill:rgb(0,0,0);font-family:Helvetica;font-size:8.0px;stroke:none;">HRTEMimages.</text>
   <text y="490.677" x="180.001,184.001,188.001,189.745,191.745,195.545,199.345,201.145,204.945,208.631,212.431,216.231,218.279,219.822,223.622,227.422,229.886,233.686,237.062,238.606,240.406,244.206,248.006,251.806,255.062,256.862,260.662,264.462,268.262,272.062,275.862,279.662,283.462,285.262,289.062,292.862,296.662" svgx:width="0.5,0.5,0.22,0.25,0.5,0.5,0.25,0.5,0.5,0.5,0.5,0.28,0.22,0.5,0.5,0.33,0.5,0.45,0.22,0.25,0.5,0.5,0.5,0.45,0.25,0.5,0.5,0.5,0.5,0.5,0.5,0.5,0.25,0.5,0.5,0.5,0.5" style="fill:rgb(0,0,0);font-family:Helvetica-Condensed;font-size:8.0px;stroke:none;">doi:10.1371/journal.pone.0164657.g003</text>
  </g>
  <path style="fill:rgb(0,0,0);stroke:none;stroke-width:1.0;" d="M576.000 54.900 L36.000 54.900 L36.000 54.400 L576.000 54.400 "/>
  <rect style="stroke:blue;stroke-width:0.3;" x="36.0" y="35.043" height="23.64" width="107.093" title="6"/>
  <text y="35.043" class="image" id="image.6.2" width="107" height="23" x="36.0">image.6.2.36_143.35_59</text>
  <g begin="text">
   <text y="46.205" x="429.619,434.531,438.947,443.363,446.027,447.771,451.771,456.186,458.434,460.178,464.485,468.885,470.664,475.08,477.32,479.054,481.718,487.462,491.878,494.126,500.79,505.206" svgx:width="0.61,0.55,0.55,0.33,0.22,0.5,0.55,0.28,0.22,0.55,0.55,0.55,0.55,0.28,0.55,0.33,0.72,0.55,0.28,0.83,0.55,0.33" style="fill:rgb(0,0,0);font-family:Helvetica;font-size:8.0px;stroke:none;">Fabrication of (Co,Mn)</text>
  </g>
  <g begin="text">
   <text y="47.509" x="507.798" svgx:width="0.55" style="fill:rgb(0,0,0);font-family:Helvetica;font-size:5.33px;stroke:none;">3</text>
  </g>
  <g begin="text">
   <text y="46.205" x="511.143" svgx:width="0.78" style="fill:rgb(0,0,0);font-family:Helvetica;font-size:8.0px;stroke:none;">O</text>
  </g>
  <g begin="text">
   <text y="47.509" x="517.323" svgx:width="0.55" style="fill:rgb(0,0,0);font-family:Helvetica;font-size:5.33px;stroke:none;">4</text>
  </g>
  <g begin="text">
   <text y="46.205" x="520.668,522.916,525.58,531.828,539.773,543.773,548.189,554.853,559.269,563.685,567.685,569.429,571.677" svgx:width="0.28,0.33,0.78,0.78,0.5,0.55,0.83,0.55,0.55,0.5,0.22,0.28,0.55" style="fill:rgb(0,0,0);font-family:Helvetica;font-size:8.0px;stroke:none;">/rGOcomposite</text>
  </g>
  <path style="fill:rgb(0,0,0);stroke:none;stroke-width:1.0;" d="M36.000 744.000 L576.000 744.000 L576.000 744.500 L36.000 744.500 "/>
  <g begin="text">
   <text y="756.0" x="36.0,41.328,45.744,51.992,57.352,59.017,65.264,71.008,76.368,78.066,80.146,81.921,87.665,93.913,96.161,98.409,102.825,107.241,109.489,113.782,118.198,122.614,127.03,129.278,131.022,135.438,139.854,142.518,146.834,151.25,152.994,155.242,159.658,164.074,168.49,172.906,175.153,179.569,183.985,188.401,192.698,197.114,201.53,205.93,213.901,220.149,224.149,226.397,230.813,235.229,239.645,242.285,244.005,248.421,252.837,255.077,256.817,261.233,265.649,270.065,274.465,557.005,561.405,563.185" svgx:width="0.67,0.55,0.78,0.67,0.55,0.78,0.72,0.67,0.55,0.26,0.55,0.72,0.78,0.28,0.28,0.55,0.55,0.28,0.55,0.55,0.55,0.55,0.28,0.22,0.55,0.55,0.33,0.55,0.55,0.22,0.28,0.55,0.55,0.55,0.55,0.28,0.55,0.55,0.55,0.55,0.55,0.55,0.55,0.55,0.78,0.5,0.28,0.55,0.55,0.55,0.33,0.55,0.55,0.55,0.28,0.55,0.55,0.55,0.55,0.55,0.55,0.55,0.55,0.28" style="fill:rgb(0,0,0);font-family:Helvetica;font-size:8.0px;stroke:none;">PLOS ONE | DOI:10.1371/journal.pone.0164657 October 27, 2016 6 /</text>
  </g>
  <g begin="text">
   <text y="756.0" x="567.209,571.625" svgx:width="0.55,0.55" style="fill:rgb(0,0,0);font-family:Helvetica;font-size:8.0px;stroke:none;">11</text>
  </g>
 </g>
</svg>
