<?xml version="1.0" encoding="UTF-8"?>
<svg height="766.0" width="4046.355" xmlns="http://www.w3.org/2000/svg">
 <g id="page" xmlns:svgx="http://www.xml-cml.org/schema/svgx">
  <path style="fill:rgb(155,154,156);stroke:none;stroke-width:1.0;" d="M576.000 566.860 L200.000 566.860 L200.000 566.360 L576.000 566.360 "/>
  <path style="fill:rgb(59,90,166);stroke:none;stroke-width:1.0;" d="M206.140 280.460 L291.460 280.460 Z"/>
  <path style="fill:rgb(59,90,166);stroke:none;stroke-width:1.0;" d="M397.420 658.090 L402.180 658.090 Z"/>
  <path style="fill:rgb(59,90,166);stroke:none;stroke-width:1.0;" d="M406.540 658.090 L411.360 658.090 Z"/>
  <path style="fill:rgb(59,90,166);stroke:none;stroke-width:1.0;" d="M507.910 671.070 L512.670 671.070 Z"/>
  <path style="fill:rgb(59,90,166);stroke:none;stroke-width:1.0;" d="M517.780 671.070 L522.600 671.070 Z"/>
  <path style="fill:rgb(59,90,166);stroke:none;stroke-width:1.0;" d="M219.510 710.080 L224.280 710.080 Z"/>
  <path style="fill:rgb(59,90,166);stroke:none;stroke-width:1.0;" d="M228.700 710.080 L233.460 710.080 Z"/>
  <g begin="text">
   <text y="101.367" x="200.012,205.756,211.084,216.412,221.74,227.068,232.724,238.468,245.934,251.261,257.005,261.917,264.165,269.909,274.325" svgx:width="0.72,0.67,0.67,0.67,0.67,0.72,0.72,0.72,0.67,0.72,0.61,0.28,0.72,0.55,0.67" style="fill:rgb(0,0,0);font-family:Helvetica;font-size:8.0px;stroke:none;">RESEARCHARTICLE</text>
  </g>
  <g begin="text">
   <text y="126.369" x="200.012,210.013,220.833,231.653,237.893,242.673,251.413,262.233,269.313,274.093,284.713,295.51300000000003,299.961,310.581,317.581,322.071,328.511,340.171,350.791,354.731,371.391,382.211" svgx:width="0.5,0.54,0.54,0.31,0.24,0.44,0.54,0.35,0.24,0.53,0.54,0.55,0.53,0.35,0.55,0.32,0.58,0.53,0.2,0.83,0.54,0.32" style="fill:rgb(0,0,0);font-family:FSAlbert-Regular;font-size:20.0px;stroke:none;">Fabrication of (Co,Mn)</text>
  </g>
  <g begin="text">
   <text y="129.713" x="388.743" svgx:width="0.55" style="fill:rgb(0,0,0);font-family:FSAlbert-Regular;font-size:13.33px;stroke:none;">3</text>
  </g>
  <g begin="text">
   <text y="126.369" x="397.02" svgx:width="0.68" style="fill:rgb(0,0,0);font-family:FSAlbert-Regular;font-size:20.0px;stroke:none;">O</text>
  </g>
  <g begin="text">
   <text y="129.713" x="410.57" svgx:width="0.55" style="fill:rgb(0,0,0);font-family:FSAlbert-Regular;font-size:13.33px;stroke:none;">4</text>
  </g>
  <g begin="text">
   <text y="126.369" x="418.847,425.287,431.527,444.647,458.247,462.613,474.273,484.894,501.554,512.374,522.994,530.894,535.674,542.754" svgx:width="0.32,0.31,0.66,0.68,0.55,0.58,0.53,0.83,0.54,0.53,0.4,0.24,0.35,0.5" style="fill:rgb(0,0,0);font-family:FSAlbert-Regular;font-size:20.0px;stroke:none;">/rGO Composite</text>
   <text y="151.369" x="200.014,207.094,217.714,223.914,228.36,237.52,242.3,249.38,260.2,264.98,275.601,296.675,304.175,314.795,325.595,330.011,341.451,352.271,359.351,366.431,376.431,382.671,392.471,396.907,408.987,419.807,430.427,441.247,451.247,455.639,466.459,476.259,480.642,491.442,495.892,509.432,520.252,530.252,535.872,546.072,553.152,563.152" svgx:width="0.35,0.53,0.31,0.55,0.46,0.24,0.35,0.54,0.24,0.53,0.83,0.38,0.53,0.54,0.55,0.57,0.54,0.35,0.35,0.5,0.31,0.49,0.55,0.6,0.54,0.53,0.54,0.5,0.55,0.54,0.49,0.55,0.54,0.55,0.68,0.54,0.5,0.28,0.51,0.35,0.5,0.54" style="fill:rgb(0,0,0);font-family:FSAlbert-Regular;font-size:20.0px;stroke:none;">for LithiumIon Battery Anode by a One-Step</text>
   <text y="176.371" x="200.014,213.134,222.914,233.734,239.974,250.594,257.674,268.494,278.495,284.735,301.395,312.215,316.61499999999995,320.997,331.397,337.637,348.257,356.997,366.997,374.897,382.897,387.271,401.011,405.791,412.871,423.671,428.087" svgx:width="0.66,0.49,0.54,0.31,0.53,0.35,0.54,0.5,0.31,0.83,0.54,0.22,0.55,0.52,0.31,0.53,0.44,0.5,0.4,0.4,0.55,0.69,0.24,0.35,0.54,0.55,0.66" style="fill:rgb(0,0,0);font-family:FSAlbert-Regular;font-size:20.0px;stroke:none;">Hydrothermal Process with H</text>
  </g>
  <g begin="text">
   <text y="179.717" x="441.241" svgx:width="0.55" style="fill:rgb(0,0,0);font-family:FSAlbert-Regular;font-size:13.33px;stroke:none;">2</text>
  </g>
  <g begin="text">
   <text y="176.372" x="449.518" svgx:width="0.68" style="fill:rgb(0,0,0);font-family:FSAlbert-Regular;font-size:20.0px;stroke:none;">O</text>
  </g>
  <g begin="text">
   <text y="179.717" x="463.068" svgx:width="0.55" style="fill:rgb(0,0,0);font-family:FSAlbert-Regular;font-size:13.33px;stroke:none;">2</text>
  </g>
  <g begin="text">
   <text y="176.372" x="475.767,486.587,494.587,498.897,510.977,521.797,532.617,537.397,544.477,549.257,558.417" svgx:width="0.54,0.4,0.55,0.6,0.54,0.54,0.24,0.35,0.24,0.46,0.5" style="fill:rgb(0,0,0);font-family:FSAlbert-Regular;font-size:20.0px;stroke:none;">as Additive</text>
  </g>
  <g begin="text">
   <text y="201.373" x="200.012,205.538,211.064,216.59,222.117,227.643,232.593,234.595,240.121" svgx:width="0.61,0.61,0.61,0.61,0.61,0.55,0.55,0.61,0.28" style="fill:rgb(0,0,0);font-family:Helvetica-Bold;font-size:9.0px;stroke:none;">Zuohua Li</text>
  </g>
  <g begin="text">
   <text y="197.348" x="242.646,246.371,248.268" svgx:width="0.55,0.28,0.55" style="fill:rgb(0,0,0);font-family:Helvetica-Bold;font-size:6.0px;stroke:none;">1,2</text>
  </g>
  <g begin="text">
   <text y="201.373" x="252.0,254.52,256.535,262.529,267.497,273.023,278.549,284.075,286.59499999999997,288.566,295.028,300.554" svgx:width="0.28,0.55,0.67,0.55,0.61,0.61,0.61,0.28,0.55,0.72,0.61,0.28" style="fill:rgb(0,0,0);font-family:Helvetica-Bold;font-size:9.0px;stroke:none;">, Yanhui Cui</text>
  </g>
  <g begin="text">
   <text y="197.348" x="303.08" svgx:width="0.55" style="fill:rgb(0,0,0);font-family:Helvetica-Bold;font-size:6.0px;stroke:none;">3</text>
  </g>
  <g begin="text">
   <text y="201.373" x="306.822,309.342,311.3,316.268,321.794,327.284,329.328,335.79,341.316,346.284" svgx:width="0.28,0.55,0.55,0.61,0.61,0.55,0.72,0.61,0.55,0.61" style="fill:rgb(0,0,0);font-family:Helvetica-Bold;font-size:9.0px;stroke:none;">, Jun Chen</text>
  </g>
  <g begin="text">
   <text y="197.348" x="351.78" svgx:width="0.55" style="fill:rgb(0,0,0);font-family:Helvetica-Bold;font-size:6.0px;stroke:none;">3</text>
  </g>
  <g begin="text">
   <text y="201.373" x="355.521,358.041,360.056,365.582,368.111,373.079,378.605,381.134,383.663,389.153,391.181,397.643,402.611,408.137" svgx:width="0.28,0.55,0.61,0.28,0.55,0.61,0.28,0.28,0.61,0.55,0.72,0.55,0.61,0.61" style="fill:rgb(0,0,0);font-family:Helvetica-Bold;font-size:9.0px;stroke:none;">, Lianlin Deng</text>
  </g>
  <g begin="text">
   <text y="197.348" x="413.631" svgx:width="0.55" style="fill:rgb(0,0,0);font-family:Helvetica-Bold;font-size:6.0px;stroke:none;">3</text>
  </g>
  <g begin="text">
   <text y="201.373" x="417.373,419.893,421.852,426.82,432.346,437.872,444.901,449.869,452.389,454.393,462.916" svgx:width="0.28,0.55,0.55,0.61,0.61,0.78,0.55,0.28,0.55,0.95,0.61" style="fill:rgb(0,0,0);font-family:Helvetica-Bold;font-size:9.0px;stroke:none;">, Junwei Wu</text>
  </g>
  <g begin="text">
   <text y="197.348" x="468.453,472.179,474.076" svgx:width="0.55,0.28,0.55" style="fill:rgb(0,0,0);font-family:Helvetica-Bold;font-size:6.0px;stroke:none;">2,3</text>
  </g>
  <g begin="text">
   <text y="219.345" x="200.012" svgx:width="0.55" style="fill:rgb(0,0,0);font-family:Helvetica-Bold;font-size:8.0px;stroke:none;">1</text>
   <text y="219.345" x="207.949,213.277,217.277,221.693,226.109,230.525,232.285,233.914,238.33,240.57000000000002,242.362,248.105,249.849,253.849,255.593,257.353,259.029,263.445,267.861,272.26099999999997,273.996,279.324,283.74,287.74,289.484,292.148,296.564,300.98,307.644,312.06,316.476,318.613,323.029,324.789,326.55,331.878,336.294,340.71,342.454,346.87,351.286,355.702,358.366,359.998,364.414,368.83,371.07,372.811,378.555,382.971,385.635,390.051,391.795,396.195,397.926,400.174,404.59,408.59,410.838,412.582,414.83,419.246,421.494,425.894,427.576,431.992,434.232,436.024,440.936,445.352,449.352,453.768,458.184,462.6,464.344,468.622,473.038,477.038,478.827,484.155,488.57,492.986,497.402,501.402,505.699,510.115,514.515,516.301,522.548,525.212,529.628,534.044,538.46,542.876,545.124" svgx:width="0.67,0.5,0.55,0.55,0.55,0.22,0.55,0.55,0.28,0.55,0.72,0.22,0.5,0.22,0.22,0.55,0.55,0.55,0.55,0.55,0.67,0.55,0.5,0.22,0.33,0.55,0.55,0.83,0.55,0.55,0.28,0.55,0.22,0.55,0.67,0.55,0.55,0.22,0.55,0.55,0.55,0.33,0.22,0.55,0.55,0.28,0.55,0.72,0.55,0.33,0.55,0.22,0.55,0.55,0.28,0.55,0.5,0.28,0.22,0.28,0.55,0.28,0.55,0.55,0.55,0.28,0.55,0.61,0.55,0.5,0.55,0.55,0.55,0.22,0.55,0.55,0.5,0.55,0.67,0.55,0.55,0.55,0.5,0.55,0.55,0.55,0.55,0.78,0.33,0.55,0.55,0.55,0.55,0.28,0.55" style="fill:rgb(0,0,0);font-family:Helvetica;font-size:8.0px;stroke:none;">School of Civil and Environmental Engineering, Harbin Institute of Technology Shenzhen Graduate</text>
   <text y="229.379" x="200.012,205.34,209.34,213.756,218.172,222.588,224.332,226.572,228.245,233.573,237.989,242.405,246.821,250.821,255.237,259.653,263.961,266.201,267.987,273.731,278.147,279.891,284.307,288.723" svgx:width="0.67,0.5,0.55,0.55,0.55,0.22,0.28,0.55,0.67,0.55,0.55,0.55,0.5,0.55,0.55,0.55,0.28,0.55,0.72,0.55,0.22,0.55,0.55,0.28" style="fill:rgb(0,0,0);font-family:Helvetica;font-size:8.0px;stroke:none;">School, Shenzhen, China,</text>
   <text y="229.379" x="292.648" svgx:width="0.55" style="fill:rgb(0,0,0);font-family:Helvetica-Bold;font-size:8.0px;stroke:none;">2</text>
   <text y="229.379" x="300.585,302.833,307.249,312.129,313.908,319.236,323.652,328.068,329.812,331.556,335.556,339.873,342.121,343.865,348.281,352.681,354.443,359.354,363.77,367.77,372.186,376.602,381.018,382.762,387.178,391.594,395.594,397.246,402.99,407.406,411.822,414.07,418.486,421.126,422.87,427.286,429.526,431.262,437.006,442.749,447.661,449.901,451.614,456.942,461.358,465.774,470.19,474.19,478.606,483.022,487.42199999999997,489.088,495.336,498.0,502.416,506.832,511.248,515.664,517.912,522.312,524.011,529.339,533.339,537.755,542.171,546.586,548.33,550.57,552.243,557.987,562.403,565.067,569.483,571.227" svgx:width="0.28,0.55,0.61,0.55,0.67,0.55,0.55,0.22,0.22,0.5,0.55,0.28,0.22,0.55,0.55,0.55,0.61,0.55,0.5,0.55,0.55,0.55,0.22,0.55,0.55,0.5,0.55,0.72,0.55,0.55,0.28,0.55,0.33,0.55,0.55,0.28,0.55,0.72,0.72,0.61,0.28,0.55,0.67,0.55,0.55,0.55,0.5,0.55,0.55,0.55,0.55,0.78,0.33,0.55,0.55,0.55,0.55,0.28,0.55,0.55,0.67,0.5,0.55,0.55,0.55,0.22,0.28,0.55,0.72,0.55,0.33,0.55,0.22,0.55" style="fill:rgb(0,0,0);font-family:Helvetica;font-size:8.0px;stroke:none;">IoT Application Technology Center of NDT, Shenzhen Graduate School, Harbin</text>
   <text y="239.357" x="200.012,202.26,206.676,210.676,212.924,214.668,216.916,221.332,223.58,227.98000000000002,229.662,234.078,236.318,238.053,242.965,247.381,251.381,255.797,260.213,264.628,266.372,270.788,275.204,279.099,281.339,283.123,288.451,292.867,297.283,301.699,305.699,310.115,314.418,318.834,321.074,322.865,328.609,333.025,334.769,339.185,343.501" svgx:width="0.28,0.55,0.5,0.28,0.22,0.28,0.55,0.28,0.55,0.55,0.55,0.28,0.55,0.61,0.55,0.5,0.55,0.55,0.55,0.22,0.55,0.55,0.5,0.28,0.55,0.67,0.55,0.55,0.55,0.5,0.55,0.55,0.55,0.28,0.55,0.72,0.55,0.22,0.55,0.55,0.28" style="fill:rgb(0,0,0);font-family:Helvetica;font-size:8.0px;stroke:none;">Institute of Technology, Shenzhen, China,</text>
   <text y="239.357" x="347.527" svgx:width="0.55" style="fill:rgb(0,0,0);font-family:Helvetica-Bold;font-size:8.0px;stroke:none;">3</text>
   <text y="239.357" x="355.463,360.791,364.791,369.207,373.623,378.039,379.799,381.485,385.901,388.141,389.876,396.54,400.956,403.204,407.619,410.283,412.027,416.443,418.187,422.187,423.834,429.162,433.162,434.906,439.322,443.738,447.738,452.138,453.882,458.298,462.714,467.114,468.848,474.176,478.592,483.008,484.752,489.168,493.584,498.0,500.54,502.284,506.7,511.116,513.356,515.11,520.854,525.27,527.934,532.35,534.094,538.494,540.225,542.473,546.889,550.889,553.137,554.881,557.129,561.545,563.793" svgx:width="0.67,0.5,0.55,0.55,0.55,0.22,0.55,0.55,0.28,0.55,0.83,0.55,0.28,0.55,0.33,0.22,0.55,0.22,0.5,0.55,0.67,0.5,0.22,0.55,0.55,0.5,0.55,0.55,0.55,0.55,0.55,0.55,0.67,0.55,0.55,0.22,0.55,0.55,0.55,0.33,0.22,0.55,0.55,0.28,0.55,0.72,0.55,0.33,0.55,0.22,0.55,0.55,0.28,0.55,0.5,0.28,0.22,0.28,0.55,0.28,0.55" style="fill:rgb(0,0,0);font-family:Helvetica;font-size:8.0px;stroke:none;">School of Materials Science and Engineering, Harbin Institute</text>
   <text y="249.335" x="200.012,204.428,206.668,208.403,213.315,217.731,221.731,226.147,230.562,234.978,236.722,241.138,245.554,249.554,251.205,256.533,260.949,265.365,269.781,273.781,278.197,282.5,286.9,288.679,294.927,297.591,302.007,306.423,310.839,315.255,317.503,321.90299999999996,323.602,328.93,332.93,337.346,341.762,346.178,347.922,350.16200000000003,351.835,357.163,361.579,365.995,370.411,374.411,378.827,383.243,387.643,389.309,394.636,399.052,403.052,404.786,409.202,413.618,418.034,422.45,425.114,429.53,431.778,436.194,438.745,442.745,444.528,448.944,451.184,452.918,458.246,462.662,466.662,471.078,475.494,479.494,483.91,488.31,489.995,496.659,501.075,503.323,507.739,510.403,512.147,516.563,518.307,522.196,524.436,526.221,531.549,535.965,540.381,544.797,548.797,553.213,557.516,561.932" svgx:width="0.55,0.28,0.55,0.61,0.55,0.5,0.55,0.55,0.55,0.22,0.55,0.55,0.5,0.55,0.67,0.55,0.55,0.55,0.5,0.55,0.55,0.55,0.55,0.78,0.33,0.55,0.55,0.55,0.55,0.28,0.55,0.55,0.67,0.5,0.55,0.55,0.55,0.22,0.28,0.55,0.67,0.55,0.55,0.55,0.5,0.55,0.55,0.55,0.55,0.67,0.55,0.5,0.55,0.55,0.55,0.55,0.55,0.33,0.55,0.28,0.55,0.33,0.5,0.55,0.55,0.28,0.55,0.67,0.55,0.5,0.55,0.55,0.5,0.55,0.55,0.55,0.83,0.55,0.28,0.55,0.33,0.22,0.55,0.22,0.5,0.28,0.55,0.67,0.55,0.55,0.55,0.5,0.55,0.55,0.55,0.28" style="fill:rgb(0,0,0);font-family:Helvetica;font-size:8.0px;stroke:none;">of Technology Shenzhen Graduate School, Shenzhen Key Laboratory of Advanced Materials, Shenzhen,</text>
   <text y="259.369" x="200.012,205.756,210.172,211.916,216.332" svgx:width="0.72,0.55,0.22,0.55,0.55" style="fill:rgb(0,0,0);font-family:Helvetica;font-size:8.0px;stroke:none;">China</text>
   <text y="279.382" x="200.012" svgx:width="0.56" style="fill:rgb(0,0,0);font-family:Univers;font-size:8.0px;stroke:none;">*</text>
   <text y="279.382" x="206.135,207.879,212.295,216.711,222.455,226.871,228.615,230.862,236.606,241.022,249.102,253.417,255.161,257.409,261.409,265.408,267.656,272.072,276.488,280.904,283.152,287.152" svgx:width="0.22,0.55,0.55,0.72,0.55,0.22,0.28,0.72,0.55,1.01,0.55,0.22,0.28,0.5,0.5,0.28,0.55,0.55,0.55,0.28,0.5,0.55" style="fill:rgb(59,90,166);font-family:Helvetica;font-size:8.0px;stroke:none;">junwei.wu@hitsz.edu.cn</text>
  </g>
  <g begin="text">
   <text y="321.336" x="200.012,209.676,218.332,224.652,230.316,235.308,243.964,250.956" svgx:width="0.6,0.54,0.4,0.35,0.31,0.54,0.44,0.35" style="fill:rgb(0,0,0);font-family:FSAlbert-Regular;font-size:16.0px;stroke:none;">Abstract</text>
  </g>
  <g begin="text">
   <text y="343.332" x="200.012,206.339,208.41,213.654,218.898,222.062,226.812,228.869,231.538,234.702,239.946,245.19,249.94,252.011,254.68,256.751,261.995,267.22,269.404,277.318,282.562,285.231,290.475,292.565,294.633,299.876,304.626,306.698,311.941,317.185,321.935,323.999,329.243,334.487,339.237,344.46200000000005,346.562,351.806,357.05,362.294,367.519,369.58,372.743,377.987,383.231,388.475,391.639,396.883,402.127,407.35200000000003,409.491,414.735,419.485,421.511,426.755,431.999,437.22400000000005,439.312,444.556,447.216,449.29,451.959,457.203,462.428,464.484,472.397,477.641,482.391,485.05100000000004,487.16,492.404,495.568,500.812,508.725,510.796,515.546,517.617,522.861,528.086,530.191,534.941,540.185,545.429,550.673,552.744,557.988,563.232,565.901,571.145" svgx:width="0.67,0.22,0.55,0.55,0.33,0.5,0.55,0.28,0.33,0.55,0.55,0.5,0.22,0.28,0.22,0.55,0.55,0.55,0.83,0.55,0.28,0.55,0.22,0.55,0.55,0.5,0.22,0.55,0.55,0.5,0.55,0.55,0.55,0.5,0.55,0.55,0.55,0.55,0.55,0.55,0.55,0.33,0.55,0.55,0.55,0.33,0.55,0.55,0.55,0.55,0.55,0.5,0.55,0.55,0.55,0.55,0.55,0.55,0.28,0.55,0.28,0.55,0.55,0.55,0.83,0.55,0.5,0.28,0.55,0.55,0.33,0.55,0.83,0.22,0.5,0.22,0.55,0.55,0.55,0.5,0.55,0.55,0.55,0.22,0.55,0.55,0.28,0.55,0.5" style="fill:rgb(0,0,0);font-family:Helvetica;font-size:9.5px;stroke:none;">Binary transition metal oxides have been regarded as one of the most promising candidates</text>
   <text y="357.335" x="200.012,202.682,207.926,211.06099999999998,213.164,218.408,220.479,225.723,230.967,234.131,239.375,244.619,247.782,250.452,255.696,258.859,266.773,272.182,277.426,282.176,287.401,289.53,294.774,296.845,302.089,306.839,309.509,312.672,317.916,323.16,328.404,333.154,335.337,337.408,342.63300000000004,344.749,349.993,355.237,360.481,363.644,368.888,373.638,375.76,380.51,383.179,388.423,391.587,396.831,402.075,407.3,409.491,414.735,419.979,424.729,426.8,431.55,436.794,441.544,444.204,446.342,451.092,453.163,458.407,463.157,468.382,470.55,473.219,478.463,483.707,488.457,490.562,495.312,500.556,505.781,507.91,513.154,515.824,518.493,523.737,526.872,529.056,534.3,536.371,541.615,546.84,548.956,554.2,556.271,561.515,566.265" svgx:width="0.28,0.55,0.33,0.55,0.55,0.22,0.55,0.55,0.33,0.55,0.55,0.33,0.28,0.55,0.33,0.83,0.55,0.55,0.5,0.55,0.55,0.55,0.22,0.55,0.5,0.28,0.33,0.55,0.55,0.55,0.5,0.55,0.22,0.55,0.55,0.55,0.55,0.55,0.33,0.55,0.5,0.55,0.5,0.28,0.55,0.33,0.55,0.55,0.55,0.55,0.55,0.55,0.5,0.22,0.5,0.55,0.5,0.28,0.55,0.5,0.22,0.55,0.5,0.55,0.55,0.28,0.55,0.55,0.5,0.55,0.5,0.55,0.55,0.55,0.55,0.28,0.28,0.55,0.33,0.55,0.55,0.22,0.55,0.55,0.55,0.55,0.22,0.55,0.5,0.33" style="fill:rgb(0,0,0);font-family:Helvetica;font-size:9.5px;stroke:none;">for high-performance electrodes in energy storage devices, since they can offer high elec-</text>
   <text y="371.338" x="200.012,202.682,205.845,211.089,215.839,221.083,226.327,234.241,236.312,241.062,246.306,248.39600000000002,250.582,255.826,260.576,263.245,265.316,270.066,272.137,274.807,279.557,281.706,286.95,292.194,297.41900000000004,299.508,304.752,306.823,312.067,317.29200000000003,319.464,324.214,329.458,334.702,339.946,344.696,346.767,349.436,354.186,356.846,359.035,365.856,371.1,373.769,375.84,381.084,386.328,391.572,393.662,395.772,401.016,406.26,411.01,413.081,418.325,423.569,425.64,430.884,436.10900000000004,438.349,443.593,448.836,454.081,459.325,464.075,466.146,470.896,476.14,481.365,483.532,491.446,496.69,499.359,504.603,506.693,508.818,514.062,518.812,520.883,526.127,531.371,534.04,538.79,544.034,547.198,552.441,557.685" svgx:width="0.28,0.33,0.55,0.5,0.55,0.55,0.83,0.22,0.5,0.55,0.22,0.55,0.55,0.5,0.28,0.22,0.5,0.22,0.28,0.5,0.55,0.55,0.55,0.55,0.55,0.55,0.22,0.55,0.55,0.55,0.5,0.55,0.55,0.55,0.5,0.22,0.28,0.5,0.28,0.55,0.72,0.55,0.28,0.22,0.55,0.55,0.55,0.22,0.55,0.55,0.55,0.5,0.22,0.55,0.55,0.22,0.55,0.55,0.55,0.55,0.55,0.55,0.55,0.5,0.22,0.5,0.55,0.55,0.55,0.83,0.55,0.28,0.55,0.22,0.55,0.55,0.5,0.22,0.55,0.55,0.28,0.5,0.55,0.33,0.55,0.55,0.55" style="fill:rgb(0,0,0);font-family:Helvetica;font-size:9.5px;stroke:none;">trochemical activity and high capacity. Rational designing nanosized metal oxide/carbon</text>
   <text y="385.341" x="200.012,204.762,210.007,217.92,223.164,228.408,233.158,235.229,237.898,243.123,245.309,250.553,253.717,258.467,263.711,265.782,268.451,273.695,278.445,281.115,286.359,289.522,294.766,299.516,301.719,306.963,312.207,316.957,319.066,324.31,329.555,334.799,340.024,342.141,347.385,350.549,355.793,360.543,365.787,371.012,373.208,375.877,381.10200000000003,383.186,388.43,393.65500000000003,395.828,401.072,406.297,408.415,413.659,416.328,418.998,424.242,428.992,431.661,433.732,438.482,443.70700000000005,445.889,452.71,457.954,462.704,464.824,467.494,472.71900000000005,474.802,476.873,484.786,490.03,493.194,498.438,503.188,508.413,510.631,513.301,518.545,523.77,525.882,531.126,533.197,538.44,543.19,545.86,549.023,554.267" svgx:width="0.5,0.55,0.83,0.55,0.55,0.5,0.22,0.28,0.55,0.55,0.55,0.33,0.5,0.55,0.22,0.28,0.55,0.5,0.28,0.55,0.33,0.55,0.5,0.55,0.55,0.55,0.5,0.55,0.55,0.55,0.55,0.55,0.55,0.55,0.33,0.55,0.5,0.55,0.55,0.55,0.28,0.55,0.55,0.55,0.55,0.55,0.55,0.55,0.55,0.55,0.28,0.28,0.55,0.5,0.28,0.22,0.5,0.55,0.55,0.72,0.55,0.5,0.55,0.28,0.55,0.55,0.22,0.83,0.55,0.33,0.55,0.5,0.55,0.55,0.28,0.55,0.55,0.55,0.55,0.22,0.55,0.5,0.28,0.33,0.55,0.33" style="fill:rgb(0,0,0);font-family:Helvetica;font-size:9.5px;stroke:none;">composite architectures has been proven to be an effective way to improve the electro-</text>
   <text y="399.344" x="200.013,204.763,210.007,215.251,223.164,225.235,229.985,235.229,237.31900000000002,239.47,244.714,249.958,253.121,255.791,261.035,264.198,272.112,277.356,282.6,287.35,292.594,295.254,297.466,300.136,305.36100000000005,307.445,310.115,315.359,317.43,322.18,324.339,331.16,336.404,339.568,344.318,346.978,349.114,351.784,357.028,362.25300000000004,364.364,367.528,374.349,379.593,382.262,390.176,395.42" svgx:width="0.5,0.55,0.55,0.83,0.22,0.5,0.55,0.22,0.55,0.55,0.55,0.33,0.28,0.55,0.33,0.83,0.55,0.55,0.5,0.55,0.28,0.55,0.28,0.55,0.55,0.28,0.55,0.22,0.5,0.55,0.72,0.55,0.33,0.5,0.28,0.55,0.28,0.55,0.55,0.55,0.33,0.72,0.55,0.28,0.83,0.55,0.33" style="fill:rgb(0,0,0);font-family:Helvetica;font-size:9.5px;stroke:none;">chemical performance. In this work, the (Co,Mn)</text>
  </g>
  <g begin="text">
   <text y="400.932" x="398.664" svgx:width="0.55" style="fill:rgb(0,0,0);font-family:Helvetica;font-size:6.33px;stroke:none;">3</text>
  </g>
  <g begin="text">
   <text y="399.345" x="402.576" svgx:width="0.78" style="fill:rgb(0,0,0);font-family:Helvetica;font-size:9.5px;stroke:none;">O</text>
  </g>
  <g begin="text">
   <text y="400.932" x="410.06" svgx:width="0.55" style="fill:rgb(0,0,0);font-family:Helvetica;font-size:6.33px;stroke:none;">4</text>
  </g>
  <g begin="text">
   <text y="399.345" x="416.069,420.819,426.063,428.134,433.378,438.622,440.712,442.828,449.649,454.893,459.643,461.763,466.513,471.263,476.507,479.177,484.421,489.665,494.415,496.486,501.236,506.48,511.70500000000004,513.92,519.164,524.408,529.633,531.778,537.022,542.266,547.016,552.26,557.504,560.668,565.912" svgx:width="0.5,0.55,0.22,0.55,0.55,0.22,0.55,0.72,0.55,0.5,0.55,0.5,0.5,0.55,0.28,0.55,0.55,0.5,0.22,0.5,0.55,0.55,0.55,0.55,0.55,0.55,0.55,0.55,0.55,0.5,0.55,0.55,0.33,0.55,0.55" style="fill:rgb(0,0,0);font-family:Helvetica;font-size:9.5px;stroke:none;">spinel was synthesized and anchored</text>
   <text y="413.348" x="200.014,205.258,210.483,212.599,215.763,221.007,226.251,231.495,236.245,241.489,246.714,248.883,254.127,257.29,262.534,267.778,273.022,278.266,283.51,288.735,290.892,296.136,300.886,302.957,308.201,313.42600000000004,315.611,318.774,321.938,329.357,336.777,339.912,342.086,347.33,352.574,357.818,363.062,367.812,373.056,378.3,383.544,386.214,390.964,393.109,398.353,403.103,405.174,410.418,415.64300000000003,417.826,423.05100000000004,425.14,427.809,433.053,437.803,439.874,441.945,447.17,449.348,454.592,459.836,465.06100000000004,467.206,471.956,474.027,479.271,484.515,486.586,491.81100000000004,493.964,499.208,503.958,509.202,512.366,517.61,520.279,525.523,530.767,533.931,541.844,547.089,549.1790000000001,551.338,556.088,558.757,564.001" svgx:width="0.55,0.55,0.55,0.33,0.55,0.55,0.55,0.5,0.55,0.55,0.55,0.55,0.33,0.55,0.55,0.55,0.55,0.55,0.55,0.55,0.55,0.5,0.22,0.55,0.55,0.55,0.33,0.33,0.78,0.78,0.33,0.55,0.55,0.55,0.55,0.55,0.5,0.55,0.55,0.55,0.28,0.5,0.55,0.55,0.5,0.22,0.55,0.55,0.55,0.55,0.55,0.28,0.55,0.5,0.22,0.22,0.55,0.55,0.55,0.55,0.55,0.55,0.5,0.22,0.55,0.55,0.22,0.55,0.55,0.55,0.5,0.55,0.33,0.55,0.28,0.55,0.55,0.33,0.83,0.55,0.22,0.55,0.5,0.28,0.55,0.55" style="fill:rgb(0,0,0);font-family:Helvetica;font-size:9.5px;stroke:none;">on reduced graphene oxide (rGO) nanosheets using a facile and single hydrothermal step</text>
   <text y="427.351" x="200.014,206.835,208.906,211.575,216.79999999999998,218.949" svgx:width="0.72,0.22,0.28,0.55,0.55,0.72" style="fill:rgb(0,0,0);font-family:Helvetica;font-size:9.5px;stroke:none;">with H</text>
  </g>
  <g begin="text">
   <text y="428.939" x="225.751" svgx:width="0.55" style="fill:rgb(0,0,0);font-family:Helvetica;font-size:6.33px;stroke:none;">2</text>
  </g>
  <g begin="text">
   <text y="427.351" x="229.72" svgx:width="0.78" style="fill:rgb(0,0,0);font-family:Helvetica;font-size:9.5px;stroke:none;">O</text>
  </g>
  <g begin="text">
   <text y="428.939" x="237.146" svgx:width="0.55" style="fill:rgb(0,0,0);font-family:Helvetica;font-size:6.33px;stroke:none;">2</text>
  </g>
  <g begin="text">
   <text y="427.351" x="243.156,248.4,253.15,255.287,260.531,265.775,271.019,273.09,275.76,277.831,282.581,287.825,290.485,292.648,297.892,303.117,305.234,307.903,313.147,316.311,318.98,324.224,329.468,332.603,334.771,340.015,345.259,350.503,352.574,355.244,357.315,362.559,367.803,373.047,375.137,377.29,382.04,387.284,389.355,394.105,396.176,401.42,406.664,409.334,411.405,416.649,421.874,424.119,427.282,432.526,437.77,443.014,445.085,448.249,453.493,458.737,461.39700000000005,463.52,469.847,475.091,480.335,482.406,487.156,491.906,493.977,498.727,500.937,505.687,510.931,516.175,522.996,528.24,533.465,535.633,538.303,543.547,548.791,551.451,553.548,556.218,561.462,563.533" svgx:width="0.55,0.5,0.55,0.55,0.55,0.55,0.22,0.28,0.22,0.5,0.55,0.28,0.55,0.55,0.55,0.55,0.28,0.55,0.33,0.28,0.55,0.55,0.33,0.55,0.55,0.55,0.55,0.22,0.28,0.22,0.55,0.55,0.55,0.22,0.55,0.5,0.55,0.22,0.5,0.22,0.55,0.55,0.28,0.22,0.55,0.55,0.55,0.33,0.55,0.55,0.55,0.22,0.33,0.55,0.55,0.28,0.55,0.67,0.55,0.55,0.22,0.5,0.5,0.22,0.5,0.55,0.5,0.55,0.55,0.72,0.55,0.55,0.55,0.28,0.55,0.55,0.28,0.55,0.28,0.55,0.22,0.5" style="fill:rgb(0,0,0);font-family:Helvetica;font-size:9.5px;stroke:none;">as additive, no further additional calcination required. Analysis showed that this</text>
   <text y="441.354" x="200.014,207.927,213.171,215.841,221.085,226.329,231.554,233.689,238.933,241.004,245.754,250.998,255.748,257.895,263.12,265.265,273.179,275.25,280.0,285.244,290.46900000000005,292.591,297.341,302.585,304.656,309.9,315.144,317.215,319.875,322.071,324.142,326.812,332.056,334.716,336.812,339.975,346.796,352.04,354.71,362.623,367.867" svgx:width="0.83,0.55,0.28,0.55,0.55,0.55,0.55,0.55,0.22,0.5,0.55,0.5,0.55,0.55,0.55,0.83,0.22,0.5,0.55,0.55,0.55,0.5,0.55,0.22,0.55,0.55,0.22,0.28,0.55,0.22,0.28,0.55,0.28,0.55,0.33,0.72,0.55,0.28,0.83,0.55,0.33" style="fill:rgb(0,0,0);font-family:Helvetica;font-size:9.5px;stroke:none;">method gives a mixed spinel, i.e. (Co,Mn)</text>
  </g>
  <g begin="text">
   <text y="442.942" x="371.112" svgx:width="0.55" style="fill:rgb(0,0,0);font-family:Helvetica;font-size:6.33px;stroke:none;">3</text>
  </g>
  <g begin="text">
   <text y="441.354" x="375.024" svgx:width="0.78" style="fill:rgb(0,0,0);font-family:Helvetica;font-size:9.5px;stroke:none;">O</text>
  </g>
  <g begin="text">
   <text y="442.942" x="382.507" svgx:width="0.55" style="fill:rgb(0,0,0);font-family:Helvetica;font-size:6.33px;stroke:none;">4</text>
  </g>
  <g begin="text">
   <text y="441.354" x="386.419,389.079,391.18,396.424,401.668,406.418,408.489,413.733,418.958,421.115" svgx:width="0.28,0.55,0.55,0.55,0.5,0.22,0.55,0.55,0.55,0.55" style="fill:rgb(0,0,0);font-family:Helvetica;font-size:9.5px;stroke:none;">, having 2</text>
  </g>
  <g begin="text">
   <text y="437.159" x="426.387" svgx:width="0.58" style="fill:rgb(0,0,0);font-family:Helvetica;font-size:6.33px;stroke:none;">+</text>
  </g>
  <g begin="text">
   <text y="441.354" x="432.624,437.868,443.112,448.33700000000005,450.482" svgx:width="0.55,0.55,0.55,0.55,0.55" style="fill:rgb(0,0,0);font-family:Helvetica;font-size:9.5px;stroke:none;">and 3</text>
  </g>
  <g begin="text">
   <text y="437.159" x="455.698" svgx:width="0.58" style="fill:rgb(0,0,0);font-family:Helvetica;font-size:6.33px;stroke:none;">+</text>
  </g>
  <g begin="text">
   <text y="441.354" x="461.991,468.812,474.03700000000003,476.164,481.408,486.652,491.877,493.965,501.878,507.103,509.272,511.343,516.587,521.831,526.581,528.718,530.789,536.014,538.128,543.372,548.616,551.286,556.511,558.651,561.321,566.565" svgx:width="0.72,0.55,0.55,0.55,0.55,0.55,0.55,0.83,0.55,0.55,0.22,0.55,0.55,0.5,0.55,0.22,0.55,0.55,0.55,0.55,0.28,0.55,0.55,0.28,0.55,0.55" style="fill:rgb(0,0,0);font-family:Helvetica;font-size:9.5px;stroke:none;">Co and Mn ions in both the</text>
   <text y="455.357" x="200.014,205.258,210.008,212.677,217.921,223.165,228.409,233.653,236.817,242.061,244.151,246.275,251.519,256.763,261.988,264.133,266.803,272.047,274.716,277.88,283.124,288.368,293.612,298.856,302.019,307.263,309.35299999999995,311.529,316.279,318.35,321.019,326.263,331.013,333.129,338.373,341.033,343.163,345.832,351.076,356.30100000000004,358.413,363.163,368.407,370.478,375.722,380.966,383.056,385.173,389.923,392.592,395.756,401.0,405.75,408.419,413.663,416.827,422.071,424.73100000000005,426.955,433.776,435.847,438.516,443.74100000000004,445.89,451.115,453.204,458.448,463.692,468.936,474.18,478.93,484.174,489.418,491.489,496.239,498.444,506.357,511.601,514.765,520.009,525.253,530.497,532.568,537.812,543.056" svgx:width="0.55,0.5,0.28,0.55,0.55,0.55,0.55,0.33,0.55,0.22,0.55,0.55,0.55,0.55,0.55,0.28,0.55,0.28,0.33,0.55,0.55,0.55,0.55,0.33,0.55,0.22,0.55,0.5,0.22,0.28,0.55,0.5,0.55,0.55,0.28,0.55,0.28,0.55,0.55,0.55,0.5,0.55,0.22,0.55,0.55,0.22,0.55,0.5,0.28,0.33,0.55,0.5,0.28,0.55,0.33,0.55,0.28,0.55,0.72,0.22,0.28,0.55,0.55,0.55,0.55,0.55,0.55,0.55,0.55,0.5,0.55,0.55,0.22,0.5,0.55,0.83,0.55,0.33,0.55,0.55,0.55,0.22,0.55,0.55,0.5" style="fill:rgb(0,0,0);font-family:Helvetica;font-size:9.5px;stroke:none;">octahedral and tetrahedral sites of the spinel structure, with a nanocubic morphology</text>
   <text y="469.36" x="200.014,203.177,208.421,213.665,218.909,224.153,226.224,230.974,233.122,238.366,243.591,245.708,250.952,260.958,263.029,268.254,270.426,275.176,277.247,281.997,287.241,289.901,292.026,297.859,303.103,308.32800000000003,310.451,315.695,320.939,326.183,331.427,336.177,341.421,346.665,351.909,356.659,358.81,364.054,367.218,372.44300000000004,374.628,379.872,385.116,390.36,395.604,400.829,402.974,408.218,413.462,416.131,421.356,423.497,426.166,431.41,436.63500000000005,438.747,441.91,449.33,458.873,464.117,469.361,474.605,479.849,484.599,489.843,495.087,500.331,502.99100000000004,505.19,510.434,515.678,517.749,520.418,525.662,528.826,536.739,538.81,543.56,545.725,547.796,553.0210000000001,555.136" svgx:width="0.33,0.55,0.55,0.55,0.55,0.22,0.5,0.55,0.55,0.55,0.55,0.55,0.83,0.22,0.55,0.55,0.5,0.22,0.5,0.55,0.28,0.55,0.61,0.55,0.55,0.55,0.55,0.55,0.55,0.55,0.5,0.55,0.55,0.55,0.5,0.55,0.55,0.33,0.55,0.55,0.55,0.55,0.55,0.55,0.55,0.55,0.55,0.55,0.28,0.55,0.55,0.28,0.55,0.55,0.55,0.33,0.78,0.78,0.55,0.55,0.55,0.55,0.5,0.55,0.55,0.55,0.28,0.55,0.55,0.55,0.22,0.28,0.55,0.33,0.83,0.22,0.5,0.55,0.22,0.55,0.55,0.55" style="fill:rgb(0,0,0);font-family:Helvetica;font-size:9.5px;stroke:none;">roughly 20 nmin size. The nanocubes are bound onto the rGOnanosheet uniformly in a</text>
   <text y="483.363" x="200.014,204.764,206.835,212.079,217.323,219.394,224.619,226.772,232.016,236.766,242.01,245.174,250.418,253.087,258.331,263.575,266.739,274.652,279.896,281.986,284.146,289.39,292.553,297.797,302.547,307.791,312.541,317.291,319.951,322.13,324.799,330.043,335.287,340.512,342.652,345.322,350.566,355.791,357.903,363.147,367.897,371.06,376.304,379.468,384.712,389.956,395.2,398.363,403.607,408.83200000000005,411.081,414.244,421.065,426.309,428.979,436.892,442.136" svgx:width="0.5,0.22,0.55,0.55,0.22,0.55,0.55,0.55,0.5,0.55,0.33,0.55,0.28,0.55,0.55,0.33,0.83,0.55,0.22,0.55,0.55,0.33,0.55,0.5,0.55,0.5,0.5,0.28,0.55,0.28,0.55,0.55,0.55,0.55,0.28,0.55,0.55,0.55,0.55,0.5,0.33,0.55,0.33,0.55,0.55,0.55,0.33,0.55,0.55,0.55,0.33,0.72,0.55,0.28,0.83,0.55,0.33" style="fill:rgb(0,0,0);font-family:Helvetica;font-size:9.5px;stroke:none;">single hydrothermal process, then the as-prepared (Co,Mn)</text>
  </g>
  <g begin="text">
   <text y="484.951" x="445.323" svgx:width="0.55" style="fill:rgb(0,0,0);font-family:Helvetica;font-size:6.33px;stroke:none;">3</text>
  </g>
  <g begin="text">
   <text y="483.364" x="449.291" svgx:width="0.78" style="fill:rgb(0,0,0);font-family:Helvetica;font-size:9.5px;stroke:none;">O</text>
  </g>
  <g begin="text">
   <text y="484.951" x="456.718" svgx:width="0.55" style="fill:rgb(0,0,0);font-family:Helvetica;font-size:6.33px;stroke:none;">4</text>
  </g>
  <g begin="text">
   <text y="483.364" x="460.63,463.299,466.463,473.882,483.476,488.226,493.47,501.384,506.628,511.872,516.622,518.693,521.362,526.587,528.774,535.595,540.839,545.589,547.71,552.46,557.704,562.948,566.111" svgx:width="0.28,0.33,0.78,0.78,0.5,0.55,0.83,0.55,0.55,0.5,0.22,0.28,0.55,0.55,0.72,0.55,0.5,0.55,0.5,0.55,0.55,0.33,0.33" style="fill:rgb(0,0,0);font-family:Helvetica;font-size:9.5px;stroke:none;">/rGOcomposite was char-</text>
   <text y="497.367" x="200.014,205.258,210.008,212.677,217.921,221.085,223.156,227.906,233.15,238.375,240.549,245.793,250.543,252.625,255.294,260.538,265.76300000000003,267.932,273.176,278.42,283.664,288.908,294.13300000000004,296.278,304.191,309.435,312.105,317.349,320.513,322.583,327.828,329.898,334.648,336.814,339.483,344.727,347.86199999999997,350.023,355.267,357.338,360.502,362.573,367.817,373.04200000000003,375.195,380.439,385.682,388.352,391.022,396.266,399.429,404.179,406.318,409.482,414.726,417.395,423.722,426.886,429.54600000000005,431.717,434.386,437.04600000000005,439.144,443.894,449.138,454.363,456.492,461.736,466.98,469.051,471.122,475.872,481.116,484.251,486.424,491.668,496.912,502.156,507.4,510.07,515.295,517.435,525.349,531.676,536.9010000000001,539.092" svgx:width="0.55,0.5,0.28,0.55,0.33,0.22,0.5,0.55,0.55,0.55,0.55,0.5,0.55,0.28,0.55,0.55,0.55,0.55,0.55,0.55,0.55,0.55,0.55,0.83,0.55,0.28,0.55,0.33,0.22,0.55,0.22,0.5,0.55,0.28,0.55,0.33,0.55,0.55,0.22,0.33,0.22,0.55,0.55,0.55,0.55,0.55,0.28,0.28,0.55,0.33,0.5,0.55,0.33,0.55,0.28,0.67,0.33,0.28,0.55,0.28,0.28,0.55,0.5,0.55,0.55,0.55,0.55,0.55,0.22,0.22,0.5,0.55,0.33,0.55,0.55,0.55,0.55,0.55,0.28,0.55,0.55,0.83,0.67,0.55,0.55,0.55" style="fill:rgb(0,0,0);font-family:Helvetica;font-size:9.5px;stroke:none;">acterized as the anode materials for Li-ion battery (LIB). It can deliver 1130.6 mAh g</text>
  </g>
  <g begin="text">
   <text y="493.115" x="544.309,546.681" svgx:width="0.33,0.55" style="fill:rgb(0,0,0);font-family:Helvetica;font-size:6.33px;stroke:none;">-1</text>
  </g>
  <g begin="text">
   <text y="497.367" x="552.699,557.943" svgx:width="0.55,0.28" style="fill:rgb(0,0,0);font-family:Helvetica;font-size:9.5px;stroke:none;">at</text>
   <text y="511.37" x="200.015,204.765,210.009,213.172,216.336,221.58,226.824,229.484,231.649,236.893,242.137,247.381,252.131,254.202,256.871,261.621,263.737,268.981,271.641,273.772,279.016,284.26,289.485,291.63,299.543,305.908,307.957" svgx:width="0.5,0.55,0.33,0.33,0.55,0.55,0.28,0.55,0.55,0.55,0.55,0.5,0.22,0.28,0.5,0.55,0.55,0.28,0.55,0.55,0.55,0.55,0.55,0.83,0.67,0.55,0.55" style="fill:rgb(0,0,0);font-family:Helvetica;font-size:9.5px;stroke:none;">current density of 100 mA g</text>
  </g>
  <g begin="text">
   <text y="507.118" x="313.228,315.601" svgx:width="0.33,0.55" style="fill:rgb(0,0,0);font-family:Helvetica;font-size:6.33px;stroke:none;">-1</text>
  </g>
  <g begin="text">
   <text y="511.37" x="321.619,328.44,330.511,333.18,338.40500000000003,340.553,345.797,351.041,361.586,366.83,369.49,371.621,376.371,381.615,386.859,388.93,394.174,402.088,407.332,409.403,414.153,416.295,421.539,424.208,426.878,428.949,433.699,435.77,441.014,446.258,451.008,455.758,457.965,463.209,465.878,468.548,473.792,476.92699999999996,479.054,484.298,489.542,494.767,496.912,501.662,506.412,511.162,513.233,518.477,523.227,525.887,528.037,534.364,537.024,539.148,544.392,549.636,554.88" svgx:width="0.72,0.22,0.28,0.55,0.55,0.55,0.55,0.88,0.55,0.28,0.55,0.5,0.55,0.55,0.22,0.55,0.83,0.55,0.22,0.5,0.55,0.55,0.28,0.28,0.22,0.5,0.22,0.55,0.55,0.5,0.5,0.55,0.55,0.28,0.28,0.55,0.33,0.55,0.55,0.55,0.55,0.55,0.5,0.5,0.5,0.22,0.55,0.5,0.28,0.55,0.67,0.28,0.55,0.55,0.55,0.55,0.55" style="fill:rgb(0,0,0);font-family:Helvetica;font-size:9.5px;stroke:none;">with 98%of coulombic efficiency after 140 cycles. At 1000</text>
   <text y="525.373" x="200.013,207.927,214.292,216.341" svgx:width="0.83,0.67,0.55,0.55" style="fill:rgb(0,0,0);font-family:Helvetica;font-size:9.5px;stroke:none;">mA g</text>
  </g>
  <g begin="text">
   <text y="521.121" x="221.613,223.985" svgx:width="0.33,0.55" style="fill:rgb(0,0,0);font-family:Helvetica;font-size:6.33px;stroke:none;">-1</text>
  </g>
  <g begin="text">
   <text y="525.373" x="227.906,230.566,232.667,235.336,240.58,245.805,247.974,252.724,257.968,263.212,268.456,273.206,275.277,277.947,282.697,284.825,289.575,294.819,300.04400000000004,302.173,306.923,309.592,311.663,313.734,315.82399999999996,317.933,325.847,331.091,333.162,338.406,341.075,346.319,348.39,353.615,355.804,361.048,366.292,371.517,373.662,381.576,387.903,393.12800000000004,395.262" svgx:width="0.28,0.55,0.28,0.55,0.55,0.55,0.5,0.55,0.55,0.55,0.5,0.22,0.28,0.5,0.55,0.5,0.55,0.55,0.55,0.5,0.28,0.22,0.22,0.22,0.55,0.83,0.55,0.22,0.55,0.28,0.55,0.22,0.55,0.55,0.55,0.55,0.55,0.55,0.83,0.67,0.55,0.55,0.55" style="fill:rgb(0,0,0);font-family:Helvetica;font-size:9.5px;stroke:none;">, the capacity can still maintain 750 mAh g</text>
  </g>
  <g begin="text">
   <text y="521.121" x="400.535,402.908" svgx:width="0.33,0.55" style="fill:rgb(0,0,0);font-family:Helvetica;font-size:6.33px;stroke:none;">-1</text>
  </g>
  <g begin="text">
   <text y="525.373" x="406.828,409.488,411.59,416.834,422.078,429.991,435.235,440.479,445.229,447.899,451.062,456.434,459.103,461.174,466.418,471.64300000000003,473.782,479.026,483.776,488.526,493.77,495.841,497.912,503.156,508.4,511.06,513.24,516.403,521.647,524.317,529.542,531.665,536.415,541.659,546.903,552.147,557.391,559.462,561.533,563.604" svgx:width="0.28,0.55,0.55,0.55,0.83,0.55,0.55,0.5,0.28,0.33,0.55,0.28,0.22,0.55,0.55,0.55,0.55,0.5,0.5,0.55,0.22,0.22,0.55,0.55,0.28,0.55,0.33,0.55,0.28,0.55,0.55,0.5,0.55,0.55,0.55,0.55,0.22,0.22,0.22,0.33" style="fill:rgb(0,0,0);font-family:Helvetica;font-size:9.5px;stroke:none;">, demonstrating excellent rate capabili-</text>
   <text y="539.376" x="200.013,202.683,204.754,209.998,214.748,217.408,219.516,225.349,230.593,235.837,239.0,244.244,246.914,252.158,255.321,260.565,263.225,265.437,268.106,273.35,278.57500000000005,280.687,285.931,291.175,296.419,299.583,304.333,307.002,312.246,317.471,319.635,324.879,328.043,333.287,338.037,343.281,348.031,352.781,354.954,357.026,361.776,363.856,369.081,371.226,373.896,379.14,383.89,385.961,388.032,393.257,395.434,400.678,405.922,411.14700000000005,413.291,418.535,421.699,426.943,434.856,436.927,441.677,443.748,448.992,454.21700000000004,456.377,464.291,469.535,472.204,477.448,482.692,487.91700000000003,490.109,492.779,498.004,500.087,502.756,508.0,513.244,516.408,518.479,523.229,528.473,531.142,536.3670000000001,538.582,546.495,551.739,554.409,559.653" svgx:width="0.28,0.22,0.55,0.5,0.28,0.55,0.61,0.55,0.55,0.33,0.55,0.28,0.55,0.33,0.55,0.28,0.55,0.28,0.55,0.55,0.55,0.55,0.55,0.55,0.33,0.5,0.28,0.55,0.55,0.55,0.55,0.33,0.55,0.5,0.55,0.5,0.5,0.55,0.22,0.5,0.55,0.55,0.55,0.28,0.55,0.5,0.22,0.22,0.55,0.55,0.55,0.55,0.55,0.55,0.55,0.33,0.55,0.83,0.22,0.5,0.22,0.55,0.55,0.55,0.83,0.55,0.28,0.55,0.55,0.55,0.55,0.28,0.55,0.55,0.28,0.55,0.55,0.33,0.22,0.5,0.55,0.28,0.55,0.55,0.83,0.55,0.28,0.55,0.22" style="fill:rgb(0,0,0);font-family:Helvetica;font-size:9.5px;stroke:none;">ties. Therefore, the one-step process is a facile and promising method to fabricate metal</text>
   <text y="553.379" x="200.013,205.257,210.007,212.078,217.322,222.566,225.236,228.399,235.819,245.424,250.174,255.418,263.332,268.576,273.82,278.57,280.641,283.31,288.535,290.722,298.636,303.88,306.549,311.793,314.957,317.028,322.272,324.343,329.093,331.258,333.927,339.171,342.306,344.466,349.71,354.954,360.198,363.362,368.606,373.356,375.477,380.227,382.897,388.141,391.304,396.548,401.792,407.017,409.152,414.396,419.64,424.884,426.955,429.026,433.776,439.02,441.689,443.76,449.004,454.393,459.143" svgx:width="0.55,0.5,0.22,0.55,0.55,0.28,0.33,0.78,0.78,0.5,0.55,0.83,0.55,0.55,0.5,0.22,0.28,0.55,0.55,0.83,0.55,0.28,0.55,0.33,0.22,0.55,0.22,0.5,0.55,0.28,0.55,0.33,0.55,0.55,0.55,0.55,0.33,0.55,0.5,0.55,0.5,0.28,0.55,0.33,0.55,0.55,0.55,0.55,0.55,0.55,0.55,0.22,0.22,0.5,0.55,0.28,0.22,0.55,0.55,0.5,0.28" style="fill:rgb(0,0,0);font-family:Helvetica;font-size:9.5px;stroke:none;">oxide/rGOcomposite materials for energy storage applications.</text>
  </g>
  <g begin="text">
   <text y="627.024" x="200.012,203.384,210.752,214.748,219.368,226.736,234.104,241.472,248.096,252.092,255.464,262.832" svgx:width="0.28,0.61,0.33,0.38,0.61,0.61,0.61,0.55,0.33,0.28,0.61,0.61" style="fill:rgb(0,0,0);font-family:Helvetica-Bold;font-size:12.0px;stroke:none;">Introduction</text>
  </g>
  <g begin="text">
   <text y="643.975" x="200.012,206.253,210.563,214.802,219.042,224.322,227.412,229.872,234.472,236.408,244.559,249.548,253.128,257.428,259.539,263.75,266.699,269.689,273.93,279.21,282.31,284.969,289.96,295.46,297.806,303.117,307.496,311.19599999999997,313.397,318.568,322.878,327.117,332.617,334.373,339.664,343.974,346.633,351.933,353.932,356.922,362.02200000000005,364.193,368.434,373.674,378.333,381.003,384.583,389.573,395.023,403.174,407.414,412.694,415.79400000000004,417.995,421.065,424.815,427.474,431.714,437.144,442.474,444.935,448.784,451.084,453.484,457.104,462.385,466.005,469.115,473.425,476.095,481.535,485.835,490.854,493.365,497.555,499.855,501.844,506.154,511.583,516.883,519.078,523.318,526.388,529.458,532.118,536.348,539.008,543.248,548.528" svgx:width="0.62,0.43,0.42,0.43,0.55,0.31,0.25,0.46,0.55,0.82,0.51,0.37,0.43,0.55,0.44,0.31,0.31,0.43,0.55,0.31,0.27,0.51,0.55,0.55,0.53,0.44,0.37,0.55,0.51,0.43,0.43,0.55,0.55,0.52,0.44,0.27,0.53,0.55,0.31,0.51,0.55,0.43,0.55,0.46,0.27,0.37,0.51,0.55,0.82,0.43,0.55,0.31,0.55,0.3,0.37,0.27,0.43,0.55,0.53,0.25,0.46,0.23,0.55,0.37,0.53,0.37,0.31,0.44,0.27,0.55,0.44,0.51,0.25,0.43,0.23,0.55,0.44,0.55,0.53,0.55,0.43,0.3,0.3,0.27,0.42,0.27,0.43,0.55,0.31" style="fill:rgb(0,0,0);font-family:MinionPro-Regular;font-size:10.0px;stroke:none;">Recently more attention has been paid to environment friendly, sustainable, and efficient</text>
   <text y="657.014" x="200.012,205.272,209.613,214.272,216.932,221.173,225.473,227.055,229.934,234.924,238.624,240.831,245.07,250.5,254.741,258.37,263.28,267.88,269.573,273.813,278.803,284.043,288.594,292.833,296.474,300.124,302.784,307.773,313.273,315.382,319.691,325.121,330.421,332.56,336.18,339.169,344.159,347.87,352.2,356.81,361.11,363.173,368.433,372.773,377.433,380.093,384.333,388.563,392.233,394.513" svgx:width="0.53,0.43,0.46,0.27,0.42,0.43,0.55,0.3,0.51,0.37,0.55,0.43,0.55,0.43,0.37,0.47,0.46,0.55,0.42,0.51,0.55,0.46,0.43,0.37,0.37,0.27,0.51,0.55,0.55,0.44,0.55,0.53,0.55,0.37,0.31,0.51,0.37,0.44,0.47,0.43,0.55,0.53,0.43,0.46,0.27,0.42,0.43,0.37,0.23,0.34" style="fill:rgb(0,0,0);font-family:MinionPro-Regular;font-size:10.0px;stroke:none;">device for energy conversion and storage devices.[</text>
   <text y="657.014" x="397.963" svgx:width="0.48" style="fill:rgb(59,90,166);font-family:MinionPro-Regular;font-size:10.0px;stroke:none;">1</text>
   <text y="657.014" x="402.763" svgx:width="0.23" style="fill:rgb(0,0,0);font-family:MinionPro-Regular;font-size:10.0px;stroke:none;">,</text>
   <text y="657.014" x="406.542" svgx:width="0.48" style="fill:rgb(59,90,166);font-family:MinionPro-Regular;font-size:10.0px;stroke:none;">2</text>
   <text y="657.014" x="411.342,414.74199999999996,416.917,422.347,425.027,428.587,431.247,436.237,441.737,443.62,448.75,452.959,455.909,458.899,463.139,466.889,469.549,473.779,477.479,479.45,482.909,488.289,491.7,497.58,501.25,504.75,506.606,513.486,516.046,519.135,524.435,526.505,531.825,534.495,539.235,544.535,546.517,550.137,555.466,559.776,564.006,566.677,569.747,572.407" svgx:width="0.34,0.55,0.54,0.27,0.36,0.27,0.51,0.55,0.55,0.51,0.44,0.31,0.31,0.43,0.37,0.27,0.43,0.37,0.55,0.35,0.54,0.34,0.59,0.37,0.35,0.55,0.69,0.27,0.31,0.53,0.55,0.53,0.27,0.47,0.53,0.55,0.37,0.52,0.43,0.42,0.27,0.3,0.27,0.42" style="fill:rgb(0,0,0);font-family:MinionPro-Regular;font-size:10.0px;stroke:none;">] Li-ion batteries (LIBs) with high specific</text>
   <text y="669.996" x="200.013,204.273,208.483,213.773,218.143,222.373,224.933,228.003,232.60299999999998,234.708,240.018,244.228,248.778,253.078,255.401,258.981,263.291,267.531,271.771,274.381,278.931,283.241,288.541,290.324,297.094,302.084,305.744,308.254,313.464,320.344,323.004,328.264,332.564,334.431,337.101,342.381,345.371,349.611,353.191,357.421,361.041,364.141,366.348,370.658,376.088,381.38800000000003,383.583,387.893,393.393,395.544,398.215,403.645,407.875,411.455,415.755,420.135,423.875,428.175,430.013,432.684,438.184,440.219,443.799,448.029,451.768,456.068,460.378,463.958,468.128,473.428,475.594,480.585,485.775,488.725,493.855,499.045,502.105,504.385" svgx:width="0.42,0.44,0.52,0.44,0.42,0.27,0.31,0.46,0.55,0.53,0.44,0.46,0.43,0.55,0.37,0.43,0.42,0.43,0.27,0.46,0.43,0.53,0.55,0.69,0.51,0.37,0.25,0.53,0.69,0.27,0.53,0.43,0.55,0.27,0.55,0.31,0.43,0.37,0.43,0.37,0.31,0.55,0.44,0.55,0.53,0.55,0.44,0.55,0.55,0.27,0.55,0.42,0.37,0.43,0.44,0.37,0.43,0.55,0.27,0.55,0.55,0.37,0.43,0.37,0.43,0.44,0.37,0.42,0.53,0.55,0.51,0.53,0.31,0.52,0.53,0.31,0.23,0.34" style="fill:rgb(0,0,0);font-family:MinionPro-Regular;font-size:10.0px;stroke:none;">capacity have received worldwide interest and an increase in research output.[</text>
   <text y="669.996" x="507.835" svgx:width="0.48" style="fill:rgb(59,90,166);font-family:MinionPro-Regular;font-size:10.0px;stroke:none;">3</text>
   <text y="669.996" x="512.635" svgx:width="0.52" style="fill:rgb(0,0,0);font-family:MinionPro-Regular;font-size:10.0px;stroke:none;">–</text>
   <text y="669.996" x="517.835" svgx:width="0.48" style="fill:rgb(59,90,166);font-family:MinionPro-Regular;font-size:10.0px;stroke:none;">5</text>
   <text y="669.996" x="522.635,526.035,528.262,535.672,540.621,547.391,551.732,556.281,560.521,563.591" svgx:width="0.34,0.55,0.77,0.51,0.69,0.43,0.46,0.43,0.37,0.23" style="fill:rgb(0,0,0);font-family:MinionPro-Regular;font-size:10.0px;stroke:none;">] However,</text>
   <text y="682.979" x="200.012,203.102,208.402,212.702,214.695,218.936,223.925,229.165,233.715,237.956,243.236,246.335,248.995,253.986,259.426,263.855,266.355,268.609,273.339,277.049,281.259,286.44,291.76,294.32,297.31,301.61,303.759,308.069,313.5,318.689,323.949,328.249,330.178,333.148,337.458,340.188,342.688,346.388,348.434,351.424,356.524,358.638,366.787,371.097,375.337,378.437,380.352,383.442,388.742,393.04200000000003,395.034,398.615,402.924,407.935,413.234,415.905,419.484,423.724,431.875,436.115,441.395,444.445,448.145,450.253,453.133,458.122,461.822,463.973,467.063,472.363,476.663,478.713,481.682,486.063,489.683,492.733,496.293,501.023,504.603,509.553,516.433,519.103,524.493,529.1930000000001,531.04,539.2,543.51,547.169,552.03,556.27,559.32,562.99" svgx:width="0.31,0.53,0.43,0.55,0.42,0.51,0.55,0.46,0.43,0.55,0.31,0.27,0.51,0.55,0.44,0.25,0.55,0.47,0.37,0.44,0.52,0.53,0.27,0.31,0.43,0.55,0.44,0.55,0.51,0.53,0.43,0.55,0.3,0.44,0.27,0.25,0.37,0.55,0.31,0.51,0.55,0.82,0.43,0.43,0.31,0.55,0.31,0.53,0.43,0.55,0.37,0.43,0.51,0.53,0.27,0.37,0.43,0.82,0.43,0.55,0.31,0.37,0.55,0.3,0.51,0.37,0.55,0.31,0.53,0.43,0.55,0.3,0.44,0.37,0.31,0.36,0.47,0.37,0.51,0.69,0.27,0.55,0.47,0.55,0.82,0.44,0.37,0.5,0.43,0.31,0.37,0.23" style="fill:rgb(0,0,0);font-family:MinionPro-Regular;font-size:10.0px;stroke:none;">the conventional graphite anode fails to meet the requirements for the fast-growing markets,</text>
   <text y="696.018" x="200.013,202.893,207.883,211.583,213.789,218.019,222.739,227.049,235.049,240.229,242.739,247.03900000000002,249.222,251.892,257.392,259.483,264.813,269.803,273.613,276.723,281.023,286.043,288.553,292.853,294.632,298.832,301.342,305.652,309.942,313.042,316.622,321.612,327.062,329.722,333.962,337.662,339.363,343.673,349.103,354.403,356.541,361.651,366.371,371.341,375.091,377.751,383.051,385.17,389.72,393.92,399.24,401.9,406.07,408.58,412.81,416.479,418.779,420.717,425.877,431.167,435.467,437.498,440.488,445.588,447.759,450.279,452.949,461.119,463.679,466.669,470.979,476.279,478.203,483.533,488.483,495.253,499.493,503.193,505.189,509.499,514.929,520.2289999999999,522.423,526.663,532.093,536.333,539.963,544.872,549.472,551.223,556.483,560.723,566.193" svgx:width="0.3,0.51,0.37,0.55,0.43,0.47,0.44,0.82,0.52,0.25,0.43,0.55,0.27,0.55,0.55,0.52,0.51,0.37,0.31,0.44,0.51,0.25,0.43,0.55,0.43,0.25,0.43,0.42,0.31,0.37,0.51,0.55,0.27,0.42,0.37,0.55,0.44,0.55,0.53,0.55,0.53,0.46,0.51,0.37,0.27,0.53,0.55,0.46,0.43,0.53,0.27,0.42,0.25,0.43,0.37,0.23,0.55,0.53,0.53,0.43,0.55,0.31,0.51,0.55,0.25,0.27,0.82,0.27,0.31,0.43,0.53,0.55,0.52,0.51,0.69,0.43,0.37,0.55,0.44,0.55,0.53,0.55,0.43,0.55,0.43,0.37,0.47,0.46,0.55,0.53,0.43,0.55,0.36" style="fill:rgb(0,0,0);font-family:MinionPro-Regular;font-size:10.0px;stroke:none;">for example in portable electronics and hybrid vehicles, due to limited power and energy den-</text>
   <text y="709.001" x="200.013,203.663,206.223,209.293,213.143,215.423" svgx:width="0.37,0.27,0.31,0.46,0.23,0.34" style="fill:rgb(0,0,0);font-family:MinionPro-Regular;font-size:10.0px;stroke:none;">sity.[</text>
   <text y="709.001" x="218.873" svgx:width="0.48" style="fill:rgb(59,90,166);font-family:MinionPro-Regular;font-size:10.0px;stroke:none;">6</text>
   <text y="709.001" x="223.673" svgx:width="0.23" style="fill:rgb(0,0,0);font-family:MinionPro-Regular;font-size:10.0px;stroke:none;">,</text>
   <text y="709.001" x="228.699" svgx:width="0.48" style="fill:rgb(59,90,166);font-family:MinionPro-Regular;font-size:10.0px;stroke:none;">7</text>
   <text y="709.001" x="233.499" svgx:width="0.34" style="fill:rgb(0,0,0);font-family:MinionPro-Regular;font-size:10.0px;stroke:none;">]</text>
  </g>
  <path style="fill:rgb(252,174,0);stroke:none;stroke-width:1.0;" d="M576.000 57.900 L36.000 57.900 L36.000 54.400 L576.000 54.400 "/>
  <rect style="stroke:blue;stroke-width:0.3;" x="36.0" y="35.043" height="23.64" width="107.093" title="1"/>
  <text y="35.043" class="image" id="image.1.1" width="107" height="23" x="36.0">image.1.1.36_143.35_59</text>
  <path style="fill:rgb(0,0,0);stroke:none;stroke-width:1.0;" d="M36.000 744.000 L576.000 744.000 L576.000 744.500 L36.000 744.500 "/>
  <g begin="text">
   <text y="756.0" x="36.0,41.328,45.744,51.992,57.352,59.017,65.264,71.008,76.368,78.066,80.146,81.921,87.665,93.913,96.161,98.409,102.825,107.241,109.489,113.782,118.198,122.614,127.03,129.278,131.022,135.438,139.854,142.518,146.834,151.25,152.994,155.242,159.658,164.074,168.49,172.906,175.153,179.569,183.985,188.401,192.698,197.114,201.53,205.93,213.901,220.149,224.149,226.397,230.813,235.229,239.645,242.285,244.005,248.421,252.837,255.077,256.817,261.233,265.649,270.065,274.465,557.005,561.405,563.185,565.425,567.209,571.625" svgx:width="0.67,0.55,0.78,0.67,0.55,0.78,0.72,0.67,0.55,0.26,0.55,0.72,0.78,0.28,0.28,0.55,0.55,0.28,0.55,0.55,0.55,0.55,0.28,0.22,0.55,0.55,0.33,0.55,0.55,0.22,0.28,0.55,0.55,0.55,0.55,0.28,0.55,0.55,0.55,0.55,0.55,0.55,0.55,0.55,0.78,0.5,0.28,0.55,0.55,0.55,0.33,0.55,0.55,0.55,0.28,0.55,0.55,0.55,0.55,0.55,0.55,0.55,0.55,0.28,0.55,0.55,0.55" style="fill:rgb(0,0,0);font-family:Helvetica;font-size:8.0px;stroke:none;">PLOS ONE | DOI:10.1371/journal.pone.0164657 October 27, 2016 1 / 11</text>
  </g>
  <path style="fill:rgb(155,154,156);stroke:none;stroke-width:1.0;" d="M188.000 315.990 L36.000 315.990 L36.000 315.490 L188.000 315.490 "/>
  <path style="fill:rgb(59,90,166);stroke:none;stroke-width:1.0;" d="M156.250 511.090 L180.170 511.090 Z"/>
  <path style="fill:rgb(59,90,166);stroke:none;stroke-width:1.0;" d="M36.000 522.080 L124.160 522.080 Z"/>
  <g begin="text">
   <text y="257.273" x="56.013,60.403,65.202,70.003,74.803,79.603" svgx:width="0.44,0.48,0.48,0.48,0.48,0.48" style="fill:rgb(255,255,255);font-family:MinionPro-Regular;font-size:10.0px;stroke:none;">a11111</text>
  </g>
  <rect style="stroke:blue;stroke-width:0.3;" x="36.355" y="243.504" height="38.424" width="38.424" title="1"/>
  <text y="243.504" class="image" id="image.1.2" width="38" height="38" x="36.355">image.1.2.36_75.244_282</text>
  <path style="fill:rgb(0,0,0);stroke:none;stroke-width:1.0;" d="M74.470 235.780 L36.610 235.780 L36.610 273.630 L74.470 273.630 ZM74.530 235.780 L35.890 235.780 L35.890 285.680 L74.530 285.680 ZM39.040 278.660 C37.220 278.660 35.890 277.390 35.890 275.650 C35.890 273.940 37.220 272.610 38.940 272.610 C39.520 272.610 39.970 272.710 40.470 272.940 L40.470 272.540 L40.880 272.540 L40.880 274.040 L40.470 274.040 L40.470 273.610 C39.930 273.210 39.530 273.060 38.970 273.060 C37.660 273.060 36.760 274.110 36.760 275.600 C36.760 277.060 37.780 278.200 39.100 278.200 C39.540 278.200 39.900 278.090 40.470 277.760 L40.470 277.120 L40.890 277.120 L40.890 278.290 C40.150 278.560 39.660 278.660 39.040 278.660 Z"/>
  <path style="fill:rgb(0,0,0);stroke:none;stroke-width:1.0;" d="M43.840 275.380 C43.660 275.210 43.540 275.130 43.450 275.130 C43.290 275.130 43.130 275.280 42.650 275.870 L42.650 278.220 L43.490 278.220 L43.490 278.550 L41.310 278.550 L41.310 278.220 L41.980 278.220 L41.980 275.040 L41.220 275.040 L41.220 274.800 L42.490 274.460 L42.650 274.460 L42.650 275.450 C43.280 274.640 43.510 274.440 43.830 274.440 C43.940 274.440 44.020 274.470 44.080 274.520 L44.350 274.760 L43.840 275.380 Z"/>
  <path style="fill:rgb(0,0,0);stroke:none;stroke-width:1.0;" d="M46.310 274.810 C45.650 274.810 45.140 275.570 45.140 276.550 C45.140 277.520 45.650 278.290 46.310 278.290 C46.970 278.290 47.490 277.530 47.490 276.550 C47.490 275.570 46.970 274.810 46.310 274.810 ZM46.310 278.660 C45.240 278.660 44.380 277.720 44.380 276.550 C44.380 275.390 45.240 274.440 46.310 274.440 C47.380 274.440 48.240 275.390 48.240 276.550 C48.240 277.720 47.380 278.660 46.310 278.660 Z"/>
  <path style="fill:rgb(0,0,0);stroke:none;stroke-width:1.0;" d="M50.370 278.660 C49.880 278.660 49.510 278.550 49.250 278.310 L49.250 278.630 L48.900 278.630 L48.900 277.370 L49.310 277.370 L49.310 277.610 C49.310 277.990 49.800 278.330 50.350 278.330 C50.830 278.330 51.200 278.070 51.200 277.720 C51.200 277.360 50.950 277.170 50.020 276.810 C49.170 276.480 48.870 276.150 48.870 275.600 C48.870 274.910 49.430 274.440 50.240 274.440 C50.630 274.440 50.930 274.540 51.180 274.740 L51.230 274.420 L51.610 274.420 L51.400 275.700 L51.020 275.700 C51.050 275.600 51.070 275.480 51.070 275.400 C51.070 275.060 50.680 274.780 50.200 274.780 C49.740 274.780 49.440 275.020 49.440 275.400 C49.440 275.780 49.500 275.830 50.570 276.260 C51.430 276.610 51.710 276.900 51.710 277.460 C51.710 278.170 51.160 278.660 50.370 278.660 Z"/>
  <path style="fill:rgb(0,0,0);stroke:none;stroke-width:1.0;" d="M53.940 278.660 C53.450 278.660 53.080 278.550 52.820 278.310 L52.820 278.630 L52.470 278.630 L52.470 277.370 L52.870 277.370 L52.870 277.610 C52.870 277.990 53.370 278.330 53.910 278.330 C54.400 278.330 54.760 278.070 54.760 277.720 C54.760 277.360 54.510 277.170 53.590 276.810 C52.740 276.480 52.440 276.150 52.440 275.600 C52.440 274.910 53.000 274.440 53.810 274.440 C54.200 274.440 54.500 274.540 54.740 274.740 L54.800 274.420 L55.180 274.420 L54.970 275.700 L54.590 275.700 C54.620 275.600 54.640 275.480 54.640 275.400 C54.640 275.060 54.240 274.780 53.760 274.780 C53.310 274.780 53.010 275.020 53.010 275.400 C53.010 275.780 53.070 275.830 54.140 276.260 C55.000 276.610 55.270 276.900 55.270 277.460 C55.270 278.170 54.730 278.660 53.940 278.660 Z"/>
  <path style="fill:rgb(0,0,0);stroke:none;stroke-width:1.0;" d="M60.750 278.550 L60.750 278.220 L61.410 278.220 L61.410 273.880 L59.250 278.630 L57.080 273.780 L57.080 278.220 L57.750 278.220 L57.750 278.550 L55.970 278.550 L55.970 278.220 L56.640 278.220 L56.640 273.050 L55.970 273.050 L55.970 272.720 L57.390 272.720 L59.400 277.220 L61.470 272.720 L62.850 272.720 L62.850 273.050 L62.190 273.050 L62.190 278.220 L62.850 278.220 L62.850 278.550 L60.750 278.550 Z"/>
  <path style="fill:rgb(0,0,0);stroke:none;stroke-width:1.0;" d="M65.530 276.740 L64.020 277.090 L64.020 277.530 C64.020 277.900 64.260 278.140 64.630 278.140 C64.910 278.140 65.140 278.020 65.530 277.670 L65.530 276.740 ZM66.280 278.560 C66.170 278.600 66.040 278.630 65.970 278.630 C65.700 278.630 65.540 278.430 65.540 278.110 L65.540 278.020 C65.170 278.480 64.840 278.660 64.370 278.660 C63.760 278.660 63.310 278.240 63.310 277.650 C63.310 277.200 63.600 276.830 64.020 276.730 L65.530 276.380 L65.530 275.390 C65.530 275.030 65.270 274.780 64.910 274.780 C64.740 274.780 64.620 274.800 64.370 274.930 L64.370 275.350 L63.580 275.580 C63.520 275.470 63.510 275.430 63.510 275.330 C63.510 274.820 64.100 274.440 64.910 274.440 C65.680 274.440 66.190 274.830 66.190 275.410 L66.190 278.130 L66.870 278.130 L66.870 278.380 L66.280 278.560 Z"/>
  <path style="fill:rgb(0,0,0);stroke:none;stroke-width:1.0;" d="M69.760 275.380 C69.580 275.210 69.450 275.130 69.370 275.130 C69.210 275.130 69.050 275.280 68.560 275.870 L68.560 278.220 L69.410 278.220 L69.410 278.550 L67.230 278.550 L67.230 278.220 L67.900 278.220 L67.900 275.040 L67.140 275.040 L67.140 274.800 L68.400 274.460 L68.560 274.460 L68.560 275.450 C69.200 274.640 69.430 274.440 69.750 274.440 C69.850 274.440 69.940 274.470 69.990 274.520 L70.270 274.760 L69.760 275.380 Z"/>
  <path style="fill:rgb(0,0,0);stroke:none;stroke-width:1.0;" d="M73.430 278.550 L71.620 276.370 L73.200 274.870 L72.630 274.870 L72.630 274.550 L74.380 274.550 L74.380 274.870 L73.710 274.870 L72.340 276.180 L74.020 278.220 L74.530 278.220 L74.530 278.550 L73.430 278.550 ZM70.220 278.550 L70.220 278.220 L70.890 278.220 L70.890 272.620 L70.110 272.620 L70.110 272.380 L71.380 272.040 L71.550 272.040 L71.550 278.220 L72.210 278.220 L72.210 278.550 L70.220 278.550 Z"/>
  <path style="fill:rgb(188,42,27);stroke:none;stroke-width:1.0;" d="M41.070 284.650 C40.960 284.700 40.720 284.780 40.410 284.780 C39.720 284.780 39.260 284.310 39.260 283.600 C39.260 282.890 39.750 282.370 40.500 282.370 C40.750 282.370 40.970 282.440 41.080 282.500 L40.990 282.820 C40.890 282.760 40.730 282.710 40.500 282.710 C39.970 282.710 39.690 283.100 39.690 283.580 C39.690 284.110 40.030 284.440 40.490 284.440 C40.730 284.440 40.880 284.380 41.000 284.330 L41.070 284.650 Z"/>
  <path style="fill:rgb(188,42,27);stroke:none;stroke-width:1.0;" d="M41.560 281.350 L41.980 281.350 L41.980 284.730 L41.560 284.730 L41.560 281.350 Z"/>
  <path style="fill:rgb(188,42,27);stroke:none;stroke-width:1.0;" d="M42.690 284.730 L42.690 282.430 L43.110 282.430 L43.110 284.730 L42.690 284.730 ZM42.890 282.030 C42.740 282.030 42.640 281.920 42.640 281.780 C42.640 281.630 42.740 281.520 42.900 281.520 C43.050 281.520 43.160 281.630 43.160 281.780 C43.160 281.920 43.060 282.030 42.890 282.030 L42.890 282.030 Z"/>
  <path style="fill:rgb(188,42,27);stroke:none;stroke-width:1.0;" d="M45.450 284.650 C45.340 284.700 45.090 284.780 44.790 284.780 C44.090 284.780 43.640 284.310 43.640 283.600 C43.640 282.890 44.120 282.370 44.880 282.370 C45.120 282.370 45.340 282.440 45.460 282.500 L45.360 282.820 C45.260 282.760 45.100 282.710 44.880 282.710 C44.350 282.710 44.060 283.100 44.060 283.580 C44.060 284.110 44.400 284.440 44.860 284.440 C45.100 284.440 45.260 284.380 45.380 284.330 L45.450 284.650 Z"/>
  <path style="fill:rgb(188,42,27);stroke:none;stroke-width:1.0;" d="M46.360 283.480 L46.370 283.480 L46.570 283.220 L47.250 282.430 L47.750 282.430 L46.860 283.370 L47.870 284.730 L47.360 284.730 L46.570 283.630 L46.360 283.860 L46.360 284.730 L45.940 284.730 L45.940 281.350 L46.360 281.350 L46.360 283.480 Z"/>
  <path style="fill:rgb(188,42,27);stroke:none;stroke-width:1.0;" d="M49.220 284.730 L49.220 282.740 L48.900 282.740 L48.900 282.430 L49.220 282.430 L49.220 282.320 C49.220 281.990 49.300 281.700 49.490 281.510 C49.650 281.360 49.860 281.300 50.050 281.300 C50.200 281.300 50.330 281.330 50.410 281.360 L50.360 281.690 C50.290 281.660 50.210 281.630 50.080 281.630 C49.730 281.630 49.640 281.950 49.640 282.300 L49.640 282.430 L50.190 282.430 L50.190 282.740 L49.640 282.740 L49.640 284.730 L49.220 284.730 Z"/>
  <path style="fill:rgb(188,42,27);stroke:none;stroke-width:1.0;" d="M51.470 284.470 C51.870 284.470 52.170 284.090 52.170 283.570 C52.170 283.180 51.980 282.690 51.480 282.690 C50.990 282.690 50.770 283.150 50.770 283.580 C50.770 284.090 51.060 284.470 51.470 284.470 L51.470 284.470 ZM51.450 284.780 C50.830 284.780 50.350 284.330 50.350 283.600 C50.350 282.830 50.860 282.370 51.490 282.370 C52.150 282.370 52.600 282.850 52.600 283.560 C52.600 284.410 52.000 284.780 51.460 284.780 L51.450 284.780 Z"/>
  <path style="fill:rgb(188,42,27);stroke:none;stroke-width:1.0;" d="M53.130 283.150 C53.130 282.870 53.120 282.640 53.110 282.430 L53.480 282.430 L53.500 282.880 L53.510 282.880 C53.610 282.570 53.870 282.370 54.150 282.370 L54.270 282.380 L54.270 282.780 L54.120 282.770 C53.830 282.770 53.620 282.990 53.560 283.300 L53.550 283.500 L53.550 284.730 L53.130 284.730 L53.130 283.150 Z"/>
  <path style="fill:rgb(188,42,27);stroke:none;stroke-width:1.0;" d="M57.630 284.100 C57.630 284.340 57.630 284.550 57.650 284.730 L57.270 284.730 L57.250 284.360 L57.240 284.360 C57.140 284.540 56.890 284.780 56.480 284.780 C56.120 284.780 55.680 284.580 55.680 283.770 L55.680 282.430 L56.100 282.430 L56.100 283.700 C56.100 284.140 56.240 284.440 56.620 284.440 C56.900 284.440 57.090 284.240 57.170 284.050 L57.210 283.840 L57.210 282.430 L57.630 282.430 L57.630 284.100 Z"/>
  <path style="fill:rgb(188,42,27);stroke:none;stroke-width:1.0;" d="M58.740 283.790 L58.760 283.960 C58.830 284.260 59.090 284.460 59.380 284.460 C59.830 284.460 60.090 284.090 60.090 283.560 C60.090 283.100 59.850 282.710 59.400 282.710 C59.120 282.710 58.850 282.910 58.770 283.230 L58.740 283.390 L58.740 283.790 ZM58.320 283.180 C58.320 282.880 58.320 282.650 58.300 282.430 L58.680 282.430 L58.700 282.820 L58.710 282.820 C58.880 282.530 59.160 282.370 59.530 282.370 C60.090 282.370 60.510 282.850 60.510 283.550 C60.510 284.370 60.000 284.780 59.460 284.780 C59.150 284.780 58.890 284.650 58.750 284.420 L58.740 284.420 L58.740 285.680 L58.320 285.680 L58.320 283.180 Z"/>
  <path style="fill:rgb(188,42,27);stroke:none;stroke-width:1.0;" d="M62.610 283.370 L62.590 283.180 C62.530 282.920 62.300 282.700 61.980 282.700 C61.550 282.700 61.290 283.080 61.290 283.590 C61.290 284.060 61.520 284.450 61.970 284.450 C62.250 284.450 62.510 284.260 62.590 283.940 L62.610 283.760 L62.610 283.370 ZM63.030 281.350 L63.030 284.140 C63.030 284.340 63.030 284.570 63.050 284.730 L62.670 284.730 L62.650 284.330 L62.640 284.330 C62.510 284.590 62.230 284.780 61.860 284.780 C61.300 284.780 60.870 284.310 60.870 283.610 C60.860 282.840 61.340 282.370 61.900 282.370 C62.260 282.370 62.500 282.540 62.600 282.720 L62.610 282.720 L62.610 281.350 L63.030 281.350 Z"/>
  <path style="fill:rgb(188,42,27);stroke:none;stroke-width:1.0;" d="M64.940 283.560 C64.480 283.550 63.960 283.630 63.960 284.070 C63.960 284.350 64.140 284.480 64.350 284.480 C64.660 284.480 64.850 284.280 64.920 284.090 L64.940 283.960 L64.940 283.560 ZM65.350 284.180 C65.350 284.380 65.360 284.570 65.380 284.730 L65.000 284.730 L64.970 284.440 L64.950 284.440 C64.830 284.620 64.570 284.780 64.250 284.780 C63.780 284.780 63.540 284.460 63.540 284.120 C63.540 283.560 64.040 283.260 64.930 283.260 L64.930 283.220 C64.930 283.030 64.870 282.680 64.400 282.680 C64.180 282.680 63.960 282.740 63.800 282.850 L63.700 282.570 C63.890 282.450 64.170 282.370 64.470 282.370 C65.180 282.370 65.350 282.850 65.350 283.320 L65.350 284.180 Z"/>
  <path style="fill:rgb(188,42,27);stroke:none;stroke-width:1.0;" d="M66.500 281.870 L66.500 282.430 L67.100 282.430 L67.100 282.740 L66.500 282.740 L66.500 283.980 C66.500 284.270 66.590 284.430 66.820 284.430 C66.930 284.430 67.000 284.420 67.060 284.400 L67.080 284.720 C67.000 284.750 66.870 284.780 66.710 284.780 C66.510 284.780 66.360 284.710 66.260 284.600 C66.140 284.480 66.090 284.270 66.090 284.000 L66.090 282.740 L65.740 282.740 L65.740 282.430 L66.090 282.430 L66.090 282.000 L66.500 281.870 Z"/>
  <path style="fill:rgb(188,42,27);stroke:none;stroke-width:1.0;" d="M69.010 283.360 C69.010 283.090 68.900 282.670 68.430 282.670 C68.010 282.670 67.820 283.060 67.790 283.360 L69.010 283.360 ZM67.790 283.650 C67.800 284.220 68.150 284.450 68.570 284.450 C68.870 284.450 69.060 284.400 69.210 284.330 L69.290 284.630 C69.140 284.700 68.880 284.780 68.510 284.780 C67.810 284.780 67.380 284.310 67.380 283.620 C67.380 282.920 67.800 282.370 68.470 282.370 C69.220 282.370 69.420 283.040 69.420 283.460 L69.400 283.650 L67.790 283.650 Z"/>
  <path style="fill:rgb(188,42,27);stroke:none;stroke-width:1.0;" d="M69.880 284.300 C70.010 284.380 70.230 284.470 70.430 284.470 C70.740 284.470 70.880 284.320 70.880 284.120 C70.880 283.920 70.760 283.820 70.450 283.700 C70.040 283.550 69.840 283.320 69.840 283.050 C69.840 282.680 70.140 282.370 70.640 282.370 C70.870 282.370 71.070 282.440 71.200 282.520 L71.100 282.820 C71.010 282.760 70.840 282.680 70.630 282.680 C70.380 282.680 70.240 282.830 70.240 283.000 C70.240 283.190 70.380 283.270 70.680 283.390 C71.070 283.540 71.280 283.740 71.280 284.080 C71.280 284.490 70.960 284.780 70.430 284.780 C70.170 284.780 69.940 284.710 69.780 284.620 L69.880 284.300 Z"/>
  <rect style="stroke:blue;stroke-width:0.3;" x="36.0" y="339.257" height="11.678" width="9.014" title="1"/>
  <text y="339.257" class="image" id="image.1.3" width="9" height="11" x="36.0">image.1.3.36_45.339_351</text>
  <g begin="text">
   <text y="342.595" x="47.622,53.846,59.182,64.518,71.886,77.222,82.998,88.773,94.109,99.445" svgx:width="0.78,0.67,0.67,0.72,0.67,0.72,0.72,0.67,0.67,0.67" style="fill:rgb(0,0,0);font-family:ArialMT-Identity-H;font-size:8.0px;stroke:none;">OPENACCESS</text>
   <text y="358.979" x="36.001,40.216,42.264,44.312,48.112,50.16,52.208,56.008,59.808" svgx:width="0.55,0.28,0.28,0.5,0.28,0.28,0.5,0.5,0.28" style="fill:rgb(0,0,0);font-family:Helvetica-Condensed-Bold;font-size:8.0px;stroke:none;">Citation:</text>
   <text y="358.979" x="63.552,67.352,69.11200000000001,70.639,74.438,76.438,77.952,82.168,85.968,87.72800000000001,89.291,93.507,95.507,97.001,101.217,105.016,108.392,112.392,113.952,117.328,119.328,120.868,125.58,128.956,132.756,136.756,138.273,142.073,144.073,145.586,152.05,156.05,157.605,161.20499999999998,162.708,165.172,168.972,172.772,176.572,180.372" svgx:width="0.5,0.22,0.55,0.5,0.25,0.55,0.55,0.5,0.22,0.55,0.55,0.25,0.55,0.55,0.5,0.45,0.5,0.55,0.45,0.25,0.55,0.61,0.45,0.5,0.5,0.55,0.5,0.25,0.55,0.83,0.5,0.55,0.45,0.55,0.33,0.5,0.5,0.5,0.5,0.33" style="fill:rgb(0,0,0);font-family:Helvetica-Condensed;font-size:8.0px;stroke:none;">Li Z, Cui Y, Chen J, Deng L, Wu J (2016)</text>
   <text y="369.977" x="36.001,39.377,42.752,46.552,49.016,50.56,53.936,57.312,59.36,60.904,64.63,68.63,70.185,73.985,76.225,77.782,80.246,84.462,88.262,90.062,96.11,99.91" svgx:width="0.45,0.45,0.5,0.33,0.22,0.45,0.45,0.28,0.22,0.5,0.5,0.55,0.5,0.28,0.55,0.33,0.55,0.5,0.25,0.78,0.5,0.33" style="fill:rgb(0,0,0);font-family:Helvetica-Condensed;font-size:8.0px;stroke:none;">Fabrication of (Co,Mn)</text>
  </g>
  <g begin="text">
   <text y="371.339" x="102.331" svgx:width="0.5" style="fill:rgb(0,0,0);font-family:Helvetica-Condensed;font-size:5.33px;stroke:none;">3</text>
  </g>
  <g begin="text">
   <text y="369.978" x="105.109" svgx:width="0.61" style="fill:rgb(0,0,0);font-family:Helvetica-Condensed;font-size:8.0px;stroke:none;">O</text>
  </g>
  <g begin="text">
   <text y="371.339" x="109.814" svgx:width="0.5" style="fill:rgb(0,0,0);font-family:Helvetica-Condensed;font-size:5.33px;stroke:none;">4</text>
  </g>
  <g begin="text">
   <text y="369.978" x="112.592,114.64,117.104,121.816,126.696,128.239,132.455,136.255,142.303,146.103,149.903,153.279,154.823,156.871,160.471,161.971,164.019,167.819" svgx:width="0.28,0.33,0.61,0.61,0.55,0.55,0.5,0.78,0.5,0.5,0.45,0.22,0.28,0.45,0.55,0.28,0.5,0.33" style="fill:rgb(0,0,0);font-family:Helvetica-Condensed;font-size:8.0px;stroke:none;">/rGO Composite for</text>
   <text y="380.976" x="36.001,39.801,41.345,43.393,47.193,48.737,52.537,60.266,62.314,66.113,70.113,71.661,75.877,79.253,81.3,83.348,86.724,89.188,92.788,94.281,98.497,102.297,106.097,109.897,113.497,114.973,118.773,122.37299999999999,123.874,127.47399999999999,129.033,133.745,137.545,140.921,143.385,147.6,149.648,153.024" svgx:width="0.5,0.22,0.28,0.5,0.22,0.5,0.78,0.28,0.5,0.5,0.55,0.55,0.45,0.28,0.28,0.45,0.33,0.45,0.55,0.55,0.5,0.5,0.5,0.45,0.55,0.5,0.45,0.55,0.45,0.55,0.61,0.5,0.45,0.33,0.55,0.28,0.45,0.5" style="fill:rgb(0,0,0);font-family:Helvetica-Condensed;font-size:8.0px;stroke:none;">LithiumIon Battery Anode by a One-Step</text>
   <text y="391.975" x="36.001,40.713,44.089,47.889,50.353,54.153,56.201,60.001,63.377,65.841,71.773,75.149,76.909,78.464,82.68,85.144,88.944,92.32,95.696,99.071,102.67099999999999,104.145,109.273,110.817,112.865,116.865,118.431" svgx:width="0.61,0.45,0.5,0.33,0.5,0.28,0.5,0.45,0.33,0.78,0.45,0.22,0.55,0.55,0.33,0.5,0.45,0.45,0.45,0.45,0.55,0.67,0.22,0.28,0.5,0.55,0.61" style="fill:rgb(0,0,0);font-family:Helvetica-Condensed;font-size:8.0px;stroke:none;">Hydrothermal Process with H</text>
  </g>
  <g begin="text">
   <text y="393.336" x="123.137" svgx:width="0.5" style="fill:rgb(0,0,0);font-family:Helvetica-Condensed;font-size:5.33px;stroke:none;">2</text>
  </g>
  <g begin="text">
   <text y="391.975" x="125.915" svgx:width="0.61" style="fill:rgb(0,0,0);font-family:Helvetica-Condensed;font-size:8.0px;stroke:none;">O</text>
  </g>
  <g begin="text">
   <text y="393.336" x="130.62" svgx:width="0.5" style="fill:rgb(0,0,0);font-family:Helvetica-Condensed;font-size:5.33px;stroke:none;">2</text>
  </g>
  <g begin="text">
   <text y="391.975" x="135.156,138.532,142.132,143.66,147.876,151.676,155.476,157.02,159.068,160.612,163.988,167.363,169.363,170.872,175.088,178.888,182.688" svgx:width="0.45,0.45,0.55,0.55,0.5,0.5,0.22,0.28,0.22,0.45,0.45,0.25,0.55,0.55,0.5,0.5,0.55" style="fill:rgb(0,0,0);font-family:Helvetica-Condensed;font-size:8.0px;stroke:none;">as Additive. PLoS</text>
   <text y="402.973" x="36.001,40.713,45.425,49.425,50.967,54.767,58.567,61.031,64.831,68.631,71.095,73.095,74.552,77.928,81.728,85.528,89.328,93.128,96.928,100.728,104.527,106.527,108.0,111.8,115.6,117.144,118.944,122.744,126.544,128.344,132.144,135.944,139.634,143.434,145.482,147.026,150.826,154.626,157.09,160.89,164.266,165.81" svgx:width="0.61,0.61,0.5,0.55,0.5,0.5,0.33,0.5,0.5,0.33,0.25,0.55,0.45,0.5,0.5,0.5,0.5,0.5,0.5,0.5,0.25,0.55,0.5,0.5,0.22,0.25,0.5,0.5,0.25,0.5,0.5,0.5,0.5,0.28,0.22,0.5,0.5,0.33,0.5,0.45,0.22,0.25" style="fill:rgb(0,0,0);font-family:Helvetica-Condensed;font-size:8.0px;stroke:none;">ONE 11(10): e0164657. doi:10.1371/journal.</text>
   <text y="413.971" x="36.001,39.801,43.601,47.401,50.777,52.577,56.377,60.177,63.977,67.777,71.577,75.232" svgx:width="0.5,0.5,0.5,0.45,0.25,0.5,0.5,0.5,0.5,0.5,0.5,0.5" style="fill:rgb(0,0,0);font-family:Helvetica-Condensed;font-size:8.0px;stroke:none;">pone.0164657</text>
   <text y="430.979" x="36.001,39.801,43.601,45.649,47.697,51.497,53.961" svgx:width="0.5,0.5,0.28,0.28,0.5,0.33,0.28" style="fill:rgb(0,0,0);font-family:Helvetica-Condensed-Bold;font-size:8.0px;stroke:none;">Editor:</text>
   <text y="430.979" x="57.714,61.09,64.89,68.89,70.413,74.629,78.429,80.429,81.979,86.195,89.571,91.115,94.915,98.291,102.091,106.091,107.547,112.259,116.059,117.603,120.978,124.354,126.818,130.194,131.738,133.786,137.162,139.162,140.711,144.927,149.639,151.687,156.399" svgx:width="0.45,0.5,0.5,0.55,0.55,0.5,0.25,0.55,0.55,0.45,0.22,0.5,0.45,0.5,0.5,0.55,0.61,0.5,0.22,0.45,0.45,0.33,0.45,0.22,0.28,0.45,0.25,0.55,0.55,0.61,0.28,0.61,0.55" style="fill:rgb(0,0,0);font-family:Helvetica-Condensed;font-size:8.0px;stroke:none;">Jun Xu, Beihang University, CHINA</text>
   <text y="447.987" x="36.001,40.713,44.513,47.889,51.689,53.737,57.113,60.913,64.713" svgx:width="0.61,0.5,0.45,0.5,0.28,0.45,0.5,0.5,0.28" style="fill:rgb(0,0,0);font-family:Helvetica-Condensed-Bold;font-size:8.0px;stroke:none;">Received:</text>
   <text y="447.987" x="68.429,71.805,75.605,77.149,80.749,82.262,86.062,88.062,89.632,93.432,97.232,101.032" svgx:width="0.45,0.5,0.22,0.45,0.55,0.5,0.25,0.55,0.5,0.5,0.5,0.5" style="fill:rgb(0,0,0);font-family:Helvetica-Condensed;font-size:8.0px;stroke:none;">July 2, 2016</text>
   <text y="464.995" x="36.001,40.217,43.593,46.969,50.769,54.569,56.617,60.417,64.217" svgx:width="0.55,0.45,0.45,0.5,0.5,0.28,0.5,0.5,0.28" style="fill:rgb(0,0,0);font-family:Helvetica-Condensed-Bold;font-size:8.0px;stroke:none;">Accepted:</text>
   <text y="464.995" x="67.919,72.135,75.511,79.311,81.359,84.735,90.783,94.583,97.959,100.599,102.104,105.904,109.704,111.704,113.273,117.073,120.873,124.673" svgx:width="0.55,0.45,0.5,0.28,0.45,0.78,0.5,0.45,0.33,0.55,0.5,0.5,0.25,0.55,0.5,0.5,0.5,0.5" style="fill:rgb(0,0,0);font-family:Helvetica-Condensed;font-size:8.0px;stroke:none;">September 28, 2016</text>
   <text y="482.003" x="36.001,40.217,44.017,47.817,49.865,51.913,55.289,59.089,62.889,66.689" svgx:width="0.55,0.5,0.5,0.28,0.28,0.45,0.5,0.5,0.5,0.28" style="fill:rgb(0,0,0);font-family:Helvetica-Condensed-Bold;font-size:8.0px;stroke:none;">Published:</text>
   <text y="482.003" x="70.413,75.125,78.501,80.549,84.349,88.149,91.525,94.165,95.698,99.498,103.298,105.298,106.81,110.61,114.41,118.21" svgx:width="0.61,0.45,0.28,0.5,0.5,0.45,0.33,0.55,0.5,0.5,0.25,0.55,0.5,0.5,0.5,0.5" style="fill:rgb(0,0,0);font-family:Helvetica-Condensed;font-size:8.0px;stroke:none;">October 27, 2016</text>
   <text y="499.01" x="36.001,40.217,44.017,47.817,51.193,53.657,55.705,59.505,63.305,65.353" svgx:width="0.55,0.5,0.5,0.45,0.33,0.28,0.5,0.5,0.28,0.28" style="fill:rgb(0,0,0);font-family:Helvetica-Condensed-Bold;font-size:8.0px;stroke:none;">Copyright:</text>
   <text y="499.01" x="69.053" svgx:width="0.6" style="fill:rgb(0,0,0);font-family:ArialNarrow-Identity-H;font-size:8.0px;stroke:none;">©</text>
   <text y="499.01" x="75.345,79.145,82.945,86.745,90.745,92.296,96.096,97.85600000000001,99.384,102.759,104.999,106.527,109.903,111.447,113.447,115.031,118.83,122.63,124.174,127.774,129.26,130.804,134.404,135.949,139.325,143.325,144.85,148.65,152.45,155.826,159.826,161.348,164.724,168.099,171.475,174.851,178.227" svgx:width="0.5,0.5,0.5,0.5,0.55,0.5,0.22,0.55,0.45,0.28,0.55,0.45,0.22,0.25,0.55,0.5,0.5,0.22,0.45,0.55,0.22,0.45,0.55,0.45,0.5,0.55,0.5,0.5,0.45,0.5,0.55,0.45,0.45,0.45,0.45,0.45,0.45" style="fill:rgb(0,0,0);font-family:Helvetica-Condensed;font-size:8.0px;stroke:none;">2016 Li et al. This is an open access</text>
   <text y="510.009" x="36.001,39.377,41.841,43.889,45.433,48.809,50.353,53.953,55.446,59.246,60.79,64.166,66.214,68.678,70.222,74.022,77.822,79.87,83.246,87.246,88.725,92.525,96.325,100.125,103.501,106.141,107.717,109.765,113.565,117.16499999999999,118.658,120.706,124.082,126.546,132.594,136.194,137.707,141.507,143.747,145.304,147.352,151.152" svgx:width="0.45,0.33,0.28,0.22,0.45,0.22,0.45,0.55,0.5,0.22,0.45,0.28,0.33,0.22,0.5,0.5,0.28,0.45,0.5,0.55,0.5,0.5,0.5,0.45,0.33,0.55,0.28,0.5,0.45,0.55,0.28,0.45,0.33,0.78,0.45,0.55,0.5,0.28,0.55,0.28,0.5,0.45" style="fill:rgb(0,0,0);font-family:Helvetica-Condensed;font-size:8.0px;stroke:none;">article distributed under the terms of the</text>
   <text y="510.009" x="156.245,160.461,162.925,166.301,169.677,171.725,173.269,176.645" svgx:width="0.55,0.33,0.45,0.45,0.28,0.22,0.45,0.45" style="fill:rgb(59,90,166);font-family:Helvetica-Condensed;font-size:8.0px;stroke:none;">Creative</text>
   <text y="521.007" x="36.001,40.217,44.017,50.065,56.113,59.913,63.713,67.313,68.77,72.985,75.033,77.081,79.545,81.089,84.889,88.689,90.737,92.184,95.984,99.984,101.538,105.338,106.882,110.258,113.634,117.434,120.81" svgx:width="0.55,0.5,0.78,0.78,0.5,0.5,0.45,0.55,0.55,0.28,0.28,0.33,0.22,0.5,0.5,0.28,0.22,0.5,0.5,0.55,0.5,0.22,0.45,0.45,0.5,0.45,0.45" style="fill:rgb(59,90,166);font-family:Helvetica-Condensed;font-size:8.0px;stroke:none;">Commons Attribution License</text>
   <text y="521.007" x="124.186,126.186,127.73,132.858,136.657,138.201,141.577,145.577,147.061,150.861,154.237,156.701,162.749,164.293,166.341" svgx:width="0.25,0.55,0.67,0.5,0.22,0.45,0.5,0.55,0.5,0.45,0.33,0.78,0.22,0.28,0.45" style="fill:rgb(0,0,0);font-family:Helvetica-Condensed;font-size:8.0px;stroke:none;">, which permits</text>
   <text y="532.005" x="36.001,39.801,43.601,46.065,49.441,52.817,54.865,57.329,58.873,62.249,64.297,67.673,71.673,73.134,76.934,80.31,83.686,85.686,87.251,91.051,92.595,95.971,98.019,100.483,102.027,105.827,109.627,111.675,113.219,117.019,120.699,122.699,124.271,127.647,131.447,135.447,136.969,139.433,142.809,146.609,149.073,152.873,156.673,160.473,163.849,165.897,167.441,171.241,175.241,176.711,178.255" svgx:width="0.5,0.5,0.33,0.45,0.45,0.28,0.33,0.22,0.45,0.28,0.45,0.5,0.55,0.5,0.45,0.45,0.25,0.55,0.5,0.22,0.45,0.28,0.33,0.22,0.5,0.5,0.28,0.22,0.5,0.5,0.25,0.55,0.45,0.5,0.5,0.55,0.33,0.45,0.5,0.33,0.5,0.5,0.5,0.45,0.28,0.22,0.5,0.5,0.55,0.22,0.5" style="fill:rgb(0,0,0);font-family:Helvetica-Condensed;font-size:8.0px;stroke:none;">unrestricted use, distribution, and reproduction in</text>
   <text y="543.003" x="36.001,39.377,43.177,46.777,48.303,54.351,57.727,61.527,63.071,66.871,72.919,74.919,76.423,80.223,82.687,86.487,89.863,91.407,95.207,98.476,102.476,104.032,106.08,109.88,113.47999999999999,115.031,118.83,121.294,122.838,126.638,128.182,131.982,135.358,137.118,138.613,141.989,145.789,147.837,151.637,155.437,158.077,159.59,162.966,166.766" svgx:width="0.45,0.5,0.45,0.55,0.78,0.45,0.5,0.22,0.5,0.78,0.25,0.55,0.5,0.33,0.5,0.45,0.22,0.5,0.45,0.5,0.55,0.28,0.5,0.45,0.55,0.5,0.33,0.22,0.5,0.22,0.5,0.45,0.22,0.55,0.45,0.5,0.28,0.5,0.5,0.33,0.55,0.45,0.5,0.5" style="fill:rgb(0,0,0);font-family:Helvetica-Condensed;font-size:8.0px;stroke:none;">any medium, provided the original author and</text>
   <text y="554.002" x="36.001,39.377,43.177,46.977,49.441,52.817,56.417,57.884,61.26,63.724,67.324,68.882,72.258,74.722,78.098,81.898,83.442,85.49,88.866,92.58" svgx:width="0.45,0.5,0.5,0.33,0.45,0.45,0.55,0.45,0.33,0.45,0.55,0.45,0.33,0.45,0.5,0.22,0.28,0.45,0.5,0.25" style="fill:rgb(0,0,0);font-family:Helvetica-Condensed;font-size:8.0px;stroke:none;">source are credited.</text>
   <text y="571.01" x="36.001,40.713,44.513,46.561,50.561,52.102,56.318,59.694,63.494,65.542,67.59,71.389,75.189,77.237,79.285,81.333,83.282,86.88199999999999,88.384,92.6,94.648,98.448,100.496,104.296,110.344,114.144,117.944,119.992" svgx:width="0.61,0.5,0.28,0.5,0.55,0.55,0.45,0.5,0.28,0.28,0.5,0.5,0.28,0.28,0.28,0.28,0.45,0.55,0.55,0.28,0.5,0.28,0.5,0.78,0.5,0.5,0.28,0.28" style="fill:rgb(0,0,0);font-family:Helvetica-Condensed-Bold;font-size:8.0px;stroke:none;">Data Availability Statement:</text>
   <text y="571.01" x="123.704,127.92,129.464,131.224,132.775,135.239,138.615,140.159,143.535,146.911,150.287,154.087,156.327,157.832,161.632,165.008,167.056,170.656,172.175,175.551,178.015" svgx:width="0.55,0.22,0.22,0.55,0.33,0.45,0.22,0.45,0.45,0.45,0.5,0.28,0.55,0.5,0.45,0.28,0.45,0.55,0.45,0.33,0.45" style="fill:rgb(0,0,0);font-family:Helvetica-Condensed;font-size:8.0px;stroke:none;">All relevant data are</text>
   <text y="582.009" x="36.001,41.129,42.673,44.721,48.521,50.065,54.065,55.56,57.608,61.408,65.008,66.558,70.358,73.734,77.534,80.91,83.55,85.097,88.472,92.272,96.272,97.796,99.34,101.388,104.988,106.527,110.743,114.543,118.342,122.142,125.942,128.406,130.338,131.882,135.681,139.681,141.221,143.269,147.069,149.117,152.917,155.381,161.429,164.805,166.853,168.397,172.197" svgx:width="0.67,0.22,0.28,0.5,0.22,0.5,0.55,0.28,0.5,0.45,0.55,0.5,0.45,0.5,0.45,0.33,0.55,0.45,0.5,0.5,0.55,0.22,0.28,0.45,0.55,0.55,0.5,0.5,0.5,0.5,0.33,0.28,0.22,0.5,0.5,0.55,0.28,0.5,0.28,0.5,0.33,0.78,0.45,0.28,0.22,0.5,0.5" style="fill:rgb(0,0,0);font-family:Helvetica-Condensed;font-size:8.0px;stroke:none;">within the paper and its Supporting Information</text>
   <text y="593.007" x="36.001,38.049,39.593,41.137,44.513,47.889" svgx:width="0.28,0.22,0.22,0.45,0.45,0.25" style="fill:rgb(0,0,0);font-family:Helvetica-Condensed;font-size:8.0px;stroke:none;">files.</text>
   <text y="610.015" x="36.001,39.801,43.601,47.401,51.201,53.249,57.049,60.849" svgx:width="0.5,0.5,0.5,0.5,0.28,0.5,0.5,0.28" style="fill:rgb(0,0,0);font-family:Helvetica-Condensed-Bold;font-size:8.0px;stroke:none;">Funding:</text>
   <text y="610.015" x="64.574,68.374,72.173,75.773,77.273,82.401,86.201,88.665,92.265,93.771,98.899,102.275,105.875,107.377,110.753,114.553,118.353,122.153,125.953,128.417,130.465,133.841,137.841,139.351,143.151,146.751,148.252,152.468,156.268,159.644,163.444,166.324,170.123,173.499" svgx:width="0.5,0.5,0.45,0.55,0.67,0.5,0.33,0.45,0.55,0.67,0.45,0.45,0.55,0.45,0.5,0.5,0.5,0.5,0.33,0.28,0.45,0.5,0.55,0.5,0.45,0.55,0.55,0.5,0.45,0.5,0.38,0.5,0.45,0.5" style="fill:rgb(0,0,0);font-family:Helvetica-Condensed;font-size:8.0px;stroke:none;">The work was supported by Shenzhen</text>
   <text y="621.013" x="36.001,40.217,43.593,46.969,50.345,54.145,57.521,61.121,62.59,66.806,68.35,71.725,75.725,77.273,81.489,83.953,87.753,91.553,94.017,97.393" svgx:width="0.55,0.45,0.45,0.45,0.5,0.45,0.45,0.55,0.55,0.22,0.45,0.5,0.55,0.55,0.33,0.5,0.5,0.33,0.45,0.78" style="fill:rgb(0,0,0);font-family:Helvetica-Condensed;font-size:8.0px;stroke:none;">Peacock Plan Program</text>
   <text y="632.011" x="36.001,38.465,42.681,47.393,51.609,55.825,59.625,63.425,67.225,71.025,74.825,78.625,82.262,86.062,89.862,93.662,97.462,101.262,105.062,108.862,112.662,116.462,120.133,122.597,124.597,126.142,129.518,133.318,137.118,140.918,144.294,150.342,153.718,157.518,159.566,162.942" svgx:width="0.33,0.55,0.61,0.55,0.55,0.5,0.5,0.5,0.5,0.5,0.5,0.5,0.5,0.5,0.5,0.5,0.5,0.5,0.5,0.5,0.5,0.5,0.33,0.25,0.55,0.45,0.5,0.5,0.5,0.45,0.78,0.45,0.5,0.28,0.45,0.22" style="fill:rgb(0,0,0);font-family:Helvetica-Condensed;font-size:8.0px;stroke:none;">(KQCX20140521144358003), Fundamental</text>
   <text y="643.009" x="36.001,40.713,44.089,47.465,50.841,54.217,56.681,60.057,64.057,65.594,69.81,72.274,76.074,79.874,82.338,85.607,93.431,97.231,99.47099999999999,101.028,105.243,109.043,112.419,116.219,119.099,122.899,126.275" svgx:width="0.61,0.45,0.45,0.45,0.45,0.33,0.45,0.5,0.55,0.55,0.33,0.5,0.5,0.33,0.45,0.78,0.5,0.28,0.55,0.55,0.5,0.45,0.5,0.38,0.5,0.45,0.5" style="fill:rgb(0,0,0);font-family:Helvetica-Condensed;font-size:8.0px;stroke:none;">Research Programof Shenzhen</text>
   <text y="654.008" x="36.001,38.465,41.841,46.057,50.273,53.649,57.449,61.249,65.049,68.849,72.649,76.309,80.109,83.909,87.709,91.509,95.309,99.109,102.909,106.709,110.509,114.18,117.98,120.444,122.444,123.988,126.036,129.836,131.884,135.26,137.724,141.524,144.9,146.948,148.492,152.292,156.092,159.468" svgx:width="0.33,0.45,0.55,0.55,0.45,0.5,0.5,0.5,0.5,0.5,0.5,0.5,0.5,0.5,0.5,0.5,0.5,0.5,0.5,0.5,0.5,0.5,0.33,0.25,0.55,0.28,0.5,0.28,0.45,0.33,0.5,0.45,0.28,0.22,0.5,0.5,0.45,0.22" style="fill:rgb(0,0,0);font-family:Helvetica-Condensed;font-size:8.0px;stroke:none;">(JCYJ20140417172417144), International</text>
   <text y="665.007" x="36.001,40.217,44.017,45.561,47.105,50.481,54.281,58.081,60.545,63.921,65.878,67.422,71.221,75.221,76.763,80.979,83.443,87.243,91.043,93.507,96.883,104.655,108.455,110.695,112.195,116.411,120.211,123.587,127.387,130.267,134.067,137.443" svgx:width="0.55,0.5,0.22,0.22,0.45,0.5,0.5,0.33,0.45,0.28,0.22,0.5,0.5,0.55,0.55,0.33,0.5,0.5,0.33,0.45,0.78,0.5,0.28,0.55,0.55,0.5,0.45,0.5,0.38,0.5,0.45,0.5" style="fill:rgb(0,0,0);font-family:Helvetica-Condensed;font-size:8.0px;stroke:none;">Collaboration Programof Shenzhen</text>
   <text y="676.005" x="36.001,38.465,43.177,46.553,51.265,55.065,58.865,62.665,66.465,70.265,74.065,77.727,81.527,85.327,89.127,92.927,96.727,100.527,104.327,108.127,111.927,115.597,119.397,121.861,123.861,125.405,128.781,132.581,136.581,138.104,140.152,143.952,147.752,151.552,154.928,158.304,160.352,161.896,165.272" svgx:width="0.33,0.61,0.45,0.61,0.5,0.5,0.5,0.5,0.5,0.5,0.5,0.5,0.5,0.5,0.5,0.5,0.5,0.5,0.5,0.5,0.5,0.5,0.33,0.25,0.55,0.45,0.5,0.5,0.55,0.28,0.5,0.5,0.5,0.45,0.45,0.28,0.22,0.45,0.45" style="fill:rgb(0,0,0);font-family:Helvetica-Condensed;font-size:8.0px;stroke:none;">(GJHZ20150312114008636), and Innovative</text>
   <text y="687.003" x="36.001,39.801,42.265,46.065,49.865,53.865,55.39,57.438,61.238,63.878,65.424,69.224,70.768,74.568,78.368,80.832,84.632,88.008,90.472,92.52,96.208,98.672,104.72,108.096,111.896,115.272,118.872,120.359,121.903,123.447,125.495,129.295,130.839,134.639,140.687,143.151,144.695,148.495,152.495,153.977,157.777,161.577,166.705,170.081" svgx:width="0.5,0.33,0.5,0.5,0.5,0.55,0.28,0.5,0.33,0.55,0.5,0.22,0.5,0.5,0.33,0.5,0.45,0.33,0.28,0.5,0.33,0.78,0.45,0.5,0.45,0.45,0.55,0.22,0.22,0.28,0.5,0.22,0.5,0.78,0.33,0.22,0.5,0.5,0.55,0.5,0.5,0.67,0.45,0.33" style="fill:rgb(0,0,0);font-family:Helvetica-Condensed;font-size:8.0px;stroke:none;">group for high-performance lithium-ion power</text>
   <text y="698.001" x="36.001,39.801,43.177,45.225,47.273,50.649,53.113,54.657,58.033,61.633,63.1,67.812,72.94,77.82,79.428,82.804,86.604,90.604,92.127,93.671,97.471,101.271,105.071,108.447,110.495,112.959,114.407,117.783,119.326,120.87,123.75,127.126,129.174,130.718,134.518,138.518,140.031,143.831,146.071,147.628,152.34,156.14,159.516,163.316,167.115,170.915,174.715,178.515" svgx:width="0.5,0.45,0.28,0.28,0.45,0.33,0.22,0.45,0.45,0.55,0.61,0.67,0.61,0.55,0.45,0.5,0.5,0.55,0.22,0.5,0.5,0.5,0.45,0.28,0.33,0.22,0.45,0.22,0.22,0.38,0.45,0.28,0.22,0.5,0.5,0.55,0.5,0.28,0.55,0.61,0.5,0.45,0.5,0.5,0.5,0.5,0.5,0.5" style="fill:rgb(0,0,0);font-family:Helvetica-Condensed;font-size:8.0px;stroke:none;">batteries R&amp;D and industrialization of Guangdong</text>
   <text y="709.0" x="36.001,40.217,42.681,46.481,49.857,51.401,55.201,58.577,62.177,63.667,66.131,70.843,73.307,76.683,80.483,82.723,84.246,88.958,92.758,94.758,96.265,100.065,103.865,107.665,111.465,116.177,119.977,123.777,127.577,130.041" svgx:width="0.55,0.33,0.5,0.45,0.22,0.5,0.45,0.45,0.55,0.33,0.61,0.33,0.45,0.5,0.28,0.55,0.61,0.5,0.25,0.55,0.5,0.5,0.5,0.5,0.61,0.5,0.5,0.5,0.33,0.25" style="fill:rgb(0,0,0);font-family:Helvetica-Condensed;font-size:8.0px;stroke:none;">Province (Grant No. 2013N079),</text>
  </g>
  <g begin="text">
   <text y="709.0" x="133.512,137.728,141.528,144.904,148.704,151.584,155.384,158.76" svgx:width="0.55,0.5,0.45,0.5,0.38,0.5,0.45,0.5" style="fill:rgb(0,0,0);font-family:Helvetica-Condensed;font-size:8.0px;stroke:none;">Shenzhen</text>
  </g>
 </g>
</svg>
