<?xml version="1.0" encoding="UTF-8"?>
<svg height="766.0" width="4046.0" xmlns="http://www.w3.org/2000/svg">
 <g id="page" xmlns:svgx="http://www.xml-cml.org/schema/svgx">
  <path style="fill:rgb(59,90,166);stroke:none;stroke-width:1.0;" d="M238.050 137.650 L242.870 137.650 Z"/>
  <path style="fill:rgb(59,90,166);stroke:none;stroke-width:1.0;" d="M483.480 254.660 L488.300 254.660 Z"/>
  <path style="fill:rgb(59,90,166);stroke:none;stroke-width:1.0;" d="M406.490 306.650 L416.130 306.650 Z"/>
  <path style="fill:rgb(59,90,166);stroke:none;stroke-width:1.0;" d="M466.470 306.650 L476.110 306.650 Z"/>
  <path style="fill:rgb(59,90,166);stroke:none;stroke-width:1.0;" d="M231.820 371.680 L241.400 371.680 Z"/>
  <path style="fill:rgb(59,90,166);stroke:none;stroke-width:1.0;" d="M281.540 371.680 L291.120 371.680 Z"/>
  <path style="fill:rgb(59,90,166);stroke:none;stroke-width:1.0;" d="M342.880 371.680 L352.460 371.680 Z"/>
  <path style="fill:rgb(59,90,166);stroke:none;stroke-width:1.0;" d="M354.670 371.680 L364.250 371.680 Z"/>
  <path style="fill:rgb(59,90,166);stroke:none;stroke-width:1.0;" d="M411.700 371.680 L421.290 371.680 Z"/>
  <path style="fill:rgb(59,90,166);stroke:none;stroke-width:1.0;" d="M423.500 371.680 L433.080 371.680 Z"/>
  <path style="fill:rgb(59,90,166);stroke:none;stroke-width:1.0;" d="M482.400 371.680 L491.980 371.680 Z"/>
  <path style="fill:rgb(59,90,166);stroke:none;stroke-width:1.0;" d="M472.310 580.080 L481.890 580.080 Z"/>
  <g begin="text">
   <text y="84.586" x="211.975,217.325,221.035,225.345,230.735,234.385,236.945,240.045,242.705,247.695,253.195,256.138,264.288,268.528,271.638,276.068,278.568,280.516,285.456,290.176,292.836,298.096,302.326,305.996,308.296,310.223,314.453,318.073,323.403,327.713,331.943,334.643,339.073,341.653,344.113,348.713,350.418" svgx:width="0.62,0.37,0.44,0.55,0.37,0.27,0.31,0.27,0.51,0.55,0.55,0.82,0.43,0.31,0.44,0.25,0.55,0.51,0.47,0.27,0.53,0.43,0.37,0.23,0.55,0.43,0.37,0.52,0.43,0.42,0.27,0.44,0.25,0.25,0.46,0.55,0.89" style="fill:rgb(0,0,0);font-family:MinionPro-Regular;font-size:10.0px;stroke:none;">Transition metal oxides, especially M</text>
  </g>
  <g begin="text">
   <text y="86.287" x="359.263" svgx:width="0.48" style="fill:rgb(0,0,0);font-family:MinionPro-Regular;font-size:6.67px;stroke:none;">3</text>
  </g>
  <g begin="text">
   <text y="84.586" x="362.835" svgx:width="0.75" style="fill:rgb(0,0,0);font-family:MinionPro-Regular;font-size:10.0px;stroke:none;">O</text>
  </g>
  <g begin="text">
   <text y="86.287" x="370.261" svgx:width="0.48" style="fill:rgb(0,0,0);font-family:MinionPro-Regular;font-size:6.67px;stroke:none;">4</text>
  </g>
  <g begin="text">
   <text y="84.586" x="376.044,379.504,390.557,396.357,398.494,407.354,412.824,415.124,417.146,423.956,429.05600000000004,430.922,435.912,439.61199999999997,441.807,446.897,451.147,454.647,456.83,463.71,466.27,469.36,474.66,476.729,481.12899999999996,483.306,486.926,492.056,494.726,500.156,504.356,506.856,509.101,512.721,515.821,519.631,524.921,529.211,532.161,537.461,541.041,545.231,547.531,549.239,553.549,557.129" svgx:width="0.35,0.89,0.58,0.55,0.89,0.55,0.23,0.55,0.67,0.51,0.55,0.51,0.37,0.55,0.53,0.43,0.35,0.55,0.69,0.27,0.31,0.53,0.55,0.44,0.55,0.37,0.52,0.27,0.55,0.43,0.25,0.55,0.37,0.31,0.37,0.53,0.42,0.31,0.53,0.37,0.43,0.23,0.55,0.44,0.37,0.43" style="fill:rgb(0,0,0);font-family:MinionPro-Regular;font-size:10.0px;stroke:none;">(M= Mn, Co or Fe) with a spinel structure, are</text>
   <text y="97.625" x="200.014,205.004,210.434,214.734,216.795,221.785,224.785,226.943,230.033,235.333,239.633,241.626,249.776,254.866,258.486,261.586,263.623,268.753,272.333,277.323,285.493,288.143,291.793,294.463,299.853,304.553,306.71,311.02,316.45,321.64,326.9,331.2,333.128,341.288,345.498,348.488,352.728,356.478,359.178,363.608,366.108,369.808,371.793,374.673,379.663,383.363,385.568,388.088,390.648,393.738,399.058,401.618,406.918,417.202,419.862,424.852,430.352,432.396,437.526,441.736,444.686,447.676,451.916,455.666,458.326,462.556,466.226,468.526,470.493,475.653,480.943,485.243,487.274,490.264,495.36400000000003,497.479,501.689,506.309,510.619,513.349,515.899,520.199,525.169,527.899,530.419,532.979,536.049,540.649,542.89,547.88,550.88,552.981,556.071,561.371" svgx:width="0.51,0.55,0.43,0.55,0.51,0.3,0.55,0.31,0.53,0.43,0.55,0.82,0.51,0.37,0.31,0.55,0.52,0.37,0.51,0.82,0.27,0.37,0.27,0.55,0.47,0.55,0.44,0.55,0.51,0.53,0.43,0.55,0.82,0.44,0.31,0.43,0.37,0.27,0.44,0.25,0.37,0.55,0.3,0.51,0.37,0.55,0.25,0.27,0.31,0.53,0.27,0.53,0.82,0.27,0.51,0.55,0.55,0.51,0.44,0.31,0.31,0.43,0.37,0.27,0.43,0.37,0.23,0.55,0.53,0.53,0.43,0.55,0.31,0.51,0.55,0.44,0.46,0.44,0.27,0.25,0.44,0.51,0.27,0.25,0.27,0.31,0.46,0.55,0.51,0.3,0.55,0.31,0.53,0.43" style="fill:rgb(0,0,0);font-family:MinionPro-Regular;font-size:10.0px;stroke:none;">one of the most promising anode materials for lithiumion batteries, due to availability of the</text>
   <text y="110.607" x="200.014,204.214,206.724,210.964,219.114,223.354,228.634,231.684,235.384,237.431,241.741,247.171,252.471,254.666,259.986,262.656,267.396,272.696,274.678,278.938,283.148,288.438,292.808,297.038,299.598,302.668,306.518,308.818,311.585,318.505,323.825,326.485,330.655,335.955,338.004,340.654,344.354,346.451,354.601,359.591,363.171,367.471,369.582,372.672,377.982,382.292,387.792,389.933,393.003,399.883,402.543,406.783,411.083,412.894,415.984,421.294,425.504,428.60400000000004,430.865,435.855,438.855,440.956,444.056,447.766,452.136,457.406,459.966,463.066,465.726,470.716,476.156,480.586,483.086,484.95,487.62,492.9,495.89,500.13,503.71,507.97,512.4,514.95,519.16,522.26,524.92,529.91,535.41,537.561,542.291,546.001,550.211,555.391,560.711,563.271,566.261" svgx:width="0.43,0.25,0.43,0.82,0.43,0.55,0.31,0.37,0.55,0.44,0.55,0.53,0.55,0.53,0.27,0.47,0.53,0.55,0.42,0.44,0.52,0.44,0.42,0.27,0.31,0.46,0.23,0.55,0.69,0.53,0.27,0.42,0.53,0.55,0.27,0.37,0.55,0.82,0.51,0.37,0.43,0.55,0.31,0.53,0.44,0.55,0.55,0.31,0.69,0.27,0.42,0.43,0.55,0.31,0.53,0.44,0.31,0.55,0.51,0.3,0.55,0.31,0.37,0.44,0.53,0.27,0.31,0.27,0.51,0.55,0.44,0.25,0.55,0.27,0.55,0.31,0.43,0.37,0.42,0.44,0.25,0.44,0.31,0.27,0.51,0.55,0.55,0.47,0.37,0.44,0.52,0.53,0.27,0.31,0.43" style="fill:rgb(0,0,0);font-family:MinionPro-Regular;font-size:10.0px;stroke:none;">elements and high capacity, which is more than twice that of traditional intercalation graphite</text>
   <text y="123.59" x="200.014,204.324,209.754,214.944,220.204,224.394,226.69400000000002,228.587,237.237,241.477,244.587,249.017,251.517,253.702,258.642,263.362,266.022,271.282,275.582,277.626,281.086" svgx:width="0.44,0.55,0.51,0.53,0.43,0.23,0.55,0.89,0.43,0.31,0.44,0.25,0.55,0.51,0.47,0.27,0.53,0.43,0.55,0.35,0.89" style="fill:rgb(0,0,0);font-family:MinionPro-Regular;font-size:10.0px;stroke:none;">anode. Metal oxide (M</text>
  </g>
  <g begin="text">
   <text y="125.291" x="289.927" svgx:width="0.48" style="fill:rgb(0,0,0);font-family:MinionPro-Regular;font-size:6.67px;stroke:none;">3</text>
  </g>
  <g begin="text">
   <text y="123.591" x="293.499" svgx:width="0.75" style="fill:rgb(0,0,0);font-family:MinionPro-Regular;font-size:10.0px;stroke:none;">O</text>
  </g>
  <g begin="text">
   <text y="125.291" x="300.926" svgx:width="0.48" style="fill:rgb(0,0,0);font-family:MinionPro-Regular;font-size:6.67px;stroke:none;">4</text>
  </g>
  <g begin="text">
   <text y="123.591" x="304.498,307.998,310.167,315.337,319.537,324.847,329.057,333.607,337.837,341.537,343.615,347.995,351.695,353.877,358.187,363.617,368.807,374.067,378.367,380.239,388.399,392.609,395.599,399.839,403.589,406.289,410.719,413.219,416.919,418.96,421.84,426.83,430.53,432.736,438.116,441.526,447.426,449.404,454.534,458.914,462.654,466.964,472.264,474.008,478.998,484.498,486.651,490.891,495.881,501.121,505.671,509.911,513.551,517.201,519.861,524.851,530.351,532.515,535.975,539.555,543.865,549.125,554.065,558.785" svgx:width="0.35,0.55,0.51,0.43,0.53,0.44,0.46,0.43,0.37,0.55,0.44,0.37,0.55,0.44,0.55,0.51,0.53,0.43,0.55,0.82,0.44,0.31,0.43,0.37,0.27,0.44,0.25,0.37,0.55,0.3,0.51,0.37,0.55,0.54,0.34,0.59,0.55,0.51,0.44,0.37,0.43,0.53,0.55,0.51,0.55,0.55,0.42,0.51,0.55,0.46,0.43,0.37,0.37,0.27,0.51,0.55,0.55,0.35,0.37,0.43,0.53,0.51,0.47,0.35" style="fill:rgb(0,0,0);font-family:MinionPro-Regular;font-size:10.0px;stroke:none;">) behaves as anode materials for LIB based on conversion (redox)</text>
   <text y="136.573" x="200.014,203.594,207.894,212.264,216.554,219.654,222.314,227.304,232.774,235.054" svgx:width="0.37,0.43,0.44,0.42,0.31,0.27,0.51,0.55,0.23,0.34" style="fill:rgb(0,0,0);font-family:MinionPro-Regular;font-size:10.0px;stroke:none;">reaction.[</text>
   <text y="136.573" x="238.504" svgx:width="0.48" style="fill:rgb(59,90,166);font-family:MinionPro-Regular;font-size:10.0px;stroke:none;">8</text>
   <text y="136.573" x="243.304,246.704,248.486,254.646,259.946,264.24600000000004,266.344,274.494,278.804,282.974,288.284,292.594,298.044,300.694,304.344,314.532,318.792,323.102,328.602,330.689,335.859,340.159,342.085,347.345,351.575,355.315,359.545,363.295,365.925,371.095,375.405,382.11,387.04,391.64000000000004,393.902" svgx:width="0.34,0.55,0.62,0.53,0.43,0.55,0.82,0.43,0.42,0.53,0.44,0.55,0.27,0.37,0.82,0.42,0.44,0.55,0.55,0.51,0.43,0.55,0.53,0.43,0.37,0.42,0.37,0.27,0.51,0.43,0.53,0.51,0.46,0.55,0.89" style="fill:rgb(0,0,0);font-family:MinionPro-Regular;font-size:10.0px;stroke:none;">] The mechanismcan be describedby M</text>
  </g>
  <g begin="text">
   <text y="138.274" x="402.746" svgx:width="0.48" style="fill:rgb(0,0,0);font-family:MinionPro-Regular;font-size:6.67px;stroke:none;">3</text>
  </g>
  <g begin="text">
   <text y="136.573" x="406.375" svgx:width="0.75" style="fill:rgb(0,0,0);font-family:MinionPro-Regular;font-size:10.0px;stroke:none;">O</text>
  </g>
  <g begin="text">
   <text y="138.274" x="413.745" svgx:width="0.48" style="fill:rgb(0,0,0);font-family:MinionPro-Regular;font-size:6.67px;stroke:none;">4</text>
  </g>
  <g begin="text">
   <text y="136.573" x="419.584,425.384,427.52,432.32,437.75" svgx:width="0.58,0.55,0.48,0.54,0.27" style="fill:rgb(0,0,0);font-family:MinionPro-Regular;font-size:10.0px;stroke:none;">+ 8Li</text>
  </g>
  <g begin="text">
   <text y="132.151" x="440.22" svgx:width="0.58" style="fill:rgb(0,0,0);font-family:MinionPro-Regular;font-size:6.67px;stroke:none;">+</text>
  </g>
  <g begin="text">
   <text y="136.573" x="446.74,452.54,454.676,459.476" svgx:width="0.58,0.55,0.48,0.43" style="fill:rgb(0,0,0);font-family:MinionPro-Regular;font-size:10.0px;stroke:none;">+ 8e</text>
  </g>
  <g begin="text">
   <text y="132.151" x="463.635" svgx:width="0.36" style="fill:rgb(0,0,0);font-family:MinionPro-Regular;font-size:6.67px;stroke:none;">-</text>
  </g>
  <g begin="text">
   <text y="136.573" x="468.453" svgx:width="1.0" style="fill:rgb(0,0,0);font-family:TeX_CM_Maths_Symbols;font-size:10.0px;stroke:none;">!</text>
   <text y="136.573" x="480.698,485.499,490.928" svgx:width="0.48,0.54,0.27" style="fill:rgb(0,0,0);font-family:MinionPro-Regular;font-size:10.0px;stroke:none;">4Li</text>
  </g>
  <g begin="text">
   <text y="138.274" x="493.398" svgx:width="0.48" style="fill:rgb(0,0,0);font-family:MinionPro-Regular;font-size:6.67px;stroke:none;">2</text>
  </g>
  <g begin="text">
   <text y="136.573" x="497.027,506.608,512.408,514.544,519.344,528.254,530.554,532.573,539.753,544.743,548.493,556.653,561.083,563.663,566.123" svgx:width="0.75,0.58,0.55,0.48,0.89,0.23,0.55,0.74,0.51,0.37,0.82,0.44,0.25,0.25,0.46" style="fill:rgb(0,0,0);font-family:MinionPro-Regular;font-size:10.0px;stroke:none;">O+ 3M. Normally</text>
   <text y="149.612" x="200.015,202.535,205.095,208.185,213.505,216.065,221.365,231.593,236.533,241.253,243.913,249.173,253.473,255.517,260.947" svgx:width="0.25,0.27,0.31,0.53,0.27,0.53,0.82,0.51,0.47,0.27,0.53,0.43,0.55,0.54,0.27" style="fill:rgb(0,0,0);font-family:MinionPro-Regular;font-size:10.0px;stroke:none;">lithiumoxide Li</text>
  </g>
  <g begin="text">
   <text y="151.257" x="263.395" svgx:width="0.48" style="fill:rgb(0,0,0);font-family:MinionPro-Regular;font-size:6.67px;stroke:none;">2</text>
  </g>
  <g begin="text">
   <text y="149.613" x="267.024,276.605,279.255,282.955,285.052,288.672,291.782,296.082,301.102,303.612,307.91200000000003,309.996,314.306,319.736,325.036,327.231,332.491,337.681,341.911,345.611,347.47,352.9,357.89,360.99,363.117,368.377,372.687,376.927,381.917,389.917,395.247,400.337,404.077,408.377,410.059,413.049,418.149,420.263,423.353,428.653,432.95300000000003,434.947,443.097,447.337,450.447,454.877,457.457,459.977,462.637,466.837,468.679,471.199,473.759,476.849,482.169,484.729,490.029,498.219,500.519,502.468,507.768,512.718,519.488,523.828,528.378,532.618,535.688,537.9879999999999,540.508,543.178,548.678,550.77,553.86,559.16" svgx:width="0.75,0.27,0.37,0.55,0.37,0.31,0.44,0.51,0.25,0.43,0.55,0.44,0.55,0.53,0.55,0.53,0.51,0.43,0.37,0.55,0.55,0.51,0.31,0.55,0.53,0.43,0.42,0.51,0.82,0.52,0.51,0.37,0.43,0.55,0.31,0.51,0.55,0.31,0.53,0.43,0.55,0.82,0.43,0.31,0.44,0.25,0.25,0.27,0.42,0.55,0.25,0.27,0.31,0.53,0.27,0.53,0.82,0.23,0.55,0.53,0.51,0.69,0.43,0.46,0.43,0.37,0.23,0.55,0.27,0.55,0.55,0.31,0.53,0.43" style="fill:rgb(0,0,0);font-family:MinionPro-Regular;font-size:10.0px;stroke:none;">Ois stable and does not decompose to the metallic lithium, however, in the</text>
   <text y="162.595" x="200.014,205.144,208.724,212.954,216.694,220.934,226.364,230.604,234.90400000000002,236.807,241.797,244.797,246.955,252.395,256.705,262.135,267.225,270.875,273.555,277.775,282.085,287.385,289.19,292.29,296.0,300.31,305.7,309.35,311.91,315.01,317.67,322.66,328.16,330.179,338.329,342.569,345.679,350.109,352.609,354.557,358.017,363.457,367.767,373.197,378.297,381.857,390.767,394.227,396.527,398.494,401.584,406.884,411.184,413.177,416.757,421.057,425.427,429.717,432.817,435.477,440.467,445.967,447.816,452.076,456.386,461.886,463.973,469.103,472.683,477.873,482.113,486.423,490.733,496.033,497.762,502.142,505.842,508.024,513.464,517.774,523.204,528.304,531.864,542.833,548.6329999999999,550.77,556.2" svgx:width="0.52,0.37,0.43,0.37,0.43,0.55,0.42,0.43,0.55,0.51,0.3,0.55,0.55,0.44,0.55,0.51,0.37,0.27,0.42,0.43,0.53,0.55,0.31,0.37,0.44,0.55,0.37,0.27,0.31,0.27,0.51,0.55,0.55,0.82,0.43,0.31,0.44,0.25,0.55,0.35,0.55,0.44,0.55,0.51,0.36,0.89,0.35,0.23,0.55,0.31,0.53,0.43,0.55,0.37,0.43,0.44,0.42,0.31,0.27,0.51,0.55,0.55,0.42,0.44,0.55,0.55,0.52,0.37,0.51,0.42,0.43,0.43,0.53,0.55,0.44,0.37,0.55,0.55,0.44,0.55,0.51,0.36,0.89,0.58,0.55,0.54,0.27" style="fill:rgb(0,0,0);font-family:MinionPro-Regular;font-size:10.0px;stroke:none;">presence of nanosized transition metal (nano-M), the reaction can proceed as nano-M+ Li</text>
  </g>
  <g begin="text">
   <text y="164.239" x="558.709" svgx:width="0.48" style="fill:rgb(0,0,0);font-family:MinionPro-Regular;font-size:6.67px;stroke:none;">2</text>
  </g>
  <g begin="text">
   <text y="162.595" x="562.28" svgx:width="0.75" style="fill:rgb(0,0,0);font-family:MinionPro-Regular;font-size:10.0px;stroke:none;">O</text>
   <text y="175.577" x="200.015" svgx:width="1.0" style="fill:rgb(0,0,0);font-family:TeX_CM_Maths_Symbols;font-size:10.0px;stroke:none;">$</text>
   <text y="175.577" x="212.204,217.004,222.434" svgx:width="0.48,0.54,0.27" style="fill:rgb(0,0,0);font-family:MinionPro-Regular;font-size:10.0px;stroke:none;">2Li</text>
  </g>
  <g begin="text">
   <text y="171.156" x="224.901" svgx:width="0.58" style="fill:rgb(0,0,0);font-family:MinionPro-Regular;font-size:6.67px;stroke:none;">+</text>
  </g>
  <g begin="text">
   <text y="175.578" x="231.364,237.16400000000002,239.3,244.74,249.05,254.48,259.58,263.14,271.96,279.03,281.33,283.691,288.001,293.431,298.731,300.869,303.959,309.109,314.389,318.089,320.257,323.347,328.647,332.947,334.941,337.971,343.271,348.701,352.991,356.091,358.751,363.741,369.241,370.941,375.321,379.021,381.145,383.665,386.225,389.315,394.635,397.195,402.495,412.723,415.383,420.373,425.873,427.917,433.047,437.257,440.207,443.197,447.437,451.437,456.03700000000003,457.907,462.217,467.647,472.837,478.097,482.397,484.269,488.529,492.839,498.339,500.426,505.596,509.896,511.765,516.135,520.305,525.625,528.285,532.625,537.175,541.485,546.705,549.005,550.769,559.419,564.409,567.989,572.239" svgx:width="0.58,0.55,0.55,0.44,0.55,0.51,0.36,0.89,0.75,0.23,0.55,0.44,0.55,0.53,0.55,0.31,0.53,0.53,0.37,0.55,0.31,0.53,0.43,0.55,0.3,0.53,0.55,0.42,0.31,0.27,0.51,0.55,0.55,0.44,0.37,0.55,0.25,0.27,0.31,0.53,0.27,0.53,0.82,0.27,0.51,0.55,0.55,0.51,0.44,0.31,0.31,0.43,0.37,0.46,0.55,0.44,0.55,0.51,0.53,0.43,0.55,0.42,0.44,0.55,0.55,0.51,0.43,0.55,0.44,0.42,0.53,0.27,0.43,0.46,0.43,0.53,0.23,0.55,0.89,0.51,0.37,0.43,0.36" style="fill:rgb(0,0,0);font-family:MinionPro-Regular;font-size:10.0px;stroke:none;">+ nano-MO, and thus the function as lithiumion battery anode can be achieved. More-</text>
   <text y="188.617" x="200.014,204.964,209.514,213.754,216.824,219.12400000000002,221.783,226.023,231.413,236.143,238.813,244.243,248.553,252.793,256.543,259.213,264.603,269.303,270.822,273.912,279.212,283.512,285.505,293.655,297.895,301.005,305.435,307.935,309.939,314.879,319.599,322.259,327.519,331.749,335.449,337.492,341.702,344.802,347.073,352.513,356.823,362.253,367.343,371.083,375.343,379.773,382.283,386.583,388.402,393.392,396.462,399.342,403.582,407.222,410.92199999999997,412.893,415.923,421.223,425.033,428.123,433.423,437.663,441.363,443.054,447.424,452.634,457.254,461.564,466.844,469.954,474.284,478.894,483.124,486.794,489.094,491.185,494.805,500.095,504.265,509.565,511.765,516.145,519.845,521.97,524.64,530.07,534.3,537.88,542.18,546.56,550.3,554.61" svgx:width="0.51,0.46,0.43,0.37,0.23,0.55,0.43,0.55,0.47,0.27,0.55,0.43,0.43,0.37,0.27,0.55,0.47,0.55,0.31,0.53,0.43,0.55,0.82,0.43,0.31,0.44,0.25,0.55,0.51,0.47,0.27,0.53,0.43,0.37,0.55,0.44,0.31,0.55,0.55,0.44,0.55,0.51,0.37,0.42,0.44,0.25,0.43,0.55,0.51,0.3,0.3,0.43,0.37,0.37,0.55,0.3,0.53,0.37,0.31,0.53,0.43,0.37,0.55,0.44,0.53,0.46,0.44,0.55,0.31,0.44,0.47,0.43,0.37,0.23,0.55,0.37,0.53,0.42,0.53,0.55,0.44,0.37,0.55,0.27,0.55,0.42,0.37,0.43,0.44,0.37,0.43,0.53" style="fill:rgb(0,0,0);font-family:MinionPro-Regular;font-size:10.0px;stroke:none;">over, engineering the metal oxides at nanoscale offers further advantages, such as increased</text>
   <text y="201.599" x="200.014,204.384,208.674,211.774,214.384,218.934,223.234,225.128,228.748,234.048,237.798,240.768,245.138,249.378,253.678,255.515,259.825,263.405,267.705,272.085,275.755,278.055,280.119,283.739,289.039,294.029,297.839,300.939,302.966,305.626,310.616,316.116,318.16,323.43,326.1,329.17,332.2,337.48,341.13,343.79,348.78,355.917,361.207,365.417,368.507,373.617,380.457,384.667,389.247,392.917,395.217,397.643,401.953,407.383,412.683,414.877,420.047,424.287,427.237,430.227,434.467,438.167,440.105,444.475,448.715,452.955,457.945,466.115,474.265,479.455,484.755,488.965,492.065,494.725,499.715,505.215,506.946,511.936,514.9359999999999,517.094,520.184,525.484,529.784,531.777,535.357,539.657,544.027,548.317,551.417,554.077,559.067" svgx:width="0.44,0.42,0.31,0.27,0.46,0.43,0.55,0.37,0.53,0.37,0.3,0.44,0.42,0.43,0.55,0.44,0.37,0.43,0.44,0.37,0.23,0.55,0.37,0.53,0.51,0.37,0.31,0.55,0.27,0.51,0.55,0.55,0.53,0.27,0.3,0.3,0.53,0.37,0.27,0.51,0.55,0.52,0.44,0.31,0.53,0.69,0.44,0.46,0.37,0.23,0.55,0.44,0.55,0.53,0.55,0.51,0.43,0.31,0.31,0.43,0.37,0.55,0.44,0.42,0.42,0.51,0.82,0.82,0.51,0.53,0.44,0.31,0.27,0.51,0.55,0.55,0.51,0.3,0.55,0.31,0.53,0.43,0.55,0.37,0.43,0.44,0.42,0.31,0.27,0.51,0.55" style="fill:rgb(0,0,0);font-family:MinionPro-Regular;font-size:10.0px;stroke:none;">active surface areas, short ion diffusionpathways, and better accommodation of the reaction</text>
   <text y="214.582" x="200.014,203.634,206.734,210.444,214.754,217.424,222.814,226.484,228.78400000000002,230.798,237.718,243.038,245.698,249.868,255.168,257.159,261.399,266.919,272.229,276.539,281.969,286.209,290.509,292.421,295.511,300.811,305.111,307.105,311.345,316.775,321.015,324.645,329.555,334.15500000000003,335.905,339.525,342.515,347.505,351.215,355.545,360.155,364.455,366.575,370.835,375.045,380.335,384.705,388.935,391.495,394.565,399.165,401.328,406.318,410.018,412.156,415.866,420.076,423.066,427.366,429.561,433.821,438.031,443.321,447.621,452.591,455.321,457.841,460.401,463.501,466.161,470.391,474.061" svgx:width="0.37,0.31,0.37,0.44,0.27,0.55,0.37,0.23,0.55,0.69,0.53,0.27,0.42,0.53,0.55,0.43,0.55,0.53,0.44,0.55,0.42,0.43,0.55,0.31,0.53,0.43,0.55,0.43,0.55,0.43,0.37,0.47,0.46,0.55,0.37,0.31,0.51,0.37,0.44,0.47,0.43,0.55,0.42,0.44,0.52,0.44,0.42,0.27,0.31,0.46,0.55,0.51,0.37,0.55,0.37,0.44,0.31,0.43,0.55,0.42,0.44,0.52,0.44,0.51,0.27,0.25,0.27,0.31,0.27,0.43,0.37,0.23" style="fill:rgb(0,0,0);font-family:MinionPro-Regular;font-size:10.0px;stroke:none;">strains, which enhance the energy storage capacity or rate capabilities.</text>
   <text y="227.621" x="211.976,219.386,224.336,231.106,235.446,239.996,244.236,247.306,249.60600000000002,252.34,257.67,262.86,267.85,271.55,273.429,277.629,280.139,284.449,288.739,291.839,295.419,300.409,305.859,308.519,312.719,314.531,318.771,323.761,329.191,334.351,339.641,343.931,347.031,349.641,354.301,356.861,359.931,364.531,366.348,370.658,376.088,381.38800000000003,383.583,387.913,392.653,397.393,399.903,404.893,413.043,417.283,420.993,425.203,428.303,430.963,435.953,441.453,443.224,448.214,451.214,453.315,458.755,463.065,468.495,473.485,478.775,483.085,486.895,489.995,492.655,496.825,499.335,503.565,507.265,509.157,512.737,516.967,520.587,523.687,527.437,530.097,534.387,537.437,541.1370000000001,542.946,546.036,551.336" svgx:width="0.77,0.51,0.69,0.43,0.46,0.43,0.37,0.23,0.55,0.52,0.51,0.51,0.37,0.55,0.43,0.25,0.43,0.42,0.31,0.37,0.51,0.55,0.27,0.42,0.55,0.42,0.51,0.55,0.53,0.53,0.42,0.31,0.27,0.46,0.27,0.31,0.46,0.55,0.44,0.55,0.53,0.55,0.44,0.47,0.47,0.25,0.51,0.82,0.43,0.37,0.44,0.31,0.27,0.51,0.55,0.55,0.51,0.3,0.55,0.55,0.44,0.55,0.51,0.52,0.44,0.37,0.31,0.27,0.42,0.25,0.43,0.37,0.55,0.37,0.43,0.37,0.31,0.37,0.27,0.42,0.31,0.37,0.55,0.31,0.53,0.43" style="fill:rgb(0,0,0);font-family:MinionPro-Regular;font-size:10.0px;stroke:none;">However, poor electronic conductivity and agglomeration of nanoparticles restricts the</text>
   <text y="240.604" x="200.014,205.284,207.954,211.534,215.844,220.134,223.23399999999998,225.015,230.205,233.305,236.035,238.555,241.235,245.435,249.645,252.745,255.405,260.395,265.895,267.817,272.807,275.807,277.908,283.348,287.658,293.088,298.178,301.828,304.508,308.728,313.038,318.338,320.144,323.244,326.954,331.264,336.654,340.304,342.864,345.964,348.624,353.614,359.114,361.133,369.283,373.523,376.633,381.063,383.563,385.567,390.507,395.227,397.887,403.147,407.447,409.435,413.745,419.175,424.475,426.669,431.399,435.109,439.319,444.499,449.799,454.039,459.469,463.769,465.787,471.227,475.537,480.967,486.057,489.677,494.977,499.287,503.527,506.577,510.247,512.547,514.373,521.123,525.433,529.153,534.323,539.313,544.813,546.574,552.014,556.324,561.754" svgx:width="0.53,0.27,0.37,0.43,0.42,0.31,0.55,0.53,0.31,0.27,0.25,0.27,0.42,0.44,0.31,0.27,0.51,0.55,0.55,0.51,0.3,0.55,0.55,0.44,0.55,0.51,0.37,0.27,0.42,0.43,0.53,0.55,0.31,0.37,0.44,0.55,0.37,0.27,0.31,0.27,0.51,0.55,0.55,0.82,0.43,0.31,0.44,0.25,0.55,0.51,0.47,0.27,0.53,0.43,0.55,0.44,0.55,0.53,0.55,0.47,0.37,0.44,0.52,0.53,0.43,0.55,0.43,0.55,0.55,0.44,0.55,0.51,0.37,0.53,0.43,0.43,0.31,0.37,0.23,0.55,0.67,0.44,0.37,0.51,0.51,0.55,0.55,0.55,0.44,0.55,0.51" style="fill:rgb(0,0,0);font-family:MinionPro-Regular;font-size:10.0px;stroke:none;">direct utilization of nanosized transition metal oxide and graphene nanosheets. Carbon nano</text>
   <text y="253.586" x="200.014,203.084,205.714,210.884,215.124,218.82399999999998,220.536,225.526,229.226,231.42,236.41,239.5,244.8,249.04,252.73999999999998,254.778,259.038,263.348,267.068,272.238,277.228,282.728,284.598,288.338,293.328,298.628,302.208,306.448,310.638,312.938,314.872,321.792,327.112,329.772,333.942,339.242,341.234,346.544,350.754,355.304,359.604,361.87,367.04,371.28,374.23,377.22,381.46,385.15999999999997,387.155,391.355,393.865,398.175,402.465,405.565,409.145,414.135,419.585,422.245,426.445,428.2,432.44,437.43,442.86,448.02,453.31,457.6,460.7,463.31,467.97,470.53,473.6,477.45,479.73" svgx:width="0.3,0.27,0.51,0.43,0.37,0.55,0.51,0.37,0.55,0.51,0.31,0.53,0.43,0.37,0.55,0.42,0.44,0.37,0.51,0.51,0.55,0.55,0.37,0.51,0.53,0.37,0.42,0.43,0.23,0.55,0.69,0.53,0.27,0.42,0.53,0.55,0.53,0.44,0.46,0.43,0.55,0.51,0.43,0.31,0.31,0.43,0.37,0.55,0.43,0.25,0.43,0.42,0.31,0.37,0.51,0.55,0.27,0.42,0.55,0.42,0.51,0.55,0.53,0.53,0.42,0.31,0.27,0.46,0.27,0.31,0.46,0.23,0.34" style="fill:rgb(0,0,0);font-family:MinionPro-Regular;font-size:10.0px;stroke:none;">fiber or other carbon source, which have better electronic conductivity,[</text>
   <text y="253.586" x="483.18" svgx:width="0.48" style="fill:rgb(59,90,166);font-family:MinionPro-Regular;font-size:10.0px;stroke:none;">9</text>
   <text y="253.586" x="487.98,491.38,493.907,498.167,502.477,507.977,510.121,514.361,519.351,524.801,530.231,534.541,538.831,541.931,543.683,550.563,553.123,556.213" svgx:width="0.34,0.55,0.42,0.44,0.55,0.55,0.42,0.51,0.55,0.55,0.43,0.42,0.31,0.55,0.69,0.27,0.31,0.53" style="fill:rgb(0,0,0);font-family:MinionPro-Regular;font-size:10.0px;stroke:none;">] can connect with</text>
   <text y="266.626" x="200.014,204.314,208.684,212.854,218.15400000000002,220.253,225.243,228.333,233.633,237.873,241.57299999999998,243.609,246.599,251.69899999999998,253.814,258.944,262.524,267.474,272.134,274.794,280.054,284.354,286.469,290.86899999999997,293.045,296.015,300.395,304.015,307.115,309.202,313.402,315.912,320.222,324.512,327.612,331.192,336.182,341.632,344.292,348.49199999999996,350.304,354.544,359.534,364.964,370.124,375.414,379.704,382.804,385.464,390.454,395.954,397.756,403.046,407.256,410.346,415.646,417.882,422.192,427.622,432.922,435.117,440.107,443.177,446.057,450.297,453.997,455.979,460.37899999999996,462.556,466.176,471.466,475.836,480.076,484.37600000000003,486.367,489.437,493.147,497.457,505.607,509.947,516.717,521.707,525.367,530.367,532.118,534.998,539.988,543.6880000000001,545.894,554.044,558.284,561.394,565.824" svgx:width="0.43,0.44,0.42,0.53,0.55,0.51,0.31,0.53,0.43,0.37,0.55,0.31,0.51,0.55,0.52,0.37,0.51,0.46,0.27,0.53,0.43,0.55,0.44,0.55,0.3,0.44,0.37,0.31,0.55,0.43,0.25,0.43,0.42,0.31,0.37,0.51,0.55,0.27,0.42,0.55,0.42,0.51,0.55,0.53,0.53,0.42,0.31,0.27,0.51,0.55,0.55,0.52,0.44,0.31,0.53,0.55,0.44,0.55,0.53,0.55,0.51,0.3,0.3,0.43,0.37,0.55,0.44,0.55,0.37,0.52,0.44,0.42,0.43,0.55,0.3,0.37,0.44,0.82,0.43,0.69,0.51,0.37,0.5,0.55,0.3,0.51,0.37,0.55,0.82,0.43,0.31,0.44,0.25" style="fill:rgb(0,0,0);font-family:MinionPro-Regular;font-size:10.0px;stroke:none;">each other to provide a fast electronic conduction path and offer a space framework for metal</text>
   <text y="279.608" x="200.014,204.954,209.674,212.334,217.594,221.894,223.881,229.161,234.451,238.621,241.131,245.431,249.641,252.741,255.401,260.391,265.891,267.987,270.977,276.077,278.248,282.458,287.008,291.998,294.658,299.958,302.229,306.559,311.299,316.039,318.549,323.539,331.689,335.929,339.639,343.849,346.949,349.609,354.599,360.099,361.87,366.86,369.86,372.018,375.108,380.408,384.708,386.701,392.141,396.451,401.881,406.871,412.161,416.471,420.281,423.381,426.041,430.211,432.721,436.951,440.621,442.921,444.698,451.448,455.14799999999997,457.397,461.707,467.137,472.327,477.587,481.887,483.815,491.975,496.185,499.175,503.415,507.165,509.865,514.295,516.795,520.495,522.48,525.36,530.35,534.0500000000001,536.256,538.776,541.336,544.426,549.746,552.306,557.606" svgx:width="0.51,0.47,0.27,0.53,0.43,0.55,0.55,0.53,0.42,0.25,0.43,0.44,0.31,0.27,0.51,0.55,0.55,0.31,0.51,0.55,0.44,0.46,0.51,0.27,0.53,0.55,0.44,0.47,0.47,0.25,0.51,0.82,0.43,0.37,0.44,0.31,0.27,0.51,0.55,0.55,0.51,0.3,0.55,0.31,0.53,0.43,0.55,0.55,0.44,0.55,0.51,0.52,0.44,0.37,0.31,0.27,0.42,0.25,0.43,0.37,0.23,0.55,0.69,0.37,0.55,0.44,0.55,0.51,0.53,0.43,0.55,0.82,0.44,0.31,0.43,0.37,0.27,0.44,0.25,0.37,0.55,0.3,0.51,0.37,0.55,0.25,0.27,0.31,0.53,0.27,0.53,0.82" style="fill:rgb(0,0,0);font-family:MinionPro-Regular;font-size:10.0px;stroke:none;">oxide nucleation to avoid agglomeration of the nanoparticles. As anode materials for lithium</text>
   <text y="292.591" x="200.014,202.674,207.664,213.164,215.207,220.337,224.547,227.497,230.487,234.727,238.727,242.577,244.877,247.464,250.554,255.854,260.154,262.148" svgx:width="0.27,0.51,0.55,0.55,0.51,0.44,0.31,0.31,0.43,0.37,0.46,0.23,0.55,0.31,0.53,0.43,0.55,0.89" style="fill:rgb(0,0,0);font-family:MinionPro-Regular;font-size:10.0px;stroke:none;">ion battery, the M</text>
  </g>
  <g begin="text">
   <text y="294.293" x="271.049" svgx:width="0.48" style="fill:rgb(0,0,0);font-family:MinionPro-Regular;font-size:6.67px;stroke:none;">3</text>
  </g>
  <g begin="text">
   <text y="292.592" x="274.62" svgx:width="0.75" style="fill:rgb(0,0,0);font-family:MinionPro-Regular;font-size:10.0px;stroke:none;">O</text>
  </g>
  <g begin="text">
   <text y="294.293" x="282.047" svgx:width="0.48" style="fill:rgb(0,0,0);font-family:MinionPro-Regular;font-size:6.67px;stroke:none;">4</text>
  </g>
  <g begin="text">
   <text y="292.592" x="285.619,288.929,297.637,301.877,306.867,314.867,320.197,325.287,328.937,331.497,334.487,338.717,342.417,344.465,348.725,353.035,358.535,360.623,365.053,367.553,371.293,376.39300000000003,378.368,382.738,386.978,391.218,396.208,404.378,412.528,417.718,423.018,427.228,430.218,434.51800000000003,436.364,439.454,444.754,449.05400000000003,451.047,455.597,460.637,463.047,468.347,476.497,480.797,482.852,487.082,491.802,497.092,501.402,506.792,510.442,513.102,518.092,523.592,525.655,530.645,533.645,535.746,540.116,544.406,547.506,550.116,554.666" svgx:width="0.33,0.67,0.42,0.51,0.82,0.52,0.51,0.37,0.27,0.31,0.43,0.37,0.55,0.42,0.44,0.55,0.55,0.44,0.25,0.37,0.51,0.55,0.44,0.42,0.42,0.51,0.82,0.82,0.51,0.53,0.44,0.31,0.43,0.55,0.31,0.53,0.43,0.55,0.46,0.51,0.25,0.53,0.82,0.43,0.55,0.43,0.47,0.52,0.44,0.55,0.37,0.27,0.51,0.55,0.55,0.51,0.3,0.55,0.44,0.42,0.31,0.27,0.46,0.43" style="fill:rgb(0,0,0);font-family:MinionPro-Regular;font-size:10.0px;stroke:none;">/Ccomposites can also accommodate the volume expansion of active</text>
   <text y="305.574" x="200.014,208.174,212.384,215.374,219.614,223.364,226.064,230.494,232.994,236.694,238.678,241.668,246.768,248.939,253.309,257.479,262.799,265.459,269.799,274.349,278.649,280.517,283.027,288.017,293.407,298.10699999999997,300.245,303.235,307.475,311.225,321.392,325.012,328.122,332.422,337.442,339.952,344.252,346.336,351.666,355.906,359.656,362.536,367.526,371.276,379.436,383.746,389.176,393.416,397.646,401.316,403.596" svgx:width="0.82,0.44,0.31,0.43,0.37,0.27,0.44,0.25,0.37,0.55,0.31,0.51,0.55,0.44,0.42,0.53,0.27,0.43,0.46,0.43,0.55,0.25,0.51,0.55,0.47,0.55,0.31,0.43,0.37,0.82,0.37,0.31,0.44,0.51,0.25,0.43,0.55,0.52,0.43,0.37,0.3,0.51,0.37,0.82,0.44,0.55,0.42,0.43,0.37,0.23,0.34" style="fill:rgb(0,0,0);font-family:MinionPro-Regular;font-size:10.0px;stroke:none;">materials to achieve long termstable performances.[</text>
   <text y="305.574" x="407.046,411.846" svgx:width="0.48,0.48" style="fill:rgb(59,90,166);font-family:MinionPro-Regular;font-size:10.0px;stroke:none;">10</text>
   <text y="305.574" x="416.646,420.046,421.737,426.907,431.217,436.607,441.307,444.584,448.824,451.92400000000004,453.995,458.425,460.895,463.175" svgx:width="0.34,0.55,0.63,0.44,0.55,0.47,0.55,0.43,0.31,0.55,0.44,0.25,0.23,0.34" style="fill:rgb(0,0,0);font-family:MinionPro-Regular;font-size:10.0px;stroke:none;">] Yang et al.[</text>
   <text y="305.574" x="466.625,471.425" svgx:width="0.48,0.48" style="fill:rgb(59,90,166);font-family:MinionPro-Regular;font-size:10.0px;stroke:none;">11</text>
   <text y="305.574" x="476.225,479.625,481.718,485.298,489.538,494.868,499.858,503.668,506.658,510.968,516.268,518.001,521.091,526.401,530.611,533.711,535.973,543.183,545.863,552.673" svgx:width="0.34,0.55,0.37,0.43,0.52,0.51,0.37,0.31,0.43,0.53,0.55,0.31,0.53,0.44,0.31,0.55,0.74,0.27,0.67,0.51" style="fill:rgb(0,0,0);font-family:MinionPro-Regular;font-size:10.0px;stroke:none;">] reported that NiCo</text>
  </g>
  <g begin="text">
   <text y="307.276" x="557.575" svgx:width="0.48" style="fill:rgb(0,0,0);font-family:MinionPro-Regular;font-size:6.67px;stroke:none;">2</text>
  </g>
  <g begin="text">
   <text y="305.575" x="561.146" svgx:width="0.75" style="fill:rgb(0,0,0);font-family:MinionPro-Regular;font-size:10.0px;stroke:none;">O</text>
  </g>
  <g begin="text">
   <text y="307.276" x="568.573" svgx:width="0.48" style="fill:rgb(0,0,0);font-family:MinionPro-Regular;font-size:6.67px;stroke:none;">4</text>
  </g>
  <g begin="text">
   <text y="305.575" x="572.145" svgx:width="0.33" style="fill:rgb(0,0,0);font-family:MinionPro-Regular;font-size:10.0px;stroke:none;">/</text>
   <text y="318.614" x="200.016,204.276,208.586,212.306,217.476,222.466,227.966,229.779,235.219,239.529,244.959,250.149,254.389,259.379,267.379,272.709,277.799,281.449,284.009,286.999,291.29900000000004,293.105,299.945,304.325,308.025,310.113,315.243,318.823,323.063,328.353,332.663,336.243,340.553,345.853,347.87,353.15,356.8,359.47,364.86,369.56,371.511,375.911,378.03,383.14,387.65,392.92,396.5,401.49,404.58,409.88,414.12,417.87,426.03,430.46,432.96,435.12,443.27,447.51,450.6,455.9,461.09,466.39,468.171,472.481,477.911,483.211,485.293,489.663,493.833,499.153,501.813,506.153,510.703,515.013,520.313,522.086,526.486,528.606,533.926,536.596,541.336,546.636,548.561,552.141,556.481,561.031,565.271,568.911,572.581" svgx:width="0.42,0.44,0.37,0.51,0.51,0.55,0.55,0.55,0.44,0.55,0.51,0.42,0.51,0.82,0.52,0.51,0.37,0.27,0.31,0.43,0.55,0.69,0.44,0.37,0.55,0.52,0.37,0.43,0.52,0.44,0.37,0.43,0.53,0.55,0.53,0.37,0.27,0.55,0.47,0.55,0.44,0.55,0.53,0.46,0.53,0.37,0.51,0.31,0.53,0.43,0.37,0.82,0.44,0.25,0.55,0.82,0.43,0.31,0.53,0.51,0.53,0.55,0.44,0.55,0.53,0.55,0.44,0.42,0.53,0.27,0.43,0.46,0.43,0.53,0.55,0.44,0.55,0.53,0.27,0.47,0.53,0.55,0.37,0.43,0.46,0.43,0.37,0.37,0.36" style="fill:rgb(0,0,0);font-family:MinionPro-Regular;font-size:10.0px;stroke:none;">carbon nanocomposite was prepared using a hydrothermal method and achieved a high revers-</text>
   <text y="331.596" x="200.016,202.646,207.666,210.176,214.476,216.513,220.773,224.983,230.273,234.643,238.873,241.433,244.503,249.10299999999998,251.209,254.669,259.469,264.269,269.069,271.349,276.149,278.251,286.441,293.34099999999995,295.429,300.729,302.969" svgx:width="0.27,0.51,0.25,0.43,0.55,0.42,0.44,0.52,0.44,0.42,0.27,0.31,0.46,0.55,0.35,0.48,0.48,0.48,0.23,0.48,0.55,0.82,0.69,0.55,0.53,0.55,0.47" style="fill:rgb(0,0,0);font-family:MinionPro-Regular;font-size:10.0px;stroke:none;">ible capacity (958.4 mA h g</text>
  </g>
  <g begin="text">
   <text y="327.175" x="307.559,310.229" svgx:width="0.36,0.48" style="fill:rgb(0,0,0);font-family:MinionPro-Regular;font-size:6.67px;stroke:none;">-1</text>
  </g>
  <g begin="text">
   <text y="331.597" x="316.006,320.216,323.31600000000003,325.587,329.98699999999997,332.163,336.453,341.753,345.503,349.083,353.323,358.603,361.70300000000003,363.684,368.674,371.674,373.832,378.632,383.432,385.624,393.814,400.714,402.802" svgx:width="0.44,0.31,0.55,0.44,0.55,0.42,0.53,0.37,0.37,0.43,0.55,0.31,0.55,0.51,0.3,0.55,0.48,0.48,0.55,0.82,0.69,0.55,0.47" style="fill:rgb(0,0,0);font-family:MinionPro-Regular;font-size:10.0px;stroke:none;">at a current of 40 mA g</text>
  </g>
  <g begin="text">
   <text y="327.175" x="407.395,410.065" svgx:width="0.36,0.48" style="fill:rgb(0,0,0);font-family:MinionPro-Regular;font-size:6.67px;stroke:none;">-1</text>
  </g>
  <g begin="text">
   <text y="331.597" x="415.842,420.152,423.182,426.172,430.413,434.113,436.194,440.995,445.795,447.987,452.396,456.906,461.077,463.586,467.816,471.487,474.987,476.9,481.28,484.97999999999996,487.104,492.484,495.895,501.79499999999996,503.828,508.138,513.568,518.759,524.018,528.208,530.5079999999999,532.401,539.211,544.202,552.202,557.531,562.622,566.271,568.832,571.822" svgx:width="0.44,0.3,0.31,0.43,0.37,0.55,0.48,0.48,0.55,0.42,0.46,0.42,0.25,0.43,0.37,0.35,0.55,0.44,0.37,0.55,0.54,0.34,0.59,0.55,0.44,0.55,0.51,0.53,0.43,0.23,0.55,0.67,0.51,0.82,0.52,0.51,0.37,0.27,0.31,0.43" style="fill:rgb(0,0,0);font-family:MinionPro-Regular;font-size:10.0px;stroke:none;">after 50 cycles) as LIB anode. Composite</text>
   <text y="344.579" x="200.014,208.174,212.384,215.374,219.614,223.364,226.064,230.494,232.994,236.694,238.678,243.669,246.669,248.826,254.266,258.576,264.007,269.107,271.22,274.32,278.03,282.34,287.73,291.38,293.94,297.04,299.701,304.69,310.19,312.209,320.359,324.599,327.709,332.139,334.639,336.643,341.583,346.303,348.964,354.223,358.453,362.15299999999996,364.196,371.076,373.636,376.726,382.026,384.095,388.826,392.535,396.745,401.925,407.225,411.465,416.895,421.195,423.212,428.522,432.892,438.192,440.333,445.503,449.813,454.053,459.553,461.309,464.889,469.129,474.459,479.449,483.259,486.249,490.559,495.85900000000004,497.592,501.822,506.542,509.533,513.772,519.162,522.813,525.422,529.972,534.172,536.633,541.2330000000001,543.344,546.333,551.433,553.604,558.914,563.125,567.674" svgx:width="0.82,0.44,0.31,0.43,0.37,0.27,0.44,0.25,0.37,0.55,0.51,0.3,0.55,0.55,0.44,0.55,0.51,0.55,0.31,0.37,0.44,0.55,0.37,0.27,0.31,0.27,0.51,0.55,0.55,0.82,0.43,0.31,0.44,0.25,0.55,0.51,0.47,0.27,0.53,0.43,0.37,0.55,0.69,0.27,0.31,0.53,0.55,0.47,0.37,0.44,0.52,0.53,0.43,0.55,0.43,0.55,0.53,0.44,0.53,0.55,0.51,0.43,0.43,0.55,0.55,0.37,0.43,0.52,0.51,0.37,0.31,0.43,0.53,0.55,0.43,0.47,0.31,0.43,0.55,0.37,0.27,0.46,0.43,0.25,0.46,0.55,0.31,0.51,0.55,0.53,0.44,0.46,0.43" style="fill:rgb(0,0,0);font-family:MinionPro-Regular;font-size:10.0px;stroke:none;">materials of nano transition metal oxides with graphene had been reported extensively to have</text>
   <text y="357.618" x="200.014,205.184,209.424,212.374,215.364,219.604,223.304,225.242,229.442,231.952,236.262,240.552,243.652,247.232,252.222,257.672,260.332,264.532,266.344,270.584,275.574,281.005,286.164,291.454,295.745,298.845,301.454,306.115,308.674,311.745,316.345,318.161,322.471,327.901,333.201,335.396,339.596,342.107,346.417,350.706,353.806,357.387,362.576,366.746,372.046,376.286,384.456,387.116,391.376,395.806,398.306,399.742,405.072,409.313,413.063,415.943,420.932,424.682,432.842,437.152,442.582,446.823,451.052,454.723,457.023,458.645,462.264,467.555,471.724,477.024,479.167,483.547,487.247,489.428,494.868,499.178,504.608,509.599,517.758,521.969,524.958,529.198,532.948,535.648,540.078,542.578,546.278,548.333,553.323" svgx:width="0.51,0.43,0.31,0.31,0.43,0.37,0.55,0.43,0.25,0.43,0.42,0.31,0.37,0.51,0.55,0.27,0.42,0.55,0.42,0.51,0.55,0.53,0.53,0.42,0.31,0.27,0.46,0.27,0.31,0.46,0.55,0.44,0.55,0.53,0.55,0.43,0.25,0.43,0.42,0.31,0.37,0.51,0.42,0.53,0.43,0.82,0.27,0.42,0.44,0.25,0.55,0.52,0.43,0.37,0.3,0.51,0.37,0.82,0.44,0.55,0.42,0.43,0.37,0.23,0.55,0.37,0.53,0.42,0.53,0.55,0.44,0.37,0.55,0.55,0.44,0.55,0.51,0.82,0.44,0.31,0.43,0.37,0.27,0.44,0.25,0.37,0.55,0.51,0.3" style="fill:rgb(0,0,0);font-family:MinionPro-Regular;font-size:10.0px;stroke:none;">better electronic conductivity and electrochemical performances, such as nanomaterials of</text>
   <text y="370.601" x="200.015,206.825" svgx:width="0.67,0.51" style="fill:rgb(0,0,0);font-family:MinionPro-Regular;font-size:10.0px;stroke:none;">Co</text>
  </g>
  <g begin="text">
   <text y="372.246" x="211.578" svgx:width="0.48" style="fill:rgb(0,0,0);font-family:MinionPro-Regular;font-size:6.67px;stroke:none;">3</text>
  </g>
  <g begin="text">
   <text y="370.602" x="215.15" svgx:width="0.75" style="fill:rgb(0,0,0);font-family:MinionPro-Regular;font-size:10.0px;stroke:none;">O</text>
  </g>
  <g begin="text">
   <text y="372.246" x="222.576" svgx:width="0.48" style="fill:rgb(0,0,0);font-family:MinionPro-Regular;font-size:6.67px;stroke:none;">4</text>
  </g>
  <g begin="text">
   <text y="370.602" x="226.148,228.428" svgx:width="0.23,0.34" style="fill:rgb(0,0,0);font-family:MinionPro-Regular;font-size:10.0px;stroke:none;">,[</text>
   <text y="370.602" x="231.878,236.678" svgx:width="0.48,0.48" style="fill:rgb(59,90,166);font-family:MinionPro-Regular;font-size:10.0px;stroke:none;">12</text>
   <text y="370.602" x="241.478,244.87800000000001,247.01,255.87" svgx:width="0.34,0.55,0.89,0.55" style="fill:rgb(0,0,0);font-family:MinionPro-Regular;font-size:10.0px;stroke:none;">] Mn</text>
  </g>
  <g begin="text">
   <text y="372.246" x="261.298" svgx:width="0.48" style="fill:rgb(0,0,0);font-family:MinionPro-Regular;font-size:6.67px;stroke:none;">3</text>
  </g>
  <g begin="text">
   <text y="370.602" x="264.926" svgx:width="0.75" style="fill:rgb(0,0,0);font-family:MinionPro-Regular;font-size:10.0px;stroke:none;">O</text>
  </g>
  <g begin="text">
   <text y="372.246" x="272.296" svgx:width="0.48" style="fill:rgb(0,0,0);font-family:MinionPro-Regular;font-size:6.67px;stroke:none;">4</text>
  </g>
  <g begin="text">
   <text y="370.602" x="275.924,278.204" svgx:width="0.23,0.34" style="fill:rgb(0,0,0);font-family:MinionPro-Regular;font-size:10.0px;stroke:none;">,[</text>
   <text y="370.602" x="281.654,286.454" svgx:width="0.48,0.48" style="fill:rgb(59,90,166);font-family:MinionPro-Regular;font-size:10.0px;stroke:none;">13</text>
   <text y="370.602" x="291.254,294.654,296.786,303.596,308.696,317.556" svgx:width="0.34,0.55,0.67,0.51,0.89,0.55" style="fill:rgb(0,0,0);font-family:MinionPro-Regular;font-size:10.0px;stroke:none;">] CoMn</text>
  </g>
  <g begin="text">
   <text y="372.246" x="322.639" svgx:width="0.48" style="fill:rgb(0,0,0);font-family:MinionPro-Regular;font-size:6.67px;stroke:none;">2</text>
  </g>
  <g begin="text">
   <text y="370.602" x="326.211" svgx:width="0.75" style="fill:rgb(0,0,0);font-family:MinionPro-Regular;font-size:10.0px;stroke:none;">O</text>
  </g>
  <g begin="text">
   <text y="372.246" x="333.638" svgx:width="0.48" style="fill:rgb(0,0,0);font-family:MinionPro-Regular;font-size:6.67px;stroke:none;">4</text>
  </g>
  <g begin="text">
   <text y="370.602" x="337.209,339.489" svgx:width="0.23,0.34" style="fill:rgb(0,0,0);font-family:MinionPro-Regular;font-size:10.0px;stroke:none;">,[</text>
   <text y="370.602" x="342.939,347.739" svgx:width="0.48,0.48" style="fill:rgb(59,90,166);font-family:MinionPro-Regular;font-size:10.0px;stroke:none;">14</text>
   <text y="370.602" x="352.539" svgx:width="0.23" style="fill:rgb(0,0,0);font-family:MinionPro-Regular;font-size:10.0px;stroke:none;">,</text>
   <text y="370.602" x="354.819,359.619" svgx:width="0.48,0.48" style="fill:rgb(59,90,166);font-family:MinionPro-Regular;font-size:10.0px;stroke:none;">15</text>
   <text y="370.602" x="364.419,367.81899999999996,369.863,377.073,379.753,386.563" svgx:width="0.34,0.55,0.74,0.27,0.67,0.51" style="fill:rgb(0,0,0);font-family:MinionPro-Regular;font-size:10.0px;stroke:none;">] NiCo</text>
  </g>
  <g begin="text">
   <text y="372.246" x="391.465" svgx:width="0.48" style="fill:rgb(0,0,0);font-family:MinionPro-Regular;font-size:6.67px;stroke:none;">2</text>
  </g>
  <g begin="text">
   <text y="370.602" x="395.036" svgx:width="0.75" style="fill:rgb(0,0,0);font-family:MinionPro-Regular;font-size:10.0px;stroke:none;">O</text>
  </g>
  <g begin="text">
   <text y="372.246" x="402.463" svgx:width="0.48" style="fill:rgb(0,0,0);font-family:MinionPro-Regular;font-size:6.67px;stroke:none;">4</text>
  </g>
  <g begin="text">
   <text y="370.602" x="406.035,408.315" svgx:width="0.23,0.34" style="fill:rgb(0,0,0);font-family:MinionPro-Regular;font-size:10.0px;stroke:none;">,[</text>
   <text y="370.602" x="411.765,416.565" svgx:width="0.48,0.48" style="fill:rgb(59,90,166);font-family:MinionPro-Regular;font-size:10.0px;stroke:none;">11</text>
   <text y="370.602" x="421.365" svgx:width="0.23" style="fill:rgb(0,0,0);font-family:MinionPro-Regular;font-size:10.0px;stroke:none;">,</text>
   <text y="370.602" x="423.645,428.445" svgx:width="0.48,0.48" style="fill:rgb(59,90,166);font-family:MinionPro-Regular;font-size:10.0px;stroke:none;">16</text>
   <text y="370.602" x="433.245,436.645,438.689,444.849,450.319,459.179" svgx:width="0.34,0.55,0.6,0.55,0.89,0.55" style="fill:rgb(0,0,0);font-family:MinionPro-Regular;font-size:10.0px;stroke:none;">] ZnMn</text>
  </g>
  <g begin="text">
   <text y="372.246" x="464.372" svgx:width="0.48" style="fill:rgb(0,0,0);font-family:MinionPro-Regular;font-size:6.67px;stroke:none;">2</text>
  </g>
  <g begin="text">
   <text y="370.602" x="467.943" svgx:width="0.75" style="fill:rgb(0,0,0);font-family:MinionPro-Regular;font-size:10.0px;stroke:none;">O</text>
  </g>
  <g begin="text">
   <text y="372.246" x="475.37" svgx:width="0.48" style="fill:rgb(0,0,0);font-family:MinionPro-Regular;font-size:6.67px;stroke:none;">4</text>
  </g>
  <g begin="text">
   <text y="370.602" x="478.942" svgx:width="0.34" style="fill:rgb(0,0,0);font-family:MinionPro-Regular;font-size:10.0px;stroke:none;">[</text>
   <text y="370.602" x="482.392,487.192" svgx:width="0.48,0.48" style="fill:rgb(59,90,166);font-family:MinionPro-Regular;font-size:10.0px;stroke:none;">17</text>
   <text y="370.602" x="491.992,495.392,497.65,501.89,504.88,509.12,511.42,513.354,520.764,525.714,532.484,536.824,541.374,545.614,549.3140000000001,551.565,554.655,559.955,564.185,567.925" svgx:width="0.34,0.55,0.43,0.31,0.42,0.23,0.55,0.77,0.51,0.69,0.43,0.46,0.43,0.37,0.55,0.31,0.53,0.43,0.37,0.43" style="fill:rgb(0,0,0);font-family:MinionPro-Regular;font-size:10.0px;stroke:none;">] etc. However these</text>
   <text y="383.584" x="200.015,203.595,207.835,213.165,218.155,221.965,224.955,229.265,234.565,236.298,239.978,244.598,249.878,252.968,258.268,262.498,266.148,268.798,272.498,274.566,282.716,286.956,290.046,295.346,300.536,305.786,309.486,311.303,314.373,318.973,324.103,326.763,331.023,335.453,338.033,340.493,345.093,347.076,349.746,354.986,359.536,364.576,367.036,371.586,375.886,378.143,382.54299999999995,384.719,387.789,394.559,399.659,403.219,406.839,409.829,414.069,419.299,422.99899999999997,424.971,430.101,433.681,438.871,443.111,447.341,450.961,454.631,456.931,458.873,463.183,468.613,473.913,476.108,480.508,482.683,485.653,490.023,494.253,496.983,499.493,503.793,505.587,509.897,515.327,520.627,522.822,526.472,529.142,537.142,542.322,544.832" svgx:width="0.37,0.43,0.52,0.51,0.37,0.31,0.43,0.53,0.55,0.37,0.46,0.55,0.31,0.53,0.43,0.37,0.27,0.37,0.55,0.82,0.43,0.31,0.53,0.51,0.53,0.37,0.55,0.31,0.46,0.52,0.27,0.42,0.44,0.25,0.25,0.46,0.55,0.27,0.55,0.46,0.51,0.25,0.46,0.43,0.55,0.44,0.55,0.31,0.69,0.51,0.36,0.37,0.31,0.43,0.52,0.37,0.55,0.52,0.37,0.51,0.42,0.43,0.37,0.37,0.23,0.55,0.44,0.55,0.53,0.55,0.44,0.55,0.3,0.44,0.42,0.27,0.25,0.43,0.55,0.44,0.55,0.53,0.55,0.37,0.27,0.82,0.52,0.25,0.43" style="fill:rgb(0,0,0);font-family:MinionPro-Regular;font-size:10.0px;stroke:none;">reported synthesis methods typically involve a two-steps process, and a facile and simple</text>
   <text y="396.623" x="200.015,208.165,212.405,215.495,220.795,225.985,231.28500000000003,233.067,236.057,241.15699999999998,243.272,246.952,251.572,256.852,259.942,265.242,269.472,273.122,275.802,280.022,284.322,286.245" svgx:width="0.82,0.43,0.31,0.53,0.51,0.53,0.55,0.31,0.51,0.55,0.37,0.46,0.55,0.31,0.53,0.43,0.37,0.27,0.42,0.43,0.55,0.89" style="fill:rgb(0,0,0);font-family:MinionPro-Regular;font-size:10.0px;stroke:none;">method to synthesize M</text>
  </g>
  <g begin="text">
   <text y="398.268" x="295.143" svgx:width="0.48" style="fill:rgb(0,0,0);font-family:MinionPro-Regular;font-size:6.67px;stroke:none;">3</text>
  </g>
  <g begin="text">
   <text y="396.624" x="298.715" svgx:width="0.75" style="fill:rgb(0,0,0);font-family:MinionPro-Regular;font-size:10.0px;stroke:none;">O</text>
  </g>
  <g begin="text">
   <text y="398.268" x="306.142" svgx:width="0.48" style="fill:rgb(0,0,0);font-family:MinionPro-Regular;font-size:6.67px;stroke:none;">4</text>
  </g>
  <g begin="text">
   <text y="396.624" x="309.713,313.023,317.753,321.463,325.673,330.853,336.153,340.393,345.823,350.123,352.062,356.302,361.292,369.292,374.622,379.712,383.362,385.922,388.912,393.142,396.842,398.89,405.77,408.33,411.42,416.72,418.789,423.019,427.649,431.889,436.089,438.669,441.179,445.419,450.699,453.79900000000004,455.809,458.329,460.889,463.979,469.299,471.859,477.159,487.444,491.064,494.054,499.044,502.754,507.084,511.694,515.994,518.114,523.284,527.484,532.794,537.004,541.664,544.324,549.314,553.014,555.021,557.671" svgx:width="0.33,0.47,0.37,0.44,0.52,0.53,0.43,0.55,0.43,0.55,0.42,0.51,0.82,0.52,0.51,0.37,0.27,0.31,0.43,0.37,0.55,0.69,0.27,0.31,0.53,0.55,0.43,0.47,0.42,0.43,0.25,0.25,0.43,0.55,0.31,0.55,0.25,0.27,0.31,0.53,0.27,0.53,0.82,0.37,0.31,0.51,0.37,0.44,0.47,0.43,0.55,0.51,0.43,0.53,0.44,0.46,0.27,0.51,0.37,0.55,0.27,0.37" style="fill:rgb(0,0,0);font-family:MinionPro-Regular;font-size:10.0px;stroke:none;">/graphene composites with excellent lithiumstorage behavior is</text>
   <text y="409.606" x="200.013,203.633,206.733,209.463,212.043,214.543,216.511,220.911,223.087,227.257,232.567,236.997,239.577,242.087,246.327,251.717,256.327,260.517,262.817,264.7,268.93,272.55,277.88,282.19,286.42,289.12,293.55,296.13,298.59,303.19,304.838,307.718,312.708,316.408,318.613,323.583,326.253,331.693,336.003,340.003,344.603,346.449,351.389,356.109,358.769,364.029,368.259,371.929" svgx:width="0.37,0.31,0.27,0.25,0.25,0.55,0.44,0.55,0.42,0.53,0.44,0.25,0.25,0.43,0.55,0.47,0.43,0.23,0.55,0.43,0.37,0.52,0.43,0.42,0.27,0.44,0.25,0.25,0.46,0.55,0.3,0.51,0.37,0.55,0.51,0.27,0.55,0.44,0.37,0.46,0.55,0.51,0.47,0.27,0.53,0.43,0.37,0.23" style="fill:rgb(0,0,0);font-family:MinionPro-Regular;font-size:10.0px;stroke:none;">still a challenge, especially for binary oxides.</text>
   <text y="422.589" x="211.976,215.216,220.716,222.974,226.064,231.384,234.034,237.73399999999998,239.755,246.525,251.515,255.175,260.135,262.435,264.473,271.243,275.543,277.626,282.886,287.126,295.276,300.266,305.656,309.276,312.376,316.086,320.296,323.286,327.586,329.668,334.068,336.245,341.235,346.665,350.915,354.475,358.095,361.085,365.325,370.525,372.641,377.751,382.261,387.531,391.111,396.101,399.191,404.491,408.731,412.481,420.641,425.071,427.571,429.787,433.367,438.357,443.547,446.537,450.837,453.031,456.021,461.12100000000004,463.293,466.973,471.593,476.873,479.963,485.263,489.493,493.143,495.823,500.043,504.343,506.266,511.706,516.016,521.446,526.636,530.926,536.186,541.356,545.656,547.254,550.714,557.524,562.324" svgx:width="0.34,0.55,0.55,0.31,0.53,0.27,0.37,0.55,0.69,0.51,0.37,0.5,0.23,0.55,0.69,0.43,0.55,0.53,0.43,0.82,0.51,0.55,0.37,0.31,0.37,0.44,0.31,0.43,0.55,0.44,0.55,0.51,0.55,0.43,0.36,0.37,0.31,0.43,0.52,0.55,0.53,0.46,0.53,0.37,0.51,0.31,0.53,0.43,0.37,0.82,0.44,0.25,0.55,0.37,0.51,0.53,0.31,0.43,0.55,0.31,0.51,0.55,0.37,0.46,0.55,0.31,0.53,0.43,0.37,0.27,0.42,0.43,0.55,0.55,0.44,0.55,0.51,0.42,0.53,0.51,0.43,0.55,0.35,0.67,0.51,0.23" style="fill:rgb(0,0,0);font-family:MinionPro-Regular;font-size:10.0px;stroke:none;">In this work, we demonstrate a one-step hydrothermal route to synthesize nanocube (Co,</text>
   <text y="435.571" x="200.013,208.873,214.343" svgx:width="0.89,0.55,0.35" style="fill:rgb(0,0,0);font-family:MinionPro-Regular;font-size:10.0px;stroke:none;">Mn)</text>
  </g>
  <g begin="text">
   <text y="437.272" x="217.701" svgx:width="0.48" style="fill:rgb(0,0,0);font-family:MinionPro-Regular;font-size:6.67px;stroke:none;">3</text>
  </g>
  <g begin="text">
   <text y="435.572" x="221.329" svgx:width="0.75" style="fill:rgb(0,0,0);font-family:MinionPro-Regular;font-size:10.0px;stroke:none;">O</text>
  </g>
  <g begin="text">
   <text y="437.272" x="228.699" svgx:width="0.48" style="fill:rgb(0,0,0);font-family:MinionPro-Regular;font-size:6.67px;stroke:none;">4</text>
  </g>
  <g begin="text">
   <text y="435.572" x="234.538,239.529,242.529,244.63,248.93,254.1,259.09,264.28,267.38,269.461,274.26,279.06,281.253,286.703,297.013,299.684,305.184,307.275,310.924,313.604,317.824,322.014,324.314,326.21,333.13,338.45,341.109,345.28,350.58,352.628,356.938,360.518,364.818,367.029,371.339,376.768,380.939,386.239,391.229,394.809,399.119,404.41900000000004,406.544,411.534,417.034,419.185,422.896,430.046,437.115,439.415,441.693,448.633,454.153,456.673,459.403,464.263,468.563,470.833,473.932,477.643,482.012,487.282,489.842,492.943,495.602,500.592,506.032,510.462,512.962,514.826,519.956,523.536,528.726,532.966,537.195,540.815,544.556,548.786,552.456,554.756,556.552,561.982" svgx:width="0.51,0.3,0.55,0.44,0.51,0.51,0.53,0.31,0.55,0.48,0.48,0.55,0.55,0.82,0.27,0.55,0.55,0.37,0.27,0.42,0.43,0.23,0.55,0.69,0.53,0.27,0.42,0.53,0.55,0.44,0.37,0.43,0.55,0.44,0.55,0.42,0.53,0.51,0.37,0.43,0.53,0.55,0.51,0.55,0.55,0.37,0.71,0.75,0.23,0.55,0.74,0.55,0.25,0.27,0.5,0.43,0.55,0.31,0.37,0.44,0.53,0.27,0.31,0.27,0.51,0.55,0.44,0.25,0.55,0.52,0.37,0.51,0.42,0.43,0.37,0.37,0.43,0.37,0.23,0.55,0.55,0.51" style="fill:rgb(0,0,0);font-family:MinionPro-Regular;font-size:10.0px;stroke:none;">of about 20 nmin size, which are anchored on rGO. Unlike traditional processes, no</text>
   <text y="448.611" x="200.014,205.344,210.434,214.053,217.153,219.118,223.428,228.879,234.309,238.609,243.038,245.559,248.229,253.618,258.318,260.164,262.814,266.514,268.611,274.04,278.35,282.591,286.82,290.44,294.171,298.48,302.48,307.08000000000004,308.691,311.682,316.78200000000004,318.896,323.127,327.127,331.707,335.327,338.436,342.867,345.447,347.966,350.646,354.866,359.166,360.508,363.599,368.898,373.19800000000004,375.249,380.688,384.998,390.428,395.618,399.909,405.169,410.339,414.568,418.239,420.539,422.076,428.237,433.536,437.836,439.878,444.258,447.929,451.489,456.619,460.199,464.439,469.729,474.039,477.618,481.928,487.228,489.315,492.775,499.585,504.385,506.665,515.525,520.995" svgx:width="0.52,0.51,0.37,0.31,0.55,0.44,0.55,0.55,0.43,0.44,0.25,0.27,0.55,0.47,0.55,0.27,0.37,0.55,0.55,0.43,0.42,0.43,0.37,0.37,0.44,0.37,0.46,0.55,0.31,0.51,0.55,0.42,0.37,0.46,0.37,0.31,0.44,0.25,0.25,0.27,0.42,0.43,0.55,0.31,0.53,0.43,0.55,0.55,0.44,0.55,0.51,0.42,0.53,0.51,0.43,0.37,0.23,0.55,0.62,0.53,0.43,0.55,0.44,0.37,0.36,0.52,0.37,0.43,0.52,0.44,0.37,0.43,0.53,0.55,0.35,0.67,0.51,0.23,0.89,0.55,0.35" style="fill:rgb(0,0,0);font-family:MinionPro-Regular;font-size:10.0px;stroke:none;">post annealing is necessary to crystallize the nanocubes. The as-prepared (Co,Mn)</text>
  </g>
  <g begin="text">
   <text y="450.255" x="524.239" svgx:width="0.48" style="fill:rgb(0,0,0);font-family:MinionPro-Regular;font-size:6.67px;stroke:none;">3</text>
  </g>
  <g begin="text">
   <text y="448.611" x="527.868" svgx:width="0.75" style="fill:rgb(0,0,0);font-family:MinionPro-Regular;font-size:10.0px;stroke:none;">O</text>
  </g>
  <g begin="text">
   <text y="450.255" x="535.294" svgx:width="0.48" style="fill:rgb(0,0,0);font-family:MinionPro-Regular;font-size:6.67px;stroke:none;">4</text>
  </g>
  <g begin="text">
   <text y="448.611" x="538.866,542.176,545.886,553.036" svgx:width="0.33,0.37,0.71,0.75" style="fill:rgb(0,0,0);font-family:MinionPro-Regular;font-size:10.0px;stroke:none;">/rGO</text>
   <text y="461.593" x="200.015,204.255,209.245,217.245,222.575,227.665,231.315,233.875,236.865,241.16500000000002,243.158,248.468,252.848,256.548,258.749,263.919,268.229,272.469,277.969,279.668,283.838,289.148,293.458,297.168,301.538,305.828,308.818,313.058,316.808,319.488,323.708,328.018,333.318,334.943,339.323,343.02299999999997,345.205,349.515,354.945,360.135,365.395,369.695,371.567,379.727,383.937,386.927,391.167,394.917,397.617,402.047,404.547,408.247,410.288,413.168,418.158,421.858,424.064,428.464,430.64,436.02,439.43,445.13,447.43,449.519,455.679,460.979,465.279,467.32,472.37,477.34,480.45,484.76,487.43,492.86,497.17,502.47,504.397,507.977,512.207,515.827,521.187,523.597,526.647,530.3470000000001,532.404,536.024,541.324,546.274,553.174,555.363,558.453,563.753" svgx:width="0.42,0.51,0.82,0.52,0.51,0.37,0.27,0.31,0.43,0.55,0.53,0.44,0.37,0.55,0.51,0.43,0.43,0.55,0.55,0.42,0.53,0.44,0.37,0.44,0.42,0.31,0.43,0.37,0.27,0.42,0.43,0.53,0.55,0.44,0.37,0.55,0.44,0.55,0.51,0.53,0.43,0.55,0.82,0.44,0.31,0.43,0.37,0.27,0.44,0.25,0.37,0.55,0.3,0.51,0.37,0.55,0.44,0.55,0.54,0.34,0.59,0.23,0.55,0.62,0.53,0.43,0.55,0.51,0.51,0.31,0.44,0.27,0.55,0.43,0.53,0.55,0.37,0.43,0.37,0.53,0.25,0.31,0.37,0.55,0.37,0.53,0.51,0.69,0.55,0.31,0.53,0.43" style="fill:rgb(0,0,0);font-family:MinionPro-Regular;font-size:10.0px;stroke:none;">composite has been characterized as anode materials for a LIB. The obtained results show the</text>
   <text y="474.576" x="200.015,203.475,210.285,215.085,217.365,226.225,231.695" svgx:width="0.35,0.67,0.51,0.23,0.89,0.55,0.35" style="fill:rgb(0,0,0);font-family:MinionPro-Regular;font-size:10.0px;stroke:none;">(Co,Mn)</text>
  </g>
  <g begin="text">
   <text y="476.277" x="234.935" svgx:width="0.48" style="fill:rgb(0,0,0);font-family:MinionPro-Regular;font-size:6.67px;stroke:none;">3</text>
  </g>
  <g begin="text">
   <text y="474.576" x="238.507" svgx:width="0.75" style="fill:rgb(0,0,0);font-family:MinionPro-Regular;font-size:10.0px;stroke:none;">O</text>
  </g>
  <g begin="text">
   <text y="476.277" x="245.934" svgx:width="0.48" style="fill:rgb(0,0,0);font-family:MinionPro-Regular;font-size:6.67px;stroke:none;">4</text>
  </g>
  <g begin="text">
   <text y="474.576" x="249.505,252.815,256.525,263.676,273.09,277.329,282.319,290.319,295.649,300.74,304.389,306.949,309.939,314.23900000000003,316.288,320.518,325.238,330.559,333.189,338.159,340.719,343.768,347.46799999999996,349.568,353.96799999999996,356.143,361.464,364.133,368.873,374.173,376.156,381.426,384.076,387.816,391.986,397.297,401.607,405.236,409.846,414.146,416.124,420.384,424.594,429.884,434.254,438.484,441.044,444.115,447.964,450.264,453.031,455.542,460.531,465.922,470.622,472.76,475.75,479.99,483.74,493.906,498.316,502.826,506.996,509.517,512.187,517.577,522.277,524.18,527.801,530.911,535.21,540.18,542.91,545.43,547.99,551.06,555.66,557.742,562.052,567.482" svgx:width="0.33,0.37,0.71,0.75,0.42,0.51,0.82,0.52,0.51,0.37,0.27,0.31,0.43,0.55,0.43,0.47,0.53,0.27,0.51,0.27,0.31,0.37,0.55,0.44,0.55,0.53,0.27,0.47,0.53,0.55,0.53,0.27,0.37,0.42,0.53,0.44,0.37,0.47,0.43,0.55,0.42,0.44,0.52,0.44,0.42,0.27,0.31,0.46,0.23,0.55,0.25,0.51,0.55,0.47,0.55,0.31,0.43,0.37,0.82,0.42,0.46,0.42,0.25,0.27,0.55,0.47,0.55,0.37,0.31,0.44,0.51,0.27,0.25,0.27,0.31,0.46,0.55,0.44,0.55,0.53" style="fill:rgb(0,0,0);font-family:MinionPro-Regular;font-size:10.0px;stroke:none;">/rGOcomposite exhibits a high discharge capacity, long termcycling stability and</text>
   <text y="487.615" x="200.013,204.323,209.823,211.975,216.205,220.835,225.075,229.275,231.855,234.365,238.605,243.885,246.98499999999999,249.052,252.762,256.972,260.072,262.742,268.132,272.832,274.903,279.163,283.373,288.663,292.963,297.933,300.663,303.183,305.743,308.813,312.663,314.963,317.762,323.922,329.222,333.522,335.62,340.61,345.74,348.84,351.51,359.51,364.81,375.135,380.405,383.055,386.795,390.965,396.275,400.585,404.215,408.825,413.125,415.047,419.307,423.517,428.807,433.177,437.407,439.967,443.037,447.637,449.799,454.059,458.369,463.869,465.957,469.537,473.837,478.207,482.377,487.677,489.881,494.681,499.481,504.281,509.081,511.361,516.161,518.227,526.417,533.367,538.6669999999999,540.734" svgx:width="0.44,0.55,0.55,0.43,0.47,0.42,0.43,0.25,0.25,0.43,0.55,0.31,0.55,0.37,0.44,0.31,0.27,0.55,0.47,0.55,0.42,0.44,0.52,0.44,0.51,0.27,0.25,0.27,0.31,0.46,0.23,0.55,0.62,0.53,0.43,0.55,0.51,0.52,0.31,0.27,0.82,0.53,0.82,0.53,0.27,0.37,0.42,0.53,0.44,0.37,0.47,0.43,0.55,0.42,0.44,0.52,0.44,0.42,0.27,0.31,0.46,0.55,0.42,0.44,0.55,0.55,0.37,0.43,0.44,0.42,0.53,0.55,0.48,0.48,0.48,0.48,0.23,0.48,0.55,0.82,0.69,0.53,0.55,0.47" style="fill:rgb(0,0,0);font-family:MinionPro-Regular;font-size:10.0px;stroke:none;">an excellent rating capability. The optimumdischarge capacity can reach 1130.6 mAh g</text>
  </g>
  <g begin="text">
   <text y="483.137" x="545.329,547.999" svgx:width="0.36,0.48" style="fill:rgb(0,0,0);font-family:MinionPro-Regular;font-size:6.67px;stroke:none;">-1</text>
  </g>
  <g begin="text">
   <text y="487.616" x="553.776,557.986" svgx:width="0.44,0.31" style="fill:rgb(0,0,0);font-family:MinionPro-Regular;font-size:10.0px;stroke:none;">at</text>
   <text y="500.598" x="200.015,204.815,209.615,214.41500000000002,216.569,224.759,231.659,233.804" svgx:width="0.48,0.48,0.48,0.55,0.82,0.69,0.55,0.47" style="fill:rgb(0,0,0);font-family:MinionPro-Regular;font-size:10.0px;stroke:none;">100 mA g</text>
  </g>
  <g begin="text">
   <text y="496.176" x="238.394,241.064" svgx:width="0.36,0.48" style="fill:rgb(0,0,0);font-family:MinionPro-Regular;font-size:6.67px;stroke:none;">-1</text>
  </g>
  <g begin="text">
   <text y="500.599" x="246.841,251.151,256.581,261.88100000000003,264.075,268.47499999999997,270.651,274.231,278.571,283.121,287.361,291.001,294.651,297.281,302.301,304.811,309.111,311.016,315.276,319.486,324.776,329.146,333.376,335.936,339.006,343.606,345.712,350.512,355.312,360.112,362.392,367.192,369.296,377.486,384.436,389.736,391.86" svgx:width="0.44,0.55,0.53,0.55,0.44,0.55,0.37,0.43,0.46,0.43,0.37,0.37,0.27,0.51,0.25,0.43,0.55,0.42,0.44,0.52,0.44,0.42,0.27,0.31,0.46,0.55,0.48,0.48,0.48,0.23,0.48,0.55,0.82,0.69,0.53,0.55,0.47" style="fill:rgb(0,0,0);font-family:MinionPro-Regular;font-size:10.0px;stroke:none;">and a reversible capacity 939.1 mAh g</text>
  </g>
  <g begin="text">
   <text y="496.176" x="396.397,399.067" svgx:width="0.36,0.48" style="fill:rgb(0,0,0);font-family:MinionPro-Regular;font-size:6.67px;stroke:none;">-1</text>
  </g>
  <g begin="text">
   <text y="500.599" x="404.901,409.161,413.471,418.971,421.058,426.228,430.528,432.453,436.823,440.993,446.313,448.973,453.313,457.863,462.173,467.473,469.247,473.557,476.587,479.577,483.817,487.517,489.599,494.399,499.199,503.999,506.153,510.563,515.073,519.243,521.753,525.983,529.683,531.608,535.818,538.918,541.246,546.046,550.846,555.646,557.8,565.99" svgx:width="0.42,0.44,0.55,0.55,0.51,0.43,0.55,0.44,0.42,0.53,0.27,0.43,0.46,0.43,0.53,0.55,0.44,0.3,0.31,0.43,0.37,0.55,0.48,0.48,0.48,0.55,0.42,0.46,0.42,0.25,0.43,0.37,0.55,0.44,0.31,0.55,0.48,0.48,0.48,0.55,0.82,0.69" style="fill:rgb(0,0,0);font-family:MinionPro-Regular;font-size:10.0px;stroke:none;">can be achieved after 140 cycles at 200 mA</text>
   <text y="513.581" x="200.015" svgx:width="0.47" style="fill:rgb(0,0,0);font-family:MinionPro-Regular;font-size:10.0px;stroke:none;">g</text>
  </g>
  <g begin="text">
   <text y="509.159" x="204.605,207.275" svgx:width="0.36,0.48" style="fill:rgb(0,0,0);font-family:MinionPro-Regular;font-size:6.67px;stroke:none;">-1</text>
  </g>
  <g begin="text">
   <text y="513.581" x="210.841,213.14100000000002,215.206,222.086,224.646,227.736,233.036,235.162,239.422,243.632,248.922,253.292,257.522,260.082,263.152,267.752,269.914,273.494,277.734,280.724,284.964,290.244,293.344,296.004,300.994,306.494,308.578,313.378,318.178,320.458,325.258,332.818" svgx:width="0.23,0.55,0.69,0.27,0.31,0.53,0.55,0.42,0.44,0.52,0.44,0.42,0.27,0.31,0.46,0.55,0.37,0.43,0.31,0.43,0.55,0.31,0.27,0.51,0.55,0.55,0.48,0.48,0.23,0.48,0.76,0.23" style="fill:rgb(0,0,0);font-family:MinionPro-Regular;font-size:10.0px;stroke:none;">, with capacity retention 98.8%.</text>
  </g>
  <g begin="text">
   <text y="544.025" x="200.012,208.004,214.628,221.996,228.62,233.24,236.612,247.232,253.856,261.224,265.22,271.844" svgx:width="0.67,0.55,0.61,0.55,0.38,0.28,0.88,0.55,0.61,0.33,0.55,0.28" style="fill:rgb(0,0,0);font-family:Helvetica-Bold;font-size:12.0px;stroke:none;">Experimental</text>
   <text y="561.996" x="200.012,208.004,214.004,220.628,224.0,230.624,237.248,243.248,245.864,251.864,254.493,261.117,264.47700000000003,267.08,271.076,279.692,286.316,289.688,299.684,306.308" svgx:width="0.67,0.5,0.55,0.28,0.55,0.55,0.5,0.22,0.5,0.55,0.55,0.28,0.55,0.33,0.72,0.55,0.28,0.83,0.55,0.33" style="fill:rgb(0,0,0);font-family:Helvetica;font-size:12.0px;stroke:none;">Synthesis of (Co,Mn)</text>
  </g>
  <g begin="text">
   <text y="563.981" x="310.337" svgx:width="0.55" style="fill:rgb(0,0,0);font-family:Helvetica;font-size:8.0px;stroke:none;">3</text>
  </g>
  <g begin="text">
   <text y="561.997" x="315.269" svgx:width="0.78" style="fill:rgb(0,0,0);font-family:Helvetica;font-size:12.0px;stroke:none;">O</text>
  </g>
  <g begin="text">
   <text y="563.981" x="324.624" svgx:width="0.55" style="fill:rgb(0,0,0);font-family:Helvetica;font-size:8.0px;stroke:none;">4</text>
  </g>
  <g begin="text">
   <text y="561.997" x="329.612,332.984,336.98,346.352,358.355,364.355,370.979,380.974,387.598,394.222,400.222,402.838,406.21" svgx:width="0.28,0.33,0.78,0.78,0.5,0.55,0.83,0.55,0.55,0.5,0.22,0.28,0.55" style="fill:rgb(0,0,0);font-family:Helvetica;font-size:12.0px;stroke:none;">/rGOcomposite</text>
  </g>
  <g begin="text">
   <text y="579.005" x="200.012,207.082,210.792,215.003,220.182,225.482,229.723,235.152,239.452,241.51,246.451,251.171,253.831,259.091,263.391,265.322,268.781,275.932,283.401,286.901,288.792,295.633,300.013,303.71299999999997,305.686,310.816,314.397,318.637,323.927,328.237,331.817,336.127,341.427,343.444,348.375,352.975,355.18,363.329,368.52,373.789,376.46,379.529,382.189,386.499,393.107,400.377,405.677,413.846,421.997,426.237,429.877,433.577,435.797,443.947,448.186,451.276,456.576,461.767,466.987,469.267" svgx:width="0.71,0.37,0.44,0.52,0.53,0.43,0.55,0.43,0.55,0.51,0.47,0.27,0.53,0.43,0.55,0.35,0.71,0.75,0.35,0.55,0.69,0.44,0.37,0.55,0.52,0.37,0.43,0.52,0.44,0.37,0.43,0.53,0.55,0.51,0.46,0.55,0.82,0.51,0.53,0.27,0.3,0.27,0.43,0.53,0.77,0.53,0.82,0.82,0.43,0.37,0.37,0.55,0.82,0.43,0.31,0.53,0.51,0.53,0.23,0.34" style="fill:rgb(0,0,0);font-family:MinionPro-Regular;font-size:10.0px;stroke:none;">Graphene oxide (GO) was prepared by modifiedHummers method.[</text>
   <text y="579.005" x="472.716,477.516" svgx:width="0.48,0.48" style="fill:rgb(59,90,166);font-family:MinionPro-Regular;font-size:10.0px;stroke:none;">18</text>
   <text y="579.005" x="482.317,485.717,487.443,490.683,496.183,498.271,502.671,504.792,507.862,512.461,517.591,520.252,524.512,528.942,531.442,533.365,538.495,542.074,547.264,551.504,555.814,560.974,566.274,569.854,574.044" svgx:width="0.34,0.55,0.34,0.55,0.55,0.44,0.55,0.31,0.46,0.52,0.27,0.42,0.44,0.25,0.55,0.52,0.37,0.51,0.42,0.43,0.53,0.53,0.37,0.43,0.23" style="fill:rgb(0,0,0);font-family:MinionPro-Regular;font-size:10.0px;stroke:none;">] In a typical procedure,</text>
   <text y="591.987" x="200.012,204.813,209.613,214.413,216.566,224.676,229.37599999999998,231.533,238.684,248.201,255.04,259.421,263.121,265.208,270.478,273.129,276.749,282.078,286.318,289.958,293.698,298.008,303.308,304.949,307.62,313.12,315.154,319.954,324.754,326.947,335.187,337.687,339.815,345.076,349.315,351.976,356.966,362.416,365.096,369.315,373.625,378.925,380.578,384.038,391.298,394.708,398.208,400.307,407.147,411.357,414.346,418.586,422.286,424.515,429.445,434.045,436.307,441.487,444.036,448.406,452.636,455.307,460.697,465.397,467.375,470.044,475.544,477.578,481.888,487.388,489.597,494.958,497.367,500.467,504.177,508.557,512.297,517.288,522.738,525.398,529.5980000000001,531.436,536.566,540.776,543.867,549.1669999999999,551.335,554.216,559.205,562.9050000000001,565.112" svgx:width="0.48,0.48,0.48,0.55,0.82,0.47,0.55,0.71,0.75,0.69,0.44,0.37,0.55,0.53,0.27,0.37,0.52,0.43,0.37,0.37,0.43,0.53,0.55,0.27,0.55,0.55,0.48,0.48,0.55,0.82,0.25,0.55,0.53,0.43,0.27,0.51,0.55,0.27,0.42,0.43,0.53,0.55,0.35,0.74,0.34,0.35,0.55,0.69,0.44,0.31,0.43,0.37,0.55,0.51,0.46,0.55,0.52,0.25,0.44,0.42,0.27,0.55,0.47,0.55,0.27,0.55,0.55,0.44,0.55,0.55,0.53,0.25,0.31,0.37,0.44,0.37,0.51,0.55,0.27,0.42,0.55,0.51,0.44,0.31,0.53,0.55,0.3,0.51,0.37,0.55,0.48" style="fill:rgb(0,0,0);font-family:MinionPro-Regular;font-size:10.0px;stroke:none;">120 mg GOwas dispersed in 30 ml deionized (DI) water by placing in an ultrasonic bath for 2</text>
   <text y="605.026" x="200.012,205.313,210.302,215.602,219.242,222.912,225.21200000000002,227.225,232.025,234.305,239.10500000000002,241.227,249.397,257.547,262.587,265.087,267.193,274.003,279.102,282.563,289.662,296.313,300.542" svgx:width="0.53,0.51,0.53,0.37,0.37,0.23,0.55,0.48,0.23,0.48,0.55,0.82,0.82,0.51,0.25,0.55,0.67,0.51,0.35,0.75,0.69,0.42,0.35" style="fill:rgb(0,0,0);font-family:MinionPro-Regular;font-size:10.0px;stroke:none;">hours, 1.7 mmol Co(OAc)</text>
  </g>
  <g begin="text">
   <text y="606.671" x="304.101" svgx:width="0.48" style="fill:rgb(0,0,0);font-family:MinionPro-Regular;font-size:6.67px;stroke:none;">2</text>
  </g>
  <g begin="text">
   <text y="605.027" x="309.883,314.193,319.623,324.923,327.117,331.91700000000003,334.09,342.33,344.83,346.903,351.213,359.383,367.533,372.523,377.973,380.533,385.833,396.169,401.279,405.789,411.059,414.639,419.579,424.299,426.959,432.219,436.519,438.801,442.261,449.691" svgx:width="0.44,0.55,0.53,0.55,0.48,0.55,0.82,0.25,0.55,0.44,0.82,0.82,0.51,0.55,0.27,0.53,0.82,0.53,0.46,0.53,0.37,0.51,0.47,0.27,0.53,0.43,0.55,0.35,0.74,0.77" style="fill:rgb(0,0,0);font-family:MinionPro-Regular;font-size:10.0px;stroke:none;">and 1 ml ammoniumhydroxide (NH</text>
  </g>
  <g begin="text">
   <text y="606.671" x="457.285" svgx:width="0.48" style="fill:rgb(0,0,0);font-family:MinionPro-Regular;font-size:6.67px;stroke:none;">3</text>
  </g>
  <g begin="text">
   <text y="605.027" code="1" x="460.857" svgx:width="0.27" style="fill:rgb(0,0,0);font-family:TeX_CM_Maths_Symbols;font-size:10.0px;stroke:none;">?</text>
   <text y="605.027" x="463.557" svgx:width="0.77" style="fill:rgb(0,0,0);font-family:MinionPro-Regular;font-size:10.0px;stroke:none;">H</text>
  </g>
  <g begin="text">
   <text y="606.671" x="471.175" svgx:width="0.48" style="fill:rgb(0,0,0);font-family:MinionPro-Regular;font-size:6.67px;stroke:none;">2</text>
  </g>
  <g begin="text">
   <text y="605.027" x="474.803,482.273,485.733,488.033,489.996,494.796,497.076,501.876,510.046,518.196,523.236,525.736,527.753,536.613,542.083,545.543,552.643,559.293,563.523" svgx:width="0.75,0.35,0.23,0.55,0.48,0.23,0.48,0.82,0.82,0.51,0.25,0.55,0.89,0.55,0.35,0.75,0.69,0.42,0.35" style="fill:rgb(0,0,0);font-family:MinionPro-Regular;font-size:10.0px;stroke:none;">O), 3.5mmol Mn(OAc)</text>
  </g>
  <g begin="text">
   <text y="606.671" x="567.383" svgx:width="0.48" style="fill:rgb(0,0,0);font-family:MinionPro-Regular;font-size:6.67px;stroke:none;">2</text>
  </g>
  <g begin="text">
   <text y="618.01" x="200.012,206.783,211.022,214.602,218.90200000000002,220.988,226.258,228.908,232.529,236.268,241.309,243.768,248.318,252.628,257.928,259.766,262.435,267.935,269.97,274.771,279.571,281.763,290.003,292.503,294.632,299.892,304.132,306.792,311.781,317.232,319.911,324.132,328.441,333.741,335.393,338.854,346.114,349.523,353.023,355.122,361.963,366.172,369.163,373.403,376.473,378.773,381.484,387.645,392.945,397.245,399.344,402.414,409.184,414.28400000000005,416.351,420.091,425.131,427.541,432.731,435.831,438.491,443.481,448.871,452.57099999999997,454.619,461.388,465.629,469.208,473.50800000000004,475.594,478.685,483.984,488.224,493.724,495.721,503.891,506.57,511.201,515.51,520.81,522.763,527.073,532.503,537.803,539.94,544.74,546.971,555.211" svgx:width="0.69,0.43,0.37,0.43,0.55,0.53,0.27,0.37,0.37,0.51,0.25,0.46,0.43,0.53,0.55,0.27,0.55,0.55,0.48,0.48,0.55,0.82,0.25,0.55,0.53,0.43,0.27,0.51,0.55,0.27,0.42,0.43,0.53,0.55,0.35,0.74,0.34,0.35,0.55,0.69,0.44,0.31,0.43,0.37,0.23,0.55,0.62,0.53,0.43,0.55,0.31,0.69,0.51,0.55,0.37,0.51,0.25,0.53,0.31,0.27,0.51,0.55,0.37,0.55,0.69,0.43,0.37,0.43,0.55,0.31,0.53,0.43,0.55,0.55,0.82,0.27,0.47,0.43,0.53,0.55,0.44,0.55,0.53,0.55,0.48,0.55,0.82,0.25" style="fill:rgb(0,0,0);font-family:MinionPro-Regular;font-size:10.0px;stroke:none;">were dissolved in 15 ml deionized (DI) water. The two solutions were then mixed and 2 ml</text>
   <text y="630.992" x="200.012" svgx:width="0.77" style="fill:rgb(0,0,0);font-family:MinionPro-Regular;font-size:10.0px;stroke:none;">H</text>
  </g>
  <g begin="text">
   <text y="632.693" x="207.609" svgx:width="0.48" style="fill:rgb(0,0,0);font-family:MinionPro-Regular;font-size:6.67px;stroke:none;">2</text>
  </g>
  <g begin="text">
   <text y="630.992" x="211.181" svgx:width="0.75" style="fill:rgb(0,0,0);font-family:MinionPro-Regular;font-size:10.0px;stroke:none;">O</text>
  </g>
  <g begin="text">
   <text y="632.693" x="218.608" svgx:width="0.48" style="fill:rgb(0,0,0);font-family:MinionPro-Regular;font-size:6.67px;stroke:none;">2</text>
  </g>
  <g begin="text">
   <text y="630.992" x="224.391,231.23,235.611,239.31099999999998,241.398,245.768,251.027,256.288,260.598,265.898,267.816,272.987,277.227,280.107,285.096,288.677,292.97700000000003,294.915,298.005,303.305,307.605,309.656,313.396,318.435,320.846,326.036,329.135,331.796,336.786,342.286,344.239,351.078,355.458,359.158,361.245,364.346,368.056,372.366,377.755,381.406,384.285,388.526,392.276,395.855,400.165,405.46500000000003,407.336,410.007,415.286,418.277,423.377,425.591,430.391,435.191,439.991,442.203,450.443,452.943,455.016,460.195,464.435,467.565,470.076,475.065,480.535,484.096,486.616,489.286,494.716,499.026,504.326,506.89,510.51,513.62,517.93,520.6,526.12,528.63,532.859,536.479,540.1790000000001,542.151,545.771,548.761,553.072,557.271" svgx:width="0.69,0.44,0.37,0.55,0.44,0.53,0.53,0.43,0.53,0.55,0.51,0.43,0.3,0.51,0.37,0.43,0.55,0.31,0.53,0.43,0.55,0.37,0.51,0.25,0.53,0.31,0.27,0.51,0.55,0.55,0.69,0.44,0.37,0.55,0.31,0.37,0.44,0.55,0.37,0.3,0.43,0.37,0.37,0.43,0.53,0.55,0.27,0.55,0.31,0.51,0.55,0.48,0.48,0.48,0.55,0.82,0.25,0.55,0.62,0.43,0.3,0.25,0.51,0.55,0.36,0.25,0.27,0.55,0.43,0.53,0.55,0.37,0.31,0.44,0.27,0.55,0.25,0.43,0.37,0.37,0.55,0.37,0.31,0.43,0.43,0.25" style="fill:rgb(0,0,0);font-family:MinionPro-Regular;font-size:10.0px;stroke:none;">was added before the solution was transferred into 100 ml Teflon-lined stainless steel</text>
   <text y="643.974" x="200.014,204.224,209.414,212.404,217.594,221.764,224.314,228.524,233.074,237.264,239.56400000000002,241.795,247.955,253.255,257.555,259.653,263.863,269.053,272.043,277.233,281.403,283.953,288.163,292.713,297.01300000000003,299.281,306.121,310.501,314.20099999999996,316.289,321.149,325.389,330.519,333.619,335.791,340.001,343.101,345.429,350.229,355.029,359.829,363.259,371.905,374.785,379.775,383.47499999999997,385.681,390.481,392.654,397.954,400.194,405.364,409.604,412.484,417.474,421.054,425.354,427.293,431.533,436.723,441.763,444.283,446.953,452.343,457.043,458.814,464.074,469.024,475.904,481.404,483.419,486.409,491.509,493.68,497.26,502.45,507.44,517.661,520.651,524.891,532.891,538.221,542.461,546.171,550.38,553.331,558.631,562.211,566.401" svgx:width="0.44,0.53,0.31,0.51,0.42,0.25,0.44,0.46,0.43,0.23,0.55,0.62,0.53,0.43,0.55,0.44,0.53,0.31,0.51,0.42,0.25,0.44,0.46,0.43,0.55,0.69,0.44,0.37,0.55,0.5,0.43,0.52,0.31,0.55,0.44,0.31,0.55,0.48,0.48,0.48,0.34,0.67,0.3,0.51,0.37,0.55,0.48,0.55,0.53,0.55,0.51,0.43,0.3,0.51,0.37,0.43,0.55,0.42,0.51,0.51,0.25,0.27,0.55,0.47,0.55,0.53,0.51,0.69,0.55,0.55,0.31,0.51,0.55,0.37,0.51,0.51,0.82,0.31,0.43,0.82,0.52,0.43,0.37,0.44,0.31,0.53,0.37,0.43,0.23" style="fill:rgb(0,0,0);font-family:MinionPro-Regular;font-size:10.0px;stroke:none;">autoclave. The autoclave was kept at 200Cfor 6 h before cooling down to roomtemperature.</text>
   <text y="657.013" x="200.014,206.174,211.474,215.774,217.815,222.945,226.525,230.835,235.065,237.625,242.755,245.315,248.425,252.635,255.625,259.925,262.261,269.101,273.481,277.181,279.269,286.109,290.489,294.109,299.409,303.719,309.019,310.96,315.27,320.7,326.0,328.195,331.285,336.585,340.825,346.325,348.32,353.5,356.05,360.42,364.66,368.97,374.27000000000004,376.156,378.826,384.326,386.418,390.818,392.994,397.234,401.474,406.754,409.854,413.604,416.274,419.304,424.604,429.214,433.514,435.117,441.997,444.557,447.647,452.947,455.016,462.276,465.676,467.885,474.725,478.935,481.925,486.165,489.235,491.535,494.247,497.337,502.657,505.307,509.007,511.085,516.215,519.795,524.985,529.225,533.535,538.695,543.995,547.575,551.875,553.718,560.557,564.938" svgx:width="0.62,0.53,0.43,0.55,0.52,0.37,0.43,0.42,0.27,0.52,0.27,0.31,0.44,0.31,0.43,0.55,0.69,0.44,0.37,0.55,0.69,0.44,0.37,0.53,0.43,0.53,0.55,0.44,0.55,0.53,0.55,0.31,0.53,0.43,0.55,0.55,0.52,0.25,0.44,0.42,0.43,0.53,0.55,0.27,0.55,0.55,0.44,0.55,0.42,0.43,0.55,0.31,0.37,0.27,0.3,0.53,0.47,0.43,0.55,0.69,0.27,0.31,0.53,0.55,0.74,0.34,0.55,0.69,0.44,0.31,0.43,0.37,0.23,0.55,0.31,0.53,0.27,0.37,0.55,0.52,0.37,0.51,0.42,0.43,0.53,0.53,0.37,0.43,0.55,0.69,0.44,0.37" style="fill:rgb(0,0,0);font-family:MinionPro-Regular;font-size:10.0px;stroke:none;">The precipitate was washed and then placed in a centrifuge with DI water, this procedure was</text>
   <text y="669.996" x="200.014,203.594,207.834,213.164,217.464,221.674,224.664,228.974,234.274,236.183,239.923,244.263,248.813,253.053,256.763,261.193,263.693,265.493,268.593,271.263,279.413,283.643,287.313,289.613,291.458,296.758,302.038,305.138,307.868,310.368,312.434,316.834,319.01,324.25,334.034,338.834,341.064,347.904,352.284,355.984,358.072,363.122,368.092,371.202,375.512,378.182,383.612,387.922,393.22200000000004,395.092,397.972,403.012,405.592,408.102,413.052,419.822,424.132,429.432,431.375,436.305,440.90500000000003,443.167,446.237,449.817,454.127,458.426,462.646,466.896,470.456,475.727,479.727,484.346,487.017,492.407,498.216,501.206,506.30600000000004,508.419,513.469,518.44,521.55,525.859,528.53,534.03,536.086,540.486,542.662,546.122,552.932,557.732" svgx:width="0.37,0.43,0.52,0.43,0.44,0.31,0.43,0.53,0.55,0.37,0.43,0.46,0.43,0.37,0.44,0.25,0.55,0.31,0.27,0.82,0.43,0.37,0.23,0.55,0.53,0.55,0.31,0.27,0.25,0.55,0.44,0.55,0.52,0.77,0.48,0.55,0.69,0.44,0.37,0.55,0.51,0.51,0.31,0.44,0.27,0.55,0.43,0.53,0.55,0.3,0.51,0.25,0.25,0.51,0.69,0.43,0.53,0.55,0.51,0.46,0.55,0.3,0.37,0.43,0.43,0.42,0.43,0.36,0.53,0.37,0.46,0.27,0.55,0.47,0.31,0.51,0.55,0.51,0.51,0.31,0.44,0.27,0.55,0.55,0.44,0.55,0.35,0.67,0.51,0.23" style="fill:rgb(0,0,0);font-family:MinionPro-Regular;font-size:10.0px;stroke:none;">repeated several times, until a pH7 was obtained followed by freeze-dryingto obtain a (Co,</text>
   <text y="682.979" x="200.014,208.874,214.344" svgx:width="0.89,0.55,0.35" style="fill:rgb(0,0,0);font-family:MinionPro-Regular;font-size:10.0px;stroke:none;">Mn)</text>
  </g>
  <g begin="text">
   <text y="684.68" x="217.701" svgx:width="0.48" style="fill:rgb(0,0,0);font-family:MinionPro-Regular;font-size:6.67px;stroke:none;">3</text>
  </g>
  <g begin="text">
   <text y="682.98" x="221.329" svgx:width="0.75" style="fill:rgb(0,0,0);font-family:MinionPro-Regular;font-size:10.0px;stroke:none;">O</text>
  </g>
  <g begin="text">
   <text y="684.68" x="228.699" svgx:width="0.48" style="fill:rgb(0,0,0);font-family:MinionPro-Regular;font-size:6.67px;stroke:none;">4</text>
  </g>
  <g begin="text">
   <text y="682.98" x="232.327,235.637,239.348,246.497,255.911,260.151,265.142,273.142,278.471,283.561,287.211,289.772,292.762,296.952,299.252,301.266,306.355,311.345,315.045,317.31,321.549,326.539,334.539,339.83,344.14,347.89,350.539,354.279,359.27,364.74,367.04,368.956,372.667,379.816,389.308,396.148,400.529,404.229,406.316,410.526,413.477,416.586,420.896,423.566,428.997,433.307,438.607,440.729,443.719,448.819,450.933,454.513,458.753,466.904,471.854,476.404,480.704,482.852,486.311,493.122,497.922,500.202,509.062,514.532" svgx:width="0.33,0.37,0.71,0.75,0.42,0.51,0.82,0.52,0.51,0.37,0.27,0.31,0.43,0.23,0.55,0.53,0.51,0.37,0.55,0.42,0.51,0.82,0.52,0.44,0.37,0.27,0.37,0.51,0.55,0.23,0.55,0.37,0.71,0.75,0.69,0.44,0.37,0.55,0.44,0.31,0.31,0.44,0.27,0.55,0.43,0.53,0.55,0.31,0.51,0.55,0.37,0.43,0.82,0.51,0.46,0.43,0.55,0.35,0.67,0.51,0.23,0.89,0.55,0.35" style="fill:rgb(0,0,0);font-family:MinionPro-Regular;font-size:10.0px;stroke:none;">/rGOcomposite. For comparison, rGOwas attained to remove (Co,Mn)</text>
  </g>
  <g begin="text">
   <text y="684.68" x="517.776" svgx:width="0.48" style="fill:rgb(0,0,0);font-family:MinionPro-Regular;font-size:6.67px;stroke:none;">3</text>
  </g>
  <g begin="text">
   <text y="682.98" x="521.405" svgx:width="0.75" style="fill:rgb(0,0,0);font-family:MinionPro-Regular;font-size:10.0px;stroke:none;">O</text>
  </g>
  <g begin="text">
   <text y="684.68" x="528.775" svgx:width="0.48" style="fill:rgb(0,0,0);font-family:MinionPro-Regular;font-size:6.67px;stroke:none;">4</text>
  </g>
  <g begin="text">
   <text y="682.98" x="534.614,537.684,541.264,546.254,556.497,559.957,566.767,571.567" svgx:width="0.3,0.37,0.51,0.82,0.35,0.67,0.51,0.23" style="fill:rgb(0,0,0);font-family:MinionPro-Regular;font-size:10.0px;stroke:none;">from(Co,</text>
   <text y="696.019" x="200.015,208.875,214.345" svgx:width="0.89,0.55,0.35" style="fill:rgb(0,0,0);font-family:MinionPro-Regular;font-size:10.0px;stroke:none;">Mn)</text>
  </g>
  <g begin="text">
   <text y="697.663" x="217.701" svgx:width="0.48" style="fill:rgb(0,0,0);font-family:MinionPro-Regular;font-size:6.67px;stroke:none;">3</text>
  </g>
  <g begin="text">
   <text y="696.019" x="221.329" svgx:width="0.75" style="fill:rgb(0,0,0);font-family:MinionPro-Regular;font-size:10.0px;stroke:none;">O</text>
  </g>
  <g begin="text">
   <text y="697.663" x="228.699" svgx:width="0.48" style="fill:rgb(0,0,0);font-family:MinionPro-Regular;font-size:6.67px;stroke:none;">4</text>
  </g>
  <g begin="text">
   <text y="696.019" x="232.327,235.637,239.348,246.497,255.911,260.151,265.142,273.142,278.471,283.561,287.211,289.772,292.762,296.952,299.252,301.266,308.185,313.505,316.165,320.336,325.636,327.628,334.467,338.848,342.548,344.634,348.875,353.865,359.294,364.455,369.745,374.035,377.025,381.335,386.635,388.458,391.128,396.628,398.662,403.462,414.536,422.086,428.786,431.286,433.415,437.156,442.195,444.605,449.796,452.896,455.555,460.546,466.046,468.055,474.934,477.495,480.584,485.884,487.953,491.693,496.684,502.133,504.794,509.054,513.263,516.363,519.023,524.013,529.484,531.784,533.648,537.958,543.388,548.688,550.883,553.763,558.802,561.332" svgx:width="0.33,0.37,0.71,0.75,0.42,0.51,0.82,0.52,0.51,0.37,0.27,0.31,0.43,0.23,0.55,0.69,0.53,0.27,0.42,0.53,0.55,0.69,0.44,0.37,0.55,0.42,0.51,0.55,0.53,0.53,0.42,0.31,0.43,0.53,0.55,0.27,0.55,0.55,0.48,0.89,0.77,0.67,0.25,0.55,0.37,0.51,0.25,0.53,0.31,0.27,0.51,0.55,0.55,0.69,0.27,0.31,0.53,0.55,0.37,0.51,0.55,0.27,0.42,0.44,0.31,0.27,0.51,0.55,0.23,0.55,0.44,0.55,0.53,0.55,0.3,0.51,0.25,0.36" style="fill:rgb(0,0,0);font-family:MinionPro-Regular;font-size:10.0px;stroke:none;">/rGOcomposite, which was conducted in 1MHCl solution with sonication, and fol-</text>
   <text y="709.001" x="200.014,202.523,207.474,214.243,218.553,223.853,225.866,230.796,235.396,237.657,240.727,244.307,248.617,252.917,257.137,261.387,264.947,270.216,274.216,278.836,281.507,286.897,291.607" svgx:width="0.25,0.51,0.69,0.43,0.53,0.55,0.51,0.46,0.55,0.3,0.37,0.43,0.43,0.42,0.43,0.36,0.53,0.37,0.46,0.27,0.55,0.47,0.23" style="fill:rgb(0,0,0);font-family:MinionPro-Regular;font-size:10.0px;stroke:none;">lowed by freeze-drying.</text>
  </g>
  <path style="fill:rgb(0,0,0);stroke:none;stroke-width:1.0;" d="M576.000 54.900 L36.000 54.900 L36.000 54.400 L576.000 54.400 "/>
  <rect style="stroke:blue;stroke-width:0.3;" x="36.0" y="35.043" height="23.64" width="107.093" title="2"/>
  <text y="35.043" class="image" id="image.2.1" width="107" height="23" x="36.0">image.2.1.36_143.35_59</text>
  <g begin="text">
   <text y="46.205" x="429.619,434.531,438.947,443.363,446.027,447.771,451.771,456.186,458.434,460.178,464.485,468.885,470.664,475.08,477.32,479.054,481.718,487.462,491.878,494.126,500.79,505.206" svgx:width="0.61,0.55,0.55,0.33,0.22,0.5,0.55,0.28,0.22,0.55,0.55,0.55,0.55,0.28,0.55,0.33,0.72,0.55,0.28,0.83,0.55,0.33" style="fill:rgb(0,0,0);font-family:Helvetica;font-size:8.0px;stroke:none;">Fabrication of (Co,Mn)</text>
  </g>
  <g begin="text">
   <text y="47.509" x="507.798" svgx:width="0.55" style="fill:rgb(0,0,0);font-family:Helvetica;font-size:5.33px;stroke:none;">3</text>
  </g>
  <g begin="text">
   <text y="46.205" x="511.143" svgx:width="0.78" style="fill:rgb(0,0,0);font-family:Helvetica;font-size:8.0px;stroke:none;">O</text>
  </g>
  <g begin="text">
   <text y="47.509" x="517.323" svgx:width="0.55" style="fill:rgb(0,0,0);font-family:Helvetica;font-size:5.33px;stroke:none;">4</text>
  </g>
  <g begin="text">
   <text y="46.205" x="520.668,522.916,525.58,531.828,539.773,543.773,548.189,554.853,559.269,563.685,567.685,569.429,571.677" svgx:width="0.28,0.33,0.78,0.78,0.5,0.55,0.83,0.55,0.55,0.5,0.22,0.28,0.55" style="fill:rgb(0,0,0);font-family:Helvetica;font-size:8.0px;stroke:none;">/rGOcomposite</text>
  </g>
  <path style="fill:rgb(0,0,0);stroke:none;stroke-width:1.0;" d="M36.000 744.000 L576.000 744.000 L576.000 744.500 L36.000 744.500 "/>
  <g begin="text">
   <text y="756.0" x="36.0,41.328,45.744,51.992,57.352,59.017,65.264,71.008,76.368,78.066,80.146,81.921,87.665,93.913,96.161,98.409,102.825,107.241,109.489,113.782,118.198,122.614,127.03,129.278,131.022,135.438,139.854,142.518,146.834,151.25,152.994,155.242,159.658,164.074,168.49,172.906,175.153,179.569,183.985,188.401,192.698,197.114,201.53,205.93,213.901,220.149,224.149,226.397,230.813,235.229,239.645,242.285,244.005,248.421,252.837,255.077,256.817,261.233,265.649,270.065,274.465,557.005,561.405,563.185,565.425,567.209,571.625" svgx:width="0.67,0.55,0.78,0.67,0.55,0.78,0.72,0.67,0.55,0.26,0.55,0.72,0.78,0.28,0.28,0.55,0.55,0.28,0.55,0.55,0.55,0.55,0.28,0.22,0.55,0.55,0.33,0.55,0.55,0.22,0.28,0.55,0.55,0.55,0.55,0.28,0.55,0.55,0.55,0.55,0.55,0.55,0.55,0.55,0.78,0.5,0.28,0.55,0.55,0.55,0.33,0.55,0.55,0.55,0.28,0.55,0.55,0.55,0.55,0.55,0.55,0.55,0.55,0.28,0.55,0.55,0.55" style="fill:rgb(0,0,0);font-family:Helvetica;font-size:8.0px;stroke:none;">PLOS ONE | DOI:10.1371/journal.pone.0164657 October 27, 2016 2 / 11</text>
   <text y="83.285" x="36.0,39.8,43.176,46.552,50.352,54.152,57.952,59.496,63.296,67.096,70.696,72.169,74.217,78.017,81.817,85.617,88.993,92.369,94.417,95.867,99.667,103.667,105.222,109.437,111.901,115.701,119.501,121.965,125.341,131.389,139.067,142.867,146.243,149.619,153.419,157.219,161.018,162.562,166.362,170.162" svgx:width="0.5,0.45,0.45,0.5,0.5,0.5,0.22,0.5,0.5,0.45,0.55,0.28,0.5,0.5,0.5,0.45,0.45,0.28,0.22,0.5,0.5,0.55,0.55,0.33,0.5,0.5,0.33,0.45,0.78,1.0,0.5,0.45,0.45,0.5,0.5,0.5,0.22,0.5,0.5,0.45" style="fill:rgb(0,0,0);font-family:Helvetica-Condensed;font-size:8.0px;stroke:none;">Technology Innovation ProgramTechnology</text>
   <text y="94.284" x="36.0,40.712,44.088,47.464,50.84,52.384,56.184,59.984,66.032,69.408,73.133,75.37299999999999,76.931,81.147,83.611,87.411,88.955,92.331,95.707,97.755,101.35499999999999,102.84,105.304,110.016,112.48,115.856,119.656,121.896,123.42,128.132,131.932" svgx:width="0.61,0.45,0.45,0.45,0.22,0.5,0.5,0.78,0.45,0.5,0.28,0.55,0.55,0.33,0.5,0.22,0.45,0.45,0.28,0.45,0.55,0.33,0.61,0.33,0.45,0.5,0.28,0.55,0.61,0.5,0.25" style="fill:rgb(0,0,0);font-family:Helvetica-Condensed;font-size:8.0px;stroke:none;">Development Projects (Grant No.</text>
   <text y="105.283" x="36.0,40.216,44.432,48.232,52.032,55.832,59.632,63.432,67.232,71.032,74.832,78.631,82.261,86.061,89.861,93.661,97.461,101.261,105.061,108.861,112.661,116.461,118.925" svgx:width="0.55,0.55,0.5,0.5,0.5,0.5,0.5,0.5,0.5,0.5,0.5,0.5,0.5,0.5,0.5,0.5,0.5,0.5,0.5,0.5,0.5,0.33,0.25" style="fill:rgb(0,0,0);font-family:Helvetica-Condensed;font-size:8.0px;stroke:none;">CXZZ20140904154839135).</text>
   <text y="122.29" x="36.0,40.216,44.016,50.064,53.864,57.664,59.712,61.76,65.56,69.56,71.036,73.084,76.883,78.931,82.731,85.195,88.995,92.371,94.419,97.681" svgx:width="0.55,0.5,0.78,0.5,0.5,0.28,0.28,0.5,0.5,0.55,0.28,0.5,0.28,0.5,0.33,0.5,0.45,0.28,0.45,0.28" style="fill:rgb(0,0,0);font-family:Helvetica-Condensed-Bold;font-size:8.0px;stroke:none;">Competing Interests:</text>
   <text y="122.29" x="101.536,105.336,109.136,112.73599999999999,114.236,117.612,121.412,123.46,127.26,131.06,133.524,137.124,138.556,142.356,145.732,149.108,152.708,154.26,158.06,161.436,164.812,166.356,169.732,172.196,175.572" svgx:width="0.5,0.5,0.45,0.55,0.45,0.5,0.28,0.5,0.5,0.33,0.45,0.55,0.5,0.45,0.45,0.45,0.55,0.5,0.45,0.45,0.22,0.45,0.33,0.45,0.5" style="fill:rgb(0,0,0);font-family:Helvetica-Condensed;font-size:8.0px;stroke:none;">The authors have declared</text>
   <text y="133.289" x="36.0,38.048,41.848,45.224,47.464,48.982,52.782,56.782,58.337,61.712,65.512,71.56,75.36,78.736,80.784,82.328,86.128,90.128,91.615,93.159,96.959,99.007,102.383,104.847,108.223,111.599,113.647" svgx:width="0.28,0.5,0.45,0.28,0.55,0.5,0.5,0.55,0.45,0.5,0.78,0.5,0.45,0.28,0.22,0.5,0.5,0.55,0.22,0.5,0.28,0.45,0.33,0.45,0.45,0.28,0.45" style="fill:rgb(0,0,0);font-family:Helvetica-Condensed;font-size:8.0px;stroke:none;">that no competing interests</text>
  </g>
  <g begin="text">
   <text y="133.289" x="118.714,122.09,125.466,127.01,130.386,132.434" svgx:width="0.45,0.45,0.22,0.45,0.28,0.25" style="fill:rgb(0,0,0);font-family:Helvetica-Condensed;font-size:8.0px;stroke:none;">exist.</text>
  </g>
 </g>
</svg>
