<?xml version="1.0" encoding="UTF-8"?>
<svg height="766.0" width="4046.0" xmlns="http://www.w3.org/2000/svg">
 <g id="page" xmlns:svgx="http://www.xml-cml.org/schema/svgx">
  <path style="fill:rgb(59,90,166);stroke:none;stroke-width:1.0;" d="M299.510 103.350 L367.430 103.350 Z"/>
  <path style="fill:rgb(59,90,166);stroke:none;stroke-width:1.0;" d="M393.110 103.350 L428.320 103.350 Z"/>
  <path style="fill:rgb(59,90,166);stroke:none;stroke-width:1.0;" d="M221.500 167.360 L291.630 167.360 Z"/>
  <path style="fill:rgb(59,90,166);stroke:none;stroke-width:1.0;" d="M317.310 167.360 L352.520 167.360 Z"/>
  <path style="fill:rgb(59,90,166);stroke:none;stroke-width:1.0;" d="M221.500 375.870 L291.630 375.870 Z"/>
  <path style="fill:rgb(59,90,166);stroke:none;stroke-width:1.0;" d="M317.310 375.870 L352.520 375.870 Z"/>
  <path style="fill:rgb(59,90,166);stroke:none;stroke-width:1.0;" d="M295.140 494.360 L367.880 494.360 Z"/>
  <path style="fill:rgb(59,90,166);stroke:none;stroke-width:1.0;" d="M393.620 494.360 L428.830 494.360 Z"/>
  <path style="fill:rgb(59,90,166);stroke:none;stroke-width:1.0;" d="M345.430 548.840 L415.960 548.840 Z"/>
  <path style="fill:rgb(59,90,166);stroke:none;stroke-width:1.0;" d="M441.640 548.840 L476.900 548.840 Z"/>
  <path style="fill:rgb(59,90,166);stroke:none;stroke-width:1.0;" d="M286.300 612.850 L354.220 612.850 Z"/>
  <path style="fill:rgb(59,90,166);stroke:none;stroke-width:1.0;" d="M379.900 612.850 L415.110 612.850 Z"/>
  <g begin="text">
   <text y="83.282" x="200.466,204.882,209.298" svgx:width="0.55,0.55,0.28" style="fill:rgb(0,0,0);font-family:Helvetica-Bold;font-size:8.0px;stroke:none;">23.</text>
   <text y="83.282" x="221.499,225.915,230.331,234.746,239.14600000000002,240.887,246.631,248.871,250.582,254.998,256.758,258.519,266.095,268.33500000000004,270.084,274.5,276.244,280.66,285.06,286.808,291.224,293.464,295.199,301.863,303.607,307.607,312.023,317.767,322.183,326.183,327.943,329.612,333.612,335.85200000000003,337.605,344.269,348.685,352.685,357.101,358.845,363.261,367.661,369.353,371.601,373.841,375.589,380.917,385.333,389.749,394.149,395.885,401.213,406.957,409.197,410.909,416.237,418.901,423.317,427.733,432.149,434.813,439.229,441.477,443.221,447.533,451.933,453.712,458.128,460.368,462.102,467.846,469.59,471.838,474.502,478.918,483.334,487.75,492.166,494.83,500.483,504.899,509.315,513.731,518.131,519.872,526.12,528.784,533.2,537.615,542.031,546.447,550.863" svgx:width="0.55,0.55,0.55,0.55,0.55,0.72,0.28,0.55,0.55,0.22,0.55,0.95,0.28,0.55,0.55,0.22,0.55,0.55,0.55,0.55,0.28,0.55,0.83,0.22,0.5,0.55,0.72,0.55,0.5,0.22,0.55,0.5,0.28,0.55,0.83,0.55,0.5,0.55,0.22,0.55,0.55,0.55,0.28,0.28,0.55,0.67,0.55,0.55,0.55,0.55,0.67,0.72,0.28,0.55,0.67,0.33,0.55,0.55,0.55,0.33,0.55,0.28,0.22,0.55,0.55,0.55,0.55,0.28,0.55,0.72,0.22,0.28,0.33,0.55,0.55,0.55,0.55,0.33,0.72,0.55,0.55,0.55,0.55,0.55,0.78,0.33,0.55,0.55,0.55,0.55,0.55,0.55" style="fill:rgb(0,0,0);font-family:Helvetica;font-size:8.0px;stroke:none;">Long D, Li W, Ling L, Miyawaki J, Mochida I, Yoon SH. Preparation of Nitrogen-Doped Graphene</text>
   <text y="92.806" x="221.499,226.827,231.243,235.658,240.074,242.322,246.322,248.031,252.447,256.447,258.179,262.57899999999995,264.301,270.045,274.461,281.125,285.541,287.285,291.701,296.117,300.517,302.229,307.973,312.389,316.805,323.469,325.213,329.212,333.524,335.284,337.038,341.454,345.87,350.27,352.005,357.749,361.749,366.165,368.829,373.245,375.493,379.909,384.325,386.989,393.652,397.926,399.686,401.441,407.185,411.601,416.017,420.433,424.433,426.681,428.425,432.841,437.241,438.915,443.331,445.571,447.362,453.61,456.274,460.69,465.106,469.522,473.938,478.354,482.75399999999996,484.383,490.63,494.63,496.374,500.79,505.206,507.446,509.157,513.573,517.989,522.405,526.821,533.485,537.901,539.645,542.285,544.023,548.439,552.855,557.271,561.687" svgx:width="0.67,0.55,0.55,0.55,0.28,0.5,0.55,0.55,0.5,0.55,0.55,0.55,0.72,0.55,0.83,0.55,0.22,0.55,0.55,0.55,0.55,0.72,0.55,0.55,0.83,0.22,0.5,0.55,0.22,0.55,0.55,0.55,0.55,0.55,0.72,0.5,0.55,0.33,0.55,0.28,0.55,0.55,0.33,0.83,0.55,0.22,0.55,0.72,0.55,0.55,0.55,0.5,0.28,0.22,0.55,0.55,0.55,0.55,0.28,0.55,0.78,0.33,0.55,0.55,0.55,0.55,0.55,0.55,0.55,0.78,0.5,0.22,0.55,0.55,0.28,0.55,0.55,0.55,0.55,0.55,0.83,0.55,0.22,0.33,0.55,0.55,0.55,0.55,0.55,0.28" style="fill:rgb(0,0,0);font-family:Helvetica;font-size:8.0px;stroke:none;">Sheets by a Combined Chemical and Hydrothermal Reduction of Graphene Oxide. Langmuir 2010;</text>
   <text y="102.274" x="221.499,225.915,230.331,232.579,236.994,241.41,245.826,250.242,254.55,258.966,263.382,267.798,272.214,276.63,281.046,283.286,284.995,289.411,293.827,295.57" svgx:width="0.55,0.55,0.28,0.55,0.55,0.55,0.55,0.55,0.55,0.55,0.55,0.55,0.55,0.55,0.28,0.55,0.55,0.55,0.22,0.28" style="fill:rgb(0,0,0);font-family:Helvetica;font-size:8.0px;stroke:none;">26:16096–16102. doi:</text>
   <text y="102.274" x="299.508,303.924,308.34,310.588,315.004,319.42,323.836,328.252,330.5,332.244,336.66,341.076,345.372,349.788,354.204,358.62,363.036" svgx:width="0.55,0.55,0.28,0.55,0.55,0.55,0.55,0.28,0.22,0.55,0.55,0.55,0.55,0.55,0.55,0.55,0.55" style="fill:rgb(59,90,166);font-family:Helvetica;font-size:8.0px;stroke:none;">10.1021/la102425a</text>
   <text y="102.274" x="369.183,374.511,381.175,383.423,389.167" svgx:width="0.67,0.83,0.28,0.72,0.28" style="fill:rgb(0,0,0);font-family:Helvetica;font-size:8.0px;stroke:none;">PMID:</text>
   <text y="102.274" x="393.108,397.524,401.94,406.356,410.771,415.187,419.603,423.891" svgx:width="0.55,0.55,0.55,0.55,0.55,0.55,0.55,0.55" style="fill:rgb(59,90,166);font-family:Helvetica;font-size:8.0px;stroke:none;">20863088</text>
   <text y="115.256" x="200.466,204.882,209.298" svgx:width="0.55,0.55,0.28" style="fill:rgb(0,0,0);font-family:Helvetica-Bold;font-size:8.0px;stroke:none;">24.</text>
   <text y="115.256" x="221.499,227.243,231.659,236.074,240.49,244.89000000000001,246.614,251.941,254.181,255.911,261.239,265.655,270.071,274.471,276.207,281.119,283.35900000000004,285.107,292.683,297.099,301.515,305.91499999999996,307.615,313.863,316.103,317.876,323.204,324.948,329.34799999999996,331.085,335.085,337.325,339.08,344.824,349.239,353.63899999999995,355.407,361.151,363.391,365.101,370.013,374.429,378.429,380.173,381.917,386.31699999999995,388.061,393.389,397.389,401.805,404.053,408.469,412.885,416.885,418.629,422.629,424.288,428.704,430.944,432.679,438.007,442.423,445.087,449.503,453.919,457.919,459.608,462.272,468.016,472.431,474.679,481.343,485.759" svgx:width="0.72,0.55,0.55,0.55,0.55,0.55,0.67,0.28,0.55,0.67,0.55,0.55,0.55,0.55,0.61,0.28,0.55,0.95,0.55,0.55,0.55,0.55,0.78,0.28,0.55,0.67,0.22,0.55,0.55,0.5,0.28,0.55,0.72,0.55,0.55,0.55,0.72,0.28,0.55,0.61,0.55,0.5,0.22,0.22,0.55,0.55,0.67,0.5,0.55,0.28,0.55,0.55,0.5,0.22,0.5,0.55,0.55,0.28,0.55,0.67,0.55,0.33,0.55,0.55,0.5,0.55,0.33,0.72,0.55,0.28,0.83,0.55,0.33" style="fill:rgb(0,0,0);font-family:Helvetica;font-size:8.0px;stroke:none;">Cheng K, Yang F, Wang G, Yin J, Cao D. Facile Synthesis of Porous (Co,Mn)</text>
  </g>
  <g begin="text">
   <text y="116.617" x="488.353" svgx:width="0.55" style="fill:rgb(0,0,0);font-family:Helvetica;font-size:5.33px;stroke:none;">3</text>
  </g>
  <g begin="text">
   <text y="115.257" x="491.698" svgx:width="0.78" style="fill:rgb(0,0,0);font-family:Helvetica;font-size:8.0px;stroke:none;">O</text>
  </g>
  <g begin="text">
   <text y="116.617" x="497.934" svgx:width="0.55" style="fill:rgb(0,0,0);font-family:Helvetica;font-size:5.33px;stroke:none;">4</text>
  </g>
  <g begin="text">
   <text y="115.257" x="502.979,508.723,513.139,517.555,521.971,527.715,529.459,532.123,536.428,540.428,542.21,547.122,549.786,554.202,558.618" svgx:width="0.72,0.55,0.55,0.55,0.72,0.22,0.33,0.55,0.5,0.55,0.61,0.33,0.55,0.55,0.33" style="fill:rgb(0,0,0);font-family:Helvetica;font-size:8.0px;stroke:none;">Nanowires Free-</text>
   <text y="124.781" x="221.501,226.829,229.077,233.492,237.908,242.324,244.068,248.484,252.88400000000001,254.553,258.969,263.36899999999997,265.154,269.554,271.334,277.078,278.83799999999997,280.518,285.43,289.846,294.262,302.628,307.044,311.46,315.85999999999996,317.595,322.507,326.922,331.338,333.082,335.722,337.494,343.238,347.654,349.902,354.318,356.062,360.062,362.31,364.054,368.054,369.752,375.08,379.496,382.16,384.408,388.824,391.488,398.042,402.458,406.873,410.873,415.27299999999997,417.034,419.282,423.698,426.33799999999997,428.089" svgx:width="0.67,0.28,0.55,0.55,0.55,0.22,0.55,0.55,0.55,0.55,0.55,0.55,0.55,0.55,0.72,0.22,0.55,0.61,0.55,0.55,0.83,0.55,0.55,0.55,0.55,0.61,0.55,0.55,0.22,0.33,0.55,0.72,0.55,0.28,0.55,0.22,0.5,0.28,0.22,0.5,0.55,0.67,0.55,0.33,0.28,0.55,0.33,0.83,0.55,0.55,0.5,0.55,0.55,0.28,0.55,0.33,0.55,0.72" style="fill:rgb(0,0,0);font-family:Helvetica;font-size:8.0px;stroke:none;">Standing on a Ni Foamand Their Catalytic Performance for H</text>
  </g>
  <g begin="text">
   <text y="126.085" x="433.814" svgx:width="0.55" style="fill:rgb(0,0,0);font-family:Helvetica;font-size:5.33px;stroke:none;">2</text>
  </g>
  <g begin="text">
   <text y="124.781" x="437.102" svgx:width="0.78" style="fill:rgb(0,0,0);font-family:Helvetica;font-size:8.0px;stroke:none;">O</text>
  </g>
  <g begin="text">
   <text y="126.085" x="443.339" svgx:width="0.55" style="fill:rgb(0,0,0);font-family:Helvetica;font-size:5.33px;stroke:none;">2</text>
  </g>
  <g begin="text">
   <text y="124.781" x="448.441,453.769,455.513,459.929,463.929,466.177,468.841,473.158,475.822,480.238,484.654,489.07,493.07,495.318,497.062,501.478,505.894,508.134,509.839,513.839,516.0790000000001,517.832,524.496,528.912,531.16,535.576,538.24,540.48,542.153,547.897,552.313,556.729,563.393,565.633,567.382" svgx:width="0.67,0.22,0.55,0.5,0.28,0.33,0.55,0.33,0.55,0.55,0.55,0.5,0.28,0.22,0.55,0.55,0.28,0.55,0.5,0.28,0.55,0.83,0.55,0.28,0.55,0.33,0.28,0.55,0.72,0.55,0.55,0.83,0.28,0.55,0.67" style="fill:rgb(0,0,0);font-family:Helvetica;font-size:8.0px;stroke:none;">Electroreduction. J. Mater. Chem. A</text>
   <text y="134.305" x="221.501,225.916,230.332,234.748,239.164,241.404,243.1,247.516,249.764,254.18,258.596,263.012,267.428,271.844,276.153,280.569,284.985,289.4" svgx:width="0.55,0.55,0.55,0.55,0.28,0.55,0.55,0.28,0.55,0.55,0.55,0.55,0.55,0.55,0.55,0.55,0.55,0.28" style="fill:rgb(0,0,0);font-family:Helvetica;font-size:8.0px;stroke:none;">2013; 1:1669–1676.</text>
   <text y="147.288" x="200.468,204.884,209.3" svgx:width="0.55,0.55,0.28" style="fill:rgb(0,0,0);font-family:Helvetica-Bold;font-size:8.0px;stroke:none;">25.</text>
   <text y="147.288" x="221.501,225.917,227.677,229.381,233.381,235.621,237.375,242.703,244.447,248.863,253.279,257.679,259.428,264.756,266.996,268.726,273.142,274.902,276.662,281.99,284.23,285.961,292.208,293.952,298.368,302.768,304.499,309.827,312.067,313.853,319.213,320.883,323.13,327.546,331.546,333.29,335.034,339.43399999999997,341.179,343.843,348.259,352.675,354.923,359.323,361.078,363.326,367.726,369.468,373.468,377.468,381.884,384.132,388.548,392.964,396.851,398.595,402.595,406.995,408.757,415.421,419.836,421.58,423.828,425.572,429.988,434.404,437.068,441.484,445.9,449.9,451.559,458.222,462.638,468.382" svgx:width="0.55,0.22,0.55,0.5,0.28,0.55,0.67,0.22,0.55,0.55,0.55,0.55,0.67,0.28,0.55,0.55,0.22,0.55,0.67,0.28,0.55,0.78,0.22,0.55,0.55,0.55,0.67,0.28,0.55,0.67,0.55,0.28,0.55,0.5,0.22,0.22,0.55,0.55,0.33,0.55,0.55,0.28,0.55,0.55,0.28,0.55,0.55,0.5,0.5,0.55,0.28,0.55,0.55,0.5,0.22,0.5,0.55,0.55,0.83,0.55,0.22,0.28,0.22,0.55,0.55,0.33,0.55,0.55,0.5,0.55,0.83,0.55,0.72,0.55" style="fill:rgb(0,0,0);font-family:Helvetica;font-size:8.0px;stroke:none;">Li J, Xiong S, Li X, Qian Y, A facile route to synthesize multiporous MnCo</text>
  </g>
  <g begin="text">
   <text y="148.592" x="472.762" svgx:width="0.55" style="fill:rgb(0,0,0);font-family:Helvetica;font-size:5.33px;stroke:none;">2</text>
  </g>
  <g begin="text">
   <text y="147.288" x="476.05" svgx:width="0.78" style="fill:rgb(0,0,0);font-family:Helvetica;font-size:8.0px;stroke:none;">O</text>
  </g>
  <g begin="text">
   <text y="148.592" x="482.287" svgx:width="0.55" style="fill:rgb(0,0,0);font-family:Helvetica;font-size:5.33px;stroke:none;">4</text>
  </g>
  <g begin="text">
   <text y="147.288" x="487.389,491.805,496.221,500.621,502.355,508.099,512.515,519.179" svgx:width="0.55,0.55,0.55,0.55,0.72,0.55,0.83,0.55" style="fill:rgb(0,0,0);font-family:Helvetica;font-size:8.0px;stroke:none;">and CoMn</text>
  </g>
  <g begin="text">
   <text y="148.592" x="523.502" svgx:width="0.55" style="fill:rgb(0,0,0);font-family:Helvetica;font-size:5.33px;stroke:none;">2</text>
  </g>
  <g begin="text">
   <text y="147.288" x="526.847" svgx:width="0.78" style="fill:rgb(0,0,0);font-family:Helvetica;font-size:8.0px;stroke:none;">O</text>
  </g>
  <g begin="text">
   <text y="148.592" x="533.027" svgx:width="0.55" style="fill:rgb(0,0,0);font-family:Helvetica;font-size:5.33px;stroke:none;">4</text>
  </g>
  <g begin="text">
   <text y="147.288" x="538.129,542.129,546.545,548.289,552.705,557.121" svgx:width="0.5,0.55,0.22,0.55,0.55,0.22" style="fill:rgb(0,0,0);font-family:Helvetica;font-size:8.0px;stroke:none;">spinel</text>
   <text y="156.755" x="221.501,225.917,230.333,234.749,238.749,240.493,243.157,247.573,251.989,253.733,255.477,259.892,267.309,271.308,275.724,280.14,284.556,287.22,291.636,295.636,297.299,303.043,304.787,307.035,311.435,313.173,314.917,321.581,325.997,328.661,333.076,337.076,341.492,345.892,347.586,349.33,351.074,353.322,357.738,359.482,363.898,372.247,376.247,378.495,382.911,385.575,389.991,394.407,398.80699999999996,400.536,404.952,407.616,412.032,416.448,420.864,423.528,425.776,427.52,431.83,435.83,438.07,439.825,445.569,449.985,454.401,458.817,462.816,466.816,471.232,472.876,477.27599999999995,479.055,483.471,487.887,492.303,496.719,498.959,500.656,505.072,507.32,511.736,516.152,520.568,524.984,529.4,533.708,538.124,542.539,546.955,549.195,550.941,555.357,559.773,561.517" svgx:width="0.55,0.55,0.55,0.5,0.22,0.33,0.55,0.55,0.22,0.22,0.55,0.72,0.5,0.55,0.55,0.55,0.33,0.55,0.5,0.55,0.72,0.22,0.28,0.55,0.55,0.22,0.83,0.55,0.33,0.55,0.5,0.55,0.55,0.55,0.22,0.22,0.28,0.55,0.22,0.55,0.83,0.5,0.28,0.55,0.33,0.55,0.55,0.55,0.55,0.55,0.33,0.55,0.55,0.55,0.33,0.28,0.22,0.55,0.5,0.28,0.55,0.72,0.55,0.55,0.55,0.5,0.5,0.55,0.22,0.55,0.55,0.55,0.55,0.55,0.55,0.28,0.55,0.55,0.28,0.55,0.55,0.55,0.55,0.55,0.55,0.55,0.55,0.55,0.28,0.55,0.55,0.55,0.22,0.28" style="fill:rgb(0,0,0);font-family:Helvetica;font-size:8.0px;stroke:none;">quasi-hollowspheres with improved lithiumstorage properties. Nanoscale 2013; 5:2045–2054. doi:</text>
   <text y="166.28" x="221.501,225.917,230.333,232.581,236.997,241.413,245.829,250.245,252.493,256.367,260.783,265.199,267.863,272.279,276.695,281.111,285.527,289.943" svgx:width="0.55,0.55,0.28,0.55,0.55,0.55,0.55,0.28,0.5,0.55,0.55,0.33,0.55,0.55,0.55,0.55,0.55,0.22" style="fill:rgb(59,90,166);font-family:Helvetica;font-size:8.0px;stroke:none;">10.1039/c2nr33576j</text>
   <text y="166.28" x="293.387,298.715,305.379,307.627,313.371" svgx:width="0.67,0.83,0.28,0.72,0.28" style="fill:rgb(0,0,0);font-family:Helvetica;font-size:8.0px;stroke:none;">PMID:</text>
   <text y="166.28" x="317.312,321.728,326.144,330.56,334.976,339.392,343.808,348.224" svgx:width="0.55,0.55,0.55,0.55,0.55,0.55,0.55,0.55" style="fill:rgb(59,90,166);font-family:Helvetica;font-size:8.0px;stroke:none;">23370041</text>
   <text y="179.262" x="200.468,204.884,209.3" svgx:width="0.55,0.55,0.28" style="fill:rgb(0,0,0);font-family:Helvetica-Bold;font-size:8.0px;stroke:none;">26.</text>
   <text y="179.262" x="221.501,226.829,230.829,235.245,239.661,244.077,248.077,252.077,253.702,259.446,264.774,267.014,268.783,274.527,276.271,278.015,279.759,284.175,286.839,291.239,292.934,296.934,303.182,305.422,307.164,313.828,318.244,320.908,323.572,327.988,331.988,333.639,337.639,345.215,347.455,349.173,354.501,358.917,361.581,363.829,368.245,372.245,376.645,378.313,383.641,388.057,392.473,394.217,398.216,402.216,403.96,407.96,409.608,414.023,418.439,422.839,424.575,426.823,431.238,435.638,437.386,442.714,447.13,451.13,455.546,458.21,462.626,464.769,466.513,470.929,475.32899999999995,477.072,481.487,483.72700000000003,485.462,491.206,495.606,497.367,500.031,502.279,504.527,507.167,508.876,513.292,517.692,519.421,525.668,530.084,534.5,536.748,541.164,542.908,545.156,549.572,551.812,553.492,557.492,559.732,561.486,567.23,571.646,573.39" svgx:width="0.67,0.5,0.55,0.55,0.55,0.5,0.5,0.55,0.72,0.67,0.28,0.55,0.72,0.22,0.22,0.22,0.55,0.33,0.55,0.55,0.5,0.78,0.28,0.55,0.83,0.55,0.33,0.33,0.55,0.5,0.55,0.5,0.95,0.28,0.55,0.67,0.55,0.33,0.28,0.55,0.5,0.55,0.55,0.67,0.55,0.55,0.22,0.5,0.5,0.22,0.5,0.55,0.55,0.55,0.55,0.55,0.28,0.55,0.55,0.55,0.67,0.55,0.5,0.55,0.33,0.55,0.28,0.22,0.55,0.55,0.55,0.55,0.28,0.55,0.72,0.55,0.55,0.33,0.28,0.28,0.33,0.55,0.55,0.55,0.55,0.78,0.55,0.55,0.28,0.55,0.22,0.28,0.55,0.28,0.55,0.5,0.28,0.55,0.72,0.55,0.22,0.33" style="fill:rgb(0,0,0);font-family:Helvetica;font-size:8.0px;stroke:none;">Schenck CV, Dillard JG, Murray JW. Surface Analysis and the Adsorption of Co (II) on Goethite. J. Col-</text>
   <text y="188.787" x="221.501,223.245,227.661,229.405,233.821,236.061,237.772,240.02,244.436,246.684,251.1,253.764,256.012,258.252,259.995,265.323,269.323,271.067,273.307,275.019,279.435,283.851,288.267,292.683,294.923,296.675,301.091,305.507,307.755,312.171,316.587,321.003,325.305,329.721,334.137,338.553" svgx:width="0.22,0.55,0.22,0.55,0.28,0.55,0.28,0.55,0.28,0.55,0.33,0.28,0.28,0.55,0.67,0.5,0.22,0.28,0.55,0.55,0.55,0.55,0.55,0.28,0.55,0.55,0.55,0.28,0.55,0.55,0.55,0.55,0.55,0.55,0.55,0.28" style="fill:rgb(0,0,0);font-family:Helvetica;font-size:8.0px;stroke:none;">loid. Interf. Sci. 1983; 95:398–409.</text>
   <text y="201.769" x="200.468,204.884,209.3" svgx:width="0.55,0.55,0.28" style="fill:rgb(0,0,0);font-family:Helvetica-Bold;font-size:8.0px;stroke:none;">27.</text>
   <text y="201.769" x="221.501,227.749,231.749,236.149,237.885,244.549,246.78900000000002,248.543,253.871,258.287,260.535,264.935,266.629,271.956,274.196,275.983,278.231,282.647,285.311,289.311,291.055,293.303,297.703,299.397,304.725,307.389,310.053,314.469,318.469,320.203,325.531,329.947,334.363,336.611,341.027,345.443,347.187,351.497,355.497,357.745,360.409,364.825,369.22499999999997,370.943,376.271,380.687,385.103,389.103,391.351,394.015,398.431,402.431,406.431,410.741,415.157,416.901,420.901,422.647,427.974,430.222,434.638,439.054,443.054,444.757,449.173,451.413,453.147,455.395,459.811,464.21099999999996,465.96,471.704,476.12,480.119,484.535,487.199,491.199,492.943,497.359,499.103,503.503,505.191,510.519,514.935,519.351,523.351,527.751,529.456,534.368,537.032,541.447,545.863,549.863,551.607,553.855,555.599,560.015" svgx:width="0.78,0.5,0.55,0.55,0.83,0.28,0.55,0.67,0.55,0.28,0.55,0.55,0.67,0.28,0.55,0.28,0.55,0.33,0.5,0.22,0.28,0.55,0.55,0.67,0.33,0.33,0.55,0.5,0.55,0.67,0.55,0.55,0.28,0.55,0.55,0.22,0.55,0.5,0.28,0.33,0.55,0.55,0.55,0.67,0.55,0.55,0.5,0.28,0.33,0.55,0.5,0.5,0.55,0.55,0.22,0.5,0.55,0.67,0.28,0.55,0.55,0.5,0.55,0.55,0.28,0.55,0.28,0.55,0.55,0.55,0.72,0.55,0.5,0.55,0.33,0.5,0.22,0.55,0.22,0.55,0.55,0.67,0.55,0.55,0.5,0.55,0.55,0.61,0.33,0.55,0.55,0.5,0.22,0.28,0.22,0.55,0.55" style="fill:rgb(0,0,0);font-family:Helvetica;font-size:8.0px;stroke:none;">Oku M, Sato Y. In-situ X-ray Photoelectron Spectroscopic Study of the Reversible Phase Transition</text>
   <text y="211.294" x="221.501,226.829,231.245,233.493,239.237,243.653,248.069,252.469,254.156,259.9,264.316,272.298,276.714,281.13,285.53,287.264,293.008" svgx:width="0.67,0.55,0.28,0.72,0.55,0.55,0.55,0.55,0.72,0.55,0.78,0.55,0.55,0.55,0.55,0.72,0.55" style="fill:rgb(0,0,0);font-family:Helvetica;font-size:8.0px;stroke:none;">Between CoOand Co</text>
  </g>
  <g begin="text">
   <text y="212.599" x="297.411" svgx:width="0.55" style="fill:rgb(0,0,0);font-family:Helvetica;font-size:5.33px;stroke:none;">3</text>
  </g>
  <g begin="text">
   <text y="211.294" x="300.699" svgx:width="0.78" style="fill:rgb(0,0,0);font-family:Helvetica;font-size:8.0px;stroke:none;">O</text>
  </g>
  <g begin="text">
   <text y="212.599" x="306.935" svgx:width="0.55" style="fill:rgb(0,0,0);font-family:Helvetica;font-size:5.33px;stroke:none;">4</text>
  </g>
  <g begin="text">
   <text y="211.294" x="311.981,313.725,318.125,319.918,326.166,330.166,334.166,338.582,342.998,347.39799999999997,349.057,353.473,355.713,357.505,361.92" svgx:width="0.22,0.55,0.55,0.78,0.5,0.5,0.55,0.55,0.55,0.55,0.55,0.28,0.55,0.55,0.55" style="fill:rgb(0,0,0);font-family:Helvetica;font-size:8.0px;stroke:none;">in Oxygen of 10</text>
  </g>
  <g begin="text">
   <text y="207.723" x="366.293" svgx:width="0.58" style="fill:rgb(0,0,0);font-family:ArialMT-Identity-H;font-size:5.33px;stroke:none;">−</text>
   <text y="207.723" x="369.797" svgx:width="0.55" style="fill:rgb(0,0,0);font-family:Helvetica;font-size:5.33px;stroke:none;">3</text>
  </g>
  <g begin="text">
   <text y="211.294" x="374.853,380.181,384.597,386.837,388.573,393.9,398.316,402.732,404.476,406.716,408.471,413.799,418.215,420.879,423.127,425.367,427.067,432.395,436.395,438.139,440.387,442.635,447.051,451.467,455.883,460.299,462.539,464.2,468.616,473.032,475.28,479.696,484.112,488.528,492.944,497.253" svgx:width="0.67,0.55,0.28,0.55,0.67,0.55,0.55,0.22,0.28,0.55,0.67,0.55,0.33,0.28,0.28,0.55,0.67,0.5,0.22,0.28,0.28,0.55,0.55,0.55,0.55,0.28,0.55,0.55,0.55,0.28,0.55,0.55,0.55,0.55,0.55,0.28" style="fill:rgb(0,0,0);font-family:Helvetica;font-size:8.0px;stroke:none;">Pa. Appl. Surf. Sci.,1992; 55:37–41.</text>
   <text y="224.277" x="200.468,204.884,209.3" svgx:width="0.55,0.55,0.28" style="fill:rgb(0,0,0);font-family:Helvetica-Bold;font-size:8.0px;stroke:none;">28.</text>
   <text y="224.277" x="221.5,227.244,231.66,236.076,240.492,244.908,249.308,250.981,255.893,259.893,262.133,263.906,269.234,271.898,276.314,280.73,285.146,286.89,291.28999999999996,292.99,298.734,304.478,306.718,308.467,314.211,315.955,319.955,324.35499999999996,326.098,331.842,339.418,341.658,343.389,345.637,350.053,352.301,356.717,359.381,363.797,366.461,370.772,373.02,377.436,379.684,381.428,385.844,390.24399999999997,391.974,396.39,398.63,400.365,402.613,407.029,411.429,413.177,418.505,421.169,426.913,431.329,435.329,437.045,442.373,446.789,451.205,453.453,457.868,462.284,468.948,470.692,474.575,478.575,480.319,484.735,489.135,490.903,496.231,500.647,505.063,509.063,511.311,513.975,518.375,520.1,524.516,526.756,528.49,534.234,538.65,543.066,547.482,549.226" svgx:width="0.72,0.55,0.55,0.55,0.55,0.55,0.55,0.61,0.5,0.28,0.55,0.67,0.33,0.55,0.55,0.55,0.22,0.55,0.55,0.72,0.72,0.28,0.55,0.72,0.22,0.5,0.55,0.55,0.72,0.95,0.28,0.55,0.28,0.55,0.28,0.55,0.33,0.55,0.33,0.55,0.28,0.55,0.28,0.22,0.55,0.55,0.55,0.55,0.28,0.55,0.28,0.55,0.55,0.55,0.67,0.33,0.72,0.55,0.5,0.55,0.67,0.55,0.55,0.28,0.55,0.55,0.83,0.22,0.5,0.5,0.22,0.55,0.55,0.55,0.67,0.55,0.55,0.5,0.28,0.33,0.55,0.55,0.55,0.28,0.55,0.72,0.55,0.55,0.55,0.22,0.28" style="fill:rgb(0,0,0);font-family:Helvetica;font-size:8.0px;stroke:none;">Chuang TJ, Brundle CR, Rice DW. Interpretation of the X-Ray Photoemission Spectra of Cobalt</text>
   <text y="233.801" x="221.5,227.748,231.748,233.492,237.908,242.324,246.324,248.033,252.449,256.865,261.265,263.0,268.744,273.16,277.576,281.991,283.735,285.975,287.661,293.909,297.909,299.653,304.069,308.469,310.224,315.552,319.968,322.632,324.88,329.296,333.184,337.6,341.6,343.84000000000003,345.6,350.928,355.344,358.008,360.256,362.496,364.252,369.58,373.58,375.324,377.572,381.988,386.404,390.82,395.236,397.476,399.117,403.533,407.949,410.197,414.613,419.029,423.445,427.861,432.17,436.586,441.001" svgx:width="0.78,0.5,0.22,0.55,0.55,0.5,0.55,0.55,0.55,0.55,0.55,0.72,0.55,0.55,0.55,0.22,0.28,0.55,0.78,0.5,0.22,0.55,0.55,0.55,0.67,0.55,0.33,0.28,0.55,0.5,0.55,0.5,0.28,0.55,0.67,0.55,0.33,0.28,0.28,0.55,0.67,0.5,0.22,0.28,0.55,0.55,0.55,0.55,0.28,0.55,0.55,0.55,0.28,0.55,0.55,0.55,0.55,0.55,0.55,0.55,0.28" style="fill:rgb(0,0,0);font-family:Helvetica;font-size:8.0px;stroke:none;">Oxides and Cobalt Oxide Surfaces. Surf. Sci.1976; 59:413–429.</text>
   <text y="246.784" x="200.468,204.884,209.3" svgx:width="0.55,0.55,0.28" style="fill:rgb(0,0,0);font-family:Helvetica-Bold;font-size:8.0px;stroke:none;">29.</text>
   <text y="246.784" x="221.5,225.916,230.332,234.748,239.164,243.58,245.324,247.084,248.769,255.433,260.761,263.00100000000003,264.701,270.028,274.444,278.86,283.276,285.94,289.94,294.356,298.756,300.473,307.137,312.881,315.121,316.857,322.601,327.017,329.681,333.681,338.097,342.49699999999996,344.184,350.431,355.759,357.999,359.717,365.045,369.461,373.877,378.277,380.012,384.428,386.668,388.403,393.731,400.395,402.139,404.387,408.787,410.513,415.841,418.081,419.867,425.195,429.611,431.355,435.771,440.187,444.187,448.497,451.161,456.488,460.904,465.32,469.71999999999997,471.457,476.785,478.529,482.945,486.945,489.193,491.857,496.273,500.689,502.433,506.433,508.081,513.409,515.657,518.32,522.736,526.736,528.984,533.4,536.064,540.4639999999999,542.21,546.626,548.866,550.6,556.344" svgx:width="0.55,0.55,0.55,0.55,0.55,0.22,0.22,0.55,0.83,0.67,0.28,0.55,0.67,0.55,0.55,0.55,0.33,0.5,0.55,0.55,0.55,0.83,0.72,0.28,0.55,0.72,0.55,0.33,0.5,0.55,0.55,0.55,0.78,0.67,0.28,0.55,0.67,0.55,0.55,0.55,0.55,0.55,0.28,0.55,0.67,0.83,0.22,0.28,0.55,0.55,0.67,0.28,0.55,0.67,0.55,0.22,0.55,0.55,0.5,0.55,0.33,0.67,0.55,0.55,0.55,0.55,0.67,0.22,0.55,0.5,0.28,0.33,0.55,0.55,0.22,0.5,0.55,0.67,0.28,0.33,0.55,0.5,0.28,0.55,0.33,0.55,0.55,0.55,0.28,0.55,0.72,0.55" style="fill:rgb(0,0,0);font-family:Helvetica;font-size:8.0px;stroke:none;">Langell MA, Anderson MD, Carson GA, Peng L, Smith S. Valence-Band Electronic Structure of Co</text>
  </g>
  <g begin="text">
   <text y="248.088" x="560.75" svgx:width="0.55" style="fill:rgb(0,0,0);font-family:Helvetica;font-size:5.33px;stroke:none;">3</text>
  </g>
  <g begin="text">
   <text y="246.784" x="564.038" svgx:width="0.78" style="fill:rgb(0,0,0);font-family:Helvetica;font-size:8.0px;stroke:none;">O</text>
  </g>
  <g begin="text">
   <text y="248.088" x="570.274" svgx:width="0.55" style="fill:rgb(0,0,0);font-family:Helvetica;font-size:5.33px;stroke:none;">4</text>
  </g>
  <g begin="text">
   <text y="256.252" x="221.499,226.827,231.243,232.987,235.235,239.651,243.651,247.651,249.335,253.751,258.151,259.936,265.68,270.096,278.022,280.686,285.102,289.518,293.934,296.597,298.837,300.585,305.913,310.329,314.329,318.329,320.569,322.242,327.986,332.402,336.402,338.642,340.383,345.743,347.47,351.886,356.302,360.717,365.133,367.373,369.07,373.486,377.902,380.15,384.566,388.982,393.398,397.814,402.122,406.538,410.954,415.37" svgx:width="0.67,0.55,0.22,0.28,0.55,0.5,0.5,0.55,0.55,0.55,0.55,0.72,0.55,0.78,0.33,0.55,0.55,0.55,0.33,0.28,0.55,0.67,0.55,0.5,0.5,0.28,0.55,0.72,0.55,0.5,0.28,0.55,0.67,0.55,0.55,0.55,0.55,0.55,0.28,0.55,0.55,0.55,0.28,0.55,0.55,0.55,0.55,0.55,0.55,0.55,0.55,0.55" style="fill:rgb(0,0,0);font-family:Helvetica;font-size:8.0px;stroke:none;">Epitaxy on CoO(100). Phys. Rev. B 1999: 59:4791–4798</text>
   <text y="269.291" x="200.467,204.883,209.299" svgx:width="0.55,0.55,0.28" style="fill:rgb(0,0,0);font-family:Helvetica-Bold;font-size:8.0px;stroke:none;">30.</text>
   <text y="269.291" x="221.499,226.411,230.827,235.227,236.976,242.304,246.304,248.544,250.299,255.627,257.371,261.787,266.203,270.619,275.035,279.326,283.726,285.505,290.833,294.833,297.07300000000004,298.828,304.156,308.572,312.988,315.652,321.396,325.812,330.122,334.522,336.302,341.63,348.294,350.542,352.782,354.5,359.828,365.156,370.516,372.188,377.516,379.764,384.18,388.596,390.34,394.755,398.755,400.478,404.894,407.134,408.868,414.196,418.612,420.356,424.356,428.772,431.02,435.436,439.83599999999996,441.523,448.187,452.603,454.851,459.267,461.027,462.726,468.054,470.302,474.718,483.078,488.822,490.566,494.566,498.982,503.398,506.062,510.062,514.478,518.8779999999999,520.609,523.273,528.601,535.265,540.593,546.234,548.874,550.657,556.401,560.817,563.065,567.48" svgx:width="0.61,0.55,0.55,0.55,0.67,0.5,0.28,0.55,0.67,0.22,0.55,0.55,0.55,0.55,0.55,0.55,0.55,0.67,0.5,0.28,0.55,0.67,0.55,0.55,0.33,0.72,0.55,0.55,0.55,0.55,0.67,0.83,0.28,0.28,0.55,0.67,0.67,0.67,0.55,0.67,0.28,0.55,0.55,0.22,0.55,0.5,0.55,0.55,0.28,0.55,0.67,0.55,0.22,0.5,0.55,0.28,0.55,0.55,0.55,0.83,0.55,0.28,0.55,0.22,0.55,0.67,0.28,0.55,0.83,0.72,0.22,0.5,0.55,0.55,0.33,0.5,0.55,0.55,0.55,0.33,0.67,0.83,0.67,0.72,0.33,0.55,0.72,0.55,0.28,0.55,0.33" style="fill:rgb(0,0,0);font-family:Helvetica;font-size:8.0px;stroke:none;">Tan BJ, Klabunde KJ, Sherwood PM,. XPS Studies of Solvated Metal AtomDispersed (SMAD) Cata-</text>
   <text y="278.759" x="221.499,223.243,227.243,231.243,233.491,237.491,239.73100000000002,241.455,246.783,250.783,252.527,256.943,261.359,265.775,269.775,274.17499999999995,275.867,278.115,282.531,285.171,286.922,291.338,295.754,299.754,304.17,306.834,311.25,315.65,317.366,323.11,327.526,331.942,336.358,338.003,340.251,342.915,349.578,353.994,358.41,362.826,367.242,371.658,376.074,379.955,384.35499999999996,386.134,391.462,395.878,398.542,400.79,402.534,406.534,408.278,412.694,416.694,418.393,422.809,427.209,428.937,434.265,436.009,440.425,447.089,448.833,453.249,457.649,459.381,463.797,468.213,472.613,474.348,479.676,481.42,483.164,484.908,488.908,493.324,495.564,497.252,501.252,503.492,505.245,510.573,517.237,519.477,521.233,526.977,531.393,535.809,542.473,544.713,546.405,551.733,556.149,560.149" svgx:width="0.22,0.5,0.5,0.28,0.5,0.28,0.55,0.67,0.5,0.22,0.55,0.55,0.55,0.5,0.55,0.55,0.28,0.55,0.33,0.55,0.55,0.55,0.5,0.55,0.33,0.55,0.55,0.55,0.72,0.55,0.55,0.55,0.22,0.28,0.33,0.83,0.55,0.55,0.55,0.55,0.55,0.55,0.5,0.55,0.55,0.67,0.55,0.33,0.28,0.22,0.5,0.22,0.55,0.5,0.55,0.55,0.55,0.55,0.67,0.22,0.55,0.83,0.22,0.55,0.55,0.55,0.55,0.55,0.55,0.55,0.67,0.22,0.22,0.22,0.5,0.55,0.28,0.55,0.5,0.28,0.55,0.67,0.83,0.28,0.55,0.72,0.55,0.55,0.83,0.28,0.55,0.67,0.55,0.5,0.28" style="fill:rgb(0,0,0);font-family:Helvetica;font-size:8.0px;stroke:none;">lysts. Evidence for Layered Cobalt-Manganese Particles on Alumina and Silica. J. Am. Chem. Soc.</text>
   <text y="288.283" x="221.499,225.915,230.331,234.747,239.163,241.40300000000002,243.099,247.515,251.931,256.347,258.595,263.011,267.427,271.843,276.151,280.566,284.982,289.398" svgx:width="0.55,0.55,0.55,0.55,0.28,0.55,0.55,0.55,0.55,0.28,0.55,0.55,0.55,0.55,0.55,0.55,0.55,0.28" style="fill:rgb(0,0,0);font-family:Helvetica;font-size:8.0px;stroke:none;">1991; 113:855–861.</text>
   <text y="301.266" x="200.467,204.883,209.299" svgx:width="0.55,0.55,0.28" style="fill:rgb(0,0,0);font-family:Helvetica-Bold;font-size:8.0px;stroke:none;">31.</text>
   <text y="301.266" x="221.499,227.243,231.659,236.059,237.769,242.185,244.425,246.216,251.96,256.376,260.792,265.19199999999995,266.91,270.91,273.15000000000003,274.903,282.479,286.895,291.311,295.71099999999996,297.41,302.738,304.978,306.765,311.676,316.092,317.852,319.52,326.184,328.42400000000004,330.179,337.755,342.155,343.898,347.898,350.13800000000003,351.892,356.804,361.22,365.636,370.052,374.452,376.156,381.484,383.724,385.511,390.423,394.839,398.839,400.583,402.327,406.727,408.414,412.414,416.414,420.83,423.078,427.494,431.91,435.91,437.654,441.654,443.337,447.753,449.993,451.728,453.975,455.719,460.135,465.879,470.295,472.959,475.623,477.367,479.111,483.111,487.51099999999997,489.201,494.945,499.361,506.025" svgx:width="0.72,0.55,0.55,0.55,0.55,0.28,0.55,0.72,0.55,0.55,0.55,0.55,0.5,0.28,0.55,0.95,0.55,0.55,0.55,0.55,0.67,0.28,0.55,0.61,0.55,0.22,0.55,0.83,0.28,0.55,0.95,0.55,0.55,0.5,0.28,0.55,0.61,0.55,0.55,0.55,0.55,0.55,0.67,0.28,0.55,0.61,0.55,0.5,0.22,0.22,0.55,0.55,0.5,0.5,0.55,0.28,0.55,0.55,0.5,0.22,0.5,0.55,0.55,0.28,0.55,0.28,0.22,0.55,0.72,0.55,0.33,0.33,0.22,0.22,0.5,0.55,0.55,0.72,0.55,0.83,0.55" style="fill:rgb(0,0,0);font-family:Helvetica;font-size:8.0px;stroke:none;">Ren L, Chen J, Wang X, Zhi M, Wu J, Zhang X. Facile synthesis of flower-like CoMn</text>
  </g>
  <g begin="text">
   <text y="302.627" x="510.406" svgx:width="0.55" style="fill:rgb(0,0,0);font-family:Helvetica;font-size:5.33px;stroke:none;">2</text>
  </g>
  <g begin="text">
   <text y="301.266" x="513.751" svgx:width="0.78" style="fill:rgb(0,0,0);font-family:Helvetica;font-size:8.0px;stroke:none;">O</text>
  </g>
  <g begin="text">
   <text y="302.627" x="519.931" svgx:width="0.55" style="fill:rgb(0,0,0);font-family:Helvetica;font-size:5.33px;stroke:none;">4</text>
  </g>
  <g begin="text">
   <text y="301.266" x="525.033,531.697,533.441,537.441,540.105,544.521,548.521,552.937,557.234,561.65,564.314,568.73" svgx:width="0.83,0.22,0.5,0.33,0.55,0.5,0.55,0.55,0.55,0.33,0.55,0.5" style="fill:rgb(0,0,0);font-family:Helvetica;font-size:8.0px;stroke:none;">microspheres</text>
   <text y="310.79" x="221.501,223.749,228.165,230.80499999999998,232.556,236.972,238.716,243.132,247.132,249.38,252.044,256.46,260.459,264.875,269.179,275.843,277.587,281.587,286.003,287.763,289.475,293.475,297.891,302.307,306.723,309.387,313.387,317.803,322.219,326.635,330.521,332.265,334.513,338.929,341.593,345.593,347.833,349.57,355.314,360.641,368.108,373.436,377.852,381.852,384.092,385.796,390.212,394.628,399.044,403.46,405.7,407.396,411.812,414.06,418.476,422.892,427.308,431.724" svgx:width="0.28,0.55,0.33,0.55,0.55,0.22,0.55,0.5,0.28,0.33,0.55,0.5,0.55,0.55,0.83,0.22,0.5,0.55,0.22,0.55,0.5,0.55,0.55,0.55,0.33,0.5,0.55,0.55,0.55,0.5,0.22,0.28,0.55,0.33,0.5,0.28,0.55,0.72,0.67,0.72,0.67,0.55,0.5,0.28,0.55,0.55,0.55,0.55,0.55,0.28,0.55,0.55,0.28,0.55,0.55,0.55,0.55,0.55" style="fill:rgb(0,0,0);font-family:Helvetica;font-size:8.0px;stroke:none;">for electrochemical supercapacitors. RSCAdv. 2015; 5:30963</text>
   <text y="323.773" x="200.468,204.884,209.3" svgx:width="0.55,0.55,0.28" style="fill:rgb(0,0,0);font-family:Helvetica-Bold;font-size:8.0px;stroke:none;">32.</text>
   <text y="323.773" x="221.501,227.245,231.661,236.077,240.477,242.194,246.194,248.434,250.188,255.932,260.348,262.108,263.851,269.179,271.419,273.148,280.724,285.14,289.556,293.95599999999996,295.655,300.983,303.223,305.009,309.921,314.337,316.097,317.822,324.486,326.726,328.423,332.839,337.255,341.255,345.671,348.335,352.751,357.167,361.56699999999995,363.289,369.953,372.193,373.948,379.276,383.692,387.692,392.107,394.747,396.455,401.783,407.111,409.351,411.081,418.657,423.05699999999996,424.801,428.801,431.041,432.794,437.706,442.122,446.538,449.202,450.946,454.946,459.362,461.61,463.354,467.66,472.06,473.84,478.256,480.496,482.23,486.646,488.39,492.806,495.47,499.886,502.55,506.55,510.966,512.71,516.71,521.126,522.886,524.58,528.996,533.412,536.076,540.492,544.908,548.908,550.545,554.545,558.961,563.377,567.792,569.536" svgx:width="0.72,0.55,0.55,0.55,0.55,0.5,0.28,0.55,0.72,0.55,0.22,0.55,0.67,0.28,0.55,0.95,0.55,0.55,0.55,0.55,0.67,0.28,0.55,0.61,0.55,0.22,0.55,0.83,0.28,0.55,0.55,0.55,0.5,0.55,0.33,0.55,0.55,0.55,0.55,0.83,0.28,0.55,0.67,0.55,0.5,0.55,0.33,0.55,0.67,0.67,0.28,0.55,0.95,0.55,0.55,0.5,0.28,0.55,0.61,0.55,0.55,0.33,0.22,0.5,0.55,0.28,0.22,0.55,0.55,0.55,0.55,0.28,0.55,0.55,0.22,0.55,0.33,0.55,0.33,0.5,0.55,0.22,0.5,0.55,0.22,0.55,0.55,0.55,0.33,0.55,0.55,0.5,0.55,0.5,0.55,0.55,0.55,0.22,0.28" style="fill:rgb(0,0,0);font-family:Helvetica;font-size:8.0px;stroke:none;">Chen J, Cui Y, Wang X, Zhi M, Lavorgna M, Baker AP, Wu J. Fabrication of hierarchical porous cobalt</text>
   <text y="333.297" x="221.501,228.165,232.581,236.997,241.413,245.828,250.244,254.552,258.552,262.952,264.701,268.701,273.117,274.861,279.277,283.693,285.453,287.151,291.567,294.231,298.647,303.063,307.479,311.895,316.311,320.71099999999996,322.414,326.83,330.83,335.246,337.91,339.654,344.054,345.771,350.187,354.603,359.019,363.435,367.851,369.595,373.891,376.139,380.555,384.555,386.307,388.555,392.971,395.611,397.362,401.778,403.522,407.938,411.938,414.186,416.85,421.266,425.265,429.681,433.985,440.649,442.393,446.393,450.809,452.569,454.281,458.281,462.697,467.113,471.529,474.193,478.193,482.609,487.025,491.441,495.326,497.07,499.318,503.734,506.398,510.398,512.638,514.376,519.703,521.447,525.863,529.863,532.111,534.775,539.092,543.092,547.508,549.252,555.916,558.1560000000001,559.899,565.227,569.227,571.475" svgx:width="0.83,0.55,0.55,0.55,0.55,0.55,0.55,0.5,0.55,0.55,0.5,0.55,0.22,0.55,0.55,0.22,0.55,0.55,0.33,0.55,0.55,0.55,0.55,0.55,0.55,0.55,0.55,0.5,0.55,0.33,0.22,0.55,0.55,0.55,0.55,0.55,0.55,0.55,0.22,0.55,0.28,0.55,0.5,0.55,0.28,0.55,0.33,0.55,0.55,0.22,0.55,0.5,0.28,0.33,0.55,0.5,0.55,0.55,0.83,0.22,0.5,0.55,0.22,0.55,0.5,0.55,0.55,0.55,0.33,0.5,0.55,0.55,0.55,0.5,0.22,0.28,0.55,0.33,0.5,0.28,0.55,0.67,0.22,0.55,0.5,0.28,0.33,0.55,0.5,0.55,0.22,0.83,0.28,0.55,0.67,0.5,0.28,0.55" style="fill:rgb(0,0,0);font-family:Helvetica;font-size:8.0px;stroke:none;">manganese spinel graphene hybrid nanoplates for electrochemical supercapacitors. Electrochim. Acta</text>
   <text y="342.765" x="221.501,225.917,230.333,234.749,239.165,241.405,243.101,247.516,251.932,256.348,258.596,263.012,267.428,271.844,276.153,280.569,284.985" svgx:width="0.55,0.55,0.55,0.55,0.28,0.55,0.55,0.55,0.55,0.28,0.55,0.55,0.55,0.55,0.55,0.55,0.55" style="fill:rgb(0,0,0);font-family:Helvetica;font-size:8.0px;stroke:none;">2016; 188:704–709</text>
   <text y="355.804" x="200.468,204.884,209.3" svgx:width="0.55,0.55,0.28" style="fill:rgb(0,0,0);font-family:Helvetica-Bold;font-size:8.0px;stroke:none;">33.</text>
   <text y="355.804" x="221.501,225.917,227.677,229.382,233.381,235.621,237.375,242.703,244.447,248.863,253.279,257.679,259.428,264.756,266.996,268.726,273.142,274.902,276.663,281.99,284.23,285.961,292.209,293.953,298.369,302.769,304.499,309.827,312.067,313.853,319.213,320.884,325.795,330.211,334.211,335.955,337.699,342.099,343.844,349.588,354.004,358.42,360.668,365.068,366.805,369.053,373.453,375.195,380.523,384.523,388.939,391.187,395.603,400.019,404.019,405.763,409.664,414.06399999999996,415.843,422.507,426.923,428.667,430.915,432.659,437.075,441.491,444.155,448.571,452.863,456.863,458.647,465.311,469.727,475.47" svgx:width="0.55,0.22,0.55,0.5,0.28,0.55,0.67,0.22,0.55,0.55,0.55,0.55,0.67,0.28,0.55,0.55,0.22,0.55,0.67,0.28,0.55,0.78,0.22,0.55,0.55,0.55,0.67,0.28,0.55,0.67,0.55,0.61,0.55,0.5,0.22,0.22,0.55,0.55,0.72,0.55,0.55,0.28,0.55,0.55,0.28,0.55,0.55,0.67,0.5,0.55,0.28,0.55,0.55,0.5,0.22,0.5,0.55,0.55,0.83,0.55,0.22,0.28,0.22,0.55,0.55,0.33,0.55,0.55,0.5,0.55,0.83,0.55,0.72,0.55" style="fill:rgb(0,0,0);font-family:Helvetica;font-size:8.0px;stroke:none;">Li J, Xiong S, Li X, Qian Y. A Facile Route to Synthesize Multiporous MnCo</text>
  </g>
  <g begin="text">
   <text y="357.109" x="479.792" svgx:width="0.55" style="fill:rgb(0,0,0);font-family:Helvetica;font-size:5.33px;stroke:none;">2</text>
  </g>
  <g begin="text">
   <text y="355.805" x="483.137" svgx:width="0.78" style="fill:rgb(0,0,0);font-family:Helvetica;font-size:8.0px;stroke:none;">O</text>
  </g>
  <g begin="text">
   <text y="357.109" x="489.373" svgx:width="0.55" style="fill:rgb(0,0,0);font-family:Helvetica;font-size:5.33px;stroke:none;">4</text>
  </g>
  <g begin="text">
   <text y="355.805" x="494.419,498.835,503.251,507.65099999999995,509.385,515.129,519.545,526.209" svgx:width="0.55,0.55,0.55,0.55,0.72,0.55,0.83,0.55" style="fill:rgb(0,0,0);font-family:Helvetica;font-size:8.0px;stroke:none;">and CoMn</text>
  </g>
  <g begin="text">
   <text y="357.109" x="530.589" svgx:width="0.55" style="fill:rgb(0,0,0);font-family:Helvetica;font-size:5.33px;stroke:none;">2</text>
  </g>
  <g begin="text">
   <text y="355.805" x="533.877" svgx:width="0.78" style="fill:rgb(0,0,0);font-family:Helvetica;font-size:8.0px;stroke:none;">O</text>
  </g>
  <g begin="text">
   <text y="357.109" x="540.113" svgx:width="0.55" style="fill:rgb(0,0,0);font-family:Helvetica;font-size:5.33px;stroke:none;">4</text>
  </g>
  <g begin="text">
   <text y="355.805" x="545.159,550.487,554.903,556.647,561.063,565.479" svgx:width="0.67,0.55,0.22,0.55,0.55,0.22" style="fill:rgb(0,0,0);font-family:Helvetica;font-size:8.0px;stroke:none;">Spinel</text>
   <text y="365.272" x="221.501,227.749,232.165,236.581,240.581,242.325,244.989,250.733,255.149,256.893,258.637,262.943,270.426,275.754,280.17,284.586,289.002,291.666,296.082,300.082,301.778,307.522,309.266,311.514,315.914,317.651,319.899,326.563,330.979,333.643,338.059,342.059,346.475,350.875,352.574,356.99,358.734,360.982,365.398,367.142,371.558,379.9,385.228,387.476,391.892,394.556,398.972,403.388,407.78799999999995,409.494,414.821,417.485,421.901,426.317,430.733,433.397,435.645,437.389,441.805,445.805,448.045,449.746,455.49,459.906,464.322,468.738,472.738,476.618,481.034,482.778,487.178,488.921,493.336,497.752,502.168,506.584,508.824,510.577,514.993,517.241,521.657,526.073,530.489,534.905,539.206,543.622,548.038,552.454,556.87,559.11,560.806,565.222,569.638,571.382" svgx:width="0.78,0.55,0.55,0.5,0.22,0.33,0.72,0.55,0.22,0.22,0.55,0.72,0.67,0.55,0.55,0.55,0.33,0.55,0.5,0.55,0.72,0.22,0.28,0.55,0.55,0.28,0.83,0.55,0.33,0.55,0.5,0.55,0.55,0.55,0.55,0.22,0.28,0.55,0.22,0.55,0.83,0.67,0.28,0.55,0.33,0.55,0.55,0.55,0.55,0.67,0.33,0.55,0.55,0.55,0.33,0.28,0.22,0.55,0.5,0.28,0.55,0.72,0.55,0.55,0.55,0.5,0.5,0.55,0.22,0.55,0.55,0.55,0.55,0.55,0.55,0.28,0.55,0.55,0.28,0.55,0.55,0.55,0.55,0.55,0.55,0.55,0.55,0.55,0.28,0.55,0.55,0.55,0.22,0.28" style="fill:rgb(0,0,0);font-family:Helvetica;font-size:8.0px;stroke:none;">Quasi-HollowSpheres with Improved LithiumStorage Properties. Nanoscale 2013; 5:2045–2054. doi:</text>
   <text y="374.797" x="221.501,225.917,230.333,232.581,236.997,241.413,245.829,250.245,252.493,256.367,260.783,265.199,267.863,272.279,276.695,281.111,285.527,289.943" svgx:width="0.55,0.55,0.28,0.55,0.55,0.55,0.55,0.28,0.5,0.55,0.55,0.33,0.55,0.55,0.55,0.55,0.55,0.22" style="fill:rgb(59,90,166);font-family:Helvetica;font-size:8.0px;stroke:none;">10.1039/c2nr33576j</text>
   <text y="374.797" x="293.387,298.715,305.379,307.627,313.371" svgx:width="0.67,0.83,0.28,0.72,0.28" style="fill:rgb(0,0,0);font-family:Helvetica;font-size:8.0px;stroke:none;">PMID:</text>
   <text y="374.797" x="317.311,321.727,326.143,330.559,334.975,339.391,343.807,348.223" svgx:width="0.55,0.55,0.55,0.55,0.55,0.55,0.55,0.55" style="fill:rgb(59,90,166);font-family:Helvetica;font-size:8.0px;stroke:none;">23370041</text>
   <text y="387.779" x="200.468,204.884,209.3" svgx:width="0.55,0.55,0.28" style="fill:rgb(0,0,0);font-family:Helvetica-Bold;font-size:8.0px;stroke:none;">34.</text>
   <text y="387.779" x="221.501,226.829,231.245,235.661,238.325,244.989,249.389,251.095,256.423,258.663,260.392,265.72,270.136,274.552,277.216,283.88,288.28,289.985,295.729,297.969,299.737,305.065,309.481,313.897,318.313,322.71299999999997,324.399,330.143,334.558,338.95799999999997,340.726,346.974,352.301,354.541,356.26,362.004,366.42,370.836,376.58,380.995,385.411,388.075,389.835,391.523,396.85,399.09000000000003,400.82,406.564,410.98,415.396,419.812,424.228,428.644,433.06,436.933,441.33299999999997,443.112,448.024,452.44,458.184" svgx:width="0.67,0.55,0.55,0.33,0.83,0.55,0.55,0.67,0.28,0.55,0.67,0.55,0.55,0.33,0.83,0.55,0.55,0.72,0.28,0.55,0.67,0.55,0.55,0.55,0.55,0.55,0.72,0.55,0.55,0.55,0.78,0.67,0.28,0.55,0.72,0.55,0.55,0.72,0.55,0.55,0.33,0.22,0.55,0.67,0.28,0.55,0.72,0.55,0.55,0.55,0.55,0.55,0.55,0.5,0.55,0.55,0.61,0.55,0.72,0.55" style="fill:rgb(0,0,0);font-family:Helvetica;font-size:8.0px;stroke:none;">Sharma Y, Sharma N, Subba Rao GV, Chowdari B. Nanophase ZnCo</text>
  </g>
  <g begin="text">
   <text y="389.14" x="462.557" svgx:width="0.55" style="fill:rgb(0,0,0);font-family:Helvetica;font-size:5.33px;stroke:none;">2</text>
  </g>
  <g begin="text">
   <text y="387.78" x="465.846" svgx:width="0.78" style="fill:rgb(0,0,0);font-family:Helvetica;font-size:8.0px;stroke:none;">O</text>
  </g>
  <g begin="text">
   <text y="389.14" x="472.082" svgx:width="0.55" style="fill:rgb(0,0,0);font-family:Helvetica;font-size:5.33px;stroke:none;">4</text>
  </g>
  <g begin="text">
   <text y="387.78" x="477.184,481.6,485.6,487.332,491.73199999999997,493.454,499.198,500.942,505.358,509.758,511.54,516.868,521.284,523.948,526.196,530.612,533.276,539.829,544.245,548.661,552.661" svgx:width="0.55,0.5,0.55,0.55,0.55,0.72,0.22,0.55,0.55,0.55,0.67,0.55,0.33,0.28,0.55,0.33,0.83,0.55,0.55,0.5,0.55" style="fill:rgb(0,0,0);font-family:Helvetica;font-size:8.0px;stroke:none;">as a High Performance</text>
   <text y="397.303" x="221.501,226.829,231.245,235.661,240.077,244.477,246.162,252.826,257.242,259.49,263.906,266.57,268.314,272.73,274.49,276.209,278.457,282.873,285.513,287.264,291.68,293.424,296.088,298.336,302.752,307.152,308.864,314.192,318.608,320.856,323.104,327.52,330.184,331.928,336.344,340.344,342.584,344.297,349.625,354.041,358.041,360.281,361.985,366.897,371.313,375.729,379.729,381.977,384.217,385.909,392.573,396.989,399.237,403.653,406.317,408.557,410.287,414.703,419.119,423.535,427.951,430.19100000000003,431.887,436.303,440.719,442.967,447.383,451.799,456.215,460.631,464.939,469.355,473.771,478.187,482.603" svgx:width="0.67,0.55,0.55,0.55,0.55,0.55,0.83,0.55,0.28,0.55,0.33,0.22,0.55,0.22,0.55,0.28,0.55,0.33,0.55,0.55,0.22,0.33,0.28,0.55,0.55,0.55,0.67,0.55,0.28,0.28,0.55,0.33,0.22,0.55,0.5,0.28,0.55,0.67,0.55,0.5,0.28,0.55,0.61,0.55,0.55,0.5,0.28,0.28,0.55,0.83,0.55,0.28,0.55,0.33,0.28,0.55,0.55,0.55,0.55,0.55,0.28,0.55,0.55,0.55,0.28,0.55,0.55,0.55,0.55,0.55,0.55,0.55,0.55,0.55,0.28" style="fill:rgb(0,0,0);font-family:Helvetica;font-size:8.0px;stroke:none;">Anode Material for Li-Ion Batteries. Adv. Funct. Mater. 2007: 17;2855–2861.</text>
   <text y="410.287" x="200.468,204.884,209.3" svgx:width="0.55,0.55,0.28" style="fill:rgb(0,0,0);font-family:Helvetica-Bold;font-size:8.0px;stroke:none;">35.</text>
   <text y="410.287" x="221.501,226.413,230.829,235.245,239.645,241.343,246.671,248.911,250.697,255.609,260.025,264.441,268.84099999999995,270.54,275.452,277.692,279.44,284.768,289.16799999999995,290.949,295.861,298.101,299.85,305.178,309.594,314.01,318.40999999999997,320.146,326.394,328.634,330.351,335.263,337.007,341.423,347.167,351.583,354.247,356.911,359.159,363.574,366.238,371.566,375.875,378.123,382.539,384.299,386.023,391.351,393.599,396.263,400.679,404.679,406.927,411.343,414.007,418.423,420.183,421.853,427.597,432.013,436.429,440.429,444.845,447.509,451.509,453.147,457.563,461.96299999999997,463.748,468.164,472.58,476.97999999999996,478.715,484.043,488.459,492.874,497.29,501.706,505.706,510.009,514.409,516.189,518.437,522.852,525.1,529.516,532.18,534.428,538.844,542.844,544.588,548.9,550.66,552.415,557.743,559.991,564.407,567.071" svgx:width="0.61,0.55,0.55,0.55,0.55,0.67,0.28,0.55,0.61,0.55,0.55,0.55,0.55,0.61,0.28,0.55,0.67,0.55,0.55,0.61,0.28,0.55,0.67,0.55,0.55,0.55,0.55,0.78,0.28,0.55,0.61,0.22,0.55,0.72,0.55,0.33,0.33,0.28,0.55,0.33,0.67,0.55,0.28,0.55,0.22,0.55,0.67,0.28,0.33,0.55,0.5,0.28,0.55,0.33,0.55,0.22,0.55,0.72,0.55,0.55,0.5,0.55,0.33,0.5,0.22,0.55,0.55,0.55,0.55,0.55,0.55,0.55,0.67,0.55,0.55,0.55,0.55,0.5,0.55,0.55,0.55,0.28,0.55,0.28,0.55,0.33,0.28,0.55,0.5,0.22,0.55,0.22,0.55,0.67,0.28,0.55,0.33,0.33" style="fill:rgb(0,0,0);font-family:Helvetica;font-size:8.0px;stroke:none;">Zhao S, Feng F, Yu F, Shen Q. Flower-to-Petal Structural Conversion and Enhanced Interfacial Stor-</text>
   <text y="419.754" x="221.501,225.917,230.333,234.733,236.467,242.211,246.627,251.043,255.459,259.875,261.619,263.363,265.107,267.355,271.355,273.035,277.451,279.69100000000003,281.425,287.169,291.169,295.585,298.249,302.665,304.913,309.329,313.745,316.409,323.073,327.489,329.104,330.848,334.848,336.587,342.331,344.995,348.995,352.995,355.243,359.659,361.403,363.146,364.89,368.89,373.306,377.70599999999996,379.389,386.053,390.469,396.213" svgx:width="0.55,0.55,0.55,0.55,0.72,0.55,0.55,0.55,0.55,0.22,0.22,0.22,0.28,0.5,0.55,0.55,0.28,0.55,0.72,0.5,0.55,0.33,0.55,0.28,0.55,0.55,0.33,0.83,0.55,0.22,0.22,0.5,0.55,0.72,0.33,0.5,0.5,0.28,0.55,0.22,0.22,0.22,0.5,0.55,0.55,0.55,0.83,0.55,0.72,0.78" style="fill:rgb(0,0,0);font-family:Helvetica;font-size:8.0px;stroke:none;">age Capability of Hydrothermally Crystallized MnCO</text>
  </g>
  <g begin="text">
   <text y="421.115" x="402.406" svgx:width="0.55" style="fill:rgb(0,0,0);font-family:Helvetica;font-size:5.33px;stroke:none;">3</text>
  </g>
  <g begin="text">
   <text y="419.754" x="407.509,411.509,413.253,417.65299999999996,419.357,421.605,426.021,430.421,432.17,434.418,438.834,441.498,445.498,447.242,449.49,453.89,455.64,462.304,464.048,468.048,469.792,474.208,478.608,480.301,484.717,486.957,488.748,494.996,497.66,502.076,506.492,510.908,515.324,519.74,524.14,525.769,532.017,536.017,537.761,542.177,546.592,548.832,550.544,554.544" svgx:width="0.5,0.22,0.55,0.55,0.28,0.55,0.55,0.55,0.28,0.55,0.33,0.5,0.22,0.28,0.55,0.55,0.83,0.22,0.5,0.22,0.55,0.55,0.55,0.55,0.28,0.55,0.78,0.33,0.55,0.55,0.55,0.55,0.55,0.55,0.55,0.78,0.5,0.22,0.55,0.55,0.28,0.55,0.5,0.28" style="fill:rgb(0,0,0);font-family:Helvetica;font-size:8.0px;stroke:none;">via the In-situ Mixing of Graphene Oxide. J.</text>
   <text y="429.278" x="221.501,228.164,232.58,234.828,239.244,241.908,244.148,245.879,251.623,256.039,260.454,267.118,269.358,271.049,276.409,278.137,282.553,286.969,291.384,295.8,298.04,299.736,304.152,306.4,310.816,315.232,319.648,324.064,328.366,332.782,337.198,341.614,346.03,350.446,354.862" svgx:width="0.83,0.55,0.28,0.55,0.33,0.28,0.55,0.72,0.55,0.55,0.83,0.28,0.55,0.67,0.55,0.55,0.55,0.55,0.55,0.28,0.55,0.55,0.28,0.55,0.55,0.55,0.55,0.55,0.55,0.55,0.55,0.55,0.55,0.55,0.28" style="fill:rgb(0,0,0);font-family:Helvetica;font-size:8.0px;stroke:none;">Mater. Chem. A 2015; 3:24095–24102.</text>
   <text y="442.261" x="200.467,204.883,209.299" svgx:width="0.55,0.55,0.28" style="fill:rgb(0,0,0);font-family:Helvetica-Bold;font-size:8.0px;stroke:none;">36.</text>
   <text y="442.261" x="221.501,227.748,232.164,236.564,238.281,244.945,247.185,248.939,254.683,259.099,260.859,262.602,267.93,270.17,271.9,279.476,283.892,288.308,292.70799999999997,294.407,300.151,302.391,304.159,311.735,316.151,320.566,324.96599999999995,326.666,331.578,333.818,335.623,341.367,345.783,350.199,354.599,356.316,363.892,366.132,367.881,374.129,376.793,381.209,385.625,390.041,394.457,398.873,403.144,405.808,413.384,416.048,420.464,424.88,429.296,433.711,438.111,439.823,446.487,450.903,454.903,459.319,463.735,468.151,470.815,475.231,479.508,483.508,485.291,491.955,496.371,502.115" svgx:width="0.78,0.55,0.55,0.55,0.83,0.28,0.55,0.72,0.55,0.22,0.55,0.67,0.28,0.55,0.95,0.55,0.55,0.55,0.55,0.72,0.28,0.55,0.95,0.55,0.55,0.55,0.55,0.61,0.28,0.55,0.72,0.55,0.55,0.55,0.55,0.95,0.28,0.55,0.78,0.33,0.55,0.55,0.55,0.55,0.55,0.55,0.33,0.95,0.33,0.55,0.55,0.55,0.55,0.55,0.55,0.83,0.55,0.5,0.55,0.55,0.55,0.33,0.55,0.55,0.5,0.55,0.83,0.55,0.72,0.78" style="fill:rgb(0,0,0);font-family:Helvetica;font-size:8.0px;stroke:none;">Gao M, Cui X, Wang R, Wang T, Chen W. Graphene-Wrapped Mesoporous MnCO</text>
  </g>
  <g begin="text">
   <text y="443.622" x="508.252" svgx:width="0.55" style="fill:rgb(0,0,0);font-family:Helvetica;font-size:5.33px;stroke:none;">3</text>
  </g>
  <g begin="text">
   <text y="442.262" x="513.354,518.682,520.426,524.842,529.258,531.002,535.4019999999999,537.108,542.852,545.516,549.516,553.516,555.764,560.18,561.924" svgx:width="0.67,0.22,0.55,0.55,0.22,0.55,0.55,0.72,0.33,0.5,0.5,0.28,0.55,0.22,0.5" style="fill:rgb(0,0,0);font-family:Helvetica;font-size:8.0px;stroke:none;">Single Crystals</text>
   <text y="451.785" x="221.501,226.829,230.829,235.245,237.493,241.909,246.325,250.325,252.069,255.97,260.386,264.786,266.515,270.931,274.931,276.663,281.063,282.842,288.586,292.586,297.002,301.418,308.082,309.826,313.826,315.498,320.409,322.154,326.569,330.985,333.233,334.977,339.393,343.79299999999995,345.544,350.872,352.616,357.032,361.032,363.28,365.944,370.262,374.678,379.094,383.51,387.926,391.926,393.67,395.918,397.662,402.078,406.47799999999995,408.19,414.854,419.27,421.518,425.934,430.35,434.75,436.422,438.67,443.086,445.726,447.478,453.221,454.965,459.381,463.78099999999995,465.506,470.834,475.25,477.914,480.162,484.578,487.242,493.906,498.322,502.64,506.64,511.03999999999996,512.788,517.204,518.948,521.196,525.612,527.356,531.772,538.436,541.1,543.347,547.763,552.163,553.889,559.217,561.465,565.881,568.545" svgx:width="0.67,0.5,0.55,0.28,0.55,0.55,0.5,0.22,0.5,0.55,0.55,0.55,0.55,0.5,0.55,0.55,0.55,0.72,0.5,0.55,0.55,0.83,0.22,0.5,0.55,0.61,0.22,0.55,0.55,0.28,0.22,0.55,0.55,0.55,0.67,0.22,0.55,0.5,0.28,0.33,0.55,0.55,0.55,0.55,0.55,0.5,0.22,0.28,0.22,0.55,0.55,0.55,0.83,0.55,0.28,0.55,0.55,0.55,0.55,0.28,0.55,0.33,0.55,0.72,0.22,0.55,0.55,0.55,0.67,0.55,0.33,0.28,0.55,0.33,0.83,0.55,0.55,0.5,0.55,0.55,0.55,0.22,0.28,0.55,0.22,0.55,0.83,0.33,0.28,0.55,0.55,0.55,0.67,0.28,0.55,0.33,0.33" style="fill:rgb(0,0,0);font-family:Helvetica;font-size:8.0px;stroke:none;">Synthesized by a Dynamic Floating Electrodeposition Method for High Performance Lithium-Ion Stor-</text>
   <text y="461.253" x="221.501,225.917,230.333,234.749,236.989,238.735,242.735,244.97500000000002,246.729,253.393,257.809,260.057,264.473,267.137,269.377,271.05,276.794,281.21,285.626,292.29,294.53000000000003,296.222,301.582,303.308,307.724,312.14,316.556,320.972,323.212,324.909,329.325,331.573,335.988,340.404,344.82,349.236,353.652,358.068,362.484,366.9,371.316,375.591" svgx:width="0.55,0.55,0.55,0.28,0.55,0.5,0.28,0.55,0.83,0.55,0.28,0.55,0.33,0.28,0.55,0.72,0.55,0.55,0.83,0.28,0.55,0.67,0.55,0.55,0.55,0.55,0.55,0.28,0.55,0.55,0.28,0.55,0.55,0.55,0.55,0.55,0.55,0.55,0.55,0.55,0.55,0.55" style="fill:rgb(0,0,0);font-family:Helvetica;font-size:8.0px;stroke:none;">age. J. Mater. Chem. A 2015; 3:14126–14133</text>
   <text y="474.292" x="200.468,204.884,209.3" svgx:width="0.55,0.55,0.28" style="fill:rgb(0,0,0);font-family:Helvetica-Bold;font-size:8.0px;stroke:none;">37.</text>
   <text y="474.292" x="221.501,226.829,231.245,235.661,240.061,241.797,249.373,251.613,253.362,258.69,263.09,264.814,270.558,272.798,274.565,278.981,280.741,282.445,290.021,292.261,294.011,298.923,303.339,307.754,312.17,316.57,318.275,323.187,325.427,327.233,332.561,336.977,341.392,345.792,347.472,352.8,355.04,356.827,362.571,366.971,368.675,373.587,381.163,383.403,385.173,389.589,394.005,398.405,400.14,405.884,411.212,413.452,415.163,420.907,425.323,429.739,434.154,438.154,440.402,443.066,447.482,451.482,453.73,458.023,460.687,465.103,469.503,471.288,476.616,481.032,483.696,488.112,492.528,496.528,498.218,504.882,509.298,513.714,518.129,522.545,526.847,531.263,535.263,539.663,541.417,547.161,551.577,554.241,558.657,563.073,567.489" svgx:width="0.67,0.55,0.55,0.55,0.55,0.95,0.28,0.55,0.67,0.55,0.55,0.72,0.28,0.55,0.55,0.22,0.55,0.95,0.28,0.55,0.61,0.55,0.55,0.55,0.55,0.55,0.61,0.28,0.55,0.67,0.55,0.55,0.55,0.55,0.67,0.28,0.55,0.72,0.55,0.55,0.61,0.95,0.28,0.55,0.55,0.55,0.55,0.55,0.72,0.67,0.28,0.55,0.72,0.55,0.55,0.55,0.5,0.28,0.33,0.55,0.5,0.28,0.55,0.33,0.55,0.55,0.55,0.67,0.55,0.33,0.55,0.55,0.5,0.55,0.83,0.55,0.55,0.55,0.55,0.55,0.55,0.5,0.55,0.55,0.72,0.55,0.33,0.55,0.55,0.55,0.33" style="fill:rgb(0,0,0);font-family:Helvetica;font-size:8.0px;stroke:none;">Kang W, Yu D, Li W, Zhang Z, Yang X, Ng TW, Lee CS. Nanostructured Porous Manganese Carbon-</text>
   <text y="483.76" x="221.501,225.917,228.165,232.565,234.314,239.642,244.058,248.474,252.889,255.553,259.969,263.969,265.665,271.409,273.152,275.4,279.79999999999995,281.539,287.283,291.699,296.115,300.531,304.53,306.274,308.41,310.154,314.154,318.554,320.316,325.644,327.892,330.14,334.556,338.556,340.804,344.804,346.508,350.924,355.32399999999996,357.053,359.301,363.717,368.11699999999996,369.866,375.61,377.354,381.77,386.16999999999996,387.95,392.366,394.11,396.358,400.774,402.518,406.934,415.276,420.604,422.852,427.268,429.932,434.348,438.764,443.164,444.87,450.614,455.03,459.446,463.862,468.278,470.022,471.766,473.51,475.758,479.758,481.998,483.647,489.391,493.807,498.223,502.639,506.639,510.639,515.055,516.799,521.199,522.878,527.294,531.71,536.126,540.542" svgx:width="0.55,0.28,0.55,0.55,0.67,0.55,0.55,0.55,0.33,0.55,0.5,0.55,0.72,0.22,0.28,0.55,0.55,0.72,0.55,0.55,0.55,0.5,0.22,0.28,0.22,0.5,0.55,0.55,0.67,0.28,0.28,0.55,0.5,0.28,0.5,0.55,0.55,0.55,0.55,0.28,0.55,0.55,0.55,0.72,0.22,0.55,0.55,0.55,0.55,0.22,0.28,0.55,0.22,0.55,0.83,0.67,0.28,0.55,0.33,0.55,0.55,0.55,0.55,0.72,0.55,0.55,0.55,0.55,0.22,0.22,0.22,0.28,0.5,0.28,0.55,0.72,0.55,0.55,0.55,0.5,0.5,0.55,0.22,0.55,0.55,0.55,0.55,0.55,0.55,0.28" style="fill:rgb(0,0,0);font-family:Helvetica;font-size:8.0px;stroke:none;">ate Spheres with Capacitive Effects on the High LithiumStorage Capability. Nanoscale 2015;</text>
   <text y="493.285" x="221.501,225.917,228.165,232.581,236.997,241.413,245.829,250.245,254.553,258.969,263.385,267.801,272.216,276.632,278.872,280.575,284.991,289.407,291.151" svgx:width="0.55,0.28,0.55,0.55,0.55,0.55,0.55,0.55,0.55,0.55,0.55,0.55,0.55,0.28,0.55,0.55,0.55,0.22,0.28" style="fill:rgb(0,0,0);font-family:Helvetica;font-size:8.0px;stroke:none;">7:10146–10151. doi:</text>
   <text y="493.285" x="295.145,299.561,303.977,306.225,310.641,315.057,319.473,323.774,326.022,330.022,334.438,338.854,341.518,345.934,350.35,354.766,359.182,363.598" svgx:width="0.55,0.55,0.28,0.55,0.55,0.55,0.55,0.28,0.5,0.55,0.55,0.33,0.55,0.55,0.55,0.55,0.55,0.55" style="fill:rgb(59,90,166);font-family:Helvetica;font-size:8.0px;stroke:none;">10.1039/c5nr01843a</text>
   <text y="493.285" x="369.638,374.966,381.63,383.878,389.622" svgx:width="0.67,0.83,0.28,0.72,0.28" style="fill:rgb(0,0,0);font-family:Helvetica;font-size:8.0px;stroke:none;">PMID:</text>
   <text y="493.285" x="393.62,398.036,402.452,406.868,411.284,415.7,420.115,424.404" svgx:width="0.55,0.55,0.55,0.55,0.55,0.55,0.55,0.55" style="fill:rgb(59,90,166);font-family:Helvetica;font-size:8.0px;stroke:none;">25986052</text>
   <text y="506.267" x="200.468,204.884,209.3" svgx:width="0.55,0.55,0.28" style="fill:rgb(0,0,0);font-family:Helvetica-Bold;font-size:8.0px;stroke:none;">38.</text>
   <text y="506.267" x="221.501,227.245,231.661,236.077,238.741,240.989,245.405,247.165,248.826,253.738,260.402,262.642,264.417,270.161,274.577,278.993,282.993,287.409,291.80899999999997,293.5,299.244,301.48400000000004,303.195,308.523,312.939,317.355,320.019,324.435,328.851,333.267,337.683,342.099,346.49899999999997,348.152,353.48,355.72,357.507,363.251,367.667,371.666,373.41,377.826,381.826,386.137,390.537,392.316,394.564,398.564,400.80400000000003,402.521,408.264,410.008,414.424,418.82399999999996,420.606,426.35,430.766,435.182,439.598,443.598,445.342,447.478,451.478,453.261,458.589,463.005,467.42,471.836,476.236,477.922,484.586,489.002,491.25,495.666,498.33,500.074,504.49,506.234,510.234,511.938,514.185,518.601,521.241,522.992,527.408,529.152,531.816,534.064,538.48,542.88,544.591,549.919,554.335,556.583,558.831,563.247,565.911,567.655,572.071" svgx:width="0.72,0.55,0.55,0.33,0.28,0.55,0.22,0.55,0.61,0.83,0.28,0.55,0.72,0.55,0.55,0.5,0.55,0.55,0.55,0.72,0.28,0.55,0.67,0.55,0.55,0.33,0.55,0.55,0.55,0.55,0.55,0.55,0.55,0.67,0.28,0.55,0.72,0.55,0.5,0.22,0.55,0.5,0.55,0.55,0.55,0.28,0.5,0.28,0.55,0.72,0.22,0.55,0.55,0.55,0.72,0.55,0.55,0.55,0.5,0.22,0.28,0.5,0.55,0.67,0.55,0.55,0.55,0.55,0.55,0.83,0.55,0.28,0.55,0.33,0.22,0.55,0.22,0.5,0.55,0.28,0.55,0.33,0.55,0.55,0.22,0.33,0.28,0.55,0.55,0.55,0.67,0.55,0.28,0.28,0.55,0.33,0.22,0.55,0.5" style="fill:rgb(0,0,0);font-family:Helvetica;font-size:8.0px;stroke:none;">Courtel FM, Duncan H, Abu-Lebdeh Y, Davidson IJ. High Capacity Anode Materials for Li-Ion Batteries</text>
   <text y="515.792" x="221.501,226.829,231.245,235.245,239.661,244.061,245.766,250.182,254.582,256.367,261.695,266.111,267.855,272.271,276.687,278.447,280.121,286.785,291.201,293.449,297.865,299.625,301.324,307.572,311.572,313.316,317.732,322.148,326.148,327.8,333.128,339.792" svgx:width="0.67,0.55,0.5,0.55,0.55,0.55,0.55,0.55,0.55,0.67,0.55,0.22,0.55,0.55,0.22,0.55,0.83,0.55,0.28,0.55,0.22,0.55,0.78,0.5,0.22,0.55,0.55,0.5,0.55,0.67,0.83,0.55" style="fill:rgb(0,0,0);font-family:Helvetica;font-size:8.0px;stroke:none;">Based on Spinel Metal Oxides AMn</text>
  </g>
  <g begin="text">
   <text y="517.096" x="344.183" svgx:width="0.55" style="fill:rgb(0,0,0);font-family:Helvetica;font-size:5.33px;stroke:none;">2</text>
  </g>
  <g begin="text">
   <text y="515.792" x="347.471" svgx:width="0.78" style="fill:rgb(0,0,0);font-family:Helvetica;font-size:8.0px;stroke:none;">O</text>
  </g>
  <g begin="text">
   <text y="517.096" x="353.707" svgx:width="0.55" style="fill:rgb(0,0,0);font-family:Helvetica;font-size:5.33px;stroke:none;">4</text>
  </g>
  <g begin="text">
   <text y="515.792" x="358.809,361.473,366.833,368.504,373.144,374.967,380.711,385.127,387.367,389.083,394.827,396.571,398.81100000000004,400.534,404.95,409.366,413.76599999999996,415.501,420.413,424.829,427.493,429.733,431.489,435.489,437.729,439.483,446.147,450.563,452.811,457.227,459.891,462.13100000000003,463.86,469.604,474.02,478.436,485.1,487.34000000000003,489.032,493.448,497.864,502.28,506.696,508.93600000000004,510.632,515.048,519.464,521.712,526.128,530.544,534.96,539.376,543.684,548.1,552.516,556.932,561.348,565.764,570.18" svgx:width="0.33,0.67,0.55,0.58,0.55,0.72,0.55,0.28,0.55,0.72,0.22,0.28,0.55,0.55,0.55,0.55,0.55,0.61,0.55,0.33,0.28,0.55,0.5,0.28,0.55,0.83,0.55,0.28,0.55,0.33,0.28,0.55,0.72,0.55,0.55,0.83,0.28,0.55,0.55,0.55,0.55,0.55,0.28,0.55,0.55,0.55,0.28,0.55,0.55,0.55,0.55,0.55,0.55,0.55,0.55,0.55,0.55,0.55,0.28" style="fill:rgb(0,0,0);font-family:Helvetica;font-size:8.0px;stroke:none;">(A = Co, Ni, and Zn). J. Mater. Chem. 2011; 21:10206–10218.</text>
   <text y="528.774" x="200.467,204.883,209.299" svgx:width="0.55,0.55,0.28" style="fill:rgb(0,0,0);font-family:Helvetica-Bold;font-size:8.0px;stroke:none;">39.</text>
   <text y="528.774" x="221.5,227.244,231.66,236.076,240.492,244.892,246.615,252.863,255.103,256.819,261.731,266.147,270.563,274.979,279.37899999999996,281.084,285.996,288.236,289.985,295.729,300.12899999999996,301.89,307.218,309.458,311.244,317.492,319.236,323.63599999999997,325.361,330.689,332.92900000000003,334.659,339.986,341.73,346.13,347.925,353.669,355.909,357.619,365.195,369.611,374.027,378.42699999999996,380.182,384.598,386.838,388.573,395.237,399.653,401.901,406.317,408.077,409.776,416.024,418.688,423.104,427.52,431.936,433.68,437.68,439.369,444.281,446.945,451.361,458.025,462.441,468.185,472.478,475.142,479.142,483.142,484.893,490.637,495.053,499.469,501.717,506.11699999999996,507.854,510.102,514.502,516.244,517.988,522.388,524.125,529.453,531.197,533.445,537.845,539.602,541.849,546.265,550.265,554.681,557.345,559.593,561.337,565.753" svgx:width="0.72,0.55,0.55,0.55,0.55,0.55,0.78,0.28,0.55,0.61,0.55,0.55,0.55,0.55,0.55,0.61,0.28,0.55,0.72,0.55,0.55,0.67,0.28,0.55,0.78,0.22,0.55,0.55,0.67,0.28,0.55,0.67,0.22,0.55,0.55,0.72,0.28,0.55,0.95,0.55,0.55,0.55,0.55,0.55,0.28,0.55,0.83,0.55,0.28,0.55,0.22,0.55,0.78,0.33,0.55,0.55,0.55,0.22,0.5,0.55,0.61,0.33,0.55,0.83,0.55,0.72,0.55,0.33,0.5,0.5,0.55,0.72,0.55,0.55,0.28,0.55,0.55,0.28,0.55,0.55,0.22,0.55,0.55,0.67,0.22,0.28,0.55,0.55,0.28,0.55,0.5,0.55,0.33,0.28,0.22,0.55,0.55" style="fill:rgb(0,0,0);font-family:Helvetica;font-size:8.0px;stroke:none;">Huang G, Zhang F, Du X, Qin Y, Yin D, Wang L. Metal Organic Frameworks Route to in Situ Insertion</text>
   <text y="538.299" x="221.5,225.916,228.156,229.891,236.555,240.971,242.715,244.963,246.707,252.451,256.867,258.611,260.355,264.771,269.171,270.879,276.623,281.039,283.703,288.119,292.535,296.935,298.659,304.403,308.819,313.235,317.651,319.899,324.315,328.731,333.015,337.015,338.798,340.542,344.94199999999995,346.678,352.422" svgx:width="0.55,0.28,0.55,0.83,0.55,0.22,0.28,0.22,0.72,0.55,0.22,0.22,0.55,0.55,0.55,0.72,0.55,0.33,0.55,0.55,0.55,0.55,0.72,0.55,0.55,0.55,0.28,0.55,0.55,0.55,0.5,0.55,0.22,0.55,0.55,0.72,0.55" style="fill:rgb(0,0,0);font-family:Helvetica;font-size:8.0px;stroke:none;">of Multiwalled Carbon Nanotubes in Co</text>
  </g>
  <g begin="text">
   <text y="539.603" x="356.825" svgx:width="0.55" style="fill:rgb(0,0,0);font-family:Helvetica;font-size:5.33px;stroke:none;">3</text>
  </g>
  <g begin="text">
   <text y="538.299" x="360.113" svgx:width="0.78" style="fill:rgb(0,0,0);font-family:Helvetica;font-size:8.0px;stroke:none;">O</text>
  </g>
  <g begin="text">
   <text y="539.603" x="366.35" svgx:width="0.55" style="fill:rgb(0,0,0);font-family:Helvetica;font-size:5.33px;stroke:none;">4</text>
  </g>
  <g begin="text">
   <text y="538.299" x="371.452,376.78,381.196,382.94,386.94,391.356,395.66,400.076,402.74,407.14,408.925,413.341,417.341,419.074,424.402,428.818,433.234,437.649,442.049,443.735,450.399,454.815,457.063,461.479,464.143,465.887,470.303,472.047,476.047,477.751,479.999,484.414,487.054,488.806,493.222,494.966,497.214,501.629,503.373,507.789,514.453,517.117,519.365,523.672,528.072,529.851,535.179,539.595,541.843,544.091,548.506,551.17,552.914,557.234,561.234" svgx:width="0.67,0.55,0.22,0.5,0.55,0.55,0.55,0.33,0.55,0.55,0.55,0.5,0.55,0.67,0.55,0.55,0.55,0.55,0.55,0.83,0.55,0.28,0.55,0.33,0.22,0.55,0.22,0.5,0.55,0.28,0.55,0.33,0.55,0.55,0.22,0.28,0.55,0.22,0.55,0.83,0.33,0.28,0.55,0.55,0.55,0.67,0.55,0.28,0.28,0.55,0.33,0.22,0.55,0.5,0.28" style="fill:rgb(0,0,0);font-family:Helvetica;font-size:8.0px;stroke:none;">Polyhedra as Anode Materials for Lithium-Ion Batteries.</text>
   <text y="547.766" x="221.5,226.828,232.572,237.93200000000002,239.642,244.057,248.473,252.889,257.289,258.974,263.39,267.806,272.222,276.638,278.878,280.631,285.047,287.295,291.711,296.126,300.542,304.838,309.254,313.67,318.086,322.502,326.918,329.158,330.86,335.276,339.692,341.436" svgx:width="0.67,0.72,0.67,0.55,0.55,0.55,0.55,0.55,0.55,0.55,0.55,0.55,0.55,0.28,0.55,0.55,0.28,0.55,0.55,0.55,0.55,0.55,0.55,0.55,0.55,0.55,0.28,0.55,0.55,0.55,0.22,0.28" style="fill:rgb(0,0,0);font-family:Helvetica;font-size:8.0px;stroke:none;">ACS nano 2015; 9:1592–1599. doi:</text>
   <text y="547.766" x="345.431,349.847,354.263,356.51,360.926,365.342,369.758,374.174,376.422,380.838,385.114,389.53,393.946,398.362,402.778,407.194,411.61" svgx:width="0.55,0.55,0.28,0.55,0.55,0.55,0.55,0.28,0.55,0.55,0.55,0.55,0.55,0.55,0.55,0.55,0.55" style="fill:rgb(59,90,166);font-family:Helvetica;font-size:8.0px;stroke:none;">10.1021/nn506252u</text>
   <text y="547.766" x="417.713,423.041,429.705,431.953,437.697" svgx:width="0.67,0.83,0.28,0.72,0.28" style="fill:rgb(0,0,0);font-family:Helvetica;font-size:8.0px;stroke:none;">PMID:</text>
   <text y="547.766" x="441.637,446.053,450.469,454.884,459.3,463.716,468.132,472.548" svgx:width="0.55,0.55,0.55,0.55,0.55,0.55,0.55,0.55" style="fill:rgb(59,90,166);font-family:Helvetica;font-size:8.0px;stroke:none;">25629650</text>
   <text y="560.806" x="200.468,204.884,209.3" svgx:width="0.55,0.55,0.28" style="fill:rgb(0,0,0);font-family:Helvetica-Bold;font-size:8.0px;stroke:none;">40.</text>
   <text y="560.806" x="221.5,225.916,227.66,232.06,233.802,237.802,240.042,241.796,247.54,251.956,253.7,255.45999999999998,257.16,262.488,268.232,274.48,276.72,278.476,284.22,288.636,293.036,294.747,300.075,307.651,309.891,311.641,316.969,321.385,325.801,330.20099999999996,331.937,336.849,344.425,346.665,348.379,353.707,358.122,362.522,364.252,369.164,371.404,373.153,378.481,382.897,389.56,393.976,398.392,400.152,401.839,407.199,408.925,413.341,419.589,421.829,423.552,429.296,433.712,435.96,440.376,442.12,446.12,450.536,454.936,456.66,462.404,464.644,466.355,471.267,475.683,480.099,482.739,484.497,488.497,495.161,497.401,499.123,501.371,504.035,508.451,512.851,514.601,520.848,524.848,526.592,531.008,535.408,537.107,542.851,547.267,551.683,556.099,560.515,564.931,567.595,569.843,571.587" svgx:width="0.55,0.22,0.55,0.55,0.5,0.28,0.55,0.72,0.55,0.22,0.22,0.55,0.67,0.72,0.78,0.28,0.55,0.72,0.55,0.55,0.55,0.67,0.95,0.28,0.55,0.67,0.55,0.55,0.55,0.55,0.61,0.95,0.28,0.55,0.67,0.55,0.55,0.55,0.61,0.28,0.55,0.67,0.55,0.83,0.55,0.55,0.22,0.55,0.67,0.55,0.55,0.78,0.28,0.55,0.72,0.55,0.28,0.55,0.22,0.5,0.55,0.55,0.55,0.72,0.28,0.55,0.61,0.55,0.55,0.33,0.55,0.5,0.83,0.28,0.55,0.28,0.33,0.55,0.55,0.55,0.78,0.5,0.22,0.55,0.55,0.55,0.72,0.55,0.55,0.55,0.55,0.55,0.33,0.28,0.22,0.33" style="fill:rgb(0,0,0);font-family:Helvetica;font-size:8.0px;stroke:none;">Lin J, Raji ARO, Nan KW, Peng ZW, Yan Z, Samuel E LG, Natelson D, Tour JM. Iron Oxide Nanoparti-</text>
   <text y="570.273" x="221.5,225.5,227.244,231.644,233.406,237.822,242.238,246.638,248.373,254.621,257.285,261.7,266.116,270.532,274.948,279.364,283.76399999999995,285.45,291.194,295.61,300.026,304.442,307.106,308.75,313.166,317.582,321.998,326.39799999999997,328.139,333.883,338.299,344.963,349.379,353.795,357.794,359.434,361.682,366.082,367.881,372.297,376.297,378.028,382.444,386.844,388.572,393.9,398.316,402.732,407.148,411.548,413.291,419.954,424.37,426.618,431.034,433.698,435.442,439.858,441.618,443.281,445.529,449.945,452.585,454.336,460.08,461.824,466.24,470.656,473.32,478.648,482.966,485.63,487.878,492.294,494.958,501.621,506.037,510.453,514.453,518.853,520.553,524.969,526.713,529.377,531.625,536.041,540.441,542.153,547.481,551.897,554.145,556.393,560.809,563.473,565.217,569.633,573.633" svgx:width="0.5,0.22,0.55,0.55,0.55,0.55,0.55,0.55,0.78,0.33,0.55,0.55,0.55,0.55,0.55,0.55,0.55,0.72,0.55,0.55,0.55,0.33,0.22,0.55,0.55,0.55,0.55,0.55,0.72,0.55,0.83,0.55,0.55,0.5,0.22,0.28,0.55,0.55,0.55,0.5,0.55,0.55,0.55,0.55,0.67,0.55,0.55,0.55,0.55,0.55,0.83,0.55,0.28,0.55,0.33,0.22,0.55,0.22,0.55,0.28,0.55,0.33,0.55,0.72,0.22,0.55,0.55,0.33,0.67,0.55,0.33,0.28,0.55,0.33,0.83,0.55,0.55,0.5,0.55,0.55,0.55,0.22,0.33,0.28,0.55,0.55,0.55,0.67,0.55,0.28,0.28,0.55,0.33,0.22,0.55,0.5,0.28" style="fill:rgb(0,0,0);font-family:Helvetica;font-size:8.0px;stroke:none;">cle and Graphene Nanoribbon Composite as an Anode Material for High-Performance Li-Ion Batteries.</text>
   <text y="579.798" x="221.5,226.828,231.244,235.244,237.484,239.188,244.1,248.516,252.932,256.932,259.18,261.42,263.169,269.833,274.249,276.497,280.913,283.577,285.817,287.491,291.906,296.322,300.738,305.154,307.394,309.09,313.506,317.922,320.17,324.586,329.002,333.418,337.834,342.25,346.666,351.082,355.498,359.774" svgx:width="0.67,0.55,0.5,0.28,0.55,0.61,0.55,0.55,0.5,0.28,0.28,0.55,0.83,0.55,0.28,0.55,0.33,0.28,0.55,0.55,0.55,0.55,0.55,0.28,0.55,0.55,0.55,0.28,0.55,0.55,0.55,0.55,0.55,0.55,0.55,0.55,0.55,0.28" style="fill:rgb(0,0,0);font-family:Helvetica;font-size:8.0px;stroke:none;">Adv. Funct. Mater. 2013; 24:2044–2048.</text>
   <text y="592.78" x="200.468,204.884,209.3" svgx:width="0.55,0.55,0.28" style="fill:rgb(0,0,0);font-family:Helvetica-Bold;font-size:8.0px;stroke:none;">41.</text>
   <text y="592.78" x="221.5,226.828,231.244,233.004,234.71,240.038,244.95,247.19,248.883,255.131,259.547,263.947,265.664,270.992,276.32,278.56,280.291,286.035,290.451,293.115,295.755,297.468,302.796,308.124,310.36400000000003,312.038,317.366,321.782,323.542,325.248,331.496,337.24,339.48,341.179,346.923,351.323,353.084,358.412,363.74,365.98,367.654,373.397,377.813,379.557,383.973,386.613,388.346,393.674,399.418,401.658,403.369,409.113,413.529,417.945,422.34499999999997,424.062,428.478,434.726,436.966,438.633,443.961,448.377,452.376,456.792,461.208,465.624,468.288,470.048,471.684,477.428,479.668,481.435,486.763,489.011,493.427,497.427,501.427,505.427,507.061,513.309,519.052,521.292,522.991,529.239,531.903,536.319,540.735,543.399,547.815,552.215,553.889,560.553,564.969,568.969,573.385" svgx:width="0.67,0.55,0.22,0.55,0.67,0.61,0.28,0.55,0.78,0.55,0.55,0.55,0.67,0.67,0.28,0.55,0.72,0.55,0.33,0.33,0.55,0.67,0.67,0.28,0.55,0.67,0.55,0.22,0.55,0.78,0.72,0.28,0.55,0.72,0.55,0.55,0.67,0.67,0.28,0.55,0.72,0.55,0.22,0.55,0.33,0.55,0.67,0.72,0.28,0.55,0.72,0.55,0.55,0.55,0.55,0.55,0.78,0.28,0.55,0.67,0.55,0.5,0.55,0.55,0.55,0.33,0.22,0.55,0.72,0.28,0.55,0.67,0.28,0.55,0.5,0.5,0.5,0.55,0.78,0.72,0.28,0.55,0.78,0.33,0.55,0.55,0.33,0.55,0.55,0.55,0.83,0.55,0.5,0.55,0.33" style="fill:rgb(0,0,0);font-family:Helvetica;font-size:8.0px;stroke:none;">Shi YF, Guo BK, Corr SA, Shi QH, Hu YS, Heier KR, Chen LQ, Seshadri R, Stucky GD. Ordered meso-</text>
   <text y="602.305" x="221.5,225.916,230.332,232.996,237.412,241.828,245.828,247.522,254.186,258.602,260.85,265.266,267.01,268.754,270.498,274.498,276.208,282.872,287.288,293.536,297.936,299.622,306.286,310.702,312.95,317.366,320.03,321.774,326.19,327.934,331.934,333.638,339.382,341.126,343.374,347.774,349.512,353.928,355.672,360.088,364.504,366.248,370.248,371.962,374.625,379.041,383.041,387.457,390.121,394.121,395.865,400.281,402.025,406.42499999999995,408.075,409.819,411.563,413.811,418.227,419.971,424.386,432.793,436.793,439.041,443.457,446.121,450.537,454.952,459.352,461.026,465.026,469.442,473.858,478.274,482.274,484.018,486.266,490.266,492.50600000000003,494.191,499.935,504.351,508.767,513.167,514.884,519.3,523.716,525.964,528.212,530.452,532.176,536.591,541.007,545.423,549.839" svgx:width="0.55,0.55,0.33,0.55,0.55,0.5,0.55,0.83,0.55,0.28,0.55,0.22,0.22,0.22,0.5,0.55,0.83,0.55,0.78,0.55,0.55,0.83,0.55,0.28,0.55,0.33,0.22,0.55,0.22,0.5,0.55,0.72,0.22,0.28,0.55,0.55,0.55,0.22,0.55,0.55,0.22,0.5,0.55,0.33,0.55,0.5,0.55,0.33,0.5,0.22,0.55,0.22,0.55,0.55,0.22,0.22,0.28,0.55,0.22,0.55,0.83,0.5,0.28,0.55,0.33,0.55,0.55,0.55,0.55,0.5,0.55,0.55,0.55,0.5,0.22,0.28,0.5,0.28,0.55,0.72,0.55,0.55,0.55,0.55,0.55,0.55,0.28,0.28,0.28,0.55,0.55,0.55,0.55,0.55,0.28" style="fill:rgb(0,0,0);font-family:Helvetica;font-size:8.0px;stroke:none;">porous metallic MoO2 materials with highly reversible lithiumstorage capacity. Nano Lett. 2009;</text>
   <text y="611.773" x="221.5,225.916,228.164,232.58,236.996,241.412,245.828,250.244,254.552,258.968,263.384,267.8,270.04,271.787,276.203,280.619,282.363" svgx:width="0.55,0.28,0.55,0.55,0.55,0.55,0.55,0.55,0.55,0.55,0.55,0.28,0.55,0.55,0.55,0.22,0.28" style="fill:rgb(0,0,0);font-family:Helvetica;font-size:8.0px;stroke:none;">9:4215–4220. doi:</text>
   <text y="611.773" x="286.3,290.716,295.132,297.38,301.796,306.212,310.628,315.044,317.292,321.708,323.452,327.868,332.164,336.58,340.996,345.412,349.828" svgx:width="0.55,0.55,0.28,0.55,0.55,0.55,0.55,0.28,0.55,0.22,0.55,0.55,0.55,0.55,0.55,0.55,0.55" style="fill:rgb(59,90,166);font-family:Helvetica;font-size:8.0px;stroke:none;">10.1021/nl902423a</text>
   <text y="611.773" x="355.975,361.303,367.967,370.215,375.959" svgx:width="0.67,0.83,0.28,0.72,0.28" style="fill:rgb(0,0,0);font-family:Helvetica;font-size:8.0px;stroke:none;">PMID:</text>
   <text y="611.773" x="379.899,384.315,388.731,393.147,397.563,401.979,406.395,410.811" svgx:width="0.55,0.55,0.55,0.55,0.55,0.55,0.55,0.55" style="fill:rgb(59,90,166);font-family:Helvetica;font-size:8.0px;stroke:none;">19775084</text>
   <text y="624.755" x="200.468,204.884,209.3" svgx:width="0.55,0.55,0.28" style="fill:rgb(0,0,0);font-family:Helvetica-Bold;font-size:8.0px;stroke:none;">42.</text>
   <text y="624.755" x="221.5,225.916,227.676,229.381,233.797,236.037,237.828,242.74,247.156,251.572,255.988,260.388,262.092,267.42,269.66,271.39,275.806,277.55,281.95,283.692,289.02,291.26,293.047,298.374,302.79,304.55,306.256,311.584,313.824,315.553,320.465,324.881,329.297,333.697,335.452,340.78,343.02,344.75,349.662,354.078,358.494,362.91,367.31,369.014,374.758,376.998,378.765,383.181,385.421,387.156,391.572,393.316,395.556,397.304,403.552,407.967,412.383,415.047,420.791,422.535,429.199,433.615,438.031,441.921,443.665,448.081,452.481,454.223,460.887,465.303,471.047" svgx:width="0.55,0.22,0.55,0.55,0.28,0.55,0.61,0.55,0.55,0.55,0.55,0.55,0.67,0.28,0.55,0.55,0.22,0.55,0.55,0.67,0.28,0.55,0.67,0.55,0.22,0.55,0.67,0.28,0.55,0.61,0.55,0.55,0.55,0.55,0.67,0.28,0.55,0.61,0.55,0.55,0.55,0.55,0.55,0.72,0.28,0.55,0.55,0.28,0.55,0.55,0.22,0.28,0.55,0.78,0.55,0.55,0.33,0.72,0.22,0.83,0.55,0.55,0.5,0.22,0.55,0.55,0.55,0.83,0.55,0.72,0.55" style="fill:rgb(0,0,0);font-family:Helvetica;font-size:8.0px;stroke:none;">Li L, Zhang Y, Liu X, Shi S, Zhao X, Zhang H, et al. One-Dimension MnCo</text>
  </g>
  <g begin="text">
   <text y="626.117" x="475.427" svgx:width="0.55" style="fill:rgb(0,0,0);font-family:Helvetica;font-size:5.33px;stroke:none;">2</text>
  </g>
  <g begin="text">
   <text y="624.756" x="478.715" svgx:width="0.78" style="fill:rgb(0,0,0);font-family:Helvetica;font-size:8.0px;stroke:none;">O</text>
  </g>
  <g begin="text">
   <text y="626.117" x="484.951" svgx:width="0.55" style="fill:rgb(0,0,0);font-family:Helvetica;font-size:5.33px;stroke:none;">4</text>
  </g>
  <g begin="text">
   <text y="624.756" x="490.053,495.797,500.213,504.629,509.045,514.789,516.533,519.197,523.597,525.259,530.587,533.251,535.915,540.331,544.331,548.331,550.034,552.281,556.697" svgx:width="0.72,0.55,0.55,0.55,0.72,0.22,0.33,0.55,0.55,0.67,0.33,0.33,0.55,0.5,0.5,0.55,0.28,0.55,0.33" style="fill:rgb(0,0,0);font-family:Helvetica;font-size:8.0px;stroke:none;">Nanowire Arrays for</text>
   <text y="634.28" x="221.501,226.829,228.573,232.989,236.989,239.237,241.901,246.317,250.316,254.732,259.032,265.695,267.44,271.439,275.855,277.615,279.327,284.655,289.071,293.487,296.151,300.567,304.567,306.257,311.585,313.833,318.248,320.912,325.328,329.744,334.16,336.40000000000003,338.118,343.446,345.19,349.606,353.606,355.854,358.518,362.836,366.836,371.252,372.996,379.66,381.90000000000003,383.642,388.97,392.97,395.218,399.618,401.33,405.746,410.162,414.578,418.994,421.23400000000004,422.93,427.345,431.761,436.177,438.425,442.841,447.257,451.673,456.089,460.505,464.921,469.337" svgx:width="0.67,0.22,0.55,0.5,0.28,0.33,0.55,0.5,0.55,0.55,0.83,0.22,0.5,0.55,0.22,0.55,0.67,0.55,0.55,0.33,0.55,0.5,0.55,0.67,0.28,0.55,0.33,0.55,0.55,0.55,0.28,0.55,0.67,0.22,0.55,0.5,0.28,0.33,0.55,0.5,0.55,0.22,0.83,0.28,0.55,0.67,0.5,0.28,0.55,0.55,0.55,0.55,0.55,0.55,0.28,0.55,0.55,0.55,0.55,0.28,0.55,0.55,0.55,0.55,0.55,0.55,0.55,0.28" style="fill:rgb(0,0,0);font-family:Helvetica;font-size:8.0px;stroke:none;">Electrochemical Energy Storage. Electrochim. Acta 2014; 116:467–474.</text>
   <text y="647.263" x="200.468,204.883,209.299" svgx:width="0.55,0.55,0.28" style="fill:rgb(0,0,0);font-family:Helvetica-Bold;font-size:8.0px;stroke:none;">43.</text>
   <text y="647.263" x="221.501,226.829,231.229,232.953,237.369,239.609,241.4,246.312,250.728,255.144,259.56,263.96,265.664,270.08,272.32,274.055,281.63,286.03,287.774,293.518,295.758,297.526,302.437,306.853,311.269,315.685,320.085,321.79,328.038,330.278,332.051,336.467,340.883,345.28299999999996,347.018,352.346,359.922,365.666,367.906,369.582,375.326,379.742,384.158,386.406,389.07,393.486,395.23,396.974,401.39,405.78999999999996,407.51,412.838,416.838,421.254,423.502,427.917,432.227,436.227,437.971,441.971,443.736,448.152,450.392,452.127,457.871,459.615,464.031,466.695,471.111,473.775,477.774,482.19,483.934,487.843,492.259,494.019,495.779,501.523" svgx:width="0.67,0.55,0.55,0.55,0.28,0.55,0.61,0.55,0.55,0.55,0.55,0.55,0.55,0.28,0.55,0.95,0.55,0.55,0.72,0.28,0.55,0.61,0.55,0.55,0.55,0.55,0.55,0.78,0.28,0.55,0.55,0.55,0.55,0.55,0.67,0.95,0.72,0.28,0.55,0.72,0.55,0.55,0.28,0.33,0.55,0.22,0.22,0.55,0.55,0.55,0.67,0.5,0.55,0.28,0.55,0.55,0.5,0.22,0.5,0.55,0.55,0.28,0.55,0.72,0.22,0.55,0.33,0.55,0.33,0.5,0.55,0.22,0.5,0.55,0.22,0.55,0.72,0.55" style="fill:rgb(0,0,0);font-family:Helvetica;font-size:8.0px;stroke:none;">Yu L, Zhang L, Wu H, Zhang G, Lou XWD. Controlled Synthesis of Hierarchical Co</text>
  </g>
  <g begin="text">
   <text y="648.624" x="505.871" svgx:width="0.5" style="fill:rgb(0,0,0);font-family:Helvetica;font-size:5.33px;stroke:none;">x</text>
  </g>
  <g begin="text">
   <text y="647.263" x="508.875,515.539" svgx:width="0.83,0.55" style="fill:rgb(0,0,0);font-family:Helvetica;font-size:8.0px;stroke:none;">Mn</text>
  </g>
  <g begin="text">
   <text y="648.624" x="519.931,523.243,525.241" svgx:width="0.55,0.33,0.5" style="fill:rgb(0,0,0);font-family:Helvetica;font-size:5.33px;stroke:none;">3-x</text>
  </g>
  <g begin="text">
   <text y="647.263" x="528.265" svgx:width="0.78" style="fill:rgb(0,0,0);font-family:Helvetica;font-size:8.0px;stroke:none;">O</text>
  </g>
  <g begin="text">
   <text y="648.624" x="534.501" svgx:width="0.55" style="fill:rgb(0,0,0);font-family:Helvetica;font-size:5.33px;stroke:none;">4</text>
  </g>
  <g begin="text">
   <text y="647.263" x="539.546,544.874,547.538,550.202,554.618" svgx:width="0.67,0.33,0.33,0.55,0.5" style="fill:rgb(0,0,0);font-family:Helvetica;font-size:8.0px;stroke:none;">Array</text>
   <text y="656.787" x="221.501,228.165,229.909,233.909,236.573,240.988,243.652,245.9,251.548,255.964,260.38,264.796,268.796,271.044,273.708,278.124,282.124,284.372,288.682,291.346,295.761,299.761,301.494,307.238,308.982,311.23,315.63,317.368,322.28,326.696,331.112,335.528,339.944,341.688,346.08799999999997,347.812,354.476,358.892,361.556,365.972,370.388,374.804,376.548,380.864,385.28,389.28,391.012,395.428,399.844,404.24399999999997,405.979,411.723,416.139,422.803,427.219,431.635,435.635,437.379,439.627,441.371,445.787,450.18699999999995,451.844,456.259,460.259,461.991,464.239,468.655,470.903,475.319,479.735,482.399,486.815,489.063,493.479,497.87899999999996,499.578,504.906,506.65,511.066,515.066,517.314,519.978,524.394,528.81,533.226,537.226,538.866,541.114,545.53,548.17,549.921,554.337,556.081,558.329,562.745" svgx:width="0.83,0.22,0.5,0.33,0.55,0.33,0.28,0.72,0.55,0.55,0.55,0.5,0.28,0.33,0.55,0.5,0.28,0.55,0.33,0.55,0.5,0.55,0.72,0.22,0.28,0.55,0.55,0.61,0.55,0.55,0.55,0.55,0.22,0.55,0.55,0.83,0.55,0.33,0.55,0.55,0.55,0.22,0.55,0.55,0.5,0.55,0.55,0.55,0.55,0.55,0.72,0.55,0.83,0.55,0.55,0.5,0.22,0.28,0.22,0.55,0.55,0.55,0.55,0.5,0.55,0.28,0.55,0.28,0.55,0.55,0.33,0.55,0.28,0.55,0.55,0.55,0.67,0.22,0.55,0.5,0.28,0.33,0.55,0.55,0.55,0.5,0.55,0.28,0.55,0.33,0.55,0.55,0.22,0.28,0.55,0.33" style="fill:rgb(0,0,0);font-family:Helvetica;font-size:8.0px;stroke:none;">Micro-/Nanostructures with Tunable Morphology and Composition as Integrated Electrodes for Lith-</text>
   <text y="666.255" x="221.501,223.245,227.661,234.325,236.989,239.237,243.652,248.052,249.734,255.062,259.478,261.726,263.974,268.39,271.054,272.798,277.214,281.214,283.454,285.167,290.495,294.911,299.327,301.991,306.407,310.407,312.096,317.424,321.84,325.839,327.583,330.247,334.663,339.079,341.319,342.994,348.322,352.322,354.066,356.306,358.073,362.489,366.905,371.321,375.737,377.97700000000003,379.673,384.089,386.337,390.753,395.169,399.585,404.001,408.417,412.726,417.142,421.557,425.973" svgx:width="0.22,0.55,0.83,0.33,0.28,0.55,0.55,0.55,0.67,0.55,0.28,0.28,0.55,0.33,0.22,0.55,0.5,0.28,0.55,0.67,0.55,0.55,0.33,0.55,0.5,0.55,0.67,0.55,0.5,0.22,0.33,0.55,0.55,0.28,0.55,0.67,0.5,0.22,0.28,0.55,0.55,0.55,0.55,0.55,0.28,0.55,0.55,0.28,0.55,0.55,0.55,0.55,0.55,0.55,0.55,0.55,0.55,0.28" style="fill:rgb(0,0,0);font-family:Helvetica;font-size:8.0px;stroke:none;">ium-Ion Batteries. Energy Environ. Sci. 2013; 6:2664–2671.</text>
   <text y="679.294" x="200.468,204.884,209.3" svgx:width="0.55,0.55,0.28" style="fill:rgb(0,0,0);font-family:Helvetica-Bold;font-size:8.0px;stroke:none;">44.</text>
   <text y="679.294" x="221.501,226.413,230.829,235.245,239.661,244.061,245.765,252.013,254.25300000000001,256.027,263.603,268.003,269.747,275.491,277.731,279.441,285.185,289.601,293.601,295.849,300.265,302.905,304.669,310.413,315.741,317.981,319.692,324.108,328.524,332.924,334.659,339.987,347.563,349.803,351.554,356.882,359.13,361.794,366.21,370.626,375.042,376.786,380.786,382.452,388.195,392.611,397.027,401.443,403.187,407.603,412.003,413.689,419.433,423.849,426.513,430.929,435.345,439.745,441.468,447.212,451.628,456.044,460.46,462.708,464.452,468.868,473.284,475.948,478.489,485.153,489.569,491.817,496.233,497.993,499.692,505.94,509.94,511.684,516.099,520.499,522.255,527.999,532.415,536.831,540.831,542.575,546.991,548.751,550.431,556.175,560.591,565.007,569.423,573.423" svgx:width="0.61,0.55,0.55,0.55,0.55,0.55,0.78,0.28,0.55,0.95,0.55,0.55,0.72,0.28,0.55,0.72,0.55,0.5,0.28,0.55,0.33,0.55,0.72,0.67,0.28,0.55,0.55,0.55,0.55,0.55,0.67,0.95,0.28,0.55,0.67,0.28,0.33,0.55,0.55,0.55,0.22,0.5,0.55,0.72,0.55,0.55,0.55,0.22,0.55,0.55,0.55,0.72,0.55,0.33,0.55,0.55,0.55,0.55,0.72,0.55,0.55,0.55,0.28,0.22,0.55,0.55,0.33,0.33,0.83,0.55,0.28,0.55,0.22,0.55,0.78,0.5,0.22,0.55,0.55,0.55,0.72,0.55,0.55,0.5,0.22,0.55,0.22,0.55,0.72,0.55,0.55,0.55,0.5,0.33" style="fill:rgb(0,0,0);font-family:Helvetica;font-size:8.0px;stroke:none;">Zhang G, Wu H, Hoster HE, Lou XW. Strongly Coupled Carbon Nanofiber-Metal Oxide Coaxial Nanoc-</text>
   <text y="688.762" x="221.501,225.917,230.333,232.077,236.493,240.493,242.194,247.938,249.682,251.93,256.33,258.068,263.395,267.811,272.227,276.643,281.059,285.059,289.475,293.875,295.541,299.957,301.701,303.949,308.365,310.109,314.525,322.924,328.252,330.5,334.916,337.58,341.996,346.412,350.81199999999995,352.518,357.845,360.509,364.925,369.341,373.757,376.421,378.669,380.297,384.713,388.713,390.95300000000003,392.713,398.041,402.457,406.873,409.537,413.953,417.953,419.642,424.969,429.385,433.385,435.129,437.793,442.209,446.625,448.865,450.54,455.867,459.867,461.611,463.851,465.619,470.035,474.451,478.867,483.283,485.523,487.22,491.636,493.884,498.3,502.716,507.132,511.548,515.964,520.271,524.687" svgx:width="0.55,0.55,0.22,0.55,0.5,0.55,0.72,0.22,0.28,0.55,0.55,0.67,0.55,0.55,0.55,0.55,0.5,0.55,0.55,0.55,0.55,0.22,0.28,0.55,0.22,0.55,0.83,0.67,0.28,0.55,0.33,0.55,0.55,0.55,0.55,0.67,0.33,0.55,0.55,0.55,0.33,0.28,0.22,0.55,0.5,0.28,0.55,0.67,0.55,0.55,0.33,0.55,0.5,0.55,0.67,0.55,0.5,0.22,0.33,0.55,0.55,0.28,0.55,0.67,0.5,0.22,0.28,0.55,0.55,0.55,0.55,0.55,0.28,0.55,0.55,0.28,0.55,0.55,0.55,0.55,0.55,0.55,0.55,0.28" style="fill:rgb(0,0,0);font-family:Helvetica;font-size:8.0px;stroke:none;">ables with Enhanced LithiumStorage Properties. Energy Environ. Sci. 2014; 7:302–305.</text>
  </g>
  <path style="fill:rgb(0,0,0);stroke:none;stroke-width:1.0;" d="M576.000 54.900 L36.000 54.900 L36.000 54.400 L576.000 54.400 "/>
  <rect style="stroke:blue;stroke-width:0.3;" x="36.0" y="35.043" height="23.64" width="107.093" title="11"/>
  <text y="35.043" class="image" id="image.11.1" width="107" height="23" x="36.0">image.11.1.36_143.35_59</text>
  <g begin="text">
   <text y="46.205" x="429.619,434.531,438.947,443.363,446.027,447.771,451.771,456.186,458.434,460.178,464.485,468.885,470.664,475.08,477.32,479.054,481.718,487.462,491.878,494.126,500.79,505.206" svgx:width="0.61,0.55,0.55,0.33,0.22,0.5,0.55,0.28,0.22,0.55,0.55,0.55,0.55,0.28,0.55,0.33,0.72,0.55,0.28,0.83,0.55,0.33" style="fill:rgb(0,0,0);font-family:Helvetica;font-size:8.0px;stroke:none;">Fabrication of (Co,Mn)</text>
  </g>
  <g begin="text">
   <text y="47.509" x="507.798" svgx:width="0.55" style="fill:rgb(0,0,0);font-family:Helvetica;font-size:5.33px;stroke:none;">3</text>
  </g>
  <g begin="text">
   <text y="46.205" x="511.143" svgx:width="0.78" style="fill:rgb(0,0,0);font-family:Helvetica;font-size:8.0px;stroke:none;">O</text>
  </g>
  <g begin="text">
   <text y="47.509" x="517.323" svgx:width="0.55" style="fill:rgb(0,0,0);font-family:Helvetica;font-size:5.33px;stroke:none;">4</text>
  </g>
  <g begin="text">
   <text y="46.205" x="520.668,522.916,525.58,531.828,539.773,543.773,548.189,554.853,559.269,563.685,567.685,569.429,571.677" svgx:width="0.28,0.33,0.78,0.78,0.5,0.55,0.83,0.55,0.55,0.5,0.22,0.28,0.55" style="fill:rgb(0,0,0);font-family:Helvetica;font-size:8.0px;stroke:none;">/rGOcomposite</text>
  </g>
  <path style="fill:rgb(0,0,0);stroke:none;stroke-width:1.0;" d="M36.000 744.000 L576.000 744.000 L576.000 744.500 L36.000 744.500 "/>
  <g begin="text">
   <text y="756.0" x="36.0,41.328,45.744,51.992,57.352,59.017,65.264,71.008,76.368,78.066,80.146,81.921,87.665,93.913,96.161,98.409,102.825,107.241,109.489,113.782,118.198,122.614,127.03,129.278,131.022,135.438,139.854,142.518,146.834,151.25,152.994,155.242,159.658,164.074,168.49,172.906,175.153,179.569,183.985,188.401,192.698,197.114,201.53,205.93,213.901,220.149,224.149,226.397,230.813,235.229,239.645,242.285,244.005,248.421,252.837,255.077,256.817,261.233,265.649,270.065,274.465,552.64,557.056,561.456,563.185" svgx:width="0.67,0.55,0.78,0.67,0.55,0.78,0.72,0.67,0.55,0.26,0.55,0.72,0.78,0.28,0.28,0.55,0.55,0.28,0.55,0.55,0.55,0.55,0.28,0.22,0.55,0.55,0.33,0.55,0.55,0.22,0.28,0.55,0.55,0.55,0.55,0.28,0.55,0.55,0.55,0.55,0.55,0.55,0.55,0.55,0.78,0.5,0.28,0.55,0.55,0.55,0.33,0.55,0.55,0.55,0.28,0.55,0.55,0.55,0.55,0.55,0.55,0.55,0.55,0.55,0.28" style="fill:rgb(0,0,0);font-family:Helvetica;font-size:8.0px;stroke:none;">PLOS ONE | DOI:10.1371/journal.pone.0164657 October 27, 2016 11 /</text>
  </g>
  <g begin="text">
   <text y="756.0" x="567.209,571.625" svgx:width="0.55,0.55" style="fill:rgb(0,0,0);font-family:Helvetica;font-size:8.0px;stroke:none;">11</text>
  </g>
 </g>
</svg>
