<?xml version="1.0" encoding="UTF-8"?>
<svg height="762.686" width="4126.225" xmlns="http://www.w3.org/2000/svg">
 <g id="page" xmlns:svgx="http://www.xml-cml.org/schema/svgx">
  <path style="fill:rgb(23,22,21);stroke:none;stroke-width:1.0;" d="M59.700 25.310 L58.910 26.540 L58.910 30.640 L59.700 29.430 L59.700 32.410 L58.910 32.400 L58.910 34.580 L59.730 34.580 L59.730 36.160 L62.470 36.170 L62.470 25.310 ZM52.310 36.170 L55.570 36.170 L56.570 34.570 L58.910 34.580 L58.910 32.400 L57.830 32.400 L58.910 30.640 L58.910 26.540 Z"/>
  <path style="fill:rgb(23,22,21);stroke:none;stroke-width:1.0;" d="M63.820 25.340 L63.820 36.130 L68.290 36.120 C68.370 36.120 68.440 36.120 68.510 36.120 L68.510 33.660 C68.310 33.700 68.180 33.720 67.940 33.720 L66.590 33.720 L66.590 27.740 L67.980 27.730 C68.200 27.730 68.310 27.760 68.510 27.820 L68.510 25.410 C68.450 25.410 68.390 25.400 68.330 25.400 ZM68.510 36.120 C71.780 35.970 73.250 33.200 73.180 30.670 C73.090 27.740 71.410 25.560 68.510 25.410 L68.510 27.820 C69.720 28.140 70.460 29.460 70.420 30.740 C70.400 31.460 70.450 33.320 68.510 33.660 Z"/>
  <path style="fill:rgb(23,22,21);stroke:none;stroke-width:1.0;" d="M122.350 25.300 L122.350 36.140 L126.740 36.130 C126.820 36.130 126.890 36.130 126.970 36.130 L126.970 33.660 C126.760 33.700 126.540 33.720 126.300 33.720 L125.130 33.720 L125.130 27.760 L126.340 27.750 C126.560 27.750 126.770 27.730 126.970 27.790 L126.970 25.370 C126.900 25.360 126.840 25.360 126.780 25.360 ZM126.970 36.130 C130.230 35.980 131.820 33.160 131.750 30.630 C131.660 27.700 129.860 25.520 126.970 25.370 L126.970 27.790 C128.170 28.110 128.980 28.940 128.980 30.700 C128.980 31.420 128.900 33.320 126.970 33.660 Z"/>
  <path style="fill:rgb(23,22,21);stroke:none;stroke-width:1.0;" d="M75.720 25.300 L77.930 32.980 L80.180 25.300 L82.970 25.300 L79.370 36.180 L76.490 36.180 L72.860 25.320 Z"/>
  <path style="fill:rgb(23,22,21);stroke:none;stroke-width:1.0;" d="M85.430 32.400 L86.420 32.400 L86.420 34.590 L84.640 34.590 L84.100 36.160 L81.090 36.160 L85.440 25.290 L86.520 25.290 L86.540 28.760 ZM86.420 32.400 L87.710 32.400 L86.580 28.650 L86.540 28.760 L86.520 25.290 L87.610 25.290 L91.930 36.160 L89.010 36.160 L88.410 34.600 L86.420 34.590 Z"/>
  <path style="fill:rgb(23,22,21);stroke:none;stroke-width:1.0;" d="M92.590 25.320 L94.960 25.320 L99.040 31.850 L99.040 25.320 L101.700 25.320 L101.700 36.160 L99.300 36.150 L95.230 29.760 L95.230 36.220 L92.590 36.220 Z"/>
  <path style="fill:rgb(23,22,21);stroke:none;stroke-width:1.0;" d="M114.910 25.310 L120.900 25.310 L120.900 27.750 L117.600 27.740 L117.600 29.430 L120.850 29.430 L120.850 31.890 L117.690 31.880 L117.690 33.710 L120.980 33.710 L120.980 36.170 L114.910 36.170 Z"/>
  <path style="fill:rgb(23,22,21);stroke:none;stroke-width:1.0;" d="M111.060 32.100 C110.600 33.190 109.600 33.950 108.450 33.950 C106.850 33.950 105.560 32.510 105.560 30.750 C105.560 28.980 106.850 27.550 108.450 27.550 C109.620 27.550 110.620 28.330 111.080 29.440 L113.970 29.440 C113.380 26.950 111.130 25.100 108.450 25.100 C105.310 25.100 102.770 27.620 102.770 30.730 C102.770 33.840 105.310 36.370 108.450 36.370 C111.110 36.370 113.340 34.550 113.950 32.100 Z"/>
  <path style="fill:rgb(23,22,21);stroke:none;stroke-width:1.0;" d="M53.410 39.590 L54.980 39.350 C54.980 39.350 55.020 37.330 51.940 37.330 C48.850 37.330 48.660 38.860 48.660 39.640 C48.660 40.410 49.020 41.530 51.430 41.920 C52.350 42.070 53.590 42.340 53.590 43.190 C53.590 44.040 52.770 44.200 51.770 44.200 C50.770 44.200 50.220 43.930 49.860 43.100 C49.170 43.210 48.280 43.370 48.280 43.370 C48.280 43.370 48.570 45.560 51.790 45.530 C54.990 45.480 55.220 43.870 55.220 43.110 C55.220 42.360 55.020 41.320 52.970 40.830 C51.000 40.370 50.280 40.300 50.280 39.450 C50.280 38.600 51.200 38.570 51.800 38.570 C52.400 38.570 53.050 38.620 53.410 39.590 "/>
  <path style="fill:rgb(23,22,21);stroke:none;stroke-width:1.0;" d="M135.160 39.590 L136.740 39.350 C136.740 39.350 136.780 37.330 133.690 37.330 C130.610 37.330 130.420 38.860 130.420 39.640 C130.420 40.410 130.780 41.530 133.190 41.920 C134.100 42.070 135.340 42.340 135.340 43.190 C135.340 44.040 134.520 44.200 133.530 44.200 C132.530 44.200 131.970 43.930 131.620 43.100 C130.920 43.210 130.030 43.370 130.030 43.370 C130.030 43.370 130.320 45.560 133.550 45.530 C136.750 45.480 136.980 43.870 136.980 43.110 C136.980 42.360 136.780 41.320 134.720 40.830 C132.760 40.370 132.040 40.300 132.040 39.450 C132.040 38.600 132.960 38.570 133.560 38.570 C134.160 38.570 134.810 38.620 135.160 39.590 "/>
  <path style="fill:rgb(23,22,21);stroke:none;stroke-width:1.0;" d="M62.240 39.950 L63.670 39.530 C63.670 39.530 63.240 37.350 60.190 37.350 C57.130 37.350 56.200 39.270 56.200 41.370 C56.200 43.470 57.280 45.540 60.220 45.540 C63.080 45.540 63.770 43.200 63.770 43.200 L62.370 42.650 C62.370 42.650 61.840 44.210 60.210 44.210 C58.580 44.210 57.880 43.050 57.880 41.340 C57.880 39.630 58.680 38.630 60.260 38.630 C61.850 38.630 62.240 39.950 62.240 39.950 "/>
  <path style="fill:rgb(23,22,21);stroke:none;stroke-width:1.0;" d="M89.830 39.950 L91.270 39.530 C91.270 39.530 90.840 37.350 87.790 37.350 C84.730 37.350 83.800 39.270 83.800 41.370 C83.800 43.470 84.880 45.540 87.820 45.540 C90.670 45.540 91.370 43.200 91.370 43.200 L89.970 42.650 C89.970 42.650 89.440 44.210 87.810 44.210 C86.180 44.210 85.480 43.050 85.480 41.340 C85.480 39.630 86.280 38.630 87.860 38.630 C89.450 38.630 89.830 39.950 89.830 39.950 "/>
  <path style="fill:rgb(23,22,21);stroke:none;stroke-width:1.0;" d="M81.110 37.440 L81.110 43.520 L77.670 37.430 L76.100 37.440 L75.750 37.440 L75.750 45.430 L77.230 45.430 L77.230 39.440 L80.650 45.430 L81.110 45.430 L82.190 45.430 L82.590 45.430 L82.590 37.440 Z"/>
  <path style="fill:rgb(23,22,21);stroke:none;stroke-width:1.0;" d="M108.760 37.440 L108.760 43.520 L105.330 37.430 L103.760 37.440 L103.410 37.440 L103.410 45.430 L104.890 45.430 L104.890 39.440 L108.300 45.430 L108.760 45.430 L109.840 45.430 L110.240 45.430 L110.240 37.440 Z"/>
  <path style="fill:rgb(23,22,21);stroke:none;stroke-width:1.0;" d="M69.760 44.100 L69.760 42.070 L74.010 42.070 L74.010 40.780 L69.760 40.780 L69.760 38.740 L74.360 38.740 L74.360 37.440 L69.760 37.440 L69.290 37.440 L68.100 37.440 L68.100 45.430 L69.290 45.430 L69.760 45.430 L74.590 45.430 L74.590 44.100 Z"/>
  <path style="fill:rgb(23,22,21);stroke:none;stroke-width:1.0;" d="M94.250 44.100 L94.250 42.070 L98.500 42.070 L98.500 40.780 L94.250 40.780 L94.250 38.740 L98.850 38.740 L98.850 37.440 L94.250 37.440 L93.780 37.440 L92.590 37.440 L92.590 45.430 L93.780 45.430 L94.250 45.430 L99.080 45.430 L99.080 44.100 Z"/>
  <path style="fill:rgb(23,22,21);stroke:none;stroke-width:1.0;" d="M113.510 44.100 L113.510 42.070 L117.760 42.070 L117.760 40.780 L113.510 40.780 L113.510 38.740 L118.110 38.740 L118.110 37.440 L113.510 37.440 L113.040 37.440 L111.850 37.440 L111.850 45.430 L113.040 45.430 L113.510 45.430 L118.340 45.430 L118.340 44.100 Z"/>
  <path style="fill:rgb(23,22,21);stroke:none;stroke-width:1.0;" d="M118.740 37.440 L120.800 45.440 L122.790 45.450 L124.230 39.100 L125.620 45.460 L127.610 45.460 L129.670 37.440 L127.960 37.440 L126.580 43.780 L125.190 37.430 L123.300 37.430 L121.850 43.790 L120.450 37.440 Z"/>
  <path style="fill:none;stroke:rgb(23,22,21);stroke-width:1.0;" d="M463.450 44.610 L141.500 44.610 "/>
  <g begin="text">
   <text y="55.792" x="48.276,53.804,59.332,64.219,66.147,69.875,74.043,77.675,81.403,85.683,89.155,92.819,96.987,100.483,103.955,105.851,109.515,113.795,117.267,120.931,125.211,128.875,134.403,137.899,139.827,143.299,147.347" svgx:width="0.7,0.7,0.7,0.25,0.48,0.53,0.46,0.48,0.55,0.44,0.47,0.53,0.45,0.44,0.25,0.47,0.55,0.44,0.47,0.55,0.47,0.7,0.45,0.25,0.44,0.52,0.83" style="fill:rgb(23,22,21);font-family:ScalaSansLF-Bold;font-size:8.0px;stroke:none;">www.advancedsciencenews.com</text>
  </g>
  <g begin="text">
   <text y="752.606" x="185.837,190.337,194.837,199.337,203.837,208.337,212.837,217.337,219.587,221.837,224.618,229.118,231.368,236.012,238.604,240.854,245.354" svgx:width="0.5,0.5,0.5,0.5,0.5,0.5,0.5,0.25,0.55,0.31,0.5,0.25,0.52,0.29,0.25,0.5,0.31" style="fill:rgb(23,22,21);font-family:ScalaSansLF-Bold;font-size:9.0px;stroke:none;">1700128 (4 of 9)</text>
   <text y="751.555" x="299.665" svgx:width="1.01" style="fill:rgb(23,22,21);font-family:ScalaSansLF-Regular;font-size:6.0px;stroke:none;">©</text>
   <text y="752.555" x="305.719,307.336,310.836,314.336,317.829,321.329,322.946,326.719,330.471,333.754,335.371,339.536,343.323,345.486,349.238,352.969,355.328,358.457,360.214,361.831,365.723,369.51,373.199,374.872,376.601,379.73,383.482,386.765,390.538,392.155,395.844,398.679,400.296,406.344,408.444,411.909,415.682,419.532,421.464,425.545,429.78,435.177,436.794,440.455,443.738,446.097,447.77,451.102,454.651,456.268,461.224,467.153,470.842,476.239,477.856,482.763,484.38,488.439,492.17,493.927,495.544,499.541,504.497,507.829,511.994,513.758,515.375,521.002,524.285,526.014,529.829,533.581,536.864,538.593" svgx:width="0.25,0.5,0.5,0.5,0.5,0.25,0.54,0.54,0.47,0.25,0.6,0.54,0.31,0.54,0.53,0.34,0.45,0.25,0.25,0.56,0.54,0.53,0.24,0.25,0.45,0.54,0.47,0.54,0.25,0.53,0.41,0.25,0.86,0.3,0.5,0.54,0.55,0.28,0.58,0.61,0.77,0.25,0.58,0.47,0.34,0.24,0.48,0.51,0.25,0.71,0.85,0.53,0.77,0.25,0.7,0.25,0.61,0.53,0.25,0.25,0.57,0.71,0.48,0.6,0.25,0.25,0.86,0.47,0.25,0.55,0.54,0.47,0.25,0.85" style="fill:rgb(23,22,21);font-family:ScalaSansLF-Regular;font-size:7.0px;stroke:none;"> 2017 The Authors. Published by WILEY-VCH Verlag GmbH &amp; Co. KGaA, Weinheim</text>
  </g>
  <path style="fill:rgb(23,22,21);stroke:none;stroke-width:0.5;" d="M476.530 19.210 L474.400 19.210 L468.060 28.520 L470.840 28.520 L471.670 27.170 L474.400 27.170 L474.400 28.520 L476.770 28.520 L476.770 19.210 ZM474.400 22.700 L474.400 25.310 L472.810 25.310 Z"/>
  <path style="fill:rgb(23,22,21);stroke:none;stroke-width:0.5;" d="M483.630 24.410 C483.630 25.550 482.690 26.490 481.550 26.490 L480.260 26.490 L480.260 21.280 L481.550 21.280 C482.690 21.280 483.630 22.210 483.630 23.360 ZM481.770 19.200 L477.880 19.200 L477.880 28.540 L481.770 28.540 C484.060 28.540 485.930 26.670 485.930 24.380 L485.930 23.360 C485.930 21.070 484.060 19.200 481.770 19.200 "/>
  <path style="fill:rgb(23,22,21);stroke:none;stroke-width:0.5;" d="M533.950 24.410 C533.950 25.550 533.010 26.490 531.870 26.490 L530.580 26.490 L530.580 21.280 L531.870 21.280 C533.010 21.280 533.950 22.210 533.950 23.360 ZM532.090 19.200 L528.200 19.200 L528.200 28.540 L532.090 28.540 C534.380 28.540 536.250 26.670 536.250 24.380 L536.250 23.360 C536.250 21.070 534.380 19.200 532.090 19.200 "/>
  <path style="fill:rgb(23,22,21);stroke:none;stroke-width:0.5;" d="M488.860 28.550 L491.250 28.550 L494.360 19.210 L491.980 19.230 L490.060 25.810 L488.110 19.210 L485.740 19.210 Z"/>
  <path style="fill:rgb(23,22,21);stroke:none;stroke-width:0.5;" d="M496.460 25.290 L497.470 21.960 L498.430 25.290 ZM498.330 19.200 L496.510 19.200 L492.790 28.540 L495.310 28.520 L495.840 27.170 L499.030 27.170 L499.550 28.550 L502.100 28.550 Z"/>
  <path style="fill:rgb(23,22,21);stroke:none;stroke-width:0.5;" d="M508.300 19.200 L508.300 24.910 L504.830 19.200 L502.600 19.200 L502.600 28.570 L504.830 28.570 L504.830 22.860 L508.300 28.570 L510.530 28.570 L510.530 19.200 Z"/>
  <path style="fill:rgb(23,22,21);stroke:none;stroke-width:0.5;" d="M524.090 29.270 L524.090 34.910 L520.660 29.270 L518.460 29.270 L518.460 38.520 L520.660 38.520 L520.660 32.880 L524.090 38.520 L526.290 38.520 L526.290 29.270 Z"/>
  <path style="fill:rgb(23,22,21);stroke:none;stroke-width:0.5;" d="M518.640 25.050 C518.230 25.990 517.340 26.650 516.310 26.650 C514.890 26.650 513.740 25.410 513.740 23.880 C513.740 22.350 514.890 21.110 516.310 21.110 C517.350 21.110 518.240 21.780 518.650 22.740 L521.010 22.740 C520.490 20.640 518.590 19.080 516.310 19.080 C513.630 19.080 511.450 21.230 511.450 23.880 C511.450 26.530 513.630 28.680 516.310 28.680 C518.590 28.680 520.480 27.130 521.010 25.050 Z"/>
  <path style="fill:rgb(23,22,21);stroke:none;stroke-width:0.5;" d="M534.510 35.070 C534.100 36.020 533.220 36.680 532.180 36.680 C530.760 36.680 529.610 35.440 529.610 33.910 C529.610 32.380 530.760 31.140 532.180 31.140 C533.220 31.140 534.110 31.810 534.520 32.760 L536.880 32.760 C536.360 30.670 534.460 29.110 532.180 29.110 C529.500 29.110 527.320 31.260 527.320 33.910 C527.320 36.560 529.500 38.710 532.180 38.710 C534.460 38.710 536.350 37.160 536.880 35.070 Z"/>
  <path style="fill:rgb(23,22,21);stroke:none;stroke-width:0.5;" d="M504.770 35.100 C504.360 36.050 503.470 36.710 502.440 36.710 C501.020 36.710 499.870 35.470 499.870 33.940 C499.870 32.410 501.020 31.170 502.440 31.170 C503.480 31.170 504.370 31.840 504.770 32.790 L507.140 32.790 C506.620 30.700 504.720 29.140 502.440 29.140 C499.760 29.140 497.580 31.290 497.580 33.940 C497.580 36.590 499.760 38.740 502.440 38.740 C504.710 38.740 506.610 37.190 507.140 35.100 Z"/>
  <path style="fill:rgb(23,22,21);stroke:none;stroke-width:0.5;" d="M527.030 21.310 L527.030 19.180 L524.160 19.180 L521.820 19.180 L521.820 21.310 L521.820 22.780 L521.820 24.860 L521.820 26.350 L521.820 28.470 L521.820 28.490 L524.160 28.490 L524.160 28.470 L527.030 28.470 L527.030 26.350 L524.160 26.350 L524.160 24.860 L526.900 24.860 L526.900 22.780 L524.160 22.780 L524.160 21.310 Z"/>
  <path style="fill:rgb(23,22,21);stroke:none;stroke-width:0.5;" d="M542.990 31.360 L542.990 29.230 L540.110 29.230 L537.770 29.230 L537.770 31.360 L537.770 32.830 L537.770 34.910 L537.770 36.400 L537.770 38.530 L537.770 38.540 L540.110 38.540 L540.110 38.530 L542.990 38.530 L542.990 36.400 L540.110 36.400 L540.110 34.910 L542.860 34.910 L542.860 32.830 L540.110 32.830 L540.110 31.360 Z"/>
  <path style="fill:rgb(23,22,21);stroke:none;stroke-width:0.5;" d="M517.200 31.400 L517.200 29.270 L514.330 29.270 L511.990 29.270 L511.990 31.400 L511.990 32.870 L511.990 34.950 L511.990 36.430 L511.990 38.560 L511.990 38.580 L514.330 38.580 L514.330 38.560 L517.200 38.560 L517.200 36.430 L514.330 36.430 L514.330 34.950 L517.070 34.950 L517.070 32.870 L514.330 32.870 L514.330 31.400 Z"/>
  <path style="fill:rgb(23,22,21);stroke:none;stroke-width:0.5;" d="M494.620 32.000 L496.960 32.000 C496.960 32.000 497.040 29.090 493.940 29.090 C490.840 29.090 490.600 31.350 490.600 31.920 C490.600 31.920 490.530 33.440 492.560 34.350 C494.200 35.130 494.770 35.150 494.710 35.980 C494.710 35.980 494.580 36.790 493.780 36.740 C492.840 36.690 492.760 35.440 492.760 35.440 L490.470 35.440 C490.470 35.440 490.350 38.760 493.830 38.690 C497.040 38.690 497.040 36.160 497.040 35.730 C497.040 35.730 497.110 34.260 495.470 33.490 C493.840 32.780 492.970 32.520 492.940 31.800 C492.920 31.140 493.540 31.040 493.760 31.020 C494.010 31.010 494.620 31.140 494.620 32.000 "/>
  <path style="fill:rgb(23,22,21);stroke:none;stroke-width:0.5;" d="M516.310 43.540 C516.310 43.240 516.390 42.950 516.520 42.680 L468.050 42.680 L468.050 44.340 L516.490 44.340 C516.380 44.090 516.310 43.820 516.310 43.540 "/>
  <path style="fill:rgb(23,22,21);stroke:none;stroke-width:0.5;" d="M544.250 43.540 C544.250 44.900 542.850 46.010 541.130 46.010 L520.490 46.010 C518.780 46.010 517.370 44.900 517.370 43.540 C517.370 42.190 518.780 41.070 520.490 41.070 L541.130 41.070 C542.850 41.070 544.250 42.190 544.250 43.540 "/>
  <path style="fill:rgb(255,255,255);stroke:none;stroke-width:0.5;" d="M520.530 44.600 C519.890 44.600 519.380 44.090 519.380 43.460 C519.380 42.830 519.890 42.310 520.530 42.310 C521.160 42.310 521.670 42.830 521.670 43.460 C521.670 44.090 521.160 44.600 520.530 44.600 M520.530 41.860 C519.640 41.860 518.930 42.580 518.930 43.460 C518.930 44.340 519.640 45.060 520.530 45.060 C521.410 45.060 522.130 44.340 522.130 43.460 C522.130 42.580 521.410 41.860 520.530 41.860 "/>
  <path style="fill:rgb(255,255,255);stroke:none;stroke-width:0.5;" d="M523.620 44.750 C523.270 44.750 522.980 44.460 522.920 44.100 L522.920 43.830 C522.980 43.460 523.270 43.180 523.620 43.180 C524.020 43.180 524.340 43.530 524.340 43.960 C524.340 44.390 524.020 44.750 523.620 44.750 M523.620 42.870 C523.350 42.870 523.100 42.990 522.920 43.170 L522.920 42.910 L522.480 42.910 L522.480 46.070 L522.920 46.070 L522.920 44.750 C523.100 44.940 523.350 45.060 523.620 45.060 C524.180 45.060 524.630 44.570 524.630 43.960 C524.630 43.360 524.180 42.870 523.620 42.870 "/>
  <path style="fill:rgb(255,255,255);stroke:none;stroke-width:0.5;" d="M526.030 43.240 C526.330 43.240 526.560 43.470 526.640 43.780 L525.430 43.780 C525.500 43.470 525.740 43.240 526.030 43.240 M527.100 43.970 C527.100 43.370 526.620 42.880 526.030 42.880 C525.450 42.880 524.970 43.370 524.970 43.970 C524.970 44.570 525.450 45.060 526.030 45.060 C526.400 45.060 526.710 44.850 526.900 44.560 L526.570 44.350 C526.460 44.560 526.260 44.700 526.030 44.700 C525.730 44.700 525.500 44.460 525.420 44.150 L527.050 44.150 L527.050 44.140 L527.060 44.140 C527.070 44.080 527.100 44.030 527.100 43.970 "/>
  <path style="fill:rgb(255,255,255);stroke:none;stroke-width:0.5;" d="M538.250 43.240 C538.540 43.240 538.780 43.470 538.860 43.780 L537.640 43.780 C537.720 43.470 537.960 43.240 538.250 43.240 M539.310 43.970 C539.310 43.370 538.840 42.880 538.250 42.880 C537.660 42.880 537.190 43.370 537.190 43.970 C537.190 44.570 537.660 45.060 538.250 45.060 C538.620 45.060 538.930 44.850 539.120 44.560 L538.790 44.350 C538.670 44.560 538.480 44.700 538.250 44.700 C537.950 44.700 537.710 44.460 537.640 44.150 L539.270 44.150 L539.270 44.140 L539.280 44.140 C539.290 44.080 539.310 44.030 539.310 43.970 "/>
  <path style="fill:rgb(255,255,255);stroke:none;stroke-width:0.5;" d="M528.490 42.870 C528.240 42.870 528.030 42.980 527.880 43.150 L527.880 42.910 L527.410 42.910 L527.410 45.040 L527.880 45.040 L527.880 43.690 C527.910 43.560 528.030 43.260 528.360 43.260 C528.720 43.260 528.800 43.430 528.800 43.820 L528.800 45.030 L529.270 45.030 L529.270 43.790 C529.270 43.790 529.270 42.870 528.490 42.870 "/>
  <path style="fill:rgb(255,255,255);stroke:none;stroke-width:0.5;" d="M531.090 43.890 L531.650 42.560 L532.180 43.890 ZM532.640 45.040 L533.190 45.040 L531.860 41.960 L531.420 41.960 L530.090 45.040 L530.610 45.040 L530.930 44.260 L532.330 44.260 Z"/>
  <path style="fill:rgb(255,255,255);stroke:none;stroke-width:0.5;" d="M534.800 44.380 C534.680 44.540 534.490 44.650 534.280 44.650 C533.910 44.650 533.610 44.350 533.610 43.970 C533.610 43.590 533.910 43.290 534.280 43.290 C534.470 43.290 534.630 43.370 534.760 43.490 L535.070 43.250 C534.870 43.030 534.600 42.880 534.280 42.880 C533.690 42.880 533.200 43.370 533.200 43.970 C533.200 44.570 533.690 45.060 534.280 45.060 C534.590 45.060 534.870 44.910 535.070 44.690 Z"/>
  <path style="fill:rgb(255,255,255);stroke:none;stroke-width:0.5;" d="M536.830 44.380 C536.710 44.540 536.520 44.650 536.310 44.650 C535.940 44.650 535.640 44.350 535.640 43.970 C535.640 43.590 535.940 43.290 536.310 43.290 C536.500 43.290 536.670 43.370 536.790 43.490 L537.100 43.250 C536.900 43.030 536.630 42.880 536.310 42.880 C535.720 42.880 535.240 43.370 535.240 43.970 C535.240 44.570 535.720 45.060 536.310 45.060 C536.620 45.060 536.900 44.910 537.100 44.690 Z"/>
  <path style="fill:rgb(255,255,255);stroke:none;stroke-width:0.5;" d="M540.710 43.500 L541.040 43.220 C541.040 43.220 540.790 42.910 540.350 42.870 C539.910 42.820 539.570 43.160 539.560 43.550 C539.540 43.940 539.930 44.070 540.130 44.100 C540.320 44.130 540.600 44.210 540.600 44.410 C540.600 44.600 540.430 44.670 540.260 44.670 C540.080 44.670 539.780 44.380 539.780 44.380 L539.490 44.690 C539.490 44.690 539.750 45.060 540.260 45.040 C540.760 45.030 541.050 44.800 541.080 44.380 C541.120 43.950 540.630 43.810 540.400 43.740 C540.230 43.690 540.060 43.610 540.040 43.470 C540.030 43.320 540.340 43.060 540.710 43.500 "/>
  <path style="fill:rgb(255,255,255);stroke:none;stroke-width:0.5;" d="M542.560 43.500 L542.890 43.220 C542.890 43.220 542.640 42.910 542.210 42.870 C541.770 42.820 541.420 43.160 541.410 43.550 C541.390 43.940 541.780 44.070 541.980 44.100 C542.170 44.130 542.450 44.210 542.450 44.410 C542.450 44.600 542.290 44.670 542.110 44.670 C541.930 44.670 541.640 44.380 541.640 44.380 L541.340 44.690 C541.340 44.690 541.600 45.060 542.110 45.040 C542.610 45.030 542.900 44.800 542.940 44.380 C542.970 43.950 542.480 43.810 542.250 43.740 C542.080 43.690 541.910 43.610 541.900 43.470 C541.880 43.320 542.190 43.060 542.560 43.500 "/>
  <g begin="text">
   <text y="55.83" x="455.494,461.022,466.55,471.438,473.366,477.094,481.262,484.894,488.622,492.902,496.374,500.038,504.206,507.702,511.174,513.07,516.734,521.014,524.486,528.15,530.078,533.55,537.598" svgx:width="0.7,0.7,0.7,0.25,0.48,0.53,0.46,0.48,0.55,0.44,0.47,0.53,0.45,0.44,0.25,0.47,0.55,0.44,0.47,0.25,0.44,0.52,0.83" style="fill:rgb(23,22,21);font-family:ScalaSansLF-Bold;font-size:8.0px;stroke:none;">www.advancedscience.com</text>
  </g>
  <g begin="text">
   <text y="358.249" x="48.189,53.301,57.45,60.843,64.992,67.242,69.969,72.66,77.772,81.885,84.576,86.826,89.553,92.244,97.356,101.505,103.755,106.482,110.631,113.034,117.183,121.053,123.744,127.137,129.675,133.545,137.658,140.061,142.311,145.038,148.431,152.58,156.369,158.907,162.696,165.387,169.5,174.729,178.599,182.748,184.998,187.725,192.27,195.177,197.427,200.154,204.302,210.251,215.651,219.332,223.202,227.315,230.708,235.442,239.987,245.216,247.466,250.193,254.063,258.608,266.555,271.397,275.942,279.731,282.269,284.96,289.109" svgx:width="0.57,0.46,0.38,0.46,0.25,0.55,0.3,0.57,0.46,0.3,0.25,0.55,0.3,0.57,0.46,0.25,0.55,0.46,0.27,0.46,0.43,0.3,0.38,0.28,0.43,0.46,0.27,0.25,0.55,0.38,0.46,0.42,0.28,0.42,0.3,0.46,0.58,0.43,0.46,0.25,0.55,0.5,0.32,0.25,0.55,0.53,0.66,0.6,0.41,0.43,0.46,0.38,0.53,0.5,0.58,0.25,0.55,0.43,0.5,0.88,0.54,0.5,0.42,0.28,0.3,0.46,0.25" style="fill:rgb(23,22,21);font-family:ScalaLF-Regular;font-size:9.0px;stroke:none;">here that the electrical resistance of LVP/carbon composite </text>
   <text y="369.247" x="48.189,54.543,58.656,62.445,64.695,66.526,70.639,73.042,76.831,81.376,83.626,85.462,88.0,93.229,97.099,100.492,104.641,108.754,112.543,116.692,121.48,123.73,125.566,129.68,133.469,135.719,137.55,140.241,145.353,149.502,151.752,153.588,158.7,162.849,166.962,169.653,172.128,174.819,178.212,182.361,186.474,189.165,197.112,201.261,206.49,209.181,211.431,213.263,215.954,218.492,226.439,230.588,232.838,234.674,241.028,245.141,248.93,251.18,253.011,257.16,261.093,263.784,267.933,273.162,277.95,282.099,286.887,289.137" svgx:width="0.71,0.46,0.42,0.25,0.55,0.46,0.27,0.42,0.5,0.25,0.55,0.28,0.58,0.43,0.38,0.46,0.46,0.42,0.46,0.53,0.25,0.55,0.46,0.42,0.25,0.55,0.3,0.57,0.46,0.25,0.55,0.57,0.46,0.46,0.3,0.28,0.3,0.38,0.46,0.46,0.3,0.88,0.46,0.58,0.3,0.25,0.55,0.3,0.28,0.88,0.46,0.25,0.55,0.71,0.46,0.42,0.25,0.55,0.46,0.44,0.3,0.46,0.58,0.53,0.46,0.53,0.25,0.25" style="fill:rgb(23,22,21);font-family:ScalaLF-Regular;font-size:9.0px;stroke:none;">was also increased as the heat-treatment time was extended. </text>
   <text y="380.245" x="48.189,54.237,56.64,59.331,64.443,68.988,74.118,78.681,83.793,86.043,87.627,90.318,95.43,99.579,101.829,103.413,107.283,111.396,114.789,119.523,124.068,129.297,131.547,133.131,137.001,141.546,146.775,149.466,153.615,158.844,161.535,165.324,167.574,169.158,171.696,176.925,179.175,180.759,183.45,188.562,192.711,194.961,196.545,200.334,204.447,212.394,217.236,219.639,223.788,227.577,229.827,231.411,236.199,240.348,244.218,247.611,251.76,255.873,259.662,263.811,268.599,270.849,272.433,278.787,281.325,284.016,289.128" svgx:width="0.67,0.27,0.3,0.57,0.5,0.57,0.51,0.57,0.25,0.55,0.3,0.57,0.46,0.25,0.55,0.43,0.46,0.38,0.53,0.5,0.58,0.25,0.55,0.43,0.5,0.58,0.3,0.46,0.58,0.3,0.42,0.25,0.55,0.28,0.58,0.25,0.55,0.3,0.57,0.46,0.25,0.55,0.42,0.46,0.88,0.54,0.27,0.46,0.42,0.25,0.55,0.53,0.46,0.43,0.38,0.46,0.46,0.42,0.46,0.53,0.25,0.55,0.71,0.28,0.3,0.57,0.25" style="fill:rgb(23,22,21);font-family:ScalaLF-Regular;font-size:9.0px;stroke:none;">Although the carbon contents in the samples decreased with </text>
   <text y="391.243" x="48.189,50.88,55.992,60.141,62.391,63.678,66.216,71.445,75.315,78.708,82.857,90.804,94.953,100.182,102.873,105.123,106.41,110.955,113.862,116.112,117.399,122.511,126.66,130.773,133.464,135.939,138.63,142.023,146.172,150.285,152.976,160.923,165.072,170.301,172.992,175.242,176.529,179.22,181.758,189.705,193.854,196.104,198.354,199.641,202.332,207.444,211.593,213.843,215.13,219.972,223.365,227.514,231.303,235.452,240.681,244.551,248.7,250.95,252.237,256.782,259.689,261.939,263.226,267.096,271.209,274.602,279.336,283.881,289.11" svgx:width="0.3,0.57,0.46,0.25,0.55,0.28,0.58,0.43,0.38,0.46,0.88,0.46,0.58,0.3,0.25,0.55,0.5,0.32,0.25,0.55,0.57,0.46,0.46,0.3,0.28,0.3,0.38,0.46,0.46,0.3,0.88,0.46,0.58,0.3,0.25,0.55,0.3,0.28,0.88,0.46,0.25,0.25,0.55,0.3,0.57,0.46,0.25,0.55,0.54,0.38,0.46,0.42,0.46,0.58,0.43,0.46,0.25,0.55,0.5,0.32,0.25,0.55,0.43,0.46,0.38,0.53,0.5,0.58,0.25" style="fill:rgb(23,22,21);font-family:ScalaLF-Regular;font-size:9.0px;stroke:none;">the increment of heat-treatment time, the presence of carbon </text>
   <text y="402.241" x="48.189,50.727,55.956,58.35,62.499,68.448,73.848,76.242,80.031,84.144,92.091,96.933,99.336,103.485,107.274,109.668,112.071,116.616,121.161,125.733,129.522,131.916,135.786,138.189,142.338,146.451,149.844,152.247,156.234,158.628,163.362,167.511,172.74,176.889,182.136,186.006,188.544,192.657,195.06,197.454,200.145,204.69,207.084,209.622,217.569,222.411,225.804,230.349,234.327,238.476,240.87,243.408,246.099,249.888,252.282,256.431,258.834,262.983,266.853,269.544,272.937,277.482,282.711,285.249,289.119" svgx:width="0.28,0.58,0.25,0.53,0.66,0.6,0.25,0.42,0.46,0.88,0.54,0.27,0.46,0.42,0.25,0.27,0.5,0.5,0.51,0.42,0.25,0.43,0.27,0.46,0.46,0.38,0.27,0.44,0.25,0.53,0.46,0.58,0.46,0.58,0.43,0.28,0.46,0.27,0.25,0.3,0.5,0.25,0.28,0.88,0.54,0.38,0.5,0.44,0.46,0.25,0.28,0.3,0.42,0.25,0.46,0.27,0.46,0.43,0.3,0.38,0.5,0.58,0.28,0.43,0.25" style="fill:rgb(23,22,21);font-family:ScalaLF-Regular;font-size:9.0px;stroke:none;">in LVP samples looks clearly beneficial to improve its electronic </text>
   <text y="413.239" x="48.189,52.059,56.604,61.833,66.621,71.751,75.621,78.312,80.85,84.828,87.366,90.057,93.323" svgx:width="0.43,0.5,0.58,0.53,0.57,0.43,0.3,0.28,0.44,0.28,0.3,0.44,0.25" style="fill:rgb(23,22,21);font-family:ScalaLF-Regular;font-size:9.0px;stroke:none;">conductivity.</text>
   <text y="424.237" x="58.188,66.27,70.788,74.154,78.969,84.054,88.572,90.948,95.466,100.002,102.513,106.356,110.442,112.818,115.068,116.499,120.342,125.427,129.513,134.715,139.251,143.373,147.135,149.385,150.816,155.334,158.214,160.464,161.895,166.016,171.938,177.311,180.965,184.808,188.894,192.26,196.967,201.485,206.687,208.937,210.368,214.211,218.729,226.649,231.464,235.982,239.744,242.255,244.919,249.041,252.803,255.053,256.484,262.811,265.322,267.986,273.071,275.321,276.752,281.513,284.024,286.644" svgx:width="0.9,0.5,0.38,0.54,0.57,0.5,0.27,0.5,0.51,0.28,0.43,0.46,0.27,0.25,0.55,0.43,0.57,0.46,0.58,0.51,0.46,0.42,0.25,0.55,0.5,0.32,0.25,0.55,0.53,0.66,0.6,0.41,0.43,0.46,0.38,0.53,0.5,0.58,0.25,0.55,0.43,0.5,0.88,0.54,0.5,0.42,0.28,0.3,0.46,0.42,0.25,0.55,0.71,0.28,0.3,0.57,0.25,0.55,0.53,0.28,0.32,0.28" style="fill:rgb(23,22,21);font-family:ScalaLF-Regular;font-size:9.0px;stroke:none;">Morphological changes of LVP/carbon composites with dif-</text>
   <text y="435.235" x="48.189,51.069,55.191,58.557,62.679,67.881,70.545,72.75,77.835,81.957,86.043,88.707,91.155,93.819,97.185,101.307,105.393,108.057,115.977,120.099,125.301,127.965,130.17,132.834,135.345,143.265,147.387,149.592,155.919,160.041,163.407,167.529,169.734,172.245,177.447,181.398,185.52,189.282,191.946,194.457,198.993,203.079,205.743,209.865,214.626,216.831,223.158,225.669,228.333,233.418,235.623,239.385,243.228,247.314,252.516,257.718,260.229,265.431,269.967,272.172,276.294,278.67,282.792,286.635" svgx:width="0.32,0.46,0.38,0.46,0.58,0.3,0.25,0.57,0.46,0.46,0.3,0.28,0.3,0.38,0.46,0.46,0.3,0.88,0.46,0.58,0.3,0.25,0.3,0.28,0.88,0.46,0.25,0.71,0.46,0.38,0.46,0.25,0.28,0.58,0.44,0.46,0.42,0.3,0.28,0.51,0.46,0.3,0.46,0.53,0.25,0.71,0.28,0.3,0.57,0.25,0.42,0.43,0.46,0.58,0.58,0.28,0.58,0.51,0.25,0.46,0.27,0.46,0.43,0.28" style="fill:rgb(23,22,21);font-family:ScalaLF-Regular;font-size:9.0px;stroke:none;">ferent heat-treatment time were investigated with scanning elec-</text>
   <text y="446.233" x="48.189,50.853,54.219,58.737,63.939,66.468,74.388,76.899,80.742,84.108,88.626,92.388,96.231,100.749,105.564,109.686,112.215,114.969,120.0,125.202,133.284,136.038,138.567" svgx:width="0.3,0.38,0.5,0.58,0.25,0.88,0.28,0.43,0.38,0.5,0.42,0.43,0.5,0.54,0.46,0.25,0.31,0.56,0.58,0.9,0.31,0.25,0.31" style="fill:rgb(23,22,21);font-family:ScalaLF-Regular;font-size:9.0px;stroke:none;">tron microscope (SEM) (</text>
   <text y="446.233" x="141.321,146.163,148.674,153.21,158.313,161.679" svgx:width="0.57,0.28,0.51,0.57,0.38,0.46" style="fill:rgb(23,22,21);font-family:ScalaLF-Bold;font-size:9.0px;stroke:none;">Figure</text>
   <text y="446.233" x="165.801" svgx:width="0.25" style="fill:rgb(23,22,21);font-family:ScalaLF-Regular;font-size:9.0px;stroke:none;"> </text>
   <text y="446.233" x="168.339" svgx:width="0.5" style="fill:rgb(23,22,21);font-family:ScalaLF-Bold;font-size:9.0px;stroke:none;">3</text>
   <text y="446.233" x="172.812,176.898,181.371,185.214,187.968,190.497,194.583,199.785,204.546,207.075,209.739,213.105,217.191,222.393,226.155,234.075,236.586,240.348,244.11,246.621,251.139,256.341,258.87,262.992,265.368,269.49,273.333,275.997,279.363,283.881,289.11" svgx:width="0.46,0.5,0.43,0.31,0.25,0.46,0.58,0.53,0.25,0.3,0.38,0.46,0.58,0.42,0.88,0.28,0.42,0.42,0.28,0.5,0.58,0.25,0.46,0.27,0.46,0.43,0.3,0.38,0.5,0.58,0.25" style="fill:rgb(23,22,21);font-family:ScalaLF-Regular;font-size:9.0px;stroke:none;">a–c) and transmission electron </text>
   <text y="457.231" x="48.189,56.109,58.62,62.463,65.829,70.347,74.109,77.952,82.47,87.285,91.407,93.423,96.177,101.55,106.752,114.834,117.588,119.604,123.69,128.892,132.978,135.354,139.314,143.076,147.198,150.96,152.976,155.73,160.571,163.082,167.618,172.721,176.087,180.209,182.225,186.698,191.459,195.932,199.135,201.889,204.112,206.128,210.952,213.463,217.999,223.201,225.712,230.932,234.775,238.861,244.063,246.727,248.743,252.586,257.671,261.757,266.959,271.495,275.617,279.379,281.395,283.906,289.135" svgx:width="0.88,0.28,0.43,0.38,0.5,0.42,0.43,0.5,0.54,0.46,0.25,0.31,0.6,0.58,0.9,0.31,0.25,0.46,0.58,0.46,0.27,0.44,0.42,0.46,0.42,0.25,0.31,0.57,0.28,0.51,0.57,0.38,0.46,0.25,0.5,0.53,0.5,0.32,0.31,0.25,0.25,0.56,0.28,0.51,0.58,0.28,0.58,0.43,0.46,0.58,0.3,0.25,0.43,0.57,0.46,0.58,0.51,0.46,0.42,0.25,0.28,0.58,0.25" style="fill:rgb(23,22,21);font-family:ScalaLF-Regular;font-size:9.0px;stroke:none;">microscope (TEM) analyses (Figure 3d–f). Significant changes in </text>
   <text y="468.229" x="48.189,50.853,55.938,60.06,62.337,67.152,71.238,74.604,77.268,79.779,83.622,85.998,90.12,92.397,96.159,98.67,102.864,106.986,109.263,113.781,116.661,118.938,123.059,128.981,134.354,136.631,140.717,145.919,150.68,152.957,155.621,160.706,164.828,167.105,175.025,179.543,182.909,187.724,192.809,197.327,199.703,204.221,208.757,212.717,214.994,219.512,222.392,224.669,228.512,232.598,235.964,240.671,245.189,250.391,252.668,257.87,261.956,267.158,271.676,276.896,281.603,285.725,289.118" svgx:width="0.3,0.57,0.46,0.25,0.54,0.46,0.38,0.3,0.28,0.43,0.27,0.46,0.25,0.42,0.28,0.47,0.46,0.25,0.5,0.32,0.25,0.53,0.66,0.6,0.25,0.46,0.58,0.53,0.25,0.3,0.57,0.46,0.25,0.88,0.5,0.38,0.54,0.57,0.5,0.27,0.5,0.51,0.44,0.25,0.5,0.32,0.25,0.43,0.46,0.38,0.53,0.5,0.58,0.25,0.58,0.46,0.58,0.5,0.58,0.53,0.46,0.38,0.25" style="fill:rgb(23,22,21);font-family:ScalaLF-Regular;font-size:9.0px;stroke:none;">the particle size of LVP and the morphology of carbon nanofiber </text>
   <text y="479.227" x="48.189,54.516,58.638,62.004,66.126,68.376,69.753,74.271,78.978,82.74,86.862,90.228,94.179,98.301,103.062,105.312,106.689,110.775,114.537,116.787,118.164,120.828,125.913,130.035,132.285,133.662,138.747,142.869,146.955,149.619,152.067,154.731,158.097,162.219,166.305,168.969,176.889,181.011,186.213,188.877,191.127,192.504,195.168,197.679,205.599,209.721,211.971,213.348,215.859,221.061,224.904,228.27,232.392,236.478,240.24,244.362,249.123,251.346,253.596,254.973,259.725,264.243,267.609,269.859,271.236,275.357,281.279,286.652" svgx:width="0.71,0.46,0.38,0.46,0.25,0.55,0.5,0.53,0.42,0.46,0.38,0.44,0.46,0.53,0.25,0.55,0.46,0.42,0.25,0.55,0.3,0.57,0.46,0.25,0.55,0.57,0.46,0.46,0.3,0.28,0.3,0.38,0.46,0.46,0.3,0.88,0.46,0.58,0.3,0.25,0.55,0.3,0.28,0.88,0.46,0.25,0.55,0.28,0.58,0.43,0.38,0.46,0.46,0.42,0.46,0.53,0.25,0.25,0.55,0.57,0.5,0.38,0.25,0.55,0.53,0.66,0.6,0.28" style="fill:rgb(23,22,21);font-family:ScalaLF-Regular;font-size:9.0px;stroke:none;">were observed as the heat-treatment time increased. For LVP-</text>
   <text y="490.225" x="48.189,53.409,58.116,62.238,65.604,67.854,69.96,73.722,77.808,85.728,90.543,92.919,97.041,99.291,101.397,104.151,108.993,111.504,116.04,121.143,124.509,128.631,130.881,132.987,137.46,141.546,143.769,148.53,151.284,153.507,155.757,157.863,160.374,163.038,165.288,167.394,171.156,176.241,180.759,187.086,190.848,193.098,195.204,198.966,206.886,211.404,215.922,218.586,223.671,226.119,229.881,234.984,238.35,241.23,245.316,249.159,253.281,258.042,260.292,262.398,267.618,272.325,275.691,280.209,285.312,289.101" svgx:width="0.58,0.53,0.46,0.38,0.25,0.55,0.42,0.46,0.88,0.54,0.27,0.46,0.25,0.55,0.31,0.57,0.28,0.51,0.57,0.38,0.46,0.25,0.55,0.5,0.46,0.25,0.53,0.31,0.25,0.25,0.55,0.28,0.3,0.25,0.55,0.42,0.57,0.5,0.71,0.42,0.25,0.55,0.42,0.88,0.5,0.5,0.3,0.57,0.28,0.42,0.57,0.38,0.32,0.46,0.43,0.46,0.53,0.25,0.55,0.58,0.53,0.38,0.5,0.57,0.42,0.25" style="fill:rgb(23,22,21);font-family:ScalaLF-Regular;font-size:9.0px;stroke:none;">fiber sample (Figure 3a,d), it shows smooth-surfaced fibrous </text>
   <text y="501.223" x="48.189,51.951,54.615,57.981,63.084,66.927,69.591,74.694,78.06,82.182,84.432,85.823,92.15,94.661,97.325,102.41,106.928,112.031,114.695,116.945,118.335,122.421,127.623,131.583,133.833,135.224,139.985,142.496,146.258,148.922,151.433,156.635,160.478,163.142,165.392,166.782,170.625,175.71,179.796,183.162,187.248,191.091,193.755,197.877,201.243,203.754,207.516,210.18,212.691,216.534,220.296,222.519,224.769,226.16,232.487,237.572,240.083,243.926,249.011,251.261,252.651,255.162,258.924,261.174,262.565,266.327,268.838,276.758,279.269,281.645,285.731,289.124" svgx:width="0.42,0.3,0.38,0.57,0.43,0.3,0.57,0.38,0.46,0.25,0.55,0.71,0.28,0.3,0.57,0.5,0.57,0.3,0.25,0.55,0.46,0.58,0.44,0.25,0.55,0.53,0.28,0.42,0.3,0.28,0.58,0.43,0.3,0.25,0.55,0.43,0.57,0.46,0.38,0.46,0.43,0.3,0.46,0.38,0.28,0.42,0.3,0.28,0.43,0.42,0.25,0.25,0.55,0.71,0.57,0.28,0.43,0.57,0.25,0.55,0.28,0.42,0.25,0.55,0.42,0.28,0.88,0.28,0.27,0.46,0.38,0.25" style="fill:rgb(23,22,21);font-family:ScalaLF-Regular;font-size:9.0px;stroke:none;">structure without any distinct characteristics, which is similar </text>
   <text y="512.221" x="48.189,50.853,55.371,57.621,58.98,61.644,66.729,70.815,73.479,75.729,77.088,81.606,84.486,86.736,88.095,92.181,95.943,98.391,102.513,104.889,109.011,112.854,115.518,118.884,123.402,127.164,131.979,137.082,142.284,144.534,145.893,151.095,155.181,160.383,164.901,170.121,174.828,178.95,182.316,186.078,188.328,189.687,194.394,198.516,201.396,205.914,209.28,213.402,215.652,217.011,221.097,226.299,230.259,232.509,233.868,238.953,243.075,247.161,249.825,252.273,254.937,258.303,262.425,266.511,269.175,277.095,281.217,286.419,289.11" svgx:width="0.3,0.5,0.25,0.55,0.3,0.57,0.46,0.3,0.25,0.55,0.5,0.32,0.25,0.55,0.46,0.42,0.28,0.46,0.27,0.46,0.43,0.3,0.38,0.5,0.42,0.54,0.57,0.58,0.25,0.55,0.58,0.46,0.58,0.5,0.58,0.53,0.46,0.38,0.42,0.25,0.55,0.53,0.46,0.32,0.5,0.38,0.46,0.25,0.55,0.46,0.58,0.44,0.25,0.55,0.57,0.46,0.46,0.3,0.28,0.3,0.38,0.46,0.46,0.3,0.88,0.46,0.58,0.3,0.25" style="fill:rgb(23,22,21);font-family:ScalaLF-Regular;font-size:9.0px;stroke:none;">to that of as-electrospun nanofibers before any heat-treatment </text>
   <text y="523.219" x="48.189,50.7,55.902,58.152,59.016,63.857,66.368,70.904,76.007,79.373,83.495,85.745,86.609,91.64,96.113,100.199,102.449,103.313,106.067,110.819,115.922,120.737,125.552,130.07,133.436,136.1,138.611,143.813,148.349,150.599,151.463,154.784,159.986,162.866,167.384,170.75,178.67,182.756,185.42,187.931,192.449,197.651,200.405,202.628,204.878,205.742,213.257,217.775,224.102,228.224,232.175,236.297,238.943,241.166,243.416,244.28,248.401,254.323,259.696,263.35,267.193,271.279,274.645,279.352,283.87,289.099" svgx:width="0.28,0.58,0.25,0.55,0.57,0.28,0.51,0.57,0.38,0.46,0.25,0.55,0.56,0.5,0.46,0.25,0.55,0.31,0.56,0.57,0.54,0.54,0.5,0.38,0.3,0.28,0.58,0.51,0.25,0.55,0.37,0.58,0.32,0.5,0.38,0.88,0.46,0.3,0.28,0.5,0.58,0.31,0.25,0.25,0.55,0.84,0.5,0.71,0.46,0.44,0.46,0.38,0.25,0.25,0.55,0.53,0.66,0.6,0.41,0.43,0.46,0.38,0.53,0.5,0.58,0.25" style="fill:rgb(23,22,21);font-family:ScalaLF-Regular;font-size:9.0px;stroke:none;">in Figure S3a (Supporting Information). However, LVP/carbon </text>
   <text y="534.217" x="48.189,52.032,56.55,64.47,69.285,73.803,77.565,80.076,82.74,86.862,89.112,91.146,96.249,101.451,106.212,110.334,113.7,120.027,124.149,129.351,132.015,134.265,136.299,140.385,145.587,147.837,149.871,152.382,157.584,160.248,164.37,167.736,171.858,175.62,178.284,180.795,185.997,190.533,192.783,194.817,199.353,202.719,206.805,211.566,216.669,220.755,223.131,225.381,227.415,231.258,236.343,240.429,245.631,250.167,254.289,256.539,258.573,262.659,266.421,268.671,270.705,275.79,279.912,283.998,286.662" svgx:width="0.43,0.5,0.88,0.54,0.5,0.42,0.28,0.3,0.46,0.25,0.55,0.57,0.58,0.53,0.46,0.38,0.71,0.46,0.58,0.3,0.25,0.55,0.46,0.58,0.25,0.55,0.28,0.58,0.3,0.46,0.38,0.46,0.42,0.3,0.28,0.58,0.51,0.25,0.55,0.51,0.38,0.46,0.53,0.57,0.46,0.27,0.25,0.55,0.43,0.57,0.46,0.58,0.51,0.46,0.25,0.55,0.46,0.42,0.25,0.55,0.57,0.46,0.46,0.3,0.28" style="fill:rgb(23,22,21);font-family:ScalaLF-Regular;font-size:9.0px;stroke:none;">composite underwent an interesting gradual change as heat-</text>
   <text y="545.215" x="48.189,50.853,54.219,58.341,62.427,65.091,73.011,77.133,82.335,84.999,87.249,88.347,91.011,93.522,101.442,105.564,107.814,108.912,111.423,116.625,120.468,123.834,127.956,132.042,135.804,139.926,144.687,146.91,149.16,150.258,158.709,163.794,167.916,173.118,175.368,176.466,181.551,185.673,189.759,192.423,194.871,197.535,200.901,205.023,209.109,211.773,219.693,223.815,229.017,231.681,233.931,235.029,237.693,240.204,248.124,252.246,254.496,255.594,261.921,266.007,269.769,272.019,273.117,277.635,281.586,285.708,289.101,289.119" svgx:width="0.3,0.38,0.46,0.46,0.3,0.88,0.46,0.58,0.3,0.25,0.55,0.3,0.28,0.88,0.46,0.25,0.55,0.28,0.58,0.43,0.38,0.46,0.46,0.42,0.46,0.53,0.25,0.25,0.55,0.94,0.57,0.46,0.58,0.25,0.55,0.57,0.46,0.46,0.3,0.28,0.3,0.38,0.46,0.46,0.3,0.88,0.46,0.58,0.3,0.25,0.55,0.3,0.28,0.88,0.46,0.25,0.55,0.71,0.46,0.42,0.25,0.55,0.5,0.44,0.46,0.38,0.25,0.25" style="fill:rgb(23,22,21);font-family:ScalaLF-Regular;font-size:9.0px;stroke:none;">treatment time increased. When heat-treatment time was over </text>
   <text y="556.213" x="48.189,52.662,54.921,60.006,62.229,64.488,68.609,74.531,79.904,82.163,86.978,91.064,94.43,97.094,99.605,103.448,105.824,109.946,113.708,115.967,118.478,123.68,125.939,128.603,133.688,137.81,140.069,143.912,148.43,156.35,161.165,165.683,169.445,171.956,174.62,178.742,181.001,185.708,189.83,194.366,198.452,203.654,205.913,208.577,213.095,215.354,219.89,223.256,227.774,234.101,236.36,241.463,246.278,248.537,253.055,256.421,258.68,262.766,267.302,271.838,274.214,278.732,286.652" svgx:width="0.5,0.25,0.57,0.25,0.25,0.53,0.66,0.6,0.25,0.54,0.46,0.38,0.3,0.28,0.43,0.27,0.46,0.42,0.25,0.28,0.58,0.25,0.3,0.57,0.46,0.25,0.43,0.5,0.88,0.54,0.5,0.42,0.28,0.3,0.46,0.25,0.53,0.46,0.51,0.46,0.58,0.25,0.3,0.5,0.25,0.51,0.38,0.5,0.71,0.25,0.57,0.54,0.25,0.5,0.38,0.25,0.46,0.51,0.51,0.27,0.5,0.88,0.28" style="fill:rgb(23,22,21);font-family:ScalaLF-Regular;font-size:9.0px;stroke:none;">1 h, LVP particles in the composite began to grow up or agglom-</text>
   <text y="567.211" x="48.189,52.311,55.677,59.763,62.427,66.549,68.799,70.833,74.919,78.681,80.931,82.965,86.727,91.812,96.33,102.657,107.859,110.109,112.143,114.654,119.856,122.106,124.14,128.982,131.493,136.029,141.132,144.498,148.62,150.87,152.904,157.935,162.408,167.115,169.365,171.399,174.153,178.905,184.008,188.823,193.638,198.156,201.522,204.186,206.697,211.899,216.435,218.685,220.719,224.04,229.242,232.122,236.64,240.006,247.926,252.012,254.676,257.187,261.705,266.907,269.661,271.911,273.945,277.311,281.433,286.635" svgx:width="0.46,0.38,0.46,0.3,0.46,0.25,0.55,0.46,0.42,0.25,0.55,0.42,0.57,0.5,0.71,0.58,0.25,0.55,0.28,0.58,0.25,0.55,0.57,0.28,0.51,0.57,0.38,0.46,0.25,0.55,0.56,0.5,0.53,0.25,0.55,0.31,0.56,0.57,0.54,0.54,0.5,0.38,0.3,0.28,0.58,0.51,0.25,0.55,0.37,0.58,0.32,0.5,0.38,0.88,0.46,0.3,0.28,0.5,0.58,0.31,0.25,0.55,0.38,0.46,0.58,0.28" style="fill:rgb(23,22,21);font-family:ScalaLF-Regular;font-size:9.0px;stroke:none;">erate as shown in Figure S3b (Supporting Information) ren-</text>
   <text y="578.209" x="48.189,52.95,57.072,60.438,62.949,68.151,72.687,75.027,79.545,83.496,87.582,89.958,92.298,97.113,101.199,104.565,107.229,109.74,113.583,115.959,120.081,123.843,126.183,128.847,133.365,135.705,140.412,144.534,146.874,150.96,156.162,160.005,165.09,169.608,172.974,177.096,181.857,184.197,186.708,191.91,194.25,198.093,202.179,205.545,210.252,214.77,219.972,222.312,227.514,231.6,236.802,241.32,246.54,251.247,255.369,258.735,262.497,264.72,267.06,272.433,277.518,281.64,286.842,289.092" svgx:width="0.53,0.46,0.38,0.28,0.58,0.51,0.25,0.5,0.44,0.46,0.27,0.25,0.54,0.46,0.38,0.3,0.28,0.43,0.27,0.46,0.42,0.25,0.3,0.5,0.25,0.53,0.46,0.25,0.46,0.58,0.43,0.57,0.5,0.38,0.46,0.53,0.25,0.28,0.58,0.25,0.43,0.46,0.38,0.53,0.5,0.58,0.25,0.58,0.46,0.58,0.5,0.58,0.53,0.46,0.38,0.42,0.25,0.25,0.6,0.57,0.46,0.58,0.25,0.25" style="fill:rgb(23,22,21);font-family:ScalaLF-Regular;font-size:9.0px;stroke:none;">dering oval particles to be anchored in carbon nanofibers. Then, </text>
   <text y="589.207" x="48.189,50.853,55.938,60.06,62.31,63.291,67.053,69.564,73.758,77.88,80.13,81.111,85.629,88.509,90.759,91.74,95.861,101.783,107.156,109.406,110.387,115.202,119.288,122.654,125.318,127.829,131.672,134.048,138.17,141.932,144.182,145.163,149.87,153.992,157.835,161.921,169.841,173.963,176.213,177.194,181.901,184.412,188.948,193.484,197.606,200.972,203.222,204.203,210.53,215.615,218.126,220.502,224.624,226.874,227.855,230.519,235.604,239.726,241.976,242.957,245.621,250.706,253.217,257.06,261.605,266.807,270.929,274.691,278.453,280.703,281.684,286.202,289.11" svgx:width="0.3,0.57,0.46,0.25,0.55,0.42,0.28,0.47,0.46,0.25,0.55,0.5,0.32,0.25,0.55,0.53,0.66,0.6,0.25,0.55,0.54,0.46,0.38,0.3,0.28,0.43,0.27,0.46,0.42,0.25,0.55,0.53,0.46,0.43,0.46,0.88,0.46,0.25,0.55,0.53,0.28,0.51,0.51,0.46,0.38,0.25,0.55,0.71,0.57,0.28,0.27,0.46,0.25,0.55,0.3,0.57,0.46,0.25,0.55,0.3,0.57,0.28,0.43,0.51,0.58,0.46,0.42,0.42,0.25,0.55,0.5,0.32,0.25" style="fill:rgb(23,22,21);font-family:ScalaLF-Regular;font-size:9.0px;stroke:none;">the size of LVP particles became bigger while the thickness of </text>
   <text y="600.205" x="48.189,52.032,56.118,59.484,64.191,68.709,73.911,76.161,77.457,82.659,86.745,91.947,96.465,101.685,106.392,110.514,113.88,117.642,119.892,121.188,125.895,130.017,133.86,137.946,145.866,149.988,152.238,153.534,156.198,161.283,163.794,168.996,174.198,178.32,180.966,183.189,185.439,186.735,195.186,200.271,204.393,209.595,211.845,213.141,218.226,222.348,226.434,229.098,231.546,234.21,237.576,241.698,245.784,248.448,256.368,260.49,265.692,268.356,270.606,271.902,274.566,277.077,284.997,289.146" svgx:width="0.43,0.46,0.38,0.53,0.5,0.58,0.25,0.55,0.58,0.46,0.58,0.5,0.58,0.53,0.46,0.38,0.42,0.25,0.55,0.53,0.46,0.43,0.46,0.88,0.46,0.25,0.55,0.3,0.57,0.28,0.58,0.58,0.46,0.38,0.25,0.25,0.55,0.94,0.57,0.46,0.58,0.25,0.55,0.57,0.46,0.46,0.3,0.28,0.3,0.38,0.46,0.46,0.3,0.88,0.46,0.58,0.3,0.25,0.55,0.3,0.28,0.88,0.46,0.25" style="fill:rgb(23,22,21);font-family:ScalaLF-Regular;font-size:9.0px;stroke:none;">carbon nanofibers became thinner. When heat-treatment time </text>
   <text y="611.203" x="48.189,51.555,55.677,59.763,63.606,68.691,72.813,77.574,80.193,84.666,87.285,92.37,94.989,97.743,101.864,107.786,113.159,115.607,120.422,124.508,127.874,130.538,133.049,136.892,139.268,143.39,147.044,152.264,156.971,161.093,164.459,167.213,169.436,172.055,174.566,177.23,179.849,183.611,188.696,193.214,199.541,203.663,208.424,211.043,215.858,219.224,223.742,226.406,229.772,234.875,239.636,243.758,248.519,251.138,255.259,261.181,266.554,269.173,273.988,278.074,281.44,284.104,286.615" svgx:width="0.38,0.46,0.46,0.43,0.57,0.46,0.53,0.25,0.5,0.25,0.57,0.25,0.31,0.53,0.66,0.6,0.28,0.54,0.46,0.38,0.3,0.28,0.43,0.27,0.46,0.41,0.58,0.53,0.46,0.38,0.31,0.25,0.25,0.28,0.3,0.25,0.42,0.57,0.5,0.71,0.46,0.53,0.25,0.54,0.38,0.5,0.3,0.38,0.57,0.53,0.46,0.53,0.25,0.53,0.66,0.6,0.25,0.54,0.46,0.38,0.3,0.28,0.28" style="fill:rgb(23,22,21);font-family:ScalaLF-Regular;font-size:9.0px;stroke:none;">reached 4 h (LVP-particle/fiber), it showed protruded LVP parti-</text>
   <text y="622.201" x="48.189,52.032,54.408,58.53,62.292,65.001,69.087,74.289,79.05,81.759,85.602,89.688,93.054,97.761,102.279,107.481,110.19,115.392,119.478,124.68,129.198,134.418,139.125,143.247,146.613,150.375,153.084,157.17,160.932,163.641,167.403,172.488,177.006,183.333,188.535,191.244,193.755,198.957,201.666,206.507,209.018,213.554,218.657,222.023,226.145,228.854,233.327,238.034,240.257,244.379,246.602,249.311,254.684,259.769,262.28,266.042,268.751,273.566,277.688,281.531,286.634" svgx:width="0.43,0.27,0.46,0.42,0.25,0.46,0.58,0.53,0.25,0.43,0.46,0.38,0.53,0.5,0.58,0.25,0.58,0.46,0.58,0.5,0.58,0.53,0.46,0.38,0.42,0.25,0.46,0.42,0.25,0.42,0.57,0.5,0.71,0.58,0.25,0.28,0.58,0.25,0.57,0.28,0.51,0.57,0.38,0.46,0.25,0.5,0.53,0.25,0.46,0.25,0.25,0.6,0.57,0.28,0.42,0.25,0.54,0.46,0.43,0.57,0.28" style="fill:rgb(23,22,21);font-family:ScalaLF-Regular;font-size:9.0px;stroke:none;">cles and carbon nanofibers as shown in Figure 3b,e. This pecu-</text>
   <text y="633.199" x="48.189,50.565,53.076,57.162,60.528,62.778,64.11,72.03,76.548,79.914,84.729,89.814,94.332,96.708,101.226,105.762,108.273,112.116,116.202,118.578,120.828,122.16,126.003,131.088,135.174,140.376,144.912,149.034,151.284,152.616,155.127,160.329,164.28,168.798,171.174,175.125,177.636,182.838,187.374,189.624,190.956,193.62,198.705,202.827,205.077,206.409,210.531,214.482,219.0,221.376,226.479,229.143,231.654,236.172,241.374,243.624,244.956,249.042,254.244,259.005,261.255,262.587,267.123,270.489,275.007,281.334,283.998,289.11" svgx:width="0.27,0.28,0.46,0.38,0.25,0.55,0.88,0.5,0.38,0.54,0.57,0.5,0.27,0.5,0.51,0.28,0.43,0.46,0.27,0.25,0.55,0.43,0.57,0.46,0.58,0.51,0.46,0.25,0.55,0.28,0.58,0.44,0.5,0.27,0.44,0.28,0.58,0.51,0.25,0.55,0.3,0.57,0.46,0.25,0.55,0.46,0.44,0.5,0.27,0.57,0.3,0.28,0.5,0.58,0.25,0.55,0.46,0.58,0.53,0.25,0.55,0.51,0.38,0.5,0.71,0.3,0.57,0.25" style="fill:rgb(23,22,21);font-family:ScalaLF-Regular;font-size:9.0px;stroke:none;">liar morphological change involving the evolution and growth </text>
   <text y="644.197" x="48.189,52.707,55.587,57.837,58.908,62.751,66.873,70.239,74.325,82.245,84.756,88.599,90.849,91.92,96.735,100.821,104.187,106.851,109.362,113.205,115.581,119.703,123.465,125.715,126.786,129.666,133.032,137.55,145.47,147.72,148.791,151.455,156.54,160.662,162.912,163.983,171.903,174.414,178.32,180.984,186.087,189.453,193.575,195.825,196.896,201.414,204.294,206.544,207.615,212.43,216.948,219.324,223.284,231.204,235.326,238.692,240.942,242.013,246.099,251.301,256.062,258.312,259.383,263.226,267.348,270.714,274.8,282.72,285.231,289.101" svgx:width="0.5,0.32,0.25,0.55,0.43,0.46,0.38,0.46,0.88,0.28,0.43,0.25,0.55,0.54,0.46,0.38,0.3,0.28,0.43,0.27,0.46,0.42,0.25,0.55,0.32,0.38,0.5,0.88,0.25,0.55,0.3,0.57,0.46,0.25,0.55,0.88,0.28,0.44,0.3,0.57,0.38,0.46,0.25,0.55,0.5,0.32,0.25,0.55,0.54,0.5,0.27,0.44,0.88,0.46,0.38,0.25,0.55,0.46,0.58,0.53,0.25,0.55,0.43,0.46,0.38,0.46,0.88,0.28,0.43,0.25" style="fill:rgb(23,22,21);font-family:ScalaLF-Regular;font-size:9.0px;stroke:none;">of ceramic particles from the mixture of polymer and ceramic </text>
   <text y="655.195" x="48.189,53.004,56.37,60.492,64.335,69.438,72.804,76.566,81.084,84.45,88.212,90.462,92.262,96.024,100.146,104.268,112.188,115.95,118.2,120.0,122.664,127.182,129.43200000000002,131.232,135.993,140.115,144.93,149.052,154.254,159.015,161.265,163.065,167.583,172.785,175.035,176.835,182.037,186.555,189.219,191.469,193.269,197.787,202.989,205.365,209.325,211.575,213.375,216.039,221.124,225.246,227.496,229.296,231.807,237.009,239.52,242.184,244.695,248.781,251.157,253.407,255.207,258.969,261.48,266.682,269.346,273.468,276.834,279.345,284.547,289.11" svgx:width="0.54,0.38,0.46,0.43,0.57,0.38,0.42,0.5,0.38,0.42,0.25,0.55,0.42,0.46,0.46,0.88,0.42,0.25,0.55,0.3,0.5,0.25,0.55,0.53,0.46,0.54,0.46,0.58,0.53,0.25,0.55,0.5,0.58,0.25,0.55,0.58,0.5,0.3,0.25,0.55,0.5,0.58,0.27,0.44,0.25,0.55,0.3,0.57,0.46,0.25,0.55,0.28,0.58,0.28,0.3,0.28,0.46,0.27,0.25,0.55,0.42,0.28,0.58,0.3,0.46,0.38,0.28,0.58,0.51,0.25" style="fill:rgb(23,22,21);font-family:ScalaLF-Regular;font-size:9.0px;stroke:none;">precursors seems to depend on not only the initial sintering </text>
   <text y="666.193" x="48.189,53.004,56.37,60.888,64.731,68.853,72.615,76.377,78.627,79.518,81.894,84.405,88.95,93.072,95.322,96.213,100.335,104.286,108.372,113.187,117.705,121.071,125.157,127.821,130.332,134.85,140.052,144.525,148.368,152.886,158.088,162.849,166.971,172.173,175.935,180.021,182.685,185.196,189.714,194.916,197.166,198.057,202.575,205.941,208.191,209.082,212.844,217.947,221.313,224.193,228.279,232.122,236.244,238.494,239.385,244.146,246.657,249.493,252.373,257.476,261.238,263.749,268.267,273.469,275.719,276.61,281.317,286.42,289.111" svgx:width="0.54,0.38,0.5,0.43,0.46,0.42,0.42,0.25,0.55,0.27,0.28,0.51,0.46,0.25,0.55,0.46,0.44,0.46,0.54,0.5,0.38,0.46,0.3,0.28,0.5,0.58,0.5,0.43,0.5,0.58,0.53,0.46,0.58,0.42,0.46,0.3,0.28,0.5,0.58,0.25,0.55,0.5,0.38,0.25,0.55,0.42,0.57,0.38,0.32,0.46,0.43,0.46,0.25,0.55,0.53,0.28,0.32,0.32,0.57,0.42,0.28,0.5,0.58,0.25,0.55,0.53,0.57,0.3,0.25" style="fill:rgb(23,22,21);font-family:ScalaLF-Regular;font-size:9.0px;stroke:none;">process like evaporation–condensation or surface diffusion but </text>
   <text y="677.191" x="48.189,52.275,54.651,58.413,62.931,65.181,66.671,69.335,73.295,78.11,80.621,84.464,88.55,90.926,93.176,94.665,101.325,105.087,107.751,114.078,118.164,120.54,125.301,127.551,129.041,132.407,134.918,139.733,143.855,149.057,151.568,156.77,161.305,163.529,165.779,167.268,173.595,178.68,181.191,185.034,190.119,192.369,193.859,197.945,201.788,205.631,210.149,218.069,222.884,226.97,232.172,234.683,238.805,242.567,244.817,246.306,248.97,254.055,258.177,260.427,261.917,267.119,272.222,276.065,278.441,282.563,286.649" svgx:width="0.46,0.27,0.42,0.5,0.25,0.55,0.3,0.44,0.54,0.28,0.43,0.46,0.27,0.25,0.55,0.74,0.42,0.3,0.71,0.46,0.27,0.53,0.25,0.55,0.38,0.28,0.54,0.46,0.58,0.28,0.58,0.51,0.25,0.25,0.55,0.71,0.57,0.28,0.43,0.57,0.25,0.55,0.46,0.43,0.43,0.5,0.88,0.54,0.46,0.58,0.28,0.46,0.42,0.25,0.55,0.3,0.57,0.46,0.25,0.55,0.58,0.57,0.43,0.27,0.46,0.46,0.28" style="fill:rgb(23,22,21);font-family:ScalaLF-Regular;font-size:9.0px;stroke:none;">also typical Ostwald ripening, which accompanies the nuclea-</text>
   <text y="688.189" x="48.189,50.853,53.364,57.882,63.084,65.334,66.162,70.68,73.56,75.81,76.638,80.759,86.681,92.054,94.304,95.132,98.975,102.341,106.301,110.063,112.727,116.813,119.189,121.439,122.267,126.353,131.555,136.316,138.566,139.394,142.058,147.143,151.265,153.515,154.343,157.223,161.741,164.117,166.493,171.011,177.338,179.849,185.051,189.587,191.837,192.665,196.427,200.549,202.925,207.047,210.89,213.554,216.065,220.016,224.138,226.388,227.216,231.752,235.118,239.636,245.963,248.627,253.712,255.962,256.79,261.308,264.188,266.438,267.266,269.642,273.728,277.094,281.63,285.752,289.145" svgx:width="0.3,0.28,0.5,0.58,0.25,0.55,0.5,0.32,0.25,0.55,0.53,0.66,0.6,0.25,0.55,0.43,0.38,0.44,0.42,0.3,0.46,0.27,0.25,0.55,0.46,0.58,0.53,0.25,0.55,0.3,0.57,0.46,0.25,0.55,0.32,0.5,0.27,0.27,0.5,0.71,0.28,0.58,0.51,0.25,0.55,0.42,0.46,0.27,0.46,0.43,0.3,0.28,0.44,0.46,0.25,0.55,0.51,0.38,0.5,0.71,0.3,0.57,0.25,0.55,0.5,0.32,0.25,0.55,0.27,0.46,0.38,0.51,0.46,0.38,0.25" style="fill:rgb(23,22,21);font-family:ScalaLF-Regular;font-size:9.0px;stroke:none;">tion of LVP crystal and the following selective growth of larger </text>
   <text y="699.187" x="48.189,53.391,58.494,62.337,64.713,68.835,71.346,73.596,75.27,79.788,83.154,85.404,87.078,91.614,94.98,99.066,101.577,106.779,109.029,110.703,117.03,119.541,122.205,127.29,129.54000000000002,131.214,136.029,140.547,144.309,146.82,149.484,151.995,155.946,160.068,162.318,163.992,167.835,172.938,176.304,180.255,184.341,187.005,192.108,195.474,199.596,201.819,204.069,205.743,214.194,219.279,223.401,228.603,230.853,232.527,235.191,240.276,242.787,246.549,248.799,250.473,254.235,258.357,263.019,268.122,272.244,277.446,280.11,282.621,286.707,289.11" svgx:width="0.58,0.57,0.43,0.27,0.46,0.28,0.25,0.55,0.5,0.38,0.25,0.55,0.51,0.38,0.46,0.28,0.58,0.25,0.55,0.71,0.28,0.3,0.57,0.25,0.55,0.54,0.5,0.42,0.28,0.3,0.28,0.44,0.46,0.25,0.55,0.43,0.57,0.38,0.44,0.46,0.3,0.57,0.38,0.46,0.25,0.25,0.55,0.94,0.57,0.46,0.58,0.25,0.55,0.3,0.57,0.28,0.42,0.25,0.55,0.42,0.46,0.52,0.57,0.46,0.58,0.3,0.28,0.46,0.27,0.25" style="fill:rgb(23,22,21);font-family:ScalaLF-Regular;font-size:9.0px;stroke:none;">nuclei or grain with positive curvature. When this sequential </text>
   <text y="710.185" x="48.189,52.032,55.398,59.358,63.12,65.784,69.87,72.246,74.496,76.103,80.639,84.005,88.523,94.85,97.514,102.599,104.849,106.455,111.27,114.636,119.154,122.997,127.119,130.881,134.643,136.893,138.499,144.826,148.912,152.674,154.924,156.531,164.451,168.537,171.048,176.25,178.914,183.0,185.511,190.713,194.835,199.596,201.846,203.452,208.555,213.757,216.421,218.932,221.308,223.558,225.165,229.638,231.888,233.494,238.579,240.829,242.436,245.19,250.031,252.542,257.078,262.181,265.547,269.669,271.919,273.526,278.557,283.03,286.873,289.123" svgx:width="0.43,0.38,0.44,0.42,0.3,0.46,0.27,0.25,0.55,0.51,0.38,0.5,0.71,0.3,0.57,0.25,0.55,0.54,0.38,0.5,0.43,0.46,0.42,0.42,0.25,0.55,0.71,0.46,0.42,0.25,0.55,0.88,0.46,0.28,0.58,0.3,0.46,0.28,0.58,0.46,0.53,0.25,0.55,0.57,0.58,0.3,0.28,0.27,0.25,0.55,0.5,0.25,0.55,0.57,0.25,0.55,0.31,0.57,0.28,0.51,0.57,0.38,0.46,0.25,0.55,0.56,0.5,0.43,0.25,0.25" style="fill:rgb(23,22,21);font-family:ScalaLF-Regular;font-size:9.0px;stroke:none;">crystal growth process was maintained until 8 h (Figure S3c, </text>
   <text y="721.183" x="48.189,52.941,58.044,62.859,67.674,72.192,75.558,78.222,80.733,85.935,90.471,92.721,94.26,97.581,102.783,105.663,110.181,113.547,121.467,125.553,128.217,130.728,135.246,140.448,143.202,145.425,147.675,149.214,153.335,159.257,164.63,166.88,168.419,173.234,177.32,180.686,183.35,185.861,189.704,192.08,196.202,199.964,202.214,203.753,208.289,211.655,215.777,222.104,224.354,225.893,230.996,235.811,238.061,239.6,247.52,252.623,256.466,261.551,263.801,265.34,270.047,272.558,277.094,281.63,285.752,289.146" svgx:width="0.56,0.57,0.54,0.54,0.5,0.38,0.3,0.28,0.58,0.51,0.25,0.55,0.37,0.58,0.32,0.5,0.38,0.88,0.46,0.3,0.28,0.5,0.58,0.31,0.25,0.25,0.55,0.53,0.66,0.6,0.25,0.55,0.54,0.46,0.38,0.3,0.28,0.43,0.27,0.46,0.42,0.25,0.55,0.51,0.38,0.46,0.71,0.25,0.55,0.57,0.54,0.25,0.55,0.88,0.57,0.43,0.57,0.25,0.55,0.53,0.28,0.51,0.51,0.46,0.38,0.25" style="fill:rgb(23,22,21);font-family:ScalaLF-Regular;font-size:9.0px;stroke:none;">Supporting Information), LVP particles grew up much bigger </text>
   <text y="358.186" x="303.321,307.407,312.609,317.37,319.566,325.893,330.978,335.1,340.302,342.498,345.009,347.673,349.869,356.196,360.282,364.044,366.24,374.16,378.246,380.757,385.959,388.623,392.709,395.22,400.422,404.544,409.305,411.501,416.604,421.806,424.47,426.981,429.357,431.553,436.026,440.499,442.695,447.78,450.003,452.199,456.32,462.242,467.615,469.811,474.626,478.712,482.078,484.742,487.253,491.096,493.472,497.594,501.356,503.552,509.879,512.39,515.054,520.139,522.335,524.711,528.797,532.163,536.699,540.821,544.214" svgx:width="0.46,0.58,0.53,0.25,0.71,0.57,0.46,0.58,0.25,0.28,0.3,0.25,0.71,0.46,0.42,0.25,0.88,0.46,0.28,0.58,0.3,0.46,0.28,0.58,0.46,0.53,0.25,0.57,0.58,0.3,0.28,0.27,0.25,0.5,0.5,0.25,0.57,0.25,0.25,0.53,0.66,0.6,0.25,0.54,0.46,0.38,0.3,0.28,0.43,0.27,0.46,0.42,0.25,0.71,0.28,0.3,0.57,0.25,0.27,0.46,0.38,0.51,0.46,0.38,0.25" style="fill:rgb(23,22,21);font-family:ScalaLF-Regular;font-size:9.0px;stroke:none;">and when it was maintained until 12 h, LVP particles with larger </text>
   <text y="369.184" x="303.321,308.136,312.222,315.588,318.252,320.763,324.606,326.982,331.104,333.354,334.421,338.182,340.693,344.887,349.009,351.259,352.331,356.417,361.618,366.379,368.629,369.701,372.211,377.413,382.498,387.016,394.936,399.454,403.991,408.113,413.315,417.437,421.955,427.058,430.82,433.07,434.141,437.903,440.414,444.608,448.73,450.98,452.046,456.807,459.318,463.08,465.744,469.11,471.621,476.328,481.431,484.095,486.606,491.124,496.326,498.576,499.643,505.97,510.092,513.458,517.58,519.83,520.896,525.432,529.554,534.756,538.878,541.776" svgx:width="0.54,0.46,0.38,0.3,0.28,0.43,0.27,0.46,0.25,0.55,0.42,0.28,0.47,0.46,0.25,0.55,0.46,0.58,0.53,0.25,0.55,0.28,0.58,0.57,0.5,0.88,0.5,0.51,0.46,0.58,0.46,0.5,0.57,0.42,0.25,0.55,0.42,0.28,0.47,0.46,0.25,0.55,0.53,0.28,0.42,0.3,0.38,0.28,0.53,0.57,0.3,0.28,0.5,0.58,0.25,0.55,0.71,0.46,0.38,0.46,0.25,0.55,0.51,0.46,0.58,0.46,0.38,0.28" style="fill:rgb(23,22,21);font-family:ScalaLF-Regular;font-size:9.0px;stroke:none;">particle size and inhomogeneous size distribution were gener-</text>
   <text y="380.182" x="303.321,307.407,310.071,314.193,318.954,321.204,322.545,326.631,330.393,332.643,333.984,337.746,342.831,347.349,353.676,358.878,361.128,362.469,364.98,370.182,372.432,373.773,378.615,381.126,385.662,390.765,394.131,398.253,400.503,401.844,406.317,410.16,412.383,415.263,417.486,419.736,421.077,428.385,432.507,435.873,439.995,442.218,444.468,445.809,449.652,453.738,457.104,461.811,466.329,471.531,473.781,475.122,480.324,484.41,489.612,494.13,499.35,504.057,508.179,511.545,515.307,517.557,518.898,522.984,525.36,533.28,537.798,541.56,544.251" svgx:width="0.46,0.3,0.46,0.53,0.25,0.55,0.46,0.42,0.25,0.55,0.42,0.57,0.5,0.71,0.58,0.25,0.55,0.28,0.58,0.25,0.55,0.57,0.28,0.51,0.57,0.38,0.46,0.25,0.55,0.5,0.43,0.25,0.32,0.25,0.25,0.55,0.84,0.46,0.38,0.46,0.25,0.25,0.55,0.43,0.46,0.38,0.53,0.5,0.58,0.25,0.55,0.58,0.46,0.58,0.5,0.58,0.53,0.46,0.38,0.42,0.25,0.55,0.46,0.27,0.88,0.5,0.42,0.3,0.25" style="fill:rgb(23,22,21);font-family:ScalaLF-Regular;font-size:9.0px;stroke:none;">ated as shown in Figure 3c,f. Here, carbon nanofibers almost </text>
   <text y="391.18" x="303.321,308.082,310.593,314.355,318.441,323.256,328.071,332.193,336.279,339.645,343.767,348.528,351.345,356.16,359.526,364.044,368.751,372.837,377.544,379.92,383.88,386.697,391.458,396.561,400.683,403.5,406.164,410.682,413.499,416.163,421.248,425.37,428.187,432.03,436.548,441.75,444.414,446.925,452.127,457.23,461.748,466.851,470.613,473.43,477.273,481.359,484.725,489.432,493.95,496.614,501.699,505.821,509.187,517.107,521.193,523.569,526.386,529.752,533.874,537.96,541.803" svgx:width="0.53,0.28,0.42,0.46,0.54,0.54,0.46,0.46,0.38,0.46,0.53,0.25,0.54,0.38,0.5,0.53,0.46,0.53,0.27,0.44,0.25,0.53,0.57,0.46,0.25,0.3,0.5,0.25,0.3,0.57,0.46,0.25,0.43,0.5,0.58,0.3,0.28,0.58,0.57,0.5,0.57,0.42,0.25,0.43,0.46,0.38,0.53,0.5,0.3,0.57,0.46,0.38,0.88,0.46,0.27,0.25,0.38,0.46,0.46,0.43,0.28" style="fill:rgb(23,22,21);font-family:ScalaLF-Regular;font-size:9.0px;stroke:none;">disappeared probably due to the continuous carbothermal reac-</text>
   <text y="402.178" x="303.321,305.985,308.496,313.014,318.216,320.466,322.023,326.784,331.887,335.253,337.764,342.966,347.502,349.752,351.304,356.389,360.511,364.597,367.261,369.709,372.373,375.739,379.861,383.947,386.611,394.531,398.654,403.855,406.52,408.77,410.327,412.837,418.039,420.289,421.846,426.383,430.901,435.419,440.18,442.43,443.982,448.068,452.604,455.97,460.092,464.214,472.134,476.256,481.458,484.122,486.372,487.929,494.256,496.767,499.431,504.516,506.766,508.323,513.696,520.374,526.395,528.645,530.198,534.284,539.486,544.273" svgx:width="0.3,0.28,0.5,0.58,0.25,0.55,0.53,0.57,0.38,0.28,0.58,0.51,0.25,0.55,0.57,0.46,0.46,0.3,0.28,0.3,0.38,0.46,0.46,0.3,0.88,0.46,0.58,0.3,0.25,0.55,0.28,0.58,0.25,0.55,0.51,0.5,0.5,0.53,0.25,0.55,0.46,0.51,0.38,0.46,0.46,0.88,0.46,0.58,0.3,0.25,0.55,0.71,0.28,0.3,0.57,0.25,0.55,0.6,0.75,0.67,0.25,0.55,0.46,0.58,0.53,0.25" style="fill:rgb(23,22,21);font-family:ScalaLF-Regular;font-size:9.0px;stroke:none;">tion during heat-treatment in good agreement with TGA and </text>
   <text y="413.176" x="303.321,309.18,313.266,321.186,325.272,330.474,332.724,333.552,337.638,342.84,346.926,349.302,353.262,357.024,361.146,364.908,367.158,367.986,372.747,376.833,379.497,383.583,385.806,388.056,388.884,394.699,398.542,401.206,406.309,410.395,412.771,415.147,418.386,420.609,422.859,423.687,427.773,430.023,430.851,435.387,438.753,442.839,447.6,452.703,456.789,459.165,461.415,462.243,468.57,472.692,475.203,479.739,484.824,487.488,489.738,490.566,492.942,497.46,501.222,504.984,507.234,508.062,512.58,515.46,517.71,518.538,522.381,526.467,529.833,534.54,539.058,544.287" svgx:width="0.65,0.46,0.88,0.46,0.58,0.25,0.55,0.46,0.58,0.46,0.27,0.44,0.42,0.46,0.42,0.25,0.55,0.53,0.46,0.3,0.46,0.25,0.25,0.55,0.67,0.43,0.3,0.57,0.46,0.27,0.27,0.44,0.25,0.25,0.55,0.46,0.25,0.55,0.51,0.38,0.46,0.53,0.57,0.46,0.27,0.25,0.55,0.71,0.46,0.28,0.51,0.57,0.3,0.25,0.55,0.27,0.5,0.42,0.42,0.25,0.55,0.5,0.32,0.25,0.55,0.43,0.46,0.38,0.53,0.5,0.58,0.25" style="fill:rgb(23,22,21);font-family:ScalaLF-Regular;font-size:9.0px;stroke:none;">Raman analyses data. Actually, a gradual weight loss of carbon </text>
   <text y="424.174" x="303.321,307.083,311.898,316.02,319.863,322.374,326.496,330.258,332.508,333.786,340.113,344.199,347.961,350.211,351.489,356.007,360.714,364.476,368.598,371.964,375.915,380.037,384.798,387.048,388.326,394.653,397.164,399.828,404.913,407.163,408.441,411.105,416.19,420.312,422.562,423.84,428.376,431.742,436.26,442.587,445.251,450.336,452.586,453.864,458.382,461.262,463.512,464.79,468.911,474.833,480.206,482.456,483.734,488.549,492.635,496.001,498.665,501.176,505.019,507.395,511.517,515.279,517.502,519.752,521.03,526.25,531.452,535.538,537.914,540.29,544.277" svgx:width="0.42,0.54,0.46,0.43,0.28,0.46,0.42,0.25,0.55,0.71,0.46,0.42,0.25,0.55,0.5,0.53,0.42,0.46,0.38,0.44,0.46,0.53,0.25,0.55,0.71,0.28,0.3,0.57,0.25,0.55,0.3,0.57,0.46,0.25,0.55,0.51,0.38,0.5,0.71,0.3,0.57,0.25,0.55,0.5,0.32,0.25,0.55,0.53,0.66,0.6,0.25,0.55,0.54,0.46,0.38,0.3,0.28,0.43,0.27,0.46,0.42,0.25,0.25,0.55,0.58,0.58,0.46,0.27,0.27,0.44,0.25" style="fill:rgb(23,22,21);font-family:ScalaLF-Regular;font-size:9.0px;stroke:none;">species was observed with the growth of LVP particles, finally </text>
   <text y="435.172" x="303.321,311.241,315.327,319.872,322.383,327.585,332.121,334.371,335.325,339.446,345.368,350.741,352.991,353.945,358.76,362.846,366.212,368.876,371.387,375.23,377.606,381.728,385.49,387.74,388.694,393.509,396.875,401.393,404.057,407.423,412.526,417.287,421.409,423.659,424.613,429.131,434.234,436.898,439.148,440.102,444.62,447.5,449.75,450.704,454.547,458.633,461.999,466.706,471.224,476.426,478.676,479.63,484.832,488.918,494.12,498.638,503.858,508.565,512.687,516.053,519.815,522.038,524.288,525.242,531.263,534.1,536.764,540.886,544.279" svgx:width="0.88,0.46,0.51,0.28,0.58,0.51,0.25,0.55,0.53,0.66,0.6,0.25,0.55,0.54,0.46,0.38,0.3,0.28,0.43,0.27,0.46,0.42,0.25,0.55,0.54,0.38,0.5,0.3,0.38,0.57,0.53,0.46,0.25,0.55,0.5,0.57,0.3,0.25,0.55,0.5,0.32,0.25,0.55,0.43,0.46,0.38,0.53,0.5,0.58,0.25,0.55,0.58,0.46,0.58,0.5,0.58,0.53,0.46,0.38,0.42,0.25,0.25,0.55,0.67,0.32,0.3,0.46,0.38,0.25" style="fill:rgb(23,22,21);font-family:ScalaLF-Regular;font-size:9.0px;stroke:none;">making LVP particles protrude out of carbon nanofibers. After </text>
   <text y="446.17" x="303.321,307.442,313.364,318.737,320.987,322.625,327.44,331.526,334.892,337.556,340.067,343.91,346.286,350.408,354.17,356.42,358.058,362.765,366.887,370.73,374.816,382.736,386.858,389.108,390.746,394.868,400.07,404.588,409.691,414.227,419.312,421.562,423.2,425.576,429.662,433.028,437.564,441.686,443.936,445.574,449.66,454.862,459.623,461.873,463.511,467.633,471.539,476.354,480.872,484.634,488.756,493.517,495.767,497.405,500.069,504.587,506.837,508.475,513.182,517.304,519.554,521.192,523.703,527.069,530.435,534.521,539.282,541.793" svgx:width="0.53,0.66,0.6,0.25,0.55,0.54,0.46,0.38,0.3,0.28,0.43,0.27,0.46,0.42,0.25,0.55,0.53,0.46,0.43,0.46,0.88,0.46,0.25,0.55,0.46,0.58,0.5,0.57,0.51,0.57,0.25,0.55,0.27,0.46,0.38,0.51,0.46,0.25,0.55,0.46,0.58,0.53,0.25,0.55,0.46,0.44,0.54,0.5,0.42,0.46,0.53,0.25,0.55,0.3,0.5,0.25,0.55,0.53,0.46,0.25,0.55,0.28,0.38,0.38,0.46,0.53,0.28,0.28" style="fill:rgb(23,22,21);font-family:ScalaLF-Regular;font-size:9.0px;stroke:none;">LVP particles became enough large and exposed to be irradi-</text>
   <text y="457.168" x="303.321,307.407,310.071,314.193,318.954,321.204,322.572,327.279,331.239,333.489,334.857,340.716,344.802,352.722,356.808,362.01,364.26,365.628,368.004,372.09,375.852,379.974,382.619,384.842,387.092,388.46,390.971,393.635,397.397,399.647,401.015,404.858,408.224,412.184,415.946,418.61,422.696,425.072,427.448,429.959,435.161,437.672,440.336,444.296,446.546,447.914,450.29,454.808,459.326,463.871,467.993,472.754,475.004,476.372,484.292,488.81,492.176,496.298,498.548,499.916,504.038,507.944,512.03,516.566,521.102,525.224,528.59,532.676,535.34,539.462,544.251" svgx:width="0.46,0.3,0.46,0.53,0.25,0.55,0.53,0.44,0.25,0.55,0.65,0.46,0.88,0.46,0.58,0.25,0.55,0.27,0.46,0.42,0.46,0.38,0.25,0.25,0.55,0.28,0.3,0.42,0.25,0.55,0.43,0.38,0.44,0.42,0.3,0.46,0.27,0.27,0.28,0.58,0.28,0.3,0.44,0.25,0.55,0.27,0.5,0.5,0.51,0.46,0.53,0.25,0.55,0.88,0.5,0.38,0.46,0.25,0.55,0.46,0.44,0.46,0.51,0.51,0.46,0.38,0.46,0.3,0.46,0.53,0.25" style="fill:rgb(23,22,21);font-family:ScalaLF-Regular;font-size:9.0px;stroke:none;">ated by Raman laser, its crystallinity looked more exaggerated </text>
   <text y="468.166" x="303.321,305.832,311.034,313.284,315.39,321.249,325.335,333.255,337.341,342.543,344.793,346.899,350.661,355.476,359.598,363.441,366.105,369.471,373.557,375.807,377.913,380.667,385.509,388.02,392.556,397.659,401.025,405.147,407.397,409.503,413.976,418.062,420.816,423.039,425.289,427.395,432.102,437.205,439.869,442.119,444.225,450.552,454.674,456.924,459.03,462.873,467.391,472.494,474.87,479.631,481.881,483.987,491.907,495.993,500.538,504.66,506.91,509.016,512.778,517.881,521.247,525.369,527.619,529.725,532.389,537.474,541.56,544.251" svgx:width="0.28,0.58,0.25,0.55,0.65,0.46,0.88,0.46,0.58,0.25,0.55,0.42,0.54,0.46,0.43,0.3,0.38,0.46,0.25,0.55,0.31,0.57,0.28,0.51,0.57,0.38,0.46,0.25,0.55,0.5,0.46,0.31,0.25,0.25,0.55,0.53,0.57,0.3,0.25,0.55,0.71,0.46,0.25,0.55,0.43,0.5,0.57,0.27,0.53,0.25,0.55,0.88,0.46,0.51,0.46,0.25,0.55,0.42,0.57,0.38,0.46,0.25,0.55,0.3,0.57,0.46,0.3,0.25" style="fill:rgb(23,22,21);font-family:ScalaLF-Regular;font-size:9.0px;stroke:none;">in Raman spectra (Figure 2a), but we could make sure that </text>
   <text y="479.164" x="303.321,307.442,313.364,318.737,321.185,326.405,331.112,335.234,338.6,341.39,345.476,348.312,350.976,355.098,358.464,361.254,365.727,368.517,373.602,376.392,381.477,385.599,389.685,392.349,394.797,397.461,400.827,404.949,409.035,411.699,419.619,423.741,428.943,431.607,434.397,439.482,443.568,447.33,450.12,454.206,456.582,464.502,469.02,472.782,475.446,478.236,481.998,486.084,494.004,498.126,500.916,504.759,508.125,512.085,515.847,518.511,522.597,524.973,527.349,529.86,535.062,537.573,540.237,544.224" svgx:width="0.53,0.66,0.6,0.28,0.58,0.53,0.46,0.38,0.25,0.46,0.32,0.3,0.46,0.38,0.25,0.5,0.25,0.57,0.25,0.57,0.46,0.46,0.3,0.28,0.3,0.38,0.46,0.46,0.3,0.88,0.46,0.58,0.3,0.25,0.57,0.46,0.42,0.25,0.46,0.27,0.88,0.5,0.42,0.3,0.25,0.42,0.46,0.88,0.46,0.25,0.43,0.38,0.44,0.42,0.3,0.46,0.27,0.27,0.28,0.58,0.28,0.3,0.44,0.25" style="fill:rgb(23,22,21);font-family:ScalaLF-Regular;font-size:9.0px;stroke:none;">LVP-fiber after 1 h heat-treatment has almost same crystallinity </text>
   <text y="490.162" x="303.321,307.407,311.169,313.419,315.588,319.709,325.631,331.004,333.452,338.267,342.353,345.719,348.383,350.894,354.737,357.113,361.235,364.889,370.109,374.816,378.938,382.304,384.554,386.723,390.809,396.011,400.772,403.022,405.191,409.312,415.234,420.607,423.055,427.87,431.956,435.322,437.986,440.497,444.34,446.716,450.838,453.088,455.257,457.921,463.006,466.372,470.89,475.993,480.529,485.614,487.864,490.033,495.946,501.805,508.438,510.688,512.857,516.943,522.145,526.231,528.607,532.567,536.329,540.451,544.24" svgx:width="0.46,0.42,0.25,0.55,0.53,0.66,0.6,0.28,0.54,0.46,0.38,0.3,0.28,0.43,0.27,0.46,0.41,0.58,0.53,0.46,0.38,0.25,0.55,0.46,0.58,0.53,0.25,0.55,0.53,0.66,0.6,0.28,0.54,0.46,0.38,0.3,0.28,0.43,0.27,0.46,0.25,0.55,0.3,0.57,0.38,0.5,0.57,0.51,0.57,0.25,0.55,0.66,0.65,0.74,0.25,0.55,0.46,0.58,0.46,0.27,0.44,0.42,0.46,0.42,0.25" style="fill:rgb(23,22,21);font-family:ScalaLF-Regular;font-size:9.0px;stroke:none;">as LVP-particle/fiber and LVP-particle through XRD analyses </text>
   <text y="501.16" x="303.321,306.075,310.917,313.428,317.964,323.067,326.433,330.555,332.805,334.533,339.006,343.713,346.467,348.69,350.94,352.668,358.356,362.442,366.204,370.326,375.087,377.337,379.065,383.583,388.785,391.035,392.763,395.427,400.512,404.634,408.396,412.518,414.768,416.496,420.339,424.857,432.777,437.592,440.958,445.08,450.165,454.287,459.489,463.251,465.762,469.713,473.835,476.085,477.813,481.179,485.301,489.063,494.166,496.542,499.206,502.968,505.191,507.441,509.169,515.496,519.618,521.868,523.596,527.439,531.957,537.06,539.436,544.224" svgx:width="0.31,0.57,0.28,0.51,0.57,0.38,0.46,0.25,0.55,0.5,0.53,0.31,0.25,0.25,0.55,0.63,0.46,0.42,0.46,0.53,0.25,0.55,0.5,0.58,0.25,0.55,0.3,0.57,0.46,0.42,0.46,0.25,0.55,0.43,0.5,0.88,0.54,0.38,0.46,0.57,0.46,0.58,0.42,0.28,0.44,0.46,0.25,0.55,0.38,0.46,0.42,0.57,0.27,0.3,0.42,0.25,0.25,0.55,0.71,0.46,0.25,0.55,0.43,0.5,0.57,0.27,0.53,0.25" style="fill:rgb(23,22,21);font-family:ScalaLF-Regular;font-size:9.0px;stroke:none;">(Figure 2b). Based on these comprehensive results, we could </text>
   <text y="512.158" x="303.321,307.083,312.186,316.722,321.258,325.38,329.142,331.806,334.47,337.134,342.219,346.341,349.005,351.885,356.403,359.769,367.689,371.775,374.439,376.95,381.468,386.67,389.334,397.254,401.376,405.219,410.304,414.39,419.592,422.103,425.865,433.785,436.449,439.329,443.847,447.213,449.877,452.541,457.626,460.137,463.899,466.563,471.378,475.5,479.343,484.446,486.822,489.333,493.419,496.785,499.449,503.57,509.492,514.865,518.519,522.362,526.448,529.814,534.521,539.039,544.268" svgx:width="0.42,0.57,0.51,0.51,0.46,0.42,0.3,0.25,0.3,0.57,0.46,0.25,0.32,0.5,0.38,0.88,0.46,0.3,0.28,0.5,0.58,0.25,0.88,0.46,0.43,0.57,0.46,0.58,0.28,0.42,0.88,0.25,0.32,0.5,0.38,0.25,0.3,0.57,0.28,0.42,0.25,0.54,0.46,0.43,0.57,0.27,0.28,0.46,0.38,0.25,0.53,0.66,0.6,0.41,0.43,0.46,0.38,0.53,0.5,0.58,0.25" style="fill:rgb(23,22,21);font-family:ScalaLF-Regular;font-size:9.0px;stroke:none;">suggest the formation mechanism for this peculiar LVP/carbon </text>
   <text y="523.156" x="303.321,307.164,311.682,319.602,324.417,328.935,332.697,335.208,337.872,341.994,344.244,345.351,349.437,353.199,355.449,356.556,359.067,364.269,369.03,371.541,375.384,379.47,382.134,386.256,391.017,393.267,394.374,396.885,402.087,404.337,405.444,410.286,412.797,417.333,422.436,425.802,429.924,432.174,433.281,437.754,439.977,442.227,443.334,448.347,452.298,456.42,461.622,463.872,464.979,467.643,472.728,477.246,482.349,486.885,491.97,494.22,495.327,497.991,503.076,507.198,509.448,510.555,514.677,518.583,521.247,525.369,530.571,535.332,539.454,544.242" svgx:width="0.43,0.5,0.88,0.54,0.5,0.42,0.28,0.3,0.46,0.25,0.55,0.46,0.42,0.25,0.55,0.28,0.58,0.53,0.28,0.43,0.46,0.3,0.46,0.53,0.25,0.55,0.28,0.58,0.25,0.55,0.57,0.28,0.51,0.57,0.38,0.46,0.25,0.55,0.5,0.25,0.25,0.55,0.58,0.44,0.46,0.58,0.25,0.55,0.3,0.57,0.5,0.57,0.51,0.57,0.25,0.55,0.3,0.57,0.46,0.25,0.55,0.46,0.44,0.3,0.46,0.58,0.53,0.46,0.53,0.25" style="fill:rgb(23,22,21);font-family:ScalaLF-Regular;font-size:9.0px;stroke:none;">composite as indicated in Figure 1. Even though the extended </text>
   <text y="534.154" x="303.321,308.406,312.528,316.614,319.278,321.726,324.39,327.756,331.878,335.964,338.628,346.548,350.67,355.872,358.536,360.786,362.582,364.958,369.08,373.841,376.091,377.886,380.55,385.068,387.318,389.114,391.778,396.863,400.985,403.235,405.03,409.566,412.932,417.45,423.777,426.441,431.526,433.776,435.572,440.09,442.97,445.22,447.015,451.137,457.059,462.432,464.682,466.478,471.293,475.379,478.745,481.409,483.92,487.763,490.139,494.261,496.484,498.734,500.529,503.193,508.278,512.4,514.65,516.445,521.26,525.346,528.713,531.377,533.888,537.731,540.107,544.255" svgx:width="0.57,0.46,0.46,0.3,0.28,0.3,0.38,0.46,0.46,0.3,0.88,0.46,0.58,0.3,0.25,0.55,0.27,0.46,0.53,0.25,0.55,0.3,0.5,0.25,0.55,0.3,0.57,0.46,0.25,0.55,0.51,0.38,0.5,0.71,0.3,0.57,0.25,0.55,0.5,0.32,0.25,0.55,0.53,0.66,0.6,0.25,0.55,0.54,0.46,0.38,0.3,0.28,0.43,0.27,0.46,0.25,0.25,0.55,0.3,0.57,0.46,0.25,0.55,0.54,0.46,0.38,0.3,0.28,0.43,0.27,0.46,0.25" style="fill:rgb(23,22,21);font-family:ScalaLF-Regular;font-size:9.0px;stroke:none;">heat-treatment led to the growth of LVP particle, the particle </text>
   <text y="545.152" x="303.321,307.083,309.594,313.788,317.91,320.277,324.795,327.675,330.042,334.163,340.085,345.458,349.112,352.955,357.041,360.407,365.114,369.632,374.834,377.201,381.044,385.562,393.482,398.297,402.815,406.577,409.088,411.752,415.874,419.636,422.003,426.521,431.228,433.892,437.978,440.489,445.691,449.813,454.574,456.941,461.648,465.608,467.975,472.097,474.473,478.595,482.438,485.102,488.468,492.986,496.748,501.563,504.074,509.276,514.478,516.989,522.191,526.727,529.094,533.909,537.275,541.793" svgx:width="0.42,0.28,0.47,0.46,0.25,0.5,0.32,0.25,0.53,0.66,0.6,0.41,0.43,0.46,0.38,0.53,0.5,0.58,0.25,0.43,0.5,0.88,0.54,0.5,0.42,0.28,0.3,0.46,0.42,0.25,0.5,0.53,0.3,0.46,0.28,0.58,0.46,0.53,0.25,0.53,0.44,0.25,0.46,0.27,0.46,0.43,0.3,0.38,0.5,0.42,0.54,0.28,0.58,0.58,0.28,0.58,0.51,0.25,0.54,0.38,0.5,0.28" style="fill:rgb(23,22,21);font-family:ScalaLF-Regular;font-size:9.0px;stroke:none;">size of LVP/carbon composites obtained by electrospinning pro-</text>
   <text y="556.15" x="303.321,307.164,311.286,315.048,318.81,321.222,327.549,331.635,335.397,337.809,341.895,344.307,346.683,351.201,353.865,356.277,360.039,367.959,372.045,374.421,376.797,380.919,384.285,386.697,389.361,394.446,398.532,403.734,406.146,408.81,413.895,417.981,420.645,423.057,427.764,431.724,434.136,437.979,442.497,447.699,451.65,455.772,460.974,463.638,466.149,470.667,475.869,479.955,482.331,484.743,489.558,492.924,497.442,501.285,505.407,509.169,512.931,515.343,521.67,524.181,526.845,531.93,536.448,541.551,544.242" svgx:width="0.43,0.46,0.42,0.42,0.25,0.71,0.46,0.42,0.25,0.46,0.25,0.27,0.5,0.3,0.25,0.42,0.88,0.46,0.27,0.27,0.46,0.38,0.25,0.3,0.57,0.46,0.58,0.25,0.3,0.57,0.46,0.3,0.25,0.53,0.44,0.25,0.43,0.5,0.58,0.44,0.46,0.58,0.3,0.28,0.5,0.58,0.46,0.27,0.25,0.54,0.38,0.5,0.43,0.46,0.42,0.42,0.25,0.71,0.28,0.3,0.57,0.5,0.57,0.3,0.25" style="fill:rgb(23,22,21);font-family:ScalaLF-Regular;font-size:9.0px;stroke:none;">cess was a lot smaller than that by conventional process without </text>
   <text y="567.148" x="303.321,307.443,309.819,313.941,317.784,320.448,323.814,328.332,332.094,336.909,339.42,344.622,349.824,352.335,357.537,362.073,364.791,367.545,372.387,374.898,379.434,384.537,387.903,392.025,394.743,399.774,404.247,409.008,411.231,413.949,418.701,423.804,428.619,433.434,437.952,441.318,443.982,446.493,451.695,456.231,458.949,462.27,467.472,470.352,474.87,478.236,486.156,490.242,492.906,495.417,499.935,505.137,507.891,510.114,512.832,516.153,521.355,524.073,528.591,531.957,536.718,540.84,544.233" svgx:width="0.46,0.27,0.46,0.43,0.3,0.38,0.5,0.42,0.54,0.28,0.58,0.58,0.28,0.58,0.51,0.25,0.31,0.57,0.28,0.51,0.57,0.38,0.46,0.25,0.56,0.5,0.53,0.25,0.25,0.56,0.57,0.54,0.54,0.5,0.38,0.3,0.28,0.58,0.51,0.25,0.37,0.58,0.32,0.5,0.38,0.88,0.46,0.3,0.28,0.5,0.58,0.31,0.25,0.25,0.37,0.58,0.25,0.5,0.38,0.53,0.46,0.38,0.25" style="fill:rgb(23,22,21);font-family:ScalaLF-Regular;font-size:9.0px;stroke:none;">electrospinning (Figure S3d, Supporting Information). In order </text>
   <text y="578.146" x="303.321,305.985,310.503,312.735,320.655,325.173,328.539,332.661,334.893,338.736,341.112,345.234,349.32,352.686,355.062,359.022,361.254,365.016,369.138,373.26,375.492,378.156,383.241,387.363,389.595,393.357,396.021,399.387,404.49,408.333,410.997,416.1,419.466,423.588,425.82,430.338,433.218,435.45,439.572,445.494,450.867,454.521,458.364,462.45,465.816,470.523,475.041,480.243,482.475,486.318,490.836,498.756,503.571,508.089,511.851,514.362,517.026,521.148,523.371,525.603,530.976,536.178,544.287" svgx:width="0.3,0.5,0.25,0.88,0.5,0.38,0.46,0.25,0.43,0.27,0.46,0.46,0.38,0.27,0.44,0.25,0.42,0.46,0.46,0.25,0.3,0.57,0.46,0.25,0.42,0.3,0.38,0.57,0.43,0.3,0.57,0.38,0.46,0.25,0.5,0.32,0.25,0.53,0.66,0.6,0.41,0.43,0.46,0.38,0.53,0.5,0.58,0.25,0.43,0.5,0.88,0.54,0.5,0.42,0.28,0.3,0.46,0.25,0.25,0.6,0.58,0.9,0.25" style="fill:rgb(23,22,21);font-family:ScalaLF-Regular;font-size:9.0px;stroke:none;">to more clearly see the structure of LVP/carbon composite, TEM </text>
   <text y="589.144" x="303.321,305.832,313.752,317.838,322.374,326.496,330.258,333.165,335.676,340.878,343.785,348.87,351.381,355.917,361.002,365.124,368.49,371.397,374.763,378.885,382.647,387.165,389.541,394.644,397.308,399.819,404.337,409.539,412.446,418.773,422.895,426.261,430.383,433.29,437.808,442.515,445.179,449.265,451.776,456.978,461.1,465.861,468.768,472.854,478.056,482.817,485.724,488.235,493.437,497.28,501.798,505.164,509.979,514.497,517.863,521.949,524.613,528.735,533.496,536.403,540.489,544.278" svgx:width="0.28,0.88,0.46,0.51,0.46,0.42,0.25,0.28,0.58,0.25,0.57,0.28,0.51,0.57,0.46,0.38,0.25,0.38,0.46,0.42,0.5,0.27,0.57,0.3,0.28,0.5,0.58,0.25,0.71,0.46,0.38,0.46,0.25,0.5,0.53,0.3,0.46,0.28,0.58,0.46,0.53,0.25,0.46,0.58,0.53,0.25,0.28,0.58,0.43,0.5,0.38,0.54,0.5,0.38,0.46,0.3,0.46,0.53,0.25,0.46,0.42,0.25" style="fill:rgb(23,22,21);font-family:ScalaLF-Regular;font-size:9.0px;stroke:none;">images in higher resolution were obtained and incorporated as </text>
   <text y="600.142" x="303.321,308.163,310.674,315.21,320.313,323.679,327.801,331.563,333.813,334.803,339.834,344.307,346.557,347.547,351.633,356.835,361.596,363.846,364.836,369.867,374.34,376.59,377.58,380.334,385.086,390.189,395.004,399.819,404.337,407.703,410.367,412.878,418.08,422.616,424.866,425.856,429.177,434.379,437.259,441.777,445.143,453.063,457.149,459.813,462.324,466.842,472.044,474.798,477.021,479.271,480.261,485.634,490.719,494.841,497.091,498.081,500.745,505.83,508.341,512.184,516.729,521.931,526.053,529.815,533.577,535.827,536.817,541.335,544.242" svgx:width="0.57,0.28,0.51,0.57,0.38,0.46,0.42,0.25,0.55,0.56,0.5,0.25,0.55,0.46,0.58,0.53,0.25,0.55,0.56,0.5,0.25,0.55,0.31,0.56,0.57,0.54,0.54,0.5,0.38,0.3,0.28,0.58,0.51,0.25,0.55,0.37,0.58,0.32,0.5,0.38,0.88,0.46,0.3,0.28,0.5,0.58,0.31,0.25,0.25,0.55,0.6,0.57,0.46,0.25,0.55,0.3,0.57,0.28,0.43,0.51,0.58,0.46,0.42,0.42,0.25,0.55,0.5,0.32,0.25" style="fill:rgb(23,22,21);font-family:ScalaLF-Regular;font-size:9.0px;stroke:none;">Figures S4 and S5 (Supporting Information). The thickness of </text>
   <text y="611.14" x="303.321,307.164,311.25,314.616,319.323,323.841,329.043,331.293,332.553,334.929,339.015,342.975,347.097,350.463,352.713,353.973,358.491,363.693,365.943,367.203,369.867,374.952,379.074,381.324,382.584,386.346,391.449,394.815,397.695,401.781,405.624,409.746,411.996,413.256,417.774,420.654,422.904,424.164,428.285,434.207,439.58,442.028,447.248,451.955,456.077,459.443,461.693,462.953,469.28,473.366,477.128,479.378,480.638,484.724,489.431,493.949,499.052,501.716,503.966,505.226,509.699,514.172,516.395,520.868,525.341,527.591,528.851,534.053,541.973,544.223" svgx:width="0.43,0.46,0.38,0.53,0.5,0.58,0.25,0.55,0.27,0.46,0.44,0.46,0.38,0.25,0.55,0.5,0.58,0.25,0.55,0.3,0.57,0.46,0.25,0.55,0.42,0.57,0.38,0.32,0.46,0.43,0.46,0.25,0.55,0.5,0.32,0.25,0.55,0.53,0.66,0.6,0.28,0.58,0.53,0.46,0.38,0.25,0.55,0.71,0.46,0.42,0.25,0.55,0.46,0.53,0.5,0.57,0.3,0.25,0.55,0.5,0.5,0.25,0.5,0.5,0.25,0.55,0.58,0.88,0.25,0.25" style="fill:rgb(23,22,21);font-family:ScalaLF-Regular;font-size:9.0px;stroke:none;">carbon layer on the surface of LVP-fiber was about 15.09 nm. </text>
   <text y="622.138" x="303.321,306.642,311.844,314.094,315.804,319.925,325.847,331.22,333.668,338.483,342.569,345.935,348.599,351.11,354.953,357.329,361.451,365.105,370.325,375.032,379.154,382.52,384.77,386.48,390.566,395.768,400.529,402.779,404.489,408.61,414.532,419.905,422.353,427.168,431.254,434.62,437.284,439.795,443.638,446.014,450.136,452.386,454.096,457.858,461.944,469.864,474.679,477.055,481.177,483.4,485.65,487.36,492.175,495.541,500.059,502.723,506.089,511.192,515.953,520.075,524.836,527.086,528.796,532.918,538.84,544.24" svgx:width="0.37,0.58,0.25,0.55,0.53,0.66,0.6,0.28,0.54,0.46,0.38,0.3,0.28,0.43,0.27,0.46,0.41,0.58,0.53,0.46,0.38,0.25,0.55,0.46,0.58,0.53,0.25,0.55,0.53,0.66,0.6,0.28,0.54,0.46,0.38,0.3,0.28,0.43,0.27,0.46,0.25,0.55,0.42,0.46,0.88,0.54,0.27,0.46,0.25,0.25,0.55,0.54,0.38,0.5,0.3,0.38,0.57,0.53,0.46,0.53,0.25,0.55,0.53,0.66,0.6,0.25" style="fill:rgb(23,22,21);font-family:ScalaLF-Regular;font-size:9.0px;stroke:none;">In LVP-particle/fiber and LVP-particle sample, protruded LVP </text>
   <text y="633.136" x="303.321,308.136,312.222,315.588,318.252,320.763,324.606,326.982,331.104,334.866,337.116,338.709,342.552,346.638,351.84,354.09,355.683,360.39,364.512,366.762,368.355,372.198,374.574,378.696,382.782,386.148,388.524,392.484,394.734,396.327,401.088,403.599,407.361,411.204,414.57,417.081,425.001,427.512,432.714,436.8,439.464,443.586,448.347,450.597,452.19,455.07,458.436,462.954,470.874,473.124,474.717,478.56,482.646,486.012,490.719,495.237,500.439,502.689,504.282,509.097,513.183,516.549,519.213,522.975,525.225,526.818,530.94,534.891,539.013,544.242" svgx:width="0.54,0.46,0.38,0.3,0.28,0.43,0.27,0.46,0.42,0.25,0.55,0.43,0.46,0.58,0.25,0.55,0.53,0.46,0.25,0.55,0.43,0.27,0.46,0.46,0.38,0.27,0.44,0.25,0.55,0.53,0.28,0.42,0.43,0.38,0.28,0.88,0.28,0.58,0.46,0.3,0.46,0.53,0.25,0.55,0.32,0.38,0.5,0.88,0.25,0.55,0.43,0.46,0.38,0.53,0.5,0.58,0.25,0.55,0.54,0.46,0.38,0.3,0.42,0.25,0.55,0.46,0.44,0.46,0.58,0.25" style="fill:rgb(23,22,21);font-family:ScalaLF-Regular;font-size:9.0px;stroke:none;">particles can be clearly discriminated from carbon parts even </text>
   <text y="644.134" x="303.321,306.201,309.567,314.085,322.005,324.255,325.254,330.339,332.85,337.386,342.471,344.919,348.285,352.407,356.169,360.687,363.063,368.166,370.83,373.341,377.859,383.061,385.311,386.31,391.683,396.885,404.967,407.217,408.216,410.97,418.485,424.344,426.792,432.165,437.367,445.449,448.203,450.453,451.452,453.963,461.883,465.969,470.505,474.627,478.389,480.639,481.638,484.392,489.234,491.745,496.281,501.384,504.75,508.872,511.122,512.121,517.152,521.625,523.848,526.098,527.097,531.849,536.952,541.767" svgx:width="0.32,0.38,0.5,0.88,0.25,0.55,0.57,0.28,0.51,0.57,0.28,0.38,0.46,0.42,0.5,0.27,0.57,0.3,0.28,0.5,0.58,0.25,0.55,0.6,0.58,0.9,0.25,0.55,0.31,0.84,0.65,0.28,0.6,0.58,0.9,0.31,0.25,0.55,0.28,0.88,0.46,0.51,0.46,0.42,0.25,0.55,0.31,0.57,0.28,0.51,0.57,0.38,0.46,0.25,0.55,0.56,0.5,0.25,0.25,0.55,0.56,0.57,0.54,0.28" style="fill:rgb(23,22,21);font-family:ScalaLF-Regular;font-size:9.0px;stroke:none;">from high-resolution TEM (HR-TEM) images (Figure S5, Sup-</text>
   <text y="655.132" x="303.321,308.136,312.654,316.02,318.684,321.195,326.397,330.933,333.183,333.894,337.215,342.417,345.297,349.815,353.181,361.101,365.187,367.851,370.362,374.88,380.082,382.836,385.059,387.309,388.02,394.653,397.164,400.926,403.59,406.101,411.303,415.146,417.81,420.06,420.771,423.147,427.233,429.897,432.561,435.072,438.915,443.037,445.287,445.998,448.878,452.244,454.755,459.957,464.493,468.615,472.377,474.627,475.338,481.665,485.787,489.153,493.275,495.525,496.236,499.116,503.634,508.737,513.939,518.7,520.95,521.661,524.172,529.374,531.624,532.335,534.999,540.084,544.234" svgx:width="0.54,0.5,0.38,0.3,0.28,0.58,0.51,0.25,0.55,0.37,0.58,0.32,0.5,0.38,0.88,0.46,0.3,0.28,0.5,0.58,0.31,0.25,0.25,0.55,0.74,0.28,0.42,0.3,0.28,0.58,0.43,0.3,0.25,0.55,0.27,0.46,0.3,0.3,0.28,0.43,0.46,0.25,0.55,0.32,0.38,0.28,0.58,0.51,0.46,0.42,0.25,0.55,0.71,0.46,0.38,0.46,0.25,0.55,0.32,0.5,0.57,0.58,0.53,0.25,0.55,0.28,0.58,0.25,0.55,0.3,0.57,0.46,0.25" style="fill:rgb(23,22,21);font-family:ScalaLF-Regular;font-size:9.0px;stroke:none;">porting Information). Distinct lattice fringes were found in the </text>
   <text y="666.13" x="303.321,307.442,313.364,318.737,320.987,322.103,326.918,331.004,334.37,337.034,339.545,343.388,345.764,349.886,352.109,354.359,355.475,361.802,366.887,371.405,375.167,379.289,381.539,382.655,388.982,391.493,396.254,398.918,404.003,406.253,407.369,413.696,417.782,421.544,423.794,424.91,429.383,431.606,436.079,440.552,442.802,443.918,448.004,453.206,457.967,460.217,461.333,465.806,468.029,472.502,476.975,479.225,480.341,486.362,488.612,489.728,493.571,498.089,501.455,504.821,508.943,512.705,517.52,522.038,527.24,532.001,534.512,539.714,544.277" svgx:width="0.53,0.66,0.6,0.25,0.55,0.54,0.46,0.38,0.3,0.28,0.43,0.27,0.46,0.25,0.25,0.55,0.71,0.57,0.5,0.42,0.46,0.25,0.55,0.71,0.28,0.53,0.3,0.57,0.25,0.55,0.71,0.46,0.42,0.25,0.55,0.5,0.25,0.5,0.5,0.25,0.55,0.46,0.58,0.53,0.25,0.55,0.5,0.25,0.5,0.5,0.25,0.55,0.67,0.25,0.55,0.43,0.5,0.38,0.38,0.46,0.42,0.54,0.5,0.58,0.53,0.28,0.58,0.51,0.25" style="fill:rgb(23,22,21);font-family:ScalaLF-Regular;font-size:9.0px;stroke:none;">LVP particle, whose width was 4.21 and 4.29 Å corresponding </text>
   <text y="677.128" x="303.321,305.985,310.503,313.401,316.155,320.628,323.526,327.999,330.897,335.37,338.124,341.022,345.837,348.213,352.299,357.501,361.623,365.385,368.283,372.801,375.681,378.579,382.7,388.622,393.995,396.893,401.708,406.793,410.879,414.641,418.763,420.986,423.884,429.905,433.667,436.565,439.076,444.278,449.039,451.55,455.393,459.479,462.143,466.265,471.026,473.924,476.435,481.637,484.535,489.377,491.888,496.424,501.527,504.893,509.015,511.913,516.944,521.417,524.315,527.069,531.821,536.924,541.739" svgx:width="0.3,0.5,0.25,0.31,0.5,0.25,0.5,0.25,0.5,0.31,0.25,0.54,0.27,0.46,0.58,0.46,0.42,0.25,0.5,0.32,0.25,0.53,0.66,0.6,0.25,0.54,0.57,0.46,0.42,0.46,0.25,0.25,0.67,0.42,0.25,0.28,0.58,0.53,0.28,0.43,0.46,0.3,0.46,0.53,0.25,0.28,0.58,0.25,0.57,0.28,0.51,0.57,0.38,0.46,0.25,0.56,0.5,0.25,0.31,0.56,0.57,0.54,0.28" style="fill:rgb(23,22,21);font-family:ScalaLF-Regular;font-size:9.0px;stroke:none;">to (0 2 0) planes of LVP phase. As indicated in Figure S6 (Sup-</text>
   <text y="688.126" x="303.321,308.136,312.654,316.02,318.684,321.195,326.397,330.933,333.183,336.729,340.05,345.252,348.132,352.65,356.016,363.936,368.022,370.686,373.197,377.715,382.917,385.671,387.894,390.144,393.69,397.776,401.727,405.849,409.215,413.301,417.837,421.959,424.209,427.755,432.57,436.656,440.022,442.686,445.197,449.04,451.416,455.538,457.788,461.334,465.096,467.607,471.801,475.923,478.173,481.719,486.237,489.117,491.367,494.913,499.034,504.956,510.329,512.777,517.592,521.678,525.044,527.708,530.219,534.062,536.438,540.56" svgx:width="0.54,0.5,0.38,0.3,0.28,0.58,0.51,0.25,0.55,0.37,0.58,0.32,0.5,0.38,0.88,0.46,0.3,0.28,0.5,0.58,0.31,0.25,0.25,0.55,0.46,0.44,0.46,0.38,0.46,0.51,0.46,0.25,0.55,0.54,0.46,0.38,0.3,0.28,0.43,0.27,0.46,0.25,0.55,0.42,0.28,0.47,0.46,0.25,0.55,0.5,0.32,0.25,0.55,0.53,0.66,0.6,0.28,0.54,0.46,0.38,0.3,0.28,0.43,0.27,0.46,0.41" style="fill:rgb(23,22,21);font-family:ScalaLF-Regular;font-size:9.0px;stroke:none;">porting Information), average particle size of LVP-particle/</text>
   <text y="699.124" x="303.321,308.541,313.248,317.37,320.736,322.986,324.327,328.413,333.615,338.376,340.626,341.967,346.088,352.01,357.383,359.831,364.646,368.732,372.098,374.762,377.273,381.116,383.492,387.614,389.864,391.205,393.716,397.478,399.728,401.069,405.542,410.015,414.488,416.711,421.184,425.657,427.907,429.248,433.334,438.536,443.297,445.547,446.888,451.361,455.834,460.307,462.53,467.003,471.476,473.726,475.067,480.269,488.189,490.439,491.78,495.902,499.988,503.831,508.916,511.139,513.389,514.73,518.816,524.018,528.779,531.029,532.37,535.034,540.119,544.268" svgx:width="0.58,0.53,0.46,0.38,0.25,0.55,0.46,0.58,0.53,0.25,0.55,0.53,0.66,0.6,0.28,0.54,0.46,0.38,0.3,0.28,0.43,0.27,0.46,0.25,0.55,0.28,0.42,0.25,0.55,0.5,0.5,0.5,0.25,0.5,0.5,0.25,0.55,0.46,0.58,0.53,0.25,0.55,0.5,0.5,0.5,0.25,0.5,0.5,0.25,0.55,0.58,0.88,0.25,0.55,0.46,0.46,0.43,0.57,0.25,0.25,0.55,0.46,0.58,0.53,0.25,0.55,0.3,0.57,0.46,0.25" style="fill:rgb(23,22,21);font-family:ScalaLF-Regular;font-size:9.0px;stroke:none;">fiber and LVP-particle is 114.06 and 304.89 nm each, and the </text>
   <text y="710.122" x="303.321,308.136,312.222,315.588,318.252,320.763,324.606,326.982,331.104,333.354,335.676,339.438,341.949,346.143,350.265,352.515,354.837,359.598,362.109,365.871,368.535,371.901,374.412,379.119,384.222,386.886,389.397,393.915,399.117,401.367,403.689,408.207,411.087,413.337,415.659,419.78,425.702,431.075,433.523,438.338,442.424,445.79,448.454,450.965,454.808,457.184,461.306,464.96,470.18,474.887,479.009,482.375,484.625,486.947,489.458,493.22,495.47,497.792,505.712,510.815,514.658,519.743,521.993,524.315,532.235,536.753,540.119,544.268" svgx:width="0.54,0.46,0.38,0.3,0.28,0.43,0.27,0.46,0.25,0.55,0.42,0.28,0.47,0.46,0.25,0.55,0.53,0.28,0.42,0.3,0.38,0.28,0.53,0.57,0.3,0.28,0.5,0.58,0.25,0.55,0.5,0.32,0.25,0.55,0.53,0.66,0.6,0.28,0.54,0.46,0.38,0.3,0.28,0.43,0.27,0.46,0.41,0.58,0.53,0.46,0.38,0.25,0.55,0.28,0.42,0.25,0.55,0.88,0.57,0.43,0.57,0.25,0.55,0.88,0.5,0.38,0.46,0.25" style="fill:rgb(23,22,21);font-family:ScalaLF-Regular;font-size:9.0px;stroke:none;">particle size distribution of LVP-particle/fiber is much more </text>
   <text y="721.12" x="303.321,308.406,312.924,320.844,325.362,329.898,334.02,339.222,343.344,347.862,352.965,356.727,359.499,363.342,367.86,375.78,380.595,384.681,388.047,392.169,396.93,399.702,402.366,406.884,409.656,412.32,417.405,421.491,424.155,426.927,431.445,434.325,437.097,441.218,447.14,452.513,454.961,459.776,463.862,467.228,469.892,472.403,476.246,478.622,482.744,484.967,487.739,492.211,496.729,499.501,503.344,507.862,513.064,518.284,521.65,529.57,532.342,535.006,540.091,544.24" svgx:width="0.57,0.5,0.88,0.5,0.51,0.46,0.58,0.46,0.5,0.57,0.42,0.25,0.43,0.5,0.88,0.54,0.46,0.38,0.46,0.53,0.25,0.3,0.5,0.25,0.3,0.57,0.46,0.3,0.25,0.5,0.32,0.25,0.53,0.66,0.6,0.28,0.54,0.46,0.38,0.3,0.28,0.43,0.27,0.46,0.25,0.25,0.6,0.5,0.25,0.43,0.5,0.58,0.58,0.38,0.88,0.25,0.3,0.57,0.46,0.25" style="fill:rgb(23,22,21);font-family:ScalaLF-Regular;font-size:9.0px;stroke:none;">homogeneous compared to that of LVP-particle. To confirm the </text>
   <text y="752.686" x="48.199,52.364,55.808,58.208" svgx:width="0.6,0.49,0.41,0.25" style="fill:rgb(23,22,21);font-family:ScalaSansLF-Italic;font-size:7.0px;stroke:none;">Adv.</text>
   <text y="752.686" x="59.965" svgx:width="0.25" style="fill:rgb(23,22,21);font-family:ScalaSansLF-Regular;font-size:7.0px;stroke:none;"> </text>
   <text y="752.686" x="61.891,65.629,68.387,70.011" svgx:width="0.53,0.39,0.23,0.25" style="fill:rgb(23,22,21);font-family:ScalaSansLF-Italic;font-size:7.0px;stroke:none;">Sci.</text>
   <text y="752.686" x="71.768" svgx:width="0.25" style="fill:rgb(23,22,21);font-family:ScalaSansLF-Regular;font-size:7.0px;stroke:none;"> </text>
   <text y="752.686" x="73.693,77.193,80.693,84.193" svgx:width="0.5,0.5,0.5,0.5" style="fill:rgb(23,22,21);font-family:ScalaSansLF-Bold;font-size:7.0px;stroke:none;">2017</text>
   <text y="752.686" x="87.693,89.457" svgx:width="0.25,0.25" style="fill:rgb(23,22,21);font-family:ScalaSansLF-Regular;font-size:7.0px;stroke:none;">, </text>
   <text y="752.686" x="91.382" svgx:width="0.5" style="fill:rgb(23,22,21);font-family:ScalaSansLF-Italic;font-size:7.0px;stroke:none;">4</text>
   <text y="752.686" x="94.882,96.646,98.571,102.064,105.564,109.064,112.564,116.057,119.557" svgx:width="0.25,0.25,0.5,0.5,0.5,0.5,0.5,0.5,0.5" style="fill:rgb(23,22,21);font-family:ScalaSansLF-Regular;font-size:7.0px;stroke:none;">, 1700128</text>
  </g>
  <rect style="stroke:blue;stroke-width:0.3;" x="116.225" y="82.35" height="238.86" width="360.0" title="4"/>
  <text y="82.35" class="image" id="image.4.1" width="360" height="238" x="116.225">image.4.1.116_476.82_321</text>
  <g begin="text">
   <text y="329.366" x="48.189,52.365,54.341,58.397,62.757,65.453,69.197,71.493,75.493" svgx:width="0.52,0.25,0.51,0.55,0.34,0.47,0.25,0.5,0.25" style="fill:rgb(23,22,21);font-family:ScalaSansLF-Bold;font-size:8.0px;stroke:none;">Figure 3.</text>
   <text y="329.366" x="77.501,79.501,81.501,85.773,90.085,97.109,99.405,101.381,108.157,111.965,116.021,119.773,123.349,125.645,129.909,132.165,134.461,137.861,142.525,146.973,150.245,153.797,157.605,160.301,164.517,168.781,173.141,175.437,179.797,183.605,187.965,192.229,196.205,200.421,204.173,206.869,209.165,212.717,216.981,223.757,228.101,232.365,235.941,237.917,240.389,244.141,247.717,250.013,255.357,257.333,259.805,264.093,266.389,270.701,272.677,274.933,277.189,280.941,283.637,287.389,291.749,294.221,296.517,300.805,304.557,308.365,310.837,313.045,315.517,318.213,321.965,325.773,328.245,335.021,338.773,343.133,345.605,347.901,350.373,352.349,359.125,362.877,364.885,367.181,370.989,373.893,376.189,379.588,384.252,388.7,390.908,394.884,399.1,402.852,404.908,406.923,409.219,413.435,416.339,418.635,422.035,426.699,431.147,433.355,437.699,441.507,444.203,446.675,448.651,452.203,454.115,457.867,461.139,465.115,469.331,473.083,475.138,477.154,479.45,483.258,487.618,491.93,494.226,497.778,500.682,502.978,506.377,511.041,515.489,517.697,522.041,525.849,528.545,531.017,532.993,536.545,538.457,542.209,544.225" svgx:width="0.25,0.55,0.53,0.54,0.88,0.25,0.25,0.85,0.48,0.51,0.47,0.45,0.25,0.53,0.28,0.25,0.5,0.58,0.56,0.41,0.44,0.48,0.34,0.53,0.53,0.55,0.25,0.55,0.48,0.55,0.53,0.5,0.53,0.47,0.34,0.25,0.44,0.53,0.85,0.54,0.53,0.45,0.25,0.31,0.47,0.45,0.25,0.67,0.25,0.31,0.54,0.25,0.54,0.25,0.28,0.28,0.47,0.34,0.47,0.55,0.31,0.25,0.54,0.47,0.48,0.31,0.28,0.31,0.34,0.47,0.48,0.31,0.85,0.47,0.55,0.31,0.25,0.31,0.25,0.85,0.47,0.25,0.25,0.48,0.36,0.25,0.5,0.58,0.56,0.28,0.5,0.53,0.47,0.34,0.25,0.25,0.53,0.36,0.25,0.5,0.58,0.56,0.28,0.54,0.48,0.34,0.31,0.25,0.44,0.24,0.47,0.41,0.5,0.53,0.47,0.34,0.25,0.25,0.48,0.55,0.54,0.25,0.44,0.36,0.25,0.5,0.58,0.56,0.28,0.54,0.48,0.34,0.31,0.25,0.44,0.24,0.47,0.25,0.25" style="fill:rgb(23,22,21);font-family:ScalaSansLF-Regular;font-size:8.0px;stroke:none;"> SEM images of LVP/carbon nanofiber composites with different heat-treatment time. a) LVP-fiber, b) LVP-particle/fiber, and c) LVP-particle, </text>
   <text y="338.862" x="48.189,51.997,56.357,60.669,62.869,67.181,71.493,78.517,80.717,82.693,89.469,93.277,97.333,101.085,104.661,106.861,111.125,113.381,115.581,119.893,122.797,124.997,128.396,133.06,137.508,139.716,143.692,147.908,151.66,153.715,155.731,157.931,161.683,164.587,166.787,170.187,174.851,179.299,181.507,185.851,189.659,192.355,194.827,196.803,200.355,202.267,206.019,209.291,213.267,217.483,221.235,223.289,225.305,227.505,231.313,235.673,239.985,242.185,245.089,247.329,248.064,250.968,253.168,256.568,261.232,265.68,267.888,272.232,276.04,278.736,281.208,283.184,286.736,288.648,292.4" svgx:width="0.48,0.55,0.54,0.25,0.54,0.54,0.88,0.25,0.25,0.85,0.48,0.51,0.47,0.45,0.25,0.53,0.28,0.25,0.54,0.36,0.25,0.5,0.58,0.56,0.28,0.5,0.53,0.47,0.34,0.25,0.25,0.47,0.36,0.25,0.5,0.58,0.56,0.28,0.54,0.48,0.34,0.31,0.25,0.44,0.24,0.47,0.41,0.5,0.53,0.47,0.34,0.25,0.25,0.48,0.55,0.54,0.25,0.36,0.28,0.55,0.36,0.25,0.5,0.58,0.56,0.28,0.54,0.48,0.34,0.31,0.25,0.44,0.24,0.47,0.25" style="fill:rgb(23,22,21);font-family:ScalaSansLF-Regular;font-size:8.0px;stroke:none;">and TEM images of d) LVP-fiber, e) LVP-particle/fiber, and (f) LVP-particle.</text>
  </g>
 </g>
</svg>
