<?xml version="1.0" encoding="UTF-8"?>
<svg height="774.23" width="4165.638" xmlns="http://www.w3.org/2000/svg">
 <g id="page" xmlns:svgx="http://www.xml-cml.org/schema/svgx">
  <g begin="text">
   <text y="22.46" x="40.638,48.208,55.778,63.055,66.145,71.865,77.215,81.135,86.765,90.565,95.995,99.085,103.915,109.695,118.435,121.635,126.125,130.955,133.725,139.15,144.87,148.79,151.56,155.19,157.96,162.79,166.59,172.02,177.78,183.56,187.36,191.28,195.77" svgx:width="0.71,0.71,0.71,0.26,0.53,0.49,0.35,0.52,0.34,0.5,0.26,0.44,0.53,0.83,0.28,0.4,0.44,0.23,0.5,0.53,0.35,0.23,0.32,0.23,0.44,0.34,0.5,0.53,0.53,0.34,0.35,0.4,0.28" style="fill:rgb(255,255,255);font-family:Corbel;font-size:10.0px;stroke:none;">www.nature.com/scientificreports/</text>
  </g>
  <g begin="text">
   <text y="764.23" x="549.53" svgx:width="0.51" style="fill:rgb(131,144,151);font-family:Corbel;font-size:10.0px;stroke:none;">2</text>
  </g>
  <g begin="text">
   <text y="764.193" x="40.794,45.642,50.786,53.186,58.026,64.026,68.898,71.298,75.762,78.162" svgx:width="0.55,0.59,0.25,0.55,0.7,0.56,0.25,0.5,0.25,0.59" style="fill:rgb(131,144,151);font-family:Corbel;font-size:8.0px;stroke:none;">Scientific</text>
   <text y="764.193" x="83.162" svgx:width="0.2" style="fill:rgb(0,0,0);font-family:Corbel;font-size:8.0px;stroke:none;"> </text>
   <text y="764.193" x="84.762,90.218,95.194,100.434,106.738,112.194,117.186" svgx:width="0.63,0.57,0.6,0.73,0.63,0.57,0.58" style="fill:rgb(131,144,151);font-family:Corbel-Bold;font-size:8.0px;stroke:none;">RepoRts</text>
   <text y="764.193" x="122.082,123.524,125.34,126.781,130.885,132.997,137.101,141.205,145.309,149.413,153.517,154.945,156.761,158.203,163.571,169.411,171.379,173.491,174.93,179.034,183.138,185.25,189.354,193.458,197.562,201.666,203.866,207.098,209.778,213.762,218.01,222.114,226.218,230.322,234.426" svgx:width="0.2,0.23,0.2,0.51,0.26,0.51,0.51,0.51,0.51,0.51,0.2,0.23,0.2,0.67,0.73,0.25,0.26,0.2,0.51,0.51,0.26,0.51,0.51,0.51,0.51,0.28,0.4,0.34,0.5,0.53,0.51,0.51,0.51,0.51,0.51" style="fill:rgb(0,0,0);font-family:Corbel;font-size:8.0px;stroke:none;"> | 7:46378 | DOI: 10.1038/srep46378</text>
  </g>
  <path style="fill:none;stroke:rgb(0,0,0);stroke-width:1.0;" d="M40.640 752.550 L554.640 752.550 "/>
  <g begin="text">
   <text y="203.5" x="155.638,160.246,163.467,167.292,172.053,175.922,179.261,183.04,185.83,188.242,192.723,197.574,200.877,202.614,207.096,209.76,211.497,216.267,220.794,223.115,225.392,229.838,236.003,237.74,240.998,243.788,247.216,251.995,255.864,258.519,263.298,266.519,270.389,275.141,276.878,284.212,288.037,290.835,294.831,297.108,298.845,303.291,307.539,309.951,314.703,318.528,321.831,323.568,327.996,332.127,333.864,337.815,339.552,344.034,348.92,352.745,355.949,360.745,365.236,367.981,369.718,374.316,378.375,383.127,386.349,390.84,393.639,398.409,402.234,405.626,412.97,416.966,419.243,420.98,424.202,428.08,432.031,435.9,438.69,441.102,445.584,450.507,452.244,457.023,460.811,464.906,468.731,470.468,475.12,478.99,482.815,487.738,489.475,492.733,495.388,500.167,504.919,507.331,511.2,515.952,517.689,522.341,526.211,530.044,533.824,538.576,541.951,545.776,547.513,551.995,554.659" svgx:width="0.52,0.37,0.43,0.52,0.44,0.37,0.44,0.31,0.27,0.51,0.55,0.37,0.23,0.51,0.3,0.23,0.53,0.51,0.25,0.25,0.51,0.69,0.23,0.37,0.31,0.37,0.53,0.42,0.31,0.53,0.37,0.43,0.53,0.23,0.82,0.43,0.31,0.44,0.25,0.23,0.51,0.47,0.27,0.53,0.43,0.37,0.23,0.51,0.46,0.23,0.44,0.23,0.51,0.55,0.43,0.36,0.52,0.51,0.31,0.23,0.53,0.46,0.53,0.37,0.51,0.31,0.53,0.43,0.37,0.82,0.44,0.25,0.23,0.37,0.43,0.44,0.42,0.31,0.27,0.51,0.55,0.23,0.53,0.44,0.46,0.43,0.23,0.51,0.43,0.43,0.55,0.23,0.37,0.31,0.53,0.53,0.27,0.43,0.53,0.23,0.51,0.43,0.42,0.44,0.53,0.37,0.43,0.23,0.51,0.3,0.23" style="fill:rgb(0,0,0);font-family:MinionPro-Regular;font-size:9.0px;stroke:none;">preparations of hollow structured metal oxides by a one-pot hydrothermal reaction have been studied because of </text>
   <text y="213.499" x="155.638,158.44,163.212,167.037,169.449,172.788,174.732,177.993,180.786,184.217,188.997,192.869,195.527,200.306,203.645,207.644,209.921,211.865,215.816,220.507,224.674,228.547,233.302,236.103,240.012,244.155,247.98,251.283,253.227,256.487,261.266,265.021,269.827,271.771,275.698,279.001,280.945,284.827,288.753,292.056,296.187,298.131,301.938,306.423,311.178,313.971,317.195,321.725,324.002,325.946,330.431,333.095,335.039,342.376,346.861,350.293,354.948,359.721,364.251,366.528,371.118,375.548,379.679,381.623,385.495,390.385,395.137,397.081,399.745,403.696,407.503,409.963,412.24,416.065,418.009,425.347,429.831,434.721,439.395,444.147,446.534,449.795,454.595,458.42,461.707,465.085,468.91,470.854,474.157,476.569,480.349,484.174,486.118,490.87,493.258,496.519,499.31,502.706,505.085,509.561,514.234,517.027,519.439,523.924,528.847,530.791,533.376,537.861,541.2,543.144,545.946,550.718,554.543" svgx:width="0.31,0.53,0.43,0.27,0.37,0.23,0.37,0.31,0.37,0.53,0.42,0.31,0.53,0.37,0.44,0.25,0.23,0.44,0.53,0.46,0.44,0.55,0.31,0.44,0.47,0.43,0.37,0.23,0.37,0.53,0.42,0.53,0.23,0.44,0.37,0.23,0.43,0.44,0.37,0.46,0.23,0.42,0.51,0.55,0.31,0.37,0.51,0.25,0.23,0.51,0.3,0.23,0.82,0.51,0.37,0.52,0.53,0.51,0.25,0.51,0.47,0.46,0.23,0.44,0.55,0.53,0.23,0.3,0.44,0.42,0.27,0.25,0.43,0.23,0.82,0.51,0.55,0.51,0.53,0.27,0.37,0.52,0.43,0.37,0.37,0.43,0.23,0.37,0.27,0.42,0.43,0.23,0.53,0.27,0.37,0.31,0.37,0.27,0.51,0.53,0.31,0.27,0.51,0.55,0.23,0.3,0.51,0.37,0.23,0.31,0.53,0.43,0.23" style="fill:rgb(0,0,0);font-family:MinionPro-Regular;font-size:9.0px;stroke:none;">their structural advantages such as easy control of morphology and facile monodisperse size distribution for the </text>
   <text y="223.498" x="155.638,159.463,164.431,169.21,173.08,177.967,181.774,185.644,190.396,192.232,196.021,198.298,202.168,206.038,208.828,212.05,216.72,220.473,225.243,229.068,236.439,238.851,242.685,246.681,248.958,250.794,255.591,259.416,262.809,265.392,269.874,273.267,280.611,284.481,289.368,293.175,297.0,298.836,305.028,307.332,310.131,314.937,316.773,320.112,323.892,326.583,330.408,332.244,336.078,339.858,344.619,348.498,352.962,355.419,357.696,360.0,362.771,366.902,368.738,373.166,377.297,379.133,383.885,387.71,392.318,395.54,399.365,402.623,405.926,408.338,413.189,417.401,419.237,423.331,427.859,430.027,434.806,442.141,445.966,447.802,451.627,455.875,460.636,464.506,469.357,472.66,475.072,479.554" svgx:width="0.43,0.55,0.53,0.44,0.55,0.42,0.43,0.53,0.23,0.43,0.25,0.43,0.42,0.31,0.37,0.51,0.42,0.53,0.43,0.82,0.27,0.42,0.44,0.25,0.23,0.52,0.43,0.37,0.3,0.51,0.37,0.82,0.44,0.55,0.42,0.43,0.23,0.69,0.27,0.31,0.53,0.23,0.37,0.44,0.31,0.43,0.23,0.42,0.44,0.52,0.44,0.51,0.27,0.25,0.27,0.31,0.46,0.23,0.51,0.46,0.23,0.53,0.43,0.52,0.37,0.43,0.37,0.37,0.27,0.55,0.47,0.23,0.46,0.51,0.25,0.53,0.82,0.43,0.23,0.43,0.47,0.52,0.44,0.55,0.37,0.27,0.51,0.55" style="fill:rgb(0,0,0);font-family:MinionPro-Regular;font-size:9.0px;stroke:none;">enhanced electrochemical performance with rate capability by depressing volume expansion</text>
   <text y="220.44" x="484.498,487.306,488.64,491.448,494.256,497.298,500.106" svgx:width="0.48,0.23,0.48,0.48,0.52,0.48,0.48" style="fill:rgb(0,0,0);font-family:MinionPro-Regular;font-size:5.85px;stroke:none;">3,23–25</text>
   <text y="223.5" x="502.913" svgx:width="0.23" style="fill:rgb(0,0,0);font-family:MinionPro-Regular;font-size:9.0px;stroke:none;">.</text>
   <text y="233.499" x="167.636,173.892,181.291,185.837,190.752,195.027,197.088,199.951,204.785,208.673,210.734,218.133,222.021,224.884,228.944,231.284,233.345,237.854,242.165,244.64,249.455,253.343,256.709,258.77,263.605,268.196,270.582,272.922,277.432,283.66,285.721,289.043,293.76,298.594,302.482,305.768,309.656,313.022,315.137,317.198,320.06,324.894,328.782,330.843,338.107,342.995,345.228,348.082,350.45,355.167,357.507,361.395,364.662,367.993,372.827,376.68,379.065,381.405,385.338,390.153,392.214,397.832,402.818,407.473" svgx:width="0.69,0.82,0.51,0.55,0.47,0.23,0.31,0.53,0.43,0.23,0.82,0.43,0.31,0.44,0.25,0.23,0.51,0.47,0.27,0.53,0.43,0.37,0.23,0.53,0.51,0.25,0.25,0.51,0.69,0.23,0.37,0.52,0.53,0.43,0.37,0.43,0.37,0.23,0.23,0.31,0.53,0.43,0.23,0.82,0.53,0.25,0.31,0.27,0.52,0.25,0.43,0.36,0.37,0.53,0.43,0.25,0.25,0.43,0.53,0.23,0.6,0.55,0.53,0.43" style="fill:rgb(0,0,0);font-family:MinionPro-Regular;font-size:9.0px;stroke:none;">Among the metal oxides hollow spheres, the multiple-shelled ZnFe</text>
   <text y="235.3" x="411.399" svgx:width="0.48" style="fill:rgb(0,0,0);font-family:MinionPro-Regular;font-size:5.85px;stroke:none;">2</text>
   <text y="233.5" x="414.249" svgx:width="0.75" style="fill:rgb(0,0,0);font-family:MinionPro-Regular;font-size:9.0px;stroke:none;">O</text>
   <text y="235.3" x="421.036" svgx:width="0.48" style="fill:rgb(0,0,0);font-family:MinionPro-Regular;font-size:5.85px;stroke:none;">4</text>
   <text y="233.5" x="423.885,425.946,430.78,435.371,437.757,440.097,444.607,450.835,452.896,460.33,462.805,466.675,469.961,474.614,477.936,482.653,487.486,491.374,494.66,498.548,501.914,503.975,507.909,511.195,515.083,517.144,521.959,524.434,529.466,533.354,536.64,540.528,545.345,548.208,550.486,554.617" svgx:width="0.23,0.53,0.51,0.25,0.25,0.51,0.69,0.23,0.82,0.27,0.42,0.37,0.51,0.37,0.52,0.53,0.43,0.37,0.43,0.37,0.23,0.44,0.37,0.43,0.23,0.53,0.27,0.56,0.43,0.37,0.43,0.55,0.31,0.25,0.46,0.23" style="fill:rgb(0,0,0);font-family:MinionPro-Regular;font-size:9.0px;stroke:none;"> hollow microspheres are differently </text>
   <text y="243.499" x="155.64,160.372,163.719,167.67,172.556,176.551,179.897,183.892,188.77,191.047,197.363,199.791,202.716,207.648,209.925,214.803,217.341,222.433,226.384,229.731,233.682,238.559,241.43,243.707,247.665,251.785,254.188,258.121,260.659,265.68,269.585,272.5,275.038,279.644,284.693,286.97,289.786,293.737,301.061,305.983,309.934,313.398,317.304,320.083,324.988,328.335,332.286,335.715,337.893,340.17,344.173,348.221,351.65,354.231,356.57,360.827,363.104,367.836,371.182,375.176,380.054,382.592,386.587,389.502,392.04,397.016,401.354,403.631,407.708,409.985,413.367,416.281,419.628,424.234,429.211,433.549,435.826,439.777,444.87,448.864,452.858,455.729,458.006,462.612,465.402,467.679,471.592,473.995,477.991,481.985,484.899,488.245,493.041,496.918,501.813,505.764,513.261,515.799,519.758,523.878,526.281,528.558,533.479,537.43,540.947,543.655,548.262,551.433" svgx:width="0.52,0.37,0.43,0.52,0.44,0.37,0.43,0.53,0.23,0.69,0.27,0.31,0.53,0.23,0.53,0.27,0.56,0.43,0.37,0.43,0.55,0.31,0.23,0.42,0.44,0.25,0.42,0.27,0.55,0.44,0.31,0.27,0.51,0.55,0.23,0.31,0.43,0.82,0.52,0.43,0.37,0.44,0.31,0.53,0.37,0.43,0.37,0.23,0.23,0.43,0.44,0.37,0.27,0.25,0.46,0.23,0.52,0.37,0.43,0.53,0.27,0.42,0.31,0.27,0.55,0.47,0.23,0.44,0.23,0.37,0.31,0.37,0.51,0.55,0.47,0.23,0.43,0.56,0.43,0.42,0.31,0.23,0.51,0.3,0.23,0.43,0.25,0.43,0.42,0.31,0.37,0.51,0.42,0.53,0.43,0.82,0.27,0.42,0.44,0.25,0.23,0.52,0.43,0.37,0.3,0.51,0.37,0.36" style="fill:rgb(0,0,0);font-family:MinionPro-Regular;font-size:9.0px;stroke:none;">prepared with different calcination temperatures, easily predicting a strong effect of electrochemical perfor-</text>
   <text y="253.498" x="155.64,162.991,166.867,171.76,175.576,179.41,182.722,184.783,186.727,191.404,196.003,197.947,202.733,206.519,209.216,212.993,215.054,216.998,219.802,224.578,228.412,230.356,234.854,239.477,242.273,244.694,251.9,256.688,264.068,266.012,270.773,274.607,277.919,280.34,284.603,289.535,291.479,295.967,298.64,300.584,307.791,312.62,314.795,317.592,319.902,324.561,326.847,330.681,333.894,337.168,341.944,345.739,348.067,350.353,354.229,358.99,360.934,366.493,371.425,376.022" svgx:width="0.82,0.44,0.55,0.42,0.43,0.37,0.23,0.23,0.62,0.51,0.23,0.53,0.44,0.31,0.43,0.23,0.23,0.31,0.53,0.43,0.23,0.51,0.52,0.31,0.27,0.82,0.53,0.82,0.23,0.53,0.43,0.37,0.27,0.47,0.55,0.23,0.51,0.3,0.23,0.82,0.53,0.25,0.31,0.27,0.52,0.25,0.43,0.36,0.37,0.53,0.43,0.25,0.25,0.43,0.53,0.23,0.6,0.55,0.53,0.43" style="fill:rgb(0,0,0);font-family:MinionPro-Regular;font-size:9.0px;stroke:none;">mances. To date, the optimum design of multiple-shelled ZnFe</text>
   <text y="255.3" x="379.815" svgx:width="0.48" style="fill:rgb(0,0,0);font-family:MinionPro-Regular;font-size:5.85px;stroke:none;">2</text>
   <text y="253.5" x="382.627" svgx:width="0.75" style="fill:rgb(0,0,0);font-family:MinionPro-Regular;font-size:9.0px;stroke:none;">O</text>
   <text y="255.3" x="389.356" svgx:width="0.48" style="fill:rgb(0,0,0);font-family:MinionPro-Regular;font-size:5.85px;stroke:none;">4</text>
   <text y="253.5" x="392.168,394.112,398.888,403.421,405.75,408.036,412.487,418.661,420.605,423.869,428.528,433.304,437.138,440.366,444.2,447.512,449.456,455.654,457.964,460.77,465.585,467.529,471.704,475.581,478.98,481.401,485.898,490.656,493.968,495.912,499.752,503.754,506.04,509.856,512.277,517.18,520.966,523.762,526.183,530.672,535.604,537.548,540.244,544.078,551.458" svgx:width="0.23,0.53,0.51,0.25,0.25,0.51,0.69,0.23,0.37,0.52,0.53,0.43,0.37,0.43,0.37,0.23,0.69,0.27,0.31,0.53,0.23,0.46,0.44,0.37,0.27,0.51,0.53,0.37,0.23,0.42,0.44,0.25,0.42,0.27,0.55,0.44,0.31,0.27,0.51,0.55,0.23,0.31,0.43,0.82,0.36" style="fill:rgb(0,0,0);font-family:MinionPro-Regular;font-size:9.0px;stroke:none;"> hollow spheres with various calcination tem-</text>
   <text y="263.499" x="155.639,160.42,164.227,167.548,171.312,173.951,178.712,181.919,185.726,189.011,190.73,193.099,196.384,198.103,201.424,205.278,208.484,212.258,214.456,218.569,220.288,223.495,227.302,232.084,236.55,239.963,242.638,246.493,251.175,253.209,254.928,264.514,268.321,270.04,277.225,282.033,284.187,286.96,289.249,293.886,296.145,299.952,303.138,306.389,311.144,314.916,317.223,319.482,323.337,328.071,329.79,335.327,340.232,344.807" svgx:width="0.52,0.43,0.37,0.44,0.31,0.53,0.37,0.43,0.37,0.23,0.27,0.37,0.23,0.37,0.44,0.37,0.43,0.25,0.46,0.23,0.37,0.43,0.52,0.51,0.37,0.31,0.43,0.53,0.23,0.23,1.07,0.43,0.23,0.82,0.53,0.25,0.31,0.27,0.52,0.25,0.43,0.36,0.37,0.53,0.43,0.25,0.25,0.43,0.53,0.23,0.6,0.55,0.53,0.43" style="fill:rgb(0,0,0);font-family:MinionPro-Regular;font-size:9.0px;stroke:none;">peratures is rarely reported. The multiple-shelled ZnFe</text>
   <text y="265.3" x="348.665" svgx:width="0.48" style="fill:rgb(0,0,0);font-family:MinionPro-Regular;font-size:5.85px;stroke:none;">2</text>
   <text y="263.5" x="351.462" svgx:width="0.75" style="fill:rgb(0,0,0);font-family:MinionPro-Regular;font-size:9.0px;stroke:none;">O</text>
   <text y="265.3" x="358.17" svgx:width="0.48" style="fill:rgb(0,0,0);font-family:MinionPro-Regular;font-size:5.85px;stroke:none;">4</text>
   <text y="263.5" x="360.967,362.686,367.441,371.952,374.259,376.518,380.948,387.095,388.814,392.057,396.695,401.449,405.256,408.461,412.268,415.553,417.272,422.009,425.294,427.688,432.524,436.718,438.437,442.37,444.089,448.555,453.426,457.233,460.419,465.2,469.676,472.403,474.122,478.705,482.749,487.483,490.69,495.166,497.948,502.703,506.51,509.888,517.216,521.196,523.455,525.174,528.381,532.244,536.177,540.031,542.805,545.199,549.666,554.589" svgx:width="0.23,0.53,0.51,0.25,0.25,0.51,0.69,0.23,0.37,0.52,0.53,0.43,0.37,0.43,0.37,0.23,0.53,0.37,0.27,0.55,0.47,0.23,0.44,0.23,0.51,0.55,0.43,0.36,0.52,0.51,0.31,0.23,0.53,0.46,0.53,0.37,0.51,0.31,0.53,0.43,0.37,0.82,0.44,0.25,0.23,0.37,0.43,0.44,0.42,0.31,0.27,0.51,0.55,0.23" style="fill:rgb(0,0,0);font-family:MinionPro-Regular;font-size:9.0px;stroke:none;"> hollow spheres using a one-pot hydrothermal reaction </text>
   <text y="273.499" x="155.642,160.448,165.362,170.141,173.993,177.359,179.33,184.109,186.548,191.544,195.396,198.646,202.498,207.278,210.05,212.021,215.883,219.907,222.211,226.045,228.484,233.408,237.216,240.034,242.473,246.982,251.932,253.903,256.622,260.474,267.702,272.526,276.378,279.744,283.552,286.235,291.041,294.292,298.144,301.474,303.445,307.344,310.593,314.445,316.416,319.107,323.014,327.505,330.926,333.365,337.227,341.035,343.754,347.651,352.43,354.401,357.227,362.06,365.31,369.829,374.635,378.938,383.771,385.742,388.569,393.367,397.219,399.19,406.417,411.116,413.799,418.632,422.656,424.96,426.931,430.765,435.464,439.983,444.808,448.66,452.026,455.834,458.652,461.091,465.601,470.551,472.522,477.032,479.723,481.694,484.133,488.876,495.068,498.966,502.216,506.995,508.966,512.864,517.779,522.558,524.529,529.049,533.748,536.547,542.739,546.637,549.887,554.639" svgx:width="0.53,0.55,0.53,0.43,0.37,0.23,0.53,0.27,0.56,0.43,0.37,0.43,0.55,0.31,0.23,0.42,0.44,0.25,0.42,0.27,0.55,0.44,0.31,0.27,0.51,0.55,0.23,0.31,0.43,0.82,0.52,0.43,0.37,0.44,0.31,0.53,0.37,0.43,0.37,0.23,0.44,0.37,0.43,0.23,0.3,0.44,0.51,0.37,0.27,0.42,0.44,0.31,0.43,0.53,0.23,0.31,0.53,0.37,0.51,0.53,0.47,0.53,0.23,0.31,0.53,0.43,0.23,0.82,0.53,0.31,0.53,0.44,0.25,0.23,0.42,0.51,0.51,0.52,0.43,0.37,0.44,0.31,0.27,0.51,0.55,0.23,0.51,0.3,0.23,0.27,0.55,0.69,0.44,0.37,0.53,0.23,0.44,0.55,0.53,0.23,0.51,0.53,0.31,0.69,0.44,0.37,0.53,0.23" style="fill:rgb(0,0,0);font-family:MinionPro-Regular;font-size:9.0px;stroke:none;">under different calcination temperatures are fabricated through the mutual cooperation of inward and outward </text>
   <text y="283.498" x="155.642,159.095,161.459,166.317,170.205,175.191,177.666,182.579,186.878,188.993,191.045,197.333,202.202,204.677,208.491,213.36,215.412,219.282,223.825,228.737,232.103,234.548,237.866,240.674,242.726,247.27,249.997,252.049,256.762,261.313,264.173,269.042,271.094,278.49,282.378,285.813,290.364,295.222,299.765,303.047,307.599,312.412,315.778,317.83,321.157,325.987,329.837,332.22,334.53,337.896,339.948,343.878,348.827,353.642,355.694,363.098,367.112,370.982,374.264,378.815,383.673,388.216,391.498,396.051,400.863,404.229,406.281,410.436,414.978,417.453,422.239,425.605,427.657,430.132,435.118,439.868,444.71,448.598,453.546,457.416,459.891,464.802,469.077,471.129,475.673,480.659,482.711,485.57,490.4,494.288,496.34,498.815,506.076,510.745,514.027,518.534,522.69,526.578,533.973,537.861,542.674,545.482,547.534,552.076,554.74" svgx:width="0.37,0.27,0.52,0.43,0.55,0.27,0.55,0.47,0.23,0.23,0.69,0.53,0.27,0.42,0.53,0.23,0.42,0.51,0.55,0.37,0.27,0.37,0.31,0.23,0.51,0.3,0.23,0.51,0.51,0.31,0.53,0.23,0.82,0.43,0.37,0.51,0.52,0.51,0.37,0.51,0.53,0.37,0.23,0.37,0.53,0.43,0.25,0.25,0.37,0.23,0.44,0.55,0.53,0.23,0.82,0.44,0.42,0.37,0.51,0.52,0.51,0.37,0.51,0.53,0.37,0.23,0.46,0.51,0.27,0.53,0.37,0.23,0.27,0.55,0.53,0.53,0.43,0.55,0.42,0.27,0.55,0.47,0.23,0.51,0.55,0.23,0.31,0.53,0.43,0.23,0.27,0.82,0.52,0.37,0.51,0.46,0.43,0.82,0.43,0.55,0.31,0.23,0.51,0.3,0.23" style="fill:rgb(0,0,0);font-family:MinionPro-Regular;font-size:9.0px;stroke:none;">ripening, which consist of both mesoporous shells and macroporous voids influencing on the improvement of </text>
   <text y="293.497" x="155.642,159.521,161.888,165.848,169.808,172.688,176.0,180.76,184.604,189.464,193.378,200.839,203.341,207.265,211.351,213.718,215.869,220.756,224.671,228.154,230.827,235.399,238.882,246.317,250.277,255.254,259.151" svgx:width="0.43,0.25,0.43,0.42,0.31,0.37,0.51,0.42,0.53,0.43,0.82,0.27,0.42,0.44,0.25,0.23,0.52,0.43,0.37,0.3,0.51,0.37,0.82,0.44,0.55,0.42,0.43" style="fill:rgb(0,0,0);font-family:MinionPro-Regular;font-size:9.0px;stroke:none;">electrochemical performance</text>
   <text y="290.44" x="263.064,265.931,268.797,271.898,274.764" svgx:width="0.48,0.48,0.52,0.48,0.48" style="fill:rgb(0,0,0);font-family:MinionPro-Regular;font-size:5.85px;stroke:none;">26–28</text>
   <text y="293.5" x="277.631,279.773,281.924,284.939,289.746,296.001,299.961,303.273,308.115,310.266,313.749,316.143,321.03,324.945,329.958,332.46,337.401,341.703,343.854,348.597,352.512,356.859,359.362,364.303,367.696,369.847,372.628,377.308,379.459,381.961,386.974,389.368,392.248,394.777,398.647,401.428,405.343,407.494,414.928,418.942,422.29,425.683,427.834,431.146,435.115,439.075,442.558,445.987,449.948,454.889,459.119,463.034,470.459,474.374,479.216,482.051,484.202,487.046,490.358,494.93,502.391,504.542,507.431,512.291,516.206,518.357,522.938,527.7,530.481,534.396,537.825,539.976,543.324,548.193,551.438" svgx:width="0.23,0.23,0.34,0.55,0.69,0.44,0.37,0.53,0.23,0.37,0.27,0.52,0.43,0.55,0.27,0.55,0.47,0.23,0.51,0.43,0.47,0.27,0.55,0.37,0.23,0.31,0.51,0.23,0.27,0.55,0.27,0.31,0.27,0.44,0.31,0.43,0.23,0.82,0.44,0.37,0.37,0.23,0.37,0.43,0.44,0.37,0.37,0.44,0.55,0.47,0.43,0.82,0.43,0.55,0.31,0.23,0.3,0.37,0.51,0.82,0.23,0.31,0.53,0.43,0.23,0.51,0.53,0.31,0.43,0.37,0.23,0.37,0.53,0.37,0.36" style="fill:rgb(0,0,0);font-family:MinionPro-Regular;font-size:9.0px;stroke:none;">. Inward ripening begins to initiate mass rearrangement from the outer sur-</text>
   <text y="303.499" x="155.645,158.363,162.368,166.229,170.056,172.162,174.196,180.48,185.307,189.186,192.465,196.399,200.38,203.737,205.771,210.319,215.046,217.873,224.092,228.019,231.297,236.103,238.137,241.587,243.946,248.8,252.679,257.656,260.122,265.03,269.296,271.33,274.644,277.499,281.425,284.911,287.71,291.067,293.101,300.502,304.481,307.796,311.153,313.187,316.033,319.426,323.352,328.259,331.616,334.256,338.135,341.528,343.562,346.373,349.651,354.189,361.614,363.648,366.503,371.33,375.209,377.243,381.104,384.983,389.791,392.538,396.417,399.81,401.844,406.382,409.1,411.134,415.139,417.173,421.034,424.69,428.875,432.189,435.044,439.096,441.475,443.806,446.167,448.913,452.792,454.826,458.789,463.111,467.424,470.702,474.581,478.847,482.683,485.431,489.258,491.364,493.398,498.323,502.25,505.735,508.581,511.047,514.973,519.853,522.213,526.139,529.499,531.769,535.299,537.405,539.439,542.295,547.155,549.621,554.544" svgx:width="0.3,0.44,0.42,0.43,0.23,0.23,0.69,0.53,0.43,0.37,0.43,0.44,0.37,0.23,0.51,0.53,0.31,0.69,0.44,0.37,0.53,0.23,0.37,0.27,0.52,0.43,0.55,0.27,0.55,0.47,0.23,0.37,0.31,0.44,0.37,0.31,0.37,0.23,0.82,0.44,0.37,0.37,0.23,0.31,0.37,0.44,0.55,0.37,0.3,0.43,0.37,0.23,0.3,0.37,0.51,0.82,0.23,0.31,0.53,0.43,0.23,0.42,0.43,0.55,0.31,0.43,0.37,0.23,0.51,0.3,0.23,0.44,0.23,0.42,0.37,0.46,0.37,0.31,0.44,0.25,0.25,0.27,0.31,0.43,0.23,0.44,0.47,0.47,0.37,0.43,0.47,0.44,0.31,0.43,0.23,0.23,0.56,0.44,0.37,0.31,0.27,0.42,0.53,0.25,0.44,0.37,0.25,0.46,0.23,0.23,0.31,0.53,0.27,0.55,0.23" style="fill:rgb(0,0,0);font-family:MinionPro-Regular;font-size:9.0px;stroke:none;">face, whereas outward ripening starts mass transfer from the center of a crystallite aggregate. Particularly, thin </text>
   <text y="313.498" x="155.645,162.88,167.739,169.944,172.769,175.108,179.797,182.11,185.971,189.211,192.513,197.318,201.142,203.5,205.813,209.719,214.507,216.482,222.071,227.03,231.655" svgx:width="0.82,0.53,0.25,0.31,0.27,0.52,0.25,0.43,0.36,0.37,0.53,0.43,0.25,0.25,0.43,0.53,0.23,0.6,0.55,0.53,0.43" style="fill:rgb(0,0,0);font-family:MinionPro-Regular;font-size:9.0px;stroke:none;">multiple-shelled ZnFe</text>
   <text y="315.3" x="235.505" svgx:width="0.48" style="fill:rgb(0,0,0);font-family:MinionPro-Regular;font-size:5.85px;stroke:none;">2</text>
   <text y="313.5" x="238.336" svgx:width="0.75" style="fill:rgb(0,0,0);font-family:MinionPro-Regular;font-size:9.0px;stroke:none;">O</text>
   <text y="315.3" x="245.094" svgx:width="0.48" style="fill:rgb(0,0,0);font-family:MinionPro-Regular;font-size:5.85px;stroke:none;">4</text>
   <text y="313.5" x="247.925,249.905,254.71,259.273,261.63,263.943,268.425,274.626,276.606,279.9,284.588,289.394,293.255,296.513,300.374,303.713,305.693,309.032,313.225,318.013,320.847,325.652,329.513,332.852,335.3,339.116,343.021,347.809,349.789,353.604,356.385,358.361,362.267,367.226,369.206,373.021,377.674,382.317,385.575,390.101,394.744,398.173,400.647,404.462,407.189,411.05,413.03,416.899,420.931,423.244,427.087,429.535,434.466,438.282,441.107,443.555,448.072,453.031,455.011,457.737,461.598,468.834,473.666,477.527,480.902,484.718,487.408,492.223,495.481,499.342,501.322,505.227,508.485,512.346,514.326,517.619,522.434,524.774,527.609,531.523,536.068,538.381,542.242,544.222,546.841,551.358,554.697" svgx:width="0.23,0.53,0.51,0.25,0.25,0.51,0.69,0.23,0.37,0.52,0.53,0.43,0.37,0.43,0.37,0.23,0.37,0.46,0.55,0.31,0.53,0.43,0.37,0.27,0.42,0.43,0.53,0.23,0.44,0.31,0.23,0.44,0.55,0.23,0.44,0.52,0.52,0.37,0.51,0.52,0.37,0.27,0.44,0.31,0.43,0.23,0.42,0.44,0.25,0.42,0.27,0.55,0.44,0.31,0.27,0.51,0.55,0.23,0.31,0.43,0.82,0.52,0.43,0.37,0.44,0.31,0.53,0.37,0.43,0.23,0.44,0.37,0.43,0.23,0.37,0.53,0.27,0.31,0.44,0.51,0.25,0.43,0.23,0.3,0.51,0.37,0.23" style="fill:rgb(0,0,0);font-family:MinionPro-Regular;font-size:9.0px;stroke:none;"> hollow spheres synthesized at an appropriate calcination temperature are suitable for </text>
   <text y="323.499" x="155.639,159.577,164.656,169.548,173.53,178.529,182.448,184.973,189.936,194.26,196.492,199.863,204.771,208.754,212.672,215.197,220.123,224.043,226.275,230.221,234.113,238.986,243.049,246.969,249.385,252.269,256.512,258.744,262.727,267.726,272.59,274.822,278.272,282.165,284.968,288.905,291.137,295.083,298.976,303.849,307.84,312.417,314.985,317.374,319.79,322.675,326.26,328.425,330.657,334.639,339.639,344.502,346.734,350.797,354.968,358.834,361.223,363.747,368.711,373.034,375.266,378.636,381.547,385.538,390.114,392.684,395.073,397.489,400.373,404.616,406.848,411.605,416.496,420.433,422.665,425.467,430.17,432.402,435.313,440.196,444.132,446.364,449.06,453.699,456.133,458.523,463.081,469.385,471.909,476.873,481.196,483.428,486.763,490.754,494.79,498.277,502.872,507.835,511.25,513.414,515.646,520.519,523.044,526.441,529.811,532.722,535.049,538.634,540.799,543.031,545.942,550.825,554.649" svgx:width="0.43,0.55,0.53,0.44,0.55,0.42,0.27,0.55,0.47,0.23,0.37,0.52,0.43,0.42,0.27,0.54,0.42,0.23,0.42,0.44,0.52,0.44,0.42,0.27,0.31,0.46,0.23,0.44,0.55,0.53,0.23,0.37,0.44,0.31,0.43,0.23,0.42,0.44,0.52,0.44,0.51,0.27,0.25,0.27,0.31,0.46,0.23,0.23,0.44,0.55,0.53,0.23,0.42,0.46,0.42,0.25,0.27,0.55,0.47,0.23,0.37,0.31,0.44,0.51,0.27,0.25,0.27,0.31,0.46,0.23,0.53,0.53,0.43,0.23,0.31,0.51,0.23,0.31,0.53,0.43,0.23,0.3,0.51,0.25,0.25,0.51,0.69,0.27,0.55,0.47,0.23,0.37,0.43,0.44,0.37,0.51,0.55,0.37,0.23,0.23,0.53,0.27,0.37,0.37,0.31,0.25,0.46,0.23,0.23,0.31,0.53,0.43,0.23" style="fill:rgb(0,0,0);font-family:MinionPro-Regular;font-size:9.0px;stroke:none;">enhancing specific capacity and rate capability, and cycling stability due to the following reasons. Firstly, the </text>
   <text y="333.498" x="155.639,160.57,164.474,169.395,173.92,178.715,182.62,186.083,188.906,191.354,195.141,197.454,201.315,204.654,206.625,210.468,214.984,222.219,226.86,230.287,232.706,236.045,238.493,243.379,247.627,249.598,254.114,256.814,258.785,266.154,270.015,273.423,277.948,282.78,287.296,290.552,295.077,299.863,303.202,305.173,308.466,311.29,314.753,319.568,323.471,326.161,330.976,334.232,338.136,342.924,344.895,348.196,353.0,356.823,359.179,361.463,364.802,366.773,371.289,376.291,380.152,383.527,385.498,388.332,393.136,396.997,398.968,402.26,405.084,408.547,413.362,417.267,419.956,424.771,428.146,432.176,434.489,436.46,439.752,442.585,446.499,450.996,453.487,455.8,458.138,460.944,465.111,467.082,471.069,474.912,478.755,483.272,490.679,498.048,502.753,507.566,511.38,514.205,516.653,521.538,525.786,527.757,531.885,536.446,538.649,543.464,550.834,554.659" svgx:width="0.55,0.44,0.55,0.51,0.52,0.44,0.37,0.31,0.27,0.42,0.25,0.43,0.37,0.23,0.42,0.51,0.82,0.52,0.37,0.27,0.37,0.27,0.55,0.47,0.23,0.51,0.3,0.23,0.82,0.43,0.37,0.51,0.52,0.51,0.37,0.51,0.53,0.37,0.23,0.37,0.31,0.37,0.53,0.42,0.31,0.53,0.37,0.43,0.53,0.23,0.37,0.53,0.43,0.25,0.25,0.37,0.23,0.51,0.56,0.43,0.37,0.23,0.31,0.53,0.43,0.23,0.37,0.31,0.37,0.53,0.42,0.31,0.53,0.37,0.44,0.25,0.23,0.37,0.31,0.44,0.51,0.27,0.25,0.27,0.31,0.46,0.23,0.44,0.42,0.42,0.51,0.82,0.82,0.51,0.53,0.44,0.31,0.27,0.55,0.47,0.23,0.46,0.51,0.25,0.53,0.82,0.43,0.23" style="fill:rgb(0,0,0);font-family:MinionPro-Regular;font-size:9.0px;stroke:none;">nanoparticles comprising of mesoporous structured shells offer the structural stability accommodating volume </text>
   <text y="343.497" x="155.639,159.464,163.712,168.473,172.343,177.194,180.497,182.909,187.39,192.313,194.176,198.82,203.599,206.992,209.404,214.255,218.467,220.33,223.129,227.899,231.724,233.587,238.195,241.417,246.088,249.895,253.72,256.978,260.281,262.144,266.626,269.29,271.153,276.049" svgx:width="0.43,0.47,0.52,0.44,0.55,0.37,0.27,0.51,0.55,0.23,0.53,0.53,0.37,0.27,0.55,0.47,0.23,0.31,0.53,0.43,0.23,0.52,0.37,0.51,0.42,0.43,0.37,0.37,0.23,0.51,0.3,0.23,0.54,0.27" style="fill:rgb(0,0,0);font-family:MinionPro-Regular;font-size:9.0px;stroke:none;">expansion during the process of Li</text>
   <text y="340.44" x="278.471" svgx:width="0.78" style="fill:rgb(0,0,0);font-family:EuclidSymbol;font-size:5.85px;stroke:none;">+</text>
   <text y="343.5" x="283.022,284.885,287.297,292.148,295.523,299.348,302.777,305.567,307.979,312.461,317.384,319.247,323.117,328.004,332.756,334.619,338.444,342.692,345.482,348.821,352.772,356.641,359.431,361.843,366.325,371.248,373.3,375.163,379.033,383.92,388.672,390.535,393.334,398.104,401.929,403.792,407.05,411.829,419.011,422.818,425.23,429.055,433.807,436.552,438.415,442.294,446.758,449.215,451.492,453.796,456.568,460.699,462.562,467.044,469.708,471.571,473.848,476.152,478.951,483.757,486.061,490.84,498.211,500.074,503.332,506.023,510.505,513.844,517.75,521.89,525.715,527.578,532.024,538.216,543.139,545.551,550.401,554.613" svgx:width="0.23,0.27,0.55,0.37,0.43,0.37,0.31,0.27,0.51,0.55,0.23,0.44,0.55,0.53,0.23,0.43,0.47,0.31,0.37,0.44,0.42,0.31,0.27,0.51,0.55,0.23,0.23,0.44,0.55,0.53,0.23,0.31,0.53,0.43,0.23,0.37,0.53,0.8,0.42,0.27,0.43,0.55,0.31,0.23,0.44,0.51,0.27,0.25,0.27,0.31,0.46,0.23,0.51,0.3,0.23,0.25,0.27,0.31,0.53,0.27,0.53,0.82,0.23,0.37,0.31,0.51,0.37,0.44,0.47,0.43,0.23,0.51,0.69,0.55,0.27,0.55,0.47,0.23" style="fill:rgb(0,0,0);font-family:MinionPro-Regular;font-size:9.0px;stroke:none;"> insertion and extraction, and the sufficient ability of lithium storage owning </text>
   <text y="353.499" x="155.636,158.387,163.04,165.087,167.946,172.775,176.663,179.138,182.54,184.588,187.23,191.771,195.224,202.627,206.467,209.316,211.791,216.332,221.318,223.365,227.907,230.634,232.681,236.619,241.153,245.995,250.941,255.779,259.709,264.521,267.329,269.376,273.224,275.564,279.493,283.423,286.272,289.554,294.284,298.097,302.927,306.815,314.249,316.724,320.617,324.673,327.013,329.059,332.425,334.789,337.539,341.427" svgx:width="0.31,0.51,0.23,0.31,0.53,0.43,0.27,0.37,0.23,0.3,0.51,0.37,0.82,0.44,0.31,0.27,0.51,0.55,0.23,0.51,0.3,0.23,0.44,0.51,0.53,0.55,0.53,0.44,0.55,0.31,0.23,0.43,0.25,0.43,0.42,0.31,0.37,0.51,0.42,0.53,0.43,0.82,0.27,0.42,0.44,0.25,0.23,0.37,0.27,0.31,0.43,0.37" style="fill:rgb(0,0,0);font-family:MinionPro-Regular;font-size:9.0px;stroke:none;">to their formation of abundant electrochemical sites</text>
   <text y="350.44" x="344.737,347.586,350.435,351.81,354.659" svgx:width="0.48,0.48,0.23,0.48,0.48" style="fill:rgb(0,0,0);font-family:MinionPro-Regular;font-size:5.85px;stroke:none;">29,30</text>
   <text y="353.5" x="357.496,359.611,361.659,366.11,370.04,373.91,378.451,383.398,388.254,390.527,394.062,396.177,398.223,401.082,405.912,409.8,411.847,414.322,419.133,421.884,425.772,429.261,434.081,438.01,441.499,444.348,446.823,450.636,452.976,456.864,458.911,466.306,470.194,473.628,478.178,483.035,487.576,490.858,495.409,500.22,503.586,505.633,508.951,513.772,517.786,521.656,525.544,528.91,530.956,537.208,539.572,542.43,547.299,549.774,554.697" svgx:width="0.23,0.23,0.47,0.43,0.42,0.51,0.55,0.53,0.25,0.46,0.23,0.23,0.31,0.53,0.43,0.23,0.27,0.55,0.31,0.43,0.37,0.52,0.44,0.37,0.31,0.27,0.42,0.25,0.43,0.23,0.82,0.43,0.37,0.51,0.52,0.51,0.37,0.51,0.53,0.37,0.23,0.37,0.52,0.44,0.42,0.43,0.37,0.23,0.69,0.27,0.31,0.53,0.27,0.55,0.23" style="fill:rgb(0,0,0);font-family:MinionPro-Regular;font-size:9.0px;stroke:none;">. Secondly, the interparticle mesoporous spaces within </text>
   <text y="363.499" x="155.635,158.514,163.401,165.894,170.898,173.013,176.358,181.207,185.075,187.477,189.806,193.19,195.305,202.728,206.802,211.264,215.17,218.554,220.669,223.053,225.879,227.994,231.951,235.955,239.339,241.832,245.738,249.158,251.273,254.043,258.714,260.829,265.705,269.611,274.577,278.483,281.352,284.772,288.631,291.401,295.307,297.422,300.301,305.15,309.056,311.171,315.039,317.397,321.346,325.295,328.165,331.466,336.072,338.365,342.577,345.347,349.253,351.368,355.894,362.165,367.169,369.662,374.592,378.885,381.0,383.77,388.441,390.556,393.893,398.753,402.226,404.971,409.003,412.891,416.797,418.912,423.788,427.694,431.166,438.58,442.537,446.496,451.039,453.575,455.933,458.316,461.167,464.721,466.854,468.969,478.651,482.557,484.672,487.165,491.996,494.766,498.672,502.18,507.02,510.969,514.477,517.346,519.839,523.671,526.029,529.935,532.05,539.464,543.37,546.824,551.495" svgx:width="0.31,0.53,0.27,0.55,0.23,0.37,0.53,0.43,0.25,0.25,0.37,0.23,0.82,0.44,0.5,0.43,0.37,0.23,0.27,0.31,0.23,0.43,0.44,0.37,0.27,0.43,0.37,0.23,0.31,0.51,0.23,0.52,0.43,0.55,0.43,0.31,0.37,0.44,0.31,0.43,0.23,0.31,0.53,0.43,0.23,0.43,0.25,0.43,0.42,0.31,0.37,0.51,0.25,0.46,0.31,0.43,0.23,0.51,0.69,0.55,0.27,0.55,0.47,0.23,0.31,0.51,0.23,0.37,0.53,0.37,0.3,0.44,0.42,0.43,0.23,0.52,0.43,0.37,0.82,0.43,0.44,0.51,0.27,0.25,0.27,0.31,0.46,0.23,0.23,1.07,0.43,0.23,0.27,0.55,0.31,0.43,0.37,0.52,0.44,0.37,0.31,0.27,0.42,0.25,0.43,0.23,0.82,0.43,0.37,0.51,0.36" style="fill:rgb(0,0,0);font-family:MinionPro-Regular;font-size:9.0px;stroke:none;">thin shells makes it easier to penetrate the electrolyte owning to surface permeability. The interparticle meso-</text>
   <text y="373.498" x="155.635,160.529,165.107,168.426,173.013,177.862,181.264,183.442,186.797,191.653,195.703,199.609,203.533,206.935,209.113,212.433,216.398,221.139,226.017,229.923,233.847,236.025,238.92,243.788,247.712,249.89,254.741,257.252,262.451,267.3,270.702,273.213,277.791,282.813,284.991,287.367,291.291,296.239,300.55,303.445,308.35,310.528,315.106,317.869,320.047,325.04" svgx:width="0.52,0.51,0.37,0.51,0.53,0.37,0.23,0.37,0.52,0.44,0.42,0.43,0.37,0.23,0.37,0.43,0.53,0.53,0.42,0.43,0.23,0.31,0.53,0.43,0.23,0.53,0.27,0.56,0.53,0.37,0.27,0.51,0.55,0.23,0.25,0.43,0.55,0.47,0.31,0.53,0.23,0.51,0.3,0.23,0.54,0.27" style="fill:rgb(0,0,0);font-family:MinionPro-Regular;font-size:9.0px;stroke:none;">porous spaces reduce the diffusion length of Li</text>
   <text y="370.44" x="327.49" svgx:width="0.78" style="fill:rgb(0,0,0);font-family:EuclidSymbol;font-size:5.85px;stroke:none;">+</text>
   <text y="373.5" x="332.111,334.262,336.44,339.203,343.253,347.159,349.712,352.088,354.488,357.383,361.261,364.048,367.972,370.15,377.59,381.611,384.966,388.368,390.546,393.432,396.87,400.836,405.785,409.187,411.866,415.79,419.228,421.406,425.93,430.16,432.338,436.244,439.563,443.539,447.415,450.301,452.812,457.76,462.071,464.249,467.145,472.011,475.935,478.113,482.961,487.839,495.272,499.196,502.514,507.101,511.949,515.351,517.529,520.04,524.889,527.676,531.6,535.089,537.852,541.902,545.808,548.344,552.436,554.713" svgx:width="0.23,0.23,0.3,0.44,0.42,0.27,0.25,0.27,0.31,0.44,0.31,0.43,0.23,0.82,0.44,0.37,0.37,0.23,0.31,0.37,0.44,0.55,0.37,0.3,0.43,0.37,0.23,0.51,0.46,0.23,0.42,0.37,0.43,0.44,0.31,0.27,0.55,0.47,0.23,0.31,0.53,0.43,0.23,0.55,0.53,0.82,0.43,0.37,0.51,0.53,0.37,0.23,0.27,0.55,0.31,0.43,0.37,0.3,0.44,0.42,0.27,0.44,0.25,0.23" style="fill:rgb(0,0,0);font-family:MinionPro-Regular;font-size:9.0px;stroke:none;">, facilitate mass transfer by creating the numerous interfacial </text>
   <text y="383.499" x="155.639,158.96,162.884,167.239,169.75,174.331,179.28,182.682,184.869,191.16,193.563,196.46,201.365,203.876,208.898,211.085,214.45,219.319,223.207,225.627,227.976,231.378,233.529,235.716,239.685,244.671,249.522,251.709,256.578,261.204,263.58,268.431,270.618,273.515,278.384,282.308,284.495,288.428,292.306,297.166,301.216,305.122,307.525,310.396,314.626,316.813,321.393,324.156,326.343,328.854,336.153,340.86,344.181,348.726,353.019,355.53,360.48,364.791,366.978,369.876,374.744,378.668,380.855,384.743,387.119,391.087,395.056,397.944,401.265,406.035,409.887,414.755,418.679,426.149,428.66,432.593,436.687,439.063,441.25,445.849,448.36,453.346,457.27,460.159,462.67,466.576,469.978,472.129,474.316,484.054,486.565,489.886,494.782,497.095,500.667,502.818,505.005,507.903,512.772,516.696,518.883,525.173,527.684,532.535,536.459,538.646,542.84,547.421,549.932,554.684" svgx:width="0.37,0.43,0.47,0.27,0.51,0.55,0.37,0.23,0.69,0.27,0.31,0.53,0.27,0.55,0.23,0.37,0.53,0.43,0.25,0.25,0.37,0.23,0.23,0.44,0.55,0.53,0.23,0.53,0.51,0.25,0.53,0.23,0.31,0.53,0.43,0.23,0.42,0.44,0.52,0.44,0.42,0.27,0.31,0.46,0.23,0.51,0.3,0.23,0.27,0.82,0.52,0.37,0.51,0.46,0.27,0.55,0.47,0.23,0.31,0.53,0.43,0.23,0.43,0.25,0.43,0.42,0.31,0.37,0.51,0.42,0.53,0.43,0.82,0.27,0.42,0.44,0.25,0.23,0.5,0.27,0.55,0.43,0.31,0.27,0.42,0.37,0.23,0.23,1.07,0.27,0.37,0.53,0.25,0.46,0.23,0.23,0.31,0.53,0.43,0.23,0.69,0.27,0.53,0.43,0.23,0.46,0.51,0.27,0.53,0.23" style="fill:rgb(0,0,0);font-family:MinionPro-Regular;font-size:9.0px;stroke:none;">regions within shells, and hold the capacity of improving the electrochemical kinetics. Thirdly, the wide void </text>
   <text y="393.498" x="155.639,161.897,164.268,167.133,172.002,174.072,181.484,185.498,189.368,192.656,197.214,202.078,206.626,209.915,214.472,219.291,222.657,224.727,228.052,230.908,234.404,239.246,243.182,245.904,250.746,254.035,257.923,259.993,262.444,265.81,267.88,272.695,276.632,280.52,285.239,287.52,291.714,293.784,298.599,302.487,307.351,311.239,316.192,321.007,324.895,329.715,332.523,334.593,339.141,344.127,346.197,349.063,353.9,357.788,359.858,363.92,366.309,368.649,372.612,376.873,379.379,383.225,386.082,388.557,393.105,398.091,400.161,404.711,407.438,409.508,412.95,416.913,421.075,424.963,428.251,432.139,434.209,438.37,442.965,445.2,450.042,457.444,461.332,463.402,467.221,472.067,476.005,480.922,485.129,489.017,491.087,495.797,500.639,504.099,506.574,511.492,515.767,517.837,520.177,522.547,525.413,530.282,532.787,536.634,539.49,541.965,546.514,551.5" svgx:width="0.69,0.27,0.31,0.53,0.23,0.82,0.44,0.42,0.37,0.51,0.52,0.51,0.37,0.51,0.53,0.37,0.23,0.37,0.31,0.37,0.53,0.42,0.31,0.53,0.37,0.43,0.23,0.27,0.37,0.23,0.53,0.43,0.43,0.52,0.25,0.46,0.23,0.53,0.43,0.52,0.43,0.55,0.53,0.43,0.55,0.31,0.23,0.51,0.55,0.23,0.31,0.53,0.43,0.23,0.44,0.25,0.25,0.43,0.46,0.27,0.44,0.31,0.27,0.51,0.55,0.23,0.51,0.3,0.23,0.37,0.43,0.46,0.43,0.37,0.43,0.23,0.46,0.51,0.25,0.53,0.82,0.43,0.23,0.42,0.53,0.44,0.55,0.47,0.43,0.23,0.53,0.53,0.37,0.27,0.55,0.47,0.23,0.25,0.27,0.31,0.53,0.27,0.44,0.31,0.27,0.51,0.55,0.33" style="fill:rgb(0,0,0);font-family:MinionPro-Regular;font-size:9.0px;stroke:none;">with macroporous structure is deeply dependent on the alleviation of severe volume change during lithiation/</text>
   <text y="403.497" x="155.639,160.382,164.159,166.427,168.72,171.508,176.305,178.733,182.503,185.281,187.684,192.155" svgx:width="0.53,0.43,0.25,0.27,0.31,0.53,0.27,0.44,0.31,0.27,0.51,0.55" style="fill:rgb(0,0,0);font-family:MinionPro-Regular;font-size:9.0px;stroke:none;">delithiation</text>
   <text y="400.44" x="197.057,199.86,202.662,203.99,206.792" svgx:width="0.48,0.48,0.23,0.48,0.48" style="fill:rgb(0,0,0);font-family:MinionPro-Regular;font-size:5.85px;stroke:none;">23,24</text>
   <text y="403.5" x="209.587,211.63,213.358,222.95,226.766,228.494,234.675,237.078,241.821,245.637,247.365,251.448,255.919,258.322,263.065,264.793,268.777,271.017,274.381,278.962,280.69,285.331,287.624,291.402,295.525,298.819,300.547,304.406,309.32,311.048,313.451,320.64,325.425,329.896,333.315,336.102,339.961,344.702,347.438,349.166,352.377,356.893,359.161,362.977,364.705,367.108,372.022,373.75,376.537,381.296,385.112,386.84,390.051,393.867,397.232,401.048,404.637,408.721,413.192,415.595,418.925,420.653,425.124,427.779,429.507,433.286,435.554,439.413,443.271,446.05,449.262,453.778,455.98,460.102,462.782,466.598,468.326,472.239,475.533,477.261,483.344,487.122,489.433,491.701,493.429,497.342,500.636,502.364,505.152,509.911,513.727,515.455,517.858,522.599,525.278,529.094,533.341,536.722,539.015,541.776,545.898,547.626,552.097,554.761" svgx:width="0.23,0.23,1.07,0.43,0.23,0.69,0.27,0.53,0.43,0.23,0.46,0.51,0.27,0.53,0.23,0.44,0.25,0.37,0.51,0.23,0.52,0.25,0.44,0.46,0.37,0.23,0.44,0.55,0.23,0.27,0.82,0.52,0.51,0.37,0.31,0.44,0.55,0.31,0.23,0.37,0.51,0.25,0.43,0.23,0.27,0.55,0.23,0.31,0.53,0.43,0.23,0.37,0.43,0.37,0.43,0.37,0.46,0.51,0.27,0.37,0.23,0.51,0.3,0.23,0.43,0.25,0.43,0.42,0.31,0.37,0.51,0.25,0.46,0.31,0.43,0.23,0.44,0.37,0.23,0.69,0.43,0.25,0.25,0.23,0.44,0.37,0.23,0.31,0.53,0.43,0.23,0.27,0.55,0.31,0.43,0.47,0.37,0.27,0.31,0.46,0.23,0.51,0.3,0.23" style="fill:rgb(0,0,0);font-family:MinionPro-Regular;font-size:9.0px;stroke:none;">. The wide void also plays an important role in the reservoir of electrolyte as well as the integrity of </text>
   <text y="413.499" x="155.641,158.919,161.728,165.177,169.974,173.863,176.538,181.335,184.577,188.368,190.438,192.4,202.022,205.865,207.827,214.038,216.468,221.238,225.081,227.044,231.158,235.659,238.089,242.859,244.821,249.62,253.563,256.884,258.846,262.815,264.777,267.101,270.99,274.276,278.436,282.279,284.241,286.671,291.612,296.32,301.117,304.96,309.867,313.692,317.535,319.497,323.999,328.94,330.902,338.266,342.155,344.585,349.356,352.175,356.065,358.495,363.436,365.866,370.736,374.966,376.928,379.747,384.536,388.379,390.341,394.195,397.995,402.775,406.744,410.569,412.893,415.684,419.833,421.795,426.242,430.391,432.353,439.717,443.686,447.952,450.382,457.771,460.201,463.999,466.429,471.3,475.53,477.492,481.301,483.596,487.486,491.374,494.184,497.425,502.116,505.889,510.679,514.522,521.911,524.341,528.194,532.209,534.504,536.466,539.708,543.607,547.576,551.401" svgx:width="0.37,0.31,0.37,0.53,0.42,0.31,0.53,0.37,0.43,0.23,0.23,1.07,0.43,0.23,0.69,0.27,0.53,0.43,0.23,0.46,0.51,0.27,0.53,0.23,0.53,0.44,0.37,0.23,0.44,0.23,0.25,0.44,0.37,0.47,0.43,0.23,0.27,0.55,0.53,0.53,0.43,0.55,0.42,0.43,0.23,0.51,0.55,0.23,0.82,0.44,0.27,0.55,0.31,0.44,0.27,0.55,0.27,0.55,0.47,0.23,0.31,0.53,0.43,0.23,0.42,0.44,0.52,0.44,0.42,0.27,0.31,0.46,0.23,0.51,0.46,0.23,0.82,0.44,0.47,0.27,0.82,0.27,0.42,0.27,0.55,0.47,0.23,0.43,0.25,0.43,0.42,0.31,0.37,0.51,0.42,0.53,0.43,0.82,0.27,0.42,0.44,0.25,0.23,0.37,0.43,0.44,0.42,0.36" style="fill:rgb(0,0,0);font-family:MinionPro-Regular;font-size:9.0px;stroke:none;">structure. The wide void has a large influence on maintaining the capacity by maximizing electrochemical reac-</text>
   <text y="423.498" x="155.641,158.431,160.843,165.325" svgx:width="0.31,0.27,0.51,0.55" style="fill:rgb(0,0,0);font-family:MinionPro-Regular;font-size:9.0px;stroke:none;">tion</text>
   <text y="420.44" x="170.245,173.053" svgx:width="0.48,0.48" style="fill:rgb(0,0,0);font-family:MinionPro-Regular;font-size:5.85px;stroke:none;">31</text>
   <text y="423.5" x="175.861,177.913,179.848,189.487,191.872,195.175,197.11,201.862,205.687,208.99,211.402,214.741,218.62,223.129,225.406,229.231,231.166,235.036,238.258,242.011,246.817,249.121,251.812,255.682,259.552,262.207,266.986,270.208,274.033,275.968,279.226,284.005,286.309,289.108,292.987,297.496,299.773,303.598,305.533,308.116,312.598,315.937,317.872,320.284,327.484,332.092,335.314,339.759,343.953,346.365,351.216,355.428,357.363,360.162,364.932,368.757,370.692,374.481,376.758,380.628,384.498,387.288,390.51,395.18,398.933,403.703,407.528,414.899,417.311,421.145,425.141,427.418,429.353,434.15,437.975,441.367,443.951,448.433,451.825,459.169,463.04,467.926,471.733,475.558,477.493,479.878,483.181,485.116,487.42,491.29,494.557,498.697,502.486,504.7,508.831,510.766,514.906,519.352,523.447,527.272,530.664,535.551,539.421,544.173,546.108,550.536,554.667" svgx:width="0.23,0.23,1.07,0.27,0.37,0.23,0.53,0.43,0.37,0.27,0.37,0.44,0.51,0.25,0.43,0.23,0.44,0.37,0.42,0.53,0.27,0.31,0.43,0.42,0.31,0.53,0.37,0.43,0.23,0.37,0.53,0.27,0.31,0.44,0.51,0.25,0.43,0.23,0.3,0.51,0.37,0.23,0.27,0.82,0.52,0.37,0.51,0.46,0.27,0.55,0.47,0.23,0.31,0.53,0.43,0.23,0.43,0.25,0.43,0.42,0.31,0.37,0.51,0.42,0.53,0.43,0.82,0.27,0.42,0.44,0.25,0.23,0.52,0.43,0.37,0.3,0.51,0.37,0.82,0.44,0.55,0.42,0.43,0.23,0.27,0.37,0.23,0.25,0.44,0.37,0.47,0.43,0.25,0.46,0.23,0.47,0.51,0.46,0.43,0.37,0.55,0.43,0.53,0.23,0.51,0.46,0.23" style="fill:rgb(0,0,0);font-family:MinionPro-Regular;font-size:9.0px;stroke:none;">. This desirable architecture suitable for improving the electrochemical performance is largely governed by </text>
   <text y="433.499" x="155.638,160.39,162.802,167.77,171.595,174.817,178.642,183.394,186.139,187.975,191.809,195.805,198.082,201.889,204.301,209.197,212.977,215.767,218.179,222.661,227.584,229.42,232.111,235.936,243.136,247.933,251.758,255.097,258.877,261.532,266.311,269.533,273.358,276.661,278.497,280.909,285.832,287.668,292.276,295.498,299.323,304.083,307.953,311.346,313.758,318.609,322.821,324.657,327.456,332.226,336.051,337.887,345.086,349.91,352.079,354.869,357.173,361.826,364.103,367.928,371.132,374.399,379.169,382.958,385.279,387.556,391.426,396.178,398.014,403.567,408.49,413.08" svgx:width="0.53,0.27,0.56,0.43,0.37,0.43,0.55,0.31,0.23,0.42,0.44,0.25,0.42,0.27,0.55,0.44,0.31,0.27,0.51,0.55,0.23,0.31,0.43,0.82,0.52,0.43,0.37,0.44,0.31,0.53,0.37,0.43,0.37,0.23,0.27,0.55,0.23,0.52,0.37,0.43,0.52,0.44,0.37,0.27,0.55,0.47,0.23,0.31,0.53,0.43,0.23,0.82,0.53,0.25,0.31,0.27,0.52,0.25,0.43,0.36,0.37,0.53,0.43,0.25,0.25,0.43,0.53,0.23,0.6,0.55,0.53,0.43" style="fill:rgb(0,0,0);font-family:MinionPro-Regular;font-size:9.0px;stroke:none;">different calcination temperatures in preparing the multiple-shelled ZnFe</text>
   <text y="435.3" x="416.921" svgx:width="0.48" style="fill:rgb(0,0,0);font-family:MinionPro-Regular;font-size:5.85px;stroke:none;">2</text>
   <text y="433.5" x="419.729" svgx:width="0.75" style="fill:rgb(0,0,0);font-family:MinionPro-Regular;font-size:9.0px;stroke:none;">O</text>
   <text y="435.3" x="426.452" svgx:width="0.48" style="fill:rgb(0,0,0);font-family:MinionPro-Regular;font-size:5.85px;stroke:none;">4</text>
   <text y="433.5" x="429.26,431.096,435.866,440.393,442.715,444.992,449.438,455.603,457.439,464.81,467.222,471.029,474.251,478.841,482.099,486.752,491.522,495.347,498.569,502.394,505.697" svgx:width="0.23,0.53,0.51,0.25,0.25,0.51,0.69,0.23,0.82,0.27,0.42,0.37,0.51,0.37,0.52,0.53,0.43,0.37,0.43,0.37,0.23" style="fill:rgb(0,0,0);font-family:MinionPro-Regular;font-size:9.0px;stroke:none;"> hollow microspheres.</text>
   <text y="443.499" x="167.639,174.358,178.232,181.503,185.377,187.839,192.81,194.912,196.923,203.066,206.94,208.951,212.222,216.097,220.943,225.474,228.953,231.746,233.758,236.606,241.426,245.299,247.311,252.175,255.51,258.816,261.611,263.622,266.336,270.264,274.777,278.22,280.68,284.564,288.393,291.233,293.693,298.225,303.197,305.209,309.739,312.453,314.464,317.312,322.168,324.629,329.602,331.613,334.452,337.894,340.248,344.949,347.276,351.15,354.403,357.719,362.539,366.377,368.748,371.074,374.994,379.795,381.806,387.409,392.381,397.02" svgx:width="0.77,0.43,0.37,0.43,0.27,0.55,0.23,0.23,0.69,0.43,0.23,0.37,0.43,0.52,0.51,0.37,0.31,0.23,0.31,0.53,0.43,0.23,0.54,0.37,0.37,0.31,0.23,0.3,0.44,0.51,0.37,0.27,0.42,0.44,0.31,0.27,0.51,0.55,0.23,0.51,0.3,0.23,0.31,0.53,0.27,0.55,0.23,0.31,0.37,0.27,0.52,0.25,0.43,0.36,0.37,0.53,0.43,0.25,0.25,0.43,0.53,0.23,0.6,0.55,0.53,0.43" style="fill:rgb(0,0,0);font-family:MinionPro-Regular;font-size:9.0px;stroke:none;">Herein, we report the first fabrication of thin triple-shelled ZnFe</text>
   <text y="445.3" x="400.891" svgx:width="0.48" style="fill:rgb(0,0,0);font-family:MinionPro-Regular;font-size:5.85px;stroke:none;">2</text>
   <text y="443.5" x="403.731" svgx:width="0.75" style="fill:rgb(0,0,0);font-family:MinionPro-Regular;font-size:9.0px;stroke:none;">O</text>
   <text y="445.3" x="410.503" svgx:width="0.48" style="fill:rgb(0,0,0);font-family:MinionPro-Regular;font-size:5.85px;stroke:none;">4</text>
   <text y="443.5" x="413.343,415.354,420.173,424.749,427.121,429.447,433.943,440.157,442.168,445.476,450.178,454.997,458.871,462.143,466.017,469.369,471.38,476.182,479.534,481.995,486.895,491.157,493.167,497.168,499.18,503.711,508.648,512.521,515.775,520.62,525.161,527.955,529.967,534.615,538.724,543.524,546.796,551.43" svgx:width="0.23,0.53,0.51,0.25,0.25,0.51,0.69,0.23,0.37,0.52,0.53,0.43,0.37,0.43,0.37,0.23,0.53,0.37,0.27,0.55,0.47,0.23,0.44,0.23,0.51,0.55,0.43,0.36,0.52,0.51,0.31,0.23,0.53,0.46,0.53,0.37,0.51,0.36" style="fill:rgb(0,0,0);font-family:MinionPro-Regular;font-size:9.0px;stroke:none;"> hollow spheres using a one-pot hydro-</text>
   <text y="453.499" x="155.637,158.558,163.452,167.403,170.918,178.385,182.504,184.907,187.175,189.989,193.981,197.858,202.79,207.839,210.377,215.009,219.914,223.865,226.133,230.737,233.527,235.795,239.872,242.14,245.639,250.288,252.58,257.375,260.287,262.825,267.43,272.479,274.747,277.285,282.123,286.341,290.992,293.328,297.546,301.54,306.418,308.686,315.0,317.427,320.349,325.281,327.549,331.455,333.993,339.002,342.935,345.113,347.381,349.919,353.264,357.869,362.918,365.186,367.724,372.329,377.303,380.732,382.91,385.178,389.171,394.18,399.058,401.326,404.708,409.613,413.546,416.891,421.607,425.105,429.056,431.324,433.727,437.729,441.806,446.684,449.222,454.196,458.534,460.802,463.616,468.332,470.6,476.276,481.325,486.037,489.988,493.318,497.716,500.053,504.235,508.168,512.817,515.245,519.148,521.961,525.912,529.017,532.975,536.968,540.433,545.208,549.814,554.737" svgx:width="0.31,0.53,0.43,0.37,0.82,0.44,0.25,0.23,0.31,0.43,0.42,0.53,0.55,0.27,0.51,0.53,0.43,0.23,0.51,0.3,0.23,0.44,0.23,0.37,0.51,0.25,0.53,0.31,0.27,0.51,0.55,0.23,0.27,0.55,0.46,0.51,0.25,0.46,0.43,0.53,0.23,0.69,0.27,0.31,0.53,0.23,0.42,0.27,0.55,0.42,0.23,0.23,0.27,0.37,0.51,0.55,0.23,0.27,0.51,0.55,0.37,0.23,0.23,0.44,0.55,0.53,0.23,0.37,0.53,0.42,0.37,0.51,0.37,0.43,0.23,0.25,0.43,0.44,0.53,0.27,0.55,0.47,0.23,0.31,0.51,0.23,0.6,0.55,0.53,0.43,0.36,0.47,0.25,0.46,0.42,0.51,0.25,0.44,0.31,0.43,0.33,0.42,0.44,0.37,0.51,0.51,0.55,0.23" style="fill:rgb(0,0,0);font-family:MinionPro-Regular;font-size:9.0px;stroke:none;">thermal technique of a solution involved with zinc, iron ions, and sucrose leading to ZnFe-glycolate/carbon </text>
   <text y="463.498" x="155.637,159.498,164.037,171.294,176.148,180.792,184.149,186.51,189.258,193.087,195.193,197.236,199.876,204.461,206.84,209.171,213.673,219.824,223.752,228.558,230.601,235.086,239.271,241.31,246.116,250.043,253.904,258.444,265.701,270.555,275.199,278.556,280.918,283.764,286.23,290.77,295.747,297.79,302.33,305.048,307.086,310.947,315.487,318.766,322.645,324.688,328.578,332.506,335.899,340.609,345.148,350.125,352.164,356.001,358.8,360.839,364.766,369.743,371.786,376.335,381.009,383.856,386.322,393.58,398.413,405.838,407.881,411.773,415.825,418.156,422.017,424.483,429.437,433.273,436.121,438.587,443.127,448.104,450.147,452.894,456.773,464.03,468.885,472.764,476.157,479.994,482.707,487.54,490.82,494.648,496.754,498.797,508.458,512.337,514.38,518.271,522.324,524.655,528.516,530.982,535.936,539.772,542.62,545.086,549.625,554.548" svgx:width="0.42,0.51,0.82,0.52,0.51,0.37,0.27,0.31,0.43,0.23,0.23,0.3,0.51,0.25,0.25,0.51,0.69,0.43,0.53,0.23,0.51,0.46,0.23,0.53,0.43,0.42,0.51,0.82,0.52,0.51,0.37,0.27,0.31,0.27,0.51,0.55,0.23,0.51,0.3,0.23,0.42,0.51,0.37,0.43,0.23,0.42,0.44,0.37,0.51,0.51,0.55,0.23,0.44,0.31,0.23,0.44,0.55,0.23,0.51,0.52,0.31,0.27,0.82,0.53,0.82,0.23,0.42,0.44,0.25,0.42,0.27,0.55,0.44,0.31,0.27,0.51,0.55,0.23,0.31,0.43,0.82,0.52,0.43,0.37,0.44,0.31,0.53,0.37,0.43,0.23,0.23,1.07,0.43,0.23,0.42,0.44,0.25,0.42,0.27,0.55,0.44,0.31,0.27,0.51,0.55,0.23" style="fill:rgb(0,0,0);font-family:MinionPro-Regular;font-size:9.0px;stroke:none;">composite, followed by decomposition of core carbon at an optimum calcination temperature. The calcination </text>
   <text y="473.497" x="155.637,158.388,162.276,169.537,174.393,178.281,181.683,185.522,188.238,193.08,196.362,200.25,202.302,207.14,211.125,214.491,216.543,220.557,222.609,226.925,230.207,234.147,237.986,240.794,242.846,246.734,251.762,255.692,259.622,262.43,264.482,269.024,274.01,276.062,278.922,283.752,287.64,289.692,292.541,295.943,299.874,304.784,308.15,310.793,315.336,318.788,326.192,330.033,332.882,335.357,339.899,344.885,346.937,351.48,354.207,356.259,359.108,362.562,364.926,369.639,371.979,375.867,379.134,382.461,387.292,391.14,393.522,395.862,399.792,404.607,406.659,412.272,417.258,421.908" svgx:width="0.31,0.43,0.82,0.52,0.43,0.37,0.44,0.31,0.53,0.37,0.43,0.23,0.53,0.44,0.37,0.23,0.44,0.23,0.47,0.37,0.43,0.44,0.31,0.23,0.43,0.56,0.43,0.42,0.31,0.23,0.51,0.55,0.23,0.31,0.53,0.43,0.23,0.31,0.37,0.44,0.55,0.37,0.3,0.51,0.37,0.82,0.44,0.31,0.27,0.51,0.55,0.23,0.51,0.3,0.23,0.31,0.37,0.27,0.52,0.25,0.43,0.36,0.37,0.53,0.43,0.25,0.25,0.43,0.53,0.23,0.6,0.55,0.53,0.43" style="fill:rgb(0,0,0);font-family:MinionPro-Regular;font-size:9.0px;stroke:none;">temperature has a great effect on the transformation of triple-shelled ZnFe</text>
   <text y="475.3" x="425.697" svgx:width="0.48" style="fill:rgb(0,0,0);font-family:MinionPro-Regular;font-size:5.85px;stroke:none;">2</text>
   <text y="473.5" x="428.544" svgx:width="0.75" style="fill:rgb(0,0,0);font-family:MinionPro-Regular;font-size:9.0px;stroke:none;">O</text>
   <text y="475.3" x="435.327" svgx:width="0.48" style="fill:rgb(0,0,0);font-family:MinionPro-Regular;font-size:5.85px;stroke:none;">4</text>
   <text y="473.5" x="438.174,440.226,445.055,449.642,452.025,454.365,458.871,465.099,467.151,470.469,473.32,476.808,481.65,485.579,488.295,493.137,496.419,500.307,502.359,505.793,510.446,512.498,516.482,519.848,521.9,524.65,529.303,531.355,535.96,540.493,543.352,547.283,549.758,554.681" svgx:width="0.23,0.53,0.51,0.25,0.25,0.51,0.69,0.23,0.37,0.31,0.37,0.53,0.42,0.31,0.53,0.37,0.43,0.23,0.37,0.51,0.23,0.44,0.37,0.23,0.31,0.51,0.23,0.51,0.51,0.31,0.44,0.27,0.55,0.23" style="fill:rgb(0,0,0);font-family:MinionPro-Regular;font-size:9.0px;stroke:none;"> hollow structure so as to obtain </text>
   <text y="483.499" x="155.637,159.471,163.658,167.474,171.275,173.609,175.895,179.729,184.493,187.247,189.2,192.469,197.277,201.159,204.975,207.396,212.22,216.036,217.989,221.833,225.625,230.398,234.358,238.174,240.49,243.273,247.413,249.366,253.248,258.147,262.908,264.861,269.012,273.694,278.377,283.138,285.091,288.892,291.178,295.059,298.94,301.742,304.976,309.658,313.422,318.204,322.038,329.418,331.839,335.684,339.691,341.977,343.93,347.164,350.998,353.701,357.535,362.299,365.099,367.52,372.014,376.946,378.899,385.103,387.418,390.229,395.011,399.514,404.196,406.95,408.903,412.785,417.513,421.653,423.606,426.279,430.239,435.0,437.421,442.283,446.504,448.457,452.951,455.624,457.577,460.925,464.717,467.419,471.253,473.206,477.052,480.844,485.617,489.506,493.982,496.451,498.737,501.052,503.836,507.322,509.383,511.336,520.951,524.785,526.738,529.548,533.43,535.898,538.184,542.678,545.911,549.793,554.545" svgx:width="0.43,0.47,0.42,0.43,0.25,0.25,0.43,0.55,0.31,0.23,0.37,0.52,0.43,0.42,0.27,0.54,0.42,0.23,0.42,0.44,0.52,0.44,0.42,0.27,0.31,0.46,0.23,0.44,0.55,0.53,0.23,0.47,0.51,0.51,0.53,0.23,0.43,0.25,0.43,0.42,0.31,0.37,0.51,0.42,0.53,0.43,0.82,0.27,0.42,0.44,0.25,0.23,0.37,0.43,0.31,0.43,0.55,0.31,0.27,0.51,0.55,0.23,0.69,0.27,0.31,0.53,0.51,0.53,0.31,0.23,0.44,0.55,0.46,0.23,0.3,0.44,0.53,0.27,0.55,0.47,0.23,0.51,0.3,0.23,0.37,0.44,0.31,0.43,0.23,0.42,0.44,0.52,0.44,0.51,0.27,0.25,0.27,0.31,0.46,0.23,0.23,1.07,0.43,0.23,0.31,0.44,0.27,0.25,0.51,0.37,0.43,0.53,0.23" style="fill:rgb(0,0,0);font-family:MinionPro-Regular;font-size:9.0px;stroke:none;">excellent specific capacity and good electrochemical retention without any fading of rate capability. The tailored </text>
   <text y="493.498" x="155.637,159.532,162.779,166.556,171.389,173.719,176.434,180.329,184.223,186.904,191.71,194.957,198.809,200.771,206.988,209.317,212.141,216.974,218.936,221.76,226.593,229.032,233.982,235.944,238.758,242.176,244.505,249.183,251.487,255.339,258.57,261.862,266.657,270.47,272.818,275.122,279.016,283.795,285.757,291.335,296.285,300.9" svgx:width="0.44,0.37,0.42,0.53,0.27,0.31,0.43,0.42,0.31,0.53,0.37,0.43,0.23,0.69,0.27,0.31,0.53,0.23,0.31,0.53,0.27,0.55,0.23,0.31,0.37,0.27,0.52,0.25,0.43,0.36,0.37,0.53,0.43,0.25,0.25,0.43,0.53,0.23,0.6,0.55,0.53,0.43" style="fill:rgb(0,0,0);font-family:MinionPro-Regular;font-size:9.0px;stroke:none;">architecture with thin triple-shelled ZnFe</text>
   <text y="495.3" x="304.741" svgx:width="0.48" style="fill:rgb(0,0,0);font-family:MinionPro-Regular;font-size:5.85px;stroke:none;">2</text>
   <text y="493.5" x="307.566" svgx:width="0.75" style="fill:rgb(0,0,0);font-family:MinionPro-Regular;font-size:9.0px;stroke:none;">O</text>
   <text y="495.3" x="314.314" svgx:width="0.48" style="fill:rgb(0,0,0);font-family:MinionPro-Regular;font-size:5.85px;stroke:none;">4</text>
   <text y="493.5" x="317.138,319.1,323.895,328.447,330.793,333.097,337.569,343.761,345.723,349.006,351.821,355.274,360.08,363.976,366.655,371.461,374.708,378.56,380.522,384.327,387.099,389.061,392.956,397.906,399.868,404.385,409.027,411.842,414.281,421.506,426.312,433.71,435.672,439.532,443.552,445.856,449.69,452.129,457.05,460.855,463.67,466.109,470.616,475.566,477.528,480.243,484.095,491.32,496.142,499.994,503.36,507.165,509.845,514.651,517.897,521.749,523.711,528.344,531.591,536.062,540.281,542.72,547.499,551.351,554.654" svgx:width="0.23,0.53,0.51,0.25,0.25,0.51,0.69,0.23,0.37,0.31,0.37,0.53,0.42,0.31,0.53,0.37,0.43,0.23,0.44,0.31,0.23,0.44,0.55,0.23,0.51,0.52,0.31,0.27,0.82,0.53,0.82,0.23,0.42,0.44,0.25,0.42,0.27,0.55,0.44,0.31,0.27,0.51,0.55,0.23,0.31,0.43,0.82,0.52,0.43,0.37,0.44,0.31,0.53,0.37,0.43,0.23,0.52,0.37,0.51,0.46,0.27,0.53,0.43,0.37,0.23" style="fill:rgb(0,0,0);font-family:MinionPro-Regular;font-size:9.0px;stroke:none;"> hollow structure at an optimum calcination temperature provides </text>
   <text y="503.499" x="155.642,158.479,163.286,167.147,169.127,173.114,177.841,182.044,185.952,190.742,193.579,197.522,201.7,205.561,207.541,209.989,214.948,216.928,220.232,225.041,229.561,233.026,235.755,239.616,244.575,247.023,251.912,256.16,258.14,260.977,265.785,269.646,271.626,276.414,278.836,282.132,284.969,288.877,293.802,297.645,301.506,303.486,308.005,310.705,312.685,320.067,324.029,327.325,330.664,332.644,335.472,338.847,342.755,347.644,350.983,353.604,357.465,360.84,362.82,366.728,371.653,376.441,378.421,381.716,386.506,389.802,392.639,396.547,398.995,403.954,406.402,411.29,415.538,417.518,420.355,425.163,429.024,431.004,434.3,437.128,440.594,445.409,449.316,452.009,456.824,460.199,464.233,466.546,468.526,470.974,475.764,478.493,482.354,486.648,490.079,492.421,495.231,498.743,500.831,502.811,509.076,513.918,516.366,520.157,524.999,526.979,529.292,533.209,537.196,541.96,545.299,547.279,550.007,554.597" svgx:width="0.31,0.53,0.43,0.23,0.44,0.53,0.46,0.44,0.55,0.31,0.44,0.47,0.43,0.23,0.27,0.55,0.23,0.37,0.53,0.51,0.37,0.31,0.43,0.55,0.27,0.55,0.47,0.23,0.31,0.53,0.43,0.23,0.53,0.27,0.37,0.31,0.44,0.55,0.42,0.43,0.23,0.51,0.3,0.23,0.82,0.44,0.37,0.37,0.23,0.31,0.37,0.44,0.55,0.37,0.3,0.43,0.37,0.23,0.44,0.55,0.53,0.23,0.37,0.53,0.37,0.31,0.44,0.27,0.55,0.27,0.55,0.47,0.23,0.31,0.53,0.43,0.23,0.37,0.31,0.37,0.53,0.42,0.31,0.53,0.37,0.44,0.25,0.23,0.27,0.55,0.31,0.43,0.47,0.37,0.27,0.31,0.46,0.23,0.23,0.69,0.53,0.27,0.42,0.53,0.23,0.25,0.43,0.44,0.53,0.37,0.23,0.31,0.51,0.23" style="fill:rgb(0,0,0);font-family:MinionPro-Regular;font-size:9.0px;stroke:none;">the advantage in shortening the distance of mass transfer and sustaining the structural integrity, which leads to </text>
   <text y="513.498" x="155.642,158.927,163.626,168.45,172.302,175.723,178.162,182.671,186.037,188.008,191.824,194.128,198.025,201.922,204.74,207.989,212.688,216.468,221.265,225.117,232.515,234.954,238.815,242.839,245.143,247.114,251.938,255.79,259.211,261.821,266.33,269.751,277.122,281.02,285.934,289.768,293.62,295.591,300.37,304.186,306.49,308.866,312.989,316.841,320.261,322.7,327.578,331.817,333.788,338.135,342.482,346.829,347.981,355.379,361.625,363.596,368.429,370.4" svgx:width="0.37,0.53,0.52,0.43,0.37,0.27,0.51,0.37,0.23,0.43,0.25,0.43,0.42,0.31,0.37,0.51,0.42,0.53,0.43,0.82,0.27,0.42,0.44,0.25,0.23,0.52,0.43,0.37,0.3,0.51,0.37,0.82,0.44,0.55,0.42,0.43,0.23,0.53,0.43,0.25,0.27,0.46,0.43,0.37,0.27,0.55,0.47,0.23,0.48,0.48,0.48,0.23,0.82,0.69,0.23,0.53,0.23,0.47" style="fill:rgb(0,0,0);font-family:MinionPro-Regular;font-size:9.0px;stroke:none;">superior electrochemical performance delivering 932 mA h g</text>
   <text y="510.44" x="374.628" svgx:width="0.78" style="fill:rgb(0,0,0);font-family:EuclidSymbol;font-size:5.85px;stroke:none;">−</text>
   <text y="510.44" x="379.197" svgx:width="0.48" style="fill:rgb(0,0,0);font-family:MinionPro-Regular;font-size:5.85px;stroke:none;">1</text>
   <text y="513.5" x="382.025,383.996,387.803,390.575,392.546,396.524,398.495,402.329,406.838,411.717,415.002,417.828,421.725,426.505,429.277,431.248,436.027,439.879,444.758,448.088,450.42,453.219,457.377,459.348,463.858,466.549,468.52,472.867,474.005,480.251,482.222" svgx:width="0.23,0.44,0.31,0.23,0.44,0.23,0.42,0.51,0.55,0.37,0.31,0.44,0.55,0.31,0.23,0.53,0.43,0.55,0.37,0.27,0.31,0.46,0.23,0.51,0.3,0.23,0.48,0.23,0.69,0.23,0.47" style="fill:rgb(0,0,0);font-family:MinionPro-Regular;font-size:9.0px;stroke:none;"> at a constant density of 2 A g</text>
   <text y="510.44" x="486.46" svgx:width="0.78" style="fill:rgb(0,0,0);font-family:EuclidSymbol;font-size:5.85px;stroke:none;">−</text>
   <text y="510.44" x="491.029" svgx:width="0.48" style="fill:rgb(0,0,0);font-family:MinionPro-Regular;font-size:5.85px;stroke:none;">1</text>
   <text y="513.5" x="493.856,495.827,499.751,503.874,507.726,512.676,514.647,518.455,521.227,523.198,526.024,530.822,534.674,536.645,540.992,545.339" svgx:width="0.23,0.43,0.46,0.43,0.55,0.23,0.44,0.31,0.23,0.31,0.53,0.43,0.23,0.48,0.48,0.48" style="fill:rgb(0,0,0);font-family:MinionPro-Regular;font-size:9.0px;stroke:none;"> even at the 200</text>
   <text y="510.44" x="549.677,551.514" svgx:width="0.31,0.53" style="fill:rgb(0,0,0);font-family:MinionPro-Regular;font-size:5.85px;stroke:none;">th</text>
   <text y="513.5" x="554.638" svgx:width="0.23" style="fill:rgb(0,0,0);font-family:MinionPro-Regular;font-size:9.0px;stroke:none;"> </text>
   <text y="523.499" x="155.641,159.592,163.651,167.404,169.681,173.452" svgx:width="0.42,0.46,0.42,0.25,0.43,0.23" style="fill:rgb(0,0,0);font-family:MinionPro-Regular;font-size:9.0px;stroke:none;">cycle.</text>
   <text y="545.5" x="155.638,162.33,167.973,172.637,178.632,181.404,185.573" svgx:width="0.63,0.51,0.42,0.55,0.25,0.38,0.42" style="fill:rgb(0,0,0);font-family:Corbel-Bold;font-size:11.0px;stroke:none;">Results</text>
   <text y="555.5" x="155.638,158.635,163.63,165.718,169.741,171.829,176.383,181.342,185.239,188.515,193.384,197.946,200.763,202.851,207.522,211.653,216.477,219.771,224.333,227.204,232.045,235.942,239.406,246.822,250.889,253.238,255.326,258.62,262.57,266.593,270.535,273.396,275.88,280.433,285.428,287.516,292.07,294.806,296.894,299.764,304.606,308.503,310.591,315.27,318.564,322.505,326.446,331.297,334.653,338.1,342.653,346.064,348.152,351.599,356.197,358.438,363.181,366.043,368.527,373.081,378.076,380.164,384.717,387.453,389.541,395.166,400.161,404.823" svgx:width="0.34,0.55,0.23,0.44,0.23,0.51,0.55,0.43,0.36,0.52,0.51,0.31,0.23,0.53,0.46,0.53,0.37,0.51,0.31,0.53,0.43,0.37,0.82,0.44,0.25,0.23,0.37,0.43,0.44,0.42,0.31,0.27,0.51,0.55,0.23,0.51,0.3,0.23,0.31,0.53,0.43,0.23,0.52,0.37,0.43,0.42,0.53,0.37,0.37,0.51,0.37,0.23,0.37,0.51,0.25,0.53,0.31,0.27,0.51,0.55,0.23,0.51,0.3,0.23,0.6,0.55,0.53,0.43" style="fill:rgb(0,0,0);font-family:MinionPro-Regular;font-size:9.0px;stroke:none;">In a one-pot hydrothermal reaction of the precursor solution of ZnFe</text>
   <text y="557.3" x="408.719" svgx:width="0.48" style="fill:rgb(0,0,0);font-family:MinionPro-Regular;font-size:5.85px;stroke:none;">2</text>
   <text y="555.5" x="411.574" svgx:width="0.75" style="fill:rgb(0,0,0);font-family:MinionPro-Regular;font-size:9.0px;stroke:none;">O</text>
   <text y="557.3" x="418.368" svgx:width="0.48" style="fill:rgb(0,0,0);font-family:MinionPro-Regular;font-size:5.85px;stroke:none;">4</text>
   <text y="555.5" x="421.223,423.311,430.754,433.238,437.117,440.41,445.072,448.402,453.126,457.968,461.865,465.159,469.056,472.431,474.519,478.398,482.951,490.222,494.902,498.366,500.823,504.198,506.682,511.604,515.888,517.976,522.53,525.266,527.354,530.684,535.535,539.414,542.708,547.37,550.817,554.642" svgx:width="0.23,0.82,0.27,0.42,0.37,0.51,0.37,0.52,0.53,0.43,0.37,0.43,0.37,0.23,0.42,0.51,0.82,0.52,0.37,0.27,0.37,0.27,0.55,0.47,0.23,0.51,0.3,0.23,0.37,0.53,0.42,0.37,0.51,0.37,0.43,0.23" style="fill:rgb(0,0,0);font-family:MinionPro-Regular;font-size:9.0px;stroke:none;"> microspheres comprising of sucrose </text>
   <text y="565.499" x="155.642,159.512,164.399,169.151,170.96,174.74,177.152,182.039,185.846,187.655,192.578,194.882,197.671,201.01,204.79,207.481,211.306,213.115,216.985,221.872,226.624,228.433,230.845,234.067,238.549,243.472,245.281,250.204,252.508,255.298,258.637,262.416,265.107,268.932,270.741,273.153,278.076,279.885,286.05,289.83,292.521,296.346,299.685,301.494,305.364,310.251,315.003,316.812,321.924,328.359,330.168,334.092,337.395,339.204,342.579,347.106,349.32,353.415,357.24,361.992,364.737,368.04,370.092,371.901,374.7,379.47,383.295,385.104,388.937,392.807,396.146,400.799,405.281,410.204,412.013,414.398,417.701,419.51,422.093,426.575,429.968,437.303,441.172,445.924,447.733,452.161,456.292,458.101,460.9,465.67,469.495,471.304,475.111,479.593,484.48,489.232,493.057,497.908,501.265,505.044,507.834,510.246,514.728,519.651,521.46,526.257,530.784,532.998,537.156,544.491,548.316,551.435" svgx:width="0.44,0.55,0.53,0.23,0.42,0.27,0.55,0.42,0.23,0.55,0.27,0.31,0.37,0.44,0.31,0.43,0.23,0.44,0.55,0.53,0.23,0.27,0.37,0.51,0.55,0.23,0.55,0.27,0.31,0.37,0.44,0.31,0.43,0.23,0.27,0.55,0.23,0.69,0.44,0.31,0.43,0.37,0.23,0.44,0.55,0.53,0.23,0.57,0.71,0.23,0.44,0.37,0.23,0.37,0.51,0.25,0.46,0.43,0.55,0.31,0.37,0.23,0.23,0.31,0.53,0.43,0.23,0.42,0.44,0.37,0.51,0.51,0.55,0.23,0.27,0.37,0.23,0.3,0.51,0.37,0.82,0.43,0.53,0.23,0.51,0.46,0.23,0.31,0.53,0.43,0.23,0.42,0.51,0.55,0.53,0.43,0.55,0.37,0.44,0.31,0.27,0.51,0.55,0.23,0.52,0.51,0.25,0.46,0.82,0.43,0.37,0.36" style="fill:rgb(0,0,0);font-family:MinionPro-Regular;font-size:9.0px;stroke:none;">and zinc nitrate and iron nitrate in water and EG as solvents, the carbon is formed by the condensation polymer-</text>
   <text y="575.498" x="155.642,158.099,161.924,165.748,168.581,171.038,175.563,180.531,182.52,185.786,189.709,193.705,197.618,200.451,202.908,207.433,212.401,214.39,218.304,223.234,228.031,230.02,233.898,237.812,241.196,245.892,250.417,255.356,259.181,262.013,264.47,268.995,273.963,275.952,280.477,283.186,285.175,288.477,293.301,297.153,300.419,305.054,308.472,312.286,314.383,316.372,320.285,325.215,330.012,332.001,335.853,340.379,345.309,349.222,354.046,357.482,360.748,364.618,369.413,372.203,374.192,379.789,384.757,389.391,393.261,396.51,400.828,403.085,407.187,411.039,415.609,417.957,421.78,424.514,428.384,430.373,432.801,436.149,438.138,440.765,445.29,448.727,456.105,460.018,464.815,466.804,471.275,475.451,477.44,480.283,485.097,488.967,490.956,495.796,500.366,502.623,506.726,511.297,513.619,515.608,518.873,522.795,526.791,530.705,533.538,535.995,540.52,545.488,547.477,552.003,554.667" svgx:width="0.27,0.42,0.44,0.31,0.27,0.51,0.55,0.23,0.37,0.43,0.44,0.42,0.31,0.27,0.51,0.55,0.23,0.44,0.55,0.53,0.23,0.42,0.44,0.37,0.51,0.51,0.55,0.44,0.31,0.27,0.51,0.55,0.23,0.51,0.3,0.23,0.37,0.53,0.42,0.37,0.51,0.37,0.43,0.23,0.23,0.44,0.55,0.53,0.23,0.42,0.51,0.55,0.42,0.53,0.37,0.37,0.43,0.55,0.31,0.23,0.6,0.55,0.53,0.43,0.36,0.47,0.25,0.46,0.42,0.51,0.25,0.44,0.31,0.43,0.23,0.27,0.37,0.23,0.3,0.51,0.37,0.82,0.43,0.53,0.23,0.51,0.46,0.23,0.31,0.53,0.43,0.23,0.52,0.51,0.25,0.46,0.51,0.25,0.23,0.37,0.43,0.44,0.42,0.31,0.27,0.51,0.55,0.23,0.51,0.3,0.23" style="fill:rgb(0,0,0);font-family:MinionPro-Regular;font-size:9.0px;stroke:none;">ization reaction and carbonation of sucrose, and concurrent ZnFe-glycolate is formed by the polyol reaction of </text>
   <text y="585.497" x="155.642,160.754,167.189,168.926,175.115,177.416,180.212,185.018,186.755,190.535,192.947,197.83,201.637,203.374,207.242,212.125,216.877,218.614,221.026,224.245,228.725,233.648,235.385,237.797,242.276,247.123,250.426,252.478,254.215,256.796,261.32,263.638,265.915,270.358,276.448,280.314,285.066,286.803,291.229,295.36,297.097,299.892,304.659,308.484,310.221,314.359,318.184,323.068,326.893,330.232,334.009,336.796,339.208,343.686,348.609,350.346,354.825,357.489,359.226,364.777,369.7,374.287,378.112,381.316,385.587,387.799,391.855,395.662,400.186,402.487,406.264,408.952,412.777,415.756,419.587,423.454,426.793,431.443,435.923,440.846,442.583,449.954,452.366,456.173,459.391,463.981,467.236,471.886,476.653,480.478,483.697,487.522,490.825,492.877,494.614,504.214,508.039,509.776,512.356,516.834,520.225,527.565,531.342,534.129,536.541,541.02,545.943,547.68,552.159,554.823" svgx:width="0.57,0.71,0.23,0.69,0.27,0.31,0.53,0.23,0.42,0.27,0.55,0.42,0.23,0.44,0.55,0.53,0.23,0.27,0.37,0.51,0.55,0.23,0.27,0.51,0.55,0.37,0.23,0.23,0.3,0.51,0.25,0.25,0.51,0.69,0.43,0.53,0.23,0.51,0.46,0.23,0.31,0.53,0.43,0.23,0.47,0.43,0.55,0.43,0.37,0.44,0.31,0.27,0.51,0.55,0.23,0.51,0.3,0.23,0.6,0.55,0.53,0.43,0.36,0.47,0.25,0.46,0.42,0.51,0.25,0.44,0.31,0.43,0.33,0.42,0.44,0.37,0.51,0.51,0.55,0.23,0.82,0.27,0.42,0.37,0.51,0.37,0.52,0.53,0.43,0.37,0.43,0.37,0.23,0.23,1.07,0.43,0.23,0.3,0.51,0.37,0.82,0.44,0.31,0.27,0.51,0.55,0.23,0.51,0.3,0.23" style="fill:rgb(0,0,0);font-family:MinionPro-Regular;font-size:9.0px;stroke:none;">EG with zinc and iron ions, followed by the generation of ZnFe-glycolate/carbon microspheres. The formation of </text>
   <text y="595.496" x="155.642,161.195,166.118,170.708,174.533,177.737,182.011,184.225,188.284,192.091,196.618,198.922,202.702,205.393,209.218,211.054,213.439,216.742,218.578,223.33,227.155,230.53,234.337,237.73,240.106,244.759,248.628,253.38,255.216,259.14,262.443,264.279,266.862,271.389,273.711,275.988,280.434,286.599" svgx:width="0.6,0.55,0.53,0.43,0.36,0.47,0.25,0.46,0.42,0.51,0.25,0.44,0.31,0.43,0.23,0.27,0.37,0.23,0.53,0.43,0.37,0.42,0.37,0.27,0.51,0.43,0.53,0.23,0.44,0.37,0.23,0.3,0.51,0.25,0.25,0.51,0.69,0.37" style="fill:rgb(0,0,0);font-family:MinionPro-Regular;font-size:9.0px;stroke:none;">ZnFe-glycolate is described as follows</text>
   <text y="592.44" x="289.908,292.716" svgx:width="0.48,0.48" style="fill:rgb(0,0,0);font-family:MinionPro-Regular;font-size:5.85px;stroke:none;">20</text>
   <text y="595.5" x="295.524" svgx:width="0.23" style="fill:rgb(0,0,0);font-family:MinionPro-Regular;font-size:9.0px;stroke:none;">:</text>
  </g>
  <g begin="text">
   <text y="614.609" x="313.09,320.05539999999996,342.758,351.688,380.478" svgx:width="0.78,0.55,1.0,0.55,0.78" style="fill:rgb(0,0,0);font-family:EuclidSymbol;font-size:8.93px;stroke:none;">+ → +</text>
   <text y="610.577" x="305.602,310.5472,403.525" svgx:width="0.78,0.55,0.78" style="fill:rgb(0,0,0);font-family:EuclidSymbol;font-size:6.34px;stroke:none;">− −</text>
   <text y="614.609" x="288.61,295.234,301.93149999999997,322.884,329.7601,333.25,339.9475,354.561,361.471,368.096,374.7935,390.273,396.898" svgx:width="0.74,0.75,0.55,0.77,0.55,0.75,0.55,0.77,0.74,0.75,0.55,0.75,0.77" style="fill:rgb(0,0,0);font-family:MinionPro-Regular;font-size:8.93px;stroke:none;">NO H O HNO OH</text>
   <text y="615.475" x="544.067,547.236,551.557" svgx:width="0.35,0.48,0.35" style="fill:rgb(0,0,0);font-family:MinionPro-Regular;font-size:8.93px;stroke:none;">(1)</text>
   <text y="610.577" x="302.146" svgx:width="0.48" style="fill:rgb(0,0,0);font-family:MinionPro-Regular;font-size:6.34px;stroke:none;">3</text>
   <text y="616.913" x="329.505,332.5482,374.718" svgx:width="0.48,0.55,0.48" style="fill:rgb(0,0,0);font-family:MinionPro-Regular;font-size:6.34px;stroke:none;">2 3</text>
  </g>
  <g begin="text">
   <text y="638.853" x="312.082,319.0474,347.222,356.152,416.334" svgx:width="0.78,0.55,1.0,0.55,0.78" style="fill:rgb(0,0,0);font-family:EuclidSymbol;font-size:8.93px;stroke:none;">+ → +</text>
   <text y="634.821" x="339.442,344.3872,358.741,363.6862,408.853" svgx:width="0.78,0.55,0.78,0.55,0.78" style="fill:rgb(0,0,0);font-family:EuclidSymbol;font-size:6.34px;stroke:none;">− − −</text>
   <text y="638.853" x="249.298,256.208,262.833,268.877,275.7531,279.251,285.295,292.1711,295.67,302.294,309.1701,321.873,326.195,332.819,339.6951,363.639,370.263,376.307,383.1831,386.682,392.726,399.6021,403.1,409.7975,426.144,430.465,437.3411,440.83" svgx:width="0.77,0.75,0.67,0.77,0.55,0.67,0.77,0.55,0.75,0.77,0.55,0.48,0.75,0.77,0.55,0.75,0.67,0.77,0.55,0.67,0.77,0.55,0.75,0.55,0.48,0.77,0.55,0.75" style="fill:rgb(0,0,0);font-family:MinionPro-Regular;font-size:8.93px;stroke:none;">HOCH CH OH 2OH OCH CH O 2H O</text>
   <text y="639.719" x="544.225,547.395,551.716" svgx:width="0.35,0.48,0.35" style="fill:rgb(0,0,0);font-family:MinionPro-Regular;font-size:8.93px;stroke:none;">(2)</text>
   <text y="641.157" x="275.506,278.5492,291.922,294.96520000000004,382.933,385.9762,399.349,402.3922,437.074" svgx:width="0.48,0.55,0.48,0.55,0.48,0.55,0.48,0.55,0.48" style="fill:rgb(0,0,0);font-family:MinionPro-Regular;font-size:6.34px;stroke:none;">2 2 2 2 2</text>
  </g>
  <g begin="text">
   <text y="665.113" x="303.01,309.9754,333.829,340.7944,367.524" svgx:width="0.78,0.55,0.78,0.55,1.0" style="fill:rgb(0,0,0);font-family:EuclidSymbol;font-size:8.93px;stroke:none;">+ + →</text>
  </g>
  <g begin="text">
   <text y="661.081" x="243.682,248.6272,295.523,300.4682,326.05,330.9952,359.745" svgx:width="0.78,0.55,0.78,0.55,0.78,0.55,0.78" style="fill:rgb(0,0,0);font-family:EuclidSymbol;font-size:6.34px;stroke:none;">− − + +</text>
   <text y="665.113" x="239.938,244.22439999999997,248.58,255.205,261.213,268.124,272.48,278.489,285.399,289.765,296.4625,312.808,318.281,323.1925,343.628,347.949,352.556,356.3959,379.34,384.812,389.705,394.312,398.1519,401.802,404.972,411.596,417.641,424.5171,428.015,434.059,440.93510000000003,444.434,451.058" svgx:width="0.48,0.55,0.75,0.67,0.77,0.48,0.67,0.77,0.48,0.75,0.55,0.6,0.55,0.55,0.48,0.53,0.43,0.55,0.6,0.55,0.53,0.43,0.55,0.35,0.75,0.67,0.77,0.55,0.67,0.77,0.55,0.75,0.35" style="fill:rgb(0,0,0);font-family:MinionPro-Regular;font-size:8.93px;stroke:none;">3 OCH2CH2O Zn 2Fe ZnFe (OCH CH O)</text>
   <text y="667.416" x="544.079,547.248,551.57" svgx:width="0.35,0.48,0.35" style="fill:rgb(0,0,0);font-family:MinionPro-Regular;font-size:8.93px;stroke:none;">(3)</text>
   <text y="661.081" x="322.594,325.6372,356.289" svgx:width="0.48,0.55,0.48" style="fill:rgb(0,0,0);font-family:MinionPro-Regular;font-size:6.34px;stroke:none;">2 2</text>
   <text y="667.417" x="398.049,401.0922,424.255,427.2982,440.672" svgx:width="0.48,0.55,0.48,0.55,0.48" style="fill:rgb(0,0,0);font-family:MinionPro-Regular;font-size:6.34px;stroke:none;">2 2 2</text>
   <text y="668.855" x="453.629" svgx:width="0.48" style="fill:rgb(0,0,0);font-family:MinionPro-Regular;font-size:6.34px;stroke:none;">3</text>
  </g>
  <g begin="text">
   <text y="683.704" x="167.638,173.65,178.877,183.161,185.231,186.599,192.609,197.991,203.038,207.322,210.985,215.718,218.389,222.905,227.171,232.155,234.916,239.154,242.302,246.586,248.656,250.024,252.867,256.629,258.699,260.067,266.617,270.863,273.642,276.378,280.041,284.451,289.635,293.466,298.406,302.204,307.314,311.64,316.851,318.921,320.289,326.939,329.7,332.956,338.221,341.092,346.474,348.544,349.912,353.169,358.396,362.68,364.75,366.118,371.175,375.691,380.902,384.582,389.53,394.64,399.905,402.82,405.556,408.427,412.693,414.763,416.13,419.846,425.084,429.35,433.03,438.079,441.911,446.195,449.858,454.932,459.313,463.146,467.473,472.684,474.754,476.122,480.413,484.74,488.538,493.648,498.588,503.97,506.481,508.551,509.919,514.185,519.124,526.781,531.846,535.696,538.539,542.301,545.172,550.48,554.692" svgx:width="0.62,0.53,0.43,0.23,0.55,0.6,0.55,0.53,0.43,0.36,0.47,0.25,0.46,0.42,0.51,0.25,0.44,0.31,0.43,0.23,0.55,0.27,0.37,0.23,0.55,0.69,0.43,0.25,0.25,0.36,0.44,0.53,0.37,0.51,0.37,0.51,0.43,0.53,0.23,0.55,0.69,0.27,0.31,0.53,0.27,0.55,0.23,0.55,0.31,0.53,0.43,0.23,0.55,0.53,0.46,0.53,0.37,0.51,0.52,0.53,0.27,0.25,0.27,0.42,0.23,0.55,0.37,0.53,0.42,0.37,0.51,0.37,0.43,0.36,0.51,0.44,0.37,0.43,0.53,0.23,0.55,0.42,0.44,0.37,0.51,0.51,0.55,0.23,0.23,0.55,0.42,0.51,0.82,0.52,0.37,0.27,0.37,0.27,0.55,0.47,0.23" style="fill:rgb(0,0,0);font-family:MinionPro-Regular;font-size:9.0px;stroke:none;">The ZnFe-glycolate is well-adsorbed within the hydrophilic sucrose-based carbon, comprising </text>
   <text y="693.703" x="155.641,161.178,166.083,170.656,174.463,177.649,181.908,184.106,188.149,191.938,196.449,198.736,202.5,205.176,208.983,211.944,215.762,219.616,222.937,227.573,232.04,236.945,238.664,246.017,248.411,252.2,255.406,259.978,263.22,267.856,272.61,276.417,279.623,283.43,286.715,288.749,290.468,296.644,301.812,305.619,309.202,315.349,319.204,322.41,327.119,330.404,332.438,334.157,338.306,342.16,345.537,347.931,352.406,357.142,360.427,362.146,367.683,372.588,377.161" svgx:width="0.6,0.55,0.53,0.43,0.36,0.47,0.25,0.46,0.42,0.51,0.25,0.44,0.31,0.43,0.33,0.42,0.44,0.37,0.51,0.51,0.55,0.23,0.82,0.27,0.42,0.37,0.51,0.37,0.52,0.53,0.43,0.37,0.43,0.37,0.23,0.23,0.69,0.58,0.43,0.37,0.69,0.44,0.37,0.53,0.37,0.23,0.23,0.46,0.44,0.37,0.27,0.51,0.53,0.37,0.23,0.6,0.55,0.53,0.43" style="fill:rgb(0,0,0);font-family:MinionPro-Regular;font-size:9.0px;stroke:none;">ZnFe-glycolate/carbon microspheres. Afterwards, various ZnFe</text>
   <text y="695.504" x="381.015" svgx:width="0.48" style="fill:rgb(0,0,0);font-family:MinionPro-Regular;font-size:5.85px;stroke:none;">2</text>
   <text y="693.704" x="383.813" svgx:width="0.75" style="fill:rgb(0,0,0);font-family:MinionPro-Regular;font-size:9.0px;stroke:none;">O</text>
   <text y="695.504" x="390.52" svgx:width="0.48" style="fill:rgb(0,0,0);font-family:MinionPro-Regular;font-size:5.85px;stroke:none;">4</text>
   <text y="693.704" x="393.317,395.036,399.79,404.301,406.607,408.866,413.295,419.442,421.161,428.514,430.908,434.697,437.904,442.476,445.718,450.355,455.108,458.915,462.121,465.928,469.213,470.932,474.787,477.993,481.8,483.519,486.086,490.552,493.928,501.247,505.101,509.835,511.554,515.966,520.079,521.798,525.587,530.052,534.788,537.562,540.883,544.816,548.67,551.397" svgx:width="0.23,0.53,0.51,0.25,0.25,0.51,0.69,0.23,0.82,0.27,0.42,0.37,0.51,0.37,0.52,0.53,0.43,0.37,0.43,0.37,0.23,0.44,0.37,0.43,0.23,0.3,0.51,0.37,0.82,0.43,0.53,0.23,0.51,0.46,0.23,0.42,0.51,0.55,0.31,0.37,0.44,0.42,0.31,0.36" style="fill:rgb(0,0,0);font-family:MinionPro-Regular;font-size:9.0px;stroke:none;"> hollow microspheres are formed by contract-</text>
   <text y="703.703" x="155.636,158.048,162.899,167.111,169.028,174.581,179.504,184.094,187.919,191.123,195.397,197.611,201.67,205.477,210.004,212.308,216.088,218.779,222.604,225.583,229.417,233.287,236.626,241.279,245.76,250.683,252.6,259.971,262.383,266.19,269.411,274.001,277.259,281.912,286.682,290.507,293.729,297.554,300.857,302.774,306.725,310.532,314.339,318.821,322.043,326.795,329.207,334.058,338.27,340.187,342.878,347.468,349.385,353.219,357.215,359.492,363.299,365.711,370.607,374.387,377.177,379.589,384.071,388.994,390.911,395.519,398.741,403.411,407.219,411.044,414.302,417.605,419.657,421.574,431.177,435.002,436.919,441.077,446.189,454.208,456.125,458.536,465.88,469.786,473.926,477.751,481.055,482.971,487.453,490.117,492.034,497.461,502.222,508.891,512.194,514.111,518.719,521.941,525.766,530.527,534.398,537.62,541.489,546.241,548.158,551.937,554.682" svgx:width="0.27,0.55,0.47,0.23,0.6,0.55,0.53,0.43,0.36,0.47,0.25,0.46,0.42,0.51,0.25,0.44,0.31,0.43,0.33,0.42,0.44,0.37,0.51,0.51,0.55,0.23,0.82,0.27,0.42,0.37,0.51,0.37,0.52,0.53,0.43,0.37,0.43,0.37,0.23,0.44,0.42,0.42,0.51,0.37,0.53,0.27,0.55,0.47,0.23,0.31,0.51,0.23,0.42,0.44,0.25,0.42,0.27,0.55,0.44,0.31,0.27,0.51,0.55,0.23,0.52,0.37,0.51,0.42,0.43,0.37,0.37,0.23,0.23,1.07,0.43,0.23,0.47,0.57,0.89,0.23,0.27,0.82,0.44,0.47,0.43,0.37,0.23,0.51,0.3,0.23,0.6,0.53,0.75,0.37,0.23,0.52,0.37,0.43,0.52,0.44,0.37,0.43,0.53,0.23,0.44,0.31,0.23" style="fill:rgb(0,0,0);font-family:MinionPro-Regular;font-size:9.0px;stroke:none;">ing ZnFe-glycolate/carbon microspheres according to calcination process. The SEM images of ZFOs prepared at </text>
   <text y="713.702" x="155.636,160.442,162.908,167.929,171.808,175.084,178.963,183.769,186.568,188.593,192.48,196.53,198.861,202.722,205.188,210.138,213.971,216.815,219.281,223.816,228.794,230.818,233.563,237.442,244.696,249.547,253.426,256.819,260.653,263.362,268.195,271.471,275.35,278.707,280.732,284.656,287.932,291.811,293.836,298.642,302.521,309.91,314.445,319.35,322.662,325.505,328.898,332.732,335.476,339.4,344.206,346.231,348.697,353.674,355.699,360.514,362.98,367.246,370.603,372.63,377.004,379.029,382.953,387.894,392.7,394.725,399.045,403.419,405.525,407.55,417.207,421.086,423.111,428.592,433.407,440.129,443.486,445.511,449.435,452.711,456.59,458.615,462.476,467.012,474.265,479.116,483.76,487.189,491.113,495.919,497.944,502.48,505.198,507.223,510.075,514.899,518.778,520.803,523.655,528.515,530.981,535.958,537.983,541.303,546.127,549.97,552.345,554.622" svgx:width="0.53,0.27,0.56,0.43,0.37,0.43,0.55,0.31,0.23,0.42,0.44,0.25,0.42,0.27,0.55,0.44,0.31,0.27,0.51,0.55,0.23,0.31,0.43,0.82,0.52,0.43,0.37,0.44,0.31,0.53,0.37,0.43,0.37,0.23,0.44,0.37,0.43,0.23,0.53,0.43,0.82,0.51,0.55,0.37,0.31,0.37,0.44,0.31,0.43,0.53,0.23,0.27,0.55,0.23,0.53,0.27,0.47,0.37,0.23,0.48,0.23,0.44,0.55,0.53,0.23,0.47,0.48,0.23,0.23,1.07,0.43,0.23,0.6,0.53,0.75,0.37,0.23,0.44,0.37,0.43,0.23,0.42,0.51,0.82,0.52,0.51,0.37,0.43,0.53,0.23,0.51,0.3,0.23,0.31,0.53,0.43,0.23,0.31,0.53,0.27,0.55,0.23,0.37,0.53,0.43,0.25,0.25,0.23" style="fill:rgb(0,0,0);font-family:MinionPro-Regular;font-size:9.0px;stroke:none;">different calcination temperatures are demonstrated in Figs 1 and S1. The ZFOs are composed of the thin shell </text>
   <text y="723.701" x="155.636,161.893,164.262,167.126,171.995,174.065,180.321,183.779,186.254,191.286,195.896,198.175,202.369,204.434,208.369,213.321,218.136,220.206,223.493,228.048,232.89,237.23,242.099,244.165,247.488,252.33,255.787,258.514,262.528,266.398,270.286,273.652,275.767,277.833,283.973,287.339,289.409,292.056,296.603,300.005,302.071,304.934,309.769,313.657,315.727,318.202,323.118,326.558,330.446,333.254,335.319,337.794,345.203,349.174,353.379,357.267,359.337,363.884,366.611,368.676,374.166,378.99,385.776,389.043,393.426,397.809,402.192,404.258,407.435,412.259,414.734,419.037,421.152,423.218,427.601,430.778,432.893,434.958,437.822,442.691,445.166,450.152,452.218,455.073,458.53,460.9,465.617,467.957,471.845,475.112,478.444,483.279,487.132,489.519,491.859,495.794,500.609,502.674,507.509,512.101,514.488,516.828,521.339,527.567,529.632,537.066,539.541,543.411,546.698,551.351" svgx:width="0.69,0.27,0.31,0.53,0.23,0.69,0.37,0.27,0.55,0.5,0.25,0.46,0.23,0.44,0.55,0.53,0.23,0.37,0.51,0.53,0.47,0.53,0.23,0.37,0.53,0.37,0.3,0.44,0.42,0.43,0.37,0.23,0.23,0.69,0.37,0.23,0.3,0.51,0.37,0.23,0.31,0.53,0.43,0.23,0.27,0.55,0.37,0.43,0.31,0.23,0.27,0.82,0.44,0.47,0.43,0.23,0.51,0.3,0.23,0.6,0.53,0.75,0.36,0.48,0.48,0.48,0.23,0.35,0.53,0.27,0.47,0.23,0.23,0.48,0.35,0.23,0.23,0.31,0.53,0.27,0.55,0.23,0.31,0.37,0.27,0.52,0.25,0.43,0.36,0.37,0.53,0.43,0.25,0.25,0.43,0.53,0.23,0.53,0.51,0.25,0.25,0.51,0.69,0.23,0.82,0.27,0.42,0.37,0.51,0.36" style="fill:rgb(0,0,0);font-family:MinionPro-Regular;font-size:9.0px;stroke:none;">with wrinkly and rough surfaces. As for the inset image of ZFO-450 (Fig. 1), thin triple-shelled hollow micro-</text>
   <text y="733.7" x="155.636,158.894,163.547,168.317,172.142,175.364,179.189,181.079,183.464,186.767,188.657,192.41,194.687,198.566,202.436,205.739,207.953,212.084,213.974,220.166,222.47,225.26,230.147,233.972,237.23,240.605,244.474,249.172,251.224,253.114,259.342,264.148,266.56,270.312,275.118,277.008,280.815,285.297,290.148,293.451,295.836,299.094,301.839,303.729,308.211,310.875,312.765,315.564,320.334,324.159,326.049,329.856,334.338,339.09,341.781,346.272,351.051,354.39,356.28,360.762,363.426,365.316,369.933,373.929,376.251,378.528,380.418,382.83,387.753,389.643,394.26,398.255,400.577,402.854,404.745,408.885,412.71,417.597,421.422,424.761,428.541,431.331,433.743,438.594,442.806,444.696,450.888,453.3,458.052,461.877,463.767,467.862,472.344,474.756,479.481,482.784,484.674,488.544,493.431,498.183,500.073,502.872,507.678,510.09,515.013,516.903,520.17,524.94,528.729,531.051,533.301,536.604,538.494,544.685,546.99,549.789,554.594" svgx:width="0.37,0.52,0.53,0.43,0.37,0.43,0.23,0.27,0.37,0.23,0.42,0.25,0.43,0.44,0.37,0.25,0.46,0.23,0.69,0.27,0.31,0.55,0.43,0.37,0.37,0.43,0.53,0.23,0.23,0.69,0.53,0.27,0.42,0.53,0.23,0.42,0.51,0.55,0.37,0.27,0.37,0.31,0.23,0.51,0.3,0.23,0.31,0.53,0.43,0.23,0.42,0.51,0.55,0.31,0.51,0.53,0.37,0.23,0.51,0.3,0.23,0.51,0.44,0.25,0.25,0.23,0.27,0.55,0.23,0.51,0.44,0.25,0.25,0.23,0.47,0.43,0.55,0.43,0.37,0.44,0.31,0.27,0.55,0.47,0.23,0.69,0.27,0.53,0.43,0.23,0.46,0.51,0.27,0.53,0.37,0.23,0.44,0.55,0.53,0.23,0.31,0.53,0.27,0.55,0.23,0.37,0.53,0.43,0.25,0.25,0.37,0.23,0.69,0.27,0.31,0.53,0.23" style="fill:rgb(0,0,0);font-family:MinionPro-Regular;font-size:9.0px;stroke:none;">sphere is clearly witnessed, which consist of the contour of ball in ball generating wide voids and thin shells with </text>
  </g>
  <rect style="stroke:blue;stroke-width:0.3;" x="155.638" y="64.138" height="96.96" width="396.0" title="2"/>
  <text y="64.138" class="image" id="image.2.1" width="396" height="96" x="155.638">image.2.1.156_552.64_161</text>
  <path style="fill:none;stroke:rgb(131,144,151);stroke-width:0.3;" d="M159.130 172.000 L552.640 172.000 "/>
  <path style="fill:none;stroke:rgb(131,144,151);stroke-width:1.0;" d="M156.140 172.000 L156.140 172.000 M554.140 172.000 L554.140 172.000 "/>
  <g begin="text">
   <text y="162.003" x="155.638,160.552,163.207,167.662,172.657,176.221,180.154,181.909,186.409" svgx:width="0.55,0.29,0.49,0.56,0.4,0.44,0.22,0.5,0.25" style="fill:rgb(0,0,0);font-family:MinionPro-Bold;font-size:9.0px;stroke:none;">Figure 1.</text>
   <text y="162.003" x="188.695,190.765,193.195,197.353,202.465,210.484,212.32,214.732,222.076,225.982,230.122,233.947,237.25,239.086,243.568,246.232,248.068" svgx:width="0.23,0.55,0.47,0.57,0.89,0.23,0.27,0.82,0.44,0.47,0.43,0.37,0.23,0.51,0.3,0.23,0.35" style="fill:rgb(0,0,0);font-family:MinionPro-Regular;font-size:9.0px;stroke:none;"> SEM images of (</text>
   <text y="162.003" x="251.182" svgx:width="0.47" style="fill:rgb(0,0,0);font-family:MinionPro-Bold;font-size:9.0px;stroke:none;">a</text>
   <text y="162.003" x="255.376,258.49,260.326,265.753,270.514,277.237,280.441,284.761,289.081,293.401,295.453,297.289" svgx:width="0.35,0.23,0.6,0.53,0.75,0.36,0.48,0.48,0.48,0.23,0.23,0.35" style="fill:rgb(0,0,0);font-family:MinionPro-Regular;font-size:9.0px;stroke:none;">) ZFO-400, (</text>
   <text y="162.003" x="300.403" svgx:width="0.53" style="fill:rgb(0,0,0);font-family:MinionPro-Bold;font-size:9.0px;stroke:none;">b</text>
   <text y="162.003" x="305.209,308.323,310.159,315.586,320.347,327.07,330.274,334.594,338.914,343.234,345.286,347.122,350.992,355.879,360.631,362.467" svgx:width="0.35,0.23,0.6,0.53,0.75,0.36,0.48,0.48,0.48,0.23,0.23,0.44,0.55,0.53,0.23,0.35" style="fill:rgb(0,0,0);font-family:MinionPro-Regular;font-size:9.0px;stroke:none;">) ZFO-450, and (</text>
   <text y="162.003" x="365.581" svgx:width="0.42" style="fill:rgb(0,0,0);font-family:MinionPro-Bold;font-size:9.0px;stroke:none;">c</text>
   <text y="162.003" x="369.379,372.493,374.329,379.756,384.517,391.24,394.444,398.764,403.084,407.404" svgx:width="0.35,0.23,0.6,0.53,0.75,0.36,0.48,0.48,0.48,0.23" style="fill:rgb(0,0,0);font-family:MinionPro-Regular;font-size:9.0px;stroke:none;">) ZFO-500.</text>
  </g>
 </g>
</svg>
