<?xml version="1.0" encoding="UTF-8"?>
<svg height="774.23" width="4165.638" xmlns="http://www.w3.org/2000/svg">
 <g id="page" xmlns:svgx="http://www.xml-cml.org/schema/svgx">
  <g begin="text">
   <text y="22.46" x="40.638,48.208,55.778,63.055,66.145,71.865,77.215,81.135,86.765,90.565,95.995,99.085,103.915,109.695,118.435,121.635,126.125,130.955,133.725,139.15,144.87,148.79,151.56,155.19,157.96,162.79,166.59,172.02,177.78,183.56,187.36,191.28,195.77" svgx:width="0.71,0.71,0.71,0.26,0.53,0.49,0.35,0.52,0.34,0.5,0.26,0.44,0.53,0.83,0.28,0.4,0.44,0.23,0.5,0.53,0.35,0.23,0.32,0.23,0.44,0.34,0.5,0.53,0.53,0.34,0.35,0.4,0.28" style="fill:rgb(255,255,255);font-family:Corbel;font-size:10.0px;stroke:none;">www.nature.com/scientificreports/</text>
  </g>
  <g begin="text">
   <text y="764.23" x="549.491" svgx:width="0.51" style="fill:rgb(131,144,151);font-family:Corbel;font-size:10.0px;stroke:none;">8</text>
  </g>
  <g begin="text">
   <text y="764.193" x="40.794,45.642,50.786,53.186,58.026,64.026,68.898,71.298,75.762,78.162" svgx:width="0.55,0.59,0.25,0.55,0.7,0.56,0.25,0.5,0.25,0.59" style="fill:rgb(131,144,151);font-family:Corbel;font-size:8.0px;stroke:none;">Scientific</text>
   <text y="764.193" x="83.162" svgx:width="0.2" style="fill:rgb(0,0,0);font-family:Corbel;font-size:8.0px;stroke:none;"> </text>
   <text y="764.193" x="84.762,90.218,95.194,100.434,106.738,112.194,117.186" svgx:width="0.63,0.57,0.6,0.73,0.63,0.57,0.58" style="fill:rgb(131,144,151);font-family:Corbel-Bold;font-size:8.0px;stroke:none;">RepoRts</text>
   <text y="764.193" x="122.082,123.524,125.34,126.781,130.885,132.997,137.101,141.205,145.309,149.413,153.517,154.945,156.761,158.203,163.571,169.411,171.379,173.491,174.93,179.034,183.138,185.25,189.354,193.458,197.562,201.666,203.866,207.098,209.778,213.762,218.01,222.114,226.218,230.322,234.426" svgx:width="0.2,0.23,0.2,0.51,0.26,0.51,0.51,0.51,0.51,0.51,0.2,0.23,0.2,0.67,0.73,0.25,0.26,0.2,0.51,0.51,0.26,0.51,0.51,0.51,0.51,0.28,0.4,0.34,0.5,0.53,0.51,0.51,0.51,0.51,0.51" style="fill:rgb(0,0,0);font-family:Corbel;font-size:8.0px;stroke:none;"> | 7:46378 | DOI: 10.1038/srep46378</text>
  </g>
  <path style="fill:none;stroke:rgb(0,0,0);stroke-width:1.0;" d="M40.640 752.550 L554.640 752.550 "/>
  <g begin="text">
   <text y="266.5" x="155.638,159.445,163.927,171.127,175.924,180.514,183.888,187.758,192.51,194.364,198.846,201.51,203.364,207.243,211.194,214.947,219.753,221.607,224.982,228.807,236.178,238.59,242.397,244.809,248.03,251.783,254.06,257.885,259.739,262.151,267.074,268.928,271.727,276.497,280.322,282.176,286.982,289.394,293.668,298.474,301.678,309.049,311.461,316.213,321.01,323.287,327.112,328.966,331.72,334.942,338.812,343.321,348.1,351.925,356.812,360.763,364.894,366.748,369.97,373.795,378.052,380.464,384.946,389.797,393.1,394.954,398.825,403.711,408.463,410.317,414.187,419.11,420.964,423.376,428.263,432.016,434.293,436.705,441.592,445.462,450.214,452.068,454.345,456.757,461.644,465.469,467.323,471.102,473.847,475.701,477.978,482.424,488.589,490.443,493.197,496.419,500.288,504.797,509.576,513.401,518.288,522.095,524.507,528.332" svgx:width="0.42,0.51,0.82,0.52,0.51,0.37,0.43,0.53,0.23,0.51,0.3,0.23,0.43,0.44,0.42,0.53,0.23,0.37,0.43,0.82,0.27,0.42,0.27,0.37,0.42,0.25,0.43,0.23,0.27,0.55,0.23,0.31,0.53,0.43,0.23,0.53,0.27,0.47,0.53,0.36,0.82,0.27,0.53,0.53,0.25,0.43,0.23,0.3,0.37,0.43,0.51,0.53,0.43,0.55,0.42,0.46,0.23,0.37,0.43,0.47,0.27,0.51,0.55,0.37,0.23,0.44,0.55,0.53,0.23,0.44,0.55,0.23,0.27,0.55,0.42,0.25,0.27,0.55,0.43,0.53,0.23,0.25,0.27,0.55,0.43,0.23,0.44,0.31,0.23,0.25,0.51,0.69,0.23,0.3,0.37,0.43,0.51,0.53,0.43,0.55,0.42,0.27,0.43,0.37" style="fill:rgb(0,0,0);font-family:MinionPro-Regular;font-size:9.0px;stroke:none;">composed of each semicircle in the high-middle frequency regions and an inclined line at low frequencies</text>
   <text y="263.44" x="531.684,534.492" svgx:width="0.48,0.48" style="fill:rgb(0,0,0);font-family:MinionPro-Regular;font-size:5.85px;stroke:none;">24</text>
   <text y="266.5" x="537.3,539.352,541.206,550.809,554.634" svgx:width="0.23,0.23,1.07,0.43,0.23" style="fill:rgb(0,0,0);font-family:MinionPro-Regular;font-size:9.0px;stroke:none;">. The </text>
   <text y="276.499" x="155.637,159.456,164.3,168.235,171.568,175.773,179.661,182.928,185.784,189.186,193.12,198.037,201.403,204.051,207.939,211.341,213.411,216.698,220.586,223.952,226.402,229.725,232.59,236.525,241.477,245.347,249.235,251.305,254.482" svgx:width="0.42,0.53,0.44,0.37,0.47,0.43,0.36,0.31,0.37,0.44,0.55,0.37,0.3,0.43,0.37,0.23,0.37,0.43,0.37,0.27,0.37,0.31,0.44,0.55,0.42,0.43,0.23,0.35,0.62" style="fill:rgb(0,0,0);font-family:MinionPro-Regular;font-size:9.0px;stroke:none;">charge-transfer resistance (R</text>
   <text y="278.3" x="260.188,262.745" svgx:width="0.42,0.31" style="fill:rgb(0,0,0);font-family:MinionPro-Regular;font-size:5.85px;stroke:none;">ct</text>
   <text y="276.5" x="264.573,267.75,269.82,273.666,276.474,278.544,282.558,284.628,292.062,294.537,299.352,304.213,306.553,310.441,312.511,315.33,318.618,322.554,327.127,331.969,335.857,340.81,344.826,349.02,351.09,354.53,358.418,365.852,368.327,372.197,374.672,377.96,381.777,384.117,388.005,390.075,393.363,397.251,401.925,405.212,409.1,412.541,416.429,421.247,424.055,427.421,429.491,432.355,437.19,441.078,443.148,445.623,450.441,453.198,457.086,460.544,463.271,467.285,471.155,473.659,477.721,480.061,482.131,484.606,491.872,496.733,500.669,505.514,509.449,514.401,518.271,522.159,524.229,528.947,532.835,535.672,541.831,545.766,549.654,554.577" svgx:width="0.35,0.23,0.44,0.31,0.23,0.44,0.23,0.82,0.27,0.53,0.53,0.25,0.43,0.23,0.3,0.37,0.43,0.51,0.53,0.43,0.55,0.42,0.46,0.23,0.37,0.43,0.82,0.27,0.42,0.27,0.37,0.42,0.25,0.43,0.23,0.37,0.43,0.52,0.37,0.43,0.37,0.43,0.55,0.31,0.37,0.23,0.31,0.53,0.43,0.23,0.27,0.55,0.31,0.43,0.37,0.3,0.44,0.42,0.27,0.44,0.25,0.23,0.27,0.82,0.52,0.43,0.53,0.44,0.55,0.42,0.43,0.23,0.51,0.43,0.31,0.69,0.43,0.43,0.55,0.23" style="fill:rgb(0,0,0);font-family:MinionPro-Regular;font-size:9.0px;stroke:none;">) at a middle frequency semicircle represents the interfacial impedance between </text>
   <text y="286.499" x="155.637,159.517,161.884,165.845,169.806,172.687,176.0,180.762,185.604,189.519,191.679,195.64,200.618,205.46,207.62,211.5,213.867,217.828,221.789,224.67,227.983,232.745,237.587,241.449,243.591,245.751,249.712,254.69,259.532,261.692,264.582,269.443,273.358,275.518,277.885,280.28,283.17,288.066,290.461,295.33,302.791,304.951,309.793,312.295,317.489,322.332,325.725,328.227,332.801,337.814,339.974,342.856,346.285,350.247,355.189,358.582,361.256,365.171,368.034,370.176,372.336,377.017,381.59,385.019,387.179,390.025,393.338,397.253,400.611,405.507,407.667,413.184,418.035,424.795,428.188,430.348,433.552,438.295,442.21,444.885,449.458,452.771,456.686,458.846,462.889,467.039,470.883,473.25,475.752,480.694,484.996,488.2,490.36,492.862,497.875,500.035,504.886,507.388,511.69,516.559,519.872,523.787,525.945,530.301,534.711,538.752,540.894,543.054,545.944,550.805,554.63" svgx:width="0.43,0.25,0.43,0.42,0.31,0.37,0.51,0.53,0.43,0.23,0.44,0.55,0.53,0.23,0.43,0.25,0.43,0.42,0.31,0.37,0.51,0.53,0.43,0.23,0.23,0.44,0.55,0.53,0.23,0.31,0.53,0.43,0.23,0.25,0.27,0.31,0.53,0.27,0.53,0.82,0.23,0.53,0.27,0.56,0.53,0.37,0.27,0.51,0.55,0.23,0.31,0.37,0.44,0.55,0.37,0.3,0.43,0.37,0.23,0.23,0.53,0.51,0.37,0.23,0.3,0.37,0.43,0.37,0.53,0.23,0.6,0.53,0.75,0.37,0.23,0.35,0.51,0.43,0.3,0.51,0.37,0.43,0.23,0.42,0.46,0.42,0.25,0.27,0.55,0.47,0.35,0.23,0.27,0.55,0.23,0.53,0.27,0.47,0.53,0.37,0.43,0.23,0.47,0.48,0.44,0.23,0.23,0.31,0.53,0.43,0.23" style="fill:rgb(0,0,0);font-family:MinionPro-Regular;font-size:9.0px;stroke:none;">electrode and electrode, and the lithium diffusion transfer. For fresh ZFOs (before cycling) in Figure S5a, the </text>
   <text y="296.498" x="155.637,159.392,164.172,168.043,171.312,175.453,179.278,181.222,184.014,187.353,191.225,196.078,199.381,201.965,205.79,209.129,211.073,214.296,218.121,221.424,223.811,227.071,229.871,233.743,238.631,242.438,246.263,248.207,252.691,255.355,257.299,260.099,264.871,268.696,270.64,276.067,280.828,287.551,290.755,295.075,299.395,303.715,305.659,308.046,311.349,313.293,320.494,325.273,329.027,333.833,335.777,340.583,342.995,347.271,352.043,355.868,359.207,361.151,364.958,369.442,376.643,381.406,385.276,388.5,392.372,397.124,399.068,401.76,406.35,408.294,411.095,415.866,420.456,423.832,427.657,429.601,434.084,436.748,438.692,444.119,448.88,455.603,458.807,463.127,467.447,471.767,473.711,477.583,482.472,487.224,489.168,494.595,499.356,506.079,509.283,513.603,517.923,522.243,524.295,526.239,535.844,539.669,541.613,545.008,547.394,550.77,554.595" svgx:width="0.42,0.53,0.44,0.37,0.47,0.43,0.23,0.31,0.37,0.44,0.55,0.37,0.3,0.43,0.37,0.23,0.37,0.43,0.37,0.27,0.37,0.31,0.44,0.55,0.42,0.43,0.23,0.51,0.3,0.23,0.31,0.53,0.43,0.23,0.6,0.53,0.75,0.36,0.48,0.48,0.48,0.23,0.27,0.37,0.23,0.82,0.53,0.42,0.53,0.23,0.53,0.27,0.47,0.53,0.43,0.37,0.23,0.42,0.51,0.82,0.52,0.44,0.37,0.43,0.53,0.23,0.31,0.51,0.23,0.31,0.53,0.51,0.37,0.43,0.23,0.51,0.3,0.23,0.6,0.53,0.75,0.36,0.48,0.48,0.48,0.23,0.44,0.55,0.53,0.23,0.6,0.53,0.75,0.36,0.48,0.48,0.48,0.23,0.23,1.07,0.43,0.23,0.37,0.27,0.37,0.43,0.23" style="fill:rgb(0,0,0);font-family:MinionPro-Regular;font-size:9.0px;stroke:none;">charge transfer resistance of the ZFO-450 is much higher compared to those of ZFO-400 and ZFO-500. The rise </text>
   <text y="306.497" x="155.637,158.031,162.936,164.655,168.389,173.15,177.002,180.251,184.373,188.18,189.899,192.67,195.991,199.843,204.676,207.961,210.526,214.333,217.654,219.373,222.576,226.383,229.668,232.035,235.274,238.055,241.907,246.776,250.565,254.372,256.091,258.458,261.743,263.462,267.926,271.3,273.694,277.933,280.327,285.205,288.967,291.641,295.492,300.226,301.945,304.681,307.885,312.349,319.702,321.421,324.202,328.954,332.761,334.48,336.874,341.706,344.946,349.707,356.871,360.66,363.054,366.861,371.594,374.321,376.04,379.829,384.293,389.027,391.807,395.74,399.592,402.319,404.038,408.672,412.479,415.233,421.307,425.159,428.966,433.871,435.59,438.37,443.122,446.929,448.648,452.581,456.432,459.204,461.535,465.612,469.419,471.138,478.463,482.225,484.898,488.705,492.08,494.501,498.479,500.738,502.457,506.309,511.178,515.911,517.63,521.401,523.66,527.512,531.364,534.136,537.34,541.849,544.045,548.158,550.83,554.655" svgx:width="0.27,0.55,0.23,0.42,0.53,0.44,0.37,0.47,0.43,0.23,0.31,0.37,0.44,0.55,0.37,0.3,0.43,0.37,0.23,0.37,0.43,0.37,0.27,0.37,0.31,0.44,0.55,0.42,0.43,0.23,0.27,0.37,0.23,0.51,0.37,0.27,0.47,0.27,0.55,0.44,0.31,0.43,0.53,0.23,0.3,0.37,0.51,0.82,0.23,0.31,0.53,0.43,0.23,0.27,0.55,0.37,0.53,0.8,0.42,0.27,0.43,0.55,0.31,0.23,0.42,0.51,0.55,0.31,0.44,0.42,0.31,0.23,0.51,0.43,0.31,0.69,0.43,0.43,0.55,0.23,0.31,0.53,0.43,0.23,0.44,0.42,0.31,0.27,0.46,0.43,0.23,0.82,0.44,0.31,0.43,0.37,0.27,0.44,0.25,0.23,0.44,0.55,0.53,0.23,0.43,0.25,0.43,0.42,0.31,0.37,0.51,0.25,0.46,0.31,0.43,0.23" style="fill:rgb(0,0,0);font-family:MinionPro-Regular;font-size:9.0px;stroke:none;">in charge transfer resistance is originated from the insufficient contact between the active material and electrolyte </text>
   <text y="316.496" x="155.637,160.311,164.203,168.059,171.86,176.635,180.031,183.874,185.836,188.658,193.449,197.292,199.255,203.066,205.361,209.253,213.144,215.956,219.199,223.748,225.984,230.133,232.846,236.689,238.651,241.058,244.379,246.341,251.249,255.762,258.525,260.487,263.767,268.564,275.764,279.589,282.019,285.862,290.635,293.456,295.692,299.841,301.803,306.622,310.465,315.373,319.216,322.028,325.385,329.187,331.899,335.791,340.561,342.523,344.953,349.726,352.44,357.048,359.01,361.831,366.622,370.465,372.427,375.716,380.507,384.318,386.661,388.933,392.254,394.216,398.108,403.017,407.787,409.749,413.866,418.369,420.799,425.547,428.868,430.83,435.334,438.016,439.978,445.423,450.202,456.943,460.165,464.503,468.841,473.18,475.25,477.212,483.309,486.63,488.592,491.198,495.701,499.058,501.02,506.465,511.244,517.935,521.256,523.218,527.109,532.315,536.158,539.515,541.477,545.815,550.153,554.472" svgx:width="0.51,0.43,0.42,0.44,0.53,0.37,0.43,0.23,0.31,0.53,0.43,0.23,0.43,0.25,0.43,0.42,0.31,0.37,0.51,0.25,0.46,0.31,0.43,0.23,0.27,0.37,0.23,0.55,0.51,0.31,0.23,0.37,0.53,0.8,0.42,0.27,0.43,0.55,0.31,0.25,0.46,0.23,0.52,0.43,0.55,0.43,0.31,0.37,0.44,0.31,0.43,0.53,0.23,0.27,0.55,0.31,0.51,0.23,0.31,0.53,0.43,0.23,0.37,0.53,0.43,0.25,0.25,0.37,0.23,0.44,0.55,0.53,0.23,0.46,0.51,0.27,0.53,0.37,0.23,0.51,0.3,0.23,0.6,0.53,0.75,0.36,0.48,0.48,0.48,0.23,0.23,0.69,0.37,0.23,0.3,0.51,0.37,0.23,0.6,0.53,0.75,0.37,0.23,0.44,0.58,0.43,0.37,0.23,0.48,0.48,0.48,0.23" style="fill:rgb(0,0,0);font-family:MinionPro-Regular;font-size:9.0px;stroke:none;">because the electrolyte is not sufficiently penetrated into the shells and voids of ZFO-450. As for ZFOs after 100 </text>
   <text y="326.495" x="155.637,159.645,163.761,167.571,169.902,172.368,177.276,181.542,183.576,186.042,191.02,193.053,197.868,200.335,204.601,209.434,212.713,216.592,218.63,222.95,227.324,231.691,233.797,235.831,238.687,243.514,247.393,249.427,253.237,258.073,262.0,265.324,269.521,273.4,275.434,278.281,281.674,285.601,290.509,293.866,296.506,300.385,303.778,305.812,309.091,312.97,316.327,318.768,322.083,324.94,328.866,333.81,337.671,341.55,343.584,348.124,350.841,352.875,358.356,363.171,369.948,373.206,377.58,381.954,386.328,388.362,394.611,396.972,399.828,404.688,406.722,409.577,414.437,416.903,421.88,423.914,426.761,430.211,432.571,437.282,439.613,443.492,446.75,450.074,454.901,458.747,461.126,463.457,467.383,472.189,474.223,479.051,483.635,486.013,488.344,492.848,499.067,501.101,508.526,510.992,514.853,518.132,522.776,526.09,530.8,535.628,539.507,542.785,546.664,548.698,551.14,554.443" svgx:width="0.42,0.46,0.42,0.25,0.27,0.55,0.47,0.23,0.27,0.55,0.23,0.53,0.27,0.47,0.53,0.37,0.43,0.23,0.47,0.48,0.51,0.23,0.23,0.31,0.53,0.43,0.23,0.42,0.53,0.44,0.37,0.47,0.43,0.23,0.31,0.37,0.44,0.55,0.37,0.3,0.43,0.37,0.23,0.37,0.43,0.37,0.27,0.37,0.31,0.44,0.55,0.42,0.43,0.23,0.51,0.3,0.23,0.6,0.53,0.75,0.36,0.48,0.48,0.48,0.23,0.69,0.27,0.31,0.53,0.23,0.31,0.53,0.27,0.55,0.23,0.31,0.37,0.27,0.52,0.25,0.43,0.36,0.37,0.53,0.43,0.25,0.25,0.43,0.53,0.23,0.53,0.51,0.25,0.25,0.51,0.69,0.23,0.82,0.27,0.42,0.37,0.51,0.37,0.52,0.53,0.43,0.37,0.43,0.23,0.27,0.37,0.23" style="fill:rgb(0,0,0);font-family:MinionPro-Regular;font-size:9.0px;stroke:none;">cycling in Figure S5b, the charge transfer resistance of ZFO-450 with thin triple-shelled hollow microsphere is </text>
   <text y="336.494" x="155.637,160.416,164.315,168.149,171.4,175.308,179.262,182.667,186.565,191.344,193.315,197.989,202.795,206.647,208.618,211.339,215.956,217.927,220.755,225.554,229.406,231.377,233.816,241.046,245.684,248.935,253.41,257.535,261.387,268.751,272.603,277.384,280.156,282.127,286.638,289.329,291.3,294.129,298.928,302.78,304.751,308.533,313.342,317.241,320.538,324.707,328.559,330.53,333.35,336.716,340.616,345.496,348.826,351.438,355.29,358.656,360.627,365.265,368.516,373.216,377.05,380.902,384.19,387.52,389.491,393.966,398.091,401.943,405.309,407.28,410.107,414.907,418.759,420.73,424.548,426.852,430.752,434.65,437.47,440.721,445.422,450.201,454.053,456.024,459.311,464.117,467.539,470.23,474.208,478.042,481.843,483.922,485.893,492.15,496.983,499.422,503.205,508.038,510.009,512.424,515.754,517.725,521.679,524.966,528.37,533.071,536.905,539.374,543.182,545.903,549.803,554.554" svgx:width="0.53,0.43,0.42,0.37,0.43,0.44,0.37,0.43,0.53,0.23,0.53,0.53,0.43,0.23,0.31,0.51,0.23,0.31,0.53,0.43,0.23,0.27,0.82,0.52,0.37,0.51,0.46,0.43,0.82,0.43,0.55,0.31,0.23,0.51,0.3,0.23,0.31,0.53,0.43,0.23,0.42,0.53,0.44,0.37,0.47,0.43,0.23,0.31,0.37,0.44,0.55,0.37,0.3,0.43,0.37,0.23,0.52,0.37,0.51,0.42,0.43,0.37,0.37,0.23,0.51,0.46,0.43,0.37,0.23,0.31,0.53,0.43,0.23,0.43,0.25,0.43,0.42,0.31,0.37,0.51,0.53,0.43,0.23,0.37,0.53,0.37,0.3,0.44,0.42,0.43,0.23,0.23,0.69,0.53,0.27,0.42,0.53,0.23,0.27,0.37,0.23,0.44,0.37,0.37,0.51,0.42,0.27,0.44,0.31,0.43,0.53,0.23" style="fill:rgb(0,0,0);font-family:MinionPro-Regular;font-size:9.0px;stroke:none;">decreased due to the improvement of the charge transfer process over the electrode surface, which is associated </text>
   <text y="346.493" x="155.637,161.828,164.132,166.93,171.736,173.473,177.351,181.824,186.603,191.49,196.268,200.138,204.889,207.634,209.371,211.783,216.535,219.225,223.05,226.479,231.239,235.109,238.537,241.327,243.739,247.491,249.768,253.593,255.33,260.127,264.608,267.83,271.655,273.392,276.649,281.41,285.361,289.168,292.993,296.296,298.033,301.903,306.79,311.542,313.279,316.537,321.316,328.498,332.305,334.717,338.542,343.293,346.038,347.775,351.869,356.351,358.763,363.515,365.252,368.51,373.27,377.221,381.028,384.853,388.156,389.893,396.085,398.389,401.187,405.993,407.73,410.033,413.903,417.169,421.309,425.134,428.473,430.21,433.468,438.264,442.133,445.94,448.352,453.167,456.974,458.711,461.969,466.748,470.14,472.804,476.755,480.562,484.387,486.124,489.994,493.215,497.093,501.044,503.096,504.833,514.436,518.261,519.998,527.333,531.814,535.242,539.896,544.666,549.192,551.469" svgx:width="0.69,0.27,0.31,0.53,0.23,0.44,0.51,0.53,0.55,0.53,0.44,0.55,0.31,0.23,0.27,0.55,0.31,0.43,0.37,0.52,0.44,0.37,0.31,0.27,0.42,0.25,0.43,0.23,0.52,0.51,0.37,0.43,0.23,0.37,0.52,0.44,0.42,0.43,0.37,0.23,0.44,0.55,0.53,0.23,0.37,0.53,0.8,0.42,0.27,0.43,0.55,0.31,0.23,0.46,0.51,0.27,0.53,0.23,0.37,0.52,0.44,0.42,0.43,0.37,0.23,0.69,0.27,0.31,0.53,0.23,0.25,0.44,0.37,0.47,0.43,0.37,0.23,0.37,0.52,0.43,0.42,0.27,0.54,0.42,0.23,0.37,0.53,0.37,0.3,0.44,0.42,0.43,0.23,0.44,0.37,0.43,0.44,0.23,0.23,1.07,0.43,0.23,0.82,0.51,0.37,0.52,0.53,0.51,0.25,0.36" style="fill:rgb(0,0,0);font-family:MinionPro-Regular;font-size:9.0px;stroke:none;">with abundant interparticle pore spaces and sufficient void spaces with larger specific surface area. The morphol-</text>
   <text y="356.492" x="155.637,160.299,164.803,169.006,171.112,175.669,178.405,180.511,183.386,188.264,190.748,195.743,197.849,200.714,204.183,206.563,211.291,213.64,217.537,220.813,224.157,229.002,232.867,235.264,237.613,241.559,246.383,248.489,254.118,259.113,263.778" svgx:width="0.51,0.47,0.46,0.23,0.51,0.3,0.23,0.31,0.53,0.27,0.55,0.23,0.31,0.37,0.27,0.52,0.25,0.43,0.36,0.37,0.53,0.43,0.25,0.25,0.43,0.53,0.23,0.6,0.55,0.53,0.43" style="fill:rgb(0,0,0);font-family:MinionPro-Regular;font-size:9.0px;stroke:none;">ogy of thin triple-shelled ZnFe</text>
   <text y="358.3" x="267.713" svgx:width="0.48" style="fill:rgb(0,0,0);font-family:MinionPro-Regular;font-size:5.85px;stroke:none;">2</text>
   <text y="356.5" x="270.57" svgx:width="0.75" style="fill:rgb(0,0,0);font-family:MinionPro-Regular;font-size:9.0px;stroke:none;">O</text>
   <text y="358.3" x="277.369" svgx:width="0.48" style="fill:rgb(0,0,0);font-family:MinionPro-Regular;font-size:5.85px;stroke:none;">4</text>
   <text y="356.5" x="280.226,282.332,287.178,291.781,294.179,296.528,301.049,307.286,309.392,316.835,319.319,323.198,326.496,331.158,334.491,339.22,344.066,347.963,351.261,355.158,357.264,359.725,363.1,365.206,371.374,375.239,377.637,379.986,382.092,385.425,390.276,392.657,395.531,399.486,404.07,406.419,410.316,412.422,415.081,419.639,423.05,425.156,428.03,432.877,436.774,438.88,442.177,446.074,453.494,457.44,460.819,465.355,469.31,473.894,476.243,480.14,482.246,484.73,492.006,496.689,499.987,504.509,508.679,512.576,519.987,523.884,528.711,531.528,533.634,538.192,540.928,543.034,545.909,550.754,554.579" svgx:width="0.23,0.53,0.51,0.25,0.25,0.51,0.69,0.23,0.82,0.27,0.42,0.37,0.51,0.37,0.52,0.53,0.43,0.37,0.43,0.23,0.27,0.37,0.23,0.69,0.43,0.25,0.25,0.23,0.37,0.53,0.27,0.31,0.44,0.51,0.25,0.43,0.23,0.3,0.51,0.37,0.23,0.31,0.53,0.43,0.23,0.37,0.43,0.82,0.44,0.37,0.5,0.44,0.51,0.25,0.43,0.23,0.27,0.82,0.52,0.37,0.51,0.46,0.43,0.82,0.43,0.55,0.31,0.23,0.51,0.3,0.23,0.31,0.53,0.43,0.23" style="fill:rgb(0,0,0);font-family:MinionPro-Regular;font-size:9.0px;stroke:none;"> hollow microsphere is well suitable for the remarkable improvement of the </text>
   <text y="366.499" x="155.639,159.59,163.649,167.402,169.679,172.091,176.942,181.154,182.99,186.824,190.604,195.365,199.316,203.123,205.427,208.198,212.329,214.165,218.035,222.922,227.674,229.51,232.849,236.629,239.32,243.145,244.981,248.815,252.595,257.355,261.234,265.698,268.155,270.432,272.736,275.508,278.982" svgx:width="0.42,0.46,0.42,0.25,0.27,0.55,0.47,0.23,0.42,0.44,0.52,0.44,0.42,0.27,0.31,0.46,0.23,0.44,0.55,0.53,0.23,0.37,0.44,0.31,0.43,0.23,0.42,0.44,0.52,0.44,0.51,0.27,0.25,0.27,0.31,0.46,0.23" style="fill:rgb(0,0,0);font-family:MinionPro-Regular;font-size:9.0px;stroke:none;">cycling capacity and rate capability.</text>
   <text y="388.5" x="155.638,164.724,170.367,174.536,180.696,186.79,192.928" svgx:width="0.83,0.51,0.38,0.56,0.55,0.56,0.42" style="fill:rgb(0,0,0);font-family:Corbel-Bold;font-size:11.0px;stroke:none;">Methods</text>
   <text y="398.5" x="155.638,161.368,166.998,169.518,175.098,177.088,180.914,184.444,186.964,192.494,195.051,200.211,203.571,207.841,213.471,218.631,221.188,223.745,228.905,234.515,236.163,242.203,247.783,253.023" svgx:width="0.57,0.56,0.25,0.56,0.21,0.38,0.35,0.25,0.55,0.25,0.51,0.33,0.42,0.56,0.51,0.25,0.25,0.51,0.56,0.21,0.6,0.56,0.52,0.51" style="fill:rgb(0,0,0);font-family:Corbel-Bold;font-size:10.0px;stroke:none;">Thin triple-shelled ZnFe</text>
   <text y="400.5" x="258.18" svgx:width="0.53" style="fill:rgb(0,0,0);font-family:Corbel-Bold;font-size:6.5px;stroke:none;">2</text>
   <text y="398.5" x="261.629" svgx:width="0.73" style="fill:rgb(0,0,0);font-family:Corbel-Bold;font-size:10.0px;stroke:none;">O</text>
   <text y="400.5" x="269.005" svgx:width="0.53" style="fill:rgb(0,0,0);font-family:Corbel-Bold;font-size:6.5px;stroke:none;">4</text>
   <text y="398.5" x="272.454,274.444,280.074,285.644,288.201,290.757,296.327,303.847,305.837,314.387,316.907,321.347,324.877,330.447,334.717,340.247,345.877,351.037,354.567,359.727,363.997,366.954" svgx:width="0.21,0.56,0.55,0.25,0.25,0.55,0.75,0.21,0.85,0.25,0.44,0.35,0.55,0.42,0.55,0.56,0.51,0.35,0.51,0.42,0.29,0.21" style="fill:rgb(0,0,0);font-family:Corbel-Bold;font-size:10.0px;stroke:none;"> hollow microspheres. </text>
   <text y="398.5" x="376.987,386.662,389.105,394.065,396.036,398.857,402.282,404.619,409.304,411.613,415.474,418.714,422.012,426.815,430.636,432.99,435.303,439.205,443.993,445.964,451.549,456.508,461.131" svgx:width="1.07,0.27,0.55,0.23,0.31,0.37,0.27,0.52,0.25,0.43,0.36,0.37,0.53,0.43,0.25,0.25,0.43,0.53,0.23,0.6,0.55,0.53,0.43" style="fill:rgb(0,0,0);font-family:MinionPro-Regular;font-size:9.0px;stroke:none;">Thin triple-shelled ZnFe</text>
   <text y="400.3" x="464.966" svgx:width="0.48" style="fill:rgb(0,0,0);font-family:MinionPro-Regular;font-size:5.85px;stroke:none;">2</text>
   <text y="398.5" x="467.795" svgx:width="0.75" style="fill:rgb(0,0,0);font-family:MinionPro-Regular;font-size:9.0px;stroke:none;">O</text>
   <text y="400.3" x="474.551" svgx:width="0.48" style="fill:rgb(0,0,0);font-family:MinionPro-Regular;font-size:5.85px;stroke:none;">4</text>
   <text y="398.5" x="477.379,479.35,484.153,488.712,491.067,493.375,497.854,504.055,506.026,513.432,515.88,519.719,522.973,527.599,530.89,535.575,540.377,544.238,547.492,551.353,554.656" svgx:width="0.23,0.53,0.51,0.25,0.25,0.51,0.69,0.23,0.82,0.27,0.42,0.37,0.51,0.37,0.52,0.53,0.43,0.37,0.43,0.37,0.23" style="fill:rgb(0,0,0);font-family:MinionPro-Regular;font-size:9.0px;stroke:none;"> hollow microspheres </text>
   <text y="408.499" x="155.638,158.752,164.179,168.94,175.663,178.777,180.523,186.616,190.441,193.663,197.488,199.234,203.842,207.064,210.889,215.649,219.519,222.741,226.611,231.363,233.109,237.537,241.668,243.414,247.365,249.111,253.593,258.48,262.305,265.509,270.306,274.797,277.542,279.288,283.887,287.947,292.699,295.921,300.411,303.21,307.98,311.805,315.198,322.542,326.538,328.815,330.561,333.252,337.122,340.875,345.681,350.604,353.016,357.525,362.304,366.129,367.875,371.745,376.632,381.384,383.13,386.388,391.131,395.703,399.078,402.948,407.457,412.236,416.061,420.813,423.558,425.304,429.138,433.134,435.411,439.218,441.63,446.526,450.306,453.096,455.508,459.989,464.912,466.658,471.266,474.489,479.159,482.966,486.791,490.049,493.352,495.098,497.51,502.433,504.179,508.049,510.461,513.233,515.285,517.031,521.351,523.403,527.723,532.043,533.125,540.496,547.831,552.358,554.635" svgx:width="0.35,0.6,0.53,0.75,0.35,0.23,0.69,0.43,0.37,0.43,0.23,0.52,0.37,0.43,0.52,0.44,0.37,0.43,0.53,0.23,0.51,0.46,0.23,0.44,0.23,0.51,0.55,0.43,0.36,0.52,0.51,0.31,0.23,0.53,0.46,0.53,0.37,0.51,0.31,0.53,0.43,0.37,0.82,0.44,0.25,0.23,0.31,0.43,0.42,0.53,0.55,0.27,0.51,0.53,0.43,0.23,0.44,0.55,0.53,0.23,0.37,0.53,0.51,0.37,0.43,0.51,0.53,0.43,0.55,0.31,0.23,0.42,0.44,0.25,0.42,0.27,0.55,0.44,0.31,0.27,0.51,0.55,0.23,0.52,0.37,0.51,0.42,0.43,0.37,0.37,0.23,0.27,0.55,0.23,0.44,0.27,0.37,0.23,0.23,0.48,0.23,0.48,0.48,0.23,0.82,0.82,0.51,0.25,0.23" style="fill:rgb(0,0,0);font-family:MinionPro-Regular;font-size:9.0px;stroke:none;">(ZFO) were prepared by a one-pot hydrothermal technique and subsequent calcination process in air. 0.83 mmol </text>
   <text y="418.498" x="155.638,160.07,162.68,164.345,168.071,170.429,175.266,179.019,180.684,185.553,187.806,190.546,193.831,197.559,200.2,203.971,205.636,208.696,214.199,219.068,222.128,228.701" svgx:width="0.51,0.3,0.23,0.42,0.27,0.55,0.42,0.23,0.55,0.27,0.31,0.37,0.44,0.31,0.43,0.23,0.35,0.6,0.55,0.35,0.74,0.75" style="fill:rgb(0,0,0);font-family:MinionPro-Regular;font-size:9.0px;stroke:none;">of zinc nitrate (Zn(NO</text>
   <text y="420.3" x="235.401" svgx:width="0.48" style="fill:rgb(0,0,0);font-family:MinionPro-Regular;font-size:5.85px;stroke:none;">3</text>
   <text y="418.5" x="238.176" svgx:width="0.35" style="fill:rgb(0,0,0);font-family:MinionPro-Regular;font-size:9.0px;stroke:none;">)</text>
   <text y="420.3" x="241.24" svgx:width="0.48" style="fill:rgb(0,0,0);font-family:MinionPro-Regular;font-size:5.85px;stroke:none;">2</text>
   <text y="418.5" x="244.015,245.995,250.261" svgx:width="0.23,0.48,0.77" style="fill:rgb(0,0,0);font-family:MinionPro-Regular;font-size:9.0px;stroke:none;">·6H</text>
   <text y="420.3" x="257.112" svgx:width="0.48" style="fill:rgb(0,0,0);font-family:MinionPro-Regular;font-size:5.85px;stroke:none;">2</text>
   <text y="418.5" x="259.887,266.556,269.616,271.614,273.279,277.545,279.543,283.809,288.075,289.173,296.49,303.774,308.251,310.474,312.139,316.57,319.18,320.845,323.203,326.375,330.807,335.676,337.341,342.21,344.463,347.203,350.488,354.218,356.858,360.629,362.294,365.354,369.894,373.665,376.725,383.298" svgx:width="0.75,0.35,0.23,0.23,0.48,0.23,0.48,0.48,0.23,0.82,0.82,0.51,0.25,0.23,0.51,0.3,0.23,0.27,0.37,0.51,0.55,0.23,0.55,0.27,0.31,0.37,0.44,0.31,0.43,0.23,0.35,0.53,0.43,0.35,0.74,0.75" style="fill:rgb(0,0,0);font-family:MinionPro-Regular;font-size:9.0px;stroke:none;">O), 1.67 mmol of iron nitrate (Fe(NO</text>
   <text y="420.3" x="389.996" svgx:width="0.48" style="fill:rgb(0,0,0);font-family:MinionPro-Regular;font-size:5.85px;stroke:none;">3</text>
   <text y="418.5" x="392.772" svgx:width="0.35" style="fill:rgb(0,0,0);font-family:MinionPro-Regular;font-size:9.0px;stroke:none;">)</text>
   <text y="420.3" x="395.835" svgx:width="0.48" style="fill:rgb(0,0,0);font-family:MinionPro-Regular;font-size:5.85px;stroke:none;">2</text>
   <text y="418.5" x="398.611,400.591,404.857" svgx:width="0.23,0.48,0.77" style="fill:rgb(0,0,0);font-family:MinionPro-Regular;font-size:9.0px;stroke:none;">·9H</text>
   <text y="420.3" x="411.707" svgx:width="0.48" style="fill:rgb(0,0,0);font-family:MinionPro-Regular;font-size:5.85px;stroke:none;">2</text>
   <text y="418.5" x="414.482,421.151,424.211,426.209,427.874,431.695,436.531,441.229,442.894,447.16,451.426,452.516,459.833,467.118,471.594,473.817,475.482,479.914,482.524,484.189,487.397,492.122,495.875,499.046,503.582,506.906,510.677,512.342,515.402" svgx:width="0.75,0.35,0.23,0.23,0.44,0.55,0.53,0.23,0.48,0.48,0.23,0.82,0.82,0.51,0.25,0.23,0.51,0.3,0.23,0.37,0.53,0.42,0.37,0.51,0.37,0.43,0.23,0.35,0.67" style="fill:rgb(0,0,0);font-family:MinionPro-Regular;font-size:9.0px;stroke:none;">O), and 25 mmol of sucrose (C</text>
   <text y="420.3" x="521.356,524.129" svgx:width="0.48,0.48" style="fill:rgb(0,0,0);font-family:MinionPro-Regular;font-size:5.85px;stroke:none;">12</text>
   <text y="418.5" x="526.907" svgx:width="0.77" style="fill:rgb(0,0,0);font-family:MinionPro-Regular;font-size:9.0px;stroke:none;">H</text>
   <text y="420.3" x="533.75,536.523" svgx:width="0.48,0.48" style="fill:rgb(0,0,0);font-family:MinionPro-Regular;font-size:5.85px;stroke:none;">22</text>
   <text y="418.5" x="539.301" svgx:width="0.75" style="fill:rgb(0,0,0);font-family:MinionPro-Regular;font-size:9.0px;stroke:none;">O</text>
   <text y="420.3" x="545.973,548.746" svgx:width="0.48,0.48" style="fill:rgb(0,0,0);font-family:MinionPro-Regular;font-size:5.85px;stroke:none;">11</text>
   <text y="418.5" x="551.524,554.638" svgx:width="0.35,0.23" style="fill:rgb(0,0,0);font-family:MinionPro-Regular;font-size:9.0px;stroke:none;">) </text>
   <text y="428.499" x="155.641,161.79,165.669,168.946,172.825,174.859,179.665,182.107,185.421,188.852,193.434,195.704,199.856,203.782,208.588,210.622,213.088,218.065,220.099,224.473,228.847,230.044,237.516,239.847,241.881,246.418,249.136,251.17" svgx:width="0.69,0.43,0.37,0.43,0.23,0.53,0.27,0.37,0.37,0.51,0.25,0.46,0.43,0.53,0.23,0.27,0.55,0.23,0.48,0.48,0.23,0.82,0.25,0.23,0.51,0.3,0.23,0.77" style="fill:rgb(0,0,0);font-family:MinionPro-Regular;font-size:9.0px;stroke:none;">were dissolved in 50 ml of H</text>
   <text y="430.3" x="258.123" svgx:width="0.48" style="fill:rgb(0,0,0);font-family:MinionPro-Regular;font-size:5.85px;stroke:none;">2</text>
   <text y="428.5" x="260.967,267.744,269.778,273.704,278.646,283.452,285.486,289.86,294.234,295.428,302.9,305.231,307.265,311.802,314.52,316.554,320.433,323.288,327.943,332.193,334.524,338.403,343.347,347.226,349.26,353.59,355.86,359.976,363.837,368.42,370.751,372.785,375.953,381.119,387.608,389.714,391.748,397.787" svgx:width="0.75,0.23,0.44,0.55,0.53,0.23,0.48,0.48,0.23,0.82,0.25,0.23,0.51,0.3,0.23,0.43,0.31,0.53,0.46,0.25,0.43,0.55,0.43,0.23,0.47,0.25,0.46,0.42,0.51,0.25,0.23,0.35,0.57,0.71,0.23,0.23,0.67,0.77" style="fill:rgb(0,0,0);font-family:MinionPro-Regular;font-size:9.0px;stroke:none;">O and 50 ml of ethylene glycol (EG: CH</text>
   <text y="430.3" x="404.759" svgx:width="0.48" style="fill:rgb(0,0,0);font-family:MinionPro-Regular;font-size:5.85px;stroke:none;">2</text>
   <text y="428.5" x="407.604,414.3,421.25" svgx:width="0.75,0.77,0.35" style="fill:rgb(0,0,0);font-family:MinionPro-Regular;font-size:9.0px;stroke:none;">OH)</text>
   <text y="430.3" x="424.422" svgx:width="0.48" style="fill:rgb(0,0,0);font-family:MinionPro-Regular;font-size:5.85px;stroke:none;">2</text>
   <text y="428.5" x="427.266,429.372,431.406,436.572,443.061,445.095,448.526,452.405,456.061,460.211,464.09,467.447,469.481,473.461,476.818,478.852,483.658,486.099,489.413,494.266,498.145,501.485,504.842,507.308,512.215,516.481,518.515,521.793,525.728,529.69,533.885,537.764,542.573,545.372,547.406,551.945,554.609" svgx:width="0.23,0.23,0.57,0.71,0.23,0.37,0.43,0.37,0.46,0.43,0.37,0.23,0.44,0.37,0.23,0.53,0.27,0.37,0.52,0.43,0.37,0.37,0.27,0.55,0.47,0.23,0.37,0.43,0.44,0.47,0.43,0.55,0.31,0.23,0.51,0.3,0.23" style="fill:rgb(0,0,0);font-family:MinionPro-Regular;font-size:9.0px;stroke:none;">. EG serves as dispersing reagent of </text>
   <text y="438.499" x="155.637,162.959,166.775,169.561,173.544,175.812,177.536,182.131,185.341,189.198,193.055,197.821,201.093,204.456,208.925,212.197,215.491,217.215,219.618,224.532,226.255,230.197,231.921,236.507,240.554,245.297,248.506,252.985,255.771,260.528,264.344,267.724,275.055,279.039,281.307,283.03,287.626,290.835,295.492,299.29,303.106,306.352,309.646,311.689,313.412,323.003,326.819,328.542,331.752,335.568,338.813,343.624,345.78,348.557,350.96,355.799,360.002,361.725,365.088,369.602,371.759,376.417,379.193,381.596,386.066,390.98,392.703,398.859,402.771,406.065,407.788,410.575,415.332,419.148,424.062,425.786,433.108,437.541,441.624,445.481,450.22,451.948,454.351,459.09,461.768,466.349,468.072,472.383,476.694,481.005,482.004,489.407,491.671,493.399,497.868,500.523,502.247,507.031,511.546,513.746,517.868,520.973,523.651,527.467,530.245,533.575,537.431,542.108,546.878,551.459" svgx:width="0.82,0.43,0.31,0.44,0.25,0.23,0.52,0.37,0.43,0.42,0.53,0.37,0.37,0.51,0.37,0.37,0.23,0.27,0.55,0.23,0.44,0.23,0.53,0.46,0.53,0.37,0.51,0.31,0.53,0.43,0.37,0.82,0.44,0.25,0.23,0.52,0.37,0.51,0.42,0.43,0.37,0.37,0.23,0.23,1.07,0.43,0.23,0.37,0.43,0.37,0.53,0.25,0.31,0.27,0.55,0.47,0.23,0.37,0.51,0.25,0.53,0.31,0.27,0.51,0.55,0.23,0.69,0.44,0.37,0.23,0.31,0.53,0.43,0.55,0.23,0.82,0.51,0.46,0.43,0.53,0.23,0.27,0.55,0.31,0.51,0.23,0.48,0.48,0.48,0.23,0.82,0.25,0.23,0.51,0.3,0.23,0.52,0.51,0.25,0.46,0.35,0.31,0.43,0.31,0.37,0.44,0.53,0.53,0.51,0.36" style="fill:rgb(0,0,0);font-family:MinionPro-Regular;font-size:9.0px;stroke:none;">metal precursors in a hydrothermal process. The resulting solution was then moved into 180 ml of poly(tetrafluo-</text>
   <text y="448.498" x="155.637,158.867,163.546,167.38,170.187,174.794,178.997,181.283,185.117,190.012,193.846,196.969,198.923,202.046,207.122,212.684,217.454,222.575,225.698,228.911,231.197,233.618,238.514,242.391,247.152,249.1,252.366,255.174,259.052,261.473,266.449,268.736,272.57,275.836,279.148,281.101,284.367,287.066,290.944,294.741,297.027,298.98,302.768,307.447,310.146,314.826,318.587,320.899,324.697,328.8,332.579,334.64,336.593,342.793,347.985,351.819,355.167,357.12,359.927,364.714,368.502,371.256,373.317,375.27,378.078,382.856,386.69,388.643,392.026,395.913,399.917,402.203,406.081,410.842,412.795,416.583,421.262,423.961,428.641,432.402,434.714,438.511,442.614,446.448,448.396,454.57,458.503,461.815,463.764,466.994,470.881,474.841,478.719,481.419,485.297,490.058,492.007,495.795,498.549,500.497,504.827,509.156,513.484,514.566,517.662,523.656,525.609,528.2,532.69,536.038,537.991,542.32,546.649,547.767,552.582,554.634" svgx:width="0.37,0.51,0.43,0.31,0.53,0.46,0.25,0.43,0.55,0.43,0.35,0.23,0.35,0.56,0.62,0.53,0.57,0.35,0.36,0.25,0.27,0.55,0.43,0.53,0.23,0.37,0.31,0.44,0.27,0.55,0.25,0.43,0.37,0.37,0.23,0.37,0.31,0.43,0.43,0.25,0.23,0.44,0.53,0.31,0.51,0.42,0.25,0.44,0.46,0.43,0.23,0.23,0.69,0.58,0.43,0.37,0.23,0.31,0.53,0.44,0.31,0.23,0.23,0.31,0.53,0.43,0.23,0.37,0.43,0.44,0.25,0.43,0.53,0.23,0.44,0.53,0.31,0.51,0.42,0.25,0.44,0.46,0.43,0.23,0.69,0.44,0.37,0.23,0.37,0.43,0.44,0.42,0.31,0.43,0.53,0.23,0.44,0.31,0.23,0.48,0.48,0.48,0.23,0.34,0.67,0.23,0.3,0.51,0.37,0.23,0.48,0.48,0.23,0.53,0.23,0.23" style="fill:rgb(0,0,0);font-family:MinionPro-Regular;font-size:9.0px;stroke:none;">roethylene) (PTFE)-lined stainless steel autoclave. After that, the sealed autoclave was reacted at 190 °C for 24 h, </text>
   <text y="458.497" x="155.637,159.507,164.394,169.146,171.063,173.862,178.632,182.457,187.38,189.297,193.104,197.775,202.302,204.579,208.448,213.2,215.117,219.869,224.315,230.507,235.43,237.347,240.038,244.628,246.545,249.767,254.437,258.919,266.29,268.207,270.898,274.723,281.922,286.719,290.544,293.883,297.663,300.318,305.097,308.319,312.144,314.061,316.473,321.396,323.313,326.111,330.882,334.707,336.624,340.404,345.075,347.766,352.437,356.19,358.493,362.282,366.377,370.148,372.2,374.117,383.72,387.545,389.462,394.007,398.48,401.279,405.149,407.561,412.448,416.318,421.07,422.987,427.595,430.817,435.488,440.132,444.911,448.781,451.526,454.829,456.746,462.839,466.664,469.886,473.711,475.628,481.793,485.717,488.984,493.754,497.623,502.375,504.292,509.044,512.347,514.759,519.61,523.822,525.739,530.491,532.876,536.134,538.924,541.381,543.702,545.979,549.849,554.601" svgx:width="0.44,0.55,0.53,0.23,0.31,0.53,0.43,0.55,0.23,0.42,0.51,0.51,0.25,0.43,0.53,0.23,0.53,0.51,0.69,0.55,0.23,0.31,0.51,0.23,0.37,0.51,0.51,0.82,0.23,0.31,0.43,0.82,0.52,0.43,0.37,0.44,0.31,0.53,0.37,0.43,0.23,0.27,0.55,0.23,0.31,0.53,0.43,0.23,0.44,0.53,0.31,0.51,0.42,0.25,0.44,0.46,0.43,0.23,0.23,1.07,0.43,0.23,0.51,0.51,0.31,0.44,0.27,0.55,0.43,0.53,0.23,0.52,0.37,0.51,0.53,0.53,0.42,0.31,0.37,0.23,0.69,0.43,0.37,0.43,0.23,0.69,0.44,0.37,0.53,0.43,0.53,0.23,0.53,0.37,0.27,0.55,0.47,0.23,0.53,0.27,0.37,0.31,0.27,0.25,0.25,0.43,0.53,0.23" style="fill:rgb(0,0,0);font-family:MinionPro-Regular;font-size:9.0px;stroke:none;">and then cooled down to room temperature in the autoclave. The obtained products were washed using distilled </text>
   <text y="468.496" x="155.637,161.834,165.645,168.368,172.224,175.594,177.565,180.971,184.899,189.025,192.882,196.252,200.28,202.588,204.559,207.381,209.824,217.19,221.046,224.381,226.464,228.435,233.228,235.671,240.599,244.626,246.98,249.225,252.731,254.814,256.785,262.244,267.036,273.737,277.071,279.042,285.167,289.023,292.277,296.133,298.104,301.439,305.628,310.412,313.241,318.044,321.899,325.234,327.677,331.489,335.391,340.174,342.145,346.605,350.767,352.738,356.604,360.631,362.94,366.778,369.221,374.175,376.619,381.501,385.745,387.716,391.671,395.006,398.241,402.881,406.134,409.991,414.782,418.685,421.937,425.839,430.622,432.593,437.233,440.486,444.388,448.289,453.1,456.416,459.822,464.335,467.652,470.986,472.957,476.769,479.546,481.517,485.868,490.219,494.57,496.654,498.625,502.975,507.327,511.678,513.762,515.733,519.634,524.553,529.336,531.307,535.659,540.01,544.374,545.535,548.654,554.638" svgx:width="0.69,0.44,0.31,0.43,0.37,0.23,0.37,0.43,0.46,0.43,0.37,0.44,0.25,0.23,0.31,0.27,0.82,0.43,0.37,0.23,0.23,0.53,0.27,0.55,0.44,0.25,0.25,0.46,0.23,0.23,0.6,0.53,0.75,0.37,0.23,0.69,0.43,0.37,0.43,0.23,0.37,0.46,0.55,0.31,0.53,0.43,0.37,0.27,0.42,0.43,0.53,0.23,0.51,0.46,0.23,0.42,0.44,0.25,0.42,0.27,0.55,0.27,0.55,0.47,0.23,0.44,0.37,0.36,0.52,0.37,0.43,0.52,0.44,0.37,0.43,0.53,0.23,0.52,0.37,0.43,0.42,0.53,0.37,0.37,0.51,0.37,0.37,0.23,0.44,0.31,0.23,0.48,0.48,0.48,0.23,0.23,0.48,0.48,0.48,0.23,0.23,0.44,0.55,0.53,0.23,0.48,0.48,0.48,0.23,0.34,0.67,0.23" style="fill:rgb(0,0,0);font-family:MinionPro-Regular;font-size:9.0px;stroke:none;">water several times. Finally, ZFOs were synthesized by calcining as-prepared precursors at 400, 450, and 500 °C </text>
   <text y="478.495" x="155.637,158.271,162.805,166.198,168.214,172.588,173.763,178.623,180.639,184.47,187.269,189.285,193.29,195.306,200.128,204.058,207.888,210.73,213.196,218.098,222.364,224.38,227.773,231.604,234.347,238.226,240.242,244.775,247.493,249.509,253.883,255.042,258.183,264.222,266.238,273.663,276.129" svgx:width="0.3,0.51,0.37,0.23,0.48,0.23,0.53,0.23,0.44,0.31,0.23,0.44,0.23,0.53,0.43,0.44,0.31,0.27,0.55,0.47,0.23,0.37,0.44,0.31,0.43,0.23,0.51,0.3,0.23,0.48,0.23,0.34,0.67,0.23,0.82,0.27,0.55" style="fill:rgb(0,0,0);font-family:MinionPro-Regular;font-size:9.0px;stroke:none;">for 4 h at a heating rate of 2 °C min</text>
   <text y="475.44" x="281.09" svgx:width="0.78" style="fill:rgb(0,0,0);font-family:EuclidSymbol;font-size:5.85px;stroke:none;">−</text>
   <text y="475.44" x="285.676" svgx:width="0.48" style="fill:rgb(0,0,0);font-family:MinionPro-Regular;font-size:5.85px;stroke:none;">1</text>
   <text y="478.5" x="288.519,290.535,293.001,297.978,299.994,303.916,306.382,309.205,311.311,313.327,322.981,326.86,328.876,333.472,337.997,340.847,344.768,347.234,352.172,356.093,360.899,362.915,368.519,373.496,378.137" svgx:width="0.23,0.27,0.55,0.23,0.44,0.27,0.37,0.23,0.23,1.07,0.43,0.23,0.51,0.51,0.31,0.44,0.27,0.55,0.43,0.53,0.23,0.6,0.55,0.53,0.43" style="fill:rgb(0,0,0);font-family:MinionPro-Regular;font-size:9.0px;stroke:none;"> in air. The obtained ZnFe</text>
   <text y="480.3" x="381.998" svgx:width="0.48" style="fill:rgb(0,0,0);font-family:MinionPro-Regular;font-size:5.85px;stroke:none;">2</text>
   <text y="478.5" x="384.839" svgx:width="0.75" style="fill:rgb(0,0,0);font-family:MinionPro-Regular;font-size:9.0px;stroke:none;">O</text>
   <text y="480.3" x="391.613" svgx:width="0.48" style="fill:rgb(0,0,0);font-family:MinionPro-Regular;font-size:5.85px;stroke:none;">4</text>
   <text y="478.5" x="394.454,396.47,401.292,405.87,408.242,410.573,415.071,421.29,423.306,430.731,433.197,437.058,440.331,444.975,448.284,452.988,457.809,461.688,464.961,468.84,472.197,474.213,480.358,484.237,487.51,491.389,493.405,498.211,502.09,507.028,511.57,514.313,518.233,523.039,525.055,529.03,532.387,534.403,539.884,544.699,551.476" svgx:width="0.23,0.53,0.51,0.25,0.25,0.51,0.69,0.23,0.82,0.27,0.42,0.37,0.51,0.37,0.52,0.53,0.43,0.37,0.43,0.37,0.23,0.69,0.43,0.37,0.43,0.23,0.53,0.43,0.55,0.51,0.31,0.43,0.53,0.23,0.44,0.37,0.23,0.6,0.53,0.75,0.36" style="fill:rgb(0,0,0);font-family:MinionPro-Regular;font-size:9.0px;stroke:none;"> hollow microspheres were denoted as ZFO-</text>
   <text y="488.499" x="155.639,159.959,164.279,168.599,170.651,172.487,177.914,182.675,189.398,192.602,196.922,201.242,205.562,207.614,209.45,213.32,218.207,222.959,224.795,230.222,234.983,241.706,244.91,249.23,253.55,257.87,259.706,265.898,268.202,271.001,275.807,277.643,282.395,284.807,289.775,293.6,296.822,300.647,305.399,308.144,309.98,313.814,317.81,320.087,323.894,326.306,331.202,334.982,337.772,340.184,344.666,349.589,351.425,354.116,357.941,365.141,369.938,373.763,377.102,380.881,383.537,388.316,391.537,395.362,398.665" svgx:width="0.48,0.48,0.48,0.23,0.23,0.6,0.53,0.75,0.36,0.48,0.48,0.48,0.23,0.23,0.44,0.55,0.53,0.23,0.6,0.53,0.75,0.36,0.48,0.48,0.48,0.23,0.69,0.27,0.31,0.53,0.23,0.53,0.27,0.56,0.43,0.37,0.43,0.55,0.31,0.23,0.42,0.44,0.25,0.42,0.27,0.55,0.44,0.31,0.27,0.51,0.55,0.23,0.31,0.43,0.82,0.52,0.43,0.37,0.44,0.31,0.53,0.37,0.43,0.37,0.23" style="fill:rgb(0,0,0);font-family:MinionPro-Regular;font-size:9.0px;stroke:none;">400, ZFO-450, and ZFO-500 with different calcination temperatures.</text>
   <text y="510.5" x="155.638,164.058,169.36,173.31,178.593,182.244,184.885,190.187,192.867,197.26,199.66,204.225,209.976,215.278,218.93,224.232,228.797,232.747,238.03,241.682,244.322,249.156,254.458,258.408,261.049,266.742,272.445,276.839,279.919" svgx:width="0.83,0.51,0.38,0.51,0.35,0.25,0.51,0.25,0.42,0.21,0.44,0.56,0.51,0.35,0.51,0.44,0.38,0.51,0.35,0.25,0.47,0.51,0.38,0.25,0.55,0.56,0.42,0.29,0.21" style="fill:rgb(0,0,0);font-family:Corbel-Bold;font-size:10.0px;stroke:none;">Materials characterizations. </text>
   <text y="510.5" x="290.073,299.83,303.808,306.184,309.596,314.528,318.075,320.892,324.996,328.956,332.934,335.31,342.8,347.436,351.02,355.827,360.751,365.432,367.862,372.605,377.016,379.581,383.559,387.015,389.391,394.027,396.844,399.22,404.8,409.714,416.537,419.993,422.369,428.617,432.595,435.971,439.949,442.325,446.35,451.4,455.549,457.918,462.202,466.135,470.159,475.064,477.44,482.023,486.307,488.683,491.637,496.561,500.539,502.915,507.883,511.826,514.256,519.161,521.537,525.515,533.039,535.579,538.992,542.448,545.013,549.65,554.573" svgx:width="1.07,0.43,0.23,0.37,0.53,0.37,0.3,0.44,0.42,0.43,0.23,0.82,0.51,0.37,0.52,0.53,0.51,0.25,0.51,0.47,0.27,0.43,0.37,0.23,0.51,0.3,0.23,0.6,0.53,0.75,0.37,0.23,0.69,0.43,0.37,0.43,0.23,0.44,0.55,0.44,0.25,0.46,0.42,0.43,0.53,0.23,0.51,0.46,0.23,0.31,0.53,0.43,0.23,0.54,0.43,0.25,0.53,0.23,0.43,0.82,0.27,0.37,0.37,0.27,0.51,0.55,0.23" style="fill:rgb(0,0,0);font-family:MinionPro-Regular;font-size:9.0px;stroke:none;">The surface morphologies of ZFOs were analyzed by the field emission </text>
   <text y="520.499" x="155.64,159.05,162.919,166.824,171.783,176.742,179.19,184.077,188.325,190.305,194.129,196.442,200.347,204.252,207.077,210.335,214.852,219.811,221.791,229.198,231.646,235.489,238.746,243.372,246.782,250.625,255.151,259.758,263.925,265.905,269.055,273.852,279.0,282.24,286.433,291.581,299.636,301.724,303.704,308.006,311.246,315.602,319.958,324.314,328.67,330.758,332.738,339.523,341.862,344.696,348.683,352.472,357.314,359.762,361.742,364.486,368.301,373.097,377.002,381.961,385.111,387.199,389.174,398.813,402.674,404.65,409.581,413.487,418.409,423.035,426.328,429.153,432.618,437.433,441.338,444.028,448.843,452.1,456.005,460.793,462.768,470.139,474.656,478.121,482.808,487.614,492.176,494.489,499.115,503.578,507.745,509.721,513.627,518.549,523.337,525.312,529.136,531.449,535.31,542.68,546.541,551.5" svgx:width="0.37,0.42,0.44,0.55,0.55,0.27,0.55,0.47,0.23,0.43,0.25,0.43,0.42,0.31,0.37,0.51,0.55,0.23,0.82,0.27,0.42,0.37,0.51,0.37,0.42,0.51,0.52,0.46,0.23,0.35,0.53,0.57,0.36,0.47,0.57,0.89,0.23,0.23,0.47,0.36,0.48,0.48,0.48,0.48,0.23,0.23,0.77,0.27,0.31,0.44,0.42,0.53,0.27,0.23,0.33,0.44,0.52,0.44,0.55,0.35,0.23,0.23,1.07,0.43,0.23,0.55,0.44,0.55,0.51,0.37,0.31,0.37,0.53,0.42,0.31,0.53,0.37,0.43,0.53,0.23,0.82,0.51,0.37,0.52,0.53,0.51,0.25,0.51,0.47,0.46,0.23,0.44,0.55,0.53,0.23,0.43,0.25,0.43,0.82,0.43,0.55,0.36" style="fill:rgb(0,0,0);font-family:MinionPro-Regular;font-size:9.0px;stroke:none;">scanning electron microscopy (FE-SEM, S-4700, Hitachi Japan). The nanostructured morphology and elemen-</text>
   <text y="530.498" x="155.64,158.503,162.562,164.902,166.963,174.37,178.214,182.894,187.566,190.041,194.956,199.231,202.597,204.658,209.204,211.931,213.992,219.482,224.306,231.039,234.405,236.466,242.623,246.511,249.797,253.685,255.746,259.185,263.055,266.547,271.282,274.136,276.611,281.597,284.072,287.915,291.848,296.663,298.724,303.216,307.41,309.471,312.334,317.168,321.056,323.117,325.971,329.373,333.307,338.222,341.588,349.022,351.471,354.793,358.159,360.634,365.18,370.166,372.227,376.08,378.42,382.353,386.286,389.14,392.426,396.972,401.958,404.019,411.453,413.928,417.798,421.084,425.737,429.175,433.045,437.6,442.236,446.43,448.491,451.668,457.284,462.459,470.541,472.656,474.717,480.333,485.508,491.556,497.965,504.247,507.379,509.44,514.264,518.647,523.03,525.145,527.206,532.292,537.161,539.682,542.022,544.389,549.168,552.534,554.586" svgx:width="0.31,0.44,0.25,0.23,0.82,0.44,0.52,0.52,0.27,0.55,0.47,0.37,0.23,0.51,0.3,0.23,0.6,0.53,0.75,0.37,0.23,0.69,0.43,0.37,0.43,0.23,0.37,0.42,0.37,0.53,0.31,0.27,0.55,0.27,0.42,0.43,0.53,0.23,0.51,0.46,0.23,0.31,0.53,0.43,0.23,0.31,0.37,0.44,0.55,0.37,0.82,0.27,0.37,0.37,0.27,0.51,0.55,0.23,0.43,0.25,0.43,0.42,0.31,0.37,0.51,0.55,0.23,0.82,0.27,0.42,0.37,0.51,0.37,0.42,0.51,0.52,0.46,0.23,0.35,0.62,0.57,0.89,0.23,0.23,0.62,0.57,0.67,0.74,0.69,0.34,0.23,0.53,0.48,0.48,0.23,0.23,0.56,0.53,0.27,0.25,0.27,0.52,0.37,0.23,0.23" style="fill:rgb(0,0,0);font-family:MinionPro-Regular;font-size:9.0px;stroke:none;">tal mappings of ZFOs were scrutinized by the transmission electron microscopy (TEM, TECNAI F20, Philips, </text>
   <text y="540.497" x="155.64,162.148,166.018,168.862,173.678,177.548,180.897,183.247,187.163,192.097,196.868,200.216,203.375,205.373,207.83,212.798,214.796,217.641,222.457,226.327,228.325,234.212,238.74,242.008,245.934,249.85,254.818,256.816,262.235,266.206,269.554,272.011,275.863,277.861,282.299,286.151,288.608,292.478,297.412,301.264,305.134,307.132,310.103,315.0,318.305,321.141,323.491,326.192,330.909,333.646,337.516,339.514,342.673,348.775,354.112,358.316,361.43,363.527,365.525,371.934,378.144,382.061,386.958,391.215,393.474,398.298,400.296,406.462,410.332,415.131,417.868,421.738,425.122,428.281,430.378,432.376,442.025,445.895,447.893,452.69,456.56,459.297,463.167,466.606,474.022,476.479,481.421,485.247,488.083,490.54,495.068,500.036,502.034,506.563,509.272,511.27,515.122,518.768,522.944,526.248,529.093,533.135,535.503,537.825,540.282,545.25,547.601,550.419,554.55" svgx:width="0.74,0.43,0.31,0.53,0.43,0.37,0.25,0.44,0.55,0.53,0.37,0.35,0.23,0.27,0.55,0.23,0.31,0.53,0.43,0.23,0.67,0.51,0.37,0.43,0.44,0.55,0.23,0.59,0.44,0.37,0.27,0.42,0.23,0.47,0.42,0.27,0.43,0.55,0.42,0.43,0.23,0.34,0.55,0.37,0.31,0.27,0.31,0.53,0.31,0.43,0.23,0.35,0.67,0.59,0.47,0.34,0.23,0.23,0.71,0.69,0.44,0.55,0.47,0.26,0.53,0.23,0.67,0.43,0.55,0.31,0.43,0.37,0.35,0.23,0.23,1.07,0.43,0.23,0.53,0.43,0.31,0.43,0.37,0.82,0.27,0.55,0.44,0.31,0.27,0.51,0.55,0.23,0.51,0.3,0.23,0.42,0.37,0.46,0.37,0.31,0.44,0.25,0.25,0.27,0.55,0.27,0.31,0.46,0.23" style="fill:rgb(0,0,0);font-family:MinionPro-Regular;font-size:9.0px;stroke:none;">Netherlands) in the Korean Basic Science Institute (KBSI, Gwangju Center). The determination of crystallinity </text>
   <text y="550.496" x="155.64,161.814,165.747,169.059,171.012,173.433,178.157,182.26,186.094,189.36,192.159,194.58,198.801,202.59,205.289,209.167,213.928,215.881,220.317,224.457,226.41,229.218,233.996,237.83,239.783,245.678,248.891,252.239,256.037,260.177,262.13,266.891,269.312,274.46,277.808,281.768,285.646,288.444,290.865,295.355,300.287,302.24,305.363,311.258,316.856,323.119,325.18,327.133,333.757,336.745,344.773,351.001,356.896,358.849,365.427,367.605,370.403,372.824,380.177,384.137,386.09,389.168,392.246,395.324,397.385,399.338,404.972,407.393,411.614,415.619,419.974,424.707,426.768,428.721,431.375,437.603,441.914,448.142,454.838,457.961,460.022,461.975,471.587,475.421,477.374,480.181,484.96,488.794,492.196,499.549,503.553,505.839,507.787,511.549,516.336,520.215,523.563,527.523,531.401,534.101,537.935,541.337,543.758,547.547,551.507" svgx:width="0.69,0.44,0.37,0.23,0.27,0.55,0.46,0.43,0.37,0.31,0.27,0.47,0.44,0.31,0.43,0.53,0.23,0.51,0.46,0.23,0.31,0.53,0.43,0.23,0.65,0.36,0.37,0.44,0.46,0.23,0.53,0.27,0.56,0.37,0.44,0.42,0.31,0.27,0.51,0.55,0.23,0.35,0.65,0.62,0.74,0.23,0.23,0.74,0.33,0.89,0.69,0.65,0.23,0.74,0.25,0.31,0.27,0.82,0.44,0.23,0.34,0.34,0.34,0.23,0.23,0.62,0.27,0.47,0.44,0.5,0.53,0.23,0.23,0.33,0.69,0.56,0.69,0.74,0.35,0.23,0.23,1.07,0.43,0.23,0.31,0.53,0.43,0.37,0.82,0.44,0.25,0.23,0.42,0.53,0.44,0.37,0.44,0.42,0.31,0.43,0.37,0.27,0.42,0.44,0.36" style="fill:rgb(0,0,0);font-family:MinionPro-Regular;font-size:9.0px;stroke:none;">was investigated by the X-ray diffraction (XRD, D/MAX Ultima III, Rigaku, JAPAN). The thermal characteriza-</text>
   <text y="560.495" x="155.64,158.466,160.914,165.432,170.391,172.371,176.888,179.588,181.568,187.031,191.828,198.533,201.872,203.852,210.053,214.013,217.352,219.332,221.825,224.182,226.387,231.175,234.468,237.294,240.669,244.485,247.211,251.117,255.905,257.885,262.348,266.515,268.495,271.33,276.135,279.996,283.424,290.795,295.421,299.714,303.089,306.913,311.143,313.591,320.962,324.823,327.648,331.076,333.524,337.367,339.347,343.252,348.184,352.216,354.465,358.632,361.971,364.392,367.731,369.711,372.861,378.378,384.849,391.104,393.192,395.172,399.42,404.262,406.71,414.09,418.077,422.865,426.681,431.442,433.53,435.51,440.441,446.3,449.54,453.896,458.252,460.34,462.32,465.001,471.256,475.593,481.848,488.571,491.721,493.701,497.516,500.297,502.277,506.264,508.245,511.62,515.526,522.761,527.405,529.853,534.739,538.987,540.967,544.342,548.158,550.884,554.709" svgx:width="0.31,0.27,0.51,0.55,0.23,0.51,0.3,0.23,0.6,0.53,0.75,0.37,0.23,0.69,0.44,0.37,0.23,0.27,0.25,0.25,0.53,0.37,0.31,0.37,0.44,0.31,0.43,0.53,0.23,0.51,0.46,0.23,0.31,0.53,0.43,0.37,0.82,0.51,0.47,0.37,0.44,0.46,0.27,0.82,0.43,0.31,0.37,0.27,0.42,0.23,0.44,0.55,0.44,0.25,0.46,0.37,0.27,0.37,0.23,0.35,0.62,0.71,0.69,0.23,0.23,0.47,0.53,0.27,0.82,0.44,0.53,0.42,0.53,0.23,0.23,0.62,0.69,0.36,0.48,0.48,0.23,0.23,0.33,0.69,0.56,0.69,0.74,0.35,0.23,0.44,0.31,0.23,0.44,0.23,0.37,0.44,0.82,0.52,0.27,0.55,0.47,0.23,0.37,0.44,0.31,0.43,0.23" style="fill:rgb(0,0,0);font-family:MinionPro-Regular;font-size:9.0px;stroke:none;">tion of ZFOs was illustrated by thermogravimetric analysis (TGA, Shimadzu, TA-50, JAPAN) at a ramping rate </text>
   <text y="570.494" x="155.64,160.17,162.879,164.886,169.251,170.436,173.568,179.598,181.605,189.021,191.478" svgx:width="0.51,0.3,0.23,0.48,0.23,0.34,0.67,0.23,0.82,0.27,0.55" style="fill:rgb(0,0,0);font-family:MinionPro-Regular;font-size:9.0px;stroke:none;">of 5 °C min</text>
   <text y="567.44" x="196.465" svgx:width="0.78" style="fill:rgb(0,0,0);font-family:EuclidSymbol;font-size:5.85px;stroke:none;">−</text>
   <text y="567.44" x="201.052" svgx:width="0.48" style="fill:rgb(0,0,0);font-family:MinionPro-Regular;font-size:5.85px;stroke:none;">1</text>
   <text y="570.5" x="203.891,205.898,210.722,215.658,220.455,224.325,227.709,229.716,233.635,236.092,239.476,241.483,245.312,248.151,255.534,260.169,263.476,268.178,272.997,276.867,280.137,283.957,286.054,288.061,297.713,301.583,303.59,308.435,312.967,316.237,320.777,325.577,328.925,330.932,334.734,339.563,343.481,346.865,350.861,354.78,357.519,361.389,364.831,367.264,370.571,373.41,375.867,379.719,383.067,385.074,389.604,392.313,394.32,397.168,401.987,405.857,407.864,411.271,415.189,422.438,427.14,429.462,433.332,436.68,438.687,444.829,448.699,451.97,455.84,457.847,461.99,465.86,469.302,471.759,476.619,480.537,485.334,487.341,491.17,493.96,495.967,500.332,504.697,506.021,512.123,514.13,516.587,521.555,523.562,528.53,530.883,533.721,536.993,541.628,545.817,549.687,554.61" svgx:width="0.23,0.53,0.55,0.53,0.43,0.37,0.23,0.44,0.27,0.37,0.23,0.44,0.31,0.82,0.51,0.37,0.52,0.53,0.43,0.37,0.43,0.23,0.23,1.07,0.43,0.23,0.52,0.51,0.37,0.51,0.53,0.37,0.23,0.42,0.53,0.44,0.37,0.44,0.42,0.31,0.43,0.37,0.27,0.37,0.31,0.27,0.42,0.37,0.23,0.51,0.3,0.23,0.31,0.53,0.43,0.23,0.37,0.44,0.82,0.52,0.25,0.43,0.37,0.23,0.69,0.43,0.37,0.43,0.23,0.46,0.43,0.37,0.27,0.54,0.43,0.53,0.23,0.44,0.31,0.23,0.48,0.48,0.23,0.67,0.23,0.27,0.55,0.23,0.55,0.27,0.31,0.37,0.51,0.47,0.43,0.55,0.23" style="fill:rgb(0,0,0);font-family:MinionPro-Regular;font-size:9.0px;stroke:none;"> under air atmosphere. The porous characteristics of the samples were verified at 77 K in nitrogen </text>
   <text y="580.499" x="155.633,159.413,162.203,169.538,174.128,177.386,182.039,186.809,190.634,193.855,197.68,199.516,203.944,208.075,209.911,212.71,217.48,221.305,223.141,228.361,231.79,236.569,241.465,245.244,250.023,253.848,256.971,260.175,265.287,272.658,279.993,283.818,286.473,289.218,292.422,297.093,300.882,303.204,305.481,309.306,312.645,314.481,317.595,322.851,327.927,332.588,334.64,336.476,344.432,346.844,350.651,353.873,358.355,365.69,369.515,372.908,375.212,378.001,380.413,384.22,387.523,389.359,395.551,399.817,406.036,411.103,415.423,419.743,424.063,428.383,430.435,432.271,438.895,443.161,449.38,452.494,454.33,461.665,465.49,468.289,473.059,477.73,482.428" svgx:width="0.44,0.31,0.82,0.51,0.37,0.52,0.53,0.43,0.37,0.43,0.23,0.51,0.46,0.23,0.31,0.53,0.43,0.23,0.59,0.37,0.53,0.55,0.44,0.53,0.43,0.37,0.36,0.57,0.82,0.82,0.43,0.31,0.31,0.36,0.62,0.43,0.25,0.25,0.43,0.37,0.23,0.35,0.59,0.57,0.62,0.23,0.23,0.89,0.27,0.42,0.37,0.51,0.82,0.43,0.37,0.27,0.31,0.27,0.42,0.37,0.23,0.69,0.47,0.69,0.56,0.48,0.48,0.48,0.48,0.23,0.23,0.74,0.47,0.69,0.35,0.23,0.82,0.43,0.31,0.53,0.51,0.53,0.23" style="fill:rgb(0,0,0);font-family:MinionPro-Regular;font-size:9.0px;stroke:none;">atmosphere by the Brunauer-Emmett-Teller (BET, Micromeritics ASAP2020, USA) method.</text>
   <text y="602.5" x="155.638,161.323,163.853,168.986,173.401,177.201,180.703,186.246,190.661,196.263,201.396,209.926,212.418,216.833,221.985,224.515,226.478,230.893,236.495,241.648,245.15,250.302,254.717,258.517,263.65,267.152,269.644,274.327,279.48,283.28,285.771,291.314,296.867,301.111,304.041" svgx:width="0.57,0.25,0.51,0.44,0.38,0.35,0.55,0.44,0.56,0.51,0.85,0.25,0.44,0.51,0.25,0.21,0.44,0.56,0.51,0.35,0.51,0.44,0.38,0.51,0.35,0.25,0.47,0.51,0.38,0.25,0.55,0.56,0.42,0.29,0.21" style="fill:rgb(0,0,0);font-family:Corbel-Bold;font-size:10.0px;stroke:none;">Electrochemical characterizations. </text>
   <text y="602.5" x="314.047,323.657,327.491,329.435,333.23,335.516,339.392,343.268,346.063,349.292,353.968,357.727,362.503,366.337,373.717,376.138,379.977,383.979,386.265,388.209,393.011,396.845,400.243,402.833,407.32,410.719,418.069,421.945,426.838,430.654,434.488,437.8,439.744,445.843,449.677,452.904,456.738,458.682,462.522,466.398,469.796,473.196,475.617,479.493,484.254,486.198,490.695,495.372,498.126,500.07,504.828,508.14,510.561,515.418,519.639,521.583,525.399,529.887,532.308,537.24,539.184,543.0,546.796,549.123,551.378,554.682" svgx:width="1.07,0.43,0.23,0.43,0.25,0.43,0.42,0.31,0.37,0.51,0.42,0.53,0.43,0.82,0.27,0.42,0.44,0.25,0.23,0.52,0.43,0.37,0.3,0.51,0.37,0.82,0.44,0.55,0.42,0.43,0.37,0.23,0.69,0.43,0.37,0.43,0.23,0.42,0.44,0.37,0.37,0.27,0.43,0.53,0.23,0.51,0.53,0.31,0.23,0.53,0.37,0.27,0.55,0.47,0.23,0.42,0.51,0.27,0.55,0.23,0.42,0.43,0.25,0.25,0.37,0.23" style="fill:rgb(0,0,0);font-family:MinionPro-Regular;font-size:9.0px;stroke:none;">The electrochemical performances were carried out using coin cells </text>
   <text y="612.499" x="155.638,158.838,161.695,165.911,170.793,174.703,176.836,182.906,188.58,192.985,197.39,201.796,206.2,209.4,211.537,213.67,223.358,227.268,229.401,232.752,235.007,239.87,243.349,247.033,251.25,253.383,259.633,263.642,267.031,269.164,276.592,280.629,285.466,289.376,291.509,296.022,300.239,302.372,306.264,310.832,318.116,322.855,325.217,329.127,331.904,335.777,338.077,342.293,344.426,351.883,354.379,358.713,361.21,366.146,370.443,372.576,376.981,381.412,382.618,388.869,391.699,393.836,400.725,402.858,406.867,410.256,413.544,418.238,421.544,425.455,430.301,434.256,437.564,441.518,446.356,448.489,452.524,456.48,459.354,461.789,465.969,469.879,472.012,479.441,483.307,486.083,489.993,493.471,495.994,500.076,502.411,505.799,507.936,510.069,514.474,518.896,520.102,526.353,529.183,531.32,538.209,540.342,544.26,548.216,551.431" svgx:width="0.35,0.31,0.46,0.52,0.43,0.23,0.67,0.62,0.48,0.48,0.48,0.48,0.35,0.23,0.23,1.07,0.43,0.23,0.37,0.25,0.53,0.37,0.37,0.46,0.23,0.69,0.44,0.37,0.23,0.82,0.44,0.53,0.43,0.23,0.51,0.46,0.23,0.42,0.51,0.82,0.52,0.25,0.43,0.31,0.43,0.25,0.46,0.23,0.82,0.27,0.47,0.27,0.55,0.47,0.23,0.48,0.48,0.23,0.69,0.31,0.23,0.76,0.23,0.44,0.37,0.36,0.52,0.37,0.43,0.52,0.44,0.37,0.43,0.53,0.23,0.44,0.42,0.31,0.27,0.46,0.43,0.23,0.82,0.44,0.31,0.43,0.37,0.27,0.44,0.25,0.37,0.23,0.23,0.48,0.48,0.23,0.69,0.31,0.23,0.76,0.23,0.42,0.44,0.37,0.36" style="fill:rgb(0,0,0);font-family:MinionPro-Regular;font-size:9.0px;stroke:none;">(type CR2032). The slurry was made by completely mixing 70 wt.% as-prepared active materials, 20 wt.% car-</text>
   <text y="622.498" x="155.638,160.386,164.963,169.985,172.154,176.759,179.157,183.207,187.056,191.614,193.783,196.996,201.231,205.997,210.89,214.809,218.247,220.416,225.578,228.791,230.942,233.111,237.075,242.057,246.908,249.077,253.496,257.896,259.12,265.384,268.224,270.375,277.278,279.447,284.338,288.961,291.27,295.496,298.709,302.759,306.66,310.356,314.644,317.02,319.531,323.433,325.602,329.652,333.558,336.064,340.915,344.124,346.293,349.506,353.903,360.217,366.535,368.686,370.855,378.68,385.22,387.371,389.54,393.954,398.373,402.792,404.939,409.358,413.777,418.191,420.342,422.511,428.853,431.224,436.075,439.564,442.07,445.918,450.819,454.032,456.201,458.712,463.729,465.898,472.685,475.988,483.417,487.341,490.235,494.929,499.218,501.59,503.759,508.426,512.68,516.167,519.484,524.107,526.478,528.989,533.84,536.347,541.329,545.907,550.889,554.713" svgx:width="0.51,0.51,0.55,0.23,0.51,0.25,0.44,0.42,0.5,0.23,0.35,0.47,0.53,0.52,0.43,0.37,0.23,0.56,0.35,0.23,0.23,0.44,0.55,0.53,0.23,0.48,0.48,0.23,0.69,0.31,0.23,0.76,0.23,0.52,0.51,0.25,0.46,0.35,0.44,0.42,0.37,0.46,0.25,0.27,0.42,0.23,0.44,0.42,0.27,0.53,0.35,0.23,0.35,0.56,0.69,0.69,0.23,0.23,0.89,0.69,0.23,0.23,0.48,0.48,0.48,0.23,0.48,0.48,0.48,0.23,0.23,0.69,0.25,0.53,0.37,0.27,0.42,0.53,0.35,0.23,0.27,0.55,0.23,0.74,0.36,0.82,0.43,0.31,0.53,0.46,0.25,0.23,0.52,0.46,0.37,0.37,0.51,0.25,0.27,0.53,0.27,0.55,0.51,0.55,0.43,0.23" style="fill:rgb(0,0,0);font-family:MinionPro-Regular;font-size:9.0px;stroke:none;">bon black (Super P), and 10 wt.% poly(acrylic acid) (PAA, Mw: 450,000, Aldrich) in N-methyl pyrrolidinone </text>
   <text y="632.497" x="155.638,158.761,165.457,173.485,178.561,181.684,183.745,185.698,195.315,199.149,201.102,207.208,211.703,215.019,219.532,221.953,226.817,231.038,232.991,236.792,239.078,242.962,246.844,249.647,252.882,257.565,262.326,266.16,269.472,271.425,277.531,281.365,284.6,288.434,290.387,295.008,298.243,302.077,306.851,310.734,313.968,317.851,322.612,324.565,329.006,333.146,335.099,338.946,342.883,346.154,348.957,351.378,356.241,360.462,362.415,365.227,370.011,373.845,375.798,379.077,381.259,386.047,389.452,393.065,397.205,399.158,403.653,408.585,410.538,413.349,418.133,421.967,423.92,427.19,431.978,435.384,438.057,442.017,445.833,449.667,451.62,456.114,458.787,460.74,464.556,469.06,473.69,478.499,482.333,485.681,487.634,490.231,494.725,497.195,499.481,501.434,505.317,510.217,514.978,516.931,519.743,524.526,528.36,533.292,535.245,540.006,543.412,545.833,549.715,554.467" svgx:width="0.35,0.74,0.89,0.56,0.35,0.23,0.23,1.07,0.43,0.23,0.69,0.51,0.37,0.5,0.27,0.55,0.47,0.23,0.43,0.25,0.43,0.42,0.31,0.37,0.51,0.53,0.43,0.37,0.23,0.69,0.43,0.37,0.43,0.23,0.52,0.37,0.43,0.52,0.44,0.37,0.43,0.53,0.23,0.51,0.46,0.23,0.42,0.44,0.37,0.31,0.27,0.55,0.47,0.23,0.31,0.53,0.43,0.23,0.37,0.25,0.53,0.37,0.37,0.46,0.23,0.51,0.55,0.23,0.31,0.53,0.43,0.23,0.37,0.53,0.37,0.3,0.44,0.42,0.43,0.23,0.51,0.3,0.23,0.42,0.51,0.52,0.52,0.43,0.37,0.23,0.3,0.51,0.27,0.25,0.23,0.44,0.55,0.53,0.23,0.31,0.53,0.43,0.55,0.23,0.53,0.37,0.27,0.43,0.53,0.23" style="fill:rgb(0,0,0);font-family:MinionPro-Regular;font-size:9.0px;stroke:none;">(NMP). The working electrodes were prepared by casting the slurry on the surface of copper foil and then dried </text>
   <text y="642.496" x="155.638,159.477,162.28,164.323,168.701,173.079,177.454,178.633,181.779,187.822,189.865,192.506,197.046,200.443,202.486,206.864,211.24,212.419,217.284,219.327,221.797,226.779,228.822,232.831,234.874,239.099,243.109,247.036,251.766,256.603,264.032,266.075,270.579,274.732,278.615,283.597,285.707,287.75,297.412,301.295,303.338,310.741,314.723,318.039,321.401,323.444,325.778,330.472,334.48,339.291,341.761,346.671,350.94,352.983,357.523,360.245,362.288,367.773,372.593,379.374,381.417,385.958,390.939,392.982,396.848,401.397,406.073,410.927,414.811,418.207,420.25,422.892,427.431,429.947,432.282,434.325,440.549,444.531,447.892,449.935,453.945,457.809,461.738,466.574,469.972,473.81,476.559,480.406,482.679,486.868,488.911,492.777,497.317,502.127,504.976,508.255,512.841,515.221,517.557,521.484,526.295,528.338,532.266,535.547,540.096,544.933,549.878,554.63" svgx:width="0.44,0.31,0.23,0.48,0.48,0.48,0.23,0.34,0.67,0.23,0.3,0.51,0.37,0.23,0.48,0.48,0.23,0.53,0.23,0.27,0.55,0.23,0.44,0.23,0.46,0.44,0.42,0.53,0.53,0.82,0.23,0.51,0.46,0.43,0.55,0.23,0.23,1.07,0.43,0.23,0.82,0.44,0.37,0.37,0.23,0.25,0.51,0.44,0.53,0.27,0.55,0.47,0.23,0.51,0.3,0.23,0.6,0.53,0.75,0.23,0.51,0.55,0.23,0.42,0.51,0.52,0.52,0.43,0.37,0.23,0.3,0.51,0.27,0.25,0.23,0.69,0.44,0.37,0.23,0.44,0.42,0.42,0.53,0.37,0.44,0.31,0.43,0.25,0.46,0.23,0.42,0.51,0.55,0.31,0.37,0.51,0.25,0.25,0.43,0.53,0.23,0.44,0.37,0.51,0.53,0.55,0.53,0.23" style="fill:rgb(0,0,0);font-family:MinionPro-Regular;font-size:9.0px;stroke:none;">at 120 °C for 12 h in a vacuum oven. The mass loading of ZFO on copper foil was accurately controlled around </text>
   <text y="652.495" x="155.629,160.044,162.19,166.604,171.019,172.234,179.628,183.934,185.149,189.051" svgx:width="0.48,0.23,0.48,0.48,0.23,0.82,0.47,0.23,0.42,0.82" style="fill:rgb(0,0,0);font-family:MinionPro-Regular;font-size:9.0px;stroke:none;">0.80 mg cm</text>
   <text y="649.44" x="196.533" svgx:width="0.78" style="fill:rgb(0,0,0);font-family:EuclidSymbol;font-size:5.85px;stroke:none;">−</text>
   <text y="649.44" x="201.154" svgx:width="0.48" style="fill:rgb(0,0,0);font-family:MinionPro-Regular;font-size:5.85px;stroke:none;">2</text>
   <text y="652.5" x="204.021,206.167,208.336,218.034,221.953,224.122,228.023,232.6,235.106,240.124,242.293,246.194,250.077,252.493,254.865,257.034,263.293,267.312,270.708,272.877,276.896,280.248,283.718,287.637,295.012,299.616,301.987,305.951,310.798,312.967,315.473,320.491,322.66,326.624,331.641,333.81,340.097,343.314,346.613,351.567,353.983,356.354,360.319,365.165,367.334,371.703,374.074,378.615,382.804,386.724,388.893,393.639,398.18,402.522,404.669,406.838,411.829,414.226,417.12,422.02,424.419,429.292,436.758,438.927,441.604,446.181,448.732,451.104,453.273,459.532,463.551,466.947,469.116,473.963,477.432,481.397,486.243,488.412,492.431,495.827,497.996,502.042,504.211,508.112,512.698,517.571,522.418,525.203,529.122,532.555,534.724,538.689,543.67,548.517,550.686,554.637" svgx:width="0.23,0.23,1.07,0.43,0.23,0.42,0.51,0.27,0.55,0.23,0.42,0.43,0.25,0.25,0.23,0.69,0.44,0.37,0.23,0.44,0.37,0.37,0.43,0.82,0.51,0.25,0.43,0.53,0.23,0.27,0.55,0.23,0.44,0.55,0.23,0.69,0.37,0.36,0.54,0.25,0.25,0.43,0.53,0.23,0.47,0.25,0.51,0.46,0.43,0.23,0.51,0.51,0.47,0.23,0.23,0.54,0.27,0.31,0.53,0.27,0.53,0.82,0.23,0.3,0.51,0.27,0.25,0.23,0.69,0.44,0.37,0.23,0.53,0.37,0.43,0.53,0.23,0.44,0.37,0.23,0.44,0.23,0.42,0.51,0.53,0.55,0.31,0.43,0.37,0.23,0.44,0.55,0.53,0.23,0.44,0.23" style="fill:rgb(0,0,0);font-family:MinionPro-Regular;font-size:9.0px;stroke:none;">. The coin cell was assembled in an Ar-filled glove box. Lithium foil was used as a counter and a </text>
   <text y="662.499" x="155.637,158.895,162.756,165.375,169.236,172.494,176.355,181.278,185.121,188.982,190.962,194.787,197.1,201.005,204.911,207.737,210.995,215.701,220.489,224.296,226.384,228.364,238.003,241.864,243.844,247.668,249.981,253.887,257.792,260.618,263.876,268.583,273.371,277.232,280.571,282.551,288.68,292.541,295.798,299.659,301.639,305.05,308.911,313.708,317.614,320.989,324.804,327.531,331.437,336.225,338.205,342.669,346.836,348.816,353.649,358.212,360.462,364.629,369.273,372.531,377.058,381.666,385.895,388.208,392.069,396.992,400.853,402.833,407.729,410.042,417.377,420.716,422.696,425.846,432.002,435.827,438.14,442.388,446.294,449.552" svgx:width="0.37,0.43,0.3,0.43,0.37,0.43,0.55,0.42,0.43,0.23,0.43,0.25,0.43,0.42,0.31,0.37,0.51,0.53,0.43,0.23,0.23,1.07,0.43,0.23,0.43,0.25,0.43,0.42,0.31,0.37,0.51,0.53,0.43,0.37,0.23,0.69,0.43,0.37,0.43,0.23,0.37,0.43,0.52,0.44,0.37,0.44,0.31,0.43,0.53,0.23,0.51,0.46,0.23,0.52,0.51,0.25,0.46,0.52,0.37,0.51,0.52,0.46,0.25,0.43,0.55,0.43,0.23,0.54,0.25,0.82,0.37,0.23,0.35,0.67,0.43,0.25,0.47,0.44,0.37,0.53" style="fill:rgb(0,0,0);font-family:MinionPro-Regular;font-size:9.0px;stroke:none;">reference electrode. The electrodes were separated by polypropylene films (Celgard</text>
   <text y="665.5" x="454.306" svgx:width="0.32" style="fill:rgb(0,0,0);font-family:MinionPro-Regular;font-size:16.0px;stroke:none;">®</text>
   <text y="662.5" x="459.506,461.486,465.842,470.198,474.554,478.91,482.06,484.148,486.128,495.767,499.628,501.608,505.433,507.746,511.651,515.557,518.383,521.641,526.204,528.454,532.621,535.347,539.208,541.188,547.389,551.349,554.652" svgx:width="0.23,0.48,0.48,0.48,0.48,0.35,0.23,0.23,1.07,0.43,0.23,0.43,0.25,0.43,0.42,0.31,0.37,0.51,0.25,0.46,0.31,0.43,0.23,0.69,0.44,0.37,0.23" style="fill:rgb(0,0,0);font-family:MinionPro-Regular;font-size:9.0px;stroke:none;"> 2400). The electrolyte was </text>
   <text y="672.499" x="155.639,159.532,164.098,171.384,176.265,180.94,184.401,188.355,193.193,195.326,199.892,202.641,204.774,208.81,210.943,214.403,219.015,221.269,226.026,228.9,231.398,235.964,240.973,243.106,247.672,250.422,252.555,256.979,258.185,266.29,268.423,273.404,275.901,281.008" svgx:width="0.42,0.51,0.82,0.52,0.51,0.37,0.43,0.53,0.23,0.51,0.3,0.23,0.44,0.23,0.37,0.51,0.25,0.53,0.31,0.27,0.51,0.55,0.23,0.51,0.3,0.23,0.48,0.23,0.89,0.23,0.54,0.27,0.56,0.53" style="fill:rgb(0,0,0);font-family:MinionPro-Regular;font-size:9.0px;stroke:none;">composed of a solution of 1 M LiPF</text>
   <text y="674.3" x="285.856" svgx:width="0.48" style="fill:rgb(0,0,0);font-family:MinionPro-Regular;font-size:5.85px;stroke:none;">6</text>
   <text y="672.5" x="288.72,290.853,293.349,298.358,300.491,304.527,306.66,314.116,316.613,320.946,323.686,328.55,331.857,335.767,337.9,342.468,345.216,347.349,351.259,354.143,358.827,363.106,365.468,369.378,374.35,378.261,380.394,384.313,388.269,391.692,396.43,400.997,405.979,409.843,412.62,416.529,418.662,421.861,427.059,433.128,436.328,438.461,442.415,447.388,452.225,454.358,459.196,461.692,469.113,473.022,475.907,480.591,484.87,487.232,489.365,493.283,497.239,500.662,505.401,509.967,514.949,518.814,521.59,525.501,527.634,530.833,537.398,545.421,551.491,554.605" svgx:width="0.23,0.27,0.55,0.23,0.44,0.23,0.82,0.27,0.47,0.31,0.53,0.37,0.43,0.23,0.51,0.3,0.23,0.43,0.31,0.53,0.46,0.25,0.43,0.55,0.43,0.23,0.42,0.44,0.37,0.51,0.51,0.55,0.44,0.31,0.43,0.23,0.35,0.57,0.67,0.35,0.23,0.44,0.55,0.53,0.23,0.53,0.27,0.82,0.43,0.31,0.53,0.46,0.25,0.23,0.42,0.44,0.37,0.51,0.51,0.55,0.44,0.31,0.43,0.23,0.35,0.74,0.89,0.67,0.35,0.23" style="fill:rgb(0,0,0);font-family:MinionPro-Regular;font-size:9.0px;stroke:none;"> in a mixture of ethylene carbonate (EC) and dimethyl carbonate (DMC) </text>
   <text y="682.499" x="155.637,158.772,163.115,165.188,169.531,171.604,173.566,177.755,180.756,184.945,188.082,190.155,192.117,201.742,205.589,207.551,210.832,215.65,219.542,223.371,225.805,230.642,234.471,236.433,240.208,245.009,248.901,252.19,256.352,260.199,262.161,266.053,270.962,275.735,277.697,282.472,284.878,288.276,292.05,296.851,300.743,304.033,308.195,312.041,314.003,318.822,322.668,326.084,328.689,333.193,336.608,343.973,347.866,352.775,356.604,360.45,362.412,366.917,369.603,371.565,374.385,379.177,383.024,384.986,390.435,395.217,401.909,405.234,407.196,413.311,417.158,420.401,424.249,426.211,430.066,433.958,437.373,440.788,443.222,447.114,451.888,453.85,458.362,463.056,465.822,467.784,472.234,476.388,478.35,483.123,486.449,488.882,493.756,497.989,499.951,503.924,505.886,510.525,514.327,517.004,519.717,523.564,527.185,531.339,533.301,537.274,541.355,545.13,547.429,551.276,554.615" svgx:width="0.35,0.48,0.23,0.48,0.23,0.23,0.46,0.33,0.46,0.35,0.23,0.23,1.07,0.43,0.23,0.37,0.52,0.43,0.42,0.27,0.54,0.42,0.23,0.42,0.53,0.44,0.37,0.47,0.43,0.23,0.44,0.55,0.53,0.23,0.53,0.27,0.37,0.42,0.53,0.44,0.37,0.47,0.43,0.23,0.52,0.43,0.37,0.3,0.51,0.37,0.82,0.44,0.55,0.42,0.43,0.23,0.51,0.3,0.23,0.31,0.53,0.43,0.23,0.6,0.53,0.75,0.37,0.23,0.69,0.43,0.37,0.43,0.23,0.42,0.44,0.37,0.37,0.27,0.43,0.53,0.23,0.51,0.53,0.31,0.23,0.51,0.46,0.23,0.53,0.37,0.27,0.55,0.47,0.23,0.44,0.23,0.51,0.44,0.31,0.31,0.43,0.37,0.46,0.23,0.42,0.46,0.42,0.25,0.43,0.37,0.23" style="fill:rgb(0,0,0);font-family:MinionPro-Regular;font-size:9.0px;stroke:none;">(1:1, v/v). The specific charge and discharge performance of the ZFOs were carried out by using a battery cycler </text>
   <text y="692.498" x="155.637,158.859,167.706,173.286,179.379,183.753,185.967,190.395,194.822,199.25,203.678,205.838,208.052,216.026,220.616,225.647,228.959,235.286,237.5,242.279,246.256,250.117,255.031,257.191,259.351,261.565,267.514,272.103,275.433,279.42,283.479,286.701,288.915,295.215,297.626,300.533,305.447,307.661,312.521,315.041,320.117,324.05,327.38,331.313,336.173,339.026,341.24,345.217,350.104,353.605,356.934,360.867,365.726,368.579,370.793,375.653,379.586,384.545,387.956,390.367,393.265,395.785,399.718,403.129,405.343,408.565,412.993,415.153,419.581,421.741,423.955,428.383,430.543,432.757,437.185,439.345,441.559,445.987,448.147,450.361,454.789,459.217,461.377,463.591,467.569,472.564,477.424,479.638,484.066,488.494,489.726,496.053,497.286" svgx:width="0.35,0.97,0.59,0.67,0.47,0.23,0.48,0.48,0.48,0.48,0.23,0.23,0.97,0.51,0.55,0.36,0.69,0.23,0.62,0.43,0.42,0.53,0.23,0.23,0.23,0.67,0.51,0.37,0.43,0.44,0.35,0.23,0.69,0.27,0.31,0.53,0.23,0.53,0.27,0.56,0.43,0.37,0.43,0.55,0.31,0.23,0.42,0.53,0.37,0.37,0.43,0.55,0.31,0.23,0.53,0.43,0.55,0.37,0.27,0.31,0.27,0.43,0.37,0.23,0.35,0.48,0.23,0.48,0.23,0.23,0.48,0.23,0.23,0.48,0.23,0.23,0.48,0.23,0.23,0.48,0.48,0.23,0.23,0.44,0.55,0.53,0.23,0.48,0.48,0.23,0.69,0.23,0.47" style="fill:rgb(0,0,0);font-family:MinionPro-Regular;font-size:9.0px;stroke:none;">(WBCS 3000, Won-A Tech., Korea) with different current densities (0.5, 1, 2, 5, 10, and 20 A g</text>
   <text y="689.44" x="501.602" svgx:width="0.78" style="fill:rgb(0,0,0);font-family:EuclidSymbol;font-size:5.85px;stroke:none;">−</text>
   <text y="689.44" x="506.229" svgx:width="0.48" style="fill:rgb(0,0,0);font-family:MinionPro-Regular;font-size:5.85px;stroke:none;">1</text>
   <text y="692.5" x="509.108,512.33,514.49,516.704,526.414,530.347,532.561,540.004,543.99,548.022,551.433" svgx:width="0.35,0.23,0.23,1.07,0.43,0.23,0.82,0.43,0.44,0.37,0.36" style="fill:rgb(0,0,0);font-family:MinionPro-Regular;font-size:9.0px;stroke:none;">). The meas-</text>
   <text y="702.499" x="155.642,160.457,163.719,167.58,174.956,178.817,183.609,186.39,189.729,191.709,196.177,200.344,202.324,206.316,210.414,214.208,216.521,218.969,223.86,228.108,230.088,234.224,238.79,241.0,243.838,247.749,255.156,262.531,266.392,269.222,272.862,277.029,279.009,282.159,288.18,294.574,297.724,299.704,305.838,309.699,312.961,316.822,318.802,322.676,326.586,330.019,333.452,335.9,339.81,344.598,346.578,351.108,355.82,358.601,360.581,365.374,368.712,371.16,376.051,380.299,382.279,386.189,391.148,393.128,396.957,399.27,403.181,407.09,409.92,413.182,417.893,421.687,426.496,430.357,437.764,440.189,443.487,446.317,449.956,454.123,456.103,462.236,466.759,470.101,474.601,477.899,480.738,484.558,487.387,489.835,494.357,499.316,501.296,504.446,507.551,515.606,519.962,523.773,525.861,527.841,533.479,537.515,542.357,547.283,551.144,554.483" svgx:width="0.53,0.37,0.43,0.82,0.43,0.55,0.31,0.37,0.23,0.51,0.46,0.23,0.42,0.46,0.42,0.25,0.27,0.55,0.47,0.23,0.46,0.51,0.25,0.31,0.44,0.82,0.82,0.43,0.31,0.37,0.46,0.23,0.35,0.67,0.7,0.35,0.23,0.69,0.43,0.37,0.43,0.23,0.42,0.44,0.37,0.37,0.27,0.43,0.53,0.23,0.51,0.53,0.31,0.23,0.53,0.37,0.27,0.55,0.47,0.23,0.44,0.55,0.23,0.43,0.25,0.43,0.42,0.31,0.37,0.51,0.42,0.53,0.43,0.82,0.27,0.37,0.31,0.37,0.46,0.23,0.69,0.51,0.37,0.5,0.37,0.31,0.44,0.31,0.27,0.51,0.55,0.23,0.35,0.34,0.89,0.48,0.43,0.23,0.23,0.6,0.44,0.53,0.55,0.43,0.37,0.23" style="fill:rgb(0,0,0);font-family:MinionPro-Regular;font-size:9.0px;stroke:none;">urements by cycling voltammetry (CV) were carried out using an electrochemistry workstation (IM6e, Zahner </text>
   <text y="712.498" x="155.642,160.802,163.07,166.933,170.797,173.58,176.967,179.417,183.872,185.915,187.643,194.144,197.96,201.347,208.684,212.547,217.257,221.379,224.484,226.212,229.542,233.406,238.25,242.5,244.903,249.748,253.951,255.679,258.426,261.641,266.117,273.479,275.207,279.518,281.561,285.872,290.183,291.911,294.595,299.176,300.904,305.215,307.258,311.569,312.746,319.064,320.792,324.566,327.302,329.03,332.972,334.7,338.068,341.895,345.759,350.673,352.401,355.731,359.504,362.189,366.005,367.733,372.209,374.864,376.592,380.903,382.946,387.257,388.409,395.771,402.089,403.214" svgx:width="0.57,0.25,0.43,0.42,0.31,0.37,0.27,0.5,0.23,0.23,0.71,0.43,0.37,0.82,0.44,0.55,0.46,0.35,0.23,0.37,0.44,0.55,0.47,0.27,0.55,0.47,0.23,0.3,0.37,0.51,0.82,0.23,0.48,0.23,0.48,0.48,0.23,0.31,0.51,0.23,0.48,0.23,0.48,0.23,0.7,0.23,0.44,0.31,0.23,0.44,0.23,0.37,0.42,0.44,0.55,0.23,0.37,0.44,0.31,0.43,0.23,0.51,0.3,0.23,0.48,0.23,0.48,0.23,0.82,0.7,0.23,0.37" style="fill:rgb(0,0,0);font-family:MinionPro-Regular;font-size:9.0px;stroke:none;">Electrik, Germany) ranging from 0.01 to 3.0 V at a scan rate of 0.5 mV s</text>
   <text y="709.44" x="406.503" svgx:width="0.78" style="fill:rgb(0,0,0);font-family:EuclidSymbol;font-size:5.85px;stroke:none;">−</text>
   <text y="709.44" x="411.048" svgx:width="0.48" style="fill:rgb(0,0,0);font-family:MinionPro-Regular;font-size:5.85px;stroke:none;">1</text>
   <text y="712.5" x="413.853,415.896,417.624,427.221,431.037,432.765,439.176,443.229,447.73,452.5,454.879,458.131,460.867,462.595,467.241,469.509,473.994,476.73,480.024,481.752,485.67,488.964,490.692,493.484,498.247,502.063,503.791,507.007,510.823,514.075,518.892,521.054,523.79,527.084,528.812,533.288,535.943,537.671,541.454,543.722,547.585,551.383" svgx:width="0.23,0.23,1.07,0.43,0.23,0.74,0.46,0.51,0.53,0.27,0.37,0.31,0.23,0.52,0.25,0.51,0.31,0.37,0.23,0.44,0.37,0.23,0.31,0.53,0.43,0.23,0.37,0.43,0.37,0.53,0.25,0.31,0.37,0.23,0.51,0.3,0.23,0.43,0.25,0.43,0.42,0.36" style="fill:rgb(0,0,0);font-family:MinionPro-Regular;font-size:9.0px;stroke:none;">. The Nyquist plots as the results of elec-</text>
   <text y="722.499" x="155.634,158.424,161.646,166.317,170.07,174.84,178.665,186.036,188.448,192.281,196.277,198.554,200.323,202.735,209.935,214.732,218.602,223.381,227.251,232.138,235.945,239.77,241.538,244.796,249.593,253.463,257.333,260.123,263.345,267.935,271.31,275.117,279.608,284.18,288.311,290.079,293.193,298.305,301.374,305.64,308.754,310.523,316.617,320.442,323.664,327.489,329.257,333.082,337.33,341.938,345.16,348.985,352.242,355.617,359.487,364.239,366.012,370.268,373.607,377.387,382.04,386.846,389.258,393.092,397.088,399.41,401.624,405.755,407.524,411.952,416.083,417.856,422.608,425.911,428.323,433.174,437.386,439.154,443.024,447.947,449.72,453.509,455.786,459.656,463.526,466.316,469.538,474.208,477.962,482.732,486.557,493.928,496.313,499.571,502.361,505.961,510.092,511.86,517.953,522.435,525.738,530.202,533.46,536.259,540.039,542.829,545.241,549.723,554.646" svgx:width="0.31,0.37,0.51,0.42,0.53,0.43,0.82,0.27,0.42,0.44,0.25,0.23,0.27,0.82,0.52,0.43,0.53,0.44,0.55,0.42,0.43,0.23,0.37,0.52,0.43,0.42,0.31,0.37,0.51,0.37,0.42,0.51,0.52,0.46,0.23,0.35,0.57,0.34,0.47,0.35,0.23,0.69,0.43,0.37,0.43,0.23,0.43,0.47,0.52,0.37,0.43,0.37,0.37,0.43,0.53,0.23,0.47,0.37,0.44,0.52,0.53,0.27,0.42,0.44,0.25,0.25,0.46,0.23,0.51,0.46,0.23,0.53,0.37,0.27,0.55,0.47,0.23,0.44,0.55,0.23,0.43,0.25,0.43,0.42,0.31,0.37,0.51,0.42,0.53,0.43,0.82,0.27,0.37,0.31,0.37,0.46,0.23,0.69,0.51,0.37,0.5,0.37,0.31,0.44,0.31,0.27,0.51,0.55,0.23" style="fill:rgb(0,0,0);font-family:MinionPro-Regular;font-size:9.0px;stroke:none;">trochemical impedance spectroscopy (EIS) were expressed graphically by using an electrochemistry workstation </text>
   <text y="732.498" x="155.634,158.748,161.817,169.836,174.156,177.927,179.979,181.815,187.413,191.409,196.215,201.102,204.927,208.266,210.102,215.268,217.545,221.415,225.285,228.075,231.468,233.925,238.389,240.441,242.277,248.784,252.609,256.002,263.346,267.216,271.932,276.063,279.177,281.013,283.425,288.348,290.184,292.983,297.753,301.578,303.414,306.753,310.622,315.474,319.614,323.439,325.275,329.757,332.421,334.257,338.577,342.897,344.04,351.411,358.215,361.995,363.831,366.522,371.112,372.948,377.268,381.588,385.908,387.042,391.506,398.31,402.09" svgx:width="0.35,0.34,0.89,0.48,0.43,0.23,0.23,0.6,0.44,0.53,0.55,0.43,0.37,0.23,0.57,0.25,0.43,0.42,0.31,0.37,0.27,0.5,0.23,0.23,0.71,0.43,0.37,0.82,0.44,0.55,0.46,0.35,0.23,0.27,0.55,0.23,0.31,0.53,0.43,0.23,0.37,0.44,0.55,0.47,0.43,0.23,0.51,0.3,0.23,0.48,0.48,0.23,0.82,0.77,0.42,0.23,0.31,0.51,0.23,0.48,0.48,0.48,0.23,0.5,0.77,0.42,0.23" style="fill:rgb(0,0,0);font-family:MinionPro-Regular;font-size:9.0px;stroke:none;">(IM6e, Zahner Electrik, Germany) in the range of 10 mHz to 100 kHz.</text>
  </g>
  <rect style="stroke:blue;stroke-width:0.3;" x="155.638" y="64.138" height="149.16" width="204.0" title="8"/>
  <text y="64.138" class="image" id="image.8.1" width="204" height="149" x="155.638">image.8.1.156_360.64_213</text>
  <path style="fill:none;stroke:rgb(131,144,151);stroke-width:0.3;" d="M159.130 234.470 L552.640 234.470 "/>
  <path style="fill:none;stroke:rgb(131,144,151);stroke-width:1.0;" d="M156.140 234.470 L156.140 234.470 M554.140 234.470 L554.140 234.470 "/>
  <g begin="text">
   <text y="214.474" x="155.638,160.552,163.207,167.662,172.657,176.221,180.154,181.909,186.409" svgx:width="0.55,0.29,0.49,0.56,0.4,0.44,0.22,0.5,0.25" style="fill:rgb(0,0,0);font-family:MinionPro-Bold;font-size:9.0px;stroke:none;">Figure 8.</text>
   <text y="214.474" x="188.695" svgx:width="0.23" style="fill:rgb(0,0,0);font-family:MinionPro-Regular;font-size:9.0px;stroke:none;"> </text>
   <text y="214.474" x="193.195,199.27,203.329,206.272,210.205,211.96,216.981,220.869,224.505,227.358,231.993,235.629,243.216,247.365,252.459,256.284,260.217,263.664,265.419,270.054,273.033,274.788,280.413,285.507,290.339" svgx:width="0.66,0.47,0.34,0.44,0.22,0.55,0.44,0.4,0.33,0.52,0.4,0.84,0.47,0.57,0.42,0.44,0.38,0.22,0.52,0.33,0.22,0.62,0.57,0.55,0.44" style="fill:rgb(0,0,0);font-family:MinionPro-Bold;font-size:9.0px;stroke:none;">Rate performances of ZnFe</text>
   <text y="216.274" x="294.283" svgx:width="0.5" style="fill:rgb(0,0,0);font-family:MinionPro-Bold;font-size:5.85px;stroke:none;">2</text>
   <text y="214.474" x="297.208" svgx:width="0.77" style="fill:rgb(0,0,0);font-family:MinionPro-Bold;font-size:9.0px;stroke:none;">O</text>
   <text y="216.274" x="304.102" svgx:width="0.5" style="fill:rgb(0,0,0);font-family:MinionPro-Bold;font-size:5.85px;stroke:none;">4</text>
   <text y="214.474" x="307.027,310.105,314.605,319.105,323.605,325.36,329.419,332.47,334.225,338.41,342.559,346.195,348.904,353.557,358.552,361.999,363.754,367.606,372.601,376.237,379.801,383.689,388.711,391.762,393.517,398.494,402.382,407.476,410.887,413.497,416.503,419.212,423.145,426.592,428.347,431.371,434.935,439.57,447.157,448.912,453.412,455.698,460.198,461.953,464.895,469.62,471.375,475.875,480.375,481.519,487.873,489.628" svgx:width="0.34,0.5,0.5,0.5,0.22,0.47,0.34,0.22,0.47,0.47,0.4,0.29,0.52,0.56,0.38,0.22,0.42,0.56,0.4,0.4,0.44,0.57,0.34,0.22,0.55,0.44,0.57,0.38,0.29,0.34,0.29,0.44,0.38,0.22,0.33,0.4,0.52,0.84,0.22,0.5,0.25,0.5,0.22,0.34,0.52,0.22,0.5,0.5,0.22,0.71,0.22,0.49" style="fill:rgb(0,0,0);font-family:MinionPro-Bold;font-size:9.0px;stroke:none;">-450 at various current densities from 0.5 to 20 A g</text>
   <text y="211.414" x="494.06" svgx:width="0.89" style="fill:rgb(0,0,0);font-family:EuclidSymbol-Bold;font-size:5.85px;stroke:none;">−</text>
   <text y="211.414" x="499.29" svgx:width="0.5" style="fill:rgb(0,0,0);font-family:MinionPro-Bold;font-size:5.85px;stroke:none;">1</text>
   <text y="214.474" x="502.215,503.97,506.625,511.719,513.474,517.974,519.108,527.1,528.855,533.967,536.622,541.968" svgx:width="0.22,0.29,0.57,0.22,0.5,0.22,0.89,0.22,0.55,0.29,0.6,0.55" style="fill:rgb(0,0,0);font-family:MinionPro-Bold;font-size:9.0px;stroke:none;"> in 1 M LiPF</text>
   <text y="216.274" x="546.953" svgx:width="0.5" style="fill:rgb(0,0,0);font-family:MinionPro-Bold;font-size:5.85px;stroke:none;">6</text>
   <text y="214.474" x="549.878" svgx:width="0.33" style="fill:rgb(0,0,0);font-family:MinionPro-Bold;font-size:9.0px;stroke:none;">/</text>
   <text y="224.473" x="155.642,160.871,166.955,169.898,176.594,184.541,190.625,192.911" svgx:width="0.58,0.68,0.33,0.76,0.89,0.68,0.25,0.22" style="fill:rgb(0,0,0);font-family:MinionPro-Bold;font-size:9.0px;stroke:none;">EC/DMC. </text>
  </g>
 </g>
</svg>
