<?xml version="1.0" encoding="UTF-8"?>
<svg height="774.23" width="4165.638" xmlns="http://www.w3.org/2000/svg">
 <g id="page" xmlns:svgx="http://www.xml-cml.org/schema/svgx">
  <g begin="text">
   <text y="22.46" x="40.638,48.208,55.778,63.055,66.145,71.865,77.215,81.135,86.765,90.565,95.995,99.085,103.915,109.695,118.435,121.635,126.125,130.955,133.725,139.15,144.87,148.79,151.56,155.19,157.96,162.79,166.59,172.02,177.78,183.56,187.36,191.28,195.77" svgx:width="0.71,0.71,0.71,0.26,0.53,0.49,0.35,0.52,0.34,0.5,0.26,0.44,0.53,0.83,0.28,0.4,0.44,0.23,0.5,0.53,0.35,0.23,0.32,0.23,0.44,0.34,0.5,0.53,0.53,0.34,0.35,0.4,0.28" style="fill:rgb(255,255,255);font-family:Corbel;font-size:10.0px;stroke:none;">www.nature.com/scientificreports/</text>
  </g>
  <g begin="text">
   <text y="764.23" x="549.472" svgx:width="0.52" style="fill:rgb(131,144,151);font-family:Corbel;font-size:10.0px;stroke:none;">4</text>
  </g>
  <g begin="text">
   <text y="764.193" x="40.794,45.642,50.786,53.186,58.026,64.026,68.898,71.298,75.762,78.162" svgx:width="0.55,0.59,0.25,0.55,0.7,0.56,0.25,0.5,0.25,0.59" style="fill:rgb(131,144,151);font-family:Corbel;font-size:8.0px;stroke:none;">Scientific</text>
   <text y="764.193" x="83.162" svgx:width="0.2" style="fill:rgb(0,0,0);font-family:Corbel;font-size:8.0px;stroke:none;"> </text>
   <text y="764.193" x="84.762,90.218,95.194,100.434,106.738,112.194,117.186" svgx:width="0.63,0.57,0.6,0.73,0.63,0.57,0.58" style="fill:rgb(131,144,151);font-family:Corbel-Bold;font-size:8.0px;stroke:none;">RepoRts</text>
   <text y="764.193" x="122.082,123.524,125.34,126.781,130.885,132.997,137.101,141.205,145.309,149.413,153.517,154.945,156.761,158.203,163.571,169.411,171.379,173.491,174.93,179.034,183.138,185.25,189.354,193.458,197.562,201.666,203.866,207.098,209.778,213.762,218.01,222.114,226.218,230.322,234.426" svgx:width="0.2,0.23,0.2,0.51,0.26,0.51,0.51,0.51,0.51,0.51,0.2,0.23,0.2,0.67,0.73,0.25,0.26,0.2,0.51,0.51,0.26,0.51,0.51,0.51,0.51,0.28,0.4,0.34,0.5,0.53,0.51,0.51,0.51,0.51,0.51" style="fill:rgb(0,0,0);font-family:Corbel;font-size:8.0px;stroke:none;"> | 7:46378 | DOI: 10.1038/srep46378</text>
  </g>
  <path style="fill:none;stroke:rgb(0,0,0);stroke-width:1.0;" d="M40.640 752.550 L554.640 752.550 "/>
  <g begin="text">
   <text y="518.51" x="167.638,177.334,181.249,183.409,190.393,195.687,198.981,204.624,209.826,217.935,220.095,222.597,230.034,234.033,238.266,242.18,245.574,247.734,252.308,255.062,257.222,262.739,267.59,274.352,277.745,279.905,283.868,287.183,291.098,293.258,296.618,301.482,306.02,312.305,317.318,319.478,321.98,326.993,329.153,334.004,336.506,340.838,342.98,345.143,349.553,354.395,359.165,361.878,364.02,366.18,375.876,379.791,381.951,386.793,389.27,392.621,395.514,399.476,404.456,408.353,412.268,415.661,417.821,422.567,426.482,429.346,435.532,439.495,443.41,448.423,450.583,454.624,459.361,461.785,465.826,469.723,473.638,478.483,481.318,483.478,488.223,490.62,494.583,499.563,503.478,506.871,509.031,511.533,516.546,518.706,524.223,529.074,535.887,539.181,543.591,548.001,552.411,554.463" svgx:width="1.07,0.43,0.23,0.77,0.62,0.36,0.62,0.57,0.89,0.23,0.27,0.82,0.44,0.47,0.43,0.37,0.23,0.51,0.3,0.23,0.6,0.53,0.75,0.37,0.23,0.44,0.37,0.43,0.23,0.37,0.53,0.51,0.69,0.55,0.23,0.27,0.55,0.23,0.53,0.27,0.47,0.23,0.23,0.48,0.53,0.52,0.3,0.23,0.23,1.07,0.43,0.23,0.53,0.27,0.37,0.31,0.44,0.55,0.42,0.43,0.37,0.23,0.51,0.43,0.31,0.69,0.43,0.43,0.55,0.23,0.44,0.53,0.26,0.44,0.42,0.43,0.55,0.31,0.23,0.52,0.25,0.44,0.55,0.43,0.37,0.23,0.27,0.55,0.23,0.6,0.53,0.75,0.36,0.48,0.48,0.48,0.23,0.23" style="fill:rgb(0,0,0);font-family:MinionPro-Regular;font-size:9.0px;stroke:none;">The HR-TEM images of ZFOs are shown in Fig. 3d–f. The distances between adjacent planes in ZFO-400, </text>
   <text y="528.509" x="155.641,161.05,165.793,172.498,175.684,179.986,184.288,188.59,190.624,192.343,196.193,201.061,205.795,207.514,212.923,217.666,224.371,227.557,231.859,236.161,240.463,242.182,245.385,249.192,253.781,256.983,260.79,264.145,267.952,272.685,275.412,277.131,280.892,285.489,290.078,293.281,297.707,301.937,304.331,311.656,315.416,318.087,321.858,324.052,328.165,329.884,334.186,336.22,340.522,344.824,349.126,351.16,352.879,357.181,359.215,363.517,367.819,372.121,374.155,375.874,379.724,384.592,389.326,391.045,395.347,397.381,401.683,405.985,410.287,411.313,416.218,423.571,425.605,427.324,430.527,434.334,437.573,442.35,446.201,450.051,452.821,455.15,459.225,462.996,465.19,468.645,470.679,472.398,476.249,480.738,485.499,487.829,491.978,495.954,498.214,502.021,506.754,509.481,511.2,513.871,518.443,520.162,522.941,527.692,531.499,533.218,535.502,539.262,541.898,544.668,547.062,550.851,554.676" svgx:width="0.6,0.53,0.75,0.36,0.48,0.48,0.48,0.23,0.23,0.44,0.55,0.53,0.23,0.6,0.53,0.75,0.36,0.48,0.48,0.48,0.23,0.37,0.43,0.52,0.37,0.43,0.37,0.43,0.55,0.31,0.23,0.44,0.52,0.52,0.37,0.51,0.47,0.27,0.82,0.44,0.31,0.43,0.25,0.46,0.23,0.48,0.23,0.48,0.48,0.48,0.23,0.23,0.48,0.23,0.48,0.48,0.48,0.23,0.23,0.44,0.55,0.53,0.23,0.48,0.23,0.48,0.48,0.48,0.23,0.55,0.82,0.23,0.23,0.37,0.43,0.37,0.52,0.43,0.42,0.31,0.27,0.46,0.43,0.25,0.46,0.23,0.23,0.43,0.51,0.53,0.27,0.46,0.44,0.25,0.43,0.55,0.31,0.23,0.31,0.51,0.23,0.31,0.53,0.43,0.23,0.25,0.44,0.31,0.31,0.27,0.42,0.43,0.23" style="fill:rgb(0,0,0);font-family:MinionPro-Regular;font-size:9.0px;stroke:none;">ZFO-450, and ZFO-500 represent approximately 0.285, 0.251, and 0.249 nm, respectively, equivalent to the lattice </text>
   <text y="538.508" x="155.641,158.948,163.756,167.752,171.604,174.061,178.96,183.217,185.224,189.754,192.463,194.47,197.316,202.135,206.005,208.012,211.171,215.536,219.901,224.266,227.425,229.522,231.529,234.688,239.053,243.418,247.783,250.942,253.039,255.046,258.965,263.899,268.696,270.703,273.862,278.227,282.592,286.957,290.116,292.123,296.825,299.177,303.095,308.031,311.901,315.249,317.256,319.886,324.417,327.801,329.808,335.41,340.378,345.016" svgx:width="0.37,0.52,0.44,0.42,0.27,0.55,0.47,0.23,0.51,0.3,0.23,0.31,0.53,0.43,0.23,0.35,0.48,0.48,0.48,0.35,0.23,0.23,0.35,0.48,0.48,0.48,0.35,0.23,0.23,0.44,0.55,0.53,0.23,0.35,0.48,0.48,0.48,0.35,0.23,0.52,0.25,0.44,0.55,0.43,0.37,0.23,0.3,0.51,0.37,0.23,0.6,0.55,0.53,0.43" style="fill:rgb(0,0,0);font-family:MinionPro-Regular;font-size:9.0px;stroke:none;">spacing of the (220), (311), and (222) planes for ZnFe</text>
   <text y="540.31" x="348.986" svgx:width="0.48" style="fill:rgb(0,0,0);font-family:MinionPro-Regular;font-size:5.85px;stroke:none;">2</text>
   <text y="538.51" x="351.825" svgx:width="0.75" style="fill:rgb(0,0,0);font-family:MinionPro-Regular;font-size:9.0px;stroke:none;">O</text>
   <text y="540.31" x="358.597" svgx:width="0.48" style="fill:rgb(0,0,0);font-family:MinionPro-Regular;font-size:5.85px;stroke:none;">4</text>
   <text y="538.51" x="361.436,363.533,365.54,368.81,372.68,375.986,380.832,384.749,388.667,391.506,393.902,398.046,401.884,404.146,407.668,409.765,411.772,421.424,425.294,427.301,431.152,434.801,438.977,442.284,445.13,449.175,451.497,453.504,456.852,459.309,463.134,467.004,470.352,472.359,476.889,479.598,481.605,487.077,491.883,498.651,501.9,506.265,510.63,514.995,517.092,519.099,524.571,529.377,536.145,539.394,543.759,548.124,552.489,554.541" svgx:width="0.23,0.23,0.37,0.43,0.37,0.52,0.43,0.42,0.31,0.27,0.46,0.43,0.25,0.46,0.23,0.23,1.07,0.43,0.23,0.42,0.37,0.46,0.37,0.31,0.44,0.25,0.23,0.37,0.27,0.42,0.43,0.37,0.23,0.51,0.3,0.23,0.6,0.53,0.75,0.36,0.48,0.48,0.48,0.23,0.23,0.6,0.53,0.75,0.36,0.48,0.48,0.48,0.23,0.23" style="fill:rgb(0,0,0);font-family:MinionPro-Regular;font-size:9.0px;stroke:none;">, respectively. The crystal sizes of ZFO-400, ZFO-450, </text>
   <text y="548.509" x="155.642,159.65,164.674,169.561,171.883,177.445,182.341,189.199,192.538,196.993,201.448,205.903,208.225,212.233,215.594,219.554,221.876,224.423,229.481,231.803,234.739,239.647,243.607,245.929,250.549,253.908,258.795,262.755,266.229,268.551,273.171,275.97,278.292,282.3,285.66,290.288,295.202,300.227,305.114,307.436,311.891,316.346,318.533,322.988,325.175,327.497,331.952,336.407,338.594,343.049,345.236,347.558,351.566,356.59,361.477,363.799,368.254,372.709,374.896,379.351,380.687,385.745,393.251,395.438,397.76,401.12,405.08,408.475,413.41,417.418,421.425,424.352,426.839,431.072,434.998,437.35,440.962,443.149,445.471,449.532,452.97,455.292,460.179,464.139,467.652,471.594,475.125,477.638,482.428,486.436,491.323,493.645,496.192,501.25,503.572,509.593,515.317,522.067,524.389,529.288,533.205,535.998,538.827,542.787,546.318,551.306,554.609" svgx:width="0.44,0.55,0.53,0.23,0.6,0.53,0.75,0.36,0.48,0.48,0.48,0.23,0.44,0.37,0.43,0.23,0.27,0.55,0.23,0.31,0.53,0.43,0.23,0.51,0.37,0.53,0.43,0.37,0.23,0.51,0.3,0.23,0.44,0.37,0.51,0.53,0.55,0.53,0.23,0.48,0.48,0.23,0.48,0.23,0.23,0.48,0.48,0.23,0.48,0.23,0.23,0.44,0.55,0.53,0.23,0.48,0.48,0.23,0.48,0.23,0.55,0.82,0.23,0.23,0.37,0.43,0.37,0.52,0.43,0.42,0.31,0.27,0.46,0.43,0.25,0.46,0.23,0.23,0.44,0.37,0.23,0.53,0.43,0.37,0.42,0.37,0.27,0.51,0.43,0.53,0.23,0.27,0.55,0.23,0.65,0.62,0.74,0.23,0.52,0.44,0.31,0.31,0.43,0.37,0.55,0.37,0.23" style="fill:rgb(0,0,0);font-family:MinionPro-Regular;font-size:9.0px;stroke:none;">and ZFO-500 are in the order of around 15.6, 15.4, and 17.6 nm, respectively, as described in XRD patterns </text>
   <text y="558.508" x="155.642,158.756,163.517,165.929,170.141,174.92,178.142,181.967,183.885,188.151,192.471,195.585,197.637,199.554,204.144,208.626,211.965,213.882,216.681,221.451,225.276,227.193,232.62,237.381,244.104,247.308,251.628,255.948,260.268,262.185,266.667,269.331,271.248,276.009,278.421,282.66,284.712,286.63,290.95,295.189,297.241,299.158,301.957,306.727,310.552,312.469,316.221,321.001,324.871,328.21,332.161,336.03,338.721,342.546,345.939,348.324,351.582,354.372,356.784,360.591,363.894,365.811,370.293,372.957,374.874,377.673,382.443,386.268,388.185,390.975,394.368,396.672,401.325,403.602,407.427,410.631,413.897,418.667,422.456,424.778,427.055,430.925,435.677,437.594,443.147,448.07,452.66" svgx:width="0.35,0.53,0.27,0.47,0.53,0.37,0.43,0.23,0.47,0.48,0.35,0.23,0.23,0.53,0.51,0.37,0.23,0.31,0.53,0.43,0.23,0.6,0.53,0.75,0.36,0.48,0.48,0.48,0.23,0.51,0.3,0.23,0.53,0.27,0.47,0.23,0.23,0.48,0.47,0.23,0.23,0.31,0.53,0.43,0.23,0.42,0.53,0.44,0.37,0.44,0.42,0.31,0.43,0.37,0.27,0.37,0.31,0.27,0.42,0.37,0.23,0.51,0.3,0.23,0.31,0.53,0.43,0.23,0.31,0.37,0.27,0.52,0.25,0.43,0.36,0.37,0.53,0.43,0.25,0.25,0.43,0.53,0.23,0.6,0.55,0.53,0.43" style="fill:rgb(0,0,0);font-family:MinionPro-Regular;font-size:9.0px;stroke:none;">(Figure S2). For the ZFO-450 of Fig. 3g, the characteristics of the triple-shelled ZnFe</text>
   <text y="560.31" x="456.497" svgx:width="0.48" style="fill:rgb(0,0,0);font-family:MinionPro-Regular;font-size:5.85px;stroke:none;">2</text>
   <text y="558.51" x="459.306" svgx:width="0.75" style="fill:rgb(0,0,0);font-family:MinionPro-Regular;font-size:9.0px;stroke:none;">O</text>
   <text y="560.31" x="466.028" svgx:width="0.48" style="fill:rgb(0,0,0);font-family:MinionPro-Regular;font-size:5.85px;stroke:none;">4</text>
   <text y="558.51" x="468.836,470.753,475.523,480.05,482.372,484.649,489.095,495.26,497.177,504.512,508.994,512.422,517.076,521.845,526.372,528.649,533.24,537.667,541.798,543.715,547.585,550.807,554.632" svgx:width="0.23,0.53,0.51,0.25,0.25,0.51,0.69,0.23,0.82,0.51,0.37,0.52,0.53,0.51,0.25,0.51,0.47,0.46,0.23,0.44,0.37,0.43,0.23" style="fill:rgb(0,0,0);font-family:MinionPro-Regular;font-size:9.0px;stroke:none;"> hollow morphology are </text>
   <text y="568.509" x="155.636,159.094,163.0,167.844,171.798,175.218,179.081,181.854,185.727,188.024,192.236,194.369,198.257,202.822,207.826,212.722,216.197,223.615,227.568,232.401,234.534,239.046,243.258,245.391,248.273,253.125,257.031,259.164,262.622,266.539,270.493,275.497,280.501,282.994,287.928,292.221,294.354,297.227,300.647,304.6,309.535,312.919,320.371,322.838,326.18,329.564,332.057,336.622,341.626,343.759,347.631,349.989,353.942,357.894,360.767,364.072,368.638,373.642,375.77,383.222,385.715,389.603,392.908,397.579,401.037,404.925,409.499,414.153,418.365,420.498,423.693,427.952,433.586,438.779,446.879,450.074,452.207,456.16,461.13,465.963,468.091,471.997,476.967,480.873,484.223,488.734,492.946,495.074,499.907,502.375,505.716,510.596,514.502,517.87,521.254,523.686,527.864,531.77,533.898,539.865,543.15,546.57,550.442,554.573" svgx:width="0.37,0.43,0.52,0.44,0.37,0.44,0.31,0.43,0.25,0.46,0.23,0.42,0.51,0.55,0.54,0.37,0.82,0.43,0.53,0.23,0.51,0.46,0.23,0.31,0.53,0.43,0.23,0.37,0.42,0.44,0.55,0.55,0.27,0.55,0.47,0.23,0.31,0.37,0.44,0.55,0.37,0.82,0.27,0.37,0.37,0.27,0.51,0.55,0.23,0.43,0.25,0.43,0.42,0.31,0.37,0.51,0.55,0.23,0.82,0.27,0.42,0.37,0.51,0.37,0.42,0.51,0.52,0.46,0.23,0.35,0.47,0.62,0.57,0.89,0.35,0.23,0.44,0.55,0.53,0.23,0.43,0.55,0.43,0.37,0.47,0.46,0.23,0.53,0.27,0.37,0.52,0.43,0.37,0.37,0.27,0.46,0.43,0.23,0.65,0.36,0.37,0.44,0.46,0.23" style="fill:rgb(0,0,0);font-family:MinionPro-Regular;font-size:9.0px;stroke:none;">separately confirmed by the scanning transmission electron microscopy (STEM) and energy dispersive X-ray </text>
   <text y="578.508" x="155.636,159.506,164.402,168.398,170.612,174.743,178.046,180.431,183.734,185.57,188.684,193.796,200.15,206.036,209.15,210.986,214.775,217.052,220.877,228.212,232.037,236.789,239.588,243.583,245.86,247.696,255.04,258.82,263.437,268.045,270.457,275.308,279.52,282.823" svgx:width="0.44,0.55,0.44,0.25,0.46,0.37,0.27,0.37,0.23,0.35,0.57,0.74,0.65,0.35,0.23,0.43,0.25,0.43,0.82,0.43,0.55,0.31,0.44,0.25,0.23,0.82,0.44,0.52,0.52,0.27,0.55,0.47,0.37,0.23" style="fill:rgb(0,0,0);font-family:MinionPro-Regular;font-size:9.0px;stroke:none;">analysis (EDX) elemental mappings.</text>
   <text y="588.507" x="167.633,172.484,174.986,179.288,184.157,187.473,191.388,193.555,197.965,200.134,204.976,207.455,210.806,215.554,217.951,221.834,226.055,229.448,231.617,234.51,239.374,243.289,245.458,247.937,251.405,255.991,258.884,263.748,267.663,271.15,278.542,281.935,284.104,288.68,291.434,293.603" svgx:width="0.53,0.27,0.47,0.53,0.37,0.43,0.23,0.48,0.23,0.53,0.27,0.37,0.52,0.25,0.44,0.46,0.37,0.23,0.31,0.53,0.43,0.23,0.27,0.37,0.51,0.31,0.53,0.43,0.37,0.82,0.37,0.23,0.51,0.3,0.23,0.74" style="fill:rgb(0,0,0);font-family:MinionPro-Regular;font-size:9.0px;stroke:none;">Figure 4 displays the isotherms of N</text>
   <text y="590.31" x="300.429" svgx:width="0.48" style="fill:rgb(0,0,0);font-family:MinionPro-Regular;font-size:5.85px;stroke:none;">2</text>
   <text y="588.51" x="303.298,305.467,309.508,314.328,317.796,322.373,325.895,330.606,333.49,335.992,340.568,345.581,348.65,353.492,357.407,360.876,365.452,368.975,373.685,376.569,379.071,383.647,388.66,390.829,393.505,398.081,401.51,403.679,409.196,414.047,420.86,424.154,428.564,432.974,437.384,439.526,441.695,447.212,452.063,458.876,462.17,466.58,470.99,475.4,477.542,479.711,483.674,488.656,493.498,495.667,501.184,506.035,512.848,516.142,520.552,524.962,529.372,531.514,533.683,543.412,546.727,550.692,554.517" svgx:width="0.23,0.44,0.53,0.37,0.51,0.37,0.52,0.31,0.27,0.51,0.55,0.33,0.53,0.43,0.37,0.51,0.37,0.52,0.31,0.27,0.51,0.55,0.23,0.3,0.51,0.37,0.23,0.6,0.53,0.75,0.36,0.48,0.48,0.48,0.23,0.23,0.6,0.53,0.75,0.36,0.48,0.48,0.48,0.23,0.23,0.44,0.55,0.53,0.23,0.6,0.53,0.75,0.36,0.48,0.48,0.48,0.23,0.23,1.07,0.37,0.43,0.43,0.23" style="fill:rgb(0,0,0);font-family:MinionPro-Regular;font-size:9.0px;stroke:none;"> adsorption/desorption for ZFO-400, ZFO-450, and ZFO-500. Three </text>
   <text y="598.509" x="155.635,158.018,161.392,165.882,168.679,173.448,177.273,180.664,187.962,191.265,193.002,196.827,201.075,205.881,208.255,212.719,215.021,217.766,219.503,222.273,226.404,231.199,235.024,236.761,239.83,246.157,247.894,254.085,256.387,259.185,263.991,265.728,272.622,276.942,278.679,283.278,287.409,290.665,293.355,297.18,300.401,304.226,307.529,309.913,313.216,314.953,319.604,323.392,328.17,331.957,336.149,338.561,343.041,346.325,349.628,351.365,355.198,358.976,363.727,367.1,370.968,375.72,377.457,381.884,386.015,387.752,390.55,395.319,399.144,400.881,404.632,409.41,413.278,416.617,420.568,424.436,427.126,430.951,434.342,436.725,439.982,442.77,445.182,448.989,452.292,454.029,458.509,461.173,462.91,470.245,474.07,477.443,481.933,486.728,491.208,494.429,498.919,503.67,506.973,508.71,516.043,520.524,523.951,528.602,533.371,537.897,540.174,544.764,549.19,552.662,554.714" svgx:width="0.27,0.37,0.51,0.31,0.53,0.43,0.37,0.82,0.37,0.23,0.43,0.47,0.53,0.27,0.51,0.27,0.31,0.23,0.31,0.46,0.52,0.43,0.23,0.34,0.7,0.23,0.69,0.27,0.31,0.53,0.23,0.77,0.48,0.23,0.53,0.46,0.37,0.31,0.43,0.37,0.43,0.37,0.27,0.37,0.23,0.51,0.43,0.53,0.44,0.46,0.27,0.51,0.37,0.37,0.23,0.42,0.44,0.53,0.37,0.43,0.53,0.23,0.51,0.46,0.23,0.31,0.53,0.43,0.23,0.42,0.53,0.44,0.37,0.44,0.42,0.31,0.43,0.37,0.27,0.37,0.31,0.27,0.42,0.37,0.23,0.51,0.3,0.23,0.82,0.43,0.37,0.51,0.52,0.51,0.37,0.51,0.53,0.37,0.23,0.82,0.51,0.37,0.52,0.53,0.51,0.25,0.51,0.47,0.46,0.23,0.23" style="fill:rgb(0,0,0);font-family:MinionPro-Regular;font-size:9.0px;stroke:none;">isotherms exhibit type IV with H1 hysteresis behaviors caused by the characteristics of mesoporous morphology. </text>
   <text y="608.508" x="155.635,165.299,169.187,171.239,175.9,180.094,183.412,186.164,190.052,193.335,197.223,200.589,203.035,206.401,208.453,210.793,215.525,220.077,224.856,228.222,230.274,234.817,237.544,239.596,245.086,249.91,256.696,259.963,264.346,268.729,273.112,275.164,279.094,284.043,288.858,290.91,296.4,301.224,308.01,311.277,315.66,320.043,324.426,326.478,330.409,333.691,337.579,339.631,343.501,348.043,355.477,362.874,366.762,371.71,375.58,379.511,384.326,386.378,390.218,393.026,395.078,399.092,401.144,404.428,408.277,410.642,414.483,417.334,419.744,423.9,427.788,429.84,434.509,437.792,441.68,445.0,448.319,453.161,456.444,460.332,462.384,466.926,469.653,471.705,476.088,478.203,482.586,484.701,486.753,493.042,497.911,500.43,502.77,506.658,508.71,511.57,516.409,520.25,523.058,525.11,529.654,532.38,534.432,539.922,544.746,551.532" svgx:width="1.07,0.43,0.23,0.53,0.46,0.37,0.31,0.43,0.37,0.43,0.37,0.27,0.37,0.23,0.25,0.51,0.51,0.52,0.37,0.23,0.51,0.3,0.23,0.6,0.53,0.75,0.36,0.48,0.48,0.48,0.23,0.44,0.55,0.53,0.23,0.6,0.53,0.75,0.36,0.48,0.48,0.48,0.23,0.44,0.37,0.43,0.23,0.42,0.51,0.82,0.82,0.43,0.55,0.42,0.43,0.53,0.23,0.44,0.31,0.23,0.44,0.23,0.37,0.43,0.25,0.44,0.31,0.27,0.46,0.43,0.23,0.52,0.37,0.43,0.37,0.37,0.53,0.37,0.43,0.23,0.51,0.3,0.23,0.48,0.23,0.48,0.23,0.23,0.69,0.53,0.27,0.25,0.43,0.23,0.31,0.53,0.44,0.31,0.23,0.51,0.3,0.23,0.6,0.53,0.75,0.36" style="fill:rgb(0,0,0);font-family:MinionPro-Regular;font-size:9.0px;stroke:none;">The hysteresis loops of ZFO-400 and ZFO-450 are commenced at a relative pressure of 0.7, while that of ZFO-</text>
   <text y="618.507" x="155.635,159.955,164.275,168.595,170.44,173.698,176.497,180.367,183.795,186.54,189.843,191.688,195.468,198.213,200.058,204.009,205.854,209.076,212.865,215.169,218.949,221.739,224.088,228.183,232.008,233.853,238.46,241.682,245.507,248.765,252.023,256.802,260.024,263.849,265.694,270.176,272.84,274.685,279.005,281.057,285.377,289.697,291.749,293.594,298.319,302.198,306.707,308.984,312.809,314.653,318.919,323.239,325.084,328.306,332.131,336.739,339.961,343.786,347.161,350.986,355.738,358.483,361.786,363.631,366.43,371.2,375.025,376.87,381.667,386.149,389.371,393.196,395.041,398.794,403.573,407.443,410.782,414.733,418.603,421.294,425.119,428.512,430.923,434.703,438.483,441.273,443.685,448.167,453.09,454.935,457.518,462.001,465.34,467.185,472.612,477.373,484.096,487.3,491.62,495.94,500.26,502.312,504.157,509.584,514.345,521.068,524.272,528.592,532.912,537.232,539.284,541.129,544.999,549.886,554.638" svgx:width="0.48,0.48,0.48,0.23,0.37,0.31,0.44,0.37,0.31,0.37,0.23,0.44,0.31,0.23,0.44,0.23,0.37,0.43,0.25,0.44,0.31,0.27,0.46,0.43,0.23,0.52,0.37,0.43,0.37,0.37,0.53,0.37,0.43,0.23,0.51,0.3,0.23,0.48,0.23,0.48,0.48,0.23,0.23,0.62,0.44,0.51,0.25,0.43,0.23,0.47,0.48,0.23,0.37,0.43,0.52,0.37,0.43,0.37,0.43,0.55,0.31,0.37,0.23,0.31,0.53,0.43,0.23,0.52,0.51,0.37,0.43,0.23,0.42,0.53,0.44,0.37,0.44,0.42,0.31,0.43,0.37,0.27,0.42,0.44,0.31,0.27,0.51,0.55,0.23,0.3,0.51,0.37,0.23,0.6,0.53,0.75,0.36,0.48,0.48,0.48,0.23,0.23,0.6,0.53,0.75,0.36,0.48,0.48,0.48,0.23,0.23,0.44,0.55,0.53,0.23" style="fill:rgb(0,0,0);font-family:MinionPro-Regular;font-size:9.0px;stroke:none;">500 starts at a relative pressure of 0.85. Table S1 represents the pore characterization for ZFO-400, ZFO-450, and </text>
   <text y="628.506" x="155.635,161.116,165.927,172.704,175.962,180.336,184.705,189.079,191.185,193.201,199.479,204.335,206.801,210.604,215.46,217.476,221.395,224.668,228.547,230.563,234.442,237.75,240.59,243.056,250.45,254.28,257.021,260.941,265.743,267.759,272.56,275.917,278.383,283.285,287.546,289.562,294.869,299.995,305.602,307.618,311.538,316.097,320.953,324.783,327.623,330.089,334.621,339.598,341.614,345.534,350.472,355.278,357.294,362.64,365.65,372.598,374.614,378.661,380.992,385.181,389.713,393.157,395.51,398.36,403.22,410.64,412.746,414.762,424.416,428.295,430.311,435.617,440.743,446.346,448.362,451.67,456.503,459.946,462.664,466.669,470.525,474.404,476.42,480.341,483.613,487.543,491.543,493.559,497.479,502.416,507.222,509.238,514.085,518.617,521.889,525.768,527.784,531.93,536.507,538.726,543.559,550.944,554.769" svgx:width="0.6,0.53,0.75,0.36,0.48,0.48,0.48,0.23,0.23,0.69,0.53,0.27,0.42,0.53,0.23,0.44,0.37,0.43,0.23,0.43,0.37,0.31,0.27,0.82,0.44,0.31,0.43,0.53,0.23,0.53,0.37,0.27,0.55,0.47,0.23,0.59,0.57,0.62,0.23,0.43,0.51,0.53,0.44,0.31,0.27,0.51,0.55,0.23,0.44,0.55,0.53,0.23,0.59,0.33,0.77,0.23,0.44,0.25,0.47,0.51,0.37,0.27,0.31,0.53,0.82,0.23,0.23,1.07,0.43,0.23,0.59,0.57,0.62,0.23,0.37,0.53,0.37,0.3,0.44,0.42,0.43,0.23,0.44,0.37,0.43,0.44,0.23,0.44,0.55,0.53,0.23,0.52,0.51,0.37,0.43,0.23,0.46,0.51,0.25,0.53,0.82,0.43,0.23" style="fill:rgb(0,0,0);font-family:MinionPro-Regular;font-size:9.0px;stroke:none;">ZFO-500, which are estimated using BET equation and BJH algorithm. The BET surface area and pore volume </text>
   <text y="638.505" x="155.635,158.225,162.715,166.063,168.012,173.448,178.218,184.95,188.163,192.492,196.821,201.15,203.098,206.328,210.162,214.777,218.007,221.841,225.223,229.057,233.816,236.57,238.519,242.848,247.177,249.238,253.567,254.68" svgx:width="0.3,0.51,0.37,0.23,0.6,0.53,0.75,0.36,0.48,0.48,0.48,0.23,0.37,0.43,0.52,0.37,0.43,0.37,0.43,0.55,0.31,0.23,0.48,0.48,0.23,0.48,0.23,0.82" style="fill:rgb(0,0,0);font-family:MinionPro-Regular;font-size:9.0px;stroke:none;">for ZFO-450 represent 26.0 m</text>
   <text y="635.45" x="262.057" svgx:width="0.48" style="fill:rgb(0,0,0);font-family:MinionPro-Regular;font-size:5.85px;stroke:none;">2</text>
   <text y="638.51" x="264.87,266.004" svgx:width="0.23,0.47" style="fill:rgb(0,0,0);font-family:MinionPro-Regular;font-size:9.0px;stroke:none;"> g</text>
   <text y="635.45" x="270.222" svgx:width="0.78" style="fill:rgb(0,0,0);font-family:EuclidSymbol;font-size:5.85px;stroke:none;">−</text>
   <text y="635.45" x="274.779" svgx:width="0.48" style="fill:rgb(0,0,0);font-family:MinionPro-Regular;font-size:5.85px;stroke:none;">1</text>
   <text y="638.51" x="277.592,279.54,283.418,288.313,293.074,295.022,299.351,301.412,305.741,310.07,314.399,315.527,319.343" svgx:width="0.23,0.44,0.55,0.53,0.23,0.48,0.23,0.48,0.48,0.48,0.23,0.42,0.82" style="fill:rgb(0,0,0);font-family:MinionPro-Regular;font-size:9.0px;stroke:none;"> and 0.183 cm</text>
   <text y="635.45" x="326.716" svgx:width="0.48" style="fill:rgb(0,0,0);font-family:MinionPro-Regular;font-size:5.85px;stroke:none;">3</text>
   <text y="638.51" x="329.529,330.663" svgx:width="0.23,0.47" style="fill:rgb(0,0,0);font-family:MinionPro-Regular;font-size:9.0px;stroke:none;"> g</text>
   <text y="635.45" x="334.881" svgx:width="0.78" style="fill:rgb(0,0,0);font-family:EuclidSymbol;font-size:5.85px;stroke:none;">−</text>
   <text y="635.45" x="339.438" svgx:width="0.48" style="fill:rgb(0,0,0);font-family:MinionPro-Regular;font-size:5.85px;stroke:none;">1</text>
   <text y="638.51" x="342.25,344.311,346.26,352.495,357.31,359.774,362.06,365.894,367.843,370.649,375.427,380.026,383.408,387.242,389.191,391.782,396.271,399.619,401.568,407.004,411.774,418.506,421.719,426.048,430.377,434.706,436.654,440.531,445.426,450.187,452.136,457.572,462.342,469.074,472.287,476.616,480.945,485.274,487.223,491.1,494.329,498.163,500.111,504.44,508.769,510.83,515.159,516.256" svgx:width="0.23,0.23,0.69,0.53,0.27,0.25,0.43,0.23,0.31,0.53,0.51,0.37,0.43,0.23,0.3,0.51,0.37,0.23,0.6,0.53,0.75,0.36,0.48,0.48,0.48,0.23,0.44,0.55,0.53,0.23,0.6,0.53,0.75,0.36,0.48,0.48,0.48,0.23,0.44,0.37,0.43,0.23,0.48,0.48,0.23,0.48,0.23,0.82" style="fill:rgb(0,0,0);font-family:MinionPro-Regular;font-size:9.0px;stroke:none;">, while those for ZFO-400 and ZFO-500 are 20.1 m</text>
   <text y="635.45" x="523.63" svgx:width="0.48" style="fill:rgb(0,0,0);font-family:MinionPro-Regular;font-size:5.85px;stroke:none;">2</text>
   <text y="638.51" x="526.443,527.577" svgx:width="0.23,0.47" style="fill:rgb(0,0,0);font-family:MinionPro-Regular;font-size:9.0px;stroke:none;"> g</text>
   <text y="635.45" x="531.795" svgx:width="0.78" style="fill:rgb(0,0,0);font-family:EuclidSymbol;font-size:5.85px;stroke:none;">−</text>
   <text y="635.45" x="536.353" svgx:width="0.48" style="fill:rgb(0,0,0);font-family:MinionPro-Regular;font-size:5.85px;stroke:none;">1</text>
   <text y="638.51" x="539.165,541.113,544.992,549.888,554.64" svgx:width="0.23,0.44,0.55,0.53,0.23" style="fill:rgb(0,0,0);font-family:MinionPro-Regular;font-size:9.0px;stroke:none;"> and </text>
   <text y="648.509" x="155.639,160.013,162.119,166.493,170.867,175.241,176.42,180.281" svgx:width="0.48,0.23,0.48,0.48,0.48,0.23,0.42,0.82" style="fill:rgb(0,0,0);font-family:MinionPro-Regular;font-size:9.0px;stroke:none;">0.134 cm</text>
   <text y="645.45" x="187.682" svgx:width="0.48" style="fill:rgb(0,0,0);font-family:MinionPro-Regular;font-size:5.85px;stroke:none;">3</text>
   <text y="648.51" x="190.524,191.703" svgx:width="0.23,0.47" style="fill:rgb(0,0,0);font-family:MinionPro-Regular;font-size:9.0px;stroke:none;"> g</text>
   <text y="645.45" x="195.963" svgx:width="0.78" style="fill:rgb(0,0,0);font-family:EuclidSymbol;font-size:5.85px;stroke:none;">−</text>
   <text y="645.45" x="200.55" svgx:width="0.48" style="fill:rgb(0,0,0);font-family:MinionPro-Regular;font-size:5.85px;stroke:none;">1</text>
   <text y="648.51" x="203.392,205.498,207.514,211.436,216.374,221.18,223.196,227.57,231.944,234.05,238.424,239.59" svgx:width="0.23,0.23,0.44,0.55,0.53,0.23,0.48,0.48,0.23,0.48,0.23,0.82" style="fill:rgb(0,0,0);font-family:MinionPro-Regular;font-size:9.0px;stroke:none;">, and 14.3 m</text>
   <text y="645.45" x="247.01" svgx:width="0.48" style="fill:rgb(0,0,0);font-family:MinionPro-Regular;font-size:5.85px;stroke:none;">2</text>
   <text y="648.51" x="249.851,251.03" svgx:width="0.23,0.47" style="fill:rgb(0,0,0);font-family:MinionPro-Regular;font-size:9.0px;stroke:none;"> g</text>
   <text y="645.45" x="255.29" svgx:width="0.78" style="fill:rgb(0,0,0);font-family:EuclidSymbol;font-size:5.85px;stroke:none;">−</text>
   <text y="645.45" x="259.877" svgx:width="0.48" style="fill:rgb(0,0,0);font-family:MinionPro-Regular;font-size:5.85px;stroke:none;">1</text>
   <text y="648.51" x="262.719,264.735,268.657,273.595,278.401,280.417,284.791,286.897,291.271,295.645,300.019,301.185,305.046" svgx:width="0.23,0.44,0.55,0.53,0.23,0.48,0.23,0.48,0.48,0.48,0.23,0.42,0.82" style="fill:rgb(0,0,0);font-family:MinionPro-Regular;font-size:9.0px;stroke:none;"> and 0.101 cm</text>
   <text y="645.45" x="312.463" svgx:width="0.48" style="fill:rgb(0,0,0);font-family:MinionPro-Regular;font-size:5.85px;stroke:none;">3</text>
   <text y="648.51" x="315.304,316.483" svgx:width="0.23,0.47" style="fill:rgb(0,0,0);font-family:MinionPro-Regular;font-size:9.0px;stroke:none;"> g</text>
   <text y="645.45" x="320.743" svgx:width="0.78" style="fill:rgb(0,0,0);font-family:EuclidSymbol;font-size:5.85px;stroke:none;">−</text>
   <text y="645.45" x="325.33" svgx:width="0.48" style="fill:rgb(0,0,0);font-family:MinionPro-Regular;font-size:5.85px;stroke:none;">1</text>
   <text y="648.51" x="328.172,330.278,332.294,335.568,339.447,342.756,347.604,351.526,355.446,358.287,360.688,364.834,368.674,370.94,374.465,376.571,378.587,384.068,388.883,395.66,398.918,403.292,407.666,412.04,414.056,417.373,422.194,426.692,432.911,436.268,438.284,441.134,445.955,449.834,451.85,456.555,460.434,463.743,466.542,468.558,473.406,477.94,481.213,485.092,487.108,490.912,495.742,499.664,503.057,507.062,510.983,513.725,517.604,521.049,523.485,526.794,529.635,532.102,535.963,539.32,541.336,546.031,550.864,554.689" svgx:width="0.23,0.23,0.37,0.43,0.37,0.52,0.43,0.42,0.31,0.27,0.46,0.43,0.25,0.46,0.23,0.23,0.6,0.53,0.75,0.36,0.48,0.48,0.48,0.23,0.37,0.53,0.51,0.69,0.37,0.23,0.31,0.53,0.43,0.23,0.51,0.43,0.37,0.31,0.23,0.52,0.51,0.37,0.43,0.23,0.42,0.53,0.44,0.37,0.44,0.42,0.31,0.43,0.37,0.27,0.37,0.31,0.27,0.42,0.37,0.23,0.53,0.53,0.43,0.23" style="fill:rgb(0,0,0);font-family:MinionPro-Regular;font-size:9.0px;stroke:none;">, respectively. ZFO-450 shows the best pore characteristics due </text>
   <text y="658.509" x="155.642,158.361,162.978,164.949,167.776,172.609,175.048,179.998,181.969,184.787,188.209,190.541,195.223,197.527,201.379,204.61,207.905,212.702,216.52,218.87,221.174,225.073,229.852,231.823,236.621,241.177,243.527,245.831,250.305,256.497,258.468,261.755,264.573,268.03,272.836,276.734,279.417,284.223,287.473,291.325,293.296,297.249,300.578,302.549,306.384,310.894,318.122,322.912,326.81,330.06,333.959,338.738,340.709,343.428,348.045,350.016,355.47,360.258,367.008,370.239,374.586,378.933,383.28,385.251,389.149,394.064,398.843,400.814,406.268,411.056,417.806,421.037,425.384,429.731,434.078,436.049,442.27,444.602,447.429,452.262,454.233,457.06,461.893,464.332,468.113,472.604,474.575,477.87,482.668,486.486,488.836,491.14,493.111,497.91,502.465,504.815,507.119,511.592,517.784,519.755,523.042,525.86,529.318,534.124,538.022,540.705,545.511,548.761,552.561,554.613" svgx:width="0.31,0.51,0.23,0.31,0.53,0.27,0.55,0.23,0.31,0.37,0.27,0.52,0.25,0.43,0.36,0.37,0.53,0.43,0.25,0.25,0.43,0.53,0.23,0.53,0.51,0.25,0.25,0.51,0.69,0.23,0.37,0.31,0.37,0.53,0.42,0.31,0.53,0.37,0.43,0.23,0.44,0.37,0.23,0.42,0.51,0.82,0.52,0.44,0.37,0.43,0.53,0.23,0.31,0.51,0.23,0.6,0.53,0.75,0.36,0.48,0.48,0.48,0.23,0.44,0.55,0.53,0.23,0.6,0.53,0.75,0.36,0.48,0.48,0.48,0.23,0.69,0.27,0.31,0.53,0.23,0.31,0.53,0.27,0.42,0.5,0.23,0.37,0.53,0.43,0.25,0.25,0.23,0.53,0.51,0.25,0.25,0.51,0.69,0.23,0.37,0.31,0.37,0.53,0.42,0.31,0.53,0.37,0.43,0.23,0.23" style="fill:rgb(0,0,0);font-family:MinionPro-Regular;font-size:9.0px;stroke:none;">to thin triple-shelled hollow structure as compared to ZFO-400 and ZFO-500 with thick shell hollow structure. </text>
   <text y="668.508" x="155.642,160.252,163.466,167.941,175.303,177.031,179.823,184.585,188.401,190.129,197.456,201.93,205.351,209.997,214.76,219.279,221.547,226.128,230.378,232.781,236.606,240.595,242.863,244.591,248.778,251.181,255.071,260.571,262.614,264.342,267.026,271.508,274.3,278.288,280.556,282.284,287.073,291.548,294.762,298.578,300.306,304.393,308.912,311.074,315.844,323.172,326.988,328.716,332.579,337.458,342.201,343.929,347.179,351.968,355.83,359.628,362.031,366.837,370.635,372.363,375.614,380.384,383.77,386.425,390.367,394.165,397.981,399.709,403.572,406.786,410.602,412.33,416.272,420.908,423.114,427.859,431.11,433.793,437.656,442.399,444.127,448.547,452.669,454.397,457.189,461.952,465.768,467.496,471.322,475.311,477.579,481.377,483.78,488.668,492.44,495.223,497.626,502.101,507.015,508.743,511.426,515.242,522.434,527.224,531.039,534.37,538.142,540.79,545.56,548.775,552.538,554.59" svgx:width="0.53,0.37,0.51,0.82,0.23,0.31,0.53,0.43,0.23,0.82,0.51,0.37,0.52,0.53,0.51,0.25,0.51,0.47,0.27,0.42,0.44,0.25,0.23,0.46,0.27,0.43,0.69,0.23,0.23,0.31,0.51,0.31,0.44,0.25,0.23,0.52,0.51,0.37,0.43,0.23,0.46,0.51,0.25,0.53,0.82,0.43,0.23,0.44,0.55,0.53,0.23,0.37,0.52,0.43,0.42,0.27,0.54,0.42,0.23,0.37,0.53,0.37,0.3,0.44,0.42,0.43,0.23,0.44,0.37,0.43,0.23,0.44,0.53,0.26,0.53,0.37,0.31,0.43,0.53,0.23,0.51,0.46,0.23,0.31,0.53,0.43,0.23,0.42,0.44,0.25,0.42,0.27,0.55,0.44,0.31,0.27,0.51,0.55,0.23,0.31,0.43,0.82,0.52,0.43,0.37,0.44,0.31,0.53,0.37,0.43,0.23,0.23" style="fill:rgb(0,0,0);font-family:MinionPro-Regular;font-size:9.0px;stroke:none;">From the morphological view, total pore volume and specific surface are adjusted by the calcination temperature, </text>
   <text y="678.507" x="155.642,159.782,164.228,168.323,172.148,175.541,180.464,182.876,187.727,191.939,193.685,196.484,201.254,205.079,206.825,210.614,212.891,216.761,220.631,223.421,226.643,231.314,235.067,239.837,243.662,251.033,253.445,257.278,261.274,263.551,265.297,270.094,273.919,277.312,279.895,284.377,287.77,295.114,298.984,303.871,307.678,311.449,313.501,315.247,324.85,328.675,330.421,335.218,339.7,342.922,346.747,348.493,351.796,354.208,357.988,361.813,363.559,368.311,370.696,373.954,376.744,380.136,382.512,386.986,391.656,394.446,396.858,401.34,406.191,409.494,411.24,415.722,418.386,420.132,425.559,430.32,436.988,440.291,442.037,445.907,449.129,452.954,454.7,457.157,459.478,461.647,466.399,469.657,472.447,475.786,479.566,482.257,486.127,490.879,492.625,495.037,499.96,501.706,504.505,509.275,513.1,514.846,517.258,522.109,525.484,529.309,532.054,533.8,538.057,541.396,545.176,549.829,554.635" svgx:width="0.47,0.51,0.46,0.43,0.37,0.55,0.27,0.55,0.47,0.23,0.31,0.53,0.43,0.23,0.43,0.25,0.43,0.42,0.31,0.37,0.51,0.42,0.53,0.43,0.82,0.27,0.42,0.44,0.25,0.23,0.52,0.43,0.37,0.3,0.51,0.37,0.82,0.44,0.55,0.42,0.43,0.23,0.23,1.07,0.43,0.23,0.52,0.51,0.37,0.43,0.23,0.37,0.27,0.42,0.43,0.23,0.53,0.27,0.37,0.31,0.37,0.27,0.51,0.53,0.31,0.27,0.51,0.55,0.37,0.23,0.51,0.3,0.23,0.6,0.53,0.75,0.37,0.23,0.44,0.37,0.43,0.23,0.27,0.25,0.25,0.53,0.37,0.31,0.37,0.44,0.31,0.43,0.53,0.23,0.27,0.55,0.23,0.31,0.53,0.43,0.23,0.27,0.55,0.37,0.43,0.31,0.23,0.47,0.37,0.44,0.52,0.53,0.23" style="fill:rgb(0,0,0);font-family:MinionPro-Regular;font-size:9.0px;stroke:none;">governing the electrochemical performance. The pore size distributions of ZFOs are illustrated in the inset graph </text>
   <text y="688.506" x="155.642,160.124,162.788,164.543,169.304,171.716,175.955,178.007,179.765,184.085,186.137,187.892,197.495,201.32,203.075,207.871,212.354,215.575,219.4,221.155,224.458,226.87,230.65,234.475,236.23,240.982,243.367,246.625,249.415,252.807,255.183,259.656,264.327,267.117,269.529,274.011,278.862,282.165,283.92,288.402,291.066,292.821,298.248,303.009,309.678,312.981,314.736,318.606,321.828,325.653,327.408,332.16,334.509,338.703,341.115,345.867,349.737,354.489,356.244,358.656,363.407,366.098,370.688,372.443,375.242,380.048,383.27,387.14,390.965,392.72,395.942,399.767,404.023,406.435,410.917,415.768,419.071,421.123,422.878,426.181,433.525,437.521,439.842,442.119,443.874,451.209,455.034,458.409,462.9,467.696,472.179,475.401,479.226,480.981,484.095,488.415,493.095,497.415,498.596,503.519,510.89,514.004,516.056,517.811,520.115,523.985,527.252,531.391,535.216,536.971,544.306,548.131,551.434" svgx:width="0.51,0.3,0.23,0.53,0.27,0.47,0.23,0.23,0.48,0.23,0.23,1.07,0.43,0.23,0.52,0.51,0.37,0.43,0.23,0.37,0.27,0.42,0.43,0.23,0.53,0.27,0.37,0.31,0.37,0.27,0.51,0.53,0.31,0.27,0.51,0.55,0.37,0.23,0.51,0.3,0.23,0.6,0.53,0.75,0.37,0.23,0.44,0.37,0.43,0.23,0.53,0.27,0.46,0.27,0.53,0.43,0.53,0.23,0.27,0.55,0.31,0.51,0.23,0.31,0.53,0.37,0.43,0.43,0.23,0.37,0.43,0.47,0.27,0.51,0.55,0.37,0.23,0.23,0.37,0.82,0.44,0.25,0.25,0.23,0.82,0.43,0.37,0.51,0.52,0.51,0.37,0.43,0.23,0.35,0.48,0.52,0.48,0.23,0.55,0.82,0.35,0.23,0.23,0.25,0.44,0.37,0.47,0.43,0.23,0.82,0.43,0.37,0.36" style="fill:rgb(0,0,0);font-family:MinionPro-Regular;font-size:9.0px;stroke:none;">of Fig. 4. The pore size distributions of ZFOs are divided into three regions: small mesopore (2–5 nm), large mes-</text>
   <text y="698.505" x="155.642,160.182,165.027,169.557,172.827,176.697,178.704,181.863,186.228,190.953,195.318,199.683,200.876,205.844,213.26,216.419,218.516,220.523,224.442,229.378,234.175,236.182,243.574,247.57,251.422,254.693,259.232,264.076,268.607,271.877,275.747,277.754" svgx:width="0.51,0.52,0.51,0.37,0.43,0.23,0.35,0.48,0.52,0.48,0.48,0.23,0.55,0.82,0.35,0.23,0.23,0.44,0.55,0.53,0.23,0.82,0.44,0.42,0.37,0.51,0.52,0.51,0.37,0.43,0.23,0.35" style="fill:rgb(0,0,0);font-family:MinionPro-Regular;font-size:9.0px;stroke:none;">opore (5–50 nm), and macropore (</text>
   <text y="698.505" x="280.913" svgx:width="0.78" style="fill:rgb(0,0,0);font-family:EuclidSymbol;font-size:9.0px;stroke:none;">&gt;</text>
   <text y="698.505" x="287.996,288.042,292.406,296.771,297.951,302.918,310.334,313.493,315.59,317.597,327.248,331.118,333.125,338.597,343.403,350.171,353.42,357.785,362.15,366.515,368.522,373.367,378.002,381.307,384.731,388.601,391.908,395.33,399.2,402.548,404.555,410.697,414.534,416.904,419.226,422.475,427.272,431.217,435.361,439.197,441.519,446.058,450.903,454.821,459.618,461.625,466.47,471.0,474.27,478.14,480.147,483.495,485.952,489.777,493.647,495.654,500.451,502.885,506.19,509.029,512.47,514.893,519.415,524.135,526.972,529.429,533.959,538.927,540.934,544.853,549.787,554.539" svgx:width="0.23,0.48,0.48,0.23,0.55,0.82,0.35,0.23,0.23,1.07,0.43,0.23,0.6,0.53,0.75,0.36,0.48,0.48,0.48,0.23,0.52,0.51,0.37,0.37,0.43,0.37,0.37,0.43,0.37,0.23,0.69,0.43,0.25,0.25,0.36,0.53,0.43,0.46,0.43,0.25,0.51,0.52,0.43,0.53,0.23,0.52,0.51,0.37,0.43,0.23,0.37,0.27,0.42,0.43,0.23,0.53,0.27,0.37,0.31,0.37,0.27,0.51,0.53,0.31,0.27,0.51,0.55,0.23,0.44,0.55,0.53,0.23" style="fill:rgb(0,0,0);font-family:MinionPro-Regular;font-size:9.0px;stroke:none;"> 50 nm). The ZFO-450 possesses well-developed pore size distribution and </text>
   <text y="708.504" x="155.643,157.995,161.914,165.229,169.417,173.287,175.294,180.139,184.669,187.94,191.81,193.817,197.96,202.536,204.754,209.578,216.961,220.831,222.838,225.47,230.001,233.441,240.857,243.314,248.214,252.471,254.478,261.861,265.731,269.155,273.79,277.039,280.063,287.456,291.452,295.304,298.573,303.114,307.958,312.489,315.76,320.299,325.1,328.448,330.455,337.838,342.368,345.846,350.547,355.366,359.942,362.264,366.899,371.375,375.551,377.558,381.602,383.972,386.294,388.301,392.796,396.939,400.809,404.193,406.2,409.047,413.865,417.735,419.742,423.013,426.883,431.187,433.644,438.175,443.074,446.422,448.429,452.401,455.749,457.756,461.608,466.139,473.386,478.196,482.115,485.385,489.304,494.101,496.108,498.847,503.482,505.489,510.961,515.767,522.535,525.784,530.149,534.514,538.879,540.886,544.806,549.741,554.493" svgx:width="0.25,0.44,0.37,0.47,0.43,0.23,0.52,0.51,0.37,0.43,0.23,0.46,0.51,0.25,0.53,0.82,0.43,0.23,0.3,0.51,0.37,0.82,0.27,0.55,0.47,0.23,0.82,0.43,0.37,0.51,0.36,0.33,0.82,0.44,0.42,0.37,0.51,0.52,0.51,0.37,0.51,0.53,0.37,0.23,0.82,0.51,0.37,0.52,0.53,0.51,0.25,0.51,0.47,0.46,0.23,0.44,0.25,0.25,0.23,0.51,0.46,0.43,0.37,0.23,0.31,0.53,0.43,0.23,0.37,0.43,0.47,0.27,0.51,0.55,0.37,0.23,0.44,0.37,0.23,0.42,0.51,0.82,0.52,0.44,0.37,0.43,0.53,0.23,0.31,0.51,0.23,0.6,0.53,0.75,0.36,0.48,0.48,0.48,0.23,0.44,0.55,0.53,0.23" style="fill:rgb(0,0,0);font-family:MinionPro-Regular;font-size:9.0px;stroke:none;">large pore volume forming meso-/macroporous morphology all over the regions as compared to ZFO-400 and </text>
   <text y="718.503" x="155.643,161.119,165.934,172.706,175.964,180.334,184.703,189.077,191.179,193.195,197.385,202.214,206.017,210.873,212.889,220.274,224.149,227.573,232.217,235.471,238.499,245.894,249.894,253.755,257.027,261.568,266.415,270.946,274.218,278.759,283.561,286.914,288.93,292.238,295.078,298.556,303.389,307.309,310.013,314.846,318.118,321.997,325.349,327.365,331.286,334.557,338.432,340.448,345.254,349.173,353.052,357.755,360.019,364.2,366.216,371.022,374.896,379.743,383.617,388.555,393.356,397.235,402.036,404.836,406.852,411.383,416.36,418.376,420.838,425.639,428.38,432.255,435.734,440.545,444.464,447.944,450.783,453.245,457.048,459.375,463.249,465.265,470.113,474.644,477.916,481.791,483.807,487.114,491.926,495.926,499.783,503.662,507.014,509.03,515.273,517.626,520.476,525.331,527.793,532.77,534.786,538.102,542.922,546.761,549.133,551.433,554.736" svgx:width="0.6,0.53,0.75,0.36,0.48,0.48,0.48,0.23,0.23,0.47,0.53,0.42,0.53,0.23,0.82,0.43,0.37,0.51,0.36,0.33,0.82,0.44,0.42,0.37,0.51,0.52,0.51,0.37,0.51,0.53,0.37,0.23,0.37,0.31,0.37,0.53,0.42,0.31,0.53,0.37,0.43,0.37,0.23,0.44,0.37,0.43,0.23,0.53,0.43,0.43,0.52,0.25,0.46,0.23,0.53,0.43,0.52,0.43,0.55,0.53,0.43,0.55,0.31,0.23,0.51,0.55,0.23,0.27,0.55,0.31,0.43,0.37,0.52,0.44,0.37,0.31,0.27,0.42,0.25,0.43,0.23,0.52,0.51,0.37,0.43,0.23,0.37,0.52,0.44,0.42,0.43,0.37,0.23,0.69,0.27,0.31,0.53,0.27,0.55,0.23,0.37,0.53,0.43,0.25,0.25,0.37,0.23" style="fill:rgb(0,0,0);font-family:MinionPro-Regular;font-size:9.0px;stroke:none;">ZFO-500. Such meso-/macroporous structures are deeply dependent on interparticle pore spaces within shells </text>
   <text y="728.502" x="155.643,159.559,164.492,169.289,171.287,175.429,179.958,182.415,187.212,189.21,192.514,197.322,201.318,205.17,209.04,212.388,214.485,216.483,221.955,226.761,233.529,236.778,241.143,245.508,249.873,251.871,258.109,260.46,263.305,268.156,270.154,277.535,281.405,284.826,289.364,294.207,298.735,302.004,306.542,311.341,314.689,316.687,319.533,324.384,326.841,331.809,333.807,336.643,340.083,342.433,347.133,349.455,353.325,355.323,358.637,363.453,367.288,369.656,371.953,375.301,377.299,381.215,386.149,390.946,392.944,400.333,404.329,408.181,411.449,415.987,420.831,425.359,428.628,433.166,437.963,441.311,443.309,449.548,452.005,456.802,460.672,462.67,466.812,471.341,473.798,478.57,481.918,483.916,488.848,493.386,496.176,498.174,502.702,507.717,509.978,514.154,516.152,519.457,524.174,528.837,533.492,536.761,540.631,543.936,547.357,551.227,554.531" svgx:width="0.44,0.55,0.53,0.23,0.46,0.51,0.27,0.53,0.23,0.37,0.52,0.44,0.42,0.43,0.37,0.23,0.23,0.6,0.53,0.75,0.36,0.48,0.48,0.48,0.23,0.69,0.27,0.31,0.53,0.23,0.82,0.43,0.37,0.51,0.52,0.51,0.37,0.51,0.53,0.37,0.23,0.31,0.53,0.27,0.55,0.23,0.31,0.37,0.27,0.52,0.25,0.43,0.23,0.37,0.53,0.43,0.25,0.25,0.37,0.23,0.44,0.55,0.53,0.23,0.82,0.44,0.42,0.37,0.51,0.52,0.51,0.37,0.51,0.53,0.37,0.23,0.69,0.27,0.53,0.43,0.23,0.46,0.51,0.27,0.53,0.37,0.23,0.55,0.51,0.31,0.23,0.51,0.55,0.25,0.46,0.23,0.37,0.53,0.52,0.52,0.37,0.43,0.37,0.37,0.43,0.37,0.23" style="fill:rgb(0,0,0);font-family:MinionPro-Regular;font-size:9.0px;stroke:none;">and void spaces. ZFO-450 with mesoporous thin triple shells and macroporous wide voids not only suppresses </text>
  </g>
  <rect style="stroke:blue;stroke-width:0.3;" x="155.638" y="64.138" height="198.84" width="360.0" title="4"/>
  <text y="64.138" class="image" id="image.4.1" width="360" height="198" x="155.638">image.4.1.156_516.64_263</text>
  <path style="fill:none;stroke:rgb(131,144,151);stroke-width:0.3;" d="M159.130 283.880 L552.640 283.880 "/>
  <path style="fill:none;stroke:rgb(131,144,151);stroke-width:1.0;" d="M156.140 283.880 L156.140 283.880 M554.140 283.880 L554.140 283.880 "/>
  <g begin="text">
   <text y="263.883" x="155.638,160.552,163.207,167.662,172.657,176.221,180.154,181.909,186.409" svgx:width="0.55,0.29,0.49,0.56,0.4,0.44,0.22,0.5,0.25" style="fill:rgb(0,0,0);font-family:MinionPro-Bold;font-size:9.0px;stroke:none;">Figure 3.</text>
   <text y="263.883" x="188.695,190.765,193.195,200.089,205.39,210.943,216.055,224.074,225.91,228.322,235.666,239.572,243.712,247.537,250.84,252.676,255.259,259.741,263.08,264.916" svgx:width="0.23,0.55,0.77,0.62,0.62,0.57,0.89,0.23,0.27,0.82,0.44,0.47,0.43,0.37,0.23,0.3,0.51,0.37,0.23,0.35" style="fill:rgb(0,0,0);font-family:MinionPro-Regular;font-size:9.0px;stroke:none;"> HRTEM images for (</text>
   <text y="263.883" x="268.03" svgx:width="0.47" style="fill:rgb(0,0,0);font-family:MinionPro-Bold;font-size:9.0px;stroke:none;">a</text>
   <text y="263.883" x="272.224" svgx:width="0.23" style="fill:rgb(0,0,0);font-family:MinionPro-Regular;font-size:9.0px;stroke:none;">,</text>
   <text y="263.883" x="274.276" svgx:width="0.55" style="fill:rgb(0,0,0);font-family:MinionPro-Bold;font-size:9.0px;stroke:none;">d</text>
   <text y="263.883" x="279.199,282.313,284.149,289.576,294.337,301.06,304.264,308.584,312.904,317.224,319.276,321.112" svgx:width="0.35,0.23,0.6,0.53,0.75,0.36,0.48,0.48,0.48,0.23,0.23,0.35" style="fill:rgb(0,0,0);font-family:MinionPro-Regular;font-size:9.0px;stroke:none;">) ZFO-400, (</text>
   <text y="263.883" x="324.226" svgx:width="0.53" style="fill:rgb(0,0,0);font-family:MinionPro-Bold;font-size:9.0px;stroke:none;">b</text>
   <text y="263.883" x="329.032" svgx:width="0.23" style="fill:rgb(0,0,0);font-family:MinionPro-Regular;font-size:9.0px;stroke:none;">,</text>
   <text y="263.883" x="331.084" svgx:width="0.44" style="fill:rgb(0,0,0);font-family:MinionPro-Bold;font-size:9.0px;stroke:none;">e</text>
   <text y="263.883" x="335.017,338.131,339.967,345.394,350.155,356.878,360.082,364.402,368.722,373.042,375.094,376.93,380.801,385.688,390.44,392.276" svgx:width="0.35,0.23,0.6,0.53,0.75,0.36,0.48,0.48,0.48,0.23,0.23,0.44,0.55,0.53,0.23,0.35" style="fill:rgb(0,0,0);font-family:MinionPro-Regular;font-size:9.0px;stroke:none;">) ZFO-450, and (</text>
   <text y="263.883" x="395.39" svgx:width="0.42" style="fill:rgb(0,0,0);font-family:MinionPro-Bold;font-size:9.0px;stroke:none;">c</text>
   <text y="263.883" x="399.188" svgx:width="0.23" style="fill:rgb(0,0,0);font-family:MinionPro-Regular;font-size:9.0px;stroke:none;">,</text>
   <text y="263.883" x="401.24" svgx:width="0.33" style="fill:rgb(0,0,0);font-family:MinionPro-Bold;font-size:9.0px;stroke:none;">f</text>
   <text y="263.883" x="404.219,407.333,409.169,414.596,419.357,426.08,429.284,433.604,437.924,442.244,444.08,450.272,452.576,455.375,460.181,462.017,466.769,469.181,474.149,477.974,481.196,485.021,489.773,492.518,494.354,498.187,502.183,504.46,508.267,510.679,515.575,519.355,522.145,524.557,529.039,533.962" svgx:width="0.35,0.23,0.6,0.53,0.75,0.36,0.48,0.48,0.48,0.23,0.69,0.27,0.31,0.53,0.23,0.53,0.27,0.56,0.43,0.37,0.43,0.55,0.31,0.23,0.42,0.44,0.25,0.42,0.27,0.55,0.44,0.31,0.27,0.51,0.55,0.23" style="fill:rgb(0,0,0);font-family:MinionPro-Regular;font-size:9.0px;stroke:none;">) ZFO-500 with different calcination </text>
   <text y="273.882" x="155.638,158.329,162.154,169.354,174.151,177.976,181.315,185.094,187.749,192.528,195.75,199.575,202.878,204.93,206.766" svgx:width="0.31,0.43,0.82,0.52,0.43,0.37,0.44,0.31,0.53,0.37,0.43,0.37,0.23,0.23,0.35" style="fill:rgb(0,0,0);font-family:MinionPro-Regular;font-size:9.0px;stroke:none;">temperatures; (</text>
   <text y="273.882" x="209.88" svgx:width="0.49" style="fill:rgb(0,0,0);font-family:MinionPro-Bold;font-size:9.0px;stroke:none;">g</text>
   <text y="273.882" x="214.308,217.422,219.258,223.434,228.987,234.099,242.118,243.954,246.366,253.71,257.616,261.756,265.581,267.417,271.287,276.174,280.926,282.762,286.569,291.051,294.444,297.666,301.491,304.749,309.546,314.028,318.915,323.667,326.079,330.93,335.142,336.978,342.09,348.381,354.6,360.486,362.322,366.111,368.388,372.213,379.548,383.373,388.124,390.923,394.919,397.196,399.032,406.376,410.156,414.773,419.381,421.793,426.644,430.856,434.159,435.995,440.477,443.141,444.977,450.53,455.453,457.505,459.341,463.931,467.702,469.754,471.59,475.46,480.346,485.098,486.934,493.657,495.493,498.076,502.558,505.897,507.733,513.16,517.921,524.644,527.848,532.168,536.488,540.808" svgx:width="0.35,0.23,0.47,0.62,0.57,0.89,0.23,0.27,0.82,0.44,0.47,0.43,0.23,0.44,0.55,0.53,0.23,0.42,0.51,0.37,0.37,0.43,0.37,0.52,0.51,0.55,0.53,0.27,0.55,0.47,0.23,0.57,0.74,0.69,0.65,0.23,0.43,0.25,0.43,0.82,0.43,0.55,0.31,0.44,0.25,0.23,0.82,0.44,0.52,0.52,0.27,0.55,0.47,0.37,0.23,0.51,0.3,0.23,0.6,0.55,0.23,0.23,0.53,0.43,0.23,0.23,0.44,0.55,0.53,0.23,0.75,0.23,0.3,0.51,0.37,0.23,0.6,0.53,0.75,0.36,0.48,0.48,0.48,0.23" style="fill:rgb(0,0,0);font-family:MinionPro-Regular;font-size:9.0px;stroke:none;">) STEM image and corresponding EDAX elemental mappings of Zn, Fe, and O for ZFO-450.</text>
  </g>
  <rect style="stroke:blue;stroke-width:0.3;" x="155.638" y="316.148" height="150.36" width="204.0" title="4"/>
  <text y="316.148" class="image" id="image.4.2" width="204" height="150" x="155.638">image.4.2.156_360.316_467</text>
  <path style="fill:none;stroke:rgb(131,144,151);stroke-width:1.0;" d="M159.130 487.410 L552.640 487.410 "/>
  <path style="fill:none;stroke:rgb(131,144,151);stroke-width:1.0;" d="M156.140 487.410 L156.140 487.410 M554.140 487.410 L554.140 487.410 "/>
  <g begin="text">
   <text y="467.413" x="155.638,160.552,163.207,167.662,172.657,176.221,180.154,181.909,186.409" svgx:width="0.55,0.29,0.49,0.56,0.4,0.44,0.22,0.5,0.25" style="fill:rgb(0,0,0);font-family:MinionPro-Bold;font-size:9.0px;stroke:none;">Figure 4.</text>
   <text y="467.413" x="188.695" svgx:width="0.23" style="fill:rgb(0,0,0);font-family:MinionPro-Regular;font-size:9.0px;stroke:none;"> </text>
   <text y="467.413" x="193.195" svgx:width="0.74" style="fill:rgb(0,0,0);font-family:MinionPro-Bold;font-size:9.0px;stroke:none;">N</text>
   <text y="469.213" x="199.857" svgx:width="0.5" style="fill:rgb(0,0,0);font-family:MinionPro-Bold;font-size:5.85px;stroke:none;">2</text>
   <text y="467.413" x="202.782,204.537,208.731,213.654,217.182,221.817,225.561,230.412,233.418,236.126,240.761,245.855,248.933,253.91,257.843,261.371,266.006,269.75,274.601,277.607,280.316,284.951,290.045,291.8,294.455,297.983,302.636,305.687,310.637,314.524,318.16,325.747,329.194,330.949,335.098,340.192,345.115,346.87,351.892,356.527,360.091,364.024,365.779,369.19,371.845,375.949,379.882,381.637,386.56,389.215,392.626,395.631,399.267,401.896,406.63,411.58,414.586,417.294,421.93,427.024,428.779,431.947,434.602,439.696,443.224,447.184,450.235,453.403,455.158,459.793,462.772,464.527,470.098,475.084,481.978,485.056,489.556,494.056,498.556,500.842,502.597,508.168,513.154,520.048,523.126,527.626,532.126,536.626,538.912" svgx:width="0.22,0.47,0.55,0.38,0.52,0.4,0.55,0.34,0.29,0.52,0.57,0.34,0.55,0.44,0.38,0.52,0.4,0.55,0.34,0.29,0.52,0.57,0.22,0.29,0.38,0.52,0.34,0.55,0.44,0.4,0.84,0.38,0.22,0.47,0.57,0.55,0.22,0.55,0.52,0.4,0.44,0.22,0.38,0.29,0.44,0.44,0.22,0.55,0.29,0.38,0.34,0.4,0.29,0.53,0.56,0.34,0.29,0.52,0.57,0.22,0.35,0.29,0.57,0.38,0.44,0.34,0.35,0.22,0.52,0.33,0.22,0.62,0.55,0.77,0.34,0.5,0.5,0.5,0.25,0.22,0.62,0.55,0.77,0.34,0.5,0.5,0.5,0.25,0.22" style="fill:rgb(0,0,0);font-family:MinionPro-Bold;font-size:9.0px;stroke:none;"> adsorption-desorption isotherms and pore size distribution (inset) of ZFO-400, ZFO-450, </text>
   <text y="477.412" x="155.64,159.789,164.883,169.806,171.561,177.132,182.118,189.012,192.09,196.59,201.09,205.59,207.876" svgx:width="0.47,0.57,0.55,0.22,0.62,0.55,0.77,0.34,0.5,0.5,0.5,0.25,0.22" style="fill:rgb(0,0,0);font-family:MinionPro-Bold;font-size:9.0px;stroke:none;">and ZFO-500. </text>
  </g>
 </g>
</svg>
