<?xml version="1.0" encoding="UTF-8"?>
<svg height="774.23" width="4165.638" xmlns="http://www.w3.org/2000/svg">
 <g id="page" xmlns:svgx="http://www.xml-cml.org/schema/svgx">
  <g begin="text">
   <text y="22.46" x="40.638,48.208,55.778,63.055,66.145,71.865,77.215,81.135,86.765,90.565,95.995,99.085,103.915,109.695,118.435,121.635,126.125,130.955,133.725,139.15,144.87,148.79,151.56,155.19,157.96,162.79,166.59,172.02,177.78,183.56,187.36,191.28,195.77" svgx:width="0.71,0.71,0.71,0.26,0.53,0.49,0.35,0.52,0.34,0.5,0.26,0.44,0.53,0.83,0.28,0.4,0.44,0.23,0.5,0.53,0.35,0.23,0.32,0.23,0.44,0.34,0.5,0.53,0.53,0.34,0.35,0.4,0.28" style="fill:rgb(255,255,255);font-family:Corbel;font-size:10.0px;stroke:none;">www.nature.com/scientificreports/</text>
  </g>
  <g begin="text">
   <text y="764.23" x="549.393" svgx:width="0.52" style="fill:rgb(131,144,151);font-family:Corbel;font-size:10.0px;stroke:none;">6</text>
  </g>
  <g begin="text">
   <text y="764.193" x="40.794,45.642,50.786,53.186,58.026,64.026,68.898,71.298,75.762,78.162" svgx:width="0.55,0.59,0.25,0.55,0.7,0.56,0.25,0.5,0.25,0.59" style="fill:rgb(131,144,151);font-family:Corbel;font-size:8.0px;stroke:none;">Scientific</text>
   <text y="764.193" x="83.162" svgx:width="0.2" style="fill:rgb(0,0,0);font-family:Corbel;font-size:8.0px;stroke:none;"> </text>
   <text y="764.193" x="84.762,90.218,95.194,100.434,106.738,112.194,117.186" svgx:width="0.63,0.57,0.6,0.73,0.63,0.57,0.58" style="fill:rgb(131,144,151);font-family:Corbel-Bold;font-size:8.0px;stroke:none;">RepoRts</text>
   <text y="764.193" x="122.082,123.524,125.34,126.781,130.885,132.997,137.101,141.205,145.309,149.413,153.517,154.945,156.761,158.203,163.571,169.411,171.379,173.491,174.93,179.034,183.138,185.25,189.354,193.458,197.562,201.666,203.866,207.098,209.778,213.762,218.01,222.114,226.218,230.322,234.426" svgx:width="0.2,0.23,0.2,0.51,0.26,0.51,0.51,0.51,0.51,0.51,0.2,0.23,0.2,0.67,0.73,0.25,0.26,0.2,0.51,0.51,0.26,0.51,0.51,0.51,0.51,0.28,0.4,0.34,0.5,0.53,0.51,0.51,0.51,0.51,0.51" style="fill:rgb(0,0,0);font-family:Corbel;font-size:8.0px;stroke:none;"> | 7:46378 | DOI: 10.1038/srep46378</text>
  </g>
  <path style="fill:none;stroke:rgb(0,0,0);stroke-width:1.0;" d="M40.640 752.550 L554.640 752.550 "/>
  <g begin="text">
   <text y="224.5" x="155.638,158.14,162.711,167.724,169.875,172.349,175.742,177.893,180.395,185.335,188.799,192.714,196.232,199.013,202.971,207.813,209.964,213.168,217.127,221.725,226.62,230.489,233.368,235.87,240.441,245.454,247.605,252.015,255.219,257.361,259.512,265.829,270.725,273.272,275.639,279.554,281.705,284.593,289.461,293.33,296.165,298.316,300.818,305.831,307.982,313.687,317.602,321.947,324.449,329.02,334.033,336.184,339.343,342.502,344.653,347.127,350.52,352.671,356.63,359.942,364.522,369.391,374.367,379.209,381.36,385.77,390.18,394.59,395.776,403.237,409.546,411.697,416.593,418.744" svgx:width="0.27,0.51,0.55,0.23,0.27,0.37,0.23,0.27,0.55,0.37,0.43,0.37,0.31,0.43,0.53,0.23,0.35,0.43,0.51,0.53,0.44,0.31,0.27,0.51,0.55,0.23,0.48,0.35,0.23,0.23,0.69,0.53,0.27,0.25,0.43,0.23,0.31,0.53,0.44,0.31,0.23,0.27,0.55,0.23,0.62,0.43,0.47,0.27,0.51,0.55,0.23,0.34,0.34,0.23,0.27,0.37,0.23,0.44,0.37,0.51,0.53,0.55,0.53,0.23,0.48,0.48,0.48,0.23,0.82,0.69,0.23,0.53,0.23,0.47" style="fill:rgb(0,0,0);font-family:MinionPro-Regular;font-size:9.0px;stroke:none;">ion is inserted (equation 4), while that in Region II is around 225 mA h g</text>
   <text y="221.44" x="423.039" svgx:width="0.78" style="fill:rgb(0,0,0);font-family:EuclidSymbol;font-size:5.85px;stroke:none;">−</text>
   <text y="221.44" x="427.655" svgx:width="0.48" style="fill:rgb(0,0,0);font-family:MinionPro-Regular;font-size:5.85px;stroke:none;">1</text>
   <text y="224.5" x="430.52,432.671,435.451,440.131,442.282,447.024,450.939,453.09,455.762,460.333,463.816,471.24,475.199,480.041,482.192,487.177" svgx:width="0.23,0.31,0.51,0.23,0.51,0.43,0.23,0.3,0.51,0.37,0.82,0.43,0.53,0.23,0.54,0.27" style="fill:rgb(0,0,0);font-family:MinionPro-Regular;font-size:9.0px;stroke:none;"> to be formed Li</text>
   <text y="226.3" x="489.673,492.54,493.932" svgx:width="0.48,0.23,0.48" style="fill:rgb(0,0,0);font-family:MinionPro-Regular;font-size:5.85px;stroke:none;">0.5</text>
   <text y="224.5" x="496.797,502.439,507.451,512.131" svgx:width="0.6,0.55,0.53,0.43" style="fill:rgb(0,0,0);font-family:MinionPro-Regular;font-size:9.0px;stroke:none;">ZnFe</text>
   <text y="226.3" x="516.044" svgx:width="0.48" style="fill:rgb(0,0,0);font-family:MinionPro-Regular;font-size:5.85px;stroke:none;">2</text>
   <text y="224.5" x="518.91" svgx:width="0.75" style="fill:rgb(0,0,0);font-family:MinionPro-Regular;font-size:9.0px;stroke:none;">O</text>
   <text y="226.3" x="525.722" svgx:width="0.48" style="fill:rgb(0,0,0);font-family:MinionPro-Regular;font-size:5.85px;stroke:none;">4</text>
   <text y="224.5" x="528.588,530.739,533.942,537.901,542.5,547.395,551.43" svgx:width="0.23,0.35,0.43,0.51,0.53,0.44,0.36" style="fill:rgb(0,0,0);font-family:MinionPro-Regular;font-size:9.0px;stroke:none;"> (equa-</text>
   <text y="234.499" x="155.637,158.496,160.98,165.531,170.526,172.606,176.998,180.184,182.308,184.387,194.06,197.957,200.036,202.385,206.936,211.856,216.14,219.416,223.581,228.177,230.414,233.283,237.258,241.467,245.364,247.443,252.166,254.538,258.387,261.148,265.096,268.945,273.796,275.875,279.061,284.746,288.643,292.969,295.453,300.004,304.999,307.078,310.219,313.36,316.501,319.687,321.766,324.22,327.595,329.674,332.159,336.943,341.107,345.704,347.987,352.151,356.09,360.914,362.993,369.255,371.627,374.495,379.373,381.452,385.475,387.554,391.433,395.984,400.904,404.231,409.082,416.352,421.038,423.897,426.381,430.933,435.928,438.007,442.558,445.294,447.373,451.765,453.889,458.281,459.405,466.809,471.406,473.755,475.834,480.798" svgx:width="0.31,0.27,0.51,0.55,0.23,0.48,0.35,0.23,0.23,1.07,0.43,0.23,0.25,0.51,0.55,0.47,0.36,0.46,0.51,0.25,0.31,0.44,0.47,0.43,0.23,0.52,0.25,0.44,0.31,0.43,0.44,0.53,0.23,0.35,0.62,0.43,0.47,0.27,0.51,0.55,0.23,0.34,0.34,0.34,0.35,0.23,0.27,0.37,0.23,0.27,0.55,0.46,0.51,0.25,0.46,0.43,0.53,0.23,0.69,0.27,0.31,0.53,0.23,0.44,0.23,0.42,0.51,0.55,0.37,0.53,0.82,0.52,0.31,0.27,0.51,0.55,0.23,0.51,0.3,0.23,0.48,0.23,0.48,0.23,0.82,0.51,0.25,0.23,0.54,0.27" style="fill:rgb(0,0,0);font-family:MinionPro-Regular;font-size:9.0px;stroke:none;">tion 5). The long-voltage plateau (Region III) is involved with a consumption of 6.0 mol Li</text>
   <text y="231.44" x="483.277" svgx:width="0.78" style="fill:rgb(0,0,0);font-family:EuclidSymbol;font-size:5.85px;stroke:none;">+</text>
   <text y="234.5" x="487.878,489.957,494.025,496.372,500.922,505.842,510.124,512.203,518.464,520.837,523.705,528.58,530.659,535.492,539.43,542.928,545.79,548.299,552.367,554.644" svgx:width="0.23,0.44,0.25,0.51,0.55,0.47,0.23,0.69,0.27,0.31,0.53,0.23,0.52,0.44,0.37,0.31,0.27,0.44,0.25,0.23" style="fill:rgb(0,0,0);font-family:MinionPro-Regular;font-size:9.0px;stroke:none;"> along with partial </text>
   <text y="244.499" x="155.634,158.949,162.911,167.646,172.515,176.478,179.36,181.862,186.437,191.45,193.61,198.183,200.937,203.097,207.779" svgx:width="0.37,0.43,0.53,0.53,0.42,0.31,0.27,0.51,0.55,0.23,0.51,0.3,0.23,0.53,0.43" style="fill:rgb(0,0,0);font-family:MinionPro-Regular;font-size:9.0px;stroke:none;">reduction of Fe</text>
   <text y="241.44" x="211.71" svgx:width="0.48" style="fill:rgb(0,0,0);font-family:MinionPro-Regular;font-size:5.85px;stroke:none;">3</text>
   <text y="241.44" x="214.576" svgx:width="0.78" style="fill:rgb(0,0,0);font-family:EuclidSymbol;font-size:5.85px;stroke:none;">+</text>
   <text y="244.5" x="219.195,221.339,223.499,228.179" svgx:width="0.23,0.23,0.53,0.43" style="fill:rgb(0,0,0);font-family:MinionPro-Regular;font-size:9.0px;stroke:none;">, Fe</text>
   <text y="241.44" x="232.099" svgx:width="0.48" style="fill:rgb(0,0,0);font-family:MinionPro-Regular;font-size:5.85px;stroke:none;">2</text>
   <text y="241.44" x="234.966" svgx:width="0.78" style="fill:rgb(0,0,0);font-family:EuclidSymbol;font-size:5.85px;stroke:none;">+</text>
   <text y="244.5" x="239.584,241.726,243.886,247.848,252.828,257.67,259.83,265.475" svgx:width="0.23,0.23,0.44,0.55,0.53,0.23,0.6,0.55" style="fill:rgb(0,0,0);font-family:MinionPro-Regular;font-size:9.0px;stroke:none;">, and Zn</text>
   <text y="241.44" x="270.496" svgx:width="0.48" style="fill:rgb(0,0,0);font-family:MinionPro-Regular;font-size:5.85px;stroke:none;">2</text>
   <text y="241.44" x="273.363" svgx:width="0.78" style="fill:rgb(0,0,0);font-family:EuclidSymbol;font-size:5.85px;stroke:none;">+</text>
   <text y="244.5" x="277.981,280.141,282.924,287.607,289.767,294.447" svgx:width="0.23,0.31,0.51,0.23,0.53,0.43" style="fill:rgb(0,0,0);font-family:MinionPro-Regular;font-size:9.0px;stroke:none;"> to Fe</text>
   <text y="241.44" x="298.368" svgx:width="0.48" style="fill:rgb(0,0,0);font-family:MinionPro-Regular;font-size:5.85px;stroke:none;">0</text>
   <text y="244.5" x="301.235,303.395,307.355,312.335,317.179,319.339,324.984" svgx:width="0.23,0.44,0.55,0.53,0.23,0.6,0.55" style="fill:rgb(0,0,0);font-family:MinionPro-Regular;font-size:9.0px;stroke:none;"> and Zn</text>
   <text y="241.44" x="330.003" svgx:width="0.48" style="fill:rgb(0,0,0);font-family:MinionPro-Regular;font-size:5.85px;stroke:none;">0</text>
   <text y="244.5" x="332.871,335.031,339.048,342.441,344.601,350.786,354.667,357.081,359.448,361.608,365.624,369.017,371.177,374.068,378.929,382.844,385.004,387.679,392.254,395.739,403.174,407.047,409.929,412.431,417.006,422.019,424.179,428.753,431.507,433.667,437.629,445.057,449.631,453.151,457.897,462.759,467.343,472.186,475.579,477.739,482.727" svgx:width="0.23,0.44,0.37,0.23,0.69,0.43,0.25,0.25,0.23,0.44,0.37,0.23,0.31,0.53,0.43,0.23,0.3,0.51,0.37,0.82,0.44,0.31,0.27,0.51,0.55,0.23,0.51,0.3,0.23,0.44,0.82,0.51,0.37,0.52,0.53,0.51,0.53,0.37,0.23,0.54,0.27" style="fill:rgb(0,0,0);font-family:MinionPro-Regular;font-size:9.0px;stroke:none;"> as well as the formation of amorphous Li</text>
   <text y="246.3" x="485.255" svgx:width="0.48" style="fill:rgb(0,0,0);font-family:MinionPro-Regular;font-size:5.85px;stroke:none;">2</text>
   <text y="244.5" x="488.123,494.936,497.096,500.3,504.262,508.862,513.761,517.633,520.515,523.017,527.591,532.604,534.766,539.176,542.38,544.522,546.682,549.699,554.622" svgx:width="0.75,0.23,0.35,0.43,0.51,0.53,0.44,0.31,0.27,0.51,0.55,0.23,0.48,0.35,0.23,0.23,0.34,0.55,0.23" style="fill:rgb(0,0,0);font-family:MinionPro-Regular;font-size:9.0px;stroke:none;">O (equation 6). In </text>
   <text y="254.499" x="155.636,158.819,162.608,166.826,169.202,173.646,178.533,180.234,183.267,189.558,191.259,195.873,199.662,202.395,208.449,212.281,216.07,220.957,222.658,226.942,228.958,233.242,234.287,240.578,242.279,246.11,250.958,255.674,257.375,261.659,263.675,267.959,272.243,273.311,278.303,280.319,282.02,284.78,289.512,293.301,295.002,299.103,302.892,307.741,311.53,314.833,318.574,321.326,323.702,328.145,333.032,334.733,339.177,341.805,343.506,348.363,350.739,353.907,359.422,364.309,366.01,369.967,372.25,374.491,378.899,382.994,384.695,387.041,390.308,392.009,396.578,399.761,404.315,408.534,411.717,415.506,418.725,422.062,425.893,430.609,432.31,435.388,439.219,443.69,448.457,452.198,454.949,457.325,461.769,466.656,468.353,472.637,475.715,477.731,479.432,483.264,488.113,492.829,494.53,497.29,502.021,505.81,507.511,510.848,515.336,517.511,521.568,525.357,530.07,532.779,534.48,536.856,541.743,543.444,546.204,550.935,554.76" svgx:width="0.37,0.43,0.47,0.27,0.51,0.55,0.23,0.34,0.7,0.23,0.51,0.43,0.31,0.69,0.43,0.43,0.55,0.23,0.48,0.23,0.48,0.23,0.7,0.23,0.44,0.55,0.53,0.23,0.48,0.23,0.48,0.48,0.23,0.7,0.23,0.23,0.31,0.53,0.43,0.23,0.47,0.43,0.55,0.43,0.37,0.44,0.31,0.27,0.51,0.55,0.23,0.51,0.3,0.23,0.54,0.27,0.36,0.6,0.55,0.23,0.44,0.25,0.25,0.51,0.46,0.23,0.27,0.37,0.23,0.52,0.37,0.51,0.47,0.37,0.43,0.37,0.37,0.43,0.53,0.23,0.35,0.43,0.51,0.53,0.44,0.31,0.27,0.51,0.55,0.23,0.48,0.35,0.23,0.23,0.44,0.55,0.53,0.23,0.31,0.53,0.43,0.23,0.37,0.51,0.25,0.46,0.43,0.55,0.31,0.23,0.27,0.55,0.23,0.31,0.53,0.43,0.23" style="fill:rgb(0,0,0);font-family:MinionPro-Regular;font-size:9.0px;stroke:none;">region IV between 0.7 V and 0.01 V, the generation of Li-Zn alloy is progressed (equation 7), and the solvent in the </text>
   <text y="264.498" x="155.636,159.45,161.754,165.649,169.544,172.359,175.606,180.159,182.398,186.556,189.272,193.124,195.091,197.501,200.831,202.797,205.236,208.654,211.901,215.823,219.943,223.795,227.106,230.436,232.837,237.371,239.61,243.768,245.734,250.513,254.408,258.242,262.749,269.974,274.797,279.414,282.814,286.708,291.487,293.453,296.169,300.786,302.752,305.36,309.867,313.285,320.683,322.65,326.833,331.972,335.068,337.033,341.541,346.491,348.456,351.28,356.077,359.929,361.895,365.709,368.013,371.908,375.803,378.618,381.865,386.561,391.34,395.192,397.158,400.441,405.247,408.665,411.356,415.334,419.168,422.965,425.044,427.009,429.959,434.909,436.876,439.7,444.495,448.347,450.313,453.596,458.364,462.963,466.363,470.259,474.793,479.599,483.451,488.228,491.0,492.966,496.942,501.026,504.804,507.108,510.96,514.29,516.369,518.335,522.842,527.754,531.606,533.573,538.062,541.309,545.969,549.948,554.7" svgx:width="0.43,0.25,0.43,0.42,0.31,0.37,0.51,0.25,0.46,0.31,0.43,0.23,0.27,0.37,0.23,0.27,0.37,0.37,0.43,0.46,0.43,0.37,0.37,0.27,0.51,0.25,0.46,0.23,0.53,0.43,0.42,0.51,0.82,0.52,0.51,0.37,0.43,0.53,0.23,0.31,0.51,0.23,0.3,0.51,0.37,0.82,0.23,0.47,0.57,0.34,0.23,0.51,0.55,0.23,0.31,0.53,0.43,0.23,0.43,0.25,0.43,0.42,0.31,0.37,0.51,0.53,0.43,0.23,0.37,0.53,0.37,0.3,0.44,0.42,0.43,0.23,0.23,0.34,0.55,0.23,0.31,0.53,0.43,0.23,0.37,0.53,0.51,0.37,0.43,0.51,0.53,0.43,0.55,0.31,0.23,0.42,0.46,0.42,0.25,0.43,0.37,0.23,0.23,0.51,0.55,0.43,0.23,0.51,0.37,0.51,0.44,0.53,0.23" style="fill:rgb(0,0,0);font-family:MinionPro-Regular;font-size:9.0px;stroke:none;">electrolyte is irreversibly decomposed to form SEI on the electrode surface. In the subsequent cycles, one broad </text>
   <text y="274.497" x="155.636,158.923,162.857,167.567,172.409,176.344,179.199,181.674,186.221,191.207,193.277,198.139,202.083,206.144,210.671,212.741,215.081,219.817,223.715,227.56,230.317,234.252,239.067,241.137,244.981,247.789,249.859,254.242,256.357,260.74,261.935,268.325,270.395,274.384,277.75,279.82,283.152,287.987,292.499,298.756,303.742,305.812,308.287,313.273,315.343,320.167,322.642,326.945,329.06,331.127,335.51,340.145,342.215,346.204,349.644,353.514,356.972,359.413,364.131,368.019,371.385,373.455,376.21,380.863,382.933,385.797,390.632,394.52,396.59,399.878,403.84,407.999,411.887,415.238,418.604,421.045,425.619,427.959,431.847,433.917,437.204,441.138,445.847,450.689,454.624,457.479,459.954,464.501,469.487,471.557,474.844,478.788,482.802,486.737,489.592,492.067,496.614,501.6,503.67,508.216,510.943,513.013,516.949,524.349,528.896,532.389,537.108,541.943,546.499,551.316,554.619" svgx:width="0.37,0.43,0.53,0.53,0.42,0.31,0.27,0.51,0.55,0.23,0.52,0.43,0.44,0.5,0.23,0.25,0.51,0.42,0.44,0.31,0.43,0.53,0.23,0.44,0.31,0.23,0.48,0.23,0.48,0.23,0.7,0.23,0.44,0.37,0.23,0.37,0.53,0.51,0.69,0.55,0.23,0.27,0.55,0.23,0.53,0.27,0.47,0.23,0.23,0.48,0.51,0.23,0.44,0.37,0.42,0.37,0.27,0.51,0.43,0.37,0.23,0.31,0.51,0.23,0.31,0.53,0.43,0.23,0.37,0.43,0.46,0.43,0.37,0.37,0.27,0.51,0.25,0.43,0.23,0.37,0.43,0.53,0.53,0.42,0.31,0.27,0.51,0.55,0.23,0.37,0.43,0.44,0.42,0.31,0.27,0.51,0.55,0.23,0.51,0.3,0.23,0.44,0.82,0.51,0.37,0.52,0.53,0.51,0.53,0.37,0.23" style="fill:rgb(0,0,0);font-family:MinionPro-Regular;font-size:9.0px;stroke:none;">reduction peak located at 0.9 V as shown in Fig. 5b ascribes to the reversible reduction reaction of amorphous </text>
   <text y="284.496" x="155.636,160.226" svgx:width="0.53,0.43" style="fill:rgb(0,0,0);font-family:MinionPro-Regular;font-size:9.0px;stroke:none;">Fe</text>
   <text y="286.3" x="164.053" svgx:width="0.48" style="fill:rgb(0,0,0);font-family:MinionPro-Regular;font-size:5.85px;stroke:none;">2</text>
   <text y="284.5" x="166.861" svgx:width="0.75" style="fill:rgb(0,0,0);font-family:MinionPro-Regular;font-size:9.0px;stroke:none;">O</text>
   <text y="286.3" x="173.584" svgx:width="0.48" style="fill:rgb(0,0,0);font-family:MinionPro-Regular;font-size:5.85px;stroke:none;">3</text>
   <text y="284.5" x="176.392,178.219,182.089,186.976,191.728,193.555,199.108,204.031,210.754,212.581,215.695,219.564,224.073,228.879,232.659,235.449,237.861,242.343,247.194,250.497,252.323,256.643,258.47,262.341,267.228,271.98,273.807,278.127,281.241,283.293,285.12,291.843,296.766,298.593,301.392,306.162,309.987,311.814,316.431,320.355,323.658,326.043,329.346,331.173,335.656,338.32,340.147,342.946,347.716,351.541,353.368,360.703,364.573,368.325,373.105,376.975,381.898,384.283,387.586,394.957,397.009,398.836,401.635,406.405,410.23,412.057,416.953,419.365,421.192,424.45,427.141,431.623,434.962,438.868,443.008,446.833,448.66,455.995,459.865,463.618,468.397,472.267,477.19,479.575,482.878,490.249,492.076,496.558,499.222,501.049,506.602,511.525,516.114" svgx:width="0.23,0.44,0.55,0.53,0.23,0.6,0.55,0.75,0.23,0.35,0.43,0.51,0.53,0.44,0.31,0.27,0.51,0.55,0.37,0.23,0.48,0.23,0.44,0.55,0.53,0.23,0.48,0.35,0.23,0.23,0.75,0.55,0.23,0.31,0.53,0.43,0.23,0.51,0.44,0.37,0.27,0.37,0.23,0.51,0.3,0.23,0.31,0.53,0.43,0.23,0.82,0.43,0.42,0.53,0.44,0.55,0.27,0.37,0.82,0.23,0.23,0.31,0.53,0.43,0.23,0.54,0.27,0.23,0.37,0.31,0.51,0.37,0.44,0.47,0.43,0.23,0.82,0.43,0.42,0.53,0.44,0.55,0.27,0.37,0.82,0.23,0.51,0.3,0.23,0.6,0.55,0.53,0.43" style="fill:rgb(0,0,0);font-family:MinionPro-Regular;font-size:9.0px;stroke:none;"> and ZnO (equations 8 and 9). On the basis of the mechanism, the Li storage mechanism of ZnFe</text>
   <text y="286.3" x="519.918" svgx:width="0.48" style="fill:rgb(0,0,0);font-family:MinionPro-Regular;font-size:5.85px;stroke:none;">2</text>
   <text y="284.5" x="522.726" svgx:width="0.75" style="fill:rgb(0,0,0);font-family:MinionPro-Regular;font-size:9.0px;stroke:none;">O</text>
   <text y="286.3" x="529.449" svgx:width="0.48" style="fill:rgb(0,0,0);font-family:MinionPro-Regular;font-size:5.85px;stroke:none;">4</text>
   <text y="284.5" x="532.257,534.084,536.496,541.419,543.246,546.045,550.815,554.64" svgx:width="0.23,0.27,0.55,0.23,0.31,0.53,0.43,0.23" style="fill:rgb(0,0,0);font-family:MinionPro-Regular;font-size:9.0px;stroke:none;"> in the </text>
   <text y="294.499" x="155.634,160.449,163.734,166.992,169.737,171.573,176.325,178.71,182.084,185.837,190.616,194.486,197.753,201.893,205.718,207.554,211.505,215.564,219.317,221.594,225.419,227.255,229.64,232.943,234.779,239.531,243.356,246.731,250.538,253.931,256.307,260.959,264.829,269.581,271.417,275.341,278.644,280.48,283.063,287.59,289.912,292.189,296.635,302.8" svgx:width="0.54,0.37,0.37,0.31,0.23,0.53,0.27,0.37,0.42,0.53,0.44,0.37,0.47,0.43,0.23,0.42,0.46,0.42,0.25,0.43,0.23,0.27,0.37,0.23,0.53,0.43,0.37,0.42,0.37,0.27,0.51,0.43,0.53,0.23,0.44,0.37,0.23,0.3,0.51,0.25,0.25,0.51,0.69,0.37" style="fill:rgb(0,0,0);font-family:MinionPro-Regular;font-size:9.0px;stroke:none;">first discharge cycle is described as follows</text>
   <text y="291.44" x="306.122,308.93" svgx:width="0.48,0.48" style="fill:rgb(0,0,0);font-family:MinionPro-Regular;font-size:5.85px;stroke:none;">38</text>
   <text y="294.5" x="311.738" svgx:width="0.23" style="fill:rgb(0,0,0);font-family:MinionPro-Regular;font-size:9.0px;stroke:none;">:</text>
  </g>
  <g begin="text">
   <text y="313.321" x="302.29,309.2554,316.405,318.9054,338.288,345.2534,352.403,354.90340000000003,370.259" svgx:width="0.78,0.55,0.28,0.55,0.78,0.55,0.28,0.55,1.0" style="fill:rgb(0,0,0);font-family:EuclidSymbol;font-size:8.93px;stroke:none;">+ . + . ↔</text>
   <text y="309.289" x="330.514,335.4592,362.77" svgx:width="0.78,0.55,0.78" style="fill:rgb(0,0,0);font-family:EuclidSymbol;font-size:6.34px;stroke:none;">+ −</text>
   <text y="315.625" x="392.436" svgx:width="0.28" style="fill:rgb(0,0,0);font-family:EuclidSymbol;font-size:6.34px;stroke:none;">.</text>
   <text y="313.321" x="267.154,272.627,277.519,282.126,285.9659,289.331,296.0285,312.079,316.3654,318.999,323.32,328.212,330.62309999999997,348.086,352.3724,354.996,359.318,363.1579,382.066,386.959,389.3701,397.619,403.092,407.984,412.591,416.4309,419.796" svgx:width="0.6,0.55,0.53,0.43,0.55,0.75,0.55,0.48,0.55,0.48,0.54,0.27,0.55,0.48,0.55,0.48,0.43,0.55,0.54,0.27,0.55,0.6,0.55,0.53,0.43,0.55,0.75" style="fill:rgb(0,0,0);font-family:MinionPro-Regular;font-size:8.93px;stroke:none;">ZnFe O 0 5Li 0 5e Li ZnFe O</text>
   <text y="314.187" x="544.208,547.377,551.698" svgx:width="0.35,0.48,0.35" style="fill:rgb(0,0,0);font-family:MinionPro-Regular;font-size:8.93px;stroke:none;">(4)</text>
   <text y="315.625" x="285.874,288.91720000000004,296.24,299.2832,389.265,392.3082,394.162,397.2052,416.338,419.38120000000004,426.704" svgx:width="0.48,0.55,0.48,0.55,0.48,0.55,0.48,0.55,0.48,0.55,0.48" style="fill:rgb(0,0,0);font-family:MinionPro-Regular;font-size:6.34px;stroke:none;">2 4 0 5 2 4</text>
  </g>
  <g begin="text">
   <text y="339.293" x="312.37,319.3354,326.485,328.9854,348.368,355.3334,362.483,364.9834,380.339" svgx:width="0.78,0.55,0.28,0.55,0.78,0.55,0.28,0.55,1.0" style="fill:rgb(0,0,0);font-family:EuclidSymbol;font-size:8.93px;stroke:none;">+ . + . ↔</text>
   <text y="341.597" x="272.05" svgx:width="0.28" style="fill:rgb(0,0,0);font-family:EuclidSymbol;font-size:6.34px;stroke:none;">.</text>
   <text y="335.261" x="340.593,345.5382,372.849" svgx:width="0.78,0.55,0.78" style="fill:rgb(0,0,0);font-family:EuclidSymbol;font-size:6.34px;stroke:none;">+ −</text>
   <text y="339.293" x="261.682,266.574,268.9851,277.234,282.707,287.6,292.207,296.0469,299.412,306.10949999999997,322.16,326.44640000000004,329.079,333.4,338.293,340.7041,358.167,362.4534,365.077,369.398,373.2379,392.147,397.039,399.45009999999996,402.807,408.28,413.172,417.779,421.6189,424.984" svgx:width="0.54,0.27,0.55,0.6,0.55,0.53,0.43,0.55,0.75,0.55,0.48,0.55,0.48,0.54,0.27,0.55,0.48,0.55,0.48,0.43,0.55,0.54,0.27,0.55,0.6,0.55,0.53,0.43,0.55,0.75" style="fill:rgb(0,0,0);font-family:MinionPro-Regular;font-size:8.93px;stroke:none;">Li ZnFe O 1 5Li 1 5e Li ZnFe O</text>
   <text y="340.159" x="544.217,547.387,551.708" svgx:width="0.35,0.48,0.35" style="fill:rgb(0,0,0);font-family:MinionPro-Regular;font-size:8.93px;stroke:none;">(5)</text>
   <text y="341.597" x="268.882,271.9252,273.78,276.8232,295.956,298.99920000000003,306.321,309.36420000000004,399.346,402.3892,421.522,424.5652,431.888" svgx:width="0.48,0.55,0.48,0.55,0.48,0.55,0.48,0.55,0.48,0.55,0.48,0.55,0.48" style="fill:rgb(0,0,0);font-family:MinionPro-Regular;font-size:6.34px;stroke:none;">0 5 2 4 2 2 4</text>
  </g>
  <g begin="text">
   <text y="365.265" x="303.298,310.2634,332.385,339.3504,357.446,366.37600000000003,393.738,400.7034,416.773" svgx:width="0.78,0.55,0.78,0.55,1.0,0.55,0.78,0.55,0.78" style="fill:rgb(0,0,0);font-family:EuclidSymbol;font-size:8.93px;stroke:none;">+ + → + +</text>
  </g>
  <g begin="text">
   <text y="361.233" x="324.61,329.5552,349.954" svgx:width="0.78,0.55,0.78" style="fill:rgb(0,0,0);font-family:EuclidSymbol;font-size:6.34px;stroke:none;">+ −</text>
   <text y="365.265" x="257.506,262.398,264.8091,268.166,273.639,278.531,283.138,286.9779,290.343,297.0405,313.092,317.413,322.305,324.7161,342.179,346.5,350.3399,369.249,373.57,378.462,380.87309999999997,384.221,390.9185,403.514,408.987,413.8985,426.557,430.879,435.486" svgx:width="0.54,0.27,0.55,0.6,0.55,0.53,0.43,0.55,0.75,0.55,0.48,0.54,0.27,0.55,0.48,0.43,0.55,0.48,0.54,0.27,0.55,0.75,0.55,0.6,0.55,0.55,0.48,0.53,0.43" style="fill:rgb(0,0,0);font-family:MinionPro-Regular;font-size:8.93px;stroke:none;">Li ZnFe O 6Li 6e 4Li O Zn 2Fe</text>
   <text y="366.131" x="544.059,547.228,551.549" svgx:width="0.35,0.48,0.35" style="fill:rgb(0,0,0);font-family:MinionPro-Regular;font-size:8.93px;stroke:none;">(6)</text>
   <text y="367.569" x="264.706,267.74920000000003,286.882,289.9252,297.247,300.2902,380.769" svgx:width="0.48,0.55,0.48,0.55,0.48,0.55,0.48" style="fill:rgb(0,0,0);font-family:MinionPro-Regular;font-size:6.34px;stroke:none;">2 2 4 2</text>
  </g>
  <g begin="text">
   <text y="391.237" x="298.402,305.3674,323.168,330.1334,343.908,352.838,365.799" svgx:width="0.78,0.55,0.78,0.55,1.0,0.55,0.78" style="fill:rgb(0,0,0);font-family:EuclidSymbol;font-size:8.93px;stroke:none;">+ + ↔ −</text>
  </g>
  <g begin="text">
   <text y="387.205" x="315.394,320.3392,336.417" svgx:width="0.78,0.55,0.78" style="fill:rgb(0,0,0);font-family:EuclidSymbol;font-size:6.34px;stroke:none;">+ −</text>
   <text y="391.237" x="285.154,290.627,295.5385,308.197,313.089,315.5001,332.963,336.8029,355.712,360.613,363.0241,375.585,381.058,385.9695,388.835,392.004,396.039,398.343,400.646,405.253,409.289" svgx:width="0.6,0.55,0.55,0.54,0.27,0.55,0.43,0.55,0.54,0.27,0.55,0.6,0.55,0.55,0.35,0.44,0.25,0.25,0.51,0.46,0.35" style="fill:rgb(0,0,0);font-family:MinionPro-Regular;font-size:8.93px;stroke:none;">Zn Li e Li Zn (alloy)</text>
   <text y="392.103" x="544.066,547.235,551.556" svgx:width="0.35,0.48,0.35" style="fill:rgb(0,0,0);font-family:MinionPro-Regular;font-size:8.93px;stroke:none;">(7)</text>
  </g>
  <g begin="text">
   <text y="408.388" x="167.638,170.549,175.459,177.182,179.968,184.724,188.54,190.263,192.833,197.347,199.655,201.919,206.351,212.531,214.929,219.767,223.965,225.689,228.897,232.754,236.493,241.26,245.116,248.37,252.613,255.012,259.849,264.052,265.775,270.369,273.579,278.236,282.03,285.841,289.086,292.375,294.418,296.141,298.926,303.684,307.495,309.218,311.788,315.6,318.979,322.359,324.649,327.327,331.143,332.865,340.187,344.701,346.965,350.821,354.678,359.488,361.752,365.563,367.287,371.107,374.964,379.873,384.748,389.225,391.957,393.68,398.32,402.131,403.855,407.063,410.92,414.713,419.146,423.228,427.04,430.248,434.105,438.843,440.567,444.424,449.298,454.036,455.76,458.545,463.302,467.113,468.837,472.045,475.911,479.848,483.705,486.482,488.881,493.349,498.187,501.476,503.2,507.056,510.266,514.077,515.8,520.394,523.604,528.18,532.424,535.632,539.444,542.689,546.051,549.907,554.659" svgx:width="0.34,0.55,0.23,0.31,0.53,0.43,0.23,0.3,0.51,0.25,0.25,0.51,0.69,0.27,0.55,0.47,0.23,0.37,0.43,0.42,0.53,0.44,0.37,0.47,0.27,0.55,0.47,0.23,0.52,0.37,0.51,0.42,0.43,0.37,0.37,0.23,0.23,0.31,0.53,0.43,0.23,0.3,0.43,0.37,0.37,0.27,0.31,0.43,0.23,0.82,0.51,0.25,0.43,0.42,0.53,0.25,0.43,0.23,0.42,0.44,0.55,0.55,0.51,0.31,0.23,0.51,0.43,0.23,0.37,0.43,0.42,0.51,0.46,0.43,0.37,0.43,0.53,0.23,0.44,0.55,0.53,0.23,0.31,0.53,0.43,0.23,0.37,0.43,0.44,0.42,0.31,0.27,0.51,0.55,0.37,0.23,0.44,0.37,0.43,0.23,0.52,0.37,0.51,0.47,0.37,0.43,0.37,0.37,0.43,0.53,0.23" style="fill:rgb(0,0,0);font-family:MinionPro-Regular;font-size:9.0px;stroke:none;">In the following recharging process, the ferrite molecule cannot be recovered and the reactions are progressed </text>
   <text y="418.387" x="155.641,159.565,162.868,164.704,167.287,171.814,174.136,176.413,180.859,187.024,190.327" svgx:width="0.44,0.37,0.23,0.3,0.51,0.25,0.25,0.51,0.69,0.37,0.23" style="fill:rgb(0,0,0);font-family:MinionPro-Regular;font-size:9.0px;stroke:none;">as follows:</text>
  </g>
  <g begin="text">
   <text y="437.209" x="295.378,302.3434,329.652,338.582,365.65,372.61539999999997,394.738" svgx:width="0.78,0.55,1.0,0.55,0.78,0.55,0.78" style="fill:rgb(0,0,0);font-family:EuclidSymbol;font-size:8.93px;stroke:none;">+ ↔ + +</text>
  </g>
  <g begin="text">
   <text y="433.177" x="386.962,391.9072,412.306" svgx:width="0.78,0.55,0.78" style="fill:rgb(0,0,0);font-family:EuclidSymbol;font-size:6.34px;stroke:none;">+ −</text>
   <text y="437.209" x="279.826,284.147,288.754,292.5939,305.172,309.494,314.386,316.7971,320.154,326.8515,341.465,346.072,349.9119,353.276,359.9735,375.445,379.766,384.658,387.0691,404.532,408.853" svgx:width="0.48,0.53,0.43,0.55,0.48,0.54,0.27,0.55,0.75,0.55,0.53,0.43,0.55,0.75,0.55,0.48,0.54,0.27,0.55,0.48,0.43" style="fill:rgb(0,0,0);font-family:MinionPro-Regular;font-size:8.93px;stroke:none;">2Fe 3Li O Fe O 6Li 6e</text>
   <text y="438.075" x="544.211,547.38,551.701" svgx:width="0.35,0.48,0.35" style="fill:rgb(0,0,0);font-family:MinionPro-Regular;font-size:8.93px;stroke:none;">(8)</text>
   <text y="439.513" x="316.69,319.7332,349.808,352.8512,359.889" svgx:width="0.48,0.55,0.48,0.55,0.48" style="fill:rgb(0,0,0);font-family:MinionPro-Regular;font-size:6.34px;stroke:none;">2 2 3</text>
  </g>
  <g begin="text">
   <text y="463.181" x="298.69,305.6554,328.643,337.573,360.32,367.2854,389.407" svgx:width="0.78,0.55,1.0,0.55,0.78,0.55,0.78" style="fill:rgb(0,0,0);font-family:EuclidSymbol;font-size:8.93px;stroke:none;">+ ↔ + +</text>
  </g>
  <g begin="text">
   <text y="459.149" x="381.634,386.5792,406.978" svgx:width="0.78,0.55,0.78" style="fill:rgb(0,0,0);font-family:EuclidSymbol;font-size:6.34px;stroke:none;">+ −</text>
   <text y="463.181" x="285.442,290.915,295.8265,308.485,313.378,315.78909999999996,319.145,325.8425,340.456,345.929,350.822,357.5195,370.124,374.445,379.338,381.7491,399.211,403.532" svgx:width="0.6,0.55,0.55,0.54,0.27,0.55,0.75,0.55,0.6,0.55,0.75,0.55,0.48,0.54,0.27,0.55,0.48,0.43" style="fill:rgb(0,0,0);font-family:MinionPro-Regular;font-size:8.93px;stroke:none;">Zn Li O ZnO 2Li 2e</text>
   <text y="464.047" x="544.077,547.246,551.568" svgx:width="0.35,0.48,0.35" style="fill:rgb(0,0,0);font-family:MinionPro-Regular;font-size:8.93px;stroke:none;">(9)</text>
   <text y="465.485" x="315.682" svgx:width="0.48" style="fill:rgb(0,0,0);font-family:MinionPro-Regular;font-size:6.34px;stroke:none;">2</text>
  </g>
  <g begin="text">
   <text y="480.332" x="167.638,177.319,181.225,183.34,185.698,188.08,190.957,195.844,198.36,202.219,205.087,207.58,212.14,217.144,219.259,223.208,228.173,233.006,235.121,239.954,243.821,246.179,248.562,251.438,256.325,258.842,262.701,265.569,268.062,272.622,277.626,279.741,282.402,286.963,290.383,292.498,298.006,302.848,309.652,311.767,318.037,320.419,323.297,328.184,330.299,334.211,338.285,340.643,344.531,347.024,351.999,355.857,358.725,361.218,365.778,370.782,372.897,375.666,379.572,386.85,391.725,395.631,399.051,402.91,405.643,410.503,413.803,417.709,421.093,423.208,426.403,431.911,436.753,443.557,446.842,451.243,455.644,460.045,462.178,464.293,469.801,474.643,481.447,484.732,489.133,493.534,497.935,500.068,502.183,506.132,511.097,515.93,518.045,523.553,528.395,535.199,538.484,542.885,547.286,551.687,554.801" svgx:width="1.07,0.43,0.23,0.25,0.27,0.31,0.53,0.27,0.44,0.31,0.27,0.51,0.55,0.23,0.44,0.55,0.53,0.23,0.53,0.43,0.25,0.27,0.31,0.53,0.27,0.44,0.31,0.27,0.51,0.55,0.23,0.3,0.51,0.37,0.23,0.6,0.53,0.75,0.23,0.69,0.27,0.31,0.53,0.23,0.42,0.44,0.25,0.42,0.27,0.55,0.44,0.31,0.27,0.51,0.55,0.23,0.31,0.43,0.82,0.52,0.43,0.37,0.44,0.31,0.53,0.37,0.43,0.37,0.23,0.35,0.6,0.53,0.75,0.36,0.48,0.48,0.48,0.23,0.23,0.6,0.53,0.75,0.36,0.48,0.48,0.48,0.23,0.23,0.44,0.55,0.53,0.23,0.6,0.53,0.75,0.36,0.48,0.48,0.48,0.35,0.23" style="fill:rgb(0,0,0);font-family:MinionPro-Regular;font-size:9.0px;stroke:none;">The lithiation and delithiation for ZFO with calcination temperatures (ZFO-400, ZFO-450, and ZFO-500) </text>
   <text y="490.331" x="155.641,159.511,162.733,166.558,168.322,172.147,175.405,178.195,180.607,187.951,191.731,194.422,198.292,203.044,204.808,209.236,213.367,215.131,219.082,223.141,226.894,229.171,231.583,235.39,237.154,241.249,245.776,247.945,250.744,254.614,261.985,269.32,273.145,275.934,279.534,283.665,285.429,290.19,292.602,296.814,301.593,304.815,308.64,310.408,314.674,318.994,321.046,322.81,332.414,336.239,338.003,341.954,346.013,349.765,352.042,354.454,358.261,360.025,364.12,368.648,370.817,373.615,377.486,384.857,392.191,396.781,401.038,404.377,408.247,415.546,418.849,420.613,423.727,429.712,436.039,439.342,442.456,444.22,450.412,452.716,455.515,460.321,462.085,464.362,466.666,469.465,474.271,476.575,481.354,488.725,490.489,493.747,496.438,500.92,504.259,508.165,512.305,516.13,517.894,522.502,525.724,530.215,535.011,538.836,542.265,545.055,547.467,551.292,554.595" svgx:width="0.44,0.37,0.43,0.23,0.43,0.37,0.31,0.27,0.82,0.44,0.31,0.43,0.53,0.23,0.51,0.46,0.23,0.42,0.46,0.42,0.25,0.27,0.42,0.23,0.46,0.51,0.25,0.31,0.44,0.82,0.82,0.43,0.31,0.37,0.46,0.23,0.53,0.27,0.47,0.53,0.37,0.43,0.23,0.47,0.48,0.23,0.23,1.07,0.43,0.23,0.42,0.46,0.42,0.25,0.27,0.42,0.23,0.46,0.51,0.25,0.31,0.44,0.82,0.82,0.51,0.47,0.37,0.44,0.82,0.37,0.23,0.35,0.67,0.7,0.37,0.35,0.23,0.69,0.27,0.31,0.53,0.23,0.25,0.27,0.31,0.53,0.27,0.53,0.82,0.23,0.37,0.31,0.51,0.37,0.44,0.47,0.43,0.23,0.52,0.37,0.51,0.52,0.43,0.37,0.31,0.27,0.43,0.37,0.23" style="fill:rgb(0,0,0);font-family:MinionPro-Regular;font-size:9.0px;stroke:none;">are estimated by cyclic voltammetry Figure S4. The cyclic voltammograms (CVs) with lithium storage properties </text>
   <text y="500.33" x="155.641,161.735,165.56,168.783,172.608,174.552,178.387,182.258,185.651,189.045,191.457,195.327,200.079,202.023,206.514,211.186,213.931,215.875,219.656,222.401,224.345,228.296,230.24,233.616,237.45,241.321,246.244,248.188,251.527,255.308,257.999,261.824,263.768,268.25,270.914,272.858,277.178,279.23,283.55,284.656,292.027,298.354,299.479" svgx:width="0.69,0.43,0.37,0.43,0.23,0.42,0.44,0.37,0.37,0.27,0.43,0.53,0.23,0.51,0.53,0.31,0.23,0.44,0.31,0.23,0.44,0.23,0.37,0.42,0.44,0.55,0.23,0.37,0.44,0.31,0.43,0.23,0.51,0.3,0.23,0.48,0.23,0.48,0.23,0.82,0.7,0.23,0.37" style="fill:rgb(0,0,0);font-family:MinionPro-Regular;font-size:9.0px;stroke:none;">were carried out at a scan rate of 0.5 mV s</text>
   <text y="497.272" x="302.785" svgx:width="0.78" style="fill:rgb(0,0,0);font-family:EuclidSymbol;font-size:5.85px;stroke:none;">−</text>
   <text y="497.272" x="307.336" svgx:width="0.48" style="fill:rgb(0,0,0);font-family:MinionPro-Regular;font-size:5.85px;stroke:none;">1</text>
   <text y="500.332" x="310.145,312.089,314.501,319.424,321.368,324.168,328.938,332.763,334.707,338.803,343.33,345.5,348.3,352.206,356.346,360.171,362.115,365.454,369.325,374.176,378.317,382.142,384.086,388.569,391.233,393.177,397.497,399.549,403.869,408.189,410.133,412.825,417.415,419.359,423.679,424.787,431.114,433.058,437.153,440.978,444.263,447.522,452.275,455.578,457.522,462.419,464.831,467.81,472.707" svgx:width="0.23,0.27,0.55,0.23,0.31,0.53,0.43,0.23,0.46,0.51,0.25,0.31,0.44,0.47,0.43,0.23,0.37,0.44,0.55,0.47,0.43,0.23,0.51,0.3,0.23,0.48,0.23,0.48,0.48,0.23,0.31,0.51,0.23,0.48,0.23,0.7,0.23,0.46,0.43,0.37,0.37,0.53,0.37,0.23,0.54,0.27,0.33,0.54,0.27" style="fill:rgb(0,0,0);font-family:MinionPro-Regular;font-size:9.0px;stroke:none;"> in the voltage range of 0.01 to 3 V versus Li/Li</text>
   <text y="497.272" x="475.118" svgx:width="0.78" style="fill:rgb(0,0,0);font-family:EuclidSymbol;font-size:5.85px;stroke:none;">+</text>
   <text y="500.332" x="479.67,481.722,483.666,488.427,490.839,495.051,499.83,503.052,506.877,508.818,513.084,517.404,519.348,522.616,527.387,531.833,537.998,541.301,543.245,546.045,550.815,554.641" svgx:width="0.23,0.23,0.53,0.27,0.47,0.53,0.37,0.43,0.23,0.47,0.48,0.23,0.37,0.53,0.51,0.69,0.37,0.23,0.31,0.53,0.43,0.23" style="fill:rgb(0,0,0);font-family:MinionPro-Regular;font-size:9.0px;stroke:none;">. Figure S4 shows the </text>
   <text y="510.331" x="155.634,160.449,163.737,166.998,169.743,171.687,174.49,179.296,182.521,186.394,190.219,192.163,198.148,204.475,206.419,210.293,215.072,218.674,222.773,226.598,229.901,231.845,236.33,238.994,240.938,243.74,248.513,252.338,254.282,259.709,264.47,271.193,274.397,278.717,283.037,287.357,289.409,291.353,296.78,301.541,308.264,311.468,315.788,320.108,324.428,326.48,328.424,332.298,337.187,341.939,343.883,349.31,354.071,360.794,363.998,368.318,372.638,376.958,379.01,380.954,384.18,388.005,391.266,396.066,399.939,403.812,406.604,408.957,413.055,416.847,419.064,422.541,424.593,426.537,432.786,435.111,437.388,439.332,444.096,447.879,450.538,453.231,457.056,460.453,465.307,468.61,470.554,475.039,477.703,479.647,485.632,491.959,493.903,497.777,502.556,506.159,510.256,514.081,517.384,519.328,523.202,526.427,530.252,532.195,537.086,540.968,544.84,548.147,550.364,554.495" svgx:width="0.54,0.37,0.37,0.31,0.23,0.31,0.53,0.37,0.43,0.43,0.23,0.67,0.7,0.23,0.42,0.53,0.37,0.46,0.43,0.37,0.23,0.51,0.3,0.23,0.31,0.53,0.43,0.23,0.6,0.53,0.75,0.36,0.48,0.48,0.48,0.23,0.23,0.6,0.53,0.75,0.36,0.48,0.48,0.48,0.23,0.23,0.44,0.55,0.53,0.23,0.6,0.53,0.75,0.36,0.48,0.48,0.48,0.23,0.23,0.37,0.43,0.37,0.52,0.43,0.42,0.31,0.27,0.46,0.43,0.25,0.46,0.23,0.23,0.69,0.25,0.25,0.23,0.52,0.44,0.31,0.31,0.43,0.37,0.55,0.37,0.23,0.51,0.3,0.23,0.67,0.7,0.23,0.42,0.53,0.37,0.46,0.43,0.37,0.23,0.44,0.37,0.43,0.23,0.55,0.43,0.44,0.37,0.25,0.46,0.23" style="fill:rgb(0,0,0);font-family:MinionPro-Regular;font-size:9.0px;stroke:none;">first three CV curves of the ZFO-400, ZFO-450, and ZFO-500, respectively. All patterns of CV curves are nearly </text>
   <text y="520.33" x="155.634,159.586,164.564,168.642,171.0,175.671,179.893,184.467,189.301,192.685,194.818,196.942,203.694,208.222,214.397,218.376,222.553,226.459,229.314,231.447,233.571,236.452,241.305,245.211,247.335,251.287,256.147,259.622,262.926,266.832,271.665,274.491,276.615,279.956,284.816,288.291,291.036,295.068,298.956,302.862,304.986,309.55,312.295,314.419,319.927,324.769,331.573,334.858,339.259,343.66,348.061,350.185,352.652,356.036,358.16,365.442,370.302,374.137,379.024,381.148,383.534,387.485,390.834,395.056,398.962,402.382,404.506,408.512,411.896,414.02,417.908,422.473,429.755,434.598,438.55,441.854,445.806,450.639,452.763,455.536,460.207,462.331,465.212,470.073,473.935,476.761,478.885,483.449,486.194,488.318,493.826,498.668,505.472,508.757,513.158,517.559,521.96,524.084,528.648,532.068,534.192,539.7,544.542,551.346" svgx:width="0.44,0.55,0.44,0.25,0.51,0.47,0.51,0.53,0.37,0.23,0.23,0.77,0.51,0.69,0.43,0.46,0.43,0.37,0.23,0.23,0.31,0.53,0.43,0.23,0.42,0.53,0.37,0.37,0.43,0.55,0.31,0.23,0.37,0.53,0.37,0.3,0.44,0.42,0.43,0.23,0.51,0.3,0.23,0.6,0.53,0.75,0.36,0.48,0.48,0.48,0.23,0.27,0.37,0.23,0.82,0.53,0.42,0.53,0.23,0.25,0.44,0.37,0.47,0.43,0.37,0.23,0.44,0.37,0.23,0.42,0.51,0.82,0.52,0.44,0.37,0.43,0.53,0.23,0.31,0.51,0.23,0.31,0.53,0.44,0.31,0.23,0.51,0.3,0.23,0.6,0.53,0.75,0.36,0.48,0.48,0.48,0.23,0.51,0.37,0.23,0.6,0.53,0.75,0.36" style="fill:rgb(0,0,0);font-family:MinionPro-Regular;font-size:9.0px;stroke:none;">analogous. However, the current surface of ZFO-450 is much larger as compared to that of ZFO-400 or ZFO-</text>
   <text y="530.329" x="155.634,159.99,164.346,168.702,170.79,172.77,175.218,180.14,184.928,187.376,191.245,195.06,197.886,200.334,205.22,209.468,211.448,214.282,219.088,222.949,224.929,228.79,233.793,238.607,242.513,247.436,251.279,255.184,259.972,261.947,265.771,268.084,271.989,275.894,278.72,281.977,286.684,290.472,295.277,299.138,306.545,308.993,312.862,316.893,319.206,321.186,326.018,329.879,333.307,335.926,340.443,343.872,351.252,355.157,360.079,363.922,367.783,369.758,374.222,378.389,380.369,383.069,387.028,390.322,393.103,395.083,398.871,403.686,407.592,410.894,415.069,418.93,420.91,423.735,427.11,431.016,435.902,439.241,441.86,445.721,448.528,450.616,452.592,455.553,460.512,462.492,465.326,470.131,473.992,475.972,480.823,484.143,487.437,490.218,492.198,496.184,500.278,504.066,506.379,510.24,512.22,516.737,519.437,521.417,526.88,531.677,538.436,541.676,546.032,550.388,554.709" svgx:width="0.48,0.48,0.48,0.23,0.23,0.27,0.55,0.53,0.27,0.42,0.44,0.31,0.27,0.55,0.47,0.23,0.31,0.53,0.43,0.23,0.43,0.55,0.53,0.44,0.55,0.42,0.43,0.53,0.23,0.43,0.25,0.43,0.42,0.31,0.37,0.51,0.42,0.53,0.43,0.82,0.27,0.42,0.44,0.25,0.23,0.52,0.43,0.37,0.3,0.51,0.37,0.82,0.44,0.55,0.42,0.43,0.23,0.51,0.46,0.23,0.3,0.44,0.37,0.31,0.23,0.42,0.53,0.44,0.37,0.47,0.43,0.23,0.31,0.37,0.44,0.55,0.37,0.3,0.43,0.37,0.23,0.23,0.34,0.55,0.23,0.31,0.53,0.43,0.23,0.54,0.37,0.37,0.31,0.23,0.42,0.46,0.42,0.25,0.43,0.23,0.51,0.3,0.23,0.6,0.53,0.75,0.36,0.48,0.48,0.48,0.23" style="fill:rgb(0,0,0);font-family:MinionPro-Regular;font-size:9.0px;stroke:none;">500, indicating the enhanced electrochemical performance by fast charge transfer. In the first cycle of ZFO-450 </text>
   <text y="540.328" x="155.634,158.748,163.509,165.921,170.133,174.912,178.134,181.959,183.763,188.029,192.349,196.921,200.035,202.087,203.896,206.694,211.464,215.289,217.098,222.651,227.574,232.164" svgx:width="0.35,0.53,0.27,0.47,0.53,0.37,0.43,0.23,0.47,0.48,0.51,0.35,0.23,0.23,0.31,0.53,0.43,0.23,0.6,0.55,0.53,0.43" style="fill:rgb(0,0,0);font-family:MinionPro-Regular;font-size:9.0px;stroke:none;">(Figure S4b), the ZnFe</text>
   <text y="542.132" x="235.986" svgx:width="0.48" style="fill:rgb(0,0,0);font-family:MinionPro-Regular;font-size:5.85px;stroke:none;">2</text>
   <text y="540.332" x="238.794" svgx:width="0.75" style="fill:rgb(0,0,0);font-family:MinionPro-Regular;font-size:9.0px;stroke:none;">O</text>
   <text y="542.132" x="245.517" svgx:width="0.48" style="fill:rgb(0,0,0);font-family:MinionPro-Regular;font-size:5.85px;stroke:none;">4</text>
   <text y="540.332" x="248.325,250.134,254.787,259.566,263.49,266.865,270.69,272.494,274.879,278.182,279.991,282.78,286.119,289.989,294.84,298.143,300.726,305.208,308.601,315.936,319.806,324.558,326.363,329.054,333.644,335.453,338.252,343.022,346.847,348.651,353.547" svgx:width="0.23,0.52,0.53,0.44,0.37,0.43,0.23,0.27,0.37,0.23,0.31,0.37,0.44,0.55,0.37,0.3,0.51,0.37,0.82,0.43,0.53,0.23,0.31,0.51,0.23,0.31,0.53,0.43,0.23,0.54,0.27" style="fill:rgb(0,0,0);font-family:MinionPro-Regular;font-size:9.0px;stroke:none;"> phase is transformed to the Li</text>
   <text y="542.132" x="355.949,358.757,360.091" svgx:width="0.48,0.23,0.48" style="fill:rgb(0,0,0);font-family:MinionPro-Regular;font-size:5.85px;stroke:none;">0.5</text>
   <text y="540.332" x="362.898,368.451,373.374,377.964" svgx:width="0.6,0.55,0.53,0.43" style="fill:rgb(0,0,0);font-family:MinionPro-Regular;font-size:9.0px;stroke:none;">ZnFe</text>
   <text y="542.132" x="381.789" svgx:width="0.48" style="fill:rgb(0,0,0);font-family:MinionPro-Regular;font-size:5.85px;stroke:none;">2</text>
   <text y="540.332" x="384.597" svgx:width="0.75" style="fill:rgb(0,0,0);font-family:MinionPro-Regular;font-size:9.0px;stroke:none;">O</text>
   <text y="542.132" x="391.32" svgx:width="0.48" style="fill:rgb(0,0,0);font-family:MinionPro-Regular;font-size:5.85px;stroke:none;">4</text>
   <text y="540.332" x="394.128,395.937,400.59,405.369,409.293,412.668,416.493,418.298,421.412,427.028,430.853,435.109,437.521,442.003,446.926,448.735,451.804,454.918,456.722,459.134,464.057,465.866,468.665,473.435,477.26,479.065,482.404,486.274,491.125,495.265,499.09,500.899,505.381,508.045,509.849,514.169,516.221,520.541,522.35,525.041,529.631,531.436,535.756,537.808,542.128,546.448,547.551,552.582,554.634" svgx:width="0.23,0.52,0.53,0.44,0.37,0.43,0.23,0.35,0.62,0.43,0.47,0.27,0.51,0.55,0.23,0.34,0.35,0.23,0.27,0.55,0.23,0.31,0.53,0.43,0.23,0.37,0.44,0.55,0.47,0.43,0.23,0.51,0.3,0.23,0.48,0.23,0.48,0.23,0.31,0.51,0.23,0.48,0.23,0.48,0.48,0.23,0.7,0.23,0.23" style="fill:rgb(0,0,0);font-family:MinionPro-Regular;font-size:9.0px;stroke:none;"> phase (Region I) in the range of 1.5 to 0.85 V, </text>
   <text y="550.331" x="155.637,159.594,164.567,169.404,171.546,174.432,179.288,183.199,188.212,190.354,195.336" svgx:width="0.44,0.55,0.53,0.23,0.31,0.53,0.43,0.55,0.23,0.54,0.27" style="fill:rgb(0,0,0);font-family:MinionPro-Regular;font-size:9.0px;stroke:none;">and then Li</text>
   <text y="552.132" x="197.827,200.693,202.083" svgx:width="0.48,0.23,0.48" style="fill:rgb(0,0,0);font-family:MinionPro-Regular;font-size:5.85px;stroke:none;">0.5</text>
   <text y="550.332" x="204.945,210.584,215.592,220.272" svgx:width="0.6,0.55,0.53,0.43" style="fill:rgb(0,0,0);font-family:MinionPro-Regular;font-size:9.0px;stroke:none;">ZnFe</text>
   <text y="552.132" x="224.18" svgx:width="0.48" style="fill:rgb(0,0,0);font-family:MinionPro-Regular;font-size:5.85px;stroke:none;">2</text>
   <text y="550.332" x="227.044" svgx:width="0.75" style="fill:rgb(0,0,0);font-family:MinionPro-Regular;font-size:9.0px;stroke:none;">O</text>
   <text y="552.132" x="233.853" svgx:width="0.48" style="fill:rgb(0,0,0);font-family:MinionPro-Regular;font-size:5.85px;stroke:none;">4</text>
   <text y="550.332" x="236.717,238.859,243.597,248.463,252.473,255.935,259.85,261.992,264.463,267.856,269.998,272.873,276.302,280.259,285.195,288.588,291.258,295.825,299.305,306.726,310.681,315.523,317.665,320.443,325.118,327.26,330.146,335.001,338.916,341.058,346.041" svgx:width="0.23,0.52,0.53,0.44,0.37,0.43,0.23,0.27,0.37,0.23,0.31,0.37,0.44,0.55,0.37,0.3,0.51,0.37,0.82,0.43,0.53,0.23,0.31,0.51,0.23,0.31,0.53,0.43,0.23,0.54,0.27" style="fill:rgb(0,0,0);font-family:MinionPro-Regular;font-size:9.0px;stroke:none;"> phase is transformed to the Li</text>
   <text y="552.132" x="348.504" svgx:width="0.48" style="fill:rgb(0,0,0);font-family:MinionPro-Regular;font-size:5.85px;stroke:none;">2</text>
   <text y="550.332" x="351.368,357.007,362.016,366.696" svgx:width="0.6,0.55,0.53,0.43" style="fill:rgb(0,0,0);font-family:MinionPro-Regular;font-size:9.0px;stroke:none;">ZnFe</text>
   <text y="552.132" x="370.603" svgx:width="0.48" style="fill:rgb(0,0,0);font-family:MinionPro-Regular;font-size:5.85px;stroke:none;">2</text>
   <text y="550.332" x="373.467" svgx:width="0.75" style="fill:rgb(0,0,0);font-family:MinionPro-Regular;font-size:9.0px;stroke:none;">O</text>
   <text y="552.132" x="380.276" svgx:width="0.48" style="fill:rgb(0,0,0);font-family:MinionPro-Regular;font-size:5.85px;stroke:none;">4</text>
   <text y="550.332" x="383.14,385.282,390.021,394.886,398.896,402.358,406.273,408.415,410.917,415.93,418.072,420.957,425.814,429.729,431.871,435.3,439.256,444.193,448.419,452.334,454.476,459.044,461.794,463.936,468.346,470.483,474.893,479.303,481.445,484.222,488.902,491.044,495.454,497.591,502.001,503.155,509.572,511.714,514.914,520.616,524.527,528.87,531.367,535.936,540.949,543.091,546.25,549.404,552.608,554.66" svgx:width="0.23,0.52,0.53,0.44,0.37,0.43,0.23,0.27,0.55,0.23,0.31,0.53,0.43,0.23,0.37,0.44,0.55,0.47,0.43,0.23,0.51,0.3,0.23,0.48,0.23,0.48,0.48,0.23,0.31,0.51,0.23,0.48,0.23,0.48,0.23,0.7,0.23,0.35,0.62,0.43,0.47,0.27,0.51,0.55,0.23,0.34,0.34,0.35,0.23,0.23" style="fill:rgb(0,0,0);font-family:MinionPro-Regular;font-size:9.0px;stroke:none;"> phase in the range of 0.85 to 0.7 V (Region II). </text>
   <text y="560.331" x="155.638,165.329,169.244,171.386,173.888,178.727,181.504,185.419,190.357,193.819,197.734,199.876,203.797,207.664,210.55,215.406,220.165,225.007,227.509,231.406,233.548,238.431,242.397,246.48,251.034,253.176,255.543,260.3,264.22,268.088,270.866,274.822,279.664,281.806,285.674,288.509" svgx:width="1.07,0.43,0.23,0.27,0.55,0.31,0.43,0.55,0.37,0.43,0.23,0.42,0.44,0.31,0.53,0.51,0.53,0.27,0.42,0.23,0.52,0.43,0.44,0.5,0.23,0.25,0.51,0.42,0.44,0.31,0.43,0.53,0.23,0.44,0.31,0.23" style="fill:rgb(0,0,0);font-family:MinionPro-Regular;font-size:9.0px;stroke:none;">The intense cathodic peak located at </text>
   <text y="560.331" x="290.651" svgx:width="0.78" style="fill:rgb(0,0,0);font-family:EuclidSymbol;font-size:9.0px;stroke:none;">∼</text>
   <text y="560.331" x="297.712,297.802,302.212,304.354,308.764,313.174,314.371,320.788,322.93,326.941,330.403,334.3,337.779,340.243,344.982,348.897,352.29,354.432,357.209,361.889,364.031,366.917,371.774,375.689,377.831,381.14,385.097,389.828,394.697,398.654,401.531,404.033,408.602,413.615,415.757,420.326,423.08,425.222,429.899" svgx:width="0.23,0.48,0.23,0.48,0.48,0.23,0.7,0.23,0.44,0.37,0.42,0.37,0.27,0.51,0.43,0.37,0.23,0.31,0.51,0.23,0.31,0.53,0.43,0.23,0.37,0.43,0.53,0.53,0.42,0.31,0.27,0.51,0.55,0.23,0.51,0.3,0.23,0.53,0.43" style="fill:rgb(0,0,0);font-family:MinionPro-Regular;font-size:9.0px;stroke:none;"> 0.47 V ascribes to the reduction of Fe</text>
   <text y="557.272" x="433.784" svgx:width="0.48" style="fill:rgb(0,0,0);font-family:MinionPro-Regular;font-size:5.85px;stroke:none;">3</text>
   <text y="557.272" x="436.651" svgx:width="0.78" style="fill:rgb(0,0,0);font-family:EuclidSymbol;font-size:5.85px;stroke:none;">+</text>
   <text y="560.332" x="441.262,443.402,445.544,450.224" svgx:width="0.23,0.23,0.53,0.43" style="fill:rgb(0,0,0);font-family:MinionPro-Regular;font-size:9.0px;stroke:none;">, Fe</text>
   <text y="557.272" x="454.132" svgx:width="0.48" style="fill:rgb(0,0,0);font-family:MinionPro-Regular;font-size:5.85px;stroke:none;">2</text>
   <text y="557.272" x="456.999" svgx:width="0.78" style="fill:rgb(0,0,0);font-family:EuclidSymbol;font-size:5.85px;stroke:none;">+</text>
   <text y="560.332" x="461.61,463.752,465.894,469.852,474.825,479.667,481.809,487.448" svgx:width="0.23,0.23,0.44,0.55,0.53,0.23,0.6,0.55" style="fill:rgb(0,0,0);font-family:MinionPro-Regular;font-size:9.0px;stroke:none;">, and Zn</text>
   <text y="557.272" x="492.454" svgx:width="0.48" style="fill:rgb(0,0,0);font-family:MinionPro-Regular;font-size:5.85px;stroke:none;">2</text>
   <text y="557.272" x="495.32" svgx:width="0.78" style="fill:rgb(0,0,0);font-family:EuclidSymbol;font-size:5.85px;stroke:none;">+</text>
   <text y="560.332" x="499.932,502.074,504.851,509.529,511.671,516.351" svgx:width="0.23,0.31,0.51,0.23,0.53,0.43" style="fill:rgb(0,0,0);font-family:MinionPro-Regular;font-size:9.0px;stroke:none;"> to Fe</text>
   <text y="557.272" x="520.26" svgx:width="0.48" style="fill:rgb(0,0,0);font-family:MinionPro-Regular;font-size:5.85px;stroke:none;">0</text>
   <text y="560.332" x="523.125,525.267,529.227,534.201,539.04,541.182,546.821" svgx:width="0.23,0.44,0.55,0.53,0.23,0.6,0.55" style="fill:rgb(0,0,0);font-family:MinionPro-Regular;font-size:9.0px;stroke:none;"> and Zn</text>
   <text y="557.272" x="551.83" svgx:width="0.48" style="fill:rgb(0,0,0);font-family:MinionPro-Regular;font-size:5.85px;stroke:none;">0</text>
   <text y="560.332" x="554.638" svgx:width="0.23" style="fill:rgb(0,0,0);font-family:MinionPro-Regular;font-size:9.0px;stroke:none;"> </text>
   <text y="570.331" x="155.641,159.568,164.512,169.318,171.356,174.672,179.472,184.098,187.53,191.457,196.023,200.856,204.735,209.543,212.342,214.381,217.237,222.063,225.942,227.98,230.62,235.159,238.609,246.01,249.847,252.695,255.161,259.699,264.676,266.715,271.254,273.972,276.01,280.963,283.429,288.163,293.773,298.75,300.788,304.841,307.22,309.551,314.053,318.238,321.595,323.634,327.56,332.504,337.31,339.349,344.301" svgx:width="0.44,0.55,0.53,0.23,0.37,0.53,0.51,0.37,0.43,0.51,0.53,0.43,0.55,0.31,0.23,0.31,0.53,0.43,0.23,0.3,0.51,0.37,0.82,0.44,0.31,0.27,0.51,0.55,0.23,0.51,0.3,0.23,0.54,0.27,0.52,0.6,0.55,0.23,0.44,0.25,0.25,0.51,0.46,0.37,0.23,0.44,0.55,0.53,0.23,0.54,0.27" style="fill:rgb(0,0,0);font-family:MinionPro-Regular;font-size:9.0px;stroke:none;">and subsequent the formation of Li–Zn alloys and Li</text>
   <text y="572.132" x="346.818" svgx:width="0.48" style="fill:rgb(0,0,0);font-family:MinionPro-Regular;font-size:5.85px;stroke:none;">2</text>
   <text y="570.332" x="349.663,356.083,358.189,360.227,366.53,368.837,372.269,376.655,378.761,380.798,383.655,388.482,392.361,394.399,398.921,402.2,406.891,410.896,415.702,417.741,422.594,426.531,430.584,435.102,437.14,440.497,442.858,445.571,450.433,454.271,457.019,460.945,465.751,467.789,471.627,474.426,476.464,481.738,486.112,488.218,492.592,496.966,498.19,504.571,506.609,511.415,513.857,517.271,521.108,525.782,530.636,534.572,538.499,541.841,545.198,547.236,549.702,554.625" svgx:width="0.75,0.23,0.23,0.69,0.25,0.37,0.51,0.23,0.23,0.31,0.53,0.43,0.23,0.51,0.37,0.51,0.44,0.53,0.23,0.52,0.43,0.44,0.5,0.23,0.37,0.27,0.31,0.53,0.44,0.31,0.43,0.53,0.23,0.44,0.31,0.23,0.58,0.48,0.23,0.48,0.48,0.23,0.7,0.23,0.53,0.27,0.37,0.44,0.52,0.52,0.43,0.44,0.37,0.37,0.23,0.27,0.55,0.23" style="fill:rgb(0,0,0);font-family:MinionPro-Regular;font-size:9.0px;stroke:none;">O. Also, the broad peak situated at ~0.47 V disappears in </text>
   <text y="580.331" x="155.641,158.491,163.313,167.192,169.208,171.843,176.422,178.795,181.126,185.624,191.868,194.334,199.236,203.502,205.518,209.521,213.631,217.437,219.768,223.647,227.004,229.11,231.126,233.592,238.53,243.336,245.802,249.688,253.52,256.362,258.828,263.73,267.996,270.012,272.862,277.684,281.563,283.579,286.045,289.49,292.764,296.712,300.859,304.738,308.074,311.431,313.858,318.419,320.75,324.629,326.645,329.92,333.85,337.855,341.776,344.618,347.084,351.618,356.595,358.611,362.496,366.328,371.132,374.559,378.48,383.286,385.302,389.781,393.966,395.982,398.833,403.655,407.534,409.55,412.184,416.718,420.163,427.559,431.39,434.232,436.698,441.232,446.209,448.225,452.76,455.478,457.494,461.499,463.515,466.941,471.52,473.851,476.317,481.123,483.139,486.98,489.311,493.233,497.154,499.996,503.269,507.849,510.114,514.299,517.041,520.92,522.936,525.402,530.207,532.949,536.828,540.272,542.99,546.995,550.856,554.681" svgx:width="0.31,0.53,0.43,0.23,0.3,0.51,0.25,0.25,0.51,0.69,0.27,0.55,0.47,0.23,0.42,0.46,0.42,0.25,0.43,0.37,0.23,0.23,0.27,0.55,0.53,0.27,0.42,0.44,0.31,0.27,0.55,0.47,0.23,0.31,0.53,0.43,0.23,0.27,0.37,0.37,0.43,0.46,0.43,0.37,0.37,0.27,0.51,0.25,0.43,0.23,0.37,0.43,0.44,0.42,0.31,0.27,0.51,0.55,0.23,0.42,0.44,0.53,0.37,0.43,0.53,0.23,0.51,0.46,0.23,0.31,0.53,0.43,0.23,0.3,0.51,0.37,0.82,0.44,0.31,0.27,0.51,0.55,0.23,0.51,0.3,0.23,0.44,0.23,0.37,0.51,0.25,0.27,0.53,0.23,0.43,0.25,0.43,0.42,0.31,0.37,0.51,0.25,0.46,0.31,0.43,0.23,0.27,0.55,0.31,0.43,0.37,0.3,0.44,0.42,0.43,0.23" style="fill:rgb(0,0,0);font-family:MinionPro-Regular;font-size:9.0px;stroke:none;">the following cycles, indicating the irreversible reaction caused by the formation of a solid electrolyte interface </text>
   <text y="590.33" x="155.641,158.746,162.891,167.994,171.054,174.159,175.887,178.179,181.956,186.002,189.818,193.148,194.876,197.279,202.154,206.786,211.556,215.354,217.757,222.596,226.799,228.527,231.314,236.071,239.887,241.615,245.413,249.883,254.722,257.968,262.738,269.926,274.531,277.308,279.711,284.181,289.095,290.823,295.292,297.947,299.675,303.491,307.655,311.453,315.269,318.515,321.809,323.537,325.805,328.097,330.883,335.68,337.972,342.742,350.104,351.832,354.235,358.704,363.618,365.661,367.389,370.303,375.217,376.945,379.731,384.489,388.305,390.033,393.28,398.05,401.848,405.646,409.503,413.361,418.104,420.507,425.346,429.549,431.277,435.215,439.262,443.003,445.271,449.087,452.381,454.424,456.152,460.622,465.497,469.313,471.041,475.493,478.702,483.325,487.267,492.01,493.738,496.947,500.805,505.437,510.207,514.064,516.842,519.245,523.716,528.63,530.358,535.143,539.009,542.993,547.448,549.176,551.548,554.851" svgx:width="0.35,0.47,0.57,0.34,0.35,0.23,0.25,0.44,0.46,0.43,0.37,0.23,0.27,0.55,0.53,0.53,0.42,0.27,0.55,0.47,0.23,0.31,0.53,0.43,0.23,0.42,0.51,0.55,0.37,0.53,0.82,0.52,0.31,0.27,0.51,0.55,0.23,0.51,0.3,0.23,0.43,0.47,0.42,0.43,0.37,0.37,0.23,0.25,0.27,0.31,0.53,0.27,0.53,0.82,0.23,0.27,0.51,0.55,0.23,0.23,0.34,0.55,0.23,0.31,0.53,0.43,0.23,0.37,0.53,0.42,0.42,0.43,0.43,0.53,0.27,0.55,0.47,0.23,0.42,0.46,0.42,0.25,0.43,0.37,0.23,0.23,0.51,0.55,0.43,0.23,0.51,0.37,0.51,0.44,0.53,0.23,0.37,0.43,0.53,0.53,0.42,0.31,0.27,0.51,0.55,0.23,0.52,0.43,0.44,0.5,0.23,0.27,0.37,0.23" style="fill:rgb(0,0,0);font-family:MinionPro-Regular;font-size:9.0px;stroke:none;">(SEI) layer inducing the consumption of excess lithium ion. In the succeeding cycles, one broad reduction peak is </text>
   <text y="600.329" x="155.641,160.204,164.794,168.186,172.029,175.646,179.759,183.647,188.417,190.379,194.177,196.94,198.902,203.24,205.31,209.648,210.784,215.833,217.903,219.865,223.186,225.616,229.89,234.831,237.261,240.095,244.271,246.701,251.569,255.799,257.761,260.578,265.365,269.208,271.17,274.41,278.325,282.437,286.28,289.582,292.903,295.297,299.824,302.119,305.962,307.924,311.164,315.051,319.713,324.51,328.398,331.206,333.636,338.135,343.076,345.038,349.538,352.22,354.182,358.069,365.422,369.922,373.368,378.039,382.827,387.335,392.105,395.426,397.388,401.996" svgx:width="0.51,0.51,0.37,0.43,0.37,0.46,0.43,0.53,0.23,0.44,0.31,0.23,0.48,0.23,0.48,0.23,0.7,0.23,0.23,0.37,0.27,0.47,0.55,0.27,0.3,0.46,0.27,0.55,0.47,0.23,0.31,0.53,0.43,0.23,0.37,0.43,0.46,0.43,0.37,0.37,0.27,0.51,0.25,0.43,0.23,0.37,0.43,0.53,0.53,0.42,0.31,0.27,0.51,0.55,0.23,0.51,0.3,0.23,0.44,0.82,0.51,0.37,0.52,0.53,0.51,0.53,0.37,0.23,0.53,0.43" style="fill:rgb(0,0,0);font-family:MinionPro-Regular;font-size:9.0px;stroke:none;">observed at 0.9 V, signifying the reversible reduction of amorphous Fe</text>
   <text y="602.132" x="405.806" svgx:width="0.48" style="fill:rgb(0,0,0);font-family:MinionPro-Regular;font-size:5.85px;stroke:none;">2</text>
   <text y="600.332" x="408.625" svgx:width="0.75" style="fill:rgb(0,0,0);font-family:MinionPro-Regular;font-size:9.0px;stroke:none;">O</text>
   <text y="602.132" x="415.366" svgx:width="0.48" style="fill:rgb(0,0,0);font-family:MinionPro-Regular;font-size:5.85px;stroke:none;">3</text>
   <text y="600.332" x="418.186,420.148,424.036,428.941,433.711,435.673,441.243,446.184,452.925,454.887,458.019,461.907,466.434,471.257,475.055,477.863,480.293,484.793,489.662,492.983,494.941,499.279,501.241,505.129,510.034,514.804,516.766,521.104,524.236,526.306,528.268,534.945,539.742,543.153,545.583,550.452,554.664" svgx:width="0.23,0.44,0.55,0.53,0.23,0.6,0.55,0.75,0.23,0.35,0.43,0.51,0.53,0.44,0.31,0.27,0.51,0.55,0.37,0.23,0.48,0.23,0.44,0.55,0.53,0.23,0.48,0.35,0.23,0.23,0.74,0.53,0.37,0.27,0.55,0.47,0.23" style="fill:rgb(0,0,0);font-family:MinionPro-Regular;font-size:9.0px;stroke:none;"> and ZnO (equations 8 and 9). During </text>
   <text y="610.331" x="155.638,158.494,163.322,167.201,169.244,173.171,178.117,182.846,187.652,190.118,193.979,196.022,200.687,203.967,208.695,212.556,216.435,219.751,223.108,225.214,227.257,231.796,236.741,240.62,242.663,245.979,248.826,252.106,256.646,261.555,265.821,267.864,272.368,276.67,279.136,283.972,287.81,290.657,293.123,297.663,302.64,304.683,309.537,313.473,317.527,322.045,324.088,326.531,329.888,331.931,336.533,341.159,344.592,348.471,352.128,356.281,360.209,365.015,367.058,370.896,373.695,375.738,380.112,382.218,386.592,390.966,392.212,397.3,399.406,401.449,407.735,412.595,415.061,418.871,423.731,425.774,429.702,432.982,436.861,438.904,442.765,447.305,452.282,457.227,461.154,465.081,467.83,471.757,476.563,478.606,484.856,487.217,490.074,494.934,496.977,499.834,504.661,508.54,510.583,515.087,519.389,521.855,526.691,530.529,533.377,535.843,540.382,545.359,547.402,551.943,554.606" svgx:width="0.31,0.53,0.43,0.23,0.44,0.55,0.51,0.53,0.27,0.42,0.23,0.52,0.37,0.51,0.42,0.43,0.37,0.37,0.23,0.23,0.51,0.55,0.43,0.23,0.37,0.31,0.37,0.51,0.55,0.47,0.23,0.51,0.47,0.27,0.53,0.44,0.31,0.27,0.51,0.55,0.23,0.52,0.43,0.44,0.5,0.23,0.27,0.37,0.23,0.51,0.51,0.37,0.43,0.37,0.46,0.43,0.53,0.23,0.44,0.31,0.23,0.48,0.23,0.48,0.48,0.23,0.7,0.23,0.23,0.69,0.53,0.27,0.42,0.53,0.23,0.44,0.37,0.43,0.23,0.42,0.51,0.55,0.55,0.43,0.42,0.31,0.43,0.53,0.23,0.69,0.27,0.31,0.53,0.23,0.31,0.53,0.43,0.23,0.51,0.47,0.27,0.53,0.44,0.31,0.27,0.51,0.55,0.23,0.51,0.3,0.23" style="fill:rgb(0,0,0);font-family:MinionPro-Regular;font-size:9.0px;stroke:none;">the anodic process, one strong oxidation peak is observed at 1.68 V, which are connected with the oxidation of </text>
   <text y="620.33" x="155.638,161.191" svgx:width="0.6,0.55" style="fill:rgb(0,0,0);font-family:MinionPro-Regular;font-size:9.0px;stroke:none;">Zn</text>
   <text y="617.272" x="166.114" svgx:width="0.48" style="fill:rgb(0,0,0);font-family:MinionPro-Regular;font-size:5.85px;stroke:none;">0</text>
   <text y="620.332" x="168.922,170.686,174.556,179.443,184.195,185.959,190.549" svgx:width="0.23,0.44,0.55,0.53,0.23,0.53,0.43" style="fill:rgb(0,0,0);font-family:MinionPro-Regular;font-size:9.0px;stroke:none;"> and Fe</text>
   <text y="617.272" x="194.372" svgx:width="0.48" style="fill:rgb(0,0,0);font-family:MinionPro-Regular;font-size:5.85px;stroke:none;">0</text>
   <text y="620.332" x="197.18,198.944,201.635,206.224,207.988,213.541" svgx:width="0.23,0.31,0.51,0.23,0.6,0.55" style="fill:rgb(0,0,0);font-family:MinionPro-Regular;font-size:9.0px;stroke:none;"> to Zn</text>
   <text y="617.272" x="218.462" svgx:width="0.48" style="fill:rgb(0,0,0);font-family:MinionPro-Regular;font-size:5.85px;stroke:none;">2</text>
   <text y="617.272" x="221.27" svgx:width="0.78" style="fill:rgb(0,0,0);font-family:EuclidSymbol;font-size:5.85px;stroke:none;">+</text>
   <text y="620.332" x="225.822,227.586,231.456,236.343,241.095,242.859,247.449" svgx:width="0.23,0.44,0.55,0.53,0.23,0.53,0.43" style="fill:rgb(0,0,0);font-family:MinionPro-Regular;font-size:9.0px;stroke:none;"> and Fe</text>
   <text y="617.272" x="251.271" svgx:width="0.48" style="fill:rgb(0,0,0);font-family:MinionPro-Regular;font-size:5.85px;stroke:none;">3</text>
   <text y="617.272" x="254.079" svgx:width="0.78" style="fill:rgb(0,0,0);font-family:EuclidSymbol;font-size:5.85px;stroke:none;">+</text>
   <text y="620.332" x="258.631,260.683,262.447,265.669,269.494,272.752,277.549,281.418,285.288,288.078,290.427,294.522,298.311,300.525,303.999,306.051,307.815,310.74,315.663,317.427,320.225,324.995,328.82,330.584,334.418,338.198,340.997,345.767,350.438,355.19,357.602,361.409,363.173,367.781,371.003,375.674,379.481,383.306,386.564,389.867,391.631,396.113,398.777,400.541" svgx:width="0.23,0.23,0.37,0.43,0.37,0.52,0.43,0.42,0.31,0.27,0.46,0.43,0.25,0.46,0.23,0.23,0.34,0.55,0.23,0.31,0.53,0.43,0.23,0.42,0.44,0.31,0.53,0.51,0.53,0.27,0.42,0.23,0.52,0.37,0.51,0.42,0.43,0.37,0.37,0.23,0.51,0.3,0.23,0.48" style="fill:rgb(0,0,0);font-family:MinionPro-Regular;font-size:9.0px;stroke:none;">, respectively. In the cathodic process of 2</text>
   <text y="617.272" x="404.853,408.029" svgx:width="0.55,0.53" style="fill:rgb(0,0,0);font-family:MinionPro-Regular;font-size:5.85px;stroke:none;">nd</text>
   <text y="620.332" x="411.118,412.882,416.752,421.639,426.391,428.155,430.954,435.724,439.549,441.313" svgx:width="0.23,0.44,0.55,0.53,0.23,0.31,0.53,0.43,0.23,0.48" style="fill:rgb(0,0,0);font-family:MinionPro-Regular;font-size:9.0px;stroke:none;"> and the 3</text>
   <text y="617.272" x="445.63,447.724" svgx:width="0.37,0.53" style="fill:rgb(0,0,0);font-family:MinionPro-Regular;font-size:5.85px;stroke:none;">rd</text>
   <text y="620.332" x="450.813,452.577,456.528,460.587,464.34,466.617,470.387,472.439,474.203,477.002,481.772,485.597,487.361,494.705,498.575,500.987,505.91,507.674,512.47,516.349,520.345,524.809,528.112,529.876,533.143,537.949,540.361,545.599,547.363,550.053,554.643" svgx:width="0.23,0.42,0.46,0.42,0.25,0.43,0.23,0.23,0.31,0.53,0.43,0.23,0.82,0.44,0.27,0.55,0.23,0.52,0.43,0.44,0.5,0.37,0.23,0.37,0.53,0.27,0.58,0.23,0.31,0.51,0.23" style="fill:rgb(0,0,0);font-family:MinionPro-Regular;font-size:9.0px;stroke:none;"> cycle, the main peaks shift to </text>
   <text y="630.331" x="155.64,159.519,164.172,168.663,173.334,176.079,177.906,182.226,184.278,188.598,189.723,195.393,197.445,199.272,202.071,206.841,210.666,214.041,217.866,219.693,222.96,227.766,230.178,235.416,238.719,240.546,244.416,247.638,251.463,253.29,258.042,261.912,265.737,270.39,272.604,276.735,278.562,281.784,285.573,287.85,291.747,295.914,299.784,304.536,307.281,309.108,311.798,316.388,318.215,321.014,325.784,329.609,331.436,335.315,339.239,342.542,346.673,348.5,353.297,357.824,360.128,363.998,367.391,369.803,373.583,377.363,380.152,382.564,387.046,391.969,393.796,397.666,402.553,407.305,409.132,411.931,416.701,420.526,422.353,426.142,428.419,432.289,436.159,438.948,442.17,446.841,450.594,455.364,459.189,466.56,468.972,472.806,476.801,479.078,480.905,484.127,488.024,492.119,495.944,499.228,502.531,504.907,509.371,511.828,514.105,516.409,519.181,523.312,525.139,529.009,534.193,538.018,541.357,543.184,545.983,550.753,554.578" svgx:width="0.44,0.51,0.51,0.53,0.31,0.23,0.48,0.23,0.48,0.23,0.7,0.23,0.23,0.31,0.53,0.43,0.37,0.43,0.23,0.37,0.53,0.27,0.58,0.37,0.23,0.44,0.37,0.43,0.23,0.53,0.43,0.43,0.52,0.25,0.46,0.23,0.37,0.43,0.25,0.43,0.46,0.44,0.55,0.31,0.23,0.31,0.51,0.23,0.31,0.53,0.43,0.23,0.43,0.44,0.37,0.46,0.23,0.52,0.51,0.25,0.44,0.37,0.27,0.42,0.44,0.31,0.27,0.51,0.55,0.23,0.44,0.55,0.53,0.23,0.31,0.53,0.43,0.23,0.43,0.25,0.43,0.42,0.31,0.37,0.51,0.42,0.53,0.43,0.82,0.27,0.42,0.44,0.25,0.23,0.37,0.43,0.46,0.43,0.37,0.37,0.27,0.51,0.27,0.25,0.27,0.31,0.46,0.23,0.44,0.58,0.43,0.37,0.23,0.31,0.53,0.43,0.23" style="fill:rgb(0,0,0);font-family:MinionPro-Regular;font-size:9.0px;stroke:none;">about 0.9 V; these shifts are deeply relevant to the easy polarization and the electrochemical reversibility after the </text>
   <text y="640.33" x="155.64,158.061,162.993,165.31,168.111,170.563,174.571,176.857,178.81,182.774,186.846,190.611,192.897,196.731,200.043,202.104,204.057,213.673,217.507,219.46,224.221,226.618,229.889,232.691,235.112,240.011,243.894,246.696,249.117,253.611,258.475,261.787,263.74,268.234,270.907,272.86,280.217,284.1,286.521,291.453,293.406,298.215,302.107,306.115,310.588,313.9,315.853,318.556,323.155,325.108,329.923,332.344,336.631,341.413,345.247,348.595,350.548,354.656,359.196,361.377,364.188,368.107,372.259,376.093,378.046,381.929,385.163,388.997,390.95,395.711,399.593,403.427,408.093,410.319,414.459,416.412,420.349,423.62,427.006,431.69,435.506,437.957,441.749,444.453,448.335,453.096,455.049,461.254,463.57,466.381,471.196,473.149,475.961,480.776,483.197,488.129,490.082,492.884,496.289,498.606,503.271,505.557,509.391,512.604,515.884,520.667,524.467,526.802,529.088,532.97,537.731,539.684,544.465,549.005,551.291" svgx:width="0.27,0.55,0.27,0.31,0.27,0.44,0.25,0.23,0.42,0.46,0.42,0.25,0.43,0.37,0.23,0.23,1.07,0.43,0.23,0.53,0.27,0.37,0.31,0.27,0.55,0.42,0.31,0.27,0.51,0.55,0.37,0.23,0.51,0.3,0.23,0.82,0.44,0.27,0.55,0.23,0.52,0.43,0.44,0.5,0.37,0.23,0.31,0.51,0.23,0.53,0.27,0.47,0.53,0.43,0.37,0.23,0.46,0.51,0.25,0.31,0.44,0.47,0.43,0.23,0.44,0.37,0.43,0.23,0.53,0.43,0.43,0.52,0.25,0.46,0.23,0.44,0.37,0.37,0.51,0.42,0.27,0.44,0.31,0.43,0.53,0.23,0.69,0.27,0.31,0.53,0.23,0.31,0.53,0.27,0.55,0.23,0.31,0.37,0.27,0.52,0.25,0.43,0.36,0.37,0.53,0.43,0.25,0.25,0.43,0.53,0.23,0.53,0.51,0.25,0.36" style="fill:rgb(0,0,0);font-family:MinionPro-Regular;font-size:9.0px;stroke:none;">initial cycles. The distinctions of main peaks to higher voltage are deeply associated with thin triple-shelled hol-</text>
   <text y="650.329" x="155.64,157.917,162.363,168.528,170.373,177.744,180.156,183.963,187.185,191.775,195.033,199.686,204.456,208.281,211.503,215.328,218.631,220.476,226.668,228.972,231.771,236.577,238.422,242.247,246.495,249.285,252.507,256.332,263.667,267.456,269.67,273.801,275.646,282.981,286.806,290.181,294.672,299.469,303.951,307.173,311.664,316.415,319.718,321.563,324.821,327.611,331.04,335.819,339.688,342.343,347.122,350.344,354.115,356.167,358.012,362.908,369.0,373.59,375.435,379.305,384.192,388.863,393.615,396.027,399.834,401.679,406.476,410.355,414.351,418.815,422.118,423.963,426.375,431.298,433.143,435.942,440.712,444.537,446.382,449.181,453.987,456.399,459.621,464.373,466.218,470.168,474.227,477.98,480.257,484.082,485.927,489.923,492.173,495.547,500.137,501.982,505.249,510.055,512.467,517.705,519.55,522.241,526.831,528.676,532.546,535.768,540.259,545.038,549.925,554.677" svgx:width="0.25,0.51,0.69,0.23,0.82,0.27,0.42,0.37,0.51,0.37,0.52,0.53,0.43,0.37,0.43,0.37,0.23,0.69,0.27,0.31,0.53,0.23,0.43,0.47,0.31,0.37,0.43,0.82,0.43,0.25,0.46,0.23,0.82,0.43,0.37,0.51,0.52,0.51,0.37,0.51,0.53,0.37,0.23,0.37,0.31,0.37,0.53,0.42,0.31,0.53,0.37,0.43,0.23,0.23,0.62,0.69,0.51,0.23,0.44,0.55,0.51,0.53,0.27,0.42,0.23,0.52,0.43,0.44,0.5,0.37,0.23,0.27,0.55,0.23,0.31,0.53,0.43,0.23,0.31,0.53,0.27,0.37,0.53,0.23,0.42,0.46,0.42,0.25,0.43,0.23,0.44,0.25,0.37,0.51,0.23,0.37,0.53,0.27,0.58,0.23,0.31,0.51,0.23,0.44,0.37,0.51,0.53,0.55,0.53,0.23" style="fill:rgb(0,0,0);font-family:MinionPro-Regular;font-size:9.0px;stroke:none;">low microspheres with extremely mesoporous structure. Two anodic peaks in the third cycle also shift to around </text>
   <text y="660.328" x="155.64,159.96,162.012,166.332,170.652,171.777,178.104,179.94,183.162,186.987,191.595,194.816,198.641,202.016,205.841,210.593,213.383,215.795,220.646,224.858,226.694,230.572,234.496,237.799,241.93,243.766,248.563,253.09,255.394,259.264,262.657,265.069,268.849,272.629,275.418,277.83,282.312,287.235" svgx:width="0.48,0.23,0.48,0.48,0.23,0.7,0.23,0.37,0.43,0.52,0.37,0.43,0.37,0.43,0.55,0.31,0.27,0.55,0.47,0.23,0.43,0.44,0.37,0.46,0.23,0.52,0.51,0.25,0.44,0.37,0.27,0.42,0.44,0.31,0.27,0.51,0.55,0.23" style="fill:rgb(0,0,0);font-family:MinionPro-Regular;font-size:9.0px;stroke:none;">1.73 V representing easy polarization.</text>
   <text y="670.327" x="167.637,177.386,181.355,183.704,187.8,192.005,195.905,198.326,200.882,204.833,207.182,212.125,216.094,219.633,222.361,226.989,230.528,238.018,242.034,247.066,251.017,254.986,258.433,260.782,264.799,269.832,274.728,277.077,281.028,285.665,290.634,293.055,297.683,305.11,309.721,312.277,316.228,318.577,322.546,329.872,333.823,336.379,340.348,345.381,349.332,351.888,355.857,359.303,361.652,364.381,369.01,372.493,374.842,380.413,385.318,392.133,395.58,397.929,401.412,405.429,410.425,414.828,417.384,422.381,426.737,429.086,431.986,435.354,439.981,447.496,449.845,454.309,456.505,460.969,465.433,467.782,470.619,475.353,477.702,482.166,483.51,489.981,492.33,496.256,499.145,501.494,505.589,507.938,512.888,515.444,519.865,524.815,527.164,531.179,536.102,539.641,543.009,546.978,551.876,554.621" svgx:width="1.07,0.43,0.23,0.42,0.46,0.42,0.25,0.27,0.42,0.23,0.52,0.43,0.37,0.3,0.51,0.37,0.82,0.44,0.55,0.42,0.43,0.37,0.23,0.44,0.55,0.53,0.23,0.42,0.51,0.53,0.25,0.51,0.82,0.51,0.27,0.42,0.23,0.43,0.8,0.42,0.27,0.43,0.55,0.42,0.27,0.43,0.37,0.23,0.3,0.51,0.37,0.23,0.6,0.53,0.75,0.37,0.23,0.37,0.44,0.55,0.47,0.27,0.55,0.47,0.23,0.3,0.37,0.51,0.82,0.23,0.48,0.23,0.48,0.48,0.23,0.31,0.51,0.23,0.48,0.23,0.7,0.23,0.44,0.31,0.23,0.44,0.23,0.53,0.27,0.47,0.53,0.23,0.42,0.53,0.37,0.37,0.43,0.55,0.31,0.23" style="fill:rgb(0,0,0);font-family:MinionPro-Regular;font-size:9.0px;stroke:none;">The cyclic performances and coulombic efficiencies for ZFOs ranging from 0.01 to 3 V at a high current </text>
   <text y="680.326" x="155.64,160.473,164.374,169.303,172.682,175.064,177.912,182.124,184.23,188.631,189.822,196.122,198.228" svgx:width="0.53,0.43,0.55,0.37,0.27,0.31,0.46,0.23,0.48,0.23,0.69,0.23,0.47" style="fill:rgb(0,0,0);font-family:MinionPro-Regular;font-size:9.0px;stroke:none;">density 2 A g</text>
   <text y="677.272" x="202.516" svgx:width="0.78" style="fill:rgb(0,0,0);font-family:EuclidSymbol;font-size:5.85px;stroke:none;">−</text>
   <text y="677.272" x="207.12" svgx:width="0.48" style="fill:rgb(0,0,0);font-family:MinionPro-Regular;font-size:5.85px;stroke:none;">1</text>
   <text y="680.332" x="209.98,212.087,216.033,219.332,223.234,225.34,227.873,230.273,232.518,237.348,240.682,243.55,246.97,250.826,253.594,257.541,262.374,264.48,266.973,271.973,274.078,278.916,281.409,285.725,287.858,289.965,294.366,296.495,298.601,304.528,307.35,309.456,312.332,317.179,321.08,323.186,328.082,331.444,334.779,337.6,339.706,343.734,347.87,351.7,354.058,357.905,360.038,362.144,365.02,369.867,373.769,375.875,380.703,383.166,386.617,390.448,395.304,399.25,402.595,406.811,410.717,412.823,416.735,420.591,425.43,429.457,433.345,435.726,438.593,441.082,444.988,448.367,450.473,453.889,457.836,462.882,467.422,469.528,473.529,476.913,479.041,481.147,486.651,491.493,498.292,501.577,505.978,510.375,514.776,516.882,520.077,524.473,526.606,531.007,535.404,539.805,540.974,548.421,554.64,554.645" svgx:width="0.23,0.44,0.37,0.43,0.23,0.27,0.25,0.25,0.53,0.37,0.31,0.37,0.44,0.31,0.43,0.53,0.23,0.27,0.55,0.23,0.53,0.27,0.47,0.23,0.23,0.48,0.23,0.23,0.69,0.31,0.23,0.31,0.53,0.43,0.23,0.54,0.37,0.37,0.31,0.23,0.42,0.46,0.42,0.25,0.43,0.23,0.23,0.31,0.53,0.43,0.23,0.53,0.27,0.37,0.42,0.53,0.44,0.37,0.47,0.43,0.23,0.42,0.44,0.52,0.44,0.42,0.27,0.31,0.27,0.43,0.37,0.23,0.37,0.44,0.55,0.5,0.23,0.44,0.37,0.23,0.23,0.6,0.53,0.75,0.36,0.48,0.48,0.48,0.23,0.35,0.48,0.23,0.48,0.48,0.48,0.23,0.82,0.69,0.23,0.23" style="fill:rgb(0,0,0);font-family:MinionPro-Regular;font-size:9.0px;stroke:none;"> are illustrated in Fig. 6. At the first cycle, the discharge capacities rank as: ZFO-450 (1,412 mA </text>
   <text y="690.331" x="155.648,160.454,162.317" svgx:width="0.53,0.23,0.47" style="fill:rgb(0,0,0);font-family:MinionPro-Regular;font-size:9.0px;stroke:none;">h g</text>
   <text y="687.272" x="166.52" svgx:width="0.78" style="fill:rgb(0,0,0);font-family:EuclidSymbol;font-size:5.85px;stroke:none;">−</text>
   <text y="687.272" x="171.071" svgx:width="0.48" style="fill:rgb(0,0,0);font-family:MinionPro-Regular;font-size:5.85px;stroke:none;">1</text>
   <text y="690.332" x="173.879,176.993" svgx:width="0.35,0.23" style="fill:rgb(0,0,0);font-family:MinionPro-Regular;font-size:9.0px;stroke:none;">) </text>
   <text y="690.332" x="178.118" svgx:width="0.78" style="fill:rgb(0,0,0);font-family:EuclidSymbol;font-size:9.0px;stroke:none;">&gt;</text>
   <text y="690.332" x="185.12,185.12,186.245,191.672,196.433,203.156,206.36,210.68,215.0,219.32,221.183,224.297,228.617,230.669,234.989,239.309,243.629,244.754,252.125,258.344,260.207,265.013,266.876" svgx:width="0.23,0.23,0.6,0.53,0.75,0.36,0.48,0.48,0.48,0.23,0.35,0.48,0.23,0.48,0.48,0.48,0.23,0.82,0.69,0.23,0.53,0.23,0.47" style="fill:rgb(0,0,0);font-family:MinionPro-Regular;font-size:9.0px;stroke:none;"> ZFO-400 (1,188 mA h g</text>
   <text y="687.272" x="271.088" svgx:width="0.78" style="fill:rgb(0,0,0);font-family:EuclidSymbol;font-size:5.85px;stroke:none;">−</text>
   <text y="687.272" x="275.64" svgx:width="0.48" style="fill:rgb(0,0,0);font-family:MinionPro-Regular;font-size:5.85px;stroke:none;">1</text>
   <text y="690.332" x="278.448,281.562" svgx:width="0.35,0.23" style="fill:rgb(0,0,0);font-family:MinionPro-Regular;font-size:9.0px;stroke:none;">) </text>
   <text y="690.332" x="282.687" svgx:width="0.78" style="fill:rgb(0,0,0);font-family:EuclidSymbol;font-size:9.0px;stroke:none;">&gt;</text>
   <text y="690.332" x="289.689,289.689,290.814,296.241,301.002,307.725,310.929,315.249,319.569,323.889,325.752,328.866,333.186,335.238,339.558,343.878,348.198,349.323,356.694,362.913,364.038,368.844,370.708" svgx:width="0.23,0.23,0.6,0.53,0.75,0.36,0.48,0.48,0.48,0.23,0.35,0.48,0.23,0.48,0.48,0.48,0.23,0.82,0.69,0.23,0.53,0.23,0.47" style="fill:rgb(0,0,0);font-family:MinionPro-Regular;font-size:9.0px;stroke:none;"> ZFO-500 (1,120 mA h g</text>
   <text y="687.272" x="374.919" svgx:width="0.78" style="fill:rgb(0,0,0);font-family:EuclidSymbol;font-size:5.85px;stroke:none;">−</text>
   <text y="687.272" x="379.47" svgx:width="0.48" style="fill:rgb(0,0,0);font-family:MinionPro-Regular;font-size:5.85px;stroke:none;">1</text>
   <text y="690.332" x="382.278,385.392,387.444,389.307,395.535,400.341,402.798,405.075,408.9,410.763,413.561,418.331,422.156,424.019,427.826,432.317,437.141,439.418,443.9,451.181,455.645,458.057,461.864,463.727,467.552,474.734,478.541,480.953,484.778,489.664,493.471,495.883,499.708,503.011,504.874,508.213,512.084,517.051,521.515,523.378,527.302,530.605,532.657,534.52,539.947,544.708,551.431" svgx:width="0.35,0.23,0.23,0.69,0.53,0.27,0.25,0.43,0.23,0.31,0.53,0.43,0.23,0.42,0.51,0.53,0.25,0.51,0.82,0.51,0.27,0.42,0.23,0.43,0.8,0.42,0.27,0.43,0.55,0.42,0.27,0.43,0.37,0.23,0.37,0.44,0.55,0.5,0.23,0.44,0.37,0.23,0.23,0.6,0.53,0.75,0.36" style="fill:rgb(0,0,0);font-family:MinionPro-Regular;font-size:9.0px;stroke:none;">), while the coulombic efficiencies rank as: ZFO-</text>
   <text y="700.331" x="155.64,160.059,164.478,168.897,171.093,174.306,178.725,183.144,190.047,193.26" svgx:width="0.48,0.48,0.48,0.23,0.35,0.48,0.48,0.76,0.35,0.23" style="fill:rgb(0,0,0);font-family:MinionPro-Regular;font-size:9.0px;stroke:none;">450 (78%) </text>
   <text y="700.331" x="194.502" svgx:width="0.78" style="fill:rgb(0,0,0);font-family:EuclidSymbol;font-size:9.0px;stroke:none;">&gt;</text>
   <text y="700.331" x="201.612,201.711,202.935,208.461,213.321,220.143,223.446,227.865,232.284,236.703,238.896,242.109,246.528,250.947,257.85,261.063" svgx:width="0.23,0.23,0.6,0.53,0.75,0.36,0.48,0.48,0.48,0.23,0.35,0.48,0.48,0.76,0.35,0.23" style="fill:rgb(0,0,0);font-family:MinionPro-Regular;font-size:9.0px;stroke:none;"> ZFO-500 (76%) </text>
   <text y="700.331" x="262.317" svgx:width="0.78" style="fill:rgb(0,0,0);font-family:EuclidSymbol;font-size:9.0px;stroke:none;">&gt;</text>
   <text y="700.331" x="269.427,269.529,270.75,276.276,281.136,287.958,291.261,295.68,300.099,304.518,306.714,309.927,314.346,318.765,325.668,328.881,331.032,333.228,342.932,346.856,349.052,354.578,359.438,366.26,369.563,373.982,378.401,382.82,385.016,388.897,391.741,393.937,396.837,401.708,405.632,407.828,412.247,416.666" svgx:width="0.23,0.23,0.6,0.53,0.75,0.36,0.48,0.48,0.48,0.23,0.35,0.48,0.48,0.76,0.35,0.23,0.23,1.07,0.43,0.23,0.6,0.53,0.75,0.36,0.48,0.48,0.48,0.23,0.44,0.31,0.23,0.31,0.53,0.43,0.23,0.48,0.48,0.48" style="fill:rgb(0,0,0);font-family:MinionPro-Regular;font-size:9.0px;stroke:none;"> ZFO-400 (74%). The ZFO-450 at the 200</text>
   <text y="697.272" x="421.136,423.02" svgx:width="0.31,0.53" style="fill:rgb(0,0,0);font-family:MinionPro-Regular;font-size:5.85px;stroke:none;">th</text>
   <text y="700.332" x="426.211,428.407,432.459,436.619,440.473,442.849,446.773,448.969,453.82,456.306,459.666,464.419,466.825,470.715,474.945,478.347,480.543,483.444,488.315,492.239,494.435,499.027,503.799,506.643,510.002,512.903,516.873,521.862,526.713,529.224,534.176,538.487,540.683,545.534,548.02,551.422" svgx:width="0.23,0.42,0.46,0.42,0.25,0.43,0.23,0.53,0.27,0.37,0.52,0.25,0.44,0.46,0.37,0.23,0.31,0.53,0.43,0.23,0.51,0.53,0.31,0.37,0.31,0.44,0.55,0.53,0.27,0.55,0.47,0.23,0.53,0.27,0.37,0.36" style="fill:rgb(0,0,0);font-family:MinionPro-Regular;font-size:9.0px;stroke:none;"> cycle displays the outstanding dis-</text>
   <text y="710.331" x="155.635,159.433,164.258,168.174,171.486,175.672,179.542,181.54,185.419,189.244,194.05,198.046,201.898,204.248,207.065,211.241,213.239,217.154,222.087,226.884,228.882,232.752,236.973,240.825,244.695,249.358,252.193,254.65,259.177,264.119,268.16,270.482,272.48,276.359,280.184,284.991,288.987,292.839,295.188,298.006,302.182,304.18,307.448,311.318,314.055,317.925,322.722,325.557,328.014,332.541,337.509,339.606,341.604,344.575,349.543,351.541,355.537,360.334,365.131,367.48,370.316,372.773,377.301,382.269,384.366,386.364,391.062,394.932,399.234,401.691,406.659,411.627,414.084,418.981,423.238,425.236,428.035,431.303,435.831,443.247,445.245,449.115,453.337,457.189,461.024,463.391,465.713,469.583,474.38,477.17,479.168,483.965,486.395,489.816,493.614,498.439,502.354,505.667,509.852,513.722,515.72,519.599,523.425,528.231,532.227,536.079,538.428,541.246,545.422,547.42,551.948,554.612" svgx:width="0.42,0.53,0.44,0.37,0.47,0.43,0.23,0.42,0.44,0.52,0.44,0.42,0.27,0.31,0.46,0.23,0.44,0.55,0.53,0.23,0.43,0.47,0.42,0.43,0.52,0.31,0.27,0.51,0.55,0.44,0.25,0.23,0.42,0.44,0.52,0.44,0.42,0.27,0.31,0.46,0.23,0.37,0.43,0.31,0.43,0.55,0.31,0.27,0.51,0.55,0.23,0.23,0.34,0.55,0.23,0.44,0.53,0.53,0.27,0.31,0.27,0.51,0.55,0.23,0.23,0.51,0.43,0.47,0.27,0.55,0.55,0.27,0.55,0.47,0.23,0.3,0.37,0.51,0.82,0.23,0.43,0.47,0.42,0.43,0.25,0.25,0.43,0.55,0.31,0.23,0.53,0.27,0.37,0.42,0.53,0.44,0.37,0.47,0.43,0.23,0.42,0.44,0.52,0.44,0.42,0.27,0.31,0.46,0.23,0.51,0.3,0.23" style="fill:rgb(0,0,0);font-family:MinionPro-Regular;font-size:9.0px;stroke:none;">charge capacity and exceptional capacity retention. In addition, beginning from excellent discharge capacity of </text>
   <text y="720.33" x="155.635,160.018,164.401,168.784,173.167,174.364,181.798,188.08,190.15,195.019,197.089" svgx:width="0.48,0.48,0.48,0.48,0.23,0.82,0.69,0.23,0.53,0.23,0.47" style="fill:rgb(0,0,0);font-family:MinionPro-Regular;font-size:9.0px;stroke:none;">1184 mA h g</text>
   <text y="717.272" x="201.375" svgx:width="0.78" style="fill:rgb(0,0,0);font-family:EuclidSymbol;font-size:5.85px;stroke:none;">−</text>
   <text y="717.272" x="205.973" svgx:width="0.48" style="fill:rgb(0,0,0);font-family:MinionPro-Regular;font-size:5.85px;stroke:none;">1</text>
   <text y="720.332" x="208.824,210.894,214.739,217.547,219.617,222.482,227.317,231.205,233.275" svgx:width="0.23,0.44,0.31,0.23,0.31,0.53,0.43,0.23,0.48" style="fill:rgb(0,0,0);font-family:MinionPro-Regular;font-size:9.0px;stroke:none;"> at the 2</text>
   <text y="717.272" x="237.658,240.875" svgx:width="0.55,0.53" style="fill:rgb(0,0,0);font-family:MinionPro-Regular;font-size:5.85px;stroke:none;">nd</text>
   <text y="720.332" x="244.008,246.078,250.095,254.22,258.038,260.378,264.213,266.328,268.398,270.768,273.576,275.646,278.97,281.726,285.67,289.684,294.499,297.022,299.301,303.495,305.565,310.38,314.315,318.185,321.472,325.416,329.406,332.846,336.734,340.1,342.17,346.887,350.775,353.612,359.771,363.707,367.595,372.581,374.651,377.515,382.35,386.238,388.308" svgx:width="0.23,0.42,0.46,0.42,0.25,0.43,0.23,0.23,0.27,0.31,0.23,0.37,0.31,0.43,0.44,0.53,0.27,0.25,0.46,0.23,0.53,0.43,0.42,0.37,0.43,0.44,0.37,0.43,0.37,0.23,0.51,0.43,0.31,0.69,0.43,0.43,0.55,0.23,0.31,0.53,0.43,0.23,0.48" style="fill:rgb(0,0,0);font-family:MinionPro-Regular;font-size:9.0px;stroke:none;"> cycle, it steadily decreases between the 3</text>
   <text y="717.272" x="392.712,394.848" svgx:width="0.37,0.53" style="fill:rgb(0,0,0);font-family:MinionPro-Regular;font-size:5.85px;stroke:none;">rd</text>
   <text y="720.332" x="397.98,400.051,404.067,408.192,412.01,414.35,418.238,420.308,424.243,429.195,434.01,436.08,438.945,443.78,447.668,449.738,454.121" svgx:width="0.23,0.42,0.46,0.42,0.25,0.43,0.23,0.44,0.55,0.53,0.23,0.31,0.53,0.43,0.23,0.48,0.48" style="fill:rgb(0,0,0);font-family:MinionPro-Regular;font-size:9.0px;stroke:none;"> cycle and the 50</text>
   <text y="717.272" x="458.509,460.37" svgx:width="0.31,0.53" style="fill:rgb(0,0,0);font-family:MinionPro-Regular;font-size:5.85px;stroke:none;">th</text>
   <text y="720.332" x="463.538,465.608,469.624,473.749,477.567,479.907,483.743,485.858,487.928,491.215,495.16,499.174,502.993,507.827,511.715,515.081,517.151,519.908,524.561,526.631,531.014,535.397,539.78,540.982,548.417,554.635,554.635" svgx:width="0.23,0.42,0.46,0.42,0.25,0.43,0.23,0.23,0.37,0.43,0.44,0.42,0.53,0.43,0.37,0.23,0.31,0.51,0.23,0.48,0.48,0.48,0.23,0.82,0.69,0.23,0.23" style="fill:rgb(0,0,0);font-family:MinionPro-Regular;font-size:9.0px;stroke:none;"> cycle, reaches to 909 mA </text>
   <text y="730.331" x="155.638,160.503,162.546" svgx:width="0.53,0.23,0.47" style="fill:rgb(0,0,0);font-family:MinionPro-Regular;font-size:9.0px;stroke:none;">h g</text>
   <text y="727.272" x="166.817" svgx:width="0.78" style="fill:rgb(0,0,0);font-family:EuclidSymbol;font-size:5.85px;stroke:none;">−</text>
   <text y="727.272" x="171.409" svgx:width="0.48" style="fill:rgb(0,0,0);font-family:MinionPro-Regular;font-size:5.85px;stroke:none;">1</text>
   <text y="730.332" x="174.257,176.3,180.138,182.942,184.985,187.842,192.671,196.554,198.597,202.98,207.359" svgx:width="0.23,0.44,0.31,0.23,0.31,0.53,0.43,0.23,0.48,0.48,0.48" style="fill:rgb(0,0,0);font-family:MinionPro-Regular;font-size:9.0px;stroke:none;"> at the 140</text>
   <text y="727.272" x="211.736,213.594" svgx:width="0.31,0.53" style="fill:rgb(0,0,0);font-family:MinionPro-Regular;font-size:5.85px;stroke:none;">th</text>
   <text y="730.332" x="216.756,218.799,222.808,226.926,230.737,233.073,236.902,239.013,241.056,244.985,249.93,254.741,256.784,259.642,264.47,268.354,273.335,275.378,280.189,284.072,291.466,296.007,300.916,304.233,307.081,310.479,314.317,317.067,320.951,324.312,326.355,329.213,334.041,337.925,339.968,344.517,349.247,352.051,355.367,358.225,362.154,367.099,371.91,374.38,379.29,383.56,385.603,390.418,392.862,396.295,400.107,404.944,408.873,412.198,416.397,420.28,422.323,426.216,430.054,434.874,438.883,442.749,445.111,447.942,452.136,454.179,458.719,461.442,463.485,467.863,472.242,476.622,477.81,485.239,491.517,493.56,498.424,500.467" svgx:width="0.23,0.42,0.46,0.42,0.25,0.43,0.23,0.23,0.44,0.55,0.53,0.23,0.31,0.53,0.43,0.55,0.23,0.53,0.43,0.82,0.51,0.55,0.37,0.31,0.37,0.44,0.31,0.43,0.37,0.23,0.31,0.53,0.43,0.23,0.51,0.53,0.31,0.37,0.31,0.44,0.55,0.53,0.27,0.55,0.47,0.23,0.53,0.27,0.37,0.42,0.53,0.44,0.37,0.47,0.43,0.23,0.42,0.44,0.52,0.44,0.42,0.27,0.31,0.46,0.23,0.51,0.3,0.23,0.48,0.48,0.48,0.23,0.82,0.69,0.23,0.53,0.23,0.47" style="fill:rgb(0,0,0);font-family:MinionPro-Regular;font-size:9.0px;stroke:none;"> cycle, and then demonstrates the outstanding discharge capacity of 932 mA h g</text>
   <text y="727.272" x="504.737" svgx:width="0.78" style="fill:rgb(0,0,0);font-family:EuclidSymbol;font-size:5.85px;stroke:none;">−</text>
   <text y="727.272" x="509.33" svgx:width="0.48" style="fill:rgb(0,0,0);font-family:MinionPro-Regular;font-size:5.85px;stroke:none;">1</text>
   <text y="730.332" x="512.177,514.22,518.058,520.862,522.905,525.762,530.591,534.474,536.517,540.9,545.278" svgx:width="0.23,0.44,0.31,0.23,0.31,0.53,0.43,0.23,0.48,0.48,0.48" style="fill:rgb(0,0,0);font-family:MinionPro-Regular;font-size:9.0px;stroke:none;"> at the 200</text>
   <text y="727.272" x="549.656,551.514" svgx:width="0.31,0.53" style="fill:rgb(0,0,0);font-family:MinionPro-Regular;font-size:5.85px;stroke:none;">th</text>
   <text y="730.332" x="554.638" svgx:width="0.23" style="fill:rgb(0,0,0);font-family:MinionPro-Regular;font-size:9.0px;stroke:none;"> </text>
  </g>
  <rect style="stroke:blue;stroke-width:0.3;" x="155.638" y="64.138" height="115.68" width="240.0" title="6"/>
  <text y="64.138" class="image" id="image.6.1" width="240" height="115" x="155.638">image.6.1.156_396.64_180</text>
  <path style="fill:none;stroke:rgb(131,144,151);stroke-width:0.3;" d="M159.130 200.720 L552.640 200.720 "/>
  <path style="fill:none;stroke:rgb(131,144,151);stroke-width:1.0;" d="M156.140 200.720 L156.140 200.720 M554.140 200.720 L554.140 200.720 "/>
  <g begin="text">
   <text y="180.723" x="155.638,160.552,163.207,167.662,172.657,176.221,180.154,181.909,186.409" svgx:width="0.55,0.29,0.49,0.56,0.4,0.44,0.22,0.5,0.25" style="fill:rgb(0,0,0);font-family:MinionPro-Bold;font-size:9.0px;stroke:none;">Figure 6.</text>
   <text y="180.723" x="188.695" svgx:width="0.23" style="fill:rgb(0,0,0);font-family:MinionPro-Regular;font-size:9.0px;stroke:none;"> </text>
   <text y="180.723" x="193.195,199.207,203.356,207.154,209.71,213.643,215.398,220.42,224.308,227.944,230.797,235.432,239.068,246.655,250.803,255.897,259.722,263.655,267.102,268.857,273.006,278.1,283.023,284.778,288.603,293.256,298.341,300.897,305.532,313.074,317.79,320.499,324.297,326.052,329.94,337.797,341.595,344.303,348.192,353.286,357.084,359.793,363.726,367.173,368.928,372.096,378.18,383.409,386.577,388.332,392.967,395.946,397.701,403.272,408.258,415.152,418.23,422.73,427.23,431.73,434.016,435.771,441.342,446.328,453.222,456.3,460.8,465.3,469.8,472.086,473.841,477.99,483.084,488.007,489.762,495.333,500.319,507.213,510.291,514.791,519.291,523.791,525.546,529.605,532.656,534.411,538.605" svgx:width="0.68,0.47,0.42,0.28,0.44,0.22,0.55,0.44,0.4,0.33,0.52,0.4,0.84,0.47,0.57,0.42,0.44,0.38,0.22,0.47,0.57,0.55,0.22,0.42,0.52,0.56,0.28,0.52,0.84,0.53,0.29,0.42,0.22,0.44,0.87,0.42,0.29,0.44,0.57,0.42,0.29,0.44,0.38,0.22,0.35,0.68,0.58,0.35,0.22,0.52,0.33,0.22,0.62,0.55,0.77,0.34,0.5,0.5,0.5,0.25,0.22,0.62,0.55,0.77,0.34,0.5,0.5,0.5,0.25,0.22,0.47,0.57,0.55,0.22,0.62,0.55,0.77,0.34,0.5,0.5,0.5,0.22,0.47,0.34,0.22,0.47,0.22" style="fill:rgb(0,0,0);font-family:MinionPro-Bold;font-size:9.0px;stroke:none;">Cycle performances and coulombic efficiencies (CE) of ZFO-400, ZFO-450, and ZFO-500 at a </text>
   <text y="190.722" x="155.638,159.49,164.485,168.121,171.685,175.573,180.595,183.646,185.401,190.378,194.266,199.36,202.771,205.381,208.396,212.581,214.336,218.971,221.95,223.705,228.205,229.339,235.693,237.448" svgx:width="0.42,0.56,0.4,0.4,0.44,0.57,0.34,0.22,0.55,0.44,0.57,0.38,0.29,0.34,0.47,0.22,0.52,0.33,0.22,0.5,0.22,0.71,0.22,0.49" style="fill:rgb(0,0,0);font-family:MinionPro-Bold;font-size:9.0px;stroke:none;">current density of 2 A g</text>
   <text y="187.663" x="241.877" svgx:width="0.89" style="fill:rgb(0,0,0);font-family:EuclidSymbol-Bold;font-size:5.85px;stroke:none;">−</text>
   <text y="187.663" x="247.107" svgx:width="0.5" style="fill:rgb(0,0,0);font-family:MinionPro-Bold;font-size:5.85px;stroke:none;">1</text>
   <text y="190.723" x="250.032,252.318" svgx:width="0.25,0.22" style="fill:rgb(0,0,0);font-family:MinionPro-Bold;font-size:9.0px;stroke:none;">. </text>
  </g>
 </g>
</svg>
