<?xml version="1.0" encoding="UTF-8"?>
<svg height="774.23" width="4165.638" xmlns="http://www.w3.org/2000/svg">
 <g id="page" xmlns:svgx="http://www.xml-cml.org/schema/svgx">
  <g begin="text">
   <text y="22.46" x="40.638,48.208,55.778,63.055,66.145,71.865,77.215,81.135,86.765,90.565,95.995,99.085,103.915,109.695,118.435,121.635,126.125,130.955,133.725,139.15,144.87,148.79,151.56,155.19,157.96,162.79,166.59,172.02,177.78,183.56,187.36,191.28,195.77" svgx:width="0.71,0.71,0.71,0.26,0.53,0.49,0.35,0.52,0.34,0.5,0.26,0.44,0.53,0.83,0.28,0.4,0.44,0.23,0.5,0.53,0.35,0.23,0.32,0.23,0.44,0.34,0.5,0.53,0.53,0.34,0.35,0.4,0.28" style="fill:rgb(255,255,255);font-family:Corbel;font-size:10.0px;stroke:none;">www.nature.com/scientificreports/</text>
  </g>
  <g begin="text">
   <text y="764.23" x="549.838" svgx:width="0.48" style="fill:rgb(131,144,151);font-family:Corbel;font-size:10.0px;stroke:none;">5</text>
  </g>
  <g begin="text">
   <text y="764.193" x="40.794,45.642,50.786,53.186,58.026,64.026,68.898,71.298,75.762,78.162" svgx:width="0.55,0.59,0.25,0.55,0.7,0.56,0.25,0.5,0.25,0.59" style="fill:rgb(131,144,151);font-family:Corbel;font-size:8.0px;stroke:none;">Scientific</text>
   <text y="764.193" x="83.162" svgx:width="0.2" style="fill:rgb(0,0,0);font-family:Corbel;font-size:8.0px;stroke:none;"> </text>
   <text y="764.193" x="84.762,90.218,95.194,100.434,106.738,112.194,117.186" svgx:width="0.63,0.57,0.6,0.73,0.63,0.57,0.58" style="fill:rgb(131,144,151);font-family:Corbel-Bold;font-size:8.0px;stroke:none;">RepoRts</text>
   <text y="764.193" x="122.082,123.524,125.34,126.781,130.885,132.997,137.102,141.206,145.31,149.414,153.518,154.946,156.762,158.203,163.571,169.411,171.379,173.491,174.93,179.034,183.138,185.25,189.354,193.458,197.562,201.666,203.866,207.098,209.778,213.762,218.01,222.114,226.218,230.322,234.426" svgx:width="0.2,0.23,0.2,0.51,0.26,0.51,0.51,0.51,0.51,0.51,0.2,0.23,0.2,0.67,0.73,0.25,0.26,0.2,0.51,0.51,0.26,0.51,0.51,0.51,0.51,0.28,0.4,0.34,0.5,0.53,0.51,0.51,0.51,0.51,0.51" style="fill:rgb(0,0,0);font-family:Corbel;font-size:8.0px;stroke:none;"> | 7:46378 | DOI: 10.1038/srep46378</text>
  </g>
  <path style="fill:none;stroke:rgb(0,0,0);stroke-width:1.0;" d="M40.640 752.550 L554.640 752.550 "/>
  <g begin="text">
   <text y="497.5" x="155.638,159.013,162.91,167.005,170.83,174.052,177.877,179.731,183.826,188.353,190.522,195.301,202.636,206.461,208.315,212.14,216.388,221.149,225.019,229.87,233.173,235.585,240.067,244.99,246.844,251.488,256.267,260.092,261.946,264.637,269.227,271.081,273.88,278.65,282.475,284.329,287.587,290.377,293.805,298.584,302.454,305.109,309.888,313.227,317.223,319.5,321.354,323.766,328.518,331.209,335.034,339.29,342.683,344.987,347.759,351.233,353.285,355.139,359.612,364.283,367.028,368.882,372.878,375.128,378.503,383.093,384.947,387.611,391.562,395.369,397.825,400.102,402.406,405.205,408.985,411.676,415.501,418.804,420.658,423.457,428.227,432.052,433.906,437.695,439.972,443.842,447.711,450.501,453.723,458.25,460.464,464.595,467.286,471.111,472.965,475.755,479.094,482.964,487.815,491.118,493.701,497.526,500.865,502.719,505.473,508.695,513.177,520.548,522.402,525.201,529.971,533.796,535.65,540.141,544.813,547.503,551.328,554.667" svgx:width="0.37,0.43,0.46,0.43,0.37,0.43,0.23,0.46,0.51,0.25,0.53,0.82,0.43,0.23,0.43,0.47,0.52,0.44,0.55,0.37,0.27,0.51,0.55,0.23,0.53,0.53,0.43,0.23,0.31,0.51,0.23,0.31,0.53,0.43,0.23,0.37,0.31,0.37,0.53,0.42,0.31,0.53,0.37,0.44,0.25,0.23,0.27,0.55,0.31,0.43,0.47,0.37,0.27,0.31,0.46,0.23,0.23,0.51,0.53,0.31,0.23,0.44,0.25,0.37,0.51,0.23,0.3,0.44,0.42,0.27,0.25,0.27,0.31,0.44,0.31,0.43,0.37,0.23,0.31,0.53,0.43,0.23,0.43,0.25,0.43,0.42,0.31,0.37,0.51,0.25,0.46,0.31,0.43,0.23,0.31,0.37,0.44,0.55,0.37,0.3,0.43,0.37,0.23,0.3,0.37,0.51,0.82,0.23,0.31,0.53,0.43,0.23,0.51,0.53,0.31,0.43,0.37,0.23" style="fill:rgb(0,0,0);font-family:MinionPro-Regular;font-size:9.0px;stroke:none;">severe volume expansion due to the structural integrity, but also facilitates the electrolyte transfer from the outer </text>
   <text y="507.499" x="155.638,158.909,163.681,167.474,169.799,172.076,174.02,176.432,181.187,183.881,188.471,190.415,193.217,197.99,201.815,203.759,206.171,211.094,215.984,219.809,223.148,225.092,228.363,233.135,236.928,239.253,241.529,243.473,247.346,252.237,256.989,258.933,263.031,267.516,269.928,274.68,276.624,281.074,287.268,292.191,294.603,299.458,303.67,305.614,308.308,312.898,314.842,319.648,322.06,326.337,331.143,333.087,336.348,341.127,344.523,347.187,351.138,354.945,358.77,360.714,365.514,369.339,372.736,380.074,383.956,387.838,392.306,394.765,397.042,399.349,402.125,405.602,407.654,409.598,412.527,417.45,419.394,423.345,428.097,432.849,435.156,437.949,440.361,444.846,449.769,451.821,453.765,456.567,461.34,465.165,467.109,469.521,474.277,476.971,480.796,484.229,488.993,492.866,496.298,499.091,501.503,505.259,507.536,511.361,513.305,518.105,522.59,525.815,529.64,531.584,534.845,539.609,543.56,547.367,551.192,554.495" svgx:width="0.37,0.53,0.43,0.25,0.25,0.23,0.27,0.55,0.31,0.51,0.23,0.31,0.53,0.43,0.23,0.27,0.55,0.55,0.43,0.37,0.23,0.37,0.53,0.43,0.25,0.25,0.23,0.44,0.55,0.53,0.23,0.46,0.51,0.27,0.53,0.23,0.51,0.69,0.55,0.27,0.55,0.47,0.23,0.31,0.51,0.23,0.53,0.27,0.47,0.53,0.23,0.37,0.53,0.37,0.3,0.44,0.42,0.43,0.23,0.52,0.43,0.37,0.82,0.43,0.44,0.51,0.27,0.25,0.27,0.31,0.46,0.23,0.23,0.34,0.55,0.23,0.44,0.53,0.53,0.27,0.31,0.27,0.51,0.55,0.23,0.23,0.31,0.53,0.43,0.23,0.27,0.55,0.31,0.43,0.37,0.52,0.44,0.37,0.31,0.27,0.42,0.25,0.43,0.23,0.52,0.51,0.37,0.43,0.23,0.37,0.52,0.44,0.42,0.43,0.37,0.23" style="fill:rgb(0,0,0);font-family:MinionPro-Regular;font-size:9.0px;stroke:none;">shell into the inner shell and void owning to high surface permeability. In addition, the interparticle pore spaces </text>
   <text y="517.498" x="155.638,159.445,163.927,171.127,175.924,180.514,183.888,187.758,192.51,194.346,198.828,201.492,203.328,208.224,212.094,216.981,221.472,226.233,230.103,233.532,236.321,238.733,242.486,244.763,248.588,251.891,253.727,259.919,262.223,265.021,269.827,272.239,277.162,278.998,282.265,287.035,290.824,293.146,295.396,298.699,300.535,305.143,308.365,312.811,317.005,319.417,324.169,327.994,331.297,333.133,340.468,344.95,348.172,351.997,353.833,357.621,359.898,363.768,367.638,370.428,373.65,378.321,382.074,386.844,390.669,398.04,400.452,404.286,408.282,410.559,412.395,416.346,420.216,423.006,425.355,429.45,433.275,435.111,438.414,440.718,443.409,447.234,450.537,452.373,454.956,459.438,462.777,464.613,467.412,472.182,476.007,477.843,481.065,484.935,489.687,494.133,498.381,500.217,503.439,507.318,511.269,515.139,517.929,520.341,524.823,529.745" svgx:width="0.42,0.51,0.82,0.52,0.51,0.37,0.43,0.53,0.23,0.51,0.3,0.23,0.55,0.44,0.55,0.51,0.52,0.44,0.37,0.31,0.27,0.42,0.25,0.43,0.37,0.23,0.69,0.27,0.31,0.53,0.27,0.55,0.23,0.37,0.53,0.43,0.25,0.25,0.37,0.23,0.52,0.37,0.51,0.46,0.27,0.53,0.43,0.37,0.23,0.82,0.51,0.37,0.43,0.23,0.43,0.25,0.43,0.42,0.31,0.37,0.51,0.42,0.53,0.43,0.82,0.27,0.42,0.44,0.25,0.23,0.44,0.42,0.31,0.27,0.46,0.43,0.23,0.37,0.27,0.31,0.43,0.37,0.23,0.3,0.51,0.37,0.23,0.31,0.53,0.43,0.23,0.37,0.43,0.53,0.51,0.47,0.23,0.37,0.43,0.44,0.42,0.31,0.27,0.51,0.55,0.23" style="fill:rgb(0,0,0);font-family:MinionPro-Regular;font-size:9.0px;stroke:none;">composed of nanoparticles within shells provides more electrochemical active sites for the redox reaction.</text>
   <text y="527.497" x="167.635,172.459,174.934,179.209,184.051,187.339,191.227,193.293,197.676,201.69,206.433,210.303,212.373,215.705,220.54,225.051,231.279,234.645,236.715,239.579,244.414,248.302,250.372,255.187,257.638,261.078,264.895,269.74,273.675,277.007,281.212,285.1,287.17,290.347,293.634,297.569,302.279,307.121,311.055,313.91,316.385,320.932,325.918,329.095,331.165,335.1,340.053,344.868,346.938,350.755,355.599,359.535,362.867,367.072,370.96,373.03,376.207,380.718,385.029,387.504,392.349,396.194,399.049,401.524,406.071,411.057,414.234,416.304,420.464,425.056,427.291,430.155,434.126,438.331,442.219,444.289,448.962,452.249,456.796,461.721,464.061,467.949,471.315,473.385,477.932,480.659,482.729,488.219,493.043,499.777,503.143,505.213,511.47,513.838,516.703,521.572,523.642,528.457,530.932,535.965,539.853,543.141,547.029,551.845,554.59" svgx:width="0.53,0.27,0.47,0.53,0.37,0.43,0.23,0.48,0.44,0.52,0.42,0.23,0.37,0.53,0.51,0.69,0.37,0.23,0.31,0.53,0.43,0.23,0.53,0.27,0.37,0.42,0.53,0.44,0.37,0.47,0.43,0.23,0.35,0.37,0.43,0.53,0.53,0.42,0.31,0.27,0.51,0.55,0.35,0.23,0.44,0.55,0.53,0.23,0.42,0.53,0.44,0.37,0.47,0.43,0.23,0.35,0.51,0.47,0.27,0.53,0.44,0.31,0.27,0.51,0.55,0.35,0.23,0.46,0.51,0.25,0.31,0.44,0.47,0.43,0.23,0.52,0.37,0.51,0.54,0.25,0.43,0.37,0.23,0.51,0.3,0.23,0.6,0.53,0.75,0.37,0.23,0.69,0.27,0.31,0.53,0.23,0.53,0.27,0.56,0.43,0.37,0.43,0.55,0.31,0.23" style="fill:rgb(0,0,0);font-family:MinionPro-Regular;font-size:9.0px;stroke:none;">Figure 5a–c shows the discharge (reduction) and charge (oxidation) voltage profiles of ZFOs with different </text>
   <text y="537.496" x="155.638,159.585,163.696,166.09,170.014,172.543,177.552,181.446,184.35,186.879,191.475,196.515,198.756,201.56,205.502,212.817,217.727,221.669,225.125,229.019,231.788,236.684,240.019,243.961,247.381,249.618,253.512,256.374,258.615,262.683,264.92,269.843,272.372,276.76,281.683,283.919,287.904,292.8,296.306,299.642,303.584,308.451,311.313,313.549,318.418,322.36,327.326,330.746,333.163,336.049,340.297,342.538,347.134,349.915,352.156,356.593,357.733,364.069,366.31" svgx:width="0.42,0.44,0.25,0.42,0.27,0.55,0.44,0.31,0.27,0.51,0.55,0.23,0.31,0.43,0.82,0.52,0.43,0.37,0.44,0.31,0.53,0.37,0.43,0.37,0.23,0.44,0.31,0.23,0.44,0.23,0.53,0.27,0.47,0.53,0.23,0.42,0.53,0.37,0.37,0.43,0.55,0.31,0.23,0.53,0.43,0.55,0.37,0.27,0.31,0.46,0.23,0.51,0.3,0.23,0.48,0.23,0.69,0.23,0.47" style="fill:rgb(0,0,0);font-family:MinionPro-Regular;font-size:9.0px;stroke:none;">calcination temperatures at a high current density of 2 A g</text>
   <text y="534.44" x="370.629" svgx:width="0.78" style="fill:rgb(0,0,0);font-family:EuclidSymbol;font-size:5.85px;stroke:none;">−</text>
   <text y="534.44" x="375.262" svgx:width="0.48" style="fill:rgb(0,0,0);font-family:MinionPro-Regular;font-size:5.85px;stroke:none;">1</text>
   <text y="537.5" x="378.143,380.38,385.147,389.089,391.975,398.182,402.165,406.107,411.147,413.384,417.821,419.99,424.427,428.864,430.082,436.526,438.767,442.751,447.752,452.621,454.862,459.299,461.468,465.905,467.117,473.561,475.802,479.033,483.317,486.737,488.906,491.147,496.157" svgx:width="0.23,0.51,0.43,0.31,0.69,0.43,0.43,0.55,0.23,0.48,0.23,0.48,0.48,0.23,0.7,0.23,0.44,0.55,0.53,0.23,0.48,0.23,0.48,0.23,0.7,0.23,0.35,0.46,0.37,0.23,0.23,0.54,0.27" style="fill:rgb(0,0,0);font-family:MinionPro-Regular;font-size:9.0px;stroke:none;"> between 0.01 V and 3.0 V (vs. Li</text>
   <text y="534.44" x="498.658" svgx:width="0.78" style="fill:rgb(0,0,0);font-family:EuclidSymbol;font-size:5.85px;stroke:none;">+</text>
   <text y="537.5" x="503.291,506.387,511.398,513.927,517.158,519.327,521.563,531.28,535.222,537.463,541.672,546.313,548.595,551.457" svgx:width="0.33,0.54,0.27,0.35,0.23,0.23,1.07,0.43,0.23,0.46,0.51,0.25,0.31,0.36" style="fill:rgb(0,0,0);font-family:MinionPro-Regular;font-size:9.0px;stroke:none;">/Li). The volt-</text>
   <text y="547.499" x="155.639,159.675,163.944,167.895,170.19,174.928,178.28,182.891,187.881,190.284,194.235,196.53,201.141,203.931,206.226,211.779,216.666,223.515,226.845,231.291,235.737,240.183,242.478,244.993,248.422,250.717,258.047,262.952,266.834,271.766,274.061,278.844,282.795,285.579,288.4,292.351,295.816,298.111,302.044,306.656,313.984,318.875,322.875,326.226,330.226,335.104,337.399,340.219,344.935,347.23,350.159,355.068,358.977,361.848,364.143,368.755,371.545,373.84,379.393,384.28,391.129,394.459,398.905,403.351,407.797,410.092,414.091,419.108,423.986,426.281,431.834,436.721,443.57,446.9,451.346,455.792,460.238,462.416,464.711,474.444,478.395,480.69,485.631,489.045,492.433,495.304,497.599,501.481,506.39,510.39,513.786,518.056,522.007,524.302,528.301,533.318,538.196,540.491,545.369,547.884,551.313" svgx:width="0.44,0.47,0.43,0.23,0.52,0.37,0.51,0.54,0.25,0.43,0.23,0.51,0.3,0.23,0.6,0.53,0.75,0.36,0.48,0.48,0.48,0.23,0.27,0.37,0.23,0.82,0.53,0.42,0.53,0.23,0.51,0.43,0.31,0.31,0.43,0.37,0.23,0.42,0.51,0.82,0.52,0.44,0.37,0.43,0.53,0.23,0.31,0.51,0.23,0.31,0.53,0.44,0.31,0.23,0.51,0.3,0.23,0.6,0.53,0.75,0.36,0.48,0.48,0.48,0.23,0.44,0.55,0.53,0.23,0.6,0.53,0.75,0.36,0.48,0.48,0.48,0.23,0.23,1.07,0.43,0.23,0.54,0.37,0.37,0.31,0.23,0.42,0.53,0.44,0.37,0.47,0.43,0.23,0.44,0.55,0.53,0.23,0.53,0.27,0.37,0.36" style="fill:rgb(0,0,0);font-family:MinionPro-Regular;font-size:9.0px;stroke:none;">age profile of ZFO-450 is much better compared to that of ZFO-400 and ZFO-500. The first charge and dis-</text>
   <text y="557.498" x="155.639,159.407,164.2,168.084,171.366,175.52,179.363,181.316,185.164,188.959,193.733,197.702,201.527,203.846,206.632,210.781,212.734,217.231,219.913,221.866,227.311,232.09,238.831,242.053,246.391,250.724,255.062,257.015,260.9,264.136,267.974,269.927,273.722,278.353,282.976,286.211,290.672,294.938,297.368,304.726,308.52,311.226,315.029,317.258,321.407,323.36,327.698,329.768,334.106,338.444,342.782,344.735,348.619,353.52,358.29,360.243,364.581,366.651,370.989,375.327,379.665,380.729,388.118,394.355,396.308,401.132,403.085" svgx:width="0.42,0.53,0.44,0.37,0.47,0.43,0.23,0.42,0.44,0.52,0.44,0.42,0.27,0.31,0.46,0.23,0.51,0.3,0.23,0.6,0.53,0.75,0.36,0.48,0.48,0.48,0.23,0.44,0.37,0.43,0.23,0.44,0.52,0.52,0.37,0.51,0.47,0.27,0.82,0.44,0.31,0.43,0.25,0.46,0.23,0.48,0.23,0.48,0.48,0.48,0.23,0.44,0.55,0.53,0.23,0.48,0.23,0.48,0.48,0.48,0.23,0.82,0.69,0.23,0.53,0.23,0.47" style="fill:rgb(0,0,0);font-family:MinionPro-Regular;font-size:9.0px;stroke:none;">charge capacity of ZFO-450 are approximately 1,102 and 1,412 mA h g</text>
   <text y="554.44" x="407.305" svgx:width="0.78" style="fill:rgb(0,0,0);font-family:EuclidSymbol;font-size:5.85px;stroke:none;">−</text>
   <text y="554.44" x="411.868" svgx:width="0.48" style="fill:rgb(0,0,0);font-family:MinionPro-Regular;font-size:5.85px;stroke:none;">1</text>
   <text y="557.5" x="414.683,416.753,418.706,424.949,429.773,432.244,434.539,438.378,440.331,443.144,447.929,452.532,455.921,459.764,461.717,466.214,468.896,470.849,476.294,481.073,487.814,491.036,495.374,499.712,504.05,506.003,509.887,514.789,519.559,521.512,526.957,531.736,538.477,541.699,546.037,550.375,554.695" svgx:width="0.23,0.23,0.69,0.53,0.27,0.25,0.43,0.23,0.31,0.53,0.51,0.37,0.43,0.23,0.51,0.3,0.23,0.6,0.53,0.75,0.36,0.48,0.48,0.48,0.23,0.44,0.55,0.53,0.23,0.6,0.53,0.75,0.36,0.48,0.48,0.48,0.23" style="fill:rgb(0,0,0);font-family:MinionPro-Regular;font-size:9.0px;stroke:none;">, while those of ZFO-400 and ZFO-500 </text>
   <text y="567.499" x="155.636,158.021,161.324,163.169,167.039,170.261,174.753,179.532,184.418,189.17,191.015,195.335,199.655,203.975,205.82,209.691,214.577,219.329,221.174,225.494,227.546,231.866,236.186,240.507,241.622,248.993,255.212,257.057,261.863,263.708" svgx:width="0.27,0.37,0.23,0.44,0.37,0.51,0.53,0.55,0.53,0.23,0.48,0.48,0.48,0.23,0.44,0.55,0.53,0.23,0.48,0.23,0.48,0.48,0.48,0.23,0.82,0.69,0.23,0.53,0.23,0.47" style="fill:rgb(0,0,0);font-family:MinionPro-Regular;font-size:9.0px;stroke:none;">is around 880 and 1,188 mA h g</text>
   <text y="564.44" x="267.911" svgx:width="0.78" style="fill:rgb(0,0,0);font-family:EuclidSymbol;font-size:5.85px;stroke:none;">−</text>
   <text y="564.44" x="272.463" svgx:width="0.48" style="fill:rgb(0,0,0);font-family:MinionPro-Regular;font-size:5.85px;stroke:none;">1</text>
   <text y="567.5" x="275.271,277.323,279.168,283.038,287.926,292.678,294.523,298.843,303.163,307.483,309.328,313.199,318.086,322.838,324.683,329.003,331.055,335.375,339.695,344.015,345.129,352.5,358.719,360.564,365.37,367.215" svgx:width="0.23,0.23,0.44,0.55,0.53,0.23,0.48,0.48,0.48,0.23,0.44,0.55,0.53,0.23,0.48,0.23,0.48,0.48,0.48,0.23,0.82,0.69,0.23,0.53,0.23,0.47" style="fill:rgb(0,0,0);font-family:MinionPro-Regular;font-size:9.0px;stroke:none;">, and 853 and 1,120 mA h g</text>
   <text y="564.44" x="371.416" svgx:width="0.78" style="fill:rgb(0,0,0);font-family:EuclidSymbol;font-size:5.85px;stroke:none;">−</text>
   <text y="564.44" x="375.968" svgx:width="0.48" style="fill:rgb(0,0,0);font-family:MinionPro-Regular;font-size:5.85px;stroke:none;">1</text>
   <text y="567.5" x="378.776,380.828,382.673,385.895,389.72,392.978,397.775,401.645,405.515,408.305,410.654,414.749,418.537,420.751,424.226,426.278,428.123,437.726,441.551,443.396,447.203,451.694,456.518,458.795,463.277,470.558,475.022,477.434,481.241,483.086,486.911,494.093,497.9,500.312,504.137,509.024,512.975,517.106,518.951,522.731,525.476,527.32,530.12,534.89,538.715,540.56,545.375,548.659,551.917,554.662" svgx:width="0.23,0.23,0.37,0.43,0.37,0.52,0.43,0.42,0.31,0.27,0.46,0.43,0.25,0.46,0.23,0.23,1.07,0.43,0.23,0.42,0.51,0.53,0.25,0.51,0.82,0.51,0.27,0.42,0.23,0.43,0.8,0.42,0.27,0.43,0.55,0.42,0.46,0.23,0.44,0.31,0.23,0.31,0.53,0.43,0.23,0.54,0.37,0.37,0.31,0.23" style="fill:rgb(0,0,0);font-family:MinionPro-Regular;font-size:9.0px;stroke:none;">, respectively. The coulombic efficiency at the first </text>
   <text y="577.499" x="155.639,159.69,163.85,167.704,170.08,174.004,176.2,180.171,183.494,187.418,189.61,193.048,197.019,202.088,206.571,210.542,215.393,217.589,221.614,225.016,227.212,231.631,236.05,242.953,245.149,248.362,253.888,258.748,265.57,268.873,273.292,277.711,282.13,285.343" svgx:width="0.42,0.46,0.42,0.25,0.43,0.23,0.44,0.37,0.43,0.23,0.37,0.44,0.55,0.5,0.43,0.53,0.23,0.44,0.37,0.23,0.48,0.48,0.76,0.23,0.35,0.6,0.53,0.75,0.36,0.48,0.48,0.48,0.35,0.23" style="fill:rgb(0,0,0);font-family:MinionPro-Regular;font-size:9.0px;stroke:none;">cycle are ranked as 78% (ZFO-450) </text>
   <text y="577.499" x="286.589" svgx:width="0.78" style="fill:rgb(0,0,0);font-family:EuclidSymbol;font-size:9.0px;stroke:none;">&gt;</text>
   <text y="577.499" x="293.698,293.797,295.021,299.44,303.859,310.763,312.955,316.168,321.694,326.554,333.376,336.679,341.098,345.517,349.936,353.149" svgx:width="0.23,0.23,0.48,0.48,0.76,0.23,0.35,0.6,0.53,0.75,0.36,0.48,0.48,0.48,0.35,0.23" style="fill:rgb(0,0,0);font-family:MinionPro-Regular;font-size:9.0px;stroke:none;"> 76% (ZFO-500) </text>
   <text y="577.499" x="354.394" svgx:width="0.78" style="fill:rgb(0,0,0);font-family:EuclidSymbol;font-size:9.0px;stroke:none;">&gt;</text>
   <text y="577.499" x="361.504,361.605,362.827,367.246,371.665,378.568,380.764,383.978,389.504,394.363,401.185,404.488,408.908,413.327,417.746,420.959,423.11,425.301,427.812,432.8,437.651,440.162,444.097,447.977,450.868,453.379,458.331,462.642,464.838,467.738,472.618,476.498,479.342,481.534,484.434,489.305,493.229,495.42,497.931,501.425,504.749,508.746,512.942,516.866,520.252,523.654,526.131,530.696,533.253,535.629,538.035,540.908,545.138,547.334,551.917,554.581" svgx:width="0.23,0.23,0.48,0.48,0.76,0.23,0.35,0.6,0.53,0.75,0.36,0.48,0.48,0.48,0.35,0.23,0.23,0.27,0.55,0.53,0.27,0.42,0.44,0.31,0.27,0.55,0.47,0.23,0.31,0.53,0.44,0.31,0.23,0.31,0.53,0.43,0.23,0.27,0.37,0.37,0.43,0.46,0.43,0.37,0.37,0.27,0.51,0.27,0.25,0.27,0.31,0.46,0.23,0.51,0.3,0.23" style="fill:rgb(0,0,0);font-family:MinionPro-Regular;font-size:9.0px;stroke:none;"> 74% (ZFO-400), indicating that the irreversibility of </text>
   <text y="587.498" x="155.62,161.047,165.808,172.531,175.735,180.055,184.375,188.695,190.432,192.815,196.118,197.855,200.132,203.957,207.212,210.515,212.252,215.048,219.826,223.694,228.617,230.354,234.843,237.639,242.407,246.232,249.515,252.818,254.555,259.197,263.976,267.801,269.538,272.227,276.817,278.554,281.351,286.119,289.944,291.681,299.013,303.493,306.919,311.571,316.338,320.863,323.14,327.73,332.155,336.286,338.023,342.504,345.168,346.905,349.693,353.083,355.385,360.036,362.313,366.138,369.342,372.606,377.374,381.161,383.481,385.758,389.625,394.377,396.114,403.485,405.897,409.704,412.924,417.514,420.77,425.421,430.188,434.013,437.232,441.057,442.794,448.984,451.286,454.082,458.888,460.625,467.958,471.783,475.157,479.645,484.439,488.919,492.14,496.628,501.378,504.681,506.418,509.215,514.021,516.433,521.356,523.093,526.358,531.127,534.913,537.233,539.51,541.247,545.115,550.0,554.752" svgx:width="0.6,0.53,0.75,0.36,0.48,0.48,0.48,0.23,0.27,0.37,0.23,0.25,0.43,0.37,0.37,0.23,0.31,0.53,0.44,0.55,0.23,0.51,0.31,0.53,0.43,0.37,0.37,0.23,0.53,0.53,0.43,0.23,0.31,0.51,0.23,0.31,0.53,0.43,0.23,0.82,0.51,0.37,0.52,0.53,0.51,0.25,0.51,0.47,0.46,0.23,0.51,0.3,0.23,0.31,0.37,0.27,0.52,0.25,0.43,0.36,0.37,0.53,0.43,0.25,0.25,0.43,0.53,0.23,0.82,0.27,0.42,0.37,0.51,0.37,0.52,0.53,0.43,0.37,0.43,0.23,0.69,0.27,0.31,0.53,0.23,0.82,0.43,0.37,0.51,0.52,0.51,0.37,0.51,0.53,0.37,0.23,0.31,0.53,0.27,0.55,0.23,0.37,0.53,0.43,0.25,0.25,0.23,0.44,0.55,0.53,0.23" style="fill:rgb(0,0,0);font-family:MinionPro-Regular;font-size:9.0px;stroke:none;">ZFO-450 is less than others due to the morphology of triple-shelled microsphere with mesoporous thin shell and </text>
   <text y="597.497" x="155.62,162.964,166.915,170.722,173.944,178.435,183.232,187.714,190.936,195.427,200.179,203.482,205.399,211.591,214.003,218.755,222.58,224.497,228.592,233.074,235.486,240.184,242.236,244.153,247.078,252.001,253.918,256.717,261.487,265.312,267.229,270.487,275.23,279.802,283.177,287.047,291.556,296.335,300.16,304.912,307.657,309.574,313.525,317.584,321.337,323.614,327.439,330.742,332.794,334.711,337.51,342.28,346.105,348.022,351.361,355.14,357.93,360.342,364.932,368.235,370.152,374.634,377.298,379.215,382.014,386.784,390.609,392.526,396.359,400.139,404.9,408.851,412.658,414.962,417.734,421.865,423.782,427.004,430.829,433.52,437.345,442.096,444.886,447.298,451.78,456.703,458.62,461.842,465.721,469.672,474.424,476.88,479.094,483.225,485.142,488.364,492.243,496.194,499.947,504.753,506.67,509.361,513.951,515.868,520.188,524.508,526.56,528.477,532.797,537.117,539.169,541.086,544.956,549.843,554.595" svgx:width="0.82,0.44,0.42,0.37,0.51,0.52,0.51,0.37,0.51,0.53,0.37,0.23,0.69,0.27,0.53,0.43,0.23,0.46,0.51,0.27,0.53,0.23,0.23,0.34,0.55,0.23,0.31,0.53,0.43,0.23,0.37,0.53,0.51,0.37,0.43,0.51,0.53,0.43,0.55,0.31,0.23,0.42,0.46,0.42,0.25,0.43,0.37,0.23,0.23,0.31,0.53,0.43,0.23,0.37,0.44,0.31,0.27,0.51,0.37,0.23,0.51,0.3,0.23,0.31,0.53,0.43,0.23,0.42,0.44,0.52,0.44,0.42,0.27,0.31,0.46,0.23,0.37,0.43,0.31,0.43,0.55,0.31,0.27,0.51,0.55,0.23,0.37,0.43,0.44,0.53,0.27,0.25,0.46,0.23,0.37,0.43,0.44,0.42,0.53,0.23,0.31,0.51,0.23,0.48,0.48,0.23,0.23,0.48,0.48,0.23,0.23,0.44,0.55,0.53,0.23" style="fill:rgb(0,0,0);font-family:MinionPro-Regular;font-size:9.0px;stroke:none;">macroporous wide void. In the subsequent cycles, the ratios of the capacity retention readily reach to 95, 96, and </text>
   <text y="607.496" x="155.62,159.958,164.296,171.118,173.08,175.51,180.451,182.413,185.231,190.019,193.862,195.824" svgx:width="0.48,0.48,0.76,0.23,0.27,0.55,0.23,0.31,0.53,0.43,0.23,0.48" style="fill:rgb(0,0,0);font-family:MinionPro-Regular;font-size:9.0px;stroke:none;">99% in the 2</text>
   <text y="604.44" x="200.175,203.364" svgx:width="0.55,0.53" style="fill:rgb(0,0,0);font-family:MinionPro-Regular;font-size:5.85px;stroke:none;">nd</text>
   <text y="607.5" x="206.43,208.5,210.462,214.8" svgx:width="0.23,0.23,0.48,0.48" style="fill:rgb(0,0,0);font-family:MinionPro-Regular;font-size:9.0px;stroke:none;">, 10</text>
   <text y="604.44" x="219.137,220.968" svgx:width="0.31,0.53" style="fill:rgb(0,0,0);font-family:MinionPro-Regular;font-size:5.85px;stroke:none;">th</text>
   <text y="607.5" x="224.104,226.174,228.136,232.024,236.93,241.7,243.662,248.0,252.338" svgx:width="0.23,0.23,0.44,0.55,0.53,0.23,0.48,0.48,0.48" style="fill:rgb(0,0,0);font-family:MinionPro-Regular;font-size:9.0px;stroke:none;">, and 200</text>
   <text y="604.44" x="256.673,258.505" svgx:width="0.31,0.53" style="fill:rgb(0,0,0);font-family:MinionPro-Regular;font-size:5.85px;stroke:none;">th</text>
   <text y="607.5" x="261.641,263.603,267.572,271.65,275.422,277.717,281.506,283.576,285.538,288.779,292.622,295.898,300.714,304.602,308.49,311.299,313.667,317.78,321.588,323.82,327.313,329.383,331.345,334.288,339.229,341.191,344.008,348.797,352.64,354.602,358.94,363.278" svgx:width="0.23,0.42,0.46,0.42,0.25,0.43,0.23,0.23,0.37,0.43,0.37,0.52,0.43,0.42,0.31,0.27,0.46,0.43,0.25,0.46,0.23,0.23,0.34,0.55,0.23,0.31,0.53,0.43,0.23,0.48,0.48,0.48" style="fill:rgb(0,0,0);font-family:MinionPro-Regular;font-size:9.0px;stroke:none;"> cycle, respectively. In the 200</text>
   <text y="604.44" x="367.607,369.438" svgx:width="0.31,0.53" style="fill:rgb(0,0,0);font-family:MinionPro-Regular;font-size:5.85px;stroke:none;">th</text>
   <text y="607.5" x="372.574,374.536,378.505,382.583,386.355,388.65,392.44,394.51,396.472,399.29,404.078,407.921,409.883,414.653,417.056,420.45,424.221,429.018,432.907,436.192,440.351,444.194,446.156,450.008,453.806,458.586,462.555,466.38,468.703,471.493,475.642,477.604,480.205,484.706,488.063,490.025,495.47,500.249,506.99,510.212,514.55,518.888,523.226,525.188,527.618,532.524,536.349,539.59,543.487,547.43,550.824,554.649" svgx:width="0.23,0.42,0.46,0.42,0.25,0.43,0.23,0.23,0.31,0.53,0.43,0.23,0.53,0.27,0.37,0.42,0.53,0.44,0.37,0.47,0.43,0.23,0.42,0.44,0.52,0.44,0.42,0.27,0.31,0.46,0.23,0.3,0.51,0.37,0.23,0.6,0.53,0.75,0.36,0.48,0.48,0.48,0.23,0.27,0.55,0.42,0.37,0.43,0.44,0.37,0.43,0.23" style="fill:rgb(0,0,0);font-family:MinionPro-Regular;font-size:9.0px;stroke:none;"> cycle, the discharge capacity for ZFO-450 increase </text>
   <text y="617.499" x="155.638,158.329,162.919,164.827,169.147,173.467,177.787,178.912,186.283,192.502,194.41,199.216,201.124" svgx:width="0.31,0.51,0.23,0.48,0.48,0.48,0.23,0.82,0.69,0.23,0.53,0.23,0.47" style="fill:rgb(0,0,0);font-family:MinionPro-Regular;font-size:9.0px;stroke:none;">to 932 mA h g</text>
   <text y="614.44" x="205.346" svgx:width="0.78" style="fill:rgb(0,0,0);font-family:EuclidSymbol;font-size:5.85px;stroke:none;">−</text>
   <text y="614.44" x="209.897" svgx:width="0.48" style="fill:rgb(0,0,0);font-family:MinionPro-Regular;font-size:5.85px;stroke:none;">1</text>
   <text y="617.5" x="212.705,214.757,216.665,219.887,223.712,228.32,231.542,235.367,238.741,242.566,247.318,250.108,252.52,257.371,261.583,263.491,266.29,271.069,274.849,277.594,279.502,281.806,284.551,287.854,289.762,297.097,301.579,305.008,309.661,314.431,318.958,321.235,325.825,330.252,334.383,336.291,338.676,341.979,343.887,347.145,351.924,354.228,357.027,360.906,365.415,367.692,371.517,373.425,376.008,380.49,383.829,385.737,389.688,393.558,396.213,401.018,405.014,407.291,409.703,413.483,415.895,420.746,424.958,426.866,431.519,435.344,437.998,440.689,444.514,447.853,449.761,453.55,455.827,459.696,463.566,466.356,469.578,474.249,478.002,482.772,486.597,493.968,496.38,500.213,504.209,506.486,508.394,513.191,517.016,520.408,522.991,527.474,530.867,538.211,542.081,546.967,550.774,554.599" svgx:width="0.23,0.23,0.37,0.43,0.52,0.37,0.43,0.37,0.43,0.55,0.31,0.27,0.55,0.47,0.23,0.31,0.53,0.44,0.31,0.23,0.27,0.31,0.37,0.23,0.82,0.51,0.37,0.52,0.53,0.51,0.25,0.51,0.47,0.46,0.23,0.27,0.37,0.23,0.37,0.53,0.27,0.31,0.44,0.51,0.25,0.43,0.23,0.3,0.51,0.37,0.23,0.44,0.42,0.31,0.53,0.44,0.25,0.27,0.42,0.27,0.55,0.47,0.23,0.51,0.43,0.31,0.31,0.43,0.37,0.23,0.43,0.25,0.43,0.42,0.31,0.37,0.51,0.42,0.53,0.43,0.82,0.27,0.42,0.44,0.25,0.23,0.52,0.43,0.37,0.3,0.51,0.37,0.82,0.44,0.55,0.42,0.43,0.23" style="fill:rgb(0,0,0);font-family:MinionPro-Regular;font-size:9.0px;stroke:none;">, representing that its morphology is suitable for actualizing better electrochemical performance </text>
   <text y="627.499" x="155.636,160.341,165.183,169.071,171.123,173.874,178.527,180.579,183.44,188.27,192.158,194.21,198.879,202.161,206.714,209.465,213.396,217.326,220.178,222.653,227.195,232.181,234.233,238.775,241.502,243.554,247.71,252.298,254.528,259.37,266.766,270.654,272.706,276.594,280.905,285.727,289.658,294.57,297.936,300.411,304.953,309.939,312.054,314.106,320.836,325.343,331.497,335.454,339.61,343.498,346.332,348.447,350.499,353.358,358.189,362.077,364.129,368.944,371.39,374.826,378.639,383.479,387.41,390.738,394.939,398.827,400.879,404.774,408.614,413.437,417.451,421.321,423.685,426.536,429.011,432.899,436.265,438.317,442.86,445.587,447.639,453.129,457.953,464.739,468.006,472.389,476.772,481.155,483.207,487.138,492.086,496.901,498.953,504.443,509.267,516.053,519.32,523.703,528.086,532.469,534.521,538.362,541.17,543.222,546.082,550.912,554.737" svgx:width="0.53,0.53,0.43,0.23,0.31,0.51,0.23,0.31,0.53,0.43,0.23,0.52,0.37,0.51,0.31,0.43,0.42,0.31,0.27,0.51,0.55,0.23,0.51,0.3,0.23,0.46,0.51,0.25,0.53,0.82,0.43,0.23,0.43,0.47,0.52,0.44,0.55,0.37,0.27,0.51,0.55,0.23,0.23,0.77,0.51,0.69,0.43,0.46,0.43,0.37,0.23,0.23,0.31,0.53,0.43,0.23,0.53,0.27,0.37,0.42,0.53,0.44,0.37,0.47,0.43,0.23,0.42,0.44,0.52,0.44,0.42,0.27,0.31,0.27,0.43,0.37,0.23,0.51,0.3,0.23,0.6,0.53,0.75,0.36,0.48,0.48,0.48,0.23,0.44,0.55,0.53,0.23,0.6,0.53,0.75,0.36,0.48,0.48,0.48,0.23,0.44,0.31,0.23,0.31,0.53,0.43,0.23" style="fill:rgb(0,0,0);font-family:MinionPro-Regular;font-size:9.0px;stroke:none;">due to the protection of volume expansion. However, the discharge capacities of ZFO-400 and ZFO-500 at the </text>
   <text y="637.498" x="155.636,159.956,164.276" svgx:width="0.48,0.48,0.48" style="fill:rgb(0,0,0);font-family:MinionPro-Regular;font-size:9.0px;stroke:none;">200</text>
   <text y="634.44" x="168.598,170.417" svgx:width="0.31,0.53" style="fill:rgb(0,0,0);font-family:MinionPro-Regular;font-size:5.85px;stroke:none;">th</text>
   <text y="637.5" x="173.541,175.368,179.319,183.378,187.131,189.408,193.233,195.06,198.93,202.152,205.977,207.804,215.004,219.783,223.535,228.341,230.168,232.445,236.891,242.984,246.809,250.148,251.975,254.774,259.553,263.423,268.346,270.173,272.972,277.751,281.531,284.276,286.103,290.585,293.249,295.076,300.503,305.264,311.987,315.191,319.511,323.831,328.151,330.203,332.03,335.252,339.077,343.685,346.906,350.731,354.106,357.931,362.683,365.473,367.885,372.736,376.948,378.775,383.095,387.415,391.735,392.889,400.26,406.479,408.306,413.112,414.939" svgx:width="0.23,0.42,0.46,0.42,0.25,0.43,0.23,0.44,0.37,0.43,0.23,0.82,0.53,0.42,0.53,0.23,0.25,0.51,0.69,0.43,0.37,0.23,0.31,0.53,0.44,0.55,0.23,0.31,0.53,0.44,0.31,0.23,0.51,0.3,0.23,0.6,0.53,0.75,0.36,0.48,0.48,0.48,0.23,0.23,0.37,0.43,0.52,0.37,0.43,0.37,0.43,0.55,0.31,0.27,0.55,0.47,0.23,0.48,0.48,0.48,0.23,0.82,0.69,0.23,0.53,0.23,0.47" style="fill:rgb(0,0,0);font-family:MinionPro-Regular;font-size:9.0px;stroke:none;"> cycle are much lower than that of ZFO-450, representing 739 mA h g</text>
   <text y="634.44" x="419.154" svgx:width="0.78" style="fill:rgb(0,0,0);font-family:EuclidSymbol;font-size:5.85px;stroke:none;">−</text>
   <text y="634.44" x="423.705" svgx:width="0.48" style="fill:rgb(0,0,0);font-family:MinionPro-Regular;font-size:5.85px;stroke:none;">1</text>
   <text y="637.5" x="426.513,428.34,432.21,437.097,441.849,443.676,447.996,452.316,456.636,457.77,465.141,471.36,472.485,477.291,479.118" svgx:width="0.23,0.44,0.55,0.53,0.23,0.48,0.48,0.48,0.23,0.82,0.69,0.23,0.53,0.23,0.47" style="fill:rgb(0,0,0);font-family:MinionPro-Regular;font-size:9.0px;stroke:none;"> and 603 mA h g</text>
   <text y="634.44" x="483.329" svgx:width="0.78" style="fill:rgb(0,0,0);font-family:EuclidSymbol;font-size:5.85px;stroke:none;">−</text>
   <text y="634.44" x="487.88" svgx:width="0.48" style="fill:rgb(0,0,0);font-family:MinionPro-Regular;font-size:5.85px;stroke:none;">1</text>
   <text y="637.5" x="490.688,492.74,494.567,502.352,506.231,510.101,514.853,517.643,520.055,527.39,531.16,533.212,535.039,541.266,546.072,548.529,550.806,554.631" svgx:width="0.23,0.23,0.89,0.43,0.44,0.55,0.31,0.27,0.82,0.43,0.23,0.23,0.69,0.53,0.27,0.25,0.43,0.23" style="fill:rgb(0,0,0);font-family:MinionPro-Regular;font-size:9.0px;stroke:none;">. Meantime, while </text>
   <text y="647.499" x="155.636,159.431,164.252,168.163,171.473,175.771,178.228,183.121,187.378,189.363,193.275,198.203,203.0,204.985,209.782,212.208,215.625,219.42,224.24,228.153,231.461,235.76,238.217,243.11,247.39,249.487,251.476,254.317,259.129,262.999,264.983,269.679,273.509,278.33,282.161,286.396,288.853,293.378,296.762,298.751,303.274,305.983,307.972,311.802,314.124,318.036,321.947,324.779,328.043,332.755,336.55,341.362,345.232,352.648,355.105,358.98,363.018,365.34,367.329,372.167,376.037,379.472,382.097,386.62,390.056,397.441,401.353,406.282,410.134,414.004,415.988,418.415,421.763,423.747,431.133,435.045,437.502,442.512,444.768,448.944,450.928,455.109,459.598,463.734,467.604,471.039,475.967,479.878,484.675,486.66,491.13,495.306,497.295,500.136,504.947,508.817,510.802,515.64,520.209,522.555,526.466,529.901,532.358,536.183,540.006,542.837,545.294,549.818,554.741" svgx:width="0.42,0.53,0.44,0.37,0.47,0.27,0.55,0.47,0.23,0.44,0.55,0.53,0.23,0.53,0.27,0.37,0.42,0.53,0.44,0.37,0.47,0.27,0.55,0.47,0.23,0.23,0.31,0.53,0.43,0.23,0.51,0.43,0.53,0.44,0.46,0.27,0.51,0.37,0.23,0.51,0.3,0.23,0.43,0.25,0.43,0.42,0.31,0.37,0.51,0.42,0.53,0.43,0.82,0.27,0.42,0.44,0.25,0.23,0.52,0.43,0.37,0.3,0.51,0.37,0.82,0.44,0.55,0.42,0.43,0.23,0.27,0.37,0.23,0.82,0.44,0.27,0.55,0.25,0.46,0.23,0.47,0.51,0.46,0.43,0.37,0.55,0.43,0.53,0.23,0.51,0.46,0.23,0.31,0.53,0.43,0.23,0.52,0.51,0.25,0.44,0.37,0.27,0.42,0.44,0.31,0.27,0.51,0.55,0.23" style="fill:rgb(0,0,0);font-family:MinionPro-Regular;font-size:9.0px;stroke:none;">charging and discharging, the behavior of electrochemical performance is mainly governed by the polarization </text>
   <text y="657.498" x="155.636,160.302,164.1,167.964,172.734,176.122,179.509,181.912,186.757,190.96,192.688,195.091,200.005,201.733,204.526,209.291,213.107,214.835,218.165,222.03,226.876,231.01,234.826,236.554,241.032,243.687,245.415,249.162,253.936,257.8,261.062,265.314,267.717,272.562,276.765,279.735,284.478,286.858,290.228,293.975,298.749,302.613,305.875,310.127,312.53,317.375,321.578,323.306,327.747,331.836,335.652,339.076,343.868,348.353,351.039,354.855,359.601,362.386,364.82,368.81,371.028,373.071,374.799,379.599,382.987,385.286,389.933,392.201,396.017,399.212,402.474,407.238,411.022,413.339,415.607,419.471,424.214,425.942,431.49,436.404,440.988" svgx:width="0.51,0.42,0.42,0.53,0.37,0.37,0.27,0.55,0.47,0.23,0.27,0.55,0.23,0.31,0.53,0.43,0.23,0.37,0.44,0.55,0.47,0.43,0.23,0.51,0.3,0.23,0.42,0.53,0.44,0.37,0.47,0.27,0.55,0.47,0.33,0.53,0.27,0.37,0.42,0.53,0.44,0.37,0.47,0.27,0.55,0.47,0.23,0.51,0.46,0.43,0.37,0.52,0.51,0.31,0.43,0.55,0.31,0.27,0.44,0.25,0.23,0.23,0.62,0.37,0.27,0.52,0.25,0.43,0.36,0.37,0.53,0.43,0.25,0.25,0.43,0.53,0.23,0.6,0.55,0.53,0.43" style="fill:rgb(0,0,0);font-family:MinionPro-Regular;font-size:9.0px;stroke:none;">occurring in the range of charging/discharging overpotential. Triple-shelled ZnFe</text>
   <text y="659.3" x="444.919" svgx:width="0.48" style="fill:rgb(0,0,0);font-family:MinionPro-Regular;font-size:5.85px;stroke:none;">2</text>
   <text y="657.5" x="447.724" svgx:width="0.75" style="fill:rgb(0,0,0);font-family:MinionPro-Regular;font-size:9.0px;stroke:none;">O</text>
   <text y="659.3" x="454.441" svgx:width="0.48" style="fill:rgb(0,0,0);font-family:MinionPro-Regular;font-size:5.85px;stroke:none;">4</text>
   <text y="657.5" x="457.246,458.974,463.739,468.261,470.577,472.845,477.286,483.442,485.17,492.532,494.935,498.733,501.95,506.531,509.783,514.431,519.195,523.011,526.228,530.044,531.772,539.111,543.101,547.479,551.295,554.598" svgx:width="0.23,0.53,0.51,0.25,0.25,0.51,0.69,0.23,0.82,0.27,0.42,0.37,0.51,0.37,0.52,0.53,0.43,0.37,0.43,0.23,0.82,0.44,0.5,0.43,0.37,0.23" style="fill:rgb(0,0,0);font-family:MinionPro-Regular;font-size:9.0px;stroke:none;"> hollow microsphere makes </text>
   <text y="667.499" x="155.638,157.995,160.794,162.819,166.751,170.728,174.085,176.551,180.43,183.823,185.848,188.592,193.236,195.261,198.536,202.459,207.156,211.989,215.85,219.729,221.754,224.607,229.43,233.309,235.334,240.184,244.764,247.121,251.045,254.491,256.957,260.791,264.624,267.467,269.933,274.468,279.445,281.47,285.951,290.136,292.161,296.661,300.809,304.688,308.17,313.02,317.564,320.309,324.188,328.993,331.836,334.328,338.377,340.708,342.733,347.431,352.264,355.711,358.177,363.081,367.347,369.372,373.178,378.01,381.933,385.253,389.563,392.029,396.933,401.199,404.232,409.038,411.476,414.904,418.71,423.543,427.466,430.786,435.097,437.563,442.468,446.734,448.759,453.241,457.426,459.451,462.169,466.174,470.035,472.545,474.876,477.233,480.085,483.918,486.761,489.227,494.131,498.397,500.422,504.228,509.06,512.984,516.305,520.498,524.377,526.402,529.245,532.638,536.562,541.466,544.823,547.459,551.338,554.677" svgx:width="0.27,0.31,0.23,0.43,0.44,0.37,0.27,0.43,0.37,0.23,0.31,0.51,0.23,0.37,0.43,0.53,0.53,0.42,0.43,0.23,0.31,0.53,0.43,0.23,0.52,0.51,0.25,0.44,0.37,0.27,0.42,0.44,0.31,0.27,0.51,0.55,0.23,0.51,0.46,0.23,0.51,0.46,0.43,0.37,0.52,0.51,0.31,0.43,0.55,0.31,0.27,0.44,0.25,0.23,0.53,0.53,0.37,0.27,0.55,0.47,0.23,0.42,0.53,0.44,0.37,0.47,0.27,0.55,0.47,0.33,0.53,0.27,0.37,0.42,0.53,0.44,0.37,0.47,0.27,0.55,0.47,0.23,0.51,0.46,0.23,0.3,0.44,0.42,0.27,0.25,0.27,0.31,0.44,0.31,0.27,0.55,0.47,0.23,0.42,0.53,0.44,0.37,0.47,0.43,0.23,0.31,0.37,0.44,0.55,0.37,0.3,0.43,0.37,0.23" style="fill:rgb(0,0,0);font-family:MinionPro-Regular;font-size:9.0px;stroke:none;">it easier to reduce the polarization by overpotential during charging/discharging by facilitating charge transfer </text>
   <text y="677.498" x="155.638,159.556,164.492,169.289,171.296,178.689,182.661,185.968,189.316,191.323,194.161,197.545,201.464,206.364,209.712,212.343,216.213,219.597,221.604,226.297,231.121,234.991,236.998,239.737,244.372,246.379,249.227,254.046,257.916,259.923,262.555,267.086,270.527,277.92,281.749,284.587,287.044,291.575,296.543,298.55,303.081,305.79,307.797,310.645,315.496,317.953,322.921,324.928,328.243,333.062,336.9,339.27,341.592,343.599,349.84,352.192,355.04,359.891,361.898,366.749,369.206,373.53,378.381,380.388,387.771,391.641,395.065,399.605,404.45,408.981,412.252,416.887,420.235,422.588,425.408,429.584,431.591,435.511,440.446,445.243,447.25,453.491,455.948,460.745,464.615,466.622,470.766,475.296,477.753,482.55,484.557,488.53,491.878,493.885,498.704,503.28,505.65,507.972,512.467,518.677,520.684,524.536,529.067,532.338,536.208,538.215,544.456,546.808,549.656,554.462" svgx:width="0.44,0.55,0.53,0.23,0.82,0.44,0.37,0.37,0.23,0.31,0.37,0.44,0.55,0.37,0.3,0.43,0.37,0.23,0.53,0.53,0.43,0.23,0.31,0.51,0.23,0.31,0.53,0.43,0.23,0.3,0.51,0.37,0.82,0.44,0.31,0.27,0.51,0.55,0.23,0.51,0.3,0.23,0.31,0.53,0.27,0.55,0.23,0.37,0.53,0.43,0.25,0.25,0.23,0.69,0.27,0.31,0.53,0.23,0.53,0.27,0.47,0.53,0.23,0.82,0.43,0.37,0.51,0.52,0.51,0.37,0.51,0.37,0.27,0.31,0.46,0.23,0.44,0.55,0.53,0.23,0.69,0.27,0.53,0.43,0.23,0.46,0.51,0.27,0.53,0.23,0.44,0.37,0.23,0.53,0.51,0.25,0.25,0.51,0.69,0.23,0.42,0.51,0.37,0.43,0.23,0.69,0.27,0.31,0.53,0.23" style="fill:rgb(0,0,0);font-family:MinionPro-Regular;font-size:9.0px;stroke:none;">and mass transfer due to the formation of thin shell with high mesoporosity and wide void as hollow core with </text>
   <text y="687.497" x="155.638,162.982,166.933,170.74,173.962,178.453,183.25,187.732,190.954,195.544,198.847,201.15,203.922,207.396,209.448,211.383,220.851,225.603,228.906,230.958,232.893,235.682,239.075,241.379,246.032,248.309,252.134,255.338,258.605,263.375,267.164,269.485,271.762,275.632,280.384,282.319,287.872,292.795,297.385" svgx:width="0.82,0.44,0.42,0.37,0.51,0.52,0.51,0.37,0.51,0.37,0.27,0.31,0.46,0.23,0.23,1.07,0.53,0.37,0.23,0.23,0.31,0.37,0.27,0.52,0.25,0.43,0.36,0.37,0.53,0.43,0.25,0.25,0.43,0.53,0.23,0.6,0.55,0.53,0.43" style="fill:rgb(0,0,0);font-family:MinionPro-Regular;font-size:9.0px;stroke:none;">macroporosity. Thus, triple-shelled ZnFe</text>
   <text y="689.3" x="301.218" svgx:width="0.48" style="fill:rgb(0,0,0);font-family:MinionPro-Regular;font-size:5.85px;stroke:none;">2</text>
   <text y="687.5" x="304.026" svgx:width="0.75" style="fill:rgb(0,0,0);font-family:MinionPro-Regular;font-size:9.0px;stroke:none;">O</text>
   <text y="689.3" x="310.749" svgx:width="0.48" style="fill:rgb(0,0,0);font-family:MinionPro-Regular;font-size:5.85px;stroke:none;">4</text>
   <text y="687.5" x="313.557,315.492,320.262,324.789,327.111,329.388,333.834,339.999,341.934,349.305,351.717,355.524,358.746,363.336,366.594,371.247,376.017,379.842,383.064,386.889,390.192,392.127,395.394,400.164,404.61,410.775,412.71,416.535,420.711,424.518,428.306,430.628,432.905,436.73,441.482,444.227,446.162,449.42,454.216,458.086,461.893,464.305,469.12,472.927,474.862,478.696,482.476,487.237,491.188,494.995,497.299,500.071,503.545,505.597,507.532,511.357,515.533,519.34,523.129,525.451,527.728,531.553,536.304,539.049,540.984,544.323,548.103,550.794,554.619" svgx:width="0.23,0.53,0.51,0.25,0.25,0.51,0.69,0.23,0.82,0.27,0.42,0.37,0.51,0.37,0.52,0.53,0.43,0.37,0.43,0.37,0.23,0.37,0.53,0.51,0.69,0.23,0.43,0.47,0.42,0.43,0.25,0.25,0.43,0.55,0.31,0.23,0.37,0.52,0.43,0.42,0.27,0.54,0.42,0.23,0.42,0.44,0.52,0.44,0.42,0.27,0.31,0.46,0.23,0.23,0.43,0.47,0.42,0.43,0.25,0.25,0.43,0.55,0.31,0.23,0.37,0.44,0.31,0.43,0.23" style="fill:rgb(0,0,0);font-family:MinionPro-Regular;font-size:9.0px;stroke:none;"> hollow microspheres show excellent specific capacity, excellent rate </text>
   <text y="697.499" x="155.634,159.473,163.259,168.024,171.909,176.378,178.84,181.126,183.436,186.213,189.693,191.754,193.698,197.573,202.466,207.227,209.171,213.005,217.186,221.002,224.836,229.458,232.253,234.674,239.161,244.063,248.064,250.35,252.294,256.25,260.315,264.073,266.359,268.78,273.637,277.853,279.797,283.061,285.864,289.749,294.218,296.68,298.966,301.276,304.053,308.193,310.137,314.787,319.575,323.409,325.353,328.049,332.648,334.592,337.396,342.172,346.006,347.95,351.951,354.279,356.56,360.463,364.662,367.106,370.892,373.687,376.108,380.595,385.527,387.471,391.958,394.631,396.575,398.996,403.753,406.45,410.279,413.678,418.579,422.581,424.867,426.811,430.038,433.872,437.184,439.574,442.838,445.642,449.518,454.41,458.222,462.056,464.0,467.875,472.767,477.528,479.472,484.086,487.313,491.81,494.506,498.381,502.256,505.051,507.472,511.96,516.892,518.836,523.323,525.996,527.94,532.04,536.573,538.747,543.535,550.876,554.701" svgx:width="0.42,0.44,0.52,0.44,0.51,0.27,0.25,0.27,0.31,0.46,0.23,0.23,0.44,0.55,0.53,0.23,0.43,0.47,0.42,0.43,0.52,0.31,0.27,0.51,0.55,0.44,0.25,0.23,0.42,0.46,0.42,0.25,0.27,0.55,0.47,0.23,0.37,0.31,0.44,0.51,0.27,0.25,0.27,0.31,0.46,0.23,0.53,0.53,0.43,0.23,0.31,0.51,0.23,0.31,0.53,0.43,0.23,0.44,0.25,0.25,0.43,0.46,0.27,0.44,0.31,0.27,0.51,0.55,0.23,0.51,0.3,0.23,0.27,0.55,0.31,0.43,0.37,0.55,0.44,0.25,0.23,0.37,0.43,0.37,0.27,0.37,0.31,0.44,0.55,0.42,0.43,0.23,0.44,0.55,0.53,0.23,0.52,0.37,0.51,0.31,0.43,0.42,0.31,0.27,0.51,0.55,0.23,0.51,0.3,0.23,0.46,0.51,0.25,0.53,0.82,0.43,0.23" style="fill:rgb(0,0,0);font-family:MinionPro-Regular;font-size:9.0px;stroke:none;">capability, and exceptional cycling stability due to the alleviation of internal resistance and protection of volume </text>
   <text y="707.498" x="155.634,159.54,163.869,168.715,172.67,177.606,180.99,183.483,188.049" svgx:width="0.43,0.47,0.52,0.44,0.55,0.37,0.27,0.51,0.55" style="fill:rgb(0,0,0);font-family:MinionPro-Regular;font-size:9.0px;stroke:none;">expansion</text>
   <text y="704.44" x="193.078,195.939,198.799,201.894,204.755" svgx:width="0.48,0.48,0.52,0.48,0.48" style="fill:rgb(0,0,0);font-family:MinionPro-Regular;font-size:5.85px;stroke:none;">35–37</text>
   <text y="707.5" x="207.628,209.766,211.899,218.059,221.447,223.58,226.248,230.815,234.239,236.372,241.884,246.73,253.538,256.827,261.232,265.638,270.042,272.18,274.313,277.196,282.051,285.962,288.095,292.994,296.365,299.707,302.538,304.671,309.508,311.979,315.438,319.276,324.14,328.096,331.448,335.673,339.583,341.716,345.67,350.535,354.219,358.4,362.309,364.442,366.913,370.301,372.434,377.27,379.705,383.983,386.481,391.317,395.273,400.109,402.242,404.74,409.577,412.353,417.028,419.161,422.044,426.936,430.243,434.198,438.108,440.241,443.548,447.458,451.799,454.297,458.864,463.8,467.188,469.325,471.458,474.262,477.091,479.224,483.134,487.467,492.358,494.819,499.368,501.757,504.587,507.976,510.109,512.965,519.144,523.818,525.951,530.582,535.094,539.373,541.87,546.447,551.284,554.587" svgx:width="0.23,0.23,0.69,0.37,0.23,0.3,0.51,0.37,0.23,0.6,0.53,0.75,0.36,0.48,0.48,0.48,0.23,0.23,0.31,0.53,0.43,0.23,0.54,0.37,0.37,0.31,0.23,0.53,0.27,0.37,0.42,0.53,0.44,0.37,0.47,0.43,0.23,0.42,0.53,0.37,0.46,0.43,0.23,0.27,0.37,0.23,0.53,0.27,0.46,0.27,0.53,0.43,0.53,0.23,0.27,0.55,0.31,0.51,0.23,0.31,0.53,0.37,0.43,0.43,0.23,0.37,0.43,0.47,0.27,0.51,0.55,0.37,0.23,0.23,0.34,0.31,0.23,0.43,0.47,0.53,0.27,0.51,0.27,0.31,0.37,0.23,0.31,0.69,0.51,0.23,0.51,0.51,0.46,0.27,0.51,0.53,0.37,0.23" style="fill:rgb(0,0,0);font-family:MinionPro-Regular;font-size:9.0px;stroke:none;">. As for ZFO-450, the first discharge curve is divided into three regions. It exhibits two obvious </text>
   <text y="717.499" x="155.635,159.698,164.191,166.328,169.095,172.967,177.075,180.864,182.565,187.186,189.456,193.204,195.862,199.708,203.456,208.174,211.441,213.142,216.988,221.609,226.022,230.084,233.873,235.574,239.858,241.874,246.158,247.282,253.573,255.274,259.045,263.495,268.312,271.579,273.931,277.157,279.914,282.29,287.109,291.285,292.986,297.436,300.064,301.765,305.68,307.381,310.615,315.361,319.198,322.595,327.275,328.976,333.426,338.279,342.068,343.769,348.389,352.178,354.917,360.977,364.814,368.603,373.49,375.191,379.475,381.491,385.775,386.935,393.226,394.927,398.765,403.619,408.335,410.036,414.32,416.336,420.62,424.904,426.022,432.313,434.014,437.092,442.675,446.464,450.688,453.064,457.513,462.4,464.101,467.134,470.212,471.913,475.751,480.605,485.321,487.022,490.937,492.638,494.879,499.328,504.147,508.323,510.024,514.473,519.327,523.116,524.817,529.437,533.226,535.965,542.025,545.862,549.651,554.575" svgx:width="0.46,0.51,0.25,0.31,0.44,0.47,0.43,0.23,0.52,0.25,0.44,0.31,0.43,0.44,0.53,0.37,0.23,0.44,0.51,0.51,0.46,0.43,0.23,0.48,0.23,0.48,0.23,0.7,0.23,0.42,0.51,0.55,0.37,0.27,0.37,0.31,0.27,0.55,0.47,0.23,0.51,0.3,0.23,0.44,0.23,0.37,0.53,0.44,0.37,0.52,0.23,0.51,0.55,0.43,0.23,0.51,0.43,0.31,0.69,0.43,0.43,0.55,0.23,0.48,0.23,0.48,0.23,0.7,0.23,0.44,0.55,0.53,0.23,0.48,0.23,0.48,0.48,0.23,0.7,0.23,0.35,0.62,0.43,0.47,0.27,0.51,0.55,0.23,0.34,0.35,0.23,0.44,0.55,0.53,0.23,0.44,0.23,0.25,0.51,0.55,0.47,0.23,0.51,0.55,0.43,0.23,0.51,0.43,0.31,0.69,0.43,0.43,0.55,0.23" style="fill:rgb(0,0,0);font-family:MinionPro-Regular;font-size:9.0px;stroke:none;">voltage plateaus above 0.7 V consisting of a sharp one between 1.5 V and 0.85 V (Region I) and a long one between </text>
   <text y="727.498" x="155.644,159.982,162.052,166.39,170.728,171.853,178.198,180.151,184.036,188.937,193.707,195.66,199.998,202.068,206.406,207.529,213.874,215.827,218.959,224.59,228.433,232.704,235.134,239.63,244.571,246.524,249.611,252.698,255.83,257.9,259.853,269.472,273.315,275.268,280.038,282.438,285.827,289.595,294.388,298.273,301.555,305.709,309.552,311.505,315.354,319.148,323.924,327.893,331.718,334.036,336.822,340.971,342.924,345.354,350.295,352.248,357.879,361.722,365.993,368.423,372.92,377.861,379.814,382.901,384.854,387.254,390.575,392.528,396.421,401.089,405.595,410.28,413.043,414.996,419.334,423.672,424.753,432.142,438.379,440.332,445.156,447.109" svgx:width="0.48,0.23,0.48,0.48,0.23,0.7,0.23,0.44,0.55,0.53,0.23,0.48,0.23,0.48,0.23,0.7,0.23,0.35,0.62,0.43,0.47,0.27,0.51,0.55,0.23,0.34,0.34,0.35,0.23,0.23,1.07,0.43,0.23,0.53,0.27,0.37,0.42,0.53,0.44,0.37,0.47,0.43,0.23,0.42,0.44,0.52,0.44,0.42,0.27,0.31,0.46,0.23,0.27,0.55,0.23,0.62,0.43,0.47,0.27,0.51,0.55,0.23,0.34,0.23,0.27,0.37,0.23,0.44,0.51,0.51,0.53,0.31,0.23,0.48,0.48,0.23,0.82,0.69,0.23,0.53,0.23,0.47" style="fill:rgb(0,0,0);font-family:MinionPro-Regular;font-size:9.0px;stroke:none;">0.85 V and 0.7 V (Region II). The discharge capacity in Region I is about 90 mA h g</text>
   <text y="724.44" x="451.326" svgx:width="0.78" style="fill:rgb(0,0,0);font-family:EuclidSymbol;font-size:5.85px;stroke:none;">−</text>
   <text y="724.44" x="455.888" svgx:width="0.48" style="fill:rgb(0,0,0);font-family:MinionPro-Regular;font-size:5.85px;stroke:none;">1</text>
   <text y="727.5" x="458.705,460.658,463.088,467.989,472.759,475.189,479.038,482.832,485.637,488.067,492.933,497.163,499.116,501.929,506.723,510.517,513.28,515.233,519.571,521.641,525.979,527.932,530.227,532.546,535.36,540.184,542.502,547.299,554.67" svgx:width="0.23,0.27,0.55,0.53,0.27,0.42,0.44,0.31,0.27,0.55,0.47,0.23,0.31,0.53,0.44,0.31,0.23,0.48,0.23,0.48,0.23,0.25,0.27,0.31,0.53,0.27,0.53,0.82,0.23" style="fill:rgb(0,0,0);font-family:MinionPro-Regular;font-size:9.0px;stroke:none;"> indicating that 0.5 lithium </text>
  </g>
  <rect style="stroke:blue;stroke-width:0.3;" x="155.638" y="64.138" height="380.64" width="396.0" title="5"/>
  <text y="64.138" class="image" id="image.5.1" width="396" height="380" x="155.638">image.5.1.156_552.64_445</text>
  <path style="fill:none;stroke:rgb(131,144,151);stroke-width:0.3;" d="M159.130 466.250 L552.640 466.250 "/>
  <path style="fill:none;stroke:rgb(131,144,151);stroke-width:1.0;" d="M156.140 466.250 L156.140 466.250 M554.140 466.250 L554.140 466.250 "/>
  <g begin="text">
   <text y="446.247" x="155.638,160.552,163.207,167.662,172.657,176.221,180.154,181.909,186.409" svgx:width="0.55,0.29,0.49,0.56,0.4,0.44,0.22,0.5,0.25" style="fill:rgb(0,0,0);font-family:MinionPro-Bold;font-size:9.0px;stroke:none;">Figure 5.</text>
   <text y="446.247" x="188.695,190.765,193.195,198.649,203.176,205.345,208.144,212.05,216.19,220.015,221.851,226.459,229.681,234.163,239.022,241.299,245.124,248.427,250.263,254.745,257.409,259.245" svgx:width="0.23,0.55,0.7,0.51,0.25,0.31,0.44,0.47,0.43,0.23,0.52,0.37,0.51,0.54,0.25,0.43,0.37,0.23,0.51,0.3,0.23,0.35" style="fill:rgb(0,0,0);font-family:MinionPro-Regular;font-size:9.0px;stroke:none;"> Voltage profiles of (</text>
   <text y="446.247" x="262.359" svgx:width="0.47" style="fill:rgb(0,0,0);font-family:MinionPro-Bold;font-size:9.0px;stroke:none;">a</text>
   <text y="446.247" x="266.553,269.667,271.503,276.93,281.691,288.414,291.618,295.938,300.258,304.578,306.63,308.466" svgx:width="0.35,0.23,0.6,0.53,0.75,0.36,0.48,0.48,0.48,0.23,0.23,0.35" style="fill:rgb(0,0,0);font-family:MinionPro-Regular;font-size:9.0px;stroke:none;">) ZFO-400, (</text>
   <text y="446.247" x="311.58" svgx:width="0.53" style="fill:rgb(0,0,0);font-family:MinionPro-Bold;font-size:9.0px;stroke:none;">b</text>
   <text y="446.247" x="316.386,319.5,321.336,326.763,331.524,338.247,341.451,345.771,350.091,354.411,356.463,358.299,362.169,367.056,371.808,373.644" svgx:width="0.35,0.23,0.6,0.53,0.75,0.36,0.48,0.48,0.48,0.23,0.23,0.44,0.55,0.53,0.23,0.35" style="fill:rgb(0,0,0);font-family:MinionPro-Regular;font-size:9.0px;stroke:none;">) ZFO-450, and (</text>
   <text y="446.247" x="376.758" svgx:width="0.42" style="fill:rgb(0,0,0);font-family:MinionPro-Bold;font-size:9.0px;stroke:none;">c</text>
   <text y="446.247" x="380.556,383.67,385.506,390.933,395.694,402.417,405.621,409.941,414.261,418.581,420.417,424.197,426.942,428.778,432.729,434.565,438.435,443.214,446.607,449.829,453.654,458.406,461.151,462.987,467.739,471.564,476.414,479.717,482.021,484.793,488.924,490.76,495.242,497.906,499.742,504.062,505.225,511.444,513.28" svgx:width="0.35,0.23,0.6,0.53,0.75,0.36,0.48,0.48,0.48,0.23,0.44,0.31,0.23,0.44,0.23,0.42,0.53,0.37,0.37,0.43,0.55,0.31,0.23,0.53,0.43,0.55,0.37,0.27,0.31,0.46,0.23,0.51,0.3,0.23,0.48,0.23,0.69,0.23,0.47" style="fill:rgb(0,0,0);font-family:MinionPro-Regular;font-size:9.0px;stroke:none;">) ZFO-500 at a current density of 2 A g</text>
   <text y="443.187" x="517.496" svgx:width="0.78" style="fill:rgb(0,0,0);font-family:EuclidSymbol;font-size:5.85px;stroke:none;">−</text>
   <text y="443.187" x="522.047" svgx:width="0.48" style="fill:rgb(0,0,0);font-family:MinionPro-Regular;font-size:5.85px;stroke:none;">1</text>
   <text y="446.247" x="524.856,526.692,529.104,534.026,535.862,540.182,541.317,549.336" svgx:width="0.23,0.27,0.55,0.23,0.48,0.23,0.89,0.23" style="fill:rgb(0,0,0);font-family:MinionPro-Regular;font-size:9.0px;stroke:none;"> in 1 M </text>
   <text y="456.246" x="155.64,160.536,162.948,167.97" svgx:width="0.54,0.27,0.56,0.53" style="fill:rgb(0,0,0);font-family:MinionPro-Regular;font-size:9.0px;stroke:none;">LiPF</text>
   <text y="458.047" x="172.729" svgx:width="0.48" style="fill:rgb(0,0,0);font-family:MinionPro-Regular;font-size:5.85px;stroke:none;">6</text>
   <text y="456.247" x="175.537,178.516,183.628,189.613,192.592,199.072,207.01,212.995" svgx:width="0.33,0.57,0.67,0.33,0.74,0.89,0.67,0.23" style="fill:rgb(0,0,0);font-family:MinionPro-Regular;font-size:9.0px;stroke:none;">/EC/DMC.</text>
  </g>
 </g>
</svg>
