<?xml version="1.0" encoding="UTF-8"?>
<svg height="774.23" width="4165.638" xmlns="http://www.w3.org/2000/svg">
 <g id="page" xmlns:svgx="http://www.xml-cml.org/schema/svgx">
  <g begin="text">
   <text y="22.46" x="40.638,48.208,55.778,63.055,66.145,71.865,77.215,81.135,86.765,90.565,95.995,99.085,103.915,109.695,118.435,121.635,126.125,130.955,133.725,139.15,144.87,148.79,151.56,155.19,157.96,162.79,166.59,172.02,177.78,183.56,187.36,191.28,195.77" svgx:width="0.71,0.71,0.71,0.26,0.53,0.49,0.35,0.52,0.34,0.5,0.26,0.44,0.53,0.83,0.28,0.4,0.44,0.23,0.5,0.53,0.35,0.23,0.32,0.23,0.44,0.34,0.5,0.53,0.53,0.34,0.35,0.4,0.28" style="fill:rgb(255,255,255);font-family:Corbel;font-size:10.0px;stroke:none;">www.nature.com/scientificreports/</text>
  </g>
  <g begin="text">
   <text y="764.23" x="550.106" svgx:width="0.45" style="fill:rgb(131,144,151);font-family:Corbel;font-size:10.0px;stroke:none;">3</text>
  </g>
  <g begin="text">
   <text y="764.193" x="40.794,45.642,50.786,53.186,58.026,64.026,68.898,71.298,75.762,78.162" svgx:width="0.55,0.59,0.25,0.55,0.7,0.56,0.25,0.5,0.25,0.59" style="fill:rgb(131,144,151);font-family:Corbel;font-size:8.0px;stroke:none;">Scientific</text>
   <text y="764.193" x="83.162" svgx:width="0.2" style="fill:rgb(0,0,0);font-family:Corbel;font-size:8.0px;stroke:none;"> </text>
   <text y="764.193" x="84.762,90.218,95.194,100.434,106.738,112.194,117.186" svgx:width="0.63,0.57,0.6,0.73,0.63,0.57,0.58" style="fill:rgb(131,144,151);font-family:Corbel-Bold;font-size:8.0px;stroke:none;">RepoRts</text>
   <text y="764.193" x="122.082,123.524,125.34,126.781,130.885,132.997,137.102,141.206,145.31,149.414,153.518,154.946,156.762,158.203,163.571,169.411,171.379,173.491,174.93,179.034,183.138,185.25,189.354,193.458,197.562,201.666,203.866,207.098,209.778,213.762,218.01,222.114,226.218,230.322,234.426" svgx:width="0.2,0.23,0.2,0.51,0.26,0.51,0.51,0.51,0.51,0.51,0.2,0.23,0.2,0.67,0.73,0.25,0.26,0.2,0.51,0.51,0.26,0.51,0.51,0.51,0.51,0.28,0.4,0.34,0.5,0.53,0.51,0.51,0.51,0.51,0.51" style="fill:rgb(0,0,0);font-family:Corbel;font-size:8.0px;stroke:none;"> | 7:46378 | DOI: 10.1038/srep46378</text>
  </g>
  <path style="fill:none;stroke:rgb(0,0,0);stroke-width:1.0;" d="M40.640 752.550 L554.640 752.550 "/>
  <g begin="text">
   <text y="203.5" x="155.638,160.434,165.258,172.637,176.507,179.773,184.308,189.105,192.453,194.442,196.899,201.695,204.43,208.3,211.773,216.577,220.491,223.964,226.798,229.255,233.051,235.374,239.243,241.232,246.074,250.6,253.866,257.736,261.084,263.181,265.17,274.817,278.687,280.676,286.912,289.369,294.166,298.036,300.025,304.164,308.69,311.147,315.944,317.933,324.169,326.517,329.361,334.212,336.201,343.589,347.585,351.437,354.704,359.238,364.079,368.605,371.871,376.406,381.202,384.55,386.539,393.918,398.445,401.918,406.614,411.428,415.999,418.321,422.956,427.428,431.604,433.593,437.507,442.438,447.235,449.224,454.02,458.844,466.224,470.094,473.36,477.895,482.691,486.039,488.028,490.485,495.281,498.016,501.886,505.359,510.163,514.077,517.551,520.385,522.842,526.638,528.96,532.83,534.819,539.66,544.186,547.452,551.322,554.624" svgx:width="0.55,0.53,0.82,0.43,0.37,0.51,0.53,0.37,0.23,0.27,0.55,0.31,0.43,0.37,0.52,0.44,0.37,0.31,0.27,0.42,0.25,0.43,0.23,0.52,0.51,0.37,0.43,0.37,0.23,0.23,1.07,0.43,0.23,0.69,0.27,0.53,0.43,0.23,0.46,0.51,0.27,0.53,0.23,0.69,0.27,0.31,0.53,0.23,0.82,0.44,0.42,0.37,0.51,0.52,0.51,0.37,0.51,0.53,0.37,0.23,0.82,0.51,0.37,0.52,0.53,0.51,0.25,0.51,0.47,0.46,0.23,0.44,0.55,0.53,0.23,0.55,0.53,0.82,0.43,0.37,0.51,0.53,0.37,0.23,0.27,0.55,0.31,0.43,0.37,0.52,0.44,0.37,0.31,0.27,0.42,0.25,0.43,0.23,0.52,0.51,0.37,0.43,0.37,0.23" style="fill:rgb(0,0,0);font-family:MinionPro-Regular;font-size:9.0px;stroke:none;">numerous interparticle pores. The wide void with macroporous morphology and numerous interparticle pores </text>
   <text y="213.499" x="155.638,161.922,164.317,167.208,172.104,174.605,179.618,181.779,189.205,193.12,196.586,201.169,206.057,210.631,213.944,218.527,223.37,226.763,228.923,231.813,236.709,239.211,244.224,246.384,249.742,254.604,258.485,260.898,263.265,265.425,269.655,274.193,278.379,282.294,285.779,290.721,294.114,296.274,299.164,304.025,307.94,310.1,314.015,319.074,323.945,327.907,332.886,336.783,340.698,348.124,352.039,356.882,359.717,361.877,366.451,369.205,371.365,375.246,377.613,381.575,385.536,388.418,391.73,396.493,400.337,405.199,409.114,416.575,419.077,423.002,427.09,429.457,431.617,436.505,440.421,443.905,446.579,451.153,454.638,462.073,466.034,471.013,474.91,478.825,480.985,485.504,489.725,491.885,495.8,500.779,504.741,509.61,516.983,521.726,525.641,529.126,531.628,536.571,540.873,543.033,545.924,550.785,554.61" svgx:width="0.69,0.27,0.31,0.53,0.27,0.55,0.23,0.82,0.43,0.37,0.51,0.52,0.51,0.37,0.51,0.53,0.37,0.23,0.31,0.53,0.27,0.55,0.23,0.37,0.53,0.43,0.25,0.25,0.23,0.47,0.51,0.46,0.43,0.37,0.55,0.37,0.23,0.31,0.53,0.43,0.23,0.43,0.55,0.53,0.44,0.55,0.42,0.43,0.82,0.43,0.55,0.31,0.23,0.51,0.3,0.23,0.43,0.25,0.43,0.42,0.31,0.37,0.51,0.42,0.53,0.43,0.82,0.27,0.42,0.44,0.25,0.23,0.52,0.43,0.37,0.3,0.51,0.37,0.82,0.44,0.55,0.42,0.43,0.23,0.51,0.46,0.23,0.43,0.55,0.42,0.53,0.82,0.51,0.43,0.37,0.27,0.55,0.47,0.23,0.31,0.53,0.43,0.23" style="fill:rgb(0,0,0);font-family:MinionPro-Regular;font-size:9.0px;stroke:none;">within mesoporous thin shell governs the enhancement of electrochemical performance by encumbering the </text>
   <text y="223.498" x="155.638,161.065,165.826,172.549,174.385,179.002,183.825,186.04,190.135,193.96,197.352,199.764,203.544,207.324,210.114,212.526,217.008,221.931,223.767,227.601,231.38,236.132,239.507,243.377,248.129,249.965,252.719,255.941,260.423,267.794,269.63,272.429,277.199,281.024,282.86,286.955,291.482,293.651,298.43,305.765,309.59,311.426,315.251,319.499,324.259,328.129,332.98,336.283,338.695,343.177,348.1,349.936,354.58,359.359,362.752,365.164,370.015,374.227,376.063,378.34,380.644,383.443,388.249,390.688,394.468,397.258,399.67,404.152,409.075,412.054,416.806,420.594,422.871,425.175,427.974,432.78,435.219,438.999,441.789,444.201,448.683,453.606" svgx:width="0.6,0.53,0.75,0.23,0.52,0.53,0.25,0.46,0.43,0.37,0.27,0.42,0.44,0.31,0.27,0.51,0.55,0.23,0.42,0.44,0.53,0.37,0.43,0.53,0.23,0.3,0.37,0.51,0.82,0.23,0.31,0.53,0.43,0.23,0.46,0.51,0.25,0.53,0.82,0.43,0.23,0.43,0.47,0.52,0.44,0.55,0.37,0.27,0.51,0.55,0.23,0.53,0.53,0.37,0.27,0.55,0.47,0.23,0.25,0.27,0.31,0.53,0.27,0.44,0.31,0.27,0.51,0.55,0.33,0.53,0.43,0.25,0.27,0.31,0.53,0.27,0.44,0.31,0.27,0.51,0.55,0.23" style="fill:rgb(0,0,0);font-family:MinionPro-Regular;font-size:9.0px;stroke:none;">ZFO pulverization caused from the volume expansion during lithiation/delithiation.</text>
   <text y="233.497" x="167.635,173.656,176.995,180.469,184.393,188.659,190.972,195.859,198.406,203.68,207.154,211.24,215.244,218.169,220.716,225.333,230.391,232.704,235.953,241.974,247.698,254.448,257.697,260.01,264.906,268.821,271.612,274.438,278.398,281.926,286.912,290.35,292.663,297.281,300.08,302.393,308.081,313.139,317.864,321.824,325.163,329.573,331.922,336.116,340.058,344.72,347.159,351.074,353.901,357.861,360.174,364.179,369.202,374.089,376.402,381.964,386.86,393.718,396.031,402.358,404.797,407.731,412.672,414.985,419.872,422.419,427.522,431.482,434.84,438.8,443.687,446.567,448.88,452.848,456.979,459.391,463.333,465.88,470.911,474.826,477.751,480.298,484.915,489.973,492.286,495.112,499.072,506.407,511.339,515.299,518.773,522.688,525.478,530.392,533.749,537.709,541.147,543.46,547.466,550.823,554.648" svgx:width="0.65,0.36,0.37,0.44,0.46,0.23,0.53,0.27,0.56,0.37,0.44,0.42,0.31,0.27,0.51,0.55,0.23,0.35,0.65,0.62,0.74,0.35,0.23,0.52,0.44,0.31,0.31,0.43,0.37,0.55,0.37,0.23,0.51,0.3,0.23,0.6,0.55,0.53,0.43,0.36,0.47,0.25,0.46,0.42,0.51,0.25,0.44,0.31,0.43,0.23,0.44,0.55,0.53,0.23,0.6,0.53,0.75,0.23,0.69,0.27,0.31,0.53,0.23,0.53,0.27,0.56,0.43,0.37,0.43,0.55,0.31,0.23,0.42,0.44,0.25,0.42,0.27,0.55,0.44,0.31,0.27,0.51,0.55,0.23,0.31,0.43,0.82,0.52,0.43,0.37,0.44,0.31,0.53,0.37,0.43,0.37,0.23,0.44,0.37,0.43,0.23" style="fill:rgb(0,0,0);font-family:MinionPro-Regular;font-size:9.0px;stroke:none;">X-ray diffraction (XRD) patterns of ZnFe-glycolate and ZFO with different calcination temperatures are </text>
   <text y="243.496" x="155.638,158.926,163.716,168.183,174.396,179.337,181.299,183.729,188.67,190.632,195.411,197.841,202.071,206.868,210.11,213.953,215.915,220.199,224.537,226.607,228.57,233.486,239.6,244.208,246.17,250.988,254.886,258.903,263.385,266.706,268.668,272.469,275.232,277.194,281.085,284.327,288.839,293.636,298.544,303.314,305.276,309.614,313.952,315.914,319.804,324.712,329.482,331.444,335.782,340.12,343.225,345.187,349.079,352.32,356.163,358.125,361.899,366.699,370.59,373.947,377.916,381.806,384.518,388.361,391.775,394.18,397.459,400.27,402.7,406.525,408.487,412.99,415.672,417.634,423.207,428.148,432.759,436.602,439.824,444.12,446.354,450.434,454.259,458.807,461.131,464.932,467.644,471.436,473.506,475.468,485.091,488.934,490.896,498.252,502.86,506.139,508.902,510.864,514.142,516.953,520.367,522.844,527.364,529.794,534.667,538.897,540.859,543.463,547.362,551.331" svgx:width="0.37,0.53,0.51,0.69,0.55,0.23,0.27,0.55,0.23,0.53,0.27,0.47,0.53,0.37,0.43,0.23,0.47,0.48,0.23,0.23,0.62,0.69,0.51,0.23,0.52,0.43,0.44,0.5,0.37,0.23,0.44,0.31,0.23,0.44,0.37,0.51,0.53,0.55,0.53,0.23,0.48,0.48,0.23,0.44,0.55,0.53,0.23,0.48,0.48,0.34,0.23,0.44,0.37,0.43,0.23,0.42,0.53,0.44,0.37,0.44,0.42,0.31,0.43,0.37,0.27,0.37,0.31,0.27,0.42,0.23,0.51,0.3,0.23,0.6,0.55,0.53,0.43,0.36,0.47,0.25,0.46,0.42,0.51,0.25,0.44,0.31,0.43,0.23,0.23,1.07,0.43,0.23,0.82,0.51,0.37,0.31,0.23,0.37,0.31,0.37,0.27,0.5,0.27,0.55,0.47,0.23,0.3,0.43,0.44,0.36" style="fill:rgb(0,0,0);font-family:MinionPro-Regular;font-size:9.0px;stroke:none;">shown in Figure S2. Two peaks at around 11 and 13° are characteristic of ZnFe-glycolate. The most striking fea-</text>
   <text y="253.495" x="155.638,158.359,163.201,166.488,170.376,172.446,174.897,178.263,180.333,183.198,188.033,191.921,193.991,198.806,201.256,204.678,208.524,213.206,218.068,222.012,225.948,229.35,233.286,238.237,242.107,245.995,248.065,252.613,255.34,257.41,260.275,265.11,268.998,271.068,276.685,281.671,286.326,290.214,293.481,297.821,300.101,304.225,308.095,312.688,315.057,318.903,321.658,325.546,327.616,332.478,336.423,340.484,345.011,348.377,350.447,354.391,359.109,363.62,367.781,371.669,373.739,378.122,382.505,386.888,388.099,391.249,397.297,399.412,401.482,406.138,410.685,414.087,416.157,420.218,422.606,424.946,427.016,431.564,434.291,436.361,439.225,444.06,447.948,450.018,455.508,460.332,467.118,469.188,472.611,476.547,483.811,488.529,490.869,494.757,498.123,500.238,502.308,505.173,510.008,513.896,515.966,520.781,523.256,528.459,531.861,535.875,539.811,542.666,545.141,549.688,554.611" svgx:width="0.31,0.53,0.37,0.43,0.23,0.27,0.37,0.23,0.31,0.53,0.43,0.23,0.53,0.27,0.37,0.44,0.52,0.52,0.43,0.44,0.37,0.44,0.55,0.42,0.43,0.23,0.51,0.3,0.23,0.31,0.53,0.43,0.23,0.6,0.55,0.53,0.43,0.36,0.47,0.25,0.46,0.42,0.51,0.25,0.44,0.31,0.43,0.23,0.52,0.43,0.44,0.5,0.37,0.23,0.44,0.51,0.51,0.46,0.43,0.23,0.48,0.48,0.48,0.23,0.34,0.67,0.23,0.23,0.53,0.51,0.37,0.23,0.44,0.25,0.25,0.23,0.51,0.3,0.23,0.31,0.53,0.43,0.23,0.6,0.53,0.75,0.23,0.37,0.44,0.82,0.52,0.25,0.43,0.37,0.23,0.23,0.31,0.53,0.43,0.23,0.53,0.27,0.56,0.37,0.44,0.42,0.31,0.27,0.51,0.55,0.23" style="fill:rgb(0,0,0);font-family:MinionPro-Regular;font-size:9.0px;stroke:none;">ture is the disappearance of the ZnFe-glycolate peaks above 400 °C. For all of the ZFO samples, the diffraction </text>
   <text y="263.494" x="155.638,160.488,164.419,168.468,172.986,176.343,178.368,182.292,185.566,189.445,191.47,196.068,200.694,204.122,208.001,211.654,215.802,219.725,224.531,226.556,230.389,233.188,235.213" svgx:width="0.52,0.43,0.44,0.5,0.37,0.23,0.44,0.37,0.43,0.23,0.51,0.51,0.37,0.43,0.37,0.46,0.43,0.53,0.23,0.44,0.31,0.23,0.48" style="fill:rgb(0,0,0);font-family:MinionPro-Regular;font-size:9.0px;stroke:none;">peaks are observed at 2</text>
   <text y="263.494" x="239.587" svgx:width="0.41" style="fill:rgb(0,0,0);font-family:EuclidSymbol;font-size:9.0px;stroke:none;">θ</text>
   <text y="263.494" x="243.37,243.424" svgx:width="0.23,0.23" style="fill:rgb(0,0,0);font-family:MinionPro-Regular;font-size:9.0px;stroke:none;"> </text>
   <text y="263.494" x="244.603" svgx:width="0.78" style="fill:rgb(0,0,0);font-family:EuclidSymbol;font-size:9.0px;stroke:none;">=</text>
   <text y="263.494" x="251.659,251.712,252.892,257.266,261.64,263.746,268.12,270.226,272.251,276.625,280.999,283.105,287.479,289.585,291.61,295.984,300.358,302.464,306.838,308.944,310.969,315.343,319.717,321.823,326.197,328.303,330.328,334.702,339.076,341.182,345.556,347.662,349.687,354.061,358.435,360.541,364.915,367.021,369.046,373.42,377.794,379.9,384.274,386.38,388.405,392.779,397.153,399.259,403.633,405.739,407.764,411.687,416.627,421.433,423.458,427.832,432.206,434.312,438.686,441.827,443.933,445.958,449.233,453.112,456.423,461.273,465.196,469.118,471.961,474.363,478.512,482.353,484.62,488.147,490.253,492.278,496.139,500.674,504.12,507.395,511.274,514.585,519.435,523.971,528.911,533.717,536.183,541.087,545.353,547.378,550.122,554.712" svgx:width="0.23,0.23,0.48,0.48,0.23,0.48,0.23,0.23,0.48,0.48,0.23,0.48,0.23,0.23,0.48,0.48,0.23,0.48,0.23,0.23,0.48,0.48,0.23,0.48,0.23,0.23,0.48,0.48,0.23,0.48,0.23,0.23,0.48,0.48,0.23,0.48,0.23,0.23,0.48,0.48,0.23,0.48,0.23,0.23,0.48,0.48,0.23,0.48,0.23,0.23,0.44,0.55,0.53,0.23,0.48,0.48,0.23,0.48,0.34,0.23,0.23,0.37,0.43,0.37,0.52,0.43,0.42,0.31,0.27,0.46,0.43,0.25,0.46,0.23,0.23,0.42,0.51,0.37,0.37,0.43,0.37,0.52,0.51,0.55,0.53,0.27,0.55,0.47,0.23,0.31,0.51,0.23" style="fill:rgb(0,0,0);font-family:MinionPro-Regular;font-size:9.0px;stroke:none;"> 30.0, 35.3, 36.9, 42.9, 53.3, 56.8, 62.3, 70.7, and 73.8°, respectively, corresponding to </text>
   <text y="273.493" x="155.638,158.752,163.072,167.392,171.712,174.826,176.878,178.768,181.882,186.202,190.522,194.842,197.956,200.008,201.898,205.012,209.332,213.652,217.972,221.086,223.138,225.028,228.142,232.462,236.782,241.102,244.216,246.268,248.158,251.272,255.592,259.912,264.232,267.346,269.398,271.288,274.402,278.722,283.042,287.362,290.476,292.528,294.418,297.532,301.852,306.172,310.492,313.606,315.658,317.548,320.662,324.982,329.302,333.622,336.736,338.788,340.678,344.548,349.435,354.187,356.077,359.191,363.511,367.831,372.151,375.265,377.155,381.808,384.112,387.982,392.869,396.694,399.997,402.049,403.939,413.542,417.367,419.257,424.009,426.421,431.56,434.899,438.85,442.72,445.51,447.922,452.404,457.327,459.217,464.014,467.893,471.889,476.353,479.656,481.546,486.028,488.692,490.582,496.009,500.77,507.439,510.742,512.632,515.016,518.319,520.209,522.621,527.373,531.198,535.95,538.74,541.152,545.967,549.837,554.589" svgx:width="0.35,0.48,0.48,0.48,0.35,0.23,0.23,0.35,0.48,0.48,0.48,0.35,0.23,0.23,0.35,0.48,0.48,0.48,0.35,0.23,0.23,0.35,0.48,0.48,0.48,0.35,0.23,0.23,0.35,0.48,0.48,0.48,0.35,0.23,0.23,0.35,0.48,0.48,0.48,0.35,0.23,0.23,0.35,0.48,0.48,0.48,0.35,0.23,0.23,0.35,0.48,0.48,0.48,0.35,0.23,0.23,0.44,0.55,0.53,0.23,0.35,0.48,0.48,0.48,0.35,0.23,0.52,0.25,0.44,0.55,0.43,0.37,0.23,0.23,1.07,0.43,0.23,0.53,0.27,0.56,0.37,0.44,0.42,0.31,0.27,0.51,0.55,0.23,0.52,0.43,0.44,0.5,0.37,0.23,0.51,0.3,0.23,0.6,0.53,0.75,0.37,0.23,0.27,0.37,0.23,0.27,0.53,0.43,0.55,0.31,0.27,0.54,0.43,0.53,0.23" style="fill:rgb(0,0,0);font-family:MinionPro-Regular;font-size:9.0px;stroke:none;">(220), (311), (222), (400), (422), (333), (440), (620), and (533) planes. The diffraction peaks of ZFOs is identified </text>
   <text y="283.492" x="155.638,161.815,164.104,166.888,171.676,173.395,176.638,181.231,183.625,188.498,192.272,194.531,196.25,200.039,203.623,207.736,210.98,213.764,217.744,220.052,222.311,224.705,229.577,233.384,235.103,238.346,241.121,244.536,249.297,253.151,255.792,260.553,263.76,267.567,269.286,272.538,275.439,281.406,286.413,293.01,297.258,298.977,302.796,306.651,309.858,314.592,316.311,322.759,327.073,329.107,330.826,335.128,339.43,344.092,348.394,352.696,356.998,361.3" svgx:width="0.69,0.27,0.31,0.53,0.23,0.37,0.52,0.27,0.55,0.43,0.25,0.23,0.42,0.37,0.46,0.37,0.31,0.44,0.25,0.25,0.27,0.55,0.43,0.23,0.37,0.31,0.37,0.53,0.42,0.31,0.53,0.37,0.43,0.23,0.35,0.33,0.67,0.56,0.74,0.47,0.23,0.42,0.44,0.37,0.53,0.23,0.74,0.51,0.23,0.23,0.48,0.48,0.52,0.48,0.48,0.48,0.48,0.35" style="fill:rgb(0,0,0);font-family:MinionPro-Regular;font-size:9.0px;stroke:none;">with spinel crystalline structure (JCPDS card No. 82–1049)</text>
   <text y="280.44" x="364.491,367.287" svgx:width="0.48,0.48" style="fill:rgb(0,0,0);font-family:MinionPro-Regular;font-size:5.85px;stroke:none;">32</text>
   <text y="283.5" x="370.087,372.121,373.84,383.429,387.236,388.955,393.689,396.083,401.208,404.529,408.462,412.316,415.091,417.485,421.952,426.857,428.576,433.358,437.221,441.203,445.649,448.934,450.653,456.83,459.119,461.903,466.691,468.41,471.194,475.949,479.756,481.475,486.263,488.657,492.917,497.705,499.424,503.213,506.798,510.911,514.153,516.938,520.919,523.225,525.484,527.878,532.783,535.072,537.83,541.943,543.661,547.517,550.724,554.549" svgx:width="0.23,0.23,1.07,0.43,0.23,0.53,0.27,0.56,0.37,0.44,0.42,0.31,0.27,0.51,0.55,0.23,0.52,0.43,0.44,0.5,0.37,0.23,0.69,0.27,0.31,0.53,0.23,0.31,0.53,0.43,0.23,0.53,0.27,0.47,0.53,0.23,0.42,0.37,0.46,0.37,0.31,0.44,0.25,0.25,0.27,0.55,0.27,0.31,0.46,0.23,0.44,0.37,0.43,0.23" style="fill:rgb(0,0,0);font-family:MinionPro-Regular;font-size:9.0px;stroke:none;">. The diffraction peaks with the high crystallinity are </text>
   <text y="293.499" x="155.635,158.921,161.738,164.987,169.496,174.374,178.542,182.394,185.76,187.731,191.628,196.543,201.322,203.293,206.587,211.393,215.291,218.747,223.571,227.423,230.789,232.76,238.979,241.31,244.137,248.97,250.941,253.767,258.564,262.416,264.387,266.826,271.741,275.575,278.824,282.73,286.682,290.084,293.936,295.907,298.346,303.296,305.267,309.101,312.728,316.886,320.172,322.998,327.021,329.325,331.296,334.626,337.065,340.872,344.67,346.749,348.72,354.975,359.808,362.247,366.027,370.86,372.831,377.61,381.462,386.286,390.138,395.052,399.805,403.135,405.106,409.615,414.565,416.536,419.362,424.159,428.011,429.982,432.593,437.102,440.522,447.893,451.701,454.518,456.957,461.466,466.416,468.387,472.897,475.588,477.559,484.921,489.43,492.886,497.567,502.364,506.918,509.222,513.839,518.294,522.452,524.423,528.878,533.036,535.007,538.868,542.891,545.195,549.029,551.468" svgx:width="0.37,0.31,0.37,0.51,0.55,0.47,0.43,0.37,0.23,0.44,0.55,0.53,0.23,0.37,0.53,0.44,0.37,0.52,0.43,0.37,0.23,0.69,0.27,0.31,0.53,0.23,0.31,0.53,0.43,0.23,0.27,0.55,0.42,0.37,0.43,0.44,0.37,0.43,0.23,0.27,0.55,0.23,0.42,0.37,0.46,0.37,0.31,0.44,0.25,0.23,0.37,0.27,0.42,0.43,0.23,0.23,0.69,0.53,0.27,0.42,0.53,0.23,0.53,0.43,0.52,0.43,0.55,0.53,0.37,0.23,0.51,0.55,0.23,0.31,0.53,0.43,0.23,0.3,0.51,0.37,0.82,0.44,0.31,0.27,0.51,0.55,0.23,0.51,0.3,0.23,0.82,0.51,0.37,0.52,0.53,0.51,0.25,0.51,0.47,0.46,0.23,0.51,0.46,0.23,0.42,0.44,0.25,0.42,0.27,0.36" style="fill:rgb(0,0,0);font-family:MinionPro-Regular;font-size:9.0px;stroke:none;">stronger and sharper with the increase in crystal size, which depends on the formation of morphology by calci-</text>
   <text y="303.498" x="155.635,160.532,164.312,167.102,169.514,173.995,178.919,180.844,183.535,187.36,194.56,199.357,203.182,206.521,210.301,212.956,217.735,220.957,224.728,226.78,228.706,238.309,242.134,244.06,248.812,251.224,256.363,259.702,263.653,267.523,270.312,272.724,277.206,282.129,284.055,288.851,292.73,296.726,301.19,304.493,306.419,310.901,313.565,315.491,320.918,325.679,332.402,335.606,339.926,344.246,348.566,350.492,354.362,357.584,361.409,363.335,369.428,373.307,377.303,381.686,385.511,388.85,390.776,394.646,399.533,404.285,406.211,412.403,414.815,419.567,423.392,426.731,428.657,432.464,436.946,444.146,448.906,452.777,455.999,459.868,464.62,466.546,469.238,473.828,475.754,478.552,483.322,487.912,491.287,495.112,497.038,501.52,504.184,506.11,511.537,516.298,523.021,526.225,530.545,534.865,539.185,541.111,544.981,549.868,554.62" svgx:width="0.55,0.44,0.31,0.27,0.51,0.55,0.23,0.31,0.43,0.82,0.52,0.43,0.37,0.44,0.31,0.53,0.37,0.43,0.23,0.23,1.07,0.43,0.23,0.53,0.27,0.56,0.37,0.44,0.42,0.31,0.27,0.51,0.55,0.23,0.52,0.43,0.44,0.5,0.37,0.23,0.51,0.3,0.23,0.6,0.53,0.75,0.36,0.48,0.48,0.48,0.23,0.44,0.37,0.43,0.23,0.69,0.43,0.44,0.5,0.43,0.37,0.23,0.44,0.55,0.53,0.23,0.69,0.27,0.53,0.43,0.37,0.23,0.42,0.51,0.82,0.52,0.44,0.37,0.43,0.53,0.23,0.31,0.51,0.23,0.31,0.53,0.51,0.37,0.43,0.23,0.51,0.3,0.23,0.6,0.53,0.75,0.36,0.48,0.48,0.48,0.23,0.44,0.55,0.53,0.23" style="fill:rgb(0,0,0);font-family:MinionPro-Regular;font-size:9.0px;stroke:none;">nation temperature. The diffraction peaks of ZFO-450 are weaker and wider compared to those of ZFO-400 and </text>
   <text y="313.497" x="155.635,161.089,165.877,172.627,175.858,180.205,184.552,188.899,190.978,192.949,195.388,202.616,207.297,209.54,213.726,216.165,221.044,225.283,227.254,230.081,234.888,238.696,241.468,243.439,246.265,251.063,254.915,256.886,264.249,268.759,272.216,276.898,281.696,286.251,288.555,293.172,297.628,301.786,303.757,308.267,310.958,312.929,318.383,323.171,329.921,333.152,337.499,341.845,346.192,348.163,350.576,353.906,355.877,358.705,363.538,365.977,370.927,372.898,376.193,380.991,384.809,387.159,389.463,391.434,398.832,401.271,405.105,408.355,412.972,416.257,420.939,425.737,429.589,432.839,436.691,438.662,442.496,447.006,451.885,455.215,457.628,460.914,463.732,466.171,471.05,475.289,477.26,481.77,484.461,486.432,489.762,497.134,501.158,503.508,505.812,509.664,513.03,515.001,518.835,522.462,526.62,529.906,532.733,536.757,539.107,541.411,543.85,548.765,552.564,554.616" svgx:width="0.6,0.53,0.75,0.36,0.48,0.48,0.48,0.23,0.23,0.27,0.82,0.52,0.25,0.46,0.27,0.55,0.47,0.23,0.31,0.53,0.44,0.31,0.23,0.31,0.53,0.43,0.23,0.82,0.51,0.37,0.52,0.53,0.51,0.25,0.51,0.47,0.46,0.23,0.51,0.3,0.23,0.6,0.53,0.75,0.36,0.48,0.48,0.48,0.23,0.27,0.37,0.23,0.31,0.53,0.27,0.55,0.23,0.37,0.53,0.43,0.25,0.25,0.23,0.82,0.27,0.42,0.37,0.51,0.37,0.52,0.53,0.43,0.37,0.43,0.23,0.42,0.51,0.55,0.37,0.27,0.37,0.31,0.27,0.55,0.47,0.23,0.51,0.3,0.23,0.37,0.82,0.44,0.25,0.25,0.43,0.37,0.23,0.42,0.37,0.46,0.37,0.31,0.44,0.25,0.25,0.27,0.55,0.43,0.23,0.23" style="fill:rgb(0,0,0);font-family:MinionPro-Regular;font-size:9.0px;stroke:none;">ZFO-500, implying that the morphology of ZFO-450 is thin shell microsphere consisting of smaller crystalline. </text>
   <text y="323.496" x="155.635,158.629,163.624,165.703,169.582,174.132,178.953,181.811,185.222,189.214,192.541,195.358,197.482,199.561,202.428,207.267,211.164,213.243,218.067,220.551,225.758,229.169,233.192,237.13,239.989,242.473,247.023,252.018,254.097,258.963,262.909,266.974,271.51,274.885,276.964,281.514,284.25,286.329,291.828,296.661,303.456,306.732,311.124,315.516,319.908,321.987,325.926,330.882,335.706,337.785,343.284,348.117,354.912,358.188,362.58,366.972,371.364,373.443,377.381,380.672,384.569,386.648,389.983,394.83,398.769,402.266,407.132,411.029,414.44,416.519,419.386,424.233,428.172,433.167,435.246,438.113,442.952,447.614,451.057,454.954,457.033,461.583,464.319,466.398,471.897,476.73,483.525,486.801,491.193,495.585,499.977,502.101,504.18,506.664,511.62,516.444,518.928,522.83,526.679,529.537,532.021,536.94,541.224,543.303,546.171,551.009,554.834" svgx:width="0.34,0.55,0.23,0.42,0.51,0.55,0.31,0.37,0.44,0.37,0.31,0.23,0.23,0.31,0.53,0.43,0.23,0.53,0.27,0.56,0.37,0.44,0.42,0.31,0.27,0.51,0.55,0.23,0.52,0.43,0.44,0.5,0.37,0.23,0.51,0.3,0.23,0.6,0.53,0.75,0.36,0.48,0.48,0.48,0.23,0.44,0.55,0.53,0.23,0.6,0.53,0.75,0.36,0.48,0.48,0.48,0.23,0.44,0.37,0.43,0.23,0.37,0.53,0.44,0.37,0.52,0.43,0.37,0.23,0.31,0.53,0.44,0.55,0.23,0.31,0.53,0.51,0.37,0.43,0.23,0.51,0.3,0.23,0.6,0.53,0.75,0.36,0.48,0.48,0.48,0.23,0.23,0.27,0.55,0.53,0.27,0.42,0.44,0.31,0.27,0.55,0.47,0.23,0.31,0.53,0.43,0.23" style="fill:rgb(0,0,0);font-family:MinionPro-Regular;font-size:9.0px;stroke:none;">In contrast, the diffraction peaks of ZFO-400 and ZFO-500 are sharper than those of ZFO-450, indicating the </text>
   <text y="333.495" x="155.635,158.219,162.701,166.094,173.438,177.218,180.008,182.42,186.901,191.824,193.66,198.142,200.806,202.642,205.441,210.247,212.659,216.412,220.876,224.08,227.347,232.117,235.905,238.227,240.504,244.374,249.126,250.962,258.333,260.745,264.552,267.773,272.363,275.621,280.274,285.044,288.869,292.091,295.916,297.752,301.559,306.041,313.241,317.849,321.241,323.626,326.929,329.341,334.192,338.404,340.24,342.544,346.414,349.681,353.821,357.646,360.985,362.821,366.628,370.228,374.359,377.617,380.416,384.412,386.733,389.01,391.422,396.309,400.08" svgx:width="0.3,0.51,0.37,0.82,0.44,0.31,0.27,0.51,0.55,0.23,0.51,0.3,0.23,0.31,0.53,0.27,0.42,0.5,0.36,0.37,0.53,0.43,0.25,0.25,0.43,0.53,0.23,0.82,0.27,0.42,0.37,0.51,0.37,0.52,0.53,0.43,0.37,0.43,0.23,0.42,0.51,0.82,0.52,0.37,0.27,0.37,0.27,0.55,0.47,0.23,0.25,0.44,0.37,0.47,0.43,0.37,0.23,0.42,0.37,0.46,0.37,0.31,0.44,0.25,0.25,0.27,0.55,0.43,0.23" style="fill:rgb(0,0,0);font-family:MinionPro-Regular;font-size:9.0px;stroke:none;">formation of thick-shelled microsphere comprising larger crystalline.</text>
   <text y="343.494" x="167.632,177.289,181.168,183.193,186.622,190.429,195.253,199.132,206.531,210.365,213.208,215.674,219.535,221.56,226.366,228.859,232.819,237.13,240.523,244.448,251.873,253.898,256.535,261.071,264.464,266.489,269.342,274.165,278.044,280.069,283.426,287.638,292.444,295.298,300.122,304.001,307.358,309.797,313.154,315.179,319.716,322.434,324.459,329.94,334.755,341.478,344.835,346.86,349.299,352.656,354.681,357.192,359.568,361.792,366.598,369.91,372.754,376.147,379.981,382.726,386.65,391.456,393.481,395.947,400.924,402.949,407.764,410.23,414.523,416.629,418.658,423.032,425.138,427.163,431.978,434.444,437.783,441.095,443.948,446.216,449.744,451.85,453.875,456.728,461.552,465.431,467.456,470.768,475.601,479.462,482.738,487.382,490.811,494.69,496.715,500.694,504.051,506.076,510.081,512.106,515.994,519.918,523.311,528.018,532.554,537.531,539.556,544.218,547.494,551.373" svgx:width="1.07,0.43,0.23,0.37,0.42,0.53,0.43,0.82,0.44,0.31,0.27,0.42,0.23,0.53,0.27,0.44,0.47,0.37,0.44,0.82,0.23,0.3,0.51,0.37,0.23,0.31,0.53,0.43,0.23,0.37,0.46,0.55,0.31,0.53,0.43,0.37,0.27,0.37,0.23,0.51,0.3,0.23,0.6,0.53,0.75,0.37,0.23,0.27,0.37,0.23,0.27,0.25,0.25,0.53,0.37,0.31,0.37,0.44,0.31,0.43,0.53,0.23,0.27,0.55,0.23,0.53,0.27,0.47,0.23,0.23,0.48,0.23,0.23,0.53,0.27,0.37,0.37,0.31,0.25,0.46,0.23,0.23,0.31,0.53,0.43,0.23,0.37,0.53,0.42,0.37,0.51,0.37,0.43,0.23,0.44,0.37,0.23,0.44,0.23,0.42,0.44,0.37,0.51,0.51,0.55,0.23,0.52,0.37,0.43,0.36" style="fill:rgb(0,0,0);font-family:MinionPro-Regular;font-size:9.0px;stroke:none;">The schematic diagram for the synthesis of ZFOs is illustrated in Fig. 2. Firstly, the sucrose as a carbon pre-</text>
   <text y="353.493" x="155.635,159.506,164.285,167.57,170.944,175.426,178.765,180.7,183.112,188.035,189.97,196.135,199.915,202.606,206.431,209.77,211.705,214.09,217.393,219.328,223.135,227.617,234.816,239.469,241.746,245.571,248.262,252.051,254.265,258.396,260.331,267.702,270.114,274.289,278.159,282.911,284.846,291.038,293.342,296.141,300.947,302.882,306.662,309.074,313.961,317.768,319.703,324.626,326.93,329.72,333.059,336.838,339.529,343.354,345.289,349.159,354.046,358.798,360.733,363.145,366.367,370.849,375.772,377.707,382.63,384.934,387.724,391.063,394.843,397.534,401.359,403.294,407.218,410.521,412.456,419.791,423.616,426.415,430.411,432.688,434.623,439.231,442.453,446.323,450.193,454.972,458.257,461.631,466.114,469.398,472.701,474.636,477.048,481.971,483.906,487.731,490.529,495.128,499.322,501.599,505.424,510.311,514.136,516.071,520.345,522.56,526.619,530.426,534.954,537.176,539.228,541.163,545.033,549.92,554.672" svgx:width="0.42,0.53,0.37,0.37,0.51,0.37,0.23,0.27,0.55,0.23,0.69,0.44,0.31,0.43,0.37,0.23,0.27,0.37,0.23,0.42,0.51,0.82,0.52,0.25,0.43,0.31,0.43,0.25,0.46,0.23,0.82,0.27,0.47,0.43,0.53,0.23,0.69,0.27,0.31,0.53,0.23,0.42,0.27,0.55,0.42,0.23,0.55,0.27,0.31,0.37,0.44,0.31,0.43,0.23,0.44,0.55,0.53,0.23,0.27,0.37,0.51,0.55,0.23,0.55,0.27,0.31,0.37,0.44,0.31,0.43,0.23,0.44,0.37,0.23,0.82,0.43,0.31,0.44,0.25,0.23,0.52,0.37,0.43,0.42,0.53,0.37,0.37,0.51,0.37,0.37,0.23,0.27,0.55,0.23,0.43,0.31,0.53,0.46,0.25,0.43,0.55,0.43,0.23,0.47,0.25,0.46,0.42,0.51,0.25,0.23,0.23,0.44,0.55,0.53,0.23" style="fill:rgb(0,0,0);font-family:MinionPro-Regular;font-size:9.0px;stroke:none;">cursor in water is completely mixed with zinc nitrate and iron nitrate as metal precursors in ethylene glycol, and </text>
   <text y="363.492" x="155.635,158.903,163.655,168.236,171.62,175.5,180.018,184.806,188.64,193.402,196.156,198.109,202.069,204.022,208.631,212.699,217.46,220.692,225.192,228.001,232.781,236.615,240.018,247.371,251.376,253.662,255.615,258.847,262.735,266.695,270.574,273.374,275.795,280.286,285.218,287.171,290.961,293.715,295.668,299.997,304.326,308.655,309.788,312.884,318.878,320.831,323.423,327.915,331.263,333.216,337.545,341.874,343.007,347.822,349.883,351.836,354.77,359.702,361.655,364.464,369.244,373.078,375.031,379.649,382.88,387.561,391.377,395.211,398.478,401.79,403.743,408.235,410.908,412.861,416.093,419.982,423.942,427.821,430.621,433.042,437.534,442.466,444.527,446.48,449.289,454.068,457.902,459.855,463.671,468.162,475.371,480.178,484.777,488.089,490.403,493.103,496.937,498.89,502.274,506.811,508.989,513.67,516.47,518.891,523.383,528.315,530.268,532.933,537.721,541.123,546.02,549.899,554.651" svgx:width="0.37,0.53,0.51,0.37,0.43,0.51,0.53,0.43,0.55,0.31,0.23,0.44,0.23,0.53,0.46,0.53,0.37,0.51,0.31,0.53,0.43,0.37,0.82,0.44,0.25,0.23,0.37,0.43,0.44,0.42,0.31,0.27,0.51,0.55,0.23,0.44,0.31,0.23,0.48,0.48,0.48,0.23,0.34,0.67,0.23,0.3,0.51,0.37,0.23,0.48,0.48,0.23,0.53,0.23,0.23,0.34,0.55,0.23,0.31,0.53,0.43,0.23,0.52,0.37,0.51,0.42,0.43,0.37,0.37,0.23,0.51,0.3,0.23,0.37,0.43,0.44,0.42,0.31,0.27,0.51,0.55,0.23,0.23,0.31,0.53,0.43,0.23,0.42,0.51,0.82,0.52,0.51,0.37,0.27,0.31,0.43,0.23,0.37,0.51,0.25,0.53,0.31,0.27,0.51,0.55,0.23,0.31,0.53,0.37,0.55,0.43,0.53,0.23" style="fill:rgb(0,0,0);font-family:MinionPro-Regular;font-size:9.0px;stroke:none;">subsequent a hydrothermal reaction at 190 °C for 24 h. In the process of reaction, the composite solution turned </text>
   <text y="373.491" x="155.635,158.048,162.803,165.498,170.088,172.032,174.309,176.721,180.998,185.636,188.381,190.325,194.838,197.144,201.095,204.851,209.315,211.259,215.066,219.597,221.874,226.358,229.134,231.186,233.13,237.882,241.707,246.318,248.73,252.602,255.396,257.808,262.663,266.875,268.819,271.62,276.403,280.186,282.931,284.875,290.431,295.354,299.948,303.773,306.977,311.255,313.472,317.534,321.341,325.871,328.178,331.962,334.655,338.48,341.459,345.297,349.171,352.51,357.165,361.651,366.574,368.518,375.889,378.301,382.108,385.334,389.924,393.185,397.842,402.614,406.439,409.664,413.489,416.792,418.736,422.609,425.834,429.659,431.603,434.189,438.675,442.07,449.409,453.282,457.983,460.035,461.979,466.374,470.247,474.054,478.539,483.429,488.23,490.446,493.924,495.976,497.92,503.476,508.399,512.991,516.816,520.02,524.298,526.515,530.577,534.384,538.914,541.222,545.004,547.699,551.524" svgx:width="0.27,0.55,0.31,0.51,0.23,0.25,0.27,0.47,0.53,0.31,0.23,0.51,0.25,0.44,0.42,0.5,0.23,0.42,0.51,0.25,0.51,0.37,0.23,0.23,0.53,0.43,0.52,0.27,0.42,0.31,0.27,0.55,0.47,0.23,0.31,0.53,0.44,0.31,0.23,0.6,0.55,0.53,0.43,0.36,0.47,0.25,0.46,0.42,0.51,0.25,0.44,0.31,0.43,0.33,0.42,0.44,0.37,0.51,0.51,0.55,0.23,0.82,0.27,0.42,0.37,0.51,0.37,0.52,0.53,0.43,0.37,0.43,0.37,0.23,0.44,0.37,0.43,0.23,0.3,0.51,0.37,0.82,0.43,0.53,0.23,0.23,0.47,0.43,0.42,0.51,0.55,0.53,0.25,0.46,0.23,0.23,0.6,0.55,0.53,0.43,0.36,0.47,0.25,0.46,0.42,0.51,0.25,0.44,0.31,0.43,0.33" style="fill:rgb(0,0,0);font-family:MinionPro-Regular;font-size:9.0px;stroke:none;">into light black color, depicting that ZnFe-glycolate/carbon microspheres are formed. Secondly, ZnFe-glycolate/</text>
   <text y="383.49" x="155.635,159.554,163.508,166.928,171.665,176.231,181.235,183.368,190.82,193.313,197.201,200.508,205.179,208.521,213.259,218.113,222.019,225.326,229.232,232.616,234.749,237.624,241.044,244.998,249.933,253.317,255.985,260.551,264.028,271.48,273.613,276.106,280.942,283.717,288.388,290.521,296.029,300.871,307.675,309.808,316.084,318.472,321.356,326.243,328.376,331.25,334.727,337.116,341.853,344.211,348.117,351.402,354.753,359.608,363.48,365.887,368.245,372.199,377.032,379.165,384.019,388.631,391.037,393.395,397.924,404.17,406.303,409.646,412.521,416.033,420.893,424.847,427.587,432.447,435.752,439.658,441.791,446.304,450.516,452.649,455.142,459.943,466.189,470.143,473.45,478.283,480.416,484.982,488.402,490.535,495.111,499.866,502.722,508.968,512.923,516.229,521.062,523.195,526.672,529.06,533.941,537.847,542.851,545.344,550.28,554.492" svgx:width="0.42,0.44,0.37,0.51,0.51,0.55,0.23,0.82,0.27,0.42,0.37,0.51,0.37,0.52,0.53,0.43,0.37,0.43,0.37,0.23,0.31,0.37,0.44,0.55,0.37,0.3,0.51,0.37,0.82,0.23,0.27,0.55,0.31,0.51,0.23,0.6,0.53,0.75,0.23,0.69,0.27,0.31,0.53,0.23,0.31,0.37,0.27,0.52,0.25,0.43,0.36,0.37,0.53,0.43,0.25,0.25,0.43,0.53,0.23,0.53,0.51,0.25,0.25,0.51,0.69,0.23,0.37,0.31,0.37,0.53,0.42,0.31,0.53,0.37,0.43,0.23,0.51,0.46,0.23,0.27,0.55,0.69,0.44,0.37,0.53,0.23,0.51,0.37,0.23,0.51,0.53,0.31,0.69,0.44,0.37,0.53,0.23,0.37,0.27,0.52,0.43,0.55,0.27,0.55,0.47,0.23" style="fill:rgb(0,0,0);font-family:MinionPro-Regular;font-size:9.0px;stroke:none;">carbon microspheres transform into ZFO with triple-shelled hollow structure by inward or outward ripening </text>
   <text y="393.489" x="155.635,160.315,165.13,168.559,171.007,175.894,180.142,182.122,184.957,189.763,193.624,195.604,199.474,203.506,205.819,209.662,212.11,217.042,220.858,223.684,226.132,230.65,235.609,237.589,242.233,245.491,250.198,254.041,257.902,261.196,264.535,266.623,268.603,276.424,280.942,284.2,288.061,290.041,293.335,298.168,302.074,305.917,308.365,313.216,317.086,321.118,323.476,325.726,329.236,331.324,333.304,336.139,340.945,344.806,346.786,351.592,355.507,359.323,362.104,364.084,366.91,370.285,374.191,379.078,382.417,385.036,388.897,392.272,394.252,396.673,400.012,401.992,406.636,409.894,414.52,418.813,422.071,425.932,429.226,432.637,436.543,441.331,443.311,447.343,449.656,454.174,459.061,463.309,465.289,468.124,472.93,476.791,478.771,482.146,486.133,490.921,493.396,497.428,499.741,501.721,506.509,508.957,512.215,516.121,520.026,522.852,525.3,529.818,534.777,536.757,539.547,542.805,547.323,554.694" svgx:width="0.53,0.53,0.37,0.27,0.55,0.47,0.23,0.31,0.53,0.43,0.23,0.42,0.44,0.25,0.42,0.27,0.55,0.44,0.31,0.27,0.51,0.55,0.23,0.52,0.37,0.51,0.42,0.43,0.37,0.37,0.23,0.23,0.89,0.51,0.37,0.43,0.23,0.37,0.52,0.43,0.42,0.27,0.54,0.42,0.44,0.25,0.25,0.46,0.23,0.23,0.31,0.53,0.43,0.23,0.53,0.43,0.44,0.31,0.23,0.31,0.37,0.44,0.55,0.37,0.3,0.43,0.37,0.23,0.27,0.37,0.23,0.52,0.37,0.51,0.47,0.37,0.43,0.37,0.37,0.43,0.53,0.23,0.44,0.25,0.51,0.55,0.47,0.23,0.31,0.53,0.43,0.23,0.37,0.44,0.53,0.27,0.44,0.25,0.23,0.53,0.27,0.37,0.43,0.42,0.31,0.27,0.51,0.55,0.23,0.3,0.37,0.51,0.82,0.23" style="fill:rgb(0,0,0);font-family:MinionPro-Regular;font-size:9.0px;stroke:none;">during the calcination process. More specifically, the heat transfer is progressed along the radial direction from </text>
   <text y="403.488" x="155.635,158.434,163.204,167.029,168.905,172.163,176.942,180.335,182.999,186.95,190.757,194.582,196.459,198.762,202.551,206.61,210.435,213.774,215.65,220.132,222.796,224.672,232.043,234.455,238.262,241.484,246.074,249.332,253.985,258.755,262.58,265.802,269.627,272.93,274.982,276.857,286.46,290.285,295.208,297.26,299.137,301.936,306.706,310.531,312.407,316.898,321.569,324.26,328.085,331.478,338.813,343.402,346.66,349.405,351.281,353.585,357.374,361.433,365.258,368.597,370.474,374.956,377.62,379.495,382.294,387.064,390.889,392.766,398.319,403.242,407.832,411.657,414.861,419.135,421.349,425.408,429.215,433.742,436.046,439.826,442.517,446.342,449.321,453.155,457.025,460.364,465.017,469.498,474.421,476.298,478.683,481.986,483.862,487.669,492.151,496.867,500.962,504.787,508.215,510.906,514.776,519.528,521.405,523.817,528.569,531.26,535.85,537.725,543.152,547.913,554.636" svgx:width="0.31,0.53,0.43,0.23,0.37,0.53,0.37,0.3,0.44,0.42,0.43,0.23,0.25,0.44,0.46,0.43,0.37,0.23,0.51,0.3,0.23,0.82,0.27,0.42,0.37,0.51,0.37,0.52,0.53,0.43,0.37,0.43,0.37,0.23,0.23,1.07,0.43,0.55,0.23,0.23,0.31,0.53,0.43,0.23,0.51,0.53,0.31,0.43,0.37,0.82,0.51,0.37,0.31,0.23,0.25,0.44,0.46,0.43,0.37,0.23,0.51,0.3,0.23,0.31,0.53,0.43,0.23,0.6,0.55,0.53,0.43,0.36,0.47,0.25,0.46,0.42,0.51,0.25,0.44,0.31,0.43,0.33,0.42,0.44,0.37,0.51,0.51,0.55,0.23,0.27,0.37,0.23,0.42,0.51,0.55,0.46,0.43,0.37,0.31,0.43,0.53,0.23,0.27,0.55,0.31,0.51,0.23,0.6,0.53,0.75,0.23" style="fill:rgb(0,0,0);font-family:MinionPro-Regular;font-size:9.0px;stroke:none;">the surface layer of microspheres. Then, the outermost layer of the ZnFe-glycolate/carbon is converted into ZFO </text>
   <text y="413.487" x="155.635,160.126,164.798,167.489,171.314,174.653,176.597,179.864,184.635,188.424,190.746,193.023,194.967,199.449,202.113,204.057,207.433,211.96,214.237,216.649,221.401,223.345,226.604,229.403,233.183,235.875,239.646,241.698,243.642,246.054,250.941,255.586,260.365,264.172,266.584,271.435,275.647,277.591,282.361,286.186,288.878,292.703,295.926,300.516,304.656,308.481,313.368,317.238,321.73,326.482,329.785,331.729,335.536,340.018,344.771,347.561,350.9,354.85,358.72,361.51,363.922,368.404,373.327,375.271,379.105,382.885,387.638,391.013,394.883,399.635,401.579,406.008,410.139,412.083,414.775,418.6,425.8,430.598,434.423,437.762,441.543,444.198,448.977,452.199,456.024,457.968,462.225,465.564,469.515,474.267,476.679,480.504,485.257,488.002,489.946,494.591,499.37,502.763,505.175,510.026,514.238,516.182,518.982,523.752,527.577,529.521,531.933,536.649,542.814,546.685,549.907,554.659" svgx:width="0.51,0.53,0.31,0.43,0.37,0.23,0.37,0.53,0.43,0.25,0.25,0.23,0.51,0.3,0.23,0.37,0.51,0.25,0.27,0.53,0.23,0.37,0.31,0.44,0.31,0.43,0.23,0.23,0.27,0.55,0.53,0.53,0.42,0.27,0.55,0.47,0.23,0.53,0.43,0.31,0.43,0.37,0.51,0.47,0.43,0.55,0.43,0.51,0.53,0.37,0.23,0.42,0.51,0.55,0.31,0.37,0.44,0.42,0.31,0.27,0.51,0.55,0.23,0.42,0.44,0.53,0.37,0.43,0.53,0.23,0.51,0.46,0.23,0.31,0.43,0.82,0.52,0.43,0.37,0.44,0.31,0.53,0.37,0.43,0.23,0.47,0.37,0.44,0.53,0.27,0.43,0.55,0.31,0.23,0.53,0.53,0.37,0.27,0.55,0.47,0.23,0.31,0.53,0.43,0.23,0.27,0.55,0.69,0.44,0.37,0.53,0.23" style="fill:rgb(0,0,0);font-family:MinionPro-Regular;font-size:9.0px;stroke:none;">outer shell of solid state, inducing heterogeneous contraction caused by temperature gradient during the inward </text>
   <text y="423.486" x="155.635,159.19,161.655,166.613,170.6,175.685,178.259,183.271,187.672,189.886,192.289,202.054,206.041,208.444,214.159,219.244,223.995,227.982,231.348,235.784,238.16,242.38,246.349,251.038,253.503,257.444,260.296,264.283,266.686,269.602,272.986,277.629,285.162,287.565,290.139,295.224,300.272,304.259,307.76,310.163,315.878,320.963,325.714,329.701,333.067,337.504,339.879,344.099,348.068,352.757,355.222,359.163,362.015,366.002,369.143,373.138,377.17,380.671,385.485,390.129,395.214,397.617,400.163,403.628,406.031,410.071,414.156,417.621,420.24,422.615,426.908,429.311,434.225,438.212,441.172,445.285,449.199,454.13,458.162,463.022,465.236,467.639,470.383,475.026,478.58,486.113,488.687,493.699,498.073,500.476,503.436,508.367,512.354,514.757,521.11,523.684,528.598,532.585,534.988,539.245,543.888,546.462,551.349,554.652" svgx:width="0.37,0.27,0.52,0.43,0.55,0.27,0.55,0.47,0.23,0.23,1.07,0.43,0.23,0.6,0.55,0.53,0.43,0.36,0.47,0.25,0.46,0.42,0.51,0.25,0.44,0.31,0.43,0.23,0.3,0.37,0.51,0.82,0.23,0.27,0.55,0.55,0.43,0.37,0.23,0.6,0.55,0.53,0.43,0.36,0.47,0.25,0.46,0.42,0.51,0.25,0.44,0.31,0.43,0.33,0.42,0.44,0.37,0.51,0.51,0.55,0.23,0.27,0.37,0.23,0.43,0.44,0.37,0.27,0.25,0.46,0.23,0.53,0.43,0.31,0.44,0.42,0.53,0.43,0.53,0.23,0.23,0.3,0.51,0.37,0.82,0.27,0.55,0.47,0.23,0.31,0.53,0.43,0.23,0.69,0.27,0.53,0.43,0.23,0.46,0.51,0.27,0.53,0.37,0.23" style="fill:rgb(0,0,0);font-family:MinionPro-Regular;font-size:9.0px;stroke:none;">ripening. The ZnFe-glycolate from inner ZnFe-glycolate/carbon is easily detached, forming the wide voids </text>
   <text y="433.485" x="155.635,160.268,164.075,166.826,172.898,176.748,180.555,185.46,187.179,189.957,194.707,198.514,200.233,203.48,208.23,211.998,214.299,216.529,219.814,221.848,223.567,233.149,236.956,238.675,243.409,247.216,249.994,253.927,257.66,262.409,266.258,270.992,272.711,275.105,280.01,284.877,288.684,292.005,293.724,297.513,301.975,305.176,308.983,310.702,314.821,318.628,323.495,327.302,330.623,334.382,337.052,340.859,344.144,345.863,348.642,353.392,357.199,358.918,361.312,366.217,371.084,374.891,378.212,379.931,383.177,387.927,391.696,393.997,396.256,397.975,402.382,406.495,408.214,412.865,416.654,420.503,425.264,428.636,432.009,434.403,439.233,443.427,445.146,447.924,452.673,456.48,458.199,462.67,467.32,470.071,476.218,480.068,483.27,488.004,489.723,493.095,495.378,500.155,503.962,508.867,511.261,516.091,520.285,522.004,525.979,528.238,532.7,537.531,541.725,543.444,546.222,550.972,554.797" svgx:width="0.51,0.43,0.31,0.69,0.43,0.43,0.55,0.23,0.31,0.53,0.43,0.23,0.37,0.53,0.43,0.25,0.25,0.37,0.23,0.23,1.07,0.43,0.23,0.53,0.43,0.31,0.44,0.42,0.53,0.43,0.53,0.23,0.27,0.55,0.55,0.43,0.37,0.23,0.42,0.51,0.37,0.43,0.23,0.47,0.43,0.55,0.43,0.37,0.44,0.31,0.43,0.37,0.23,0.31,0.53,0.43,0.23,0.27,0.55,0.55,0.43,0.37,0.23,0.37,0.53,0.43,0.25,0.25,0.23,0.51,0.46,0.23,0.51,0.42,0.42,0.53,0.37,0.37,0.27,0.55,0.47,0.23,0.31,0.53,0.43,0.23,0.51,0.53,0.31,0.69,0.44,0.37,0.53,0.23,0.37,0.27,0.52,0.43,0.55,0.27,0.55,0.47,0.23,0.44,0.25,0.51,0.55,0.47,0.23,0.31,0.53,0.43,0.23" style="fill:rgb(0,0,0);font-family:MinionPro-Regular;font-size:9.0px;stroke:none;">between the shells. The detached inner core generates the inner shell by occurring the outward ripening along the </text>
   <text y="443.484" x="155.635,158.065,163.006,167.913,171.756,175.113,177.075,184.464,186.894,190.719,193.962,198.57,201.849,206.521,211.311,215.154,218.396,222.239,225.56,227.522,230.296,233.538,238.039,245.428,247.39,250.209,254.999,258.842,260.804,265.316,270.007,272.717,276.56,279.917,281.879,286.381,291.288,295.131,298.452,300.414,305.078,309.875,313.718,315.68,318.391,322.999,324.961,327.671,331.514,338.734,343.551,347.394,350.751,354.551,357.226,362.023,365.264,369.107,371.069,375.346,378.703,382.672,387.442,389.872,393.715,398.487,401.25,403.32,405.282,410.061,412.491,417.407,421.423,423.764,425.998,429.492,431.562,433.524,436.342,441.133,444.976,446.938,449.747,453.16,455.484,460.157,462.452,466.295,469.517,472.804,477.593,481.402,483.744,486.039,489.929,494.699,496.661,502.234,507.175,511.784" svgx:width="0.27,0.55,0.55,0.43,0.37,0.23,0.82,0.27,0.42,0.37,0.51,0.37,0.52,0.53,0.43,0.37,0.43,0.37,0.23,0.3,0.37,0.51,0.82,0.23,0.31,0.53,0.43,0.23,0.51,0.53,0.31,0.43,0.37,0.23,0.51,0.55,0.43,0.37,0.23,0.53,0.53,0.43,0.23,0.31,0.51,0.23,0.31,0.43,0.82,0.52,0.43,0.37,0.44,0.31,0.53,0.37,0.43,0.23,0.47,0.37,0.44,0.53,0.27,0.43,0.55,0.31,0.23,0.23,0.53,0.27,0.55,0.44,0.25,0.25,0.46,0.23,0.23,0.31,0.53,0.43,0.23,0.31,0.37,0.27,0.52,0.25,0.43,0.36,0.37,0.53,0.43,0.25,0.25,0.43,0.53,0.23,0.6,0.55,0.53,0.43" style="fill:rgb(0,0,0);font-family:MinionPro-Regular;font-size:9.0px;stroke:none;">inner microspheres from the outer ones due to temperature gradient. Finally, the triple-shelled ZnFe</text>
   <text y="445.3" x="515.687" svgx:width="0.48" style="fill:rgb(0,0,0);font-family:MinionPro-Regular;font-size:5.85px;stroke:none;">2</text>
   <text y="443.5" x="518.507" svgx:width="0.75" style="fill:rgb(0,0,0);font-family:MinionPro-Regular;font-size:9.0px;stroke:none;">O</text>
   <text y="445.3" x="525.25" svgx:width="0.48" style="fill:rgb(0,0,0);font-family:MinionPro-Regular;font-size:5.85px;stroke:none;">4</text>
   <text y="443.5" x="528.071,530.033,534.824,539.371,541.713,544.009,548.473,554.638" svgx:width="0.23,0.53,0.51,0.25,0.25,0.51,0.69,0.23" style="fill:rgb(0,0,0);font-family:MinionPro-Regular;font-size:9.0px;stroke:none;"> hollow </text>
   <text y="453.499" x="155.642,162.977,165.353,169.124,172.314,176.868,180.093,184.713,189.45,193.239,196.428,200.217,203.484,205.185,209.022,212.212,216.001,217.702,220.252,224.701,228.062,235.363,239.2,243.916,245.617,250.013,254.108,255.809,258.575,263.312,267.101,268.802,271.178,275.862,281.991,285.827,289.017,293.682,295.698,297.398,301.857,306.495,309.234,315.363,319.201,322.391,327.107,328.808,332.168,334.439,339.203,342.992,347.879,350.255,355.073,359.279,361.295,362.996,366.833,371.687,376.403,378.104,380.871,385.608,389.397,391.098,394.286,398.075,405.377,409.79,413.922,417.884,420.125,421.826,426.275,428.903,430.604,434.405,438.242,441.545,446.166,450.615,455.501,457.202,460.427,465.048,469.784,473.573,476.763,480.552,483.819,485.835,487.536,490.429,495.316,497.017,501.475,504.241,508.979,512.768,516.07,517.771,523.831,528.281,531.47,536.162,539.429,541.445,543.146,545.913,550.649,554.474" svgx:width="0.82,0.27,0.42,0.37,0.51,0.37,0.52,0.53,0.43,0.37,0.43,0.37,0.23,0.44,0.37,0.43,0.23,0.3,0.51,0.37,0.82,0.43,0.53,0.23,0.51,0.46,0.23,0.31,0.53,0.43,0.23,0.27,0.55,0.69,0.44,0.37,0.53,0.23,0.23,0.51,0.53,0.31,0.69,0.44,0.37,0.53,0.23,0.37,0.27,0.52,0.43,0.55,0.27,0.55,0.47,0.23,0.23,0.44,0.55,0.53,0.23,0.31,0.53,0.43,0.23,0.37,0.43,0.82,0.51,0.46,0.44,0.25,0.23,0.51,0.3,0.23,0.42,0.44,0.37,0.51,0.51,0.55,0.23,0.37,0.52,0.53,0.43,0.37,0.43,0.37,0.23,0.23,0.34,0.55,0.23,0.51,0.31,0.53,0.43,0.37,0.23,0.69,0.51,0.37,0.53,0.37,0.23,0.23,0.31,0.53,0.43,0.23" style="fill:rgb(0,0,0);font-family:MinionPro-Regular;font-size:9.0px;stroke:none;">microspheres are formed by the inward, outward ripening, and the removal of carbon spheres. In other words, the </text>
   <text y="463.498" x="155.642,161.114,165.92,172.632,175.98,177.969,181.884,185.149,189.019,191.008,193.635,198.16,201.596,208.975,212.889,217.686,219.675,223.499,226.289,228.278,233.075,235.532,240.543,244.413,247.679,251.549,256.344,259.134,261.123,265.0,269.04,271.362,275.214,277.671,282.61,286.433,289.266,291.723,296.248,301.216,303.205,305.94,309.81,317.053,321.893,325.763,329.147,332.97,335.669,340.493,343.758,347.628,350.976,353.073,355.062,358.985,362.981,366.777,371.628,373.617,378.143,380.852,382.841,389.112,393.963,396.42,400.216,405.067,407.056,411.24,415.11,420.041,423.911,427.295,431.118,433.853,437.723,441.071,443.06,447.272,451.186,454.622,457.079,461.614,466.41,469.758,471.747,475.057,479.87,483.702,486.068,488.39,490.379,494.292,497.559,501.355,506.206,508.554,511.288,515.201,519.115,521.813,526.637,529.902,533.772,537.12,539.217,541.206,550.852,554.677" svgx:width="0.6,0.53,0.75,0.37,0.23,0.44,0.37,0.43,0.23,0.3,0.51,0.37,0.82,0.43,0.53,0.23,0.44,0.31,0.23,0.53,0.27,0.56,0.43,0.37,0.43,0.55,0.31,0.23,0.42,0.44,0.25,0.42,0.27,0.55,0.44,0.31,0.27,0.51,0.55,0.23,0.31,0.43,0.82,0.52,0.43,0.37,0.44,0.31,0.53,0.37,0.43,0.37,0.23,0.23,0.43,0.44,0.42,0.53,0.23,0.51,0.3,0.23,0.69,0.53,0.27,0.42,0.53,0.23,0.47,0.43,0.55,0.43,0.37,0.44,0.31,0.43,0.37,0.23,0.46,0.44,0.37,0.27,0.51,0.53,0.37,0.23,0.37,0.53,0.43,0.25,0.25,0.23,0.44,0.37,0.42,0.53,0.27,0.31,0.43,0.42,0.31,0.53,0.37,0.43,0.37,0.23,0.23,1.07,0.43,0.23" style="fill:rgb(0,0,0);font-family:MinionPro-Regular;font-size:9.0px;stroke:none;">ZFOs are formed at different calcination temperatures, each of which generates various shell architectures. The </text>
   <text y="473.497" x="155.642,160.448,162.914,167.938,171.817,175.094,178.973,183.78,186.579,188.613,192.502,196.553,198.884,202.745,205.211,210.162,213.996,216.841,219.307,223.845,228.822,230.856,233.602,237.481,244.736,249.588,253.467,256.86,260.695,263.406,268.239,271.515,275.394,278.751,280.785,285.619,289.464,293.614,297.493,299.527,301.993,309.248,314.064,318.069,321.994,324.793,328.15,330.184,334.721,339.698,341.732,344.586,349.411,353.29,355.324,357.962,362.499,365.947,373.346,377.181,380.027,382.493,387.03,392.007,394.041,398.577,401.295,403.329,406.183,411.008,414.887,416.921,419.766,423.214,425.573,430.281,432.612,436.491,439.749,443.071,447.896,451.74,454.116,456.447,460.372,465.178,467.212,472.037,476.619,478.996,481.327,485.828,492.047,494.081,501.471,506.008,509.492,514.2,519.024,523.606,525.937,530.581,535.064,539.249,541.283,545.982,550.815,554.64" svgx:width="0.53,0.27,0.56,0.43,0.37,0.43,0.55,0.31,0.23,0.42,0.44,0.25,0.42,0.27,0.55,0.44,0.31,0.27,0.51,0.55,0.23,0.31,0.43,0.82,0.52,0.43,0.37,0.44,0.31,0.53,0.37,0.43,0.37,0.23,0.53,0.44,0.46,0.43,0.23,0.27,0.82,0.52,0.44,0.42,0.31,0.37,0.23,0.51,0.55,0.23,0.31,0.53,0.43,0.23,0.3,0.51,0.37,0.82,0.44,0.31,0.27,0.51,0.55,0.23,0.51,0.3,0.23,0.31,0.53,0.43,0.23,0.31,0.37,0.27,0.52,0.25,0.43,0.36,0.37,0.53,0.43,0.25,0.25,0.43,0.53,0.23,0.53,0.51,0.25,0.25,0.51,0.69,0.23,0.82,0.51,0.37,0.52,0.53,0.51,0.25,0.51,0.47,0.46,0.23,0.53,0.53,0.43,0.23" style="fill:rgb(0,0,0);font-family:MinionPro-Regular;font-size:9.0px;stroke:none;">different calcination temperatures have impacts on the formation of the triple-shelled hollow morphology due </text>
   <text y="483.496" x="155.642,158.333,162.923,164.867,167.666,172.436,176.261,178.205,182.957,186.782,191.039,194.262,198.132,201.957,203.901,208.384,211.048,212.992,216.799,220.4,224.531,227.789,230.588,234.584,236.906,239.183,241.595,245.375,249.155,251.945,254.357,258.839,263.762,265.706,269.576,274.464,279.216,281.16,283.959,288.729,292.554,294.498,297.837,301.617,304.308,308.133,310.077,313.947,318.834,323.586,325.53,329.401,336.736,341.227,346.006,350.758,353.503,355.447,359.929,362.593,364.537,370.585" svgx:width="0.31,0.51,0.23,0.31,0.53,0.43,0.23,0.53,0.43,0.47,0.37,0.43,0.43,0.23,0.51,0.3,0.23,0.42,0.37,0.46,0.37,0.31,0.44,0.25,0.25,0.27,0.42,0.44,0.31,0.27,0.51,0.55,0.23,0.44,0.55,0.53,0.23,0.31,0.53,0.43,0.23,0.37,0.44,0.31,0.43,0.23,0.44,0.55,0.53,0.23,0.44,0.82,0.51,0.53,0.55,0.31,0.23,0.51,0.3,0.23,0.67,0.75" style="fill:rgb(0,0,0);font-family:MinionPro-Regular;font-size:9.0px;stroke:none;">to the degree of crystallization and the rate and amount of CO</text>
   <text y="485.3" x="377.273" svgx:width="0.48" style="fill:rgb(0,0,0);font-family:MinionPro-Regular;font-size:5.85px;stroke:none;">2</text>
   <text y="483.5" x="380.081,382.025,386.237,390.161,393.464,395.408,398.63,402.419,404.696,408.575,412.5,415.875,419.745,424.497,426.441,429.196,432.418,436.9,444.271,446.215,450.049,453.919,457.258,461.911,466.394,471.317,473.261,476.52,481.173,485.943,489.768,492.99,496.815,500.118,502.17,504.114,513.718,517.543,519.487,522.745,525.535,528.964,533.743,537.613,540.268,545.047,548.386,552.382,554.659" svgx:width="0.23,0.47,0.44,0.37,0.23,0.37,0.43,0.25,0.43,0.44,0.37,0.43,0.53,0.23,0.3,0.37,0.51,0.82,0.23,0.42,0.44,0.37,0.51,0.51,0.55,0.23,0.37,0.52,0.53,0.43,0.37,0.43,0.37,0.23,0.23,1.07,0.43,0.23,0.37,0.31,0.37,0.53,0.42,0.31,0.53,0.37,0.44,0.25,0.23" style="fill:rgb(0,0,0);font-family:MinionPro-Regular;font-size:9.0px;stroke:none;"> gas released from carbon spheres. The structural </text>
   <text y="493.499" x="155.639,159.797,163.655,167.036,169.462,173.23,176.007,178.41,182.88,187.719,191.013,192.741,197.21,199.865,201.589,205.455,209.397,213.137,217.934,219.662,222.917,227.674,231.451,233.761,236.029,237.757,240.543,245.34,247.743,251.485,255.972,260.846,264.662,267.909,271.203,272.926,276.784,281.659,286.402,288.13,291.996,295.938,299.68,304.477,306.205,310.287,314.756,317.159,321.902,323.626,329.806,332.209,336.841,339.627,344.424,346.148,350.276,354.092,358.966,362.782,366.112,369.881,372.559,376.416,381.159,382.887,389.067,391.358,394.145,398.942,400.67,405.413,407.816,412.772,416.588,419.797,423.613,428.354,431.09,432.813,436.635,440.619,442.887,446.685,449.088,453.972,457.74,460.517,462.92,467.39,472.304,474.032,476.711,480.527,487.714,492.498,496.314,499.644,503.412,506.054,510.824,514.035,517.851,521.145,522.873,525.276,530.015,532.694,536.51,541.349,544.711,548.488,550.69,554.821" svgx:width="0.46,0.44,0.37,0.27,0.44,0.31,0.27,0.51,0.55,0.37,0.23,0.51,0.3,0.23,0.43,0.44,0.42,0.53,0.23,0.37,0.53,0.43,0.25,0.25,0.23,0.31,0.53,0.27,0.42,0.5,0.55,0.43,0.37,0.37,0.23,0.44,0.55,0.53,0.23,0.43,0.44,0.42,0.53,0.23,0.46,0.51,0.27,0.53,0.23,0.69,0.27,0.53,0.31,0.53,0.23,0.47,0.43,0.55,0.43,0.37,0.44,0.31,0.43,0.53,0.23,0.69,0.27,0.31,0.53,0.23,0.53,0.27,0.56,0.43,0.37,0.43,0.55,0.31,0.23,0.42,0.44,0.25,0.42,0.27,0.55,0.44,0.31,0.27,0.51,0.55,0.23,0.31,0.43,0.82,0.52,0.43,0.37,0.44,0.31,0.53,0.37,0.43,0.37,0.23,0.27,0.55,0.31,0.43,0.55,0.37,0.43,0.25,0.46,0.23" style="fill:rgb(0,0,0);font-family:MinionPro-Regular;font-size:9.0px;stroke:none;">variations of each shell thickness and each void width generated with different calcination temperatures intensely </text>
   <text y="503.498" x="155.639,158.105,163.082,167.826,172.659,176.538,181.479,185.34,189.219,192.576,194.601,199.137,204.114,206.139,208.992,213.816,217.695,219.72,223.564,225.895,229.819,233.743,236.587,239.863,244.588,248.395,253.22,257.099,264.524,266.99,270.878,274.928,277.259,279.284,284.135,288.014,291.462,294.099,298.635,302.082,309.481,313.405,318.346,322.207,326.086,328.111,332.611,338.857,343.834,346.3,351.205,355.471,357.496,360.241,364.885,366.91,369.763,374.587,378.466,380.491,387.88,391.804,395.611,400.445,404.369,409.346,411.786,415.143,422.568,424.593,429.129,431.847,433.872,436.725,441.549,445.428,447.453,451.297,453.628,457.552,461.476,464.32,467.596,472.321,476.129,480.953,484.832,492.257,494.723,498.611,502.661,504.992,507.017,510.294,514.227,518.232,522.156,525.0,527.466,532.003,536.98,539.086,541.111,550.768,554.593" svgx:width="0.27,0.55,0.53,0.53,0.43,0.55,0.42,0.43,0.37,0.23,0.51,0.55,0.23,0.31,0.53,0.43,0.23,0.43,0.25,0.43,0.42,0.31,0.37,0.51,0.42,0.53,0.43,0.82,0.27,0.42,0.44,0.25,0.23,0.52,0.43,0.37,0.3,0.51,0.37,0.82,0.44,0.55,0.42,0.43,0.23,0.51,0.69,0.55,0.27,0.55,0.47,0.23,0.31,0.51,0.23,0.31,0.53,0.43,0.23,0.82,0.43,0.42,0.53,0.44,0.55,0.27,0.37,0.82,0.23,0.51,0.3,0.23,0.31,0.53,0.43,0.23,0.43,0.25,0.43,0.42,0.31,0.37,0.51,0.42,0.53,0.43,0.82,0.27,0.42,0.44,0.25,0.23,0.37,0.43,0.44,0.42,0.31,0.27,0.51,0.55,0.23,0.23,1.07,0.43,0.23" style="fill:rgb(0,0,0);font-family:MinionPro-Regular;font-size:9.0px;stroke:none;">influences on the electrochemical performance owning to the mechanism of the electrochemical reaction. The </text>
   <text y="513.497" x="155.639,161.26,166.252,170.914" svgx:width="0.6,0.55,0.53,0.43" style="fill:rgb(0,0,0);font-family:MinionPro-Regular;font-size:9.0px;stroke:none;">ZnFe</text>
   <text y="515.3" x="174.803" svgx:width="0.48" style="fill:rgb(0,0,0);font-family:MinionPro-Regular;font-size:5.85px;stroke:none;">2</text>
   <text y="513.5" x="177.656" svgx:width="0.75" style="fill:rgb(0,0,0);font-family:MinionPro-Regular;font-size:9.0px;stroke:none;">O</text>
   <text y="515.3" x="184.447" svgx:width="0.48" style="fill:rgb(0,0,0);font-family:MinionPro-Regular;font-size:5.85px;stroke:none;">4</text>
   <text y="513.5" x="187.3,189.379,194.217,198.812,201.203,203.552,208.067,214.304,216.383,223.826,226.31,230.189,233.479,238.141,241.469,246.19,251.029,254.926,258.216,262.113,265.488,267.567,270.942,275.169,279.99,282.857,287.695,291.592,294.967,297.451,301.303,305.242,310.066,312.145,315.993,318.81,320.889,324.828,329.823,331.902,336.461,341.147,344.006,346.49,353.758,358.609,366.052,368.131,372.034,376.098,378.447,382.326,384.81,389.775,393.624,396.482,398.966,403.517,408.512,410.591,415.268,418.558,423.298,427.177,431.074,434.4,437.775,439.854,442.203,446.15,450.173,454.997,457.077,459.837,464.499,466.578,469.445,474.284,478.181,480.26,482.745,490.013,494.689,497.98,502.495,506.658,510.555,517.959,521.856,526.676,529.493,531.572,536.123,538.859,540.938,544.349,548.199,550.958,554.783" svgx:width="0.23,0.53,0.51,0.25,0.25,0.51,0.69,0.23,0.82,0.27,0.42,0.37,0.51,0.37,0.52,0.53,0.43,0.37,0.43,0.37,0.23,0.37,0.46,0.55,0.31,0.53,0.43,0.37,0.27,0.42,0.43,0.53,0.23,0.44,0.31,0.23,0.44,0.55,0.23,0.51,0.52,0.31,0.27,0.82,0.53,0.82,0.23,0.42,0.44,0.25,0.42,0.27,0.55,0.44,0.31,0.27,0.51,0.55,0.23,0.52,0.37,0.51,0.42,0.43,0.37,0.37,0.23,0.25,0.43,0.44,0.53,0.23,0.31,0.51,0.23,0.31,0.53,0.43,0.23,0.27,0.82,0.52,0.37,0.51,0.46,0.43,0.82,0.43,0.55,0.31,0.23,0.51,0.3,0.23,0.37,0.44,0.31,0.43,0.23" style="fill:rgb(0,0,0);font-family:MinionPro-Regular;font-size:9.0px;stroke:none;"> hollow microspheres synthesized at an optimum calcination process lead to the improvement of rate </text>
   <text y="523.499" x="155.638,159.472,163.252,168.012,171.891,176.356,178.812,181.089,183.393,186.165,190.296,192.132,196.002,200.889,205.641,207.477,211.428,215.487,219.24,221.517,223.929,228.779,232.991,234.827,238.085,240.884,244.763,249.227,251.684,253.961,256.265,259.037,263.168,265.004,269.45,275.642,280.565,282.977,287.828,292.04,293.876,296.567,301.157,302.993,305.792,310.562,314.387,316.223,320.363,324.188,329.075,332.9,336.239,340.019,342.809,345.221,349.702,354.625,356.461,360.943,363.607,365.443,368.242,373.048,375.46,380.383,382.219,385.486,390.256,394.045,396.366,398.643,400.479,404.349,409.236,413.988,415.824,422.016,424.428,429.18,433.005,434.841,438.936,443.419,445.831,450.529" svgx:width="0.42,0.44,0.52,0.44,0.51,0.27,0.25,0.27,0.31,0.46,0.23,0.44,0.55,0.53,0.23,0.42,0.46,0.42,0.25,0.27,0.55,0.47,0.23,0.37,0.31,0.44,0.51,0.27,0.25,0.27,0.31,0.46,0.23,0.51,0.69,0.55,0.27,0.55,0.47,0.23,0.31,0.51,0.23,0.31,0.53,0.43,0.23,0.47,0.43,0.55,0.43,0.37,0.44,0.31,0.27,0.51,0.55,0.23,0.51,0.3,0.23,0.31,0.53,0.27,0.55,0.23,0.37,0.53,0.43,0.25,0.25,0.23,0.44,0.55,0.53,0.23,0.69,0.27,0.53,0.43,0.23,0.46,0.51,0.27,0.53,0.23" style="fill:rgb(0,0,0);font-family:MinionPro-Regular;font-size:9.0px;stroke:none;">capability and cycling stability owning to the generation of thin shell and wide void.</text>
   <text y="533.498" x="167.635,173.215,178.354,186.4,188.371,190.81,198.181,202.114,206.281,210.133,213.463,215.434,219.942,222.633,224.604,227.429,232.226,236.078,238.049,243.629,248.579,253.196" svgx:width="0.62,0.57,0.89,0.23,0.27,0.82,0.44,0.47,0.43,0.37,0.23,0.51,0.3,0.23,0.31,0.53,0.43,0.23,0.6,0.55,0.53,0.43" style="fill:rgb(0,0,0);font-family:MinionPro-Regular;font-size:9.0px;stroke:none;">TEM images of the ZnFe</text>
   <text y="535.3" x="257.037" svgx:width="0.48" style="fill:rgb(0,0,0);font-family:MinionPro-Regular;font-size:5.85px;stroke:none;">2</text>
   <text y="533.5" x="259.863" svgx:width="0.75" style="fill:rgb(0,0,0);font-family:MinionPro-Regular;font-size:9.0px;stroke:none;">O</text>
   <text y="535.3" x="266.613" svgx:width="0.48" style="fill:rgb(0,0,0);font-family:MinionPro-Regular;font-size:5.85px;stroke:none;">4</text>
   <text y="533.5" x="269.438,271.409,276.206,280.76,283.109,285.413,289.885,296.077,298.048,301.332,306.012,310.809,314.661,317.91,321.762,325.092,327.063,330.924,334.947,337.251,341.085,343.524,348.438,352.335,357.114,359.085,362.892,365.664,367.635,371.982,376.329,380.676,382.755,384.726,389.073,393.42,397.767,399.846,401.817,405.714,410.628,415.407,417.378,421.725,426.072,430.419,431.546,434.66,440.672,442.643,445.082,450.032,452.003,455.9,458.339,461.705,463.676,466.286,470.795,474.161,476.132,480.479,481.613,486.446,488.417,492.224,494.996,496.967,500.945,502.916,507.713,511.619,515.425,518.242,520.681,525.559,529.798,531.769,535.135,538.941,541.659,545.511,547.482,551.991,554.655" svgx:width="0.23,0.53,0.51,0.25,0.25,0.51,0.69,0.23,0.37,0.52,0.53,0.43,0.37,0.43,0.37,0.23,0.42,0.44,0.25,0.42,0.27,0.55,0.43,0.53,0.23,0.44,0.31,0.23,0.48,0.48,0.48,0.23,0.23,0.48,0.48,0.48,0.23,0.23,0.44,0.55,0.53,0.23,0.48,0.48,0.48,0.23,0.34,0.67,0.23,0.27,0.55,0.23,0.44,0.27,0.37,0.23,0.3,0.51,0.37,0.23,0.48,0.23,0.53,0.23,0.44,0.31,0.23,0.44,0.23,0.53,0.43,0.44,0.31,0.27,0.55,0.47,0.23,0.37,0.44,0.31,0.43,0.23,0.51,0.3,0.23" style="fill:rgb(0,0,0);font-family:MinionPro-Regular;font-size:9.0px;stroke:none;"> hollow spheres calcined at 400, 450, and 500 °C in air for 4 h at a heating rate of </text>
   <text y="543.499" x="155.642,159.935,161.033,164.093,170.051,171.758,179.102,181.487" svgx:width="0.48,0.23,0.34,0.67,0.23,0.82,0.27,0.55" style="fill:rgb(0,0,0);font-family:MinionPro-Regular;font-size:9.0px;stroke:none;">2 °C min</text>
   <text y="540.44" x="186.365" svgx:width="0.78" style="fill:rgb(0,0,0);font-family:EuclidSymbol;font-size:5.85px;stroke:none;">−</text>
   <text y="540.44" x="190.892" svgx:width="0.48" style="fill:rgb(0,0,0);font-family:MinionPro-Regular;font-size:5.85px;stroke:none;">1</text>
   <text y="543.5" x="193.684,195.394,199.235,202.429,206.227,207.937,211.174,215.915,220.332,226.496,231.392,233.102,235.487,240.383,242.093,246.827,249.212,253.397,256.673,258.38,262.673,264.383,268.224,273.082,277.807,279.517,283.756,288.049,290.074,291.784,301.358,305.156,306.866,312.391,317.287,321.848,325.646,328.823,333.069,335.254,339.284,343.064,347.563,349.838,353.589,356.25,360.048,363.0,366.805,370.646,373.958,378.582,383.034,387.93,389.64,396.984,399.369,403.149,406.343,410.906,414.135,418.758,423.499,427.297,430.49,434.288,437.564,439.274,442.045,446.824,450.017,454.478,459.23,463.476,468.255,469.965,473.889,475.599,480.052,484.911,488.709,491.886,496.654,501.116,503.834,505.544,510.114,514.143,518.868,522.062,526.524,529.294,534.034,537.832,541.196,548.511,552.478,554.755" svgx:width="0.23,0.44,0.37,0.43,0.23,0.37,0.53,0.51,0.69,0.55,0.23,0.27,0.55,0.23,0.53,0.27,0.47,0.37,0.23,0.48,0.23,0.44,0.55,0.53,0.23,0.47,0.48,0.23,0.23,1.07,0.43,0.23,0.6,0.55,0.53,0.43,0.36,0.47,0.25,0.46,0.42,0.51,0.25,0.44,0.31,0.43,0.33,0.42,0.44,0.37,0.51,0.51,0.55,0.23,0.82,0.27,0.42,0.37,0.51,0.37,0.52,0.53,0.43,0.37,0.43,0.37,0.23,0.31,0.53,0.37,0.51,0.53,0.47,0.53,0.23,0.44,0.23,0.51,0.55,0.43,0.36,0.52,0.51,0.31,0.23,0.53,0.46,0.53,0.37,0.51,0.31,0.53,0.43,0.37,0.82,0.44,0.25,0.23" style="fill:rgb(0,0,0);font-family:MinionPro-Regular;font-size:9.0px;stroke:none;"> are shown in Figs 3 and S3. The ZnFe-glycolate/carbon microspheres through a one-pot hydrothermal </text>
   <text y="553.499" x="155.641,158.863,162.742,166.693,170.563,173.352,175.764,180.246,185.169,186.996,190.866,194.088,197.913,199.74,203.547,208.029,212.745,216.84,220.665,224.093,226.784,230.654,235.406,237.233,239.645,244.397,247.088,251.678,253.501,257.668,261.539,264.931,267.343,271.834,276.586,279.889,281.716,287.269,292.192,296.782" svgx:width="0.37,0.43,0.44,0.42,0.31,0.27,0.51,0.55,0.23,0.44,0.37,0.43,0.23,0.42,0.51,0.55,0.46,0.43,0.37,0.31,0.43,0.53,0.23,0.27,0.55,0.31,0.51,0.23,0.46,0.44,0.37,0.27,0.51,0.53,0.37,0.23,0.6,0.55,0.53,0.43" style="fill:rgb(0,0,0);font-family:MinionPro-Regular;font-size:9.0px;stroke:none;">reaction are converted into various ZnFe</text>
   <text y="555.3" x="300.589" svgx:width="0.48" style="fill:rgb(0,0,0);font-family:MinionPro-Regular;font-size:5.85px;stroke:none;">2</text>
   <text y="553.5" x="303.397" svgx:width="0.75" style="fill:rgb(0,0,0);font-family:MinionPro-Regular;font-size:9.0px;stroke:none;">O</text>
   <text y="555.3" x="310.12" svgx:width="0.48" style="fill:rgb(0,0,0);font-family:MinionPro-Regular;font-size:5.85px;stroke:none;">4</text>
   <text y="553.5" x="312.928,314.755,319.525,324.052,326.374,328.651,333.096,339.261,341.088,344.346,347.136,350.565,355.344,359.214,361.869,366.648,369.87,373.695,376.998,378.82,385.012,387.316,390.115,394.921,396.744,401.496,403.908,408.876,412.701,415.923,419.748,424.5,427.245,429.072,432.906,436.902,439.179,442.986,445.398,450.294,454.074,456.864,459.276,463.758,468.681,470.508,473.199,477.024,484.223,489.02,492.845,496.184,499.964,502.619,507.398,510.62,514.445,517.748,519.8,521.622,527.868,530.19,532.467,534.294,538.776,541.44,543.263,546.062,550.832,554.657" svgx:width="0.23,0.53,0.51,0.25,0.25,0.51,0.69,0.23,0.37,0.31,0.37,0.53,0.42,0.31,0.53,0.37,0.43,0.37,0.23,0.69,0.27,0.31,0.53,0.23,0.53,0.27,0.56,0.43,0.37,0.43,0.55,0.31,0.23,0.42,0.44,0.25,0.42,0.27,0.55,0.44,0.31,0.27,0.51,0.55,0.23,0.31,0.43,0.82,0.52,0.43,0.37,0.44,0.31,0.53,0.37,0.43,0.37,0.23,0.23,0.69,0.25,0.25,0.23,0.51,0.3,0.23,0.31,0.53,0.43,0.23" style="fill:rgb(0,0,0);font-family:MinionPro-Regular;font-size:9.0px;stroke:none;"> hollow structures with different calcination temperatures. All of the </text>
   <text y="563.499" x="155.635,159.045,162.969,170.222,174.929,177.26,181.139,184.496,186.521,192.767,195.124,197.976,202.836,204.861,207.713,212.536,216.415,218.44,221.76,226.584,230.427,232.802,235.106,238.463,240.488,244.411,249.352,254.158,256.183,258.649,263.626,268.566,272.445,275.838,277.863,281.724,286.259,289.535,293.414,295.439,299.363,302.638,306.517,308.542,312.403,316.938,324.191,329.042,333.686,337.114,341.038,345.844,347.869,352.405,355.122,357.147,360.0,364.823,368.702,370.727,376.873,380.715,383.091,385.422,388.68,392.541,397.076,402.053,406.994,410.917,414.84,417.585,421.508,426.314,428.339,431.615,436.159,440.992,445.932,450.738,452.763,457.704,461.583,464.409,470.556,475.091,478.448,482.966,484.991,491.236,493.593,496.446,501.306,503.331,508.281,512.204,517.145,521.689,526.503,530.427,533.909,536.753,539.219,543.025,545.356,549.235,552.592,554.644" svgx:width="0.37,0.44,0.82,0.52,0.25,0.43,0.37,0.23,0.69,0.27,0.31,0.53,0.23,0.31,0.53,0.43,0.23,0.37,0.53,0.43,0.25,0.25,0.37,0.23,0.44,0.55,0.53,0.23,0.27,0.55,0.55,0.43,0.37,0.23,0.42,0.51,0.37,0.43,0.23,0.44,0.37,0.43,0.23,0.42,0.51,0.82,0.52,0.51,0.37,0.43,0.53,0.23,0.51,0.3,0.23,0.31,0.53,0.43,0.23,0.69,0.43,0.25,0.25,0.36,0.42,0.51,0.55,0.55,0.43,0.42,0.31,0.43,0.53,0.23,0.37,0.51,0.53,0.55,0.53,0.23,0.55,0.43,0.31,0.69,0.51,0.37,0.5,0.23,0.69,0.27,0.31,0.53,0.23,0.55,0.44,0.55,0.51,0.52,0.44,0.37,0.31,0.27,0.42,0.25,0.43,0.37,0.23,0.23" style="fill:rgb(0,0,0);font-family:MinionPro-Regular;font-size:9.0px;stroke:none;">samples with the shells and inner core are composed of the well-connected round network with nanoparticles. </text>
   <text y="573.498" x="155.635,160.299,163.567,168.096,175.512,177.515,182.321,184.778,189.063,191.16,193.163,197.528,201.524,206.249,210.101,212.198,214.205,217.05,221.867,225.737,227.739,232.536,235.022,238.939,246.321,250.191,252.928,256.798,260.182,262.185,266.714,269.423,271.425,276.242,280.816,283.185,285.507,289.999,296.209,298.212,305.628,308.085,311.937,315.207,319.842,323.146,327.845,332.663,336.533,339.802,343.672,347.02,349.022,353.819,357.736,361.588,364.857,368.783,372.753,376.175,380.045,383.393,385.396,391.635,393.985,396.83,401.681,403.684,406.53,411.346,415.216,417.219,420.659,423.09,426.512,430.382,432.385,434.842,439.81,441.812,445.693,449.736,452.058,455.91,458.367,463.311,467.137,469.974,472.431,476.96,481.928,483.93,486.669,490.539,497.786,502.63,506.5,509.884,513.711,516.412,521.236,524.505,528.323,530.42,532.422,535.691,539.561,544.216,547.485,551.355" svgx:width="0.53,0.37,0.51,0.82,0.23,0.53,0.27,0.47,0.23,0.23,0.48,0.44,0.52,0.42,0.23,0.23,0.31,0.53,0.43,0.23,0.53,0.27,0.44,0.82,0.43,0.31,0.43,0.37,0.23,0.51,0.3,0.23,0.53,0.51,0.25,0.25,0.51,0.69,0.23,0.82,0.27,0.42,0.37,0.51,0.37,0.52,0.53,0.43,0.37,0.43,0.37,0.23,0.53,0.43,0.42,0.37,0.43,0.44,0.37,0.43,0.37,0.23,0.69,0.27,0.31,0.53,0.23,0.31,0.53,0.43,0.23,0.37,0.27,0.37,0.43,0.23,0.27,0.55,0.23,0.42,0.44,0.25,0.42,0.27,0.55,0.44,0.31,0.27,0.51,0.55,0.23,0.31,0.43,0.82,0.52,0.43,0.37,0.44,0.31,0.53,0.37,0.43,0.23,0.23,0.37,0.43,0.52,0.37,0.43,0.36" style="fill:rgb(0,0,0);font-family:MinionPro-Regular;font-size:9.0px;stroke:none;">From Fig. 3a–c, the diameter of hollow microspheres decreases with the rise in calcination temperature, repre-</text>
   <text y="583.497" x="155.635,159.071,162.959,167.772,170.623,173.098,178.011,182.286,184.338,187.199,192.039,195.881,198.689,200.741,203.602,208.433,212.321,214.373,219.188,221.689,225.621,233.017,236.905,239.658,243.546,246.893,250.259,252.311,256.855,259.582,261.634,267.124,271.948,278.734,282.001,286.384,290.767,295.15,297.265,299.317,304.807,309.631,316.417,319.684,324.067,328.45,332.833,334.948,337.0,340.931,345.88,350.695,352.747,358.237,363.061,369.847,373.114,377.497,381.88,386.263,388.315,391.6,395.531,400.237,405.079,408.949,412.837,414.889,417.364,422.35,424.402,427.262,432.094,435.982,438.034,442.577,445.862,450.677,454.565,457.967,460.019,464.563,467.29,469.342,473.725,475.84,480.223,484.606,486.721,488.773,493.156,495.271,499.654,504.037,506.152,508.204,512.136,517.084,521.899,523.951,528.334,530.449,534.832,539.215" svgx:width="0.37,0.43,0.55,0.31,0.27,0.55,0.47,0.23,0.31,0.53,0.44,0.31,0.23,0.31,0.53,0.43,0.23,0.53,0.27,0.44,0.82,0.43,0.31,0.43,0.37,0.37,0.23,0.51,0.3,0.23,0.6,0.53,0.75,0.36,0.48,0.48,0.48,0.23,0.23,0.6,0.53,0.75,0.36,0.48,0.48,0.48,0.23,0.23,0.44,0.55,0.53,0.23,0.6,0.53,0.75,0.36,0.48,0.48,0.48,0.23,0.37,0.43,0.53,0.53,0.42,0.43,0.23,0.27,0.55,0.23,0.31,0.53,0.43,0.23,0.51,0.37,0.53,0.43,0.37,0.23,0.51,0.3,0.23,0.48,0.23,0.48,0.48,0.23,0.23,0.48,0.23,0.48,0.48,0.23,0.23,0.44,0.55,0.53,0.23,0.48,0.23,0.48,0.48,0.23" style="fill:rgb(0,0,0);font-family:MinionPro-Regular;font-size:9.0px;stroke:none;">senting that the diameters of ZFO-400, ZFO-450, and ZFO-500 reduce in the order of 2.51, 2.12, and 2.05 </text>
   <text y="583.497" x="540.358" svgx:width="0.52" style="fill:rgb(0,0,0);font-family:EuclidSymbol;font-size:9.0px;stroke:none;">μ</text>
   <text y="583.497" x="545.092,545.155,552.587,554.639" svgx:width="0.23,0.82,0.23,0.23" style="fill:rgb(0,0,0);font-family:MinionPro-Regular;font-size:9.0px;stroke:none;"> m, </text>
   <text y="593.496" x="155.635,158.907,162.782,166.09,170.937,174.857,178.776,181.617,184.016,188.161,192.0,194.264,197.788,199.894,201.91,206.604,211.437,215.312,217.328,220.069,224.709,226.725,229.574,234.394,238.273,240.289,243.605,248.465,251.908,254.374,259.392,263.906,267.862,272.052,275.931,277.947,282.478,285.196,287.212,294.633,297.099,300.955,304.227,308.871,312.179,316.882,321.703,325.577,328.85,332.724,336.081,338.187,340.203,349.856,353.735,355.751,361.232,366.047,372.819,376.077,380.447,384.821,389.195,391.211,396.04,400.014,403.367,405.383,411.526,415.366,417.737,420.068,423.322,428.128,432.074,436.22,440.059,442.385,446.927,451.773,455.694,460.495,462.511,465.361,470.221,472.682,477.659,479.675,482.516,485.959,488.313,493.016,495.342,499.221,502.479,505.796,510.616,514.455,516.827,519.154,523.074,527.88,529.896,537.321,539.787,543.644,546.916,551.428" svgx:width="0.37,0.43,0.37,0.52,0.43,0.42,0.31,0.27,0.46,0.43,0.25,0.46,0.23,0.23,0.53,0.53,0.43,0.23,0.31,0.51,0.23,0.31,0.53,0.43,0.23,0.37,0.53,0.37,0.27,0.55,0.5,0.44,0.47,0.43,0.23,0.51,0.3,0.23,0.82,0.27,0.42,0.37,0.51,0.37,0.52,0.53,0.43,0.37,0.43,0.37,0.23,0.23,1.07,0.43,0.23,0.6,0.53,0.75,0.36,0.48,0.48,0.48,0.23,0.53,0.44,0.37,0.23,0.69,0.43,0.25,0.25,0.36,0.53,0.43,0.46,0.43,0.25,0.51,0.52,0.43,0.53,0.23,0.31,0.53,0.27,0.55,0.23,0.31,0.37,0.27,0.52,0.25,0.43,0.36,0.37,0.53,0.43,0.25,0.25,0.43,0.53,0.23,0.82,0.27,0.42,0.37,0.51,0.36" style="fill:rgb(0,0,0);font-family:MinionPro-Regular;font-size:9.0px;stroke:none;">respectively, due to the shrinkage of microspheres. The ZFO-450 has well-developed thin triple-shelled micro-</text>
   <text y="603.495" x="155.635,158.936,163.632,168.445,172.315,175.581,179.451,182.799,184.788,191.023,193.37,196.212,201.063,203.052,210.439,214.435,218.287,221.552,226.086,230.926,235.451,238.716,243.25,248.045,251.393,253.382,257.52,262.045,264.502,269.299,271.288,274.59,279.393,283.389,287.241,291.111,294.459,296.556,298.545,304.816,309.667,312.167,314.489,318.359,320.348,325.82,330.626,337.394,340.643,345.008,349.373,353.738,355.727,359.64,364.571,369.368,371.357,376.829,381.635,388.403,391.652,396.017,400.382,404.747,406.736,411.576,416.211,419.512,422.93,426.8,430.101,433.449,435.438,438.28,443.131,445.588,449.384,453.893,455.882,458.714,462.15,464.498,469.194,471.516,475.386,478.635,481.945,486.758,490.59,492.955,495.277,499.19,503.987,505.976,513.392,515.849,519.701,522.966,527.601,530.902,535.598,540.412,544.282,547.547,551.417,554.719" svgx:width="0.37,0.52,0.53,0.43,0.37,0.43,0.37,0.23,0.69,0.27,0.31,0.53,0.23,0.82,0.44,0.42,0.37,0.51,0.52,0.51,0.37,0.51,0.53,0.37,0.23,0.46,0.51,0.27,0.53,0.23,0.37,0.52,0.44,0.42,0.43,0.37,0.23,0.23,0.69,0.53,0.27,0.25,0.43,0.23,0.6,0.53,0.75,0.36,0.48,0.48,0.48,0.23,0.44,0.55,0.53,0.23,0.6,0.53,0.75,0.36,0.48,0.48,0.48,0.23,0.52,0.51,0.37,0.37,0.43,0.37,0.37,0.23,0.31,0.53,0.27,0.42,0.5,0.23,0.31,0.37,0.27,0.52,0.25,0.43,0.36,0.37,0.53,0.43,0.25,0.25,0.43,0.53,0.23,0.82,0.27,0.42,0.37,0.51,0.37,0.52,0.53,0.43,0.37,0.43,0.37,0.23" style="fill:rgb(0,0,0);font-family:MinionPro-Regular;font-size:9.0px;stroke:none;">spheres with macroporous void spaces, while ZFO-400 and ZFO-500 possess thick triple-shelled microspheres </text>
   <text y="613.494" x="155.635,159.584,164.55,169.383,171.498,174.376,179.263,181.756,185.589,190.134,192.249,197.082,201.652,206.474,211.062,213.42,217.326,220.611,223.957,228.807,232.675,235.076,237.434,241.383,246.216,248.331,252.892,257.859,261.765,265.149,267.282,269.397,272.698,276.604,279.94,284.816,288.766,292.715,295.584,298.012,302.185,306.054,308.347" svgx:width="0.44,0.55,0.53,0.23,0.31,0.53,0.27,0.42,0.5,0.23,0.53,0.51,0.53,0.51,0.25,0.43,0.36,0.37,0.53,0.43,0.25,0.25,0.43,0.53,0.23,0.51,0.55,0.43,0.37,0.23,0.23,0.37,0.43,0.37,0.52,0.43,0.42,0.31,0.27,0.46,0.43,0.25,0.46" style="fill:rgb(0,0,0);font-family:MinionPro-Regular;font-size:9.0px;stroke:none;">and thick double-shelled ones, respectively</text>
   <text y="610.44" x="312.538,315.399" svgx:width="0.48,0.48" style="fill:rgb(0,0,0);font-family:MinionPro-Regular;font-size:5.85px;stroke:none;">33</text>
   <text y="613.5" x="318.257,320.39,322.505,332.225,334.718,339.722,341.837,344.706,348.177,350.561,355.293,357.651,361.557,364.842,368.188,373.037,376.905,379.306,381.664,385.613,390.446,392.561,398.193,403.197,407.866" svgx:width="0.23,0.23,1.07,0.27,0.55,0.23,0.31,0.37,0.27,0.52,0.25,0.43,0.36,0.37,0.53,0.43,0.25,0.25,0.43,0.53,0.23,0.6,0.55,0.53,0.43" style="fill:rgb(0,0,0);font-family:MinionPro-Regular;font-size:9.0px;stroke:none;">. Thin triple-shelled ZnFe</text>
   <text y="615.3" x="411.755" svgx:width="0.48" style="fill:rgb(0,0,0);font-family:MinionPro-Regular;font-size:5.85px;stroke:none;">2</text>
   <text y="613.5" x="414.615" svgx:width="0.75" style="fill:rgb(0,0,0);font-family:MinionPro-Regular;font-size:9.0px;stroke:none;">O</text>
   <text y="615.3" x="421.417" svgx:width="0.48" style="fill:rgb(0,0,0);font-family:MinionPro-Regular;font-size:5.85px;stroke:none;">4</text>
   <text y="613.5" x="424.276,426.391,431.24,435.847,438.248,440.606,445.131,451.377,453.492,460.944,463.437,467.325,470.626,475.297,478.634,483.367,488.216,492.122,495.423,499.329,501.444,504.639,510.147,514.989,521.793,525.078,529.479,533.88,538.281,541.476,543.591,547.54,550.841,554.666" svgx:width="0.23,0.53,0.51,0.25,0.25,0.51,0.69,0.23,0.82,0.27,0.42,0.37,0.51,0.37,0.52,0.53,0.43,0.37,0.43,0.23,0.35,0.6,0.53,0.75,0.36,0.48,0.48,0.48,0.35,0.23,0.44,0.37,0.43,0.23" style="fill:rgb(0,0,0);font-family:MinionPro-Regular;font-size:9.0px;stroke:none;"> hollow microsphere (ZFO-450) are </text>
   <text y="623.499" x="155.635,159.451,163.945,171.157,175.965,180.564,183.951,187.833,192.594,194.547,199.04,201.713,203.666,206.477,211.259,215.093,217.046,221.549,226.231,228.934,232.768,236.116,238.069,241.348,246.129,249.93,252.264,254.498,256.559,258.512,262.619,267.113,269.534,274.243,276.305,278.258,280.678,285.611,290.509,294.343,297.691,299.644,302.923,307.705,311.505,313.839,316.074,318.135,320.088,323.969,328.868,333.629,335.582,338.003,342.935,347.833,351.667,355.015,356.968,361.75,366.288,368.622,370.908,375.366,381.54,383.493,387.309,391.803,395.036,398.87,400.823,404.831,407.117,411.611,416.473,420.694,422.647,425.458,430.24,434.074,436.027,439.375,443.335,448.096,450.546,454.554,456.84,458.793,463.554,465.975,469.21,473.091,476.972,479.774,482.195,486.689,491.621,493.574,496.339,499.573,504.067,511.447,513.4,516.211,520.992,524.826,526.779,530.049,534.837,538.242,540.915,544.875,548.691,552.473,554.524" svgx:width="0.42,0.51,0.82,0.52,0.51,0.37,0.43,0.53,0.23,0.51,0.3,0.23,0.31,0.53,0.43,0.23,0.51,0.53,0.31,0.43,0.37,0.23,0.37,0.53,0.43,0.25,0.25,0.23,0.23,0.46,0.51,0.27,0.53,0.23,0.23,0.27,0.55,0.55,0.43,0.37,0.23,0.37,0.53,0.43,0.25,0.25,0.23,0.23,0.44,0.55,0.53,0.23,0.27,0.55,0.55,0.43,0.37,0.23,0.53,0.51,0.25,0.25,0.51,0.69,0.23,0.42,0.51,0.37,0.43,0.23,0.44,0.25,0.51,0.55,0.47,0.23,0.31,0.53,0.43,0.23,0.37,0.44,0.53,0.27,0.44,0.25,0.23,0.53,0.27,0.37,0.43,0.42,0.31,0.27,0.51,0.55,0.23,0.3,0.37,0.51,0.82,0.23,0.31,0.53,0.43,0.23,0.37,0.53,0.37,0.3,0.44,0.42,0.43,0.23,0.23" style="fill:rgb(0,0,0);font-family:MinionPro-Regular;font-size:9.0px;stroke:none;">composed of the outer shell, void, inner shell, and inner hollow core along the radial direction from the surface. </text>
   <text y="633.498" x="155.635,165.328,167.794,172.771,174.792,178.111,182.933,186.774,189.148,191.479,193.504,196.139,200.673,204.117,211.504,215.427,220.233,222.253,226.733,230.918,232.943,237.892,241.814,246.753,251.296,256.108,260.032,263.512,266.354,268.82,272.625,274.956,278.835,282.192,284.217,286.573,290.496,293.814,298.006,301.847,304.114,308.299,310.319,314.853,319.874,323.753,327.09,330.447,332.467,337.327,339.793,344.12,348.98,351.001,354.311,359.16,363.082,366.943,369.409,374.278,378.139,380.159,383.469,388.302,391.747,394.465,398.47,402.331,406.21,408.231,412.154,415.428,419.358,423.335,426.692,428.717,434.96,437.316,440.167,445.027,447.052,451.057,453.082,455.413,459.957,462.756,464.776,469.31,472.028,474.053,477.894,480.225,484.147,488.069,490.91,494.184,498.908,502.713,507.535,511.414,518.839,521.305,525.191,529.24,531.57,533.591,537.596,541.518,544.36,546.761,550.908,554.733" svgx:width="1.07,0.27,0.55,0.23,0.37,0.53,0.43,0.25,0.25,0.23,0.3,0.51,0.37,0.82,0.43,0.53,0.23,0.51,0.46,0.23,0.55,0.44,0.55,0.51,0.52,0.44,0.37,0.31,0.27,0.42,0.25,0.43,0.37,0.23,0.25,0.44,0.37,0.47,0.43,0.25,0.46,0.23,0.51,0.56,0.43,0.37,0.37,0.23,0.53,0.27,0.47,0.53,0.23,0.37,0.52,0.43,0.42,0.27,0.54,0.42,0.23,0.37,0.53,0.37,0.3,0.44,0.42,0.43,0.23,0.44,0.37,0.43,0.44,0.37,0.23,0.69,0.27,0.31,0.53,0.23,0.44,0.23,0.25,0.51,0.31,0.23,0.51,0.3,0.23,0.43,0.25,0.43,0.42,0.31,0.37,0.51,0.42,0.53,0.43,0.82,0.27,0.42,0.44,0.25,0.23,0.44,0.42,0.31,0.27,0.46,0.43,0.23" style="fill:rgb(0,0,0);font-family:MinionPro-Regular;font-size:9.0px;stroke:none;">Thin shell formed by nanoparticles largely offers high specific surface areas with a lot of electrochemical active </text>
   <text y="643.497" x="155.635,158.938,161.242,163.933,167.758,171.061,172.938,176.808,181.695,186.447,188.323,191.59,196.36,200.842,204.271,207.016,208.893,213.645,216.057,221.16,225.912,229.215,231.627,236.109,241.032,242.908,245.185,249.01,253.861,258.073,260.872,265.606,268.909,270.786,273.45,277.401,281.208,283.665,285.942,288.245,291.044,294.824,297.614,300.026,304.877,309.089,310.965,318.309,322.233,325.491,328.794,330.671,333.461,336.8,340.67,345.521,348.824,351.407,355.232" svgx:width="0.37,0.27,0.31,0.43,0.37,0.23,0.44,0.55,0.53,0.23,0.37,0.53,0.51,0.37,0.31,0.23,0.53,0.27,0.56,0.53,0.37,0.27,0.51,0.55,0.23,0.25,0.43,0.55,0.47,0.31,0.53,0.37,0.23,0.3,0.44,0.42,0.27,0.25,0.27,0.31,0.44,0.31,0.27,0.55,0.47,0.23,0.82,0.44,0.37,0.37,0.23,0.31,0.37,0.44,0.55,0.37,0.3,0.43,0.37" style="fill:rgb(0,0,0);font-family:MinionPro-Regular;font-size:9.0px;stroke:none;">sites and short diffusion lengths facilitating mass transfer</text>
   <text y="640.44" x="358.573,361.381" svgx:width="0.48,0.48" style="fill:rgb(0,0,0);font-family:MinionPro-Regular;font-size:5.85px;stroke:none;">34</text>
   <text y="643.5" x="364.189,366.241,368.118,377.721,381.546,383.427,389.618,392.03,396.782,400.607,402.488,406.583,411.065,413.477,418.229,420.105,424.758,428.583,431.354,437.448,441.318,445.143,450.066,451.947,455.213,459.983,463.772,466.094,468.344,471.647,473.523,475.8,479.679,483.63,488.355,491.658,493.535,496.226,500.816,502.697,505.496,510.265,514.09,515.971,518.635,522.586,526.393,528.85,531.127,534.952,536.828,544.172,548.096,551.354,554.657" svgx:width="0.23,0.23,1.07,0.43,0.23,0.69,0.27,0.53,0.43,0.23,0.46,0.51,0.27,0.53,0.23,0.51,0.43,0.31,0.69,0.43,0.43,0.55,0.23,0.37,0.53,0.43,0.25,0.25,0.37,0.23,0.25,0.43,0.44,0.53,0.37,0.23,0.31,0.51,0.23,0.31,0.53,0.43,0.23,0.3,0.44,0.42,0.27,0.25,0.43,0.23,0.82,0.44,0.37,0.37,0.23" style="fill:rgb(0,0,0);font-family:MinionPro-Regular;font-size:9.0px;stroke:none;">. The wide void between shells leads to the facile mass </text>
   <text y="653.499" x="155.641,158.465,161.84,165.745,170.63,173.969,176.586,180.447,183.822,185.793,190.255,194.422,196.393,199.685,202.411,206.927,210.353,212.801,217.686,221.934,223.905,227.818,232.326,237.141,242.061,246.874,250.778,255.565,258.346,260.317,264.139,266.452,270.356,274.26,277.085,280.341,284.902,287.15,291.317,294.042,297.903,299.874,303.779,308.7,313.488,315.459,320.101,323.357,327.882,330.608,334.512,338.415,341.196,344.535,346.506,350.446,354.694,358.598,361.046,365.932,369.224,372.005,373.976,376.809,381.613,385.474,387.445,392.258,396.163,403.541,407.481,411.655,415.516,417.487,422.003,424.703,426.674,434.081,436.529,440.372,443.629,448.255,451.547,456.234,461.038,464.899,468.155,472.016,475.355,477.326,481.789,485.956,487.927,492.569,495.825,500.305,504.533,506.981,511.769,514.217,519.103,523.351,525.322,528.145,531.402,535.263,542.632,546.493,551.452" svgx:width="0.31,0.37,0.44,0.55,0.37,0.3,0.43,0.37,0.23,0.51,0.46,0.23,0.37,0.31,0.51,0.37,0.27,0.55,0.47,0.23,0.44,0.51,0.53,0.55,0.53,0.44,0.55,0.31,0.23,0.43,0.25,0.43,0.42,0.31,0.37,0.51,0.25,0.46,0.31,0.43,0.23,0.44,0.55,0.53,0.23,0.52,0.37,0.51,0.31,0.43,0.42,0.31,0.37,0.23,0.44,0.47,0.44,0.27,0.55,0.37,0.31,0.23,0.31,0.53,0.43,0.23,0.53,0.44,0.82,0.44,0.47,0.43,0.23,0.51,0.3,0.23,0.82,0.27,0.42,0.37,0.51,0.37,0.52,0.53,0.43,0.37,0.43,0.37,0.23,0.51,0.46,0.23,0.52,0.37,0.51,0.46,0.27,0.53,0.27,0.55,0.47,0.23,0.31,0.37,0.43,0.82,0.43,0.55,0.36" style="fill:rgb(0,0,0);font-family:MinionPro-Regular;font-size:9.0px;stroke:none;">transfer by storing abundant electrolyte and protects against the damage of microspheres by providing tremen-</text>
   <text y="663.498" x="155.641,160.438,164.977,169.777,173.126,175.133,178.438,183.248,187.244,191.096,194.966,198.314,200.321,205.172,207.629,212.564,217.361,221.231,224.672,227.129,232.029,236.286,238.293,241.716,245.661,249.805,253.675,256.944,260.814,262.821,266.965,271.54,273.757,278.581,285.965,289.835,291.842,295.643,300.47,304.389,309.287,313.476,317.346,319.353,324.045,328.869,332.309,334.766,339.666,343.923,345.93,348.252,350.605,353.451,358.302,360.789,364.618,367.455,369.912,374.442,379.41,382.434,387.231,391.068,393.39,395.741,398.589,403.44,405.928,409.755,412.594,415.051,419.582,424.55,426.647,428.654,434.93,439.748,443.618,446.888,450.815,454.788,458.136,460.143,462.989,467.808,471.678,473.685,476.142,481.078,484.93,488.2,492.127,496.099,499.522,503.392,505.399,507.856,512.824,514.831,518.683,522.332,526.508,529.814,532.661,536.706,539.028,541.035,544.383,546.84,550.665,554.49" svgx:width="0.53,0.51,0.53,0.37,0.23,0.37,0.52,0.44,0.42,0.43,0.37,0.23,0.53,0.27,0.55,0.53,0.43,0.37,0.27,0.55,0.47,0.23,0.37,0.43,0.46,0.43,0.37,0.43,0.23,0.46,0.51,0.25,0.53,0.82,0.43,0.23,0.42,0.53,0.44,0.55,0.47,0.43,0.23,0.53,0.53,0.37,0.27,0.55,0.47,0.23,0.25,0.27,0.31,0.53,0.27,0.44,0.31,0.27,0.51,0.55,0.33,0.53,0.43,0.25,0.27,0.31,0.53,0.27,0.44,0.31,0.27,0.51,0.55,0.23,0.23,0.69,0.53,0.43,0.37,0.43,0.44,0.37,0.23,0.31,0.53,0.43,0.23,0.27,0.55,0.42,0.37,0.43,0.44,0.37,0.43,0.23,0.27,0.55,0.23,0.42,0.37,0.46,0.37,0.31,0.44,0.25,0.23,0.37,0.27,0.42,0.43,0.23" style="fill:rgb(0,0,0);font-family:MinionPro-Regular;font-size:9.0px;stroke:none;">dous spaces hindering severe volume change during lithiation/delithiation, whereas the increase in crystal size </text>
   <text y="673.497" x="155.641,159.959,162.369,166.525,170.413,173.779,175.831,179.284,181.73,185.166,189.054,191.106,193.857,198.51,200.562,203.421,208.253,212.141,214.193,219.008,222.939,226.809,230.092,234.031,238.016,241.453,245.383,250.198,252.25,256.099,258.439,262.37,266.301,269.151,272.434,277.166,280.98,285.81,289.698,297.132,299.607,303.502,307.559,309.899,311.951,315.317,317.682,320.433,324.321,327.687,329.802,331.854,337.99,341.356,343.408,347.422,349.474,352.757,356.645,359.964,364.849,367.079,369.887,372.002,374.054,376.913,381.745,385.633,387.685,390.329,394.871,398.325,405.731,409.571,412.422,414.897,419.44,424.426,426.478,431.022,433.749,435.801,442.054,444.529,449.344,453.232,455.284,459.439,463.982,466.457,471.272,473.324,477.255,482.204,487.019,489.071,491.922,494.397,499.174,503.368,505.42,510.377,514.308,519.256,523.808,528.63,532.56,536.051,538.901,541.376,545.19,547.53,551.418,554.72" svgx:width="0.47,0.27,0.46,0.43,0.37,0.23,0.37,0.27,0.37,0.43,0.23,0.31,0.51,0.23,0.31,0.53,0.43,0.23,0.53,0.43,0.42,0.37,0.43,0.44,0.37,0.43,0.53,0.23,0.43,0.25,0.43,0.42,0.31,0.37,0.51,0.42,0.53,0.43,0.82,0.27,0.42,0.44,0.25,0.23,0.37,0.27,0.31,0.43,0.37,0.23,0.23,0.69,0.37,0.23,0.44,0.23,0.37,0.43,0.37,0.53,0.25,0.31,0.23,0.23,0.31,0.53,0.43,0.23,0.3,0.51,0.37,0.82,0.44,0.31,0.27,0.51,0.55,0.23,0.51,0.3,0.23,0.69,0.27,0.53,0.43,0.23,0.46,0.51,0.27,0.53,0.23,0.44,0.55,0.53,0.23,0.31,0.27,0.55,0.46,0.23,0.55,0.44,0.55,0.51,0.52,0.44,0.37,0.31,0.27,0.42,0.25,0.43,0.37,0.23" style="fill:rgb(0,0,0);font-family:MinionPro-Regular;font-size:9.0px;stroke:none;">gives rise to the decreased electrochemical sites. As a result, the formation of wide void and tiny nanoparticles </text>
   <text y="683.496" x="155.641,157.896,161.752,165.681,170.384,173.664,175.378,178.047,182.614,184.329,187.105,191.853,195.655,197.37,201.999,205.806,209.042,211.764,213.478,217.244,219.503,223.35,227.198,229.965,233.165,237.814,241.544,246.292,250.094,257.443,259.832,263.644,267.617,269.872,271.586,276.36,280.163,283.533,286.095,290.554,293.925,301.246,305.094,309.958,313.743,317.491,319.521,321.235,330.816,334.618,337.818,341.625,343.338,347.186,350.385,354.188,355.902,359.759,364.21,368.966,373.831,378.588,382.435,387.165,389.887,391.602,393.991,398.721,401.389,405.192,408.454,411.69,414.457,416.739,419.506,421.923,425.896,428.151,429.865,433.101,437.839,441.768,445.552,449.355,452.635,454.35,458.98,462.783,465.532,471.603,475.45,479.253,484.153,485.868,490.741,494.589,499.453,503.923,508.661,512.509,515.915,518.683,521.072,524.803,527.057,530.86,534.14,535.855,539.639,544.099,551.434" svgx:width="0.25,0.43,0.44,0.53,0.37,0.23,0.31,0.51,0.23,0.31,0.53,0.43,0.23,0.51,0.43,0.37,0.31,0.23,0.43,0.25,0.43,0.42,0.31,0.37,0.51,0.42,0.53,0.43,0.82,0.27,0.42,0.44,0.25,0.23,0.52,0.43,0.37,0.3,0.51,0.37,0.82,0.44,0.55,0.42,0.43,0.23,0.23,1.07,0.43,0.37,0.43,0.23,0.44,0.37,0.43,0.23,0.44,0.51,0.53,0.55,0.53,0.44,0.55,0.31,0.23,0.27,0.55,0.31,0.43,0.37,0.37,0.31,0.27,0.31,0.27,0.44,0.25,0.23,0.37,0.52,0.44,0.42,0.43,0.37,0.23,0.51,0.43,0.31,0.69,0.43,0.43,0.55,0.23,0.55,0.44,0.55,0.51,0.52,0.44,0.37,0.31,0.27,0.42,0.25,0.43,0.37,0.23,0.42,0.51,0.82,0.36" style="fill:rgb(0,0,0);font-family:MinionPro-Regular;font-size:9.0px;stroke:none;">leads to the best electrochemical performance. There are abundant interstitial spaces between nanoparticles com-</text>
   <text y="693.495" x="155.641,160.249,163.642,166.027,169.33,171.742,176.593,180.805,182.722,187.204,189.868,191.785,195.052,199.822,203.611,205.933,208.183,211.486,213.538,215.455,225.058,228.883,230.8,235.696,239.566,244.453,248.944,253.705,257.575,261.004,263.794,266.206,269.958,272.235,276.06,279.363,281.28,284.502,288.372,293.016,297.795,301.602,305.427,307.344,310.143,314.913,318.738,320.655,323.067,327.818,330.509,334.335,337.727,342.623,346.619,348.896,350.813,354.071,356.861,360.083,363.908,367.166,370.469,372.386,376.22,380.0,384.752,388.127,391.997,396.749,398.666,403.094,407.225,409.142,411.941,416.711,420.536,422.453,425.711,428.5,431.839,435.709,438.121,442.972,446.275,448.192,452.845,456.67,459.441,465.534,469.404,473.229,478.152,480.069,484.965,488.835,493.722,498.213,502.974,506.844,510.273,513.063,515.475,519.229,521.506,525.331,528.634,530.686,532.603,538.831,543.637,546.049,549.802,554.609" svgx:width="0.52,0.37,0.27,0.37,0.27,0.55,0.47,0.23,0.51,0.3,0.23,0.37,0.53,0.43,0.25,0.25,0.37,0.23,0.23,1.07,0.43,0.23,0.55,0.44,0.55,0.51,0.52,0.44,0.37,0.31,0.27,0.42,0.25,0.43,0.37,0.23,0.37,0.43,0.53,0.53,0.42,0.43,0.23,0.31,0.53,0.43,0.23,0.27,0.55,0.31,0.43,0.37,0.55,0.44,0.25,0.23,0.37,0.31,0.37,0.43,0.37,0.37,0.23,0.42,0.44,0.53,0.37,0.43,0.53,0.23,0.51,0.46,0.23,0.31,0.53,0.43,0.23,0.37,0.31,0.37,0.44,0.27,0.55,0.37,0.23,0.51,0.43,0.31,0.69,0.43,0.43,0.55,0.23,0.55,0.44,0.55,0.51,0.52,0.44,0.37,0.31,0.27,0.42,0.25,0.43,0.37,0.23,0.23,0.69,0.53,0.27,0.42,0.53,0.23" style="fill:rgb(0,0,0);font-family:MinionPro-Regular;font-size:9.0px;stroke:none;">prising of shells. The nanoparticles reduce the internal stress caused by the strains between nanoparticles, which </text>
   <text y="703.494" x="155.641,160.328,163.63,168.2,170.97,174.918,178.868,181.694,183.809,188.505,193.408,195.701,199.875,203.781,207.253,209.746,213.607,217.466,220.335,222.828,227.389,232.393,234.508,239.069,241.814,243.929,247.961,251.911,254.779,257.207,261.381,265.287,267.402,274.825,278.684,281.454,285.36,288.832,291.35,295.425,297.754,301.138,303.253,307.814,311.286,313.779,318.115,320.608,325.583,329.442,332.212,336.161,340.995,343.109,345.603,350.607,352.721,356.175,360.151,364.325,368.231,371.532,375.438,377.553,381.728,386.334,388.582,393.442,400.855,404.761,406.876,410.782,415.111,419.952,423.901,428.831,432.215,434.708,439.269,444.273,446.388,451.111,455.971,459.443,461.936,466.866,471.159,473.274,475.632,478.015,480.893,485.78,488.298,492.157,495.026,497.519,502.08,507.084,510.144,514.977,518.845,521.203,523.586,526.464,531.351,533.869,537.728,540.597,543.09,547.652,552.656,554.708" svgx:width="0.52,0.37,0.51,0.31,0.43,0.42,0.31,0.23,0.52,0.53,0.25,0.46,0.43,0.37,0.27,0.42,0.44,0.31,0.27,0.51,0.55,0.23,0.51,0.3,0.23,0.44,0.42,0.31,0.27,0.46,0.43,0.23,0.82,0.44,0.31,0.43,0.37,0.27,0.44,0.25,0.37,0.23,0.51,0.37,0.27,0.47,0.27,0.55,0.44,0.31,0.43,0.53,0.23,0.27,0.55,0.23,0.37,0.43,0.46,0.43,0.37,0.43,0.23,0.46,0.51,0.25,0.53,0.82,0.43,0.23,0.43,0.47,0.52,0.44,0.55,0.37,0.27,0.51,0.55,0.23,0.53,0.53,0.37,0.27,0.55,0.47,0.23,0.25,0.27,0.31,0.53,0.27,0.44,0.31,0.27,0.51,0.55,0.33,0.53,0.43,0.25,0.27,0.31,0.53,0.27,0.44,0.31,0.27,0.51,0.55,0.23,0.23" style="fill:rgb(0,0,0);font-family:MinionPro-Regular;font-size:9.0px;stroke:none;">protect pulverization of active materials originated in severe volume expansion during lithiation/delithiation. </text>
   <text y="713.493" x="155.641,165.223,170.088,173.503,175.673,177.904,180.817,185.7,189.642,191.874,196.623,201.514,205.768,209.71,211.942,216.15,220.79,223.072,227.968,235.416,239.358,241.59,245.528,249.893,254.767,258.751,263.714,267.134,269.663,274.258,279.294,281.526,284.051,289.051,293.034,297.926,301.432,304.939,307.463,312.428,316.757,318.989,321.901,326.784,330.722,332.954,336.9,340.794,345.668,349.732,353.656,356.073,358.958,363.206,365.438,368.214,372.282,377.151,381.089,383.321,385.818,389.238,391.47,396.191,399.527,404.167,409.09,411.579,416.156,418.574,421.378,425.36,430.229,432.461,437.003,441.251,443.483,446.394,451.278,455.215,457.447,460.819,463.721,467.263,472.159,476.142,478.91,483.806,487.258,491.367,493.761,495.993,498.522,503.388,506.191,510.133,514.503,518.009,520.427,523.311,527.559,529.791,534.385,537.167,539.398,542.311,547.234,549.763,554.685" svgx:width="1.07,0.53,0.37,0.23,0.23,0.31,0.53,0.43,0.23,0.53,0.53,0.47,0.43,0.23,0.46,0.51,0.25,0.53,0.82,0.43,0.23,0.43,0.47,0.52,0.44,0.55,0.37,0.27,0.51,0.55,0.23,0.27,0.55,0.42,0.53,0.37,0.37,0.27,0.55,0.47,0.23,0.31,0.53,0.43,0.23,0.42,0.44,0.52,0.44,0.42,0.27,0.31,0.46,0.23,0.3,0.44,0.53,0.43,0.23,0.27,0.37,0.23,0.52,0.37,0.51,0.53,0.27,0.51,0.27,0.31,0.43,0.53,0.23,0.51,0.46,0.23,0.31,0.53,0.43,0.23,0.37,0.31,0.37,0.53,0.42,0.31,0.53,0.37,0.44,0.25,0.23,0.27,0.55,0.31,0.43,0.47,0.37,0.27,0.31,0.46,0.23,0.51,0.3,0.23,0.31,0.53,0.27,0.55,0.23" style="fill:rgb(0,0,0);font-family:MinionPro-Regular;font-size:9.0px;stroke:none;">Thus, the huge volume expansion incurring the capacity fade is prohibited by the structural integrity of thin </text>
   <text y="723.492" x="155.641,158.431,161.824,164.128,168.781,171.058,174.883,178.087,181.353,186.123,189.912,192.234,194.511,198.381,203.133,204.969,209.739,214.266,216.588,218.865,223.311,229.476,231.312,234.57,237.36,240.789,245.568,249.437,252.092,256.871,260.093,263.864,265.916,267.752,273.98,278.786,281.198,284.951,289.757,291.593,293.978,297.281,299.117,302.375,307.154,309.458,312.257,316.136,320.645,322.922,326.747,328.583,331.166,335.648,338.987,340.823,343.487,347.438,351.245,353.702,355.979,358.283,361.082,364.862,367.651,370.063,374.914,379.126,380.962,383.761,388.531,392.356,394.192,401.536,405.46,408.718,412.021,413.857,416.646,419.985,423.855,428.706,432.009,434.592,438.417,441.756,443.592,447.462,452.349,457.101,458.937,462.69,467.469,471.339,474.606,478.746,482.571,484.407,487.197,490.536,494.406,499.257,502.56,505.143,508.969,511.741" svgx:width="0.31,0.37,0.27,0.52,0.25,0.43,0.36,0.37,0.53,0.43,0.25,0.25,0.43,0.53,0.23,0.53,0.51,0.25,0.25,0.51,0.69,0.23,0.37,0.31,0.37,0.53,0.42,0.31,0.53,0.37,0.43,0.23,0.23,0.69,0.53,0.27,0.42,0.53,0.23,0.27,0.37,0.23,0.37,0.53,0.27,0.31,0.44,0.51,0.25,0.43,0.23,0.3,0.51,0.37,0.23,0.3,0.44,0.42,0.27,0.25,0.27,0.31,0.44,0.31,0.27,0.55,0.47,0.23,0.31,0.53,0.43,0.23,0.82,0.44,0.37,0.37,0.23,0.31,0.37,0.44,0.55,0.37,0.3,0.43,0.37,0.23,0.44,0.55,0.53,0.23,0.42,0.53,0.44,0.37,0.47,0.43,0.23,0.31,0.37,0.44,0.55,0.37,0.3,0.43,0.37,0.23" style="fill:rgb(0,0,0);font-family:MinionPro-Regular;font-size:9.0px;stroke:none;">triple-shelled hollow structure, which is suitable for facilitating the mass transfer and charge transfer.</text>
  </g>
  <rect style="stroke:blue;stroke-width:0.3;" x="155.638" y="64.138" height="105.96" width="360.0" title="3"/>
  <text y="64.138" class="image" id="image.3.1" width="360" height="105" x="155.638">image.3.1.156_516.64_170</text>
  <path style="fill:none;stroke:rgb(131,144,151);stroke-width:0.3;" d="M159.130 181.000 L552.640 181.000 "/>
  <path style="fill:none;stroke:rgb(131,144,151);stroke-width:1.0;" d="M156.140 181.000 L156.140 181.000 M554.140 181.000 L554.140 181.000 "/>
  <g begin="text">
   <text y="171.003" x="155.638,160.552,163.207,167.662,172.657,176.221,180.154,181.909,186.409" svgx:width="0.55,0.29,0.49,0.56,0.4,0.44,0.22,0.5,0.25" style="fill:rgb(0,0,0);font-family:MinionPro-Bold;font-size:9.0px;stroke:none;">Figure 2.</text>
   <text y="171.003" x="188.695" svgx:width="0.23" style="fill:rgb(0,0,0);font-family:MinionPro-Regular;font-size:9.0px;stroke:none;"> </text>
   <text y="171.003" x="193.195,197.848,201.646,206.596,210.484,218.071,222.129,225.135,227.844,231.642,233.397,236.142,238.734,241.191,246.186,249.597,252.603,256.311,260.37,263.376,266.085,270.72,275.814,277.569,280.422,285.057,288.693,290.448,293.499,298.449,302.382,304.137,307.62,311.913,316.935,319.986,324.936,328.869,332.28,334.935,338.382,340.137,344.772,347.751,349.506,353.691,357.84,361.476,364.185,368.838,373.833,377.28,379.035,382.456,387.406,391.302,393.894,396.45,400.5,405.423,407.178,412.803,417.897,422.73" svgx:width="0.5,0.42,0.55,0.44,0.84,0.47,0.34,0.29,0.42,0.22,0.29,0.28,0.28,0.56,0.38,0.34,0.4,0.47,0.34,0.29,0.52,0.57,0.22,0.33,0.52,0.4,0.22,0.34,0.55,0.44,0.22,0.38,0.47,0.57,0.34,0.55,0.44,0.38,0.29,0.38,0.22,0.52,0.33,0.22,0.47,0.47,0.4,0.29,0.52,0.56,0.38,0.22,0.38,0.55,0.44,0.28,0.28,0.44,0.55,0.22,0.62,0.57,0.55,0.44" style="fill:rgb(0,0,0);font-family:MinionPro-Bold;font-size:9.0px;stroke:none;">Schematic illustration for the synthesis of various shelled ZnFe</text>
   <text y="172.803" x="426.685" svgx:width="0.5" style="fill:rgb(0,0,0);font-family:MinionPro-Bold;font-size:5.85px;stroke:none;">2</text>
   <text y="171.003" x="429.61" svgx:width="0.77" style="fill:rgb(0,0,0);font-family:MinionPro-Bold;font-size:9.0px;stroke:none;">O</text>
   <text y="172.803" x="436.504" svgx:width="0.5" style="fill:rgb(0,0,0);font-family:MinionPro-Bold;font-size:5.85px;stroke:none;">4</text>
   <text y="171.003" x="439.429,441.184,446.134,450.832,453.424,455.98,460.669,466.816,468.571,476.158,478.867,482.665,486.229,490.954,494.365,499.261,504.211,508.099,511.663,515.596,519.043,521.329" svgx:width="0.22,0.55,0.52,0.28,0.28,0.52,0.68,0.22,0.84,0.29,0.42,0.4,0.52,0.38,0.55,0.55,0.44,0.4,0.44,0.38,0.25,0.22" style="fill:rgb(0,0,0);font-family:MinionPro-Bold;font-size:9.0px;stroke:none;"> hollow microspheres. </text>
  </g>
 </g>
</svg>
