<?xml version="1.0" encoding="UTF-8"?>
<svg height="774.23" width="4165.638" xmlns="http://www.w3.org/2000/svg">
 <g id="page" xmlns:svgx="http://www.xml-cml.org/schema/svgx">
  <g begin="text">
   <text y="22.46" x="40.638,48.208,55.778,63.055,66.145,71.865,77.215,81.135,86.765,90.565,95.995,99.085,103.915,109.695,118.435,121.635,126.125,130.955,133.725,139.15,144.87,148.79,151.56,155.19,157.96,162.79,166.59,172.02,177.78,183.56,187.36,191.28,195.77" svgx:width="0.71,0.71,0.71,0.26,0.53,0.49,0.35,0.52,0.34,0.5,0.26,0.44,0.53,0.83,0.28,0.4,0.44,0.23,0.5,0.53,0.35,0.23,0.32,0.23,0.44,0.34,0.5,0.53,0.53,0.34,0.35,0.4,0.28" style="fill:rgb(255,255,255);font-family:Corbel;font-size:10.0px;stroke:none;">www.nature.com/scientificreports/</text>
  </g>
  <g begin="text">
   <text y="764.23" x="549.838" svgx:width="0.48" style="fill:rgb(131,144,151);font-family:Corbel;font-size:10.0px;stroke:none;">5</text>
  </g>
  <g begin="text">
   <text y="764.193" x="40.794,45.642,50.786,53.186,58.026,64.026,68.898,71.298,75.762,78.162" svgx:width="0.55,0.59,0.25,0.55,0.7,0.56,0.25,0.5,0.25,0.59" style="fill:rgb(131,144,151);font-family:Corbel;font-size:8.0px;stroke:none;">Scientific</text>
   <text y="764.193" x="83.162" svgx:width="0.2" style="fill:rgb(0,0,0);font-family:Corbel;font-size:8.0px;stroke:none;"> </text>
   <text y="764.193" x="84.762,90.218,95.194,100.434,106.738,112.194,117.186" svgx:width="0.63,0.57,0.6,0.73,0.63,0.57,0.58" style="fill:rgb(131,144,151);font-family:Corbel-Bold;font-size:8.0px;stroke:none;">RepoRts</text>
   <text y="764.193" x="122.082,123.524,125.34,126.781,130.885,132.997,137.102,141.206,145.31,149.414,153.518,154.946,156.762,158.203,163.571,169.411,171.379,173.491,174.93,179.034,183.138,185.25,189.354,193.458,197.562,201.666,203.866,207.098,209.778,213.762,218.01,222.114,226.218,230.322,234.426" svgx:width="0.2,0.23,0.2,0.51,0.26,0.51,0.51,0.51,0.51,0.51,0.2,0.23,0.2,0.67,0.73,0.25,0.26,0.2,0.51,0.51,0.26,0.51,0.51,0.51,0.51,0.28,0.4,0.34,0.5,0.53,0.51,0.51,0.51,0.51,0.51" style="fill:rgb(0,0,0);font-family:Corbel;font-size:8.0px;stroke:none;"> | 6:19195 | DOI: 10.1038/srep19195</text>
  </g>
  <path style="fill:none;stroke:rgb(0,0,0);stroke-width:1.0;" d="M40.640 752.550 L554.640 752.550 "/>
  <g begin="text">
   <text y="424.0" x="155.638,158.38,163.024,165.04,169.414,173.788,178.162,180.268,184.642,186.748,188.764,193.138,197.512,201.886,203.992,208.366,210.472,212.488,216.862,221.236,225.61,227.716,232.09,234.106,238.028,242.967,247.773,249.789,254.163,258.537,262.911,265.017,269.391,270.523,277.948,284.246,289.106,291.122" svgx:width="0.31,0.51,0.23,0.48,0.48,0.48,0.23,0.48,0.23,0.23,0.48,0.48,0.48,0.23,0.48,0.23,0.23,0.48,0.48,0.48,0.23,0.48,0.23,0.44,0.55,0.53,0.23,0.48,0.48,0.48,0.23,0.48,0.23,0.82,0.69,0.53,0.23,0.47" style="fill:rgb(0,0,0);font-family:MinionPro-Regular;font-size:9.0px;stroke:none;">to 770.5, 672.3, 582.8 and 480.3 mAh g</text>
   <text y="420.94" x="295.387" svgx:width="0.78" style="fill:rgb(0,0,0);font-family:EuclidSymbol;font-size:5.85px;stroke:none;">−</text>
   <text y="420.94" x="299.973" svgx:width="0.48" style="fill:rgb(0,0,0);font-family:MinionPro-Regular;font-size:5.85px;stroke:none;">1</text>
   <text y="424.0" x="302.816,304.922,306.938,310.213,314.092,317.401,322.249,326.171,330.093,332.934,335.334,339.482,343.322,345.588,350.049,352.155,354.171,357.022,361.844,365.723,367.739,372.059,378.548,383.363,385.379,389.22,391.551,395.472,399.394,402.236,405.509,410.232,415.038,418.917,420.932,423.738,427.011,431.545,438.97,440.986,445.36,449.734,454.108,456.214,460.588,462.604,465.347,469.991,472.007,476.381,480.755,485.129,487.235,491.609,493.715,495.73,500.104,504.478,508.852,510.958,515.332,517.438,519.454,523.828,528.203,532.577,534.683,539.057,541.073,544.994,549.933,554.685" svgx:width="0.23,0.23,0.37,0.43,0.37,0.52,0.43,0.42,0.31,0.27,0.46,0.43,0.25,0.46,0.23,0.23,0.31,0.53,0.43,0.23,0.47,0.71,0.53,0.23,0.43,0.25,0.43,0.42,0.31,0.37,0.51,0.53,0.43,0.23,0.3,0.37,0.51,0.82,0.23,0.48,0.48,0.48,0.23,0.48,0.23,0.31,0.51,0.23,0.48,0.48,0.48,0.23,0.48,0.23,0.23,0.48,0.48,0.48,0.23,0.48,0.23,0.23,0.48,0.48,0.48,0.23,0.48,0.23,0.44,0.55,0.53,0.23" style="fill:rgb(0,0,0);font-family:MinionPro-Regular;font-size:9.0px;stroke:none;">, respectively; the SGF electrode from 784.5 to 693.7, 587.0, 396.9 and </text>
   <text y="433.999" x="155.639,159.986,164.333,168.68,170.759,175.106,176.258,183.656,189.926,194.759,196.724" svgx:width="0.48,0.48,0.48,0.23,0.48,0.23,0.82,0.69,0.53,0.23,0.47" style="fill:rgb(0,0,0);font-family:MinionPro-Regular;font-size:9.0px;stroke:none;">251.2 mAh g</text>
   <text y="430.94" x="200.935" svgx:width="0.78" style="fill:rgb(0,0,0);font-family:EuclidSymbol;font-size:5.85px;stroke:none;">−</text>
   <text y="430.94" x="205.504" svgx:width="0.48" style="fill:rgb(0,0,0);font-family:MinionPro-Regular;font-size:5.85px;stroke:none;">1</text>
   <text y="434.0" x="208.328,210.407,212.369,215.615,219.467,222.749,227.57,231.464,235.357,238.172,240.545,244.663,248.477,250.715,254.213,256.292,258.254,267.882,271.734,273.696,276.978,281.798,285.692,289.526,291.965,296.807,300.641,302.603,306.461,310.264,315.05,319.028,322.862,325.19,328.003,330.442,334.294,337.624,339.586,344.093,346.784,348.746,351.568,356.362,360.214,362.176,368.392,372.685,379.147,383.935,385.897,389.709,392.013,395.907,399.801,402.614,405.861,410.556,415.335,419.187,421.149,423.558,426.888,428.85,433.197,437.544,439.623,443.97,450.801,452.88,454.842,459.189,463.536,465.615,469.962,476.793,478.872,480.834,485.181,489.528,491.607,495.954,502.785,504.864,506.826,511.173,515.52,517.599,521.946,528.777,530.856,532.818,537.165,541.512,543.591,547.938,554.742" svgx:width="0.23,0.23,0.37,0.43,0.37,0.52,0.43,0.42,0.31,0.27,0.46,0.43,0.25,0.46,0.23,0.23,1.07,0.43,0.23,0.37,0.52,0.43,0.42,0.27,0.54,0.42,0.23,0.42,0.44,0.52,0.44,0.42,0.27,0.31,0.27,0.43,0.37,0.23,0.51,0.3,0.23,0.31,0.53,0.43,0.23,0.69,0.47,0.71,0.53,0.23,0.43,0.25,0.43,0.42,0.31,0.37,0.51,0.53,0.43,0.23,0.27,0.37,0.23,0.48,0.48,0.23,0.48,0.76,0.23,0.23,0.48,0.48,0.23,0.48,0.76,0.23,0.23,0.48,0.48,0.23,0.48,0.76,0.23,0.23,0.48,0.48,0.23,0.48,0.76,0.23,0.23,0.48,0.48,0.23,0.48,0.76,0.23" style="fill:rgb(0,0,0);font-family:MinionPro-Regular;font-size:9.0px;stroke:none;">, respectively. The specific capacities of the ASGF electrode is 17.4%, 11.1%, 14.5%, 46.8%, 91.2% </text>
   <text y="443.999" x="155.642,160.439,162.842,167.106,171.866,175.682,179.012,180.74,183.528,188.297,192.157,197.071,198.799,201.588,206.349,210.93,214.294,218.11,219.838,224.31,226.965,228.693,231.482,236.242,240.058,241.786,246.043,252.469,257.221,258.949,262.727,264.995,268.855,272.715,275.495,278.707,283.367,288.11,291.926,293.654,297.424,300.16,301.888,306.199,310.51,314.821,316.864,318.592,322.903,327.214,331.525,333.568,335.296,339.607,343.918,348.229,350.272,352.0,356.311,360.622,364.933,369.244,370.972,374.832,379.709,384.452,386.18,390.491,394.802,399.113,403.424,404.474,411.836,418.046,419.774" svgx:width="0.53,0.27,0.47,0.53,0.43,0.37,0.23,0.31,0.53,0.44,0.55,0.23,0.31,0.53,0.51,0.37,0.43,0.23,0.51,0.3,0.23,0.31,0.53,0.43,0.23,0.47,0.71,0.53,0.23,0.43,0.25,0.43,0.42,0.31,0.37,0.51,0.53,0.43,0.23,0.44,0.31,0.23,0.48,0.48,0.48,0.23,0.23,0.48,0.48,0.48,0.23,0.23,0.48,0.48,0.48,0.23,0.23,0.48,0.48,0.48,0.48,0.23,0.44,0.55,0.53,0.23,0.48,0.48,0.48,0.48,0.23,0.82,0.69,0.23,0.47" style="fill:rgb(0,0,0);font-family:MinionPro-Regular;font-size:9.0px;stroke:none;">higher than those of the SGF electrode at 100, 200, 500, 1500 and 3000 mA g</text>
   <text y="440.94" x="423.97" svgx:width="0.78" style="fill:rgb(0,0,0);font-family:EuclidSymbol;font-size:5.85px;stroke:none;">−</text>
   <text y="440.94" x="428.516" svgx:width="0.48" style="fill:rgb(0,0,0);font-family:MinionPro-Regular;font-size:5.85px;stroke:none;">1</text>
   <text y="444.0" x="431.316,433.359,435.087,443.708,448.468,452.284,457.198,458.926,461.715,466.475,470.291,472.019,475.267,480.054,483.913,487.711,490.115,494.921,498.719,500.447,504.307,509.077,512.459,515.671,519.487,524.229,526.965,528.693,531.905,535.721,538.366,543.136,546.519,551.361,554.664" svgx:width="0.23,0.23,0.97,0.53,0.43,0.55,0.23,0.31,0.53,0.43,0.23,0.37,0.52,0.43,0.42,0.27,0.54,0.42,0.23,0.42,0.53,0.37,0.37,0.43,0.55,0.31,0.23,0.37,0.43,0.31,0.53,0.37,0.55,0.37,0.23" style="fill:rgb(0,0,0);font-family:MinionPro-Regular;font-size:9.0px;stroke:none;">. When the specific current returns </text>
   <text y="453.999" x="155.637,158.347,162.955,164.917,169.255,173.593,177.931,179.082,186.471,192.708,194.67" svgx:width="0.31,0.51,0.23,0.48,0.48,0.48,0.23,0.82,0.69,0.23,0.47" style="fill:rgb(0,0,0);font-family:MinionPro-Regular;font-size:9.0px;stroke:none;">to 100 mA g</text>
   <text y="450.94" x="198.901" svgx:width="0.78" style="fill:rgb(0,0,0);font-family:EuclidSymbol;font-size:5.85px;stroke:none;">−</text>
   <text y="450.94" x="203.464" svgx:width="0.48" style="fill:rgb(0,0,0);font-family:MinionPro-Regular;font-size:5.85px;stroke:none;">1</text>
   <text y="454.0" x="206.287,208.357,210.319,213.137,217.927,221.77,223.732,227.586,231.386,236.165,240.134,243.959,246.283,249.074,253.223,255.185,258.427,262.316,266.141,270.606,274.72,278.563,281.867,285.188,287.15,289.86,294.468,296.43,300.768,305.106,309.444,311.514,315.852,317.005,324.394,330.631,332.593" svgx:width="0.23,0.23,0.31,0.53,0.43,0.23,0.42,0.44,0.52,0.44,0.42,0.27,0.31,0.46,0.23,0.37,0.43,0.42,0.51,0.46,0.43,0.37,0.37,0.23,0.31,0.51,0.23,0.48,0.48,0.48,0.23,0.48,0.23,0.82,0.69,0.23,0.47" style="fill:rgb(0,0,0);font-family:MinionPro-Regular;font-size:9.0px;stroke:none;">, the capacity recovers to 890.9 mA g</text>
   <text y="450.94" x="336.83" svgx:width="0.78" style="fill:rgb(0,0,0);font-family:EuclidSymbol;font-size:5.85px;stroke:none;">−</text>
   <text y="450.94" x="341.393" svgx:width="0.48" style="fill:rgb(0,0,0);font-family:MinionPro-Regular;font-size:5.85px;stroke:none;">1</text>
   <text y="454.0" x="344.216,346.178,348.78,353.281,356.638,358.6,361.419,366.208,370.051,372.013,378.225,382.509,388.962,393.741,395.703,399.511,401.806,405.695,409.584,412.393,415.635,420.325,425.095,428.885,430.955,432.917,436.69,438.985,443.593,446.987,450.83,452.792,455.501,460.109,462.071,464.89,469.688,473.488,476.251,478.213,482.103,487.306,491.149,494.506,496.468,499.286,504.075,507.918,509.88,514.218,518.556,521.375,526.199,528.161,532.131,536.21,539.982,542.277,546.12,548.082,551.882,554.627" svgx:width="0.23,0.3,0.51,0.37,0.23,0.31,0.53,0.43,0.23,0.69,0.47,0.71,0.53,0.23,0.43,0.25,0.43,0.42,0.31,0.37,0.51,0.53,0.43,0.23,0.23,0.42,0.25,0.51,0.37,0.43,0.23,0.31,0.51,0.23,0.31,0.53,0.44,0.31,0.23,0.44,0.58,0.43,0.37,0.23,0.31,0.53,0.43,0.23,0.48,0.48,0.31,0.53,0.23,0.42,0.46,0.42,0.25,0.43,0.23,0.44,0.31,0.23" style="fill:rgb(0,0,0);font-family:MinionPro-Regular;font-size:9.0px;stroke:none;"> for the ASGF electrode, close to that after the 10th cycle at </text>
   <text y="463.999" x="155.639,159.932,164.225,168.518,169.616,176.96,183.152,184.861" svgx:width="0.48,0.48,0.48,0.23,0.82,0.69,0.23,0.47" style="fill:rgb(0,0,0);font-family:MinionPro-Regular;font-size:9.0px;stroke:none;">100 mA g</text>
   <text y="460.94" x="189.039" svgx:width="0.78" style="fill:rgb(0,0,0);font-family:EuclidSymbol;font-size:5.85px;stroke:none;">−</text>
   <text y="460.94" x="193.573" svgx:width="0.48" style="fill:rgb(0,0,0);font-family:MinionPro-Regular;font-size:5.85px;stroke:none;">1</text>
   <text y="464.0" x="196.36,198.385,200.095,209.67,213.468,215.178,218.372,222.17,225.401,230.197,232.338,235.056,236.766,240.005,244.747,249.166,255.304,258.58,260.29,263.062,267.813,271.565,274.283,275.993,278.764,283.506,287.304,289.014,295.178,299.417,305.825,310.559,312.269,317.02,320.917,324.193,325.903,330.682,333.067,337.315,342.057,345.855,349.167,350.877,354.071,357.94,362.007,365.805,369.062,372.338,374.687,379.168,381.418,385.216,386.926,390.732,394.484,399.217,403.142,406.922,409.198,411.942,416.046,417.756,421.508,424.226,425.936,428.707,433.449,437.247,438.957,443.736,446.121,450.368,455.147,456.857,460.699,465.451,468.816,472.01,475.808,480.533,483.251,484.961,488.273,492.026,494.69,498.488,501.764,503.474,507.316,512.175,516.9,518.61,523.235,527.033,529.66,532.323,536.121,539.433,541.143,544.455,548.207,550.87,554.696" svgx:width="0.23,0.23,1.07,0.43,0.23,0.37,0.43,0.37,0.53,0.25,0.31,0.23,0.37,0.53,0.51,0.69,0.37,0.23,0.31,0.53,0.44,0.31,0.23,0.31,0.53,0.43,0.23,0.69,0.47,0.71,0.53,0.23,0.53,0.44,0.37,0.23,0.53,0.27,0.47,0.53,0.43,0.37,0.23,0.37,0.43,0.46,0.43,0.37,0.37,0.27,0.51,0.25,0.43,0.23,0.42,0.44,0.52,0.44,0.42,0.27,0.31,0.46,0.23,0.44,0.31,0.23,0.31,0.53,0.43,0.23,0.53,0.27,0.47,0.53,0.23,0.42,0.53,0.37,0.37,0.43,0.55,0.31,0.23,0.37,0.44,0.31,0.43,0.37,0.23,0.44,0.55,0.53,0.23,0.51,0.43,0.31,0.31,0.43,0.37,0.23,0.37,0.44,0.31,0.43,0.23" style="fill:rgb(0,0,0);font-family:MinionPro-Regular;font-size:9.0px;stroke:none;">. The result shows that the ASGF has higher reversible capacity at the high current rates and better rate </text>
   <text y="473.999" x="155.635,159.469,163.249,168.01,171.889,176.353,178.809,181.086,183.39,186.162,190.293,192.129,195.936,200.418,207.618,212.378,216.248,219.47,223.34,228.092,229.928,236.12,238.424,241.223,246.029,247.865,250.664,255.434,259.259,261.095,265.361,271.796,275.567" svgx:width="0.42,0.44,0.52,0.44,0.51,0.27,0.25,0.27,0.31,0.46,0.23,0.42,0.51,0.82,0.52,0.44,0.37,0.43,0.53,0.23,0.69,0.27,0.31,0.53,0.23,0.31,0.53,0.43,0.23,0.47,0.71,0.53,0.23" style="fill:rgb(0,0,0);font-family:MinionPro-Regular;font-size:9.0px;stroke:none;">capability compared with the SGF.</text>
   <text y="483.998" x="167.632,172.447,174.913,179.179,184.012,187.288,191.167,193.192,197.512,201.886,203.911,207.232,212.056,216.556,222.775,226.132,228.157,231.009,235.833,239.712,241.737,245.544,250.377,254.301,257.622,261.816,265.695,268.953,273.759,276.198,279.627,283.434,288.267,292.191,295.512,299.706,303.585,305.61,310.272,313.548,318.084,322.998,325.329,329.208,332.565,334.59,339.126,341.844,343.869,346.722,351.546,355.425,357.45,363.695,368.015,374.504,379.319,382.487,388.76,391.928,393.953,397.877,402.818,407.624,409.649,413.969,420.458,425.273,428.441,433.787,436.955,438.98,442.823,445.154,449.078,453.001,455.845,459.121,463.846,468.652,472.531,474.556,478.39,481.189,483.214,487.219,489.244,492.556,497.407,501.331,505.192,507.658,512.527,516.388,518.414,522.337,527.17,530.617,533.893,537.772,542.578,545.377,547.402,551.938,554.602" svgx:width="0.53,0.27,0.47,0.53,0.37,0.43,0.23,0.47,0.48,0.23,0.37,0.53,0.51,0.69,0.37,0.23,0.31,0.53,0.43,0.23,0.42,0.53,0.44,0.37,0.47,0.43,0.36,0.53,0.27,0.37,0.42,0.53,0.44,0.37,0.47,0.43,0.23,0.52,0.37,0.51,0.54,0.25,0.43,0.37,0.23,0.51,0.3,0.23,0.31,0.53,0.43,0.23,0.69,0.47,0.71,0.53,0.35,0.69,0.35,0.23,0.44,0.55,0.53,0.23,0.47,0.71,0.53,0.35,0.59,0.35,0.23,0.43,0.25,0.43,0.42,0.31,0.37,0.51,0.53,0.43,0.23,0.44,0.31,0.23,0.44,0.23,0.37,0.52,0.43,0.42,0.27,0.54,0.42,0.23,0.42,0.53,0.37,0.37,0.43,0.55,0.31,0.23,0.51,0.3,0.23" style="fill:rgb(0,0,0);font-family:MinionPro-Regular;font-size:9.0px;stroke:none;">Figure S2 shows the charge-discharge profiles of the ASGF(A) and SGF(B) electrode at a specific current of </text>
   <text y="493.997" x="155.635,160.045,164.455,168.865,170.08,177.541,183.85,185.999" svgx:width="0.48,0.48,0.48,0.23,0.82,0.69,0.23,0.47" style="fill:rgb(0,0,0);font-family:MinionPro-Regular;font-size:9.0px;stroke:none;">200 mA g</text>
   <text y="490.94" x="190.293" svgx:width="0.78" style="fill:rgb(0,0,0);font-family:EuclidSymbol;font-size:5.85px;stroke:none;">−</text>
   <text y="490.94" x="194.909" svgx:width="0.48" style="fill:rgb(0,0,0);font-family:MinionPro-Regular;font-size:5.85px;stroke:none;">1</text>
   <text y="494.0" x="197.773,199.915,202.066,211.757,215.672,217.823,222.007,226.623,228.88,231.768,235.762,239.991,243.906,246.057,250.754,254.065,258.636,263.584,265.951,269.866,273.259,275.41,280.107,283.417,287.332,290.796,294.711,299.552,302.387,304.538,307.894,310.261,314.841,319.537,322.039,326.979,331.281,333.432,335.799,338.301,343.277,347.192,350.585,352.736,357.469,362.338,365.82,368.322,373.262,377.564,379.715,384.456,389.036,391.923,396.819,398.97,402.812,407.679,411.638,414.994,419.222,423.137,425.288,429.247,434.222,439.064,441.215,446.057,448.531,451.994,455.836,460.704,464.663,468.018,472.246,476.161,478.312,483.008,486.32,491.079,494.976,498.891,502.237,505.7,509.615,513.008,515.15,517.301,519.803,524.816,526.967,531.008,534.905,538.802,543.372,546.683,551.525" svgx:width="0.23,0.23,1.07,0.43,0.23,0.46,0.51,0.25,0.31,0.44,0.47,0.43,0.23,0.52,0.37,0.51,0.54,0.25,0.43,0.37,0.23,0.52,0.37,0.43,0.37,0.43,0.55,0.31,0.23,0.37,0.25,0.51,0.52,0.27,0.55,0.47,0.23,0.25,0.27,0.55,0.43,0.37,0.23,0.53,0.53,0.37,0.27,0.55,0.47,0.23,0.51,0.51,0.31,0.53,0.23,0.42,0.53,0.44,0.37,0.47,0.43,0.23,0.44,0.55,0.53,0.23,0.53,0.27,0.37,0.42,0.53,0.44,0.37,0.47,0.43,0.23,0.52,0.37,0.51,0.42,0.43,0.37,0.37,0.43,0.37,0.23,0.23,0.27,0.55,0.23,0.44,0.42,0.42,0.51,0.37,0.53,0.36" style="fill:rgb(0,0,0);font-family:MinionPro-Regular;font-size:9.0px;stroke:none;">. The voltage profiles present sloping lines during both charge and discharge processes, in accord-</text>
   <text y="503.999" x="155.635,159.555,164.491,168.348,172.221,174.233,180.474,182.828,185.676,190.531,192.542,195.391,200.21,204.085,206.096,210.61,213.881,218.565,222.566,227.367,229.379,234.224,238.153,242.198,246.712,250.064,252.075,256.669,261.291,264.715,268.59,272.238,276.383,280.302,285.104,287.115,291.808,296.637,300.079,302.541,307.441,311.702,313.713,319.748,326.124,328.136,331.56,335.443,339.362,344.263,347.615,349.717,351.728,359.563,364.094,367.365,371.284,375.78,379.924,383.799,386.62,388.721,390.733,395.435,399.976,402.824,407.679,409.695,413.496,418.325,422.244,425.561,429.75,433.624,435.635,439.555,444.491,449.293,451.304,456.106,458.54,461.964,465.766,470.595,474.514,477.831,482.02,485.895,487.905,492.563,495.835,500.366,505.276,507.602,511.476,514.828,516.84,520.714,525.011,529.866,532.292,536.805,539.159,541.953,543.965,546.29,548.644,551.428" svgx:width="0.44,0.55,0.42,0.43,0.23,0.69,0.27,0.31,0.53,0.23,0.31,0.53,0.43,0.23,0.51,0.37,0.51,0.44,0.53,0.23,0.52,0.43,0.44,0.5,0.37,0.23,0.51,0.51,0.37,0.43,0.37,0.46,0.43,0.53,0.23,0.53,0.53,0.37,0.27,0.55,0.47,0.23,0.67,0.7,0.23,0.37,0.42,0.44,0.55,0.37,0.23,0.23,0.89,0.51,0.37,0.43,0.51,0.46,0.43,0.37,0.23,0.23,0.51,0.51,0.31,0.53,0.23,0.42,0.53,0.44,0.37,0.47,0.43,0.23,0.44,0.55,0.53,0.23,0.53,0.27,0.37,0.42,0.53,0.44,0.37,0.47,0.43,0.23,0.52,0.37,0.51,0.54,0.25,0.43,0.37,0.23,0.43,0.47,0.53,0.27,0.51,0.27,0.31,0.23,0.25,0.27,0.31,0.36" style="fill:rgb(0,0,0);font-family:MinionPro-Regular;font-size:9.0px;stroke:none;">ance with the broad peaks observed during CV scans. Moreover, both charge and discharge profiles exhibit lit-</text>
   <text y="513.998" x="155.635,158.543,160.928,164.861,167.08,170.941,175.829,179.807,184.767,189.015,192.948,195.167,198.029,201.36,205.951,213.43,215.653,218.56,223.439,227.372,229.595,233.078,237.056,240.971,245.561,250.556,255.416,257.635,260.435,265.133,267.356,270.263,275.142,279.075,281.298,285.726" svgx:width="0.31,0.25,0.43,0.23,0.42,0.53,0.44,0.55,0.47,0.43,0.23,0.3,0.37,0.51,0.82,0.23,0.31,0.53,0.43,0.23,0.37,0.43,0.42,0.51,0.55,0.53,0.23,0.31,0.51,0.23,0.31,0.53,0.43,0.23,0.48,0.48" style="fill:rgb(0,0,0);font-family:MinionPro-Regular;font-size:9.0px;stroke:none;">tle change from the second to the 50</text>
   <text y="510.94" x="290.144,292.034" svgx:width="0.31,0.53" style="fill:rgb(0,0,0);font-family:MinionPro-Regular;font-size:5.85px;stroke:none;">th</text>
   <text y="514.0" x="295.228,297.447,301.507,305.674,309.536,311.921,315.854,319.265,321.425,323.643,328.503,332.436,339.879,344.47,349.43,352.796,355.695,359.142,363.031,365.93,368.45,373.41,377.73,379.948,382.856,387.744,391.632,394.485,396.703,399.611,404.49,408.423,410.642,416.943,421.317,427.86,432.729,434.947,438.845,441.23,445.209,449.187,452.086,455.416,460.196,465.056,468.989,472.4,474.618,478.596,481.927,485.86,488.079,492.283,496.216,499.924,504.163,506.382,509.749,512.657,516.644,521.262,523.647,527.58,529.798,534.551,539.438,542.939,545.459,550.419,554.631" svgx:width="0.23,0.42,0.46,0.42,0.25,0.43,0.37,0.23,0.23,0.53,0.43,0.82,0.51,0.55,0.37,0.31,0.37,0.44,0.31,0.27,0.55,0.47,0.23,0.31,0.53,0.44,0.31,0.23,0.31,0.53,0.43,0.23,0.69,0.47,0.71,0.53,0.23,0.43,0.25,0.43,0.42,0.31,0.37,0.51,0.53,0.43,0.37,0.23,0.44,0.37,0.43,0.23,0.46,0.43,0.37,0.46,0.23,0.37,0.31,0.44,0.51,0.25,0.43,0.23,0.53,0.53,0.37,0.27,0.55,0.47,0.23" style="fill:rgb(0,0,0);font-family:MinionPro-Regular;font-size:9.0px;stroke:none;"> cycles, demonstrating that the ASGF electrodes are very stable during </text>
   <text y="523.999" x="155.638,159.589,163.648,167.401,169.678,172.089,176.94" svgx:width="0.42,0.46,0.42,0.25,0.27,0.55,0.47" style="fill:rgb(0,0,0);font-family:MinionPro-Regular;font-size:9.0px;stroke:none;">cycling</text>
   <text y="520.94" x="181.152,183.96,186.768,188.102,190.91" svgx:width="0.48,0.48,0.23,0.48,0.48" style="fill:rgb(0,0,0);font-family:MinionPro-Regular;font-size:5.85px;stroke:none;">41,42</text>
   <text y="524.0" x="193.718" svgx:width="0.23" style="fill:rgb(0,0,0);font-family:MinionPro-Regular;font-size:9.0px;stroke:none;">.</text>
   <text y="533.999" x="167.636,177.239,181.064,182.981,187.742,190.154,194.393,196.445,198.361,202.681,209.296,211.213,215.821,219.043,222.868,226.242,230.067,234.819,237.564,240.867,242.784,245.583,250.353,254.178,256.095,262.08,268.407,270.324,274.194,278.973,282.573,286.668,290.493,293.796,295.713,300.195,302.859,304.776,307.574,312.344,316.169,318.086,322.901,326.186,329.444,332.189,334.106,336.905,341.711,344.933,348.803,352.628,354.545,358.496,362.555,366.308,368.585,372.41,375.713,377.63,382.112,384.776,386.693,389.492,394.262,398.087,400.004,406.196,410.462,416.897,421.658,423.575,426.329,429.551,434.033,441.404,443.321,447.641,449.558,452.249,456.839,458.756,463.076,464.186,470.513,472.43,476.597,479.9,481.952,483.869,488.765" svgx:width="1.07,0.43,0.23,0.53,0.27,0.47,0.23,0.23,0.48,0.74,0.23,0.52,0.37,0.43,0.37,0.43,0.55,0.31,0.37,0.23,0.31,0.53,0.43,0.23,0.67,0.7,0.23,0.42,0.53,0.37,0.46,0.43,0.37,0.23,0.51,0.3,0.23,0.31,0.53,0.43,0.23,0.54,0.37,0.37,0.31,0.23,0.31,0.53,0.37,0.43,0.43,0.23,0.42,0.46,0.42,0.25,0.43,0.37,0.23,0.51,0.3,0.23,0.31,0.53,0.43,0.23,0.69,0.47,0.71,0.53,0.23,0.3,0.37,0.51,0.82,0.23,0.48,0.23,0.31,0.51,0.23,0.48,0.23,0.7,0.23,0.46,0.37,0.23,0.23,0.54,0.27" style="fill:rgb(0,0,0);font-family:MinionPro-Regular;font-size:9.0px;stroke:none;">The Fig. 5D presents the CV curves of the first three cycles of the ASGF from 0 to 3 V vs. Li</text>
   <text y="530.94" x="491.176" svgx:width="0.78" style="fill:rgb(0,0,0);font-family:EuclidSymbol;font-size:5.85px;stroke:none;">+</text>
   <text y="534.0" x="495.727,498.706,503.602,506.014,507.931,511.711,514.456,516.373,520.324,522.241,525.616,529.45,533.32,538.243,543.166,545.578,550.429,554.641" svgx:width="0.33,0.54,0.27,0.23,0.44,0.31,0.23,0.44,0.23,0.37,0.42,0.44,0.55,0.55,0.27,0.55,0.47,0.23" style="fill:rgb(0,0,0);font-family:MinionPro-Regular;font-size:9.0px;stroke:none;">/Li at a scanning </text>
   <text y="543.999" x="155.635,159.019,162.847,165.588,169.458,171.465,175.996,178.705,180.712,185.077,187.174,191.539,192.742,200.158,206.53,208.537" svgx:width="0.37,0.44,0.31,0.43,0.23,0.51,0.3,0.23,0.48,0.23,0.48,0.23,0.82,0.7,0.23,0.37" style="fill:rgb(0,0,0);font-family:MinionPro-Regular;font-size:9.0px;stroke:none;">rate of 0.5 mV s</text>
   <text y="540.94" x="211.901" svgx:width="0.78" style="fill:rgb(0,0,0);font-family:EuclidSymbol;font-size:5.85px;stroke:none;">−</text>
   <text y="540.94" x="216.487" svgx:width="0.48" style="fill:rgb(0,0,0);font-family:MinionPro-Regular;font-size:5.85px;stroke:none;">1</text>
   <text y="544.0" x="219.327,221.424,223.431,228.069,232.601,235.985,237.992,240.839,245.658,249.528,251.535,256.395,259.729,263.036,265.826,267.833,271.833,275.94,279.743,282.065,285.884,287.981,289.988,293.908,298.876,300.883,305.476,309.953,314.196,316.653,321.193,325.994,329.342,331.349,334.62,338.539,343.231,348.055,351.974,354.813,357.27,361.8,366.768,368.775,373.621,377.548,381.593,386.102,388.109,390.543,393.891,395.898,400.555,403.826,407.696,411.119,414.989,419.791,422.581,424.588,429.523,433.451,437.37,440.754,442.761,447.126,449.223,453.588,458.668,460.765,462.772,469.048,473.899,476.356,480.159,485.01,487.017,489.451,492.799,494.806,498.658,503.189,508.089,511.437,513.894,518.691,522.561,525.831,529.75,534.547,536.554,539.293,543.928,545.935,550.637,554.461" svgx:width="0.23,0.23,0.53,0.51,0.37,0.23,0.31,0.53,0.43,0.23,0.54,0.37,0.37,0.31,0.23,0.42,0.46,0.42,0.25,0.43,0.23,0.23,0.44,0.55,0.23,0.51,0.51,0.46,0.27,0.51,0.53,0.37,0.23,0.37,0.43,0.53,0.53,0.42,0.31,0.27,0.51,0.55,0.23,0.52,0.43,0.44,0.5,0.23,0.27,0.37,0.23,0.52,0.37,0.43,0.37,0.43,0.55,0.31,0.23,0.55,0.43,0.44,0.37,0.23,0.48,0.23,0.48,0.7,0.23,0.23,0.69,0.53,0.27,0.42,0.53,0.23,0.27,0.37,0.23,0.42,0.51,0.55,0.37,0.27,0.53,0.43,0.37,0.43,0.53,0.23,0.31,0.51,0.23,0.51,0.43,0.23" style="fill:rgb(0,0,0);font-family:MinionPro-Regular;font-size:9.0px;stroke:none;">. For the first cycle, an obvious reduction peak is present near 0.4V, which is considered to be </text>
   <text y="553.999" x="155.634,158.411,163.16,166.962,168.681,171.242,175.703,179.073,186.396,190.154,192.923,195.316,199.777,204.682,206.396,210.857,213.503,215.217,219.354,224.448,227.499,229.213,231.496,235.263,239.3,243.103,246.366,249.651,251.366,255.826,260.731,262.446,265.223,269.971,273.778,275.493,278.729,283.49,286.861,289.507,293.44,297.229,301.036,302.75,307.211,309.857,311.571,314.349,319.097,322.904,324.619,328.809,333.714" svgx:width="0.31,0.53,0.43,0.23,0.3,0.51,0.37,0.82,0.44,0.31,0.27,0.51,0.55,0.23,0.51,0.3,0.23,0.47,0.57,0.34,0.23,0.25,0.44,0.46,0.43,0.37,0.37,0.23,0.51,0.55,0.23,0.31,0.53,0.43,0.23,0.37,0.53,0.37,0.3,0.44,0.42,0.43,0.23,0.51,0.3,0.23,0.31,0.53,0.43,0.23,0.47,0.55,0.75" style="fill:rgb(0,0,0);font-family:MinionPro-Regular;font-size:9.0px;stroke:none;">the formation of SEI layers on the surface of the SnO</text>
   <text y="555.8" x="340.359" svgx:width="0.48" style="fill:rgb(0,0,0);font-family:MinionPro-Regular;font-size:5.85px;stroke:none;">2</text>
   <text y="554.0" x="343.153,344.867,348.716,353.581,358.315,360.03,362.807,367.555,371.362,373.077,379.494,383.742,385.456,388.552,393.688,398.193,400.227,401.942,406.244,409.34,411.374,413.088,415.785,418.507,420.226,422.59,425.875,427.589,431.707,435.51,440.375,444.182,447.503,451.478,453.778,455.97,460.083,461.802,465.735,469.519,473.308,477.115,481.711,484.38,488.228,492.962,494.681,497.457,502.214,505.973,508.7,510.414,513.192,517.98,520.343,523.628,525.343,528.543,532.4,536.333,540.181,542.949,545.343,549.804,554.727" svgx:width="0.23,0.44,0.55,0.53,0.23,0.31,0.53,0.43,0.23,0.71,0.47,0.23,0.35,0.57,0.51,0.23,0.23,0.48,0.35,0.23,0.23,0.34,0.31,0.23,0.27,0.37,0.23,0.47,0.43,0.55,0.43,0.37,0.44,0.25,0.25,0.46,0.23,0.44,0.42,0.42,0.43,0.52,0.31,0.43,0.53,0.23,0.31,0.53,0.44,0.31,0.23,0.31,0.53,0.27,0.37,0.23,0.37,0.43,0.44,0.42,0.31,0.27,0.51,0.55,0.23" style="fill:rgb(0,0,0);font-family:MinionPro-Regular;font-size:9.0px;stroke:none;"> and the GS (Eq. 1). It is generally accepted that this reaction </text>
   <text y="563.999" x="155.638,158.052,161.382,163.353,168.268,172.788,175.56,177.531,180.783,184.708,188.832,192.684,195.997,199.327,201.732,206.27,208.574,212.426,214.397,218.296,223.212,227.991,229.962,233.257,238.056,242.576,247.429,249.733,254.512,256.483,261.165,265.017,266.988,270.238,274.09,277.377,282.202,286.714,291.593,294.923,297.328,301.865,304.169,308.021,309.992,312.604,317.115,320.481,322.452,325.28,330.079,333.931,335.902,338.233,342.132,345.428,349.597,353.449,355.42,357.859,361.281,364.531,368.457,372.581,376.433,379.747,383.077,385.482,390.019,392.323,396.175,398.146,402.009,405.818,410.608,414.586,418.42,420.753,423.553,427.711,429.682,431.986,436.603,439.889,443.219,445.19,449.863,454.669,458.091,460.53,465.41,469.649,471.62,474.447,479.246,483.098,485.069,489.911,493.225,496.512,499.284,501.255,505.235,509.323,513.104,515.408" svgx:width="0.27,0.37,0.23,0.55,0.51,0.31,0.23,0.37,0.43,0.46,0.43,0.37,0.37,0.27,0.51,0.25,0.43,0.23,0.44,0.55,0.53,0.23,0.37,0.53,0.51,0.53,0.25,0.53,0.23,0.51,0.43,0.23,0.37,0.43,0.37,0.52,0.51,0.55,0.37,0.27,0.51,0.25,0.43,0.23,0.3,0.51,0.37,0.23,0.31,0.53,0.43,0.23,0.25,0.44,0.37,0.47,0.43,0.23,0.27,0.37,0.37,0.43,0.46,0.43,0.37,0.37,0.27,0.51,0.25,0.43,0.23,0.42,0.44,0.52,0.44,0.42,0.27,0.31,0.46,0.23,0.25,0.51,0.37,0.37,0.23,0.53,0.53,0.37,0.27,0.55,0.47,0.23,0.31,0.53,0.43,0.23,0.54,0.37,0.37,0.31,0.23,0.42,0.46,0.42,0.25,0.43" style="fill:rgb(0,0,0);font-family:MinionPro-Regular;font-size:9.0px;stroke:none;">is not reversible and should be responsible for the large irreversible capacity loss during the first cycle</text>
   <text y="560.94" x="519.302,522.127,524.953,526.304,529.13" svgx:width="0.48,0.48,0.23,0.48,0.48" style="fill:rgb(0,0,0);font-family:MinionPro-Regular;font-size:5.85px;stroke:none;">43,44</text>
   <text y="564.0" x="531.961,534.042,536.013,542.232,547.445,551.298,554.637" svgx:width="0.23,0.23,0.69,0.58,0.43,0.37,0.23" style="fill:rgb(0,0,0);font-family:MinionPro-Regular;font-size:9.0px;stroke:none;">. After </text>
   <text y="573.999" x="155.635,158.431,163.2,167.025,168.762,173.577,176.859,180.115,182.86,184.597,188.546,192.602,196.353,198.63,202.398,204.45,206.187,208.983,213.752,217.577,219.314,223.181,227.96,231.557,235.65,239.475,242.778,244.515,248.383,251.603,255.428,257.165,264.497,268.977,272.197,276.022,277.759,281.566,286.046,290.894,294.197,296.58,299.836,302.524,306.349,311.099,313.844,315.896,317.633,322.221,326.701,330.04,331.777,334.573,339.34,343.165,344.902,347.699,352.505,354.917,358.138,362.89,364.627,368.575,372.631,376.383,378.66,382.485,384.222,386.634,391.557,393.294,398.053,401.92,405.346,408.134,410.546,414.413,419.234,421.535,425.404,428.173,430.225,431.962,434.731,440.822,445.412,447.149,451.611,454.831,459.463,463.414,468.166,469.903,473.123,476.991,481.632,486.411,490.279,493.067,495.479,499.958,504.881,506.618,511.412,515.288,519.282,523.746,527.049,528.786,532.654,535.873,540.362,545.141,550.026,554.778" svgx:width="0.31,0.53,0.43,0.23,0.54,0.37,0.37,0.31,0.23,0.42,0.46,0.42,0.25,0.43,0.23,0.23,0.31,0.53,0.43,0.23,0.42,0.53,0.37,0.46,0.43,0.37,0.23,0.44,0.37,0.43,0.23,0.82,0.51,0.37,0.43,0.23,0.42,0.51,0.55,0.37,0.27,0.37,0.31,0.43,0.55,0.31,0.23,0.23,0.53,0.51,0.37,0.23,0.31,0.53,0.43,0.23,0.31,0.53,0.27,0.37,0.53,0.23,0.42,0.46,0.42,0.25,0.43,0.23,0.27,0.55,0.23,0.52,0.44,0.37,0.31,0.27,0.42,0.53,0.25,0.44,0.37,0.23,0.23,0.31,0.69,0.51,0.23,0.51,0.37,0.51,0.44,0.53,0.23,0.37,0.43,0.53,0.53,0.42,0.31,0.27,0.51,0.55,0.23,0.52,0.43,0.44,0.5,0.37,0.23,0.44,0.37,0.51,0.53,0.55,0.53,0.23" style="fill:rgb(0,0,0);font-family:MinionPro-Regular;font-size:9.0px;stroke:none;">the first cycle, the curves are more consistent. For the third cycle in particular, two broad reduction peaks around </text>
   <text y="583.998" x="155.635,158.451,163.238,167.081,169.039,173.377,175.339,179.226,184.13,188.9,190.862,195.2,197.27,201.608,202.741,209.086,211.044,214.895,218.782,223.723,225.68,230.35,234.193,236.151,240.092,243.484,247.309,250.719,253.112,257.782,261.669,266.439,268.401,271.109,275.717,277.68,280.496,285.283,289.126,291.088,294.327,298.213,302.874,307.671,311.558,314.365,316.795,321.294,326.235,328.197,332.697,335.379,337.336,340.152,344.939,348.782,350.744,354.973,359.914" svgx:width="0.31,0.53,0.43,0.23,0.48,0.23,0.44,0.55,0.53,0.23,0.48,0.23,0.48,0.23,0.7,0.23,0.42,0.44,0.55,0.23,0.51,0.43,0.23,0.44,0.37,0.42,0.37,0.27,0.51,0.43,0.53,0.23,0.31,0.51,0.23,0.31,0.53,0.43,0.23,0.37,0.43,0.53,0.53,0.42,0.31,0.27,0.51,0.55,0.23,0.51,0.3,0.23,0.31,0.53,0.43,0.23,0.47,0.55,0.75" style="fill:rgb(0,0,0);font-family:MinionPro-Regular;font-size:9.0px;stroke:none;">the 1 and 0.3 V can be ascribed to the reduction of the SnO</text>
   <text y="585.8" x="366.623" svgx:width="0.48" style="fill:rgb(0,0,0);font-family:MinionPro-Regular;font-size:5.85px;stroke:none;">2</text>
   <text y="584.0" x="369.442,371.4,374.532,379.705,384.249,386.319,388.276,392.614,394.572,398.46,403.364,408.134,410.092,415.266,419.81,421.88,423.842,428.18,431.312,433.269,437.156,442.061,446.831,448.793,451.609,456.396,460.239,462.196,466.209,468.548,470.843,475.307,479.482,481.912,486.78,491.01,492.972,496.211,500.107,504.076,507.962,510.769,513.199,517.698,522.639,524.601,529.271,533.114,535.904,542.014,545.901,549.744,554.667" svgx:width="0.23,0.35,0.57,0.51,0.23,0.23,0.48,0.23,0.44,0.55,0.53,0.23,0.57,0.51,0.23,0.23,0.48,0.35,0.23,0.44,0.55,0.53,0.23,0.31,0.53,0.43,0.23,0.44,0.25,0.25,0.51,0.46,0.27,0.55,0.47,0.23,0.37,0.43,0.44,0.42,0.31,0.27,0.51,0.55,0.23,0.51,0.43,0.31,0.69,0.43,0.43,0.55,0.23" style="fill:rgb(0,0,0);font-family:MinionPro-Regular;font-size:9.0px;stroke:none;"> (Eq. 2 and Eq. 3) and the alloying reaction between </text>
   <text y="593.999" x="155.638,159.871,164.812,166.774,170.665,175.571,180.341,182.303,187.219,189.649,191.611,195.501,200.409,205.179,207.141,209.96,214.75,218.593,220.555,222.85,225.175,227.994,232.818,235.142,239.939,247.328,250.55,252.98,257.482,262.423,264.385,266.815,271.687,275.082,278.925,282.373,285.183,287.613,292.115,297.056,299.018,303.52,308.461,310.423,313.242,318.032,321.875,323.837,330.29,334.574,336.536,339.815,344.612,348.025,350.707,354.676,358.501,362.344,364.306,367.438,372.615,377.162,379.232,381.194,385.532,387.494,391.385,396.293,401.063,403.025,408.202,412.749,414.819,416.781,421.119" svgx:width="0.47,0.55,0.23,0.44,0.55,0.53,0.23,0.54,0.27,0.23,0.44,0.55,0.53,0.23,0.31,0.53,0.43,0.23,0.25,0.27,0.31,0.53,0.27,0.53,0.82,0.36,0.27,0.51,0.55,0.23,0.27,0.55,0.37,0.43,0.37,0.31,0.27,0.51,0.55,0.23,0.51,0.55,0.23,0.31,0.53,0.43,0.23,0.71,0.47,0.23,0.37,0.53,0.37,0.3,0.44,0.42,0.43,0.23,0.35,0.57,0.51,0.23,0.23,0.48,0.23,0.44,0.55,0.53,0.23,0.57,0.51,0.23,0.23,0.48,0.35" style="fill:rgb(0,0,0);font-family:MinionPro-Regular;font-size:9.0px;stroke:none;">Sn and Li and the lithium-ion insertion on the GS surface (Eq. 4 and Eq. 5)</text>
   <text y="590.94" x="424.308,427.128" svgx:width="0.48,0.48" style="fill:rgb(0,0,0);font-family:MinionPro-Regular;font-size:5.85px;stroke:none;">43</text>
   <text y="594.0" x="429.95,432.02,433.982,443.606,447.449,449.411,453.877,458.143,460.573,465.372,469.172,471.982,474.412,478.914,483.855,485.817,490.634,494.533,498.549,503.031,506.352,508.314,512.204,515.447,519.958,524.755,529.661,534.431,536.393,540.731,542.801,547.139,548.309,554.636" svgx:width="0.23,0.23,1.07,0.43,0.23,0.51,0.47,0.27,0.53,0.44,0.31,0.27,0.51,0.55,0.23,0.52,0.43,0.44,0.5,0.37,0.23,0.44,0.37,0.51,0.53,0.55,0.53,0.23,0.48,0.23,0.48,0.23,0.7,0.23" style="fill:rgb(0,0,0);font-family:MinionPro-Regular;font-size:9.0px;stroke:none;">. The oxidation peaks around 0.8 V </text>
   <text y="603.999" x="155.639,159.509,164.396,169.148,170.993,175.313,177.365,181.685,182.81,189.137,190.982,198.326,202.116,206.247,208.092,211.899,216.381,219.774,222.996,226.821,230.079,234.876,239.358,244.245,248.997,250.842,253.533,258.123,259.968,262.767,267.537,271.362,273.207,277.959,281.838,285.834,288.156,290.433,294.879,299.037,301.449,306.299,310.511,312.356,316.964,320.186,324.857,328.664,332.489,335.747,339.05,340.895,345.377,348.041,349.886,354.782" svgx:width="0.44,0.55,0.53,0.23,0.48,0.23,0.48,0.23,0.7,0.23,0.82,0.44,0.46,0.23,0.42,0.51,0.37,0.37,0.43,0.37,0.52,0.51,0.55,0.53,0.23,0.31,0.51,0.23,0.31,0.53,0.43,0.23,0.53,0.43,0.44,0.25,0.25,0.51,0.46,0.27,0.55,0.47,0.23,0.52,0.37,0.51,0.42,0.43,0.37,0.37,0.23,0.51,0.3,0.23,0.54,0.27" style="fill:rgb(0,0,0);font-family:MinionPro-Regular;font-size:9.0px;stroke:none;">and 1.4 V may correspond to the dealloying process of Li</text>
   <text y="605.8" x="357.212" svgx:width="0.47" style="fill:rgb(0,0,0);font-family:MinionPro-Regular;font-size:5.85px;stroke:none;">x</text>
   <text y="604.0" x="359.973,364.185,369.108,370.953,374.949,377.27,379.547,383.993,388.124,389.969,393.839,398.726,403.478,405.323,408.122,412.892,416.717,418.562,421.352,424.691,428.561,433.412,436.715,439.019,441.808,444.22,448.702,453.625,455.47,459.952,462.616,464.461,469.357" svgx:width="0.47,0.55,0.23,0.44,0.25,0.25,0.51,0.46,0.23,0.44,0.55,0.53,0.23,0.31,0.53,0.43,0.23,0.31,0.37,0.44,0.55,0.37,0.27,0.31,0.27,0.51,0.55,0.23,0.51,0.3,0.23,0.54,0.27" style="fill:rgb(0,0,0);font-family:MinionPro-Regular;font-size:9.0px;stroke:none;">Sn alloy and the transition of Li</text>
   <text y="605.8" x="471.784" svgx:width="0.48" style="fill:rgb(0,0,0);font-family:MinionPro-Regular;font-size:5.85px;stroke:none;">2</text>
   <text y="604.0" x="474.591,481.314,483.159,485.85,490.44,492.285,496.497,501.42" svgx:width="0.75,0.23,0.31,0.51,0.23,0.47,0.55,0.75" style="fill:rgb(0,0,0);font-family:MinionPro-Regular;font-size:9.0px;stroke:none;">O to SnO</text>
   <text y="605.8" x="508.085" svgx:width="0.47" style="fill:rgb(0,0,0);font-family:MinionPro-Regular;font-size:5.85px;stroke:none;">x</text>
   <text y="600.938" x="510.846,513.654" svgx:width="0.48,0.48" style="fill:rgb(0,0,0);font-family:MinionPro-Regular;font-size:5.85px;stroke:none;">38</text>
   <text y="604.0" x="516.462,518.514,520.359,523.077,525.822,527.667,530.934,535.713,539.709,542.031,544.308,546.153,550.806,554.631" svgx:width="0.23,0.23,0.34,0.31,0.23,0.37,0.53,0.44,0.25,0.25,0.23,0.51,0.43,0.23" style="fill:rgb(0,0,0);font-family:MinionPro-Regular;font-size:9.0px;stroke:none;">. It shall be </text>
   <text y="613.999" x="155.634,160.521,165.012,167.703,171.573,176.325,178.233,181.032,185.811,189.591,192.336,194.244,199.4,203.927,205.979,207.887,212.207,214.115,217.985,222.872,227.624,229.532,233.852,235.76,239.63,242.852,246.677,248.585,253.337,256.595,261.401,265.397,267.719,269.933,274.064,275.972,279.779,284.261,289.112,292.415,294.827,299.579,303.404,306.626,310.496,315.248,317.156,319.847,324.437,326.345,330.997,334.823,336.73,339.142,342.535,345.757,349.654,353.749,357.574,360.859,364.162,366.538,371.047,373.324,377.095,379.147,381.055,385.528,390.199,392.944,394.852,397.651,402.421,406.246,408.154,412.366,417.289" svgx:width="0.55,0.51,0.31,0.43,0.53,0.23,0.31,0.53,0.44,0.31,0.23,0.57,0.51,0.23,0.23,0.48,0.23,0.44,0.55,0.53,0.23,0.48,0.23,0.44,0.37,0.43,0.23,0.53,0.37,0.53,0.44,0.25,0.25,0.46,0.23,0.42,0.51,0.55,0.37,0.27,0.53,0.43,0.37,0.43,0.53,0.23,0.31,0.51,0.23,0.51,0.43,0.23,0.27,0.37,0.37,0.43,0.46,0.43,0.37,0.37,0.27,0.51,0.25,0.43,0.23,0.23,0.51,0.53,0.31,0.23,0.31,0.53,0.43,0.23,0.47,0.55,0.75" style="fill:rgb(0,0,0);font-family:MinionPro-Regular;font-size:9.0px;stroke:none;">noted that Eq. 2 and 3 are usually considered to be irreversible, but the SnO</text>
   <text y="615.8" x="424.045" svgx:width="0.48" style="fill:rgb(0,0,0);font-family:MinionPro-Regular;font-size:5.85px;stroke:none;">2</text>
   <text y="614.0" x="426.853,428.761,433.657,437.528,442.415,446.906,451.666,455.536,458.965,461.755,464.167,467.92,470.197,474.022,477.325,479.233,484.012,487.801,491.896,495.721,497.629,500.427,505.197,509.022,510.93,514.233,516.645,520.425,524.25,526.158,529.983,534.951,538.821,542.691,545.436,547.344,550.034,554.624" svgx:width="0.23,0.55,0.44,0.55,0.51,0.52,0.44,0.37,0.31,0.27,0.42,0.25,0.43,0.37,0.23,0.53,0.44,0.46,0.43,0.23,0.31,0.53,0.43,0.23,0.37,0.27,0.42,0.43,0.23,0.43,0.56,0.43,0.42,0.31,0.23,0.31,0.51,0.23" style="fill:rgb(0,0,0);font-family:MinionPro-Regular;font-size:9.0px;stroke:none;"> nanoparticles have the size effect to </text>
   <text y="623.999" x="155.638,160.435,164.353,168.205,171.475,175.401,179.372,182.795,186.665,188.672,191.519,196.336,200.206,202.213,206.209,210.127,212.965,215.361,219.573,223.401,226.238,228.695,233.225,238.193,240.2,244.07,249.004,252.874,256.188,260.664,264.84,266.847,271.376,274.086,276.092,278.939,283.79,286.223,289.571,291.578,295.415,297.737,301.654,305.572,308.41,311.679,316.397,320.198,325.016,328.886,336.302,338.734,342.04,344.878,348.525,352.701,354.707,357.977,361.904,365.9,369.818,372.654,375.111,379.641,384.609,386.616,390.534,395.469,400.266,402.272,406.142,411.086,415.013,419.57,421.892,425.762,427.769,430.12,432.91,436.258,438.265,441.535,445.48,449.622,453.492,456.825,460.173,462.596,467.108,469.612,471.934,474.286,477.106,481.563,483.66,485.667,489.015,491.472,498.888,501.393,503.744,507.662,511.046,513.053,516.923,521.939,525.857,529.774,532.564,535.912,537.919,542.745,546.582,550.725,554.55" svgx:width="0.53,0.43,0.42,0.37,0.43,0.44,0.37,0.43,0.23,0.31,0.53,0.43,0.23,0.44,0.42,0.31,0.27,0.46,0.44,0.31,0.27,0.51,0.55,0.23,0.43,0.55,0.43,0.37,0.47,0.46,0.23,0.51,0.3,0.23,0.31,0.53,0.27,0.37,0.23,0.43,0.25,0.43,0.42,0.31,0.37,0.51,0.42,0.53,0.43,0.82,0.27,0.37,0.31,0.37,0.46,0.23,0.37,0.43,0.44,0.42,0.31,0.27,0.51,0.55,0.23,0.44,0.55,0.53,0.23,0.43,0.55,0.44,0.51,0.25,0.43,0.23,0.27,0.31,0.37,0.23,0.37,0.43,0.46,0.43,0.37,0.37,0.27,0.51,0.27,0.25,0.27,0.31,0.46,0.23,0.23,0.37,0.27,0.82,0.27,0.25,0.44,0.37,0.23,0.43,0.56,0.43,0.42,0.31,0.37,0.23,0.53,0.44,0.46,0.43,0.23" style="fill:rgb(0,0,0);font-family:MinionPro-Regular;font-size:9.0px;stroke:none;">decrease the activation energy of this electrochemistry reaction and enable its reversibility; similar effects have </text>
   <text y="633.998" x="155.638,160.291,164.161,167.986,172.909,174.745,179.29,183.862,187.237,191.062,194.662,198.757,202.627,207.379,209.215,211.627,216.55,218.386,222.877,225.676,230.446,234.271,237.61,239.446,242.236,245.575,249.444,254.296,257.599,259.902,262.692,265.104,269.586,274.482,278.478,280.755,282.591,289.926,293.751,296.549,300.546,302.823,304.659,309.104,313.352,315.764,320.516,324.341,326.177,331.073,334.943,339.83,344.321,349.082,352.952,356.381,359.171,361.583,365.336,367.613,371.438,374.741,376.577,379.835,384.614,388.367,393.173,395.009,398.933,402.236,404.072,408.662" svgx:width="0.51,0.43,0.43,0.55,0.23,0.51,0.51,0.37,0.43,0.37,0.46,0.43,0.53,0.23,0.27,0.55,0.23,0.51,0.31,0.53,0.43,0.37,0.23,0.31,0.37,0.44,0.55,0.37,0.27,0.31,0.27,0.51,0.55,0.44,0.25,0.23,0.82,0.43,0.31,0.44,0.25,0.23,0.51,0.47,0.27,0.53,0.43,0.23,0.55,0.44,0.55,0.51,0.52,0.44,0.37,0.31,0.27,0.42,0.25,0.43,0.37,0.23,0.37,0.53,0.42,0.53,0.23,0.44,0.37,0.23,0.53,0.43" style="fill:rgb(0,0,0);font-family:MinionPro-Regular;font-size:9.0px;stroke:none;">been observed in other transitional metal oxide nanoparticles such as Fe</text>
   <text y="635.8" x="412.511" svgx:width="0.48" style="fill:rgb(0,0,0);font-family:MinionPro-Regular;font-size:5.85px;stroke:none;">3</text>
   <text y="634.0" x="415.319" svgx:width="0.75" style="fill:rgb(0,0,0);font-family:MinionPro-Regular;font-size:9.0px;stroke:none;">O</text>
   <text y="635.8" x="422.042" svgx:width="0.48" style="fill:rgb(0,0,0);font-family:MinionPro-Regular;font-size:5.85px;stroke:none;">4</text>
   <text y="634.0" x="424.85,426.902,428.738,435.236,437.648,444.011,446.063,447.899,453.748,458.527" svgx:width="0.23,0.23,0.74,0.27,0.75,0.23,0.23,0.67,0.53,0.75" style="fill:rgb(0,0,0);font-family:MinionPro-Regular;font-size:9.0px;stroke:none;">, NiO, CuO</text>
   <text y="630.94" x="465.256,468.064,470.872,473.914,476.722" svgx:width="0.48,0.48,0.52,0.48,0.48" style="fill:rgb(0,0,0);font-family:MinionPro-Regular;font-size:5.85px;stroke:none;">45–47</text>
   <text y="634.0" x="479.53" svgx:width="0.23" style="fill:rgb(0,0,0);font-family:MinionPro-Regular;font-size:9.0px;stroke:none;">.</text>
  </g>
  <g begin="text">
   <text y="652.821" x="301.282,308.24739999999997,322.021,328.9864,371.554,380.484,396.615,400.09770000000003,407.266" svgx:width="0.78,0.55,0.78,0.55,1.0,0.55,0.39,0.55,0.39" style="fill:rgb(0,0,0);font-family:EuclidSymbol;font-size:8.93px;stroke:none;">+ + → ( )</text>
   <text y="653.107" x="543.489,546.9717,551.266" svgx:width="0.39,0.55,0.39" style="fill:rgb(0,0,0);font-family:EuclidSymbol;font-size:8.93px;stroke:none;">( )</text>
   <text y="648.789" x="293.506,298.4512,314.529" svgx:width="0.78,0.55,0.78" style="fill:rgb(0,0,0);font-family:EuclidSymbol;font-size:6.34px;stroke:none;">+ −</text>
   <text y="652.821" x="286.306,291.198,293.60909999999996,311.072,314.9119,331.812,335.553,337.856,341.597,345.338,347.936,351.391,355.998,358.301,362.337,364.926,368.7659,383.362,387.683,392.87,395.9062,400.075,404.968" svgx:width="0.54,0.27,0.55,0.43,0.55,0.43,0.25,0.43,0.42,0.31,0.37,0.51,0.25,0.46,0.31,0.43,0.55,0.47,0.57,0.34,0.55,0.54,0.27" style="fill:rgb(0,0,0);font-family:MinionPro-Regular;font-size:8.93px;stroke:none;">Li e electrolyte SEI Li</text>
   <text y="653.107" x="546.95" svgx:width="0.48" style="fill:rgb(0,0,0);font-family:MinionPro-Regular;font-size:8.93px;stroke:none;">1</text>
  </g>
  <g begin="text">
   <text y="679.081" x="301.282,308.24739999999997,330.369,337.3344,355.43,364.36,389.705" svgx:width="0.78,0.55,0.78,0.55,1.0,0.55,0.78" style="fill:rgb(0,0,0);font-family:EuclidSymbol;font-size:8.93px;stroke:none;">+ + → +</text>
  </g>
  <g begin="text">
   <text y="679.081" x="543.49,546.9727,551.266" svgx:width="0.39,0.55,0.39" style="fill:rgb(0,0,0);font-family:EuclidSymbol;font-size:8.93px;stroke:none;">( )</text>
   <text y="675.049" x="322.594,327.5392,347.938" svgx:width="0.78,0.55,0.78" style="fill:rgb(0,0,0);font-family:EuclidSymbol;font-size:6.34px;stroke:none;">+ −</text>
   <text y="679.081" x="279.394,283.715,288.607,295.3045,311.07,315.391,320.284,322.69509999999997,340.158,344.479,348.3189,367.227,371.549,376.441,383.13849999999996,399.484,404.377,406.7881,410.135,416.8325,546.939" svgx:width="0.47,0.55,0.75,0.55,0.48,0.54,0.27,0.55,0.48,0.43,0.55,0.47,0.55,0.75,0.55,0.54,0.27,0.55,0.75,0.55,0.48" style="fill:rgb(0,0,0);font-family:MinionPro-Regular;font-size:8.93px;stroke:none;">SnO 2Li 2e SnO Li O 2</text>
   <text y="681.385" x="383.362" svgx:width="0.47" style="fill:rgb(0,0,0);font-family:MinionPro-It;font-size:6.34px;stroke:none;">x</text>
   <text y="681.385" x="295.234,298.2772,406.691" svgx:width="0.48,0.55,0.48" style="fill:rgb(0,0,0);font-family:MinionPro-Regular;font-size:6.34px;stroke:none;">2 2</text>
  </g>
  <g begin="text">
   <text y="705.053" x="304.882,311.8474,333.969,340.9344,359.03,367.96,382.93" svgx:width="0.78,0.55,0.78,0.55,1.0,0.55,0.78" style="fill:rgb(0,0,0);font-family:EuclidSymbol;font-size:8.93px;stroke:none;">+ + → +</text>
  </g>
  <g begin="text">
   <text y="705.053" x="543.634,547.1167,551.41" svgx:width="0.39,0.55,0.39" style="fill:rgb(0,0,0);font-family:EuclidSymbol;font-size:8.93px;stroke:none;">( )</text>
   <text y="701.021" x="326.194,331.1392,351.538" svgx:width="0.78,0.55,0.78" style="fill:rgb(0,0,0);font-family:EuclidSymbol;font-size:6.34px;stroke:none;">+ −</text>
   <text y="705.053" x="286.162,290.483,295.375,302.0725,314.669,318.99,323.883,326.29409999999996,343.756,348.077,351.9169,370.826,375.147,380.0585,392.717,397.61,400.0211,403.377,410.0745,547.091" svgx:width="0.47,0.55,0.75,0.55,0.48,0.54,0.27,0.55,0.48,0.43,0.55,0.47,0.55,0.55,0.54,0.27,0.55,0.75,0.55,0.48" style="fill:rgb(0,0,0);font-family:MinionPro-Regular;font-size:8.93px;stroke:none;">SnO 2Li 2e Sn Li O 3</text>
   <text y="707.357" x="399.922" svgx:width="0.48" style="fill:rgb(0,0,0);font-family:MinionPro-Regular;font-size:6.34px;stroke:none;">2</text>
  </g>
  <rect style="stroke:blue;stroke-width:0.3;" x="155.638" y="64.138" height="308.76" width="396.0" title="5"/>
  <text y="64.138" class="image" id="image.5.1" width="396" height="308" x="155.638">image.5.1.156_552.64_373</text>
  <path style="fill:none;stroke:rgb(131,144,151);stroke-width:0.3;" d="M159.130 393.800 L552.640 393.800 "/>
  <path style="fill:none;stroke:rgb(131,144,151);stroke-width:1.0;" d="M156.140 393.800 L156.140 393.800 M554.140 393.800 L554.140 393.800 "/>
  <g begin="text">
   <text y="373.803" x="155.638,160.552,163.207,167.662,172.657,176.221,180.154,181.909,186.409" svgx:width="0.55,0.29,0.49,0.56,0.4,0.44,0.22,0.5,0.25" style="fill:rgb(0,0,0);font-family:MinionPro-Bold;font-size:9.0px;stroke:none;">Figure 4.</text>
   <text y="373.803" x="188.695" svgx:width="0.23" style="fill:rgb(0,0,0);font-family:MinionPro-Regular;font-size:9.0px;stroke:none;"> </text>
   <text y="373.803" x="193.195,199.432,204.823,209.368,211.123,214.534,219.556,223.605,227.457,230.463,234.171,238.365,240.12,244.755,247.734,249.489,254.034,260.577,265.563,267.318,271.467,276.561,281.484,283.239,289.476,294.021,300.564,304.622,306.908" svgx:width="0.69,0.6,0.5,0.22,0.38,0.55,0.44,0.42,0.34,0.4,0.47,0.22,0.52,0.33,0.22,0.5,0.73,0.55,0.22,0.47,0.57,0.55,0.22,0.71,0.5,0.73,0.55,0.25,0.22" style="fill:rgb(0,0,0);font-family:MinionPro-Bold;font-size:9.0px;stroke:none;">XPS spectra of SGF and ASGF. </text>
   <text y="373.803" x="308.663" svgx:width="0.35" style="fill:rgb(0,0,0);font-family:MinionPro-Regular;font-size:9.0px;stroke:none;">(</text>
   <text y="373.803" x="311.777" svgx:width="0.71" style="fill:rgb(0,0,0);font-family:MinionPro-Bold;font-size:9.0px;stroke:none;">A</text>
   <text y="373.803" x="318.131,321.245,323.081,327.221,331.046,335.933,339.758,343.097,347.092,349.369,351.205,357.091,362.158,366.424,368.26,371.518,376.315,380.185,384.055,386.845,390.274,395.053,402.424,404.26,408.742,411.406,413.242,419.434,423.699,430.134,434.841,436.893,438.729" svgx:width="0.35,0.23,0.47,0.43,0.55,0.43,0.37,0.44,0.25,0.23,0.65,0.56,0.47,0.23,0.37,0.52,0.43,0.42,0.31,0.37,0.53,0.82,0.23,0.51,0.3,0.23,0.69,0.47,0.71,0.53,0.23,0.23,0.35" style="fill:rgb(0,0,0);font-family:MinionPro-Regular;font-size:9.0px;stroke:none;">) general XPS spectrum of ASGF; (</text>
   <text y="373.803" x="441.844" svgx:width="0.64" style="fill:rgb(0,0,0);font-family:MinionPro-Bold;font-size:9.0px;stroke:none;">B</text>
   <text y="373.803" x="447.577,450.691,452.527,456.739,461.662,463.498,467.818,472.57,474.406,480.292,485.359,489.625,491.461,494.719,499.515,503.385,507.255,510.045,513.474,518.253,525.624,527.676,529.512" svgx:width="0.35,0.23,0.47,0.55,0.23,0.48,0.53,0.23,0.65,0.56,0.47,0.23,0.37,0.52,0.43,0.42,0.31,0.37,0.53,0.82,0.23,0.23,0.35" style="fill:rgb(0,0,0);font-family:MinionPro-Regular;font-size:9.0px;stroke:none;">) Sn 3d XPS spectrum; (</text>
   <text y="373.803" x="532.626" svgx:width="0.68" style="fill:rgb(0,0,0);font-family:MinionPro-Bold;font-size:9.0px;stroke:none;">C</text>
   <text y="373.803" x="538.71,541.824" svgx:width="0.35,0.23" style="fill:rgb(0,0,0);font-family:MinionPro-Regular;font-size:9.0px;stroke:none;">) </text>
   <text y="383.802" x="155.638,162.361,166.681,169.984,171.82,177.706,182.773,187.039,188.875,192.133,196.93,200.8,204.669,207.459,210.888,215.667,223.038,224.874,229.356,232.02,233.856,238.122,244.557,249.263,251.315,253.151" svgx:width="0.75,0.48,0.37,0.23,0.65,0.56,0.47,0.23,0.37,0.52,0.43,0.42,0.31,0.37,0.53,0.82,0.23,0.51,0.3,0.23,0.47,0.71,0.53,0.23,0.23,0.35" style="fill:rgb(0,0,0);font-family:MinionPro-Regular;font-size:9.0px;stroke:none;">O1s XPS spectrum of SGF; (</text>
   <text y="383.802" x="256.265" svgx:width="0.76" style="fill:rgb(0,0,0);font-family:MinionPro-Bold;font-size:9.0px;stroke:none;">D</text>
   <text y="383.802" x="263.114,266.228,268.064,274.787,279.107,280.252,283.555,285.391,291.277,296.344,300.61,302.446,305.704,310.501,314.371,318.241,321.031,324.459,329.238,336.609,338.445,342.927,345.591,347.427,353.619,357.885,364.32" svgx:width="0.35,0.23,0.75,0.48,0.23,0.37,0.23,0.65,0.56,0.47,0.23,0.37,0.52,0.43,0.42,0.31,0.37,0.53,0.82,0.23,0.51,0.3,0.23,0.69,0.47,0.71,0.53" style="fill:rgb(0,0,0);font-family:MinionPro-Regular;font-size:9.0px;stroke:none;">) O1 s XPS spectrum of ASGF</text>
  </g>
 </g>
</svg>
