<?xml version="1.0" encoding="UTF-8"?>
<svg height="774.23" width="4165.638" xmlns="http://www.w3.org/2000/svg">
 <g id="page" xmlns:svgx="http://www.xml-cml.org/schema/svgx">
  <g begin="text">
   <text y="22.46" x="40.638,48.208,55.778,63.055,66.145,71.865,77.215,81.135,86.765,90.565,95.995,99.085,103.915,109.695,118.435,121.635,126.125,130.955,133.725,139.15,144.87,148.79,151.56,155.19,157.96,162.79,166.59,172.02,177.78,183.56,187.36,191.28,195.77" svgx:width="0.71,0.71,0.71,0.26,0.53,0.49,0.35,0.52,0.34,0.5,0.26,0.44,0.53,0.83,0.28,0.4,0.44,0.23,0.5,0.53,0.35,0.23,0.32,0.23,0.44,0.34,0.5,0.53,0.53,0.34,0.35,0.4,0.28" style="fill:rgb(255,255,255);font-family:Corbel;font-size:10.0px;stroke:none;">www.nature.com/scientificreports/</text>
  </g>
  <g begin="text">
   <text y="764.23" x="549.53" svgx:width="0.51" style="fill:rgb(131,144,151);font-family:Corbel;font-size:10.0px;stroke:none;">2</text>
  </g>
  <g begin="text">
   <text y="764.193" x="40.794,45.642,50.786,53.186,58.026,64.026,68.898,71.298,75.762,78.162" svgx:width="0.55,0.59,0.25,0.55,0.7,0.56,0.25,0.5,0.25,0.59" style="fill:rgb(131,144,151);font-family:Corbel;font-size:8.0px;stroke:none;">Scientific</text>
   <text y="764.193" x="83.162" svgx:width="0.2" style="fill:rgb(0,0,0);font-family:Corbel;font-size:8.0px;stroke:none;"> </text>
   <text y="764.193" x="84.762,90.218,95.194,100.434,106.738,112.194,117.186" svgx:width="0.63,0.57,0.6,0.73,0.63,0.57,0.58" style="fill:rgb(131,144,151);font-family:Corbel-Bold;font-size:8.0px;stroke:none;">RepoRts</text>
   <text y="764.193" x="122.082,123.524,125.34,126.781,130.885,132.997,137.101,141.205,145.309,149.413,153.517,154.945,156.761,158.203,163.571,169.411,171.379,173.491,174.93,179.034,183.138,185.25,189.354,193.458,197.562,201.666,203.866,207.098,209.778,213.762,218.01,222.114,226.218,230.322,234.426" svgx:width="0.2,0.23,0.2,0.51,0.26,0.51,0.51,0.51,0.51,0.51,0.2,0.23,0.2,0.67,0.73,0.25,0.26,0.2,0.51,0.51,0.26,0.51,0.51,0.51,0.51,0.28,0.4,0.34,0.5,0.53,0.51,0.51,0.51,0.51,0.51" style="fill:rgb(0,0,0);font-family:Corbel;font-size:8.0px;stroke:none;"> | 6:19195 | DOI: 10.1038/srep19195</text>
  </g>
  <path style="fill:none;stroke:rgb(0,0,0);stroke-width:1.0;" d="M40.640 752.550 L554.640 752.550 "/>
  <g begin="text">
   <text y="361.0" x="155.638,158.484,163.301,167.171,169.178,173.013,175.335,179.252,183.169,186.006,189.275,193.91,197.214,200.06,203.887,206.725,209.182,213.034,215.036,218.863,221.566,224.402,227.786,231.782,235.698,238.535,240.992,245.521,250.489,252.496,257.025,259.734,261.736,264.583,269.4,273.27,275.272,278.541,282.458,287.15,291.974,295.89,298.727,301.184,305.713,310.681,312.688,317.217,319.926,321.928,326.232,329.616,333.443,338.144,342.96,346.83,351.764,355.634,357.641,362.134,366.427,368.884,373.681,377.551,379.558,382.717,389.197,395.965,399.124,401.131,405.048,409.982,414.779" svgx:width="0.31,0.53,0.43,0.23,0.43,0.25,0.43,0.42,0.31,0.37,0.51,0.37,0.31,0.44,0.31,0.27,0.42,0.23,0.44,0.31,0.31,0.37,0.44,0.42,0.31,0.27,0.51,0.55,0.23,0.51,0.3,0.23,0.31,0.53,0.43,0.23,0.37,0.43,0.53,0.53,0.42,0.31,0.27,0.51,0.55,0.23,0.51,0.3,0.23,0.47,0.37,0.44,0.52,0.53,0.43,0.55,0.43,0.23,0.51,0.47,0.27,0.53,0.43,0.23,0.35,0.71,0.75,0.35,0.23,0.44,0.55,0.53,0.23" style="fill:rgb(0,0,0);font-family:MinionPro-Regular;font-size:9.0px;stroke:none;">the electrostatic attraction of the reduction of graphene oxide (GO) and </text>
   <text y="361.0" x="416.786,419.173,424.009,426.029,429.019,431.395,434.125" svgx:width="0.27,0.53,0.23,0.34,0.27,0.31,0.53" style="fill:rgb(0,0,0);font-family:MinionPro-It;font-size:9.0px;stroke:none;">in situ</text>
   <text y="361.0" x="439.003,441.01,445.807,449.677,454.521,459.156,462.504,464.855,467.691,470.148,474.677,479.645,481.652,484.39,489.025,491.032,493.662,498.191,501.63,509.046,511.053,518.435,522.305,525.151,529.194,531.516,534.765,539.258,543.551,546.008,550.805,554.629" svgx:width="0.23,0.53,0.43,0.52,0.51,0.37,0.27,0.31,0.27,0.51,0.55,0.23,0.31,0.51,0.23,0.3,0.51,0.37,0.82,0.23,0.82,0.43,0.31,0.44,0.25,0.36,0.51,0.47,0.27,0.53,0.43,0.23" style="fill:rgb(0,0,0);font-family:MinionPro-Regular;font-size:9.0px;stroke:none;"> deposition to form metal-oxide </text>
   <text y="370.999" x="155.638,160.534,164.404,169.291,173.782,178.543,182.413,185.842,188.632,191.044,194.796,197.073,200.898" svgx:width="0.55,0.44,0.55,0.51,0.52,0.44,0.37,0.31,0.27,0.42,0.25,0.43,0.37" style="fill:rgb(0,0,0);font-family:MinionPro-Regular;font-size:9.0px;stroke:none;">nanoparticles</text>
   <text y="367.94" x="204.201,207.009" svgx:width="0.48,0.48" style="fill:rgb(0,0,0);font-family:MinionPro-Regular;font-size:5.85px;stroke:none;">33</text>
   <text y="371.0" x="209.817,211.869,213.624,216.549,221.472,223.227,226.485,231.093,233.397,236.088,239.913,241.668,246.15,248.814,250.569,253.368,258.138,261.963,263.718,266.976,271.755,275.562,279.369,283.194,286.451,289.754,291.806,293.561,296.36,301.13,304.955,306.71,311.462,314.837,318.662,320.417,324.899,327.563,329.318,333.926,337.148,340.973,344.231,347.489,352.268,355.49,359.315,361.07,364.877,369.359,374.111,376.91,380.78,383.192,388.079,391.904,395.188,398.491,400.246,404.116,409.003,413.755,415.51,420.316,422.728,427.003,431.809,433.564,436.255,440.08,447.28,452.077,455.902,459.241,463.021,465.676,470.455,473.677,477.502,479.257,483.865,487.087,490.983,495.079,498.904,503.655,506.4,509.703,511.458,514.257,519.063,521.448,524.751,526.506,533.841,537.666,540.465,545.235,549.906,554.658" svgx:width="0.23,0.23,0.34,0.55,0.23,0.37,0.52,0.27,0.31,0.43,0.23,0.51,0.3,0.23,0.31,0.53,0.43,0.23,0.37,0.53,0.42,0.42,0.43,0.37,0.37,0.23,0.23,0.31,0.53,0.43,0.23,0.53,0.37,0.43,0.23,0.51,0.3,0.23,0.52,0.37,0.43,0.37,0.37,0.53,0.37,0.43,0.23,0.42,0.51,0.55,0.31,0.44,0.27,0.55,0.43,0.37,0.37,0.23,0.44,0.55,0.53,0.23,0.53,0.27,0.47,0.53,0.23,0.31,0.43,0.82,0.52,0.43,0.37,0.44,0.31,0.53,0.37,0.43,0.23,0.52,0.37,0.43,0.46,0.43,0.55,0.31,0.37,0.23,0.31,0.53,0.27,0.37,0.23,0.82,0.43,0.31,0.53,0.51,0.53,0.23" style="fill:rgb(0,0,0);font-family:MinionPro-Regular;font-size:9.0px;stroke:none;">. In spite of the success, the use of pressure containers and high temperature prevents this method </text>
   <text y="380.999" x="155.637,158.419,161.669,166.18,173.578,175.549,180.23,184.128,187.962,192.472,199.87,202.309,207.188,211.427,213.398,217.376,219.347,223.181,227.692,235.09,242.453,246.305,249.555,253.389,255.856,259.88,262.184,264.155,268.791,272.04,276.74,280.574,284.426,287.712,291.042,293.121,295.092,301.842,306.792,308.763,312.597,317.107,321.887,324.705,328.071,332.023,335.309,338.081,340.16,342.131,344.958,349.756,353.608,355.579,359.359,364.157,368.009,375.407,377.846,381.709,385.733,388.037,390.008,393.258,397.157,401.829,406.635,410.533,413.351,415.79,420.299,425.249,427.22,430.623,434.44,436.744,439.435,442.666,446.618,449.904,453.307,457.159,464.468,469.006,471.247,475.405,477.376,484.739,488.591,491.418,496.216,500.915,505.694,507.665,511.527,515.425,520.375,522.346,525.596,529.503,533.481,537.38,540.152,542.123,545.931,548.703,550.674,554.625" svgx:width="0.3,0.37,0.51,0.82,0.23,0.51,0.43,0.42,0.51,0.82,0.27,0.55,0.47,0.23,0.44,0.23,0.42,0.51,0.82,0.82,0.43,0.37,0.42,0.27,0.44,0.25,0.23,0.52,0.37,0.51,0.42,0.43,0.37,0.37,0.23,0.23,0.75,0.55,0.23,0.42,0.51,0.55,0.31,0.37,0.44,0.37,0.31,0.23,0.23,0.31,0.53,0.43,0.23,0.42,0.53,0.43,0.82,0.27,0.42,0.44,0.25,0.23,0.37,0.43,0.53,0.53,0.42,0.31,0.27,0.51,0.55,0.23,0.37,0.43,0.25,0.3,0.36,0.44,0.37,0.37,0.43,0.82,0.51,0.25,0.46,0.23,0.82,0.43,0.31,0.53,0.51,0.53,0.23,0.42,0.44,0.55,0.23,0.37,0.43,0.44,0.42,0.31,0.23,0.44,0.31,0.23,0.44,0.23" style="fill:rgb(0,0,0);font-family:MinionPro-Regular;font-size:9.0px;stroke:none;">from becoming a commercial process. On contrast, the chemical reduction self-assembly method can react at a </text>
   <text y="390.998" x="155.637,158.328,162.153,169.353,174.149,177.974,181.313,185.093,187.748,192.527,195.749,199.574,201.473,206.252,211.139,215.891,219.716,223.055,224.954,227.753,232.523,236.348,238.247,244.412,248.192,250.883,254.708,258.047,259.946,264.599,269.081,271.538,273.815,276.227,281.078,285.29,287.189,291.985,296.467,298.879,303.631,306.376,308.275,310.966,315.556,317.455,320.038,324.52,327.913,335.284,337.183,343.618,347.776,352.483,354.535,356.434,361.204,365.029,369.916,373.723,377.548,379.447,382.245,387.016,390.841,392.74,396.565,400.813,405.61,409.435,412.828,415.24,422.574,426.399,431.151,433.896,435.795,439.629,443.499,448.422,450.321,454.974,458.799,460.698,464.532,468.402,471.795,475.187,477.599,481.469,486.221,488.12,492.611,497.282,500.027,501.926,508.118,510.422,513.221,517.991,522.482,527.154,529.898,531.797,535.622,539.87,544.523,546.8,551.391" svgx:width="0.31,0.43,0.82,0.52,0.43,0.37,0.44,0.31,0.53,0.37,0.43,0.23,0.53,0.55,0.53,0.43,0.37,0.23,0.31,0.53,0.43,0.23,0.69,0.44,0.31,0.43,0.37,0.23,0.51,0.51,0.27,0.25,0.27,0.55,0.47,0.23,0.52,0.51,0.27,0.55,0.31,0.23,0.31,0.51,0.23,0.3,0.51,0.37,0.82,0.23,0.71,0.47,0.53,0.23,0.23,0.53,0.43,0.55,0.42,0.43,0.23,0.31,0.53,0.43,0.23,0.43,0.47,0.52,0.43,0.37,0.27,0.82,0.43,0.55,0.31,0.23,0.42,0.44,0.55,0.23,0.51,0.43,0.23,0.42,0.44,0.37,0.37,0.27,0.43,0.53,0.23,0.51,0.53,0.31,0.23,0.69,0.27,0.31,0.53,0.51,0.53,0.31,0.23,0.43,0.47,0.52,0.25,0.51,0.36" style="fill:rgb(0,0,0);font-family:MinionPro-Regular;font-size:9.0px;stroke:none;">temperature under the water boiling point to form GSF; hence the experiment can be carried out without explo-</text>
   <text y="400.997" x="155.637,158.967,161.406,165.912,170.862,172.824,177.626,181.604,185.411,189.304,192.55,197.329,199.291,204.066,207.396,209.835,214.71,218.949,220.911,224.745,229.25,234.025,236.848,240.741,243.18,248.091,251.943,255.251,258.581,260.543,263.824,268.63,272.407,277.24,279.202,283.149,286.479,288.441,292.74,295.067,299.014,302.296,305.626,307.588,312.264,316.779,319.457,322.279,324.583,328.435,331.765,333.727,337.621,342.531,347.31,349.272,353.106,357.612,365.01,372.368,376.873,381.823,383.785,387.068,389.889,393.783,396.222,401.214,403.518,407.37,410.651,413.981,415.943,419.225,421.939,425.832,429.645,431.949,433.911,438.731,443.246,446.018,448.097,450.059,457.867,462.372,465.618,469.511,473.981,478.099,481.951,484.746,486.825,488.787,491.61,496.403,500.255,502.217,504.521,507.748,511.696,515.094,518.928,523.434,526.8,531.251,535.469,537.773,539.735,543.713,547.547,549.986,554.737" svgx:width="0.37,0.27,0.51,0.55,0.23,0.53,0.44,0.42,0.44,0.37,0.53,0.23,0.53,0.37,0.27,0.55,0.47,0.23,0.42,0.51,0.55,0.31,0.44,0.27,0.55,0.43,0.37,0.37,0.23,0.37,0.53,0.42,0.53,0.23,0.44,0.37,0.23,0.47,0.25,0.44,0.37,0.37,0.23,0.51,0.51,0.31,0.31,0.25,0.43,0.37,0.23,0.44,0.55,0.53,0.23,0.42,0.51,0.82,0.82,0.51,0.55,0.23,0.37,0.31,0.44,0.27,0.55,0.25,0.43,0.37,0.37,0.23,0.37,0.31,0.43,0.43,0.25,0.23,0.52,0.51,0.31,0.23,0.23,0.89,0.51,0.37,0.43,0.51,0.46,0.43,0.37,0.23,0.23,0.31,0.53,0.43,0.23,0.25,0.36,0.44,0.37,0.42,0.51,0.37,0.51,0.46,0.25,0.23,0.44,0.42,0.27,0.53,0.23" style="fill:rgb(0,0,0);font-family:MinionPro-Regular;font-size:9.0px;stroke:none;">sion hazard using containers such as glass bottles and common stainless steel pot. Moreover, the l-ascorbyl acid </text>
   <text y="410.996" x="155.637,159.502,163.402,168.352,170.323,173.576,177.477,182.151,186.957,190.791,194.643,196.614,203.076,209.826,211.797,214.236,219.186,221.157,225.504,226.692,231.493,236.014,240.82,244.136,247.466,249.437,252.267,257.076,260.887,263.659,265.63,268.045,271.375,273.346,280.577,285.383,289.166,293.999,295.97,299.267,304.067,308.58,312.039,314.761,318.613,321.979,323.95,326.779,331.589,335.49,340.44,342.411,346.758,351.105,352.305,357.106,361.627,366.433,369.749,373.079,375.05,379.833,383.237,387.138,391.917,393.888,396.327,401.277,403.248,406.077,410.877,414.729,416.7,421.33,425.419,430.198,433.451,437.973,440.802,445.603,449.455,452.878,460.253,464.279,466.583,468.554,475.919,479.771,482.601,487.401,492.103" svgx:width="0.42,0.44,0.55,0.23,0.37,0.43,0.53,0.53,0.42,0.43,0.23,0.71,0.75,0.23,0.27,0.55,0.23,0.48,0.23,0.53,0.51,0.53,0.37,0.37,0.23,0.31,0.53,0.44,0.31,0.23,0.27,0.37,0.23,0.82,0.53,0.42,0.53,0.23,0.37,0.53,0.51,0.37,0.31,0.43,0.37,0.23,0.31,0.53,0.44,0.55,0.23,0.48,0.48,0.23,0.53,0.51,0.53,0.37,0.37,0.23,0.53,0.37,0.43,0.53,0.23,0.27,0.55,0.23,0.31,0.53,0.43,0.23,0.53,0.46,0.53,0.37,0.51,0.31,0.53,0.43,0.37,0.82,0.44,0.25,0.23,0.82,0.43,0.31,0.53,0.51,0.53" style="fill:rgb(0,0,0);font-family:MinionPro-Regular;font-size:9.0px;stroke:none;">can reduce GO in 8 hours that is much shorter than 12 hours used in the hydrothermal method</text>
   <text y="407.94" x="496.923,499.748" svgx:width="0.48,0.48" style="fill:rgb(0,0,0);font-family:MinionPro-Regular;font-size:5.85px;stroke:none;">34</text>
   <text y="411.0" x="502.578,504.658,506.629,512.905,515.105,517.934,522.735,527.257,532.063,536.367,541.2,543.171,546.001,550.801,554.626" svgx:width="0.23,0.23,0.69,0.25,0.31,0.53,0.51,0.53,0.47,0.53,0.23,0.31,0.53,0.43,0.23" style="fill:rgb(0,0,0);font-family:MinionPro-Regular;font-size:9.0px;stroke:none;">. Although the </text>
   <text y="420.999" x="155.637,159.391,164.163,167.988,175.359,177.771,181.606,185.603,187.88,189.824,193.047,196.919,201.564,206.343,210.214,213.005,215.417,219.901,224.824,226.768,230.144,233.934,236.211,238.875,242.079,246.005,249.264,252.639,256.464,263.747,268.257,270.473,274.604,276.548,278.934,282.237,284.181,288.062,291.987,295.29,299.421,301.365,304.057,308.647,310.591,313.813,317.694,321.691,323.968,326.38,330.16,333.932,335.984,337.928,340.234,342.979,344.923,349.703,353.628,356.931,358.875,362.143,366.915,371.398,374.828,377.521,381.328,385.811,393.182,395.594,400.446,404.658,407.961,409.905,413.164,417.943,421.697,426.503,428.447,432.372,435.675,437.619,440.42,445.191,449.016,450.96,454.714,459.486,463.311,470.682,473.094,476.929,480.926,483.203,485.147,488.523,492.348,497.11,500.981,504.32,508.102,510.893,513.305,517.789,522.712,524.656,529.309,533.134,535.908,542.002,545.873,549.698,554.621" svgx:width="0.42,0.53,0.43,0.82,0.27,0.42,0.44,0.25,0.23,0.37,0.43,0.53,0.53,0.42,0.31,0.27,0.51,0.55,0.23,0.37,0.43,0.25,0.3,0.36,0.44,0.37,0.37,0.43,0.82,0.51,0.25,0.46,0.23,0.27,0.37,0.23,0.43,0.44,0.37,0.46,0.23,0.31,0.51,0.23,0.37,0.43,0.44,0.25,0.27,0.42,0.43,0.23,0.23,0.27,0.31,0.23,0.53,0.44,0.37,0.23,0.37,0.53,0.51,0.37,0.31,0.42,0.51,0.82,0.27,0.55,0.47,0.37,0.23,0.37,0.53,0.42,0.53,0.23,0.44,0.37,0.23,0.31,0.53,0.43,0.23,0.42,0.53,0.43,0.82,0.27,0.42,0.44,0.25,0.23,0.37,0.43,0.52,0.44,0.37,0.44,0.31,0.27,0.51,0.55,0.23,0.51,0.43,0.31,0.69,0.43,0.43,0.55,0.23" style="fill:rgb(0,0,0);font-family:MinionPro-Regular;font-size:9.0px;stroke:none;">chemical reduction self-assembly is easy to realize, it has shortcomings such as the chemical separation between </text>
   <text y="430.998" x="155.637,160.473,164.419,167.923,170.789,173.273,177.102,179.451,183.348,186.723,188.829,192.774,197.737,202.561,204.667,211.174,215.512,217.636,219.742,226.008,228.388,233.072,235.556,240.481,244.765,246.871,251.429,256.55,258.656,261.53,266.375,270.272,272.378,275.676,279.62,284.34,289.191,293.07,295.554,300.481,304.765,306.866,310.848,315.063,318.96,323.788,326.605,328.711,332.657,337.619,342.443,344.549,347.999,352.661,354.767,359.324,364.319,366.443,368.549,373.205,378.056,381.561,384.434,389.28,393.177,396.024,398.148,400.254,403.128,407.974,411.871,413.977,418.813,422.759,426.263,429.128,431.612,435.44,437.789,441.686,445.061,447.167,451.023,453.753,456.619,460.03,464.053,467.999,470.816,472.922,475.688,480.35,482.456,485.331,490.175,494.072,496.178,502.685,507.023,509.129,513.632,517.835,519.941,524.616,528.75,533.574,536.871,541.533,545.748,549.645,554.568" svgx:width="0.52,0.44,0.37,0.31,0.27,0.42,0.25,0.43,0.37,0.23,0.44,0.55,0.53,0.23,0.71,0.47,0.23,0.23,0.69,0.27,0.52,0.27,0.55,0.47,0.23,0.51,0.56,0.23,0.31,0.53,0.43,0.23,0.37,0.43,0.53,0.53,0.42,0.27,0.55,0.47,0.23,0.44,0.47,0.43,0.55,0.31,0.23,0.44,0.55,0.53,0.23,0.37,0.51,0.23,0.51,0.55,0.23,0.23,0.53,0.53,0.37,0.31,0.53,0.43,0.37,0.23,0.23,0.31,0.53,0.43,0.23,0.52,0.44,0.37,0.31,0.27,0.42,0.25,0.43,0.37,0.23,0.44,0.31,0.31,0.37,0.44,0.42,0.31,0.23,0.31,0.51,0.23,0.31,0.53,0.43,0.23,0.71,0.47,0.23,0.51,0.46,0.23,0.53,0.46,0.53,0.37,0.51,0.47,0.43,0.55,0.23" style="fill:rgb(0,0,0);font-family:MinionPro-Regular;font-size:9.0px;stroke:none;">particles and GS, wiping off the reducing agent and so on. Further, the particles attract to the GS by hydrogen </text>
   <text y="440.997" x="155.637,160.29,164.772,169.659,174.384,177.687,179.586,183.456,188.344,193.096,194.995,200.43,204.301,209.224,211.123,215.875,219.7,223.039,224.938,232.786,236.737,240.732,242.982,246.285,248.184,250.767,255.249,258.471,262.278,266.103,268.002,270.801,275.58,279.359,282.104,284.003,288.755,292.013,296.819,300.815,303.137,305.351,309.482,311.381,313.658,317.537,321.488,326.24,328.139,330.83,335.42,337.319,339.731,344.654,347.237,351.062,354.454,356.866,361.348,364.687,366.586,368.998,373.48,378.403,380.815,384.622,386.521,390.391,395.278,400.03,401.929,405.718,407.995,411.865,415.734,418.524,421.746,426.228,431.151,433.563,437.37,439.269,442.059,445.398,449.269,454.12,457.377,462.174,466.656,470.085,472.83,474.882,476.781,486.249,491.001,494.304,496.356,498.255,503.025,507.471,513.636,515.535,518.226,522.816,524.715,528.54,533.508,538.287,542.157,547.044,550.851,554.676" svgx:width="0.51,0.51,0.55,0.53,0.37,0.23,0.44,0.55,0.53,0.23,0.7,0.44,0.55,0.23,0.53,0.43,0.37,0.23,0.97,0.44,0.44,0.25,0.37,0.23,0.3,0.51,0.37,0.42,0.43,0.23,0.31,0.53,0.44,0.31,0.23,0.53,0.37,0.53,0.44,0.25,0.25,0.46,0.23,0.25,0.43,0.44,0.53,0.23,0.31,0.51,0.23,0.27,0.55,0.3,0.43,0.37,0.27,0.51,0.37,0.23,0.27,0.51,0.55,0.27,0.42,0.23,0.44,0.55,0.53,0.23,0.43,0.25,0.43,0.42,0.31,0.37,0.51,0.55,0.27,0.42,0.23,0.31,0.37,0.44,0.55,0.37,0.52,0.51,0.37,0.31,0.23,0.23,1.07,0.53,0.37,0.23,0.23,0.53,0.51,0.69,0.23,0.31,0.51,0.23,0.43,0.55,0.53,0.44,0.55,0.42,0.43,0.23" style="fill:rgb(0,0,0);font-family:MinionPro-Regular;font-size:9.0px;stroke:none;">bonds and Van der Waals force that usually lead to inferior ionic and electronic transport. Thus, how to enhance </text>
   <text y="450.996" x="155.637,158.449,163.233,167.07,169.023,172.843,177.338,182.274,187.174,191.057,194.94,197.743,200.168,204.663,209.599,211.552,216.047,218.724,220.677,223.488,228.272,232.11,234.063,238.837,242.72,246.161,248.965,251.389,255.155,257.445,261.283,264.6,266.553,270.435,275.336,280.1,282.053,288.501,292.78,294.733,297.131,300.448,302.401,306.895,311.796,315.633,317.586,322.081,324.758,326.711,329.523,334.306,338.144,340.097,344.493,348.403,352.547,354.5,359.309,363.805,366.229,370.995,373.753,377.069,379.022,381.726,386.328,388.281,390.707,397.919,402.54,405.776,410.235,414.343,418.18,420.133,422.946,427.728,431.567,433.52,437.322,439.612,443.495,447.378,450.181,453.416,458.1,461.866,466.649,470.487,477.871,480.296,484.143,488.152,490.441,492.394,497.204,501.042,504.448,507.044,511.539,514.946,522.302,526.186,531.085,534.906,538.689,540.755,542.708,547.194,551.878,554.623" svgx:width="0.31,0.53,0.43,0.23,0.42,0.51,0.55,0.55,0.43,0.42,0.31,0.27,0.51,0.55,0.23,0.51,0.3,0.23,0.31,0.53,0.43,0.23,0.52,0.44,0.37,0.31,0.27,0.42,0.25,0.43,0.37,0.23,0.44,0.55,0.53,0.23,0.71,0.47,0.23,0.27,0.37,0.23,0.51,0.55,0.43,0.23,0.51,0.3,0.23,0.31,0.53,0.43,0.23,0.5,0.43,0.46,0.23,0.52,0.51,0.27,0.55,0.31,0.37,0.23,0.31,0.51,0.23,0.27,0.82,0.52,0.37,0.51,0.46,0.43,0.23,0.31,0.53,0.43,0.23,0.43,0.25,0.43,0.42,0.31,0.37,0.51,0.42,0.53,0.43,0.82,0.27,0.42,0.44,0.25,0.23,0.52,0.43,0.37,0.3,0.51,0.37,0.82,0.44,0.55,0.42,0.43,0.23,0.23,0.51,0.53,0.31,0.23" style="fill:rgb(0,0,0);font-family:MinionPro-Regular;font-size:9.0px;stroke:none;">the connection of the particles and GS is one of the key points to improve the electrochemical performance, but </text>
   <text y="460.995" x="155.637,157.914,160.218,162.873,165.672,167.949,171.774,173.61,176.832,180.657,184.032,187.911,191.781,195.003,198.756,203.562,205.398,210.177,214.101,217.404,219.24,223.893,227.763,231.588,236.511,238.347,243.099,247.581,252.468,256.293,258.129,260.541,265.464,267.3,270.099,274.905,277.29,280.593,282.429,286.299,289.521,293.4,297.35" svgx:width="0.25,0.27,0.31,0.31,0.25,0.43,0.23,0.37,0.43,0.37,0.43,0.44,0.37,0.42,0.53,0.23,0.53,0.44,0.37,0.23,0.51,0.43,0.43,0.55,0.23,0.53,0.51,0.55,0.43,0.23,0.27,0.55,0.23,0.31,0.53,0.27,0.37,0.23,0.44,0.37,0.43,0.44,0.23" style="fill:rgb(0,0,0);font-family:MinionPro-Regular;font-size:9.0px;stroke:none;">little research has been done in this area.</text>
   <text y="470.994" x="167.634,170.559,175.482,177.291,180.09,184.896,187.281,190.584,192.389,195.647,198.302,203.081,207.77,211.244,213.296,215.105,221.198,225.023,226.827,230.778,235.53,240.021,244.638,247.329,251.199,255.951,257.76,260.559,265.329,269.154,270.959,274.712,279.482,283.307,290.678,293.09,296.924,300.919,303.196,305.005,308.38,312.169,314.446,317.11,320.314,324.237,327.495,330.87,334.695,341.976,346.485,348.699,352.83,354.639,357.861,362.352,367.023,369.714,373.539,375.344,378.035,382.625,384.434,387.737,391.895,396.647,399.446,404.216,408.041,411.344,413.756,417.536,421.361,423.17,425.969,430.739,434.564,436.368,440.58,445.503" svgx:width="0.34,0.55,0.23,0.31,0.53,0.27,0.37,0.23,0.37,0.31,0.53,0.53,0.46,0.23,0.23,0.69,0.43,0.23,0.44,0.53,0.51,0.52,0.31,0.43,0.53,0.23,0.31,0.53,0.43,0.23,0.42,0.53,0.43,0.82,0.27,0.42,0.44,0.25,0.23,0.37,0.43,0.25,0.3,0.36,0.44,0.37,0.37,0.43,0.82,0.51,0.25,0.46,0.23,0.37,0.51,0.53,0.31,0.43,0.23,0.31,0.51,0.23,0.37,0.46,0.55,0.31,0.53,0.43,0.37,0.27,0.42,0.43,0.23,0.31,0.53,0.43,0.23,0.47,0.55,0.75" style="fill:rgb(0,0,0);font-family:MinionPro-Regular;font-size:9.0px;stroke:none;">In this study, we adopted the chemical self-assembly route to synthesize the SnO</text>
   <text y="472.8" x="452.204" svgx:width="0.48" style="fill:rgb(0,0,0);font-family:MinionPro-Regular;font-size:5.85px;stroke:none;">2</text>
   <text y="471.0" x="455.012,456.821,461.717,465.587,470.474,474.965,479.726,483.596,487.024,489.814,492.226,495.979,498.256,502.081,505.384,508.363,514.798,519.064,520.868,523.451,528.086,531.956,539.327,541.136,545.006,549.893,554.645" svgx:width="0.23,0.55,0.44,0.55,0.51,0.52,0.44,0.37,0.31,0.27,0.42,0.25,0.43,0.37,0.33,0.71,0.47,0.23,0.3,0.51,0.44,0.82,0.23,0.44,0.55,0.53,0.23" style="fill:rgb(0,0,0);font-family:MinionPro-Regular;font-size:9.0px;stroke:none;"> nanoparticles/GS foam and </text>
   <text y="480.999" x="155.636,158.253,162.777,167.592,172.512,177.3,179.271,182.104,186.917,190.73,193.511,195.482,199.386,204.345,209.267,213.179,217.209,219.522,221.97,226.855,231.103,233.074,237.717,240.972,245.677,249.52,253.381,256.672,260.011,261.982,265.851,269.754,274.713,276.684,280.023,282.471,286.762,291.721,294.169,299.02,302.887,306.792,311.578,314.41,316.657,320.824,322.795,326.656,331.659,336.471,340.375,345.295,349.138,352.999,354.97,357.803,362.607,366.468,368.439,370.887,375.672,378.397,382.258,385.633,389.62,393.524,396.348,398.796,403.312,408.271,410.242,414.928,418.789,421.595,427.721,431.625,435.486,440.445,442.416,445.249,450.053,453.914,455.885,460.13,465.089" svgx:width="0.3,0.51,0.53,0.55,0.53,0.23,0.31,0.53,0.44,0.31,0.23,0.44,0.55,0.55,0.43,0.44,0.25,0.27,0.55,0.47,0.23,0.52,0.37,0.51,0.42,0.43,0.37,0.37,0.23,0.42,0.44,0.55,0.23,0.37,0.27,0.47,0.55,0.27,0.54,0.42,0.44,0.55,0.31,0.25,0.46,0.23,0.43,0.55,0.53,0.44,0.55,0.42,0.43,0.23,0.31,0.53,0.43,0.23,0.27,0.55,0.31,0.43,0.37,0.44,0.42,0.31,0.27,0.51,0.55,0.23,0.51,0.43,0.31,0.69,0.43,0.43,0.55,0.23,0.31,0.53,0.43,0.23,0.47,0.55,0.75" style="fill:rgb(0,0,0);font-family:MinionPro-Regular;font-size:9.0px;stroke:none;">found that annealing process can significantly enhance the interaction between the SnO</text>
   <text y="482.8" x="471.811" svgx:width="0.48" style="fill:rgb(0,0,0);font-family:MinionPro-Regular;font-size:5.85px;stroke:none;">2</text>
   <text y="481.0" x="474.641,476.612,481.542,485.445,490.366,494.891,499.686,503.589,507.052,509.876,512.324,516.111,518.424,522.285,525.624,527.595,531.498,536.42,541.208,543.179,546.012,550.815,554.64" svgx:width="0.23,0.55,0.44,0.55,0.51,0.52,0.44,0.37,0.31,0.27,0.42,0.25,0.43,0.37,0.23,0.44,0.55,0.53,0.23,0.31,0.53,0.43,0.23" style="fill:rgb(0,0,0);font-family:MinionPro-Regular;font-size:9.0px;stroke:none;"> nanoparticles and the </text>
   <text y="490.999" x="155.636,162.035,166.265,168.281,169.982,179.548,183.337,185.038,188.809,193.254,200.416,205.175,209.729,212.996,215.262,217.917,221.706,223.407,230.713,234.456,237.109,240.898,244.253,246.654,250.613,252.826,256.093,257.794,263.85,267.639,270.823,274.612,276.313,281.027,284.364,288.197,292.913,294.614,298.5,301.767,303.468,307.3,312.149,316.783,321.499,325.288,326.989,334.296,338.039,340.693,344.482,347.837,350.239,354.197,356.409,359.676,361.377,363.924,368.368,371.671,373.372,375.613,377.88,380.641,385.411,387.678,392.421,399.756,401.457,403.833,408.277,413.164,414.865,419.445,423.188,425.805,428.459,432.248,435.604,437.98,441.769,445.036,446.737,450.57,455.419,460.135,461.836,465.625,469.837,474.607,476.946,481.373,483.639,486.292,490.125,494.841,496.542,500.331,504.47,508.241,511.992,514.278,516.519,520.308,525.023,527.732,529.433,533.346,537.368,541.083,543.324,545.7,550.513,554.726" svgx:width="0.71,0.47,0.23,0.23,1.07,0.43,0.23,0.42,0.51,0.82,0.52,0.51,0.37,0.27,0.31,0.43,0.23,0.82,0.44,0.31,0.43,0.37,0.27,0.44,0.25,0.37,0.23,0.69,0.43,0.37,0.43,0.23,0.53,0.37,0.43,0.53,0.23,0.44,0.37,0.23,0.44,0.55,0.51,0.53,0.43,0.23,0.82,0.44,0.31,0.43,0.37,0.27,0.44,0.25,0.37,0.23,0.3,0.51,0.37,0.23,0.25,0.27,0.31,0.53,0.27,0.53,0.82,0.23,0.27,0.51,0.55,0.23,0.51,0.44,0.31,0.31,0.43,0.37,0.27,0.43,0.37,0.23,0.44,0.55,0.53,0.23,0.43,0.47,0.53,0.27,0.51,0.27,0.31,0.43,0.53,0.23,0.43,0.47,0.42,0.43,0.25,0.25,0.43,0.55,0.31,0.23,0.42,0.46,0.42,0.25,0.27,0.55,0.47,0.23" style="fill:rgb(0,0,0);font-family:MinionPro-Regular;font-size:9.0px;stroke:none;">GS. The composite materials were used as anode materials for lithium ion batteries and exhibited excellent cycling </text>
   <text y="500.998" x="155.636,158.915,161.736,165.636,170.121,172.6,174.895,177.22,180.013,184.162,186.124,189.256,193.594,197.932,202.27,204.34,208.678,209.852,217.241,223.507,228.331,230.293" svgx:width="0.37,0.31,0.44,0.51,0.27,0.25,0.27,0.31,0.46,0.23,0.35,0.48,0.48,0.48,0.23,0.48,0.23,0.82,0.69,0.53,0.23,0.47" style="fill:rgb(0,0,0);font-family:MinionPro-Regular;font-size:9.0px;stroke:none;">stability (844.8 mAh g</text>
   <text y="497.94" x="234.538" svgx:width="0.78" style="fill:rgb(0,0,0);font-family:EuclidSymbol;font-size:5.85px;stroke:none;">−</text>
   <text y="497.94" x="239.106" svgx:width="0.48" style="fill:rgb(0,0,0);font-family:MinionPro-Regular;font-size:5.85px;stroke:none;">1</text>
   <text y="501.0" x="241.926,243.888,247.78,252.985,256.828,260.185,262.147,266.485,270.823,272.785,276.757,280.838,284.612,286.907,290.75,294.071,296.033,299.835,302.598,304.56,308.898,313.236,317.574,318.759,326.148,332.385,334.347" svgx:width="0.23,0.44,0.58,0.43,0.37,0.23,0.48,0.48,0.23,0.42,0.46,0.42,0.25,0.43,0.37,0.23,0.44,0.31,0.23,0.48,0.48,0.48,0.23,0.82,0.69,0.23,0.47" style="fill:rgb(0,0,0);font-family:MinionPro-Regular;font-size:9.0px;stroke:none;"> after 50 cycles at 200 mA g</text>
   <text y="497.94" x="338.587" svgx:width="0.78" style="fill:rgb(0,0,0);font-family:EuclidSymbol;font-size:5.85px;stroke:none;">−</text>
   <text y="497.94" x="343.156" svgx:width="0.48" style="fill:rgb(0,0,0);font-family:MinionPro-Regular;font-size:5.85px;stroke:none;">1</text>
   <text y="501.0" x="345.976,347.938,351.829,356.738,361.508,363.47,367.808,372.146,376.484,378.554,382.892,384.064,391.453,397.719,402.543,404.505" svgx:width="0.23,0.44,0.55,0.53,0.23,0.48,0.48,0.48,0.23,0.48,0.23,0.82,0.69,0.53,0.23,0.47" style="fill:rgb(0,0,0);font-family:MinionPro-Regular;font-size:9.0px;stroke:none;"> and 533.7 mAh g</text>
   <text y="497.94" x="408.742" svgx:width="0.78" style="fill:rgb(0,0,0);font-family:EuclidSymbol;font-size:5.85px;stroke:none;">−</text>
   <text y="497.94" x="413.311" svgx:width="0.48" style="fill:rgb(0,0,0);font-family:MinionPro-Regular;font-size:5.85px;stroke:none;">1</text>
   <text y="501.0" x="416.13,418.092,421.984,427.19,431.033,434.39,436.352,440.69,445.028,449.366,451.328,455.3,459.381,463.156,465.451,469.294,472.615,474.577,478.378,481.141,483.103,487.441,491.779,496.117,500.455,501.648,509.038,515.275,517.237" svgx:width="0.23,0.44,0.58,0.43,0.37,0.23,0.48,0.48,0.48,0.23,0.42,0.46,0.42,0.25,0.43,0.37,0.23,0.44,0.31,0.23,0.48,0.48,0.48,0.48,0.23,0.82,0.69,0.23,0.47" style="fill:rgb(0,0,0);font-family:MinionPro-Regular;font-size:9.0px;stroke:none;"> after 150 cycles at 1000 mA g</text>
   <text y="497.94" x="521.474" svgx:width="0.78" style="fill:rgb(0,0,0);font-family:EuclidSymbol;font-size:5.85px;stroke:none;">−</text>
   <text y="497.94" x="526.043" svgx:width="0.48" style="fill:rgb(0,0,0);font-family:MinionPro-Regular;font-size:5.85px;stroke:none;">1</text>
   <text y="501.0" x="528.863,531.995,534.065,536.027,542.24,547.446,551.289,554.628" svgx:width="0.35,0.23,0.23,0.69,0.58,0.43,0.37,0.23" style="fill:rgb(0,0,0);font-family:MinionPro-Regular;font-size:9.0px;stroke:none;">). After </text>
   <text y="510.999" x="155.642,158.452,163.232,167.066,169.019,172.9,177.832,182.73,186.62,190.627,192.913,195.334,200.195,204.416,206.369,209.17,212.403,216.293,220.084,222.884,230.23,234.064,238.827,241.581,243.642,245.595,248.405,253.186,257.02,258.973,262.772,265.058,268.939,272.82,275.621,278.854,283.535,287.299,292.08,295.914,303.294,305.715,309.56,313.567,315.853,317.806,322.614,326.448,329.851,332.446,336.939,340.343,347.697,351.578,356.476,360.292,364.126,366.079,370.572,373.245,375.198,378.008,382.788,386.622,388.575,395.93,399.721,402.423,406.257,409.661,412.11,416.117,418.378,421.69,423.643,428.433,432.368,435.68,437.633,442.296,446.176,450.01,454.942,456.895,461.163,464.396,468.286,472.077,474.886,477.111,481.251,483.204,485.625,492.836,497.455,500.688,505.144,509.251,513.131,517.892,519.845,523.679,526.948,531.756,535.636,539.452,541.902,545.909,548.242,550.467,554.598" svgx:width="0.31,0.53,0.43,0.23,0.44,0.55,0.55,0.43,0.44,0.25,0.27,0.55,0.47,0.23,0.31,0.37,0.43,0.44,0.31,0.82,0.43,0.55,0.31,0.23,0.23,0.31,0.53,0.43,0.23,0.43,0.25,0.43,0.42,0.31,0.37,0.51,0.42,0.53,0.43,0.82,0.27,0.42,0.44,0.25,0.23,0.52,0.43,0.37,0.3,0.51,0.37,0.82,0.44,0.55,0.42,0.43,0.23,0.51,0.3,0.23,0.31,0.53,0.43,0.23,0.82,0.44,0.31,0.43,0.37,0.27,0.44,0.25,0.37,0.23,0.53,0.44,0.37,0.23,0.51,0.43,0.43,0.55,0.23,0.47,0.37,0.43,0.44,0.31,0.25,0.46,0.23,0.27,0.82,0.52,0.37,0.51,0.46,0.43,0.53,0.23,0.43,0.37,0.52,0.43,0.42,0.27,0.44,0.25,0.25,0.46,0.23" style="fill:rgb(0,0,0);font-family:MinionPro-Regular;font-size:9.0px;stroke:none;">the annealing treatment, the electrochemical performance of the materials has been greatly improved especially </text>
   <text y="520.998" x="155.642,159.462,162.252,164.232,169.079,171.536,175.851,180.698,182.678,185.976,190.814,194.724,198.572,201.024,205.884,209.732,211.712,215.622,220.442,223.875,227.138,231.008,235.8,238.586,241.929,243.909,247.064,251.424,255.789,257.882,262.242,269.087,271.067,273.519,278.448,282.295,285.558,289.477,293.443,296.858,300.769,305.561,307.541,311.362,314.147,316.127,320.488,324.848,329.213,333.563,334.733,342.144,348.404,350.384" svgx:width="0.44,0.31,0.23,0.53,0.27,0.47,0.53,0.23,0.37,0.52,0.43,0.42,0.27,0.54,0.42,0.23,0.42,0.53,0.37,0.37,0.43,0.55,0.31,0.37,0.23,0.35,0.48,0.48,0.23,0.48,0.76,0.23,0.27,0.55,0.42,0.37,0.43,0.44,0.37,0.43,0.53,0.23,0.44,0.31,0.23,0.48,0.48,0.48,0.48,0.23,0.82,0.69,0.23,0.47" style="fill:rgb(0,0,0);font-family:MinionPro-Regular;font-size:9.0px;stroke:none;">at high specific currents (91.2% increased at 3000 mA g</text>
   <text y="517.94" x="354.634" svgx:width="0.78" style="fill:rgb(0,0,0);font-family:EuclidSymbol;font-size:5.85px;stroke:none;">−</text>
   <text y="517.94" x="359.215" svgx:width="0.48" style="fill:rgb(0,0,0);font-family:MinionPro-Regular;font-size:5.85px;stroke:none;">1</text>
   <text y="521.0" x="362.049,365.204,367.184,371.877,375.788,379.662,383.483,388.276,391.691,395.557,397.537,400.376,405.187,409.052,411.033,413.656,418.179,421.613,428.997,432.818,435.649,438.102,442.624,447.588,449.568,454.09,456.795,458.775,463.027,467.995,471.24,478.003,481.248,487.278,489.258,493.951,498.475,503.402,508.168,511.516,513.496,515.813,519.734,523.725,528.491,531.834,533.814,536.546,541.181,543.161,546.001,550.812,554.637" svgx:width="0.35,0.23,0.51,0.43,0.42,0.44,0.53,0.37,0.43,0.23,0.31,0.53,0.43,0.23,0.3,0.51,0.37,0.82,0.44,0.31,0.27,0.51,0.55,0.23,0.51,0.3,0.23,0.47,0.55,0.36,0.75,0.36,0.67,0.23,0.51,0.51,0.55,0.53,0.37,0.23,0.25,0.43,0.44,0.53,0.37,0.23,0.31,0.51,0.23,0.31,0.53,0.43,0.23" style="fill:rgb(0,0,0);font-family:MinionPro-Regular;font-size:9.0px;stroke:none;">) because the formation of Sn-O-C bonds leads to the </text>
   <text y="530.999" x="155.634,158.937,163.095,167.982,171.807,175.074,179.33,181.715,184.973,187.763,190.175,193.982,195.818,199.643,204.611,208.48,212.35,215.095,216.931,221.584,225.409,228.181,234.274,238.143,241.968,246.891,248.727,251.526,256.296,260.121,261.957,266.169,271.092" svgx:width="0.37,0.46,0.55,0.43,0.37,0.47,0.27,0.37,0.31,0.27,0.42,0.23,0.43,0.56,0.43,0.42,0.31,0.23,0.51,0.43,0.31,0.69,0.43,0.43,0.55,0.23,0.31,0.53,0.43,0.23,0.47,0.55,0.75" style="fill:rgb(0,0,0);font-family:MinionPro-Regular;font-size:9.0px;stroke:none;">synergistic effect between the SnO</text>
   <text y="532.8" x="277.83" svgx:width="0.48" style="fill:rgb(0,0,0);font-family:MinionPro-Regular;font-size:5.85px;stroke:none;">2</text>
   <text y="531.0" x="280.638,282.474,287.37,291.24,296.127,300.618,305.379,309.249,312.678,315.468,317.88,321.632,323.909,327.734,331.037,332.873,336.743,341.63,346.382,348.218,354.653,358.919" svgx:width="0.23,0.55,0.44,0.55,0.51,0.52,0.44,0.37,0.31,0.27,0.42,0.25,0.43,0.37,0.23,0.44,0.55,0.53,0.23,0.71,0.47,0.23" style="fill:rgb(0,0,0);font-family:MinionPro-Regular;font-size:9.0px;stroke:none;"> nanoparticles and GS.</text>
   <text y="553.0" x="155.638,162.33,167.973,172.637,178.632,181.404,185.573" svgx:width="0.63,0.51,0.42,0.55,0.25,0.38,0.42" style="fill:rgb(0,0,0);font-family:Corbel-Bold;font-size:11.0px;stroke:none;">Results</text>
   <text y="563.0" x="155.638,165.265,169.117,171.079,175.316,180.266" svgx:width="1.07,0.43,0.23,0.47,0.55,0.75" style="fill:rgb(0,0,0);font-family:MinionPro-Regular;font-size:9.0px;stroke:none;">The SnO</text>
   <text y="564.8" x="187.011" svgx:width="0.48" style="fill:rgb(0,0,0);font-family:MinionPro-Regular;font-size:5.85px;stroke:none;">2</text>
   <text y="563.0" x="189.835,192.841,199.303,203.596,205.558,210.172,214.831,218.726,226.124,228.086,234.278,238.226,241.556,243.518,246.209,250.113,254.601,258.018,260.457,264.315,268.12,270.835,274.728,279.507,281.469,285.922,290.08,292.042,296.02,297.982,301.759,306.553,310.405,317.803,320.242,324.101,328.121,330.425,332.387,335.786,339.599,341.903,344.594,347.825,351.774,355.056,358.455,362.307,369.613,374.146,376.384,380.542,382.504,385.786,388.601,391.967,395.771,398.486,402.338,406.791,410.949,412.911,416.805,421.716,426.495,428.457,432.435,434.397,437.68,442.447,447.046,450.445,454.339,458.872,463.678,467.53,472.306,475.078,477.04,479.818,483.065,486.959,490.853,494.66,498.512,501.743,506.522,510.146,514.328,516.767,521.642,525.881,527.843,532.476,535.722,540.417,544.251,548.103,551.385,554.689" svgx:width="0.33,0.71,0.47,0.23,0.53,0.51,0.44,0.82,0.23,0.69,0.44,0.37,0.23,0.3,0.44,0.51,0.37,0.27,0.42,0.44,0.31,0.43,0.53,0.23,0.51,0.46,0.23,0.44,0.23,0.42,0.53,0.43,0.82,0.27,0.42,0.44,0.25,0.23,0.37,0.43,0.25,0.3,0.36,0.44,0.37,0.37,0.43,0.82,0.51,0.25,0.46,0.23,0.37,0.31,0.37,0.44,0.31,0.43,0.47,0.46,0.23,0.44,0.55,0.53,0.23,0.44,0.23,0.37,0.53,0.51,0.37,0.43,0.51,0.53,0.43,0.55,0.31,0.23,0.3,0.37,0.43,0.43,0.42,0.43,0.36,0.53,0.37,0.46,0.27,0.55,0.47,0.23,0.52,0.37,0.51,0.42,0.43,0.37,0.37,0.23" style="fill:rgb(0,0,0);font-family:MinionPro-Regular;font-size:9.0px;stroke:none;">/GS Foam was fabricated by a chemical self-assembly strategy and a subsequent freeze-drying process </text>
   <text y="572.999" x="155.635,158.776,163.564,166.003,170.266,172.345,174.311,178.658,181.799,183.878,185.84,191.715,194.487,196.449,199.731,202.448,206.3,211.043,213.005,217.352,219.431,221.393,224.171,227.417,231.924,239.322,241.284,244.107,248.901,252.753,254.715,258.549,263.1,265.447,267.751,272.446,276.223,281.018,284.87,292.268,294.677,297.96,300.774,304.398,307.897,309.976,311.938,314.761,319.556,323.408,325.37,332.729,336.581,339.404,343.425,345.729,347.691,352.162,356.437,358.876,363.655,367.507,369.469,372.751,377.557,381.334,386.167,388.129,392.078,395.408,397.37,401.984" svgx:width="0.35,0.53,0.27,0.47,0.23,0.23,0.48,0.35,0.23,0.23,0.69,0.31,0.23,0.37,0.31,0.43,0.52,0.23,0.48,0.23,0.23,0.3,0.37,0.51,0.82,0.23,0.31,0.53,0.43,0.23,0.42,0.51,0.25,0.25,0.51,0.42,0.53,0.43,0.82,0.27,0.37,0.31,0.37,0.46,0.23,0.23,0.31,0.53,0.43,0.23,0.82,0.43,0.31,0.44,0.25,0.23,0.51,0.47,0.27,0.53,0.43,0.23,0.37,0.53,0.42,0.53,0.23,0.44,0.37,0.23,0.53,0.43" style="fill:rgb(0,0,0);font-family:MinionPro-Regular;font-size:9.0px;stroke:none;">(Fig. 1). At step 1, from the collochemistry, the metal oxide such as Fe</text>
   <text y="574.8" x="405.799" svgx:width="0.48" style="fill:rgb(0,0,0);font-family:MinionPro-Regular;font-size:5.85px;stroke:none;">2</text>
   <text y="573.0" x="408.623" svgx:width="0.75" style="fill:rgb(0,0,0);font-family:MinionPro-Regular;font-size:9.0px;stroke:none;">O</text>
   <text y="574.8" x="415.37" svgx:width="0.48" style="fill:rgb(0,0,0);font-family:MinionPro-Regular;font-size:5.85px;stroke:none;">3</text>
   <text y="573.0" x="418.194,420.273,422.235,427.669,430.108" svgx:width="0.23,0.23,0.62,0.27,0.75" style="fill:rgb(0,0,0);font-family:MinionPro-Regular;font-size:9.0px;stroke:none;">, TiO</text>
   <text y="574.8" x="436.853" svgx:width="0.48" style="fill:rgb(0,0,0);font-family:MinionPro-Regular;font-size:5.85px;stroke:none;">2</text>
   <text y="573.0" x="439.677,441.639,445.534,450.446,455.225,457.187,461.424,466.374" svgx:width="0.23,0.44,0.55,0.53,0.23,0.47,0.55,0.75" style="fill:rgb(0,0,0);font-family:MinionPro-Regular;font-size:9.0px;stroke:none;"> and SnO</text>
   <text y="574.8" x="473.121" svgx:width="0.48" style="fill:rgb(0,0,0);font-family:MinionPro-Regular;font-size:5.85px;stroke:none;">2</text>
   <text y="573.0" x="475.945,477.907,481.741,486.293,488.639,490.943,495.449,497.888,502.667,504.629,510.821,514.769,518.099,520.061,524.883,529.5,532.83,535.158,537.972,540.347,544.466,548.279,550.517,554.648" svgx:width="0.23,0.42,0.51,0.25,0.25,0.51,0.27,0.53,0.23,0.69,0.44,0.37,0.23,0.52,0.51,0.37,0.27,0.31,0.27,0.46,0.43,0.25,0.46,0.23" style="fill:rgb(0,0,0);font-family:MinionPro-Regular;font-size:9.0px;stroke:none;"> colloid was positively </text>
   <text y="582.999" x="155.635,159.394,164.177,168.053,171.325,175.47,179.345,184.101,186.162,188.106,190.911,195.686,199.516,201.46,207.904,214.636,216.58,222.749,226.679,229.991,231.935,236.826,240.66,244.877,248.662,251.457,253.811,257.911,261.706,263.924,268.064,270.008,273.767,278.55,282.426,285.698,289.843,293.718,298.479,300.423,305.08,308.956,312.794,316.58,321.337,324.717,328.551,330.495,336.934,343.666,345.61,350.395,354.324,357.631,359.575,366.925,370.8,375.521,379.661,381.605,386.056,390.309,394.449,398.594,402.424,407.356,409.3,413.116,417.602,422.36,425.164,429.038,431.459,436.391,438.808,443.664,447.885,449.829,452.552,457.34,462.232,466.107,468.902,471.319,475.806,480.707,484.708,486.994,488.938,493.199,496.427,500.923,505.599,510.324,513.636,515.58,520.066,524.998,526.942,529.747,534.521,538.355,540.299,543.563,548.346,551.428" svgx:width="0.42,0.53,0.44,0.37,0.47,0.43,0.53,0.23,0.23,0.31,0.53,0.43,0.23,0.71,0.75,0.23,0.69,0.44,0.37,0.23,0.55,0.43,0.47,0.44,0.31,0.27,0.46,0.43,0.25,0.46,0.23,0.42,0.53,0.44,0.37,0.47,0.43,0.53,0.23,0.51,0.43,0.42,0.44,0.53,0.37,0.43,0.23,0.71,0.75,0.23,0.53,0.44,0.37,0.23,0.82,0.44,0.55,0.46,0.23,0.51,0.47,0.46,0.47,0.43,0.55,0.23,0.42,0.51,0.55,0.31,0.44,0.27,0.55,0.27,0.55,0.47,0.23,0.3,0.53,0.55,0.42,0.31,0.27,0.51,0.55,0.44,0.25,0.23,0.47,0.37,0.51,0.53,0.52,0.37,0.23,0.51,0.55,0.23,0.31,0.53,0.43,0.23,0.37,0.53,0.37,0.36" style="fill:rgb(0,0,0);font-family:MinionPro-Regular;font-size:9.0px;stroke:none;">charged; the GO was negatively charged because GO has many oxygen containing functional groups on the sur-</text>
   <text y="592.998" x="155.635,158.272,162.196,165.976" svgx:width="0.3,0.44,0.42,0.43" style="fill:rgb(0,0,0);font-family:MinionPro-Regular;font-size:9.0px;stroke:none;">face</text>
   <text y="589.94" x="169.781,172.572" svgx:width="0.48,0.48" style="fill:rgb(0,0,0);font-family:MinionPro-Regular;font-size:5.85px;stroke:none;">35</text>
   <text y="593.0" x="175.363,177.388,179.098,188.675,192.473,194.183,200.591,207.287,208.997,212.842,217.703,222.428,224.138,228.324,233.22" svgx:width="0.23,0.23,1.07,0.43,0.23,0.71,0.75,0.23,0.44,0.55,0.53,0.23,0.47,0.55,0.75" style="fill:rgb(0,0,0);font-family:MinionPro-Regular;font-size:9.0px;stroke:none;">. The GO and SnO</text>
   <text y="594.8" x="239.926" svgx:width="0.48" style="fill:rgb(0,0,0);font-family:MinionPro-Regular;font-size:5.85px;stroke:none;">2</text>
   <text y="593.0" x="242.717,244.427,249.297,253.141,258.003,262.467,267.202,271.047,274.45,277.214,279.599,283.326,285.576,289.374,292.65,294.36,300.428,304.226,307.422,311.22,312.93,316.683,319.313,322.077,325.389,329.313,333.157,335.823,339.667,344.392,346.102,350.504,354.608,356.318,359.091,363.834,367.632,369.342,373.106,375.356,379.2,383.044,385.808,389.004,393.567,396.799,399.572,403.326,406.09,408.475,412.255,413.965,416.522,420.978,424.174,427.954,431.752,433.462,436.811,441.374,443.084,445.857,450.61,454.364,457.082,458.792,461.565,466.309,470.107,471.817,476.003,480.899" svgx:width="0.23,0.55,0.44,0.55,0.51,0.52,0.44,0.37,0.31,0.27,0.42,0.25,0.43,0.37,0.23,0.69,0.43,0.37,0.43,0.23,0.44,0.31,0.31,0.37,0.44,0.42,0.31,0.43,0.53,0.23,0.51,0.46,0.23,0.31,0.53,0.43,0.23,0.43,0.25,0.43,0.42,0.31,0.37,0.51,0.37,0.31,0.44,0.31,0.27,0.42,0.23,0.3,0.51,0.37,0.42,0.43,0.23,0.37,0.51,0.23,0.31,0.53,0.44,0.31,0.23,0.31,0.53,0.43,0.23,0.47,0.55,0.75" style="fill:rgb(0,0,0);font-family:MinionPro-Regular;font-size:9.0px;stroke:none;"> nanoparticles were attracted by the electrostatic force so that the SnO</text>
   <text y="594.8" x="487.624" svgx:width="0.48" style="fill:rgb(0,0,0);font-family:MinionPro-Regular;font-size:5.85px;stroke:none;">2</text>
   <text y="593.0" x="490.415,492.125,496.995,500.839,505.7,510.165,514.9,518.745,522.148,524.912,527.297,531.024,533.274,537.072,540.348,542.058,545.867,549.711,554.634" svgx:width="0.23,0.55,0.44,0.55,0.51,0.52,0.44,0.37,0.31,0.27,0.42,0.25,0.43,0.37,0.23,0.42,0.44,0.55,0.23" style="fill:rgb(0,0,0);font-family:MinionPro-Regular;font-size:9.0px;stroke:none;"> nanoparticles can </text>
   <text y="602.999" x="155.642,160.421,162.835,166.122,168.939,172.361,174.766,179.268,183.968,186.687,190.539,192.51,197.021,201.971,203.942,206.769,211.568,215.42,217.391,220.678,225.484,228.906,231.597,235.575,239.409,243.261,245.232,249.742,252.433,254.404,260.866,267.616,269.587,273.486,278.402,283.181,285.152,290.068,294.588,297.36,299.331,304.11,307.962,312.751,316.65,320.108,322.792,327.598,330.848,334.7,336.671,341.127,345.285,347.256,350.083,354.882,358.734,360.705,365.558,367.756,370.574,373.94,377.892,381.296,385.807,390.757,393.196,397.059,400.868,403.686,406.125,410.636,415.586,417.557,421.456,426.372,431.151,433.122,436.409,439.227,441.666,444.467,446.546,448.517,454.396,457.168,459.139,462.426,465.145,468.997,473.74,475.711,480.058,482.137,484.108,488.898,492.129,496.081,499.485,503.319,507.83,511.196,515.653,519.876,522.18,524.151,528.129,531.963,534.402,539.181,541.152,547.344,551.297,554.6" svgx:width="0.53,0.27,0.37,0.31,0.37,0.27,0.51,0.53,0.31,0.43,0.23,0.51,0.55,0.23,0.31,0.53,0.43,0.23,0.37,0.53,0.37,0.3,0.44,0.42,0.43,0.23,0.51,0.3,0.23,0.71,0.75,0.23,0.44,0.55,0.53,0.23,0.55,0.51,0.31,0.23,0.53,0.43,0.52,0.44,0.37,0.31,0.53,0.37,0.43,0.23,0.51,0.46,0.23,0.31,0.53,0.43,0.23,0.53,0.25,0.31,0.37,0.44,0.37,0.51,0.55,0.27,0.42,0.44,0.31,0.27,0.51,0.55,0.23,0.44,0.55,0.53,0.23,0.37,0.31,0.27,0.37,0.23,0.23,0.69,0.31,0.23,0.37,0.31,0.43,0.52,0.23,0.48,0.23,0.23,0.54,0.36,0.44,0.37,0.42,0.51,0.37,0.51,0.46,0.25,0.23,0.44,0.42,0.27,0.53,0.23,0.69,0.44,0.37,0.23" style="fill:rgb(0,0,0);font-family:MinionPro-Regular;font-size:9.0px;stroke:none;">distribute on the surface of GO and not departure by the ultrasonication and stir. At step 2, L-ascorbyl acid was </text>
   <text y="612.998" x="155.642,160.394,163.769,167.639,172.391,174.155,176.846,181.436,183.2,186.422,190.292,194.936,199.715,203.522,207.347,209.111,213.557,217.805,221.936,226.076,229.901,234.824,236.588,240.395,244.877,249.629,252.428,256.298,258.71,263.633,266.045,270.896,275.108,276.872,279.59,284.369,289.255,293.125,295.915,298.327,302.809,307.705,311.701,313.978,315.742,319.999,323.221,327.712,332.383,337.099,340.402,342.166,345.28,349.05,351.102,355.341,357.393,359.157,362.991,366.861,370.2,374.853,379.299,383.547,387.741,390.018,393.132,394.896,399.378,404.301,406.065,408.863,413.634,417.459,419.223,422.481,427.26,430.653,433.317,437.268,441.075,444.9,446.664,453.099,459.462,461.514,463.278,467.886,471.108,475.779,480.423,485.202,489.009,491.421,496.272,500.484" svgx:width="0.53,0.37,0.43,0.53,0.23,0.31,0.51,0.23,0.37,0.43,0.53,0.53,0.42,0.43,0.23,0.51,0.47,0.46,0.47,0.43,0.55,0.23,0.42,0.51,0.55,0.31,0.44,0.27,0.55,0.27,0.55,0.47,0.23,0.3,0.53,0.55,0.42,0.31,0.27,0.51,0.55,0.44,0.25,0.23,0.47,0.37,0.51,0.53,0.52,0.37,0.23,0.35,0.43,0.23,0.47,0.23,0.23,0.42,0.44,0.37,0.51,0.51,0.47,0.46,0.25,0.35,0.23,0.51,0.55,0.23,0.31,0.53,0.43,0.23,0.37,0.53,0.37,0.3,0.44,0.42,0.43,0.23,0.71,0.75,0.23,0.23,0.52,0.37,0.51,0.53,0.53,0.42,0.27,0.55,0.47,0.23" style="fill:rgb(0,0,0);font-family:MinionPro-Regular;font-size:9.0px;stroke:none;">used to reduce oxygen containing functional groups (e.g. carboxyl) on the surface GO, producing </text>
   <text y="612.998" x="502.248,504.589,509.377,511.159,514.102,516.433,519.115" svgx:width="0.27,0.53,0.23,0.34,0.27,0.31,0.53" style="fill:rgb(0,0,0);font-family:MinionPro-It;font-size:9.0px;stroke:none;">in situ</text>
   <text y="612.998" x="523.931,525.695,528.917,532.787,537.431,542.21,546.017,549.887,554.639" svgx:width="0.23,0.37,0.43,0.53,0.53,0.42,0.43,0.53,0.23" style="fill:rgb(0,0,0);font-family:MinionPro-Regular;font-size:9.0px;stroke:none;"> reduced </text>
   <text y="622.997" x="155.642,162.077,168.8,170.69,173.804,177.143,183.578,190.301,193.415,195.467,197.357,200.696,207.131,213.854,215.744,220.523,224.447,227.75,229.64,232.943,240.287,244.282,246.604,248.881,252.706,256.045,257.935,261.31,265.837,268.006,272.749,277.213,279.669,281.946,284.25,287.022,291.153,293.043,295.455,300.378,302.268,308.433,312.213,314.904,318.729,322.068,323.958,326.757,331.536,335.406,340.329,342.219,348.654,355.377,357.267,361.92,365.79,369.623,373.403,378.155,381.53,385.355,387.245,390.044,394.814,398.639,400.529,403.751,407.621,412.265,417.044,420.914,423.704,426.116,430.599,435.522,437.412,441.894,444.558,446.448,451.245,455.772,458.076,461.946,465.285,467.175,471.621,475.869,480.0,484.14,487.965,492.888,494.778,498.585,503.067,507.819,510.618,514.488,516.9,521.823,524.235,529.086,533.298,535.188,537.906,542.685,547.572,551.379" svgx:width="0.71,0.75,0.23,0.35,0.37,0.71,0.75,0.35,0.23,0.23,0.37,0.71,0.75,0.23,0.53,0.44,0.37,0.23,0.37,0.82,0.44,0.25,0.25,0.43,0.37,0.23,0.37,0.51,0.25,0.53,0.51,0.27,0.25,0.27,0.31,0.46,0.23,0.27,0.55,0.23,0.69,0.44,0.31,0.43,0.37,0.23,0.31,0.53,0.44,0.55,0.23,0.71,0.75,0.23,0.51,0.43,0.42,0.44,0.53,0.37,0.43,0.23,0.31,0.53,0.43,0.23,0.37,0.43,0.53,0.53,0.42,0.31,0.27,0.51,0.55,0.23,0.51,0.3,0.23,0.52,0.51,0.25,0.44,0.37,0.23,0.51,0.47,0.46,0.47,0.43,0.55,0.23,0.42,0.51,0.55,0.31,0.44,0.27,0.55,0.27,0.55,0.47,0.23,0.3,0.53,0.55,0.42,0.36" style="fill:rgb(0,0,0);font-family:MinionPro-Regular;font-size:9.0px;stroke:none;">GO (rGO). rGO has smaller solubility in water than GO because the reduction of polar oxygen containing func-</text>
   <text y="632.996" x="155.642,158.471,160.924,165.446,170.382,174.418,176.735,178.715,183.012,186.274,190.805,195.516,200.272,203.615,205.595,212.979,217.016,221.438,225.304,228.646,230.626,237.102,243.864,245.844,248.161,252.026,255.324,258.668,260.648,265.286,269.386,274.178,277.44,281.971,286.664,291.51,294.007,296.325,298.776,302.624,304.715,306.695,311.128,315.496,317.589,319.569,323.533,326.876,328.856,335.332,342.094,344.074,347.382,352.192,356.102,359.966,362.752,364.732,369.424,373.289,377.542,381.452,386.415,388.395,391.125,395.756,397.736,400.43,405.25,408.683,413.646,415.626,418.078,422.87,425.601,430.231,432.211,435.05,439.86,443.725,445.705,449.085,455.559,461.963,464.054,466.034,468.874,473.683,477.549,479.529,484.321,488.149,490.467,495.177,499.052,503.087,505.405,507.856,511.677,515.587,520.378" svgx:width="0.31,0.27,0.51,0.55,0.44,0.25,0.23,0.47,0.37,0.51,0.53,0.52,0.37,0.23,0.82,0.44,0.5,0.43,0.37,0.23,0.71,0.75,0.23,0.25,0.43,0.37,0.37,0.23,0.53,0.46,0.53,0.37,0.51,0.52,0.53,0.27,0.25,0.27,0.42,0.23,0.23,0.47,0.51,0.23,0.23,0.44,0.37,0.23,0.71,0.75,0.23,0.37,0.53,0.43,0.43,0.31,0.23,0.51,0.43,0.47,0.44,0.55,0.23,0.31,0.51,0.23,0.31,0.53,0.37,0.55,0.23,0.27,0.55,0.31,0.51,0.23,0.31,0.53,0.43,0.23,0.37,0.71,0.75,0.23,0.23,0.31,0.53,0.43,0.23,0.53,0.43,0.25,0.51,0.42,0.44,0.25,0.27,0.42,0.43,0.53,0.23" style="fill:rgb(0,0,0);font-family:MinionPro-Regular;font-size:9.0px;stroke:none;">tional groups makes GO less hydrophilic. So, as GO sheet began to turn into the rGO, the delocalized </text>
   <text y="632.996" x="522.358" svgx:width="0.6" style="fill:rgb(0,0,0);font-family:EuclidSymbol;font-size:9.0px;stroke:none;">π</text>
   <text y="632.996" x="527.783,528.197,531.441,536.134,540.657,545.583,550.142,551.334,554.636" svgx:width="0.23,0.36,0.51,0.51,0.55,0.53,0.22,0.37,0.23" style="fill:rgb(0,0,0);font-family:MinionPro-Regular;font-size:9.0px;stroke:none;"> -bond’s </text>
   <text y="642.995" x="155.642,159.512,164.061,168.878,171.159,176.001,180.276,184.121,186.978,189.394,193.555,197.443,199.513,203.401,208.435,212.372,216.308,219.116,221.186,227.346,231.903,236.793,239.133,243.948,246.018,250.738,254.626,256.696,259.171,264.123,267.993,271.282,275.228,279.218,282.659,286.595,291.41,293.48,297.417,302.371,307.186,309.256,313.144,318.177,320.548,324.485,327.818,332.024,335.961,340.725,342.84,344.91,354.58,358.468,360.538,363.358,366.647,370.535,373.868,378.786,381.067,385.261,387.331,389.98,394.528,397.988,405.389,409.325,414.14,416.21,419.612,426.11,432.896,434.966,438.3,443.136,447.072,450.96,453.768,457.134,459.204,465.363,469.921,474.811,477.151,481.966,484.036,487.36,490.226,494.24,498.059,502.586,504.656,509.204,514.19,516.26,520.817,523.683,528.519,532.407,535.809,537.879,541.281,547.779,554.502" svgx:width="0.42,0.51,0.55,0.26,0.53,0.47,0.44,0.31,0.27,0.46,0.43,0.23,0.43,0.56,0.43,0.42,0.31,0.23,0.69,0.51,0.53,0.25,0.53,0.23,0.51,0.43,0.23,0.27,0.55,0.42,0.37,0.43,0.44,0.37,0.43,0.53,0.23,0.44,0.55,0.53,0.23,0.43,0.55,0.25,0.44,0.37,0.47,0.43,0.53,0.23,0.23,1.07,0.43,0.23,0.3,0.37,0.43,0.37,0.53,0.25,0.46,0.23,0.3,0.51,0.37,0.82,0.43,0.53,0.23,0.37,0.71,0.75,0.23,0.37,0.53,0.43,0.43,0.31,0.37,0.23,0.69,0.51,0.53,0.25,0.53,0.23,0.37,0.31,0.44,0.42,0.5,0.23,0.51,0.55,0.23,0.51,0.31,0.53,0.43,0.37,0.23,0.37,0.71,0.75,0.23" style="fill:rgb(0,0,0);font-family:MinionPro-Regular;font-size:9.0px;stroke:none;">conjugative effect would be increased and enlarged. The freshly formed rGO sheets would stack on other rGO </text>
   <text y="652.994" x="155.642,159.012,163.883,167.856,171.78,174.624,178.026,180.222,184.248,187.65,189.846,193.896,196.092,199.417,203.341,206.701,211.627,213.899,216.743,218.939,223.523,226.286,228.482,231.384,236.257,240.181" svgx:width="0.37,0.53,0.43,0.43,0.31,0.37,0.23,0.44,0.37,0.23,0.44,0.23,0.37,0.43,0.37,0.53,0.25,0.31,0.23,0.51,0.3,0.23,0.31,0.53,0.43,0.23" style="fill:rgb(0,0,0);font-family:MinionPro-Regular;font-size:9.0px;stroke:none;">sheets as a result of the </text>
   <text y="652.994" x="242.377" svgx:width="0.6" style="fill:rgb(0,0,0);font-family:EuclidSymbol;font-size:9.0px;stroke:none;">π</text>
   <text y="652.994" x="247.892,248.369" svgx:width="0.23,0.52" style="fill:rgb(0,0,0);font-family:MinionPro-Regular;font-size:9.0px;stroke:none;"> –</text>
   <text y="652.994" x="253.148" svgx:width="0.6" style="fill:rgb(0,0,0);font-family:EuclidSymbol;font-size:9.0px;stroke:none;">π</text>
   <text y="652.994" x="258.629,259.106,261.302,264.663,267.564,271.614,275.47,280.072,282.583,287.537,291.848,294.044,296.555,301.409,304.202,308.126,311.564,315.614,319.587,322.479,324.99,329.575,334.529,337.931,340.127,344.099,349.088,353.939,356.135,359.613,363.504,365.88,368.643,371.946,375.973,379.332,382.81,386.734,394.117,398.728,401.104,405.076,409.927,412.123,414.634,419.489,422.282,426.971,429.167,433.217,435.413,439.832,446.546,448.742,452.103,454.995,458.526,463.404,467.377,470.133,475.011,478.336,482.21,484.361,486.557,492.851,498.138,502.062,505.5,507.696,510.597,515.469,519.393,521.589,525.445,530.316,534.24,541.71,544.221,548.158,552.256,554.533" svgx:width="0.23,0.23,0.37,0.31,0.44,0.42,0.5,0.27,0.55,0.47,0.23,0.27,0.55,0.31,0.43,0.37,0.44,0.42,0.31,0.27,0.51,0.55,0.37,0.23,0.44,0.55,0.53,0.23,0.37,0.43,0.25,0.3,0.36,0.44,0.37,0.37,0.43,0.82,0.51,0.25,0.43,0.53,0.23,0.27,0.55,0.31,0.51,0.23,0.44,0.23,0.48,0.74,0.23,0.37,0.31,0.37,0.53,0.42,0.31,0.53,0.37,0.43,0.23,0.23,0.69,0.58,0.43,0.37,0.23,0.31,0.53,0.43,0.23,0.42,0.53,0.43,0.82,0.27,0.42,0.44,0.25,0.23" style="fill:rgb(0,0,0);font-family:MinionPro-Regular;font-size:9.0px;stroke:none;"> stacking interactions and self-assembled into a 3D structure. After the chemical </text>
   <text y="662.993" x="155.642,158.849,162.714,166.647,170.503,173.278,175.672,180.14,185.045,186.764,190.62,195.492,200.226,201.945,205.711,208.438,210.157,213.4,216.077,219.884,224.582,226.301,230.603,232.637,234.356,237.141,241.896,245.703,248.911,252.718,254.437,258.293,261.501,265.308,267.027,270.271,273.047,275.489,277.796,280.055,281.774,289.104,292.959,297.662,301.775,303.494,307.926,312.156,316.269,320.394,324.201,329.106,330.825,334.614,339.083,343.82,346.605,350.46,352.854,357.759,360.154,364.99,369.184,370.903,373.607,378.368,383.24,387.096,389.871,392.265,396.733,401.616,405.596,407.855,409.574,413.817,417.025,421.501,426.159,430.857,434.142,435.861,438.12,441.927,447.147,448.866,453.333,458.238,459.957,463.278,469.695,476.4,478.119,481.372,486.128,489.983,493.79,496.517,499.802,501.836,503.555,506.34,510.96,515.699,518.984,521.018,522.737,525.521,530.277,534.084,535.803,540.0,544.905" svgx:width="0.37,0.43,0.44,0.42,0.31,0.27,0.51,0.55,0.23,0.44,0.55,0.53,0.23,0.44,0.31,0.23,0.37,0.31,0.43,0.52,0.23,0.48,0.23,0.23,0.31,0.53,0.43,0.37,0.43,0.23,0.44,0.37,0.43,0.23,0.37,0.31,0.27,0.25,0.25,0.23,0.82,0.44,0.55,0.46,0.23,0.51,0.47,0.46,0.47,0.43,0.55,0.23,0.42,0.51,0.55,0.31,0.44,0.27,0.55,0.27,0.55,0.47,0.23,0.3,0.53,0.55,0.42,0.31,0.27,0.51,0.55,0.44,0.25,0.23,0.47,0.37,0.51,0.53,0.52,0.37,0.23,0.25,0.43,0.58,0.23,0.51,0.55,0.23,0.37,0.71,0.75,0.23,0.37,0.53,0.43,0.43,0.31,0.37,0.23,0.23,0.31,0.53,0.53,0.37,0.23,0.23,0.31,0.53,0.43,0.23,0.47,0.55,0.75" style="fill:rgb(0,0,0);font-family:MinionPro-Regular;font-size:9.0px;stroke:none;">reaction and at step 3, there are still many oxygen containing functional groups left on rGO sheets, thus, the SnO</text>
   <text y="664.8" x="551.83" svgx:width="0.48" style="fill:rgb(0,0,0);font-family:MinionPro-Regular;font-size:5.85px;stroke:none;">2</text>
   <text y="663.0" x="554.638" svgx:width="0.23" style="fill:rgb(0,0,0);font-family:MinionPro-Regular;font-size:9.0px;stroke:none;"> </text>
   <text y="672.999" x="155.641,160.537,164.407,169.294,173.785,178.546,182.416,185.845,188.635,191.047,194.799,197.076,200.901,204.204,206.049,212.241,214.545,217.344,222.15,223.995,228.791,233.319,235.622,239.492,242.831,244.676,247.934,252.713,256.106,258.77,262.721,266.528,270.353,273.656,275.501,281.594,286.085,290.909,293.186,297.938,299.783,302.195,306.947,309.638,313.463,316.802,320.753,324.622,327.367,329.212,335.404,337.708,340.507,345.313,347.158,349.957,354.727,359.317,362.691,366.516,368.361,371.079,375.858,380.745,384.615,387.405,389.817,394.298,399.195,403.19,405.467,407.312,411.569,414.791,419.282,423.953,428.669,431.972,433.817,438.011,440.449,444.4,446.245,450.844,454.903,459.655,462.877,467.467,471.607,475.432,480.355,482.201,486.853,491.335,496.222,500.974,503.386,508.237,512.476,514.528,516.373,521.593,525.724,527.568,531.438,536.361,541.248,545.127,549.123,551.4" svgx:width="0.55,0.44,0.55,0.51,0.52,0.44,0.37,0.31,0.27,0.42,0.25,0.43,0.37,0.23,0.69,0.27,0.31,0.53,0.23,0.52,0.51,0.25,0.44,0.37,0.23,0.37,0.53,0.37,0.3,0.44,0.42,0.43,0.37,0.23,0.69,0.51,0.53,0.25,0.53,0.23,0.27,0.55,0.31,0.43,0.37,0.44,0.42,0.31,0.23,0.69,0.27,0.31,0.53,0.23,0.31,0.53,0.51,0.37,0.43,0.23,0.3,0.53,0.55,0.42,0.31,0.27,0.51,0.55,0.44,0.25,0.23,0.47,0.37,0.51,0.53,0.52,0.37,0.23,0.46,0.27,0.44,0.23,0.53,0.46,0.53,0.37,0.51,0.47,0.43,0.55,0.23,0.51,0.51,0.55,0.53,0.27,0.55,0.47,0.23,0.23,0.59,0.46,0.23,0.44,0.55,0.55,0.43,0.44,0.25,0.36" style="fill:rgb(0,0,0);font-family:MinionPro-Regular;font-size:9.0px;stroke:none;">nanoparticles with polar surfaces would interact with those functional groups via hydrogen bonding. By anneal-</text>
   <text y="682.998" x="155.641,158.044,162.889,167.092,168.82,172.592,175.328,177.056,181.367,185.678,189.989,191.119,194.197,200.173,202.216,203.944,206.736,211.498,215.314,217.042,221.634,225.686,230.429,233.644,238.225,242.358,246.174,251.088,252.816,257.462,261.937,266.817,271.536,274.83,276.558,283.894,287.677,291.799,293.527,296.175,300.945,304.331,309.245,310.973,313.376,318.121,320.805,325.386,327.114,331.554,335.793,339.915,344.048,347.864,352.778,354.506,358.963,362.349,364.752,369.495,373.628,377.444,380.738,382.466,387.112,390.928,393.693,399.779,403.642,407.458,412.372,414.1,418.306,423.22" svgx:width="0.27,0.55,0.47,0.23,0.44,0.31,0.23,0.48,0.48,0.48,0.23,0.34,0.67,0.23,0.23,0.31,0.53,0.43,0.23,0.53,0.46,0.53,0.37,0.51,0.47,0.43,0.55,0.23,0.51,0.51,0.55,0.53,0.37,0.23,0.82,0.44,0.46,0.23,0.31,0.53,0.37,0.55,0.23,0.27,0.55,0.31,0.51,0.23,0.51,0.47,0.46,0.47,0.43,0.55,0.23,0.51,0.37,0.27,0.53,0.47,0.43,0.37,0.23,0.51,0.43,0.31,0.69,0.43,0.43,0.55,0.23,0.47,0.55,0.75" style="fill:rgb(0,0,0);font-family:MinionPro-Regular;font-size:9.0px;stroke:none;">ing at 550 °C, the hydrogen bonds may turn into oxygen bridges between SnO</text>
   <text y="684.8" x="430.005" svgx:width="0.48" style="fill:rgb(0,0,0);font-family:MinionPro-Regular;font-size:5.85px;stroke:none;">2</text>
   <text y="683.0" x="432.809,434.537,438.399,443.28,448.023,449.751,453.081,459.507,465.864,467.907,469.635,472.211,476.686,480.072,487.434,489.837,494.681,498.884,500.612,504.818,509.732,512.927,519.641,522.836,528.812,530.54,535.185,539.661,544.541,549.26,552.554,554.606" svgx:width="0.23,0.44,0.55,0.53,0.23,0.37,0.71,0.75,0.23,0.23,0.3,0.51,0.37,0.82,0.27,0.55,0.47,0.23,0.47,0.55,0.36,0.75,0.36,0.67,0.23,0.51,0.51,0.55,0.53,0.37,0.23,0.23" style="fill:rgb(0,0,0);font-family:MinionPro-Regular;font-size:9.0px;stroke:none;"> and rGO, forming Sn-O-C bonds. </text>
   <text y="692.999" x="155.636,165.2,168.989,172.171,175.96,178.505,182.948,186.131,189.863,191.879,193.58,196.34,201.071,204.86,206.561,210.734,215.621" svgx:width="1.07,0.43,0.37,0.43,0.3,0.51,0.37,0.43,0.23,0.23,0.31,0.53,0.43,0.23,0.47,0.55,0.75" style="fill:rgb(0,0,0);font-family:MinionPro-Regular;font-size:9.0px;stroke:none;">Therefore, the SnO</text>
   <text y="694.8" x="222.288" svgx:width="0.48" style="fill:rgb(0,0,0);font-family:MinionPro-Regular;font-size:5.85px;stroke:none;">2</text>
   <text y="693.0" x="225.07,226.771,231.629,235.46,240.308,244.76,249.482,253.313,256.703,259.455,261.831,265.545,267.786,271.575,274.842,276.543,280.374,283.558,287.347,289.048,292.879,297.727,301.442,306.173,310.616,313.799,317.63,322.346,324.047,327.266,330.018,333.201,337.644,342.456,346.692,348.867,352.962,354.663,359.106,363.993,365.694,368.455,373.185,376.974,378.675,382.893,386.196,389.938,394.551,399.282,403.071,407.92,411.709,413.41,416.629,421.372,424.726,427.354,431.269,435.04,438.829,440.53,443.291,448.061,451.244,455.696,460.439,464.675,469.445,471.146,475.061,476.762,482.711,485.879,492.566,495.734,499.908,504.795,506.496,510.921,514.275,516.651,521.367,525.469,529.201,531.217,532.918,539.107,543.877,546.253,549.968,554.774" svgx:width="0.23,0.55,0.44,0.55,0.51,0.52,0.44,0.37,0.31,0.27,0.42,0.25,0.43,0.37,0.23,0.44,0.37,0.43,0.23,0.44,0.55,0.42,0.53,0.51,0.37,0.43,0.53,0.23,0.37,0.31,0.37,0.51,0.55,0.47,0.25,0.46,0.23,0.51,0.55,0.23,0.31,0.53,0.43,0.23,0.47,0.37,0.44,0.52,0.53,0.43,0.55,0.43,0.23,0.37,0.53,0.37,0.3,0.44,0.42,0.43,0.23,0.31,0.53,0.37,0.51,0.53,0.47,0.53,0.23,0.44,0.23,0.67,0.36,0.75,0.36,0.47,0.55,0.23,0.51,0.37,0.27,0.53,0.47,0.43,0.23,0.23,0.69,0.53,0.27,0.42,0.53,0.23" style="fill:rgb(0,0,0);font-family:MinionPro-Regular;font-size:9.0px;stroke:none;"> nanoparticles are anchored strongly on the graphene surface through a C-O-Sn bridge, which </text>
   <text y="702.999" x="155.635,158.29,162.232,166.03,168.481,170.749,173.048,175.841,179.616,182.301,186.117,189.411,191.139,193.933,198.698,202.514,204.242,208.024,210.292,214.157,218.021,220.805,224.022,228.498,233.412,235.14,237.924,241.254,245.119,249.964,253.258,255.836,259.652,262.982,264.71,268.574,273.456,278.199,279.927,282.33,289.525,294.127,297.344,301.784,305.874,309.69,311.418,314.212,318.976,322.792,324.52,328.304,330.572,334.436,338.301,341.086,344.302,348.967,353.71,357.526,359.254,362.506,365.299,369.173,373.631,376.083,378.351,380.65,383.415,386.884,388.927,390.655,395.407,397.81,402.701,406.691,409.008,411.216,414.685,416.728,418.456,424.544,428.36,430.088,434.627,439.095,441.888,445.753,448.156,453.07,454.798,458.74,460.468,465.26,469.736,472.953,477.438,482.185,485.479,487.207,493.394,497.651,504.077,508.829,510.557,516.743,519.042,521.835,526.632,528.36,531.577,535.361,537.658,541.433,544.218,546.561,550.651,554.476" svgx:width="0.3,0.44,0.42,0.27,0.25,0.27,0.31,0.44,0.31,0.43,0.37,0.23,0.31,0.53,0.43,0.23,0.43,0.25,0.43,0.42,0.31,0.37,0.51,0.55,0.23,0.31,0.37,0.44,0.55,0.37,0.3,0.43,0.37,0.23,0.44,0.55,0.53,0.23,0.27,0.82,0.52,0.37,0.51,0.46,0.43,0.23,0.31,0.53,0.43,0.23,0.43,0.25,0.43,0.42,0.31,0.37,0.51,0.53,0.43,0.23,0.37,0.31,0.44,0.51,0.27,0.25,0.27,0.31,0.46,0.23,0.23,0.53,0.27,0.55,0.44,0.25,0.25,0.46,0.23,0.23,0.69,0.43,0.23,0.51,0.51,0.31,0.44,0.27,0.55,0.23,0.44,0.23,0.52,0.51,0.37,0.51,0.53,0.37,0.23,0.69,0.47,0.71,0.53,0.23,0.69,0.27,0.31,0.53,0.23,0.37,0.43,0.25,0.44,0.31,0.27,0.46,0.43,0.23" style="fill:rgb(0,0,0);font-family:MinionPro-Regular;font-size:9.0px;stroke:none;">facilitates the electron transfer and improve the electrode stability. Finally, we obtain a porous ASGF with relative </text>
   <text y="712.998" x="155.635,160.387,164.212,169.063,172.366,174.67,177.442,181.573,183.409,187.891,190.555,192.391,197.611,201.931,206.251,207.385,214.684,218.896,220.732,224.539" svgx:width="0.53,0.43,0.55,0.37,0.27,0.31,0.46,0.23,0.51,0.3,0.23,0.58,0.48,0.48,0.23,0.82,0.47,0.23,0.42,0.82" style="fill:rgb(0,0,0);font-family:MinionPro-Regular;font-size:9.0px;stroke:none;">density of ~19 mg cm</text>
   <text y="709.94" x="231.911" svgx:width="0.78" style="fill:rgb(0,0,0);font-family:EuclidSymbol;font-size:5.85px;stroke:none;">−</text>
   <text y="709.94" x="236.462" svgx:width="0.48" style="fill:rgb(0,0,0);font-family:MinionPro-Regular;font-size:5.85px;stroke:none;">3</text>
   <text y="713.0" x="239.27" svgx:width="0.23" style="fill:rgb(0,0,0);font-family:MinionPro-Regular;font-size:9.0px;stroke:none;">.</text>
   <text y="722.999" x="167.639,177.377,181.337,183.65,191.12,195.738,199.302,204.091,208.996,213.659,216.071,220.796,225.188,227.735,231.695,235.133,237.446,242.063,244.862,247.175,250.109,255.015,258.975,261.288,265.347,268.785,272.124,276.867,280.224,284.184,289.08,293.085,296.443,300.448,305.335,307.648,313.975,318.376,324.946,329.842,332.155,338.384,342.344,345.701,349.661,351.974,354.521,359.373,363.603,367.563,370.956,373.881,376.428,380.775,384.69,387.517,391.522,396.409,398.722,403.285,407.551,409.864,414.158,419.405,427.559,429.872,433.877,438.9,443.787,446.1,451.788,457.035,465.189,467.376,469.689,474.721,478.987,483.73,486.277,490.246,494.377,496.789,499.102,503.396,508.643,516.797,519.11,521.657,529.136,533.177,537.452,541.412,544.85,547.163,549.71,554.633" svgx:width="1.07,0.43,0.23,0.82,0.51,0.37,0.52,0.53,0.51,0.25,0.51,0.47,0.27,0.43,0.37,0.23,0.51,0.3,0.23,0.31,0.53,0.43,0.23,0.44,0.37,0.36,0.52,0.37,0.43,0.52,0.44,0.37,0.43,0.53,0.23,0.69,0.47,0.71,0.53,0.23,0.69,0.43,0.37,0.43,0.23,0.27,0.55,0.46,0.43,0.37,0.31,0.27,0.47,0.44,0.31,0.43,0.53,0.23,0.51,0.46,0.23,0.47,0.57,0.89,0.23,0.44,0.55,0.53,0.23,0.62,0.57,0.89,0.23,0.23,0.62,0.46,0.52,0.27,0.42,0.44,0.25,0.23,0.47,0.57,0.89,0.23,0.27,0.82,0.44,0.47,0.43,0.37,0.23,0.27,0.55,0.23" style="fill:rgb(0,0,0);font-family:MinionPro-Regular;font-size:9.0px;stroke:none;">The morphologies of the as-prepared ASGF were investigated by SEM and TEM. Typical SEM images in </text>
   <text y="732.998" x="155.642,160.466,162.941,167.244,169.359,171.424,175.807,182.089,184.204,189.559,191.625,194.957,199.792,204.302,210.53,212.596,215.46,220.303,224.148,226.956,229.022,235.279,239.608,246.106,250.93,252.995,257.857,262.51,265.833,269.272,273.16,276.482,279.848,281.914,285.928,287.993,292.376,299.054,301.12,304.443,307.298,310.791,315.633,319.567,322.287,327.129,330.416,334.304,336.369,342.625,344.994,347.858,352.727,354.792,357.267,362.084,364.84,368.728,372.014,375.884,380.431,385.417,390.369,394.303,398.238,400.994,404.928,409.743,411.808,416.67,421.217,424.504,428.392,431.758,433.823,437.225,441.16,446.076,450.398,452.873,457.789,462.064,464.129,466.948,470.235,474.781,482.215,484.28,487.72,491.682,495.841,499.729,503.131,507.191,509.531,511.597,516.558,520.492,525.444,529.991,537.391,541.279,544.035,547.923,551.273,554.576" svgx:width="0.53,0.27,0.47,0.23,0.23,0.48,0.69,0.23,0.59,0.23,0.37,0.53,0.51,0.69,0.23,0.31,0.53,0.44,0.31,0.23,0.69,0.47,0.71,0.53,0.23,0.52,0.51,0.37,0.37,0.43,0.37,0.37,0.23,0.44,0.23,0.48,0.74,0.23,0.37,0.31,0.37,0.53,0.42,0.31,0.53,0.37,0.43,0.23,0.69,0.27,0.31,0.53,0.23,0.27,0.55,0.31,0.43,0.37,0.42,0.51,0.55,0.55,0.43,0.42,0.31,0.43,0.53,0.23,0.52,0.51,0.37,0.43,0.37,0.23,0.37,0.44,0.55,0.47,0.27,0.55,0.47,0.23,0.3,0.37,0.51,0.82,0.23,0.37,0.43,0.46,0.43,0.37,0.44,0.25,0.23,0.55,0.44,0.55,0.51,0.82,0.43,0.31,0.43,0.37,0.37,0.23" style="fill:rgb(0,0,0);font-family:MinionPro-Regular;font-size:9.0px;stroke:none;">Fig. 2A,B show that ASGF possess a 3D structure with interconnected pores ranging from several nanometers </text>
  </g>
  <rect style="stroke:blue;stroke-width:0.3;" x="155.638" y="64.138" height="256.92" width="360.0" title="2"/>
  <text y="64.138" class="image" id="image.2.1" width="360" height="256" x="155.638">image.2.1.156_516.64_321</text>
  <path style="fill:none;stroke:rgb(131,144,151);stroke-width:0.3;" d="M159.130 331.960 L552.640 331.960 "/>
  <path style="fill:none;stroke:rgb(131,144,151);stroke-width:1.0;" d="M156.140 331.960 L156.140 331.960 M554.140 331.960 L554.140 331.960 "/>
  <g begin="text">
   <text y="321.963" x="155.638,160.552,163.207,167.662,172.657,176.221,180.154,181.909,186.409" svgx:width="0.55,0.29,0.49,0.56,0.4,0.44,0.22,0.5,0.25" style="fill:rgb(0,0,0);font-family:MinionPro-Bold;font-size:9.0px;stroke:none;">Figure 1.</text>
   <text y="321.963" x="188.695" svgx:width="0.23" style="fill:rgb(0,0,0);font-family:MinionPro-Regular;font-size:9.0px;stroke:none;"> </text>
   <text y="321.963" x="193.195,197.848,201.646,206.596,210.484,218.071,222.129,225.135,227.844,231.642,233.397,236.826,239.418,241.875,246.87,250.281,253.287,256.995,261.054,264.06,266.769,271.404,276.498,278.253,282.888,285.867,287.622,292.905,296.469,300.429,305.432,309.581,313.289,317.348,320.354,323.063,327.698,332.792,334.547,339.182,342.161,343.916,350.153,354.698,361.241,365.3,367.586" svgx:width="0.5,0.42,0.55,0.44,0.84,0.47,0.34,0.29,0.42,0.22,0.38,0.28,0.28,0.56,0.38,0.34,0.4,0.47,0.34,0.29,0.52,0.57,0.22,0.52,0.33,0.22,0.6,0.4,0.44,0.55,0.47,0.4,0.47,0.34,0.29,0.52,0.57,0.22,0.52,0.33,0.22,0.71,0.5,0.73,0.55,0.25,0.22" style="fill:rgb(0,0,0);font-family:MinionPro-Bold;font-size:9.0px;stroke:none;">Schematic Illustration of Preparation of ASGF. </text>
  </g>
 </g>
</svg>
