<?xml version="1.0" encoding="UTF-8"?>
<svg height="774.23" width="4165.638" xmlns="http://www.w3.org/2000/svg">
 <g id="page" xmlns:svgx="http://www.xml-cml.org/schema/svgx">
  <g begin="text">
   <text y="22.46" x="40.638,48.208,55.778,63.055,66.145,71.865,77.215,81.135,86.765,90.565,95.995,99.085,103.915,109.695,118.435,121.635,126.125,130.955,133.725,139.15,144.87,148.79,151.56,155.19,157.96,162.79,166.59,172.02,177.78,183.56,187.36,191.28,195.77" svgx:width="0.71,0.71,0.71,0.26,0.53,0.49,0.35,0.52,0.34,0.5,0.26,0.44,0.53,0.83,0.28,0.4,0.44,0.23,0.5,0.53,0.35,0.23,0.32,0.23,0.44,0.34,0.5,0.53,0.53,0.34,0.35,0.4,0.28" style="fill:rgb(255,255,255);font-family:Corbel;font-size:10.0px;stroke:none;">www.nature.com/scientificreports/</text>
  </g>
  <g begin="text">
   <text y="764.23" x="550.106" svgx:width="0.45" style="fill:rgb(131,144,151);font-family:Corbel;font-size:10.0px;stroke:none;">3</text>
  </g>
  <g begin="text">
   <text y="764.193" x="40.794,45.642,50.786,53.186,58.026,64.026,68.898,71.298,75.762,78.162" svgx:width="0.55,0.59,0.25,0.55,0.7,0.56,0.25,0.5,0.25,0.59" style="fill:rgb(131,144,151);font-family:Corbel;font-size:8.0px;stroke:none;">Scientific</text>
   <text y="764.193" x="83.162" svgx:width="0.2" style="fill:rgb(0,0,0);font-family:Corbel;font-size:8.0px;stroke:none;"> </text>
   <text y="764.193" x="84.762,90.218,95.194,100.434,106.738,112.194,117.186" svgx:width="0.63,0.57,0.6,0.73,0.63,0.57,0.58" style="fill:rgb(131,144,151);font-family:Corbel-Bold;font-size:8.0px;stroke:none;">RepoRts</text>
   <text y="764.193" x="122.082,123.524,125.34,126.781,130.885,132.997,137.102,141.206,145.31,149.414,153.518,154.946,156.762,158.203,163.571,169.411,171.379,173.491,174.93,179.034,183.138,185.25,189.354,193.458,197.562,201.666,203.866,207.098,209.778,213.762,218.01,222.114,226.218,230.322,234.426" svgx:width="0.2,0.23,0.2,0.51,0.26,0.51,0.51,0.51,0.51,0.51,0.2,0.23,0.2,0.67,0.73,0.25,0.26,0.2,0.51,0.51,0.26,0.51,0.51,0.51,0.51,0.28,0.4,0.34,0.5,0.53,0.51,0.51,0.51,0.51,0.51" style="fill:rgb(0,0,0);font-family:Corbel;font-size:8.0px;stroke:none;"> | 6:19195 | DOI: 10.1038/srep19195</text>
  </g>
  <path style="fill:none;stroke:rgb(0,0,0);stroke-width:1.0;" d="M40.640 752.550 L554.640 752.550 "/>
  <g begin="text">
   <text y="581.5" x="155.638,158.384,163.028,165.062,168.492,172.444,176.594,180.473,183.866,187.916,190.247,192.281,199.706,202.172,206.033,209.311,213.848,221.238,225.117,227.863,231.742,235.082,238.439,240.545,242.579,250.419,254.957,258.233,262.158,266.659,270.809,274.688,277.515,279.621,281.655,284.509,289.334,293.213,295.247,299.126,304.069,307.948,311.27,315.752,319.937,321.971,326.777,329.216,332.529,337.381,341.26,344.6,347.957,350.361,354.511,358.39,360.424,366.364,369.622,373.015,376.859,381.044,383.078,386.391,391.243,395.168,399.092,401.937,405.214,409.858,413.288,417.149,421.695,426.322,430.507,432.541,435.709,440.875,447.285,453.225,456.393,458.427,465.817,469.751,473.729,477.042,481.875,485.152,489.031,496.421,500.3,505.108,507.907,509.941,514.478,517.196,519.23,522.084,526.909,530.788,532.822,539.069,543.389,549.878,554.639" svgx:width="0.31,0.51,0.23,0.37,0.43,0.46,0.43,0.37,0.44,0.25,0.23,0.82,0.27,0.42,0.37,0.51,0.82,0.43,0.31,0.43,0.37,0.37,0.23,0.23,0.89,0.51,0.37,0.43,0.51,0.46,0.43,0.37,0.23,0.23,0.31,0.53,0.43,0.23,0.43,0.55,0.43,0.37,0.47,0.46,0.23,0.53,0.27,0.37,0.52,0.43,0.37,0.37,0.27,0.46,0.43,0.23,0.65,0.36,0.37,0.44,0.46,0.23,0.37,0.52,0.43,0.42,0.31,0.37,0.51,0.37,0.42,0.51,0.52,0.46,0.23,0.35,0.57,0.74,0.65,0.35,0.23,0.82,0.43,0.44,0.37,0.53,0.37,0.43,0.82,0.43,0.55,0.31,0.23,0.51,0.3,0.23,0.31,0.53,0.43,0.23,0.69,0.47,0.71,0.53,0.23" style="fill:rgb(0,0,0);font-family:MinionPro-Regular;font-size:9.0px;stroke:none;">to several micrometers. Moreover, the energy dispersive X-ray spectroscopy (EDX) measurement of the ASGF </text>
   <text y="591.499" x="155.638,158.908,162.852,166.996,170.923,174.966,177.264,180.612,182.619,185.466,190.293,194.121,196.911,198.918,203.574,206.843,210.713,214.136,218.006,222.941,226.793,230.663,232.67,237.2,239.909,241.916,246.176,251.144,253.241,255.248,261.659,263.756,265.763,269.681,274.616,279.413,281.42,287.45,289.547,291.554,294.713,299.519,301.976,306.263,308.36,310.366,314.731,319.888,323.047,325.144,327.151,336.802,340.672,342.679,348.277,353.434,361.498,363.505,365.962,373.353,377.308,381.495,385.365,388.713,390.72,393.879,398.685,401.142,405.429,407.526,409.532,413.897,419.927,422.024,428.684,431.843,433.85,437.165,441.983,446.477,452.687,454.694,457.541,462.368,466.196,468.986,470.993,473.84,478.658,482.528,484.535,488.794,493.762" svgx:width="0.37,0.43,0.46,0.43,0.44,0.25,0.37,0.23,0.31,0.53,0.44,0.31,0.23,0.52,0.37,0.43,0.37,0.43,0.55,0.42,0.43,0.23,0.51,0.3,0.23,0.47,0.55,0.23,0.23,0.75,0.23,0.23,0.44,0.55,0.53,0.23,0.67,0.23,0.23,0.35,0.53,0.27,0.47,0.23,0.23,0.48,0.57,0.35,0.23,0.23,1.07,0.43,0.23,0.62,0.57,0.89,0.23,0.27,0.82,0.44,0.47,0.43,0.37,0.23,0.35,0.53,0.27,0.47,0.23,0.23,0.48,0.67,0.23,0.74,0.35,0.23,0.37,0.53,0.51,0.69,0.23,0.31,0.53,0.44,0.31,0.23,0.31,0.53,0.43,0.23,0.47,0.55,0.75" style="fill:rgb(0,0,0);font-family:MinionPro-Regular;font-size:9.0px;stroke:none;">reveals that presence of Sn, O, and C. (Fig. 2E). The TEM images (Fig. 2C,D) show that the SnO</text>
   <text y="593.3" x="500.653" svgx:width="0.48" style="fill:rgb(0,0,0);font-family:MinionPro-Regular;font-size:5.85px;stroke:none;">2</text>
   <text y="591.5" x="503.492,505.499,510.443,514.36,519.296,523.835,528.643,532.561,536.038,538.876,541.333,545.134,547.456,551.326,554.629" svgx:width="0.23,0.55,0.44,0.55,0.51,0.52,0.44,0.37,0.31,0.27,0.42,0.25,0.43,0.37,0.23" style="fill:rgb(0,0,0);font-family:MinionPro-Regular;font-size:9.0px;stroke:none;"> nanoparticles </text>
   <text y="601.499" x="155.642,161.894,164.259,167.118,171.987,174.039,177.405,179.88,183.723,187.611,189.663,192.138,197.124,199.176,202.035,206.865,210.753,212.805,216.207,220.138,225.049,229.249,233.137,235.189,239.732,242.459,244.511,248.894,253.637,258.02,262.403,263.534,268.52,275.954,278.006,281.936,285.219,289.107,291.159,295.974,298.42,301.737,304.587,308.041,310.477,315.01,319.742,322.493,326.423,331.238,333.29,338.132,343.118,345.593,348.237,352.779,356.232,363.708,365.982,370.176,372.228,376.77,381.756,383.808,386.668,391.498,395.386,397.438,400.756,405.598,409.051,411.778,415.792,419.662,423.55,425.602,430.145,432.872,434.924,438.938,440.99,444.86,449.402,454.214,457.065,459.54,464.352,469.194,473.745,478.558,481.924,483.976,488.359,495.037,497.089,501.946,506.488,509.771,514.322,519.134,522.5,524.552,529.499,533.387,536.22,542.373,546.915,550.279,554.743" svgx:width="0.69,0.27,0.31,0.53,0.23,0.37,0.27,0.42,0.43,0.23,0.27,0.55,0.23,0.31,0.53,0.43,0.23,0.37,0.44,0.55,0.47,0.43,0.23,0.51,0.3,0.23,0.48,0.52,0.48,0.48,0.23,0.55,0.82,0.23,0.44,0.37,0.43,0.23,0.53,0.27,0.37,0.31,0.37,0.27,0.51,0.53,0.31,0.43,0.53,0.23,0.53,0.55,0.27,0.3,0.51,0.37,0.82,0.25,0.46,0.23,0.51,0.55,0.23,0.31,0.53,0.43,0.23,0.37,0.53,0.37,0.3,0.44,0.42,0.43,0.23,0.51,0.3,0.23,0.44,0.23,0.42,0.51,0.55,0.31,0.27,0.55,0.53,0.51,0.53,0.37,0.23,0.48,0.74,0.23,0.52,0.51,0.37,0.51,0.53,0.37,0.23,0.55,0.43,0.31,0.69,0.51,0.37,0.5,0.23" style="fill:rgb(0,0,0);font-family:MinionPro-Regular;font-size:9.0px;stroke:none;">with size in the range of 6–12 nm are distributed uniformly on the surface of a continuous 3D porous network </text>
   <text y="611.498" x="155.642,162.986,166.937,171.689,175.514,177.35,181.832,184.496,186.332,191.156,193.325,196.115,199.454,203.234,206.033,210.839,213.251,218.174,220.01,224.267,227.606,231.386,236.039,240.809,244.634,249.521,253.346,255.182,258.449,263.219,267.088,270.913,273.658,276.961,279.013,280.849,283.261,288.184,290.02,294.16,298.83,303.501,308.253,310.089,313.995,318.252,321.474,325.344,329.169,336.503,340.328,345.08,347.825,349.661,355.853,358.157,360.956,365.762,367.598,370.396,375.166,378.991,380.827,384.985,390.097,398.116,399.952,404.497,409.069,412.444,416.269,419.868,424.035,427.815,430.605,433.017,437.499,442.422,444.258,448.137,452.79,457.236,461.331,465.102" svgx:width="0.82,0.44,0.53,0.43,0.23,0.51,0.3,0.23,0.53,0.25,0.31,0.37,0.44,0.31,0.53,0.27,0.55,0.23,0.47,0.37,0.44,0.52,0.53,0.43,0.55,0.43,0.23,0.37,0.53,0.43,0.43,0.31,0.37,0.23,0.23,0.27,0.55,0.23,0.47,0.51,0.51,0.53,0.23,0.44,0.47,0.37,0.43,0.43,0.82,0.43,0.55,0.31,0.23,0.69,0.27,0.31,0.53,0.23,0.31,0.53,0.43,0.23,0.47,0.57,0.89,0.23,0.51,0.51,0.37,0.43,0.37,0.46,0.44,0.31,0.27,0.51,0.55,0.23,0.44,0.51,0.51,0.46,0.43,0.23" style="fill:rgb(0,0,0);font-family:MinionPro-Regular;font-size:9.0px;stroke:none;">made of ultrathin graphene sheets, in good agreement with the SEM observation above.</text>
   <text y="621.497" x="167.639,177.332,181.247,183.398,188.285,192.856,196.168,200.749,205.591,208.984,211.135,216.121,219.991,222.736,227.605,230.916,234.831,236.982,241.553,244.307,246.458,250.76,255.773" svgx:width="1.07,0.43,0.23,0.52,0.51,0.37,0.51,0.53,0.37,0.23,0.55,0.44,0.31,0.53,0.37,0.43,0.23,0.51,0.3,0.23,0.47,0.55,0.75" style="fill:rgb(0,0,0);font-family:MinionPro-Regular;font-size:9.0px;stroke:none;">The porous nature of SnO</text>
   <text y="623.3" x="262.592" svgx:width="0.48" style="fill:rgb(0,0,0);font-family:MinionPro-Regular;font-size:5.85px;stroke:none;">2</text>
   <text y="621.5" x="265.459,268.753,273.099,276.528,280.398,285.141,290.001,293.916,298.893,302.808,304.959,308.919,312.231,316.074,320.97,323.364,326.144,330.104,334.064,336.809,341.678,344.99,348.905,351.056,353.531,356.924,359.075,361.883,366.752,370.27,373.159,378.019,381.934,385.363,387.514,391.771,395.857,398.224,400.726,405.595,409.465,412.246,416.205,421.047,423.198,427.716,431.937,434.088,439.101,441.495,444.375,447.687,452.367,456.596,460.511,465.524,467.675,472.418,477.107,481.328,484.721,487.196,490.66,495.232,498.751,503.458,506.337,508.839,513.411,518.424,520.575,528.0,531.969,535.982,539.331,544.2,547.512,551.427" svgx:width="0.36,0.47,0.37,0.44,0.52,0.53,0.43,0.55,0.43,0.23,0.44,0.37,0.42,0.53,0.27,0.31,0.43,0.42,0.31,0.53,0.37,0.43,0.23,0.27,0.37,0.23,0.3,0.53,0.37,0.31,0.53,0.43,0.37,0.23,0.46,0.44,0.25,0.27,0.53,0.44,0.31,0.43,0.53,0.23,0.51,0.46,0.23,0.55,0.27,0.31,0.37,0.51,0.47,0.43,0.55,0.23,0.52,0.53,0.46,0.37,0.27,0.37,0.51,0.37,0.52,0.31,0.27,0.51,0.55,0.23,0.82,0.43,0.44,0.37,0.53,0.37,0.43,0.36" style="fill:rgb(0,0,0);font-family:MinionPro-Regular;font-size:9.0px;stroke:none;">-graphene architecture is further validated by nitrogen physisorption measure-</text>
   <text y="631.499" x="155.641,163.044,166.941,171.762,174.579,177.949,180.028,183.966,188.922,193.746,195.825,198.692,203.531,207.428,209.507,212.797,216.694,220.02,224.913,227.15,229.967,233.342,235.421,239.36,242.65,246.547,248.626,251.961,256.8,261.314,267.575,272.57,274.649,277.133,282.128,284.207,289.04,291.524,295.83,297.954,300.032,304.424,308.447,310.571,312.65,318.748,321.097,325.044,328.983,332.354,334.636,338.179,340.303,342.382,345.033,349.583,352.995,355.074,359.795,364.354,367.222,372.1,374.179,377.046,381.884,385.777,387.856,392.194,398.701,403.534,405.613,409.551,414.507,419.331,421.41,427.67,432.008,438.515,442.355,444.479,446.558,449.425,454.263,458.16,460.239" svgx:width="0.82,0.43,0.55,0.31,0.37,0.23,0.44,0.55,0.53,0.23,0.31,0.53,0.43,0.23,0.37,0.43,0.37,0.53,0.25,0.31,0.37,0.23,0.44,0.37,0.43,0.23,0.37,0.53,0.51,0.69,0.55,0.23,0.27,0.55,0.23,0.53,0.27,0.47,0.23,0.23,0.48,0.44,0.23,0.23,0.67,0.25,0.43,0.44,0.37,0.25,0.46,0.23,0.23,0.3,0.51,0.37,0.23,0.51,0.51,0.31,0.53,0.23,0.31,0.53,0.43,0.23,0.47,0.71,0.53,0.23,0.44,0.55,0.53,0.23,0.69,0.47,0.71,0.53,0.23,0.23,0.31,0.53,0.43,0.23,0.74" style="fill:rgb(0,0,0);font-family:MinionPro-Regular;font-size:9.0px;stroke:none;">ments and the results are shown in Fig. 3a. Clearly, for both the SGF and ASGF, the N</text>
   <text y="633.3" x="466.865" svgx:width="0.48" style="fill:rgb(0,0,0);font-family:MinionPro-Regular;font-size:5.85px;stroke:none;">2</text>
   <text y="631.5" x="469.718,471.797,475.82,480.613,484.056,488.606,492.103,496.789,499.647,502.131,506.682,511.677,514.953,519.777,523.674,527.116,531.666,535.164,539.849,542.708,545.192,549.742,554.665" svgx:width="0.23,0.44,0.53,0.37,0.51,0.37,0.52,0.31,0.27,0.51,0.55,0.36,0.53,0.43,0.37,0.51,0.37,0.52,0.31,0.27,0.51,0.55,0.23" style="fill:rgb(0,0,0);font-family:MinionPro-Regular;font-size:9.0px;stroke:none;"> adsorption-desorption </text>
   <text y="641.499" x="155.636,158.052,161.458,165.98,168.81,173.611,177.467,180.892,188.222,191.556,193.527,197.383,201.662,206.499,208.906,213.401,215.736,218.512,220.483,224.466,226.437,229.24,233.402,238.041,240.484,244.349,248.376,250.684,252.655,255.755,258.855,260.826,265.456,269.619,272.908,275.63,279.486,282.739,286.596,289.929,292.346,295.679,297.65,299.959,304.66,309.183,313.93,315.901,319.711,322.488,324.459,328.44,330.411,333.665,337.484,339.82,343.63,346.452,348.832,352.958,356.815,358.786,363.424,366.678,370.533,373.823,377.112,381.922,385.175,389.032,391.003,395.687,399.543,402.346,408.47,412.371,416.227,421.181,423.152,427.503,429.586,433.937,438.289,440.26,444.161,449.079,453.862,455.833,460.183,462.267,466.617,470.969,473.052,475.023,478.807,483.618,487.519,490.889,494.871,498.772,501.494,505.35,508.774,511.19,514.479,517.3,519.744,523.582,525.553,528.276,532.897,534.868,539.696,544.209,547.462,551.318,554.621" svgx:width="0.27,0.37,0.51,0.31,0.53,0.43,0.37,0.82,0.37,0.23,0.43,0.47,0.53,0.27,0.51,0.27,0.31,0.23,0.44,0.23,0.31,0.46,0.52,0.27,0.42,0.44,0.25,0.23,0.34,0.34,0.23,0.53,0.46,0.37,0.31,0.43,0.37,0.43,0.37,0.27,0.37,0.23,0.25,0.51,0.51,0.52,0.23,0.44,0.31,0.23,0.44,0.23,0.37,0.43,0.25,0.44,0.31,0.27,0.46,0.43,0.23,0.52,0.37,0.43,0.37,0.37,0.53,0.37,0.43,0.23,0.51,0.43,0.31,0.69,0.43,0.43,0.55,0.23,0.48,0.23,0.48,0.48,0.23,0.44,0.55,0.53,0.23,0.48,0.23,0.48,0.48,0.23,0.23,0.42,0.53,0.44,0.37,0.44,0.42,0.31,0.43,0.37,0.27,0.37,0.31,0.27,0.42,0.23,0.31,0.51,0.23,0.52,0.51,0.37,0.43,0.37,0.23" style="fill:rgb(0,0,0);font-family:MinionPro-Regular;font-size:9.0px;stroke:none;">isotherms exhibit a typical II hysteresis loop at a relative pressure between 0.42 and 0.95, characteristic to pores </text>
   <text y="651.498" x="155.636,161.965,164.407,167.344,172.285,174.607,179.494,182.041,187.147,191.107,194.466,198.426,203.316,206.196,208.518,213.452,218.072,221.432,225.392,227.714,231.152,233.699,237.614,241.574" svgx:width="0.69,0.27,0.31,0.53,0.23,0.53,0.27,0.56,0.43,0.37,0.43,0.55,0.31,0.23,0.52,0.51,0.37,0.43,0.23,0.37,0.27,0.42,0.43,0.37" style="fill:rgb(0,0,0);font-family:MinionPro-Regular;font-size:9.0px;stroke:none;">with different pore sizes</text>
   <text y="648.44" x="245.046,247.942" svgx:width="0.48,0.48" style="fill:rgb(0,0,0);font-family:MinionPro-Regular;font-size:5.85px;stroke:none;">36</text>
   <text y="651.5" x="250.841,253.028,255.35,265.091,269.051,271.373,274.77,279.684,283.214,286.013,290.099,294.041,298.001,300.323,304.331,307.692,311.707,315.793,318.115,322.735,325.534,327.856,330.793,335.7,339.66,341.982,346.383,352.953,357.849,360.171,364.179,369.204,374.091,376.413,382.743,387.144,393.714,398.61,400.932,407.232,411.293,414.731,417.053,421.94,425.9,428.73,432.69,436.22,443.726,446.273,451.298,455.306,460.193,462.515,465.344,470.069,472.391,477.181,481.141,483.463,487.918,492.373,496.828,499.15,503.158,508.183,513.07,515.392,519.847,524.302,528.757,530.102" svgx:width="0.23,0.23,1.07,0.43,0.23,0.37,0.53,0.37,0.3,0.44,0.42,0.43,0.23,0.44,0.37,0.43,0.44,0.23,0.51,0.3,0.23,0.31,0.53,0.43,0.23,0.47,0.71,0.53,0.23,0.44,0.55,0.53,0.23,0.69,0.47,0.71,0.53,0.23,0.69,0.44,0.37,0.23,0.53,0.43,0.31,0.43,0.37,0.82,0.27,0.55,0.43,0.53,0.23,0.31,0.51,0.23,0.51,0.43,0.23,0.48,0.48,0.48,0.23,0.44,0.55,0.53,0.23,0.48,0.48,0.48,0.23,0.82" style="fill:rgb(0,0,0);font-family:MinionPro-Regular;font-size:9.0px;stroke:none;">. The surface area of the SGF and ASGF was determined to be 188 and 109 m</text>
   <text y="648.44" x="537.612" svgx:width="0.48" style="fill:rgb(0,0,0);font-family:MinionPro-Regular;font-size:5.85px;stroke:none;">2</text>
   <text y="651.5" x="540.509,542.831" svgx:width="0.23,0.47" style="fill:rgb(0,0,0);font-family:MinionPro-Regular;font-size:9.0px;stroke:none;"> g</text>
   <text y="648.44" x="547.18" svgx:width="0.78" style="fill:rgb(0,0,0);font-family:EuclidSymbol;font-size:5.85px;stroke:none;">−</text>
   <text y="648.44" x="551.831" svgx:width="0.48" style="fill:rgb(0,0,0);font-family:MinionPro-Regular;font-size:5.85px;stroke:none;">1</text>
   <text y="651.5" x="554.638" svgx:width="0.23" style="fill:rgb(0,0,0);font-family:MinionPro-Regular;font-size:9.0px;stroke:none;"> </text>
   <text y="661.499" x="155.641,160.165,164.395,166.573,171.889,175.414,180.292,185.284,189.16,194.038,197.962,201.182,205.961,211.172,218.642,226.073,229.997,232.747,235.591,240.37,245.138,249.022,251.44,253.816,257.74,261.178,263.356,266.569,271.922,277.094,282.746,285.959,288.137,292.067,296.16,298.536,302.502,307.422,309.822,313.698,316.584,319.095,323.674,328.621,332.023,334.174,336.352,339.669,343.593,346.948,351.841,355.806,359.773,362.658,365.103,369.295,373.18,375.49,379.061,381.212,383.39,388.157,392.846,395.024,399.335,403.301,405.812,410.834,413.012,415.523,420.47,423.872,426.383,430.755,435.486,438.33,440.508,443.019,447.867,450.655,455.344,457.522,460.416,465.282,469.206,471.384,475.234,480.099,484.023,491.493,494.004,497.933,502.026,504.402,506.58,510.486,515.064,522.36,527.253,531.942,535.344,537.744,540.629,543.14,547.719,552.741,554.793" svgx:width="0.51,0.46,0.23,0.59,0.37,0.53,0.55,0.44,0.53,0.43,0.37,0.52,0.57,0.82,0.82,0.43,0.31,0.31,0.52,0.62,0.43,0.25,0.25,0.43,0.37,0.23,0.35,0.59,0.57,0.62,0.35,0.23,0.42,0.44,0.25,0.42,0.53,0.25,0.44,0.31,0.27,0.51,0.55,0.37,0.23,0.23,0.37,0.43,0.37,0.52,0.43,0.42,0.31,0.27,0.46,0.43,0.25,0.46,0.23,0.23,0.62,0.51,0.23,0.47,0.44,0.27,0.55,0.23,0.27,0.55,0.37,0.27,0.47,0.53,0.31,0.23,0.27,0.55,0.31,0.51,0.23,0.31,0.53,0.43,0.23,0.42,0.53,0.43,0.82,0.27,0.42,0.44,0.25,0.23,0.42,0.51,0.82,0.52,0.51,0.37,0.27,0.31,0.27,0.51,0.55,0.23,0.23" style="fill:rgb(0,0,0);font-family:MinionPro-Regular;font-size:9.0px;stroke:none;">by Brunauer–Emmett–Teller (BET) calculations, respectively. To gain insight into the chemical composition, </text>
   <text y="671.498" x="155.641,158.468,163.265,167.117,170.537,177.9,182.517,185.748,190.032,193.398,197.215,201.436,203.875,211.237,215.089,217.906,221.326,223.765,227.599,229.57,233.468,238.391,242.415,244.657,248.815,252.145,254.557,257.887,259.858,262.999,268.507,274.969,281.215,284.356,286.327,292.519,296.47,299.8,301.771,306.595,310.447,313.867,316.478,320.988,324.408,331.771,335.668,340.447,342.418,346.928,351.878,353.849,356.676,361.473,365.325,367.296,371.643,378.285,380.256,384.495,389.445" svgx:width="0.31,0.53,0.43,0.37,0.82,0.51,0.36,0.47,0.37,0.44,0.46,0.27,0.82,0.43,0.31,0.37,0.27,0.42,0.23,0.44,0.55,0.44,0.25,0.46,0.37,0.27,0.37,0.23,0.35,0.62,0.71,0.69,0.35,0.23,0.69,0.44,0.37,0.23,0.52,0.43,0.37,0.3,0.51,0.37,0.82,0.43,0.53,0.23,0.51,0.55,0.23,0.31,0.53,0.43,0.23,0.48,0.74,0.23,0.47,0.55,0.75" style="fill:rgb(0,0,0);font-family:MinionPro-Regular;font-size:9.0px;stroke:none;">thermo-gravimetric analysis (TGA) was performed on the 3D SnO</text>
   <text y="673.3" x="396.191" svgx:width="0.48" style="fill:rgb(0,0,0);font-family:MinionPro-Regular;font-size:5.85px;stroke:none;">2</text>
   <text y="671.5" x="399.017,402.248,406.533,409.899,413.706,418.387,423.184,427.035,431.95,435.802,437.773,440.384,445.046,448.944,456.342,458.313,462.211,467.125,471.904,473.875,476.674,480.832,485.467,487.906,491.768,495.791,498.095,500.066,503.315,507.167,510.453,515.304,517.501,520.273,522.244,526.754,529.445,531.416,535.709,542.171,546.959,548.93,551.342,554.645" svgx:width="0.36,0.47,0.37,0.44,0.52,0.53,0.43,0.55,0.43,0.23,0.3,0.51,0.44,0.82,0.23,0.44,0.55,0.53,0.23,0.31,0.46,0.52,0.27,0.42,0.44,0.25,0.23,0.37,0.43,0.37,0.53,0.25,0.31,0.23,0.51,0.3,0.23,0.47,0.71,0.53,0.23,0.27,0.37,0.23" style="fill:rgb(0,0,0);font-family:MinionPro-Regular;font-size:9.0px;stroke:none;">-graphene foam and typical result of SGF is </text>
   <text y="681.499" x="155.639,158.959,163.783,168.282,174.527,179.504,181.529,183.995,188.972,190.997,195.812,198.278,202.57,204.676,206.701,211.075,216.267,218.373,220.398,230.054,233.933,235.958,239.368,243.291,250.545,255.252,257.583,261.462,263.487,265.925,269.282,271.307,275.23,280.207,285.147,289.079,293.128,295.459,299.382,304.188,306.213,311.046,315.986,320.792,324.671,328.064,330.089,334.013,336.479,339.872,341.897,345.73,348.529,350.554,353.406,358.23,362.109,364.134,368.508,372.882,374.051,377.192,383.231,385.256,392.681,395.147" svgx:width="0.37,0.53,0.51,0.69,0.55,0.23,0.27,0.55,0.23,0.53,0.27,0.47,0.23,0.23,0.48,0.59,0.23,0.23,1.07,0.43,0.23,0.37,0.44,0.82,0.52,0.25,0.43,0.23,0.27,0.37,0.23,0.44,0.55,0.55,0.43,0.44,0.25,0.43,0.53,0.23,0.53,0.55,0.53,0.43,0.37,0.23,0.44,0.27,0.37,0.23,0.44,0.31,0.23,0.31,0.53,0.43,0.23,0.48,0.48,0.23,0.34,0.67,0.23,0.82,0.27,0.55" style="fill:rgb(0,0,0);font-family:MinionPro-Regular;font-size:9.0px;stroke:none;">shown in Fig. 3B. The sample is annealed under air at the 10 °C min</text>
   <text y="678.44" x="400.119" svgx:width="0.78" style="fill:rgb(0,0,0);font-family:EuclidSymbol;font-size:5.85px;stroke:none;">−</text>
   <text y="678.44" x="404.712" svgx:width="0.48" style="fill:rgb(0,0,0);font-family:MinionPro-Regular;font-size:5.85px;stroke:none;">1</text>
   <text y="681.5" x="407.552,409.577,414.4,418.333,422.166,425.009,427.475,432.379,436.645,438.67,442.063,445.896,448.64,452.519,454.544,457.289,461.933,463.958,467.234,471.113,478.501,483.0,487.149,491.028,493.053,495.905,500.729,504.608,506.633,514.021,518.556,520.995,524.306,527.014,531.847,535.122,539.001,541.026,544.95,549.89,554.642" svgx:width="0.23,0.53,0.43,0.44,0.31,0.27,0.55,0.47,0.23,0.37,0.44,0.31,0.43,0.23,0.31,0.51,0.23,0.37,0.43,0.82,0.51,0.46,0.43,0.23,0.31,0.53,0.43,0.23,0.82,0.51,0.27,0.37,0.31,0.53,0.37,0.43,0.23,0.44,0.55,0.53,0.23" style="fill:rgb(0,0,0);font-family:MinionPro-Regular;font-size:9.0px;stroke:none;"> heating rate to remove the moisture and </text>
   <text y="691.499" x="155.642,160.131,164.424,166.881,171.678,174.135,177.96,181.83,183.819,187.696,191.608,194.992,199.688,204.213,209.181,211.17,213.904,218.539,220.528,226.618" svgx:width="0.51,0.47,0.27,0.53,0.27,0.42,0.43,0.23,0.42,0.44,0.37,0.51,0.51,0.55,0.23,0.31,0.51,0.23,0.67,0.75" style="fill:rgb(0,0,0);font-family:MinionPro-Regular;font-size:9.0px;stroke:none;">oxidize carbon to CO</text>
   <text y="693.3" x="233.36" svgx:width="0.48" style="fill:rgb(0,0,0);font-family:MinionPro-Regular;font-size:5.85px;stroke:none;">2</text>
   <text y="691.5" x="236.196,238.293,240.282,244.942,248.206,252.731,260.147,262.136,264.978,269.791,273.661,275.65,281.174,287.654,293.918,295.907,300.729,304.552,307.394,311.39,313.487,315.476,318.317,323.13,327.0,328.989,333.514,336.95,339.407,343.707,346.164,351.103,355.141,357.463,359.452,363.304,367.829,372.624,375.358,379.228,384.023,386.813,388.802,393.327,396.036,398.025,402.28,407.248" svgx:width="0.23,0.23,0.53,0.37,0.51,0.82,0.23,0.31,0.53,0.43,0.23,0.62,0.71,0.69,0.23,0.53,0.44,0.31,0.44,0.23,0.23,0.31,0.53,0.43,0.23,0.51,0.37,0.27,0.47,0.27,0.55,0.44,0.25,0.23,0.42,0.51,0.55,0.31,0.43,0.55,0.31,0.23,0.51,0.3,0.23,0.47,0.55,0.75" style="fill:rgb(0,0,0);font-family:MinionPro-Regular;font-size:9.0px;stroke:none;">. From the TGA data, the original content of SnO</text>
   <text y="693.3" x="413.975" svgx:width="0.48" style="fill:rgb(0,0,0);font-family:MinionPro-Regular;font-size:5.85px;stroke:none;">2</text>
   <text y="691.5" x="416.81,418.799,421.227,424.575,426.564,430.441,434.479,436.801,440.714,445.58,447.927,451.749,454.484,458.396,463.193,465.182,467.916,472.551,474.54,479.236,483.106,485.095,489.46,493.825,495.922,500.287,504.652,505.793,512.003,514.793,521.642,523.739,525.728,528.696,533.664,535.653,539.505,544.03,551.446" svgx:width="0.23,0.27,0.37,0.23,0.42,0.44,0.25,0.42,0.53,0.25,0.44,0.31,0.43,0.53,0.23,0.31,0.51,0.23,0.51,0.43,0.23,0.48,0.48,0.23,0.48,0.48,0.23,0.69,0.31,0.76,0.23,0.23,0.34,0.55,0.23,0.42,0.51,0.82,0.36" style="fill:rgb(0,0,0);font-family:MinionPro-Regular;font-size:9.0px;stroke:none;"> is calculated to be 45.56 wt%. In com-</text>
   <text y="701.499" x="155.63,160.094,162.506,167.402,171.182,173.972,176.384,180.866,185.789,187.706,193.898,196.202,199.001,203.807,205.724,208.523,213.293,217.118,219.035,222.905,227.802,231.798,234.012,238.143,241.446,243.83,247.133,249.05,253.667,257.591,260.966,264.837,269.589,271.506,275.988,280.911,282.828,286.986,292.098,300.117,302.034,305.904,310.79,315.543,317.46,323.013,328.125,336.144,338.061,340.473,347.816,351.722,355.862,359.688,362.991,365.043,366.96,373.053,376.878,378.795,382.629,386.499,391.422,393.339,396.696,400.566,403.149,406.938,409.152,413.283,415.2,419.007,423.489,428.376,432.129,434.298,439.077,443.829,447.654,449.571,452.37,457.149,460.928,463.673,465.59,468.389,473.159,476.984,478.901,483.113,488.036" svgx:width="0.51,0.27,0.55,0.44,0.31,0.27,0.51,0.55,0.23,0.69,0.27,0.31,0.53,0.23,0.31,0.53,0.43,0.23,0.44,0.55,0.44,0.25,0.46,0.37,0.27,0.37,0.23,0.51,0.44,0.37,0.43,0.53,0.23,0.51,0.55,0.23,0.47,0.57,0.89,0.23,0.44,0.55,0.53,0.23,0.62,0.57,0.89,0.23,0.27,0.82,0.44,0.47,0.43,0.37,0.23,0.23,0.69,0.43,0.23,0.42,0.44,0.55,0.23,0.37,0.44,0.3,0.43,0.25,0.46,0.23,0.42,0.51,0.55,0.42,0.25,0.53,0.53,0.43,0.23,0.31,0.53,0.44,0.31,0.23,0.31,0.53,0.43,0.23,0.47,0.55,0.75" style="fill:rgb(0,0,0);font-family:MinionPro-Regular;font-size:9.0px;stroke:none;">bination with the analysis based on SEM and TEM images, we can safely conclude that the SnO</text>
   <text y="703.3" x="494.779" svgx:width="0.48" style="fill:rgb(0,0,0);font-family:MinionPro-Regular;font-size:5.85px;stroke:none;">2</text>
   <text y="701.5" x="497.587,500.791,505.003,508.873,512.302,516.955,521.725,525.55,530.437,534.262,536.179,538.763,543.397,547.267,554.638" svgx:width="0.36,0.47,0.44,0.37,0.52,0.53,0.43,0.55,0.43,0.23,0.3,0.51,0.44,0.82,0.23" style="fill:rgb(0,0,0);font-family:MinionPro-Regular;font-size:9.0px;stroke:none;">-garphene foam </text>
   <text y="711.499" x="155.641,160.478,164.326,168.479,172.362,174.405,178.414,180.457,184.835,191.508,193.551,197.867,201.264,205.103,209.814,214.642,218.526,223.471,227.355,229.398,233.326,236.607,240.418,245.282,247.644,250.394,254.322,258.25,260.963,265.801,269.081,272.965,276.326,278.369,281.226,286.063,289.902,292.705,294.748,299.064,301.471,305.625,309.508,311.551,315.002,317.446,320.879,324.763,326.806,329.555,334.203,336.246,341.109,343.58,347.913,352.778,354.821,358.137,362.974,366.425,369.148,373.157,377.023,380.906,382.949,386.877,390.157,394.094,398.077,401.438,403.481,407.41,412.355,417.166,419.209,426.467,431.349,433.576,436.425,438.94,441.275,445.23,449.384,453.231,455.567,457.61,462.464,467.005,470.286,474.835,479.646,483.007,485.05,488.367,491.214,494.702,499.539,503.468,506.181,511.018,514.298,518.182,521.543,523.654,525.697,528.473,531.276,533.319,535.762,539.124,541.167,544.024,548.889,551.332,554.635" svgx:width="0.53,0.44,0.46,0.43,0.23,0.44,0.23,0.48,0.74,0.23,0.47,0.37,0.44,0.52,0.53,0.43,0.55,0.43,0.23,0.44,0.37,0.42,0.53,0.27,0.31,0.43,0.42,0.31,0.53,0.37,0.43,0.37,0.23,0.31,0.53,0.44,0.31,0.23,0.47,0.27,0.46,0.43,0.23,0.37,0.27,0.37,0.43,0.23,0.31,0.51,0.23,0.53,0.27,0.47,0.53,0.23,0.37,0.53,0.37,0.3,0.44,0.42,0.43,0.23,0.44,0.37,0.43,0.44,0.37,0.23,0.44,0.55,0.53,0.23,0.82,0.53,0.25,0.31,0.27,0.25,0.43,0.46,0.43,0.25,0.23,0.52,0.51,0.37,0.51,0.53,0.37,0.23,0.37,0.31,0.37,0.53,0.42,0.31,0.53,0.37,0.43,0.37,0.23,0.23,0.34,0.31,0.23,0.27,0.37,0.23,0.31,0.53,0.27,0.37,0.23" style="fill:rgb(0,0,0);font-family:MinionPro-Regular;font-size:9.0px;stroke:none;">have a 3D graphene architectures that give rise to high surface areas and multilevel porous structures. It is this </text>
   <text y="721.498" x="155.641,160.483,165.469,167.944,172.518,177.36,181.248,183.309,190.708,195.254,198.748,203.465,208.3,212.891,215.231,219.884,224.377,228.571,230.632,233.494,238.338,242.182,244.99,247.051,250.95,254.884,259.87,261.931,266.253,269.539,273.482,277.326,280.19,282.468,286.662,288.723,291.45,295.464,299.334,301.855,304.195,306.564,309.427,313.271,316.027,319.915,321.976,324.839,329.673,333.561,335.622,339.636,343.506,347.376,351.264,354.587,357.953,360.014,364.56,367.287,369.348,373.202,375.542,379.476,383.41,386.264,389.551,394.142,396.421,400.615,403.37,407.258,409.319,413.254,418.205,423.02,425.081,427.945,432.779,436.667,438.728,441.455,445.443,448.766,451.574,453.635,458.45,460.925,466.092,470.908,474.274,476.749,481.295,486.281,488.342,492.889,495.616,497.677,500.017,502.386,505.249,510.118,512.486,517.328,524.762,526.823,529.298,533.844,538.83,540.891,544.825,549.777,554.529" svgx:width="0.53,0.55,0.27,0.51,0.53,0.43,0.23,0.82,0.51,0.37,0.52,0.53,0.51,0.25,0.51,0.47,0.46,0.23,0.31,0.53,0.44,0.31,0.23,0.42,0.44,0.55,0.23,0.47,0.37,0.43,0.44,0.31,0.25,0.46,0.23,0.3,0.44,0.42,0.27,0.25,0.27,0.31,0.44,0.31,0.43,0.23,0.31,0.53,0.43,0.23,0.44,0.42,0.42,0.43,0.37,0.37,0.23,0.51,0.3,0.23,0.43,0.25,0.43,0.42,0.31,0.37,0.51,0.25,0.46,0.31,0.43,0.23,0.44,0.55,0.53,0.23,0.31,0.53,0.43,0.23,0.3,0.44,0.37,0.31,0.23,0.53,0.27,0.56,0.53,0.37,0.27,0.51,0.55,0.23,0.51,0.3,0.23,0.25,0.27,0.31,0.53,0.27,0.53,0.82,0.23,0.27,0.51,0.55,0.23,0.44,0.55,0.53,0.23" style="fill:rgb(0,0,0);font-family:MinionPro-Regular;font-size:9.0px;stroke:none;">unique morphology that can greatly facilitate the access of electrolyte and the fast diffusion of lithium ion and </text>
   <text y="731.497" x="155.641,159.43,161.707,165.577,169.446,172.236,175.458,179.94,184.791,188.094,189.93,194.574,199.353,202.746,205.158,210.009,214.221,216.057,218.334,220.638,223.437,228.243,230.547,235.326,242.697,244.533,247.791,250.482,254.964,258.303,262.209,266.348,270.119" svgx:width="0.43,0.25,0.43,0.42,0.31,0.37,0.51,0.55,0.37,0.23,0.53,0.53,0.37,0.27,0.55,0.47,0.23,0.25,0.27,0.31,0.53,0.27,0.53,0.82,0.23,0.37,0.31,0.51,0.37,0.44,0.47,0.43,0.23" style="fill:rgb(0,0,0);font-family:MinionPro-Regular;font-size:9.0px;stroke:none;">electrons during lithium storage.</text>
  </g>
  <rect style="stroke:blue;stroke-width:0.3;" x="155.638" y="64.138" height="466.08" width="396.0" title="3"/>
  <text y="64.138" class="image" id="image.3.1" width="396" height="466" x="155.638">image.3.1.156_552.64_530</text>
  <path style="fill:none;stroke:rgb(131,144,151);stroke-width:0.3;" d="M159.130 551.120 L552.640 551.120 "/>
  <path style="fill:none;stroke:rgb(131,144,151);stroke-width:1.0;" d="M156.140 551.120 L156.140 551.120 M554.140 551.120 L554.140 551.120 "/>
  <g begin="text">
   <text y="531.123" x="155.638,160.552,163.207,167.662,172.657,176.221,180.154,181.909,186.409" svgx:width="0.55,0.29,0.49,0.56,0.4,0.44,0.22,0.5,0.25" style="fill:rgb(0,0,0);font-family:MinionPro-Bold;font-size:9.0px;stroke:none;">Figure 2.</text>
   <text y="531.123" x="188.695" svgx:width="0.23" style="fill:rgb(0,0,0);font-family:MinionPro-Regular;font-size:9.0px;stroke:none;"> </text>
   <text y="531.123" x="193.195,201.016,205.651,209.395,214.291,219.241,223.939,226.495,231.247,235.89,240.075,241.83,245.628,250.578,254.727,258.435,262.629,266.481,269.424,273.312,276.948,279.603,283.608,287.666,290.672,293.381,298.016,303.11,304.865,309.5,312.479,314.234,320.471,325.016,331.559,335.618,337.904" svgx:width="0.89,0.52,0.4,0.55,0.55,0.52,0.28,0.52,0.49,0.47,0.22,0.42,0.55,0.47,0.4,0.47,0.42,0.34,0.44,0.4,0.29,0.44,0.47,0.34,0.29,0.52,0.57,0.22,0.52,0.33,0.22,0.71,0.5,0.73,0.55,0.25,0.22" style="fill:rgb(0,0,0);font-family:MinionPro-Bold;font-size:9.0px;stroke:none;">Morphology characterization of ASGF. </text>
   <text y="531.123" x="339.659,343.817,348.929,356.948,358.784,361.196,368.54,372.446,376.586,380.411,383.714,385.55" svgx:width="0.47,0.57,0.89,0.23,0.27,0.82,0.44,0.47,0.43,0.37,0.23,0.35" style="fill:rgb(0,0,0);font-family:MinionPro-Regular;font-size:9.0px;stroke:none;">SEM images (</text>
   <text y="531.123" x="388.664,395.018,397.304" svgx:width="0.71,0.25,0.64" style="fill:rgb(0,0,0);font-family:MinionPro-Bold;font-size:9.0px;stroke:none;">A,B</text>
   <text y="531.123" x="403.037,406.151,407.987,411.857,416.744,421.496,423.332,428.444,434.797,440.683,442.519,445.777,450.574,454.444,458.314,461.104,464.532,469.311,476.682,478.518" svgx:width="0.35,0.23,0.44,0.55,0.53,0.23,0.57,0.74,0.65,0.23,0.37,0.52,0.43,0.42,0.31,0.37,0.53,0.82,0.23,0.35" style="fill:rgb(0,0,0);font-family:MinionPro-Regular;font-size:9.0px;stroke:none;">) and EDX spectrum (</text>
   <text y="531.123" x="481.632" svgx:width="0.58" style="fill:rgb(0,0,0);font-family:MinionPro-Bold;font-size:9.0px;stroke:none;">E</text>
   <text y="531.123" x="486.861,489.975,492.027,493.863,499.416,504.528,512.547,514.383,516.795,524.139,528.045,532.185,536.01,539.313" svgx:width="0.35,0.23,0.23,0.62,0.57,0.89,0.23,0.27,0.82,0.44,0.47,0.43,0.37,0.23" style="fill:rgb(0,0,0);font-family:MinionPro-Regular;font-size:9.0px;stroke:none;">); TEM images </text>
   <text y="541.122" x="155.638,161.83,164.134,166.933,171.739,173.575,178.327,180.739,185.706,189.531,192.753,196.578,201.33,204.075,205.911,213.255,217.161,221.418,226.341,228.753,233.568,237.401,241.181,243.971,246.383,250.865,255.716,259.019,260.855" svgx:width="0.69,0.27,0.31,0.53,0.23,0.53,0.27,0.56,0.43,0.37,0.43,0.55,0.31,0.23,0.82,0.44,0.47,0.55,0.27,0.54,0.42,0.44,0.31,0.27,0.51,0.55,0.37,0.23,0.35" style="fill:rgb(0,0,0);font-family:MinionPro-Regular;font-size:9.0px;stroke:none;">with different magnifications (</text>
   <text y="541.122" x="263.969,270.053,272.339" svgx:width="0.68,0.25,0.76" style="fill:rgb(0,0,0);font-family:MinionPro-Bold;font-size:9.0px;stroke:none;">C,D</text>
   <text y="541.122" x="279.188" svgx:width="0.35" style="fill:rgb(0,0,0);font-family:MinionPro-Regular;font-size:9.0px;stroke:none;">)</text>
  </g>
 </g>
</svg>
