<?xml version="1.0" encoding="UTF-8"?>
<svg height="774.23" width="566.8050000000001" xmlns="http://www.w3.org/2000/svg">
 <g id="page" xmlns:svgx="http://www.xml-cml.org/schema/svgx">
  <path style="fill:rgb(131,144,151);stroke:none;stroke-width:1.0;" d="M382.560 8.590 L382.560 26.390 L548.650 26.390 C548.650 26.390 554.310 26.390 554.310 20.720 L554.310 8.590 Z"/>
  <g begin="text">
   <text y="764.23" x="550.155" svgx:width="0.45" style="fill:rgb(131,144,151);font-family:Corbel;font-size:10.0px;stroke:none;">1</text>
  </g>
  <g begin="text">
   <text y="764.193" x="40.794,45.642,50.786,53.186,58.026,64.026,68.898,71.298,75.762,78.162" svgx:width="0.55,0.59,0.25,0.55,0.7,0.56,0.25,0.5,0.25,0.59" style="fill:rgb(131,144,151);font-family:Corbel;font-size:8.0px;stroke:none;">Scientific</text>
   <text y="764.193" x="83.162" svgx:width="0.2" style="fill:rgb(0,0,0);font-family:Corbel;font-size:8.0px;stroke:none;"> </text>
   <text y="764.193" x="84.762,90.218,95.194,100.434,106.738,112.194,117.186" svgx:width="0.63,0.57,0.6,0.73,0.63,0.57,0.58" style="fill:rgb(131,144,151);font-family:Corbel-Bold;font-size:8.0px;stroke:none;">RepoRts</text>
   <text y="764.193" x="122.082,123.524,125.34,126.781,130.885,132.997,137.102,141.206,145.31,149.414,153.518,154.946,156.762,158.203,163.571,169.411,171.379,173.491,174.93,179.034,183.138,185.25,189.354,193.458,197.562,201.666,203.866,207.098,209.778,213.762,218.01,222.114,226.218,230.322,234.426" svgx:width="0.2,0.23,0.2,0.51,0.26,0.51,0.51,0.51,0.51,0.51,0.2,0.23,0.2,0.67,0.73,0.25,0.26,0.2,0.51,0.51,0.26,0.51,0.51,0.51,0.51,0.28,0.4,0.34,0.5,0.53,0.51,0.51,0.51,0.51,0.51" style="fill:rgb(0,0,0);font-family:Corbel;font-size:8.0px;stroke:none;"> | 6:19195 | DOI: 10.1038/srep19195</text>
  </g>
  <path style="fill:rgb(0,0,0);stroke:none;stroke-width:1.0;" d="M344.780 89.410 L346.190 89.410 C350.720 89.410 355.630 88.560 355.630 82.900 C355.630 77.330 350.340 76.530 345.960 76.530 L344.780 76.530 ZM362.470 108.130 L357.090 108.130 L346.620 93.090 L344.780 93.090 L344.780 108.130 L340.340 108.130 L340.340 72.570 L345.720 72.570 C348.880 72.570 352.280 72.610 355.110 74.220 C358.080 75.960 359.780 79.310 359.780 82.710 C359.780 87.800 356.380 92.050 351.240 92.660 Z"/>
  <path style="fill:rgb(0,0,0);stroke:none;stroke-width:1.0;" d="M371.380 72.570 L390.480 72.570 L390.480 76.620 L375.810 76.620 L375.810 86.580 L390.060 86.580 L390.060 90.630 L375.810 90.630 L375.810 104.080 L390.480 104.080 L390.480 108.130 L371.380 108.130 Z"/>
  <path style="fill:rgb(0,0,0);stroke:none;stroke-width:1.0;" d="M405.810 89.270 L407.230 89.270 C411.760 89.270 416.660 88.420 416.660 82.760 C416.660 77.190 411.380 76.530 406.990 76.530 L405.810 76.530 ZM405.810 108.140 L401.380 108.140 L401.380 72.570 L406.470 72.570 C417.420 72.570 420.810 76.340 420.810 82.850 C420.810 90.350 415.110 93.230 408.360 93.230 L405.810 93.230 Z"/>
  <path style="fill:rgb(0,0,0);stroke:none;stroke-width:1.0;" d="M479.070 89.410 L480.480 89.410 C485.010 89.410 489.910 88.560 489.910 82.900 C489.910 77.330 484.630 76.530 480.240 76.530 L479.070 76.530 ZM496.760 108.130 L491.380 108.130 L480.910 93.090 L479.070 93.090 L479.070 108.130 L474.630 108.130 L474.630 72.570 L480.010 72.570 C483.170 72.570 486.570 72.610 489.400 74.220 C492.370 75.960 494.070 79.310 494.070 82.710 C494.070 87.800 490.670 92.050 485.530 92.660 Z"/>
  <path style="fill:rgb(0,0,0);stroke:none;stroke-width:1.0;" d="M514.300 108.130 L509.870 108.130 L509.870 76.620 L501.420 76.620 L501.420 72.570 L522.750 72.570 L522.750 76.620 L514.300 76.620 Z"/>
  <path style="fill:rgb(0,0,0);stroke:none;stroke-width:1.0;" d="M547.460 79.310 C546.140 77.090 544.440 75.960 541.750 75.960 C538.920 75.960 535.810 77.900 535.810 81.010 C535.810 83.790 538.550 85.260 540.760 86.100 L543.310 87.100 C548.360 89.080 552.130 91.860 552.130 97.800 C552.130 104.270 547.130 108.890 540.760 108.890 C535.010 108.890 530.530 104.640 529.770 98.940 L534.250 97.990 C534.200 101.910 537.320 104.740 541.140 104.740 C544.960 104.740 547.700 101.530 547.700 97.800 C547.700 93.980 544.630 92.330 541.560 91.060 L539.110 90.020 C535.060 88.270 531.370 85.960 531.370 81.010 C531.370 75.250 536.470 71.810 541.850 71.810 C545.810 71.810 549.060 73.750 551.000 77.190 Z"/>
  <path style="fill:rgb(237,29,36);stroke:none;stroke-width:1.0;" d="M436.850 114.510 C436.900 114.530 436.960 114.550 437.020 114.580 C438.210 115.100 439.220 115.910 439.990 116.910 C440.030 116.960 440.060 117.010 440.110 117.060 C440.850 118.080 441.340 119.280 441.510 120.570 C441.520 120.630 441.520 120.690 441.530 120.750 C441.590 121.370 441.590 122.010 441.500 122.660 C441.410 123.300 441.230 123.920 440.990 124.500 C440.970 124.550 440.940 124.610 440.920 124.660 C440.400 125.850 439.590 126.870 438.580 127.640 C438.540 127.680 438.490 127.710 438.440 127.750 C437.420 128.490 436.220 128.990 434.920 129.150 C434.870 129.160 434.800 129.170 434.750 129.170 C434.130 129.240 433.490 129.240 432.840 129.150 C432.190 129.050 431.580 128.880 431.000 128.640 C430.940 128.610 430.890 128.590 430.830 128.570 C429.650 128.040 428.620 127.240 427.860 126.230 C427.820 126.180 427.780 126.140 427.750 126.090 C427.000 125.070 426.510 123.860 426.350 122.570 C426.330 122.510 426.330 122.450 426.330 122.390 C426.250 121.770 426.250 121.140 426.350 120.490 C426.440 119.840 426.620 119.230 426.860 118.650 C426.880 118.590 426.900 118.540 426.930 118.480 C427.450 117.300 428.260 116.270 429.270 115.510 C429.310 115.470 429.360 115.430 429.410 115.400 C430.430 114.650 431.640 114.160 432.920 113.990 C432.990 113.980 433.040 113.970 433.100 113.970 C433.730 113.900 434.360 113.900 435.010 114.000 C435.660 114.090 436.270 114.270 436.850 114.510 M436.290 112.430 L436.710 109.530 C436.370 109.450 436.030 109.380 435.680 109.340 C435.330 109.290 434.980 109.260 434.640 109.240 L434.220 112.140 C433.250 112.110 432.300 112.230 431.410 112.470 L430.310 109.750 C429.640 109.960 428.990 110.220 428.370 110.530 L429.460 113.260 C428.630 113.710 427.870 114.280 427.200 114.960 L424.890 113.140 C424.410 113.650 423.980 114.200 423.590 114.790 L425.900 116.600 C425.410 117.390 425.030 118.270 424.790 119.200 L421.890 118.790 C421.810 119.130 421.740 119.470 421.690 119.820 C421.640 120.170 421.610 120.510 421.590 120.860 L424.490 121.280 C424.460 122.250 424.580 123.190 424.830 124.090 L422.100 125.180 C422.310 125.850 422.570 126.500 422.890 127.130 L425.620 126.030 C426.060 126.870 426.630 127.630 427.310 128.290 L425.490 130.600 C426.000 131.080 426.550 131.520 427.140 131.900 L428.960 129.590 C429.750 130.090 430.620 130.460 431.560 130.700 L431.150 133.610 C431.480 133.690 431.820 133.750 432.170 133.810 C432.520 133.860 432.870 133.890 433.220 133.900 L433.630 131.000 C434.600 131.030 435.550 130.910 436.440 130.670 L437.530 133.390 C438.210 133.190 438.860 132.920 439.480 132.610 L438.380 129.880 C439.220 129.430 439.980 128.860 440.650 128.190 L442.960 130.000 C443.430 129.490 443.870 128.940 444.260 128.350 L441.950 126.540 C442.440 125.750 442.820 124.880 443.060 123.940 L445.970 124.360 C446.040 124.020 446.110 123.670 446.160 123.320 C446.210 122.970 446.240 122.630 446.260 122.280 L443.360 121.860 C443.390 120.900 443.270 119.950 443.020 119.050 L445.750 117.960 C445.540 117.290 445.280 116.640 444.960 116.020 L442.240 117.110 C441.790 116.270 441.210 115.510 440.540 114.850 L442.360 112.540 C441.850 112.060 441.300 111.630 440.710 111.240 L438.900 113.550 C438.110 113.060 437.230 112.680 436.290 112.430 "/>
  <path style="fill:rgb(237,29,36);stroke:none;stroke-width:1.0;" d="M446.960 105.160 C438.890 105.160 432.360 98.620 432.360 90.550 C432.360 82.490 438.890 75.960 446.960 75.960 C455.020 75.960 461.560 82.490 461.560 90.550 C461.560 98.620 455.020 105.160 446.960 105.160 M469.050 92.070 L469.050 89.040 L464.630 89.040 C464.520 87.710 464.260 86.420 463.870 85.190 L467.950 83.500 L466.790 80.700 L462.710 82.390 C462.100 81.220 461.370 80.130 460.530 79.130 L463.650 76.010 L461.510 73.860 L458.380 76.990 C457.380 76.140 456.290 75.410 455.130 74.810 L456.810 70.720 L454.010 69.560 L452.320 73.640 C451.100 73.250 449.800 72.990 448.470 72.880 L448.470 68.460 L445.440 68.460 L445.440 72.880 C444.110 72.990 442.820 73.250 441.590 73.640 L439.900 69.560 L437.100 70.720 L438.790 74.810 C437.620 75.410 436.530 76.140 435.530 76.990 L432.410 73.860 L430.260 76.010 L433.390 79.130 C432.540 80.130 431.810 81.220 431.200 82.390 L427.130 80.700 L425.960 83.500 L430.040 85.190 C429.650 86.420 429.400 87.710 429.280 89.040 L424.860 89.040 L424.860 92.070 L429.280 92.070 C429.400 93.400 429.650 94.690 430.040 95.920 L425.960 97.610 L427.130 100.420 L431.210 98.720 C431.810 99.890 432.550 100.980 433.390 101.980 L430.260 105.110 L432.410 107.250 L435.530 104.130 C436.530 104.970 437.620 105.700 438.790 106.310 L437.100 110.390 L439.910 111.550 L441.590 107.470 C442.820 107.860 444.110 108.110 445.440 108.230 L445.440 112.650 L448.480 112.650 L448.480 108.230 C449.800 108.110 451.100 107.860 452.320 107.470 L454.010 111.550 L456.820 110.390 L455.130 106.310 C456.290 105.700 457.380 104.970 458.380 104.130 L461.510 107.250 L463.650 105.110 L460.530 101.980 C461.370 100.980 462.100 99.890 462.710 98.720 L466.790 100.420 L467.950 97.610 L463.870 95.920 C464.260 94.690 464.520 93.400 464.630 92.070 Z"/>
  <path style="fill:rgb(0,0,0);stroke:none;stroke-width:1.0;" d="M60.590 78.420 C59.000 75.890 56.760 74.260 53.450 74.260 C49.660 74.260 46.810 77.300 46.810 80.980 C46.810 84.670 50.320 86.210 53.160 87.570 L59.890 91.070 C62.550 92.750 63.910 94.900 63.910 98.070 C63.910 103.910 58.580 108.300 52.880 108.300 C47.980 108.300 44.150 105.270 42.520 100.740 L44.480 99.850 C45.970 103.590 48.730 106.200 52.980 106.200 C57.600 106.200 61.660 102.560 61.660 97.890 C61.660 93.920 57.600 92.240 54.570 90.740 L48.220 87.380 C45.880 85.930 44.570 83.880 44.570 81.080 C44.570 75.850 48.310 72.160 53.590 72.160 C57.130 72.160 60.500 74.070 62.180 77.110 Z"/>
  <path style="fill:rgb(0,0,0);stroke:none;stroke-width:1.0;" d="M103.180 79.820 C100.470 76.500 95.710 74.260 91.370 74.260 C82.590 74.260 75.350 81.830 75.350 90.460 C75.350 94.570 77.130 98.450 80.070 101.340 C83.010 104.150 87.210 106.200 91.370 106.200 C95.430 106.200 100.570 104.000 103.180 100.830 L103.180 103.910 C99.870 106.670 95.800 108.300 91.460 108.300 C81.660 108.300 73.110 100.130 73.110 90.280 C73.110 80.280 81.520 72.160 91.510 72.160 C95.760 72.160 100.050 73.840 103.180 76.740 Z"/>
  <path style="fill:rgb(0,0,0);stroke:none;stroke-width:1.0;" d="M132.800 74.730 L132.800 87.520 L146.990 87.520 L146.990 89.620 L132.800 89.620 L132.800 105.730 L147.360 105.730 L147.360 107.830 L130.550 107.830 L130.550 72.630 L147.360 72.630 L147.360 74.730 Z"/>
  <path style="fill:rgb(0,0,0);stroke:none;stroke-width:1.0;" d="M191.540 109.000 L161.980 77.580 L161.980 107.830 L159.740 107.830 L159.740 72.160 L189.300 103.350 L189.300 72.630 L191.540 72.630 Z"/>
  <path style="fill:rgb(0,0,0);stroke:none;stroke-width:1.0;" d="M212.470 107.830 L210.230 107.830 L210.230 74.730 L201.120 74.730 L201.120 72.630 L221.570 72.630 L221.570 74.730 L212.470 74.730 Z"/>
  <path style="fill:rgb(0,0,0);stroke:none;stroke-width:1.0;" d="M248.710 74.730 L248.710 87.520 L260.340 87.520 L260.340 89.620 L248.710 89.620 L248.710 107.830 L246.470 107.830 L246.470 72.630 L260.670 72.630 L260.670 74.730 Z"/>
  <path style="fill:rgb(0,0,0);stroke:none;stroke-width:1.0;" d="M316.000 79.820 C313.300 76.500 308.530 74.260 304.190 74.260 C295.410 74.260 288.170 81.830 288.170 90.460 C288.170 94.570 289.950 98.450 292.890 101.340 C295.830 104.150 300.030 106.200 304.190 106.200 C308.250 106.200 313.390 104.000 316.000 100.830 L316.000 103.910 C312.690 106.670 308.630 108.300 304.280 108.300 C294.480 108.300 285.930 100.130 285.930 90.280 C285.930 80.280 294.340 72.160 304.330 72.160 C308.580 72.160 312.870 73.840 316.000 76.740 Z"/>
  <g begin="text">
   <text y="22.277" x="389.724,397.484,405.243,412.702,415.869,421.732,427.216,431.234,437.005,440.9,446.465,449.633,454.583,460.508,469.466,472.746,477.349,482.299,485.139,490.699,496.562,500.58,503.419,507.14,509.979,514.93,518.825,524.391,530.295,536.219,540.115,544.133" svgx:width="0.71,0.71,0.71,0.26,0.53,0.49,0.35,0.52,0.34,0.5,0.26,0.44,0.53,0.83,0.28,0.4,0.44,0.23,0.5,0.53,0.35,0.23,0.32,0.23,0.44,0.34,0.5,0.53,0.53,0.34,0.35,0.4" style="fill:rgb(255,255,255);font-family:Corbel;font-size:10.25px;stroke:none;">www.nature.com/scientificreports</text>
  </g>
  <path style="fill:none;stroke:rgb(131,144,151);stroke-width:1.0;" d="M147.900 733.190 L147.900 155.990 "/>
  <path style="fill:none;stroke:rgb(131,144,151);stroke-width:1.0;" d="M147.900 736.190 L147.900 736.190 M147.900 154.490 L147.900 154.490 "/>
  <path style="fill:none;stroke:rgb(131,144,151);stroke-width:1.0;" d="M159.400 145.000 L550.760 145.000 "/>
  <path style="fill:none;stroke:rgb(131,144,151);stroke-width:1.0;" d="M156.410 145.000 L156.410 145.000 M552.260 145.000 L552.260 145.000 "/>
  <path style="fill:none;stroke:rgb(0,0,0);stroke-width:1.0;" d="M40.640 752.550 L554.640 752.550 "/>
  <g begin="text">
   <text y="171.406" x="155.638,170.458,185.018,198.356,203.166,216.504,232.806,246.144,257.61,267.464,272.289,286.693,295.221,300.039,313.429,327.859,342.289,355.627,369.017,375.569,382.043,396.473,410.773,415.539,429.943,444.373,449.177,462.568" svgx:width="0.57,0.56,0.51,0.21,0.51,0.63,0.51,0.44,0.38,0.21,0.55,0.33,0.21,0.51,0.56,0.56,0.51,0.51,0.25,0.25,0.56,0.55,0.21,0.55,0.56,0.21,0.51,0.21" style="fill:rgb(0,0,0);font-family:Corbel-Bold;font-size:26.0px;stroke:none;">The effect of annealing on a </text>
   <text y="201.41" x="155.638,169.34,187.254,191.447,206.449,220.879" svgx:width="0.53,0.69,0.21,0.58,0.56,0.73" style="fill:rgb(0,0,0);font-family:Corbel-Bold;font-size:26.0px;stroke:none;">3D SnO</text>
   <text y="206.606" x="239.97" svgx:width="0.53" style="fill:rgb(0,0,0);font-family:Corbel-Bold;font-size:16.9px;stroke:none;">2</text>
   <text y="201.406" x="248.882,256.526,270.826,279.926,293.303,307.603,322.163,335.501,349.931,363.269,368.051,376.578,390.982,404.372,426.525,431.348,444.737,455.761,460.569,473.959,488.389" svgx:width="0.29,0.55,0.35,0.51,0.55,0.56,0.51,0.56,0.51,0.21,0.33,0.55,0.51,0.85,0.21,0.51,0.42,0.21,0.51,0.56,0.21" style="fill:rgb(0,0,0);font-family:Corbel-Bold;font-size:26.0px;stroke:none;">/graphene foam as an </text>
   <text y="231.41" x="155.646,169.036,183.544,196.31,209.7,224.13,235.596,248.934,263.442,267.961,274.513,280.987,290.841,305.401,311.875,326.045,348.197,356.855,363.329,377.733,392.163,396.679,411.161,424.551,434.405,444.259,457.597,466.697,480.061,484.624,498.014,512.444,526.848,541.356" svgx:width="0.51,0.56,0.49,0.51,0.56,0.44,0.51,0.56,0.21,0.25,0.25,0.38,0.56,0.25,0.55,0.85,0.33,0.25,0.55,0.56,0.21,0.56,0.51,0.38,0.38,0.51,0.35,0.51,0.21,0.51,0.56,0.55,0.56,0.51" style="fill:rgb(0,0,0);font-family:Corbel-Bold;font-size:26.0px;stroke:none;">advanced lithium-ion battery anode</text>
   <text y="253.406" x="155.638,161.918,167.068,172.618,173.768,179.468,181.958,187.108,192.658,195.828,196.56,202.219,207.369,212.919,218.419,223.559,228.709,234.259,239.759,241.238,247.248,252.848,257.998,263.548,269.048,272.218,273.702,279.712,285.312,287.802,293.402,298.552,304.102,309.602,311.028,316.868,322.468,327.598,333.148,336.318,338.151,345.131,350.581,355.731,361.281,366.431,371.981,373.808,380.698,386.148,391.298,396.848,400.018,401.849,408.079,410.569,415.709,418.199,419.688,426.048,431.498,434.668,435.404,441.744,444.234,449.734,452.224,457.774,463.274,464.708,471.428,476.878,482.418,485.588,487.426,494.406,499.946,505.496,510.996,519.516,524.646,527.136,528.968,535.288,540.438,545.988,551.488,554.658" svgx:width="0.63,0.51,0.56,0.21,0.57,0.25,0.51,0.56,0.32,0.21,0.63,0.51,0.56,0.55,0.51,0.51,0.56,0.55,0.21,0.6,0.56,0.51,0.56,0.55,0.32,0.21,0.6,0.56,0.25,0.56,0.51,0.56,0.55,0.21,0.58,0.56,0.51,0.56,0.32,0.21,0.7,0.55,0.51,0.56,0.51,0.56,0.21,0.69,0.55,0.51,0.56,0.32,0.21,0.62,0.25,0.51,0.25,0.21,0.64,0.55,0.32,0.21,0.63,0.25,0.55,0.25,0.56,0.55,0.21,0.67,0.55,0.55,0.32,0.21,0.7,0.55,0.56,0.55,0.85,0.51,0.25,0.21,0.63,0.51,0.56,0.55,0.32,0.21" style="fill:rgb(0,0,0);font-family:Corbel-Bold;font-size:10.0px;stroke:none;">Ran Tian, Yangyang Zhang, Zhihang Chen, Huanan Duan, Biyi Xu, Yiping Guo, Hongmei Kang, </text>
   <text y="265.406" x="155.648,162.628,168.078,173.228,175.078,180.458,182.948,184.794,191.714,193.567,200.547,205.677,210.357,215.957,221.497,226.947,228.788,234.168,236.658" svgx:width="0.7,0.55,0.51,0.21,0.54,0.25,0.21,0.69,0.21,0.7,0.51,0.47,0.56,0.55,0.55,0.21,0.54,0.25,0.55" style="fill:rgb(0,0,0);font-family:Corbel-Bold;font-size:10.0px;stroke:none;">Hua Li &amp; Hezhou Liu</text>
   <text y="285.406" x="155.638,160.381,166.582,168.254,172.889,177.884,182.879,187.496,192.115,194.383,199.001,204.023,205.47,210.663,215.658" svgx:width="0.53,0.69,0.21,0.51,0.56,0.56,0.51,0.51,0.25,0.51,0.56,0.21,0.58,0.56,0.73" style="fill:rgb(0,0,0);font-family:Corbel-Bold;font-size:9.0px;stroke:none;">3D annealed SnO</text>
   <text y="287.206" x="222.266" svgx:width="0.53" style="fill:rgb(0,0,0);font-family:Corbel-Bold;font-size:5.85px;stroke:none;">2</text>
   <text y="285.406" x="225.351,227.997,232.947,236.097,240.732,245.682,250.722,255.339,260.334,264.951,266.601,270.417,275.457,280.074,284.691,288.102,289.764,292.716,297.702,302.337,310.005,313.821,315.484,318.238,324.151,329.344,335.392,340.081,343.897,346.651,348.32,352.955,356.105,360.722,362.381,366.197,370.823,375.818,379.229,384.269,388.886,392.702,394.943,399.155,403.772,408.794,410.439,415.452,420.078" svgx:width="0.29,0.55,0.35,0.51,0.55,0.56,0.51,0.56,0.51,0.21,0.42,0.56,0.51,0.51,0.38,0.21,0.33,0.55,0.51,0.85,0.42,0.21,0.31,0.66,0.58,0.67,0.52,0.42,0.31,0.21,0.51,0.35,0.51,0.21,0.42,0.51,0.56,0.38,0.56,0.51,0.42,0.25,0.47,0.51,0.56,0.21,0.56,0.51,0.21" style="fill:rgb(0,0,0);font-family:Corbel-Bold;font-size:9.0px;stroke:none;">/graphene sheet foams (ASGFs) are synthesized by </text>
   <text y="285.406" x="421.749,423.954,428.805,430.47,434.232,436.437,439.803" svgx:width="0.25,0.54,0.21,0.42,0.25,0.37,0.52" style="fill:rgb(0,0,0);font-family:Corbel-BoldItalic;font-size:9.0px;stroke:none;">in situ</text>
   <text y="285.406" x="444.528,446.197,450.013,454.63,456.898,459.676,462.673,467.308,471.124,474.94,479.557,487.225,492.238,494.506,499.132,500.789,505.775,508.727,510.395,515.345,518.495,523.13,528.08,533.12,537.737,542.732,547.349" svgx:width="0.21,0.42,0.51,0.25,0.33,0.33,0.51,0.42,0.42,0.51,0.85,0.56,0.25,0.51,0.21,0.55,0.33,0.21,0.55,0.35,0.51,0.55,0.56,0.51,0.56,0.51,0.21" style="fill:rgb(0,0,0);font-family:Corbel-Bold;font-size:9.0px;stroke:none;"> self-assembly of graphene </text>
   <text y="296.404" x="155.646,159.462,164.502,169.119,173.736,177.147,180.963,182.623,187.573,190.718,195.335,200.285,204.92,208.07,212.687,217.709,219.36,224.373,228.999,230.665,238.333,240.574,242.842,247.864,249.53,253.499,258.539,263.156,270.824,273.065,277.034,281.669,283.926,285.596,288.746,293.363,298.385,303.29,307.259,310.67,312.911,317.897,322.892,325.52,327.176,331.751,334.748,339.383,343.199,347.168,352.154,355.304,360.317,364.943,367.211,368.866,373.501,377.47,379.711,384.733,386.39,388.631,392.447,394.111,399.016,402.832,407.449,412.471,414.131,417.542,422.528,424.199,428.816,434.459,439.076,443.045,446.456,448.697,453.116,457.733,460.001,464.627,466.293,469.443,474.06,479.082,483.987,487.956,492.573,494.228,497.639,502.679,507.296,508.742,513.935,518.93" svgx:width="0.42,0.56,0.51,0.51,0.38,0.42,0.21,0.55,0.35,0.51,0.55,0.51,0.35,0.51,0.56,0.21,0.56,0.51,0.21,0.85,0.25,0.25,0.56,0.21,0.44,0.56,0.51,0.85,0.25,0.44,0.51,0.25,0.21,0.35,0.51,0.56,0.55,0.44,0.38,0.25,0.55,0.56,0.29,0.21,0.54,0.33,0.51,0.42,0.44,0.55,0.35,0.56,0.51,0.25,0.21,0.51,0.44,0.25,0.56,0.21,0.25,0.42,0.21,0.55,0.42,0.51,0.56,0.21,0.38,0.55,0.21,0.51,0.63,0.51,0.44,0.38,0.25,0.49,0.51,0.25,0.51,0.21,0.35,0.51,0.56,0.55,0.44,0.51,0.21,0.38,0.56,0.51,0.21,0.58,0.56,0.73" style="fill:rgb(0,0,0);font-family:Corbel-Bold;font-size:9.0px;stroke:none;">sheets prepared by mild chemical reduction. L-ascorbyl acid is used to effectively reduce the SnO</text>
   <text y="298.206" x="525.531" svgx:width="0.53" style="fill:rgb(0,0,0);font-family:Corbel-Bold;font-size:5.85px;stroke:none;">2</text>
   <text y="296.406" x="528.615" svgx:width="0.21" style="fill:rgb(0,0,0);font-family:Corbel-Bold;font-size:9.0px;stroke:none;"> </text>
   <text y="307.404" x="155.637,160.632,165.267,170.262,175.248,180.198,184.833,187.983,191.394,193.635,197.604,199.872,204.489,208.305,210.951,215.901,219.051,223.686,228.636,233.676,238.293,243.288,247.905,249.534,254.386,259.075,261.316,266.338,270.955,272.618,276.587,281.573,283.841,286.109,291.095,293.336,298.358,302.993,305.261,306.926,310.742,315.728,317.996,322.901,326.312,328.553,333.539,338.534,340.195,344.83,349.825,354.847,356.507,359.459,364.445,367.595,375.263,376.928,380.339,385.379,389.996,391.662,396.405,402.606,404.278,408.247,413.233,418.228,423.25,428.155,432.124,435.535,437.776,442.195,446.812,448.471,453.421,456.571,461.206,466.156,471.196,475.813,480.808,485.425,487.072,492.067,496.684,500.095,506.836,511.822,514.972,519.616,523.432,526.06,527.11,532.24,537.28,541.897" svgx:width="0.56,0.51,0.56,0.55,0.55,0.51,0.35,0.38,0.25,0.44,0.25,0.51,0.42,0.29,0.55,0.35,0.51,0.55,0.56,0.51,0.56,0.51,0.21,0.55,0.52,0.25,0.56,0.51,0.21,0.44,0.55,0.25,0.25,0.55,0.25,0.56,0.51,0.25,0.21,0.42,0.55,0.25,0.55,0.38,0.25,0.55,0.56,0.21,0.51,0.56,0.56,0.21,0.33,0.55,0.35,0.85,0.21,0.38,0.56,0.51,0.21,0.53,0.69,0.21,0.44,0.55,0.56,0.56,0.55,0.44,0.38,0.25,0.49,0.51,0.21,0.55,0.35,0.51,0.55,0.56,0.51,0.56,0.51,0.21,0.56,0.51,0.38,0.75,0.55,0.35,0.52,0.42,0.29,0.21,0.57,0.56,0.51,0.21" style="fill:rgb(0,0,0);font-family:Corbel-Bold;font-size:9.0px;stroke:none;">nanoparticles/graphene oxide colloidal solution and form the 3D conductive graphene networks. The </text>
   <text y="318.402" x="155.637,160.272,165.267,170.262,174.879,179.514,181.782,184.023,189.018,193.968,195.618,199.029,202.179,206.796,211.431,214.842,222.51,227.127,232.122,235.533,237.198,241.167,246.153,251.148,254.559,257.709,259.95,264.963,269.868,273.279,277.896,281.712,283.371,286.782,291.768,293.437,296.848,301.888,306.505,308.171,311.123,316.109,319.259,326.927,331.562,334.973,337.214,342.2,347.195,348.851,353.837,356.789,358.457,361.868,366.908,371.525,372.97,378.163,383.158,386.155,392.761,395.758,401.014,402.681,407.694,412.68,417.675,422.697,426.513,428.173,433.186,437.803,441.214,447.955,452.572,457.189,462.184,463.847,467.258,472.298,476.915,478.361,483.554,488.549" svgx:width="0.51,0.56,0.56,0.51,0.51,0.25,0.25,0.56,0.55,0.21,0.38,0.35,0.51,0.51,0.38,0.85,0.51,0.56,0.38,0.21,0.44,0.55,0.56,0.38,0.35,0.25,0.56,0.55,0.38,0.51,0.42,0.21,0.38,0.55,0.21,0.38,0.56,0.51,0.21,0.33,0.55,0.35,0.85,0.51,0.38,0.25,0.55,0.56,0.21,0.55,0.33,0.21,0.38,0.56,0.51,0.21,0.58,0.56,0.33,0.73,0.33,0.58,0.21,0.56,0.55,0.56,0.56,0.42,0.21,0.56,0.51,0.38,0.75,0.51,0.51,0.56,0.21,0.38,0.56,0.51,0.21,0.58,0.56,0.73" style="fill:rgb(0,0,0);font-family:Corbel-Bold;font-size:9.0px;stroke:none;">annealing treatment contributes to the formation of the Sn-O-C bonds between the SnO</text>
   <text y="320.206" x="495.157" svgx:width="0.53" style="fill:rgb(0,0,0);font-family:Corbel-Bold;font-size:5.85px;stroke:none;">2</text>
   <text y="318.406" x="498.242,499.912,504.907,509.542,514.537,519.523,524.473,529.108,532.258,535.669,537.91,541.879,544.147,548.764,552.58" svgx:width="0.21,0.56,0.51,0.56,0.55,0.55,0.51,0.35,0.38,0.25,0.44,0.25,0.51,0.42,0.21" style="fill:rgb(0,0,0);font-family:Corbel-Bold;font-size:9.0px;stroke:none;"> nanoparticles </text>
   <text y="329.404" x="155.639,160.274,165.269,170.291,171.951,175.362,180.402,185.019,186.685,189.835,194.452,199.474,204.379,208.348,212.965,217.987,219.638,224.588,227.738,232.373,237.323,242.363,246.98,251.975,256.592,258.241,262.057,267.097,271.714,276.331,279.742,283.558,286.401,288.071,294.812,299.852,302.093,306.062,311.102,312.758,314.999,322.667,327.617,330.767,335.753,340.172,344.789,348.605,350.26,353.671,358.711,363.328,364.994,369.611,371.879,376.496,380.465,383.876,387.026,392.012,395.981,401.021,405.638,413.294,415.535,419.504,424.139,426.407,428.072,433.022,437.639,440.789,443.741,448.727,451.877,459.545,464.18,469.175,473.144,477.761,479.408,484.394,487.346,489.014,492.425,497.465,502.082,503.748,506.7,511.686,516.321,523.989,527.805,530.433,531.485,536.615,541.655,546.272" svgx:width="0.51,0.56,0.56,0.21,0.38,0.56,0.51,0.21,0.35,0.51,0.56,0.55,0.44,0.51,0.56,0.21,0.55,0.35,0.51,0.55,0.56,0.51,0.56,0.51,0.21,0.42,0.56,0.51,0.51,0.38,0.42,0.32,0.21,0.75,0.56,0.25,0.44,0.56,0.21,0.25,0.85,0.55,0.35,0.55,0.49,0.51,0.42,0.21,0.38,0.56,0.51,0.21,0.51,0.25,0.51,0.44,0.38,0.35,0.55,0.44,0.56,0.51,0.85,0.25,0.44,0.51,0.25,0.21,0.55,0.51,0.35,0.33,0.55,0.35,0.85,0.51,0.56,0.44,0.51,0.21,0.55,0.33,0.21,0.38,0.56,0.51,0.21,0.33,0.55,0.51,0.85,0.42,0.29,0.21,0.57,0.56,0.51,0.21" style="fill:rgb(0,0,0);font-family:Corbel-Bold;font-size:9.0px;stroke:none;">and the reduced graphene sheets, which improves the electrochemical performance of the foams. The </text>
   <text y="340.402" x="155.639,161.552,166.745,172.793,177.482,179.158,184.198,188.826,192.642,194.309,197.261,201.878,206.513,209.924,214.829,217.979,222.588,226.404,228.072,233.058,236.01,237.677,241.088,245.714,250.664,252.905,256.874,261.509,263.777,265.441,270.076,274.693,277.843,282.829,287.779,292.396,294.664,298.48,301.108,302.768,305.036,310.022,316.763,318.433,323.455,328.072,333.067,336.883,339.124,342.535,347.161,348.816,351.57,356.205,361.218,366.204,371.109,374.52,376.184,380.927,385.67,386.804,394.472,399.422,401.09,405.059" svgx:width="0.66,0.58,0.67,0.52,0.21,0.56,0.51,0.42,0.21,0.33,0.51,0.51,0.38,0.55,0.35,0.51,0.42,0.21,0.55,0.33,0.21,0.38,0.51,0.55,0.25,0.44,0.51,0.25,0.21,0.51,0.51,0.35,0.55,0.55,0.51,0.25,0.42,0.29,0.21,0.25,0.55,0.75,0.21,0.56,0.51,0.56,0.42,0.25,0.38,0.51,0.21,0.31,0.51,0.56,0.55,0.55,0.38,0.21,0.53,0.53,0.21,0.85,0.55,0.21,0.44,0.85" style="fill:rgb(0,0,0);font-family:Corbel-Bold;font-size:9.0px;stroke:none;">ASGF has features of typical aerogels: low density (about 19 mg cm</text>
   <text y="337.346" x="412.722" svgx:width="0.89" style="fill:rgb(0,0,0);font-family:EuclidSymbol-Bold;font-size:5.85px;stroke:none;">−</text>
   <text y="337.346" x="417.952" svgx:width="0.53" style="fill:rgb(0,0,0);font-family:Corbel-Bold;font-size:5.85px;stroke:none;">3</text>
   <text y="340.406" x="421.037,423.791,426.644,428.309,432.125,439.793,444.779,449.765,453.176,458.216,459.878,463.694,468.599,471.749,474.701,479.336,483.305,487.922,489.58,494.215,499.21,504.232,505.892,510.842,515.828,518.978,523.964,528.869,532.685" svgx:width="0.31,0.32,0.21,0.42,0.85,0.55,0.55,0.38,0.56,0.21,0.42,0.55,0.35,0.33,0.51,0.44,0.51,0.21,0.51,0.56,0.56,0.21,0.55,0.55,0.35,0.55,0.55,0.42,0.21" style="fill:rgb(0,0,0);font-family:Corbel-Bold;font-size:9.0px;stroke:none;">), smooth surface and porous </text>
   <text y="351.404" x="155.636,159.452,162.863,166.013,170.918,174.887,178.298,183.203,186.353,190.97,193.598,194.65,199.78,204.82,209.437,210.706,216.619,221.812,227.86,232.549,234.221,238.856,243.851,248.837,253.859,258.476,262.292,263.945,268.562,273.251,278.291,280.532,285.54,287.781,291.192,292.861,297.811,302.797,307.783,312.805,314.462,318.279,323.229,327.846,331.815,334.056,339.15,343.118,344.78,348.749,353.384,358.334,362.969,366.938,369.179,372.59,376.896,379.749,381.416,386.033,390.592,394.561,399.178,401.446,403.714,408.331,413.326,416.737,418.41,422.379,427.005,430.974,433.242,435.483,440.478,445.428,447.087,450.903,454.314,458.949,463.962,466.203,468.471,470.712,474.124,478.75,480.415,485.05,490.045,495.067,496.726,500.542,505.447,510.397,515.014,518.164,520.405,525.391,528.541,530.19,533.34,537.975,541.386,546.003" svgx:width="0.42,0.38,0.35,0.55,0.44,0.38,0.55,0.35,0.51,0.29,0.21,0.57,0.56,0.51,0.21,0.66,0.58,0.67,0.52,0.21,0.51,0.56,0.55,0.56,0.51,0.42,0.21,0.51,0.52,0.56,0.25,0.56,0.25,0.38,0.21,0.55,0.55,0.55,0.56,0.21,0.42,0.55,0.51,0.44,0.25,0.57,0.44,0.21,0.44,0.51,0.55,0.51,0.44,0.25,0.38,0.51,0.32,0.21,0.51,0.52,0.44,0.51,0.25,0.25,0.51,0.56,0.38,0.21,0.44,0.51,0.44,0.25,0.25,0.56,0.55,0.21,0.42,0.38,0.51,0.56,0.25,0.25,0.25,0.38,0.51,0.21,0.51,0.56,0.56,0.21,0.42,0.55,0.55,0.51,0.35,0.25,0.55,0.35,0.21,0.35,0.51,0.38,0.51,0.21" style="fill:rgb(0,0,0);font-family:Corbel-Bold;font-size:9.0px;stroke:none;">structure. The ASGF anodes exhibit good specific capacity, excellent cycling stability and superior rate </text>
   <text y="362.402" x="155.636,159.605,164.24,169.19,173.825,178.838,181.079,183.347,185.588,188.999,193.174,195.802,196.86,201.99,207.03,211.647,213.312,218.406,221.556,225.372,228.783,230.455,233.605,238.171,242.59,247.207,250.357,254.173,256.414,261.427,263.695,268.312,269.974,273.79,278.74,283.357,287.319,289.56,294.654,298.623,300.291,304.26,308.895,313.845,318.48,322.449,324.69,328.101,332.727,334.382,336.623,340.439,342.103,346.738,350.554,352.218,357.258,359.499,364.449,369.49,371.145,375.78,379.596,381.26,386.003,390.746,395.489,398.117,402.86,404.0,411.668,417.581,422.621,424.289" svgx:width="0.44,0.51,0.55,0.51,0.56,0.25,0.25,0.25,0.38,0.51,0.29,0.21,0.57,0.56,0.51,0.21,0.57,0.35,0.42,0.38,0.21,0.35,0.51,0.49,0.51,0.35,0.42,0.25,0.56,0.25,0.51,0.21,0.42,0.55,0.51,0.44,0.25,0.57,0.44,0.21,0.44,0.51,0.55,0.51,0.44,0.25,0.38,0.51,0.21,0.25,0.42,0.21,0.51,0.42,0.21,0.56,0.25,0.55,0.56,0.21,0.51,0.42,0.21,0.53,0.53,0.53,0.29,0.53,0.21,0.85,0.66,0.56,0.21,0.55" style="fill:rgb(0,0,0);font-family:Corbel-Bold;font-size:9.0px;stroke:none;">capability. The first reversible specific capacity is as high as 984.2 mAh g</text>
   <text y="359.346" x="429.24" svgx:width="0.89" style="fill:rgb(0,0,0);font-family:EuclidSymbol-Bold;font-size:5.85px;stroke:none;">−</text>
   <text y="359.346" x="434.47" svgx:width="0.53" style="fill:rgb(0,0,0);font-family:Corbel-Bold;font-size:5.85px;stroke:none;">1</text>
   <text y="362.406" x="437.555,439.224,443.859,447.271,448.939,453.574,455.24,459.056,464.006,468.623,472.592,474.833,479.927,483.896,485.557,489.526,494.431,497.581,500.731,505.348,510.343,513.754,515.413,520.399,523.351,525.019,529.762,534.505,539.248,540.38,548.048,553.961" svgx:width="0.21,0.51,0.38,0.21,0.51,0.21,0.42,0.55,0.51,0.44,0.25,0.57,0.44,0.21,0.44,0.55,0.35,0.35,0.51,0.56,0.38,0.21,0.55,0.33,0.21,0.53,0.53,0.53,0.21,0.85,0.66,0.21" style="fill:rgb(0,0,0);font-family:Corbel-Bold;font-size:9.0px;stroke:none;"> at a specific current of 200 mA </text>
   <text y="373.404" x="155.639" svgx:width="0.55" style="fill:rgb(0,0,0);font-family:Corbel-Bold;font-size:9.0px;stroke:none;">g</text>
   <text y="370.346" x="160.586" svgx:width="0.89" style="fill:rgb(0,0,0);font-family:EuclidSymbol-Bold;font-size:5.85px;stroke:none;">−</text>
   <text y="370.346" x="165.816" svgx:width="0.53" style="fill:rgb(0,0,0);font-family:Corbel-Bold;font-size:5.85px;stroke:none;">1</text>
   <text y="373.406" x="168.901,171.529,173.202,178.314,182.733,187.35,192.34,194.009,198.644,202.055,203.724,207.135,212.175,216.792,218.458,223.498,225.739,230.689,235.729,237.385,241.201,246.151,250.768,254.737,256.978,262.072,266.041,267.702,271.671,276.576,279.726,282.876,287.482,292.477,295.888,297.557,302.543,305.495,307.163,311.906,316.649,321.392,326.135,327.274,334.942,340.855,342.526" svgx:width="0.29,0.21,0.57,0.49,0.51,0.56,0.21,0.51,0.38,0.21,0.38,0.56,0.51,0.21,0.56,0.25,0.55,0.56,0.21,0.42,0.55,0.51,0.44,0.25,0.57,0.44,0.21,0.44,0.55,0.35,0.35,0.51,0.56,0.38,0.21,0.55,0.33,0.21,0.53,0.53,0.53,0.53,0.21,0.85,0.66,0.21,0.55" style="fill:rgb(0,0,0);font-family:Corbel-Bold;font-size:9.0px;stroke:none;">. Even at the high specific current of 1000 mA g</text>
   <text y="370.346" x="347.473" svgx:width="0.89" style="fill:rgb(0,0,0);font-family:EuclidSymbol-Bold;font-size:5.85px;stroke:none;">−</text>
   <text y="370.346" x="352.703" svgx:width="0.53" style="fill:rgb(0,0,0);font-family:Corbel-Bold;font-size:5.85px;stroke:none;">1</text>
   <text y="373.406" x="355.788,357.458,362.093,365.045,368.456,373.073,376.223,377.887,382.63,387.373,392.116,393.794,397.763,402.389,406.358,408.626,413.243,417.059,419.912,421.579,424.99,430.03,434.647,436.313,439.463,444.03,448.449,453.066,456.216,460.032,462.273,467.286,469.554,474.171,475.832,479.648,484.598,489.215,493.184,495.425,500.519,504.488,506.149,510.118,514.753,519.703,524.338,528.307,530.548,533.959,538.585" svgx:width="0.21,0.51,0.33,0.38,0.51,0.35,0.21,0.53,0.53,0.53,0.21,0.44,0.51,0.44,0.25,0.51,0.42,0.32,0.21,0.38,0.56,0.51,0.21,0.35,0.51,0.49,0.51,0.35,0.42,0.25,0.56,0.25,0.51,0.21,0.42,0.55,0.51,0.44,0.25,0.57,0.44,0.21,0.44,0.51,0.55,0.51,0.44,0.25,0.38,0.51,0.21" style="fill:rgb(0,0,0);font-family:Corbel-Bold;font-size:9.0px;stroke:none;"> after 150 cycles, the reversible specific capacity </text>
   <text y="384.404" x="155.637,160.623,163.575,164.847,170.76,175.953,182.001,186.69,188.366,190.607,194.423,196.086,199.902,203.313,205.554,207.822,210.09,211.765,216.4,220.216,221.881,226.921,229.162,234.112,239.152,240.807,245.442,249.258,250.922,255.665,260.408,265.151,267.779,272.522,273.663,281.331,287.244,292.284,293.952" svgx:width="0.55,0.33,0.21,0.66,0.58,0.67,0.52,0.21,0.25,0.42,0.21,0.42,0.38,0.25,0.25,0.25,0.21,0.51,0.42,0.21,0.56,0.25,0.55,0.56,0.21,0.51,0.42,0.21,0.53,0.53,0.53,0.29,0.53,0.21,0.85,0.66,0.56,0.21,0.55" style="fill:rgb(0,0,0);font-family:Corbel-Bold;font-size:9.0px;stroke:none;">of ASGF is still as high as 533.7 mAh g</text>
   <text y="381.346" x="298.901" svgx:width="0.89" style="fill:rgb(0,0,0);font-family:EuclidSymbol-Bold;font-size:5.85px;stroke:none;">−</text>
   <text y="381.346" x="304.131" svgx:width="0.53" style="fill:rgb(0,0,0);font-family:Corbel-Bold;font-size:5.85px;stroke:none;">1</text>
   <text y="384.406" x="307.216,310.069,311.737,316.372,321.385,326.371,331.276,334.687,336.354,339.765,346.506,348.747,352.716,357.333,358.998,363.633,367.449,369.113,376.781,381.686,385.655,390.695,392.36,396.995,400.811,402.476,405.887,410.927,415.562,418.973,420.641,425.627,428.579,430.027,435.22,441.268,445.957,447.631,450.385,455.128,459.871,464.614,467.242,471.985,473.122,480.79,486.703,491.743,493.411" svgx:width="0.32,0.21,0.51,0.56,0.55,0.55,0.38,0.21,0.38,0.75,0.25,0.44,0.51,0.21,0.51,0.42,0.21,0.85,0.55,0.44,0.56,0.21,0.51,0.42,0.21,0.38,0.56,0.51,0.38,0.21,0.55,0.33,0.21,0.58,0.67,0.52,0.21,0.31,0.53,0.53,0.53,0.29,0.53,0.21,0.85,0.66,0.56,0.21,0.55" style="fill:rgb(0,0,0);font-family:Corbel-Bold;font-size:9.0px;stroke:none;">, about twice as much as that of SGF (297.6 mAh g</text>
   <text y="381.346" x="498.36" svgx:width="0.89" style="fill:rgb(0,0,0);font-family:EuclidSymbol-Bold;font-size:5.85px;stroke:none;">−</text>
   <text y="381.346" x="503.59" svgx:width="0.53" style="fill:rgb(0,0,0);font-family:Corbel-Bold;font-size:5.85px;stroke:none;">1</text>
   <text y="384.406" x="506.675,509.429,511.095,515.73,518.682,522.093,526.71,529.86,531.524,534.935,539.975,544.592" svgx:width="0.31,0.21,0.51,0.33,0.38,0.51,0.35,0.21,0.38,0.56,0.51,0.21" style="fill:rgb(0,0,0);font-family:Corbel-Bold;font-size:9.0px;stroke:none;">) after the </text>
   <text y="395.404" x="155.639,159.455,164.09,171.758,176.375,178.038,181.449,186.066,189.882,193.293,195.921,196.982,202.112,207.152,209.393,213.209,214.871,218.687,223.313,228.308,231.719,236.759,241.376,245.192,247.433,251.249,252.904,260.572,265.189,268.6,273.64,278.626,283.648,285.309,289.278,293.913,298.908,300.57,305.583,310.2,311.868,315.684,319.653,324.288,326.556,331.173,336.195,337.856,342.761,347.711,349.378,352.789,357.775,359.444,364.394,367.544,372.161,377.111,381.746,384.896,389.513,391.163,396.149,399.56,404.6,409.217,412.367,414.028,421.696,426.313,429.724,434.359,436.627,438.298,443.149,447.838,450.079,455.101,459.718,463.534,465.195,470.145,474.78,477.93,481.341,483.582,487.551,489.819,494.436,498.252,500.898,502.562,507.512,510.662,515.297,520.247,525.286,529.904,534.898,539.516" svgx:width="0.42,0.51,0.85,0.51,0.21,0.38,0.51,0.42,0.38,0.29,0.21,0.57,0.56,0.25,0.42,0.21,0.42,0.51,0.56,0.38,0.56,0.51,0.42,0.25,0.42,0.21,0.85,0.51,0.38,0.56,0.55,0.56,0.21,0.44,0.51,0.56,0.21,0.56,0.51,0.21,0.42,0.44,0.51,0.25,0.51,0.56,0.21,0.55,0.55,0.21,0.38,0.55,0.21,0.55,0.35,0.51,0.55,0.51,0.35,0.51,0.21,0.55,0.38,0.56,0.51,0.35,0.21,0.85,0.51,0.38,0.51,0.25,0.21,0.55,0.52,0.25,0.56,0.51,0.42,0.21,0.55,0.51,0.35,0.38,0.25,0.44,0.25,0.51,0.42,0.29,0.21,0.55,0.35,0.51,0.55,0.56,0.51,0.56,0.51,0.21" style="fill:rgb(0,0,0);font-family:Corbel-Bold;font-size:9.0px;stroke:none;">same test. This synthesis method can be scaled up to prepare other metal oxides particles/ graphene </text>
   <text y="406.402" x="155.639,159.455,164.495,169.112,173.729,177.14,178.802,181.754,186.74,191.37,199.038,202.854,204.522,207.474,212.46,215.61,217.274,222.314,224.555,229.505,234.545,236.205,241.155,245.772,248.922,251.874,256.86,260.01,267.678,272.313,277.308,281.277,285.871,287.541,289.809,292.05,295.461,300.501,302.742,307.647,315.315,318.312,320.553,325.539,330.534,332.183,337.196,341.831,345.242,348.653,353.27,356.42,358.661,363.278,367.094,369.947,371.606,375.422,380.327,385.277,389.894,393.044,397.013,401.648,406.598,411.233,415.182,417.423,420.834,425.82,428.97,432.786,435.639,437.299,441.934,446.929,451.951,453.61,457.579,462.214,465.625,470.26,472.528,477.154,480.97,484.382,488.198,491.051,492.716,497.333,500.744,504.713" svgx:width="0.42,0.56,0.51,0.51,0.38,0.21,0.33,0.55,0.51,0.85,0.42,0.21,0.33,0.55,0.35,0.21,0.56,0.25,0.55,0.56,0.21,0.55,0.51,0.35,0.33,0.55,0.35,0.85,0.51,0.56,0.44,0.51,0.21,0.25,0.25,0.38,0.56,0.25,0.55,0.85,0.33,0.25,0.55,0.56,0.21,0.56,0.51,0.38,0.38,0.51,0.35,0.25,0.51,0.42,0.32,0.21,0.42,0.55,0.55,0.51,0.35,0.44,0.51,0.55,0.51,0.44,0.25,0.38,0.55,0.35,0.42,0.32,0.21,0.51,0.56,0.56,0.21,0.44,0.51,0.38,0.51,0.25,0.51,0.42,0.38,0.42,0.32,0.21,0.51,0.38,0.44,0.29" style="fill:rgb(0,0,0);font-family:Corbel-Bold;font-size:9.0px;stroke:none;">sheet foams for high performance lithium-ion batteries, supercapacitors, and catalysts, etc.</text>
   <text y="437.902" x="155.639,165.242,169.067,170.876,174.683,179.165,183.917,186.707,189.119,193.871,198.65,203.141,207.893,211.196,213.005,216.263,221.042,224.309,228.449,232.274,234.083,238.565,241.229,243.038,245.837,250.607,254.432,256.241,260.066,264.953,268.778,272.045,276.473,280.604,282.413,287.165,290.99,298.334,302.204,307.091,311.843,313.652,317.477,324.812,328.637,331.904,336.161,338.573,343.424,347.636,349.445,351.749,355.619,358.886,363.026,366.851,370.055,373.43,377.264,381.26,383.537,387.362,389.171,392.996,397.883,401.708,404.974,409.402,413.533,415.342,419.122,423.739,428.392,430.669,433.081,436.915,440.695,443.485,445.897,450.379,455.23,458.533,460.342,463.6,468.379,472.132,476.938,478.747,482.671,485.974,487.783,490.06,494.505,500.67,503.874,507.699,515.07,517.455,520.713,524.016,526.428,530.91,535.833,537.642,541.431,543.708,547.578,551.385" svgx:width="1.07,0.43,0.23,0.42,0.51,0.55,0.31,0.27,0.55,0.53,0.51,0.53,0.37,0.23,0.37,0.53,0.37,0.47,0.43,0.23,0.51,0.3,0.23,0.31,0.53,0.43,0.23,0.43,0.55,0.43,0.37,0.47,0.46,0.23,0.53,0.43,0.82,0.44,0.55,0.53,0.23,0.43,0.82,0.43,0.37,0.47,0.27,0.55,0.47,0.23,0.25,0.44,0.37,0.47,0.43,0.36,0.37,0.42,0.44,0.25,0.43,0.23,0.43,0.55,0.43,0.37,0.47,0.46,0.23,0.44,0.52,0.52,0.25,0.27,0.42,0.44,0.31,0.27,0.51,0.55,0.37,0.23,0.37,0.53,0.42,0.53,0.23,0.44,0.37,0.23,0.25,0.51,0.69,0.36,0.43,0.82,0.27,0.37,0.37,0.27,0.51,0.55,0.23,0.43,0.25,0.43,0.42,0.36" style="fill:rgb(0,0,0);font-family:MinionPro-Regular;font-size:9.0px;stroke:none;">The continuous surge of the energy demand emerging large-scale energy applications such as low-emission elec-</text>
   <text y="447.901" x="155.639,158.407,161.777,164.171,167.956,169.67,173.743,177.51,182.294,184.683,188.414,190.673,194.475,197.756,199.79,201.503,204.704,208.506,213.371,217.246,223.389,227.245,231.732,233.987,237.794,239.508,244.282,248.706,254.777,258.579,261.901,263.614,268.246,270.527,274.375,279.105,281.827,285.112,287.142,288.856,292.704,297.568,302.302,304.017,307.783,310.038,313.886,317.734,320.501,323.872,326.261,330.05,331.764,335.999,339.37,341.759,346.462,349.747,351.462,356.092,360.741,365.308,368.544,371.267,372.981,376.91,378.624,382.859,386.058,389.916,393.673,396.396,398.11,402.844,406.701,410.674,412.929,414.643,419.103,421.749,423.463,425.853,430.582,433.252,437.054,440.254,444.061,447.296,450.019,451.733,454.123,459.028,460.742,464.095,467.942,471.709,476.186,478.581,483.409,487.599,489.313,494.097,496.491,500.743,505.527,508.713,513.487,517.29,520.66,523.221,527.681,531.051,538.373,542.221,547.086,550.875,554.7" svgx:width="0.31,0.37,0.27,0.42,0.23,0.46,0.43,0.53,0.27,0.42,0.25,0.43,0.37,0.23,0.23,0.37,0.43,0.55,0.43,0.69,0.44,0.51,0.25,0.43,0.23,0.52,0.51,0.69,0.43,0.37,0.23,0.52,0.25,0.44,0.55,0.31,0.37,0.23,0.23,0.44,0.55,0.53,0.23,0.43,0.25,0.43,0.42,0.31,0.37,0.27,0.42,0.23,0.47,0.37,0.27,0.53,0.37,0.23,0.51,0.51,0.51,0.37,0.31,0.23,0.44,0.23,0.47,0.37,0.43,0.44,0.31,0.23,0.53,0.43,0.44,0.25,0.23,0.51,0.3,0.23,0.27,0.55,0.31,0.43,0.37,0.43,0.37,0.31,0.23,0.27,0.55,0.23,0.37,0.43,0.43,0.5,0.27,0.55,0.47,0.23,0.53,0.27,0.47,0.53,0.36,0.52,0.43,0.37,0.3,0.51,0.37,0.82,0.44,0.55,0.42,0.43,0.23" style="fill:rgb(0,0,0);font-family:MinionPro-Regular;font-size:9.0px;stroke:none;">tric vehicles, renewable power plants, and electric grids boost a great deal of interest in seeking high-performance </text>
   <text y="457.9" x="155.639,159.534,164.445,169.224,171.186,173.49,177.996,182.871,187.11,190.341,192.645,195.084,197.692,201.544,203.506,210.874,214.769,217.208,221.985,224.808,228.702,231.141,236.091,238.53,243.405,247.644,249.606,254.428,258.898,265.016,268.868,272.234,274.196,278.975,282.897,287.115,289.554,293.388,297.24,300.57,302.649,304.611,309.531,311.859,314.683,319.516,321.843,326.649,334.047,337.278,339.717,344.223,349.173,351.135,355.778,359.582,362.261,364.977,368.829,372.246,374.685,378.537,381.867,383.829,386.97,391.839,394.935,400.254,403.584,406.725,408.804,410.766,414.714,418.044,420.006,424.512,429.424,433.276,435.238,439.745,442.436,444.398,447.221,452.016,455.868,457.83,465.189,469.806,473.088,475.86,477.822,482.598,485.998,489.85,492.592,497.44,499.744,501.706,506.527,510.998,517.115,520.967,524.333,526.295,531.074,534.996,539.215,541.654,545.488,549.34,552.67,554.722" svgx:width="0.44,0.55,0.53,0.23,0.25,0.51,0.55,0.47,0.36,0.25,0.27,0.3,0.43,0.23,0.82,0.44,0.27,0.55,0.31,0.44,0.27,0.55,0.27,0.55,0.47,0.23,0.52,0.51,0.69,0.43,0.37,0.23,0.53,0.43,0.46,0.27,0.42,0.43,0.37,0.23,0.23,0.54,0.27,0.31,0.53,0.27,0.53,0.82,0.36,0.27,0.51,0.55,0.23,0.51,0.44,0.31,0.31,0.43,0.37,0.27,0.43,0.37,0.23,0.35,0.54,0.34,0.59,0.37,0.35,0.23,0.23,0.44,0.37,0.23,0.51,0.55,0.43,0.23,0.51,0.3,0.23,0.31,0.53,0.43,0.23,0.82,0.51,0.37,0.31,0.23,0.53,0.37,0.43,0.3,0.53,0.25,0.23,0.52,0.51,0.69,0.43,0.37,0.23,0.53,0.43,0.46,0.27,0.42,0.43,0.37,0.23,0.23" style="fill:rgb(0,0,0);font-family:MinionPro-Regular;font-size:9.0px;stroke:none;">and long-life maintaining power devices. Lithium-ion batteries (LIBs), as one of the most useful power devices, </text>
   <text y="467.899" x="155.639,160.418,164.207,168.302,172.127,173.882,178.535,182.405,186.23,191.153,192.908,199.1,201.512,206.264,210.052,212.266,216.397,218.152,222.904,226.279,230.149,234.901,236.656,240.526,243.748,248.239,253.018,257.905,262.657,264.412,267.211,271.981,275.806,277.561,283.654,288.136,291.439,293.716" svgx:width="0.53,0.44,0.46,0.43,0.23,0.51,0.43,0.43,0.55,0.23,0.69,0.27,0.53,0.43,0.25,0.46,0.23,0.53,0.37,0.43,0.53,0.23,0.44,0.37,0.51,0.53,0.55,0.53,0.23,0.31,0.53,0.43,0.23,0.69,0.51,0.37,0.25,0.53" style="fill:rgb(0,0,0);font-family:MinionPro-Regular;font-size:9.0px;stroke:none;">have been widely used around the world</text>
   <text y="464.846" x="298.478,301.286,302.619" svgx:width="0.48,0.23,0.48" style="fill:rgb(0,0,0);font-family:MinionPro-Regular;font-size:5.85px;stroke:none;">1,2</text>
   <text y="467.906" x="305.427,307.479,309.234,315.696,320.142,326.307,330.258,335.037,338.826,342.957,346.26,348.312,350.067,352.866,357.636,361.461,363.216,367.473,370.812,374.591,379.244,384.05,386.354,389.045,392.87,394.625,398.495,403.382,408.053,412.805,416.63,418.385,423.164,427.088,430.391,432.146,439.49,443.36,448.076,452.207,453.962,458.57,461.792,466.337,470.846,473.123,476.948,484.247,487.55,489.305,492.563,497.342,501.095,505.901,507.656,511.58,514.883,516.638,518.915,523.361,529.526,531.281,535.115,538.895,543.655,547.606,551.413" svgx:width="0.23,0.23,0.74,0.51,0.69,0.44,0.53,0.44,0.46,0.37,0.23,0.23,0.31,0.53,0.43,0.23,0.47,0.37,0.44,0.52,0.53,0.27,0.31,0.43,0.23,0.44,0.55,0.51,0.53,0.43,0.23,0.53,0.44,0.37,0.23,0.82,0.44,0.55,0.46,0.23,0.52,0.37,0.51,0.51,0.25,0.43,0.82,0.37,0.23,0.37,0.53,0.42,0.53,0.23,0.44,0.37,0.23,0.25,0.51,0.69,0.23,0.42,0.44,0.52,0.44,0.42,0.36" style="fill:rgb(0,0,0);font-family:MinionPro-Regular;font-size:9.0px;stroke:none;">. Nowadays, the graphite anode has many problems such as low capac-</text>
   <text y="477.905" x="155.64,157.964,160.755,164.904,166.866,171.636,175.479,180.349,183.67,185.994,188.784,192.933,194.895,198.785,203.692,208.462,210.424,215.06,219.029,223.799,225.761,229.732,233.81,237.582,239.877,242.307,247.178,251.408,253.37,258.186,262.029,265.442,268.045,272.546,275.958,283.322,287.212,292.118,295.943,299.734,301.804,303.766,306.504,309.267,311.229,313.633,316.954,318.916,323.417,328.324,332.167,334.129,338.631,341.313,343.275,346.093,350.883,354.726,356.688,359.928,363.827,367.771,371.166,375.667,380.538,383.859,385.821,388.639,393.437,397.237,400.0,401.962,406.786,409.216,414.123,418.893,422.736,426.093,428.055,430.874,435.663,439.506,441.468,446.238,450.155,454.27,458.078,460.373,464.884,469.511,476.865,480.708,485.479,488.242,490.204,494.706,497.388,499.35,502.168,506.958,510.801,512.763,515.058,517.381,520.2,525.023,527.347,532.144,539.533,542.755,545.185,549.687,554.61" svgx:width="0.27,0.31,0.46,0.23,0.53,0.43,0.55,0.37,0.27,0.31,0.46,0.23,0.44,0.55,0.53,0.23,0.51,0.44,0.53,0.23,0.42,0.46,0.42,0.25,0.27,0.55,0.47,0.23,0.52,0.43,0.37,0.3,0.51,0.37,0.82,0.44,0.55,0.42,0.43,0.23,0.23,0.34,0.31,0.23,0.27,0.37,0.23,0.51,0.55,0.43,0.23,0.51,0.3,0.23,0.31,0.53,0.43,0.23,0.37,0.43,0.44,0.37,0.51,0.55,0.37,0.23,0.31,0.53,0.44,0.31,0.23,0.53,0.27,0.55,0.53,0.43,0.37,0.23,0.31,0.53,0.43,0.23,0.53,0.43,0.46,0.43,0.25,0.51,0.52,0.82,0.43,0.55,0.31,0.23,0.51,0.3,0.23,0.31,0.53,0.43,0.23,0.25,0.27,0.31,0.53,0.27,0.53,0.82,0.36,0.27,0.51,0.55,0.23" style="fill:rgb(0,0,0);font-family:MinionPro-Regular;font-size:9.0px;stroke:none;">ity density and bad cycling performance. It is one of the reasons that hinder the development of the lithium-ion </text>
   <text y="487.904" x="155.64,160.311,164.146,166.855,169.6,173.479,176.927,179.393,183.272,186.629,188.735,190.76,194.189,198.833,200.858,203.711,208.535,212.414,214.439,217.715,221.594,225.023,228.957,232.881,236.157,239.965,244.825,246.85,251.386,254.104,256.129,258.983,263.807,267.686,269.711,274.653,278.532,282.834,285.633,287.658,291.852,295.731,300.672,304.551,307.944,311.779,314.623,317.089,321.626,326.603,328.628,333.164,335.882,337.907,340.761,345.585,349.464,351.489,353.82,356.179,359.032,363.892,366.25,371.083,378.508,381.766,384.232,388.769,393.746,395.771,400.442,404.276,406.986,409.731,413.61,417.264,421.449,423.474,427.398,432.339,437.064,441.87,445.749,449.106,451.131,453.876,458.52,460.545,463.821,467.7,472.408,474.766,478.771,482.632,486.511,488.536,492.848,496.241,500.075,504.782,509.642,512.0,514.745,518.624,520.649,523.088,526.445,528.47,531.323,536.148,540.027,542.052,546.489,550.44,554.571" svgx:width="0.51,0.44,0.31,0.31,0.43,0.37,0.27,0.43,0.37,0.23,0.23,0.37,0.51,0.23,0.31,0.53,0.43,0.23,0.37,0.43,0.37,0.43,0.44,0.37,0.42,0.53,0.23,0.51,0.3,0.23,0.31,0.53,0.43,0.23,0.55,0.43,0.47,0.31,0.23,0.47,0.43,0.55,0.43,0.37,0.44,0.31,0.27,0.51,0.55,0.23,0.51,0.3,0.23,0.31,0.53,0.43,0.23,0.25,0.27,0.31,0.53,0.27,0.53,0.82,0.36,0.27,0.51,0.55,0.23,0.51,0.44,0.31,0.31,0.43,0.37,0.46,0.23,0.44,0.55,0.51,0.53,0.43,0.37,0.23,0.31,0.51,0.23,0.37,0.43,0.52,0.25,0.44,0.42,0.43,0.23,0.47,0.37,0.44,0.52,0.53,0.27,0.31,0.43,0.23,0.27,0.37,0.23,0.31,0.53,0.43,0.23,0.5,0.43,0.46,0.23" style="fill:rgb(0,0,0);font-family:MinionPro-Regular;font-size:9.0px;stroke:none;">batteries, so the research of the next generation of the lithium-ion battery anodes to replace graphite is the key </text>
   <text y="497.903" x="155.64,160.437,164.919,167.331,172.083,174.828,176.664,179.355,183.945,185.781,190.533,194.43,198.525,202.314,204.591,209.082,213.798,215.634,218.432,223.202,227.027,228.863,231.14,233.444,236.243,241.049,243.353,248.132,255.503,258.707,261.119,265.601,270.524,272.36,276.977,280.757,283.412,286.103,289.928,293.321,295.733,299.558" svgx:width="0.52,0.51,0.27,0.55,0.31,0.23,0.31,0.51,0.23,0.53,0.43,0.46,0.43,0.25,0.51,0.52,0.23,0.31,0.53,0.43,0.23,0.25,0.27,0.31,0.53,0.27,0.53,0.82,0.36,0.27,0.51,0.55,0.23,0.51,0.44,0.31,0.31,0.43,0.37,0.27,0.43,0.37" style="fill:rgb(0,0,0);font-family:MinionPro-Regular;font-size:9.0px;stroke:none;">point to develop the lithium-ion batteries</text>
   <text y="494.846" x="302.87" svgx:width="0.48" style="fill:rgb(0,0,0);font-family:MinionPro-Regular;font-size:5.85px;stroke:none;">3</text>
   <text y="497.906" x="305.678" svgx:width="0.23" style="fill:rgb(0,0,0);font-family:MinionPro-Regular;font-size:9.0px;stroke:none;">.</text>
   <text y="507.905" x="167.636,173.17,177.138,180.628,183.139,187.729,192.578,195.98,198.158,202.044,204.42,208.387,212.355,215.243,218.563,223.332,227.183,232.051,235.975,243.445,245.956,249.888,253.982,256.401,258.713,262.943,265.121,269.171,273.14,276.027,278.474,282.667,286.591,288.769,296.211,300.089,302.877,306.801,310.292,312.829,316.923,319.27,322.672,324.85,328.206,333.084,336.935,341.84,344.018,348.04,351.442,353.62,357.93,362.952" svgx:width="0.7,0.44,0.37,0.27,0.51,0.53,0.37,0.23,0.43,0.25,0.43,0.42,0.31,0.37,0.51,0.42,0.53,0.43,0.82,0.27,0.42,0.44,0.25,0.25,0.46,0.23,0.44,0.42,0.31,0.27,0.46,0.43,0.23,0.82,0.44,0.31,0.43,0.37,0.27,0.44,0.25,0.37,0.23,0.37,0.53,0.42,0.53,0.23,0.44,0.37,0.23,0.47,0.55,0.75" style="fill:rgb(0,0,0);font-family:MinionPro-Regular;font-size:9.0px;stroke:none;">Various electrochemically active materials such as SnO</text>
   <text y="509.706" x="369.777" svgx:width="0.48" style="fill:rgb(0,0,0);font-family:MinionPro-Regular;font-size:5.85px;stroke:none;">2</text>
   <text y="507.906" x="372.649,374.799,376.977,381.666" svgx:width="0.23,0.23,0.53,0.43" style="fill:rgb(0,0,0);font-family:MinionPro-Regular;font-size:9.0px;stroke:none;">, Fe</text>
   <text y="509.706" x="385.591" svgx:width="0.48" style="fill:rgb(0,0,0);font-family:MinionPro-Regular;font-size:5.85px;stroke:none;">2</text>
   <text y="507.906" x="388.462" svgx:width="0.75" style="fill:rgb(0,0,0);font-family:MinionPro-Regular;font-size:9.0px;stroke:none;">O</text>
   <text y="509.706" x="395.283" svgx:width="0.48" style="fill:rgb(0,0,0);font-family:MinionPro-Regular;font-size:5.85px;stroke:none;">3</text>
   <text y="507.906" x="398.155,400.305,402.483,407.172" svgx:width="0.23,0.23,0.53,0.43" style="fill:rgb(0,0,0);font-family:MinionPro-Regular;font-size:9.0px;stroke:none;">, Fe</text>
   <text y="509.706" x="411.096" svgx:width="0.48" style="fill:rgb(0,0,0);font-family:MinionPro-Regular;font-size:5.85px;stroke:none;">3</text>
   <text y="507.906" x="413.968" svgx:width="0.75" style="fill:rgb(0,0,0);font-family:MinionPro-Regular;font-size:9.0px;stroke:none;">O</text>
   <text y="509.706" x="420.789" svgx:width="0.48" style="fill:rgb(0,0,0);font-family:MinionPro-Regular;font-size:5.85px;stroke:none;">4</text>
   <text y="507.906" x="423.66,425.811,427.989,432.299,434.756,436.907,439.085,445.69,449.614,451.792,455.76,460.745,465.596,467.774,472.084,477.106,479.284,481.795,486.817,488.995,491.891,496.759,500.683,502.861,505.542,510.123,513.613,521.083,523.261,527.84,530.603,532.781,537.775,541.743,546.727,551.416" svgx:width="0.23,0.23,0.47,0.27,0.23,0.23,0.71,0.43,0.23,0.44,0.55,0.53,0.23,0.47,0.55,0.23,0.27,0.55,0.23,0.31,0.53,0.43,0.23,0.3,0.51,0.37,0.82,0.23,0.51,0.3,0.23,0.55,0.44,0.55,0.51,0.36" style="fill:rgb(0,0,0);font-family:MinionPro-Regular;font-size:9.0px;stroke:none;">, Si, Ge and Sn in the form of nano-</text>
   <text y="517.905" x="155.64,160.453,164.375,167.855,170.696,173.162,176.967,179.298,183.177,186.534,188.55,193.381,197.221,201.368,205.247,207.263,211.967,215.888,219.767,224.744,226.76,230.069,232.777,237.61,242.416,244.882,248.803,253.609,255.625,258.368,263.012,265.028,267.879,272.738,275.175,278.532,280.548,284.427,289.365" svgx:width="0.52,0.44,0.37,0.31,0.27,0.42,0.25,0.43,0.37,0.23,0.53,0.44,0.46,0.43,0.23,0.51,0.43,0.43,0.55,0.23,0.37,0.31,0.53,0.53,0.27,0.43,0.53,0.23,0.31,0.51,0.23,0.31,0.53,0.27,0.37,0.23,0.43,0.55,0.53" style="fill:rgb(0,0,0);font-family:MinionPro-Regular;font-size:9.0px;stroke:none;">particles have been studied to this end</text>
   <text y="514.846" x="294.146,296.989,298.358" svgx:width="0.48,0.23,0.48" style="fill:rgb(0,0,0);font-family:MinionPro-Regular;font-size:5.85px;stroke:none;">4,5</text>
   <text y="517.906" x="301.196,303.302,305.318,312.038,316.535,322.681,326.629,330.775,334.654,337.479,339.585,341.6,344.451,349.273,353.152,355.168,359.827,363.22,367.225,371.147,373.988,376.454,380.339,384.386,386.717,388.733,393.538,396.964,400.843,402.859,407.392,410.11,412.126,414.977,419.798,423.677,427.103,430.982,432.998,440.393,444.226,446.968,450.847,454.291,456.782,460.829,463.131,466.488,468.504,470.941,474.298,476.314,479.741,483.69,487.836,491.715,494.989,498.829,501.095,505.28,507.296,512.126,516.047,523.3,528.148,532.027,535.3,539.222,544.028,546.044,550.523,554.654" svgx:width="0.23,0.23,0.77,0.51,0.69,0.43,0.46,0.43,0.37,0.23,0.23,0.31,0.53,0.43,0.23,0.52,0.37,0.44,0.42,0.31,0.27,0.42,0.44,0.25,0.23,0.53,0.37,0.43,0.23,0.51,0.3,0.23,0.31,0.53,0.43,0.37,0.43,0.23,0.82,0.44,0.31,0.43,0.37,0.27,0.44,0.25,0.37,0.23,0.27,0.37,0.23,0.37,0.43,0.46,0.43,0.37,0.43,0.25,0.46,0.23,0.53,0.44,0.82,0.52,0.43,0.37,0.43,0.53,0.23,0.51,0.46,0.23" style="fill:rgb(0,0,0);font-family:MinionPro-Regular;font-size:9.0px;stroke:none;">. However, the practical use of these materials is severely hampered by </text>
   <text y="527.905" x="155.639,160.237,164.98,169.083,172.872,174.573,178.63,183.12,185.252,189.995,197.294,201.083,202.784,206.499,211.241,215.074,219.887,223.99,227.779,229.48,234.086,238.829,242.186,244.562,249.376,253.552,255.253,259.969,262.317,265.654,269.37,274.112,277.945,281.174,285.278,289.067,292.01,295.726,300.467,304.3,307.53,311.632,315.421,317.122,321.693,324.878,329.512,333.283,337.072,340.293,343.56,345.576,347.277,353.468,358.238,360.614,364.33,369.1,370.801,374.598,378.34,383.055,386.393,390.182,393.449,395.15,399.73,404.517,406.694,410.751,414.54,417.896,420.272,424.016,427.759,430.511,432.887,437.332,442.219,444.235,445.936,450.679,455.492,458.713,461.474,465.316,469.788,472.029,475.818,477.519,480.857,485.347,487.588,489.964,494.68,496.381,500.132,502.373,506.205,510.038,512.79,515.975,520.465,522.642,526.737,529.391,533.18,534.881,537.257,541.972,544.625,548.414,551.432" svgx:width="0.53,0.53,0.47,0.43,0.23,0.46,0.51,0.25,0.53,0.82,0.43,0.23,0.42,0.53,0.44,0.55,0.47,0.43,0.23,0.53,0.53,0.37,0.27,0.55,0.47,0.23,0.53,0.27,0.37,0.42,0.53,0.44,0.37,0.47,0.43,0.33,0.42,0.53,0.44,0.37,0.47,0.43,0.23,0.52,0.37,0.51,0.42,0.43,0.37,0.37,0.23,0.23,0.69,0.53,0.27,0.42,0.53,0.23,0.42,0.44,0.53,0.37,0.43,0.37,0.23,0.52,0.53,0.25,0.46,0.43,0.37,0.27,0.42,0.44,0.31,0.27,0.51,0.55,0.23,0.23,0.53,0.55,0.37,0.31,0.44,0.51,0.25,0.43,0.23,0.37,0.51,0.25,0.27,0.53,0.23,0.43,0.25,0.43,0.42,0.31,0.37,0.51,0.25,0.46,0.31,0.43,0.23,0.27,0.55,0.31,0.43,0.37,0.36" style="fill:rgb(0,0,0);font-family:MinionPro-Regular;font-size:9.0px;stroke:none;">huge volume change during discharge/charge process, which causes pulverization, unstable solid electrolyte inter-</text>
   <text y="537.904" x="155.639,158.352,162.357,166.214,170.088,172.104,175.272,179.48,184.646,187.764,190.928,193.034,195.05,199.861,203.781,207.259,210.1,212.561,216.364,218.695,222.569,224.585,228.541,232.857,237.164,240.435,244.314,248.576,252.405,255.246,257.707,262.239,267.212,269.313,271.329,275.25,280.186,284.992,287.008,290.316,295.108,299.734,303.159,307.078,311.637,316.47,320.344,325.147,327.995,330.259,334.444,336.46,339.848,343.678,348.336,350.798,355.604,357.62,361.504,365.334,370.144,374.149,378.006,380.359,383.181,387.362,389.378,394.179,398.058,400.799,404.678,408.12,410.582,415.114,418.507,422.336,425.176,427.642,432.173" svgx:width="0.3,0.44,0.42,0.43,0.23,0.35,0.47,0.57,0.34,0.35,0.23,0.23,0.52,0.44,0.37,0.31,0.27,0.42,0.25,0.43,0.23,0.44,0.47,0.47,0.37,0.43,0.47,0.44,0.31,0.27,0.51,0.55,0.23,0.23,0.44,0.55,0.53,0.23,0.37,0.53,0.51,0.37,0.43,0.51,0.53,0.43,0.55,0.31,0.25,0.46,0.23,0.37,0.44,0.52,0.27,0.53,0.23,0.42,0.44,0.52,0.44,0.42,0.27,0.31,0.46,0.23,0.53,0.43,0.31,0.43,0.37,0.27,0.51,0.37,0.44,0.31,0.27,0.51,0.55" style="fill:rgb(0,0,0);font-family:MinionPro-Regular;font-size:9.0px;stroke:none;">face (SEI), particle aggregation, and subsequently rapid capacity deterioration</text>
   <text y="534.846" x="437.061" svgx:width="0.48" style="fill:rgb(0,0,0);font-family:MinionPro-Regular;font-size:5.85px;stroke:none;">4</text>
   <text y="537.906" x="439.901,442.003,444.019,450.432,453.821,457.651,462.354,467.173,471.052,475.989,479.809,481.915,483.931,487.932,489.948,493.3,495.766,500.667,504.991,507.322,511.197,514.45,518.281,521.021,525.554,532.974,536.228,539.077,543.932,546.394,550.197,554.66" svgx:width="0.23,0.23,0.71,0.37,0.44,0.52,0.53,0.43,0.55,0.43,0.23,0.23,0.44,0.23,0.37,0.27,0.55,0.47,0.25,0.43,0.36,0.44,0.31,0.51,0.82,0.36,0.31,0.53,0.27,0.42,0.5,0.23" style="fill:rgb(0,0,0);font-family:MinionPro-Regular;font-size:9.0px;stroke:none;">. Graphene, a single-atom-thick </text>
   <text y="547.905" x="155.637,158.967,163.8,167.733,171.621,174.429,176.49,181.035,183.762,185.823,190.656,195.201,200.151,204.111,208.233,212.103,216.648,223.992,228.627,230.688,234.585,238.518,241.92,246.635,251.18,256.167,258.228,260.595,264.438,267.156,270.009,272.484,276.354,280.242,282.303,288.558,290.925,293.787,298.656,300.717,305.586,308.061,312.399,317.268,319.329,323.181,325.521,329.454,333.386,336.239,339.695,342.17,346.067,350.126,352.466,354.527,358.397,362.942,367.892,372.599,377.441,381.374,384.227,386.639,390.896,393.263,396.098,400.292,402.353,406.286,411.236,416.051,418.112,420.479,424.412,427.742,431.945,435.833,437.894,441.215,446.075,450.008,453.878,456.353,461.231,465.101,467.162,470.483,475.325,478.78,481.507,485.521,489.391,493.279,495.34,499.274,502.559,506.501,510.515,512.576,515.753,518.615,523.448,527.38,531.925,535.21,539.098,541.95,544.425,548.322,552.381,554.658" svgx:width="0.37,0.53,0.43,0.43,0.31,0.23,0.51,0.3,0.23,0.53,0.51,0.55,0.43,0.46,0.42,0.51,0.82,0.51,0.23,0.42,0.44,0.37,0.51,0.51,0.55,0.23,0.25,0.44,0.31,0.31,0.27,0.42,0.43,0.23,0.69,0.27,0.31,0.53,0.23,0.53,0.27,0.47,0.53,0.23,0.43,0.25,0.43,0.42,0.31,0.37,0.27,0.42,0.44,0.25,0.23,0.42,0.51,0.55,0.53,0.53,0.42,0.31,0.27,0.46,0.27,0.31,0.46,0.23,0.44,0.55,0.53,0.23,0.25,0.44,0.37,0.47,0.43,0.23,0.37,0.52,0.43,0.42,0.27,0.54,0.42,0.23,0.37,0.53,0.37,0.3,0.44,0.42,0.43,0.23,0.44,0.37,0.43,0.44,0.23,0.35,0.31,0.53,0.43,0.51,0.37,0.43,0.31,0.27,0.42,0.44,0.25,0.23" style="fill:rgb(0,0,0);font-family:MinionPro-Regular;font-size:9.0px;stroke:none;">sheet of honeycomb carbon lattice with high electrical conductivity and large specific surface area (theoretical </text>
   <text y="557.904" x="155.637,159.803,163.802,165.973,170.752,174.577,176.52,180.84,185.16,189.48,193.8,194.925" svgx:width="0.46,0.44,0.25,0.53,0.43,0.23,0.48,0.48,0.48,0.48,0.23,0.82" style="fill:rgb(0,0,0);font-family:MinionPro-Regular;font-size:9.0px;stroke:none;">value 2620 m</text>
   <text y="554.846" x="202.316" svgx:width="0.48" style="fill:rgb(0,0,0);font-family:MinionPro-Regular;font-size:5.85px;stroke:none;">2</text>
   <text y="557.906" x="205.125,207.069" svgx:width="0.23,0.47" style="fill:rgb(0,0,0);font-family:MinionPro-Regular;font-size:9.0px;stroke:none;"> g</text>
   <text y="554.846" x="211.282" svgx:width="0.78" style="fill:rgb(0,0,0);font-family:EuclidSymbol;font-size:5.85px;stroke:none;">−</text>
   <text y="554.846" x="215.834" svgx:width="0.48" style="fill:rgb(0,0,0);font-family:MinionPro-Regular;font-size:5.85px;stroke:none;">1</text>
   <text y="557.906" x="218.645,221.758,223.811,225.755,229.59,233.462,238.385,240.329,242.914,247.399,250.793,258.164,260.108,265.006,268.879,273.768,278.358,281.562,285.369,289.853,297.055,301.854,306.444,309.747,312.053,314.747,318.572,320.516,327.861,331.644,334.337,338.162,341.558,343.998,347.996,350.249,353.552,355.496,361.69,363.995,366.797,371.603,373.547,376.348,381.121,384.946,386.89,390.77,395.426,399.874,403.972,407.797,411.001,418.337,422.162,426.916,429.709,432.121,436.605,441.494,445.366,450.118,452.062,456.961,460.833,465.723,470.215,474.978,478.851,482.282,485.073,487.485,491.24,493.517,497.342,500.645,502.589,505.282,509.872,511.816,515.815,518.139,520.416,524.315,528.511,530.952,534.734,537.427,541.252,543.196,545.997,550.77,554.595" svgx:width="0.35,0.23,0.23,0.42,0.44,0.55,0.23,0.3,0.51,0.37,0.82,0.23,0.55,0.44,0.55,0.51,0.36,0.42,0.51,0.82,0.52,0.51,0.37,0.27,0.31,0.43,0.23,0.82,0.44,0.31,0.43,0.37,0.27,0.44,0.25,0.37,0.23,0.69,0.27,0.31,0.53,0.23,0.31,0.53,0.43,0.23,0.44,0.51,0.51,0.46,0.43,0.36,0.82,0.43,0.55,0.31,0.27,0.51,0.55,0.43,0.53,0.23,0.55,0.44,0.55,0.51,0.52,0.44,0.37,0.31,0.27,0.42,0.25,0.43,0.37,0.23,0.31,0.51,0.23,0.44,0.25,0.25,0.43,0.46,0.27,0.44,0.31,0.43,0.23,0.31,0.53,0.43,0.23" style="fill:rgb(0,0,0);font-family:MinionPro-Regular;font-size:9.0px;stroke:none;">), can form nano-composite materials with the above-mentioned nanoparticles to alleviate the </text>
   <text y="567.905" x="155.635,159.632,164.364,168.502,172.372,175.699,179.117,182.987,184.976,192.355,196.267,200.062,204.884,208.797,213.765,216.222,220.098,224.137,226.459,228.448,232.318,237.329,241.242,245.154,247.944,251.292,253.281,257.193,262.123,266.92,268.909,271.366,278.609,283.26,286.524,291.013,295.151,299.021,301.01,303.851,308.664,312.534,314.523,318.355,320.677,324.59,328.503,331.335,334.6,339.314,343.109,347.922,351.792,359.208,361.665,365.542,369.58,371.902,373.891,378.73,382.6,386.036,388.662,393.187,396.622,404.008,407.922,412.851,416.703" svgx:width="0.44,0.53,0.46,0.43,0.37,0.37,0.43,0.23,0.82,0.43,0.42,0.53,0.44,0.55,0.27,0.42,0.44,0.25,0.23,0.43,0.56,0.43,0.42,0.31,0.37,0.23,0.44,0.55,0.53,0.23,0.27,0.82,0.52,0.37,0.51,0.46,0.43,0.23,0.31,0.53,0.43,0.23,0.43,0.25,0.43,0.42,0.31,0.37,0.51,0.42,0.53,0.43,0.82,0.27,0.42,0.44,0.25,0.23,0.52,0.43,0.37,0.3,0.51,0.37,0.82,0.44,0.55,0.42,0.43" style="fill:rgb(0,0,0);font-family:MinionPro-Regular;font-size:9.0px;stroke:none;">adverse mechanical effects and improve the electrochemical performance</text>
   <text y="564.846" x="420.522,423.36,424.723" svgx:width="0.48,0.23,0.48" style="fill:rgb(0,0,0);font-family:MinionPro-Regular;font-size:5.85px;stroke:none;">6,7</text>
   <text y="567.906" x="427.556,429.652,431.642,434.609,439.577,441.566,444.407,449.22,453.09,455.079,459.731,462.995,466.935,471.171,473.628,478.163,482.957,486.305,488.294,494.429,498.954,502.3,506.809,508.906,510.895,513.737,518.549,522.419,524.408,527.672,531.542,534.961,538.882,542.795,546.059,549.856,554.662" svgx:width="0.23,0.23,0.34,0.55,0.23,0.31,0.53,0.43,0.23,0.52,0.37,0.43,0.46,0.27,0.51,0.53,0.37,0.23,0.69,0.51,0.37,0.5,0.23,0.23,0.31,0.53,0.43,0.23,0.37,0.43,0.37,0.43,0.44,0.37,0.42,0.53,0.23" style="fill:rgb(0,0,0);font-family:MinionPro-Regular;font-size:9.0px;stroke:none;">. In the previous work, the research </text>
   <text y="577.905" x="155.639,163.042,167.704,171.03,173.898,176.18,180.383,182.462,185.114,189.852,193.79,198.611,202.054,205.951,209.326,211.405,215.956,220.951,223.03,225.897,230.735,234.632,236.711,241.103,247.79,249.869,254.194,257.6,261.449,266.17,271.009,274.906,279.861,283.758,285.837,289.172,294.011,297.949,301.846,304.659,306.738,309.924,316.431,320.769,323.955,327.006,331.97,335.909,340.864,345.526,348.802,356.205,360.102,362.97,367.034,369.424,371.773,374.257,378.136,380.215,384.729,389.049,391.533,396.357,400.254,402.333,406.212,410.762,418.031,422.896,427.558,430.933,433.306,436.065,439.962,442.041,449.453,453.301,456.061,459.954,463.415,465.923,469.987,472.305,475.68,477.804,479.883,483.21,488.061,491.881,496.759,498.838,502.831,506.206,508.285,512.565,517.56" svgx:width="0.82,0.51,0.37,0.31,0.25,0.46,0.23,0.3,0.51,0.42,0.53,0.37,0.43,0.37,0.23,0.51,0.55,0.23,0.31,0.53,0.43,0.23,0.48,0.74,0.23,0.47,0.37,0.44,0.52,0.53,0.43,0.55,0.43,0.23,0.37,0.53,0.43,0.43,0.31,0.23,0.35,0.71,0.47,0.35,0.33,0.55,0.44,0.55,0.51,0.36,0.82,0.43,0.31,0.44,0.25,0.25,0.27,0.42,0.23,0.51,0.47,0.27,0.53,0.43,0.23,0.42,0.51,0.82,0.52,0.51,0.37,0.27,0.31,0.43,0.23,0.82,0.44,0.31,0.43,0.37,0.27,0.44,0.25,0.37,0.23,0.23,0.37,0.53,0.42,0.53,0.23,0.44,0.37,0.23,0.47,0.55,0.75" style="fill:rgb(0,0,0);font-family:MinionPro-Regular;font-size:9.0px;stroke:none;">mostly focuses on the 2D graphene sheet (GS)/nano-metallic oxide composite materials, such as SnO</text>
   <text y="579.706" x="524.205" svgx:width="0.48" style="fill:rgb(0,0,0);font-family:MinionPro-Regular;font-size:5.85px;stroke:none;">2</text>
   <text y="577.906" x="527.057,530.108,536.615" svgx:width="0.33,0.71,0.47" style="fill:rgb(0,0,0);font-family:MinionPro-Regular;font-size:9.0px;stroke:none;">/GS</text>
   <text y="574.846" x="540.942,543.797,546.885,549.74" svgx:width="0.48,0.52,0.48,0.48" style="fill:rgb(0,0,0);font-family:MinionPro-Regular;font-size:5.85px;stroke:none;">8–14</text>
   <text y="577.906" x="552.585,554.637" svgx:width="0.23,0.23" style="fill:rgb(0,0,0);font-family:MinionPro-Regular;font-size:9.0px;stroke:none;">, </text>
   <text y="587.905" x="155.64,160.293" svgx:width="0.53,0.43" style="fill:rgb(0,0,0);font-family:MinionPro-Regular;font-size:9.0px;stroke:none;">Fe</text>
   <text y="589.706" x="164.179" svgx:width="0.48" style="fill:rgb(0,0,0);font-family:MinionPro-Regular;font-size:5.85px;stroke:none;">2</text>
   <text y="587.906" x="167.028" svgx:width="0.75" style="fill:rgb(0,0,0);font-family:MinionPro-Regular;font-size:9.0px;stroke:none;">O</text>
   <text y="589.706" x="173.814" svgx:width="0.48" style="fill:rgb(0,0,0);font-family:MinionPro-Regular;font-size:5.85px;stroke:none;">3</text>
   <text y="587.906" x="176.663,179.705,186.203" svgx:width="0.33,0.71,0.47" style="fill:rgb(0,0,0);font-family:MinionPro-Regular;font-size:9.0px;stroke:none;">/GS</text>
   <text y="584.846" x="190.532,193.381,196.23,199.313,202.162" svgx:width="0.48,0.48,0.52,0.48,0.48" style="fill:rgb(0,0,0);font-family:MinionPro-Regular;font-size:5.85px;stroke:none;">15–17</text>
   <text y="587.906" x="205.011,207.126,209.187,215.748,218.223,225.009,228.051,234.549" svgx:width="0.23,0.23,0.74,0.27,0.75,0.33,0.71,0.47" style="fill:rgb(0,0,0);font-family:MinionPro-Regular;font-size:9.0px;stroke:none;">, NiO/GS</text>
   <text y="584.846" x="238.878,241.727" svgx:width="0.48,0.48" style="fill:rgb(0,0,0);font-family:MinionPro-Regular;font-size:5.85px;stroke:none;">18</text>
   <text y="587.906" x="244.576,246.691,248.752,254.935" svgx:width="0.23,0.23,0.67,0.51" style="fill:rgb(0,0,0);font-family:MinionPro-Regular;font-size:9.0px;stroke:none;">, Co</text>
   <text y="589.706" x="259.587" svgx:width="0.48" style="fill:rgb(0,0,0);font-family:MinionPro-Regular;font-size:5.85px;stroke:none;">3</text>
   <text y="587.906" x="262.436" svgx:width="0.75" style="fill:rgb(0,0,0);font-family:MinionPro-Regular;font-size:9.0px;stroke:none;">O</text>
   <text y="589.706" x="269.222" svgx:width="0.48" style="fill:rgb(0,0,0);font-family:MinionPro-Regular;font-size:5.85px;stroke:none;">4</text>
   <text y="587.906" x="272.071,275.113,281.611" svgx:width="0.33,0.71,0.47" style="fill:rgb(0,0,0);font-family:MinionPro-Regular;font-size:9.0px;stroke:none;">/GS</text>
   <text y="584.846" x="285.94,288.789" svgx:width="0.48,0.48" style="fill:rgb(0,0,0);font-family:MinionPro-Regular;font-size:5.85px;stroke:none;">19</text>
   <text y="587.906" x="291.638,293.753,295.814,299.747,304.697,309.512,311.573,317.189,322.175,328.961,332.003,338.501" svgx:width="0.23,0.23,0.44,0.55,0.53,0.23,0.6,0.55,0.75,0.33,0.71,0.47" style="fill:rgb(0,0,0);font-family:MinionPro-Regular;font-size:9.0px;stroke:none;">, and ZnO/GS</text>
   <text y="584.846" x="342.829,345.678" svgx:width="0.48,0.48" style="fill:rgb(0,0,0);font-family:MinionPro-Regular;font-size:5.85px;stroke:none;">20</text>
   <text y="587.906" x="348.527,350.642,352.703,362.369,366.257,369.542,373.43,375.905,380.891,382.952,385.814,390.647,394.535,396.596,403.094,407.423,409.484,414.299,416.774,421.589,423.65,428.321,431.606,435.566,439.724,443.612,448.427,451.235,453.296,456.158,460.991,464.879,466.94,470.909,475.238,479.558,482.843,486.731,491.006,494.849,497.702,500.177,504.722,509.708,511.769,516.314,519.041,521.102,526.062,529.995,534.945,539.499,544.323,548.256,551.432" svgx:width="0.23,0.23,1.07,0.43,0.37,0.43,0.27,0.55,0.23,0.31,0.53,0.43,0.23,0.71,0.47,0.23,0.53,0.27,0.53,0.23,0.52,0.37,0.43,0.46,0.43,0.55,0.31,0.23,0.31,0.53,0.43,0.23,0.44,0.47,0.47,0.37,0.43,0.47,0.44,0.31,0.27,0.51,0.55,0.23,0.51,0.3,0.23,0.55,0.44,0.55,0.51,0.52,0.44,0.37,0.36" style="fill:rgb(0,0,0);font-family:MinionPro-Regular;font-size:9.0px;stroke:none;">. Therein the GS did prevent the aggregation of nanopar-</text>
   <text y="597.905" x="155.639,158.535,161.055,164.914,167.299,171.232,174.643,176.857,179.653,184.351,186.565,190.624,192.838,196.753,200.686,204.222,207.126,211.102,213.622,218.653,220.863,224.796,229.152,231.949,235.882,240.74,243.593,245.753,247.963,252.542,257.319,260.172,262.381,265.287,270.162,274.095,276.304,280.219,284.808,289.666,292.571,296.63,300.606,303.459,305.669,310.428,314.361,317.238,323.437,327.414,331.347,336.378,338.587,342.646,346.622,349.519,351.974,356.174,360.107,362.317,369.767,373.653,376.45,380.383,383.882,386.427,390.529,392.884,396.295,398.505,402.481,407.474,412.334,414.544,417.449,422.325,426.258,428.468,432.363,434.748,438.724,442.7,445.595,448.924,453.557,455.877,460.116,462.913,466.846,469.06,474.053,478.029,482.005,486.865,489.075,491.872,496.57,498.779,503.538,507.471,509.681,512.201,519.507,524.221,527.55,532.102,536.302,540.278,545.138,547.348,550.145,554.735" svgx:width="0.31,0.27,0.42,0.25,0.43,0.37,0.23,0.31,0.51,0.23,0.44,0.23,0.42,0.43,0.37,0.31,0.44,0.27,0.55,0.23,0.43,0.47,0.31,0.43,0.55,0.31,0.23,0.23,0.51,0.53,0.31,0.23,0.31,0.53,0.43,0.23,0.42,0.51,0.55,0.31,0.44,0.42,0.31,0.23,0.51,0.43,0.31,0.69,0.43,0.43,0.55,0.23,0.44,0.42,0.31,0.27,0.46,0.43,0.23,0.82,0.44,0.31,0.43,0.37,0.27,0.44,0.25,0.37,0.23,0.44,0.55,0.53,0.23,0.31,0.53,0.43,0.23,0.43,0.25,0.43,0.42,0.31,0.37,0.51,0.25,0.46,0.31,0.43,0.23,0.55,0.43,0.43,0.53,0.23,0.31,0.51,0.23,0.51,0.43,0.23,0.27,0.82,0.52,0.37,0.51,0.46,0.43,0.53,0.23,0.31,0.51,0.23" style="fill:rgb(0,0,0);font-family:MinionPro-Regular;font-size:9.0px;stroke:none;">ticles to a certain extent, but the contact between active materials and the electrolyte need to be improved to </text>
   <text y="607.904" x="155.639,159.59,164.342,169.094,172.316,176.141,179.399,182.702,184.538,187.337,192.107,195.932,197.768,200.153,203.411,206.669,211.448,215.273,217.109,221.591,224.255,226.091,228.368,230.78,238.151,240.454,243.145,247.015,251.767,253.603,257.392,259.669,263.538,267.408,270.198,273.42,277.902,282.825,284.661,288.531,293.418,298.17,300.006,302.418,306.9,311.823,313.659,316.449,319.788,323.658,328.509,331.767,336.564,341.046,344.475,347.22" svgx:width="0.44,0.53,0.53,0.37,0.43,0.37,0.37,0.23,0.31,0.53,0.43,0.23,0.27,0.37,0.37,0.53,0.43,0.23,0.51,0.3,0.23,0.25,0.27,0.82,0.27,0.31,0.43,0.53,0.23,0.43,0.25,0.43,0.42,0.31,0.37,0.51,0.55,0.23,0.44,0.55,0.53,0.23,0.27,0.51,0.55,0.23,0.31,0.37,0.44,0.55,0.37,0.52,0.51,0.37,0.31,0.23" style="fill:rgb(0,0,0);font-family:MinionPro-Regular;font-size:9.0px;stroke:none;">address the issue of limited electron and ion transport.</text>
   <text y="617.903" x="167.636,173.296,177.21,181.062,184.932,189.728,192.571,194.829,198.347,200.444,202.438,206.803,213.463,215.456,221.936,226.247,228.241,232.237,236.107,239.373,244.008,248.192,252.025,254.319,257.667,259.661,262.288,266.966,270.881,278.297,280.29,285.114,289.082,292.43,294.422,298.246,300.946,303.781,307.165,311.161,315.074,317.809,321.723,326.52,328.513,335.758,340.582,344.379,349.23,351.223,355.047,357.746,360.481,364.351,369.147,371.982,374.439,378.965,383.933,385.926,390.614,395.438,399.308,401.302,404.037,408.672,410.665,413.509,418.323,422.193,424.65,428.034,430.026,432.348,436.839,443.049,445.042,449.839,453.709,458.604,461.952,464.3,467.116,470.634,472.731,474.724,479.575,482.032,486.351,491.202,493.195,496.497,501.321,504.759,507.468,511.464,515.316,519.186,521.179,525.093,528.359,532.282,536.25,539.598,541.695,543.689,548.054,554.669" svgx:width="0.62,0.43,0.42,0.43,0.55,0.31,0.25,0.46,0.23,0.23,0.48,0.74,0.23,0.71,0.47,0.23,0.44,0.43,0.37,0.51,0.47,0.43,0.25,0.37,0.23,0.3,0.51,0.44,0.82,0.23,0.53,0.44,0.37,0.23,0.44,0.31,0.31,0.37,0.44,0.42,0.31,0.43,0.53,0.23,0.82,0.53,0.42,0.53,0.23,0.44,0.31,0.31,0.43,0.55,0.31,0.27,0.51,0.55,0.23,0.53,0.53,0.43,0.23,0.31,0.51,0.23,0.31,0.53,0.43,0.27,0.37,0.23,0.25,0.51,0.69,0.23,0.53,0.43,0.55,0.37,0.27,0.31,0.46,0.23,0.23,0.53,0.27,0.47,0.53,0.23,0.37,0.53,0.37,0.3,0.44,0.42,0.43,0.23,0.44,0.37,0.43,0.44,0.37,0.23,0.23,0.48,0.74,0.23" style="fill:rgb(0,0,0);font-family:MinionPro-Regular;font-size:9.0px;stroke:none;">Recently, 3D GS aerogels foam has attracted much attention due to their low density, high surface areas, 3D </text>
   <text y="627.902" x="155.639,159.446,163.928,168.815,173.459,178.238,182.108,184.898,187.247,191.342,195.167,196.922,201.809,205.634,208.406,214.499,218.981,222.284,226.748,230.051,232.103,233.858,237.729,242.616,247.368,249.123,256.494,258.906,262.713,265.935,270.426,275.223,279.705,282.927,287.418,292.17,295.473,297.228,301.098,305.985,310.737,312.492,319.827,323.652,327.026,331.517,336.314,340.796,344.018,348.509,353.261,356.564,358.319,361.577,364.367,367.796,372.575,376.444,379.099,383.878,387.1,390.925" svgx:width="0.42,0.51,0.55,0.53,0.53,0.42,0.31,0.27,0.46,0.43,0.23,0.55,0.43,0.31,0.69,0.51,0.37,0.5,0.37,0.23,0.23,0.44,0.55,0.53,0.23,0.82,0.27,0.42,0.37,0.51,0.52,0.51,0.37,0.51,0.53,0.37,0.23,0.44,0.55,0.53,0.23,0.82,0.43,0.37,0.51,0.52,0.51,0.37,0.51,0.53,0.37,0.23,0.37,0.31,0.37,0.53,0.42,0.31,0.53,0.37,0.43,0.37" style="fill:rgb(0,0,0);font-family:MinionPro-Regular;font-size:9.0px;stroke:none;">conductive networks, and microporous and mesoporous structures</text>
   <text y="624.846" x="394.246,397.054" svgx:width="0.48,0.48" style="fill:rgb(0,0,0);font-family:MinionPro-Regular;font-size:5.85px;stroke:none;">21</text>
   <text y="627.906" x="399.862,401.914,403.669,413.272,417.097,418.852,423.172,429.787,431.542,437.977,442.243,443.998,446.581,451.216,455.086,462.457,464.212,467.326,473.761,477.919,482.68,485.794,487.549,491.383,495.253,500.176,501.931,506.584,510.409,512.164,516.772,519.994,523.819,528.579,532.449,535.671,539.541,544.293,546.048,550.476,554.607" svgx:width="0.23,0.23,1.07,0.43,0.23,0.48,0.74,0.23,0.71,0.47,0.23,0.3,0.51,0.44,0.82,0.23,0.35,0.71,0.47,0.53,0.35,0.23,0.42,0.44,0.55,0.23,0.51,0.43,0.23,0.52,0.37,0.43,0.52,0.44,0.37,0.43,0.53,0.23,0.51,0.46,0.23" style="fill:rgb(0,0,0);font-family:MinionPro-Regular;font-size:9.0px;stroke:none;">. The 3D GS foam (GSF) can be prepared by </text>
   <text y="637.905" x="155.638,159.391,164.161,167.986,175.357,177.769,181.602,185.598,187.875,189.621,192.843,196.712,201.356,206.135,210.005,212.795,215.207,219.689,224.612,226.358,229.472,234.224,237.527,239.939,244.79,249.002,250.748,253.97,257.84,262.484,267.263,271.07,273.482,278.333,282.545,284.291,288.197,292.337,296.162,300.914,303.659,306.962,308.708,311.12,316.006,319.759,321.928,326.707,331.459,333.871,338.722,342.934,344.68,351.574,354.643,356.695,358.441,364.894,368.845,375.739,380.005" svgx:width="0.42,0.53,0.43,0.82,0.27,0.42,0.44,0.25,0.23,0.37,0.43,0.53,0.53,0.42,0.31,0.27,0.51,0.55,0.23,0.35,0.53,0.37,0.27,0.55,0.47,0.23,0.37,0.43,0.53,0.53,0.42,0.27,0.55,0.47,0.23,0.44,0.47,0.43,0.55,0.31,0.37,0.23,0.27,0.55,0.42,0.25,0.53,0.53,0.27,0.55,0.47,0.23,0.77,0.34,0.23,0.23,0.74,0.44,0.77,0.47,0.75" style="fill:rgb(0,0,0);font-family:MinionPro-Regular;font-size:9.0px;stroke:none;">chemical reduction (using reducing agents including HI, NaHSO</text>
   <text y="639.706" x="386.736" svgx:width="0.48" style="fill:rgb(0,0,0);font-family:MinionPro-Regular;font-size:5.85px;stroke:none;">3</text>
   <text y="637.906" x="389.544,391.596,393.342,398.102,401.306,405.23,408.605,412.412,416.894,420.233,424.661,428.855,431.132,432.878,436.829,440.636,443.048,447.8,449.546,453.416,458.303,463.055,464.801,468.176,472.766,474.512,478.994" svgx:width="0.23,0.23,0.54,0.36,0.44,0.37,0.42,0.51,0.37,0.51,0.46,0.25,0.23,0.44,0.42,0.27,0.53,0.23,0.44,0.55,0.53,0.23,0.37,0.51,0.23,0.51,0.55" style="fill:rgb(0,0,0);font-family:MinionPro-Regular;font-size:9.0px;stroke:none;">, L-ascorbyl acid and so on</text>
   <text y="634.846" x="483.924,486.732,489.54,492.582,495.39" svgx:width="0.48,0.48,0.52,0.48,0.48" style="fill:rgb(0,0,0);font-family:MinionPro-Regular;font-size:5.85px;stroke:none;">21–23</text>
   <text y="637.906" x="498.198,501.312,503.364,505.11,509.709,513.768,518.52,521.742,526.233,529.032,533.802,537.627,541.02,548.364,552.36,554.637" svgx:width="0.35,0.23,0.23,0.53,0.46,0.53,0.37,0.51,0.31,0.53,0.43,0.37,0.82,0.44,0.25,0.23" style="fill:rgb(0,0,0);font-family:MinionPro-Regular;font-size:9.0px;stroke:none;">), hydrothermal </text>
   <text y="647.905" x="155.64,158.932,162.871,167.587,172.436,176.376,179.235,181.717,186.271" svgx:width="0.37,0.43,0.53,0.53,0.42,0.31,0.27,0.51,0.55" style="fill:rgb(0,0,0);font-family:MinionPro-Regular;font-size:9.0px;stroke:none;">reduction</text>
   <text y="644.846" x="191.258,194.113,196.968,198.348,201.203" svgx:width="0.48,0.48,0.23,0.48,0.48" style="fill:rgb(0,0,0);font-family:MinionPro-Regular;font-size:5.85px;stroke:none;">24,25</text>
   <text y="647.906" x="204.051,206.134,210.075,215.031,219.855,221.938,225.762,230.601,234.498,241.941,244.425,248.329,252.394,254.743,256.827,261.066,264.915,269.783,274.335,277.746,279.829,284.653,288.55,293.417,298.079,301.454,303.828,306.688,309.172,313.724,318.719,320.803,323.989,330.046,336.445,343.132" svgx:width="0.23,0.44,0.55,0.53,0.23,0.42,0.53,0.43,0.82,0.27,0.42,0.44,0.25,0.23,0.46,0.44,0.52,0.51,0.37,0.23,0.53,0.43,0.52,0.51,0.37,0.27,0.31,0.27,0.51,0.55,0.23,0.35,0.67,0.7,0.74,0.35" style="fill:rgb(0,0,0);font-family:MinionPro-Regular;font-size:9.0px;stroke:none;"> and chemical vapor deposition (CVD)</text>
   <text y="644.846" x="346.278,349.133" svgx:width="0.48,0.48" style="fill:rgb(0,0,0);font-family:MinionPro-Regular;font-size:5.85px;stroke:none;">26</text>
   <text y="647.906" x="351.985,354.109,356.192,362.483,364.567,368.806,372.746,376.208,378.692,382.589,385.431,389.634,391.717,396.269,399.005,401.089,403.958,408.798,412.695,414.779,419.745,423.685,428.641,433.203,438.034,441.973,445.472,448.332,450.816,454.64,456.989,460.886,464.261,467.312,473.819,478.157,480.24,482.893,487.598,491.538,498.906,502.281,504.365,507.693,512.544,516.367,521.245,523.329,527.322,530.697,532.78,537.063,542.058" svgx:width="0.23,0.23,0.69,0.23,0.46,0.44,0.37,0.27,0.43,0.31,0.46,0.23,0.51,0.3,0.23,0.31,0.53,0.43,0.23,0.55,0.44,0.55,0.51,0.52,0.44,0.37,0.31,0.27,0.42,0.25,0.43,0.37,0.33,0.71,0.47,0.23,0.3,0.51,0.44,0.82,0.37,0.23,0.37,0.53,0.42,0.53,0.23,0.44,0.37,0.23,0.47,0.55,0.75" style="fill:rgb(0,0,0);font-family:MinionPro-Regular;font-size:9.0px;stroke:none;">. A variety of the nanoparticles/GS foams such as SnO</text>
   <text y="649.706" x="548.805" svgx:width="0.48" style="fill:rgb(0,0,0);font-family:MinionPro-Regular;font-size:5.85px;stroke:none;">2</text>
   <text y="647.906" x="551.659" svgx:width="0.33" style="fill:rgb(0,0,0);font-family:MinionPro-Regular;font-size:9.0px;stroke:none;">/</text>
   <text y="657.905" x="155.641,162.184,166.45" svgx:width="0.71,0.47,0.53" style="fill:rgb(0,0,0);font-family:MinionPro-Regular;font-size:9.0px;stroke:none;">GSF</text>
   <text y="654.846" x="171.315,174.193,177.071,180.183,183.062" svgx:width="0.48,0.48,0.52,0.48,0.48" style="fill:rgb(0,0,0);font-family:MinionPro-Regular;font-size:5.85px;stroke:none;">27–29</text>
   <text y="657.906" x="185.939,188.099,190.313,196.54" svgx:width="0.23,0.23,0.67,0.51" style="fill:rgb(0,0,0);font-family:MinionPro-Regular;font-size:9.0px;stroke:none;">, Co</text>
   <text y="659.706" x="201.24" svgx:width="0.48" style="fill:rgb(0,0,0);font-family:MinionPro-Regular;font-size:5.85px;stroke:none;">3</text>
   <text y="657.906" x="204.118" svgx:width="0.75" style="fill:rgb(0,0,0);font-family:MinionPro-Regular;font-size:9.0px;stroke:none;">O</text>
   <text y="659.706" x="210.948" svgx:width="0.48" style="fill:rgb(0,0,0);font-family:MinionPro-Regular;font-size:5.85px;stroke:none;">4</text>
   <text y="657.906" x="213.826,216.913,223.456,227.722" svgx:width="0.33,0.71,0.47,0.53" style="fill:rgb(0,0,0);font-family:MinionPro-Regular;font-size:9.0px;stroke:none;">/GSF</text>
   <text y="654.846" x="232.59,235.468" svgx:width="0.48,0.48" style="fill:rgb(0,0,0);font-family:MinionPro-Regular;font-size:5.85px;stroke:none;">30</text>
   <text y="657.906" x="238.346,240.506,242.72,247.418" svgx:width="0.23,0.23,0.53,0.43" style="fill:rgb(0,0,0);font-family:MinionPro-Regular;font-size:9.0px;stroke:none;">, Fe</text>
   <text y="659.706" x="251.352" svgx:width="0.48" style="fill:rgb(0,0,0);font-family:MinionPro-Regular;font-size:5.85px;stroke:none;">2</text>
   <text y="657.906" x="254.23" svgx:width="0.75" style="fill:rgb(0,0,0);font-family:MinionPro-Regular;font-size:9.0px;stroke:none;">O</text>
   <text y="659.706" x="261.061" svgx:width="0.48" style="fill:rgb(0,0,0);font-family:MinionPro-Regular;font-size:5.85px;stroke:none;">3</text>
   <text y="657.906" x="263.939,267.026,273.569,277.835" svgx:width="0.33,0.71,0.47,0.53" style="fill:rgb(0,0,0);font-family:MinionPro-Regular;font-size:9.0px;stroke:none;">/GSF</text>
   <text y="654.846" x="282.703,285.581,288.459,289.863,292.741" svgx:width="0.48,0.48,0.23,0.48,0.48" style="fill:rgb(0,0,0);font-family:MinionPro-Regular;font-size:5.85px;stroke:none;">31,32</text>
   <text y="657.906" x="295.618,297.832,302.719,306.616,310.819,314.752,316.966,321.727,325.704,329.637,334.668,336.882,340.247,345.134,349.049,352.964,356.897,360.263,363.674,366.499,371.431,373.861,376.182,380.421,382.635,386.046,390.312,395.171,398.078,402.956,406.889,410.3,412.82,416.708,420.685,425.491,427.651,429.865,434.562,439.152,442.599,444.813,448.746,453.102,457.08,464.388,469.149,471.534,475.413,477.573,479.787,485.924,490.802,494.736,499.767,501.98,505.868,508.721,510.935,515.039,517.37,519.53,521.744,526.46,529.79,533.723,538.592,542.57,545.9,549.877,554.629" svgx:width="0.23,0.53,0.44,0.46,0.43,0.23,0.51,0.43,0.43,0.55,0.23,0.37,0.53,0.42,0.42,0.43,0.37,0.37,0.3,0.53,0.25,0.25,0.46,0.23,0.37,0.46,0.55,0.31,0.53,0.43,0.37,0.27,0.42,0.43,0.53,0.23,0.23,0.53,0.51,0.37,0.23,0.43,0.47,0.44,0.82,0.52,0.25,0.43,0.23,0.23,0.67,0.53,0.43,0.55,0.23,0.44,0.31,0.23,0.44,0.25,0.23,0.23,0.52,0.37,0.43,0.52,0.44,0.37,0.43,0.53,0.23" style="fill:rgb(0,0,0);font-family:MinionPro-Regular;font-size:9.0px;stroke:none;"> have been successfully synthesized. For example, Chen at al. prepared </text>
   <text y="667.905" x="155.641,158.516,163.362,167.259,169.365,173.757,180.444,182.55,186.429,190.986,198.261,203.134,207.796,211.171,213.55,216.317,220.214,222.32,226.343,230.24,233.537,238.199,242.415,246.28,248.605,251.98,254.086,261.506,265.529,270.353,274.25,276.356,280.913,283.649,285.755,292.262,296.6,298.706,302.652,307.615,312.439,314.545,319.21" svgx:width="0.31,0.53,0.43,0.23,0.48,0.74,0.23,0.42,0.51,0.82,0.52,0.51,0.37,0.27,0.31,0.43,0.23,0.44,0.43,0.37,0.51,0.47,0.43,0.25,0.37,0.23,0.82,0.44,0.53,0.43,0.23,0.51,0.3,0.23,0.71,0.47,0.23,0.44,0.55,0.53,0.23,0.53,0.43" style="fill:rgb(0,0,0);font-family:MinionPro-Regular;font-size:9.0px;stroke:none;">the 3D composite aerogels made of GS and Fe</text>
   <text y="669.706" x="323.144" svgx:width="0.48" style="fill:rgb(0,0,0);font-family:MinionPro-Regular;font-size:5.85px;stroke:none;">3</text>
   <text y="667.906" x="326.001" svgx:width="0.75" style="fill:rgb(0,0,0);font-family:MinionPro-Regular;font-size:9.0px;stroke:none;">O</text>
   <text y="669.706" x="332.799" svgx:width="0.48" style="fill:rgb(0,0,0);font-family:MinionPro-Regular;font-size:5.85px;stroke:none;">4</text>
   <text y="667.906" x="335.656,337.762,342.734,346.68,351.642,356.209,361.044,364.991,368.495,371.36,373.844,377.673,380.022,383.919,387.294,389.4,394.227,397.602,400.086,405.013,409.297,411.403,417.932,421.956,428.922,433.26" svgx:width="0.23,0.55,0.44,0.55,0.51,0.52,0.44,0.37,0.31,0.27,0.42,0.25,0.43,0.37,0.23,0.53,0.37,0.27,0.55,0.47,0.23,0.74,0.44,0.77,0.47,0.75" style="fill:rgb(0,0,0);font-family:MinionPro-Regular;font-size:9.0px;stroke:none;"> nanoparticles using NaHSO</text>
   <text y="669.706" x="440.082" svgx:width="0.48" style="fill:rgb(0,0,0);font-family:MinionPro-Regular;font-size:5.85px;stroke:none;">3</text>
   <text y="667.906" x="442.939,445.045,449.045,452.42,454.526,458.549,460.655,463.952,467.898,472.618,477.469,481.348,483.832,488.758,493.042,495.148,499.13,503.346,507.243,512.07,514.887,516.993,520.939,525.901,530.725,532.831,535.49,540.057,544.908,549.87,554.622" svgx:width="0.23,0.44,0.37,0.23,0.44,0.23,0.37,0.43,0.53,0.53,0.42,0.27,0.55,0.47,0.23,0.44,0.47,0.43,0.55,0.31,0.23,0.44,0.55,0.53,0.23,0.3,0.51,0.53,0.55,0.53,0.23" style="fill:rgb(0,0,0);font-family:MinionPro-Regular;font-size:9.0px;stroke:none;"> as a reducing agent and found </text>
   <text y="677.905" x="155.641,158.44,163.219,166.999,169.744,171.63,174.428,179.198,183.023,184.908,192.252,196.032,198.723,202.548,205.941,208.379,212.375,214.625,217.928,219.814,224.593,228.382,232.477,236.302,238.187,242.012,246.188,249.995,253.784,256.106,258.383,262.208,266.96,269.705,271.589,275.378,277.655,281.525,285.395,288.185,291.407,296.077,299.83,304.6,308.425,315.796,318.208,322.042,326.038,328.315,330.2,334.997,338.822,342.215,344.798,349.28,352.673,360.017,363.887,368.774,372.581" svgx:width="0.31,0.53,0.44,0.31,0.23,0.31,0.53,0.43,0.23,0.82,0.44,0.31,0.43,0.37,0.27,0.44,0.25,0.37,0.23,0.53,0.44,0.46,0.43,0.23,0.43,0.47,0.42,0.43,0.25,0.25,0.43,0.55,0.31,0.23,0.43,0.25,0.43,0.42,0.31,0.37,0.51,0.42,0.53,0.43,0.82,0.27,0.42,0.44,0.25,0.23,0.52,0.43,0.37,0.3,0.51,0.37,0.82,0.44,0.55,0.42,0.43" style="fill:rgb(0,0,0);font-family:MinionPro-Regular;font-size:9.0px;stroke:none;">that the materials have excellent electrochemical performance</text>
   <text y="674.846" x="376.402,379.21" svgx:width="0.48,0.48" style="fill:rgb(0,0,0);font-family:MinionPro-Regular;font-size:5.85px;stroke:none;">33</text>
   <text y="677.906" x="382.018,384.07,385.955,388.88,393.803,395.688,398.487,403.293,405.678,408.981,410.866,418.201,422.026,424.824,429.594,434.265,438.963,441.015,442.901,445.7,450.47,454.295,456.179,462.614,466.88,470.183,472.069,475.444,479.233,481.51,484.174,487.378,491.302,494.559,497.934,501.759,509.04,513.549,515.826,519.651,521.537,523.949,528.701,531.392,535.982,537.866,541.817,543.703,548.023,554.638" svgx:width="0.23,0.23,0.34,0.55,0.23,0.31,0.53,0.27,0.37,0.23,0.82,0.43,0.31,0.53,0.51,0.53,0.23,0.23,0.31,0.53,0.43,0.23,0.71,0.47,0.37,0.23,0.37,0.43,0.25,0.3,0.36,0.44,0.37,0.37,0.43,0.82,0.51,0.25,0.43,0.23,0.27,0.55,0.31,0.51,0.23,0.44,0.23,0.48,0.74,0.23" style="fill:rgb(0,0,0);font-family:MinionPro-Regular;font-size:9.0px;stroke:none;">. In this method, the GSs self-assemble into a 3D </text>
   <text y="687.905" x="155.641,163.03,167.026,170.878,174.145,178.78,182.199,186.051,190.587,195.24,197.697,201.576,205.617,207.939,209.937,213.239,216.074,219.548,224.372,228.286,230.986,235.81,239.076,242.946,244.944,249.417,253.593,255.591,258.435,263.25,267.12" svgx:width="0.82,0.44,0.42,0.37,0.51,0.37,0.42,0.51,0.52,0.27,0.42,0.44,0.25,0.23,0.37,0.31,0.37,0.53,0.42,0.31,0.53,0.37,0.43,0.23,0.51,0.46,0.23,0.31,0.53,0.43,0.23" style="fill:rgb(0,0,0);font-family:MinionPro-Regular;font-size:9.0px;stroke:none;">macroscopical structure by the </text>
   <text y="687.905" x="269.118" svgx:width="0.6" style="fill:rgb(0,0,0);font-family:EuclidSymbol;font-size:9.0px;stroke:none;">π</text>
   <text y="687.905" x="274.522" svgx:width="0.23" style="fill:rgb(0,0,0);font-family:MinionPro-Regular;font-size:9.0px;stroke:none;"> </text>
   <text y="687.905" x="274.945" svgx:width="0.78" style="fill:rgb(0,0,0);font-family:EuclidSymbol;font-size:9.0px;stroke:none;">−</text>
   <text y="687.905" x="281.992" svgx:width="0.23" style="fill:rgb(0,0,0);font-family:MinionPro-Regular;font-size:9.0px;stroke:none;"> </text>
   <text y="687.905" x="282.415" svgx:width="0.6" style="fill:rgb(0,0,0);font-family:EuclidSymbol;font-size:9.0px;stroke:none;">π</text>
   <text y="687.905" x="287.824,288.247,290.245,293.548,296.392,300.388,304.185,308.73,311.187,316.083,320.34,322.338,324.795,329.592,332.328,336.198,339.582,343.578,347.492,350.327,352.784,357.311,362.206,365.554,367.651,369.649,377.029,380.899,383.742,387.783,390.105,392.103,394.56,399.086,403.982,407.33,409.328,413.243,416.51,420.38,422.378,426.374,431.144,434.563,439.09,442.474,447.172,451.086,455.883,457.881,462.408,467.376,469.374,472.218,477.032,480.902,482.9,486.203,491.027,494.465,497.174,501.17,505.022,508.892,510.89,515.417,518.126,520.124,526.604,530.915,532.913,537.737,542.669,547.466,551.336,554.674" svgx:width="0.23,0.23,0.37,0.31,0.44,0.42,0.5,0.27,0.55,0.47,0.23,0.27,0.55,0.31,0.43,0.37,0.44,0.42,0.31,0.27,0.51,0.55,0.37,0.23,0.23,0.82,0.43,0.31,0.44,0.25,0.23,0.27,0.51,0.55,0.37,0.23,0.44,0.37,0.43,0.23,0.44,0.53,0.37,0.51,0.37,0.51,0.43,0.53,0.23,0.51,0.55,0.23,0.31,0.53,0.43,0.23,0.37,0.53,0.37,0.3,0.44,0.42,0.43,0.23,0.51,0.3,0.23,0.71,0.47,0.23,0.53,0.55,0.53,0.43,0.37,0.23" style="fill:rgb(0,0,0);font-family:MinionPro-Regular;font-size:9.0px;stroke:none;"> stacking interactions; metal ions are adsorbed on the surface of GS under </text>
   <text y="716.827" x="155.638,160.33,163.279,167.444,170.394,174.627,176.072,181.048,185.236,189.308,190.761,195.19,199.355,203.911,208.441,211.289,215.454,218.403,222.927,225.775,229.846,231.3,235.83,238.533,239.987,246.974,251.207,254.156,258.321,260.293,261.737,268.724,272.889,275.839,278.686,280.658,284.526,285.645,290.652,295.182,302.229,306.742,311.273,314.707,316.679,319.628,323.861,327.295,329.539,330.783,335.475,339.198,343.72,348.25,352.78,354.752,356.206,360.736,363.439,364.893,371.88,376.045,378.994,383.227,386.075,388.047,392.212,394.184,397.618,398.854,403.546,407.269,409.241,413.474,417.953,421.676,425.909,427.363,431.528,436.007,440.563,442.012,446.695,451.175,455.688,457.66,462.14,466.373,470.606,473.453,475.425,479.905,484.418,486.662,487.901,492.592,497.115,501.28,505.759,510.272,514.794,518.959,520.931,522.214,525.402,527.374,531.539,536.069,536.934,541.114,545.644,550.124,554.637" svgx:width="0.55,0.35,0.49,0.35,0.5,0.2,0.61,0.5,0.48,0.2,0.52,0.49,0.54,0.53,0.34,0.49,0.35,0.53,0.34,0.48,0.2,0.53,0.32,0.2,0.82,0.5,0.35,0.49,0.23,0.2,0.82,0.49,0.35,0.34,0.23,0.46,0.2,0.59,0.53,0.83,0.53,0.53,0.4,0.23,0.35,0.5,0.4,0.26,0.2,0.55,0.44,0.53,0.53,0.53,0.23,0.2,0.53,0.32,0.2,0.82,0.49,0.35,0.5,0.34,0.23,0.49,0.23,0.4,0.2,0.55,0.44,0.23,0.5,0.53,0.44,0.5,0.2,0.49,0.53,0.54,0.2,0.55,0.53,0.53,0.23,0.53,0.5,0.5,0.34,0.23,0.53,0.53,0.26,0.2,0.55,0.53,0.49,0.53,0.53,0.53,0.49,0.23,0.2,0.38,0.23,0.49,0.53,0.2,0.56,0.53,0.53,0.53,0.2" style="fill:rgb(0,0,0);font-family:Corbel;font-size:8.5px;stroke:none;">State Key Laboratory of Metal Matrix Composites, School of Materials Science and Engineering, Shanghai Jiao Tong </text>
   <text y="726.823" x="155.638,161.401,165.94,167.971,171.958,176.25,179.157,182.651,184.682,187.691,191.536,193.84,195.375,200.127,204.708,208.933,213.472,218.045,222.626,226.851,228.882,230.625,235.045,239.465,243.885,248.305,252.725,257.145,259.448,261.191,265.082,267.385,272.477,274.78,276.191,281.257,285.839,287.87,292.409,296.634,298.937,300.348,305.414,310.004,312.911,315.818,320.111,323.604,328.177,332.767,337.306,341.922,346.214,350.753,354.541,358.833,360.577,364.801,369.34,373.956,375.698,378.605,382.898,387.403,391.865,396.158,399.651,402.66,406.154,407.897,410.66,415.25,418.157,419.899,427.005,431.23,434.239,438.531,441.438,443.47,447.694,449.726,453.219,454.963,458.456,463.038,467.628,472.09,474.122,478.737,480.48,485.095,489.388,491.13,495.355,499.97,504.586,507.493,511.785,515.279,518.772,523.065,527.68,529.423,532.432,537.022,538.766,544.5,546.803,552.359,554.604" svgx:width="0.67,0.53,0.23,0.46,0.5,0.34,0.4,0.23,0.35,0.48,0.26,0.2,0.55,0.53,0.49,0.53,0.53,0.53,0.49,0.23,0.2,0.51,0.51,0.51,0.51,0.51,0.51,0.26,0.2,0.57,0.26,0.59,0.26,0.2,0.59,0.53,0.23,0.53,0.49,0.26,0.2,0.59,0.53,0.34,0.34,0.5,0.4,0.53,0.53,0.53,0.54,0.5,0.53,0.44,0.5,0.2,0.49,0.53,0.54,0.2,0.34,0.5,0.52,0.52,0.5,0.4,0.35,0.4,0.2,0.32,0.53,0.34,0.2,0.83,0.49,0.35,0.5,0.34,0.23,0.49,0.23,0.4,0.2,0.4,0.53,0.53,0.52,0.23,0.54,0.2,0.54,0.5,0.2,0.49,0.54,0.54,0.34,0.5,0.4,0.4,0.5,0.54,0.2,0.35,0.53,0.2,0.67,0.26,0.67,0.26,0.2" style="fill:rgb(0,0,0);font-family:Corbel;font-size:8.5px;stroke:none;">University, Shanghai 200240, P.R. China. Correspondence and requests for materials should be addressed to H.D. </text>
   <text y="736.819" x="155.638,158.02,162.253,169.3,173.465,175.437,177.409,179.653,181.175,185.697,190.253,194.614,203.207,206.641,208.69,211.639,216.042,218.286,222.519,227.075,231.478,233.722,237.445,241.754,244.304,245.834,250.364,253.212,254.745,260.415,262.659,267.087,269.331,270.865,273.247,277.48,284.527,288.692,290.664,292.635,294.879,296.403,300.925,304.699,309.221,311.193,313.165,317.568,326.161,329.595,331.644,334.593,338.996,341.24,345.473,350.029,354.432,356.676,360.399,364.714" svgx:width="0.3,0.5,0.83,0.49,0.23,0.23,0.26,0.2,0.53,0.54,0.51,1.01,0.4,0.24,0.35,0.52,0.26,0.5,0.54,0.52,0.26,0.44,0.53,0.3,0.2,0.53,0.34,0.2,0.67,0.26,0.52,0.26,0.2,0.3,0.5,0.83,0.49,0.23,0.23,0.26,0.2,0.53,0.44,0.53,0.23,0.23,0.52,1.01,0.4,0.24,0.35,0.52,0.26,0.5,0.54,0.52,0.26,0.44,0.53,0.3" style="fill:rgb(0,0,0);font-family:Corbel;font-size:8.5px;stroke:none;">(email: hd1@sjtu.edu.cn) or H.L. (email: hzhliu@sjtu.edu.cn)</text>
   <text y="249.662" x="52.544,57.28,61.264,64.768,68.752,70.608,74.304,78.288,82.576,84.688,86.12,90.224,94.328,95.452,101.292,104.796,107.572,111.836,116.124,120.108,122.788,124.233,128.337,132.441,136.545" svgx:width="0.59,0.5,0.44,0.5,0.23,0.46,0.5,0.54,0.26,0.2,0.51,0.51,0.2,0.73,0.44,0.35,0.53,0.54,0.5,0.34,0.2,0.51,0.51,0.51,0.51" style="fill:rgb(0,0,0);font-family:Corbel;font-size:8.0px;stroke:none;">Received: 13 October 2015</text>
   <text y="263.662" x="43.776,49.016,52.407,55.911,59.895,64.143,66.919,70.903,75.191,77.303,78.739,82.843,86.947,88.383,93.751,97.735,101.239,105.223,111.855,116.143,120.127,122.807,124.235,128.339,132.443,136.547" svgx:width="0.63,0.44,0.44,0.5,0.53,0.35,0.5,0.54,0.26,0.2,0.51,0.51,0.2,0.67,0.5,0.44,0.5,0.83,0.54,0.5,0.34,0.2,0.51,0.51,0.51,0.51" style="fill:rgb(0,0,0);font-family:Corbel;font-size:8.0px;stroke:none;">accepted: 07 December 2015</text>
   <text y="277.662" x="51.432,56.152,60.296,64.584,66.44,68.296,71.528,75.784,79.768,84.056,86.168,87.602,91.706,95.81,97.09,100.09,104.01,108.226,112.37,116.29,118.97,122.802,124.238,128.342,132.446,136.55" svgx:width="0.57,0.52,0.54,0.23,0.23,0.4,0.53,0.5,0.54,0.26,0.2,0.51,0.51,0.2,0.38,0.49,0.53,0.52,0.49,0.34,0.48,0.2,0.51,0.51,0.51,0.51" style="fill:rgb(0,0,0);font-family:Corbel;font-size:8.0px;stroke:none;">Published: 12 January 2016</text>
   <text y="164.756" x="93.968,107.18,117.998,128.223" svgx:width="0.73,0.6,0.57,0.73" style="fill:rgb(245,130,32);font-family:Corbel-Bold;font-size:18.0px;stroke:none;">OPEN</text>
  </g>
 </g>
</svg>
