<?xml version="1.0" encoding="UTF-8"?>
<svg height="774.23" width="4165.638" xmlns="http://www.w3.org/2000/svg">
 <g id="page" xmlns:svgx="http://www.xml-cml.org/schema/svgx">
  <g begin="text">
   <text y="22.46" x="40.638,48.208,55.778,63.055,66.145,71.865,77.215,81.135,86.765,90.565,95.995,99.085,103.915,109.695,118.435,121.635,126.125,130.955,133.725,139.15,144.87,148.79,151.56,155.19,157.96,162.79,166.59,172.02,177.78,183.56,187.36,191.28,195.77" svgx:width="0.71,0.71,0.71,0.26,0.53,0.49,0.35,0.52,0.34,0.5,0.26,0.44,0.53,0.83,0.28,0.4,0.44,0.23,0.5,0.53,0.35,0.23,0.32,0.23,0.44,0.34,0.5,0.53,0.53,0.34,0.35,0.4,0.28" style="fill:rgb(255,255,255);font-family:Corbel;font-size:10.0px;stroke:none;">www.nature.com/scientificreports/</text>
  </g>
  <g begin="text">
   <text y="764.23" x="550.36" svgx:width="0.43" style="fill:rgb(131,144,151);font-family:Corbel;font-size:10.0px;stroke:none;">7</text>
  </g>
  <g begin="text">
   <text y="764.193" x="40.794,45.642,50.786,53.186,58.026,64.026,68.898,71.298,75.762,78.162" svgx:width="0.55,0.59,0.25,0.55,0.7,0.56,0.25,0.5,0.25,0.59" style="fill:rgb(131,144,151);font-family:Corbel;font-size:8.0px;stroke:none;">Scientific</text>
   <text y="764.193" x="83.162" svgx:width="0.2" style="fill:rgb(0,0,0);font-family:Corbel;font-size:8.0px;stroke:none;"> </text>
   <text y="764.193" x="84.762,90.218,95.194,100.434,106.738,112.194,117.186" svgx:width="0.63,0.57,0.6,0.73,0.63,0.57,0.58" style="fill:rgb(131,144,151);font-family:Corbel-Bold;font-size:8.0px;stroke:none;">RepoRts</text>
   <text y="764.193" x="122.082,123.524,125.34,126.781,130.885,132.997,137.102,141.206,145.31,149.414,153.518,154.946,156.762,158.203,163.571,169.411,171.379,173.491,174.93,179.034,183.138,185.25,189.354,193.458,197.562,201.666,203.866,207.098,209.778,213.762,218.01,222.114,226.218,230.322,234.426" svgx:width="0.2,0.23,0.2,0.51,0.26,0.51,0.51,0.51,0.51,0.51,0.2,0.23,0.2,0.67,0.73,0.25,0.26,0.2,0.51,0.51,0.26,0.51,0.51,0.51,0.51,0.28,0.4,0.34,0.5,0.53,0.51,0.51,0.51,0.51,0.51" style="fill:rgb(0,0,0);font-family:Corbel;font-size:8.0px;stroke:none;"> | 6:19195 | DOI: 10.1038/srep19195</text>
  </g>
  <path style="fill:none;stroke:rgb(0,0,0);stroke-width:1.0;" d="M40.640 752.550 L554.640 752.550 "/>
  <g begin="text">
   <text y="350.5" x="155.638,158.444,163.221,167.055,168.999,173.218,178.15" svgx:width="0.31,0.53,0.43,0.23,0.47,0.55,0.75" style="fill:rgb(0,0,0);font-family:MinionPro-Regular;font-size:9.0px;stroke:none;">the SnO</text>
   <text y="352.3" x="184.88" svgx:width="0.48" style="fill:rgb(0,0,0);font-family:MinionPro-Regular;font-size:5.85px;stroke:none;">2</text>
   <text y="350.5" x="187.693,189.637,194.54,198.417,203.312,207.81,212.577,216.454,219.891,222.688,225.109,228.869,231.155,234.989,238.301,240.245,244.121,249.015,253.776,255.72,258.526,263.303,267.137,269.081,275.525,279.8,281.861,283.805,286.61,291.387,295.221,298.604,302.438,304.382,308.6,313.532,316.745,323.477,326.69,332.684,334.628,339.288,343.777,348.672,353.404,356.716,358.66,362.041,365.875,368.629,370.573,375.251,379.976,381.92,386.373,390.63,394.77,398.918,402.752,407.684,409.628,414.099,417.498,419.919,424.68,428.827,432.661,435.973,437.917,442.578,446.412,449.19,455.29,459.167,463.001,467.933,469.877,474.096,479.028" svgx:width="0.23,0.55,0.44,0.55,0.51,0.52,0.44,0.37,0.31,0.27,0.42,0.25,0.43,0.37,0.23,0.44,0.55,0.53,0.23,0.31,0.53,0.43,0.23,0.71,0.47,0.23,0.23,0.31,0.53,0.43,0.37,0.43,0.23,0.47,0.55,0.36,0.75,0.36,0.67,0.23,0.51,0.51,0.55,0.53,0.37,0.23,0.37,0.43,0.31,0.23,0.53,0.52,0.23,0.51,0.47,0.46,0.47,0.43,0.55,0.23,0.51,0.37,0.27,0.53,0.47,0.43,0.37,0.23,0.51,0.43,0.31,0.69,0.43,0.43,0.55,0.23,0.47,0.55,0.75" style="fill:rgb(0,0,0);font-family:MinionPro-Regular;font-size:9.0px;stroke:none;"> nanoparticles and the GS; these Sn-O-C bonds set up oxygen bridges between SnO</text>
   <text y="352.3" x="485.75" svgx:width="0.48" style="fill:rgb(0,0,0);font-family:MinionPro-Regular;font-size:5.85px;stroke:none;">2</text>
   <text y="350.5" x="488.563,490.507,495.41,499.287,504.181,508.679,513.447,517.324,520.76,523.557,525.978,529.739,532.025,535.859,539.171,541.115,544.991,549.885,554.637" svgx:width="0.23,0.55,0.44,0.55,0.51,0.52,0.44,0.37,0.31,0.27,0.42,0.25,0.43,0.37,0.23,0.44,0.55,0.53,0.23" style="fill:rgb(0,0,0);font-family:MinionPro-Regular;font-size:9.0px;stroke:none;"> nanoparticles and </text>
   <text y="360.499" x="155.635,162.124,166.444,168.55,170.566,180.22,184.099,186.115,190.613,194.915,199.1,203.291,207.17,212.147,214.163,218.679,222.123,224.589,229.395,233.586,237.465,240.822,242.838,249.082,251.59,253.963,256.294,258.31,263.141,266.982,271.128,275.007,277.023,279.846,285.991,290.635,292.651,295.285,299.863,302.194,306.971,310.328,312.344,316.879,319.597,321.613,325.492,330.511,334.432,338.353,341.152,344.509,346.525,351.059,356.036,358.052,360.902,365.723,369.602,371.618,376.269,380.559,385.074,388.519,390.985,395.791,397.807,400.441,405.127,409.048,416.473,418.579,420.595,423.313,427.318,431.179,433.688,436.019,439.898,441.914,445.754,448.085,452.006,455.928,458.769,462.042,466.575,471.552,474.018,477.879,479.895,482.738,486.131,490.052,494.954,498.264,503.112,507.645,511.125,513.924,515.94,519.862,524.8,529.606,531.622,534.931,537.773,541.046,545.579,550.482,554.693" svgx:width="0.71,0.47,0.23,0.23,1.07,0.43,0.23,0.51,0.47,0.46,0.47,0.43,0.55,0.23,0.51,0.37,0.27,0.53,0.47,0.43,0.37,0.23,0.69,0.27,0.25,0.25,0.23,0.53,0.44,0.46,0.43,0.23,0.31,0.69,0.51,0.23,0.3,0.51,0.25,0.53,0.37,0.23,0.51,0.3,0.23,0.43,0.56,0.43,0.42,0.31,0.37,0.23,0.51,0.55,0.23,0.31,0.53,0.43,0.23,0.53,0.46,0.51,0.37,0.27,0.53,0.23,0.3,0.51,0.44,0.82,0.23,0.23,0.3,0.44,0.42,0.27,0.25,0.43,0.23,0.43,0.25,0.43,0.42,0.31,0.37,0.51,0.55,0.27,0.42,0.23,0.31,0.37,0.44,0.55,0.37,0.52,0.51,0.37,0.31,0.23,0.44,0.55,0.53,0.23,0.37,0.31,0.37,0.51,0.55,0.47,0.23" style="fill:rgb(0,0,0);font-family:MinionPro-Regular;font-size:9.0px;stroke:none;">GS. The oxygen bridges will have two folds of effects on the hybrid foam: facile electronic transport and strong </text>
   <text y="370.498" x="155.635,159.442,162.124,164.949,168.927,172.707,177.54,184.902,188.754,193.532,196.304,198.275,202.783,205.474,207.445,211.684,216.634" svgx:width="0.44,0.31,0.31,0.44,0.42,0.53,0.82,0.43,0.55,0.31,0.23,0.51,0.3,0.23,0.47,0.55,0.75" style="fill:rgb(0,0,0);font-family:MinionPro-Regular;font-size:9.0px;stroke:none;">attachment of SnO</text>
   <text y="372.3" x="223.382" svgx:width="0.48" style="fill:rgb(0,0,0);font-family:MinionPro-Regular;font-size:5.85px;stroke:none;">2</text>
   <text y="370.5" x="226.207,228.178,233.101,236.998,241.912,246.43,251.218,255.115,258.571,261.388,263.827,267.607,269.911,273.763,277.093,279.064,283.573,288.523,290.494,293.32,298.117,301.969,303.94,310.402,314.695,316.666,319.951,324.757,328.176,330.867,334.845,338.679,342.477,344.556,346.527,352.781,357.614,360.053,363.833,368.666,370.637,376.856,379.34,381.688,383.992,385.963,388.267,392.173,396.151,400.93,402.901,405.619,410.236,412.207,416.112,420.064,423.394,427.552,429.523,434.014,436.453,441.367,446.146,448.585,453.462,457.701,460.707,465.486,467.925,475.134,479.03,483.881,486.077,488.849,490.82,495.599,498.011,501.295,504.697,509.395,513.229,515.694,519.501,522.318,524.757,529.635,533.874,535.845,539.624,544.43,548.328,551.431" svgx:width="0.23,0.55,0.44,0.55,0.51,0.52,0.44,0.37,0.31,0.27,0.42,0.25,0.43,0.37,0.23,0.51,0.55,0.23,0.31,0.53,0.43,0.23,0.71,0.47,0.23,0.37,0.53,0.37,0.3,0.44,0.42,0.43,0.23,0.23,0.69,0.53,0.27,0.42,0.53,0.23,0.69,0.27,0.25,0.25,0.23,0.25,0.43,0.44,0.53,0.23,0.31,0.51,0.23,0.43,0.44,0.37,0.46,0.23,0.51,0.27,0.55,0.53,0.27,0.55,0.47,0.33,0.53,0.27,0.8,0.42,0.53,0.25,0.31,0.23,0.53,0.27,0.37,0.37,0.51,0.42,0.27,0.44,0.31,0.27,0.55,0.47,0.23,0.42,0.53,0.44,0.37,0.36" style="fill:rgb(0,0,0);font-family:MinionPro-Regular;font-size:9.0px;stroke:none;"> nanoparticles on the GS surface, which will lead to easy binding/difficult dissociating char-</text>
   <text y="380.499" x="155.638,159.661,163.606,166.371,170.268,173.735,176.193,179.526,182.39,184.874,188.753,190.85,195.407,198.143,200.24,204.525,209.52,211.617,215.64,220.494,224.348,227.114,231.669,239.043,242.418,244.515,249.072,254.067,256.164,259.037,263.881,267.778,269.875,274.395,278.715,282.918,287.132,291.029,295.999,299.853,302.618,306.562,311.386,313.483,317.815,321.226,325.079,329.807,334.651,338.548,343.509,347.354,349.478,351.575,354.311,358.334,362.213,364.743,367.092,369.471,372.344,376.198,378.963,382.86,386.235,388.332,391.068,395.067,398.4,401.217,403.314,407.177,409.526,413.47,417.415,420.279,423.575,428.131,433.126,435.223,440.067,444.633,449.324,454.006,456.49,461.416,465.7,467.797,470.625,473.921,478.477,485.92,488.017,492.349,495.76,499.615,504.341,509.185,513.082,518.043,521.94,524.037,526.803,531.465,533.562,537.847,542.842" svgx:width="0.44,0.42,0.31,0.43,0.37,0.27,0.37,0.31,0.27,0.42,0.23,0.51,0.3,0.23,0.47,0.55,0.23,0.44,0.53,0.44,0.31,0.51,0.82,0.37,0.23,0.51,0.55,0.23,0.31,0.53,0.43,0.23,0.51,0.47,0.46,0.47,0.43,0.55,0.44,0.31,0.43,0.53,0.23,0.47,0.37,0.44,0.52,0.53,0.43,0.55,0.43,0.23,0.23,0.3,0.44,0.42,0.27,0.25,0.27,0.31,0.44,0.31,0.43,0.37,0.23,0.3,0.44,0.37,0.31,0.23,0.43,0.25,0.43,0.42,0.31,0.37,0.51,0.55,0.23,0.53,0.51,0.52,0.52,0.27,0.55,0.47,0.23,0.3,0.37,0.51,0.82,0.23,0.47,0.37,0.44,0.52,0.53,0.43,0.55,0.43,0.23,0.31,0.51,0.23,0.47,0.55,0.75" style="fill:rgb(0,0,0);font-family:MinionPro-Regular;font-size:9.0px;stroke:none;">acteristic of Sn adatoms on the oxygenated graphene, facilitates fast electron hopping from graphene to SnO</text>
   <text y="382.3" x="549.729" svgx:width="0.48" style="fill:rgb(0,0,0);font-family:MinionPro-Regular;font-size:5.85px;stroke:none;">2</text>
   <text y="380.5" x="552.586,554.638" svgx:width="0.23,0.23" style="fill:rgb(0,0,0);font-family:MinionPro-Regular;font-size:9.0px;stroke:none;">, </text>
   <text y="390.499" x="155.641,159.557,164.49,169.287,171.285,174.131,178.812,183.611,186.959,188.957,193.611,196.879,201.408,208.789,213.327,216.065,219.935,223.283,225.281,228.126,232.942,236.812,238.81,242.079,246.023,250.164,254.034,257.366,260.714,263.137,267.691,270.013,273.883,275.881,278.203,280.554,283.399,288.25,290.735,294.562,297.399,299.856,304.384,309.352,311.35,315.266,320.2,324.997,326.995,331.792,335.628,337.95,340.301,343.146,347.997,350.483,354.309,357.146,359.603,364.131,369.099,371.097,375.626,378.335,380.333,384.592,389.56" svgx:width="0.44,0.55,0.53,0.23,0.31,0.53,0.53,0.37,0.23,0.52,0.37,0.51,0.82,0.51,0.31,0.43,0.37,0.23,0.31,0.53,0.43,0.23,0.37,0.43,0.46,0.43,0.37,0.37,0.27,0.51,0.25,0.43,0.23,0.25,0.27,0.31,0.53,0.27,0.44,0.31,0.27,0.51,0.55,0.23,0.44,0.55,0.53,0.23,0.53,0.43,0.25,0.27,0.31,0.53,0.27,0.44,0.31,0.27,0.51,0.55,0.23,0.51,0.3,0.23,0.47,0.55,0.75" style="fill:rgb(0,0,0);font-family:MinionPro-Regular;font-size:9.0px;stroke:none;">and thus promotes the reversible lithiation and delithiation of SnO</text>
   <text y="392.3" x="396.391" svgx:width="0.48" style="fill:rgb(0,0,0);font-family:MinionPro-Regular;font-size:5.85px;stroke:none;">2</text>
   <text y="390.5" x="399.23,401.228,405.053,407.844,409.841,412.687,417.503,421.373,423.371,428.222,430.679,435.001,439.817,443.687,447.071,449.069,452.374,457.217,461.133,464.985,467.442,472.302,476.154,478.152,482.069,486.893,490.333,493.601,497.471,502.27,505.06,507.157,509.155,515.419,517.417,520.838,524.754,528.606,533.135,538.068,542.894,546.811,550.456,554.587" svgx:width="0.23,0.44,0.31,0.23,0.31,0.53,0.43,0.23,0.53,0.27,0.47,0.53,0.43,0.37,0.23,0.37,0.52,0.43,0.42,0.27,0.54,0.42,0.23,0.42,0.53,0.37,0.37,0.43,0.55,0.31,0.23,0.23,0.69,0.23,0.37,0.43,0.42,0.51,0.55,0.53,0.44,0.37,0.46,0.23" style="fill:rgb(0,0,0);font-family:MinionPro-Regular;font-size:9.0px;stroke:none;"> at the higher specific current. A secondary </text>
   <text y="400.499" x="155.636,158.842,162.706,166.615,169.974,174.441,179.346,181.065,188.394,192.168,196.281,198.0,202.637,206.444,208.163,210.946,215.711,219.475,222.202,223.921,226.705,231.46,235.267,236.986,240.84,245.745,250.617,254.481,258.462,260.721,263.115,267.95,272.144,273.863,276.638,279.845,283.707,287.472,290.247,297.567,301.374,306.11,308.837,310.556,312.95,320.135,324.728,327.934,332.365,336.445,340.252,343.537,345.256,348.039,352.794,356.601,358.32,362.094,364.353,368.208,372.062,374.837,378.214,380.608,384.426,388.407,390.666,392.385,396.174,400.641,405.513,410.141,414.902,418.757,421.532,423.865,428.044,430.332,433.089,437.202,438.921,443.387,446.033,447.752,450.536,455.291,459.098,460.817,467.234,471.482,473.201,477.613,481.726,483.445,485.734,488.461,491.821,495.594,497.853,500.457,502.491,504.21,508.953,511.347,515.541,520.302,523.509,527.316,529.038,533.34,539.307,541.026,544.88,549.752,554.504" svgx:width="0.37,0.43,0.44,0.37,0.51,0.55,0.23,0.82,0.44,0.46,0.23,0.51,0.43,0.23,0.31,0.53,0.44,0.31,0.23,0.31,0.53,0.43,0.23,0.44,0.55,0.55,0.43,0.44,0.25,0.27,0.55,0.47,0.23,0.31,0.37,0.43,0.44,0.31,0.82,0.43,0.55,0.31,0.23,0.27,0.82,0.52,0.37,0.51,0.46,0.43,0.37,0.23,0.31,0.53,0.43,0.23,0.43,0.25,0.43,0.42,0.31,0.37,0.27,0.42,0.44,0.25,0.23,0.42,0.51,0.55,0.53,0.53,0.42,0.31,0.27,0.46,0.27,0.31,0.46,0.23,0.51,0.3,0.23,0.31,0.53,0.43,0.23,0.71,0.47,0.23,0.51,0.46,0.23,0.27,0.31,0.37,0.43,0.25,0.3,0.23,0.23,0.53,0.27,0.47,0.53,0.37,0.43,0.23,0.48,0.67,0.23,0.44,0.55,0.53,0.23" style="fill:rgb(0,0,0);font-family:MinionPro-Regular;font-size:9.0px;stroke:none;">reason may be that the annealing treatment improves the electrical conductivity of the GS by itself. Figure 4C and </text>
   <text y="410.498" x="155.636,162.233,163.952,167.202,171.954,176.382,182.529,184.248,188.982,192.835,196.624,199.829,203.691,207.598,210.883,213.277,218.111,222.305,224.024,228.758,232.565,237.399,240.684,242.971,245.725,249.838,251.557,256.022,258.668,260.387,263.169,267.921,271.728,273.447,278.226,282.088,286.067,290.513,293.798,295.517,299.424,302.665,306.022,310.676,314.465,316.887,320.649,323.323,327.176,331.91,333.629,339.804,342.09,344.871,349.659,351.378,354.16,358.913,362.72,364.439,370.406,373.592,380.217,387.093,388.812,392.665,397.534,402.268,405.229,409.694,413.015,414.734,420.701,423.887,430.592,433.778,439.745,441.464,445.704,448.909,453.383,458.037,462.735,466.02,467.739,470.835,475.417,479.458,484.192,487.396,491.825,496.055,500.232,502.491,504.21,508.062,512.932,517.666,520.627,525.092,528.413,530.132,533.939,538.719,543.148,547.378,551.491,554.605" svgx:width="0.74,0.23,0.37,0.53,0.51,0.69,0.23,0.53,0.43,0.42,0.37,0.43,0.44,0.37,0.27,0.55,0.47,0.23,0.53,0.43,0.55,0.37,0.27,0.31,0.46,0.23,0.51,0.3,0.23,0.31,0.53,0.43,0.23,0.52,0.43,0.44,0.5,0.37,0.23,0.44,0.37,0.37,0.51,0.42,0.27,0.44,0.31,0.43,0.53,0.23,0.69,0.27,0.31,0.53,0.23,0.31,0.53,0.43,0.23,0.67,0.36,0.75,0.77,0.23,0.44,0.55,0.53,0.33,0.51,0.37,0.23,0.67,0.36,0.75,0.36,0.67,0.23,0.47,0.37,0.51,0.53,0.52,0.37,0.23,0.35,0.53,0.46,0.53,0.37,0.51,0.47,0.46,0.25,0.23,0.44,0.55,0.53,0.33,0.51,0.37,0.23,0.43,0.52,0.51,0.47,0.46,0.35,0.23" style="fill:rgb(0,0,0);font-family:MinionPro-Regular;font-size:9.0px;stroke:none;">D show decreasing density of the peaks associated with the C-OH and/or C-O-C groups (hydroxyl and/or epoxy) </text>
   <text y="420.497" x="155.636,159.506,164.69,168.515,171.854,173.766,176.565,181.335,185.16,187.073,190.943,195.866,200.753,204.632,208.627,210.904,213.316,218.167,222.379,224.291,227.081,230.303,234.182,237.962,240.752,248.086,251.911,256.663,259.408,261.46,263.373,269.601,274.407,276.819,280.572,285.378,287.29,290.548,295.327,299.593,303.733,307.558,310.815,313.56,316.863,318.776,321.575,326.345,330.17,332.082,335.304,339.129,346.464,350.91,355.077,359.073,361.35,363.263,367.745,370.409,372.321,376.767,381.015,385.146,389.286,393.111,398.034,399.946,403.753,408.235,412.987,415.786,419.656,422.068,426.991,429.403,434.254,438.466,440.379,443.097,447.876,452.763,456.632,459.422,461.834,466.316,471.212,475.208,477.485,479.397,483.654,486.876,491.367,496.038,500.754,504.057,506.109,508.022,517.661,520.046,523.349,525.266,529.073,533.556,538.307,541.097,544.49,546.866,551.438" svgx:width="0.44,0.58,0.43,0.37,0.23,0.31,0.53,0.43,0.23,0.44,0.55,0.55,0.43,0.44,0.25,0.27,0.55,0.47,0.23,0.31,0.37,0.43,0.44,0.31,0.82,0.43,0.55,0.31,0.23,0.23,0.69,0.53,0.27,0.42,0.53,0.23,0.37,0.53,0.47,0.47,0.43,0.37,0.31,0.37,0.23,0.31,0.53,0.43,0.23,0.37,0.43,0.82,0.51,0.46,0.44,0.25,0.23,0.51,0.3,0.23,0.51,0.47,0.46,0.47,0.43,0.55,0.23,0.42,0.51,0.55,0.31,0.44,0.27,0.55,0.27,0.55,0.47,0.23,0.3,0.53,0.55,0.42,0.31,0.27,0.51,0.55,0.44,0.25,0.23,0.47,0.37,0.51,0.53,0.52,0.37,0.23,0.23,1.07,0.27,0.37,0.23,0.42,0.51,0.55,0.31,0.37,0.27,0.51,0.36" style="fill:rgb(0,0,0);font-family:MinionPro-Regular;font-size:9.0px;stroke:none;">after the annealing treatment, which suggests the removal of oxygen containing functional groups. This contrib-</text>
   <text y="430.496" x="155.636,160.345,163.074,166.935,170.274,172.254,174.984,179.61,181.59,184.29,188.253,191.549,194.33,196.31,200.138,202.451,206.359,210.267,213.095,216.356,220.877,225.836,227.816,230.644,234.019,237.928,242.818,246.157,248.778,252.639,256.014,257.994,260.442,265.401,267.382,270.219,275.028,278.889,280.869,287.34,291.642,293.622,297.531,302.456,307.244,309.224,312.52,317.302,321.91,325.323,329.231,333.778,338.593,342.454,347.244,350.082,352.334,356.501,358.481,360.794,364.711,368.698,373.462,376.801,378.781,381.511,386.137,388.117,391.413,396.123,400.958,404.819,408.25,410.698,415.218,418.593,420.573,423.948,427.767,430.497,434.358,436.338,440.21,444.029,448.828,452.746,457.248,459.743,462.056,464.399,467.209,471.376,473.356,477.264,482.19,486.978,488.958,492.947,497.045,500.836,503.149,505.597,510.487,514.735,516.715,520.011,522.848,526.766,531.269,533.764,536.077,538.419,541.229,545.396,547.376,551.897,554.561" svgx:width="0.53,0.31,0.43,0.37,0.23,0.31,0.51,0.23,0.3,0.44,0.37,0.31,0.23,0.43,0.25,0.43,0.42,0.31,0.37,0.51,0.55,0.23,0.31,0.37,0.44,0.55,0.37,0.3,0.43,0.37,0.23,0.27,0.55,0.23,0.31,0.53,0.43,0.23,0.71,0.47,0.23,0.44,0.55,0.53,0.23,0.37,0.53,0.51,0.37,0.43,0.51,0.53,0.43,0.55,0.31,0.25,0.46,0.23,0.25,0.43,0.44,0.53,0.37,0.23,0.31,0.51,0.23,0.37,0.53,0.52,0.43,0.37,0.27,0.51,0.37,0.23,0.37,0.44,0.31,0.43,0.23,0.42,0.44,0.52,0.44,0.51,0.27,0.25,0.27,0.31,0.46,0.23,0.44,0.55,0.53,0.23,0.42,0.46,0.42,0.25,0.27,0.55,0.47,0.23,0.37,0.31,0.44,0.51,0.27,0.25,0.27,0.31,0.46,0.23,0.51,0.3,0.23" style="fill:rgb(0,0,0);font-family:MinionPro-Regular;font-size:9.0px;stroke:none;">utes to fast electron transfer in the GS and subsequently leads to superior rate capability and cycling stability of </text>
   <text y="440.495" x="155.636,161.877,166.193,172.676" svgx:width="0.69,0.47,0.71,0.53" style="fill:rgb(0,0,0);font-family:MinionPro-Regular;font-size:9.0px;stroke:none;">ASGF</text>
   <text y="437.44" x="177.489,180.329" svgx:width="0.48,0.48" style="fill:rgb(0,0,0);font-family:MinionPro-Regular;font-size:5.85px;stroke:none;">40</text>
   <text y="440.5" x="183.169,185.27,187.281,190.255,195.192,199.993,203.912,207.831,212.632,214.644,218.616,221.969,223.98,227.296,232.115,236.611,242.851,247.824,249.835,252.296,257.269,259.279,264.09,266.55,270.839,272.94,274.951,279.32,285.355,287.455,289.467,292.315,297.134,301.009,303.019,306.327,311.172,315.092,318.948,321.409,326.273,330.129,332.14,336.023,339.853,344.663,348.663,352.519,354.873,357.711,360.173,364.046,367.399,369.41,373.941,376.654,378.665,381.514,386.333,390.207,392.218,398.46,402.774,409.259,414.069,416.08,419.918,422.244,426.164,430.083,432.922,436.193,440.913,445.714,449.589,452.94,454.952,458.871,462.142,466.016,468.028,475.277,480.105,483.907,488.762,490.774,495.628,498.09,502.414,507.233,511.107,514.495,516.506,519.355,524.183,528.102,533.075,535.085,537.934,542.753,547.392,550.816,554.641" svgx:width="0.23,0.23,0.34,0.55,0.53,0.43,0.43,0.53,0.23,0.44,0.37,0.23,0.37,0.53,0.51,0.69,0.55,0.23,0.27,0.55,0.23,0.53,0.27,0.47,0.23,0.23,0.48,0.67,0.23,0.23,0.31,0.53,0.43,0.23,0.37,0.52,0.43,0.42,0.27,0.54,0.42,0.23,0.42,0.44,0.52,0.44,0.42,0.27,0.31,0.27,0.43,0.37,0.23,0.51,0.3,0.23,0.31,0.53,0.43,0.23,0.69,0.47,0.71,0.53,0.23,0.43,0.25,0.43,0.42,0.31,0.37,0.51,0.53,0.43,0.37,0.23,0.44,0.37,0.43,0.23,0.82,0.53,0.42,0.53,0.23,0.53,0.27,0.47,0.53,0.43,0.37,0.23,0.31,0.53,0.44,0.55,0.23,0.31,0.53,0.51,0.37,0.43,0.23" style="fill:rgb(0,0,0);font-family:MinionPro-Regular;font-size:9.0px;stroke:none;">. Indeed as shown in Fig. 5C, the specific capacities of the ASGF electrodes are much higher than those </text>
   <text y="450.499" x="155.638,160.12,162.784,164.638,167.437,172.207,176.032,177.886,182.152,188.587,193.348,195.202,198.991,201.268,205.137,209.007,211.797,215.019,219.69,224.442,228.267,231.57,233.424,237.204,239.949,241.803,244.602,249.372,253.197,255.051,259.857,262.269,266.543,271.349,273.203,276.461,281.258,285.128,288.935,291.347,296.162,299.969,301.823,305.693,310.472,313.865,317.087,320.912,325.663,328.408,330.46,332.314,336.238,339.541,341.395,344.662,349.432,353.878,360.07,364.993,366.847,369.259,374.182,376.036,380.797,383.209,387.448,389.5,391.353,395.673,401.892,403.944,409.082,411.134,412.988,415.787,420.557,424.382,426.236,432.428,436.694,443.129,447.89,449.744,453.533,455.81,459.68,463.55,466.34,469.561,474.232,478.984,482.809,486.112,487.966,492.745,496.534,500.629,504.454,506.308,510.961,514.786,517.441,520.131,523.956,527.295,529.149,533.1,537.159,540.912,543.189,545.601,550.452,554.664" svgx:width="0.51,0.3,0.23,0.31,0.53,0.43,0.23,0.47,0.71,0.53,0.23,0.43,0.25,0.43,0.42,0.31,0.37,0.51,0.53,0.43,0.37,0.23,0.44,0.31,0.23,0.31,0.53,0.43,0.23,0.53,0.27,0.47,0.53,0.23,0.37,0.52,0.43,0.42,0.27,0.54,0.42,0.23,0.42,0.53,0.37,0.37,0.43,0.55,0.31,0.23,0.23,0.44,0.37,0.23,0.37,0.53,0.51,0.69,0.55,0.23,0.27,0.55,0.23,0.53,0.27,0.47,0.23,0.23,0.48,0.69,0.23,0.59,0.23,0.23,0.31,0.53,0.43,0.23,0.69,0.47,0.71,0.53,0.23,0.43,0.25,0.43,0.42,0.31,0.37,0.51,0.53,0.43,0.37,0.23,0.53,0.44,0.46,0.43,0.23,0.51,0.43,0.31,0.31,0.43,0.37,0.23,0.42,0.46,0.42,0.25,0.27,0.55,0.47,0.23" style="fill:rgb(0,0,0);font-family:MinionPro-Regular;font-size:9.0px;stroke:none;">of the SGF electrodes at the high specific current; as shown in Fig. 5A,B, the ASGF electrodes have better cycling </text>
   <text y="460.498" x="155.638,158.896,161.695,165.574,170.038,172.495,174.772,177.076,179.847,183.978,185.814,188.613,193.392,197.262,202.185,204.021,206.82,211.59,215.415,217.251,221.517,227.952,232.713,234.549,239.032,243.918,247.743,251.046" svgx:width="0.37,0.31,0.44,0.51,0.27,0.25,0.27,0.31,0.46,0.23,0.31,0.53,0.44,0.55,0.23,0.31,0.53,0.43,0.23,0.47,0.71,0.53,0.23,0.51,0.55,0.43,0.37,0.23" style="fill:rgb(0,0,0);font-family:MinionPro-Regular;font-size:9.0px;stroke:none;">stability than the SGF ones.</text>
   <text y="470.497" x="167.635,170.583,175.533,177.495,180.777,185.583,192.981,200.348,204.241,207.865,211.362,213.441,215.403,221.52,225.372,227.334,232.136,235.949,240.068,243.92,245.882,249.163,253.969,257.803,261.637,265.489,268.771,272.097,274.839,279.687,282.031,284.269,288.427,290.389,295.021,298.266,302.118,306.903,310.796,314.041,317.935,322.714,324.676,327.498,332.292,336.144,338.106,342.341,347.291" svgx:width="0.34,0.55,0.23,0.37,0.53,0.82,0.82,0.44,0.37,0.46,0.23,0.23,0.69,0.43,0.23,0.53,0.44,0.46,0.43,0.23,0.37,0.53,0.42,0.42,0.43,0.37,0.37,0.3,0.53,0.25,0.25,0.46,0.23,0.52,0.37,0.43,0.52,0.44,0.37,0.43,0.53,0.23,0.31,0.53,0.43,0.23,0.47,0.55,0.75" style="fill:rgb(0,0,0);font-family:MinionPro-Regular;font-size:9.0px;stroke:none;">In summary, we have successfully prepared the SnO</text>
   <text y="472.3" x="354.006" svgx:width="0.48" style="fill:rgb(0,0,0);font-family:MinionPro-Regular;font-size:5.85px;stroke:none;">2</text>
   <text y="470.5" x="356.829,359.835,366.297,370.59,372.552,375.158,379.817,383.71,391.108,393.07,397.522,401.68" svgx:width="0.33,0.71,0.47,0.23,0.3,0.51,0.44,0.82,0.23,0.51,0.46,0.23" style="fill:rgb(0,0,0);font-family:MinionPro-Regular;font-size:9.0px;stroke:none;">/GS foam by </text>
   <text y="470.5" x="403.642,406.006,410.817,412.797,415.764,418.122,420.827" svgx:width="0.27,0.53,0.23,0.34,0.27,0.31,0.53" style="fill:rgb(0,0,0);font-family:MinionPro-It;font-size:9.0px;stroke:none;">in situ</text>
   <text y="470.5" x="425.634,427.596,430.993,434.807,437.106,439.797,443.028,446.976,450.257,453.655,457.507,464.812,469.344,471.582,475.74,477.702,482.207,484.898,486.86,491.14,494.506,498.31,502.986,507.781,511.633,516.543,520.395,522.357,526.988,530.234,534.086,538.87,542.764,546.01,549.903,554.654" svgx:width="0.23,0.37,0.43,0.25,0.3,0.36,0.44,0.37,0.37,0.43,0.82,0.51,0.25,0.46,0.23,0.51,0.3,0.23,0.47,0.37,0.44,0.52,0.53,0.43,0.55,0.43,0.23,0.52,0.37,0.43,0.52,0.44,0.37,0.43,0.53,0.23" style="fill:rgb(0,0,0);font-family:MinionPro-Regular;font-size:9.0px;stroke:none;"> self-assembly of graphene prepared </text>
   <text y="480.499" x="155.634,160.04,164.153,165.868,169.801,171.515,178.868,181.304,183.558,188.292,190.011,193.742,198.49,202.297,209.65,212.04,215.852,219.826,222.085,223.8,227.0,230.849,235.471,240.228,244.076,246.844,249.238,253.698,258.603,260.637,262.351,268.558,273.346,275.74,279.471,284.255,285.974,288.337,291.618,293.337,296.573,301.33,303.612,306.389,310.247,314.734,316.993,320.796,322.515,325.075,329.536,332.857,334.571,341.894,345.796,349.032,352.317,354.032,358.618,361.819,366.468,371.09,375.851,379.699,382.467,384.857,389.317,394.222,396.256,397.971,404.141,409.304,413.111,416.432,418.146,421.994,426.899,431.764,435.621,439.596,441.855,444.249,449.078,453.268,454.982,457.751,460.951,464.809,468.567,471.334,478.648,482.455,487.185,489.912,491.627,495.385,498.112,499.827,504.129,508.431,512.619,513.726,516.795,522.762,524.791,526.51,530.7,535.605,538.791,544.758,547.944,554.667" svgx:width="0.51,0.46,0.23,0.44,0.23,0.82,0.27,0.25,0.53,0.23,0.42,0.53,0.43,0.82,0.27,0.42,0.44,0.25,0.23,0.37,0.43,0.53,0.53,0.42,0.31,0.27,0.51,0.55,0.23,0.23,0.69,0.53,0.27,0.42,0.53,0.23,0.27,0.37,0.23,0.37,0.53,0.27,0.31,0.44,0.51,0.25,0.43,0.23,0.3,0.51,0.37,0.23,0.82,0.44,0.37,0.37,0.23,0.52,0.37,0.51,0.53,0.53,0.42,0.31,0.27,0.51,0.55,0.23,0.23,0.69,0.58,0.43,0.37,0.23,0.44,0.55,0.55,0.43,0.44,0.25,0.27,0.55,0.47,0.23,0.31,0.37,0.43,0.44,0.31,0.82,0.43,0.55,0.31,0.23,0.44,0.31,0.23,0.48,0.48,0.48,0.23,0.34,0.67,0.23,0.23,0.47,0.55,0.36,0.67,0.36,0.75,0.23" style="fill:rgb(0,0,0);font-family:MinionPro-Regular;font-size:9.0px;stroke:none;">by a mild chemical reduction, which is suitable for mass production. After annealing treatment at 550 °C, Sn-C-O </text>
   <text y="490.498" x="155.643,160.407,165.0,169.998,174.835,178.246,180.473,183.168,187.76,191.265,198.744,200.972,205.735,209.668,212.551,218.755,222.736,226.669,231.7,233.928,238.25,243.281" svgx:width="0.51,0.51,0.55,0.53,0.37,0.23,0.3,0.51,0.37,0.82,0.23,0.51,0.43,0.31,0.69,0.43,0.43,0.55,0.23,0.47,0.55,0.75" style="fill:rgb(0,0,0);font-family:MinionPro-Regular;font-size:9.0px;stroke:none;">bonds form between SnO</text>
   <text y="492.3" x="250.128" svgx:width="0.48" style="fill:rgb(0,0,0);font-family:MinionPro-Regular;font-size:5.85px;stroke:none;">2</text>
   <text y="490.5" x="253.008,255.236,260.242,264.224,269.223,273.824,278.696,282.677,286.217,289.119,291.639,295.503,297.888,301.821,305.232,307.459,311.44,316.438,321.298,323.526,330.069,334.443,336.603,338.83,348.544,352.477,354.705,358.739,362.15,365.462,369.444,374.475,379.473,383.463,387.57,389.955,393.936,398.796,401.023,403.718,408.463,412.445,419.855,423.266,425.493,429.426,433.782,438.696,441.183,445.759,448.173,451.026,453.254,456.622,461.405,466.313,470.246,473.75,476.27,480.863,484.31,486.538,489.985,493.876,496.678,500.611,502.838,506.783,510.674,515.546,519.536,524.112,526.679,529.064,531.48,534.363,538.602,540.829,544.81,549.809,554.561" svgx:width="0.23,0.55,0.44,0.55,0.51,0.52,0.44,0.37,0.31,0.27,0.42,0.25,0.43,0.37,0.23,0.44,0.55,0.53,0.23,0.71,0.47,0.23,0.23,1.07,0.43,0.23,0.44,0.37,0.36,0.44,0.55,0.55,0.43,0.44,0.25,0.43,0.53,0.23,0.3,0.51,0.44,0.82,0.37,0.23,0.43,0.47,0.53,0.27,0.51,0.27,0.31,0.23,0.37,0.53,0.52,0.43,0.37,0.27,0.51,0.37,0.23,0.37,0.44,0.31,0.43,0.23,0.42,0.44,0.52,0.44,0.51,0.27,0.25,0.27,0.31,0.46,0.23,0.44,0.55,0.53,0.23" style="fill:rgb(0,0,0);font-family:MinionPro-Regular;font-size:9.0px;stroke:none;"> nanoparticles and GS. The as-annealed foams exhibit superior rate capability and </text>
   <text y="500.499" x="155.637,159.459,163.227,167.975,171.917,175.715,178.008,180.767,184.889,186.612,189.823,193.639,196.317,200.133,204.872,207.65,210.053,214.522,219.436,221.164,223.567,228.481,230.209,234.007,238.478,245.665,250.413,254.272,257.652,260.024,263.387,267.857,272.771,274.499,277.178,281.759,283.487,286.274,291.031,294.847,296.571,299.916,303.773,310.962,315.602,317.87,321.686,324.98,326.708,332.888,335.18,337.966,342.724,347.203,351.861,354.597,356.325,360.184,365.098,369.973,373.839,377.823,380.091,382.494,387.332,391.559,393.602,395.325,398.112,402.87,406.686,408.414,412.23,416.393,420.191,423.969,426.278,428.546,432.362,437.102,439.838,441.566,445.343,447.611,451.468,455.326,458.103,461.313,465.972,469.712,474.47,478.286,485.648,488.051,491.873,495.856,498.124,499.852,504.637,508.453,511.833,514.404,518.874,522.254,529.586,533.444,538.318,542.116,545.932,547.66,552.13,554.794" svgx:width="0.42,0.44,0.52,0.44,0.42,0.27,0.31,0.46,0.23,0.37,0.43,0.31,0.43,0.55,0.31,0.27,0.51,0.55,0.23,0.27,0.55,0.23,0.42,0.51,0.82,0.52,0.44,0.37,0.27,0.37,0.51,0.55,0.23,0.31,0.51,0.23,0.31,0.53,0.43,0.23,0.37,0.44,0.82,0.52,0.25,0.43,0.37,0.23,0.69,0.27,0.31,0.53,0.51,0.53,0.31,0.23,0.44,0.55,0.55,0.43,0.44,0.25,0.27,0.55,0.47,0.23,0.23,0.31,0.53,0.43,0.23,0.43,0.47,0.42,0.43,0.25,0.25,0.43,0.55,0.31,0.23,0.43,0.25,0.43,0.42,0.31,0.37,0.51,0.42,0.53,0.43,0.82,0.27,0.42,0.44,0.25,0.23,0.52,0.43,0.37,0.3,0.51,0.37,0.82,0.44,0.55,0.42,0.43,0.23,0.51,0.3,0.23" style="fill:rgb(0,0,0);font-family:MinionPro-Regular;font-size:9.0px;stroke:none;">capacity retention in comparison to the samples without annealing, the excellent electrochemical performance of </text>
   <text y="510.498" x="155.637,158.411,163.156,166.954,168.664,172.509,177.405,182.266,186.119,190.09,192.34,196.184,200.909,202.619,206.806,211.702" svgx:width="0.31,0.53,0.43,0.23,0.44,0.55,0.55,0.43,0.44,0.25,0.43,0.53,0.23,0.47,0.55,0.75" style="fill:rgb(0,0,0);font-family:MinionPro-Regular;font-size:9.0px;stroke:none;">the annealed SnO</text>
   <text y="512.3" x="218.411" svgx:width="0.48" style="fill:rgb(0,0,0);font-family:MinionPro-Regular;font-size:5.85px;stroke:none;">2</text>
   <text y="510.5" x="221.202,224.154,228.386,231.698,235.453,240.081,244.825,248.623,253.485,257.283,258.993,261.551,266.16,270.005,277.349,279.059,282.903,286.271,288.631,291.981,295.779,299.055,300.765,303.494,306.69,311.146,318.49,320.2,322.974,327.719,331.517,333.227,335.785,340.286,342.583,344.833,349.254,355.421,357.806,362.632,366.817,368.527,371.3,376.079,379.276,383.12,386.918,388.628,392.527,395.76,400.532,404.376,408.22,410.938,414.214,416.239,417.949,421.036,425.329,428.416,430.126,432.9,437.645,441.443,443.153,447.446,454.034,455.744,462.152,466.391,468.101,470.829,474.141,477.986,485.295,489.167,495.234,499.692,502.969,507.406,510.682,512.392,518.558,520.837,523.611,528.39,530.1,537.444,539.829,543.609,546.806,551.369" svgx:width="0.33,0.47,0.37,0.44,0.52,0.53,0.43,0.55,0.43,0.23,0.3,0.51,0.44,0.82,0.23,0.44,0.37,0.27,0.37,0.43,0.37,0.23,0.3,0.37,0.51,0.82,0.23,0.31,0.53,0.43,0.23,0.3,0.51,0.25,0.25,0.51,0.69,0.27,0.55,0.47,0.23,0.31,0.53,0.37,0.43,0.43,0.23,0.44,0.37,0.52,0.43,0.42,0.31,0.37,0.23,0.23,0.35,0.48,0.35,0.23,0.31,0.53,0.43,0.23,0.48,0.74,0.23,0.71,0.47,0.23,0.3,0.37,0.44,0.82,0.43,0.69,0.51,0.37,0.5,0.37,0.23,0.69,0.27,0.31,0.53,0.23,0.82,0.27,0.42,0.37,0.51,0.36" style="fill:rgb(0,0,0);font-family:MinionPro-Regular;font-size:9.0px;stroke:none;">/graphene foam arises from the following three aspects: (1) the 3D GS frameworks with micro-</text>
   <text y="520.499" x="155.637,160.434,164.916,168.138,172.629,177.381,180.684,182.471,186.341,191.228,195.98,197.766,205.101,208.926,212.301,216.792,221.589,226.071,229.293,233.784,238.536,241.839,243.626,246.884,249.674,253.103,257.882,261.751,264.407,269.186,272.407,276.232,279.535,281.321,284.12,288.899,292.679,295.424,297.215,299.879,303.83,307.637,310.093,312.37,314.674,317.473,321.253,323.944,327.769,329.556,332.355,337.125,340.95,342.736,345.148,349.63,354.553,356.34,360.21,365.097,369.849,371.64,375.429,377.706,381.575,385.445,388.235,391.457,395.939,400.862,402.648,405.438,408.777,412.647,417.498,420.756,425.553,430.035,433.464,436.209,437.996,440.795,445.601,448.823,453.314,458.093,462.368,467.137,471.628,476.299,479.044,480.835,483.634,488.404,492.229,494.015,497.804,500.081,503.95,507.82,510.61,513.832,518.503,523.255,527.081,529.133,530.919,534.033,538.353,541.467,543.254,546.053,550.823,554.648" svgx:width="0.52,0.51,0.37,0.51,0.53,0.37,0.23,0.44,0.55,0.53,0.23,0.82,0.43,0.37,0.51,0.52,0.51,0.37,0.51,0.53,0.37,0.23,0.37,0.31,0.37,0.53,0.42,0.31,0.53,0.37,0.43,0.37,0.23,0.31,0.53,0.44,0.31,0.23,0.3,0.44,0.42,0.27,0.25,0.27,0.31,0.44,0.31,0.43,0.23,0.31,0.53,0.43,0.23,0.27,0.51,0.55,0.23,0.44,0.55,0.53,0.23,0.43,0.25,0.43,0.42,0.31,0.37,0.51,0.55,0.23,0.31,0.37,0.44,0.55,0.37,0.52,0.51,0.37,0.31,0.23,0.31,0.53,0.37,0.51,0.53,0.47,0.53,0.51,0.53,0.31,0.23,0.31,0.53,0.43,0.23,0.43,0.25,0.43,0.42,0.31,0.37,0.51,0.53,0.43,0.23,0.23,0.35,0.48,0.35,0.23,0.31,0.53,0.43,0.23" style="fill:rgb(0,0,0);font-family:MinionPro-Regular;font-size:9.0px;stroke:none;">porous and mesoporous structures that facilitate the ion and electron transport throughout the electrode; (2) the </text>
   <text y="530.498" x="155.637,160.304,164.61,169.142,172.602,175.081,179.905,181.979,185.305,188.161,191.658,196.504,200.442,203.164,208.01,211.299,215.192,217.266,221.816,224.547,226.622,229.488,234.326,238.218,240.293,244.572,249.563" svgx:width="0.53,0.46,0.51,0.37,0.27,0.53,0.23,0.37,0.31,0.37,0.53,0.42,0.31,0.53,0.37,0.43,0.23,0.51,0.3,0.23,0.31,0.53,0.43,0.23,0.47,0.55,0.75" style="fill:rgb(0,0,0);font-family:MinionPro-Regular;font-size:9.0px;stroke:none;">hybrid structure of the SnO</text>
   <text y="532.3" x="256.35" svgx:width="0.48" style="fill:rgb(0,0,0);font-family:MinionPro-Regular;font-size:5.85px;stroke:none;">2</text>
   <text y="530.5" x="259.202,261.276,266.24,270.177,275.132,279.69,284.519,288.456,291.953,294.809,297.289,301.109,303.454,307.346,310.717,312.791,317.341,322.331,324.406,327.272,332.11,336.002,338.077,341.402,346.249,349.708,352.44,356.458,360.333,364.225,366.3,370.85,373.581,375.656,378.522,383.36,387.252,389.327,395.829,400.163,402.237,405.103,409.95,413.798,416.609,418.684,421.163,428.431,433.106,436.396,440.909,445.072,448.964,452.335,454.409,457.276,462.113,466.005,468.084,470.842,475.437,477.78,481.673,485.079,489.017,493.971,497.846,501.739,503.813,506.572,511.229,513.304,517.124,521.971,525.908,530.827,535.034,538.927,541.001,544.939,549.893,554.645" svgx:width="0.23,0.55,0.44,0.55,0.51,0.52,0.44,0.37,0.31,0.27,0.42,0.25,0.43,0.37,0.23,0.51,0.55,0.23,0.31,0.53,0.43,0.23,0.37,0.53,0.37,0.3,0.44,0.42,0.43,0.23,0.51,0.3,0.23,0.31,0.53,0.43,0.23,0.71,0.47,0.23,0.31,0.53,0.44,0.31,0.23,0.27,0.82,0.52,0.37,0.51,0.46,0.43,0.37,0.23,0.31,0.53,0.43,0.23,0.31,0.51,0.25,0.43,0.37,0.44,0.55,0.42,0.43,0.23,0.31,0.51,0.23,0.42,0.53,0.44,0.55,0.47,0.43,0.23,0.44,0.55,0.53,0.23" style="fill:rgb(0,0,0);font-family:MinionPro-Regular;font-size:9.0px;stroke:none;"> nanoparticles on the surface of the GS that improves the tolerance to change and </text>
   <text y="540.499" x="155.639,159.596,161.88,164.121,167.979,172.135,174.536,178.277,180.929,184.718,187.985,189.686,192.447,197.179,200.968,202.669,206.537,210.764,215.001,217.242,221.685,228.981,232.77,236.073,239.815,242.567,244.943,249.386,254.273,255.974,259.805,264.654,269.37,271.071,275.649,280.434,282.61,286.667,290.456,293.811,296.187,299.931,303.672,306.424,308.8,313.244,318.131,320.147,321.848,325.68,330.528,335.244,336.945,340.023,344.307,347.385,349.086,351.847,356.579,360.368,362.069,364.614,369.057,372.412,379.718,383.459,386.21,388.586,393.03,397.917,399.618,404.062,406.69,408.391,412.564,417.451,420.619,427.306,430.474,436.423,438.124,442.738,447.182,452.031,456.717,459.984,461.685,465.516,470.365,475.081,476.782,479.542,484.273,488.062,489.763,492.948,496.737,504.033,508.441,512.572,516.529,518.77,520.471,524.915,527.543,529.244,533.652,537.864,541.959,546.061,549.85,554.773" svgx:width="0.44,0.25,0.25,0.43,0.46,0.27,0.44,0.31,0.43,0.37,0.23,0.31,0.53,0.43,0.23,0.44,0.47,0.47,0.25,0.51,0.82,0.43,0.37,0.44,0.31,0.27,0.51,0.55,0.23,0.44,0.55,0.53,0.23,0.52,0.53,0.25,0.46,0.43,0.37,0.27,0.42,0.44,0.31,0.27,0.51,0.55,0.23,0.23,0.44,0.55,0.53,0.23,0.35,0.48,0.35,0.23,0.31,0.53,0.43,0.23,0.3,0.51,0.37,0.82,0.44,0.31,0.27,0.51,0.55,0.23,0.51,0.3,0.23,0.47,0.55,0.36,0.75,0.36,0.67,0.23,0.51,0.51,0.55,0.53,0.37,0.23,0.44,0.55,0.53,0.23,0.31,0.53,0.43,0.23,0.37,0.43,0.82,0.51,0.46,0.44,0.25,0.23,0.51,0.3,0.23,0.51,0.47,0.46,0.47,0.43,0.55,0.23" style="fill:rgb(0,0,0);font-family:MinionPro-Regular;font-size:9.0px;stroke:none;">alleviates the agglomeration and pulverization; and (3) the formation of Sn-O-C bonds and the removal of oxygen </text>
   <text y="550.498" x="155.639,159.454,163.947,168.711,171.522,175.403,177.824,182.756,185.177,190.039,194.26,196.213,198.943,203.731,208.629,212.51,215.311,217.732,222.226,227.133,231.14,233.426,235.379,239.647,242.881,247.384,252.065,256.79,260.102,262.055,266.71,271.498,274.902,277.323,282.186,286.407,288.36,291.17,295.952,299.786,301.739,305.621,310.553,315.451,319.341,323.349,325.635,328.056,332.918,337.139,339.092,341.903,346.692,350.484,353.238,355.191,357.864,361.824,365.64,368.108,370.394,372.709,375.519,379.311,382.013,385.847,389.159,391.112,394.912,397.198,401.079,404.96,407.761,410.995,415.488,420.42,422.373,425.175,428.523,432.405,437.268,440.58,443.173,447.007,450.355,452.308,456.19,461.089,465.85,467.803,470.224,477.435,482.055,485.288,489.746,493.851,497.685,500.997,502.951,505.237,509.729,514.592,518.813,522.026,524.729,528.563,531.968,539.348,541.301,544.57,547.381,551.341" svgx:width="0.42,0.51,0.55,0.31,0.44,0.27,0.55,0.27,0.55,0.47,0.23,0.3,0.53,0.55,0.42,0.31,0.27,0.51,0.55,0.44,0.25,0.23,0.47,0.37,0.51,0.53,0.52,0.37,0.23,0.53,0.53,0.37,0.27,0.55,0.47,0.23,0.31,0.53,0.43,0.23,0.44,0.55,0.55,0.43,0.44,0.25,0.27,0.55,0.47,0.23,0.31,0.53,0.44,0.31,0.23,0.3,0.44,0.42,0.27,0.25,0.27,0.31,0.44,0.31,0.43,0.37,0.23,0.43,0.25,0.43,0.42,0.31,0.37,0.51,0.55,0.23,0.31,0.37,0.44,0.55,0.37,0.3,0.43,0.37,0.23,0.44,0.55,0.53,0.23,0.27,0.82,0.52,0.37,0.51,0.46,0.43,0.37,0.23,0.25,0.51,0.55,0.47,0.36,0.31,0.43,0.37,0.82,0.23,0.37,0.31,0.44,0.36" style="fill:rgb(0,0,0);font-family:MinionPro-Regular;font-size:9.0px;stroke:none;">containing functional groups during the annealing that facilitates electron transfer and improves long-term sta-</text>
   <text y="560.497" x="155.639,160.112,162.579,164.865,167.179,169.961,173.445,175.506,177.459,187.107,189.502,192.814,194.767,200.87,205.362,208.675,213.148,215.101,218.945,222.824,227.756,229.709,234.371,238.205,240.158,243.543,247.387,251.393,253.679,257.558,262.319,264.272,268.952,273.677,275.63,278.33,282.929,284.882,289.5,292.732,296.566,301.337,305.217,308.449,312.283,314.236,318.412,322.292,325.694,328.115,332.616,337.378,340.69,342.643,349.988,353.822,356.631,360.636,362.922,364.875,369.331,373.588,376.009,380.77,384.604,386.557,391.463,395.343,400.24,404.741,409.511,413.391,416.83,419.63,422.051,425.814,428.1,431.934,435.246,438.234,444.678,448.953,450.906,454.722,459.214,466.423,471.23,475.829,479.141,481.455,484.155,487.989,491.301,493.254,495.847,500.338,503.686,505.639,509.599,511.552,516.026,519.258,523.903,527.863,532.624,534.577,537.925,541.805,546.665,550.815,554.639" svgx:width="0.51,0.27,0.25,0.27,0.31,0.46,0.23,0.23,1.07,0.27,0.37,0.23,0.69,0.51,0.37,0.5,0.23,0.42,0.44,0.55,0.23,0.51,0.43,0.23,0.37,0.42,0.44,0.25,0.43,0.53,0.23,0.53,0.52,0.23,0.31,0.51,0.23,0.52,0.37,0.43,0.52,0.44,0.37,0.43,0.23,0.46,0.44,0.37,0.27,0.51,0.53,0.37,0.23,0.82,0.43,0.31,0.44,0.25,0.23,0.51,0.47,0.27,0.53,0.43,0.23,0.55,0.44,0.55,0.51,0.52,0.44,0.37,0.31,0.27,0.42,0.25,0.43,0.37,0.33,0.71,0.47,0.23,0.42,0.51,0.82,0.52,0.51,0.37,0.27,0.31,0.43,0.37,0.23,0.3,0.51,0.37,0.23,0.44,0.23,0.51,0.37,0.51,0.44,0.53,0.23,0.37,0.44,0.55,0.47,0.43,0.23" style="fill:rgb(0,0,0);font-family:MinionPro-Regular;font-size:9.0px;stroke:none;">bility. This work can be scaled up to prepare various metal oxide nanoparticles/GS composites for a broad range </text>
   <text y="570.496" x="155.639,160.12,162.785,164.62,168.4,173.018,177.671,179.947,182.359,186.193,189.973,192.763,195.175,199.657,204.508,207.811,209.647,212.905,217.684,221.437,226.243,228.079,232.003,235.306,237.142,241.759,245.539,248.194,250.885,254.71,258.103,260.515,264.34,267.643,269.695,271.531,274.789,279.46,284.257,288.082,291.304,295.138,298.917,303.678,307.629,311.436,313.74,316.431,320.913,324.198,327.501,329.553,331.389,335.223,339.002,341.801,345.797,348.011,352.142,355.4,358.145,361.448,363.5,365.336,369.206,374.093,378.845,380.681,384.056,388.646,390.482,394.963,399.886" svgx:width="0.51,0.3,0.23,0.44,0.52,0.52,0.25,0.27,0.42,0.44,0.31,0.27,0.51,0.55,0.37,0.23,0.37,0.53,0.42,0.53,0.23,0.44,0.37,0.23,0.51,0.44,0.31,0.31,0.43,0.37,0.27,0.43,0.37,0.23,0.23,0.37,0.53,0.52,0.43,0.37,0.42,0.44,0.52,0.44,0.42,0.27,0.31,0.51,0.37,0.37,0.23,0.23,0.42,0.44,0.31,0.44,0.25,0.46,0.37,0.31,0.37,0.23,0.23,0.44,0.55,0.53,0.23,0.37,0.51,0.23,0.51,0.55,0.23" style="fill:rgb(0,0,0);font-family:MinionPro-Regular;font-size:9.0px;stroke:none;">of applications such as batteries, supercapacitors, catalysts, and so on.</text>
   <text y="589.221" x="155.638,164.724,170.367,174.536,180.696,186.79,192.928" svgx:width="0.83,0.51,0.38,0.56,0.55,0.56,0.42" style="fill:rgb(0,0,0);font-family:Corbel-Bold;font-size:11.0px;stroke:none;">Methods</text>
   <text y="599.221" x="155.638,161.628,165.108,170.218,175.698,180.828,184.308,189.438,193.215,195.685,201.205,206.735,208.469,213.989,217.249,218.739,224.489,230.019" svgx:width="0.6,0.35,0.51,0.55,0.51,0.35,0.51,0.38,0.25,0.55,0.56,0.21,0.55,0.33,0.21,0.58,0.56,0.73" style="fill:rgb(0,0,0);font-family:Corbel-Bold;font-size:10.0px;stroke:none;">Preparation of SnO</text>
   <text y="601.221" x="237.343" svgx:width="0.53" style="fill:rgb(0,0,0);font-family:Corbel-Bold;font-size:6.5px;stroke:none;">2</text>
   <text y="599.221" x="240.759,242.493,248.023,253.153,258.683,264.203,269.683,274.813,278.293,282.069,284.539,288.929,291.436,296.546,298.28,302.5,307.93,312.15,317.63,322.74,328.27,332.49,334.96,340.48,346.01,348.919" svgx:width="0.21,0.56,0.51,0.56,0.55,0.55,0.51,0.35,0.38,0.25,0.44,0.25,0.51,0.21,0.42,0.55,0.42,0.55,0.51,0.56,0.42,0.25,0.55,0.56,0.29,0.21" style="fill:rgb(0,0,0);font-family:Corbel-Bold;font-size:10.0px;stroke:none;"> nanoparticle suspension. </text>
   <text y="599.221" x="358.897,368.483,372.29,374.009,378.761,383.226,390.544,395.116,399.238,403.045,407.915,411.767,416.241,420.975,424.26,425.979,430.858,434.711,439.58,444.152,447.338,450.623,453.017,456.779,460.586,462.305,466.5,471.405" svgx:width="1.07,0.43,0.23,0.53,0.51,0.82,0.51,0.47,0.43,0.55,0.43,0.51,0.53,0.37,0.23,0.55,0.44,0.55,0.51,0.36,0.37,0.27,0.42,0.43,0.23,0.47,0.55,0.75" style="fill:rgb(0,0,0);font-family:MinionPro-Regular;font-size:9.0px;stroke:none;">The homogeneous nano-size SnO</text>
   <text y="601.021" x="478.12" svgx:width="0.48" style="fill:rgb(0,0,0);font-family:MinionPro-Regular;font-size:5.85px;stroke:none;">2</text>
   <text y="599.221" x="480.916,482.635,485.876,490.611,493.851,498.631,502.438,507.272,510.557,512.951,517.416,522.321,524.04,530.187,534.094,537.379,539.098,542.383,546.523,551.428" svgx:width="0.23,0.37,0.53,0.37,0.52,0.43,0.55,0.37,0.27,0.51,0.55,0.23,0.69,0.44,0.37,0.23,0.37,0.46,0.55,0.36" style="fill:rgb(0,0,0);font-family:MinionPro-Regular;font-size:9.0px;stroke:none;"> suspension was syn-</text>
   <text y="609.22" x="155.638,158.452,163.235,167.078,170.395,172.825,176.623,180.506,185.276,187.229,191.672,195.816,197.769,202.383,206.456,211.226,214.462,218.967,221.78,226.564,230.407,233.813,241.172,245.182,247.473,249.426,256.775,260.618,263.431,268.215,272.899" svgx:width="0.31,0.53,0.43,0.37,0.27,0.42,0.43,0.53,0.23,0.51,0.46,0.23,0.53,0.46,0.53,0.37,0.51,0.31,0.53,0.43,0.37,0.82,0.44,0.25,0.23,0.82,0.43,0.31,0.53,0.51,0.53" style="fill:rgb(0,0,0);font-family:MinionPro-Regular;font-size:9.0px;stroke:none;">thesized by hydrothermal method</text>
   <text y="606.161" x="277.645,280.465" svgx:width="0.48,0.48" style="fill:rgb(0,0,0);font-family:MinionPro-Regular;font-size:5.85px;stroke:none;">13</text>
   <text y="609.221" x="283.28,285.35,287.303,291.636,293.706,298.044,299.174,303.404,305.357,309.582,314.523,320.568" svgx:width="0.23,0.23,0.48,0.23,0.48,0.23,0.47,0.23,0.47,0.55,0.67,0.25" style="fill:rgb(0,0,0);font-family:MinionPro-Regular;font-size:9.0px;stroke:none;">. 2.0 g SnCl</text>
   <text y="611.021" x="322.853" svgx:width="0.48" style="fill:rgb(0,0,0);font-family:MinionPro-Regular;font-size:5.85px;stroke:none;">4</text>
   <text y="609.221" x="325.67,329.198,333.532" svgx:width="0.39,0.48,0.77" style="fill:rgb(0,0,0);font-family:MinionPro-Regular;font-size:9.0px;stroke:none;">•5H</text>
   <text y="611.021" x="340.437" svgx:width="0.48" style="fill:rgb(0,0,0);font-family:MinionPro-Regular;font-size:5.85px;stroke:none;">2</text>
   <text y="609.221" x="343.254,349.995,351.948,355.075,360.499,362.951,366.835,371.602,373.924,376.349,381.29,383.243,389.099,392.937,396.345,403.693,407.497,409.792,411.745,417.788,422.573,426.411,433.8,436.23,440.078,444.088,446.378,448.331,453.962,457.854,461.775,465.929,469.768,474.534,477.297,479.25,485.384,489.727,491.797,493.862,495.815,500.483,503.188,507.9,509.97,512.04,513.993,520.036,524.86,527.29,532.2,536.169,539.301,541.254,547.432,551.371,554.674" svgx:width="0.75,0.23,0.35,0.62,0.27,0.44,0.55,0.26,0.27,0.55,0.23,0.67,0.43,0.37,0.82,0.43,0.25,0.23,0.67,0.53,0.43,0.82,0.27,0.42,0.44,0.25,0.23,0.62,0.43,0.44,0.47,0.43,0.55,0.31,0.23,0.67,0.51,0.23,0.23,0.23,0.54,0.31,0.53,0.23,0.23,0.23,0.67,0.53,0.27,0.55,0.44,0.35,0.23,0.69,0.44,0.37,0.23" style="fill:rgb(0,0,0);font-family:MinionPro-Regular;font-size:9.0px;stroke:none;">O (Tianjin Kermel Chemical Reagent Co., Ltd., China) was </text>
   <text y="619.22" x="155.64,160.365,162.724,165.955,169.305,173.806,175.995,180.064,183.908,188.633,190.343,192.728,197.624,199.334,203.627,207.92,209.028,216.372,221.187,222.897,227.622,231.42,233.805,238.261,243.157,245.542,249.295,253.138,257.863,259.573,265.711,269.466,272.131,275.929,278.676,280.701,282.411,291.989,295.787,297.497,300.846,304.644,307.273,310.045,312.295,316.139,320.864,322.574,325.924,330.425,332.569,337.214,339.978,342.363,346.819,351.715,353.425,359.563,363.461,366.737,368.447,371.212,374.524,378.369,383.194,386.47,389.028,392.826,396.193,399.389,403.233,407.958,409.668,412.053,416.779,419.445,424.008,425.718,428.464,434.532,439.095,440.805,445.098,449.391,450.534,457.924,460.174,461.884,466.529,470.327,475.097,479.553,484.449,487.626,489.876,492.261,497.123,500.967,505.692,507.402,510.635,513.408,517.252,519.637,524.58,526.83,530.628,533.861,537.137,538.847,542.079,544.745,548.589,552.352,554.628" svgx:width="0.53,0.27,0.37,0.37,0.51,0.25,0.46,0.43,0.53,0.23,0.27,0.55,0.23,0.48,0.48,0.23,0.82,0.54,0.23,0.53,0.43,0.27,0.51,0.55,0.27,0.42,0.43,0.53,0.23,0.69,0.44,0.31,0.43,0.37,0.23,0.23,1.07,0.43,0.23,0.37,0.43,0.31,0.31,0.25,0.43,0.53,0.23,0.37,0.51,0.25,0.53,0.31,0.27,0.51,0.55,0.23,0.69,0.44,0.37,0.23,0.31,0.37,0.44,0.55,0.37,0.3,0.43,0.37,0.37,0.43,0.53,0.23,0.27,0.55,0.31,0.51,0.23,0.31,0.69,0.51,0.23,0.48,0.48,0.23,0.82,0.25,0.23,0.62,0.43,0.53,0.51,0.55,0.36,0.25,0.27,0.55,0.43,0.53,0.23,0.37,0.31,0.44,0.27,0.55,0.25,0.43,0.37,0.37,0.23,0.37,0.31,0.43,0.43,0.25,0.23" style="fill:rgb(0,0,0);font-family:MinionPro-Regular;font-size:9.0px;stroke:none;">dissolved in 80 mL deionized water. The settled solution was transferred into two 50 ml Teflon-lined stainless steel </text>
   <text y="629.219" x="155.64,159.504,164.26,167.036,171.792,175.63,178.018,181.892,186.071,189.977,193.361,195.494,199.449,204.421,209.254,211.387,218.815,222.771,225.264,230.1,232.984,236.938,239.431,244.403,248.359,253.192,255.325,259.19,262.016,264.149,268.55,272.951,277.352,278.607,281.775,287.841,289.974,292.641,297.208,300.628,302.761,307.162,311.563,312.798,317.685,319.818,321.951,328.227,333.496,337.402,340.822,342.955,346.843,351.598,356.21,358.568,361.061,365.997,370.29,372.423,376.378,381.35,386.183,388.316,392.204,396.11,400.946,403.821,407.299,409.792,412.594,417.454,421.747,425.613,428.487,430.98,435.547,440.551,442.684,444.817,447.7,452.555,456.461,458.594,462.482,467.094,469.5,471.858,475.813,479.767,482.543,486.498,491.331,493.464,499.776,504.663,507.053,509.828,513.734,515.867,520.561,523.867,527.822,531.71,534.099,538.791,541.18,544.063,547.929,550.705,554.529" svgx:width="0.44,0.53,0.31,0.51,0.42,0.25,0.44,0.46,0.43,0.37,0.23,0.44,0.55,0.53,0.23,0.82,0.44,0.27,0.55,0.31,0.44,0.27,0.55,0.43,0.53,0.23,0.44,0.31,0.23,0.48,0.48,0.48,0.23,0.34,0.67,0.23,0.3,0.51,0.37,0.23,0.48,0.48,0.23,0.53,0.23,0.23,0.69,0.58,0.43,0.37,0.23,0.42,0.51,0.51,0.25,0.27,0.55,0.47,0.23,0.44,0.55,0.53,0.23,0.42,0.43,0.55,0.31,0.37,0.27,0.3,0.53,0.47,0.44,0.31,0.27,0.51,0.55,0.23,0.23,0.31,0.53,0.43,0.23,0.42,0.51,0.25,0.25,0.43,0.42,0.31,0.43,0.53,0.23,0.69,0.53,0.27,0.31,0.43,0.23,0.52,0.37,0.43,0.42,0.27,0.52,0.27,0.31,0.44,0.31,0.43,0.23" style="fill:rgb(0,0,0);font-family:MinionPro-Regular;font-size:9.0px;stroke:none;">autoclaves and maintained at 160 °C for 18 h. After cooling and centrifugation, the collected white precipitate </text>
   <text y="639.218" x="155.64,158.754,162.966,167.889" svgx:width="0.35,0.47,0.55,0.75" style="fill:rgb(0,0,0);font-family:MinionPro-Regular;font-size:9.0px;stroke:none;">(SnO</text>
   <text y="641.021" x="174.61" svgx:width="0.48" style="fill:rgb(0,0,0);font-family:MinionPro-Regular;font-size:5.85px;stroke:none;">2</text>
   <text y="639.221" x="177.418,179.254,184.15,188.02,192.907,197.398,202.159,206.029,209.458,212.248,214.66,218.412,220.689,224.514,227.817,230.931,232.767,238.932,242.856,246.159,247.995,251.217,255.042,258.246,262.998,265.382,268.64,273.437,277.262,280.547,283.922,287.792,292.544,294.38,296.792,301.715,303.551,307.871,312.191,316.511,317.647,325.063,327.34,329.176,333.001,335.799,340.578,344.448,349.335,353.862,356.139,357.975,360.666,365.256,367.092,369.675,374.157,377.55,384.921,386.757,390.708,392.544,397.314,401.796,409.131,413.721,417.861,421.686,426.573,430.443,434.934,439.686,442.989,444.825,448.083,452.835,456.093,460.889,464.714,469.565,472.868,475.28,479.762,484.685,486.521,491.417,495.287,502.622,506.492,511.244,513.08,517.293,522.216" svgx:width="0.23,0.55,0.44,0.55,0.51,0.52,0.44,0.37,0.31,0.27,0.42,0.25,0.43,0.37,0.35,0.23,0.69,0.44,0.37,0.23,0.37,0.43,0.36,0.53,0.27,0.37,0.52,0.43,0.37,0.37,0.43,0.53,0.23,0.27,0.55,0.23,0.48,0.48,0.48,0.23,0.82,0.25,0.23,0.43,0.31,0.53,0.44,0.55,0.51,0.25,0.23,0.31,0.51,0.23,0.3,0.51,0.37,0.82,0.23,0.44,0.23,0.53,0.51,0.82,0.51,0.47,0.43,0.55,0.43,0.51,0.53,0.37,0.23,0.37,0.53,0.37,0.52,0.43,0.55,0.37,0.27,0.51,0.55,0.23,0.55,0.44,0.82,0.43,0.53,0.23,0.47,0.55,0.75" style="fill:rgb(0,0,0);font-family:MinionPro-Regular;font-size:9.0px;stroke:none;"> nanoparticles) was re-dispersed in 100 ml ethanol to form a homogeneous suspension named SnO</text>
   <text y="641.021" x="528.961" svgx:width="0.48" style="fill:rgb(0,0,0);font-family:MinionPro-Regular;font-size:5.85px;stroke:none;">2</text>
   <text y="639.221" x="531.769,534.973,540.085,544.351" svgx:width="0.36,0.57,0.47,0.23" style="fill:rgb(0,0,0);font-family:MinionPro-Regular;font-size:9.0px;stroke:none;">-ES.</text>
   <text y="657.941" x="155.638,161.498,166.722,172.356,176.236,181.919,187.133,191.458,194.03,198.355,200.514,206.138,209.508,211.666,216.9,222.533,228.167,233.381,238.614,241.224,246.437,252.1,254.015,259.875,265.509" svgx:width="0.58,0.51,0.56,0.38,0.56,0.51,0.42,0.25,0.42,0.21,0.55,0.33,0.21,0.51,0.56,0.56,0.51,0.51,0.25,0.51,0.56,0.21,0.58,0.56,0.73" style="fill:rgb(0,0,0);font-family:Corbel-Bold;font-size:10.0px;stroke:none;">Synthesis of annealed SnO</text>
   <text y="659.941" x="272.936" svgx:width="0.53" style="fill:rgb(0,0,0);font-family:Corbel-Bold;font-size:6.5px;stroke:none;">2</text>
   <text y="657.941" x="276.42,279.45,286.26,292.12,294.279,299.579,305.203,310.437,319.047,322.057" svgx:width="0.29,0.67,0.58,0.21,0.52,0.55,0.51,0.85,0.29,0.21" style="fill:rgb(0,0,0);font-family:Corbel-Bold;font-size:10.0px;stroke:none;">/GS Foam. </text>
   <text y="657.941" x="332.139,338.588,342.013,345.879,350.619,355.475,359.386,364.359,368.274,370.416,374.948,379.286,381.788,386.626,390.541,392.683,395.882,402.407,409.22,412.424,414.566,420.821,424.832,428.225,430.367,435.061,438.37,442.28,447.128,451.084,454.392,458.348,463.19,465.332,469.845,474.066,476.208,480.249,482.391,489.812,494.569,499.411,501.909,506.814,510.77,515.608,517.75,524.379,529.244,536.705,544.126,548.036,551.408,554.711" svgx:width="0.71,0.37,0.44,0.52,0.53,0.43,0.55,0.43,0.23,0.51,0.47,0.27,0.53,0.43,0.23,0.35,0.71,0.75,0.35,0.23,0.69,0.44,0.37,0.23,0.52,0.37,0.43,0.52,0.44,0.37,0.43,0.53,0.23,0.51,0.46,0.23,0.44,0.23,0.82,0.51,0.53,0.27,0.54,0.43,0.53,0.23,0.77,0.53,0.82,0.82,0.43,0.37,0.37,0.23" style="fill:rgb(0,0,0);font-family:MinionPro-Regular;font-size:9.0px;stroke:none;">Graphene oxide (GO) was prepared by a modified Hummers </text>
   <text y="667.94" x="155.64,162.984,166.816,169.622,174.401,179.08" svgx:width="0.82,0.43,0.31,0.53,0.51,0.53" style="fill:rgb(0,0,0);font-family:MinionPro-Regular;font-size:9.0px;stroke:none;">method</text>
   <text y="664.881" x="183.833,186.647" svgx:width="0.48,0.48" style="fill:rgb(0,0,0);font-family:MinionPro-Regular;font-size:5.85px;stroke:none;">53</text>
   <text y="667.941" x="189.458,191.519,193.467,197.796,202.125,203.255,210.678,212.964,214.913,219.132,224.064" svgx:width="0.23,0.23,0.48,0.48,0.23,0.82,0.25,0.23,0.47,0.55,0.75" style="fill:rgb(0,0,0);font-family:MinionPro-Regular;font-size:9.0px;stroke:none;">. 15 ml SnO</text>
   <text y="669.741" x="230.786" svgx:width="0.48" style="fill:rgb(0,0,0);font-family:MinionPro-Regular;font-size:5.85px;stroke:none;">2</text>
   <text y="667.941" x="233.599,236.812,241.933,246.208,248.156,254.33,258.261,261.573,263.521,267.48,272.241,277.002,280.88,285.641,287.589,290.01,294.769,297.468,302.067,304.015,308.344,312.673,313.78,321.203,323.489,325.437,329.701,333.049,336.836,341.497,346.274,350.108,355.002,358.836,360.784,365.237,369.494,371.915,376.676,380.51,382.458,385.581,392.025,398.757,401.88,403.829,408.59,410.982,414.246,419.05,422.884,426.177,429.489,431.91,436.399,441.331,443.278,446.401,450.288,454.947,459.445,464.123,466.877,468.826,473.155,475.216,479.545,480.64,487.946,492.167,494.115,501.538" svgx:width="0.36,0.57,0.47,0.23,0.69,0.44,0.37,0.23,0.44,0.53,0.53,0.43,0.53,0.23,0.27,0.55,0.31,0.51,0.23,0.48,0.48,0.23,0.82,0.25,0.23,0.47,0.37,0.44,0.52,0.53,0.43,0.55,0.43,0.23,0.51,0.47,0.27,0.53,0.43,0.23,0.35,0.71,0.75,0.35,0.23,0.53,0.27,0.37,0.52,0.43,0.37,0.37,0.27,0.51,0.55,0.23,0.35,0.44,0.51,0.51,0.53,0.31,0.23,0.48,0.23,0.48,0.23,0.82,0.47,0.23,0.82,0.25" style="fill:rgb(0,0,0);font-family:MinionPro-Regular;font-size:9.0px;stroke:none;">-ES was added into 50 ml graphene oxide (GO) dispersion (about 2.5 mg ml</text>
   <text y="664.881" x="503.818" svgx:width="0.78" style="fill:rgb(0,0,0);font-family:EuclidSymbol;font-size:5.85px;stroke:none;">−</text>
   <text y="664.881" x="508.375" svgx:width="0.48" style="fill:rgb(0,0,0);font-family:MinionPro-Regular;font-size:5.85px;stroke:none;">1</text>
   <text y="667.941" x="511.187,514.31,516.258,521.046,525.94,530.701,534.535,537.883,539.831,543.096,545.893,548.314,551.435" svgx:width="0.35,0.23,0.53,0.55,0.53,0.43,0.37,0.23,0.37,0.31,0.27,0.37,0.36" style="fill:rgb(0,0,0);font-family:MinionPro-Regular;font-size:9.0px;stroke:none;">) under stir-</text>
   <text y="677.94" x="155.642,159.157,161.695,166.668,171.002,173.27,177.262,182.27,187.148,189.416,193.921,197.872,202.61,205.481,207.749,211.129,214.041,216.575,220.09,223.605,226.143,231.115,235.453,237.721,240.426,245.03,248.491,250.759,255.205,256.415,261.347,263.521,265.789,268.494,273.143,275.587,277.986,282.554,288.769,292.761,297.639,299.907,304.457,308.714,310.982,315.929,318.22,321.131,324.592,328.638,332.136,336.739,341.788,344.322,348.278,352.18,355.092,357.626,362.599,366.937,369.205,371.91,376.514,379.979,382.247,386.654,387.905,392.837,395.011,397.279,401.725,406.166,410.612,411.845,419.266,423.604,425.872,430.755,434.081,438.127,441.623,445.556,450.16,453.625,458.174,462.491,464.894,467.162,471.239,475.167,477.705,482.583,484.851,491.142,495.189,498.613,500.881,504.958,509.832,514.71,518.701,523.579,525.847,528.385,533.26,536.072,540.788,543.056,545.977,550.869,554.694" svgx:width="0.37,0.27,0.55,0.47,0.23,0.44,0.55,0.53,0.23,0.5,0.43,0.52,0.31,0.23,0.37,0.31,0.27,0.37,0.37,0.27,0.55,0.47,0.23,0.3,0.51,0.37,0.23,0.48,0.23,0.53,0.23,0.23,0.3,0.51,0.25,0.25,0.51,0.69,0.43,0.53,0.23,0.51,0.46,0.23,0.53,0.25,0.31,0.37,0.44,0.37,0.51,0.55,0.27,0.42,0.44,0.31,0.27,0.55,0.47,0.23,0.3,0.51,0.37,0.23,0.48,0.23,0.53,0.23,0.23,0.48,0.48,0.48,0.23,0.82,0.47,0.23,0.54,0.36,0.44,0.37,0.42,0.51,0.37,0.51,0.46,0.25,0.23,0.44,0.42,0.27,0.53,0.23,0.69,0.44,0.37,0.23,0.44,0.53,0.53,0.43,0.53,0.23,0.27,0.55,0.31,0.51,0.23,0.31,0.53,0.43,0.23" style="fill:rgb(0,0,0);font-family:MinionPro-Regular;font-size:9.0px;stroke:none;">ring and kept stirring for 3 h, followed by ultrasonicating for 1 h. 250 mg L-ascorbyl acid was added into the </text>
   <text y="687.939" x="155.633,163.04,165.488,169.702,173.609,178.397,180.377,183.673,188.462,191.757,196.591,200.452,205.341,208.68,211.128,215.648,220.607,222.695,224.675,230.905,236.126,239.987,243.362,245.342,248.177,252.994,256.812,259.593,261.681,263.661,266.497,271.305,275.166,277.146,284.553,287.001,291.215,295.122,299.91,301.89,305.184,309.974,313.27,318.104,321.965,326.853,330.192,332.64,337.159,342.118,344.098,350.299,354.261,357.6,359.58,366.952,371.435,375.568,379.476,384.264,386.244,388.692,393.482,396.21,400.836,402.816,405.652,410.459,414.32,416.3,420.784,424.916,428.777,433.736,435.716,439.533,442.314,444.294,448.65,453.006,454.19,457.313,463.334,465.314,467.935,472.455,475.83,477.81,482.166,483.332,488.174,490.154,492.882,497.508,499.488,502.748,506.655,511.337,516.152,519.995,523.856,525.836,532.307,539.066,541.046,544.953,549.878,554.63" svgx:width="0.82,0.27,0.47,0.43,0.53,0.23,0.37,0.53,0.37,0.52,0.43,0.55,0.37,0.27,0.51,0.55,0.23,0.23,0.69,0.58,0.43,0.37,0.23,0.31,0.53,0.44,0.31,0.23,0.23,0.31,0.53,0.43,0.23,0.82,0.27,0.47,0.43,0.53,0.23,0.37,0.53,0.37,0.52,0.43,0.55,0.37,0.27,0.51,0.55,0.23,0.69,0.44,0.37,0.23,0.82,0.51,0.46,0.43,0.53,0.23,0.27,0.55,0.31,0.51,0.23,0.31,0.53,0.43,0.23,0.51,0.46,0.43,0.55,0.23,0.44,0.31,0.23,0.48,0.48,0.23,0.34,0.67,0.23,0.3,0.51,0.37,0.23,0.48,0.23,0.53,0.23,0.31,0.51,0.23,0.37,0.43,0.53,0.53,0.42,0.43,0.23,0.71,0.75,0.23,0.44,0.55,0.53,0.23" style="fill:rgb(0,0,0);font-family:MinionPro-Regular;font-size:9.0px;stroke:none;">mixed suspension. After that, the mixed suspension was moved into the oven at 75 °C for 8 h to reduce GO and </text>
   <text y="697.938" x="155.633,158.009,162.864,167.475,172.218,175.989,179.778,181.479,184.822,188.578,190.819,193.447,196.615,200.506,203.731,207.074,210.863,218.111,222.587,224.768,228.863,230.564,235.139,238.329,242.967,246.738,250.527,253.753,257.02,258.721,261.38,265.934,267.635,272.147,276.588,279.353,283.191,285.567,290.454,292.155,296.07,297.771,302.055,308.634,310.335,314.515,319.402" svgx:width="0.27,0.55,0.53,0.53,0.42,0.43,0.23,0.37,0.43,0.25,0.3,0.36,0.44,0.37,0.37,0.43,0.82,0.51,0.25,0.46,0.23,0.52,0.37,0.51,0.42,0.43,0.37,0.37,0.23,0.31,0.51,0.23,0.51,0.51,0.31,0.44,0.27,0.55,0.23,0.44,0.23,0.48,0.74,0.23,0.47,0.55,0.75" style="fill:rgb(0,0,0);font-family:MinionPro-Regular;font-size:9.0px;stroke:none;">induce self-assembly process to obtain a 3D SnO</text>
   <text y="699.741" x="326.184" svgx:width="0.48" style="fill:rgb(0,0,0);font-family:MinionPro-Regular;font-size:5.85px;stroke:none;">2</text>
   <text y="697.941" x="328.971,331.914,338.313,342.543,344.244,351.546,355.995,360.85,365.344,367.585,369.857,372.623,377.393,379.094,381.47,386.357,388.058,391.973,393.674,397.916,400.188,404.079,407.304,410.571,412.272,416.893,421.351,423.974,426.74,428.981,432.719,434.735,436.436,446.007,449.796,454.683,456.384,459.149,463.887,467.676,469.377,476.68,481.129,485.984,490.477,492.718,494.99,497.757,502.527,504.228,510.357,514.248,517.515,519.216,521.982,525.946,530.296,534.085,538.972,540.673,545.132,549.77,552.479,554.531" svgx:width="0.33,0.71,0.47,0.23,0.82,0.51,0.55,0.51,0.25,0.27,0.31,0.53,0.23,0.27,0.55,0.23,0.44,0.23,0.47,0.25,0.44,0.37,0.37,0.23,0.51,0.51,0.31,0.31,0.25,0.43,0.23,0.23,1.07,0.43,0.55,0.23,0.31,0.53,0.43,0.23,0.82,0.51,0.55,0.51,0.25,0.27,0.31,0.53,0.23,0.69,0.44,0.37,0.23,0.31,0.44,0.5,0.43,0.55,0.23,0.51,0.53,0.31,0.23,0.23" style="fill:rgb(0,0,0);font-family:MinionPro-Regular;font-size:9.0px;stroke:none;">/GS monolith in a glass bottle. Then the monolith was taken out, </text>
   <text y="707.94" x="155.64,161.787,165.694,168.943,173.695,177.547,182.281,184.0,187.204,191.011,195.79,199.651,203.414,206.087,209.939,214.718,216.914,221.027,222.746,228.92,231.207,233.988,238.776,240.495,245.229,249.036,251.43,255.894,260.799,263.193,266.955,270.807,275.541,277.26,283.407,287.169,289.842,293.649,296.97,298.689,301.255,305.719,309.04,310.759,315.061,316.78,321.541,325.312,329.425,332.71,334.744,336.463,340.315,345.184,349.918,351.637,354.373,357.577,361.429,365.281,369.043,372.85,376.036,380.771,384.146,386.54,390.392,395.126,396.845,399.239,403.973,406.646,411.218,412.937,416.87,418.589,422.837,429.254,433.007,435.041,436.76,441.332,445.841,448.145,450.404,454.832,460.907,464.759,469.493,471.212,475.622,479.735,481.454,484.235,488.988,492.795,496.17,503.496,507.474,509.733,511.452,514.224,517.428,521.289,525.051,527.824,535.141,538.948,543.682,546.409,548.128,551.89,554.635" svgx:width="0.69,0.44,0.37,0.53,0.43,0.53,0.23,0.37,0.43,0.52,0.43,0.44,0.31,0.43,0.53,0.25,0.46,0.23,0.69,0.27,0.31,0.53,0.23,0.53,0.43,0.27,0.51,0.55,0.27,0.42,0.43,0.53,0.23,0.69,0.44,0.31,0.43,0.37,0.23,0.3,0.51,0.37,0.23,0.48,0.23,0.53,0.44,0.46,0.37,0.23,0.23,0.44,0.55,0.53,0.23,0.3,0.37,0.43,0.43,0.42,0.43,0.36,0.53,0.37,0.27,0.43,0.53,0.23,0.27,0.55,0.31,0.51,0.23,0.44,0.23,0.47,0.71,0.53,0.23,0.23,0.53,0.51,0.25,0.25,0.51,0.69,0.43,0.53,0.23,0.51,0.46,0.23,0.31,0.53,0.43,0.37,0.82,0.44,0.25,0.23,0.31,0.37,0.43,0.44,0.31,0.82,0.43,0.55,0.31,0.23,0.44,0.31,0.23" style="fill:rgb(0,0,0);font-family:MinionPro-Regular;font-size:9.0px;stroke:none;">washed repeatedly with deionized water for 2 days, and freeze-dried into a SGF. Followed by thermal treatment at </text>
   <text y="717.939" x="155.64,159.96,164.28,168.6,169.725,172.812,178.797,180.633,183.216,187.698,191.037,192.873,197.193,198.327,203.133,204.969,209.748,214.635,219.387,223.212,226.551,228.387,232.257,235.524,239.664,244.146,249.069,250.905,254.685,257.475,264.81,269.4,272.658,277.311,282.081,285.906,289.128,292.898,294.95,296.786,299.585,304.355,308.18,310.016,314.282,320.717,324.983,326.819,332.984,336.908,340.211,342.047,344.702,349.481,352.874,357.761,361.631,366.383,368.219,370.631,375.383,378.074,382.664,384.5,388.371,393.294,398.181,402.059,406.055,408.332,412.202,416.954,418.79,423.056,429.491,434.252,436.088,439.202,445.394,449.66,456.095,460.856,463.97" svgx:width="0.48,0.48,0.48,0.23,0.34,0.67,0.23,0.3,0.51,0.37,0.23,0.48,0.23,0.53,0.23,0.53,0.55,0.53,0.43,0.37,0.23,0.44,0.37,0.47,0.51,0.55,0.23,0.44,0.31,0.82,0.51,0.37,0.52,0.53,0.43,0.37,0.43,0.23,0.23,0.31,0.53,0.43,0.23,0.47,0.71,0.47,0.23,0.69,0.44,0.37,0.23,0.31,0.53,0.37,0.55,0.43,0.53,0.23,0.27,0.55,0.31,0.51,0.23,0.44,0.55,0.55,0.43,0.44,0.25,0.43,0.53,0.23,0.47,0.71,0.53,0.23,0.35,0.69,0.47,0.71,0.53,0.35,0.23" style="fill:rgb(0,0,0);font-family:MinionPro-Regular;font-size:9.0px;stroke:none;">550 °C for 2 h under argon atmosphere, the SGS was turned into annealed SGF (ASGF).</text>
  </g>
  <rect style="stroke:blue;stroke-width:0.3;" x="155.638" y="64.138" height="250.92" width="396.0" title="7"/>
  <text y="64.138" class="image" id="image.7.1" width="396" height="250" x="155.638">image.7.1.156_552.64_315</text>
  <path style="fill:none;stroke:rgb(131,144,151);stroke-width:0.3;" d="M159.130 325.960 L552.640 325.960 "/>
  <path style="fill:none;stroke:rgb(131,144,151);stroke-width:1.0;" d="M156.140 325.960 L156.140 325.960 M554.140 325.960 L554.140 325.960 "/>
  <g begin="text">
   <text y="315.963" x="155.638,160.552,163.207,167.662,172.657,176.221,180.154,181.909,186.409" svgx:width="0.55,0.29,0.49,0.56,0.4,0.44,0.22,0.5,0.25" style="fill:rgb(0,0,0);font-family:MinionPro-Bold;font-size:9.0px;stroke:none;">Figure 6.</text>
   <text y="315.963" x="188.695" svgx:width="0.23" style="fill:rgb(0,0,0);font-family:MinionPro-Regular;font-size:9.0px;stroke:none;"> </text>
   <text y="315.963" x="193.195,197.848,201.646,206.596,210.484,218.071,222.129,225.135,227.844,231.642,233.397,236.142,238.734,241.191,246.186,249.597,252.603,256.311,260.37,263.376,266.085,270.72,275.814,277.569,282.204,285.183,286.938,289.989,294.939,298.872,300.627,304.775,309.869,314.963,318.968,323.207,325.709,328.364,333.386,337.814,339.569,342.575,346.139,350.144,354.203,357.209,364.796,368.684,373.706,376.829,379.115" svgx:width="0.5,0.42,0.55,0.44,0.84,0.47,0.34,0.29,0.42,0.22,0.29,0.28,0.28,0.56,0.38,0.34,0.4,0.47,0.34,0.29,0.52,0.57,0.22,0.52,0.33,0.22,0.34,0.55,0.44,0.22,0.47,0.57,0.57,0.44,0.47,0.28,0.29,0.57,0.49,0.22,0.34,0.4,0.44,0.47,0.34,0.84,0.44,0.57,0.34,0.25,0.22" style="fill:rgb(0,0,0);font-family:MinionPro-Bold;font-size:9.0px;stroke:none;">Schematic illustration of the annealing treatment. </text>
  </g>
 </g>
</svg>
