<?xml version="1.0" encoding="UTF-8"?>
<svg height="774.23" width="4165.638" xmlns="http://www.w3.org/2000/svg">
 <g id="page" xmlns:svgx="http://www.xml-cml.org/schema/svgx">
  <g begin="text">
   <text y="22.46" x="40.638,48.208,55.778,63.055,66.145,71.865,77.215,81.135,86.765,90.565,95.995,99.085,103.915,109.695,118.435,121.635,126.125,130.955,133.725,139.15,144.87,148.79,151.56,155.19,157.96,162.79,166.59,172.02,177.78,183.56,187.36,191.28,195.77" svgx:width="0.71,0.71,0.71,0.26,0.53,0.49,0.35,0.52,0.34,0.5,0.26,0.44,0.53,0.83,0.28,0.4,0.44,0.23,0.5,0.53,0.35,0.23,0.32,0.23,0.44,0.34,0.5,0.53,0.53,0.34,0.35,0.4,0.28" style="fill:rgb(255,255,255);font-family:Corbel;font-size:10.0px;stroke:none;">www.nature.com/scientificreports/</text>
  </g>
  <g begin="text">
   <text y="764.23" x="549.393" svgx:width="0.52" style="fill:rgb(131,144,151);font-family:Corbel;font-size:10.0px;stroke:none;">6</text>
  </g>
  <g begin="text">
   <text y="764.193" x="40.794,45.642,50.786,53.186,58.026,64.026,68.898,71.298,75.762,78.162" svgx:width="0.55,0.59,0.25,0.55,0.7,0.56,0.25,0.5,0.25,0.59" style="fill:rgb(131,144,151);font-family:Corbel;font-size:8.0px;stroke:none;">Scientific</text>
   <text y="764.193" x="83.162" svgx:width="0.2" style="fill:rgb(0,0,0);font-family:Corbel;font-size:8.0px;stroke:none;"> </text>
   <text y="764.193" x="84.762,90.218,95.194,100.434,106.738,112.194,117.186" svgx:width="0.63,0.57,0.6,0.73,0.63,0.57,0.58" style="fill:rgb(131,144,151);font-family:Corbel-Bold;font-size:8.0px;stroke:none;">RepoRts</text>
   <text y="764.193" x="122.082,123.524,125.34,126.781,130.885,132.997,137.101,141.205,145.309,149.413,153.517,154.945,156.761,158.203,163.571,169.411,171.379,173.491,174.93,179.034,183.138,185.25,189.354,193.458,197.562,201.666,203.866,207.098,209.778,213.762,218.01,222.114,226.218,230.322,234.426" svgx:width="0.2,0.23,0.2,0.51,0.26,0.51,0.51,0.51,0.51,0.51,0.2,0.23,0.2,0.67,0.73,0.25,0.26,0.2,0.51,0.51,0.26,0.51,0.51,0.51,0.51,0.28,0.4,0.34,0.5,0.53,0.51,0.51,0.51,0.51,0.51" style="fill:rgb(0,0,0);font-family:Corbel;font-size:8.0px;stroke:none;"> | 6:19195 | DOI: 10.1038/srep19195</text>
  </g>
  <path style="fill:none;stroke:rgb(0,0,0);stroke-width:1.0;" d="M40.640 752.550 L554.640 752.550 "/>
  <g begin="text">
   <text y="433.385" x="282.706,289.6714,314.097,321.06239999999997,339.158,348.088,374.004,377.48670000000004,384.664,391.6294,401.654,408.6194,415.769,418.2694,422.679" svgx:width="0.78,0.55,0.78,0.55,1.0,0.55,0.39,0.55,0.78,0.55,0.78,0.55,0.28,0.55,0.39" style="fill:rgb(0,0,0);font-family:EuclidSymbol;font-size:8.93px;stroke:none;">+ + → ( ≤ ≤ . )</text>
   <text y="433.671" x="543.644,547.1267,551.421" svgx:width="0.39,0.55,0.39" style="fill:rgb(0,0,0);font-family:EuclidSymbol;font-size:8.93px;stroke:none;">( )</text>
   <text y="429.353" x="306.322,311.2672,331.666" svgx:width="0.78,0.55,0.78" style="fill:rgb(0,0,0);font-family:EuclidSymbol;font-size:6.34px;stroke:none;">+ −</text>
   <text y="433.385" x="270.61,274.931,279.8425,292.501,296.69809999999995,299.126,304.018,306.42909999999995,323.892,328.213,332.0529,350.962,355.863,358.2741,364.22,368.532,373.4435,377.46,381.7464,394.45,398.64709999999997,411.44,415.7264,418.35" svgx:width="0.47,0.55,0.55,0.47,0.55,0.54,0.27,0.55,0.47,0.43,0.55,0.54,0.27,0.55,0.47,0.55,0.55,0.48,0.55,0.47,0.55,0.48,0.55,0.48" style="fill:rgb(0,0,0);font-family:MinionPro-Regular;font-size:8.93px;stroke:none;">Sn x Li xe Li Sn 0 x 4 4</text>
   <text y="433.671" x="547.083" svgx:width="0.48" style="fill:rgb(0,0,0);font-family:MinionPro-Regular;font-size:8.93px;stroke:none;">4</text>
   <text y="435.689" x="358.45" svgx:width="0.47" style="fill:rgb(0,0,0);font-family:MinionPro-Regular;font-size:6.34px;stroke:none;">x</text>
  </g>
  <g begin="text">
   <text y="459.645" x="280.978,284.46070000000003,293.941,297.4237,304.021,310.9864,339.733,346.6984,369.106,378.036,395.319,398.80170000000004,408.273" svgx:width="0.39,0.55,0.39,0.55,0.78,0.55,0.78,0.55,1.0,0.55,0.39,0.55,0.39" style="fill:rgb(0,0,0);font-family:EuclidSymbol;font-size:8.93px;stroke:none;">( ) + + → ( )</text>
   <text y="461.377" x="543.631,547.1137,551.407" svgx:width="0.39,0.55,0.39" style="fill:rgb(0,0,0);font-family:EuclidSymbol;font-size:8.93px;stroke:none;">( )</text>
   <text y="455.613" x="331.954,336.8992,361.619" svgx:width="0.78,0.55,0.78" style="fill:rgb(0,0,0);font-family:EuclidSymbol;font-size:6.34px;stroke:none;">+ −</text>
   <text y="459.645" x="284.434,290.4171,313.807,318.128,322.32509999999996,324.753,329.645,332.05609999999996,349.519,353.84,358.161,362.0009,380.91,385.802,388.2131,398.766" svgx:width="0.67,0.55,0.48,0.47,0.55,0.54,0.27,0.55,0.48,0.47,0.43,0.55,0.54,0.27,0.55,0.67" style="fill:rgb(0,0,0);font-family:MinionPro-Regular;font-size:8.93px;stroke:none;">C 2x Li 2xe Li C</text>
   <text y="461.377" x="547.087" svgx:width="0.48" style="fill:rgb(0,0,0);font-family:MinionPro-Regular;font-size:8.93px;stroke:none;">5</text>
  </g>
  <g begin="text">
   <text y="461.949" x="290.194" svgx:width="0.48" style="fill:rgb(0,0,0);font-family:MinionPro-Regular;font-size:6.34px;stroke:none;">6</text>
  </g>
  <g begin="text">
   <text y="463.677" x="297.106" svgx:width="0.47" style="fill:rgb(0,0,0);font-family:MinionPro-Regular;font-size:6.34px;stroke:none;">x</text>
  </g>
  <g begin="text">
   <text y="461.949" x="388.114,391.282,394.2618,404.53" svgx:width="0.48,0.47,0.55,0.48" style="fill:rgb(0,0,0);font-family:MinionPro-Regular;font-size:6.34px;stroke:none;">2x 6</text>
  </g>
  <g begin="text">
   <text y="463.677" x="411.442" svgx:width="0.47" style="fill:rgb(0,0,0);font-family:MinionPro-Regular;font-size:6.34px;stroke:none;">x</text>
  </g>
  <g begin="text">
   <text y="487.226" x="155.638,163.217,165.956,170.62,175.471,181.466,186.13,190.794,193.533,199.627" svgx:width="0.69,0.25,0.42,0.44,0.55,0.42,0.42,0.25,0.55,0.56" style="fill:rgb(0,0,0);font-family:Corbel-Bold;font-size:11.0px;stroke:none;">Discussion</text>
   <text y="497.226" x="155.638,161.73,166.184,173.356,178.088,181.931,185.296,187.681,192.504,196.689,198.399,204.563,206.839,209.609,214.388,216.098,218.868,223.61,227.408,229.118,233.302,238.198" svgx:width="0.67,0.51,0.82,0.52,0.44,0.37,0.27,0.55,0.47,0.23,0.69,0.27,0.31,0.53,0.23,0.31,0.53,0.43,0.23,0.47,0.55,0.75" style="fill:rgb(0,0,0);font-family:MinionPro-Regular;font-size:9.0px;stroke:none;">Comparing with the SnO</text>
   <text y="499.026" x="244.884" svgx:width="0.48" style="fill:rgb(0,0,0);font-family:MinionPro-Regular;font-size:5.85px;stroke:none;">2</text>
   <text y="497.226" x="247.674,250.626,257.034,261.273,262.983,266.763,271.217,278.389,283.157,287.72,290.996,293.272,295.935,299.733" svgx:width="0.33,0.71,0.47,0.23,0.42,0.51,0.82,0.52,0.51,0.37,0.27,0.31,0.43,0.37" style="fill:rgb(0,0,0);font-family:MinionPro-Regular;font-size:9.0px;stroke:none;">/GS composites</text>
   <text y="494.166" x="302.999,305.789" svgx:width="0.48,0.48" style="fill:rgb(0,0,0);font-family:MinionPro-Regular;font-size:5.85px;stroke:none;">11</text>
   <text y="497.226" x="308.578,310.603,312.313,315.084,319.826,323.624,325.334,331.499,335.738,342.146,346.88,348.59,353.341,357.237,360.513,362.223,367.002,369.387,373.633,378.375,382.173,385.485,387.195,390.389,394.258,398.325,402.123,405.381,408.657,411.005,415.486,417.736,421.534,423.244,427.05,430.802,435.534,439.458,443.238,445.514,448.258,452.362,454.072,457.824,460.542,462.252,467.031,469.416,473.664,478.443,480.153,483.994,488.746,492.111,495.305,499.103,503.827,506.545,508.255,511.567,515.319,517.981,521.779,525.055,526.765,531.39,535.233,539.038,542.79,547.514,550.861,554.686" svgx:width="0.23,0.23,0.31,0.53,0.43,0.23,0.69,0.47,0.71,0.53,0.23,0.53,0.44,0.37,0.23,0.53,0.27,0.47,0.53,0.43,0.37,0.23,0.37,0.43,0.46,0.43,0.37,0.37,0.27,0.51,0.25,0.43,0.23,0.42,0.44,0.52,0.44,0.42,0.27,0.31,0.46,0.23,0.44,0.31,0.23,0.53,0.27,0.47,0.53,0.23,0.42,0.53,0.37,0.37,0.43,0.55,0.31,0.23,0.37,0.44,0.31,0.43,0.37,0.23,0.51,0.43,0.42,0.44,0.53,0.37,0.43,0.23" style="fill:rgb(0,0,0);font-family:MinionPro-Regular;font-size:9.0px;stroke:none;">, the ASGF has higher reversible capacity at high current rates because </text>
   <text y="507.225" x="155.641,160.205,162.95,165.074,167.955,172.806,176.712,178.836,183.237,189.933,192.057,198.573,202.92,205.044,208.932,213.496,218.465,223.19,228.05,232.002,234.873,237.304,241.481,245.387,247.511,250.346,253.766,257.718,265.135,269.113,275.288,279.852,283.236,287.781,291.165,293.289,299.563,301.949,304.829,309.716,311.84,319.292,321.785,325.673,328.977,333.55,338.429,342.992,346.296,350.868,355.702,359.086,361.21,365.162,370.131,374.964,377.088,384.505,388.411,391.868,396.44,401.319,405.883,409.186,413.759,418.592,421.976,424.1,427.44,430.312,433.822,438.682,442.633,445.37,450.23,453.534,457.44,460.824,462.948,465.828,470.689,474.551,477.377,479.501,482.246,486.278,490.166,492.704,495.062,497.448,500.329,504.19,506.963,510.869,512.993,515.873,520.724,524.63,526.754,529.247,533.811,538.815,540.939,544.89,549.859,554.611" svgx:width="0.51,0.3,0.23,0.31,0.53,0.43,0.23,0.48,0.74,0.23,0.71,0.47,0.23,0.42,0.51,0.55,0.53,0.53,0.42,0.31,0.27,0.46,0.43,0.23,0.3,0.37,0.44,0.82,0.43,0.69,0.51,0.37,0.5,0.37,0.23,0.69,0.27,0.31,0.53,0.23,0.82,0.27,0.42,0.37,0.51,0.52,0.51,0.37,0.51,0.53,0.37,0.23,0.44,0.55,0.53,0.23,0.82,0.43,0.37,0.51,0.52,0.51,0.37,0.51,0.53,0.37,0.23,0.37,0.31,0.37,0.53,0.42,0.31,0.53,0.37,0.43,0.37,0.23,0.31,0.53,0.44,0.31,0.23,0.3,0.44,0.42,0.27,0.25,0.27,0.31,0.44,0.31,0.43,0.23,0.31,0.53,0.43,0.23,0.27,0.51,0.55,0.23,0.44,0.55,0.53,0.23" style="fill:rgb(0,0,0);font-family:MinionPro-Regular;font-size:9.0px;stroke:none;">of the 3D GS conductive frameworks with microporous and mesoporous structures that facilitate the ion and </text>
   <text y="517.224" x="155.641,159.503,161.852,165.795,169.738,172.601,175.897,180.452,185.447,187.544,190.407,193.818,197.761,202.685,206.016,210.886,215.441,218.943,221.76,223.857,228.574,233.425,236.891,239.375,244.298,248.582,250.679,253.551,258.394,262.291,264.388,268.25,270.599,274.543,278.486,281.349,284.644,289.388,293.213,298.056,301.953,309.396,311.88,315.787,319.856,322.205,324.302,327.597,331.549,335.572,339.515,342.379,344.863,349.418,354.341" svgx:width="0.43,0.25,0.43,0.42,0.31,0.37,0.51,0.55,0.23,0.31,0.37,0.44,0.55,0.37,0.52,0.51,0.37,0.31,0.23,0.53,0.53,0.37,0.27,0.55,0.47,0.23,0.31,0.53,0.43,0.23,0.43,0.25,0.43,0.42,0.31,0.37,0.51,0.42,0.53,0.43,0.82,0.27,0.42,0.44,0.25,0.23,0.37,0.43,0.44,0.42,0.31,0.27,0.51,0.55,0.37" style="fill:rgb(0,0,0);font-family:MinionPro-Regular;font-size:9.0px;stroke:none;">electron transport during the electrochemical reactions</text>
   <text y="514.166" x="357.715,360.57" svgx:width="0.48,0.48" style="fill:rgb(0,0,0);font-family:MinionPro-Regular;font-size:5.85px;stroke:none;">27</text>
   <text y="517.226" x="363.426,365.55,367.647,372.392,377.054,379.151,382.526,386.756,391.581,394.453,399.297,403.194,406.569,409.053,412.905,416.802,418.899,422.231,427.082,430.908,435.786,437.883,442.275,448.962,451.059,455.929,460.483,463.778,468.342,473.168,476.543,478.64,483.609,487.552,492.513,497.175,500.506,503.368,506.87,511.721,515.664,518.393,523.244,526.539,530.482,535.306,537.403,541.266,543.615,547.558,551.437" svgx:width="0.23,0.23,0.62,0.51,0.23,0.37,0.46,0.55,0.31,0.53,0.43,0.37,0.27,0.42,0.43,0.23,0.37,0.53,0.42,0.53,0.23,0.48,0.74,0.23,0.52,0.51,0.37,0.51,0.53,0.37,0.23,0.55,0.44,0.55,0.51,0.37,0.31,0.37,0.53,0.42,0.31,0.53,0.37,0.43,0.53,0.23,0.43,0.25,0.43,0.42,0.36" style="fill:rgb(0,0,0);font-family:MinionPro-Regular;font-size:9.0px;stroke:none;">. To synthesize such 3D porous nanostructured elec-</text>
   <text y="527.225" x="155.634,158.414,161.627,166.288,171.031,174.847,178.141,180.184,181.912,185.854,187.582,191.38,195.852,203.214,210.539,215.011,219.97,222.174,226.296,228.024,232.766,236.132,239.993,244.736,246.464,253.789,257.605,260.394,265.155,269.816,274.559,276.287,278.662,281.956,283.684,288.274,292.323,297.066,300.278,304.76,307.549,312.31,316.126,319.51,326.844,330.83,333.098,334.826,338.039,341.9,346.534,351.304,355.164,357.944,360.347,364.819,369.733,371.776,373.504,376.419,379.074,380.802,383.591,388.388,390.763,394.057,395.785,403.111,406.927,409.716,414.477,419.138,423.882,425.609,427.985,431.279,433.007,436.778,441.386,446.029,448.297,450.7,454.56,459.303,461.031,463.713,468.294,470.022,474.621,477.833,482.494,487.129,491.899,495.697,499.513,501.241,505.489,508.819,512.589,517.233,521.993,525.809,530.686,534.502,536.23,539.488,544.248,548.109,551.925,554.67" svgx:width="0.31,0.37,0.51,0.53,0.43,0.37,0.23,0.23,0.44,0.23,0.42,0.51,0.82,0.82,0.51,0.55,0.25,0.46,0.23,0.53,0.37,0.43,0.53,0.23,0.82,0.43,0.31,0.53,0.51,0.53,0.23,0.27,0.37,0.23,0.53,0.46,0.53,0.37,0.51,0.31,0.53,0.43,0.37,0.82,0.44,0.25,0.23,0.37,0.43,0.53,0.53,0.42,0.31,0.27,0.51,0.55,0.23,0.23,0.34,0.3,0.23,0.31,0.53,0.27,0.37,0.23,0.82,0.43,0.31,0.53,0.51,0.53,0.23,0.27,0.37,0.23,0.44,0.52,0.52,0.25,0.27,0.43,0.53,0.23,0.31,0.51,0.23,0.52,0.37,0.51,0.53,0.53,0.42,0.43,0.23,0.47,0.37,0.44,0.52,0.53,0.43,0.55,0.43,0.23,0.37,0.53,0.43,0.43,0.31,0.23" style="fill:rgb(0,0,0);font-family:MinionPro-Regular;font-size:9.0px;stroke:none;">trodes, a commonly used method is hydrothermal reduction. If this method is applied to produce graphene sheet </text>
   <text y="537.224" x="155.634,158.269,162.955,166.878,174.229,177.586,179.611,182.077,187.054,189.074,191.43,195.352,198.671,202.862,206.741,208.762,212.189,216.074,220.122,222.453,226.277,228.383,230.403,232.758,236.681,240.0,244.191,248.07,250.091,253.448,255.914,259.748,263.627,265.647,270.369,274.248,279.099,283.633,288.61,291.868,294.199,296.665,301.604,305.525,310.331,312.352,316.184,320.906,323.649,328.373,332.177,334.533,338.374,342.521,346.4,349.757,351.777,355.698,358.973,362.852,364.872,368.146,372.068,376.629,381.462,383.928,387.202,391.123,395.929,397.95,401.811,406.345,411.247,414.604,417.07,421.876,425.755,429.201,431.667,436.57,440.836,442.856,445.707,450.529,454.408,456.428,458.759,461.225,468.65,471.006,473.75,477.671,482.477,484.497,490.987,497.438,498.641,501.998,504.019,507.88,512.414,517.353,521.214,525.093,529.897,532.739,536.132,539.965,542.806,545.272,549.806,554.729" svgx:width="0.3,0.51,0.44,0.82,0.37,0.23,0.27,0.55,0.23,0.25,0.44,0.37,0.47,0.43,0.23,0.37,0.42,0.44,0.25,0.43,0.23,0.23,0.25,0.44,0.37,0.47,0.43,0.23,0.37,0.27,0.42,0.43,0.23,0.62,0.43,0.53,0.51,0.55,0.36,0.25,0.27,0.55,0.43,0.53,0.23,0.44,0.53,0.31,0.51,0.42,0.25,0.44,0.46,0.43,0.37,0.23,0.44,0.37,0.43,0.23,0.37,0.43,0.51,0.53,0.27,0.37,0.43,0.53,0.23,0.42,0.51,0.55,0.37,0.27,0.53,0.43,0.37,0.27,0.55,0.47,0.23,0.31,0.53,0.43,0.23,0.25,0.27,0.82,0.27,0.31,0.43,0.53,0.23,0.71,0.75,0.22,0.37,0.23,0.42,0.51,0.55,0.42,0.43,0.55,0.31,0.37,0.44,0.31,0.27,0.51,0.55,0.23" style="fill:rgb(0,0,0);font-family:MinionPro-Regular;font-size:9.0px;stroke:none;">foams in large scale, large size Teflon-lined autoclaves are required considering the limited GO’s concentration </text>
   <text y="547.223" x="155.634,158.127,163.131,165.246,171.492,175.352,178.123,182.029,184.881,187.014,189.129,195.437,200.324,202.817,206.65,211.537,213.652,218.196,221.669,224.162,229.093,233.386,236.77,238.885,243.636,248.433,250.548,253.426,258.276,262.182,264.297,268.185,272.856,276.194,279.02,281.153,283.268,288.819,292.725,296.109,298.602,303.435,307.341,310.725,312.858,314.973,317.852,322.703,326.609,328.724,333.611,336.104,340.458,345.345,347.46,350.23,354.136,361.416,366.293,370.199,373.619,377.479,380.214,385.074,388.376,392.282,394.397,398.348,403.314,408.147,410.262,414.949,418.251,422.157,425.495,428.833,433.693,436.995,440.901,443.016,445.509,450.513,452.628,455.507,460.357,464.263,466.378,471.057,475.196,480.029,483.331,487.902,490.781,495.63,499.536,503.009,510.434,514.51,516.868,518.983,522.285,526.234,530.958,535.818,539.768,542.637,545.13,549.692,554.615" svgx:width="0.27,0.55,0.23,0.69,0.44,0.31,0.43,0.37,0.23,0.23,0.69,0.53,0.27,0.42,0.53,0.23,0.51,0.37,0.27,0.55,0.47,0.37,0.23,0.53,0.52,0.23,0.31,0.53,0.43,0.23,0.42,0.51,0.37,0.31,0.23,0.23,0.59,0.43,0.37,0.27,0.53,0.43,0.37,0.23,0.23,0.31,0.53,0.43,0.23,0.53,0.27,0.47,0.53,0.23,0.31,0.43,0.82,0.52,0.43,0.37,0.44,0.31,0.53,0.37,0.43,0.23,0.44,0.55,0.53,0.23,0.52,0.37,0.43,0.37,0.37,0.53,0.37,0.43,0.23,0.27,0.55,0.23,0.31,0.53,0.43,0.23,0.53,0.46,0.53,0.37,0.51,0.31,0.53,0.43,0.37,0.82,0.44,0.25,0.23,0.37,0.43,0.53,0.53,0.42,0.31,0.27,0.51,0.55,0.23" style="fill:rgb(0,0,0);font-family:MinionPro-Regular;font-size:9.0px;stroke:none;">in water, which brings up the cost. Besides, the high temperature and pressure in the hydrothermal reduction </text>
   <text y="557.222" x="155.634,160.285,163.551,168.265,172.117,175.987,179.289,182.637,184.626,188.504,192.417,197.385,199.374,203.251,207.074,211.87,215.289,219.159,221.148,224.548,228.462,231.088,234.958,237.773,241.949,243.938,247.79,252.315,257.246,261.098,264.968,268.403,273.298" svgx:width="0.52,0.37,0.51,0.42,0.43,0.37,0.37,0.23,0.42,0.44,0.55,0.23,0.42,0.44,0.53,0.37,0.43,0.23,0.37,0.44,0.3,0.43,0.31,0.46,0.23,0.42,0.51,0.55,0.42,0.43,0.37,0.55,0.37" style="fill:rgb(0,0,0);font-family:MinionPro-Regular;font-size:9.0px;stroke:none;">process can cause safety concerns</text>
   <text y="554.166" x="276.641,279.478,282.315,283.678,286.516" svgx:width="0.48,0.48,0.23,0.48,0.48" style="fill:rgb(0,0,0);font-family:MinionPro-Regular;font-size:5.85px;stroke:none;">27,28</text>
   <text y="557.226" x="289.348,291.445,293.434,300.202,305.17,307.159,311.011,315.536,320.332,323.165,326.549,330.517,333.818,336.608,338.705,340.694,343.536,348.349,352.219,354.208,358.86,362.125,365.995,369.414,373.284,378.08,380.87,382.859,386.207,390.408,395.204,398.046,402.859,406.729,410.077,412.506,415.854,417.843,421.109,425.643,430.358,433.092,436.962,438.951,443.676,445.665,449.517,454.043,461.368,465.875,468.332,473.272,477.095,479.928,482.385,486.911,491.879,493.868,498.394,501.103,503.092,510.508,513.008,515.33,520.127,522.116,525.912,530.726,534.596,542.012,544.469,548.346,552.385,554.663" svgx:width="0.23,0.23,0.75,0.55,0.23,0.42,0.51,0.55,0.31,0.37,0.44,0.37,0.31,0.23,0.23,0.31,0.53,0.43,0.23,0.52,0.37,0.43,0.37,0.43,0.55,0.31,0.23,0.37,0.46,0.55,0.31,0.53,0.43,0.37,0.27,0.37,0.23,0.37,0.51,0.53,0.31,0.43,0.23,0.52,0.23,0.42,0.51,0.82,0.51,0.27,0.55,0.44,0.31,0.27,0.51,0.55,0.23,0.51,0.3,0.23,0.82,0.27,0.25,0.53,0.23,0.42,0.53,0.43,0.82,0.27,0.42,0.44,0.25,0.23" style="fill:rgb(0,0,0);font-family:MinionPro-Regular;font-size:9.0px;stroke:none;">. On contrast, the present synthesis route – combination of mild chemical </text>
   <text y="567.225" x="155.635,158.842,162.698,167.328,172.089,175.943,178.719,181.113,185.581,190.486,192.205,196.06,200.933,205.667,207.386,212.141,216.006,219.772,222.499,224.218,226.993,230.2,234.064,237.83,240.606,247.926,251.733,256.471,259.198,260.917,265.579,267.298,272.035,275.395,279.202,282.487,284.206,287.995,292.463,299.816,307.136,311.604,316.509,318.228,322.488,324.777,328.687,331.93,335.215,336.934,341.573,346.05,348.69,351.475,353.734,357.541,360.826,362.545,367.011,370.332,372.051,375.294,378.079,381.934,384.328,389.282,391.541,395.348,398.592,401.877,403.596,406.838,409.515,413.37,417.145,419.404,421.123,425.906,430.382,433.109,435.143,436.862,441.6,444.96,448.767,452.052,453.771,457.704,459.423,466.607,471.368,475.107,479.895,481.614,483.873,488.304,494.383,498.19,501.511,503.23,506.515,510.658,515.395,518.18,522.935,526.742,530.027,532.397,535.682,537.401,540.078,543.885,551.238" svgx:width="0.37,0.43,0.53,0.53,0.42,0.31,0.27,0.51,0.55,0.23,0.44,0.55,0.53,0.23,0.53,0.43,0.44,0.31,0.23,0.31,0.37,0.43,0.44,0.31,0.82,0.43,0.55,0.31,0.23,0.52,0.23,0.53,0.37,0.43,0.37,0.23,0.42,0.51,0.82,0.82,0.51,0.55,0.23,0.47,0.25,0.44,0.37,0.37,0.23,0.51,0.51,0.31,0.31,0.25,0.43,0.37,0.23,0.51,0.37,0.23,0.37,0.31,0.44,0.27,0.55,0.25,0.43,0.37,0.37,0.23,0.37,0.31,0.43,0.43,0.25,0.23,0.52,0.51,0.31,0.23,0.23,0.53,0.37,0.43,0.37,0.23,0.44,0.23,0.82,0.53,0.42,0.53,0.23,0.25,0.51,0.69,0.43,0.37,0.23,0.37,0.46,0.55,0.31,0.53,0.43,0.37,0.27,0.37,0.23,0.31,0.43,0.82,0.36" style="fill:rgb(0,0,0);font-family:MinionPro-Regular;font-size:9.0px;stroke:none;">reduction and heat treatment – uses common glass bottles or stainless steel pot, uses a much lower synthesis tem-</text>
   <text y="577.224" x="155.635,160.432,164.257,167.596,171.375,174.031,178.81,182.031,185.802,187.854,189.69,193.56,198.447,203.199,205.035,207.42,210.723,212.559,215.916,219.786,222.369,226.14,228.192,230.028,236.255,241.061,243.473,247.226,252.032,253.868,256.253,259.556,261.392,265.343,270.032,274.199,278.069,282.821,285.62,289.526,293.666,297.536,302.027,306.779,310.082,311.918,314.501,318.983,322.322,324.158,331.502,335.426,338.684,341.987,343.823,348.431,351.653,356.324,360.968,365.747,369.616,372.406,374.818,379.3,384.223" svgx:width="0.52,0.43,0.37,0.44,0.31,0.53,0.37,0.43,0.23,0.23,0.44,0.55,0.53,0.23,0.27,0.37,0.23,0.37,0.44,0.3,0.43,0.23,0.23,0.69,0.53,0.27,0.42,0.53,0.23,0.27,0.37,0.23,0.44,0.53,0.46,0.44,0.55,0.31,0.44,0.47,0.43,0.51,0.53,0.37,0.23,0.3,0.51,0.37,0.23,0.82,0.44,0.37,0.37,0.23,0.52,0.37,0.51,0.53,0.53,0.42,0.31,0.27,0.51,0.55,0.23" style="fill:rgb(0,0,0);font-family:MinionPro-Regular;font-size:9.0px;stroke:none;">perature, and is safe, which is advantageous for mass production.</text>
   <text y="587.223" x="167.632,174.414,179.319,182.835,185.373,190.347,194.685,196.953,199.875,204.768,208.719,210.987,215.06,219.241,223.118,225.521,228.059,233.033,237.371,239.639,242.452,246.403,249.785,252.656,254.924,259.528,262.318,264.586,267.508,272.401,276.352,278.62,284.935,289.327,295.888,300.775,303.043,306.283,311.17,313.708,318.07,320.248,322.517,326.963,333.308,335.486,340.904,344.144,346.322,348.59,351.513,356.405,360.356,362.624,365.05,369.044,372.433,376.696,380.647,382.915,386.871,390.774,395.658,399.735,403.668,406.094,408.988,413.245,415.513,417.917,422.633,426.013,429.442,431.71,434.95,440.296,444.742,449.188,456.118,459.358,461.626,466.23,469.02,471.288,474.21,479.102,483.053,485.321,490.262,493.67,497.051,499.922,502.19,506.264,510.446,514.321,516.724,520.675,522.943,525.451,528.88,531.148,535.411,539.362,544.372,548.323,551.428" svgx:width="0.74,0.53,0.37,0.27,0.55,0.47,0.23,0.31,0.53,0.43,0.23,0.42,0.46,0.42,0.25,0.27,0.55,0.47,0.23,0.31,0.43,0.37,0.31,0.23,0.51,0.3,0.23,0.31,0.53,0.43,0.23,0.69,0.47,0.71,0.53,0.23,0.35,0.53,0.27,0.47,0.23,0.23,0.48,0.69,0.23,0.59,0.35,0.23,0.23,0.31,0.53,0.43,0.23,0.25,0.44,0.37,0.47,0.43,0.23,0.42,0.44,0.52,0.44,0.42,0.27,0.31,0.46,0.23,0.25,0.51,0.37,0.37,0.23,0.35,0.58,0.48,0.48,0.76,0.35,0.23,0.51,0.3,0.23,0.31,0.53,0.43,0.23,0.54,0.37,0.37,0.31,0.23,0.42,0.46,0.42,0.25,0.43,0.23,0.27,0.37,0.23,0.47,0.43,0.55,0.43,0.37,0.36" style="fill:rgb(0,0,0);font-family:MinionPro-Regular;font-size:9.0px;stroke:none;">During the cycling test of the ASGF (Fig. 5A,B), the large capacity loss (~40%) of the first cycle is gener-</text>
   <text y="597.222" x="155.635,159.722,162.135,164.44,168.661,170.821,174.691,177.438,180.319,183.803,186.27,190.834,195.596,198.378,202.339,207.181,209.341,212.123,216.803,218.963,221.853,226.714,230.629,232.789,235.291,238.775,242.088,246.076,250.262,254.177,257.553,260.946,263.413,268.013,270.38,274.295,276.455,279.129,283.702,287.186,294.621,298.493,301.374,303.876,308.449,313.462,315.622,320.194,322.948,325.108,327.998,332.859,336.774,338.934,343.183,348.385,351.544,353.704,356.099,359.98,364.13,368.045,371.474,373.634,378.207,383.22,385.38,388.27,393.131,397.046,399.206,402.556,407.425,410.909,413.663,417.704,421.601,425.516,427.676,432.249,435.003,437.163,440.053,444.914,448.829,450.989,455.976,459.937,464.915,469.533,474.223,478.553,483.109,486.593,489.095,493.911,497.304,499.464,504.199,509.068,512.551,515.053,519.996,524.298,526.458,529.348,534.209,538.124,540.284,545.189,548.565,551.914,554.659" svgx:width="0.44,0.25,0.25,0.46,0.23,0.44,0.31,0.31,0.37,0.27,0.51,0.53,0.31,0.43,0.53,0.23,0.31,0.51,0.23,0.31,0.53,0.43,0.23,0.27,0.37,0.37,0.43,0.46,0.43,0.37,0.37,0.27,0.51,0.25,0.43,0.23,0.3,0.51,0.37,0.82,0.44,0.31,0.27,0.51,0.55,0.23,0.51,0.3,0.23,0.31,0.53,0.43,0.23,0.47,0.57,0.34,0.23,0.25,0.44,0.46,0.43,0.37,0.23,0.51,0.55,0.23,0.31,0.53,0.43,0.23,0.37,0.53,0.37,0.3,0.44,0.42,0.43,0.23,0.51,0.3,0.23,0.31,0.53,0.43,0.23,0.55,0.44,0.55,0.51,0.53,0.46,0.51,0.37,0.27,0.53,0.37,0.23,0.53,0.53,0.37,0.27,0.55,0.47,0.23,0.31,0.53,0.43,0.23,0.54,0.37,0.37,0.31,0.23" style="fill:rgb(0,0,0);font-family:MinionPro-Regular;font-size:9.0px;stroke:none;">ally attributed to the irreversible formation of the SEI layer on the surface of the nanohybrids during the first </text>
   <text y="607.221" x="155.635,160.459,162.916,166.363,170.188,175.039,178.981,182.32,186.532,190.429,192.517,197.197,200.491,205.234,209.113,213.01,216.34" svgx:width="0.53,0.27,0.37,0.42,0.53,0.44,0.37,0.47,0.43,0.23,0.52,0.37,0.51,0.42,0.43,0.37,0.37" style="fill:rgb(0,0,0);font-family:MinionPro-Regular;font-size:9.0px;stroke:none;">discharge process</text>
   <text y="604.166" x="219.719,222.574,225.429,228.518,231.372" svgx:width="0.48,0.48,0.52,0.48,0.48" style="fill:rgb(0,0,0);font-family:MinionPro-Regular;font-size:5.85px;stroke:none;">47–49</text>
   <text y="607.226" x="234.227,236.351,238.439,246.296,250.85,254.144,258.086,262.604,266.771,270.668,273.512,275.636,277.724,280.595,285.436,289.333,291.421,293.905,298.9,301.276,304.138,306.649,310.717,313.066,315.154,319.978,322.435,325.882,329.706,334.557,338.5,341.839,346.05,349.947,352.035,355.941,359.793,364.626,368.649,372.528,374.904,377.765,380.249,384.146,387.521,389.609,392.795,397.187,401.579,405.971,410.363,411.572,419.015,425.333,430.211,432.299" svgx:width="0.23,0.23,0.89,0.51,0.37,0.43,0.51,0.46,0.43,0.37,0.23,0.23,0.31,0.53,0.43,0.23,0.27,0.55,0.27,0.31,0.27,0.44,0.25,0.23,0.53,0.27,0.37,0.42,0.53,0.44,0.37,0.47,0.43,0.23,0.42,0.44,0.52,0.44,0.42,0.27,0.31,0.27,0.43,0.37,0.23,0.35,0.48,0.48,0.48,0.48,0.23,0.82,0.69,0.53,0.23,0.47" style="fill:rgb(0,0,0);font-family:MinionPro-Regular;font-size:9.0px;stroke:none;">. Moreover, the initial discharge capacities (1653 mAh g</text>
   <text y="604.166" x="436.587" svgx:width="0.78" style="fill:rgb(0,0,0);font-family:EuclidSymbol;font-size:5.85px;stroke:none;">−</text>
   <text y="604.166" x="441.191" svgx:width="0.48" style="fill:rgb(0,0,0);font-family:MinionPro-Regular;font-size:5.85px;stroke:none;">1</text>
   <text y="607.226" x="444.045,447.231,449.319,451.776,455.151,457.239,462.117,464.601,468.947,473.789,477.686,481.097,483.185,486.056,490.907,494.849,499.844,501.932,504.803,509.645,513.542,515.63,518.501,523.343,527.284,531.838,535.132,539.029,541.891,544.375,548.281,552.349,554.626" svgx:width="0.35,0.23,0.27,0.37,0.23,0.53,0.27,0.47,0.53,0.43,0.37,0.23,0.31,0.53,0.44,0.55,0.23,0.31,0.53,0.43,0.23,0.31,0.53,0.43,0.51,0.37,0.43,0.31,0.27,0.42,0.44,0.25,0.23" style="fill:rgb(0,0,0);font-family:MinionPro-Regular;font-size:9.0px;stroke:none;">) is higher than the theoretical </text>
   <text y="617.225" x="155.64,159.474,163.254,168.014,171.965,175.772,178.076,180.848,184.979,186.869,191.351,194.015,195.905,200.117,205.04" svgx:width="0.42,0.44,0.52,0.44,0.42,0.27,0.31,0.46,0.23,0.51,0.3,0.23,0.47,0.55,0.75" style="fill:rgb(0,0,0);font-family:MinionPro-Regular;font-size:9.0px;stroke:none;">capacity of SnO</text>
   <text y="619.026" x="211.767" svgx:width="0.48" style="fill:rgb(0,0,0);font-family:MinionPro-Regular;font-size:5.85px;stroke:none;">2</text>
   <text y="617.226" x="214.575,216.465,219.579,223.899,228.219,232.539,236.859,237.984,245.355,251.601,256.407,258.297" svgx:width="0.23,0.35,0.48,0.48,0.48,0.48,0.23,0.82,0.69,0.53,0.23,0.47" style="fill:rgb(0,0,0);font-family:MinionPro-Regular;font-size:9.0px;stroke:none;"> (1494 mAh g</text>
   <text y="614.166" x="262.514" svgx:width="0.78" style="fill:rgb(0,0,0);font-family:EuclidSymbol;font-size:5.85px;stroke:none;">−</text>
   <text y="614.166" x="267.065" svgx:width="0.48" style="fill:rgb(0,0,0);font-family:MinionPro-Regular;font-size:5.85px;stroke:none;">1</text>
   <text y="617.226" x="269.873,272.987,274.877,278.747,283.634,288.386,290.276,294.533,297.872,301.652,306.305,311.075,314.9,319.787,323.612,325.502,328.769,333.539,337.409,341.234,343.979,345.869,348.983,353.303,357.623,361.943,363.077,370.448,376.694,381.5,383.39" svgx:width="0.35,0.23,0.44,0.55,0.53,0.23,0.47,0.37,0.44,0.52,0.53,0.43,0.55,0.43,0.23,0.37,0.53,0.43,0.43,0.31,0.23,0.35,0.48,0.48,0.48,0.23,0.82,0.69,0.53,0.23,0.47" style="fill:rgb(0,0,0);font-family:MinionPro-Regular;font-size:9.0px;stroke:none;">) and graphene sheet (744 mAh g</text>
   <text y="614.166" x="387.606" svgx:width="0.78" style="fill:rgb(0,0,0);font-family:EuclidSymbol;font-size:5.85px;stroke:none;">−</text>
   <text y="614.166" x="392.158" svgx:width="0.48" style="fill:rgb(0,0,0);font-family:MinionPro-Regular;font-size:5.85px;stroke:none;">1</text>
   <text y="617.226" x="394.966,398.08,400.132,402.022,408.25,413.056,415.468,419.221,424.027,425.917,429.751,433.621,438.544,440.434,445.087,448.912,450.802,454.582,457.237,460.027,463.42,465.795,470.269,474.939,477.63,481.5,486.252,488.142,490.833,495.423,497.313,500.112,504.882,508.707,510.597,515.043,519.291,523.422,527.561,531.386,536.309,538.199,542.006,546.488,551.411" svgx:width="0.35,0.23,0.23,0.69,0.53,0.27,0.42,0.53,0.23,0.42,0.44,0.55,0.23,0.51,0.43,0.23,0.44,0.31,0.31,0.37,0.27,0.51,0.53,0.31,0.43,0.53,0.23,0.31,0.51,0.23,0.31,0.53,0.43,0.23,0.51,0.47,0.46,0.47,0.43,0.55,0.23,0.42,0.51,0.55,0.36" style="fill:rgb(0,0,0);font-family:MinionPro-Regular;font-size:9.0px;stroke:none;">), which can be attributed to the oxygen con-</text>
   <text y="627.225" x="155.638,158.459,162.352,164.786,169.732,172.166,177.04,181.274,183.236,185.977,190.778,195.688,199.58,202.393,204.827,209.331,214.25,218.268,220.568,222.53,226.809,230.054,234.568,239.262,244.0,247.326,249.288,252.109,256.911,260.713,263.481,265.443,269.299,273.192,278.137,280.099,283.344,287.245,291.223,295.115,297.883,299.845,306.059,308.386,311.207,316.036,317.998,320.296,322.624,325.444,330.277,332.604,337.405,344.799,346.761,349.195,353.7,358.573,361.899,363.973,365.935,369.783,374.053,378.882,381.28,385.767,388.093,390.861,392.823,396.652,400.5,403.951,406.772,410.665,413.1,418.045,420.007,423.864,427.666,432.45,436.423,440.253,442.579,445.374,448.87,450.945,452.907,456.799,461.709,466.484,468.446,472.293,477.283,482.085,485.978,490.887,494.717,498.564,500.526,503.348,508.141,511.988,513.95,516.384,519.8,523.044,526.964,531.081,534.929,538.236,541.562,543.96,548.492,550.791,554.616" svgx:width="0.31,0.44,0.27,0.55,0.27,0.55,0.47,0.23,0.3,0.53,0.55,0.42,0.31,0.27,0.51,0.55,0.44,0.25,0.23,0.47,0.37,0.51,0.53,0.52,0.37,0.23,0.31,0.53,0.44,0.31,0.23,0.42,0.44,0.55,0.23,0.37,0.43,0.44,0.42,0.31,0.23,0.69,0.27,0.31,0.53,0.23,0.25,0.27,0.31,0.53,0.27,0.53,0.82,0.23,0.27,0.51,0.55,0.37,0.23,0.23,0.43,0.47,0.53,0.27,0.51,0.27,0.31,0.23,0.42,0.43,0.37,0.31,0.44,0.27,0.55,0.23,0.42,0.44,0.52,0.44,0.42,0.27,0.31,0.46,0.23,0.23,0.44,0.55,0.53,0.23,0.43,0.55,0.53,0.44,0.55,0.42,0.43,0.23,0.31,0.53,0.43,0.23,0.27,0.37,0.37,0.43,0.46,0.43,0.37,0.37,0.27,0.51,0.25,0.43,0.23" style="fill:rgb(0,0,0);font-family:MinionPro-Regular;font-size:9.0px;stroke:none;">taining functional groups that can react with lithium ions, exhibit certain capacity, and enhance the irreversible </text>
   <text y="637.224" x="155.638,159.472,163.252,168.012,171.963,175.77,178.074,180.846" svgx:width="0.42,0.44,0.52,0.44,0.42,0.27,0.31,0.46" style="fill:rgb(0,0,0);font-family:MinionPro-Regular;font-size:9.0px;stroke:none;">capacity</text>
   <text y="634.166" x="184.977,187.785" svgx:width="0.48,0.48" style="fill:rgb(0,0,0);font-family:MinionPro-Regular;font-size:5.85px;stroke:none;">50</text>
   <text y="637.226" x="190.593,192.645,194.562,202.428,206.253,208.17,213.057,217.548,220.239,224.064,225.981,228.78,233.559,237.339,240.084,242.001,244.8,249.57,253.395,256.617,260.442,262.359,268.524,272.448,275.751,277.668,281.538,286.461,288.378,290.79,295.677,299.484,302.706,306.585,310.509,313.884,317.709,319.626,324.108,326.772,328.689,331.488,336.258,340.083,342.0,345.834,349.614,354.374,358.325,362.132,364.436,367.208,371.339,373.256,377.738,380.402,382.319,385.118,389.888,393.713,395.63,401.822,406.088,412.523,417.284,419.201,423.071,428.255,432.08,435.419,437.336,440.135,444.905,448.73,450.647,454.967" svgx:width="0.23,0.23,0.97,0.43,0.23,0.55,0.51,0.31,0.43,0.23,0.31,0.53,0.44,0.31,0.23,0.31,0.53,0.43,0.37,0.43,0.23,0.69,0.44,0.37,0.23,0.44,0.55,0.23,0.27,0.55,0.42,0.37,0.43,0.44,0.37,0.43,0.23,0.51,0.3,0.23,0.31,0.53,0.43,0.23,0.42,0.44,0.52,0.44,0.42,0.27,0.31,0.46,0.23,0.51,0.3,0.23,0.31,0.53,0.43,0.23,0.69,0.47,0.71,0.53,0.23,0.44,0.58,0.43,0.37,0.23,0.31,0.53,0.43,0.23,0.48,0.48" style="fill:rgb(0,0,0);font-family:MinionPro-Regular;font-size:9.0px;stroke:none;">. We note that there was an increase of the capacity of the ASGF after the 38</text>
   <text y="634.166" x="459.263,461.082" svgx:width="0.31,0.53" style="fill:rgb(0,0,0);font-family:MinionPro-Regular;font-size:5.85px;stroke:none;">th</text>
   <text y="637.226" x="464.206,466.123,470.073,474.132,477.885,480.162,483.987,485.904,488.316,493.239,495.156,499.917,502.329,506.568,508.62,510.536,514.856,521.075,523.127,525.044,534.646,538.471,540.388,543.61,547.49,551.44" svgx:width="0.23,0.42,0.46,0.42,0.25,0.43,0.23,0.27,0.55,0.23,0.53,0.27,0.47,0.23,0.23,0.48,0.69,0.23,0.23,1.07,0.43,0.23,0.37,0.43,0.44,0.36" style="fill:rgb(0,0,0);font-family:MinionPro-Regular;font-size:9.0px;stroke:none;"> cycle in Fig. 5A. The rea-</text>
   <text y="647.225" x="155.641,159.016,163.498,168.349,171.652,173.542,180.886,184.675,188.806,190.696,195.475,199.264,203.359,207.184,209.074,211.846,217.939,222.529,224.419,227.002,231.529,233.806,238.531,241.834,243.886,245.776,250.096,253.21,255.1,257.899,262.669,266.494,268.384,273.136,276.925,279.228,283.017,287.076,290.946,295.698,297.588,300.0,304.923,309.783,311.952,314.741,318.08,321.86,324.65,327.062,331.544,336.467,338.357,342.839,345.503,347.393,350.192,354.962,358.787,360.677,364.466,366.743,370.613,374.483,377.273,380.495,385.022,387.236,391.367,394.058,397.883,399.773,402.185,406.937,409.628,414.218,416.108,418.907,423.677,427.502,429.392,434.288,438.158,443.045,447.572,452.171,456.41,460.874,464.267,466.679,471.404" svgx:width="0.37,0.51,0.55,0.37,0.23,0.82,0.44,0.46,0.23,0.53,0.44,0.46,0.43,0.23,0.31,0.69,0.51,0.23,0.3,0.51,0.25,0.53,0.37,0.23,0.23,0.48,0.35,0.23,0.31,0.53,0.43,0.23,0.53,0.43,0.25,0.44,0.46,0.43,0.53,0.23,0.27,0.55,0.54,0.25,0.31,0.37,0.44,0.31,0.27,0.51,0.55,0.23,0.51,0.3,0.23,0.31,0.53,0.43,0.23,0.43,0.25,0.43,0.42,0.31,0.37,0.51,0.25,0.46,0.31,0.43,0.23,0.27,0.55,0.31,0.51,0.23,0.31,0.53,0.43,0.23,0.55,0.44,0.55,0.51,0.53,0.46,0.51,0.37,0.27,0.53,0.37" style="fill:rgb(0,0,0);font-family:MinionPro-Regular;font-size:9.0px;stroke:none;">sons may have two folds: 1) the delayed infiltration of the electrolyte into the nanohybrids</text>
   <text y="644.166" x="474.674,477.483,478.816,481.624,484.432,485.766,488.574,491.382,492.716,495.524" svgx:width="0.48,0.23,0.48,0.48,0.23,0.48,0.48,0.23,0.48,0.48" style="fill:rgb(0,0,0);font-family:MinionPro-Regular;font-size:5.85px;stroke:none;">9,27,45,51</text>
   <text y="647.226" x="498.332,500.384,502.274,506.594,509.708,511.598,514.397,519.167,522.992,524.882,528.716,532.496,535.295,539.29,541.505,545.636,548.425,550.837,554.644" svgx:width="0.23,0.23,0.48,0.35,0.23,0.31,0.53,0.43,0.23,0.42,0.44,0.31,0.44,0.25,0.46,0.31,0.27,0.42,0.23" style="fill:rgb(0,0,0);font-family:MinionPro-Regular;font-size:9.0px;stroke:none;">; 2) the catalytic </text>
   <text y="657.225" x="155.639,159.473,163.252,168.013,171.891,176.355,178.812,181.089,183.393,186.164,190.295,192.032,196.514,199.178,200.915,203.713,208.483,212.308,214.045,218.256,223.179" svgx:width="0.42,0.44,0.52,0.44,0.51,0.27,0.25,0.27,0.31,0.46,0.23,0.51,0.3,0.23,0.31,0.53,0.43,0.23,0.47,0.55,0.75" style="fill:rgb(0,0,0);font-family:MinionPro-Regular;font-size:9.0px;stroke:none;">capability of the SnO</text>
   <text y="659.026" x="229.898" svgx:width="0.48" style="fill:rgb(0,0,0);font-family:MinionPro-Regular;font-size:5.85px;stroke:none;">2</text>
   <text y="657.226" x="232.706,234.443,238.313,243.2,247.952,249.689,253.901,258.824,260.561,265.457,269.326,274.213,278.704,283.464,287.334,290.763,293.552,295.964,299.716,301.993,305.818,309.121,310.858,315.466,318.688,323.358,328.002,332.781,336.588,340.458,345.21,346.947,351.59,356.369,359.761,362.173,367.024,371.236,372.973,375.772,380.542,384.367,386.104,390.055,394.114,397.866,400.143,402.555,407.405,411.617,413.354,417.962,421.184,425.855,429.662,433.487,436.745,440.048,441.785,444.476,449.066,450.803,454.628,459.524,463.403,467.912,470.189,474.014,475.751,478.973,482.869,486.964,490.789,494.074,497.377,499.752,504.261,506.538,510.363,512.1,515.907,520.389,525.105,529.199,533.024,536.308,539.611,542.023,546.504,551.355,554.658" svgx:width="0.23,0.44,0.55,0.53,0.23,0.47,0.55,0.23,0.55,0.44,0.55,0.51,0.52,0.44,0.37,0.31,0.27,0.42,0.25,0.43,0.37,0.23,0.52,0.37,0.51,0.53,0.53,0.42,0.43,0.53,0.23,0.53,0.53,0.37,0.27,0.55,0.47,0.23,0.31,0.53,0.43,0.23,0.42,0.46,0.42,0.25,0.27,0.55,0.47,0.23,0.52,0.37,0.51,0.42,0.43,0.37,0.37,0.23,0.31,0.51,0.23,0.43,0.55,0.44,0.51,0.25,0.43,0.23,0.37,0.43,0.46,0.43,0.37,0.37,0.27,0.51,0.25,0.43,0.23,0.42,0.51,0.55,0.46,0.43,0.37,0.37,0.27,0.51,0.55,0.37,0.23" style="fill:rgb(0,0,0);font-family:MinionPro-Regular;font-size:9.0px;stroke:none;"> and Sn nanoparticles produced during the cycling process to enable reversible conversions </text>
   <text y="667.225" x="155.639,160.12,162.785,164.62,167.419,172.189,176.014,177.85,182.008,187.12,190.189,192.025,194.329,198.118,202.177,206.002" svgx:width="0.51,0.3,0.23,0.31,0.53,0.43,0.23,0.47,0.57,0.34,0.23,0.25,0.44,0.46,0.43,0.37" style="fill:rgb(0,0,0);font-family:MinionPro-Regular;font-size:9.0px;stroke:none;">of the SEI layer</text>
   <text y="664.166" x="209.348,212.156" svgx:width="0.48,0.48" style="fill:rgb(0,0,0);font-family:MinionPro-Regular;font-size:5.85px;stroke:none;">52</text>
   <text y="667.226" x="214.964" svgx:width="0.23" style="fill:rgb(0,0,0);font-family:MinionPro-Regular;font-size:9.0px;stroke:none;">.</text>
   <text y="677.225" x="167.642,177.209,180.998,182.699,186.488,191.42,195.254,199.087,201.796,203.497,207.943,210.571,212.272,216.106,220.993,225.844,229.687,233.646,235.887,238.263,243.078,247.254,248.955,251.304,254.571,256.272,259.611,263.328,268.062,271.851,279.159,282.903,285.656,288.032,291.83,295.79,298.076,300.254,304.349,306.05,309.281,314.015,318.425,324.581,329.468,331.169,333.545,338.432,340.133,344.858,347.234,351.436,353.452,355.153,359.437,361.453,363.154,372.721,376.51,378.211,385.519,389.353,391.729,396.616,398.317,401.503,405.346,409.234,412.573,417.019,421.906,423.607,428.053,430.681,432.382,435.145,439.879,443.668,445.369,449.473,454.108,458.742,463.458,465.159,468.381,473.141,476.975,480.746,483.122,487.901,491.672,493.373,497.171,500.914,505.639,509.554,513.325,515.593,518.347,520.723,524.512,527.779,529.795,531.496,535.294,539.037,543.762,547.677,551.448" svgx:width="1.07,0.43,0.23,0.43,0.56,0.43,0.42,0.31,0.23,0.51,0.3,0.23,0.44,0.55,0.55,0.43,0.44,0.25,0.27,0.55,0.47,0.23,0.27,0.37,0.23,0.37,0.42,0.53,0.43,0.82,0.44,0.31,0.27,0.42,0.44,0.25,0.25,0.46,0.23,0.37,0.53,0.51,0.69,0.55,0.23,0.27,0.55,0.23,0.53,0.27,0.47,0.23,0.23,0.48,0.23,0.23,1.07,0.43,0.23,0.82,0.44,0.27,0.55,0.23,0.37,0.43,0.44,0.37,0.51,0.55,0.23,0.51,0.3,0.23,0.31,0.53,0.43,0.23,0.47,0.51,0.51,0.53,0.23,0.37,0.52,0.43,0.42,0.27,0.54,0.42,0.23,0.42,0.44,0.52,0.44,0.42,0.27,0.31,0.27,0.43,0.37,0.23,0.23,0.42,0.44,0.52,0.44,0.42,0.36" style="fill:rgb(0,0,0);font-family:MinionPro-Regular;font-size:9.0px;stroke:none;">The effect of annealing is schematically shown in Fig. 6. The main reason of the good specific capacities, capac-</text>
   <text y="687.224" x="155.645,157.949,160.721,164.852,166.67,169.892,173.717,176.408,180.233,184.985,187.775,190.187,194.669,199.592,201.41,205.28,210.167,214.919,216.737,219.995,222.794,226.673,231.137,233.594,235.871,238.175,240.947,245.078,246.896,251.378,254.042,255.86,262.052,266.318,272.753,277.514,279.332,281.717,285.02,286.838,289.637,294.406,298.231,300.049,303.352,307.51,312.397,316.222,319.488,323.745,326.13,329.388,332.178,334.59,338.397,340.215,344.04,349.008,352.878,356.747,359.492,361.31,365.963,369.788,372.559,378.652,382.522,386.347,391.27,393.088,395.887,400.657,404.482,406.3,412.735,417.001,418.819,422.689,427.577,432.329,434.147,438.359,443.282" svgx:width="0.27,0.31,0.46,0.23,0.37,0.43,0.31,0.43,0.55,0.31,0.27,0.51,0.55,0.23,0.44,0.55,0.53,0.23,0.37,0.31,0.44,0.51,0.27,0.25,0.27,0.31,0.46,0.23,0.51,0.3,0.23,0.69,0.47,0.71,0.53,0.23,0.27,0.37,0.23,0.31,0.53,0.43,0.23,0.37,0.46,0.55,0.43,0.37,0.47,0.27,0.37,0.31,0.27,0.42,0.23,0.43,0.56,0.43,0.42,0.31,0.23,0.51,0.43,0.31,0.69,0.43,0.43,0.55,0.23,0.31,0.53,0.43,0.23,0.71,0.47,0.23,0.44,0.55,0.53,0.23,0.47,0.55,0.75" style="fill:rgb(0,0,0);font-family:MinionPro-Regular;font-size:9.0px;stroke:none;">ity retention and stability of ASGF is the synergistic effect between the GS and SnO</text>
   <text y="689.026" x="449.989" svgx:width="0.48" style="fill:rgb(0,0,0);font-family:MinionPro-Regular;font-size:5.85px;stroke:none;">2</text>
   <text y="687.226" x="452.797,454.615,459.511,463.381,468.268,472.76,477.52,481.39,484.819,487.609,490.021,493.774,496.051,499.876,503.179,505.231,507.049,513.124,516.427,518.245,522.142,526.336,528.748,533.5,537.325,542.212,546.019,549.889,554.641" svgx:width="0.23,0.55,0.44,0.55,0.51,0.52,0.44,0.37,0.31,0.27,0.42,0.25,0.43,0.37,0.23,0.23,0.69,0.37,0.23,0.43,0.46,0.27,0.53,0.43,0.55,0.42,0.43,0.53,0.23" style="fill:rgb(0,0,0);font-family:MinionPro-Regular;font-size:9.0px;stroke:none;"> nanoparticles. As evidenced </text>
   <text y="697.225" x="155.635,158.092,163.06,165.053,167.896,172.711,176.581,178.575,184.506,189.618,193.929,195.922,200.746,204.57,207.414,211.41,213.507,215.5,221.736,224.084,226.927,231.742,236.278,240.993,243.783,245.776,249.69,254.658,259.59,263.513,267.553,269.875,272.332,277.228,281.484,283.478,286.321,291.135,295.005,298.272,302.142,304.136,308.05,311.316,315.186,317.179,322.111,326.746,328.74,332.537,337.351,341.221,348.637,351.094,354.972,359.012,361.334,363.328,368.025,372.552,377.483,382.252,385.6,387.594,392.291,396.161,398.977,405.114,409.028,412.898,417.866,419.859,422.703,427.517,431.387,433.38,437.636,442.604" svgx:width="0.27,0.55,0.23,0.31,0.53,0.43,0.23,0.65,0.56,0.47,0.23,0.53,0.44,0.31,0.44,0.23,0.23,0.69,0.27,0.31,0.53,0.51,0.53,0.31,0.23,0.44,0.55,0.55,0.43,0.44,0.25,0.27,0.55,0.47,0.23,0.31,0.53,0.43,0.37,0.43,0.23,0.44,0.37,0.43,0.23,0.55,0.51,0.23,0.42,0.53,0.43,0.82,0.27,0.42,0.44,0.25,0.23,0.51,0.51,0.55,0.53,0.37,0.23,0.51,0.43,0.31,0.69,0.43,0.43,0.55,0.23,0.31,0.53,0.43,0.23,0.47,0.55,0.75" style="fill:rgb(0,0,0);font-family:MinionPro-Regular;font-size:9.0px;stroke:none;">in the XPS data, without annealing there are no chemical bonds between the SnO</text>
   <text y="699.026" x="449.356" svgx:width="0.48" style="fill:rgb(0,0,0);font-family:MinionPro-Regular;font-size:5.85px;stroke:none;">2</text>
   <text y="697.226" x="452.193,454.186,459.126,463.041,467.972,472.507,477.312,481.226,484.7,487.534,489.991,493.788,496.11,499.98,503.328,505.321,509.235,514.166,518.963,520.957,523.801,528.615,532.485,534.478,540.958,545.269,547.263,549.72,554.643" svgx:width="0.23,0.55,0.44,0.55,0.51,0.52,0.44,0.37,0.31,0.27,0.42,0.25,0.43,0.37,0.23,0.44,0.55,0.53,0.23,0.31,0.53,0.43,0.23,0.71,0.47,0.23,0.27,0.55,0.23" style="fill:rgb(0,0,0);font-family:MinionPro-Regular;font-size:9.0px;stroke:none;"> nanoparticles and the GS in </text>
   <text y="707.225" x="155.634,158.431,163.198,167.023,168.76,173.026,179.461,183.229,185.281,187.018,194.882,198.759,202.752,207.216,208.953,211.365,216.114,218.804,222.629,225.968,229.919,233.787,236.574,238.986,243.465,248.315,251.618,253.355,256.611,261.39,265.141,269.947,271.684,275.606,278.909,280.646,285.243,289.3,294.052,297.272,301.862,306.0,309.825,314.748,316.485,321.135,325.616,330.5,335.223,338.526,340.263,344.131,349.016,353.768,356.747,361.227,364.566,366.303,370.47,374.338,379.261,380.998,385.75,389.575,392.914,394.651,402.497,406.448,410.442,412.69,415.993,417.73,420.311,424.79,428.01,431.817,435.642,437.379,442.156,445.943,450.035,453.86,455.597,460.248,464.115,467.94,472.863,474.6,477.856,482.635,486.899,491.037,494.862,498.117,500.806,504.673" svgx:width="0.31,0.53,0.43,0.23,0.47,0.71,0.53,0.23,0.23,0.97,0.43,0.44,0.5,0.23,0.27,0.55,0.31,0.43,0.37,0.44,0.42,0.31,0.27,0.51,0.55,0.37,0.23,0.37,0.53,0.42,0.53,0.23,0.44,0.37,0.23,0.53,0.46,0.53,0.37,0.51,0.47,0.43,0.55,0.23,0.51,0.51,0.55,0.53,0.37,0.23,0.44,0.55,0.53,0.33,0.51,0.37,0.23,0.46,0.44,0.55,0.23,0.53,0.43,0.37,0.23,0.97,0.44,0.44,0.25,0.37,0.23,0.3,0.51,0.37,0.42,0.43,0.23,0.53,0.44,0.46,0.43,0.23,0.51,0.43,0.43,0.55,0.23,0.37,0.53,0.47,0.47,0.43,0.37,0.31,0.43,0.53" style="fill:rgb(0,0,0);font-family:MinionPro-Regular;font-size:9.0px;stroke:none;">the SGF. Weak interactions such as hydrogen bonds and/or van der Waals force have been suggested</text>
   <text y="704.166" x="509.305" svgx:width="0.48" style="fill:rgb(0,0,0);font-family:MinionPro-Regular;font-size:5.85px;stroke:none;">9</text>
   <text y="707.226" x="512.112,514.164,515.901,518.698,523.465,527.29,530.662,534.487,536.224,542.315,546.192,550.185,554.649" svgx:width="0.23,0.23,0.31,0.53,0.43,0.37,0.43,0.23,0.69,0.43,0.44,0.5,0.23" style="fill:rgb(0,0,0);font-family:MinionPro-Regular;font-size:9.0px;stroke:none;">; these weak </text>
   <text y="717.225" x="155.64,158.025,162.75,165.416,169.214,172.526,176.45,180.294,183.058,185.443,189.9,194.725,198.001,199.711,207.029,210.792,214.896,216.606,220.413,224.167,228.894,232.243,236.041,237.751,242.476,246.274,249.047,252.971,256.699,261.478,268.787,272.585,277.311,280.029,281.739,285.582,290.444,295.169,296.879,299.129,303.692,306.924,310.2,311.91,316.366,319.003,320.713,324.899,329.795" svgx:width="0.27,0.55,0.31,0.43,0.37,0.44,0.42,0.31,0.27,0.51,0.55,0.37,0.23,0.82,0.44,0.46,0.23,0.42,0.44,0.53,0.37,0.43,0.23,0.53,0.43,0.31,0.44,0.42,0.53,0.82,0.43,0.55,0.31,0.23,0.44,0.55,0.53,0.23,0.25,0.51,0.37,0.37,0.23,0.51,0.3,0.23,0.47,0.55,0.75" style="fill:rgb(0,0,0);font-family:MinionPro-Regular;font-size:9.0px;stroke:none;">interactions may cause detachment and loss of SnO</text>
   <text y="719.026" x="336.513" svgx:width="0.48" style="fill:rgb(0,0,0);font-family:MinionPro-Regular;font-size:5.85px;stroke:none;">2</text>
   <text y="717.226" x="339.304,341.014,345.884,349.728,354.59,359.054,363.789,367.633,371.036,373.8,376.185,379.912,382.162,385.96,389.236,390.946,395.564,400.316,403.683,406.068,410.893,415.078,416.788,421.658" svgx:width="0.23,0.55,0.44,0.55,0.51,0.52,0.44,0.37,0.31,0.27,0.42,0.25,0.43,0.37,0.23,0.53,0.53,0.37,0.27,0.55,0.47,0.23,0.54,0.27" style="fill:rgb(0,0,0);font-family:MinionPro-Regular;font-size:9.0px;stroke:none;"> nanoparticles during Li</text>
   <text y="714.166" x="424.053" svgx:width="0.78" style="fill:rgb(0,0,0);font-family:EuclidSymbol;font-size:5.85px;stroke:none;">+</text>
   <text y="717.226" x="428.586,430.296,432.681,437.506,440.854,444.652,448.055,450.819,453.204,457.66,462.556,464.266,468.11,472.971,477.696,479.406,483.204,487.425,490.19,493.502,497.426,501.27,504.034,506.419,510.875,515.771,517.796,519.506,521.756,525.608,529.532,534.257,536.642,541.468,545.653,547.363,550.029,554.619" svgx:width="0.23,0.27,0.55,0.37,0.43,0.37,0.31,0.27,0.51,0.55,0.23,0.44,0.55,0.53,0.23,0.43,0.47,0.31,0.37,0.44,0.42,0.31,0.27,0.51,0.55,0.23,0.23,0.25,0.43,0.44,0.53,0.27,0.55,0.47,0.23,0.31,0.51,0.23" style="fill:rgb(0,0,0);font-family:MinionPro-Regular;font-size:9.0px;stroke:none;"> insertion and extraction, leading to </text>
   <text y="727.225" x="155.634,160.35,164.186,167.984,171.74,175.863,178.239,183.056,187.232,188.933,192.732,196.477,201.204,205.119,208.89,211.16,213.897,217.992,219.693,224.303,229.046,232.405,234.781,239.597,243.773,245.474,249.39,253.416,257.134,259.375,261.751,266.568,270.772,272.788,274.489,280.647,285.797,289.586,292.889,294.59,298.426,303.313,308.166,312.01,315.972,318.213,320.589,325.406,329.61,331.626,333.327,337.775,342.662,344.363,348.134,352.581,357.299,360.055,363.358,367.249,370.472,373.181,375.197,376.898,380.617,385.352,389.141,396.476,398.852,402.652,406.614,408.855,410.556,415.175,419.622,424.475,429.166,432.433,434.134,437.212,439.536,441.552,445.289,447.305,449.006,453.184,458.07,461.238,467.926,471.094,477.043,478.743,483.362,487.81,492.663,497.354,500.621,503.699,505.4,507.948,512.396,515.755,523.09,524.791,529.41,533.199,535.936,541.995,545.83,549.619,554.542" svgx:width="0.53,0.43,0.42,0.44,0.46,0.27,0.55,0.47,0.23,0.42,0.44,0.52,0.44,0.42,0.27,0.31,0.46,0.23,0.53,0.53,0.37,0.27,0.55,0.47,0.23,0.42,0.46,0.42,0.25,0.27,0.55,0.47,0.23,0.23,0.69,0.58,0.43,0.37,0.23,0.44,0.55,0.55,0.43,0.44,0.25,0.27,0.55,0.47,0.23,0.23,0.51,0.55,0.23,0.42,0.51,0.55,0.31,0.37,0.44,0.37,0.31,0.23,0.23,0.42,0.53,0.43,0.82,0.27,0.42,0.44,0.25,0.23,0.51,0.51,0.55,0.53,0.37,0.23,0.35,0.27,0.23,0.43,0.23,0.23,0.47,0.55,0.36,0.75,0.36,0.67,0.23,0.51,0.51,0.55,0.53,0.37,0.35,0.23,0.3,0.51,0.37,0.82,0.23,0.51,0.43,0.31,0.69,0.43,0.43,0.55,0.23" style="fill:rgb(0,0,0);font-family:MinionPro-Regular;font-size:9.0px;stroke:none;">decaying capacity during cycling. After annealing, on contrast, chemical bonds (i.e. Sn-O-C bonds) form between </text>
  </g>
  <rect style="stroke:blue;stroke-width:0.3;" x="155.638" y="64.138" height="303.84" width="396.0" title="6"/>
  <text y="64.138" class="image" id="image.6.1" width="396" height="303" x="155.638">image.6.1.156_552.64_368</text>
  <path style="fill:none;stroke:rgb(131,144,151);stroke-width:0.3;" d="M159.130 399.450 L552.640 399.450 "/>
  <path style="fill:none;stroke:rgb(131,144,151);stroke-width:1.0;" d="M156.140 399.450 L156.140 399.450 M554.140 399.450 L554.140 399.450 "/>
  <g begin="text">
   <text y="369.447" x="155.638,160.552,163.207,167.662,172.657,176.221,180.154,181.909,186.409" svgx:width="0.55,0.29,0.49,0.56,0.4,0.44,0.22,0.5,0.25" style="fill:rgb(0,0,0);font-family:MinionPro-Bold;font-size:9.0px;stroke:none;">Figure 5.</text>
   <text y="369.447" x="188.695,190.765,193.195,199.081,203.14,206.893,209.17,211.582,216.433,220.645,222.481,227.278,231.103,234.496,237.079,241.561,244.954,252.298,256.168,261.055,264.862,268.687,271.99,273.826,278.308,280.972,282.808,289.0,293.266,299.701,303.472,305.524,307.36,311.626,318.061,321.832,323.884,325.72,329.59,334.477,339.229,341.065,345.682,350.461,353.683,357.508,359.344,363.556,368.479" svgx:width="0.23,0.55,0.67,0.46,0.42,0.25,0.27,0.55,0.47,0.23,0.52,0.43,0.37,0.3,0.51,0.37,0.82,0.44,0.55,0.42,0.43,0.37,0.23,0.51,0.3,0.23,0.69,0.47,0.71,0.53,0.23,0.23,0.47,0.71,0.53,0.23,0.23,0.44,0.55,0.53,0.23,0.52,0.53,0.37,0.43,0.23,0.47,0.55,0.75" style="fill:rgb(0,0,0);font-family:MinionPro-Regular;font-size:9.0px;stroke:none;"> Cycling performances of ASGF, SGF, and pure SnO</text>
   <text y="371.247" x="375.221" svgx:width="0.48" style="fill:rgb(0,0,0);font-family:MinionPro-Regular;font-size:5.85px;stroke:none;">2</text>
   <text y="369.447" x="378.029,379.865,384.761,388.631,393.518,398.009,402.77,406.64,410.069,412.859,415.271,419.024,421.301,425.126,428.429,430.265,434.045,436.79,438.626,441.884,446.68,450.55,454.357,456.769,461.584,465.391,467.227,471.096,475.875,479.268,482.49,486.315,491.067,493.812,497.115,498.951,503.433,506.097,507.933,512.253,516.573,520.893,522.029,529.4,535.619,537.455" svgx:width="0.23,0.55,0.44,0.55,0.51,0.52,0.44,0.37,0.31,0.27,0.42,0.25,0.43,0.37,0.23,0.44,0.31,0.23,0.37,0.52,0.43,0.42,0.27,0.54,0.42,0.23,0.42,0.53,0.37,0.37,0.43,0.55,0.31,0.37,0.23,0.51,0.3,0.23,0.48,0.48,0.48,0.23,0.82,0.69,0.23,0.47" style="fill:rgb(0,0,0);font-family:MinionPro-Regular;font-size:9.0px;stroke:none;"> nanoparticles at specific currents of 200 mA g</text>
   <text y="366.387" x="541.674" svgx:width="0.78" style="fill:rgb(0,0,0);font-family:EuclidSymbol;font-size:5.85px;stroke:none;">−</text>
   <text y="366.387" x="546.225" svgx:width="0.48" style="fill:rgb(0,0,0);font-family:MinionPro-Regular;font-size:5.85px;stroke:none;">1</text>
   <text y="369.447" x="549.033" svgx:width="0.23" style="fill:rgb(0,0,0);font-family:MinionPro-Regular;font-size:9.0px;stroke:none;"> </text>
   <text y="379.446" x="155.634" svgx:width="0.35" style="fill:rgb(0,0,0);font-family:MinionPro-Regular;font-size:9.0px;stroke:none;">(</text>
   <text y="379.446" x="158.748" svgx:width="0.71" style="fill:rgb(0,0,0);font-family:MinionPro-Bold;font-size:9.0px;stroke:none;">A</text>
   <text y="379.446" x="165.102,168.216,170.052,173.922,178.809,183.561,185.397,189.717,194.037,198.357,202.677,203.811,211.182,217.401,219.237" svgx:width="0.35,0.23,0.44,0.55,0.53,0.23,0.48,0.48,0.48,0.48,0.23,0.82,0.69,0.23,0.47" style="fill:rgb(0,0,0);font-family:MinionPro-Regular;font-size:9.0px;stroke:none;">) and 1000 mA g</text>
   <text y="376.387" x="223.451" svgx:width="0.78" style="fill:rgb(0,0,0);font-family:EuclidSymbol;font-size:5.85px;stroke:none;">−</text>
   <text y="376.387" x="228.003" svgx:width="0.48" style="fill:rgb(0,0,0);font-family:MinionPro-Regular;font-size:5.85px;stroke:none;">1</text>
   <text y="379.447" x="230.811,232.646" svgx:width="0.23,0.35" style="fill:rgb(0,0,0);font-family:MinionPro-Regular;font-size:9.0px;stroke:none;"> (</text>
   <text y="379.447" x="235.76" svgx:width="0.64" style="fill:rgb(0,0,0);font-family:MinionPro-Bold;font-size:9.0px;stroke:none;">B</text>
   <text y="379.447" x="241.493,244.607,246.66,248.495,251.835,255.614,258.305,262.13,263.966,267.8,271.58,276.341,280.22,284.683,287.14,289.417,291.721,294.493,298.624,300.46,304.942,307.606,309.442,315.634,319.9,326.335,331.096,332.932,336.802,341.69,346.442,348.278,352.544,358.979,363.74,365.576,369.356,372.101,373.937,377.807,382.586,385.978,389.2,393.025,397.777,400.522,402.358,407.11,410.935,415.786,419.089,421.393,424.183,426.595,430.42,433.723,435.559,438.313,441.535,446.017,453.388,455.224,459.544,463.864,468.184,469.338,476.709,482.928,484.764" svgx:width="0.35,0.23,0.23,0.37,0.44,0.31,0.43,0.23,0.42,0.44,0.52,0.44,0.51,0.27,0.25,0.27,0.31,0.46,0.23,0.51,0.3,0.23,0.69,0.47,0.71,0.53,0.23,0.44,0.55,0.53,0.23,0.47,0.71,0.53,0.23,0.44,0.31,0.23,0.42,0.53,0.37,0.37,0.43,0.55,0.31,0.23,0.53,0.43,0.55,0.37,0.27,0.31,0.27,0.43,0.37,0.23,0.3,0.37,0.51,0.82,0.23,0.48,0.48,0.48,0.23,0.82,0.69,0.23,0.47" style="fill:rgb(0,0,0);font-family:MinionPro-Regular;font-size:9.0px;stroke:none;">); rate capability of ASGF and SGF at current densities from 100 mA g</text>
   <text y="376.387" x="488.979" svgx:width="0.78" style="fill:rgb(0,0,0);font-family:EuclidSymbol;font-size:5.85px;stroke:none;">−</text>
   <text y="376.387" x="493.53" svgx:width="0.48" style="fill:rgb(0,0,0);font-family:MinionPro-Regular;font-size:5.85px;stroke:none;">1</text>
   <text y="379.447" x="496.338,498.174,500.865,505.455,507.291,511.611,515.931,520.251,524.571,525.705,533.076,539.295,541.131" svgx:width="0.23,0.31,0.51,0.23,0.48,0.48,0.48,0.48,0.23,0.82,0.69,0.23,0.47" style="fill:rgb(0,0,0);font-family:MinionPro-Regular;font-size:9.0px;stroke:none;"> to 3000 mA g</text>
   <text y="376.387" x="545.341" svgx:width="0.78" style="fill:rgb(0,0,0);font-family:EuclidSymbol;font-size:5.85px;stroke:none;">−</text>
   <text y="376.387" x="549.893" svgx:width="0.48" style="fill:rgb(0,0,0);font-family:MinionPro-Regular;font-size:5.85px;stroke:none;">1</text>
   <text y="379.447" x="552.701" svgx:width="0.23" style="fill:rgb(0,0,0);font-family:MinionPro-Regular;font-size:9.0px;stroke:none;"> </text>
   <text y="389.446" x="155.639" svgx:width="0.35" style="fill:rgb(0,0,0);font-family:MinionPro-Regular;font-size:9.0px;stroke:none;">(</text>
   <text y="389.446" x="158.753" svgx:width="0.68" style="fill:rgb(0,0,0);font-family:MinionPro-Bold;font-size:9.0px;stroke:none;">C</text>
   <text y="389.446" x="164.837,167.951,170.003,171.839,177.824,184.151,185.987,189.857,194.636,198.236,202.331,206.156,209.459,211.295,215.777,218.441,220.277,223.076,227.846,231.671,233.507,238.322,241.607,244.864,247.609,249.445,252.244,257.05,260.272,264.142,267.967,269.803,273.754,277.813,281.565,283.842,287.667,290.97,292.806,297.288,299.952,301.788,307.98,312.246,318.681,323.442,325.278,329.058,331.803,333.639,337.59,339.426,342.801,346.635,350.505,355.428,360.351,362.763,367.614,371.826,373.662,377.001,380.781,383.472,387.297,389.133,393.615,396.279,398.115,402.435,404.487,408.807,409.97,417.341,423.668,425.504" svgx:width="0.35,0.23,0.23,0.67,0.7,0.23,0.42,0.53,0.37,0.46,0.43,0.37,0.23,0.51,0.3,0.23,0.31,0.53,0.43,0.23,0.54,0.37,0.37,0.31,0.23,0.31,0.53,0.37,0.43,0.43,0.23,0.42,0.46,0.42,0.25,0.43,0.37,0.23,0.51,0.3,0.23,0.69,0.47,0.71,0.53,0.23,0.44,0.31,0.23,0.44,0.23,0.37,0.42,0.44,0.55,0.55,0.27,0.55,0.47,0.23,0.37,0.44,0.31,0.43,0.23,0.51,0.3,0.23,0.48,0.23,0.48,0.23,0.82,0.7,0.23,0.37" style="fill:rgb(0,0,0);font-family:MinionPro-Regular;font-size:9.0px;stroke:none;">); CV curves of the first three cycles of ASGF at a scanning rate of 0.5 mV s</text>
   <text y="386.387" x="428.808" svgx:width="0.78" style="fill:rgb(0,0,0);font-family:EuclidSymbol;font-size:5.85px;stroke:none;">−</text>
   <text y="386.387" x="433.359" svgx:width="0.48" style="fill:rgb(0,0,0);font-family:MinionPro-Regular;font-size:5.85px;stroke:none;">1</text>
   <text y="389.447" x="436.167,438.003" svgx:width="0.23,0.35" style="fill:rgb(0,0,0);font-family:MinionPro-Regular;font-size:9.0px;stroke:none;"> (</text>
   <text y="389.447" x="441.117" svgx:width="0.76" style="fill:rgb(0,0,0);font-family:MinionPro-Bold;font-size:9.0px;stroke:none;">D</text>
   <text y="389.447" x="447.966,451.08" svgx:width="0.35,0.23" style="fill:rgb(0,0,0);font-family:MinionPro-Regular;font-size:9.0px;stroke:none;">).</text>
  </g>
 </g>
</svg>
