<?xml version="1.0" encoding="UTF-8"?>
<svg height="774.23" width="4165.638" xmlns="http://www.w3.org/2000/svg">
 <g id="page" xmlns:svgx="http://www.xml-cml.org/schema/svgx">
  <g begin="text">
   <text y="22.46" x="40.638,48.208,55.778,63.055,66.145,71.865,77.215,81.135,86.765,90.565,95.995,99.085,103.915,109.695,118.435,121.635,126.125,130.955,133.725,139.15,144.87,148.79,151.56,155.19,157.96,162.79,166.59,172.02,177.78,183.56,187.36,191.28,195.77" svgx:width="0.71,0.71,0.71,0.26,0.53,0.49,0.35,0.52,0.34,0.5,0.26,0.44,0.53,0.83,0.28,0.4,0.44,0.23,0.5,0.53,0.35,0.23,0.32,0.23,0.44,0.34,0.5,0.53,0.53,0.34,0.35,0.4,0.28" style="fill:rgb(255,255,255);font-family:Corbel;font-size:10.0px;stroke:none;">www.nature.com/scientificreports/</text>
  </g>
  <g begin="text">
   <text y="764.23" x="549.472" svgx:width="0.52" style="fill:rgb(131,144,151);font-family:Corbel;font-size:10.0px;stroke:none;">4</text>
  </g>
  <g begin="text">
   <text y="764.193" x="40.794,45.642,50.786,53.186,58.026,64.026,68.898,71.298,75.762,78.162" svgx:width="0.55,0.59,0.25,0.55,0.7,0.56,0.25,0.5,0.25,0.59" style="fill:rgb(131,144,151);font-family:Corbel;font-size:8.0px;stroke:none;">Scientific</text>
   <text y="764.193" x="83.162" svgx:width="0.2" style="fill:rgb(0,0,0);font-family:Corbel;font-size:8.0px;stroke:none;"> </text>
   <text y="764.193" x="84.762,90.218,95.194,100.434,106.738,112.194,117.186" svgx:width="0.63,0.57,0.6,0.73,0.63,0.57,0.58" style="fill:rgb(131,144,151);font-family:Corbel-Bold;font-size:8.0px;stroke:none;">RepoRts</text>
   <text y="764.193" x="122.082,123.524,125.34,126.781,130.885,132.997,137.101,141.205,145.309,149.413,153.517,154.945,156.761,158.203,163.571,169.411,171.379,173.491,174.93,179.034,183.138,185.25,189.354,193.458,197.562,201.666,203.866,207.098,209.778,213.762,218.01,222.114,226.218,230.322,234.426" svgx:width="0.2,0.23,0.2,0.51,0.26,0.51,0.51,0.51,0.51,0.51,0.2,0.23,0.2,0.67,0.73,0.25,0.26,0.2,0.51,0.51,0.26,0.51,0.51,0.51,0.51,0.28,0.4,0.34,0.5,0.53,0.51,0.51,0.51,0.51,0.51" style="fill:rgb(0,0,0);font-family:Corbel;font-size:8.0px;stroke:none;"> | 6:19195 | DOI: 10.1038/srep19195</text>
  </g>
  <path style="fill:none;stroke:rgb(0,0,0);stroke-width:1.0;" d="M40.640 752.550 L554.640 752.550 "/>
  <g begin="text">
   <text y="382.0" x="167.638,177.349,181.282,183.496,186.862,191.749,195.25,198.022,202.081,205.996,209.929,212.143,216.004,220.881,224.814,232.293,234.786,238.151,241.049,244.756,248.995,251.209,255.798,258.57,260.784,263.69,268.568,272.501,274.715,281.015,285.389,291.932,296.801,299.015,305.288,309.32,312.731,314.945,318.806,323.693,327.671,331.118,335.177,339.155,341.953,345.886,349.386,351.906,355.794,359.771,364.631,366.845,371.705,375.116,377.636,382.594,386.914,389.128,395.122,400.297,404.671,406.885,410.863,415.857,420.717,422.931,425.837,430.715,434.648,436.862,440.192,444.125,447.491,452.422,454.699,457.552,460.963,463.177,467.154,470.484,474.417,476.631,481.491,485.424,490.14,492.66,496.638,499.436,503.414,508.274,510.488,513.008,518.039,520.253,525.122,527.642,531.988,534.148,536.363,540.791,542.951,545.165,551.348,554.651" svgx:width="1.07,0.43,0.23,0.37,0.53,0.37,0.3,0.44,0.42,0.43,0.23,0.42,0.53,0.43,0.82,0.27,0.37,0.31,0.37,0.46,0.23,0.51,0.3,0.23,0.31,0.53,0.43,0.23,0.69,0.47,0.71,0.53,0.23,0.69,0.44,0.37,0.23,0.42,0.53,0.44,0.37,0.44,0.42,0.31,0.43,0.37,0.27,0.42,0.43,0.53,0.23,0.53,0.37,0.27,0.55,0.47,0.23,0.65,0.56,0.47,0.23,0.44,0.55,0.53,0.23,0.31,0.53,0.43,0.23,0.37,0.43,0.37,0.53,0.25,0.31,0.37,0.23,0.44,0.37,0.43,0.23,0.53,0.43,0.52,0.27,0.42,0.31,0.43,0.53,0.23,0.27,0.55,0.23,0.53,0.27,0.47,0.23,0.23,0.48,0.23,0.23,0.69,0.37,0.23" style="fill:rgb(0,0,0);font-family:MinionPro-Regular;font-size:9.0px;stroke:none;">The surface chemistry of the ASGF was characterized using XPS and the results are depicted in Fig. 4. As </text>
   <text y="391.999" x="155.641,158.871,163.604,168.012,174.168,179.055,180.756,183.132,188.019,189.72,194.445,196.821,201.023,203.039,204.738,209.022,215.205,217.221,218.922,221.683,226.416,230.205,231.906,236.008,239.797,244.647,248.436,251.739,255.698,257.939,259.64,265.49,270.521,274.751,276.452,279.673,284.432,288.265,292.098,294.85,298.242,302.985,310.32,312.021,316.593,319.778,324.187,328.245,332.034,335.301,337.002,339.763,344.496,348.285,349.986,354.557,357.742,361.531,364.869,368.658,373.509,377.28,381.069,382.77,387.215,389.843,391.544,395.341,399.174,402.477,407.093,411.538,416.425,418.441,420.142,424.551,428.763,432.858,436.96,440.749,445.636,447.337,451.17,456.021,460.737,462.438,465.191,467.567,472.454,474.47,476.171,480.004,484.854,489.57,491.271,496.121,500.675,502.376,506.83,509.592,514.325,518.114,521.417,523.118,526.87,529.111,532.9,540.197,543.986,548.702,551.411,554.714" svgx:width="0.37,0.53,0.51,0.69,0.55,0.23,0.27,0.55,0.23,0.53,0.27,0.47,0.23,0.23,0.48,0.69,0.23,0.23,0.31,0.53,0.43,0.23,0.47,0.43,0.55,0.43,0.37,0.44,0.25,0.23,0.65,0.56,0.47,0.23,0.37,0.52,0.43,0.42,0.31,0.37,0.53,0.82,0.23,0.52,0.37,0.51,0.46,0.43,0.37,0.23,0.31,0.53,0.43,0.23,0.52,0.37,0.43,0.37,0.43,0.55,0.42,0.43,0.23,0.51,0.3,0.23,0.42,0.44,0.37,0.51,0.51,0.55,0.23,0.23,0.51,0.47,0.46,0.47,0.43,0.55,0.23,0.44,0.55,0.53,0.23,0.31,0.27,0.55,0.23,0.23,0.44,0.55,0.53,0.23,0.55,0.51,0.23,0.51,0.31,0.53,0.43,0.37,0.23,0.43,0.25,0.43,0.82,0.43,0.55,0.31,0.37,0.23" style="fill:rgb(0,0,0);font-family:MinionPro-Regular;font-size:9.0px;stroke:none;">shown in Fig. 4A, the general XPS spectrum proves the presence of carbon, oxygen and tin, and no other elements </text>
   <text y="401.998" x="155.641,159.529,162.769,166.612,168.574,173.344,177.187,179.896,183.784,187.672,190.381,194.268,198.984,201.054,203.016,212.637,216.48,218.442,223.257,227.154,231.168,235.65,238.971,240.933,245.433,248.115,250.077,254.307,259.248,261.21,265.548,270.264,272.334,274.296,278.634,283.35,285.42,287.382,291.72,296.454,298.416,302.304,307.209,311.979,313.941,318.279,321.6,323.562,326.334,329.574,334.074,341.463,343.425,347.655,352.596" svgx:width="0.44,0.37,0.43,0.23,0.53,0.43,0.31,0.43,0.42,0.31,0.43,0.53,0.23,0.23,1.07,0.43,0.23,0.52,0.43,0.44,0.5,0.37,0.23,0.51,0.3,0.23,0.47,0.55,0.23,0.48,0.53,0.23,0.23,0.48,0.53,0.23,0.23,0.48,0.52,0.23,0.44,0.55,0.53,0.23,0.48,0.37,0.23,0.3,0.37,0.51,0.82,0.23,0.47,0.55,0.75" style="fill:rgb(0,0,0);font-family:MinionPro-Regular;font-size:9.0px;stroke:none;">are detected. The peaks of Sn 3d, 4d, 3p and 4s from SnO</text>
   <text y="403.8" x="359.293" svgx:width="0.48" style="fill:rgb(0,0,0);font-family:MinionPro-Regular;font-size:5.85px;stroke:none;">2</text>
   <text y="402.0" x="362.113,364.075,367.963,371.203,375.046,377.008,381.571,386.161,389.554,393.397,397.015,401.128,405.016,409.732,411.802,413.764,423.385,427.228,429.19,434.004,437.901,441.915,446.397,448.359,452.859,455.541,457.503,463.506,465.468,469.806,473.127,475.089,477.492,480.813,482.775,486.573,489.246,492.053,495.464,497.858,502.349,507.038,509.747,513.635,518.405,520.367,527.729,531.617,534.047,539.033,541.265,545.414,547.376,550.086,554.675" svgx:width="0.23,0.44,0.37,0.43,0.23,0.51,0.51,0.37,0.43,0.37,0.46,0.43,0.53,0.23,0.23,1.07,0.43,0.23,0.52,0.43,0.44,0.5,0.23,0.51,0.3,0.23,0.67,0.23,0.48,0.37,0.23,0.27,0.37,0.23,0.44,0.31,0.31,0.37,0.27,0.51,0.53,0.31,0.43,0.53,0.23,0.82,0.44,0.27,0.55,0.25,0.46,0.23,0.31,0.51,0.23" style="fill:rgb(0,0,0);font-family:MinionPro-Regular;font-size:9.0px;stroke:none;"> are observed. The peak of C 1s is attributed mainly to </text>
   <text y="411.999" x="155.635,159.892,163.231,167.011,171.664,176.434,180.259,185.145,188.916,190.968,192.795,202.398,206.223,208.05,212.262,217.185,219.012,223.332,228.084,229.911,233.169,237.966,241.836,245.705,248.495,251.834,255.785,257.612,262.094,264.758,266.585,271.238,275.729,278.528,283.334,285.161,289.427,295.862,300.623,302.45,306.321,311.208,315.96,317.787,323.979,328.245,334.68,338.451,340.503,342.33,346.254,349.557,351.384,354.651,359.421,363.867,370.058,374.981,376.808,379.22,384.143,385.97,390.731,393.143,397.381,399.433,401.263,405.583,410.722,412.774,414.601,418.408,422.89,427.741,431.044,433.429,436.686,439.431,441.258,445.74,448.404,450.231,453.003,459.096,463.686,465.513,470.31,474.189,478.185,482.649,485.952,487.779,491.559,494.304,496.131,500.001,503.223,507.714,512.493,517.38,522.132,523.959,528.279,532.599,536.919,538.971,543.291,544.48,548.305,554.632" svgx:width="0.47,0.37,0.44,0.52,0.53,0.43,0.55,0.43,0.23,0.23,1.07,0.43,0.23,0.47,0.55,0.23,0.48,0.53,0.23,0.37,0.52,0.43,0.42,0.31,0.37,0.44,0.23,0.51,0.3,0.23,0.51,0.51,0.31,0.53,0.23,0.47,0.71,0.53,0.23,0.44,0.55,0.53,0.23,0.69,0.47,0.71,0.53,0.23,0.23,0.44,0.37,0.23,0.37,0.53,0.51,0.69,0.55,0.23,0.27,0.55,0.23,0.53,0.27,0.47,0.23,0.23,0.48,0.59,0.23,0.23,0.42,0.51,0.55,0.37,0.27,0.37,0.31,0.23,0.51,0.3,0.23,0.31,0.69,0.51,0.23,0.52,0.43,0.44,0.5,0.37,0.23,0.44,0.31,0.23,0.44,0.37,0.51,0.53,0.55,0.53,0.23,0.48,0.48,0.48,0.23,0.48,0.23,0.43,0.7,0.23" style="fill:rgb(0,0,0);font-family:MinionPro-Regular;font-size:9.0px;stroke:none;">graphene. The Sn 3d spectra of both SGF and ASGF, as shown in Fig. 4B, consist of two peaks at around 487.6 eV </text>
   <text y="421.998" x="155.635,159.568,164.519,169.334,171.395,175.778,180.161,184.544,186.659,188.999,190.186,194.074,199.168,201.283,203.344,207.214,211.759,215.215,218.501,222.389,225.711,230.571,235.117,240.067,244.882,247.357,252.271,256.546,258.607,261.361,266.014,268.075,272.351,277.337,279.398,283.781" svgx:width="0.44,0.55,0.53,0.23,0.48,0.48,0.48,0.23,0.25,0.23,0.43,0.7,0.23,0.23,0.42,0.51,0.37,0.37,0.43,0.37,0.52,0.51,0.55,0.53,0.27,0.55,0.47,0.23,0.31,0.51,0.23,0.47,0.55,0.23,0.48,0.53" style="fill:rgb(0,0,0);font-family:MinionPro-Regular;font-size:9.0px;stroke:none;">and 496.l eV, corresponding to Sn 3d</text>
   <text y="423.8" x="288.608,291.457,293.434" svgx:width="0.48,0.33,0.48" style="fill:rgb(0,0,0);font-family:MinionPro-Regular;font-size:5.85px;stroke:none;">5/2</text>
   <text y="422.0" x="296.284,298.345,302.278,307.229,312.044,314.105,318.381,323.367,325.428,329.811" svgx:width="0.23,0.44,0.55,0.53,0.23,0.47,0.55,0.23,0.48,0.53" style="fill:rgb(0,0,0);font-family:MinionPro-Regular;font-size:9.0px;stroke:none;"> and Sn 3d</text>
   <text y="423.8" x="334.627,337.476,339.453" svgx:width="0.48,0.33,0.48" style="fill:rgb(0,0,0);font-family:MinionPro-Regular;font-size:5.85px;stroke:none;">3/2</text>
   <text y="422.0" x="342.303,344.364,347.685,352.357,354.832,359.818,363.085,367.631,371.033,375.56,377.928,380.736,382.797,387.657,391.6,395.659,400.186,403.552,405.613,410.158,412.885,414.946,419.222,424.208" svgx:width="0.23,0.37,0.52,0.27,0.55,0.36,0.51,0.37,0.51,0.27,0.31,0.23,0.52,0.43,0.44,0.5,0.37,0.23,0.51,0.3,0.23,0.47,0.55,0.75" style="fill:rgb(0,0,0);font-family:MinionPro-Regular;font-size:9.0px;stroke:none;"> spin-orbit peaks of SnO</text>
   <text y="423.8" x="430.997" svgx:width="0.48" style="fill:rgb(0,0,0);font-family:MinionPro-Regular;font-size:5.85px;stroke:none;">2</text>
   <text y="422.0" x="433.846,435.961,438.022,441.308,445.196,448.518,453.378,457.311,461.244,464.098,466.51,470.669,474.521,476.799,480.336,482.451,484.512,488.382,492.927,497.913,502.791,506.247,513.682,516.156,521.071,525.346,527.407,530.27,535.103,538.991,541.052,543.699,548.244,551.431" svgx:width="0.23,0.23,0.37,0.43,0.37,0.52,0.43,0.42,0.31,0.27,0.46,0.43,0.25,0.46,0.23,0.23,0.42,0.51,0.55,0.54,0.37,0.82,0.27,0.55,0.47,0.23,0.31,0.53,0.43,0.23,0.3,0.51,0.37,0.36" style="fill:rgb(0,0,0);font-family:MinionPro-Regular;font-size:9.0px;stroke:none;">, respectively, confirming the for-</text>
   <text y="431.999" x="155.638,163.019,166.836,169.663,172.111,176.63,181.589,183.569,188.088,190.788,192.768,197.016,201.975" svgx:width="0.82,0.44,0.31,0.27,0.51,0.55,0.23,0.51,0.3,0.23,0.47,0.55,0.75" style="fill:rgb(0,0,0);font-family:MinionPro-Regular;font-size:9.0px;stroke:none;">mation of SnO</text>
   <text y="433.8" x="208.734" svgx:width="0.48" style="fill:rgb(0,0,0);font-family:MinionPro-Regular;font-size:5.85px;stroke:none;">2</text>
   <text y="432.0" x="211.566,213.546,218.48,222.387,227.311,231.839,236.637,240.544,244.01,246.837,249.285,253.075,255.388,259.249,262.587,264.568,269.086,274.045,276.025,278.861,283.668,287.529,289.509,292.805,297.62,301.05,303.75,307.737,311.58,315.441,317.421,321.94,324.64,326.62,330.913,334.288,338.105,342.795,347.603,351.464,356.387,360.248,362.228,365.532,370.339,374.246,378.107,380.888,384.227,386.315,388.295,391.13,395.938,399.799,401.779,409.186,411.634,416.423,421.131,423.859,427.72,429.7,434.488,436.936,441.941,445.802,449.06,452.921,457.845,461.688,465.549,467.529,472.219,476.08,478.889,485.019,488.926,492.787,497.746,499.726,504.028,510.499,515.296,517.276,521.183,526.108,530.896,532.876,539.105,543.407,549.878,554.639" svgx:width="0.23,0.55,0.44,0.55,0.51,0.52,0.44,0.37,0.31,0.27,0.42,0.25,0.43,0.37,0.23,0.51,0.55,0.23,0.31,0.53,0.43,0.23,0.37,0.53,0.37,0.3,0.44,0.42,0.43,0.23,0.51,0.3,0.23,0.47,0.37,0.44,0.52,0.53,0.43,0.55,0.43,0.23,0.37,0.53,0.43,0.43,0.31,0.37,0.23,0.23,0.31,0.53,0.43,0.23,0.82,0.27,0.55,0.53,0.31,0.43,0.23,0.53,0.27,0.56,0.43,0.37,0.43,0.55,0.42,0.43,0.23,0.51,0.43,0.31,0.69,0.43,0.43,0.55,0.23,0.47,0.71,0.53,0.23,0.44,0.55,0.53,0.23,0.69,0.47,0.71,0.53,0.23" style="fill:rgb(0,0,0);font-family:MinionPro-Regular;font-size:9.0px;stroke:none;"> nanoparticles on the surface of graphene sheets, the minute difference between SGF and ASGF </text>
   <text y="441.999" x="155.641,158.107,163.048,167.854,170.32,174.209,178.044,180.791,184.67,188.027,190.061,192.916,197.741,201.62,203.654,208.46,210.926,215.949,219.828,223.105,226.984,231.791,234.59,236.624,240.432,245.257,249.136,256.561,259.027,262.916,266.967,269.298,271.332,275.211,279.982,284.231,286.697,289.974,294.511,299.488,306.879,310.758,315.565,318.364,320.398,324.935,327.653,329.687,333.955,338.932" svgx:width="0.27,0.55,0.53,0.27,0.42,0.44,0.31,0.43,0.37,0.23,0.31,0.53,0.43,0.23,0.53,0.27,0.56,0.43,0.37,0.43,0.55,0.31,0.23,0.42,0.53,0.43,0.82,0.27,0.42,0.44,0.25,0.23,0.43,0.55,0.46,0.27,0.37,0.51,0.55,0.82,0.43,0.55,0.31,0.23,0.51,0.3,0.23,0.47,0.55,0.75" style="fill:rgb(0,0,0);font-family:MinionPro-Regular;font-size:9.0px;stroke:none;">indicates the different chemical environment of SnO</text>
   <text y="443.8" x="345.715" svgx:width="0.48" style="fill:rgb(0,0,0);font-family:MinionPro-Regular;font-size:5.85px;stroke:none;">2</text>
   <text y="442.0" x="348.559,350.593,355.544,359.469,364.411,368.958,373.774,377.699,381.183,384.028,386.494,390.301,392.632,396.511" svgx:width="0.23,0.55,0.44,0.55,0.51,0.52,0.44,0.37,0.31,0.27,0.42,0.25,0.43,0.37" style="fill:rgb(0,0,0);font-family:MinionPro-Regular;font-size:9.0px;stroke:none;"> nanoparticles</text>
   <text y="438.94" x="399.87,402.713" svgx:width="0.48,0.48" style="fill:rgb(0,0,0);font-family:MinionPro-Regular;font-size:5.85px;stroke:none;">37</text>
   <text y="442.0" x="405.558,407.664,409.698,414.513,416.979,421.245,426.078,429.356,433.235,435.266,439.64,445.679,447.713,451.035,455.861,460.362,466.581,469.938,471.972,474.825,479.659,483.495,486.294,488.328,491.182,496.008,499.887,501.921,508.698,510.732,515.106,518.463,520.497,524.358,528.895,532.173,536.052,538.086,540.417,544.368,548.519,552.363,554.64" svgx:width="0.23,0.23,0.53,0.27,0.47,0.53,0.37,0.43,0.23,0.48,0.67,0.23,0.37,0.53,0.51,0.69,0.37,0.23,0.31,0.53,0.44,0.31,0.23,0.31,0.53,0.43,0.23,0.75,0.23,0.48,0.37,0.23,0.42,0.51,0.37,0.43,0.23,0.25,0.43,0.46,0.43,0.25,0.23" style="fill:rgb(0,0,0);font-family:MinionPro-Regular;font-size:9.0px;stroke:none;">. Figure 4C shows that the O 1s core level </text>
   <text y="451.999" x="155.637,160.489,164.424,168.475,172.993,175.027,179.565,182.283,184.317,188.637,195.126,199.941,201.975,205.865,209.791,214.768,216.802,221.511,225.39,227.424,230.701,234.58,238.011,242.594,244.864,249.014,252.939,257.745,259.779,262.245,267.053,269.799,274.443,276.477,279.305,285.453,290.097,292.131,295.992,300.529,307.785,312.637,317.174,322.117,325.996,330.804,333.603,336.96,338.994,342.855,346.734,351.542,354.289,358.168,361.445,365.371,370.177,372.211,376.047,378.846,380.88,385.254,389.628,394.002,396.108,400.482,401.688,405.567,410.653,412.759,414.793,418.719,423.661,428.467,430.501,434.875,439.249,443.622,445.728,450.102,451.296,455.175,460.261,462.367,464.401,470.684,475.544,478.01,481.818,486.678,488.712,492.6,496.526,501.503,503.537,508.245,512.124,514.158,518.138,521.451,524.808,527.274,531.587,536.529,540.454,545.26,547.294,550.041,554.63" svgx:width="0.52,0.43,0.44,0.5,0.23,0.51,0.3,0.23,0.47,0.71,0.53,0.23,0.42,0.44,0.55,0.23,0.51,0.43,0.23,0.37,0.43,0.37,0.51,0.25,0.46,0.43,0.53,0.23,0.27,0.55,0.31,0.51,0.23,0.31,0.69,0.51,0.23,0.42,0.51,0.82,0.52,0.51,0.55,0.43,0.55,0.31,0.37,0.23,0.42,0.43,0.55,0.31,0.43,0.37,0.43,0.53,0.23,0.44,0.31,0.23,0.48,0.48,0.48,0.23,0.48,0.23,0.43,0.7,0.23,0.23,0.44,0.55,0.53,0.23,0.48,0.48,0.48,0.23,0.48,0.23,0.43,0.7,0.23,0.23,0.69,0.53,0.27,0.42,0.53,0.23,0.42,0.44,0.55,0.23,0.51,0.43,0.23,0.44,0.37,0.37,0.27,0.47,0.55,0.43,0.53,0.23,0.31,0.51,0.23" style="fill:rgb(0,0,0);font-family:MinionPro-Regular;font-size:9.0px;stroke:none;">peak of SGF can be resolved into two components centered at 531.2 eV, and 532.8 eV, which can be assigned to </text>
   <text y="461.998" x="155.646,159.895,164.854,168.094,174.853,176.833,180.741,185.665,190.453,193.468,197.986,201.361,203.341" svgx:width="0.47,0.55,0.36,0.75,0.23,0.44,0.55,0.53,0.33,0.51,0.37,0.23,0.67" style="fill:rgb(0,0,0);font-family:MinionPro-Regular;font-size:9.0px;stroke:none;">Sn-O and/or C</text>
   <text y="461.998" x="209.362" svgx:width="0.78" style="fill:rgb(0,0,0);font-family:EuclidSymbol;font-size:9.0px;stroke:none;">=</text>
   <text y="461.998" x="216.405,216.819,223.578,225.558,230.248,234.767,239.692,244.453,247.792,249.772,253.679,258.603,263.391,265.371,271.392,274.632,281.311,288.241,290.221,294.128,299.052,303.84,306.855,311.374,314.749,316.729,322.75,325.99,332.749,335.989,342.01,343.99,348.284,351.543,356.071,360.779,365.531,368.87,370.85,374.0,378.635,382.731,387.519,390.779,395.262,399.546,403.777,406.09,408.07,411.978,416.902,421.69,424.705,429.224,432.599,434.579,438.44,443.275,447.758,452.042,456.209,459.359,461.447,463.427,466.686,470.547,473.842,478.676,482.583,486.49,489.317,491.702,495.835,499.661,501.912,505.423,507.511,509.491,516.25,521.209,523.189,527.032,531.551,536.34,539.167,542.542,546.503,549.798,552.579,554.631" svgx:width="0.23,0.75,0.23,0.51,0.51,0.55,0.53,0.37,0.23,0.44,0.55,0.53,0.23,0.67,0.36,0.75,0.77,0.23,0.44,0.55,0.53,0.33,0.51,0.37,0.23,0.67,0.36,0.75,0.36,0.67,0.23,0.47,0.37,0.51,0.53,0.52,0.37,0.23,0.35,0.53,0.46,0.53,0.37,0.51,0.47,0.46,0.25,0.23,0.44,0.55,0.53,0.33,0.51,0.37,0.23,0.43,0.52,0.51,0.47,0.46,0.35,0.23,0.23,0.37,0.43,0.37,0.52,0.43,0.42,0.31,0.27,0.46,0.43,0.25,0.46,0.23,0.23,0.75,0.55,0.23,0.42,0.51,0.55,0.31,0.37,0.44,0.37,0.31,0.23,0.23" style="fill:rgb(0,0,0);font-family:MinionPro-Regular;font-size:9.0px;stroke:none;"> O bonds and C-OH and/or C-O-C groups (hydroxyl and/or epoxy), respectively. On contrast, </text>
   <text y="471.997" x="155.646,160.461,162.927,167.221,169.327,171.362,175.736,182.405,184.439,187.762,192.588,197.09,203.309,206.666,208.7,211.556,216.391,220.226,223.025,225.059,227.914,232.74,236.619,238.653,245.43,247.464,251.838,255.195,257.229,261.09,265.628,268.906,272.785,274.819,277.15,281.103,285.255,289.1,291.431,293.465,298.317,302.252,306.304,310.822,312.856,317.394,320.112,322.146,328.394,332.714,339.203,344.018,346.052,349.913,354.451,359.358,362.715,365.157,368.471,371.27,374.627,376.661,381.199,383.917,385.951,388.806,393.666,396.945,400.871,404.75,406.784,410.645,415.182,422.438,427.292,431.83,436.773,440.652,445.46,448.259,451.616,453.65,457.511,461.39,466.198,468.945,472.824,476.103,480.028,484.834,486.868,490.704,493.503,495.537,499.911,504.285,508.659,510.765,515.139,517.245,519.279,523.653,528.027,532.401,534.507,538.881,540.915,544.841,549.784,554.536" svgx:width="0.53,0.27,0.47,0.23,0.23,0.48,0.74,0.23,0.37,0.53,0.51,0.69,0.37,0.23,0.31,0.53,0.44,0.31,0.23,0.31,0.53,0.43,0.23,0.75,0.23,0.48,0.37,0.23,0.42,0.51,0.37,0.43,0.23,0.25,0.43,0.46,0.43,0.25,0.23,0.52,0.43,0.44,0.5,0.23,0.51,0.3,0.23,0.69,0.47,0.71,0.53,0.23,0.42,0.51,0.55,0.37,0.27,0.37,0.31,0.37,0.23,0.51,0.3,0.23,0.31,0.53,0.37,0.43,0.43,0.23,0.42,0.51,0.82,0.52,0.51,0.55,0.43,0.55,0.31,0.37,0.23,0.42,0.43,0.55,0.31,0.43,0.37,0.43,0.53,0.23,0.44,0.31,0.23,0.48,0.48,0.48,0.23,0.48,0.23,0.23,0.48,0.48,0.48,0.23,0.48,0.23,0.44,0.55,0.53,0.23" style="fill:rgb(0,0,0);font-family:MinionPro-Regular;font-size:9.0px;stroke:none;">Fig. 4D shows that the O 1s core level peak of ASGF consists of three components centered at 531.3, 532.2 and </text>
   <text y="481.996" x="155.646,160.015,164.385,168.754,170.856,175.23,176.4,180.274,185.355,187.456,189.472,195.75,200.605,203.067,206.869,211.729,213.745,217.629,221.548,226.521,228.537,233.239,237.114,239.13,243.103,246.411,249.763,252.225,256.531,261.468,265.387,270.189,272.205,274.946,279.586,281.597,285.86,290.832,294.086,300.858,302.874,306.794,311.73,316.536,319.565,324.096,327.485,329.501" svgx:width="0.48,0.48,0.48,0.23,0.48,0.23,0.43,0.7,0.23,0.23,0.69,0.53,0.27,0.42,0.53,0.23,0.42,0.44,0.55,0.23,0.51,0.43,0.23,0.44,0.37,0.37,0.27,0.47,0.55,0.43,0.53,0.23,0.31,0.51,0.23,0.47,0.55,0.36,0.75,0.23,0.44,0.55,0.53,0.33,0.51,0.37,0.23,0.67" style="fill:rgb(0,0,0);font-family:MinionPro-Regular;font-size:9.0px;stroke:none;">533.3 eV, which can be assigned to Sn-O and/or C</text>
   <text y="481.996" x="335.502" svgx:width="0.78" style="fill:rgb(0,0,0);font-family:EuclidSymbol;font-size:9.0px;stroke:none;">=</text>
   <text y="481.996" x="342.558,342.981,349.753,351.769,356.472,361.003,365.94,370.715,374.068,376.169,378.185,382.447,387.419,390.673,396.707,399.961,406.733,408.749,413.452,417.984,422.921,427.695,431.048,433.149,435.165,439.085,444.021,448.827,450.843,456.878,460.131,466.823,473.766,475.782,479.702,484.638,489.44,492.468,497.001,500.389,502.405,508.44,511.693,518.466,521.719,527.754,529.77,534.076,537.348,541.888,546.609,551.379,554.681" svgx:width="0.23,0.75,0.23,0.51,0.51,0.55,0.53,0.37,0.23,0.23,0.47,0.55,0.36,0.67,0.36,0.75,0.23,0.51,0.51,0.55,0.53,0.37,0.23,0.23,0.44,0.55,0.53,0.23,0.67,0.36,0.75,0.77,0.23,0.44,0.55,0.53,0.33,0.51,0.37,0.23,0.67,0.36,0.75,0.36,0.67,0.23,0.47,0.37,0.51,0.53,0.52,0.37,0.23" style="fill:rgb(0,0,0);font-family:MinionPro-Regular;font-size:9.0px;stroke:none;"> O bonds, Sn-C-O bonds, and C-OH and/or C-O-C groups </text>
   <text y="491.995" x="155.646,158.778,163.398,167.478,172.248,175.491,179.958,184.224,188.438,190.733,192.695,196.586,201.495,206.265,209.262,213.764,217.121,219.083,222.926,227.744,232.211,236.477,240.626" svgx:width="0.35,0.53,0.46,0.53,0.37,0.51,0.47,0.46,0.25,0.23,0.44,0.55,0.53,0.33,0.51,0.37,0.23,0.43,0.52,0.51,0.47,0.46,0.35" style="fill:rgb(0,0,0);font-family:MinionPro-Regular;font-size:9.0px;stroke:none;">(hydroxyl and/or epoxy)</text>
   <text y="488.94" x="243.78,246.6" svgx:width="0.48,0.48" style="fill:rgb(0,0,0);font-family:MinionPro-Regular;font-size:5.85px;stroke:none;">38</text>
   <text y="492.0" x="249.423,251.493,253.455,259.506,261.801,265.7,269.591,272.915,275.15,278.645,280.715,282.677,285.497,290.287,294.13,296.092,299.983,304.924,309.832,313.732,317.748,320.043,322.473,327.345,331.575,333.537,336.348,339.59,343.49,347.291,350.101,357.457,361.3,366.073,368.836,370.798,373.228,378.136,382.801,387.598,391.423,395.266,398.587,400.549,403.369,408.16,412.003,413.965,416.568,421.071,424.485,431.85,435.651,438.462,440.892,445.394,450.335,452.297,456.8,459.482,461.444,466.352,470.27,476.453,478.415,483.088,487.591,492.499,497.245,500.566,502.528,510.844,512.806,515.626,520.417,524.26,526.222,530.454,535.395,538.617,544.62,547.842,554.565" svgx:width="0.23,0.23,0.67,0.25,0.43,0.44,0.37,0.25,0.46,0.23,0.23,0.31,0.53,0.43,0.23,0.44,0.55,0.55,0.43,0.44,0.25,0.27,0.55,0.47,0.23,0.31,0.37,0.43,0.44,0.31,0.82,0.43,0.55,0.31,0.23,0.27,0.55,0.53,0.53,0.42,0.43,0.37,0.23,0.31,0.53,0.43,0.23,0.3,0.51,0.37,0.82,0.44,0.31,0.27,0.51,0.55,0.23,0.51,0.3,0.23,0.55,0.43,0.69,0.23,0.51,0.51,0.55,0.53,0.37,0.23,0.92,0.23,0.31,0.53,0.43,0.23,0.47,0.55,0.36,0.67,0.36,0.75,0.23" style="fill:rgb(0,0,0);font-family:MinionPro-Regular;font-size:9.0px;stroke:none;">. Clearly, the annealing treatment induces the formation of new bonds — the Sn-C-O </text>
   <text y="501.999" x="155.634,160.287,164.769,169.656,174.381,177.684,179.736,181.563,185.37,189.852,194.775,199.59,202.983,210.354,212.766,217.617,221.829,223.656,226.455,231.225,235.05,236.877,240.135,242.925,246.147,250.629,255.48,259.692,261.519,263.931,268.683,271.374,275.199,278.538,282.489,286.358,289.148,291.56,296.042,300.965,302.792,307.445,311.27,314.042,320.135,324.004,327.829,332.752,334.579,337.378,342.148,345.973,347.8,352.012,356.935" svgx:width="0.51,0.51,0.55,0.53,0.37,0.23,0.23,0.42,0.51,0.55,0.54,0.37,0.82,0.27,0.55,0.47,0.23,0.31,0.53,0.43,0.23,0.37,0.31,0.37,0.51,0.55,0.47,0.23,0.27,0.55,0.31,0.43,0.37,0.44,0.42,0.31,0.27,0.51,0.55,0.23,0.51,0.43,0.31,0.69,0.43,0.43,0.55,0.23,0.31,0.53,0.43,0.23,0.47,0.55,0.75" style="fill:rgb(0,0,0);font-family:MinionPro-Regular;font-size:9.0px;stroke:none;">bonds, confirming the strong interaction between the SnO</text>
   <text y="503.8" x="363.656" svgx:width="0.48" style="fill:rgb(0,0,0);font-family:MinionPro-Regular;font-size:5.85px;stroke:none;">2</text>
   <text y="502.0" x="366.464,368.291,373.187,377.057,381.944,386.435,391.196,395.066,398.495,401.285,403.697,407.45,409.727,413.552,416.855,418.682,422.552,427.439,432.191,434.018,436.817,441.587,445.412,447.239,451.496,454.835,458.615,463.268,468.038,471.863,476.75,480.575,482.402,485.66,490.439,493.832,496.496,500.447,504.254,508.025,510.077,511.904,518.131,522.938,525.349,529.102,533.908,535.735,538.12,541.423,543.25,546.049,550.819,554.644" svgx:width="0.23,0.55,0.44,0.55,0.51,0.52,0.44,0.37,0.31,0.27,0.42,0.25,0.43,0.37,0.23,0.44,0.55,0.53,0.23,0.31,0.53,0.43,0.23,0.47,0.37,0.44,0.52,0.53,0.43,0.55,0.43,0.23,0.37,0.53,0.37,0.3,0.44,0.42,0.43,0.23,0.23,0.69,0.53,0.27,0.42,0.53,0.23,0.27,0.37,0.23,0.31,0.53,0.43,0.23" style="fill:rgb(0,0,0);font-family:MinionPro-Regular;font-size:9.0px;stroke:none;"> nanoparticles and the graphene surface, which is the </text>
   <text y="511.999" x="155.639,160.022,163.919,168.05,169.94,172.631,177.221,179.111,183.89,187.679,191.774,195.599,197.489,200.288,205.058,208.883,210.773,214.076,218.234,223.121,226.946,230.213,234.47,236.855,240.113,242.902,245.314,249.121,251.011,254.836,259.804,263.674,267.544,270.289,272.179,274.87,279.46,281.35,283.762,290.962,295.57,298.792,303.238,307.333,311.158,313.048,315.847,320.617,324.442,326.332,330.121,332.398,336.268,340.137,342.927,346.149,350.82,354.573,359.343,363.168,370.539,372.951,376.784,380.78,383.057,384.947,389.555,392.777,397.268,402.065,405.89,409.319,412.109,414.521,418.346" svgx:width="0.5,0.43,0.46,0.23,0.31,0.51,0.23,0.53,0.44,0.46,0.43,0.23,0.31,0.53,0.43,0.23,0.37,0.46,0.55,0.43,0.37,0.47,0.27,0.37,0.31,0.27,0.42,0.23,0.43,0.56,0.43,0.42,0.31,0.23,0.31,0.51,0.23,0.27,0.82,0.52,0.37,0.51,0.46,0.43,0.23,0.31,0.53,0.43,0.23,0.43,0.25,0.43,0.42,0.31,0.37,0.51,0.42,0.53,0.43,0.82,0.27,0.42,0.44,0.25,0.23,0.52,0.37,0.51,0.52,0.43,0.37,0.31,0.27,0.43,0.37" style="fill:rgb(0,0,0);font-family:MinionPro-Regular;font-size:9.0px;stroke:none;">key to have the synergistic effect to improve the electrochemical properties</text>
   <text y="508.94" x="421.684,424.492,427.3,428.634,431.442" svgx:width="0.48,0.48,0.23,0.48,0.48" style="fill:rgb(0,0,0);font-family:MinionPro-Regular;font-size:5.85px;stroke:none;">38,39</text>
   <text y="512.0" x="434.25,436.302,438.192,443.664,447.489,450.792,453.204,457.956,461.781,465.084,467.136,469.026,471.825,476.595,480.42,482.31,486.18,491.103,495.99,499.869,503.864,506.141,508.553,513.404,517.616,519.506,522.296,525.518,529.397,533.177,535.967,543.302,547.127,551.878,554.623" svgx:width="0.23,0.23,0.59,0.43,0.37,0.27,0.53,0.43,0.37,0.23,0.23,0.31,0.53,0.43,0.23,0.44,0.55,0.55,0.43,0.44,0.25,0.27,0.55,0.47,0.23,0.31,0.37,0.43,0.44,0.31,0.82,0.43,0.55,0.31,0.23" style="fill:rgb(0,0,0);font-family:MinionPro-Regular;font-size:9.0px;stroke:none;">. Besides, the annealing treatment </text>
   <text y="521.999" x="155.637,159.682,161.982,165.406,170.046,172.062,176.863,180.783,184.639,187.911,191.84,195.814,199.238,203.113,205.129,207.977,212.797,216.671,218.687,224.722,227.975,234.667,241.611,243.627,247.546,252.483,257.284,260.313,264.845,268.234,270.25,276.284,279.538,286.31,289.564,295.598,297.614,301.921,305.192,309.734,314.454,319.22,322.572,324.588,327.752,332.4,336.509,341.31,344.583,349.078,353.376,357.619,359.946,361.962,365.881,370.819,375.62,378.649,383.18,386.569,388.585,392.459,397.306,401.801,406.099,410.279,413.443,415.459,417.925,422.897,424.913,427.762,432.581,436.456,438.472,441.86,448.345,455.117,457.133,459.982,464.811,468.641,471.435,473.451,477.497,479.796,483.221,487.86,489.876,494.696,498.534,500.754,505.519,508.872,510.888,514.762,519.78,524.608,528.528,533.465,537.322,541.196,543.212,546.061,550.88,554.705" svgx:width="0.44,0.25,0.37,0.51,0.23,0.53,0.43,0.42,0.37,0.43,0.44,0.37,0.43,0.23,0.31,0.53,0.43,0.23,0.67,0.36,0.75,0.77,0.23,0.44,0.55,0.53,0.33,0.51,0.37,0.23,0.67,0.36,0.75,0.36,0.67,0.23,0.47,0.37,0.51,0.53,0.52,0.37,0.23,0.35,0.53,0.46,0.53,0.37,0.51,0.47,0.46,0.25,0.23,0.44,0.55,0.53,0.33,0.51,0.37,0.23,0.43,0.52,0.51,0.47,0.46,0.35,0.23,0.27,0.55,0.23,0.31,0.53,0.43,0.23,0.37,0.71,0.75,0.23,0.31,0.53,0.44,0.31,0.23,0.44,0.25,0.37,0.51,0.23,0.53,0.43,0.25,0.52,0.37,0.23,0.43,0.55,0.53,0.44,0.55,0.42,0.43,0.23,0.31,0.53,0.43,0.23" style="fill:rgb(0,0,0);font-family:MinionPro-Regular;font-size:9.0px;stroke:none;">also decrease the C-OH and/or C-O-C groups (hydroxyl and/or epoxy) in the rGO that also helps enhance the </text>
   <text y="531.998" x="155.637,159.395,161.645,165.484,169.324,172.083,175.446,177.831,181.634,185.599,187.849,189.559,193.339,197.791,202.647,207.261,212.013,215.852,218.611,220.93,225.093,227.367,230.108,234.212,235.918,240.369,243.006,244.716,250.877,255.116,261.524" svgx:width="0.43,0.25,0.43,0.42,0.31,0.37,0.27,0.42,0.44,0.25,0.23,0.42,0.51,0.55,0.53,0.53,0.42,0.31,0.27,0.46,0.27,0.31,0.46,0.23,0.51,0.3,0.23,0.69,0.47,0.71,0.53" style="fill:rgb(0,0,0);font-family:MinionPro-Regular;font-size:9.0px;stroke:none;">electrical conductivity of ASGF</text>
   <text y="528.94" x="266.216,269.007" svgx:width="0.48,0.48" style="fill:rgb(0,0,0);font-family:MinionPro-Regular;font-size:5.85px;stroke:none;">40</text>
   <text y="532.0" x="271.793,273.818,275.528,285.1,288.898,290.604,294.362,296.612,300.451,304.29,307.049,310.242,314.881,318.604,323.344,327.142,334.486,336.871,340.674,344.64,346.89,348.6,353.177,356.368,360.829,365.595,369.393,372.792,375.551,377.936,381.734,385.01,386.72,391.171,393.808,395.514,401.676,405.915,412.323,417.057,418.763,422.603,427.459,432.184,433.89,438.129,444.537,449.271,450.981,457.043,460.841,464.033,467.831,469.536,472.812,476.916,480.144,482.804,486.602,493.915,497.665,500.424,502.809,506.613,510.578,512.869,515.053,519.157,520.867,524.733,528.873,532.839,534.977,539.753,543.502,546.162,550.002,554.755" svgx:width="0.23,0.23,1.07,0.43,0.23,0.43,0.25,0.43,0.42,0.31,0.37,0.51,0.42,0.53,0.43,0.82,0.27,0.42,0.44,0.25,0.23,0.52,0.37,0.51,0.52,0.43,0.37,0.31,0.27,0.43,0.37,0.23,0.51,0.3,0.23,0.69,0.47,0.71,0.53,0.23,0.44,0.55,0.53,0.23,0.47,0.71,0.53,0.23,0.69,0.43,0.37,0.43,0.23,0.37,0.46,0.37,0.31,0.43,0.82,0.44,0.31,0.27,0.42,0.44,0.25,0.25,0.46,0.23,0.43,0.46,0.44,0.25,0.53,0.44,0.31,0.43,0.53,0.23" style="fill:rgb(0,0,0);font-family:MinionPro-Regular;font-size:9.0px;stroke:none;">. The electrochemical properties of ASGF and SGF were systematically evaluated </text>
   <text y="541.999" x="155.639,160.085,164.234,166.196,170.426,174.44,176.672,180.857,184.745,189.65,194.258,197.534,200.351,204.149,206.956,209.386,213.211,215.173,219.943,222.346,225.739,229.509,234.306,238.194,241.479,245.637,249.48,251.442,254.574,256.869,259.191,262.008,266.832,269.154,273.951,281.34,283.302,285.732,290.601,293.994,297.837,301.283,304.091,306.521,311.021,315.962,319.094,322.316,326.087,330.884,334.772,338.057,342.214,346.057,348.019,351.151,353.446,355.768,358.585,363.409,365.73,370.527,377.916,379.878,383.721,387.987,390.794,394.151,398.12,402.008,404.815,407.245,411.745,416.686,419.818,421.78,429.133,433.029,436.971,440.247,445.044,448.284,452.127,459.48,463.323,468.093,470.856,474.177,476.247,478.209,482.988,485.418,489.648,494.445,497.685,501.528,503.488,507.826,514.063,516.133,521.443,523.405,527.23,531.73,538.948,543.727,547.614,550.854,554.679" svgx:width="0.51,0.46,0.23,0.47,0.44,0.25,0.46,0.44,0.55,0.51,0.37,0.31,0.44,0.31,0.27,0.42,0.23,0.53,0.27,0.37,0.42,0.53,0.44,0.37,0.47,0.43,0.23,0.35,0.25,0.27,0.31,0.53,0.27,0.53,0.82,0.23,0.27,0.55,0.37,0.43,0.37,0.31,0.27,0.51,0.55,0.35,0.36,0.42,0.53,0.44,0.37,0.47,0.43,0.23,0.35,0.25,0.27,0.31,0.53,0.27,0.53,0.82,0.23,0.43,0.47,0.31,0.37,0.44,0.42,0.31,0.27,0.51,0.55,0.35,0.23,0.82,0.43,0.44,0.37,0.53,0.37,0.43,0.82,0.43,0.55,0.31,0.37,0.23,0.23,0.53,0.27,0.47,0.53,0.37,0.43,0.23,0.48,0.69,0.23,0.59,0.23,0.42,0.51,0.82,0.52,0.44,0.37,0.43,0.23" style="fill:rgb(0,0,0);font-family:MinionPro-Regular;font-size:9.0px;stroke:none;">by galvanostatic discharge (lithium insertion)-charge (lithium extraction) measurements. Figure 5A,B compare </text>
   <text y="551.998" x="155.639,158.555,163.441,167.383,169.633,173.701,177.876,181.746,184.14,186.669,191.636,195.965,198.215,203.129,207.071,210.58,213.28,217.879,221.388,228.849,232.835,237.839,241.763,245.705,247.955,250.655,255.254,258.71,260.96,267.268,271.651,278.203,282.091,284.26,286.51,290.893,297.445,301.333,303.502,305.752,309.739,314.743,319.612,321.862,326.596,331.492,334.831,338.772,341.022,345.352,350.392" svgx:width="0.31,0.53,0.43,0.23,0.42,0.46,0.42,0.25,0.27,0.55,0.47,0.23,0.52,0.43,0.37,0.3,0.51,0.37,0.82,0.44,0.55,0.42,0.43,0.23,0.3,0.51,0.37,0.23,0.69,0.47,0.71,0.53,0.23,0.23,0.47,0.71,0.53,0.23,0.23,0.44,0.55,0.53,0.23,0.52,0.53,0.37,0.43,0.23,0.47,0.55,0.75" style="fill:rgb(0,0,0);font-family:MinionPro-Regular;font-size:9.0px;stroke:none;">the cycling performance for ASGF, SGF, and pure SnO</text>
   <text y="553.8" x="357.195" svgx:width="0.48" style="fill:rgb(0,0,0);font-family:MinionPro-Regular;font-size:5.85px;stroke:none;">2</text>
   <text y="552.0" x="360.079,362.329,367.341,371.328,376.331,380.939,385.816,389.803,393.349,396.256,398.785,402.655,405.049,408.991,412.411,414.661,418.557,421.419,423.669,427.043,431.957,435.943,439.867,442.396,447.328,451.252,453.502,457.489,462.385,465.895,469.233,473.175,478.043,480.905,484.325,486.575,491.173,493.954,496.204,500.641,505.078,509.515,510.73,518.218,524.554,526.804" svgx:width="0.23,0.55,0.44,0.55,0.51,0.52,0.44,0.37,0.31,0.27,0.42,0.25,0.43,0.37,0.23,0.44,0.31,0.23,0.37,0.52,0.43,0.42,0.27,0.54,0.42,0.23,0.42,0.53,0.37,0.37,0.43,0.55,0.31,0.37,0.23,0.51,0.3,0.23,0.48,0.48,0.48,0.23,0.82,0.69,0.23,0.47" style="fill:rgb(0,0,0);font-family:MinionPro-Regular;font-size:9.0px;stroke:none;"> nanoparticles at specific currents of 200 mA g</text>
   <text y="548.94" x="531.13" svgx:width="0.78" style="fill:rgb(0,0,0);font-family:EuclidSymbol;font-size:5.85px;stroke:none;">−</text>
   <text y="548.94" x="535.763" svgx:width="0.48" style="fill:rgb(0,0,0);font-family:MinionPro-Regular;font-size:5.85px;stroke:none;">1</text>
   <text y="552.0" x="538.649,540.899,544.885,549.889,554.641" svgx:width="0.23,0.44,0.55,0.53,0.23" style="fill:rgb(0,0,0);font-family:MinionPro-Regular;font-size:9.0px;stroke:none;"> and </text>
   <text y="561.999" x="155.636,159.956,164.276,168.596,172.916,174.041,181.412,187.658,192.464,194.222" svgx:width="0.48,0.48,0.48,0.48,0.23,0.82,0.69,0.53,0.23,0.47" style="fill:rgb(0,0,0);font-family:MinionPro-Regular;font-size:9.0px;stroke:none;">1000 mAh g</text>
   <text y="558.94" x="198.437" svgx:width="0.78" style="fill:rgb(0,0,0);font-family:EuclidSymbol;font-size:5.85px;stroke:none;">−</text>
   <text y="558.94" x="202.988" svgx:width="0.48" style="fill:rgb(0,0,0);font-family:MinionPro-Regular;font-size:5.85px;stroke:none;">1</text>
   <text y="562.0" x="205.796,207.556,212.209,216.034,218.805,224.898,228.768,232.593,237.516,239.275,243.595,245.647,249.967,254.287,256.046,259.916,264.803,269.555,271.314,275.634,276.761,283.088,284.848,289.015,292.318,294.37,296.128,301.024" svgx:width="0.23,0.51,0.43,0.31,0.69,0.43,0.43,0.55,0.23,0.48,0.23,0.48,0.48,0.23,0.44,0.55,0.53,0.23,0.48,0.23,0.7,0.23,0.46,0.37,0.23,0.23,0.54,0.27" style="fill:rgb(0,0,0);font-family:MinionPro-Regular;font-size:9.0px;stroke:none;"> between 0.01 and 3 V vs. Li</text>
   <text y="558.94" x="303.434" svgx:width="0.78" style="fill:rgb(0,0,0);font-family:EuclidSymbol;font-size:5.85px;stroke:none;">+</text>
   <text y="562.0" x="307.986,310.965,315.861,318.219,320.271,322.03,331.633,335.458,337.217,339.629,344.552,346.856,349.646,352.085,356.081,358.358,360.116,364.868,367.253,370.628,374.381,379.16,383.03,386.297,390.437,394.262,396.021,399.892,404.779,409.531,411.289,415.042,419.821,423.691,426.958,431.098,434.923,436.683,440.517,444.297,449.057,453.008,456.815,459.119,461.909,464.321,468.146,471.449,473.208,477.691,480.355,482.114,484.913,489.683,493.508,495.268,501.46,505.726,512.161,516.922,518.68,522.46,525.205,526.965,531.285,535.605,539.925,541.049,548.42,554.639" svgx:width="0.33,0.54,0.27,0.23,0.23,1.07,0.43,0.23,0.27,0.55,0.27,0.31,0.27,0.44,0.25,0.23,0.53,0.27,0.37,0.42,0.53,0.44,0.37,0.47,0.43,0.23,0.44,0.55,0.53,0.23,0.42,0.53,0.44,0.37,0.47,0.43,0.23,0.42,0.44,0.52,0.44,0.42,0.27,0.31,0.27,0.43,0.37,0.23,0.51,0.3,0.23,0.31,0.53,0.43,0.23,0.69,0.47,0.71,0.53,0.23,0.44,0.31,0.23,0.48,0.48,0.48,0.23,0.82,0.69,0.23" style="fill:rgb(0,0,0);font-family:MinionPro-Regular;font-size:9.0px;stroke:none;">/Li. The initial discharge and charge capacities of the ASGF at 200 mA </text>
   <text y="571.999" x="155.642" svgx:width="0.47" style="fill:rgb(0,0,0);font-family:MinionPro-Regular;font-size:9.0px;stroke:none;">g</text>
   <text y="568.94" x="159.85" svgx:width="0.78" style="fill:rgb(0,0,0);font-family:EuclidSymbol;font-size:5.85px;stroke:none;">−</text>
   <text y="568.94" x="164.401" svgx:width="0.48" style="fill:rgb(0,0,0);font-family:MinionPro-Regular;font-size:5.85px;stroke:none;">1</text>
   <text y="572.0" x="167.209,169.081,172.951,176.173,179.998,181.87,186.19,190.51,194.83,199.15,200.266,207.637,213.883,218.689,220.561" svgx:width="0.23,0.44,0.37,0.43,0.23,0.48,0.48,0.48,0.48,0.23,0.82,0.69,0.53,0.23,0.47" style="fill:rgb(0,0,0);font-family:MinionPro-Regular;font-size:9.0px;stroke:none;"> are 1653 mAh g</text>
   <text y="568.94" x="224.773" svgx:width="0.78" style="fill:rgb(0,0,0);font-family:EuclidSymbol;font-size:5.85px;stroke:none;">−</text>
   <text y="568.94" x="229.324" svgx:width="0.48" style="fill:rgb(0,0,0);font-family:MinionPro-Regular;font-size:5.85px;stroke:none;">1</text>
   <text y="572.0" x="232.133,234.005,237.875,242.762,247.514,249.386,253.706,258.026,262.346,264.398,268.718,269.833,277.204,283.451,288.257,290.129" svgx:width="0.23,0.44,0.55,0.53,0.23,0.48,0.48,0.48,0.23,0.48,0.23,0.82,0.69,0.53,0.23,0.47" style="fill:rgb(0,0,0);font-family:MinionPro-Regular;font-size:9.0px;stroke:none;"> and 984.2 mAh g</text>
   <text y="568.94" x="294.341" svgx:width="0.78" style="fill:rgb(0,0,0);font-family:EuclidSymbol;font-size:5.85px;stroke:none;">−</text>
   <text y="568.94" x="298.892" svgx:width="0.48" style="fill:rgb(0,0,0);font-family:MinionPro-Regular;font-size:5.85px;stroke:none;">1</text>
   <text y="572.0" x="301.7,303.752,305.624,308.846,312.671,315.929,320.726,324.595,328.465,331.255,333.604,337.699,341.488,343.702,347.176,349.228,351.1,357.292,359.595,362.394,367.2,369.072,373.023,374.895,381.015,385.506,390.33,392.607,397.089,404.37,408.834,411.246,415.053,416.925,420.75,427.932,431.739,434.151,437.976,442.863,446.814,450.945,452.817,455.931,461.916,467.028,470.142,472.014,475.884,479.106,483.597,488.376,493.263,498.015,499.887,504.207,508.527,515.331,517.383,519.255,528.858,532.683,534.555,540.54,545.652,547.524,552.006,554.67" svgx:width="0.23,0.23,0.37,0.43,0.37,0.52,0.43,0.42,0.31,0.27,0.46,0.43,0.25,0.46,0.23,0.23,0.69,0.27,0.31,0.53,0.23,0.44,0.23,0.67,0.51,0.53,0.25,0.51,0.82,0.51,0.27,0.42,0.23,0.43,0.8,0.42,0.27,0.43,0.55,0.42,0.46,0.23,0.35,0.67,0.57,0.35,0.23,0.44,0.37,0.51,0.53,0.55,0.53,0.23,0.48,0.48,0.76,0.23,0.23,1.07,0.43,0.23,0.67,0.57,0.23,0.51,0.3,0.23" style="fill:rgb(0,0,0);font-family:MinionPro-Regular;font-size:9.0px;stroke:none;">, respectively, with a Coulombic efficiency (CE) around 60%. The CE of </text>
   <text y="581.999" x="155.639,158.438,163.208,167.033,168.914,172.289,176.159,179.966,184.448,189.335,194.087,195.968,199.919,203.978,207.731,210.008,213.833,215.714,218.126,223.013,226.82,230.042,233.921,237.845,241.219,245.044,248.347,250.228,252.918,257.508,259.389,264.042,267.867,269.748,274.068,278.388,280.44,284.76,291.564,293.445,297.315,302.202,306.954,308.835,316.179,320.049,322.461,327.213,330.012,333.882,336.294,341.145,344.448,346.329,349.127,353.897,357.722,360.944,364.823,368.693,373.877,377.702,381.041,382.922,386.801,391.454,395.945,400.616,403.361,405.242,409.562,413.882,420.686,422.567,426.437,431.62,435.445,438.784,440.665,444.985,446.141,450.092,454.151,457.904,460.181,464.006,467.309,469.19,472.304,477.065,479.477,483.715,485.767,487.648,491.914,496.234,499.348,501.4,503.281,509.473,514.657,518.482,521.821,523.702,528.022,532.342,533.477,537.428,541.487,545.24,547.517,551.342,554.645" svgx:width="0.31,0.53,0.43,0.23,0.37,0.43,0.42,0.51,0.55,0.53,0.23,0.42,0.46,0.42,0.25,0.43,0.23,0.27,0.55,0.42,0.37,0.43,0.44,0.37,0.43,0.37,0.23,0.31,0.51,0.23,0.51,0.43,0.23,0.48,0.48,0.23,0.48,0.76,0.23,0.44,0.55,0.53,0.23,0.82,0.44,0.27,0.55,0.31,0.44,0.27,0.55,0.37,0.23,0.31,0.53,0.43,0.37,0.43,0.44,0.58,0.43,0.37,0.23,0.44,0.51,0.51,0.53,0.31,0.23,0.48,0.48,0.76,0.23,0.44,0.58,0.43,0.37,0.23,0.48,0.23,0.42,0.46,0.42,0.25,0.43,0.37,0.23,0.35,0.53,0.27,0.47,0.23,0.23,0.47,0.48,0.35,0.23,0.23,0.69,0.58,0.43,0.37,0.23,0.48,0.48,0.23,0.42,0.46,0.42,0.25,0.43,0.37,0.23" style="fill:rgb(0,0,0);font-family:MinionPro-Regular;font-size:9.0px;stroke:none;">the second cycle increases to be 94.7% and maintains thereafter about 97% after 3 cycles (Fig. S1). After 50 cycles </text>
   <text y="591.998" x="155.648,159.428,162.173,164.054,168.374,172.694,177.014,178.139,185.51,191.729,193.61" svgx:width="0.44,0.31,0.23,0.48,0.48,0.48,0.23,0.82,0.69,0.23,0.47" style="fill:rgb(0,0,0);font-family:MinionPro-Regular;font-size:9.0px;stroke:none;">at 200 mA g</text>
   <text y="588.94" x="197.81" svgx:width="0.78" style="fill:rgb(0,0,0);font-family:EuclidSymbol;font-size:5.85px;stroke:none;">−</text>
   <text y="588.94" x="202.362" svgx:width="0.48" style="fill:rgb(0,0,0);font-family:MinionPro-Regular;font-size:5.85px;stroke:none;">1</text>
   <text y="592.0" x="205.169,207.221,209.102,211.901,216.671,220.496,222.377,228.569,232.835,239.27,244.031,245.912,249.701,251.978,255.848,259.718,262.508,265.73,270.401,275.153,278.978,280.859,284.117,286.907,289.363,291.685,293.962,295.843,299.668,303.916,308.722,311.097,315.561,317.865,320.61,323.913,325.794,329.745,331.626,334.847,338.744,342.839,346.664,349.949,353.252,355.628,360.137,362.414,366.239,368.12,371.954,375.734,380.495,384.446,388.253,390.556,393.328,397.459,399.34,403.822,406.486,408.367,412.687,417.007,421.327,422.448,429.819,436.065,440.871,442.752" svgx:width="0.23,0.23,0.31,0.53,0.43,0.23,0.69,0.47,0.71,0.53,0.23,0.43,0.25,0.43,0.42,0.31,0.37,0.51,0.53,0.43,0.23,0.37,0.31,0.27,0.25,0.25,0.23,0.43,0.47,0.53,0.27,0.51,0.27,0.31,0.37,0.23,0.44,0.23,0.37,0.43,0.46,0.43,0.37,0.37,0.27,0.51,0.25,0.43,0.23,0.42,0.44,0.52,0.44,0.42,0.27,0.31,0.46,0.23,0.51,0.3,0.23,0.48,0.48,0.48,0.23,0.82,0.69,0.53,0.23,0.47" style="fill:rgb(0,0,0);font-family:MinionPro-Regular;font-size:9.0px;stroke:none;">, the ASGF electrode still exhibits a reversible capacity of 845 mAh g</text>
   <text y="588.94" x="446.961" svgx:width="0.78" style="fill:rgb(0,0,0);font-family:EuclidSymbol;font-size:5.85px;stroke:none;">−</text>
   <text y="588.94" x="451.512" svgx:width="0.48" style="fill:rgb(0,0,0);font-family:MinionPro-Regular;font-size:5.85px;stroke:none;">1</text>
   <text y="592.0" x="454.32,456.372,458.253,464.481,469.287,471.699,475.452,480.258,482.139,484.524,487.827,489.708,494.028,498.348,500.4,504.72,511.524,513.405,517.887,520.551,522.432,525.231,530.001,533.826,535.707,539.874,543.87,546.039,550.818,554.643" svgx:width="0.23,0.23,0.69,0.53,0.27,0.42,0.53,0.23,0.27,0.37,0.23,0.48,0.48,0.23,0.48,0.76,0.23,0.51,0.3,0.23,0.31,0.53,0.43,0.23,0.46,0.44,0.25,0.53,0.43,0.23" style="fill:rgb(0,0,0);font-family:MinionPro-Regular;font-size:9.0px;stroke:none;">, which is 89.7% of the value </text>
   <text y="601.999" x="155.637,160.119,162.783,164.619,167.418,172.188,176.013,177.849,181.224,185.094,188.901,193.383,198.27,203.022,204.858,208.808,212.868,216.62,218.897,222.668" svgx:width="0.51,0.3,0.23,0.31,0.53,0.43,0.23,0.37,0.43,0.42,0.51,0.55,0.53,0.23,0.42,0.46,0.42,0.25,0.43,0.23" style="fill:rgb(0,0,0);font-family:MinionPro-Regular;font-size:9.0px;stroke:none;">of the second cycle.</text>
   <text y="611.998" x="167.634,172.854,176.985,178.839,182.646,187.128,191.88,194.67,198.009,201.932,205.19,207.935,209.789,212.201,217.124,218.978,223.739,226.151,230.39,232.442,234.296,238.616,244.835,246.887,248.741,251.54,256.31,260.135,261.989,265.939,269.998,273.751,276.028,278.44,283.291,287.503,289.357,293.965,297.187,301.669,306.529,308.806,312.631,315.934,317.788,320.371,324.853,328.192,330.046,332.845,337.615,341.44,343.294,347.56,353.995,358.756,360.61,364.48,369.367,374.119,375.973,378.772,383.542,387.367,389.221,393.838,398.617,401.839,405.664,407.518,411.73,416.653" svgx:width="0.59,0.46,0.23,0.42,0.51,0.55,0.31,0.37,0.44,0.37,0.31,0.23,0.27,0.55,0.23,0.53,0.27,0.47,0.23,0.23,0.48,0.69,0.23,0.23,0.31,0.53,0.43,0.23,0.42,0.46,0.42,0.25,0.27,0.55,0.47,0.23,0.52,0.37,0.51,0.54,0.25,0.43,0.37,0.23,0.3,0.51,0.37,0.23,0.31,0.53,0.43,0.23,0.47,0.71,0.53,0.23,0.44,0.55,0.53,0.23,0.31,0.53,0.43,0.23,0.52,0.53,0.37,0.43,0.23,0.47,0.55,0.75" style="fill:rgb(0,0,0);font-family:MinionPro-Regular;font-size:9.0px;stroke:none;">By contrast in Fig. 5A, the cycling profiles for the SGF and the pure SnO</text>
   <text y="613.8" x="423.375" svgx:width="0.48" style="fill:rgb(0,0,0);font-family:MinionPro-Regular;font-size:5.85px;stroke:none;">2</text>
   <text y="612.0" x="426.183,428.037,432.933,436.803,441.69,446.181,450.942,454.812,458.24,461.03,463.442,467.195,469.472,473.297,476.6,478.454,481.721,486.491,490.937,497.102,498.956,502.763,507.245,511.997,514.787,517.199,521.951,526.73,531.221,535.973,539.276,541.13,545.0,549.887,554.639" svgx:width="0.23,0.55,0.44,0.55,0.51,0.52,0.44,0.37,0.31,0.27,0.42,0.25,0.43,0.37,0.23,0.37,0.53,0.51,0.69,0.23,0.42,0.51,0.55,0.31,0.27,0.55,0.53,0.51,0.53,0.37,0.23,0.44,0.55,0.53,0.23" style="fill:rgb(0,0,0);font-family:MinionPro-Regular;font-size:9.0px;stroke:none;"> nanoparticles show continuous and </text>
   <text y="621.999" x="155.634,160.318,163.615,168.277,172.61,175.907,179.804,183.137,186.512,188.937,193.107,197.004,199.11,203.019,206.875,211.711,215.734,219.613,221.993,224.84,229.043,231.149,235.973,239.919,243.829,247.692,251.895,254.001,258.072,260.421,264.979,269.905,274.189,276.295,282.563,284.942,287.817,292.695,294.801,298.827,302.961,306.79,309.139,311.623,316.549,320.833,322.939,327.623,330.921,335.666,339.545,343.442,346.775,350.226,354.123,357.498,359.622,361.728,364.727,369.722,371.828,375.162,380.034,383.979,387.858,390.342,395.229,399.108,401.232,403.338,406.213,411.058,414.955,417.061,421.885,424.346,427.796,431.625,436.48,440.424,443.767,447.983,451.88,453.986,457.931,462.893,467.717,469.823,473.651,478.505,482.451,485.793,490.009,493.906,496.012,499.922,503.777,508.613,512.636,516.515,518.895,521.759,524.243,528.14,531.515,533.621,538.178,540.914,543.02,545.895,550.74,554.565" svgx:width="0.52,0.37,0.51,0.47,0.37,0.43,0.37,0.37,0.27,0.46,0.43,0.23,0.42,0.44,0.52,0.44,0.42,0.27,0.31,0.46,0.23,0.53,0.43,0.42,0.44,0.46,0.23,0.44,0.25,0.51,0.55,0.47,0.23,0.69,0.27,0.31,0.53,0.23,0.42,0.46,0.42,0.25,0.27,0.55,0.47,0.23,0.52,0.37,0.51,0.42,0.43,0.37,0.37,0.43,0.37,0.23,0.23,0.34,0.55,0.23,0.37,0.52,0.43,0.42,0.27,0.54,0.42,0.23,0.23,0.31,0.53,0.43,0.23,0.53,0.27,0.37,0.42,0.53,0.44,0.37,0.47,0.43,0.23,0.44,0.55,0.53,0.23,0.42,0.53,0.44,0.37,0.47,0.43,0.23,0.42,0.44,0.52,0.44,0.42,0.27,0.31,0.27,0.43,0.37,0.23,0.51,0.3,0.23,0.31,0.53,0.43,0.23" style="fill:rgb(0,0,0);font-family:MinionPro-Regular;font-size:9.0px;stroke:none;">progressive capacity decay along with cycling processes. In specific, the discharge and charge capacities of the </text>
   <text y="631.998" x="155.634,159.99,166.515,171.366,173.526,177.488,182.763,186.678,190.107,192.267,195.157,200.018,203.933,206.093,210.998,214.375,217.724,220.559,222.719,226.762,230.912,234.757,237.124,241.039,243.199,247.16,250.474,254.389,256.549,260.959,265.369,269.779,274.189,276.331,280.741,281.976,289.437,295.774,300.67,302.83" svgx:width="0.47,0.71,0.53,0.23,0.44,0.58,0.43,0.37,0.23,0.31,0.53,0.43,0.23,0.54,0.37,0.37,0.31,0.23,0.42,0.46,0.42,0.25,0.43,0.23,0.44,0.37,0.43,0.23,0.48,0.48,0.48,0.48,0.23,0.48,0.23,0.82,0.69,0.53,0.23,0.47" style="fill:rgb(0,0,0);font-family:MinionPro-Regular;font-size:9.0px;stroke:none;">SGF after the first cycle are 1592.7 mAh g</text>
   <text y="628.94" x="307.141" svgx:width="0.78" style="fill:rgb(0,0,0);font-family:EuclidSymbol;font-size:5.85px;stroke:none;">−</text>
   <text y="628.94" x="311.756" svgx:width="0.48" style="fill:rgb(0,0,0);font-family:MinionPro-Regular;font-size:5.85px;stroke:none;">1</text>
   <text y="632.0" x="314.625,316.785,320.747,325.724,330.566,332.727,337.137,341.547,345.957,348.099,352.509,353.73,361.191,367.528,372.424,374.584" svgx:width="0.23,0.44,0.55,0.53,0.23,0.48,0.48,0.48,0.23,0.48,0.23,0.82,0.69,0.53,0.23,0.47" style="fill:rgb(0,0,0);font-family:MinionPro-Regular;font-size:9.0px;stroke:none;"> and 919.8 mAh g</text>
   <text y="628.94" x="378.892" svgx:width="0.78" style="fill:rgb(0,0,0);font-family:EuclidSymbol;font-size:5.85px;stroke:none;">−</text>
   <text y="628.94" x="383.508" svgx:width="0.48" style="fill:rgb(0,0,0);font-family:MinionPro-Regular;font-size:5.85px;stroke:none;">1</text>
   <text y="632.0" x="386.376,388.518,390.678,393.991,397.906,401.256,406.144,410.106,414.067,416.948,419.389,423.575,427.456,429.762,434.263,436.405,438.565,442.526,447.802,451.717,455.146,457.306,460.196,465.058,468.973,471.133,474.599,478.561,482.458,487.032,492.01,496.852,499.012,503.054,507.205,511.049,513.416,517.279,519.421,521.581,525.543,528.856,532.771,534.931,539.341,543.751,548.161,550.303,554.623" svgx:width="0.23,0.23,0.37,0.43,0.37,0.52,0.43,0.42,0.31,0.27,0.46,0.43,0.25,0.46,0.23,0.23,0.44,0.58,0.43,0.37,0.23,0.31,0.53,0.43,0.23,0.37,0.43,0.42,0.51,0.55,0.53,0.23,0.42,0.46,0.42,0.25,0.43,0.23,0.23,0.44,0.37,0.43,0.23,0.48,0.48,0.48,0.23,0.48,0.23" style="fill:rgb(0,0,0);font-family:MinionPro-Regular;font-size:9.0px;stroke:none;">, respectively; after the second cycle, are 918.1 </text>
   <text y="641.999" x="155.634,159.589,164.561,169.394,171.527,175.928,180.329,184.73,186.863,191.264,192.498,199.95,206.281,211.168,213.301" svgx:width="0.44,0.55,0.53,0.23,0.48,0.48,0.48,0.23,0.48,0.23,0.82,0.69,0.53,0.23,0.47" style="fill:rgb(0,0,0);font-family:MinionPro-Regular;font-size:9.0px;stroke:none;">and 858.4 mAh g</text>
   <text y="638.94" x="217.612" svgx:width="0.78" style="fill:rgb(0,0,0);font-family:EuclidSymbol;font-size:5.85px;stroke:none;">−</text>
   <text y="638.94" x="222.222" svgx:width="0.48" style="fill:rgb(0,0,0);font-family:MinionPro-Regular;font-size:5.85px;stroke:none;">1</text>
   <text y="642.0" x="225.087,227.22,229.353,232.66,236.566,239.908,244.79,248.744,252.699,255.574,258.008,262.188,266.061,268.36,272.855,274.988,277.121,281.075,286.344,290.25,293.67,295.803,300.204,304.605,306.738,310.773,314.917,318.755,321.113,325.019,328.403,330.536,332.669,337.07,341.471,345.872,348.005,352.406,353.688,361.14,367.471,372.358,374.491" svgx:width="0.23,0.23,0.37,0.43,0.37,0.52,0.43,0.42,0.31,0.27,0.46,0.43,0.25,0.46,0.23,0.23,0.44,0.58,0.43,0.37,0.23,0.48,0.48,0.23,0.42,0.46,0.42,0.25,0.43,0.37,0.23,0.23,0.48,0.48,0.48,0.23,0.48,0.23,0.82,0.69,0.53,0.23,0.47" style="fill:rgb(0,0,0);font-family:MinionPro-Regular;font-size:9.0px;stroke:none;">, respectively; after 50 cycles, 638.3 mAh g</text>
   <text y="638.94" x="378.798" svgx:width="0.78" style="fill:rgb(0,0,0);font-family:EuclidSymbol;font-size:5.85px;stroke:none;">−</text>
   <text y="638.94" x="383.408" svgx:width="0.48" style="fill:rgb(0,0,0);font-family:MinionPro-Regular;font-size:5.85px;stroke:none;">1</text>
   <text y="642.0" x="386.273,388.406,392.361,397.332,402.165,404.298,408.699,413.1,417.501,419.634,424.035,425.27,432.722,439.053,443.94,446.073" svgx:width="0.23,0.44,0.55,0.53,0.23,0.48,0.48,0.48,0.23,0.48,0.23,0.82,0.69,0.53,0.23,0.47" style="fill:rgb(0,0,0);font-family:MinionPro-Regular;font-size:9.0px;stroke:none;"> and 634.6 mAh g</text>
   <text y="638.94" x="450.383" svgx:width="0.78" style="fill:rgb(0,0,0);font-family:EuclidSymbol;font-size:5.85px;stroke:none;">−</text>
   <text y="638.94" x="454.992" svgx:width="0.48" style="fill:rgb(0,0,0);font-family:MinionPro-Regular;font-size:5.85px;stroke:none;">1</text>
   <text y="642.0" x="457.858,459.991,462.124,465.43,469.336,472.679,477.56,481.515,485.47,488.344,490.779,494.958,498.832,501.131,504.689,506.822,508.955,518.643,522.549,524.682,528.6,532.465,537.31,541.342,545.23,547.62,550.476,554.607" svgx:width="0.23,0.23,0.37,0.43,0.37,0.52,0.43,0.42,0.31,0.27,0.46,0.43,0.25,0.46,0.23,0.23,1.07,0.43,0.23,0.42,0.44,0.52,0.44,0.42,0.27,0.31,0.46,0.23" style="fill:rgb(0,0,0);font-family:MinionPro-Regular;font-size:9.0px;stroke:none;">, respectively. The capacity </text>
   <text y="651.999" x="155.638,158.935,162.832,165.6,169.497,174.324,177.19,179.674,184.231,189.226,191.332,195.891,198.627,200.733,203.608,208.453,212.35,214.456,218.794,225.301,230.134,232.24,236.187,241.446,245.343,248.754,250.86,253.735,258.581,262.478,264.584,268.976" svgx:width="0.37,0.43,0.31,0.43,0.55,0.31,0.27,0.51,0.55,0.23,0.51,0.3,0.23,0.31,0.53,0.43,0.23,0.47,0.71,0.53,0.23,0.44,0.58,0.43,0.37,0.23,0.31,0.53,0.43,0.23,0.48,0.48" style="fill:rgb(0,0,0);font-family:MinionPro-Regular;font-size:9.0px;stroke:none;">retention of the SGF after the 50</text>
   <text y="648.94" x="273.409,275.275" svgx:width="0.31,0.53" style="fill:rgb(0,0,0);font-family:MinionPro-Regular;font-size:5.85px;stroke:none;">th</text>
   <text y="652.0" x="278.451,280.557,284.583,288.719,292.548,294.897,298.794,300.9,303.36,306.735,308.841,313.233,317.625,319.749,324.141,331.017,333.123,339.391,341.77,344.646,349.524,351.63,354.927,358.824,362.158,367.031,370.976,374.922,377.739,379.845,382.611,387.273,389.379,392.254,397.108,400.965,403.782,405.888,409.834,415.094,418.991,422.402,424.508,427.383,432.228,436.125,438.231,441.683,445.628,449.507,454.065,459.028,463.852,465.958,469.984,474.119,477.948,480.297,484.144,486.268,488.374,493.04,497.598,501.009,503.115,505.989,510.836,514.733,516.839,521.532,526.383,529.681,533.578,535.684,539.972,544.967" svgx:width="0.23,0.42,0.46,0.42,0.25,0.43,0.23,0.27,0.37,0.23,0.48,0.48,0.23,0.48,0.76,0.23,0.69,0.27,0.31,0.53,0.23,0.37,0.43,0.37,0.52,0.43,0.42,0.31,0.23,0.31,0.51,0.23,0.31,0.53,0.44,0.31,0.23,0.44,0.58,0.43,0.37,0.23,0.31,0.53,0.43,0.23,0.37,0.43,0.42,0.51,0.55,0.53,0.23,0.42,0.46,0.42,0.25,0.43,0.23,0.23,0.53,0.51,0.37,0.23,0.31,0.53,0.43,0.23,0.52,0.53,0.37,0.43,0.23,0.47,0.55,0.75" style="fill:rgb(0,0,0);font-family:MinionPro-Regular;font-size:9.0px;stroke:none;"> cycle is 73.9% with respect to that after the second cycle. For the pure SnO</text>
   <text y="653.8" x="551.83" svgx:width="0.48" style="fill:rgb(0,0,0);font-family:MinionPro-Regular;font-size:5.85px;stroke:none;">2</text>
   <text y="652.0" x="554.638" svgx:width="0.23" style="fill:rgb(0,0,0);font-family:MinionPro-Regular;font-size:9.0px;stroke:none;"> </text>
   <text y="661.999" x="155.641,160.537,164.407,169.294,173.785,178.546,182.416,185.845,188.635,191.047,194.8,197.077,200.902,204.205,206.257,208.012,210.811,215.581,219.406,221.161,224.994,228.774,233.535,237.486,241.293,243.597,246.369,250.5,252.255,255.477,259.302,261.993,265.818,270.57,273.359,275.771,280.253,285.176,286.931,289.316,292.619,294.374,301.574,306.353,310.106,314.912,316.667,322.76,327.242,330.527,333.902,337.727,339.482,343.289,347.771,354.97,359.731,363.601,366.823,370.693,375.445,377.2,379.891,384.481,386.236,390.502,396.937,400.708,402.76,404.515,408.385,413.272,418.024,419.779,422.578,427.348,431.173,432.928,436.186,440.983,444.853,448.66,451.072,455.887,459.694,461.449,465.282,469.062,473.823,477.774,481.581,483.885,486.657,490.788,492.543,497.295,500.517,505.008,509.724,513.027,514.782,517.473,522.063,523.818,527.742,531.045,532.8,535.077,539.523,545.688,547.443,551.367,554.67" svgx:width="0.55,0.44,0.55,0.51,0.52,0.44,0.37,0.31,0.27,0.42,0.25,0.43,0.37,0.23,0.23,0.31,0.53,0.43,0.23,0.42,0.44,0.52,0.44,0.42,0.27,0.31,0.46,0.23,0.37,0.43,0.31,0.43,0.55,0.31,0.27,0.51,0.55,0.23,0.27,0.37,0.23,0.82,0.53,0.42,0.53,0.23,0.69,0.51,0.37,0.37,0.43,0.23,0.42,0.51,0.82,0.52,0.44,0.37,0.43,0.53,0.23,0.31,0.51,0.23,0.47,0.71,0.53,0.23,0.23,0.44,0.55,0.53,0.23,0.31,0.53,0.43,0.23,0.37,0.52,0.43,0.42,0.27,0.54,0.42,0.23,0.42,0.44,0.52,0.44,0.42,0.27,0.31,0.46,0.23,0.53,0.37,0.51,0.52,0.37,0.23,0.31,0.51,0.23,0.44,0.37,0.23,0.25,0.51,0.69,0.23,0.44,0.37,0.23" style="fill:rgb(0,0,0);font-family:MinionPro-Regular;font-size:9.0px;stroke:none;">nanoparticles, the capacity retention is much worse compared to SGF, and the specific capacity drops to as low as </text>
   <text y="671.998" x="155.641,159.961,164.281,168.601,170.653,174.973,176.098,183.469,189.715,194.521,196.359" svgx:width="0.48,0.48,0.48,0.23,0.48,0.23,0.82,0.69,0.53,0.23,0.47" style="fill:rgb(0,0,0);font-family:MinionPro-Regular;font-size:9.0px;stroke:none;">201.8 mAh g</text>
   <text y="668.94" x="200.568" svgx:width="0.78" style="fill:rgb(0,0,0);font-family:EuclidSymbol;font-size:5.85px;stroke:none;">−</text>
   <text y="668.94" x="205.119" svgx:width="0.48" style="fill:rgb(0,0,0);font-family:MinionPro-Regular;font-size:5.85px;stroke:none;">1</text>
   <text y="672.0" x="207.927,209.763,213.633,218.817,222.642,225.981,227.817,232.137,236.457,238.293,242.244,246.303,250.056,252.333,256.158,259.461,261.297,265.167,270.054,274.806,276.642,279.864,283.689,291.033,294.903,297.315,302.166,305.469,307.305,310.104,314.874,318.699,321.921,325.8,329.67,334.854,338.679,341.451" svgx:width="0.23,0.44,0.58,0.43,0.37,0.23,0.48,0.48,0.23,0.42,0.46,0.42,0.25,0.43,0.37,0.23,0.44,0.55,0.53,0.23,0.37,0.43,0.82,0.44,0.27,0.55,0.37,0.23,0.31,0.53,0.43,0.37,0.43,0.44,0.58,0.43,0.37,0.23" style="fill:rgb(0,0,0);font-family:MinionPro-Regular;font-size:9.0px;stroke:none;"> after 25 cycles and remains thereafter.</text>
   <text y="681.999" x="167.634,172.463,174.942,179.226,184.073,187.362,191.255,193.331,197.719,203.078,205.157,208.492,213.329,217.844,224.076,227.447,229.526,232.393,237.24,241.087,243.904,245.983,248.849,253.687,257.584,259.663,263.564,267.412,272.24,276.263,280.138,282.51,285.349,289.552,292.824,296.113,300.006,302.764,306.661,311.481,314.338,316.818,321.368,326.358,328.437,332.46,337.217,341.451,345.39,350.209,353.076,357.05,361.258,365.15,367.229,371.78,374.511,376.59,379.457,384.295,388.188,390.267,396.527,400.86,407.363,412.191,414.271,418.784,422.947,426.84,430.246,432.325,435.192,440.03,443.923,446.002,450.34,456.842,461.671,463.75,467.688,472.643,477.462,479.541,482.408,487.245,491.138,493.217,497.901,502.748,506.038,509.931,512.01,516.29,521.281" svgx:width="0.53,0.27,0.47,0.53,0.37,0.43,0.23,0.48,0.59,0.23,0.37,0.53,0.51,0.69,0.37,0.23,0.31,0.53,0.44,0.31,0.23,0.31,0.53,0.43,0.23,0.42,0.44,0.52,0.44,0.42,0.27,0.31,0.46,0.36,0.37,0.43,0.31,0.43,0.55,0.31,0.27,0.51,0.55,0.23,0.44,0.53,0.46,0.44,0.55,0.31,0.44,0.47,0.43,0.23,0.51,0.3,0.23,0.31,0.53,0.43,0.23,0.69,0.47,0.71,0.53,0.23,0.51,0.46,0.43,0.37,0.23,0.31,0.53,0.43,0.23,0.47,0.71,0.53,0.23,0.44,0.55,0.53,0.23,0.31,0.53,0.43,0.23,0.52,0.53,0.37,0.43,0.23,0.47,0.55,0.75" style="fill:rgb(0,0,0);font-family:MinionPro-Regular;font-size:9.0px;stroke:none;">Figure 5B shows that the capacity-retention advantage of the ASGF over the SGF and the pure SnO</text>
   <text y="683.8" x="527.992" svgx:width="0.48" style="fill:rgb(0,0,0);font-family:MinionPro-Regular;font-size:5.85px;stroke:none;">2</text>
   <text y="682.0" x="530.844,532.923,537.888,541.825,546.78,551.436" svgx:width="0.23,0.55,0.44,0.55,0.51,0.36" style="fill:rgb(0,0,0);font-family:MinionPro-Regular;font-size:9.0px;stroke:none;"> nano-</text>
   <text y="691.999" x="155.643,160.491,164.449,167.965,170.841,173.343,177.184,179.551,183.466,186.859,189.001,191.473,194.866,197.008,204.43,209.0,212.309,216.224,218.366,222.998,227.513,231.795,234.297,238.875,243.714,247.107,249.249,253.117,255.952,258.094,262.99,265.492,269.853,274.71,278.625,282.054,284.196,288.154,293.023,296.503,299.812,303.727,308.567,311.402,313.544,318.386,322.301,327.24,330.633,333.024,335.901,338.403,342.318,345.711,347.853,349.995,356.275,361.546,365.461,368.89,371.032,375.442,379.852,384.262,386.404,390.442,394.589,398.428,400.795,404.71,408.103,410.245,414.112,416.947,419.089,421.976,426.833,430.748,432.89,436.235,441.12,445.077,448.974,451.476,456.381,460.278,462.42,466.377,471.246,474.726,478.036,481.951,486.79,489.625,491.767,496.336,499.09,501.232,505.642,510.052,514.462,518.872,519.981,527.442,533.775,538.671,540.813" svgx:width="0.52,0.44,0.37,0.31,0.27,0.42,0.25,0.43,0.37,0.23,0.27,0.37,0.23,0.82,0.51,0.37,0.43,0.23,0.51,0.51,0.46,0.27,0.51,0.53,0.37,0.23,0.44,0.31,0.23,0.53,0.27,0.47,0.53,0.43,0.37,0.23,0.42,0.53,0.37,0.37,0.43,0.55,0.31,0.23,0.53,0.43,0.55,0.37,0.27,0.31,0.27,0.43,0.37,0.23,0.23,0.69,0.58,0.43,0.37,0.23,0.48,0.48,0.48,0.23,0.42,0.46,0.42,0.25,0.43,0.37,0.23,0.44,0.31,0.23,0.31,0.53,0.43,0.23,0.37,0.52,0.43,0.42,0.27,0.54,0.42,0.23,0.42,0.53,0.37,0.37,0.43,0.55,0.31,0.23,0.51,0.3,0.23,0.48,0.48,0.48,0.48,0.23,0.82,0.69,0.53,0.23,0.47" style="fill:rgb(0,0,0);font-family:MinionPro-Regular;font-size:9.0px;stroke:none;">particles is more obvious at higher current densities. After 150 cycles at the specific current of 1000 mAh g</text>
   <text y="688.94" x="545.107" svgx:width="0.78" style="fill:rgb(0,0,0);font-family:EuclidSymbol;font-size:5.85px;stroke:none;">−</text>
   <text y="688.94" x="549.723" svgx:width="0.48" style="fill:rgb(0,0,0);font-family:MinionPro-Regular;font-size:5.85px;stroke:none;">1</text>
   <text y="692.0" x="552.586,554.638" svgx:width="0.23,0.23" style="fill:rgb(0,0,0);font-family:MinionPro-Regular;font-size:9.0px;stroke:none;">, </text>
   <text y="701.999" x="155.641,158.44,163.21,167.035,168.916,172.75,176.53,181.291,185.242,189.049,191.353,194.125,198.256,200.137,204.619,207.283,209.164,215.356,219.622,226.057,230.818,232.699,236.488,238.765,242.635,246.505,249.295,252.517,257.187,261.939,265.764,267.645,270.03,273.333,275.214,279.534,283.854,288.174,290.226,294.546,295.69,303.061,309.307,314.113,315.994" svgx:width="0.31,0.53,0.43,0.23,0.42,0.44,0.52,0.44,0.42,0.27,0.31,0.46,0.23,0.51,0.3,0.23,0.69,0.47,0.71,0.53,0.23,0.43,0.25,0.43,0.42,0.31,0.37,0.51,0.53,0.43,0.23,0.27,0.37,0.23,0.48,0.48,0.48,0.23,0.48,0.23,0.82,0.69,0.53,0.23,0.47" style="fill:rgb(0,0,0);font-family:MinionPro-Regular;font-size:9.0px;stroke:none;">the capacity of ASGF electrode is 533.7 mAh g</text>
   <text y="698.94" x="320.205" svgx:width="0.78" style="fill:rgb(0,0,0);font-family:EuclidSymbol;font-size:5.85px;stroke:none;">−</text>
   <text y="698.94" x="324.756" svgx:width="0.48" style="fill:rgb(0,0,0);font-family:MinionPro-Regular;font-size:5.85px;stroke:none;">1</text>
   <text y="702.0" x="327.564,329.445,335.673,340.479,342.891,346.643,351.449,353.33,355.715,359.018,360.899,368.099,372.878,376.631,381.437,383.318,387.971,391.796,394.45,397.141,400.966,404.305,406.186,408.985,413.764,417.634,422.557,424.438,428.704,435.139,439.9,441.781,444.895,449.215,453.535,457.855,459.907,464.227,465.372,472.743,478.989,483.795,485.676" svgx:width="0.23,0.69,0.53,0.27,0.42,0.53,0.23,0.27,0.37,0.23,0.82,0.53,0.42,0.53,0.23,0.51,0.43,0.31,0.31,0.43,0.37,0.23,0.31,0.53,0.44,0.55,0.23,0.47,0.71,0.53,0.23,0.35,0.48,0.48,0.48,0.23,0.48,0.23,0.82,0.69,0.53,0.23,0.47" style="fill:rgb(0,0,0);font-family:MinionPro-Regular;font-size:9.0px;stroke:none;"> which is much better than SGF (294.8 mAh g</text>
   <text y="698.94" x="489.894" svgx:width="0.78" style="fill:rgb(0,0,0);font-family:EuclidSymbol;font-size:5.85px;stroke:none;">−</text>
   <text y="698.94" x="494.445" svgx:width="0.48" style="fill:rgb(0,0,0);font-family:MinionPro-Regular;font-size:5.85px;stroke:none;">1</text>
   <text y="702.0" x="497.253,500.367,502.248,506.118,511.005,515.757,517.638,522.255,527.034,530.256,534.081,535.962,540.174,545.097" svgx:width="0.35,0.23,0.44,0.55,0.53,0.23,0.52,0.53,0.37,0.43,0.23,0.47,0.55,0.75" style="fill:rgb(0,0,0);font-family:MinionPro-Regular;font-size:9.0px;stroke:none;">) and pure SnO</text>
   <text y="703.8" x="551.83" svgx:width="0.48" style="fill:rgb(0,0,0);font-family:MinionPro-Regular;font-size:5.85px;stroke:none;">2</text>
   <text y="702.0" x="554.638" svgx:width="0.23" style="fill:rgb(0,0,0);font-family:MinionPro-Regular;font-size:9.0px;stroke:none;"> </text>
   <text y="711.999" x="155.641,160.537,164.407,169.294,173.785,178.546,182.416,185.845,188.635,191.047,194.799,197.076,200.901,204.204,206.04,209.154,213.474,217.794,219.846,224.166,225.292,232.663,238.909,243.715,245.551" svgx:width="0.55,0.44,0.55,0.51,0.52,0.44,0.37,0.31,0.27,0.42,0.25,0.43,0.37,0.23,0.35,0.48,0.48,0.23,0.48,0.23,0.82,0.69,0.53,0.23,0.47" style="fill:rgb(0,0,0);font-family:MinionPro-Regular;font-size:9.0px;stroke:none;">nanoparticles (44.1 mAh g</text>
   <text y="708.94" x="249.764" svgx:width="0.78" style="fill:rgb(0,0,0);font-family:EuclidSymbol;font-size:5.85px;stroke:none;">−</text>
   <text y="708.94" x="254.315" svgx:width="0.48" style="fill:rgb(0,0,0);font-family:MinionPro-Regular;font-size:5.85px;stroke:none;">1</text>
   <text y="712.0" x="257.123,260.237" svgx:width="0.35,0.23" style="fill:rgb(0,0,0);font-family:MinionPro-Regular;font-size:9.0px;stroke:none;">).</text>
   <text y="721.999" x="167.636,172.366,174.746,178.927,183.674,186.865,190.658,192.363,196.651,202.605,204.306,207.541,212.28,216.694,222.828,226.099,227.8,230.568,235.306,239.1,240.801,244.108,247.857,250.516,254.31,256.011,259.812,263.562,268.29,272.139,276.571,278.996,281.242,283.514,286.255,290.354,292.055,296.506,299.138,300.839,303.607,308.345,312.138,313.839,319.999,324.234,330.637,335.367,337.068,340.906,345.762,350.482,352.183,356.418,362.821,367.551,369.252,373.009,375.255,379.093,382.932,385.69,388.881,393.52,398.241,402.034,405.306,407.326,409.027,415.071,418.342,420.043,422.811,427.549,431.343,433.044,436.882,441.63,444.991,448.182,451.975,456.696,459.409,461.11,465.831,469.624,474.444,477.715,479.988,482.746,485.127,488.92,492.192,493.893,496.273,501.129,504.904,508.095,511.942,515.835,519.178,522.972,524.673,527.899,530.559,534.352,538.893,545.053,547.407,550.75,554.575" svgx:width="0.53,0.27,0.47,0.53,0.37,0.43,0.23,0.48,0.67,0.23,0.37,0.53,0.51,0.69,0.37,0.23,0.31,0.53,0.43,0.23,0.37,0.44,0.31,0.43,0.23,0.42,0.44,0.52,0.44,0.51,0.27,0.25,0.27,0.31,0.46,0.23,0.51,0.3,0.23,0.31,0.53,0.43,0.23,0.69,0.47,0.71,0.53,0.23,0.44,0.55,0.53,0.23,0.47,0.71,0.53,0.23,0.43,0.25,0.43,0.42,0.31,0.37,0.51,0.53,0.43,0.37,0.23,0.23,0.69,0.37,0.23,0.31,0.53,0.43,0.23,0.42,0.53,0.37,0.37,0.43,0.55,0.31,0.23,0.53,0.43,0.55,0.37,0.27,0.31,0.27,0.43,0.37,0.23,0.27,0.55,0.42,0.37,0.43,0.44,0.37,0.43,0.23,0.37,0.31,0.43,0.52,0.69,0.27,0.37,0.43,0.23" style="fill:rgb(0,0,0);font-family:MinionPro-Regular;font-size:9.0px;stroke:none;">Figure 5C shows the rate capability of the ASGF and SGF electrodes. As the current densities increase stepwise </text>
   <text y="731.998" x="155.639,158.458,161.746,166.292,173.727,175.797,180.18,184.563,188.945,191.016,193.771,198.424,200.494,204.877,209.26,213.643,215.758,217.828,222.211,226.594,230.977,233.092,235.162,239.545,243.928,248.311,252.694,254.764,258.7,263.652,268.467,270.537,274.92,279.303,283.686,288.069,289.289,296.723,303.005,305.075" svgx:width="0.3,0.37,0.51,0.82,0.23,0.48,0.48,0.48,0.23,0.31,0.51,0.23,0.48,0.48,0.48,0.23,0.23,0.48,0.48,0.48,0.23,0.23,0.48,0.48,0.48,0.48,0.23,0.44,0.55,0.53,0.23,0.48,0.48,0.48,0.48,0.23,0.82,0.69,0.23,0.47" style="fill:rgb(0,0,0);font-family:MinionPro-Regular;font-size:9.0px;stroke:none;">from 100 to 200, 500, 1500 and 3000 mA g</text>
   <text y="728.94" x="309.35" svgx:width="0.78" style="fill:rgb(0,0,0);font-family:EuclidSymbol;font-size:5.85px;stroke:none;">−</text>
   <text y="728.94" x="313.949" svgx:width="0.48" style="fill:rgb(0,0,0);font-family:MinionPro-Regular;font-size:5.85px;stroke:none;">1</text>
   <text y="732.0" x="316.799,318.914,320.984,323.848,328.684,332.572,334.642,340.898,345.227,351.725,356.549,358.619,362.473,364.813,368.748,372.683,375.538,378.825,383.561,388.376,392.264,394.334,399.149,403.003,405.343,407.757,411.917,415.805,419.155,422.521,424.591,427.915,430.779,434.723,439.297,441.637,445.525,447.595,451.495,455.34,460.166,464.18,468.05,470.419,473.274,475.749,479.637,483.003,485.073,489.303,493.239,496.904,501.126,503.601,508.518,512.793,514.863,517.682,520.97,525.516,532.95,535.02,539.403,543.786,548.169,550.284,554.604" svgx:width="0.23,0.23,0.31,0.53,0.43,0.23,0.69,0.47,0.71,0.53,0.23,0.43,0.25,0.43,0.42,0.31,0.37,0.51,0.53,0.43,0.23,0.53,0.43,0.25,0.27,0.46,0.43,0.37,0.37,0.23,0.37,0.31,0.44,0.51,0.25,0.43,0.23,0.42,0.44,0.52,0.44,0.42,0.27,0.31,0.27,0.43,0.37,0.23,0.46,0.44,0.37,0.46,0.27,0.55,0.47,0.23,0.3,0.37,0.51,0.82,0.23,0.48,0.48,0.48,0.23,0.48,0.23" style="fill:rgb(0,0,0);font-family:MinionPro-Regular;font-size:9.0px;stroke:none;">, the ASGF electrode delivers stable capacities varying from 922.0 </text>
  </g>
  <rect style="stroke:blue;stroke-width:0.3;" x="155.638" y="64.138" height="269.16" width="396.0" title="4"/>
  <text y="64.138" class="image" id="image.4.1" width="396" height="269" x="155.638">image.4.1.156_552.64_333</text>
  <path style="fill:none;stroke:rgb(131,144,151);stroke-width:0.3;" d="M159.130 344.200 L552.640 344.200 "/>
  <path style="fill:none;stroke:rgb(131,144,151);stroke-width:1.0;" d="M156.140 344.200 L156.140 344.200 M554.140 344.200 L554.140 344.200 "/>
  <g begin="text">
   <text y="334.203" x="155.638,160.552,163.207,167.662,172.657,176.221,180.154,181.909,186.409" svgx:width="0.55,0.29,0.49,0.56,0.4,0.44,0.22,0.5,0.25" style="fill:rgb(0,0,0);font-family:MinionPro-Bold;font-size:9.0px;stroke:none;">Figure 3.</text>
   <text y="334.203" x="188.695,190.765,193.195,199.693,201.997,204.787,208.009,212.599,216.739,220.564,225.487,227.323,231.274,235.999,239.374,243.856,247.285,251.902,254.692,257.104,261.586,266.509,268.345,272.215,277.102,281.854,283.69,288.442,292.267,295.641,300.123,303.552,308.169,310.959,313.371,317.853,322.776,324.612,326.997,330.371,334.863,337.661,342.432,346.257,349.649,356.948,360.251,362.087,366.569,369.233,371.069,377.261,381.527,387.962,392.723,394.559" svgx:width="0.23,0.55,0.74,0.27,0.31,0.37,0.51,0.47,0.43,0.55,0.23,0.44,0.53,0.37,0.51,0.37,0.52,0.31,0.27,0.51,0.55,0.23,0.44,0.55,0.53,0.23,0.53,0.43,0.37,0.51,0.37,0.52,0.31,0.27,0.51,0.55,0.23,0.27,0.37,0.51,0.31,0.53,0.43,0.37,0.82,0.37,0.23,0.51,0.3,0.23,0.69,0.47,0.71,0.53,0.23,0.35" style="fill:rgb(0,0,0);font-family:MinionPro-Regular;font-size:9.0px;stroke:none;"> Nitrogen adsorption and desorption isotherms of ASGF (</text>
   <text y="334.203" x="397.673" svgx:width="0.71" style="fill:rgb(0,0,0);font-family:MinionPro-Bold;font-size:9.0px;stroke:none;">A</text>
   <text y="334.203" x="404.027,407.141,408.977,412.847,417.734,422.486,424.322,428.588,435.023,439.784,441.62" svgx:width="0.35,0.23,0.44,0.55,0.53,0.23,0.47,0.71,0.53,0.23,0.35" style="fill:rgb(0,0,0);font-family:MinionPro-Regular;font-size:9.0px;stroke:none;">) and SGF (</text>
   <text y="334.203" x="444.734" svgx:width="0.64" style="fill:rgb(0,0,0);font-family:MinionPro-Bold;font-size:9.0px;stroke:none;">B</text>
   <text y="334.203" x="450.467,453.581,455.633,457.469,462.95,469.385,475.604,477.44,482.048,485.27,489.752,494.612,496.889,500.714,502.55,507.032,509.696,511.532,515.798,522.233,526.994,528.83" svgx:width="0.35,0.23,0.23,0.62,0.71,0.69,0.23,0.52,0.37,0.51,0.54,0.25,0.43,0.23,0.51,0.3,0.23,0.47,0.71,0.53,0.23,0.35" style="fill:rgb(0,0,0);font-family:MinionPro-Regular;font-size:9.0px;stroke:none;">); TGA profile of SGF (</text>
   <text y="334.203" x="531.944" svgx:width="0.68" style="fill:rgb(0,0,0);font-family:MinionPro-Bold;font-size:9.0px;stroke:none;">C</text>
   <text y="334.203" x="538.028,541.142" svgx:width="0.35,0.23" style="fill:rgb(0,0,0);font-family:MinionPro-Regular;font-size:9.0px;stroke:none;">).</text>
  </g>
 </g>
</svg>
